<?xml version="1.0" encoding="UTF-8" standalone="no"?>
<!DOCTYPE svg PUBLIC "-//W3C//DTD SVG 1.1//EN"
 "http://www.w3.org/Graphics/SVG/1.1/DTD/svg11.dtd">
<!-- Generated by graphviz version 2.43.0 (0)
 -->
<!-- Title: InMemoryURLIndex::RebuildPrivateDataFromHistoryDBTask Pages: 1 -->
<svg width="663pt" height="263pt"
 viewBox="0.00 0.00 663.00 262.50" xmlns="http://www.w3.org/2000/svg" xmlns:xlink="http://www.w3.org/1999/xlink">
<g id="graph0" class="graph" transform="scale(1 1) rotate(0) translate(4 258.5)">
<title>InMemoryURLIndex::RebuildPrivateDataFromHistoryDBTask</title>
<polygon fill="white" stroke="transparent" points="-4,4 -4,-258.5 659,-258.5 659,4 -4,4"/>
<!-- Node1 -->
<g id="node1" class="node">
<title>Node1</title>
<g id="a_node1"><a xlink:title=" ">
<polygon fill="#bfbfbf" stroke="black" points="497,-141.5 497,-171.5 655,-171.5 655,-141.5 497,-141.5"/>
<text text-anchor="start" x="505" y="-159.5" font-family="Helvetica,sans-Serif" font-size="10.00">InMemoryURLIndex::Rebuild</text>
<text text-anchor="middle" x="576" y="-148.5" font-family="Helvetica,sans-Serif" font-size="10.00">PrivateDataFromHistoryDBTask</text>
</a>
</g>
</g>
<!-- Node2 -->
<g id="node2" class="node">
<title>Node2</title>
<g id="a_node2"><a xlink:title=" ">
<polygon fill="white" stroke="#bfbfbf" points="310,-166 310,-185 429,-185 429,-166 310,-166"/>
<text text-anchor="middle" x="369.5" y="-173" font-family="Helvetica,sans-Serif" font-size="10.00">history::HistoryDBTask</text>
</a>
</g>
</g>
<!-- Node2&#45;&gt;Node1 -->
<g id="edge1" class="edge">
<title>Node2&#45;&gt;Node1</title>
<path fill="none" stroke="midnightblue" d="M439.21,-169.12C457.75,-167.39 477.93,-165.52 496.94,-163.75"/>
<polygon fill="midnightblue" stroke="midnightblue" points="438.73,-165.65 429.1,-170.06 439.38,-172.62 438.73,-165.65"/>
</g>
<!-- Node3 -->
<g id="node3" class="node">
<title>Node3</title>
<g id="a_node3"><a xlink:href="../../dd/d7d/classInMemoryURLIndex.html" target="_top" xlink:title=" ">
<polygon fill="white" stroke="black" points="317.5,-128 317.5,-147 421.5,-147 421.5,-128 317.5,-128"/>
<text text-anchor="middle" x="369.5" y="-135" font-family="Helvetica,sans-Serif" font-size="10.00">InMemoryURLIndex</text>
</a>
</g>
</g>
<!-- Node3&#45;&gt;Node1 -->
<g id="edge2" class="edge">
<title>Node3&#45;&gt;Node1</title>
<path fill="none" stroke="#9a32cd" stroke-dasharray="5,2" d="M431.69,-143.19C452.13,-145.08 475.19,-147.23 496.74,-149.23"/>
<polygon fill="#9a32cd" stroke="#9a32cd" points="431.86,-139.69 421.58,-142.25 431.21,-146.66 431.86,-139.69"/>
<text text-anchor="middle" x="463" y="-150.5" font-family="Helvetica,sans-Serif" font-size="10.00"> index_</text>
</g>
<!-- Node4 -->
<g id="node4" class="node">
<title>Node4</title>
<g id="a_node4"><a xlink:title=" ">
<polygon fill="white" stroke="#bfbfbf" points="42,-235 42,-254 119,-254 119,-235 42,-235"/>
<text text-anchor="middle" x="80.5" y="-242" font-family="Helvetica,sans-Serif" font-size="10.00">KeyedService</text>
</a>
</g>
</g>
<!-- Node4&#45;&gt;Node3 -->
<g id="edge3" class="edge">
<title>Node4&#45;&gt;Node3</title>
<path fill="none" stroke="midnightblue" d="M129.07,-233.46C139.61,-230.93 150.7,-228.18 161,-225.5 219.54,-210.24 244.46,-225.92 292,-188.5 304.82,-178.41 297.38,-166.84 310,-156.5 314.71,-152.64 320.22,-149.56 325.95,-147.1"/>
<polygon fill="midnightblue" stroke="midnightblue" points="128.1,-230.1 119.19,-235.82 129.73,-236.91 128.1,-230.1"/>
</g>
<!-- Node5 -->
<g id="node5" class="node">
<title>Node5</title>
<g id="a_node5"><a xlink:title=" ">
<polygon fill="white" stroke="#bfbfbf" points="2.5,-197 2.5,-216 158.5,-216 158.5,-197 2.5,-197"/>
<text text-anchor="middle" x="80.5" y="-204" font-family="Helvetica,sans-Serif" font-size="10.00">history::HistoryServiceObserver</text>
</a>
</g>
</g>
<!-- Node5&#45;&gt;Node3 -->
<g id="edge4" class="edge">
<title>Node5&#45;&gt;Node3</title>
<path fill="none" stroke="midnightblue" d="M145.63,-195.09C187.57,-187.14 243.39,-175.64 292,-162.5 300.14,-160.3 301.99,-159.14 310,-156.5 319.43,-153.4 329.73,-150.04 339.03,-147.02"/>
<polygon fill="midnightblue" stroke="midnightblue" points="144.73,-191.7 135.55,-196.99 146.02,-198.58 144.73,-191.7"/>
</g>
<!-- Node6 -->
<g id="node6" class="node">
<title>Node6</title>
<g id="a_node6"><a xlink:title=" ">
<polygon fill="white" stroke="#bfbfbf" points="19.5,-147.5 19.5,-177.5 141.5,-177.5 141.5,-147.5 19.5,-147.5"/>
<text text-anchor="start" x="27.5" y="-165.5" font-family="Helvetica,sans-Serif" font-size="10.00">base::SupportsWeakPtr</text>
<text text-anchor="middle" x="80.5" y="-154.5" font-family="Helvetica,sans-Serif" font-size="10.00">&lt; InMemoryURLIndex &gt;</text>
</a>
</g>
</g>
<!-- Node6&#45;&gt;Node3 -->
<g id="edge5" class="edge">
<title>Node6&#45;&gt;Node3</title>
<path fill="none" stroke="midnightblue" d="M151.65,-156.39C202.79,-151.93 270.91,-146 317.06,-141.98"/>
<polygon fill="midnightblue" stroke="midnightblue" points="151.32,-152.9 141.66,-157.26 151.93,-159.88 151.32,-152.9"/>
</g>
<!-- Node7 -->
<g id="node7" class="node">
<title>Node7</title>
<g id="a_node7"><a xlink:title=" ">
<polygon fill="white" stroke="#bfbfbf" points="23.5,-98.5 23.5,-128.5 137.5,-128.5 137.5,-98.5 23.5,-98.5"/>
<text text-anchor="start" x="31.5" y="-116.5" font-family="Helvetica,sans-Serif" font-size="10.00">base::trace_event::</text>
<text text-anchor="middle" x="80.5" y="-105.5" font-family="Helvetica,sans-Serif" font-size="10.00">MemoryDumpProvider</text>
</a>
</g>
</g>
<!-- Node7&#45;&gt;Node3 -->
<g id="edge6" class="edge">
<title>Node7&#45;&gt;Node3</title>
<path fill="none" stroke="midnightblue" d="M147.59,-119.03C199.26,-123.35 270.06,-129.27 317.44,-133.23"/>
<polygon fill="midnightblue" stroke="midnightblue" points="147.77,-115.53 137.52,-118.18 147.19,-122.51 147.77,-115.53"/>
</g>
<!-- Node8 -->
<g id="node8" class="node">
<title>Node8</title>
<g id="a_node8"><a xlink:href="../../dd/dc8/classInMemoryURLIndex_1_1RestoreCacheObserver.html" target="_top" xlink:title=" ">
<polygon fill="white" stroke="black" points="8,-49.5 8,-79.5 153,-79.5 153,-49.5 8,-49.5"/>
<text text-anchor="start" x="16" y="-67.5" font-family="Helvetica,sans-Serif" font-size="10.00">InMemoryURLIndex::Restore</text>
<text text-anchor="middle" x="80.5" y="-56.5" font-family="Helvetica,sans-Serif" font-size="10.00">CacheObserver</text>
</a>
</g>
</g>
<!-- Node8&#45;&gt;Node3 -->
<g id="edge7" class="edge">
<title>Node8&#45;&gt;Node3</title>
<path fill="none" stroke="#9a32cd" stroke-dasharray="5,2" d="M163.51,-77.17C202.81,-84.17 250.29,-94.01 292,-106.5 311.36,-112.3 332.6,-121.11 347.78,-127.86"/>
<polygon fill="#9a32cd" stroke="#9a32cd" points="163.9,-73.68 153.45,-75.4 162.69,-80.58 163.9,-73.68"/>
<text text-anchor="middle" x="235.5" y="-109.5" font-family="Helvetica,sans-Serif" font-size="10.00"> restore_cache_observer_</text>
</g>
<!-- Node9 -->
<g id="node9" class="node">
<title>Node9</title>
<g id="a_node9"><a xlink:href="../../df/dfe/classInMemoryURLIndex_1_1SaveCacheObserver.html" target="_top" xlink:title=" ">
<polygon fill="white" stroke="black" points="0,-0.5 0,-30.5 161,-30.5 161,-0.5 0,-0.5"/>
<text text-anchor="start" x="8" y="-18.5" font-family="Helvetica,sans-Serif" font-size="10.00">InMemoryURLIndex::SaveCache</text>
<text text-anchor="middle" x="80.5" y="-7.5" font-family="Helvetica,sans-Serif" font-size="10.00">Observer</text>
</a>
</g>
</g>
<!-- Node9&#45;&gt;Node3 -->
<g id="edge8" class="edge">
<title>Node9&#45;&gt;Node3</title>
<path fill="none" stroke="#9a32cd" stroke-dasharray="5,2" d="M171.47,-26.27C210.23,-33.53 255.04,-45.59 292,-65.5 321.87,-81.59 348.72,-112.31 361.17,-127.9"/>
<polygon fill="#9a32cd" stroke="#9a32cd" points="171.7,-22.75 161.24,-24.43 170.46,-29.64 171.7,-22.75"/>
<text text-anchor="middle" x="235.5" y="-68.5" font-family="Helvetica,sans-Serif" font-size="10.00"> save_cache_observer_</text>
</g>
</g>
</svg>
