<?xml version="1.0" encoding="UTF-8" standalone="no"?>
<!DOCTYPE svg PUBLIC "-//W3C//DTD SVG 1.1//EN"
 "http://www.w3.org/Graphics/SVG/1.1/DTD/svg11.dtd">
<!-- Generated by graphviz version 2.43.0 (0)
 -->
<!-- Title: OmniboxMetricsProvider::RecordOmniboxOpenedURL Pages: 1 -->
<svg width="502pt" height="39pt"
 viewBox="0.00 0.00 502.00 39.00" xmlns="http://www.w3.org/2000/svg" xmlns:xlink="http://www.w3.org/1999/xlink">
<g id="graph0" class="graph" transform="scale(1 1) rotate(0) translate(4 35)">
<title>OmniboxMetricsProvider::RecordOmniboxOpenedURL</title>
<polygon fill="white" stroke="transparent" points="-4,4 -4,-35 498,-35 498,4 -4,4"/>
<!-- Node1 -->
<g id="node1" class="node">
<title>Node1</title>
<g id="a_node1"><a xlink:title=" ">
<polygon fill="#bfbfbf" stroke="black" points="347,-0.5 347,-30.5 494,-30.5 494,-0.5 347,-0.5"/>
<text text-anchor="start" x="355" y="-18.5" font-family="Helvetica,sans-Serif" font-size="10.00">OmniboxMetricsProvider</text>
<text text-anchor="middle" x="420.5" y="-7.5" font-family="Helvetica,sans-Serif" font-size="10.00">::RecordOmniboxOpenedURL</text>
</a>
</g>
</g>
<!-- Node2 -->
<g id="node2" class="node">
<title>Node2</title>
<g id="a_node2"><a xlink:href="../../d3/db5/classOmniboxMetricsProvider.html#a3949b64993bc074b68c77c586bec0aad" target="_top" xlink:title=" ">
<polygon fill="white" stroke="black" points="160,-0.5 160,-30.5 311,-30.5 311,-0.5 160,-0.5"/>
<text text-anchor="start" x="168" y="-18.5" font-family="Helvetica,sans-Serif" font-size="10.00">OmniboxMetricsProvider</text>
<text text-anchor="middle" x="235.5" y="-7.5" font-family="Helvetica,sans-Serif" font-size="10.00">::OnURLOpenedFromOmnibox</text>
</a>
</g>
</g>
<!-- Node1&#45;&gt;Node2 -->
<g id="edge1" class="edge">
<title>Node1&#45;&gt;Node2</title>
<path fill="none" stroke="midnightblue" d="M336.89,-15.5C328.3,-15.5 319.6,-15.5 311.1,-15.5"/>
<polygon fill="midnightblue" stroke="midnightblue" points="336.91,-19 346.91,-15.5 336.91,-12 336.91,-19"/>
</g>
<!-- Node3 -->
<g id="node3" class="node">
<title>Node3</title>
<g id="a_node3"><a xlink:href="../../d3/db5/classOmniboxMetricsProvider.html#a51a417a9f32c55f4272050a39cb5cc98" target="_top" xlink:title=" ">
<polygon fill="white" stroke="black" points="0,-0.5 0,-30.5 124,-30.5 124,-0.5 0,-0.5"/>
<text text-anchor="start" x="8" y="-18.5" font-family="Helvetica,sans-Serif" font-size="10.00">OmniboxMetricsProvider</text>
<text text-anchor="middle" x="62" y="-7.5" font-family="Helvetica,sans-Serif" font-size="10.00">::OnRecordingEnabled</text>
</a>
</g>
</g>
<!-- Node2&#45;&gt;Node3 -->
<g id="edge2" class="edge">
<title>Node2&#45;&gt;Node3</title>
<path fill="none" stroke="midnightblue" d="M149.68,-15.5C141.05,-15.5 132.41,-15.5 124.11,-15.5"/>
<polygon fill="midnightblue" stroke="midnightblue" points="149.78,-19 159.78,-15.5 149.78,-12 149.78,-19"/>
</g>
</g>
</svg>
