<?xml version="1.0" encoding="UTF-8" standalone="no"?>
<!DOCTYPE svg PUBLIC "-//W3C//DTD SVG 1.1//EN"
 "http://www.w3.org/Graphics/SVG/1.1/DTD/svg11.dtd">
<!-- Generated by graphviz version 2.43.0 (0)
 -->
<!-- Title: OmniboxSuggestionButtonRowView Pages: 1 -->
<svg width="1636pt" height="448pt"
 viewBox="0.00 0.00 1636.00 448.00" xmlns="http://www.w3.org/2000/svg" xmlns:xlink="http://www.w3.org/1999/xlink">
<g id="graph0" class="graph" transform="scale(1 1) rotate(0) translate(4 444)">
<title>OmniboxSuggestionButtonRowView</title>
<polygon fill="white" stroke="transparent" points="-4,4 -4,-444 1632,-444 1632,4 -4,4"/>
<!-- Node1 -->
<g id="node1" class="node">
<title>Node1</title>
<g id="a_node1"><a xlink:title=" ">
<polygon fill="#bfbfbf" stroke="black" points="1453,-191.5 1453,-210.5 1628,-210.5 1628,-191.5 1453,-191.5"/>
<text text-anchor="middle" x="1540.5" y="-198.5" font-family="Helvetica,sans-Serif" font-size="10.00">OmniboxSuggestionButtonRowView</text>
</a>
</g>
</g>
<!-- Node2 -->
<g id="node2" class="node">
<title>Node2</title>
<g id="a_node2"><a xlink:title=" ">
<polygon fill="white" stroke="#bfbfbf" points="685.5,-215.5 685.5,-234.5 755.5,-234.5 755.5,-215.5 685.5,-215.5"/>
<text text-anchor="middle" x="720.5" y="-222.5" font-family="Helvetica,sans-Serif" font-size="10.00">views::View</text>
</a>
</g>
</g>
<!-- Node2&#45;&gt;Node1 -->
<g id="edge1" class="edge">
<title>Node2&#45;&gt;Node1</title>
<path fill="none" stroke="midnightblue" d="M765.95,-225.3C878.2,-225.79 1182.17,-225.56 1435,-211 1440.82,-210.66 1446.82,-210.26 1452.86,-209.8"/>
<polygon fill="midnightblue" stroke="midnightblue" points="765.71,-221.8 755.7,-225.25 765.68,-228.8 765.71,-221.8"/>
</g>
<!-- Node13 -->
<g id="node13" class="node">
<title>Node13</title>
<g id="a_node13"><a xlink:href="../../d7/d88/classOmniboxPopupContentsView.html" target="_top" xlink:title=" ">
<polygon fill="white" stroke="black" points="895,-139.5 895,-158.5 1040,-158.5 1040,-139.5 895,-139.5"/>
<text text-anchor="middle" x="967.5" y="-146.5" font-family="Helvetica,sans-Serif" font-size="10.00">OmniboxPopupContentsView</text>
</a>
</g>
</g>
<!-- Node2&#45;&gt;Node13 -->
<g id="edge14" class="edge">
<title>Node2&#45;&gt;Node13</title>
<path fill="none" stroke="midnightblue" d="M765.7,-220.34C798.18,-215.43 842.48,-205.56 877,-186 886.84,-180.42 885.2,-173.65 895,-168 901.68,-164.15 909.15,-161.07 916.69,-158.59"/>
<polygon fill="midnightblue" stroke="midnightblue" points="765.01,-216.9 755.6,-221.76 765.99,-223.83 765.01,-216.9"/>
</g>
<!-- Node3 -->
<g id="node3" class="node">
<title>Node3</title>
<g id="a_node3"><a xlink:href="../../d0/d22/classOmniboxEditModel.html" target="_top" xlink:title=" ">
<polygon fill="white" stroke="black" points="671,-320.5 671,-339.5 770,-339.5 770,-320.5 671,-320.5"/>
<text text-anchor="middle" x="720.5" y="-327.5" font-family="Helvetica,sans-Serif" font-size="10.00">OmniboxEditModel</text>
</a>
</g>
</g>
<!-- Node3&#45;&gt;Node1 -->
<g id="edge2" class="edge">
<title>Node3&#45;&gt;Node1</title>
<path fill="none" stroke="#9a32cd" stroke-dasharray="5,2" d="M780.52,-330.8C865.3,-331.05 1026.18,-328.11 1161,-306 1295.92,-283.87 1451.68,-232 1512.87,-210.54"/>
<polygon fill="#9a32cd" stroke="#9a32cd" points="780.34,-327.3 770.32,-330.76 780.31,-334.3 780.34,-327.3"/>
<text text-anchor="middle" x="1109.5" y="-321" font-family="Helvetica,sans-Serif" font-size="10.00"> model_</text>
</g>
<!-- Node3&#45;&gt;Node13 -->
<g id="edge25" class="edge">
<title>Node3&#45;&gt;Node13</title>
<path fill="none" stroke="#9a32cd" stroke-dasharray="5,2" d="M739.95,-313.26C756.69,-298.38 782.3,-276.35 806,-259 836.15,-236.93 853.24,-242.83 877,-214 890.97,-197.06 878.62,-182.62 895,-168 899.31,-164.15 904.32,-161.07 909.64,-158.6"/>
<polygon fill="#9a32cd" stroke="#9a32cd" points="737.17,-311.05 732.06,-320.33 741.84,-316.26 737.17,-311.05"/>
<text text-anchor="middle" x="841.5" y="-262" font-family="Helvetica,sans-Serif" font-size="10.00"> edit_model_</text>
</g>
<!-- Node4 -->
<g id="node4" class="node">
<title>Node4</title>
<g id="a_node4"><a xlink:href="../../dc/d81/classOmniboxEditController.html" target="_top" xlink:title=" ">
<polygon fill="white" stroke="black" points="170,-343.5 170,-362.5 285,-362.5 285,-343.5 170,-343.5"/>
<text text-anchor="middle" x="227.5" y="-350.5" font-family="Helvetica,sans-Serif" font-size="10.00">OmniboxEditController</text>
</a>
</g>
</g>
<!-- Node4&#45;&gt;Node3 -->
<g id="edge3" class="edge">
<title>Node4&#45;&gt;Node3</title>
<path fill="none" stroke="#9a32cd" stroke-dasharray="5,2" d="M254.21,-367.38C281.84,-381.95 327.51,-403.5 370,-412 485.73,-435.16 526.32,-441.02 635,-395 666.02,-381.86 695.64,-354.55 710.18,-339.86"/>
<polygon fill="#9a32cd" stroke="#9a32cd" points="255.69,-364.21 245.23,-362.56 252.38,-370.37 255.69,-364.21"/>
<text text-anchor="middle" x="444.5" y="-432" font-family="Helvetica,sans-Serif" font-size="10.00"> controller_</text>
</g>
<!-- Node8 -->
<g id="node8" class="node">
<title>Node8</title>
<g id="a_node8"><a xlink:href="../../d9/d1e/classOmniboxView.html" target="_top" xlink:title=" ">
<polygon fill="white" stroke="black" points="406,-256.5 406,-275.5 483,-275.5 483,-256.5 406,-256.5"/>
<text text-anchor="middle" x="444.5" y="-263.5" font-family="Helvetica,sans-Serif" font-size="10.00">OmniboxView</text>
</a>
</g>
</g>
<!-- Node4&#45;&gt;Node8 -->
<g id="edge8" class="edge">
<title>Node4&#45;&gt;Node8</title>
<path fill="none" stroke="#9a32cd" stroke-dasharray="5,2" d="M258.81,-339.23C287.3,-326.46 331.23,-307.19 370,-292 384.74,-286.22 401.36,-280.29 415.06,-275.56"/>
<polygon fill="#9a32cd" stroke="#9a32cd" points="257.1,-336.17 249.41,-343.46 259.97,-342.55 257.1,-336.17"/>
<text text-anchor="middle" x="327.5" y="-322" font-family="Helvetica,sans-Serif" font-size="10.00"> controller_</text>
</g>
<!-- Node5 -->
<g id="node5" class="node">
<title>Node5</title>
<g id="a_node5"><a xlink:title=" ">
<polygon fill="white" stroke="#bfbfbf" points="0,-338 0,-368 133,-368 133,-338 0,-338"/>
<text text-anchor="start" x="8" y="-356" font-family="Helvetica,sans-Serif" font-size="10.00">base::SupportsWeakPtr</text>
<text text-anchor="middle" x="66.5" y="-345" font-family="Helvetica,sans-Serif" font-size="10.00">&lt; OmniboxEditController &gt;</text>
</a>
</g>
</g>
<!-- Node5&#45;&gt;Node4 -->
<g id="edge4" class="edge">
<title>Node5&#45;&gt;Node4</title>
<path fill="none" stroke="midnightblue" d="M143.2,-353C152.2,-353 161.27,-353 169.94,-353"/>
<polygon fill="midnightblue" stroke="midnightblue" points="143.09,-349.5 133.09,-353 143.09,-356.5 143.09,-349.5"/>
</g>
<!-- Node6 -->
<g id="node6" class="node">
<title>Node6</title>
<g id="a_node6"><a xlink:href="../../d5/d39/structSplitAutocompletion.html" target="_top" xlink:title=" ">
<polygon fill="white" stroke="black" points="392.5,-383.5 392.5,-402.5 496.5,-402.5 496.5,-383.5 392.5,-383.5"/>
<text text-anchor="middle" x="444.5" y="-390.5" font-family="Helvetica,sans-Serif" font-size="10.00">SplitAutocompletion</text>
</a>
</g>
</g>
<!-- Node6&#45;&gt;Node3 -->
<g id="edge5" class="edge">
<title>Node6&#45;&gt;Node3</title>
<path fill="none" stroke="#9a32cd" stroke-dasharray="5,2" d="M506.95,-385.55C544.34,-380.29 592.85,-372.19 635,-361 656.45,-355.31 680.1,-346.39 696.91,-339.58"/>
<polygon fill="#9a32cd" stroke="#9a32cd" points="506.15,-382.13 496.72,-386.95 507.1,-389.06 506.15,-382.13"/>
<text text-anchor="middle" x="586" y="-383" font-family="Helvetica,sans-Serif" font-size="10.00"> split_autocompletion_</text>
</g>
<!-- Node7 -->
<g id="node7" class="node">
<title>Node7</title>
<g id="a_node7"><a xlink:href="../../db/de1/classOmniboxPopupView.html" target="_top" xlink:title=" ">
<polygon fill="white" stroke="black" points="392,-204.5 392,-223.5 497,-223.5 497,-204.5 392,-204.5"/>
<text text-anchor="middle" x="444.5" y="-211.5" font-family="Helvetica,sans-Serif" font-size="10.00">OmniboxPopupView</text>
</a>
</g>
</g>
<!-- Node7&#45;&gt;Node3 -->
<g id="edge6" class="edge">
<title>Node7&#45;&gt;Node3</title>
<path fill="none" stroke="#9a32cd" stroke-dasharray="5,2" d="M507.27,-224.24C545.43,-232.09 594.63,-245.03 635,-265 664.86,-279.77 694.51,-305.9 709.48,-320.12"/>
<polygon fill="#9a32cd" stroke="#9a32cd" points="507.82,-220.78 497.32,-222.25 506.45,-227.64 507.82,-220.78"/>
<text text-anchor="middle" x="586" y="-268" font-family="Helvetica,sans-Serif" font-size="10.00"> popup_view_</text>
</g>
<!-- Node7&#45;&gt;Node13 -->
<g id="edge15" class="edge">
<title>Node7&#45;&gt;Node13</title>
<path fill="none" stroke="midnightblue" d="M507.45,-206.61C591.28,-196.56 745.49,-177.89 877,-161 883.22,-160.2 889.68,-159.36 896.16,-158.51"/>
<polygon fill="midnightblue" stroke="midnightblue" points="506.84,-203.16 497.33,-207.82 507.68,-210.11 506.84,-203.16"/>
</g>
<!-- Node8&#45;&gt;Node3 -->
<g id="edge7" class="edge">
<title>Node8&#45;&gt;Node3</title>
<path fill="none" stroke="#9a32cd" stroke-dasharray="5,2" d="M493.13,-273.26C531.69,-279.56 587.24,-289.61 635,-302 654.9,-307.16 676.93,-314.52 693.5,-320.39"/>
<polygon fill="#9a32cd" stroke="#9a32cd" points="493.65,-269.79 483.22,-271.66 492.53,-276.7 493.65,-269.79"/>
<text text-anchor="middle" x="586" y="-305" font-family="Helvetica,sans-Serif" font-size="10.00"> view_</text>
</g>
<!-- Node17 -->
<g id="node17" class="node">
<title>Node17</title>
<g id="a_node17"><a xlink:href="../../d0/d94/classOmniboxViewViews.html" target="_top" xlink:title=" ">
<polygon fill="white" stroke="black" points="668.5,-139.5 668.5,-158.5 772.5,-158.5 772.5,-139.5 668.5,-139.5"/>
<text text-anchor="middle" x="720.5" y="-146.5" font-family="Helvetica,sans-Serif" font-size="10.00">OmniboxViewViews</text>
</a>
</g>
</g>
<!-- Node8&#45;&gt;Node17 -->
<g id="edge20" class="edge">
<title>Node8&#45;&gt;Node17</title>
<path fill="none" stroke="midnightblue" d="M477.37,-252.39C533.5,-228.43 648.63,-179.26 697.15,-158.54"/>
<polygon fill="midnightblue" stroke="midnightblue" points="475.74,-249.28 467.92,-256.43 478.49,-255.72 475.74,-249.28"/>
</g>
<!-- Node9 -->
<g id="node9" class="node">
<title>Node9</title>
<g id="a_node9"><a xlink:href="../../d9/df6/classAutocompleteInput.html" target="_top" xlink:title=" ">
<polygon fill="white" stroke="black" points="395.5,-345.5 395.5,-364.5 493.5,-364.5 493.5,-345.5 395.5,-345.5"/>
<text text-anchor="middle" x="444.5" y="-352.5" font-family="Helvetica,sans-Serif" font-size="10.00">AutocompleteInput</text>
</a>
</g>
</g>
<!-- Node9&#45;&gt;Node3 -->
<g id="edge9" class="edge">
<title>Node9&#45;&gt;Node3</title>
<path fill="none" stroke="#9a32cd" stroke-dasharray="5,2" d="M503.8,-349.68C553.41,-345.15 623.87,-338.73 670.59,-334.46"/>
<polygon fill="#9a32cd" stroke="#9a32cd" points="503.18,-346.22 493.54,-350.62 503.82,-353.19 503.18,-346.22"/>
<text text-anchor="middle" x="586" y="-349" font-family="Helvetica,sans-Serif" font-size="10.00"> input_</text>
</g>
<!-- Node10 -->
<g id="node10" class="node">
<title>Node10</title>
<g id="a_node10"><a xlink:href="../../de/dfc/structOmniboxPopupSelection.html" target="_top" xlink:title=" ">
<polygon fill="white" stroke="black" points="382.5,-301.5 382.5,-320.5 506.5,-320.5 506.5,-301.5 382.5,-301.5"/>
<text text-anchor="middle" x="444.5" y="-308.5" font-family="Helvetica,sans-Serif" font-size="10.00">OmniboxPopupSelection</text>
</a>
</g>
</g>
<!-- Node10&#45;&gt;Node3 -->
<g id="edge10" class="edge">
<title>Node10&#45;&gt;Node3</title>
<path fill="none" stroke="#9a32cd" stroke-dasharray="5,2" d="M516.76,-315.94C565.22,-319.3 628.05,-323.66 670.84,-326.63"/>
<polygon fill="#9a32cd" stroke="#9a32cd" points="516.87,-312.44 506.65,-315.24 516.38,-319.42 516.87,-312.44"/>
<text text-anchor="middle" x="586" y="-326" font-family="Helvetica,sans-Serif" font-size="10.00"> popup_selection_</text>
</g>
<!-- Node11 -->
<g id="node11" class="node">
<title>Node11</title>
<g id="a_node11"><a xlink:href="../../d0/da8/classOmniboxSuggestionRowButton.html" target="_top" xlink:title=" ">
<polygon fill="white" stroke="black" points="1179,-172.5 1179,-191.5 1332,-191.5 1332,-172.5 1179,-172.5"/>
<text text-anchor="middle" x="1255.5" y="-179.5" font-family="Helvetica,sans-Serif" font-size="10.00">OmniboxSuggestionRowButton</text>
</a>
</g>
</g>
<!-- Node10&#45;&gt;Node11 -->
<g id="edge26" class="edge">
<title>Node10&#45;&gt;Node11</title>
<path fill="none" stroke="#9a32cd" stroke-dasharray="5,2" d="M516.73,-307.17C602.58,-301.88 751.04,-290.57 877,-270 1005.18,-249.07 1154.65,-209.68 1220.45,-191.56"/>
<polygon fill="#9a32cd" stroke="#9a32cd" points="516.34,-303.69 506.57,-307.79 516.76,-310.68 516.34,-303.69"/>
<text text-anchor="middle" x="841.5" y="-282" font-family="Helvetica,sans-Serif" font-size="10.00"> selection_</text>
</g>
<!-- Node11&#45;&gt;Node1 -->
<g id="edge11" class="edge">
<title>Node11&#45;&gt;Node1</title>
<path fill="none" stroke="#9a32cd" stroke-dasharray="5,2" d="M1342.22,-178.19C1344.84,-178.12 1347.44,-178.05 1350,-178 1387.77,-177.19 1397.44,-173.92 1435,-178 1458.64,-180.57 1484.76,-186.32 1504.98,-191.43"/>
<polygon fill="#9a32cd" stroke="#9a32cd" points="1341.91,-174.7 1332.02,-178.49 1342.12,-181.69 1341.91,-174.7"/>
<text text-anchor="middle" x="1392.5" y="-203" font-family="Helvetica,sans-Serif" font-size="10.00"> keyword_button_</text>
<text text-anchor="middle" x="1392.5" y="-192" font-family="Helvetica,sans-Serif" font-size="10.00">pedal_button_</text>
<text text-anchor="middle" x="1392.5" y="-181" font-family="Helvetica,sans-Serif" font-size="10.00">tab_switch_button_</text>
</g>
<!-- Node12 -->
<g id="node12" class="node">
<title>Node12</title>
<g id="a_node12"><a xlink:title=" ">
<polygon fill="white" stroke="#bfbfbf" points="913,-177.5 913,-196.5 1022,-196.5 1022,-177.5 913,-177.5"/>
<text text-anchor="middle" x="967.5" y="-184.5" font-family="Helvetica,sans-Serif" font-size="10.00">views::MdTextButton</text>
</a>
</g>
</g>
<!-- Node12&#45;&gt;Node11 -->
<g id="edge12" class="edge">
<title>Node12&#45;&gt;Node11</title>
<path fill="none" stroke="midnightblue" d="M1032.43,-185.88C1075.76,-185.12 1133.21,-184.12 1178.82,-183.32"/>
<polygon fill="midnightblue" stroke="midnightblue" points="1032.23,-182.39 1022.29,-186.06 1032.35,-189.38 1032.23,-182.39"/>
</g>
<!-- Node13&#45;&gt;Node1 -->
<g id="edge27" class="edge">
<title>Node13&#45;&gt;Node1</title>
<path fill="none" stroke="#9a32cd" stroke-dasharray="5,2" d="M1050.26,-145.41C1124.08,-143.18 1235.59,-142.32 1332,-152 1378.4,-156.66 1389.61,-161.31 1435,-172 1459.56,-177.78 1487.04,-185.46 1507.65,-191.46"/>
<polygon fill="#9a32cd" stroke="#9a32cd" points="1049.98,-141.91 1040.1,-145.73 1050.2,-148.91 1049.98,-141.91"/>
<text text-anchor="middle" x="1255.5" y="-155" font-family="Helvetica,sans-Serif" font-size="10.00"> popup_contents_view_</text>
</g>
<!-- Node13&#45;&gt;Node11 -->
<g id="edge13" class="edge">
<title>Node13&#45;&gt;Node11</title>
<path fill="none" stroke="#9a32cd" stroke-dasharray="5,2" d="M1050.28,-156.87C1084.52,-160.32 1124.72,-164.59 1161,-169 1169.79,-170.07 1179.02,-171.26 1188.14,-172.48"/>
<polygon fill="#9a32cd" stroke="#9a32cd" points="1050.63,-153.38 1040.33,-155.87 1049.93,-160.35 1050.63,-153.38"/>
<text text-anchor="middle" x="1109.5" y="-172" font-family="Helvetica,sans-Serif" font-size="10.00"> popup_contents_view_</text>
</g>
<!-- Node14 -->
<g id="node14" class="node">
<title>Node14</title>
<g id="a_node14"><a xlink:title=" ">
<polygon fill="white" stroke="#bfbfbf" points="661,-101.5 661,-120.5 780,-120.5 780,-101.5 661,-101.5"/>
<text text-anchor="middle" x="720.5" y="-108.5" font-family="Helvetica,sans-Serif" font-size="10.00">views::WidgetObserver</text>
</a>
</g>
</g>
<!-- Node14&#45;&gt;Node13 -->
<g id="edge16" class="edge">
<title>Node14&#45;&gt;Node13</title>
<path fill="none" stroke="midnightblue" d="M790.13,-121.64C826.15,-127.23 869.94,-134.02 904.88,-139.44"/>
<polygon fill="midnightblue" stroke="midnightblue" points="790.6,-118.18 780.18,-120.1 789.53,-125.09 790.6,-118.18"/>
</g>
<!-- Node15 -->
<g id="node15" class="node">
<title>Node15</title>
<g id="a_node15"><a xlink:href="../../d0/d53/classWebUIOmniboxPopupView.html" target="_top" xlink:title=" ">
<polygon fill="white" stroke="black" points="653,-32.5 653,-51.5 788,-51.5 788,-32.5 653,-32.5"/>
<text text-anchor="middle" x="720.5" y="-39.5" font-family="Helvetica,sans-Serif" font-size="10.00">WebUIOmniboxPopupView</text>
</a>
</g>
</g>
<!-- Node15&#45;&gt;Node13 -->
<g id="edge17" class="edge">
<title>Node15&#45;&gt;Node13</title>
<path fill="none" stroke="#9a32cd" stroke-dasharray="5,2" d="M753.11,-55.8C803.55,-77.84 901.01,-120.4 944.55,-139.41"/>
<polygon fill="#9a32cd" stroke="#9a32cd" points="754.24,-52.48 743.67,-51.68 751.44,-58.89 754.24,-52.48"/>
<text text-anchor="middle" x="841.5" y="-112" font-family="Helvetica,sans-Serif" font-size="10.00"> webui_view_</text>
</g>
<!-- Node16 -->
<g id="node16" class="node">
<title>Node16</title>
<g id="a_node16"><a xlink:title=" ">
<polygon fill="white" stroke="#bfbfbf" points="400,-0.5 400,-19.5 489,-19.5 489,-0.5 400,-0.5"/>
<text text-anchor="middle" x="444.5" y="-7.5" font-family="Helvetica,sans-Serif" font-size="10.00">views::WebView</text>
</a>
</g>
</g>
<!-- Node16&#45;&gt;Node15 -->
<g id="edge18" class="edge">
<title>Node16&#45;&gt;Node15</title>
<path fill="none" stroke="midnightblue" d="M499.15,-16.27C543.17,-21.41 605.71,-28.71 652.92,-34.22"/>
<polygon fill="midnightblue" stroke="midnightblue" points="499.56,-12.79 489.22,-15.11 498.75,-19.74 499.56,-12.79"/>
</g>
<!-- Node17&#45;&gt;Node13 -->
<g id="edge19" class="edge">
<title>Node17&#45;&gt;Node13</title>
<path fill="none" stroke="#9a32cd" stroke-dasharray="5,2" d="M782.81,-149C816.74,-149 859.11,-149 894.6,-149"/>
<polygon fill="#9a32cd" stroke="#9a32cd" points="782.56,-145.5 772.56,-149 782.56,-152.5 782.56,-145.5"/>
<text text-anchor="middle" x="841.5" y="-152" font-family="Helvetica,sans-Serif" font-size="10.00"> omnibox_view_</text>
</g>
<!-- Node18 -->
<g id="node18" class="node">
<title>Node18</title>
<g id="a_node18"><a xlink:title=" ">
<polygon fill="white" stroke="#bfbfbf" points="402,-38.5 402,-57.5 487,-57.5 487,-38.5 402,-38.5"/>
<text text-anchor="middle" x="444.5" y="-45.5" font-family="Helvetica,sans-Serif" font-size="10.00">views::Textfield</text>
</a>
</g>
</g>
<!-- Node18&#45;&gt;Node17 -->
<g id="edge21" class="edge">
<title>Node18&#45;&gt;Node17</title>
<path fill="none" stroke="midnightblue" d="M493.85,-60.09C502.26,-62.31 510.9,-64.66 519,-67 570.99,-82 591.5,-71.81 635,-104 646.3,-112.36 641.58,-121.81 653,-130 658.37,-133.85 664.5,-136.92 670.82,-139.37"/>
<polygon fill="midnightblue" stroke="midnightblue" points="494.7,-56.69 484.14,-57.56 492.93,-63.47 494.7,-56.69"/>
</g>
<!-- Node19 -->
<g id="node19" class="node">
<title>Node19</title>
<g id="a_node19"><a xlink:title=" ">
<polygon fill="white" stroke="#bfbfbf" points="381,-152.5 381,-171.5 508,-171.5 508,-152.5 381,-152.5"/>
<text text-anchor="middle" x="444.5" y="-159.5" font-family="Helvetica,sans-Serif" font-size="10.00">views::TextfieldController</text>
</a>
</g>
</g>
<!-- Node19&#45;&gt;Node17 -->
<g id="edge22" class="edge">
<title>Node19&#45;&gt;Node17</title>
<path fill="none" stroke="midnightblue" d="M518.2,-158.55C565.48,-156.31 625.98,-153.44 668.26,-151.43"/>
<polygon fill="midnightblue" stroke="midnightblue" points="517.84,-155.06 508.02,-159.03 518.17,-162.06 517.84,-155.06"/>
</g>
<!-- Node20 -->
<g id="node20" class="node">
<title>Node20</title>
<g id="a_node20"><a xlink:title=" ">
<polygon fill="white" stroke="#bfbfbf" points="384.5,-114.5 384.5,-133.5 504.5,-133.5 504.5,-114.5 384.5,-114.5"/>
<text text-anchor="middle" x="444.5" y="-121.5" font-family="Helvetica,sans-Serif" font-size="10.00">ui::CompositorObserver</text>
</a>
</g>
</g>
<!-- Node20&#45;&gt;Node17 -->
<g id="edge23" class="edge">
<title>Node20&#45;&gt;Node17</title>
<path fill="none" stroke="midnightblue" d="M514.58,-130.3C562.38,-134.66 624.96,-140.37 668.32,-144.33"/>
<polygon fill="midnightblue" stroke="midnightblue" points="514.89,-126.82 504.62,-129.39 514.26,-133.79 514.89,-126.82"/>
</g>
<!-- Node21 -->
<g id="node21" class="node">
<title>Node21</title>
<g id="a_node21"><a xlink:title=" ">
<polygon fill="white" stroke="#bfbfbf" points="370,-76.5 370,-95.5 519,-95.5 519,-76.5 370,-76.5"/>
<text text-anchor="middle" x="444.5" y="-83.5" font-family="Helvetica,sans-Serif" font-size="10.00">TemplateURLServiceObserver</text>
</a>
</g>
</g>
<!-- Node21&#45;&gt;Node17 -->
<g id="edge24" class="edge">
<title>Node21&#45;&gt;Node17</title>
<path fill="none" stroke="midnightblue" d="M497.89,-97.75C535.95,-106.32 588.69,-118.27 635,-129 649.54,-132.37 665.47,-136.12 679.54,-139.46"/>
<polygon fill="midnightblue" stroke="midnightblue" points="498.57,-94.32 488.05,-95.54 497.04,-101.15 498.57,-94.32"/>
</g>
</g>
</svg>
