<?xml version="1.0" encoding="UTF-8" standalone="no"?>
<!DOCTYPE svg PUBLIC "-//W3C//DTD SVG 1.1//EN"
 "http://www.w3.org/Graphics/SVG/1.1/DTD/svg11.dtd">
<!-- Generated by graphviz version 2.43.0 (0)
 -->
<!-- Title: AutocompleteProviderClient::GetSchemeClassifier Pages: 1 -->
<!--zoomable 586 -->
<svg id="main" version="1.1" xmlns="http://www.w3.org/2000/svg" xmlns:xlink="http://www.w3.org/1999/xlink" xml:space="preserve" onload="init(evt)">
<style type="text/css"><![CDATA[
.edge:hover path { stroke: red; }
.edge:hover polygon { stroke: red; fill: red; }
]]></style>
<script type="text/javascript"><![CDATA[
var edges = document.getElementsByTagName('g');
if (edges && edges.length) {
  for (var i=0;i<edges.length;i++) {
    if (edges[i].id.substr(0,4)=='edge') {
      edges[i].setAttribute('class','edge');
    }
  }
}
]]></script>
        <defs>
                <circle id="rim" cx="0" cy="0" r="7"/>
                <circle id="rim2" cx="0" cy="0" r="3.5"/>
                <g id="zoomPlus">
                        <use xlink:href="#rim" fill="#404040">
                                <set attributeName="fill" to="#808080" begin="zoomplus.mouseover" end="zoomplus.mouseout"/>
                        </use>
                        <path d="M-4,0h8M0,-4v8" fill="none" stroke="white" stroke-width="1.5" pointer-events="none"/>
                </g>
                <g id="zoomMin">
                        <use xlink:href="#rim" fill="#404040">
                                <set attributeName="fill" to="#808080" begin="zoomminus.mouseover" end="zoomminus.mouseout"/>
                        </use>
                        <path d="M-4,0h8" fill="none" stroke="white" stroke-width="1.5" pointer-events="none"/>
                </g>
                <g id="dirArrow">
                        <path fill="none" stroke="white" stroke-width="1.5" d="M0,-3.0v7 M-2.5,-0.5L0,-3.0L2.5,-0.5"/>
                </g>
               <g id="resetDef">
                       <use xlink:href="#rim2" fill="#404040">
                               <set attributeName="fill" to="#808080" begin="reset.mouseover" end="reset.mouseout"/>
                       </use>
               </g>
        </defs>

<script type="text/javascript">
var viewWidth = 1773;
var viewHeight = 586;
var sectionId = 'dynsection-18';
</script>
<script xlink:href="../../svgpan.js"/>
<svg id="graph" class="graph">
<g id="viewport">
<title>AutocompleteProviderClient::GetSchemeClassifier</title>
<polygon fill="white" stroke="transparent" points="-4,4 -4,-581.5 1769,-581.5 1769,4 -4,4"/>
<!-- Node1 -->
<g id="node1" class="node">
<title>Node1</title>
<g id="a_node1"><a xlink:title=" ">
<polygon fill="#bfbfbf" stroke="black" points="1627,-395.5 1627,-425.5 1765,-425.5 1765,-395.5 1627,-395.5"/>
<text text-anchor="start" x="1635" y="-413.5" font-family="Helvetica,sans-Serif" font-size="10.00">AutocompleteProviderClient</text>
<text text-anchor="middle" x="1696" y="-402.5" font-family="Helvetica,sans-Serif" font-size="10.00">::GetSchemeClassifier</text>
</a>
</g>
</g>
<!-- Node2 -->
<g id="node2" class="node">
<title>Node2</title>
<g id="a_node2"><a xlink:href="../../d9/d85/classBookmarkProvider.html#afadaef69eb46311e736113fcfb9fb940" target="_top" xlink:title=" ">
<polygon fill="white" stroke="black" points="1415,-525 1415,-544 1591,-544 1591,-525 1415,-525"/>
<text text-anchor="middle" x="1503" y="-532" font-family="Helvetica,sans-Serif" font-size="10.00">BookmarkProvider::DoAutocomplete</text>
</a>
</g>
</g>
<!-- Node1&#45;&gt;Node2 -->
<g id="edge1" class="edge">
<title>Node1&#45;&gt;Node2</title>
<path fill="none" stroke="midnightblue" d="M1665.35,-431.34C1644.69,-445.72 1616.4,-465.11 1591,-481.5 1566.63,-497.23 1537.78,-514.56 1520.19,-524.98"/>
<polygon fill="midnightblue" stroke="midnightblue" points="1667.51,-434.11 1673.71,-425.51 1663.5,-428.37 1667.51,-434.11"/>
</g>
<!-- Node4 -->
<g id="node4" class="node">
<title>Node4</title>
<g id="a_node4"><a xlink:href="../../d0/ddc/classBaseSearchProvider.html#a3342cff48b1b080e2fe12f180f15828c" target="_top" xlink:title=" ">
<polygon fill="white" stroke="black" points="1444,-442.5 1444,-472.5 1562,-472.5 1562,-442.5 1444,-442.5"/>
<text text-anchor="start" x="1452" y="-460.5" font-family="Helvetica,sans-Serif" font-size="10.00">BaseSearchProvider</text>
<text text-anchor="middle" x="1503" y="-449.5" font-family="Helvetica,sans-Serif" font-size="10.00">::ParseSuggestResults</text>
</a>
</g>
</g>
<!-- Node1&#45;&gt;Node4 -->
<g id="edge3" class="edge">
<title>Node1&#45;&gt;Node4</title>
<path fill="none" stroke="midnightblue" d="M1624.16,-427.93C1603.72,-432.96 1581.67,-438.39 1562.1,-443.2"/>
<polygon fill="midnightblue" stroke="midnightblue" points="1625.17,-431.29 1634.04,-425.5 1623.49,-424.49 1625.17,-431.29"/>
</g>
<!-- Node14 -->
<g id="node14" class="node">
<title>Node14</title>
<g id="a_node14"><a xlink:href="../../dd/dfc/classClipboardProvider.html#a1cf0e41e7e2a855b5c4b62ed2f2ab550" target="_top" xlink:title=" ">
<polygon fill="white" stroke="black" points="1431,-371.5 1431,-401.5 1575,-401.5 1575,-371.5 1431,-371.5"/>
<text text-anchor="start" x="1439" y="-389.5" font-family="Helvetica,sans-Serif" font-size="10.00">ClipboardProvider::</text>
<text text-anchor="middle" x="1503" y="-378.5" font-family="Helvetica,sans-Serif" font-size="10.00">UpdateClipboardURLContent</text>
</a>
</g>
</g>
<!-- Node1&#45;&gt;Node14 -->
<g id="edge14" class="edge">
<title>Node1&#45;&gt;Node14</title>
<path fill="none" stroke="midnightblue" d="M1616.87,-400.68C1603.02,-398.94 1588.67,-397.14 1575.02,-395.42"/>
<polygon fill="midnightblue" stroke="midnightblue" points="1616.5,-404.16 1626.85,-401.94 1617.37,-397.22 1616.5,-404.16"/>
</g>
<!-- Node20 -->
<g id="node20" class="node">
<title>Node20</title>
<g id="a_node20"><a xlink:href="../../d5/d36/verbatim__match_8cc.html#ac196726f5b4ce701f803ee7c44a7fa13" target="_top" xlink:title=" ">
<polygon fill="white" stroke="black" points="1443.5,-188 1443.5,-207 1562.5,-207 1562.5,-188 1443.5,-188"/>
<text text-anchor="middle" x="1503" y="-195" font-family="Helvetica,sans-Serif" font-size="10.00">VerbatimMatchForInput</text>
</a>
</g>
</g>
<!-- Node1&#45;&gt;Node20 -->
<g id="edge20" class="edge">
<title>Node1&#45;&gt;Node20</title>
<path fill="none" stroke="midnightblue" d="M1674.39,-387.52C1633.12,-341.49 1541.79,-239.64 1512.92,-207.45"/>
<polygon fill="midnightblue" stroke="midnightblue" points="1671.98,-390.07 1681.26,-395.18 1677.19,-385.4 1671.98,-390.07"/>
</g>
<!-- Node3 -->
<g id="node3" class="node">
<title>Node3</title>
<g id="a_node3"><a xlink:href="../../d9/d85/classBookmarkProvider.html#a6b6511006b139be9855d11d197ef3b60" target="_top" xlink:title=" ">
<polygon fill="white" stroke="black" points="1226,-558 1226,-577 1350,-577 1350,-558 1226,-558"/>
<text text-anchor="middle" x="1288" y="-565" font-family="Helvetica,sans-Serif" font-size="10.00">BookmarkProvider::Start</text>
</a>
</g>
</g>
<!-- Node2&#45;&gt;Node3 -->
<g id="edge2" class="edge">
<title>Node2&#45;&gt;Node3</title>
<path fill="none" stroke="midnightblue" d="M1430.5,-545.58C1404.47,-549.61 1375.31,-554.13 1350.26,-558.01"/>
<polygon fill="midnightblue" stroke="midnightblue" points="1431.33,-548.99 1440.68,-544 1430.26,-542.07 1431.33,-548.99"/>
</g>
<!-- Node5 -->
<g id="node5" class="node">
<title>Node5</title>
<g id="a_node5"><a xlink:href="../../d3/dbc/classZeroSuggestProvider.html#a5a1c47322df6df8bfa3374fc08369314" target="_top" xlink:title=" ">
<polygon fill="white" stroke="black" points="996.5,-467.5 996.5,-497.5 1154.5,-497.5 1154.5,-467.5 996.5,-467.5"/>
<text text-anchor="start" x="1004.5" y="-485.5" font-family="Helvetica,sans-Serif" font-size="10.00">ZeroSuggestProvider</text>
<text text-anchor="middle" x="1075.5" y="-474.5" font-family="Helvetica,sans-Serif" font-size="10.00">::MaybeUseCachedSuggestions</text>
</a>
</g>
</g>
<!-- Node4&#45;&gt;Node5 -->
<g id="edge4" class="edge">
<title>Node4&#45;&gt;Node5</title>
<path fill="none" stroke="midnightblue" d="M1433.29,-461.54C1357.1,-466.01 1234.42,-473.22 1154.63,-477.91"/>
<polygon fill="midnightblue" stroke="midnightblue" points="1433.95,-465 1443.73,-460.92 1433.54,-458.02 1433.95,-465"/>
</g>
<!-- Node7 -->
<g id="node7" class="node">
<title>Node7</title>
<g id="a_node7"><a xlink:href="../../d4/dee/classSearchProvider.html#a62390d46fb831c0919093798ab7bd52d" target="_top" xlink:title=" ">
<polygon fill="white" stroke="black" points="1216.5,-508.5 1216.5,-538.5 1359.5,-538.5 1359.5,-508.5 1216.5,-508.5"/>
<text text-anchor="start" x="1224.5" y="-526.5" font-family="Helvetica,sans-Serif" font-size="10.00">SearchProvider::OnURLLoad</text>
<text text-anchor="middle" x="1288" y="-515.5" font-family="Helvetica,sans-Serif" font-size="10.00">Complete</text>
</a>
</g>
</g>
<!-- Node4&#45;&gt;Node7 -->
<g id="edge6" class="edge">
<title>Node4&#45;&gt;Node7</title>
<path fill="none" stroke="midnightblue" d="M1443.8,-475.53C1410.54,-485.84 1369.31,-498.62 1337.76,-508.39"/>
<polygon fill="midnightblue" stroke="midnightblue" points="1444.88,-478.86 1453.4,-472.56 1442.81,-472.18 1444.88,-478.86"/>
</g>
<!-- Node12 -->
<g id="node12" class="node">
<title>Node12</title>
<g id="a_node12"><a xlink:href="../../d3/dbc/classZeroSuggestProvider.html#a23ed4e024f176a325953927fc87f131d" target="_top" xlink:title=" ">
<polygon fill="white" stroke="black" points="1234,-420.5 1234,-450.5 1342,-450.5 1342,-420.5 1234,-420.5"/>
<text text-anchor="start" x="1242" y="-438.5" font-family="Helvetica,sans-Serif" font-size="10.00">ZeroSuggestProvider</text>
<text text-anchor="middle" x="1288" y="-427.5" font-family="Helvetica,sans-Serif" font-size="10.00">::UpdateResults</text>
</a>
</g>
</g>
<!-- Node4&#45;&gt;Node12 -->
<g id="edge11" class="edge">
<title>Node4&#45;&gt;Node12</title>
<path fill="none" stroke="midnightblue" d="M1433.52,-450.43C1403.87,-447.36 1369.7,-443.83 1342.03,-440.98"/>
<polygon fill="midnightblue" stroke="midnightblue" points="1433.49,-453.94 1443.8,-451.49 1434.21,-446.98 1433.49,-453.94"/>
</g>
<!-- Node6 -->
<g id="node6" class="node">
<title>Node6</title>
<g id="a_node6"><a xlink:href="../../d3/dbc/classZeroSuggestProvider.html#ac0afcbd72684c1a1478301c21b3ff486" target="_top" xlink:title=" ">
<polygon fill="white" stroke="black" points="821.5,-418.5 821.5,-448.5 929.5,-448.5 929.5,-418.5 821.5,-418.5"/>
<text text-anchor="start" x="829.5" y="-436.5" font-family="Helvetica,sans-Serif" font-size="10.00">ZeroSuggestProvider</text>
<text text-anchor="middle" x="875.5" y="-425.5" font-family="Helvetica,sans-Serif" font-size="10.00">::Start</text>
</a>
</g>
</g>
<!-- Node5&#45;&gt;Node6 -->
<g id="edge5" class="edge">
<title>Node5&#45;&gt;Node6</title>
<path fill="none" stroke="midnightblue" d="M1003.82,-465.01C979.43,-458.97 952.53,-452.31 929.76,-446.68"/>
<polygon fill="midnightblue" stroke="midnightblue" points="1003.2,-468.46 1013.75,-467.47 1004.88,-461.67 1003.2,-468.46"/>
</g>
<!-- Node8 -->
<g id="node8" class="node">
<title>Node8</title>
<g id="a_node8"><a xlink:href="../../d4/dee/classSearchProvider.html#ac6613acbe0b4e879590cdb0d562999c9" target="_top" xlink:title=" ">
<polygon fill="white" stroke="black" points="998,-516.5 998,-546.5 1153,-546.5 1153,-516.5 998,-516.5"/>
<text text-anchor="start" x="1006" y="-534.5" font-family="Helvetica,sans-Serif" font-size="10.00">SearchProvider::CreateSuggest</text>
<text text-anchor="middle" x="1075.5" y="-523.5" font-family="Helvetica,sans-Serif" font-size="10.00">Loader</text>
</a>
</g>
</g>
<!-- Node7&#45;&gt;Node8 -->
<g id="edge7" class="edge">
<title>Node7&#45;&gt;Node8</title>
<path fill="none" stroke="midnightblue" d="M1206.19,-526.57C1188.76,-527.23 1170.39,-527.93 1153.14,-528.59"/>
<polygon fill="midnightblue" stroke="midnightblue" points="1206.46,-530.06 1216.32,-526.19 1206.2,-523.07 1206.46,-530.06"/>
</g>
<!-- Node9 -->
<g id="node9" class="node">
<title>Node9</title>
<g id="a_node9"><a xlink:href="../../d4/dee/classSearchProvider.html#a02c8b00f5d4da0ce7e5de29658483914" target="_top" xlink:title=" ">
<polygon fill="white" stroke="black" points="822,-522 822,-541 929,-541 929,-522 822,-522"/>
<text text-anchor="middle" x="875.5" y="-529" font-family="Helvetica,sans-Serif" font-size="10.00">SearchProvider::Run</text>
</a>
</g>
</g>
<!-- Node8&#45;&gt;Node9 -->
<g id="edge8" class="edge">
<title>Node8&#45;&gt;Node9</title>
<path fill="none" stroke="midnightblue" d="M987.9,-531.5C967.93,-531.5 947.28,-531.5 929.26,-531.5"/>
<polygon fill="midnightblue" stroke="midnightblue" points="987.95,-535 997.95,-531.5 987.95,-528 987.95,-535"/>
</g>
<!-- Node10 -->
<g id="node10" class="node">
<title>Node10</title>
<g id="a_node10"><a xlink:href="../../d4/dee/classSearchProvider.html#af0c60cb234c815b05521a08434e7dcdc" target="_top" xlink:title=" ">
<polygon fill="white" stroke="black" points="589,-516.5 589,-546.5 730,-546.5 730,-516.5 589,-516.5"/>
<text text-anchor="start" x="597" y="-534.5" font-family="Helvetica,sans-Serif" font-size="10.00">SearchProvider::StartOrStop</text>
<text text-anchor="middle" x="659.5" y="-523.5" font-family="Helvetica,sans-Serif" font-size="10.00">SuggestQuery</text>
</a>
</g>
</g>
<!-- Node9&#45;&gt;Node10 -->
<g id="edge9" class="edge">
<title>Node9&#45;&gt;Node10</title>
<path fill="none" stroke="midnightblue" d="M811.58,-531.5C786.07,-531.5 756.5,-531.5 730.32,-531.5"/>
<polygon fill="midnightblue" stroke="midnightblue" points="811.88,-535 821.88,-531.5 811.88,-528 811.88,-535"/>
</g>
<!-- Node11 -->
<g id="node11" class="node">
<title>Node11</title>
<g id="a_node11"><a xlink:href="../../d4/dee/classSearchProvider.html#a9e8f7e367904d424ac875e501844e830" target="_top" xlink:title=" ">
<polygon fill="white" stroke="black" points="387,-522 387,-541 497,-541 497,-522 387,-522"/>
<text text-anchor="middle" x="442" y="-529" font-family="Helvetica,sans-Serif" font-size="10.00">SearchProvider::Start</text>
</a>
</g>
</g>
<!-- Node10&#45;&gt;Node11 -->
<g id="edge10" class="edge">
<title>Node10&#45;&gt;Node11</title>
<path fill="none" stroke="midnightblue" d="M578.56,-531.5C551.4,-531.5 521.72,-531.5 497.06,-531.5"/>
<polygon fill="midnightblue" stroke="midnightblue" points="578.83,-535 588.83,-531.5 578.83,-528 578.83,-535"/>
</g>
<!-- Node13 -->
<g id="node13" class="node">
<title>Node13</title>
<g id="a_node13"><a xlink:href="../../d3/dbc/classZeroSuggestProvider.html#a4049ecf2307fddcdfae00f7632660d3a" target="_top" xlink:title=" ">
<polygon fill="white" stroke="black" points="1016,-418.5 1016,-448.5 1135,-448.5 1135,-418.5 1016,-418.5"/>
<text text-anchor="start" x="1024" y="-436.5" font-family="Helvetica,sans-Serif" font-size="10.00">ZeroSuggestProvider</text>
<text text-anchor="middle" x="1075.5" y="-425.5" font-family="Helvetica,sans-Serif" font-size="10.00">::OnURLLoadComplete</text>
</a>
</g>
</g>
<!-- Node12&#45;&gt;Node13 -->
<g id="edge12" class="edge">
<title>Node12&#45;&gt;Node13</title>
<path fill="none" stroke="midnightblue" d="M1223.76,-434.9C1195.64,-434.63 1162.73,-434.32 1135.16,-434.06"/>
<polygon fill="midnightblue" stroke="midnightblue" points="1223.85,-438.4 1233.88,-435 1223.92,-431.4 1223.85,-438.4"/>
</g>
<!-- Node13&#45;&gt;Node6 -->
<g id="edge13" class="edge">
<title>Node13&#45;&gt;Node6</title>
<path fill="none" stroke="midnightblue" d="M1005.76,-433.5C980.78,-433.5 952.96,-433.5 929.55,-433.5"/>
<polygon fill="midnightblue" stroke="midnightblue" points="1005.9,-437 1015.9,-433.5 1005.9,-430 1005.9,-437"/>
</g>
<!-- Node15 -->
<g id="node15" class="node">
<title>Node15</title>
<g id="a_node15"><a xlink:href="../../dd/dfc/classClipboardProvider.html#a30dc08f11f9a68136751f19a3471fab7" target="_top" xlink:title=" ">
<polygon fill="white" stroke="black" points="1225.5,-322.5 1225.5,-352.5 1350.5,-352.5 1350.5,-322.5 1225.5,-322.5"/>
<text text-anchor="start" x="1233.5" y="-340.5" font-family="Helvetica,sans-Serif" font-size="10.00">ClipboardProvider::</text>
<text text-anchor="middle" x="1288" y="-329.5" font-family="Helvetica,sans-Serif" font-size="10.00">NewClipboardURLMatch</text>
</a>
</g>
</g>
<!-- Node14&#45;&gt;Node15 -->
<g id="edge15" class="edge">
<title>Node14&#45;&gt;Node15</title>
<path fill="none" stroke="midnightblue" d="M1426.85,-369.21C1401.89,-363.47 1374.41,-357.15 1350.59,-351.67"/>
<polygon fill="midnightblue" stroke="midnightblue" points="1426.12,-372.63 1436.65,-371.47 1427.68,-365.81 1426.12,-372.63"/>
</g>
<!-- Node18 -->
<g id="node18" class="node">
<title>Node18</title>
<g id="a_node18"><a xlink:href="../../dd/dfc/classClipboardProvider.html#a1a1332687b60ce4997fddd8cf76afe55" target="_top" xlink:title=" ">
<polygon fill="white" stroke="black" points="1197,-371.5 1197,-401.5 1379,-401.5 1379,-371.5 1197,-371.5"/>
<text text-anchor="start" x="1205" y="-389.5" font-family="Helvetica,sans-Serif" font-size="10.00">ClipboardProvider::</text>
<text text-anchor="middle" x="1288" y="-378.5" font-family="Helvetica,sans-Serif" font-size="10.00">OnReceiveURLForMatchWithContent</text>
</a>
</g>
</g>
<!-- Node14&#45;&gt;Node18 -->
<g id="edge18" class="edge">
<title>Node14&#45;&gt;Node18</title>
<path fill="none" stroke="midnightblue" d="M1420.54,-386.5C1406.98,-386.5 1392.85,-386.5 1379.09,-386.5"/>
<polygon fill="midnightblue" stroke="midnightblue" points="1420.78,-390 1430.78,-386.5 1420.78,-383 1420.78,-390"/>
</g>
<!-- Node16 -->
<g id="node16" class="node">
<title>Node16</title>
<g id="a_node16"><a xlink:href="../../dd/dfc/classClipboardProvider.html#a3e363a38bf3f41d447cfa4acfb6d78df" target="_top" xlink:title=" ">
<polygon fill="white" stroke="black" points="392,-325.5 392,-355.5 492,-355.5 492,-325.5 392,-325.5"/>
<text text-anchor="start" x="400" y="-343.5" font-family="Helvetica,sans-Serif" font-size="10.00">ClipboardProvider::</text>
<text text-anchor="middle" x="442" y="-332.5" font-family="Helvetica,sans-Serif" font-size="10.00">CreateURLMatch</text>
</a>
</g>
</g>
<!-- Node15&#45;&gt;Node16 -->
<g id="edge16" class="edge">
<title>Node15&#45;&gt;Node16</title>
<path fill="none" stroke="midnightblue" d="M1215.08,-337.76C1047.5,-338.35 634.49,-339.82 492.15,-340.33"/>
<polygon fill="midnightblue" stroke="midnightblue" points="1215.29,-341.26 1225.28,-337.72 1215.27,-334.26 1215.29,-341.26"/>
</g>
<!-- Node17 -->
<g id="node17" class="node">
<title>Node17</title>
<g id="a_node17"><a xlink:href="../../dd/dfc/classClipboardProvider.html#a6333eac4718cb8f1617e6771261d4d86" target="_top" xlink:title=" ">
<polygon fill="white" stroke="black" points="203.5,-254.5 203.5,-284.5 303.5,-284.5 303.5,-254.5 203.5,-254.5"/>
<text text-anchor="start" x="211.5" y="-272.5" font-family="Helvetica,sans-Serif" font-size="10.00">ClipboardProvider::</text>
<text text-anchor="middle" x="253.5" y="-261.5" font-family="Helvetica,sans-Serif" font-size="10.00">Start</text>
</a>
</g>
</g>
<!-- Node16&#45;&gt;Node17 -->
<g id="edge17" class="edge">
<title>Node16&#45;&gt;Node17</title>
<path fill="none" stroke="midnightblue" d="M381.98,-322.52C375.21,-320.25 368.43,-317.89 362,-315.5 336.69,-306.11 308.66,-294.06 287.57,-284.65"/>
<polygon fill="midnightblue" stroke="midnightblue" points="381.27,-325.97 391.86,-325.77 383.45,-319.32 381.27,-325.97"/>
</g>
<!-- Node19 -->
<g id="node19" class="node">
<title>Node19</title>
<g id="a_node19"><a xlink:href="../../dd/dfc/classClipboardProvider.html#a3e1eee50a8861e52bf52bac9442fd649" target="_top" xlink:title=" ">
<polygon fill="white" stroke="black" points="990,-369.5 990,-399.5 1161,-399.5 1161,-369.5 990,-369.5"/>
<text text-anchor="start" x="998" y="-387.5" font-family="Helvetica,sans-Serif" font-size="10.00">ClipboardProvider::</text>
<text text-anchor="middle" x="1075.5" y="-376.5" font-family="Helvetica,sans-Serif" font-size="10.00">UpdateClipboardMatchWithContent</text>
</a>
</g>
</g>
<!-- Node18&#45;&gt;Node19 -->
<g id="edge19" class="edge">
<title>Node18&#45;&gt;Node19</title>
<path fill="none" stroke="midnightblue" d="M1186.78,-385.55C1178.21,-385.47 1169.6,-385.38 1161.16,-385.3"/>
<polygon fill="midnightblue" stroke="midnightblue" points="1186.78,-389.05 1196.81,-385.64 1186.85,-382.05 1186.78,-389.05"/>
</g>
<!-- Node21 -->
<g id="node21" class="node">
<title>Node21</title>
<g id="a_node21"><a xlink:href="../../d0/d22/classOmniboxEditModel.html#a16ad032b278a1797080546968d8cc307" target="_top" xlink:title=" ">
<polygon fill="white" stroke="black" points="1220,-182.5 1220,-212.5 1356,-212.5 1356,-182.5 1220,-182.5"/>
<text text-anchor="start" x="1228" y="-200.5" font-family="Helvetica,sans-Serif" font-size="10.00">OmniboxEditModel::Accept</text>
<text text-anchor="middle" x="1288" y="-189.5" font-family="Helvetica,sans-Serif" font-size="10.00">Input</text>
</a>
</g>
</g>
<!-- Node20&#45;&gt;Node21 -->
<g id="edge21" class="edge">
<title>Node20&#45;&gt;Node21</title>
<path fill="none" stroke="midnightblue" d="M1433.23,-197.5C1408.55,-197.5 1380.77,-197.5 1356.22,-197.5"/>
<polygon fill="midnightblue" stroke="midnightblue" points="1433.23,-201 1443.23,-197.5 1433.23,-194 1433.23,-201"/>
</g>
<!-- Node23 -->
<g id="node23" class="node">
<title>Node23</title>
<g id="a_node23"><a xlink:href="../../d0/d22/classOmniboxEditModel.html#a2048ac3eb134371876a1517bba0eb54a" target="_top" xlink:title=" ">
<polygon fill="white" stroke="black" points="1210.5,-93 1210.5,-112 1365.5,-112 1365.5,-93 1210.5,-93"/>
<text text-anchor="middle" x="1288" y="-100" font-family="Helvetica,sans-Serif" font-size="10.00">OmniboxEditModel::OpenMatch</text>
</a>
</g>
</g>
<!-- Node20&#45;&gt;Node23 -->
<g id="edge23" class="edge">
<title>Node20&#45;&gt;Node23</title>
<path fill="none" stroke="midnightblue" d="M1480.84,-181.93C1457.15,-165.21 1417.09,-138.95 1379,-123.5 1367.4,-118.8 1354.52,-115.01 1342.21,-112.02"/>
<polygon fill="midnightblue" stroke="midnightblue" points="1478.91,-184.86 1489.07,-187.84 1482.98,-179.17 1478.91,-184.86"/>
</g>
<!-- Node35 -->
<g id="node35" class="node">
<title>Node35</title>
<g id="a_node35"><a xlink:href="../../da/dad/classHistoryURLProvider.html#ad8668da3c2254ca7ac51f0d7b0fc4104" target="_top" xlink:title=" ">
<polygon fill="white" stroke="black" points="1236,-133.5 1236,-163.5 1340,-163.5 1340,-133.5 1236,-133.5"/>
<text text-anchor="start" x="1244" y="-151.5" font-family="Helvetica,sans-Serif" font-size="10.00">HistoryURLProvider</text>
<text text-anchor="middle" x="1288" y="-140.5" font-family="Helvetica,sans-Serif" font-size="10.00">::Start</text>
</a>
</g>
</g>
<!-- Node20&#45;&gt;Node35 -->
<g id="edge37" class="edge">
<title>Node20&#45;&gt;Node35</title>
<path fill="none" stroke="midnightblue" d="M1450.65,-185.69C1417.23,-178 1373.8,-168.01 1340.37,-160.32"/>
<polygon fill="midnightblue" stroke="midnightblue" points="1450.15,-189.16 1460.68,-187.99 1451.72,-182.34 1450.15,-189.16"/>
</g>
<!-- Node36 -->
<g id="node36" class="node">
<title>Node36</title>
<g id="a_node36"><a xlink:href="../../d5/d36/verbatim__match_8cc.html#abe0d653bed223eab6bf348ed99e3466c" target="_top" xlink:title=" ">
<polygon fill="white" stroke="black" points="1229.5,-233 1229.5,-252 1346.5,-252 1346.5,-233 1229.5,-233"/>
<text text-anchor="middle" x="1288" y="-240" font-family="Helvetica,sans-Serif" font-size="10.00">VerbatimMatchForURL</text>
</a>
</g>
</g>
<!-- Node20&#45;&gt;Node36 -->
<g id="edge38" class="edge">
<title>Node20&#45;&gt;Node36</title>
<path fill="none" stroke="midnightblue" d="M1446.76,-209.17C1411.73,-216.57 1366.99,-226.02 1334.11,-232.97"/>
<polygon fill="midnightblue" stroke="midnightblue" points="1447.77,-212.53 1456.83,-207.04 1446.32,-205.69 1447.77,-212.53"/>
</g>
<!-- Node22 -->
<g id="node22" class="node">
<title>Node22</title>
<g id="a_node22"><a xlink:href="../../d0/d94/classOmniboxViewViews.html#a5a64c1e16631c3301fb57307402784dc" target="_top" xlink:title=" ">
<polygon fill="white" stroke="black" points="1005,-134.5 1005,-164.5 1146,-164.5 1146,-134.5 1005,-134.5"/>
<text text-anchor="start" x="1013" y="-152.5" font-family="Helvetica,sans-Serif" font-size="10.00">OmniboxViewViews::Handle</text>
<text text-anchor="middle" x="1075.5" y="-141.5" font-family="Helvetica,sans-Serif" font-size="10.00">KeyEvent</text>
</a>
</g>
</g>
<!-- Node21&#45;&gt;Node22 -->
<g id="edge22" class="edge">
<title>Node21&#45;&gt;Node22</title>
<path fill="none" stroke="midnightblue" d="M1211.12,-180.2C1188.59,-175.06 1164.12,-169.48 1142.29,-164.5"/>
<polygon fill="midnightblue" stroke="midnightblue" points="1210.45,-183.63 1220.97,-182.44 1212,-176.81 1210.45,-183.63"/>
</g>
<!-- Node24 -->
<g id="node24" class="node">
<title>Node24</title>
<g id="a_node24"><a xlink:href="../../d0/d22/classOmniboxEditModel.html#aeef542747913fd1ebe0edc5a9714095c" target="_top" xlink:title=" ">
<polygon fill="white" stroke="black" points="1008,-85.5 1008,-115.5 1143,-115.5 1143,-85.5 1008,-85.5"/>
<text text-anchor="start" x="1016" y="-103.5" font-family="Helvetica,sans-Serif" font-size="10.00">OmniboxEditModel::Trigger</text>
<text text-anchor="middle" x="1075.5" y="-92.5" font-family="Helvetica,sans-Serif" font-size="10.00">PopupSelectionAction</text>
</a>
</g>
</g>
<!-- Node23&#45;&gt;Node24 -->
<g id="edge24" class="edge">
<title>Node23&#45;&gt;Node24</title>
<path fill="none" stroke="midnightblue" d="M1200.25,-101.68C1181.24,-101.5 1161.39,-101.31 1143.3,-101.13"/>
<polygon fill="midnightblue" stroke="midnightblue" points="1200.38,-105.18 1210.41,-101.77 1200.44,-98.18 1200.38,-105.18"/>
</g>
<!-- Node25 -->
<g id="node25" class="node">
<title>Node25</title>
<g id="a_node25"><a xlink:href="../../d3/d4c/classOmniboxResultView.html#adea3835a2f2809073b71b101cfecc957" target="_top" xlink:title=" ">
<polygon fill="white" stroke="black" points="603.5,-49.5 603.5,-79.5 715.5,-79.5 715.5,-49.5 603.5,-49.5"/>
<text text-anchor="start" x="611.5" y="-67.5" font-family="Helvetica,sans-Serif" font-size="10.00">OmniboxResultView::</text>
<text text-anchor="middle" x="659.5" y="-56.5" font-family="Helvetica,sans-Serif" font-size="10.00">ButtonPressed</text>
</a>
</g>
</g>
<!-- Node24&#45;&gt;Node25 -->
<g id="edge25" class="edge">
<title>Node24&#45;&gt;Node25</title>
<path fill="none" stroke="midnightblue" d="M997.87,-84.93C983.35,-82.43 968.25,-80.13 954,-78.5 871.26,-69.02 774.69,-65.94 715.58,-64.95"/>
<polygon fill="midnightblue" stroke="midnightblue" points="997.35,-88.4 1007.81,-86.69 998.57,-81.5 997.35,-88.4"/>
</g>
<!-- Node29 -->
<g id="node29" class="node">
<title>Node29</title>
<g id="a_node29"><a xlink:href="../../d3/d0a/classOmniboxSuggestionButtonRowView.html#a7914dd2f389c98c28906ce05bacf84e5" target="_top" xlink:title=" ">
<polygon fill="white" stroke="black" points="799,-0.5 799,-30.5 952,-30.5 952,-0.5 799,-0.5"/>
<text text-anchor="start" x="807" y="-18.5" font-family="Helvetica,sans-Serif" font-size="10.00">OmniboxSuggestionButtonRow</text>
<text text-anchor="middle" x="875.5" y="-7.5" font-family="Helvetica,sans-Serif" font-size="10.00">View::ButtonPressed</text>
</a>
</g>
</g>
<!-- Node24&#45;&gt;Node29 -->
<g id="edge29" class="edge">
<title>Node24&#45;&gt;Node29</title>
<path fill="none" stroke="midnightblue" d="M1033.56,-81.09C1010.37,-70.28 980.73,-56.76 954,-45.5 942.03,-40.46 928.9,-35.25 916.9,-30.62"/>
<polygon fill="midnightblue" stroke="midnightblue" points="1032.22,-84.33 1042.76,-85.39 1035.19,-77.99 1032.22,-84.33"/>
</g>
<!-- Node31 -->
<g id="node31" class="node">
<title>Node31</title>
<g id="a_node31"><a xlink:href="../../d2/dcb/classOmniboxRowView_1_1HeaderView.html#a441ded0bc83346ff1773063183d470f2" target="_top" xlink:title=" ">
<polygon fill="white" stroke="black" points="797,-137.5 797,-167.5 954,-167.5 954,-137.5 797,-137.5"/>
<text text-anchor="start" x="805" y="-155.5" font-family="Helvetica,sans-Serif" font-size="10.00">OmniboxRowView::HeaderView</text>
<text text-anchor="middle" x="875.5" y="-144.5" font-family="Helvetica,sans-Serif" font-size="10.00">::HeaderToggleButtonPressed</text>
</a>
</g>
</g>
<!-- Node24&#45;&gt;Node31 -->
<g id="edge32" class="edge">
<title>Node24&#45;&gt;Node31</title>
<path fill="none" stroke="midnightblue" d="M1007.49,-118.1C983.51,-124.4 956.72,-131.43 933.64,-137.49"/>
<polygon fill="midnightblue" stroke="midnightblue" points="1008.45,-121.47 1017.23,-115.54 1006.67,-114.7 1008.45,-121.47"/>
</g>
<!-- Node34 -->
<g id="node34" class="node">
<title>Node34</title>
<g id="a_node34"><a xlink:href="../../d2/dcb/classOmniboxRowView_1_1HeaderView.html#af9e1207af3e2688cdccfd7b8c1267a3c" target="_top" xlink:title=" ">
<polygon fill="white" stroke="black" points="797,-88.5 797,-118.5 954,-118.5 954,-88.5 797,-88.5"/>
<text text-anchor="start" x="805" y="-106.5" font-family="Helvetica,sans-Serif" font-size="10.00">OmniboxRowView::HeaderView</text>
<text text-anchor="middle" x="875.5" y="-95.5" font-family="Helvetica,sans-Serif" font-size="10.00">::OnMouseReleased</text>
</a>
</g>
</g>
<!-- Node24&#45;&gt;Node34 -->
<g id="edge36" class="edge">
<title>Node24&#45;&gt;Node34</title>
<path fill="none" stroke="midnightblue" d="M997.53,-101.67C983.32,-101.88 968.48,-102.11 954.25,-102.32"/>
<polygon fill="midnightblue" stroke="midnightblue" points="997.8,-105.16 1007.74,-101.51 997.69,-98.16 997.8,-105.16"/>
</g>
<!-- Node26 -->
<g id="node26" class="node">
<title>Node26</title>
<g id="a_node26"><a xlink:href="../../d3/d4c/classOmniboxResultView.html#a6768271ee0b1e6baa07eb56bbb74882d" target="_top" xlink:title=" ">
<polygon fill="white" stroke="black" points="386,-49.5 386,-79.5 498,-79.5 498,-49.5 386,-49.5"/>
<text text-anchor="start" x="394" y="-67.5" font-family="Helvetica,sans-Serif" font-size="10.00">OmniboxResultView::</text>
<text text-anchor="middle" x="442" y="-56.5" font-family="Helvetica,sans-Serif" font-size="10.00">OmniboxResultView</text>
</a>
</g>
</g>
<!-- Node25&#45;&gt;Node26 -->
<g id="edge26" class="edge">
<title>Node25&#45;&gt;Node26</title>
<path fill="none" stroke="midnightblue" d="M593.2,-64.5C562.82,-64.5 527.07,-64.5 498.07,-64.5"/>
<polygon fill="midnightblue" stroke="midnightblue" points="593.28,-68 603.28,-64.5 593.28,-61 593.28,-68"/>
</g>
<!-- Node27 -->
<g id="node27" class="node">
<title>Node27</title>
<g id="a_node27"><a xlink:href="../../d7/d88/classOmniboxPopupContentsView.html#aa8f47263f229af6a469c3bf964b81162" target="_top" xlink:title=" ">
<polygon fill="white" stroke="black" points="181,-72.5 181,-102.5 326,-102.5 326,-72.5 181,-72.5"/>
<text text-anchor="start" x="189" y="-90.5" font-family="Helvetica,sans-Serif" font-size="10.00">OmniboxPopupContentsView</text>
<text text-anchor="middle" x="253.5" y="-79.5" font-family="Helvetica,sans-Serif" font-size="10.00">::UpdatePopupAppearance</text>
</a>
</g>
</g>
<!-- Node26&#45;&gt;Node27 -->
<g id="edge27" class="edge">
<title>Node26&#45;&gt;Node27</title>
<path fill="none" stroke="midnightblue" d="M375.51,-72.58C359.55,-74.54 342.41,-76.66 326.18,-78.66"/>
<polygon fill="midnightblue" stroke="midnightblue" points="376.3,-76.01 385.8,-71.31 375.45,-69.06 376.3,-76.01"/>
</g>
<!-- Node28 -->
<g id="node28" class="node">
<title>Node28</title>
<g id="a_node28"><a xlink:href="../../d7/d88/classOmniboxPopupContentsView.html#a0e658101bc19acb66f6e0915fd6c2fe3" target="_top" xlink:title=" ">
<polygon fill="white" stroke="black" points="0,-72.5 0,-102.5 145,-102.5 145,-72.5 0,-72.5"/>
<text text-anchor="start" x="8" y="-90.5" font-family="Helvetica,sans-Serif" font-size="10.00">OmniboxPopupContentsView</text>
<text text-anchor="middle" x="72.5" y="-79.5" font-family="Helvetica,sans-Serif" font-size="10.00">::OnWidgetBoundsChanged</text>
</a>
</g>
</g>
<!-- Node27&#45;&gt;Node28 -->
<g id="edge28" class="edge">
<title>Node27&#45;&gt;Node28</title>
<path fill="none" stroke="midnightblue" d="M170.96,-87.5C162.36,-87.5 153.67,-87.5 145.2,-87.5"/>
<polygon fill="midnightblue" stroke="midnightblue" points="170.98,-91 180.98,-87.5 170.98,-84 170.98,-91"/>
</g>
<!-- Node30 -->
<g id="node30" class="node">
<title>Node30</title>
<g id="a_node30"><a xlink:href="../../d3/d0a/classOmniboxSuggestionButtonRowView.html#a75ca5fb3af853ffc8c5ed29380d2e72a" target="_top" xlink:title=" ">
<polygon fill="white" stroke="black" points="558,-0.5 558,-30.5 761,-30.5 761,-0.5 558,-0.5"/>
<text text-anchor="start" x="566" y="-18.5" font-family="Helvetica,sans-Serif" font-size="10.00">OmniboxSuggestionButtonRow</text>
<text text-anchor="middle" x="659.5" y="-7.5" font-family="Helvetica,sans-Serif" font-size="10.00">View::OmniboxSuggestionButtonRowView</text>
</a>
</g>
</g>
<!-- Node29&#45;&gt;Node30 -->
<g id="edge30" class="edge">
<title>Node29&#45;&gt;Node30</title>
<path fill="none" stroke="midnightblue" d="M788.67,-15.5C779.65,-15.5 770.42,-15.5 761.26,-15.5"/>
<polygon fill="midnightblue" stroke="midnightblue" points="788.75,-19 798.75,-15.5 788.75,-12 788.75,-19"/>
</g>
<!-- Node30&#45;&gt;Node26 -->
<g id="edge31" class="edge">
<title>Node30&#45;&gt;Node26</title>
<path fill="none" stroke="midnightblue" d="M582.3,-32.83C554.54,-39.14 523.71,-46.15 498.12,-51.97"/>
<polygon fill="midnightblue" stroke="midnightblue" points="583.4,-36.16 592.38,-30.53 581.85,-29.34 583.4,-36.16"/>
</g>
<!-- Node32 -->
<g id="node32" class="node">
<title>Node32</title>
<g id="a_node32"><a xlink:href="../../d2/dcb/classOmniboxRowView_1_1HeaderView.html#ad1abf8339bf99de0b39a9bb43111ba93" target="_top" xlink:title=" ">
<polygon fill="white" stroke="black" points="581,-117.5 581,-147.5 738,-147.5 738,-117.5 581,-117.5"/>
<text text-anchor="start" x="589" y="-135.5" font-family="Helvetica,sans-Serif" font-size="10.00">OmniboxRowView::HeaderView</text>
<text text-anchor="middle" x="659.5" y="-124.5" font-family="Helvetica,sans-Serif" font-size="10.00">::HeaderView</text>
</a>
</g>
</g>
<!-- Node31&#45;&gt;Node32 -->
<g id="edge33" class="edge">
<title>Node31&#45;&gt;Node32</title>
<path fill="none" stroke="midnightblue" d="M786.96,-144.32C770.79,-142.81 754.01,-141.24 738.16,-139.76"/>
<polygon fill="midnightblue" stroke="midnightblue" points="786.66,-147.81 796.94,-145.25 787.31,-140.84 786.66,-147.81"/>
</g>
<!-- Node33 -->
<g id="node33" class="node">
<title>Node33</title>
<g id="a_node33"><a xlink:href="../../da/da2/classOmniboxRowView.html#a6add650851301372ee9b8a6671cfa28c" target="_top" xlink:title=" ">
<polygon fill="white" stroke="black" points="362,-101 362,-120 522,-120 522,-101 362,-101"/>
<text text-anchor="middle" x="442" y="-108" font-family="Helvetica,sans-Serif" font-size="10.00">OmniboxRowView::ShowHeader</text>
</a>
</g>
</g>
<!-- Node32&#45;&gt;Node33 -->
<g id="edge34" class="edge">
<title>Node32&#45;&gt;Node33</title>
<path fill="none" stroke="midnightblue" d="M570.32,-123.5C554.36,-121.87 537.81,-120.18 522.14,-118.58"/>
<polygon fill="midnightblue" stroke="midnightblue" points="570.4,-127.02 580.7,-124.56 571.11,-120.06 570.4,-127.02"/>
</g>
<!-- Node33&#45;&gt;Node27 -->
<g id="edge35" class="edge">
<title>Node33&#45;&gt;Node27</title>
<path fill="none" stroke="midnightblue" d="M353.83,-99.75C344.6,-98.61 335.29,-97.46 326.26,-96.35"/>
<polygon fill="midnightblue" stroke="midnightblue" points="353.44,-103.23 363.8,-100.98 354.3,-96.28 353.44,-103.23"/>
</g>
<!-- Node37 -->
<g id="node37" class="node">
<title>Node37</title>
<g id="a_node37"><a xlink:href="../../dd/dfc/classClipboardProvider.html#a76c1922f8337d1e5a1f5eaf6fa20fd2c" target="_top" xlink:title=" ">
<polygon fill="white" stroke="black" points="999,-232.5 999,-262.5 1152,-262.5 1152,-232.5 999,-232.5"/>
<text text-anchor="start" x="1007" y="-250.5" font-family="Helvetica,sans-Serif" font-size="10.00">ClipboardProvider::</text>
<text text-anchor="middle" x="1075.5" y="-239.5" font-family="Helvetica,sans-Serif" font-size="10.00">AddCreatedMatchWithTracking</text>
</a>
</g>
</g>
<!-- Node36&#45;&gt;Node37 -->
<g id="edge39" class="edge">
<title>Node36&#45;&gt;Node37</title>
<path fill="none" stroke="midnightblue" d="M1219.48,-244.1C1198.01,-244.61 1174.13,-245.18 1152.12,-245.7"/>
<polygon fill="midnightblue" stroke="midnightblue" points="1219.57,-247.6 1229.48,-243.87 1219.4,-240.6 1219.57,-247.6"/>
</g>
<!-- Node43 -->
<g id="node43" class="node">
<title>Node43</title>
<g id="a_node43"><a xlink:href="../../d3/dbc/classZeroSuggestProvider.html#a6d02a927dbb2608e94c36d994512fb89" target="_top" xlink:title=" ">
<polygon fill="white" stroke="black" points="1018,-281.5 1018,-311.5 1133,-311.5 1133,-281.5 1018,-281.5"/>
<text text-anchor="start" x="1026" y="-299.5" font-family="Helvetica,sans-Serif" font-size="10.00">ZeroSuggestProvider</text>
<text text-anchor="middle" x="1075.5" y="-288.5" font-family="Helvetica,sans-Serif" font-size="10.00">::MatchForCurrentText</text>
</a>
</g>
</g>
<!-- Node36&#45;&gt;Node43 -->
<g id="edge48" class="edge">
<title>Node36&#45;&gt;Node43</title>
<path fill="none" stroke="midnightblue" d="M1239.97,-254.56C1208.36,-262.67 1166.52,-273.41 1133.09,-281.98"/>
<polygon fill="midnightblue" stroke="midnightblue" points="1241.03,-257.9 1249.85,-252.03 1239.3,-251.12 1241.03,-257.9"/>
</g>
<!-- Node44 -->
<g id="node44" class="node">
<title>Node44</title>
<g id="a_node44"><a xlink:href="../../da/d25/classZeroSuggestVerbatimMatchProvider.html#a40130e8fdca079a0648998decdba06e2" target="_top" xlink:title=" ">
<polygon fill="white" stroke="black" points="1006.5,-183.5 1006.5,-213.5 1144.5,-213.5 1144.5,-183.5 1006.5,-183.5"/>
<text text-anchor="start" x="1014.5" y="-201.5" font-family="Helvetica,sans-Serif" font-size="10.00">ZeroSuggestVerbatimMatch</text>
<text text-anchor="middle" x="1075.5" y="-190.5" font-family="Helvetica,sans-Serif" font-size="10.00">Provider::Start</text>
</a>
</g>
</g>
<!-- Node36&#45;&gt;Node44 -->
<g id="edge50" class="edge">
<title>Node36&#45;&gt;Node44</title>
<path fill="none" stroke="midnightblue" d="M1231.44,-230.89C1204.91,-225.34 1172.91,-218.65 1144.89,-212.8"/>
<polygon fill="midnightblue" stroke="midnightblue" points="1230.82,-234.33 1241.32,-232.95 1232.25,-227.48 1230.82,-234.33"/>
</g>
<!-- Node37&#45;&gt;Node17 -->
<g id="edge47" class="edge">
<title>Node37&#45;&gt;Node17</title>
<path fill="none" stroke="midnightblue" d="M988.65,-249.76C854.78,-253.28 588.19,-260.33 362,-266.5 342.96,-267.02 322.03,-267.6 303.73,-268.11"/>
<polygon fill="midnightblue" stroke="midnightblue" points="988.93,-253.25 998.84,-249.49 988.75,-246.25 988.93,-253.25"/>
</g>
<!-- Node38 -->
<g id="node38" class="node">
<title>Node38</title>
<g id="a_node38"><a xlink:href="../../dd/dfc/classClipboardProvider.html#a1f698fcf1a5dcf8674127be7bc1826cd" target="_top" xlink:title=" ">
<polygon fill="white" stroke="black" points="812.5,-188.5 812.5,-218.5 938.5,-218.5 938.5,-188.5 812.5,-188.5"/>
<text text-anchor="start" x="820.5" y="-206.5" font-family="Helvetica,sans-Serif" font-size="10.00">ClipboardProvider::</text>
<text text-anchor="middle" x="875.5" y="-195.5" font-family="Helvetica,sans-Serif" font-size="10.00">AddImageMatchCallback</text>
</a>
</g>
</g>
<!-- Node37&#45;&gt;Node38 -->
<g id="edge40" class="edge">
<title>Node37&#45;&gt;Node38</title>
<path fill="none" stroke="midnightblue" d="M996.95,-230.27C977.66,-225.98 957.23,-221.44 938.79,-217.34"/>
<polygon fill="midnightblue" stroke="midnightblue" points="996.39,-233.73 1006.91,-232.48 997.91,-226.89 996.39,-233.73"/>
</g>
<!-- Node41 -->
<g id="node41" class="node">
<title>Node41</title>
<g id="a_node41"><a xlink:href="../../dd/dfc/classClipboardProvider.html#ac5b6bd4f67341d6a9b46a06ebf85161b" target="_top" xlink:title=" ">
<polygon fill="white" stroke="black" points="805,-276.5 805,-306.5 946,-306.5 946,-276.5 805,-276.5"/>
<text text-anchor="start" x="813" y="-294.5" font-family="Helvetica,sans-Serif" font-size="10.00">ClipboardProvider::</text>
<text text-anchor="middle" x="875.5" y="-283.5" font-family="Helvetica,sans-Serif" font-size="10.00">OnReceiveClipboardContent</text>
</a>
</g>
</g>
<!-- Node37&#45;&gt;Node41 -->
<g id="edge44" class="edge">
<title>Node37&#45;&gt;Node41</title>
<path fill="none" stroke="midnightblue" d="M996.79,-264.77C979.39,-268.64 961.07,-272.71 944.12,-276.47"/>
<polygon fill="midnightblue" stroke="midnightblue" points="997.91,-268.11 1006.91,-262.52 996.39,-261.27 997.91,-268.11"/>
</g>
<!-- Node39 -->
<g id="node39" class="node">
<title>Node39</title>
<g id="a_node39"><a xlink:href="../../dd/dfc/classClipboardProvider.html#a1b23861507584be5cefe7e3b0bfbe46a" target="_top" xlink:title=" ">
<polygon fill="white" stroke="black" points="590.5,-188.5 590.5,-218.5 728.5,-218.5 728.5,-188.5 590.5,-188.5"/>
<text text-anchor="start" x="598.5" y="-206.5" font-family="Helvetica,sans-Serif" font-size="10.00">ClipboardProvider::</text>
<text text-anchor="middle" x="659.5" y="-195.5" font-family="Helvetica,sans-Serif" font-size="10.00">CreateImageMatchCallback</text>
</a>
</g>
</g>
<!-- Node38&#45;&gt;Node39 -->
<g id="edge41" class="edge">
<title>Node38&#45;&gt;Node39</title>
<path fill="none" stroke="midnightblue" d="M802,-203.5C778.35,-203.5 752.17,-203.5 728.84,-203.5"/>
<polygon fill="midnightblue" stroke="midnightblue" points="802.31,-207 812.31,-203.5 802.31,-200 802.31,-207"/>
</g>
<!-- Node40 -->
<g id="node40" class="node">
<title>Node40</title>
<g id="a_node40"><a xlink:href="../../dd/dfc/classClipboardProvider.html#a4b3f57f976158e6558b60bc7213445ea" target="_top" xlink:title=" ">
<polygon fill="white" stroke="black" points="392,-188.5 392,-218.5 492,-218.5 492,-188.5 392,-188.5"/>
<text text-anchor="start" x="400" y="-206.5" font-family="Helvetica,sans-Serif" font-size="10.00">ClipboardProvider::</text>
<text text-anchor="middle" x="442" y="-195.5" font-family="Helvetica,sans-Serif" font-size="10.00">CreateImageMatch</text>
</a>
</g>
</g>
<!-- Node39&#45;&gt;Node40 -->
<g id="edge42" class="edge">
<title>Node39&#45;&gt;Node40</title>
<path fill="none" stroke="midnightblue" d="M580.09,-203.5C550.75,-203.5 518.28,-203.5 492.3,-203.5"/>
<polygon fill="midnightblue" stroke="midnightblue" points="580.31,-207 590.31,-203.5 580.31,-200 580.31,-207"/>
</g>
<!-- Node40&#45;&gt;Node17 -->
<g id="edge43" class="edge">
<title>Node40&#45;&gt;Node17</title>
<path fill="none" stroke="midnightblue" d="M388.68,-222.02C359.76,-232.25 324.29,-244.8 297.09,-254.43"/>
<polygon fill="midnightblue" stroke="midnightblue" points="389.95,-225.28 398.21,-218.64 387.62,-218.68 389.95,-225.28"/>
</g>
<!-- Node42 -->
<g id="node42" class="node">
<title>Node42</title>
<g id="a_node42"><a xlink:href="../../dd/dfc/classClipboardProvider.html#a633e0a14e471f56fbbf92cb78ebd8051" target="_top" xlink:title=" ">
<polygon fill="white" stroke="black" points="381.5,-276.5 381.5,-306.5 502.5,-306.5 502.5,-276.5 381.5,-276.5"/>
<text text-anchor="start" x="389.5" y="-294.5" font-family="Helvetica,sans-Serif" font-size="10.00">ClipboardProvider::</text>
<text text-anchor="middle" x="442" y="-283.5" font-family="Helvetica,sans-Serif" font-size="10.00">CheckClipboardContent</text>
</a>
</g>
</g>
<!-- Node41&#45;&gt;Node42 -->
<g id="edge45" class="edge">
<title>Node41&#45;&gt;Node42</title>
<path fill="none" stroke="midnightblue" d="M794.62,-291.5C710.07,-291.5 578.57,-291.5 502.63,-291.5"/>
<polygon fill="midnightblue" stroke="midnightblue" points="794.69,-295 804.69,-291.5 794.69,-288 794.69,-295"/>
</g>
<!-- Node42&#45;&gt;Node17 -->
<g id="edge46" class="edge">
<title>Node42&#45;&gt;Node17</title>
<path fill="none" stroke="midnightblue" d="M371.32,-283.28C348.86,-280.63 324.46,-277.75 303.79,-275.31"/>
<polygon fill="midnightblue" stroke="midnightblue" points="371.14,-286.78 381.48,-284.48 371.96,-279.83 371.14,-286.78"/>
</g>
<!-- Node43&#45;&gt;Node6 -->
<g id="edge49" class="edge">
<title>Node43&#45;&gt;Node6</title>
<path fill="none" stroke="midnightblue" d="M1044.19,-317.47C1003.9,-345.35 933.66,-393.95 898.24,-418.46"/>
<polygon fill="midnightblue" stroke="midnightblue" points="1046.32,-320.25 1052.55,-311.68 1042.34,-314.5 1046.32,-320.25"/>
</g>
</g>
</svg>
        <g id="navigator" transform="translate(0 0)" fill="#404254">
                <rect fill="#f2f5e9" fill-opacity="0.5" stroke="#606060" stroke-width=".5" x="0" y="0" width="60" height="60"/>
                <use id="zoomplus" xlink:href="#zoomPlus" x="17" y="9" onmousedown="handleZoom(evt,'in')"/>
                <use id="zoomminus" xlink:href="#zoomMin" x="42" y="9" onmousedown="handleZoom(evt,'out')"/>
                <use id="reset" xlink:href="#resetDef" x="30" y="36" onmousedown="handleReset()"/>
                <g id="arrowUp" xlink:href="#dirArrow" transform="translate(30 24)" onmousedown="handlePan(0,-1)">
                  <use xlink:href="#rim" fill="#404040">
                        <set attributeName="fill" to="#808080" begin="arrowUp.mouseover" end="arrowUp.mouseout"/>
                  </use>
                  <path fill="none" stroke="white" stroke-width="1.5" d="M0,-3.0v7 M-2.5,-0.5L0,-3.0L2.5,-0.5"/>
                </g>
                <g id="arrowRight" xlink:href="#dirArrow" transform="rotate(90) translate(36 -43)" onmousedown="handlePan(1,0)">
                  <use xlink:href="#rim" fill="#404040">
                        <set attributeName="fill" to="#808080" begin="arrowRight.mouseover" end="arrowRight.mouseout"/>
                  </use>
                  <path fill="none" stroke="white" stroke-width="1.5" d="M0,-3.0v7 M-2.5,-0.5L0,-3.0L2.5,-0.5"/>
                </g>
                <g id="arrowDown" xlink:href="#dirArrow" transform="rotate(180) translate(-30 -48)" onmousedown="handlePan(0,1)">
                  <use xlink:href="#rim" fill="#404040">
                        <set attributeName="fill" to="#808080" begin="arrowDown.mouseover" end="arrowDown.mouseout"/>
                  </use>
                  <path fill="none" stroke="white" stroke-width="1.5" d="M0,-3.0v7 M-2.5,-0.5L0,-3.0L2.5,-0.5"/>
                </g>
                <g id="arrowLeft" xlink:href="#dirArrow" transform="rotate(270) translate(-36 17)" onmousedown="handlePan(-1,0)">
                  <use xlink:href="#rim" fill="#404040">
                        <set attributeName="fill" to="#808080" begin="arrowLeft.mouseover" end="arrowLeft.mouseout"/>
                  </use>
                  <path fill="none" stroke="white" stroke-width="1.5" d="M0,-3.0v7 M-2.5,-0.5L0,-3.0L2.5,-0.5"/>
                </g>
        </g>
        <svg viewBox="0 0 15 15" width="100%" height="30px" preserveAspectRatio="xMaxYMin meet">
         <g id="arrow_out" transform="scale(0.3 0.3)">
          <a xlink:href="classAutocompleteProviderClient_aeb7ca420d3164ab0a85826fe7eb8007a_icgraph_org.svg" target="_base">
           <rect id="button" ry="5" rx="5" y="6" x="6" height="38" width="38"
                fill="#f2f5e9" fill-opacity="0.5" stroke="#606060" stroke-width="1.0"/>
           <path id="arrow"
             d="M 11.500037,31.436501 C 11.940474,20.09759 22.043105,11.32322 32.158766,21.979434 L 37.068811,17.246167 C 37.068811,17.246167 37.088388,32 37.088388,32 L 22.160133,31.978069 C 22.160133,31.978069 26.997745,27.140456 26.997745,27.140456 C 18.528582,18.264221 13.291696,25.230495 11.500037,31.436501 z"
             style="fill:#404040;"/>
          </a>
         </g>
        </svg>
</svg>
