<?xml version="1.0" encoding="UTF-8" standalone="no"?>
<!DOCTYPE svg PUBLIC "-//W3C//DTD SVG 1.1//EN"
 "http://www.w3.org/Graphics/SVG/1.1/DTD/svg11.dtd">
<!-- Generated by graphviz version 2.43.0 (0)
 -->
<!-- Title: AutocompleteProviderClient::GetSchemeClassifier Pages: 1 -->
<svg width="1773pt" height="633pt"
 viewBox="0.00 0.00 1773.00 632.50" xmlns="http://www.w3.org/2000/svg" xmlns:xlink="http://www.w3.org/1999/xlink">
<g id="graph0" class="graph" transform="scale(1 1) rotate(0) translate(4 628.5)">
<title>AutocompleteProviderClient::GetSchemeClassifier</title>
<polygon fill="white" stroke="transparent" points="-4,4 -4,-628.5 1769,-628.5 1769,4 -4,4"/>
<!-- Node1 -->
<g id="node1" class="node">
<title>Node1</title>
<g id="a_node1"><a xlink:title=" ">
<polygon fill="#bfbfbf" stroke="black" points="1627,-442.5 1627,-472.5 1765,-472.5 1765,-442.5 1627,-442.5"/>
<text text-anchor="start" x="1635" y="-460.5" font-family="Helvetica,sans-Serif" font-size="10.00">AutocompleteProviderClient</text>
<text text-anchor="middle" x="1696" y="-449.5" font-family="Helvetica,sans-Serif" font-size="10.00">::GetSchemeClassifier</text>
</a>
</g>
</g>
<!-- Node2 -->
<g id="node2" class="node">
<title>Node2</title>
<g id="a_node2"><a xlink:href="../../d9/d85/classBookmarkProvider.html#afadaef69eb46311e736113fcfb9fb940" target="_top" xlink:title=" ">
<polygon fill="white" stroke="black" points="1415,-572 1415,-591 1591,-591 1591,-572 1415,-572"/>
<text text-anchor="middle" x="1503" y="-579" font-family="Helvetica,sans-Serif" font-size="10.00">BookmarkProvider::DoAutocomplete</text>
</a>
</g>
</g>
<!-- Node1&#45;&gt;Node2 -->
<g id="edge1" class="edge">
<title>Node1&#45;&gt;Node2</title>
<path fill="none" stroke="midnightblue" d="M1665.35,-478.34C1644.69,-492.72 1616.4,-512.11 1591,-528.5 1566.63,-544.23 1537.78,-561.56 1520.19,-571.98"/>
<polygon fill="midnightblue" stroke="midnightblue" points="1667.51,-481.11 1673.71,-472.51 1663.5,-475.37 1667.51,-481.11"/>
</g>
<!-- Node4 -->
<g id="node4" class="node">
<title>Node4</title>
<g id="a_node4"><a xlink:href="../../d0/ddc/classBaseSearchProvider.html#a3342cff48b1b080e2fe12f180f15828c" target="_top" xlink:title=" ">
<polygon fill="white" stroke="black" points="1444,-489.5 1444,-519.5 1562,-519.5 1562,-489.5 1444,-489.5"/>
<text text-anchor="start" x="1452" y="-507.5" font-family="Helvetica,sans-Serif" font-size="10.00">BaseSearchProvider</text>
<text text-anchor="middle" x="1503" y="-496.5" font-family="Helvetica,sans-Serif" font-size="10.00">::ParseSuggestResults</text>
</a>
</g>
</g>
<!-- Node1&#45;&gt;Node4 -->
<g id="edge3" class="edge">
<title>Node1&#45;&gt;Node4</title>
<path fill="none" stroke="midnightblue" d="M1624.16,-474.93C1603.72,-479.96 1581.67,-485.39 1562.1,-490.2"/>
<polygon fill="midnightblue" stroke="midnightblue" points="1625.17,-478.29 1634.04,-472.5 1623.49,-471.49 1625.17,-478.29"/>
</g>
<!-- Node14 -->
<g id="node14" class="node">
<title>Node14</title>
<g id="a_node14"><a xlink:href="../../dd/dfc/classClipboardProvider.html#a1cf0e41e7e2a855b5c4b62ed2f2ab550" target="_top" xlink:title=" ">
<polygon fill="white" stroke="black" points="1431,-418.5 1431,-448.5 1575,-448.5 1575,-418.5 1431,-418.5"/>
<text text-anchor="start" x="1439" y="-436.5" font-family="Helvetica,sans-Serif" font-size="10.00">ClipboardProvider::</text>
<text text-anchor="middle" x="1503" y="-425.5" font-family="Helvetica,sans-Serif" font-size="10.00">UpdateClipboardURLContent</text>
</a>
</g>
</g>
<!-- Node1&#45;&gt;Node14 -->
<g id="edge14" class="edge">
<title>Node1&#45;&gt;Node14</title>
<path fill="none" stroke="midnightblue" d="M1616.87,-447.68C1603.02,-445.94 1588.67,-444.14 1575.02,-442.42"/>
<polygon fill="midnightblue" stroke="midnightblue" points="1616.5,-451.16 1626.85,-448.94 1617.37,-444.22 1616.5,-451.16"/>
</g>
<!-- Node20 -->
<g id="node20" class="node">
<title>Node20</title>
<g id="a_node20"><a xlink:href="../../d5/d36/verbatim__match_8cc.html#ac196726f5b4ce701f803ee7c44a7fa13" target="_top" xlink:title=" ">
<polygon fill="white" stroke="black" points="1443.5,-241 1443.5,-260 1562.5,-260 1562.5,-241 1443.5,-241"/>
<text text-anchor="middle" x="1503" y="-248" font-family="Helvetica,sans-Serif" font-size="10.00">VerbatimMatchForInput</text>
</a>
</g>
</g>
<!-- Node1&#45;&gt;Node20 -->
<g id="edge20" class="edge">
<title>Node1&#45;&gt;Node20</title>
<path fill="none" stroke="midnightblue" d="M1674.05,-434.79C1632.59,-389.86 1541.62,-291.27 1512.88,-260.13"/>
<polygon fill="midnightblue" stroke="midnightblue" points="1671.6,-437.3 1680.96,-442.28 1676.75,-432.56 1671.6,-437.3"/>
</g>
<!-- Node3 -->
<g id="node3" class="node">
<title>Node3</title>
<g id="a_node3"><a xlink:href="../../d9/d85/classBookmarkProvider.html#a6b6511006b139be9855d11d197ef3b60" target="_top" xlink:title=" ">
<polygon fill="white" stroke="black" points="1226,-605 1226,-624 1350,-624 1350,-605 1226,-605"/>
<text text-anchor="middle" x="1288" y="-612" font-family="Helvetica,sans-Serif" font-size="10.00">BookmarkProvider::Start</text>
</a>
</g>
</g>
<!-- Node2&#45;&gt;Node3 -->
<g id="edge2" class="edge">
<title>Node2&#45;&gt;Node3</title>
<path fill="none" stroke="midnightblue" d="M1430.5,-592.58C1404.47,-596.61 1375.31,-601.13 1350.26,-605.01"/>
<polygon fill="midnightblue" stroke="midnightblue" points="1431.33,-595.99 1440.68,-591 1430.26,-589.07 1431.33,-595.99"/>
</g>
<!-- Node5 -->
<g id="node5" class="node">
<title>Node5</title>
<g id="a_node5"><a xlink:href="../../d3/dbc/classZeroSuggestProvider.html#a5a1c47322df6df8bfa3374fc08369314" target="_top" xlink:title=" ">
<polygon fill="white" stroke="black" points="996.5,-514.5 996.5,-544.5 1154.5,-544.5 1154.5,-514.5 996.5,-514.5"/>
<text text-anchor="start" x="1004.5" y="-532.5" font-family="Helvetica,sans-Serif" font-size="10.00">ZeroSuggestProvider</text>
<text text-anchor="middle" x="1075.5" y="-521.5" font-family="Helvetica,sans-Serif" font-size="10.00">::MaybeUseCachedSuggestions</text>
</a>
</g>
</g>
<!-- Node4&#45;&gt;Node5 -->
<g id="edge4" class="edge">
<title>Node4&#45;&gt;Node5</title>
<path fill="none" stroke="midnightblue" d="M1433.29,-508.54C1357.1,-513.01 1234.42,-520.22 1154.63,-524.91"/>
<polygon fill="midnightblue" stroke="midnightblue" points="1433.95,-512 1443.73,-507.92 1433.54,-505.02 1433.95,-512"/>
</g>
<!-- Node7 -->
<g id="node7" class="node">
<title>Node7</title>
<g id="a_node7"><a xlink:href="../../d4/dee/classSearchProvider.html#a62390d46fb831c0919093798ab7bd52d" target="_top" xlink:title=" ">
<polygon fill="white" stroke="black" points="1216.5,-555.5 1216.5,-585.5 1359.5,-585.5 1359.5,-555.5 1216.5,-555.5"/>
<text text-anchor="start" x="1224.5" y="-573.5" font-family="Helvetica,sans-Serif" font-size="10.00">SearchProvider::OnURLLoad</text>
<text text-anchor="middle" x="1288" y="-562.5" font-family="Helvetica,sans-Serif" font-size="10.00">Complete</text>
</a>
</g>
</g>
<!-- Node4&#45;&gt;Node7 -->
<g id="edge6" class="edge">
<title>Node4&#45;&gt;Node7</title>
<path fill="none" stroke="midnightblue" d="M1443.8,-522.53C1410.54,-532.84 1369.31,-545.62 1337.76,-555.39"/>
<polygon fill="midnightblue" stroke="midnightblue" points="1444.88,-525.86 1453.4,-519.56 1442.81,-519.18 1444.88,-525.86"/>
</g>
<!-- Node12 -->
<g id="node12" class="node">
<title>Node12</title>
<g id="a_node12"><a xlink:href="../../d3/dbc/classZeroSuggestProvider.html#a23ed4e024f176a325953927fc87f131d" target="_top" xlink:title=" ">
<polygon fill="white" stroke="black" points="1234,-467.5 1234,-497.5 1342,-497.5 1342,-467.5 1234,-467.5"/>
<text text-anchor="start" x="1242" y="-485.5" font-family="Helvetica,sans-Serif" font-size="10.00">ZeroSuggestProvider</text>
<text text-anchor="middle" x="1288" y="-474.5" font-family="Helvetica,sans-Serif" font-size="10.00">::UpdateResults</text>
</a>
</g>
</g>
<!-- Node4&#45;&gt;Node12 -->
<g id="edge11" class="edge">
<title>Node4&#45;&gt;Node12</title>
<path fill="none" stroke="midnightblue" d="M1433.52,-497.43C1403.87,-494.36 1369.7,-490.83 1342.03,-487.98"/>
<polygon fill="midnightblue" stroke="midnightblue" points="1433.49,-500.94 1443.8,-498.49 1434.21,-493.98 1433.49,-500.94"/>
</g>
<!-- Node6 -->
<g id="node6" class="node">
<title>Node6</title>
<g id="a_node6"><a xlink:href="../../d3/dbc/classZeroSuggestProvider.html#ac0afcbd72684c1a1478301c21b3ff486" target="_top" xlink:title=" ">
<polygon fill="white" stroke="black" points="821.5,-465.5 821.5,-495.5 929.5,-495.5 929.5,-465.5 821.5,-465.5"/>
<text text-anchor="start" x="829.5" y="-483.5" font-family="Helvetica,sans-Serif" font-size="10.00">ZeroSuggestProvider</text>
<text text-anchor="middle" x="875.5" y="-472.5" font-family="Helvetica,sans-Serif" font-size="10.00">::Start</text>
</a>
</g>
</g>
<!-- Node5&#45;&gt;Node6 -->
<g id="edge5" class="edge">
<title>Node5&#45;&gt;Node6</title>
<path fill="none" stroke="midnightblue" d="M1003.82,-512.01C979.43,-505.97 952.53,-499.31 929.76,-493.68"/>
<polygon fill="midnightblue" stroke="midnightblue" points="1003.2,-515.46 1013.75,-514.47 1004.88,-508.67 1003.2,-515.46"/>
</g>
<!-- Node8 -->
<g id="node8" class="node">
<title>Node8</title>
<g id="a_node8"><a xlink:href="../../d4/dee/classSearchProvider.html#ac6613acbe0b4e879590cdb0d562999c9" target="_top" xlink:title=" ">
<polygon fill="white" stroke="black" points="998,-563.5 998,-593.5 1153,-593.5 1153,-563.5 998,-563.5"/>
<text text-anchor="start" x="1006" y="-581.5" font-family="Helvetica,sans-Serif" font-size="10.00">SearchProvider::CreateSuggest</text>
<text text-anchor="middle" x="1075.5" y="-570.5" font-family="Helvetica,sans-Serif" font-size="10.00">Loader</text>
</a>
</g>
</g>
<!-- Node7&#45;&gt;Node8 -->
<g id="edge7" class="edge">
<title>Node7&#45;&gt;Node8</title>
<path fill="none" stroke="midnightblue" d="M1206.19,-573.57C1188.76,-574.23 1170.39,-574.93 1153.14,-575.59"/>
<polygon fill="midnightblue" stroke="midnightblue" points="1206.46,-577.06 1216.32,-573.19 1206.2,-570.07 1206.46,-577.06"/>
</g>
<!-- Node9 -->
<g id="node9" class="node">
<title>Node9</title>
<g id="a_node9"><a xlink:href="../../d4/dee/classSearchProvider.html#a02c8b00f5d4da0ce7e5de29658483914" target="_top" xlink:title=" ">
<polygon fill="white" stroke="black" points="822,-569 822,-588 929,-588 929,-569 822,-569"/>
<text text-anchor="middle" x="875.5" y="-576" font-family="Helvetica,sans-Serif" font-size="10.00">SearchProvider::Run</text>
</a>
</g>
</g>
<!-- Node8&#45;&gt;Node9 -->
<g id="edge8" class="edge">
<title>Node8&#45;&gt;Node9</title>
<path fill="none" stroke="midnightblue" d="M987.9,-578.5C967.93,-578.5 947.28,-578.5 929.26,-578.5"/>
<polygon fill="midnightblue" stroke="midnightblue" points="987.95,-582 997.95,-578.5 987.95,-575 987.95,-582"/>
</g>
<!-- Node10 -->
<g id="node10" class="node">
<title>Node10</title>
<g id="a_node10"><a xlink:href="../../d4/dee/classSearchProvider.html#af0c60cb234c815b05521a08434e7dcdc" target="_top" xlink:title=" ">
<polygon fill="white" stroke="black" points="589,-563.5 589,-593.5 730,-593.5 730,-563.5 589,-563.5"/>
<text text-anchor="start" x="597" y="-581.5" font-family="Helvetica,sans-Serif" font-size="10.00">SearchProvider::StartOrStop</text>
<text text-anchor="middle" x="659.5" y="-570.5" font-family="Helvetica,sans-Serif" font-size="10.00">SuggestQuery</text>
</a>
</g>
</g>
<!-- Node9&#45;&gt;Node10 -->
<g id="edge9" class="edge">
<title>Node9&#45;&gt;Node10</title>
<path fill="none" stroke="midnightblue" d="M811.58,-578.5C786.07,-578.5 756.5,-578.5 730.32,-578.5"/>
<polygon fill="midnightblue" stroke="midnightblue" points="811.88,-582 821.88,-578.5 811.88,-575 811.88,-582"/>
</g>
<!-- Node11 -->
<g id="node11" class="node">
<title>Node11</title>
<g id="a_node11"><a xlink:href="../../d4/dee/classSearchProvider.html#a9e8f7e367904d424ac875e501844e830" target="_top" xlink:title=" ">
<polygon fill="white" stroke="black" points="387,-569 387,-588 497,-588 497,-569 387,-569"/>
<text text-anchor="middle" x="442" y="-576" font-family="Helvetica,sans-Serif" font-size="10.00">SearchProvider::Start</text>
</a>
</g>
</g>
<!-- Node10&#45;&gt;Node11 -->
<g id="edge10" class="edge">
<title>Node10&#45;&gt;Node11</title>
<path fill="none" stroke="midnightblue" d="M578.56,-578.5C551.4,-578.5 521.72,-578.5 497.06,-578.5"/>
<polygon fill="midnightblue" stroke="midnightblue" points="578.83,-582 588.83,-578.5 578.83,-575 578.83,-582"/>
</g>
<!-- Node13 -->
<g id="node13" class="node">
<title>Node13</title>
<g id="a_node13"><a xlink:href="../../d3/dbc/classZeroSuggestProvider.html#a4049ecf2307fddcdfae00f7632660d3a" target="_top" xlink:title=" ">
<polygon fill="white" stroke="black" points="1016,-465.5 1016,-495.5 1135,-495.5 1135,-465.5 1016,-465.5"/>
<text text-anchor="start" x="1024" y="-483.5" font-family="Helvetica,sans-Serif" font-size="10.00">ZeroSuggestProvider</text>
<text text-anchor="middle" x="1075.5" y="-472.5" font-family="Helvetica,sans-Serif" font-size="10.00">::OnURLLoadComplete</text>
</a>
</g>
</g>
<!-- Node12&#45;&gt;Node13 -->
<g id="edge12" class="edge">
<title>Node12&#45;&gt;Node13</title>
<path fill="none" stroke="midnightblue" d="M1223.76,-481.9C1195.64,-481.63 1162.73,-481.32 1135.16,-481.06"/>
<polygon fill="midnightblue" stroke="midnightblue" points="1223.85,-485.4 1233.88,-482 1223.92,-478.4 1223.85,-485.4"/>
</g>
<!-- Node13&#45;&gt;Node6 -->
<g id="edge13" class="edge">
<title>Node13&#45;&gt;Node6</title>
<path fill="none" stroke="midnightblue" d="M1005.76,-480.5C980.78,-480.5 952.96,-480.5 929.55,-480.5"/>
<polygon fill="midnightblue" stroke="midnightblue" points="1005.9,-484 1015.9,-480.5 1005.9,-477 1005.9,-484"/>
</g>
<!-- Node15 -->
<g id="node15" class="node">
<title>Node15</title>
<g id="a_node15"><a xlink:href="../../dd/dfc/classClipboardProvider.html#a30dc08f11f9a68136751f19a3471fab7" target="_top" xlink:title=" ">
<polygon fill="white" stroke="black" points="1225.5,-369.5 1225.5,-399.5 1350.5,-399.5 1350.5,-369.5 1225.5,-369.5"/>
<text text-anchor="start" x="1233.5" y="-387.5" font-family="Helvetica,sans-Serif" font-size="10.00">ClipboardProvider::</text>
<text text-anchor="middle" x="1288" y="-376.5" font-family="Helvetica,sans-Serif" font-size="10.00">NewClipboardURLMatch</text>
</a>
</g>
</g>
<!-- Node14&#45;&gt;Node15 -->
<g id="edge15" class="edge">
<title>Node14&#45;&gt;Node15</title>
<path fill="none" stroke="midnightblue" d="M1426.85,-416.21C1401.89,-410.47 1374.41,-404.15 1350.59,-398.67"/>
<polygon fill="midnightblue" stroke="midnightblue" points="1426.12,-419.63 1436.65,-418.47 1427.68,-412.81 1426.12,-419.63"/>
</g>
<!-- Node18 -->
<g id="node18" class="node">
<title>Node18</title>
<g id="a_node18"><a xlink:href="../../dd/dfc/classClipboardProvider.html#a1a1332687b60ce4997fddd8cf76afe55" target="_top" xlink:title=" ">
<polygon fill="white" stroke="black" points="1197,-418.5 1197,-448.5 1379,-448.5 1379,-418.5 1197,-418.5"/>
<text text-anchor="start" x="1205" y="-436.5" font-family="Helvetica,sans-Serif" font-size="10.00">ClipboardProvider::</text>
<text text-anchor="middle" x="1288" y="-425.5" font-family="Helvetica,sans-Serif" font-size="10.00">OnReceiveURLForMatchWithContent</text>
</a>
</g>
</g>
<!-- Node14&#45;&gt;Node18 -->
<g id="edge18" class="edge">
<title>Node14&#45;&gt;Node18</title>
<path fill="none" stroke="midnightblue" d="M1420.54,-433.5C1406.98,-433.5 1392.85,-433.5 1379.09,-433.5"/>
<polygon fill="midnightblue" stroke="midnightblue" points="1420.78,-437 1430.78,-433.5 1420.78,-430 1420.78,-437"/>
</g>
<!-- Node16 -->
<g id="node16" class="node">
<title>Node16</title>
<g id="a_node16"><a xlink:href="../../dd/dfc/classClipboardProvider.html#a3e363a38bf3f41d447cfa4acfb6d78df" target="_top" xlink:title=" ">
<polygon fill="white" stroke="black" points="392,-372.5 392,-402.5 492,-402.5 492,-372.5 392,-372.5"/>
<text text-anchor="start" x="400" y="-390.5" font-family="Helvetica,sans-Serif" font-size="10.00">ClipboardProvider::</text>
<text text-anchor="middle" x="442" y="-379.5" font-family="Helvetica,sans-Serif" font-size="10.00">CreateURLMatch</text>
</a>
</g>
</g>
<!-- Node15&#45;&gt;Node16 -->
<g id="edge16" class="edge">
<title>Node15&#45;&gt;Node16</title>
<path fill="none" stroke="midnightblue" d="M1215.08,-384.76C1047.5,-385.35 634.49,-386.82 492.15,-387.33"/>
<polygon fill="midnightblue" stroke="midnightblue" points="1215.29,-388.26 1225.28,-384.72 1215.27,-381.26 1215.29,-388.26"/>
</g>
<!-- Node17 -->
<g id="node17" class="node">
<title>Node17</title>
<g id="a_node17"><a xlink:href="../../dd/dfc/classClipboardProvider.html#a6333eac4718cb8f1617e6771261d4d86" target="_top" xlink:title=" ">
<polygon fill="white" stroke="black" points="203.5,-306.5 203.5,-336.5 303.5,-336.5 303.5,-306.5 203.5,-306.5"/>
<text text-anchor="start" x="211.5" y="-324.5" font-family="Helvetica,sans-Serif" font-size="10.00">ClipboardProvider::</text>
<text text-anchor="middle" x="253.5" y="-313.5" font-family="Helvetica,sans-Serif" font-size="10.00">Start</text>
</a>
</g>
</g>
<!-- Node16&#45;&gt;Node17 -->
<g id="edge17" class="edge">
<title>Node16&#45;&gt;Node17</title>
<path fill="none" stroke="midnightblue" d="M388.68,-368.98C359.76,-358.75 324.29,-346.2 297.09,-336.57"/>
<polygon fill="midnightblue" stroke="midnightblue" points="387.62,-372.32 398.21,-372.36 389.95,-365.72 387.62,-372.32"/>
</g>
<!-- Node19 -->
<g id="node19" class="node">
<title>Node19</title>
<g id="a_node19"><a xlink:href="../../dd/dfc/classClipboardProvider.html#a3e1eee50a8861e52bf52bac9442fd649" target="_top" xlink:title=" ">
<polygon fill="white" stroke="black" points="990,-416.5 990,-446.5 1161,-446.5 1161,-416.5 990,-416.5"/>
<text text-anchor="start" x="998" y="-434.5" font-family="Helvetica,sans-Serif" font-size="10.00">ClipboardProvider::</text>
<text text-anchor="middle" x="1075.5" y="-423.5" font-family="Helvetica,sans-Serif" font-size="10.00">UpdateClipboardMatchWithContent</text>
</a>
</g>
</g>
<!-- Node18&#45;&gt;Node19 -->
<g id="edge19" class="edge">
<title>Node18&#45;&gt;Node19</title>
<path fill="none" stroke="midnightblue" d="M1186.78,-432.55C1178.21,-432.47 1169.6,-432.38 1161.16,-432.3"/>
<polygon fill="midnightblue" stroke="midnightblue" points="1186.78,-436.05 1196.81,-432.64 1186.85,-429.05 1186.78,-436.05"/>
</g>
<!-- Node21 -->
<g id="node21" class="node">
<title>Node21</title>
<g id="a_node21"><a xlink:href="../../d0/d22/classOmniboxEditModel.html#a16ad032b278a1797080546968d8cc307" target="_top" xlink:title=" ">
<polygon fill="white" stroke="black" points="1220,-235.5 1220,-265.5 1356,-265.5 1356,-235.5 1220,-235.5"/>
<text text-anchor="start" x="1228" y="-253.5" font-family="Helvetica,sans-Serif" font-size="10.00">OmniboxEditModel::Accept</text>
<text text-anchor="middle" x="1288" y="-242.5" font-family="Helvetica,sans-Serif" font-size="10.00">Input</text>
</a>
</g>
</g>
<!-- Node20&#45;&gt;Node21 -->
<g id="edge21" class="edge">
<title>Node20&#45;&gt;Node21</title>
<path fill="none" stroke="midnightblue" d="M1433.23,-250.5C1408.55,-250.5 1380.77,-250.5 1356.22,-250.5"/>
<polygon fill="midnightblue" stroke="midnightblue" points="1433.23,-254 1443.23,-250.5 1433.23,-247 1433.23,-254"/>
</g>
<!-- Node23 -->
<g id="node23" class="node">
<title>Node23</title>
<g id="a_node23"><a xlink:href="../../d0/d22/classOmniboxEditModel.html#a2048ac3eb134371876a1517bba0eb54a" target="_top" xlink:title=" ">
<polygon fill="white" stroke="black" points="1210.5,-148 1210.5,-167 1365.5,-167 1365.5,-148 1210.5,-148"/>
<text text-anchor="middle" x="1288" y="-155" font-family="Helvetica,sans-Serif" font-size="10.00">OmniboxEditModel::OpenMatch</text>
</a>
</g>
</g>
<!-- Node20&#45;&gt;Node23 -->
<g id="edge23" class="edge">
<title>Node20&#45;&gt;Node23</title>
<path fill="none" stroke="midnightblue" d="M1481.28,-235.05C1457.7,-218.21 1417.45,-191.63 1379,-176.5 1369.34,-172.7 1358.78,-169.6 1348.41,-167.1"/>
<polygon fill="midnightblue" stroke="midnightblue" points="1479.31,-237.95 1489.46,-240.99 1483.42,-232.28 1479.31,-237.95"/>
</g>
<!-- Node35 -->
<g id="node35" class="node">
<title>Node35</title>
<g id="a_node35"><a xlink:href="../../da/dad/classHistoryURLProvider.html#ad8668da3c2254ca7ac51f0d7b0fc4104" target="_top" xlink:title=" ">
<polygon fill="white" stroke="black" points="1236,-186.5 1236,-216.5 1340,-216.5 1340,-186.5 1236,-186.5"/>
<text text-anchor="start" x="1244" y="-204.5" font-family="Helvetica,sans-Serif" font-size="10.00">HistoryURLProvider</text>
<text text-anchor="middle" x="1288" y="-193.5" font-family="Helvetica,sans-Serif" font-size="10.00">::Start</text>
</a>
</g>
</g>
<!-- Node20&#45;&gt;Node35 -->
<g id="edge38" class="edge">
<title>Node20&#45;&gt;Node35</title>
<path fill="none" stroke="midnightblue" d="M1450.65,-238.69C1417.23,-231 1373.8,-221.01 1340.37,-213.32"/>
<polygon fill="midnightblue" stroke="midnightblue" points="1450.15,-242.16 1460.68,-240.99 1451.72,-235.34 1450.15,-242.16"/>
</g>
<!-- Node36 -->
<g id="node36" class="node">
<title>Node36</title>
<g id="a_node36"><a xlink:href="../../d5/d36/verbatim__match_8cc.html#abe0d653bed223eab6bf348ed99e3466c" target="_top" xlink:title=" ">
<polygon fill="white" stroke="black" points="1229.5,-285 1229.5,-304 1346.5,-304 1346.5,-285 1229.5,-285"/>
<text text-anchor="middle" x="1288" y="-292" font-family="Helvetica,sans-Serif" font-size="10.00">VerbatimMatchForURL</text>
</a>
</g>
</g>
<!-- Node20&#45;&gt;Node36 -->
<g id="edge39" class="edge">
<title>Node20&#45;&gt;Node36</title>
<path fill="none" stroke="midnightblue" d="M1445.85,-262.1C1411.32,-269.23 1367.62,-278.26 1335.13,-284.97"/>
<polygon fill="midnightblue" stroke="midnightblue" points="1446.7,-265.5 1455.78,-260.05 1445.28,-258.64 1446.7,-265.5"/>
</g>
<!-- Node22 -->
<g id="node22" class="node">
<title>Node22</title>
<g id="a_node22"><a xlink:href="../../d0/d94/classOmniboxViewViews.html#a5a64c1e16631c3301fb57307402784dc" target="_top" xlink:title=" ">
<polygon fill="white" stroke="black" points="805,-186.5 805,-216.5 946,-216.5 946,-186.5 805,-186.5"/>
<text text-anchor="start" x="813" y="-204.5" font-family="Helvetica,sans-Serif" font-size="10.00">OmniboxViewViews::Handle</text>
<text text-anchor="middle" x="875.5" y="-193.5" font-family="Helvetica,sans-Serif" font-size="10.00">KeyEvent</text>
</a>
</g>
</g>
<!-- Node21&#45;&gt;Node22 -->
<g id="edge22" class="edge">
<title>Node21&#45;&gt;Node22</title>
<path fill="none" stroke="midnightblue" d="M1222.73,-233.01C1203.05,-228.25 1181.26,-223.57 1161,-220.5 1088.19,-209.48 1003.94,-204.85 946.13,-202.91"/>
<polygon fill="midnightblue" stroke="midnightblue" points="1221.95,-236.42 1232.5,-235.42 1223.63,-229.63 1221.95,-236.42"/>
</g>
<!-- Node24 -->
<g id="node24" class="node">
<title>Node24</title>
<g id="a_node24"><a xlink:href="../../d1/db1/classOmniboxPopupModel.html#acf1ecd019bf8b90655bb4a6c3dd7f8b1" target="_top" xlink:title=" ">
<polygon fill="white" stroke="black" points="1017.5,-120.5 1017.5,-150.5 1133.5,-150.5 1133.5,-120.5 1017.5,-120.5"/>
<text text-anchor="start" x="1025.5" y="-138.5" font-family="Helvetica,sans-Serif" font-size="10.00">OmniboxPopupModel::</text>
<text text-anchor="middle" x="1075.5" y="-127.5" font-family="Helvetica,sans-Serif" font-size="10.00">TriggerSelectionAction</text>
</a>
</g>
</g>
<!-- Node23&#45;&gt;Node24 -->
<g id="edge24" class="edge">
<title>Node23&#45;&gt;Node24</title>
<path fill="none" stroke="midnightblue" d="M1200.18,-148.43C1177.71,-146.08 1154.08,-143.61 1133.56,-141.46"/>
<polygon fill="midnightblue" stroke="midnightblue" points="1200.1,-151.94 1210.41,-149.5 1200.83,-144.97 1200.1,-151.94"/>
</g>
<!-- Node24&#45;&gt;Node22 -->
<g id="edge32" class="edge">
<title>Node24&#45;&gt;Node22</title>
<path fill="none" stroke="midnightblue" d="M1019.35,-153.88C988.58,-164.14 950.72,-176.76 921.71,-186.43"/>
<polygon fill="midnightblue" stroke="midnightblue" points="1020.69,-157.12 1029.07,-150.64 1018.48,-150.48 1020.69,-157.12"/>
</g>
<!-- Node25 -->
<g id="node25" class="node">
<title>Node25</title>
<g id="a_node25"><a xlink:href="../../d3/d4c/classOmniboxResultView.html#a7bd0ac4077f48f8cc13698e19ed36eb6" target="_top" xlink:title=" ">
<polygon fill="white" stroke="black" points="603.5,-120.5 603.5,-150.5 715.5,-150.5 715.5,-120.5 603.5,-120.5"/>
<text text-anchor="start" x="611.5" y="-138.5" font-family="Helvetica,sans-Serif" font-size="10.00">OmniboxResultView::</text>
<text text-anchor="middle" x="659.5" y="-127.5" font-family="Helvetica,sans-Serif" font-size="10.00">ButtonPressed</text>
</a>
</g>
</g>
<!-- Node24&#45;&gt;Node25 -->
<g id="edge25" class="edge">
<title>Node24&#45;&gt;Node25</title>
<path fill="none" stroke="midnightblue" d="M1007.43,-136.81C990.03,-137.1 971.31,-137.36 954,-137.5 884.22,-138.08 866.78,-138.01 797,-137.5 770.22,-137.3 740.49,-136.89 715.62,-136.49"/>
<polygon fill="midnightblue" stroke="midnightblue" points="1007.56,-140.31 1017.5,-136.64 1007.44,-133.31 1007.56,-140.31"/>
</g>
<!-- Node29 -->
<g id="node29" class="node">
<title>Node29</title>
<g id="a_node29"><a xlink:href="../../d3/d0a/classOmniboxSuggestionButtonRowView.html#a35216a3671475e4ee13507b0465d5eb8" target="_top" xlink:title=" ">
<polygon fill="white" stroke="black" points="799,-49.5 799,-79.5 952,-79.5 952,-49.5 799,-49.5"/>
<text text-anchor="start" x="807" y="-67.5" font-family="Helvetica,sans-Serif" font-size="10.00">OmniboxSuggestionButtonRow</text>
<text text-anchor="middle" x="875.5" y="-56.5" font-family="Helvetica,sans-Serif" font-size="10.00">View::ButtonPressed</text>
</a>
</g>
</g>
<!-- Node24&#45;&gt;Node29 -->
<g id="edge29" class="edge">
<title>Node24&#45;&gt;Node29</title>
<path fill="none" stroke="midnightblue" d="M1028.28,-116.58C1005.98,-107.68 978.74,-97.14 954,-88.5 945.36,-85.48 936.11,-82.45 927.11,-79.6"/>
<polygon fill="midnightblue" stroke="midnightblue" points="1027.25,-119.94 1037.84,-120.41 1029.86,-113.44 1027.25,-119.94"/>
</g>
<!-- Node31 -->
<g id="node31" class="node">
<title>Node31</title>
<g id="a_node31"><a xlink:href="../../d2/dcb/classOmniboxRowView_1_1HeaderView.html#a441ded0bc83346ff1773063183d470f2" target="_top" xlink:title=" ">
<polygon fill="white" stroke="black" points="797,-0.5 797,-30.5 954,-30.5 954,-0.5 797,-0.5"/>
<text text-anchor="start" x="805" y="-18.5" font-family="Helvetica,sans-Serif" font-size="10.00">OmniboxRowView::HeaderView</text>
<text text-anchor="middle" x="875.5" y="-7.5" font-family="Helvetica,sans-Serif" font-size="10.00">::HeaderToggleButtonPressed</text>
</a>
</g>
</g>
<!-- Node24&#45;&gt;Node31 -->
<g id="edge33" class="edge">
<title>Node24&#45;&gt;Node31</title>
<path fill="none" stroke="midnightblue" d="M1052,-113.25C1029.08,-91.69 991.65,-59.41 954,-39.5 947.65,-36.14 940.75,-33.17 933.78,-30.56"/>
<polygon fill="midnightblue" stroke="midnightblue" points="1049.83,-116.02 1059.48,-120.39 1054.66,-110.96 1049.83,-116.02"/>
</g>
<!-- Node34 -->
<g id="node34" class="node">
<title>Node34</title>
<g id="a_node34"><a xlink:href="../../d2/dcb/classOmniboxRowView_1_1HeaderView.html#af9e1207af3e2688cdccfd7b8c1267a3c" target="_top" xlink:title=" ">
<polygon fill="white" stroke="black" points="797,-98.5 797,-128.5 954,-128.5 954,-98.5 797,-98.5"/>
<text text-anchor="start" x="805" y="-116.5" font-family="Helvetica,sans-Serif" font-size="10.00">OmniboxRowView::HeaderView</text>
<text text-anchor="middle" x="875.5" y="-105.5" font-family="Helvetica,sans-Serif" font-size="10.00">::OnMouseReleased</text>
</a>
</g>
</g>
<!-- Node24&#45;&gt;Node34 -->
<g id="edge37" class="edge">
<title>Node24&#45;&gt;Node34</title>
<path fill="none" stroke="midnightblue" d="M1007.08,-128.01C990.04,-126.12 971.59,-124.07 954.09,-122.12"/>
<polygon fill="midnightblue" stroke="midnightblue" points="1007.17,-131.54 1017.5,-129.17 1007.94,-124.58 1007.17,-131.54"/>
</g>
<!-- Node26 -->
<g id="node26" class="node">
<title>Node26</title>
<g id="a_node26"><a xlink:href="../../d3/d4c/classOmniboxResultView.html#a632535684d6941455e8979815a978a44" target="_top" xlink:title=" ">
<polygon fill="white" stroke="black" points="386,-49.5 386,-79.5 498,-79.5 498,-49.5 386,-49.5"/>
<text text-anchor="start" x="394" y="-67.5" font-family="Helvetica,sans-Serif" font-size="10.00">OmniboxResultView::</text>
<text text-anchor="middle" x="442" y="-56.5" font-family="Helvetica,sans-Serif" font-size="10.00">OmniboxResultView</text>
</a>
</g>
</g>
<!-- Node25&#45;&gt;Node26 -->
<g id="edge26" class="edge">
<title>Node25&#45;&gt;Node26</title>
<path fill="none" stroke="midnightblue" d="M603.07,-117.24C567.56,-105.54 522.05,-90.54 488.64,-79.54"/>
<polygon fill="midnightblue" stroke="midnightblue" points="602.2,-120.64 612.8,-120.44 604.4,-113.99 602.2,-120.64"/>
</g>
<!-- Node27 -->
<g id="node27" class="node">
<title>Node27</title>
<g id="a_node27"><a xlink:href="../../d7/d88/classOmniboxPopupContentsView.html#aa8f47263f229af6a469c3bf964b81162" target="_top" xlink:title=" ">
<polygon fill="white" stroke="black" points="181,-26.5 181,-56.5 326,-56.5 326,-26.5 181,-26.5"/>
<text text-anchor="start" x="189" y="-44.5" font-family="Helvetica,sans-Serif" font-size="10.00">OmniboxPopupContentsView</text>
<text text-anchor="middle" x="253.5" y="-33.5" font-family="Helvetica,sans-Serif" font-size="10.00">::UpdatePopupAppearance</text>
</a>
</g>
</g>
<!-- Node26&#45;&gt;Node27 -->
<g id="edge27" class="edge">
<title>Node26&#45;&gt;Node27</title>
<path fill="none" stroke="midnightblue" d="M375.51,-56.42C359.55,-54.46 342.41,-52.34 326.18,-50.34"/>
<polygon fill="midnightblue" stroke="midnightblue" points="375.45,-59.94 385.8,-57.69 376.3,-52.99 375.45,-59.94"/>
</g>
<!-- Node28 -->
<g id="node28" class="node">
<title>Node28</title>
<g id="a_node28"><a xlink:href="../../d7/d88/classOmniboxPopupContentsView.html#a0e658101bc19acb66f6e0915fd6c2fe3" target="_top" xlink:title=" ">
<polygon fill="white" stroke="black" points="0,-26.5 0,-56.5 145,-56.5 145,-26.5 0,-26.5"/>
<text text-anchor="start" x="8" y="-44.5" font-family="Helvetica,sans-Serif" font-size="10.00">OmniboxPopupContentsView</text>
<text text-anchor="middle" x="72.5" y="-33.5" font-family="Helvetica,sans-Serif" font-size="10.00">::OnWidgetBoundsChanged</text>
</a>
</g>
</g>
<!-- Node27&#45;&gt;Node28 -->
<g id="edge28" class="edge">
<title>Node27&#45;&gt;Node28</title>
<path fill="none" stroke="midnightblue" d="M170.96,-41.5C162.36,-41.5 153.67,-41.5 145.2,-41.5"/>
<polygon fill="midnightblue" stroke="midnightblue" points="170.98,-45 180.98,-41.5 170.98,-38 170.98,-45"/>
</g>
<!-- Node30 -->
<g id="node30" class="node">
<title>Node30</title>
<g id="a_node30"><a xlink:href="../../d3/d0a/classOmniboxSuggestionButtonRowView.html#a7272410c3b801796d1c9cbeb37f9b3e7" target="_top" xlink:title=" ">
<polygon fill="white" stroke="black" points="558,-49.5 558,-79.5 761,-79.5 761,-49.5 558,-49.5"/>
<text text-anchor="start" x="566" y="-67.5" font-family="Helvetica,sans-Serif" font-size="10.00">OmniboxSuggestionButtonRow</text>
<text text-anchor="middle" x="659.5" y="-56.5" font-family="Helvetica,sans-Serif" font-size="10.00">View::OmniboxSuggestionButtonRowView</text>
</a>
</g>
</g>
<!-- Node29&#45;&gt;Node30 -->
<g id="edge30" class="edge">
<title>Node29&#45;&gt;Node30</title>
<path fill="none" stroke="midnightblue" d="M788.67,-64.5C779.65,-64.5 770.42,-64.5 761.26,-64.5"/>
<polygon fill="midnightblue" stroke="midnightblue" points="788.75,-68 798.75,-64.5 788.75,-61 788.75,-68"/>
</g>
<!-- Node30&#45;&gt;Node26 -->
<g id="edge31" class="edge">
<title>Node30&#45;&gt;Node26</title>
<path fill="none" stroke="midnightblue" d="M547.59,-64.5C530.45,-64.5 513.4,-64.5 498.21,-64.5"/>
<polygon fill="midnightblue" stroke="midnightblue" points="547.69,-68 557.69,-64.5 547.69,-61 547.69,-68"/>
</g>
<!-- Node32 -->
<g id="node32" class="node">
<title>Node32</title>
<g id="a_node32"><a xlink:href="../../d2/dcb/classOmniboxRowView_1_1HeaderView.html#ad1abf8339bf99de0b39a9bb43111ba93" target="_top" xlink:title=" ">
<polygon fill="white" stroke="black" points="581,-0.5 581,-30.5 738,-30.5 738,-0.5 581,-0.5"/>
<text text-anchor="start" x="589" y="-18.5" font-family="Helvetica,sans-Serif" font-size="10.00">OmniboxRowView::HeaderView</text>
<text text-anchor="middle" x="659.5" y="-7.5" font-family="Helvetica,sans-Serif" font-size="10.00">::HeaderView</text>
</a>
</g>
</g>
<!-- Node31&#45;&gt;Node32 -->
<g id="edge34" class="edge">
<title>Node31&#45;&gt;Node32</title>
<path fill="none" stroke="midnightblue" d="M786.51,-15.5C770.48,-15.5 753.86,-15.5 738.16,-15.5"/>
<polygon fill="midnightblue" stroke="midnightblue" points="786.94,-19 796.94,-15.5 786.94,-12 786.94,-19"/>
</g>
<!-- Node33 -->
<g id="node33" class="node">
<title>Node33</title>
<g id="a_node33"><a xlink:href="../../da/da2/classOmniboxRowView.html#a6add650851301372ee9b8a6671cfa28c" target="_top" xlink:title=" ">
<polygon fill="white" stroke="black" points="362,-9 362,-28 522,-28 522,-9 362,-9"/>
<text text-anchor="middle" x="442" y="-16" font-family="Helvetica,sans-Serif" font-size="10.00">OmniboxRowView::ShowHeader</text>
</a>
</g>
</g>
<!-- Node32&#45;&gt;Node33 -->
<g id="edge35" class="edge">
<title>Node32&#45;&gt;Node33</title>
<path fill="none" stroke="midnightblue" d="M570.32,-16.73C554.36,-16.95 537.81,-17.18 522.14,-17.4"/>
<polygon fill="midnightblue" stroke="midnightblue" points="570.75,-20.22 580.7,-16.58 570.65,-13.22 570.75,-20.22"/>
</g>
<!-- Node33&#45;&gt;Node27 -->
<g id="edge36" class="edge">
<title>Node33&#45;&gt;Node27</title>
<path fill="none" stroke="midnightblue" d="M353.83,-29.25C344.6,-30.39 335.29,-31.54 326.26,-32.65"/>
<polygon fill="midnightblue" stroke="midnightblue" points="354.3,-32.72 363.8,-28.02 353.44,-25.77 354.3,-32.72"/>
</g>
<!-- Node37 -->
<g id="node37" class="node">
<title>Node37</title>
<g id="a_node37"><a xlink:href="../../dd/dfc/classClipboardProvider.html#a76c1922f8337d1e5a1f5eaf6fa20fd2c" target="_top" xlink:title=" ">
<polygon fill="white" stroke="black" points="999,-279.5 999,-309.5 1152,-309.5 1152,-279.5 999,-279.5"/>
<text text-anchor="start" x="1007" y="-297.5" font-family="Helvetica,sans-Serif" font-size="10.00">ClipboardProvider::</text>
<text text-anchor="middle" x="1075.5" y="-286.5" font-family="Helvetica,sans-Serif" font-size="10.00">AddCreatedMatchWithTracking</text>
</a>
</g>
</g>
<!-- Node36&#45;&gt;Node37 -->
<g id="edge40" class="edge">
<title>Node36&#45;&gt;Node37</title>
<path fill="none" stroke="midnightblue" d="M1219.48,-294.5C1198.01,-294.5 1174.13,-294.5 1152.12,-294.5"/>
<polygon fill="midnightblue" stroke="midnightblue" points="1219.48,-298 1229.48,-294.5 1219.48,-291 1219.48,-298"/>
</g>
<!-- Node43 -->
<g id="node43" class="node">
<title>Node43</title>
<g id="a_node43"><a xlink:href="../../d3/dbc/classZeroSuggestProvider.html#a6d02a927dbb2608e94c36d994512fb89" target="_top" xlink:title=" ">
<polygon fill="white" stroke="black" points="1018,-328.5 1018,-358.5 1133,-358.5 1133,-328.5 1018,-328.5"/>
<text text-anchor="start" x="1026" y="-346.5" font-family="Helvetica,sans-Serif" font-size="10.00">ZeroSuggestProvider</text>
<text text-anchor="middle" x="1075.5" y="-335.5" font-family="Helvetica,sans-Serif" font-size="10.00">::MatchForCurrentText</text>
</a>
</g>
</g>
<!-- Node36&#45;&gt;Node43 -->
<g id="edge49" class="edge">
<title>Node36&#45;&gt;Node43</title>
<path fill="none" stroke="midnightblue" d="M1236.39,-306.28C1205.27,-313.53 1165.32,-322.82 1133.14,-330.31"/>
<polygon fill="midnightblue" stroke="midnightblue" points="1237.22,-309.68 1246.16,-304.01 1235.63,-302.86 1237.22,-309.68"/>
</g>
<!-- Node44 -->
<g id="node44" class="node">
<title>Node44</title>
<g id="a_node44"><a xlink:href="../../da/d25/classZeroSuggestVerbatimMatchProvider.html#a40130e8fdca079a0648998decdba06e2" target="_top" xlink:title=" ">
<polygon fill="white" stroke="black" points="1006.5,-230.5 1006.5,-260.5 1144.5,-260.5 1144.5,-230.5 1006.5,-230.5"/>
<text text-anchor="start" x="1014.5" y="-248.5" font-family="Helvetica,sans-Serif" font-size="10.00">ZeroSuggestVerbatimMatch</text>
<text text-anchor="middle" x="1075.5" y="-237.5" font-family="Helvetica,sans-Serif" font-size="10.00">Provider::Start</text>
</a>
</g>
</g>
<!-- Node36&#45;&gt;Node44 -->
<g id="edge51" class="edge">
<title>Node36&#45;&gt;Node44</title>
<path fill="none" stroke="midnightblue" d="M1233.56,-282.79C1221.52,-280.1 1208.82,-277.23 1197,-274.5 1177.82,-270.06 1156.95,-265.09 1138.06,-260.54"/>
<polygon fill="midnightblue" stroke="midnightblue" points="1232.96,-286.24 1243.48,-284.99 1234.47,-279.4 1232.96,-286.24"/>
</g>
<!-- Node37&#45;&gt;Node17 -->
<g id="edge48" class="edge">
<title>Node37&#45;&gt;Node17</title>
<path fill="none" stroke="midnightblue" d="M1013.95,-312.02C994.93,-316.73 973.74,-321.16 954,-323.5 711.6,-352.26 418.62,-334.62 303.92,-325.72"/>
<polygon fill="midnightblue" stroke="midnightblue" points="1014.85,-315.41 1023.68,-309.55 1013.12,-308.62 1014.85,-315.41"/>
</g>
<!-- Node38 -->
<g id="node38" class="node">
<title>Node38</title>
<g id="a_node38"><a xlink:href="../../dd/dfc/classClipboardProvider.html#a1f698fcf1a5dcf8674127be7bc1826cd" target="_top" xlink:title=" ">
<polygon fill="white" stroke="black" points="812.5,-284.5 812.5,-314.5 938.5,-314.5 938.5,-284.5 812.5,-284.5"/>
<text text-anchor="start" x="820.5" y="-302.5" font-family="Helvetica,sans-Serif" font-size="10.00">ClipboardProvider::</text>
<text text-anchor="middle" x="875.5" y="-291.5" font-family="Helvetica,sans-Serif" font-size="10.00">AddImageMatchCallback</text>
</a>
</g>
</g>
<!-- Node37&#45;&gt;Node38 -->
<g id="edge41" class="edge">
<title>Node37&#45;&gt;Node38</title>
<path fill="none" stroke="midnightblue" d="M988.45,-296.67C971.7,-297.1 954.45,-297.53 938.66,-297.93"/>
<polygon fill="midnightblue" stroke="midnightblue" points="988.89,-300.16 998.8,-296.41 988.71,-293.17 988.89,-300.16"/>
</g>
<!-- Node41 -->
<g id="node41" class="node">
<title>Node41</title>
<g id="a_node41"><a xlink:href="../../dd/dfc/classClipboardProvider.html#ac5b6bd4f67341d6a9b46a06ebf85161b" target="_top" xlink:title=" ">
<polygon fill="white" stroke="black" points="805,-235.5 805,-265.5 946,-265.5 946,-235.5 805,-235.5"/>
<text text-anchor="start" x="813" y="-253.5" font-family="Helvetica,sans-Serif" font-size="10.00">ClipboardProvider::</text>
<text text-anchor="middle" x="875.5" y="-242.5" font-family="Helvetica,sans-Serif" font-size="10.00">OnReceiveClipboardContent</text>
</a>
</g>
</g>
<!-- Node37&#45;&gt;Node41 -->
<g id="edge45" class="edge">
<title>Node37&#45;&gt;Node41</title>
<path fill="none" stroke="midnightblue" d="M996.79,-277.23C979.39,-273.36 961.07,-269.29 944.12,-265.53"/>
<polygon fill="midnightblue" stroke="midnightblue" points="996.39,-280.73 1006.91,-279.48 997.91,-273.89 996.39,-280.73"/>
</g>
<!-- Node39 -->
<g id="node39" class="node">
<title>Node39</title>
<g id="a_node39"><a xlink:href="../../dd/dfc/classClipboardProvider.html#a1b23861507584be5cefe7e3b0bfbe46a" target="_top" xlink:title=" ">
<polygon fill="white" stroke="black" points="590.5,-284.5 590.5,-314.5 728.5,-314.5 728.5,-284.5 590.5,-284.5"/>
<text text-anchor="start" x="598.5" y="-302.5" font-family="Helvetica,sans-Serif" font-size="10.00">ClipboardProvider::</text>
<text text-anchor="middle" x="659.5" y="-291.5" font-family="Helvetica,sans-Serif" font-size="10.00">CreateImageMatchCallback</text>
</a>
</g>
</g>
<!-- Node38&#45;&gt;Node39 -->
<g id="edge42" class="edge">
<title>Node38&#45;&gt;Node39</title>
<path fill="none" stroke="midnightblue" d="M802,-299.5C778.35,-299.5 752.17,-299.5 728.84,-299.5"/>
<polygon fill="midnightblue" stroke="midnightblue" points="802.31,-303 812.31,-299.5 802.31,-296 802.31,-303"/>
</g>
<!-- Node40 -->
<g id="node40" class="node">
<title>Node40</title>
<g id="a_node40"><a xlink:href="../../dd/dfc/classClipboardProvider.html#a4b3f57f976158e6558b60bc7213445ea" target="_top" xlink:title=" ">
<polygon fill="white" stroke="black" points="392,-284.5 392,-314.5 492,-314.5 492,-284.5 392,-284.5"/>
<text text-anchor="start" x="400" y="-302.5" font-family="Helvetica,sans-Serif" font-size="10.00">ClipboardProvider::</text>
<text text-anchor="middle" x="442" y="-291.5" font-family="Helvetica,sans-Serif" font-size="10.00">CreateImageMatch</text>
</a>
</g>
</g>
<!-- Node39&#45;&gt;Node40 -->
<g id="edge43" class="edge">
<title>Node39&#45;&gt;Node40</title>
<path fill="none" stroke="midnightblue" d="M580.09,-299.5C550.75,-299.5 518.28,-299.5 492.3,-299.5"/>
<polygon fill="midnightblue" stroke="midnightblue" points="580.31,-303 590.31,-299.5 580.31,-296 580.31,-303"/>
</g>
<!-- Node40&#45;&gt;Node17 -->
<g id="edge44" class="edge">
<title>Node40&#45;&gt;Node17</title>
<path fill="none" stroke="midnightblue" d="M381.85,-306.48C356.73,-309.44 327.77,-312.86 303.82,-315.68"/>
<polygon fill="midnightblue" stroke="midnightblue" points="382.48,-309.93 392,-305.28 381.66,-302.98 382.48,-309.93"/>
</g>
<!-- Node42 -->
<g id="node42" class="node">
<title>Node42</title>
<g id="a_node42"><a xlink:href="../../dd/dfc/classClipboardProvider.html#a633e0a14e471f56fbbf92cb78ebd8051" target="_top" xlink:title=" ">
<polygon fill="white" stroke="black" points="381.5,-235.5 381.5,-265.5 502.5,-265.5 502.5,-235.5 381.5,-235.5"/>
<text text-anchor="start" x="389.5" y="-253.5" font-family="Helvetica,sans-Serif" font-size="10.00">ClipboardProvider::</text>
<text text-anchor="middle" x="442" y="-242.5" font-family="Helvetica,sans-Serif" font-size="10.00">CheckClipboardContent</text>
</a>
</g>
</g>
<!-- Node41&#45;&gt;Node42 -->
<g id="edge46" class="edge">
<title>Node41&#45;&gt;Node42</title>
<path fill="none" stroke="midnightblue" d="M794.62,-250.5C710.07,-250.5 578.57,-250.5 502.63,-250.5"/>
<polygon fill="midnightblue" stroke="midnightblue" points="794.69,-254 804.69,-250.5 794.69,-247 794.69,-254"/>
</g>
<!-- Node42&#45;&gt;Node17 -->
<g id="edge47" class="edge">
<title>Node42&#45;&gt;Node17</title>
<path fill="none" stroke="midnightblue" d="M378.82,-268.63C373.11,-270.53 367.43,-272.5 362,-274.5 336.2,-284.02 307.72,-296.57 286.56,-306.31"/>
<polygon fill="midnightblue" stroke="midnightblue" points="380.01,-271.93 388.44,-265.52 377.85,-265.27 380.01,-271.93"/>
</g>
<!-- Node43&#45;&gt;Node6 -->
<g id="edge50" class="edge">
<title>Node43&#45;&gt;Node6</title>
<path fill="none" stroke="midnightblue" d="M1044.19,-364.47C1003.9,-392.35 933.66,-440.95 898.24,-465.46"/>
<polygon fill="midnightblue" stroke="midnightblue" points="1046.32,-367.25 1052.55,-358.68 1042.34,-361.5 1046.32,-367.25"/>
</g>
</g>
</svg>
