<?xml version="1.0" encoding="UTF-8" standalone="no"?>
<!DOCTYPE svg PUBLIC "-//W3C//DTD SVG 1.1//EN"
 "http://www.w3.org/Graphics/SVG/1.1/DTD/svg11.dtd">
<!-- Generated by graphviz version 2.43.0 (0)
 -->
<!-- Title: AutocompleteProviderClient::GetEmbedderRepresentationOfAboutScheme Pages: 1 -->
<!--zoomable 225 -->
<svg id="main" version="1.1" xmlns="http://www.w3.org/2000/svg" xmlns:xlink="http://www.w3.org/1999/xlink" xml:space="preserve" onload="init(evt)">
<style type="text/css"><![CDATA[
.edge:hover path { stroke: red; }
.edge:hover polygon { stroke: red; fill: red; }
]]></style>
<script type="text/javascript"><![CDATA[
var edges = document.getElementsByTagName('g');
if (edges && edges.length) {
  for (var i=0;i<edges.length;i++) {
    if (edges[i].id.substr(0,4)=='edge') {
      edges[i].setAttribute('class','edge');
    }
  }
}
]]></script>
        <defs>
                <circle id="rim" cx="0" cy="0" r="7"/>
                <circle id="rim2" cx="0" cy="0" r="3.5"/>
                <g id="zoomPlus">
                        <use xlink:href="#rim" fill="#404040">
                                <set attributeName="fill" to="#808080" begin="zoomplus.mouseover" end="zoomplus.mouseout"/>
                        </use>
                        <path d="M-4,0h8M0,-4v8" fill="none" stroke="white" stroke-width="1.5" pointer-events="none"/>
                </g>
                <g id="zoomMin">
                        <use xlink:href="#rim" fill="#404040">
                                <set attributeName="fill" to="#808080" begin="zoomminus.mouseover" end="zoomminus.mouseout"/>
                        </use>
                        <path d="M-4,0h8" fill="none" stroke="white" stroke-width="1.5" pointer-events="none"/>
                </g>
                <g id="dirArrow">
                        <path fill="none" stroke="white" stroke-width="1.5" d="M0,-3.0v7 M-2.5,-0.5L0,-3.0L2.5,-0.5"/>
                </g>
               <g id="resetDef">
                       <use xlink:href="#rim2" fill="#404040">
                               <set attributeName="fill" to="#808080" begin="reset.mouseover" end="reset.mouseout"/>
                       </use>
               </g>
        </defs>

<script type="text/javascript">
var viewWidth = 567;
var viewHeight = 225;
var sectionId = 'dynsection-7';
</script>
<script xlink:href="../../svgpan.js"/>
<svg id="graph" class="graph">
<g id="viewport">
<title>AutocompleteProviderClient::GetEmbedderRepresentationOfAboutScheme</title>
<polygon fill="white" stroke="transparent" points="-4,4 -4,-221 563,-221 563,4 -4,4"/>
<!-- Node1 -->
<g id="node1" class="node">
<title>Node1</title>
<g id="a_node1"><a xlink:title=" ">
<polygon fill="#bfbfbf" stroke="black" points="374,-83 374,-124 559,-124 559,-83 374,-83"/>
<text text-anchor="start" x="382" y="-112" font-family="Helvetica,sans-Serif" font-size="10.00">AutocompleteProviderClient</text>
<text text-anchor="start" x="382" y="-101" font-family="Helvetica,sans-Serif" font-size="10.00">::GetEmbedderRepresentationOfAbout</text>
<text text-anchor="middle" x="466.5" y="-90" font-family="Helvetica,sans-Serif" font-size="10.00">Scheme</text>
</a>
</g>
</g>
<!-- Node2 -->
<g id="node2" class="node">
<title>Node2</title>
<g id="a_node2"><a xlink:href="../../dc/d2d/classMostVisitedSitesProvider.html#a3af007a03438af15b66f8b4f1c65dddb" target="_top" xlink:title=" ">
<polygon fill="white" stroke="black" points="163,-186.5 163,-216.5 338,-216.5 338,-186.5 163,-186.5"/>
<text text-anchor="start" x="171" y="-204.5" font-family="Helvetica,sans-Serif" font-size="10.00">MostVisitedSitesProvider</text>
<text text-anchor="middle" x="250.5" y="-193.5" font-family="Helvetica,sans-Serif" font-size="10.00">::AllowMostVisitedSitesSuggestions</text>
</a>
</g>
</g>
<!-- Node1&#45;&gt;Node2 -->
<g id="edge1" class="edge">
<title>Node1&#45;&gt;Node2</title>
<path fill="none" stroke="midnightblue" d="M425.7,-129.58C401.17,-144.81 368.64,-163.52 338,-176.5 329.36,-180.16 320.02,-183.47 310.79,-186.41"/>
<polygon fill="midnightblue" stroke="midnightblue" points="427.75,-132.42 434.36,-124.14 424.03,-126.5 427.75,-132.42"/>
</g>
<!-- Node4 -->
<g id="node4" class="node">
<title>Node4</title>
<g id="a_node4"><a xlink:href="../../dc/ddd/classQueryTileProvider.html#aa31d142e6f53d0c05a76301cfd6003f9" target="_top" xlink:title=" ">
<polygon fill="white" stroke="black" points="182,-137.5 182,-167.5 319,-167.5 319,-137.5 182,-137.5"/>
<text text-anchor="start" x="190" y="-155.5" font-family="Helvetica,sans-Serif" font-size="10.00">QueryTileProvider::</text>
<text text-anchor="middle" x="250.5" y="-144.5" font-family="Helvetica,sans-Serif" font-size="10.00">AllowQueryTileSuggestions</text>
</a>
</g>
</g>
<!-- Node1&#45;&gt;Node4 -->
<g id="edge3" class="edge">
<title>Node1&#45;&gt;Node4</title>
<path fill="none" stroke="midnightblue" d="M365.47,-126.4C349.02,-130.17 332.35,-133.99 317.02,-137.5"/>
<polygon fill="midnightblue" stroke="midnightblue" points="366.71,-129.71 375.67,-124.07 365.15,-122.89 366.71,-129.71"/>
</g>
<!-- Node6 -->
<g id="node6" class="node">
<title>Node6</title>
<g id="a_node6"><a xlink:href="../../df/df9/classOmniboxPedalTranslate.html#a9bfe7b385a36f05d1e0e3ec02a468eb4" target="_top" xlink:title=" ">
<polygon fill="white" stroke="black" points="190,-88.5 190,-118.5 311,-118.5 311,-88.5 190,-88.5"/>
<text text-anchor="start" x="198" y="-106.5" font-family="Helvetica,sans-Serif" font-size="10.00">OmniboxPedalTranslate</text>
<text text-anchor="middle" x="250.5" y="-95.5" font-family="Helvetica,sans-Serif" font-size="10.00">::IsReadyToTrigger</text>
</a>
</g>
</g>
<!-- Node1&#45;&gt;Node6 -->
<g id="edge5" class="edge">
<title>Node1&#45;&gt;Node6</title>
<path fill="none" stroke="midnightblue" d="M363.57,-103.5C345.61,-103.5 327.45,-103.5 311.14,-103.5"/>
<polygon fill="midnightblue" stroke="midnightblue" points="363.81,-107 373.81,-103.5 363.81,-100 363.81,-107"/>
</g>
<!-- Node7 -->
<g id="node7" class="node">
<title>Node7</title>
<g id="a_node7"><a xlink:href="../../db/d54/classBuiltinProvider.html#ae230e53e9324366e20d76514b3d77d58" target="_top" xlink:title=" ">
<polygon fill="white" stroke="black" points="197,-50 197,-69 304,-69 304,-50 197,-50"/>
<text text-anchor="middle" x="250.5" y="-57" font-family="Helvetica,sans-Serif" font-size="10.00">BuiltinProvider::Start</text>
</a>
</g>
</g>
<!-- Node1&#45;&gt;Node7 -->
<g id="edge6" class="edge">
<title>Node1&#45;&gt;Node7</title>
<path fill="none" stroke="midnightblue" d="M363.94,-82.62C340.83,-77.87 317.37,-73.04 297.91,-69.04"/>
<polygon fill="midnightblue" stroke="midnightblue" points="363.31,-86.06 373.81,-84.65 364.72,-79.21 363.31,-86.06"/>
</g>
<!-- Node8 -->
<g id="node8" class="node">
<title>Node8</title>
<g id="a_node8"><a xlink:href="../../da/d25/classZeroSuggestVerbatimMatchProvider.html#a40130e8fdca079a0648998decdba06e2" target="_top" xlink:title=" ">
<polygon fill="white" stroke="black" points="181.5,-0.5 181.5,-30.5 319.5,-30.5 319.5,-0.5 181.5,-0.5"/>
<text text-anchor="start" x="189.5" y="-18.5" font-family="Helvetica,sans-Serif" font-size="10.00">ZeroSuggestVerbatimMatch</text>
<text text-anchor="middle" x="250.5" y="-7.5" font-family="Helvetica,sans-Serif" font-size="10.00">Provider::Start</text>
</a>
</g>
</g>
<!-- Node1&#45;&gt;Node8 -->
<g id="edge7" class="edge">
<title>Node1&#45;&gt;Node8</title>
<path fill="none" stroke="midnightblue" d="M419.21,-78.14C395.39,-65.75 365.64,-51.22 338,-40.5 328.82,-36.94 318.92,-33.61 309.21,-30.63"/>
<polygon fill="midnightblue" stroke="midnightblue" points="417.87,-81.4 428.35,-82.96 421.13,-75.2 417.87,-81.4"/>
</g>
<!-- Node3 -->
<g id="node3" class="node">
<title>Node3</title>
<g id="a_node3"><a xlink:href="../../dc/d2d/classMostVisitedSitesProvider.html#a4e28e08108b05e54a5ef025abc55ab41" target="_top" xlink:title=" ">
<polygon fill="white" stroke="black" points="0,-186.5 0,-216.5 127,-216.5 127,-186.5 0,-186.5"/>
<text text-anchor="start" x="8" y="-204.5" font-family="Helvetica,sans-Serif" font-size="10.00">MostVisitedSitesProvider</text>
<text text-anchor="middle" x="63.5" y="-193.5" font-family="Helvetica,sans-Serif" font-size="10.00">::Start</text>
</a>
</g>
</g>
<!-- Node2&#45;&gt;Node3 -->
<g id="edge2" class="edge">
<title>Node2&#45;&gt;Node3</title>
<path fill="none" stroke="midnightblue" d="M152.79,-201.5C144.13,-201.5 135.52,-201.5 127.26,-201.5"/>
<polygon fill="midnightblue" stroke="midnightblue" points="152.96,-205 162.96,-201.5 152.96,-198 152.96,-205"/>
</g>
<!-- Node5 -->
<g id="node5" class="node">
<title>Node5</title>
<g id="a_node5"><a xlink:href="../../dc/ddd/classQueryTileProvider.html#ac4fa4e12adaecc8068526fb2202fce21" target="_top" xlink:title=" ">
<polygon fill="white" stroke="black" points="13,-137.5 13,-167.5 114,-167.5 114,-137.5 13,-137.5"/>
<text text-anchor="start" x="21" y="-155.5" font-family="Helvetica,sans-Serif" font-size="10.00">QueryTileProvider::</text>
<text text-anchor="middle" x="63.5" y="-144.5" font-family="Helvetica,sans-Serif" font-size="10.00">Start</text>
</a>
</g>
</g>
<!-- Node4&#45;&gt;Node5 -->
<g id="edge4" class="edge">
<title>Node4&#45;&gt;Node5</title>
<path fill="none" stroke="midnightblue" d="M171.83,-152.5C152.33,-152.5 131.93,-152.5 114.22,-152.5"/>
<polygon fill="midnightblue" stroke="midnightblue" points="171.93,-156 181.93,-152.5 171.93,-149 171.93,-156"/>
</g>
</g>
</svg>
        <g id="navigator" transform="translate(0 0)" fill="#404254">
                <rect fill="#f2f5e9" fill-opacity="0.5" stroke="#606060" stroke-width=".5" x="0" y="0" width="60" height="60"/>
                <use id="zoomplus" xlink:href="#zoomPlus" x="17" y="9" onmousedown="handleZoom(evt,'in')"/>
                <use id="zoomminus" xlink:href="#zoomMin" x="42" y="9" onmousedown="handleZoom(evt,'out')"/>
                <use id="reset" xlink:href="#resetDef" x="30" y="36" onmousedown="handleReset()"/>
                <g id="arrowUp" xlink:href="#dirArrow" transform="translate(30 24)" onmousedown="handlePan(0,-1)">
                  <use xlink:href="#rim" fill="#404040">
                        <set attributeName="fill" to="#808080" begin="arrowUp.mouseover" end="arrowUp.mouseout"/>
                  </use>
                  <path fill="none" stroke="white" stroke-width="1.5" d="M0,-3.0v7 M-2.5,-0.5L0,-3.0L2.5,-0.5"/>
                </g>
                <g id="arrowRight" xlink:href="#dirArrow" transform="rotate(90) translate(36 -43)" onmousedown="handlePan(1,0)">
                  <use xlink:href="#rim" fill="#404040">
                        <set attributeName="fill" to="#808080" begin="arrowRight.mouseover" end="arrowRight.mouseout"/>
                  </use>
                  <path fill="none" stroke="white" stroke-width="1.5" d="M0,-3.0v7 M-2.5,-0.5L0,-3.0L2.5,-0.5"/>
                </g>
                <g id="arrowDown" xlink:href="#dirArrow" transform="rotate(180) translate(-30 -48)" onmousedown="handlePan(0,1)">
                  <use xlink:href="#rim" fill="#404040">
                        <set attributeName="fill" to="#808080" begin="arrowDown.mouseover" end="arrowDown.mouseout"/>
                  </use>
                  <path fill="none" stroke="white" stroke-width="1.5" d="M0,-3.0v7 M-2.5,-0.5L0,-3.0L2.5,-0.5"/>
                </g>
                <g id="arrowLeft" xlink:href="#dirArrow" transform="rotate(270) translate(-36 17)" onmousedown="handlePan(-1,0)">
                  <use xlink:href="#rim" fill="#404040">
                        <set attributeName="fill" to="#808080" begin="arrowLeft.mouseover" end="arrowLeft.mouseout"/>
                  </use>
                  <path fill="none" stroke="white" stroke-width="1.5" d="M0,-3.0v7 M-2.5,-0.5L0,-3.0L2.5,-0.5"/>
                </g>
        </g>
        <svg viewBox="0 0 15 15" width="100%" height="30px" preserveAspectRatio="xMaxYMin meet">
         <g id="arrow_out" transform="scale(0.3 0.3)">
          <a xlink:href="classAutocompleteProviderClient_a6395e3944b3ef32a09f2db1c57441b22_icgraph_org.svg" target="_base">
           <rect id="button" ry="5" rx="5" y="6" x="6" height="38" width="38"
                fill="#f2f5e9" fill-opacity="0.5" stroke="#606060" stroke-width="1.0"/>
           <path id="arrow"
             d="M 11.500037,31.436501 C 11.940474,20.09759 22.043105,11.32322 32.158766,21.979434 L 37.068811,17.246167 C 37.068811,17.246167 37.088388,32 37.088388,32 L 22.160133,31.978069 C 22.160133,31.978069 26.997745,27.140456 26.997745,27.140456 C 18.528582,18.264221 13.291696,25.230495 11.500037,31.436501 z"
             style="fill:#404040;"/>
          </a>
         </g>
        </svg>
</svg>
