<?xml version="1.0" encoding="UTF-8" standalone="no"?>
<!DOCTYPE svg PUBLIC "-//W3C//DTD SVG 1.1//EN"
 "http://www.w3.org/Graphics/SVG/1.1/DTD/svg11.dtd">
<!-- Generated by graphviz version 2.43.0 (0)
 -->
<!-- Title: AutocompleteProviderClient::IsOffTheRecord Pages: 1 -->
<svg width="1066pt" height="410pt"
 viewBox="0.00 0.00 1066.00 410.00" xmlns="http://www.w3.org/2000/svg" xmlns:xlink="http://www.w3.org/1999/xlink">
<g id="graph0" class="graph" transform="scale(1 1) rotate(0) translate(4 406)">
<title>AutocompleteProviderClient::IsOffTheRecord</title>
<polygon fill="white" stroke="transparent" points="-4,4 -4,-406 1062,-406 1062,4 -4,4"/>
<!-- Node1 -->
<g id="node1" class="node">
<title>Node1</title>
<g id="a_node1"><a xlink:title=" ">
<polygon fill="#bfbfbf" stroke="black" points="920,-153.5 920,-183.5 1058,-183.5 1058,-153.5 920,-153.5"/>
<text text-anchor="start" x="928" y="-171.5" font-family="Helvetica,sans-Serif" font-size="10.00">AutocompleteProviderClient</text>
<text text-anchor="middle" x="989" y="-160.5" font-family="Helvetica,sans-Serif" font-size="10.00">::IsOffTheRecord</text>
</a>
</g>
</g>
<!-- Node2 -->
<g id="node2" class="node">
<title>Node2</title>
<g id="a_node2"><a xlink:href="../../dc/d2d/classMostVisitedSitesProvider.html#a3af007a03438af15b66f8b4f1c65dddb" target="_top" xlink:title=" ">
<polygon fill="white" stroke="black" points="709,-358.5 709,-388.5 884,-388.5 884,-358.5 709,-358.5"/>
<text text-anchor="start" x="717" y="-376.5" font-family="Helvetica,sans-Serif" font-size="10.00">MostVisitedSitesProvider</text>
<text text-anchor="middle" x="796.5" y="-365.5" font-family="Helvetica,sans-Serif" font-size="10.00">::AllowMostVisitedSitesSuggestions</text>
</a>
</g>
</g>
<!-- Node1&#45;&gt;Node2 -->
<g id="edge1" class="edge">
<title>Node1&#45;&gt;Node2</title>
<path fill="none" stroke="midnightblue" d="M978.66,-193.1C963.77,-229.3 931.42,-297.01 884,-337.5 873.73,-346.27 861.03,-353.13 848.55,-358.41"/>
<polygon fill="midnightblue" stroke="midnightblue" points="981.92,-194.36 982.39,-183.77 975.43,-191.76 981.92,-194.36"/>
</g>
<!-- Node4 -->
<g id="node4" class="node">
<title>Node4</title>
<g id="a_node4"><a xlink:href="../../dc/ddd/classQueryTileProvider.html#aa31d142e6f53d0c05a76301cfd6003f9" target="_top" xlink:title=" ">
<polygon fill="white" stroke="black" points="728,-297.5 728,-327.5 865,-327.5 865,-297.5 728,-297.5"/>
<text text-anchor="start" x="736" y="-315.5" font-family="Helvetica,sans-Serif" font-size="10.00">QueryTileProvider::</text>
<text text-anchor="middle" x="796.5" y="-304.5" font-family="Helvetica,sans-Serif" font-size="10.00">AllowQueryTileSuggestions</text>
</a>
</g>
</g>
<!-- Node1&#45;&gt;Node4 -->
<g id="edge3" class="edge">
<title>Node1&#45;&gt;Node4</title>
<path fill="none" stroke="midnightblue" d="M966.69,-191.05C946.55,-211.63 914.9,-242.16 884,-264.5 866.74,-276.98 845.91,-288.63 829.01,-297.33"/>
<polygon fill="midnightblue" stroke="midnightblue" points="969.38,-193.3 973.82,-183.68 964.35,-188.43 969.38,-193.3"/>
</g>
<!-- Node6 -->
<g id="node6" class="node">
<title>Node6</title>
<g id="a_node6"><a xlink:href="../../d0/ddc/classBaseSearchProvider.html#a4513cee718647e9f5d01c53124059822" target="_top" xlink:title=" ">
<polygon fill="white" stroke="black" points="743.5,-224.5 743.5,-254.5 849.5,-254.5 849.5,-224.5 743.5,-224.5"/>
<text text-anchor="start" x="751.5" y="-242.5" font-family="Helvetica,sans-Serif" font-size="10.00">BaseSearchProvider</text>
<text text-anchor="middle" x="796.5" y="-231.5" font-family="Helvetica,sans-Serif" font-size="10.00">::CanSendURL</text>
</a>
</g>
</g>
<!-- Node1&#45;&gt;Node6 -->
<g id="edge5" class="edge">
<title>Node1&#45;&gt;Node6</title>
<path fill="none" stroke="midnightblue" d="M948.95,-187.87C929.69,-196.98 905.93,-207.55 884,-215.5 873.01,-219.48 861.04,-223.19 849.6,-226.44"/>
<polygon fill="midnightblue" stroke="midnightblue" points="950.51,-191 958.02,-183.53 947.49,-184.69 950.51,-191"/>
</g>
<!-- Node16 -->
<g id="node16" class="node">
<title>Node16</title>
<g id="a_node16"><a xlink:href="../../dc/dfa/classDocumentProvider.html#a2458b915aab1139d744176825c02fc4f" target="_top" xlink:title=" ">
<polygon fill="white" stroke="black" points="718,-175.5 718,-205.5 875,-205.5 875,-175.5 718,-175.5"/>
<text text-anchor="start" x="726" y="-193.5" font-family="Helvetica,sans-Serif" font-size="10.00">DocumentProvider::IsDocument</text>
<text text-anchor="middle" x="796.5" y="-182.5" font-family="Helvetica,sans-Serif" font-size="10.00">ProviderAllowed</text>
</a>
</g>
</g>
<!-- Node1&#45;&gt;Node16 -->
<g id="edge15" class="edge">
<title>Node1&#45;&gt;Node16</title>
<path fill="none" stroke="midnightblue" d="M909.5,-177.57C898.2,-178.87 886.58,-180.21 875.3,-181.51"/>
<polygon fill="midnightblue" stroke="midnightblue" points="910.23,-181 919.76,-176.38 909.43,-174.05 910.23,-181"/>
</g>
<!-- Node18 -->
<g id="node18" class="node">
<title>Node18</title>
<g id="a_node18"><a xlink:href="../../d4/dee/classSearchProvider.html#a653124bafb14a2271662cc81d572a94d" target="_top" xlink:title=" ">
<polygon fill="white" stroke="black" points="323,-112.5 323,-142.5 482,-142.5 482,-112.5 323,-112.5"/>
<text text-anchor="start" x="331" y="-130.5" font-family="Helvetica,sans-Serif" font-size="10.00">SearchProvider::IsQuerySuitable</text>
<text text-anchor="middle" x="402.5" y="-119.5" font-family="Helvetica,sans-Serif" font-size="10.00">ForSuggest</text>
</a>
</g>
</g>
<!-- Node1&#45;&gt;Node18 -->
<g id="edge17" class="edge">
<title>Node1&#45;&gt;Node18</title>
<path fill="none" stroke="midnightblue" d="M949.14,-149.16C930.03,-140.7 906.35,-131.75 884,-127.5 744.47,-100.99 578.01,-109.74 482.15,-118.58"/>
<polygon fill="midnightblue" stroke="midnightblue" points="947.86,-152.42 958.41,-153.38 950.76,-146.05 947.86,-152.42"/>
</g>
<!-- Node19 -->
<g id="node19" class="node">
<title>Node19</title>
<g id="a_node19"><a xlink:href="../../dc/dfa/classDocumentProvider.html#ab41060dd5676c221e9904cd0fc156149" target="_top" xlink:title=" ">
<polygon fill="white" stroke="black" points="735.5,-137 735.5,-156 857.5,-156 857.5,-137 735.5,-137"/>
<text text-anchor="middle" x="796.5" y="-144" font-family="Helvetica,sans-Serif" font-size="10.00">DocumentProvider::Run</text>
</a>
</g>
</g>
<!-- Node1&#45;&gt;Node19 -->
<g id="edge19" class="edge">
<title>Node1&#45;&gt;Node19</title>
<path fill="none" stroke="midnightblue" d="M909.65,-159.45C892.3,-157.45 874.17,-155.35 857.68,-153.45"/>
<polygon fill="midnightblue" stroke="midnightblue" points="909.43,-162.95 919.76,-160.62 910.23,-156 909.43,-162.95"/>
</g>
<!-- Node20 -->
<g id="node20" class="node">
<title>Node20</title>
<g id="a_node20"><a xlink:href="../../d4/df1/classLocalHistoryZeroSuggestProvider.html#a5b6959a4e9d04cd0087fbef6f9610c70" target="_top" xlink:title=" ">
<polygon fill="white" stroke="black" points="715,-49.5 715,-79.5 878,-79.5 878,-49.5 715,-49.5"/>
<text text-anchor="start" x="723" y="-67.5" font-family="Helvetica,sans-Serif" font-size="10.00">LocalHistoryZeroSuggestProvider</text>
<text text-anchor="middle" x="796.5" y="-56.5" font-family="Helvetica,sans-Serif" font-size="10.00">::Start</text>
</a>
</g>
</g>
<!-- Node1&#45;&gt;Node20 -->
<g id="edge21" class="edge">
<title>Node1&#45;&gt;Node20</title>
<path fill="none" stroke="midnightblue" d="M962.41,-147.14C942.14,-131.02 912.56,-109.23 884,-94.5 872.98,-88.82 860.65,-83.81 848.82,-79.6"/>
<polygon fill="midnightblue" stroke="midnightblue" points="960.26,-149.9 970.24,-153.45 964.65,-144.45 960.26,-149.9"/>
</g>
<!-- Node21 -->
<g id="node21" class="node">
<title>Node21</title>
<g id="a_node21"><a xlink:href="../../d8/d9b/classSuggestionDeletionHandler.html#a54e67e31a64d466ba0416af27e0cc385" target="_top" xlink:title=" ">
<polygon fill="white" stroke="black" points="726,-0.5 726,-30.5 867,-30.5 867,-0.5 726,-0.5"/>
<text text-anchor="start" x="734" y="-18.5" font-family="Helvetica,sans-Serif" font-size="10.00">SuggestionDeletionHandler</text>
<text text-anchor="middle" x="796.5" y="-7.5" font-family="Helvetica,sans-Serif" font-size="10.00">::SuggestionDeletionHandler</text>
</a>
</g>
</g>
<!-- Node1&#45;&gt;Node21 -->
<g id="edge22" class="edge">
<title>Node1&#45;&gt;Node21</title>
<path fill="none" stroke="midnightblue" d="M974.95,-144.44C957.87,-115.25 925.22,-66.59 884,-39.5 878.79,-36.08 873.1,-33.14 867.2,-30.61"/>
<polygon fill="midnightblue" stroke="midnightblue" points="971.94,-146.23 979.93,-153.18 978.02,-142.76 971.94,-146.23"/>
</g>
<!-- Node3 -->
<g id="node3" class="node">
<title>Node3</title>
<g id="a_node3"><a xlink:href="../../dc/d2d/classMostVisitedSitesProvider.html#a4e28e08108b05e54a5ef025abc55ab41" target="_top" xlink:title=" ">
<polygon fill="white" stroke="black" points="532,-371.5 532,-401.5 659,-401.5 659,-371.5 532,-371.5"/>
<text text-anchor="start" x="540" y="-389.5" font-family="Helvetica,sans-Serif" font-size="10.00">MostVisitedSitesProvider</text>
<text text-anchor="middle" x="595.5" y="-378.5" font-family="Helvetica,sans-Serif" font-size="10.00">::Start</text>
</a>
</g>
</g>
<!-- Node2&#45;&gt;Node3 -->
<g id="edge2" class="edge">
<title>Node2&#45;&gt;Node3</title>
<path fill="none" stroke="midnightblue" d="M698.6,-379.83C685.24,-380.7 671.81,-381.58 659.28,-382.4"/>
<polygon fill="midnightblue" stroke="midnightblue" points="699.04,-383.31 708.79,-379.16 698.59,-376.32 699.04,-383.31"/>
</g>
<!-- Node5 -->
<g id="node5" class="node">
<title>Node5</title>
<g id="a_node5"><a xlink:href="../../dc/ddd/classQueryTileProvider.html#ac4fa4e12adaecc8068526fb2202fce21" target="_top" xlink:title=" ">
<polygon fill="white" stroke="black" points="545,-322.5 545,-352.5 646,-352.5 646,-322.5 545,-322.5"/>
<text text-anchor="start" x="553" y="-340.5" font-family="Helvetica,sans-Serif" font-size="10.00">QueryTileProvider::</text>
<text text-anchor="middle" x="595.5" y="-329.5" font-family="Helvetica,sans-Serif" font-size="10.00">Start</text>
</a>
</g>
</g>
<!-- Node4&#45;&gt;Node5 -->
<g id="edge4" class="edge">
<title>Node4&#45;&gt;Node5</title>
<path fill="none" stroke="midnightblue" d="M717.65,-322.28C693.55,-325.31 667.68,-328.56 646.05,-331.28"/>
<polygon fill="midnightblue" stroke="midnightblue" points="718.36,-325.72 727.85,-321 717.49,-318.77 718.36,-325.72"/>
</g>
<!-- Node7 -->
<g id="node7" class="node">
<title>Node7</title>
<g id="a_node7"><a xlink:href="../../d4/dee/classSearchProvider.html#ac6613acbe0b4e879590cdb0d562999c9" target="_top" xlink:title=" ">
<polygon fill="white" stroke="black" points="518,-175.5 518,-205.5 673,-205.5 673,-175.5 518,-175.5"/>
<text text-anchor="start" x="526" y="-193.5" font-family="Helvetica,sans-Serif" font-size="10.00">SearchProvider::CreateSuggest</text>
<text text-anchor="middle" x="595.5" y="-182.5" font-family="Helvetica,sans-Serif" font-size="10.00">Loader</text>
</a>
</g>
</g>
<!-- Node6&#45;&gt;Node7 -->
<g id="edge6" class="edge">
<title>Node6&#45;&gt;Node7</title>
<path fill="none" stroke="midnightblue" d="M733.7,-224.28C709.53,-218.33 681.88,-211.52 657.76,-205.58"/>
<polygon fill="midnightblue" stroke="midnightblue" points="732.93,-227.7 743.48,-226.69 734.6,-220.9 732.93,-227.7"/>
</g>
<!-- Node11 -->
<g id="node11" class="node">
<title>Node11</title>
<g id="a_node11"><a xlink:href="../../d3/dbc/classZeroSuggestProvider.html#a00de72a246322fcd70464d0c4b56a2d5" target="_top" xlink:title=" ">
<polygon fill="white" stroke="black" points="540,-273.5 540,-303.5 651,-303.5 651,-273.5 540,-273.5"/>
<text text-anchor="start" x="548" y="-291.5" font-family="Helvetica,sans-Serif" font-size="10.00">ZeroSuggestProvider</text>
<text text-anchor="middle" x="595.5" y="-280.5" font-family="Helvetica,sans-Serif" font-size="10.00">::TypeOfResultToRun</text>
</a>
</g>
</g>
<!-- Node6&#45;&gt;Node11 -->
<g id="edge10" class="edge">
<title>Node6&#45;&gt;Node11</title>
<path fill="none" stroke="midnightblue" d="M733.57,-254.75C707.14,-261.26 676.56,-268.79 651,-275.08"/>
<polygon fill="midnightblue" stroke="midnightblue" points="734.6,-258.1 743.48,-252.31 732.93,-251.3 734.6,-258.1"/>
</g>
<!-- Node13 -->
<g id="node13" class="node">
<title>Node13</title>
<g id="a_node13"><a xlink:href="../../d3/dbc/classZeroSuggestProvider.html#aee611525cf7f09c7e6b019dacd79410c" target="_top" xlink:title=" ">
<polygon fill="white" stroke="black" points="538.5,-224.5 538.5,-254.5 652.5,-254.5 652.5,-224.5 538.5,-224.5"/>
<text text-anchor="start" x="546.5" y="-242.5" font-family="Helvetica,sans-Serif" font-size="10.00">ZeroSuggestProvider</text>
<text text-anchor="middle" x="595.5" y="-231.5" font-family="Helvetica,sans-Serif" font-size="10.00">::ZeroSuggestProvider</text>
</a>
</g>
</g>
<!-- Node6&#45;&gt;Node13 -->
<g id="edge12" class="edge">
<title>Node6&#45;&gt;Node13</title>
<path fill="none" stroke="midnightblue" d="M733.43,-239.5C707.63,-239.5 677.91,-239.5 652.76,-239.5"/>
<polygon fill="midnightblue" stroke="midnightblue" points="733.48,-243 743.48,-239.5 733.47,-236 733.48,-243"/>
</g>
<!-- Node8 -->
<g id="node8" class="node">
<title>Node8</title>
<g id="a_node8"><a xlink:href="../../d4/dee/classSearchProvider.html#a02c8b00f5d4da0ce7e5de29658483914" target="_top" xlink:title=" ">
<polygon fill="white" stroke="black" points="349,-181 349,-200 456,-200 456,-181 349,-181"/>
<text text-anchor="middle" x="402.5" y="-188" font-family="Helvetica,sans-Serif" font-size="10.00">SearchProvider::Run</text>
</a>
</g>
</g>
<!-- Node7&#45;&gt;Node8 -->
<g id="edge7" class="edge">
<title>Node7&#45;&gt;Node8</title>
<path fill="none" stroke="midnightblue" d="M507.62,-190.5C490.02,-190.5 472.02,-190.5 456.05,-190.5"/>
<polygon fill="midnightblue" stroke="midnightblue" points="507.91,-194 517.91,-190.5 507.91,-187 507.91,-194"/>
</g>
<!-- Node9 -->
<g id="node9" class="node">
<title>Node9</title>
<g id="a_node9"><a xlink:href="../../d4/dee/classSearchProvider.html#af0c60cb234c815b05521a08434e7dcdc" target="_top" xlink:title=" ">
<polygon fill="white" stroke="black" points="146,-144.5 146,-174.5 287,-174.5 287,-144.5 146,-144.5"/>
<text text-anchor="start" x="154" y="-162.5" font-family="Helvetica,sans-Serif" font-size="10.00">SearchProvider::StartOrStop</text>
<text text-anchor="middle" x="216.5" y="-151.5" font-family="Helvetica,sans-Serif" font-size="10.00">SuggestQuery</text>
</a>
</g>
</g>
<!-- Node8&#45;&gt;Node9 -->
<g id="edge8" class="edge">
<title>Node8&#45;&gt;Node9</title>
<path fill="none" stroke="midnightblue" d="M338.63,-179.91C322.02,-177.11 304,-174.07 287.06,-171.22"/>
<polygon fill="midnightblue" stroke="midnightblue" points="338.33,-183.41 348.77,-181.62 339.49,-176.5 338.33,-183.41"/>
</g>
<!-- Node10 -->
<g id="node10" class="node">
<title>Node10</title>
<g id="a_node10"><a xlink:href="../../d4/dee/classSearchProvider.html#a9e8f7e367904d424ac875e501844e830" target="_top" xlink:title=" ">
<polygon fill="white" stroke="black" points="0,-150 0,-169 110,-169 110,-150 0,-150"/>
<text text-anchor="middle" x="55" y="-157" font-family="Helvetica,sans-Serif" font-size="10.00">SearchProvider::Start</text>
</a>
</g>
</g>
<!-- Node9&#45;&gt;Node10 -->
<g id="edge9" class="edge">
<title>Node9&#45;&gt;Node10</title>
<path fill="none" stroke="midnightblue" d="M135.47,-159.5C126.87,-159.5 118.27,-159.5 110.08,-159.5"/>
<polygon fill="midnightblue" stroke="midnightblue" points="135.54,-163 145.54,-159.5 135.54,-156 135.54,-163"/>
</g>
<!-- Node12 -->
<g id="node12" class="node">
<title>Node12</title>
<g id="a_node12"><a xlink:href="../../d3/dbc/classZeroSuggestProvider.html#ac0afcbd72684c1a1478301c21b3ff486" target="_top" xlink:title=" ">
<polygon fill="white" stroke="black" points="348.5,-273.5 348.5,-303.5 456.5,-303.5 456.5,-273.5 348.5,-273.5"/>
<text text-anchor="start" x="356.5" y="-291.5" font-family="Helvetica,sans-Serif" font-size="10.00">ZeroSuggestProvider</text>
<text text-anchor="middle" x="402.5" y="-280.5" font-family="Helvetica,sans-Serif" font-size="10.00">::Start</text>
</a>
</g>
</g>
<!-- Node11&#45;&gt;Node12 -->
<g id="edge11" class="edge">
<title>Node11&#45;&gt;Node12</title>
<path fill="none" stroke="midnightblue" d="M529.76,-288.5C505.94,-288.5 479.27,-288.5 456.59,-288.5"/>
<polygon fill="midnightblue" stroke="midnightblue" points="529.77,-292 539.77,-288.5 529.77,-285 529.77,-292"/>
</g>
<!-- Node14 -->
<g id="node14" class="node">
<title>Node14</title>
<g id="a_node14"><a xlink:href="../../d3/dbc/classZeroSuggestProvider.html#a0dd2ed2b81d093bbb97a2e5f6049371f" target="_top" xlink:title=" ">
<polygon fill="white" stroke="black" points="348.5,-224.5 348.5,-254.5 456.5,-254.5 456.5,-224.5 348.5,-224.5"/>
<text text-anchor="start" x="356.5" y="-242.5" font-family="Helvetica,sans-Serif" font-size="10.00">ZeroSuggestProvider</text>
<text text-anchor="middle" x="402.5" y="-231.5" font-family="Helvetica,sans-Serif" font-size="10.00">::Create</text>
</a>
</g>
</g>
<!-- Node13&#45;&gt;Node14 -->
<g id="edge13" class="edge">
<title>Node13&#45;&gt;Node14</title>
<path fill="none" stroke="midnightblue" d="M528.27,-239.5C504.82,-239.5 478.77,-239.5 456.56,-239.5"/>
<polygon fill="midnightblue" stroke="midnightblue" points="528.48,-243 538.48,-239.5 528.48,-236 528.48,-243"/>
</g>
<!-- Node15 -->
<g id="node15" class="node">
<title>Node15</title>
<g id="a_node15"><a xlink:href="../../df/d4d/classAutocompleteController.html#af85f887b2fe95261e148e7695272fc52" target="_top" xlink:title=" ">
<polygon fill="white" stroke="black" points="154,-224.5 154,-254.5 279,-254.5 279,-224.5 154,-224.5"/>
<text text-anchor="start" x="162" y="-242.5" font-family="Helvetica,sans-Serif" font-size="10.00">AutocompleteController</text>
<text text-anchor="middle" x="216.5" y="-231.5" font-family="Helvetica,sans-Serif" font-size="10.00">::AutocompleteController</text>
</a>
</g>
</g>
<!-- Node14&#45;&gt;Node15 -->
<g id="edge14" class="edge">
<title>Node14&#45;&gt;Node15</title>
<path fill="none" stroke="midnightblue" d="M338.16,-239.5C319.03,-239.5 298.05,-239.5 279.03,-239.5"/>
<polygon fill="midnightblue" stroke="midnightblue" points="338.28,-243 348.28,-239.5 338.28,-236 338.28,-243"/>
</g>
<!-- Node17 -->
<g id="node17" class="node">
<title>Node17</title>
<g id="a_node17"><a xlink:href="../../dc/dfa/classDocumentProvider.html#a8b72b3391cd4d228b531f63938023a08" target="_top" xlink:title=" ">
<polygon fill="white" stroke="black" points="533,-137 533,-156 658,-156 658,-137 533,-137"/>
<text text-anchor="middle" x="595.5" y="-144" font-family="Helvetica,sans-Serif" font-size="10.00">DocumentProvider::Start</text>
</a>
</g>
</g>
<!-- Node16&#45;&gt;Node17 -->
<g id="edge16" class="edge">
<title>Node16&#45;&gt;Node17</title>
<path fill="none" stroke="midnightblue" d="M717.52,-173.26C690.98,-167.39 662.3,-161.05 639.52,-156.01"/>
<polygon fill="midnightblue" stroke="midnightblue" points="717.05,-176.74 727.57,-175.48 718.56,-169.9 717.05,-176.74"/>
</g>
<!-- Node18&#45;&gt;Node9 -->
<g id="edge18" class="edge">
<title>Node18&#45;&gt;Node9</title>
<path fill="none" stroke="midnightblue" d="M312.82,-142.92C304.18,-144.42 295.5,-145.93 287.09,-147.4"/>
<polygon fill="midnightblue" stroke="midnightblue" points="313.68,-146.33 322.93,-141.16 312.48,-139.43 313.68,-146.33"/>
</g>
<!-- Node19&#45;&gt;Node17 -->
<g id="edge20" class="edge">
<title>Node19&#45;&gt;Node17</title>
<path fill="none" stroke="midnightblue" d="M725.07,-146.5C703.27,-146.5 679.43,-146.5 658.26,-146.5"/>
<polygon fill="midnightblue" stroke="midnightblue" points="725.25,-150 735.25,-146.5 725.25,-143 725.25,-150"/>
</g>
<!-- Node22 -->
<g id="node22" class="node">
<title>Node22</title>
<g id="a_node22"><a xlink:href="../../d0/ddc/classBaseSearchProvider.html#aa57edab8d744eb987101cdcdad47b243" target="_top" xlink:title=" ">
<polygon fill="white" stroke="black" points="542.5,-0.5 542.5,-30.5 648.5,-30.5 648.5,-0.5 542.5,-0.5"/>
<text text-anchor="start" x="550.5" y="-18.5" font-family="Helvetica,sans-Serif" font-size="10.00">BaseSearchProvider</text>
<text text-anchor="middle" x="595.5" y="-7.5" font-family="Helvetica,sans-Serif" font-size="10.00">::DeleteMatch</text>
</a>
</g>
</g>
<!-- Node21&#45;&gt;Node22 -->
<g id="edge23" class="edge">
<title>Node21&#45;&gt;Node22</title>
<path fill="none" stroke="midnightblue" d="M715.67,-15.5C693.16,-15.5 669.26,-15.5 648.81,-15.5"/>
<polygon fill="midnightblue" stroke="midnightblue" points="715.9,-19 725.9,-15.5 715.9,-12 715.9,-19"/>
</g>
<!-- Node23 -->
<g id="node23" class="node">
<title>Node23</title>
<g id="a_node23"><a xlink:href="../../d3/dbc/classZeroSuggestProvider.html#a473e7ad1caeff347c1c3b21b6b424b6d" target="_top" xlink:title=" ">
<polygon fill="white" stroke="black" points="348.5,-0.5 348.5,-30.5 456.5,-30.5 456.5,-0.5 348.5,-0.5"/>
<text text-anchor="start" x="356.5" y="-18.5" font-family="Helvetica,sans-Serif" font-size="10.00">ZeroSuggestProvider</text>
<text text-anchor="middle" x="402.5" y="-7.5" font-family="Helvetica,sans-Serif" font-size="10.00">::DeleteMatch</text>
</a>
</g>
</g>
<!-- Node22&#45;&gt;Node23 -->
<g id="edge24" class="edge">
<title>Node22&#45;&gt;Node23</title>
<path fill="none" stroke="midnightblue" d="M532.08,-15.5C507.7,-15.5 480.03,-15.5 456.62,-15.5"/>
<polygon fill="midnightblue" stroke="midnightblue" points="532.31,-19 542.31,-15.5 532.31,-12 532.31,-19"/>
</g>
</g>
</svg>
