<?xml version="1.0" encoding="UTF-8" standalone="no"?>
<!DOCTYPE svg PUBLIC "-//W3C//DTD SVG 1.1//EN"
 "http://www.w3.org/Graphics/SVG/1.1/DTD/svg11.dtd">
<!-- Generated by graphviz version 2.43.0 (0)
 -->
<!-- Title: components/omnibox/browser/omnibox_log.h Pages: 1 -->
<svg width="1618pt" height="585pt"
 viewBox="0.00 0.00 1618.00 585.00" xmlns="http://www.w3.org/2000/svg" xmlns:xlink="http://www.w3.org/1999/xlink">
<g id="graph0" class="graph" transform="scale(1 1) rotate(0) translate(4 581)">
<title>components/omnibox/browser/omnibox_log.h</title>
<polygon fill="white" stroke="transparent" points="-4,4 -4,-581 1614,-581 1614,4 -4,4"/>
<!-- Node1 -->
<g id="node1" class="node">
<title>Node1</title>
<g id="a_node1"><a xlink:title=" ">
<polygon fill="#bfbfbf" stroke="black" points="1292.5,-546.5 1292.5,-576.5 1412.5,-576.5 1412.5,-546.5 1292.5,-546.5"/>
<text text-anchor="start" x="1300.5" y="-564.5" font-family="Helvetica,sans-Serif" font-size="10.00">components/omnibox</text>
<text text-anchor="middle" x="1352.5" y="-553.5" font-family="Helvetica,sans-Serif" font-size="10.00">/browser/omnibox_log.h</text>
</a>
</g>
</g>
<!-- Node2 -->
<g id="node2" class="node">
<title>Node2</title>
<g id="a_node2"><a xlink:href="../../d0/dca/autocomplete__controller_8h.html" target="_top" xlink:title=" ">
<polygon fill="white" stroke="black" points="624.5,-468.5 624.5,-509.5 740.5,-509.5 740.5,-468.5 624.5,-468.5"/>
<text text-anchor="start" x="632.5" y="-497.5" font-family="Helvetica,sans-Serif" font-size="10.00">components/omnibox</text>
<text text-anchor="start" x="632.5" y="-486.5" font-family="Helvetica,sans-Serif" font-size="10.00">/browser/autocomplete</text>
<text text-anchor="middle" x="682.5" y="-475.5" font-family="Helvetica,sans-Serif" font-size="10.00">_controller.h</text>
</a>
</g>
</g>
<!-- Node1&#45;&gt;Node2 -->
<g id="edge1" class="edge">
<title>Node1&#45;&gt;Node2</title>
<path fill="none" stroke="midnightblue" d="M1282.39,-553.12C1149.61,-539.15 863.75,-509.07 740.74,-496.13"/>
<polygon fill="midnightblue" stroke="midnightblue" points="1282.14,-556.62 1292.45,-554.18 1282.87,-549.65 1282.14,-556.62"/>
</g>
<!-- Node8 -->
<g id="node8" class="node">
<title>Node8</title>
<g id="a_node8"><a xlink:href="../../d7/df6/omnibox__edit__model_8cc.html" target="_top" xlink:title=" ">
<polygon fill="white" stroke="black" points="1373,-156.5 1373,-197.5 1488,-197.5 1488,-156.5 1373,-156.5"/>
<text text-anchor="start" x="1381" y="-185.5" font-family="Helvetica,sans-Serif" font-size="10.00">components/omnibox</text>
<text text-anchor="start" x="1381" y="-174.5" font-family="Helvetica,sans-Serif" font-size="10.00">/browser/omnibox_edit</text>
<text text-anchor="middle" x="1430.5" y="-163.5" font-family="Helvetica,sans-Serif" font-size="10.00">_model.cc</text>
</a>
</g>
</g>
<!-- Node1&#45;&gt;Node8 -->
<g id="edge44" class="edge">
<title>Node1&#45;&gt;Node8</title>
<path fill="none" stroke="midnightblue" d="M1339.53,-537.47C1335.21,-529.04 1330.68,-519.28 1327.5,-510 1313.07,-467.95 1307.5,-456.45 1307.5,-412 1307.5,-412 1307.5,-412 1307.5,-332 1307.5,-272.98 1363.35,-223.57 1399.78,-197.62"/>
<polygon fill="midnightblue" stroke="midnightblue" points="1336.47,-539.16 1344.25,-546.34 1342.65,-535.87 1336.47,-539.16"/>
</g>
<!-- Node27 -->
<g id="node27" class="node">
<title>Node27</title>
<g id="a_node27"><a xlink:href="../../d4/dd5/omnibox__log_8cc.html" target="_top" xlink:title=" ">
<polygon fill="white" stroke="black" points="1336,-474 1336,-504 1461,-504 1461,-474 1336,-474"/>
<text text-anchor="start" x="1344" y="-492" font-family="Helvetica,sans-Serif" font-size="10.00">components/omnibox</text>
<text text-anchor="middle" x="1398.5" y="-481" font-family="Helvetica,sans-Serif" font-size="10.00">/browser/omnibox_log.cc</text>
</a>
</g>
</g>
<!-- Node1&#45;&gt;Node27 -->
<g id="edge45" class="edge">
<title>Node1&#45;&gt;Node27</title>
<path fill="none" stroke="midnightblue" d="M1367.47,-537.56C1374.63,-526.59 1382.97,-513.8 1389.21,-504.25"/>
<polygon fill="midnightblue" stroke="midnightblue" points="1364.34,-535.95 1361.81,-546.23 1370.2,-539.77 1364.34,-535.95"/>
</g>
<!-- Node28 -->
<g id="node28" class="node">
<title>Node28</title>
<g id="a_node28"><a xlink:href="../../d3/d06/omnibox__metrics__provider_8cc.html" target="_top" xlink:title=" ">
<polygon fill="white" stroke="black" points="1479,-468.5 1479,-509.5 1610,-509.5 1610,-468.5 1479,-468.5"/>
<text text-anchor="start" x="1487" y="-497.5" font-family="Helvetica,sans-Serif" font-size="10.00">components/omnibox</text>
<text text-anchor="start" x="1487" y="-486.5" font-family="Helvetica,sans-Serif" font-size="10.00">/browser/omnibox_metrics</text>
<text text-anchor="middle" x="1544.5" y="-475.5" font-family="Helvetica,sans-Serif" font-size="10.00">_provider.cc</text>
</a>
</g>
</g>
<!-- Node1&#45;&gt;Node28 -->
<g id="edge46" class="edge">
<title>Node1&#45;&gt;Node28</title>
<path fill="none" stroke="midnightblue" d="M1400.34,-542.93C1427.97,-532.79 1462.78,-520.01 1491.27,-509.55"/>
<polygon fill="midnightblue" stroke="midnightblue" points="1399.07,-539.67 1390.89,-546.4 1401.49,-546.24 1399.07,-539.67"/>
</g>
<!-- Node3 -->
<g id="node3" class="node">
<title>Node3</title>
<g id="a_node3"><a xlink:href="../../d6/de8/autocomplete__classifier_8cc.html" target="_top" xlink:title=" ">
<polygon fill="white" stroke="black" points="490.5,-390.5 490.5,-431.5 606.5,-431.5 606.5,-390.5 490.5,-390.5"/>
<text text-anchor="start" x="498.5" y="-419.5" font-family="Helvetica,sans-Serif" font-size="10.00">components/omnibox</text>
<text text-anchor="start" x="498.5" y="-408.5" font-family="Helvetica,sans-Serif" font-size="10.00">/browser/autocomplete</text>
<text text-anchor="middle" x="548.5" y="-397.5" font-family="Helvetica,sans-Serif" font-size="10.00">_classifier.cc</text>
</a>
</g>
</g>
<!-- Node2&#45;&gt;Node3 -->
<g id="edge2" class="edge">
<title>Node2&#45;&gt;Node3</title>
<path fill="none" stroke="midnightblue" d="M639.28,-463.49C621.02,-453.13 600.07,-441.25 582.89,-431.51"/>
<polygon fill="midnightblue" stroke="midnightblue" points="637.57,-466.54 647.99,-468.43 641.02,-460.45 637.57,-466.54"/>
</g>
<!-- Node4 -->
<g id="node4" class="node">
<title>Node4</title>
<g id="a_node4"><a xlink:href="../../d8/d40/autocomplete__controller_8cc.html" target="_top" xlink:title=" ">
<polygon fill="white" stroke="black" points="624.5,-390.5 624.5,-431.5 740.5,-431.5 740.5,-390.5 624.5,-390.5"/>
<text text-anchor="start" x="632.5" y="-419.5" font-family="Helvetica,sans-Serif" font-size="10.00">components/omnibox</text>
<text text-anchor="start" x="632.5" y="-408.5" font-family="Helvetica,sans-Serif" font-size="10.00">/browser/autocomplete</text>
<text text-anchor="middle" x="682.5" y="-397.5" font-family="Helvetica,sans-Serif" font-size="10.00">_controller.cc</text>
</a>
</g>
</g>
<!-- Node2&#45;&gt;Node4 -->
<g id="edge3" class="edge">
<title>Node2&#45;&gt;Node4</title>
<path fill="none" stroke="midnightblue" d="M682.5,-458.3C682.5,-449.3 682.5,-439.65 682.5,-431.51"/>
<polygon fill="midnightblue" stroke="midnightblue" points="679,-458.43 682.5,-468.43 686,-458.43 679,-458.43"/>
</g>
<!-- Node5 -->
<g id="node5" class="node">
<title>Node5</title>
<g id="a_node5"><a xlink:href="../../d4/dcc/omnibox__controller_8h.html" target="_top" xlink:title=" ">
<polygon fill="white" stroke="black" points="326.5,-396 326.5,-426 472.5,-426 472.5,-396 326.5,-396"/>
<text text-anchor="start" x="334.5" y="-414" font-family="Helvetica,sans-Serif" font-size="10.00">components/omnibox</text>
<text text-anchor="middle" x="399.5" y="-403" font-family="Helvetica,sans-Serif" font-size="10.00">/browser/omnibox_controller.h</text>
</a>
</g>
</g>
<!-- Node2&#45;&gt;Node5 -->
<g id="edge4" class="edge">
<title>Node2&#45;&gt;Node5</title>
<path fill="none" stroke="midnightblue" d="M614.46,-469.73C564.57,-456.33 497.81,-438.4 452,-426.1"/>
<polygon fill="midnightblue" stroke="midnightblue" points="613.64,-473.13 624.21,-472.34 615.46,-466.37 613.64,-473.13"/>
</g>
<!-- Node7 -->
<g id="node7" class="node">
<title>Node7</title>
<g id="a_node7"><a xlink:href="../../d9/d1b/omnibox__edit__model_8h.html" target="_top" xlink:title=" ">
<polygon fill="white" stroke="black" points="587,-312.5 587,-353.5 702,-353.5 702,-312.5 587,-312.5"/>
<text text-anchor="start" x="595" y="-341.5" font-family="Helvetica,sans-Serif" font-size="10.00">components/omnibox</text>
<text text-anchor="start" x="595" y="-330.5" font-family="Helvetica,sans-Serif" font-size="10.00">/browser/omnibox_edit</text>
<text text-anchor="middle" x="644.5" y="-319.5" font-family="Helvetica,sans-Serif" font-size="10.00">_model.h</text>
</a>
</g>
</g>
<!-- Node2&#45;&gt;Node7 -->
<g id="edge42" class="edge">
<title>Node2&#45;&gt;Node7</title>
<path fill="none" stroke="midnightblue" d="M724.86,-462.11C734.78,-453.82 744.03,-443.7 749.5,-432 757.41,-415.09 759.1,-406.01 749.5,-390 738.87,-372.28 720.52,-359.86 702.11,-351.31"/>
<polygon fill="midnightblue" stroke="midnightblue" points="722.58,-459.46 716.84,-468.36 726.88,-464.98 722.58,-459.46"/>
</g>
<!-- Node9 -->
<g id="node9" class="node">
<title>Node9</title>
<g id="a_node9"><a xlink:href="../../d2/d1a/omnibox__popup__model_8h.html" target="_top" xlink:title=" ">
<polygon fill="white" stroke="black" points="748,-234.5 748,-275.5 873,-275.5 873,-234.5 748,-234.5"/>
<text text-anchor="start" x="756" y="-263.5" font-family="Helvetica,sans-Serif" font-size="10.00">components/omnibox</text>
<text text-anchor="start" x="756" y="-252.5" font-family="Helvetica,sans-Serif" font-size="10.00">/browser/omnibox_popup</text>
<text text-anchor="middle" x="810.5" y="-241.5" font-family="Helvetica,sans-Serif" font-size="10.00">_model.h</text>
</a>
</g>
</g>
<!-- Node2&#45;&gt;Node9 -->
<g id="edge43" class="edge">
<title>Node2&#45;&gt;Node9</title>
<path fill="none" stroke="midnightblue" d="M732.89,-463.05C745.45,-454.71 757.8,-444.34 766.5,-432 800.88,-383.21 808.47,-310.21 810.1,-275.58"/>
<polygon fill="midnightblue" stroke="midnightblue" points="730.81,-460.22 724.2,-468.49 734.53,-466.15 730.81,-460.22"/>
</g>
<!-- Node24 -->
<g id="node24" class="node">
<title>Node24</title>
<g id="a_node24"><a xlink:href="../../d8/d49/omnibox__controller__emitter_8h.html" target="_top" xlink:title=" ">
<polygon fill="white" stroke="black" points="165,-390.5 165,-431.5 304,-431.5 304,-390.5 165,-390.5"/>
<text text-anchor="start" x="173" y="-419.5" font-family="Helvetica,sans-Serif" font-size="10.00">components/omnibox</text>
<text text-anchor="start" x="173" y="-408.5" font-family="Helvetica,sans-Serif" font-size="10.00">/browser/omnibox_controller</text>
<text text-anchor="middle" x="234.5" y="-397.5" font-family="Helvetica,sans-Serif" font-size="10.00">_emitter.h</text>
</a>
</g>
</g>
<!-- Node2&#45;&gt;Node24 -->
<g id="edge38" class="edge">
<title>Node2&#45;&gt;Node24</title>
<path fill="none" stroke="midnightblue" d="M614.34,-479.29C540.79,-469.48 420.38,-452.25 317.5,-432 313.14,-431.14 308.66,-430.21 304.15,-429.23"/>
<polygon fill="midnightblue" stroke="midnightblue" points="614.02,-482.78 624.4,-480.62 614.94,-475.84 614.02,-482.78"/>
</g>
<!-- Node6 -->
<g id="node6" class="node">
<title>Node6</title>
<g id="a_node6"><a xlink:href="../../dd/d1e/omnibox__controller_8cc.html" target="_top" xlink:title=" ">
<polygon fill="white" stroke="black" points="264.5,-162 264.5,-192 416.5,-192 416.5,-162 264.5,-162"/>
<text text-anchor="start" x="272.5" y="-180" font-family="Helvetica,sans-Serif" font-size="10.00">components/omnibox</text>
<text text-anchor="middle" x="340.5" y="-169" font-family="Helvetica,sans-Serif" font-size="10.00">/browser/omnibox_controller.cc</text>
</a>
</g>
</g>
<!-- Node5&#45;&gt;Node6 -->
<g id="edge5" class="edge">
<title>Node5&#45;&gt;Node6</title>
<path fill="none" stroke="midnightblue" d="M393.39,-385.98C381.15,-337.85 353.96,-230.91 344.13,-192.27"/>
<polygon fill="midnightblue" stroke="midnightblue" points="390.04,-387.01 395.9,-395.84 396.83,-385.28 390.04,-387.01"/>
</g>
<!-- Node5&#45;&gt;Node7 -->
<g id="edge6" class="edge">
<title>Node5&#45;&gt;Node7</title>
<path fill="none" stroke="midnightblue" d="M454.41,-392.97C493.73,-380.77 546.57,-364.38 586.56,-351.97"/>
<polygon fill="midnightblue" stroke="midnightblue" points="453.24,-389.67 444.72,-395.97 455.31,-396.35 453.24,-389.67"/>
</g>
<!-- Node7&#45;&gt;Node6 -->
<g id="edge7" class="edge">
<title>Node7&#45;&gt;Node6</title>
<path fill="none" stroke="midnightblue" d="M576.42,-326.72C529.02,-320.4 466.04,-306.52 418.5,-276 385.01,-254.5 359.54,-213.66 347.74,-192.12"/>
<polygon fill="midnightblue" stroke="midnightblue" points="576.23,-330.23 586.59,-328 577.1,-323.28 576.23,-330.23"/>
</g>
<!-- Node7&#45;&gt;Node8 -->
<g id="edge8" class="edge">
<title>Node7&#45;&gt;Node8</title>
<path fill="none" stroke="midnightblue" d="M712.43,-321.92C840.77,-302.31 1127.26,-255.83 1364.5,-198 1367.18,-197.35 1369.9,-196.65 1372.65,-195.92"/>
<polygon fill="midnightblue" stroke="midnightblue" points="711.72,-318.49 702.36,-323.45 712.77,-325.41 711.72,-318.49"/>
</g>
<!-- Node7&#45;&gt;Node9 -->
<g id="edge9" class="edge">
<title>Node7&#45;&gt;Node9</title>
<path fill="none" stroke="midnightblue" d="M696.51,-308.19C719.47,-297.67 746.13,-285.47 767.9,-275.51"/>
<polygon fill="midnightblue" stroke="midnightblue" points="694.88,-305.08 687.25,-312.43 697.8,-311.45 694.88,-305.08"/>
</g>
<!-- Node16 -->
<g id="node16" class="node">
<title>Node16</title>
<g id="a_node16"><a xlink:href="../../de/d2f/omnibox__suggestion__button__row__view_8cc.html" target="_top" xlink:title=" ">
<polygon fill="white" stroke="black" points="472,-78.5 472,-119.5 621,-119.5 621,-78.5 472,-78.5"/>
<text text-anchor="start" x="480" y="-107.5" font-family="Helvetica,sans-Serif" font-size="10.00">chrome/browser/ui/views</text>
<text text-anchor="start" x="480" y="-96.5" font-family="Helvetica,sans-Serif" font-size="10.00">/omnibox/omnibox_suggestion</text>
<text text-anchor="middle" x="546.5" y="-85.5" font-family="Helvetica,sans-Serif" font-size="10.00">_button_row_view.cc</text>
</a>
</g>
</g>
<!-- Node7&#45;&gt;Node16 -->
<g id="edge36" class="edge">
<title>Node7&#45;&gt;Node16</title>
<path fill="none" stroke="midnightblue" d="M625.73,-303.87C611.22,-283.24 589.87,-255.25 567.5,-234 547.38,-214.89 529.26,-222.63 516.5,-198 503.24,-172.41 518.77,-139.96 531.97,-119.58"/>
<polygon fill="midnightblue" stroke="midnightblue" points="622.95,-305.99 631.52,-312.21 628.7,-302 622.95,-305.99"/>
</g>
<!-- Node17 -->
<g id="node17" class="node">
<title>Node17</title>
<g id="a_node17"><a xlink:href="../../d8/d7a/omnibox__view__views_8cc.html" target="_top" xlink:title=" ">
<polygon fill="white" stroke="black" points="677,-78.5 677,-119.5 802,-119.5 802,-78.5 677,-78.5"/>
<text text-anchor="start" x="685" y="-107.5" font-family="Helvetica,sans-Serif" font-size="10.00">chrome/browser/ui/views</text>
<text text-anchor="start" x="685" y="-96.5" font-family="Helvetica,sans-Serif" font-size="10.00">/omnibox/omnibox_view</text>
<text text-anchor="middle" x="739.5" y="-85.5" font-family="Helvetica,sans-Serif" font-size="10.00">_views.cc</text>
</a>
</g>
</g>
<!-- Node7&#45;&gt;Node17 -->
<g id="edge37" class="edge">
<title>Node7&#45;&gt;Node17</title>
<path fill="none" stroke="midnightblue" d="M656.49,-302.72C676.14,-254.73 714.68,-160.61 731.42,-119.73"/>
<polygon fill="midnightblue" stroke="midnightblue" points="653.15,-301.64 652.6,-312.22 659.63,-304.29 653.15,-301.64"/>
</g>
<!-- Node23 -->
<g id="node23" class="node">
<title>Node23</title>
<g id="a_node23"><a xlink:href="../../d0/d6c/omnibox__view_8cc.html" target="_top" xlink:title=" ">
<polygon fill="white" stroke="black" points="427,-240 427,-270 558,-270 558,-240 427,-240"/>
<text text-anchor="start" x="435" y="-258" font-family="Helvetica,sans-Serif" font-size="10.00">components/omnibox</text>
<text text-anchor="middle" x="492.5" y="-247" font-family="Helvetica,sans-Serif" font-size="10.00">/browser/omnibox_view.cc</text>
</a>
</g>
</g>
<!-- Node7&#45;&gt;Node23 -->
<g id="edge35" class="edge">
<title>Node7&#45;&gt;Node23</title>
<path fill="none" stroke="midnightblue" d="M596.11,-307.81C571.35,-295.43 542.06,-280.78 520.95,-270.23"/>
<polygon fill="midnightblue" stroke="midnightblue" points="594.85,-311.09 605.36,-312.43 597.98,-304.83 594.85,-311.09"/>
</g>
<!-- Node9&#45;&gt;Node6 -->
<g id="edge11" class="edge">
<title>Node9&#45;&gt;Node6</title>
<path fill="none" stroke="midnightblue" d="M737.7,-244.86C661.02,-234.87 536.88,-217.63 430.5,-198 420.9,-196.23 410.76,-194.17 400.89,-192.05"/>
<polygon fill="midnightblue" stroke="midnightblue" points="737.37,-248.35 747.74,-246.17 738.27,-241.41 737.37,-248.35"/>
</g>
<!-- Node9&#45;&gt;Node8 -->
<g id="edge12" class="edge">
<title>Node9&#45;&gt;Node8</title>
<path fill="none" stroke="midnightblue" d="M883.4,-251.13C989.98,-245.91 1194.16,-232.09 1364.5,-198 1367.2,-197.46 1369.95,-196.86 1372.71,-196.2"/>
<polygon fill="midnightblue" stroke="midnightblue" points="883.22,-247.63 873.4,-251.6 883.55,-254.62 883.22,-247.63"/>
</g>
<!-- Node10 -->
<g id="node10" class="node">
<title>Node10</title>
<g id="a_node10"><a xlink:href="../../df/d95/autocomplete__match__type_8cc.html" target="_top" xlink:title=" ">
<polygon fill="white" stroke="black" points="1095.5,-156.5 1095.5,-197.5 1211.5,-197.5 1211.5,-156.5 1095.5,-156.5"/>
<text text-anchor="start" x="1103.5" y="-185.5" font-family="Helvetica,sans-Serif" font-size="10.00">components/omnibox</text>
<text text-anchor="start" x="1103.5" y="-174.5" font-family="Helvetica,sans-Serif" font-size="10.00">/browser/autocomplete</text>
<text text-anchor="middle" x="1153.5" y="-163.5" font-family="Helvetica,sans-Serif" font-size="10.00">_match_type.cc</text>
</a>
</g>
</g>
<!-- Node9&#45;&gt;Node10 -->
<g id="edge10" class="edge">
<title>Node9&#45;&gt;Node10</title>
<path fill="none" stroke="midnightblue" d="M883.15,-240.36C937.89,-229.76 1014.68,-214.16 1081.5,-198 1086.04,-196.9 1090.73,-195.72 1095.43,-194.49"/>
<polygon fill="midnightblue" stroke="midnightblue" points="882.35,-236.95 873.2,-242.28 883.68,-243.83 882.35,-236.95"/>
</g>
<!-- Node11 -->
<g id="node11" class="node">
<title>Node11</title>
<g id="a_node11"><a xlink:href="../../d3/de0/omnibox__popup__model_8cc.html" target="_top" xlink:title=" ">
<polygon fill="white" stroke="black" points="1230,-156.5 1230,-197.5 1355,-197.5 1355,-156.5 1230,-156.5"/>
<text text-anchor="start" x="1238" y="-185.5" font-family="Helvetica,sans-Serif" font-size="10.00">components/omnibox</text>
<text text-anchor="start" x="1238" y="-174.5" font-family="Helvetica,sans-Serif" font-size="10.00">/browser/omnibox_popup</text>
<text text-anchor="middle" x="1292.5" y="-163.5" font-family="Helvetica,sans-Serif" font-size="10.00">_model.cc</text>
</a>
</g>
</g>
<!-- Node9&#45;&gt;Node11 -->
<g id="edge13" class="edge">
<title>Node9&#45;&gt;Node11</title>
<path fill="none" stroke="midnightblue" d="M883.12,-247.08C965.46,-238.54 1103.48,-222.13 1220.5,-198 1223.55,-197.37 1226.66,-196.68 1229.79,-195.96"/>
<polygon fill="midnightblue" stroke="midnightblue" points="882.7,-243.61 873.11,-248.11 883.42,-250.57 882.7,-243.61"/>
</g>
<!-- Node12 -->
<g id="node12" class="node">
<title>Node12</title>
<g id="a_node12"><a xlink:href="../../d4/d25/omnibox__popup__contents__view_8h.html" target="_top" xlink:title=" ">
<polygon fill="white" stroke="black" points="767.5,-156.5 767.5,-197.5 895.5,-197.5 895.5,-156.5 767.5,-156.5"/>
<text text-anchor="start" x="775.5" y="-185.5" font-family="Helvetica,sans-Serif" font-size="10.00">chrome/browser/ui/views</text>
<text text-anchor="start" x="775.5" y="-174.5" font-family="Helvetica,sans-Serif" font-size="10.00">/omnibox/omnibox_popup</text>
<text text-anchor="middle" x="831.5" y="-163.5" font-family="Helvetica,sans-Serif" font-size="10.00">_contents_view.h</text>
</a>
</g>
</g>
<!-- Node9&#45;&gt;Node12 -->
<g id="edge14" class="edge">
<title>Node9&#45;&gt;Node12</title>
<path fill="none" stroke="midnightblue" d="M818.63,-224.59C821.14,-215.51 823.83,-205.74 826.11,-197.51"/>
<polygon fill="midnightblue" stroke="midnightblue" points="815.2,-223.86 815.91,-234.43 821.95,-225.72 815.2,-223.86"/>
</g>
<!-- Node15 -->
<g id="node15" class="node">
<title>Node15</title>
<g id="a_node15"><a xlink:href="../../d3/d3f/omnibox__result__view_8cc.html" target="_top" xlink:title=" ">
<polygon fill="white" stroke="black" points="768,-0.5 768,-41.5 893,-41.5 893,-0.5 768,-0.5"/>
<text text-anchor="start" x="776" y="-29.5" font-family="Helvetica,sans-Serif" font-size="10.00">chrome/browser/ui/views</text>
<text text-anchor="start" x="776" y="-18.5" font-family="Helvetica,sans-Serif" font-size="10.00">/omnibox/omnibox_result</text>
<text text-anchor="middle" x="830.5" y="-7.5" font-family="Helvetica,sans-Serif" font-size="10.00">_view.cc</text>
</a>
</g>
</g>
<!-- Node9&#45;&gt;Node15 -->
<g id="edge20" class="edge">
<title>Node9&#45;&gt;Node15</title>
<path fill="none" stroke="midnightblue" d="M737.4,-246.53C662.48,-237.75 552.07,-221.36 516.5,-198 467.77,-165.99 425.51,-122.23 463.5,-78 501.98,-33.2 673.42,-23.84 767.75,-22.14"/>
<polygon fill="midnightblue" stroke="midnightblue" points="737.39,-250.05 747.72,-247.72 738.19,-243.1 737.39,-250.05"/>
</g>
<!-- Node9&#45;&gt;Node17 -->
<g id="edge34" class="edge">
<title>Node9&#45;&gt;Node17</title>
<path fill="none" stroke="midnightblue" d="M780.01,-227.25C771.89,-218.67 763.89,-208.61 758.5,-198 745.79,-172.97 741.55,-140.37 740.16,-119.81"/>
<polygon fill="midnightblue" stroke="midnightblue" points="777.57,-229.76 787.11,-234.39 782.54,-224.83 777.57,-229.76"/>
</g>
<!-- Node18 -->
<g id="node18" class="node">
<title>Node18</title>
<g id="a_node18"><a xlink:href="../../dd/d82/omnibox__result__view_8h.html" target="_top" xlink:title=" ">
<polygon fill="white" stroke="black" points="914,-156.5 914,-197.5 1039,-197.5 1039,-156.5 914,-156.5"/>
<text text-anchor="start" x="922" y="-185.5" font-family="Helvetica,sans-Serif" font-size="10.00">chrome/browser/ui/views</text>
<text text-anchor="start" x="922" y="-174.5" font-family="Helvetica,sans-Serif" font-size="10.00">/omnibox/omnibox_result</text>
<text text-anchor="middle" x="976.5" y="-163.5" font-family="Helvetica,sans-Serif" font-size="10.00">_view.h</text>
</a>
</g>
</g>
<!-- Node9&#45;&gt;Node18 -->
<g id="edge21" class="edge">
<title>Node9&#45;&gt;Node18</title>
<path fill="none" stroke="midnightblue" d="M862.51,-230.19C885.47,-219.67 912.13,-207.47 933.9,-197.51"/>
<polygon fill="midnightblue" stroke="midnightblue" points="860.88,-227.08 853.25,-234.43 863.8,-233.45 860.88,-227.08"/>
</g>
<!-- Node19 -->
<g id="node19" class="node">
<title>Node19</title>
<g id="a_node19"><a xlink:href="../../dc/dce/omnibox__row__view_8cc.html" target="_top" xlink:title=" ">
<polygon fill="white" stroke="black" points="1224,-84 1224,-114 1379,-114 1379,-84 1224,-84"/>
<text text-anchor="start" x="1232" y="-102" font-family="Helvetica,sans-Serif" font-size="10.00">chrome/browser/ui/views</text>
<text text-anchor="middle" x="1301.5" y="-91" font-family="Helvetica,sans-Serif" font-size="10.00">/omnibox/omnibox_row_view.cc</text>
</a>
</g>
</g>
<!-- Node9&#45;&gt;Node19 -->
<g id="edge30" class="edge">
<title>Node9&#45;&gt;Node19</title>
<path fill="none" stroke="midnightblue" d="M883.19,-248.29C932.62,-241.77 997.97,-227.82 1048.5,-198 1070.18,-185.2 1064.97,-169.05 1086.5,-156 1093.4,-151.82 1183.05,-129.2 1244.38,-114.02"/>
<polygon fill="midnightblue" stroke="midnightblue" points="882.7,-244.82 873.21,-249.53 883.56,-251.77 882.7,-244.82"/>
</g>
<!-- Node22 -->
<g id="node22" class="node">
<title>Node22</title>
<g id="a_node22"><a xlink:href="../../d6/de9/omnibox__suggestion__button__row__view_8h.html" target="_top" xlink:title=" ">
<polygon fill="white" stroke="black" points="525,-156.5 525,-197.5 674,-197.5 674,-156.5 525,-156.5"/>
<text text-anchor="start" x="533" y="-185.5" font-family="Helvetica,sans-Serif" font-size="10.00">chrome/browser/ui/views</text>
<text text-anchor="start" x="533" y="-174.5" font-family="Helvetica,sans-Serif" font-size="10.00">/omnibox/omnibox_suggestion</text>
<text text-anchor="middle" x="599.5" y="-163.5" font-family="Helvetica,sans-Serif" font-size="10.00">_button_row_view.h</text>
</a>
</g>
</g>
<!-- Node9&#45;&gt;Node22 -->
<g id="edge31" class="edge">
<title>Node9&#45;&gt;Node22</title>
<path fill="none" stroke="midnightblue" d="M746.72,-231.03C717.01,-220.33 682.05,-207.73 653.65,-197.51"/>
<polygon fill="midnightblue" stroke="midnightblue" points="745.57,-234.33 756.16,-234.43 747.94,-227.75 745.57,-234.33"/>
</g>
<!-- Node13 -->
<g id="node13" class="node">
<title>Node13</title>
<g id="a_node13"><a xlink:href="../../d8/df8/omnibox__match__cell__view_8cc.html" target="_top" xlink:title=" ">
<polygon fill="white" stroke="black" points="923.5,-0.5 923.5,-41.5 1051.5,-41.5 1051.5,-0.5 923.5,-0.5"/>
<text text-anchor="start" x="931.5" y="-29.5" font-family="Helvetica,sans-Serif" font-size="10.00">chrome/browser/ui/views</text>
<text text-anchor="start" x="931.5" y="-18.5" font-family="Helvetica,sans-Serif" font-size="10.00">/omnibox/omnibox_match</text>
<text text-anchor="middle" x="987.5" y="-7.5" font-family="Helvetica,sans-Serif" font-size="10.00">_cell_view.cc</text>
</a>
</g>
</g>
<!-- Node12&#45;&gt;Node13 -->
<g id="edge15" class="edge">
<title>Node12&#45;&gt;Node13</title>
<path fill="none" stroke="midnightblue" d="M843.08,-146.86C852.58,-125.77 867.68,-97.65 887.5,-78 902.62,-63.01 922.57,-50.77 940.67,-41.6"/>
<polygon fill="midnightblue" stroke="midnightblue" points="839.76,-145.72 838.99,-156.28 846.18,-148.5 839.76,-145.72"/>
</g>
<!-- Node14 -->
<g id="node14" class="node">
<title>Node14</title>
<g id="a_node14"><a xlink:href="../../d8/d69/omnibox__popup__contents__view_8cc.html" target="_top" xlink:title=" ">
<polygon fill="white" stroke="black" points="896.5,-78.5 896.5,-119.5 1024.5,-119.5 1024.5,-78.5 896.5,-78.5"/>
<text text-anchor="start" x="904.5" y="-107.5" font-family="Helvetica,sans-Serif" font-size="10.00">chrome/browser/ui/views</text>
<text text-anchor="start" x="904.5" y="-96.5" font-family="Helvetica,sans-Serif" font-size="10.00">/omnibox/omnibox_popup</text>
<text text-anchor="middle" x="960.5" y="-85.5" font-family="Helvetica,sans-Serif" font-size="10.00">_contents_view.cc</text>
</a>
</g>
</g>
<!-- Node12&#45;&gt;Node14 -->
<g id="edge16" class="edge">
<title>Node12&#45;&gt;Node14</title>
<path fill="none" stroke="midnightblue" d="M873.59,-151.2C891.05,-140.92 911.01,-129.16 927.39,-119.51"/>
<polygon fill="midnightblue" stroke="midnightblue" points="871.56,-148.34 864.72,-156.43 875.11,-154.37 871.56,-148.34"/>
</g>
<!-- Node12&#45;&gt;Node15 -->
<g id="edge17" class="edge">
<title>Node12&#45;&gt;Node15</title>
<path fill="none" stroke="midnightblue" d="M831.31,-146.36C831.11,-115.61 830.8,-68.36 830.63,-41.83"/>
<polygon fill="midnightblue" stroke="midnightblue" points="827.81,-146.52 831.37,-156.5 834.81,-146.47 827.81,-146.52"/>
</g>
<!-- Node12&#45;&gt;Node16 -->
<g id="edge18" class="edge">
<title>Node12&#45;&gt;Node16</title>
<path fill="none" stroke="midnightblue" d="M757.49,-156.26C715.12,-144.96 662.14,-130.84 619.88,-119.57"/>
<polygon fill="midnightblue" stroke="midnightblue" points="756.62,-159.65 767.19,-158.85 758.42,-152.89 756.62,-159.65"/>
</g>
<!-- Node12&#45;&gt;Node17 -->
<g id="edge19" class="edge">
<title>Node12&#45;&gt;Node17</title>
<path fill="none" stroke="midnightblue" d="M799.76,-149.78C787.73,-139.84 774.26,-128.72 763.11,-119.51"/>
<polygon fill="midnightblue" stroke="midnightblue" points="797.87,-152.76 807.81,-156.43 802.33,-147.36 797.87,-152.76"/>
</g>
<!-- Node18&#45;&gt;Node14 -->
<g id="edge22" class="edge">
<title>Node18&#45;&gt;Node14</title>
<path fill="none" stroke="midnightblue" d="M970.31,-146.59C968.4,-137.51 966.34,-127.74 964.61,-119.51"/>
<polygon fill="midnightblue" stroke="midnightblue" points="966.89,-147.36 972.38,-156.43 973.74,-145.92 966.89,-147.36"/>
</g>
<!-- Node18&#45;&gt;Node15 -->
<g id="edge23" class="edge">
<title>Node18&#45;&gt;Node15</title>
<path fill="none" stroke="midnightblue" d="M1012.23,-149.45C1020.82,-141.08 1028.85,-131.08 1033.5,-120 1040.72,-102.79 1044.81,-92.85 1033.5,-78 1029.08,-72.19 951.12,-51.83 893.13,-37.33"/>
<polygon fill="midnightblue" stroke="midnightblue" points="1009.66,-147.06 1004.61,-156.38 1014.37,-152.24 1009.66,-147.06"/>
</g>
<!-- Node18&#45;&gt;Node17 -->
<g id="edge29" class="edge">
<title>Node18&#45;&gt;Node17</title>
<path fill="none" stroke="midnightblue" d="M905.72,-153.3C872.18,-142.55 832.5,-129.82 800.33,-119.51"/>
<polygon fill="midnightblue" stroke="midnightblue" points="904.88,-156.71 915.47,-156.43 907.01,-150.04 904.88,-156.71"/>
</g>
<!-- Node18&#45;&gt;Node19 -->
<g id="edge24" class="edge">
<title>Node18&#45;&gt;Node19</title>
<path fill="none" stroke="midnightblue" d="M1049.05,-157.08C1050.55,-156.71 1052.03,-156.35 1053.5,-156 1125.21,-138.73 1143.58,-136.35 1215.5,-120 1223.87,-118.1 1232.69,-116.07 1241.37,-114.06"/>
<polygon fill="midnightblue" stroke="midnightblue" points="1047.93,-153.75 1039.07,-159.55 1049.62,-160.55 1047.93,-153.75"/>
</g>
<!-- Node20 -->
<g id="node20" class="node">
<title>Node20</title>
<g id="a_node20"><a xlink:href="../../db/d83/omnibox__text__view_8h.html" target="_top" xlink:title=" ">
<polygon fill="white" stroke="black" points="1081,-78.5 1081,-119.5 1206,-119.5 1206,-78.5 1081,-78.5"/>
<text text-anchor="start" x="1089" y="-107.5" font-family="Helvetica,sans-Serif" font-size="10.00">chrome/browser/ui/views</text>
<text text-anchor="start" x="1089" y="-96.5" font-family="Helvetica,sans-Serif" font-size="10.00">/omnibox/omnibox_text</text>
<text text-anchor="middle" x="1143.5" y="-85.5" font-family="Helvetica,sans-Serif" font-size="10.00">_view.h</text>
</a>
</g>
</g>
<!-- Node18&#45;&gt;Node20 -->
<g id="edge25" class="edge">
<title>Node18&#45;&gt;Node20</title>
<path fill="none" stroke="midnightblue" d="M1028.82,-152.19C1051.92,-141.67 1078.75,-129.47 1100.64,-119.51"/>
<polygon fill="midnightblue" stroke="midnightblue" points="1027.16,-149.1 1019.51,-156.43 1030.06,-155.47 1027.16,-149.1"/>
</g>
<!-- Node20&#45;&gt;Node13 -->
<g id="edge26" class="edge">
<title>Node20&#45;&gt;Node13</title>
<path fill="none" stroke="midnightblue" d="M1094.05,-73.91C1072.6,-63.46 1047.81,-51.38 1027.54,-41.51"/>
<polygon fill="midnightblue" stroke="midnightblue" points="1092.8,-77.19 1103.33,-78.43 1095.87,-70.9 1092.8,-77.19"/>
</g>
<!-- Node20&#45;&gt;Node15 -->
<g id="edge27" class="edge">
<title>Node20&#45;&gt;Node15</title>
<path fill="none" stroke="midnightblue" d="M1070.94,-79.11C1069.45,-78.73 1067.97,-78.36 1066.5,-78 999.12,-61.27 982.05,-58.04 914.5,-42 907.64,-40.37 900.48,-38.67 893.34,-36.97"/>
<polygon fill="midnightblue" stroke="midnightblue" points="1070.36,-82.57 1080.91,-81.62 1072.07,-75.78 1070.36,-82.57"/>
</g>
<!-- Node21 -->
<g id="node21" class="node">
<title>Node21</title>
<g id="a_node21"><a xlink:href="../../d7/d7d/omnibox__text__view_8cc.html" target="_top" xlink:title=" ">
<polygon fill="white" stroke="black" points="1081,-0.5 1081,-41.5 1206,-41.5 1206,-0.5 1081,-0.5"/>
<text text-anchor="start" x="1089" y="-29.5" font-family="Helvetica,sans-Serif" font-size="10.00">chrome/browser/ui/views</text>
<text text-anchor="start" x="1089" y="-18.5" font-family="Helvetica,sans-Serif" font-size="10.00">/omnibox/omnibox_text</text>
<text text-anchor="middle" x="1143.5" y="-7.5" font-family="Helvetica,sans-Serif" font-size="10.00">_view.cc</text>
</a>
</g>
</g>
<!-- Node20&#45;&gt;Node21 -->
<g id="edge28" class="edge">
<title>Node20&#45;&gt;Node21</title>
<path fill="none" stroke="midnightblue" d="M1143.5,-68.3C1143.5,-59.3 1143.5,-49.65 1143.5,-41.51"/>
<polygon fill="midnightblue" stroke="midnightblue" points="1140,-68.43 1143.5,-78.43 1147,-68.43 1140,-68.43"/>
</g>
<!-- Node22&#45;&gt;Node15 -->
<g id="edge32" class="edge">
<title>Node22&#45;&gt;Node15</title>
<path fill="none" stroke="midnightblue" d="M616.49,-147.99C632.33,-122.65 655.41,-87.85 668.5,-78 697.51,-56.17 735.66,-42.43 767.65,-34.03"/>
<polygon fill="midnightblue" stroke="midnightblue" points="613.51,-146.15 611.22,-156.5 619.46,-149.84 613.51,-146.15"/>
</g>
<!-- Node22&#45;&gt;Node16 -->
<g id="edge33" class="edge">
<title>Node22&#45;&gt;Node16</title>
<path fill="none" stroke="midnightblue" d="M580.01,-148.05C573.39,-138.57 566.16,-128.18 560.1,-119.51"/>
<polygon fill="midnightblue" stroke="midnightblue" points="577.26,-150.23 585.85,-156.43 583,-146.22 577.26,-150.23"/>
</g>
<!-- Node24&#45;&gt;Node6 -->
<g id="edge40" class="edge">
<title>Node24&#45;&gt;Node6</title>
<path fill="none" stroke="midnightblue" d="M275.63,-384.17C286.14,-375.75 296.45,-365.54 303.5,-354 335.88,-300.97 340.28,-224.03 340.63,-192.4"/>
<polygon fill="midnightblue" stroke="midnightblue" points="273.45,-381.43 267.6,-390.27 277.68,-387.01 273.45,-381.43"/>
</g>
<!-- Node25 -->
<g id="node25" class="node">
<title>Node25</title>
<g id="a_node25"><a xlink:href="../../d0/d58/chrome__omnibox__client_8cc.html" target="_top" xlink:title=" ">
<polygon fill="white" stroke="black" points="0,-318 0,-348 137,-348 137,-318 0,-318"/>
<text text-anchor="start" x="8" y="-336" font-family="Helvetica,sans-Serif" font-size="10.00">chrome/browser/ui/omnibox</text>
<text text-anchor="middle" x="68.5" y="-325" font-family="Helvetica,sans-Serif" font-size="10.00">/chrome_omnibox_client.cc</text>
</a>
</g>
</g>
<!-- Node24&#45;&gt;Node25 -->
<g id="edge39" class="edge">
<title>Node24&#45;&gt;Node25</title>
<path fill="none" stroke="midnightblue" d="M182.34,-386.12C155.05,-373.63 122.58,-358.76 99.31,-348.11"/>
<polygon fill="midnightblue" stroke="midnightblue" points="181.2,-389.45 191.75,-390.43 184.12,-383.08 181.2,-389.45"/>
</g>
<!-- Node26 -->
<g id="node26" class="node">
<title>Node26</title>
<g id="a_node26"><a xlink:href="../../d3/d0e/omnibox__controller__emitter_8cc.html" target="_top" xlink:title=" ">
<polygon fill="white" stroke="black" points="155,-312.5 155,-353.5 294,-353.5 294,-312.5 155,-312.5"/>
<text text-anchor="start" x="163" y="-341.5" font-family="Helvetica,sans-Serif" font-size="10.00">components/omnibox</text>
<text text-anchor="start" x="163" y="-330.5" font-family="Helvetica,sans-Serif" font-size="10.00">/browser/omnibox_controller</text>
<text text-anchor="middle" x="224.5" y="-319.5" font-family="Helvetica,sans-Serif" font-size="10.00">_emitter.cc</text>
</a>
</g>
</g>
<!-- Node24&#45;&gt;Node26 -->
<g id="edge41" class="edge">
<title>Node24&#45;&gt;Node26</title>
<path fill="none" stroke="midnightblue" d="M230.59,-380.3C229.41,-371.3 228.14,-361.65 227.07,-353.51"/>
<polygon fill="midnightblue" stroke="midnightblue" points="227.15,-380.97 231.92,-390.43 234.09,-380.06 227.15,-380.97"/>
</g>
</g>
</svg>
