<?xml version="1.0" encoding="UTF-8" standalone="no"?>
<!DOCTYPE svg PUBLIC "-//W3C//DTD SVG 1.1//EN"
 "http://www.w3.org/Graphics/SVG/1.1/DTD/svg11.dtd">
<!-- Generated by graphviz version 2.43.0 (0)
 -->
<!-- Title: URLPrefix::URLPrefix Pages: 1 -->
<svg width="764pt" height="110pt"
 viewBox="0.00 0.00 764.00 110.00" xmlns="http://www.w3.org/2000/svg" xmlns:xlink="http://www.w3.org/1999/xlink">
<g id="graph0" class="graph" transform="scale(1 1) rotate(0) translate(4 106)">
<title>URLPrefix::URLPrefix</title>
<polygon fill="white" stroke="transparent" points="-4,4 -4,-106 760,-106 760,4 -4,4"/>
<!-- Node1 -->
<g id="node1" class="node">
<title>Node1</title>
<g id="a_node1"><a xlink:title=" ">
<polygon fill="#bfbfbf" stroke="black" points="642,-30 642,-49 756,-49 756,-30 642,-30"/>
<text text-anchor="middle" x="699" y="-37" font-family="Helvetica,sans-Serif" font-size="10.00">URLPrefix::URLPrefix</text>
</a>
</g>
</g>
<!-- Node2 -->
<g id="node2" class="node">
<title>Node2</title>
<g id="a_node2"><a xlink:href="../../de/df5/structURLPrefix.html#acf0a02491d2a87f33873345185822951" target="_top" xlink:title=" ">
<polygon fill="white" stroke="black" points="466,-30 466,-49 606,-49 606,-30 466,-30"/>
<text text-anchor="middle" x="536" y="-37" font-family="Helvetica,sans-Serif" font-size="10.00">URLPrefix::GetURLPrefixes</text>
</a>
</g>
</g>
<!-- Node1&#45;&gt;Node2 -->
<g id="edge1" class="edge">
<title>Node1&#45;&gt;Node2</title>
<path fill="none" stroke="midnightblue" d="M631.55,-39.5C623.12,-39.5 614.49,-39.5 606.03,-39.5"/>
<polygon fill="midnightblue" stroke="midnightblue" points="631.69,-43 641.69,-39.5 631.69,-36 631.69,-43"/>
</g>
<!-- Node3 -->
<g id="node3" class="node">
<title>Node3</title>
<g id="a_node3"><a xlink:href="../../da/dad/classHistoryURLProvider.html#a5fc3efbb45bc4e93df981144b60d753f" target="_top" xlink:title=" ">
<polygon fill="white" stroke="black" points="303,-49.5 303,-79.5 407,-79.5 407,-49.5 303,-49.5"/>
<text text-anchor="start" x="311" y="-67.5" font-family="Helvetica,sans-Serif" font-size="10.00">HistoryURLProvider</text>
<text text-anchor="middle" x="355" y="-56.5" font-family="Helvetica,sans-Serif" font-size="10.00">::DoAutocomplete</text>
</a>
</g>
</g>
<!-- Node2&#45;&gt;Node3 -->
<g id="edge2" class="edge">
<title>Node2&#45;&gt;Node3</title>
<path fill="none" stroke="midnightblue" d="M456.47,-50.47C439.7,-52.81 422.42,-55.22 407.01,-57.38"/>
<polygon fill="midnightblue" stroke="midnightblue" points="457.4,-53.87 466.82,-49.02 456.43,-46.94 457.4,-53.87"/>
</g>
<!-- Node6 -->
<g id="node6" class="node">
<title>Node6</title>
<g id="a_node6"><a xlink:href="../../d2/d8d/classHistoryURLProvider_1_1VisitClassifier.html#a3aa7483908b9de238db38e726e8a320d" target="_top" xlink:title=" ">
<polygon fill="white" stroke="black" points="280,-0.5 280,-30.5 430,-30.5 430,-0.5 280,-0.5"/>
<text text-anchor="start" x="288" y="-18.5" font-family="Helvetica,sans-Serif" font-size="10.00">HistoryURLProvider</text>
<text text-anchor="middle" x="355" y="-7.5" font-family="Helvetica,sans-Serif" font-size="10.00">::VisitClassifier::VisitClassifier</text>
</a>
</g>
</g>
<!-- Node2&#45;&gt;Node6 -->
<g id="edge6" class="edge">
<title>Node2&#45;&gt;Node6</title>
<path fill="none" stroke="midnightblue" d="M455.82,-28.88C447.26,-27.74 438.56,-26.57 430.06,-25.43"/>
<polygon fill="midnightblue" stroke="midnightblue" points="455.42,-32.36 465.79,-30.22 456.35,-25.42 455.42,-32.36"/>
</g>
<!-- Node4 -->
<g id="node4" class="node">
<title>Node4</title>
<g id="a_node4"><a xlink:href="../../da/dad/classHistoryURLProvider.html#afb38c4ac596ac8c3de848f4c35f53656" target="_top" xlink:title=" ">
<polygon fill="white" stroke="black" points="140,-71.5 140,-101.5 244,-101.5 244,-71.5 140,-71.5"/>
<text text-anchor="start" x="148" y="-89.5" font-family="Helvetica,sans-Serif" font-size="10.00">HistoryURLProvider</text>
<text text-anchor="middle" x="192" y="-78.5" font-family="Helvetica,sans-Serif" font-size="10.00">::ExecuteWithDB</text>
</a>
</g>
</g>
<!-- Node3&#45;&gt;Node4 -->
<g id="edge3" class="edge">
<title>Node3&#45;&gt;Node4</title>
<path fill="none" stroke="midnightblue" d="M292.34,-72.93C276.43,-75.1 259.48,-77.42 244.17,-79.51"/>
<polygon fill="midnightblue" stroke="midnightblue" points="293.18,-76.34 302.62,-71.52 292.23,-69.41 293.18,-76.34"/>
</g>
<!-- Node5 -->
<g id="node5" class="node">
<title>Node5</title>
<g id="a_node5"><a xlink:href="../../da/dad/classHistoryURLProvider.html#ad8668da3c2254ca7ac51f0d7b0fc4104" target="_top" xlink:title=" ">
<polygon fill="white" stroke="black" points="0,-49.5 0,-79.5 104,-79.5 104,-49.5 0,-49.5"/>
<text text-anchor="start" x="8" y="-67.5" font-family="Helvetica,sans-Serif" font-size="10.00">HistoryURLProvider</text>
<text text-anchor="middle" x="52" y="-56.5" font-family="Helvetica,sans-Serif" font-size="10.00">::Start</text>
</a>
</g>
</g>
<!-- Node3&#45;&gt;Node5 -->
<g id="edge5" class="edge">
<title>Node3&#45;&gt;Node5</title>
<path fill="none" stroke="midnightblue" d="M292.59,-62.53C276.76,-62.1 259.75,-61.71 244,-61.5 197.78,-60.87 186.22,-60.7 140,-61.5 128.36,-61.7 115.86,-62.05 104.06,-62.45"/>
<polygon fill="midnightblue" stroke="midnightblue" points="292.7,-66.03 302.8,-62.81 292.9,-59.04 292.7,-66.03"/>
</g>
<!-- Node4&#45;&gt;Node5 -->
<g id="edge4" class="edge">
<title>Node4&#45;&gt;Node5</title>
<path fill="none" stroke="midnightblue" d="M129.5,-76.7C121.13,-75.36 112.6,-74 104.43,-72.7"/>
<polygon fill="midnightblue" stroke="midnightblue" points="129.19,-80.19 139.61,-78.31 130.29,-73.28 129.19,-80.19"/>
</g>
</g>
</svg>
