<?xml version="1.0" encoding="UTF-8" standalone="no"?>
<!DOCTYPE svg PUBLIC "-//W3C//DTD SVG 1.1//EN"
 "http://www.w3.org/Graphics/SVG/1.1/DTD/svg11.dtd">
<!-- Generated by graphviz version 2.43.0 (0)
 -->
<!-- Title: OmniboxEditModel::IsPopupControlPresentOnMatch Pages: 1 -->
<svg width="703pt" height="345pt"
 viewBox="0.00 0.00 703.00 345.00" xmlns="http://www.w3.org/2000/svg" xmlns:xlink="http://www.w3.org/1999/xlink">
<g id="graph0" class="graph" transform="scale(1 1) rotate(0) translate(4 341)">
<title>OmniboxEditModel::IsPopupControlPresentOnMatch</title>
<polygon fill="white" stroke="transparent" points="-4,4 -4,-341 699,-341 699,4 -4,4"/>
<!-- Node1 -->
<g id="node1" class="node">
<title>Node1</title>
<g id="a_node1"><a xlink:title=" ">
<polygon fill="#bfbfbf" stroke="black" points="0,-98.5 0,-128.5 141,-128.5 141,-98.5 0,-98.5"/>
<text text-anchor="start" x="8" y="-116.5" font-family="Helvetica,sans-Serif" font-size="10.00">OmniboxEditModel::IsPopup</text>
<text text-anchor="middle" x="70.5" y="-105.5" font-family="Helvetica,sans-Serif" font-size="10.00">ControlPresentOnMatch</text>
</a>
</g>
</g>
<!-- Node2 -->
<g id="node2" class="node">
<title>Node2</title>
<g id="a_node2"><a xlink:href="../../d0/d22/classOmniboxEditModel.html#a83ebf99fd8b53140c36e887f644bd510" target="_top" xlink:title=" ">
<polygon fill="white" stroke="black" points="177,-223.5 177,-253.5 316,-253.5 316,-223.5 177,-223.5"/>
<text text-anchor="start" x="185" y="-241.5" font-family="Helvetica,sans-Serif" font-size="10.00">OmniboxEditModel::GetPref</text>
<text text-anchor="middle" x="246.5" y="-230.5" font-family="Helvetica,sans-Serif" font-size="10.00">Service</text>
</a>
</g>
</g>
<!-- Node1&#45;&gt;Node2 -->
<g id="edge1" class="edge">
<title>Node1&#45;&gt;Node2</title>
<path fill="none" stroke="midnightblue" d="M92.49,-128.58C123.32,-150.73 180.98,-192.15 216.04,-217.34"/>
<polygon fill="midnightblue" stroke="midnightblue" points="214.27,-220.38 224.44,-223.37 218.36,-214.69 214.27,-220.38"/>
</g>
<!-- Node6 -->
<g id="node6" class="node">
<title>Node6</title>
<g id="a_node6"><a xlink:href="../../de/dfc/structOmniboxPopupSelection.html#aaf32c9ad4992fec10b4295679052b55a" target="_top" xlink:title=" ">
<polygon fill="white" stroke="black" points="178.5,-98.5 178.5,-128.5 314.5,-128.5 314.5,-98.5 178.5,-98.5"/>
<text text-anchor="start" x="186.5" y="-116.5" font-family="Helvetica,sans-Serif" font-size="10.00">OmniboxPopupSelection</text>
<text text-anchor="middle" x="246.5" y="-105.5" font-family="Helvetica,sans-Serif" font-size="10.00">::IsControlPresentOnMatch</text>
</a>
</g>
</g>
<!-- Node1&#45;&gt;Node6 -->
<g id="edge5" class="edge">
<title>Node1&#45;&gt;Node6</title>
<path fill="none" stroke="midnightblue" d="M141.02,-113.5C149.96,-113.5 159.16,-113.5 168.21,-113.5"/>
<polygon fill="midnightblue" stroke="midnightblue" points="168.36,-117 178.36,-113.5 168.36,-110 168.36,-117"/>
</g>
<!-- Node12 -->
<g id="node12" class="node">
<title>Node12</title>
<g id="a_node12"><a xlink:href="../../d0/d22/classOmniboxEditModel.html#ad945a332660c6122dc25b93c1eee76d8" target="_top" xlink:title=" ">
<polygon fill="white" stroke="black" points="182,-60 182,-79 311,-79 311,-60 182,-60"/>
<text text-anchor="middle" x="246.5" y="-67" font-family="Helvetica,sans-Serif" font-size="10.00">OmniboxEditModel::result</text>
</a>
</g>
</g>
<!-- Node1&#45;&gt;Node12 -->
<g id="edge11" class="edge">
<title>Node1&#45;&gt;Node12</title>
<path fill="none" stroke="midnightblue" d="M130.89,-98.48C152.81,-92.94 177.33,-86.74 198.05,-81.5"/>
<polygon fill="midnightblue" stroke="midnightblue" points="199.05,-84.86 207.88,-79.01 197.33,-78.07 199.05,-84.86"/>
</g>
<!-- Node3 -->
<g id="node3" class="node">
<title>Node3</title>
<g id="a_node3"><a xlink:href="../../d0/d22/classOmniboxEditModel.html#a8c8a925ee670cdc9bd5c0ad8b07fa1a0" target="_top" xlink:title=" ">
<polygon fill="white" stroke="black" points="352,-306.5 352,-336.5 516,-336.5 516,-306.5 352,-306.5"/>
<text text-anchor="start" x="360" y="-324.5" font-family="Helvetica,sans-Serif" font-size="10.00">OmniboxEditModel::autocomplete</text>
<text text-anchor="middle" x="434" y="-313.5" font-family="Helvetica,sans-Serif" font-size="10.00">_controller</text>
</a>
</g>
</g>
<!-- Node2&#45;&gt;Node3 -->
<g id="edge2" class="edge">
<title>Node2&#45;&gt;Node3</title>
<path fill="none" stroke="midnightblue" d="M271.27,-253.57C292,-266.24 323.18,-284.21 352,-296.5 357.46,-298.83 363.22,-301.05 369.04,-303.13"/>
<polygon fill="midnightblue" stroke="midnightblue" points="368.25,-306.56 378.84,-306.5 370.52,-299.94 368.25,-306.56"/>
</g>
<!-- Node4 -->
<g id="node4" class="node">
<title>Node4</title>
<g id="a_node4"><a xlink:href="../../df/d4d/classAutocompleteController.html#a1b73640ab24c9b6e706cdfafacccca52" target="_top" xlink:title=" ">
<polygon fill="white" stroke="black" points="373.5,-246 373.5,-287 494.5,-287 494.5,-246 373.5,-246"/>
<text text-anchor="start" x="381.5" y="-275" font-family="Helvetica,sans-Serif" font-size="10.00">AutocompleteController</text>
<text text-anchor="start" x="381.5" y="-264" font-family="Helvetica,sans-Serif" font-size="10.00">::autocomplete_provider</text>
<text text-anchor="middle" x="434" y="-253" font-family="Helvetica,sans-Serif" font-size="10.00">_client</text>
</a>
</g>
</g>
<!-- Node2&#45;&gt;Node4 -->
<g id="edge3" class="edge">
<title>Node2&#45;&gt;Node4</title>
<path fill="none" stroke="midnightblue" d="M316.05,-248.85C331.45,-251.17 347.82,-253.64 363.28,-255.98"/>
<polygon fill="midnightblue" stroke="midnightblue" points="362.87,-259.45 373.28,-257.49 363.92,-252.53 362.87,-259.45"/>
</g>
<!-- Node5 -->
<g id="node5" class="node">
<title>Node5</title>
<g id="a_node5"><a xlink:href="../../d5/dc7/classAutocompleteProviderClient.html#ac681cf50660fc21360da198bea6f4d8b" target="_top" xlink:title=" ">
<polygon fill="white" stroke="black" points="365,-196.5 365,-226.5 503,-226.5 503,-196.5 365,-196.5"/>
<text text-anchor="start" x="373" y="-214.5" font-family="Helvetica,sans-Serif" font-size="10.00">AutocompleteProviderClient</text>
<text text-anchor="middle" x="434" y="-203.5" font-family="Helvetica,sans-Serif" font-size="10.00">::GetPrefs</text>
</a>
</g>
</g>
<!-- Node2&#45;&gt;Node5 -->
<g id="edge4" class="edge">
<title>Node2&#45;&gt;Node5</title>
<path fill="none" stroke="midnightblue" d="M316.05,-228.52C328.59,-226.7 341.76,-224.78 354.57,-222.92"/>
<polygon fill="midnightblue" stroke="midnightblue" points="355.34,-226.34 364.74,-221.44 354.34,-219.41 355.34,-226.34"/>
</g>
<!-- Node7 -->
<g id="node7" class="node">
<title>Node7</title>
<g id="a_node7"><a xlink:href="../../d1/d73/namespaceOmniboxFieldTrial.html#a5946bfcba47abaa751ad85c5fa022f86" target="_top" xlink:title=" ">
<polygon fill="white" stroke="black" points="355,-147.5 355,-177.5 513,-177.5 513,-147.5 355,-147.5"/>
<text text-anchor="start" x="363" y="-165.5" font-family="Helvetica,sans-Serif" font-size="10.00">OmniboxFieldTrial::</text>
<text text-anchor="middle" x="434" y="-154.5" font-family="Helvetica,sans-Serif" font-size="10.00">IsKeywordSearchButtonEnabled</text>
</a>
</g>
</g>
<!-- Node6&#45;&gt;Node7 -->
<g id="edge6" class="edge">
<title>Node6&#45;&gt;Node7</title>
<path fill="none" stroke="midnightblue" d="M304.42,-128.53C324,-133.71 346.11,-139.55 366.4,-144.91"/>
<polygon fill="midnightblue" stroke="midnightblue" points="365.63,-148.32 376.19,-147.49 367.42,-141.56 365.63,-148.32"/>
</g>
<!-- Node8 -->
<g id="node8" class="node">
<title>Node8</title>
<g id="a_node8"><a xlink:href="../../d3/d03/classAutocompleteResult.html#a1353d4a449288df34f1d6dd3eff73298" target="_top" xlink:title=" ">
<polygon fill="white" stroke="black" points="361.5,-98.5 361.5,-128.5 506.5,-128.5 506.5,-98.5 361.5,-98.5"/>
<text text-anchor="start" x="369.5" y="-116.5" font-family="Helvetica,sans-Serif" font-size="10.00">AutocompleteResult</text>
<text text-anchor="middle" x="434" y="-105.5" font-family="Helvetica,sans-Serif" font-size="10.00">::IsSuggestionGroupIdHidden</text>
</a>
</g>
</g>
<!-- Node6&#45;&gt;Node8 -->
<g id="edge7" class="edge">
<title>Node6&#45;&gt;Node8</title>
<path fill="none" stroke="midnightblue" d="M314.73,-113.5C326.56,-113.5 338.99,-113.5 351.16,-113.5"/>
<polygon fill="midnightblue" stroke="midnightblue" points="351.3,-117 361.3,-113.5 351.3,-110 351.3,-117"/>
</g>
<!-- Node10 -->
<g id="node10" class="node">
<title>Node10</title>
<g id="a_node10"><a xlink:href="../../d3/d03/classAutocompleteResult.html#a1532251921e2112a24e3a52ec7ee4535" target="_top" xlink:title=" ">
<polygon fill="white" stroke="black" points="381.5,-49.5 381.5,-79.5 486.5,-79.5 486.5,-49.5 381.5,-49.5"/>
<text text-anchor="start" x="389.5" y="-67.5" font-family="Helvetica,sans-Serif" font-size="10.00">AutocompleteResult</text>
<text text-anchor="middle" x="434" y="-56.5" font-family="Helvetica,sans-Serif" font-size="10.00">::match_at</text>
</a>
</g>
</g>
<!-- Node6&#45;&gt;Node10 -->
<g id="edge9" class="edge">
<title>Node6&#45;&gt;Node10</title>
<path fill="none" stroke="midnightblue" d="M304.42,-98.47C325.66,-92.85 349.86,-86.46 371.5,-80.75"/>
<polygon fill="midnightblue" stroke="midnightblue" points="372.47,-84.11 381.24,-78.17 370.68,-77.34 372.47,-84.11"/>
</g>
<!-- Node11 -->
<g id="node11" class="node">
<title>Node11</title>
<g id="a_node11"><a xlink:href="../../d3/d03/classAutocompleteResult.html#a64a7947a81e007d5aa56ac9b25e84bb6" target="_top" xlink:title=" ">
<polygon fill="white" stroke="black" points="381.5,-0.5 381.5,-30.5 486.5,-30.5 486.5,-0.5 381.5,-0.5"/>
<text text-anchor="start" x="389.5" y="-18.5" font-family="Helvetica,sans-Serif" font-size="10.00">AutocompleteResult</text>
<text text-anchor="middle" x="434" y="-7.5" font-family="Helvetica,sans-Serif" font-size="10.00">::size</text>
</a>
</g>
</g>
<!-- Node6&#45;&gt;Node11 -->
<g id="edge10" class="edge">
<title>Node6&#45;&gt;Node11</title>
<path fill="none" stroke="midnightblue" d="M298.95,-98.48C304.98,-95.66 310.82,-92.35 316,-88.5 337.41,-72.6 330.19,-55.85 352,-40.5 358.04,-36.25 364.82,-32.7 371.83,-29.75"/>
<polygon fill="midnightblue" stroke="midnightblue" points="373.37,-32.91 381.47,-26.08 370.88,-26.37 373.37,-32.91"/>
</g>
<!-- Node9 -->
<g id="node9" class="node">
<title>Node9</title>
<g id="a_node9"><a xlink:href="../../d4/d19/namespaceomnibox.html#a416efcfe9398c882ad7a7c97b42578e1" target="_top" xlink:title=" ">
<polygon fill="white" stroke="black" points="552,-98.5 552,-128.5 695,-128.5 695,-98.5 552,-98.5"/>
<text text-anchor="start" x="560" y="-116.5" font-family="Helvetica,sans-Serif" font-size="10.00">omnibox::GetUserPreference</text>
<text text-anchor="middle" x="623.5" y="-105.5" font-family="Helvetica,sans-Serif" font-size="10.00">ForSuggestionGroupVisibility</text>
</a>
</g>
</g>
<!-- Node8&#45;&gt;Node9 -->
<g id="edge8" class="edge">
<title>Node8&#45;&gt;Node9</title>
<path fill="none" stroke="midnightblue" d="M506.69,-113.5C518.12,-113.5 530.02,-113.5 541.65,-113.5"/>
<polygon fill="midnightblue" stroke="midnightblue" points="541.78,-117 551.78,-113.5 541.78,-110 541.78,-117"/>
</g>
</g>
</svg>
