<?xml version="1.0" encoding="UTF-8" standalone="no"?>
<!DOCTYPE svg PUBLIC "-//W3C//DTD SVG 1.1//EN"
 "http://www.w3.org/Graphics/SVG/1.1/DTD/svg11.dtd">
<!-- Generated by graphviz version 2.43.0 (0)
 -->
<!-- Title: OmniboxEditModel::SetCaretVisibility Pages: 1 -->
<svg width="540pt" height="78pt"
 viewBox="0.00 0.00 540.00 77.50" xmlns="http://www.w3.org/2000/svg" xmlns:xlink="http://www.w3.org/1999/xlink">
<g id="graph0" class="graph" transform="scale(1 1) rotate(0) translate(4 73.5)">
<title>OmniboxEditModel::SetCaretVisibility</title>
<polygon fill="white" stroke="transparent" points="-4,4 -4,-73.5 536,-73.5 536,4 -4,4"/>
<!-- Node1 -->
<g id="node1" class="node">
<title>Node1</title>
<g id="a_node1"><a xlink:title=" ">
<polygon fill="#bfbfbf" stroke="black" points="0,-22.5 0,-52.5 144,-52.5 144,-22.5 0,-22.5"/>
<text text-anchor="start" x="8" y="-40.5" font-family="Helvetica,sans-Serif" font-size="10.00">OmniboxEditModel::SetCaret</text>
<text text-anchor="middle" x="72" y="-29.5" font-family="Helvetica,sans-Serif" font-size="10.00">Visibility</text>
</a>
</g>
</g>
<!-- Node2 -->
<g id="node2" class="node">
<title>Node2</title>
<g id="a_node2"><a xlink:href="../../d0/d22/classOmniboxEditModel.html#a7305586191b3f1b972616914def2fd74" target="_top" xlink:title=" ">
<polygon fill="white" stroke="black" points="180,-22.5 180,-52.5 327,-52.5 327,-22.5 180,-22.5"/>
<text text-anchor="start" x="188" y="-40.5" font-family="Helvetica,sans-Serif" font-size="10.00">OmniboxEditModel::SetFocus</text>
<text text-anchor="middle" x="253.5" y="-29.5" font-family="Helvetica,sans-Serif" font-size="10.00">State</text>
</a>
</g>
</g>
<!-- Node1&#45;&gt;Node2 -->
<g id="edge1" class="edge">
<title>Node1&#45;&gt;Node2</title>
<path fill="none" stroke="midnightblue" d="M144.2,-37.5C152.64,-37.5 161.31,-37.5 169.9,-37.5"/>
<polygon fill="midnightblue" stroke="midnightblue" points="169.91,-41 179.91,-37.5 169.91,-34 169.91,-41"/>
</g>
<!-- Node3 -->
<g id="node3" class="node">
<title>Node3</title>
<g id="a_node3"><a xlink:href="../../d9/d1e/classOmniboxView.html#a581ba04d09607de42785148595595626" target="_top" xlink:title=" ">
<polygon fill="white" stroke="black" points="363,-50 363,-69 532,-69 532,-50 363,-50"/>
<text text-anchor="middle" x="447.5" y="-57" font-family="Helvetica,sans-Serif" font-size="10.00">OmniboxView::ApplyCaretVisibility</text>
</a>
</g>
</g>
<!-- Node2&#45;&gt;Node3 -->
<g id="edge2" class="edge">
<title>Node2&#45;&gt;Node3</title>
<path fill="none" stroke="midnightblue" d="M327.09,-45.82C335.73,-46.81 344.64,-47.83 353.52,-48.85"/>
<polygon fill="midnightblue" stroke="midnightblue" points="353.17,-52.33 363.51,-49.99 353.97,-45.37 353.17,-52.33"/>
</g>
<!-- Node4 -->
<g id="node4" class="node">
<title>Node4</title>
<g id="a_node4"><a xlink:href="../../d0/d22/classOmniboxEditModel.html#a1abe23a3b5db8440ddfdea65d628e006" target="_top" xlink:title=" ">
<polygon fill="white" stroke="black" points="391,-0.5 391,-30.5 504,-30.5 504,-0.5 391,-0.5"/>
<text text-anchor="start" x="399" y="-18.5" font-family="Helvetica,sans-Serif" font-size="10.00">OmniboxEditModel::is</text>
<text text-anchor="middle" x="447.5" y="-7.5" font-family="Helvetica,sans-Serif" font-size="10.00">_caret_visible</text>
</a>
</g>
</g>
<!-- Node2&#45;&gt;Node4 -->
<g id="edge3" class="edge">
<title>Node2&#45;&gt;Node4</title>
<path fill="none" stroke="midnightblue" d="M327.09,-29.18C344.75,-27.16 363.54,-25.01 380.87,-23.02"/>
<polygon fill="midnightblue" stroke="midnightblue" points="381.34,-26.49 390.88,-21.87 380.54,-19.53 381.34,-26.49"/>
</g>
</g>
</svg>
