<?xml version="1.0" encoding="UTF-8" standalone="no"?>
<!DOCTYPE svg PUBLIC "-//W3C//DTD SVG 1.1//EN"
 "http://www.w3.org/Graphics/SVG/1.1/DTD/svg11.dtd">
<!-- Generated by graphviz version 2.43.0 (0)
 -->
<!-- Title: OmniboxEditModel::AllowKeywordSpaceTriggering Pages: 1 -->
<!--zoomable 121 -->
<svg id="main" version="1.1" xmlns="http://www.w3.org/2000/svg" xmlns:xlink="http://www.w3.org/1999/xlink" xml:space="preserve" onload="init(evt)">
<style type="text/css"><![CDATA[
.edge:hover path { stroke: red; }
.edge:hover polygon { stroke: red; fill: red; }
]]></style>
<script type="text/javascript"><![CDATA[
var edges = document.getElementsByTagName('g');
if (edges && edges.length) {
  for (var i=0;i<edges.length;i++) {
    if (edges[i].id.substr(0,4)=='edge') {
      edges[i].setAttribute('class','edge');
    }
  }
}
]]></script>
        <defs>
                <circle id="rim" cx="0" cy="0" r="7"/>
                <circle id="rim2" cx="0" cy="0" r="3.5"/>
                <g id="zoomPlus">
                        <use xlink:href="#rim" fill="#404040">
                                <set attributeName="fill" to="#808080" begin="zoomplus.mouseover" end="zoomplus.mouseout"/>
                        </use>
                        <path d="M-4,0h8M0,-4v8" fill="none" stroke="white" stroke-width="1.5" pointer-events="none"/>
                </g>
                <g id="zoomMin">
                        <use xlink:href="#rim" fill="#404040">
                                <set attributeName="fill" to="#808080" begin="zoomminus.mouseover" end="zoomminus.mouseout"/>
                        </use>
                        <path d="M-4,0h8" fill="none" stroke="white" stroke-width="1.5" pointer-events="none"/>
                </g>
                <g id="dirArrow">
                        <path fill="none" stroke="white" stroke-width="1.5" d="M0,-3.0v7 M-2.5,-0.5L0,-3.0L2.5,-0.5"/>
                </g>
               <g id="resetDef">
                       <use xlink:href="#rim2" fill="#404040">
                               <set attributeName="fill" to="#808080" begin="reset.mouseover" end="reset.mouseout"/>
                       </use>
               </g>
        </defs>

<script type="text/javascript">
var viewWidth = 1293;
var viewHeight = 121;
var sectionId = 'dynsection-12';
</script>
<script xlink:href="../../svgpan.js"/>
<svg id="graph" class="graph">
<g id="viewport">
<title>OmniboxEditModel::AllowKeywordSpaceTriggering</title>
<polygon fill="white" stroke="transparent" points="-4,4 -4,-117 1289,-117 1289,4 -4,4"/>
<!-- Node1 -->
<g id="node1" class="node">
<title>Node1</title>
<g id="a_node1"><a xlink:title=" ">
<polygon fill="#bfbfbf" stroke="black" points="1118,-49.5 1118,-79.5 1285,-79.5 1285,-49.5 1118,-49.5"/>
<text text-anchor="start" x="1126" y="-67.5" font-family="Helvetica,sans-Serif" font-size="10.00">OmniboxEditModel::AllowKeyword</text>
<text text-anchor="middle" x="1201.5" y="-56.5" font-family="Helvetica,sans-Serif" font-size="10.00">SpaceTriggering</text>
</a>
</g>
</g>
<!-- Node2 -->
<g id="node2" class="node">
<title>Node2</title>
<g id="a_node2"><a xlink:href="../../d0/d22/classOmniboxEditModel.html#a2aa7d96a6df61aa1e05131d1c8009c16" target="_top" xlink:title=" ">
<polygon fill="white" stroke="black" points="917,-71.5 917,-101.5 1082,-101.5 1082,-71.5 917,-71.5"/>
<text text-anchor="start" x="925" y="-89.5" font-family="Helvetica,sans-Serif" font-size="10.00">OmniboxEditModel::MaybeAccept</text>
<text text-anchor="middle" x="999.5" y="-78.5" font-family="Helvetica,sans-Serif" font-size="10.00">KeywordBySpace</text>
</a>
</g>
</g>
<!-- Node1&#45;&gt;Node2 -->
<g id="edge1" class="edge">
<title>Node1&#45;&gt;Node2</title>
<path fill="none" stroke="midnightblue" d="M1107.95,-74.68C1099.34,-75.63 1090.66,-76.58 1082.17,-77.52"/>
<polygon fill="midnightblue" stroke="midnightblue" points="1108.44,-78.15 1118,-73.58 1107.67,-71.19 1108.44,-78.15"/>
</g>
<!-- Node3 -->
<g id="node3" class="node">
<title>Node3</title>
<g id="a_node3"><a xlink:href="../../d0/d22/classOmniboxEditModel.html#ada57fd155509f60afd9228e3a07e9b47" target="_top" xlink:title=" ">
<polygon fill="white" stroke="black" points="742,-49.5 742,-79.5 881,-79.5 881,-49.5 742,-49.5"/>
<text text-anchor="start" x="750" y="-67.5" font-family="Helvetica,sans-Serif" font-size="10.00">OmniboxEditModel::OnAfter</text>
<text text-anchor="middle" x="811.5" y="-56.5" font-family="Helvetica,sans-Serif" font-size="10.00">PossibleChange</text>
</a>
</g>
</g>
<!-- Node1&#45;&gt;Node3 -->
<g id="edge10" class="edge">
<title>Node1&#45;&gt;Node3</title>
<path fill="none" stroke="midnightblue" d="M1107.75,-61.93C1099.04,-61.75 1090.36,-61.61 1082,-61.5 1008.67,-60.57 990.33,-60.45 917,-61.5 905.39,-61.67 893.05,-61.94 881.07,-62.25"/>
<polygon fill="midnightblue" stroke="midnightblue" points="1107.88,-65.43 1117.95,-62.14 1108.03,-58.43 1107.88,-65.43"/>
</g>
<!-- Node2&#45;&gt;Node3 -->
<g id="edge2" class="edge">
<title>Node2&#45;&gt;Node3</title>
<path fill="none" stroke="midnightblue" d="M906.83,-75.66C898.21,-74.64 889.58,-73.62 881.23,-72.63"/>
<polygon fill="midnightblue" stroke="midnightblue" points="906.58,-79.15 916.92,-76.85 907.4,-72.2 906.58,-79.15"/>
</g>
<!-- Node4 -->
<g id="node4" class="node">
<title>Node4</title>
<g id="a_node4"><a xlink:href="../../d0/d94/classOmniboxViewViews.html#a18cba16b87566313a94b57d0e4a7ce12" target="_top" xlink:title=" ">
<polygon fill="white" stroke="black" points="562,-49.5 562,-79.5 706,-79.5 706,-49.5 562,-49.5"/>
<text text-anchor="start" x="570" y="-67.5" font-family="Helvetica,sans-Serif" font-size="10.00">OmniboxViewViews::OnAfter</text>
<text text-anchor="middle" x="634" y="-56.5" font-family="Helvetica,sans-Serif" font-size="10.00">PossibleChange</text>
</a>
</g>
</g>
<!-- Node3&#45;&gt;Node4 -->
<g id="edge3" class="edge">
<title>Node3&#45;&gt;Node4</title>
<path fill="none" stroke="midnightblue" d="M731.62,-64.5C723.14,-64.5 714.55,-64.5 706.16,-64.5"/>
<polygon fill="midnightblue" stroke="midnightblue" points="731.89,-68 741.89,-64.5 731.89,-61 731.89,-68"/>
</g>
<!-- Node5 -->
<g id="node5" class="node">
<title>Node5</title>
<g id="a_node5"><a xlink:href="../../d0/d94/classOmniboxViewViews.html#a487a0ced2870997b0f88d8dcab9a4f0e" target="_top" xlink:title=" ">
<polygon fill="white" stroke="black" points="0,-82.5 0,-112.5 146,-112.5 146,-82.5 0,-82.5"/>
<text text-anchor="start" x="8" y="-100.5" font-family="Helvetica,sans-Serif" font-size="10.00">OmniboxViewViews::Execute</text>
<text text-anchor="middle" x="73" y="-89.5" font-family="Helvetica,sans-Serif" font-size="10.00">Command</text>
</a>
</g>
</g>
<!-- Node4&#45;&gt;Node5 -->
<g id="edge4" class="edge">
<title>Node4&#45;&gt;Node5</title>
<path fill="none" stroke="midnightblue" d="M565.97,-81.69C552.8,-84.46 539.03,-86.93 526,-88.5 392.76,-104.6 235.84,-103.21 146.33,-100.51"/>
<polygon fill="midnightblue" stroke="midnightblue" points="566.87,-85.08 575.89,-79.53 565.38,-78.24 566.87,-85.08"/>
</g>
<!-- Node6 -->
<g id="node6" class="node">
<title>Node6</title>
<g id="a_node6"><a xlink:href="../../d0/d94/classOmniboxViewViews.html#a81d025d1f692c96482925dfbab529691" target="_top" xlink:title=" ">
<polygon fill="white" stroke="black" points="373,-49.5 373,-79.5 517,-79.5 517,-49.5 373,-49.5"/>
<text text-anchor="start" x="381" y="-67.5" font-family="Helvetica,sans-Serif" font-size="10.00">OmniboxViewViews::OnAfter</text>
<text text-anchor="middle" x="445" y="-56.5" font-family="Helvetica,sans-Serif" font-size="10.00">UserAction</text>
</a>
</g>
</g>
<!-- Node4&#45;&gt;Node6 -->
<g id="edge5" class="edge">
<title>Node4&#45;&gt;Node6</title>
<path fill="none" stroke="midnightblue" d="M551.71,-64.5C540.16,-64.5 528.36,-64.5 517.03,-64.5"/>
<polygon fill="midnightblue" stroke="midnightblue" points="551.77,-68 561.77,-64.5 551.77,-61 551.77,-68"/>
</g>
<!-- Node7 -->
<g id="node7" class="node">
<title>Node7</title>
<g id="a_node7"><a xlink:href="../../d0/d94/classOmniboxViewViews.html#af593bb600ecfa2ed731497a260451b47" target="_top" xlink:title=" ">
<polygon fill="white" stroke="black" points="364,-0.5 364,-30.5 526,-30.5 526,-0.5 364,-0.5"/>
<text text-anchor="start" x="372" y="-18.5" font-family="Helvetica,sans-Serif" font-size="10.00">OmniboxViewViews::OnOmnibox</text>
<text text-anchor="middle" x="445" y="-7.5" font-family="Helvetica,sans-Serif" font-size="10.00">Paste</text>
</a>
</g>
</g>
<!-- Node4&#45;&gt;Node7 -->
<g id="edge6" class="edge">
<title>Node4&#45;&gt;Node7</title>
<path fill="none" stroke="midnightblue" d="M565.75,-46.88C545.29,-41.52 523,-35.68 503.27,-30.51"/>
<polygon fill="midnightblue" stroke="midnightblue" points="565.06,-50.32 575.62,-49.47 566.84,-43.54 565.06,-50.32"/>
</g>
<!-- Node8 -->
<g id="node8" class="node">
<title>Node8</title>
<g id="a_node8"><a xlink:href="../../d0/d94/classOmniboxViewViews.html#ae3ebda306ffa960bb7a3a1ebe7f7fc76" target="_top" xlink:title=" ">
<polygon fill="white" stroke="black" points="182,-11.5 182,-41.5 328,-41.5 328,-11.5 182,-11.5"/>
<text text-anchor="start" x="190" y="-29.5" font-family="Helvetica,sans-Serif" font-size="10.00">OmniboxViewViews::Execute</text>
<text text-anchor="middle" x="255" y="-18.5" font-family="Helvetica,sans-Serif" font-size="10.00">TextEditCommand</text>
</a>
</g>
</g>
<!-- Node7&#45;&gt;Node8 -->
<g id="edge7" class="edge">
<title>Node7&#45;&gt;Node8</title>
<path fill="none" stroke="midnightblue" d="M353.91,-20.77C345.28,-21.28 336.61,-21.78 328.19,-22.28"/>
<polygon fill="midnightblue" stroke="midnightblue" points="354.22,-24.26 364,-20.18 353.81,-17.27 354.22,-24.26"/>
</g>
<!-- Node8&#45;&gt;Node5 -->
<g id="edge8" class="edge">
<title>Node8&#45;&gt;Node5</title>
<path fill="none" stroke="midnightblue" d="M206.17,-45.37C176.75,-56.97 139.55,-71.64 112.12,-82.46"/>
<polygon fill="midnightblue" stroke="midnightblue" points="207.81,-48.48 215.83,-41.56 205.24,-41.97 207.81,-48.48"/>
</g>
<!-- Node9 -->
<g id="node9" class="node">
<title>Node9</title>
<g id="a_node9"><a xlink:href="../../d0/d94/classOmniboxViewViews.html#a5a64c1e16631c3301fb57307402784dc" target="_top" xlink:title=" ">
<polygon fill="white" stroke="black" points="2.5,-11.5 2.5,-41.5 143.5,-41.5 143.5,-11.5 2.5,-11.5"/>
<text text-anchor="start" x="10.5" y="-29.5" font-family="Helvetica,sans-Serif" font-size="10.00">OmniboxViewViews::Handle</text>
<text text-anchor="middle" x="73" y="-18.5" font-family="Helvetica,sans-Serif" font-size="10.00">KeyEvent</text>
</a>
</g>
</g>
<!-- Node8&#45;&gt;Node9 -->
<g id="edge9" class="edge">
<title>Node8&#45;&gt;Node9</title>
<path fill="none" stroke="midnightblue" d="M171.69,-26.5C162.29,-26.5 152.77,-26.5 143.56,-26.5"/>
<polygon fill="midnightblue" stroke="midnightblue" points="171.82,-30 181.82,-26.5 171.82,-23 171.82,-30"/>
</g>
</g>
</svg>
        <g id="navigator" transform="translate(0 0)" fill="#404254">
                <rect fill="#f2f5e9" fill-opacity="0.5" stroke="#606060" stroke-width=".5" x="0" y="0" width="60" height="60"/>
                <use id="zoomplus" xlink:href="#zoomPlus" x="17" y="9" onmousedown="handleZoom(evt,'in')"/>
                <use id="zoomminus" xlink:href="#zoomMin" x="42" y="9" onmousedown="handleZoom(evt,'out')"/>
                <use id="reset" xlink:href="#resetDef" x="30" y="36" onmousedown="handleReset()"/>
                <g id="arrowUp" xlink:href="#dirArrow" transform="translate(30 24)" onmousedown="handlePan(0,-1)">
                  <use xlink:href="#rim" fill="#404040">
                        <set attributeName="fill" to="#808080" begin="arrowUp.mouseover" end="arrowUp.mouseout"/>
                  </use>
                  <path fill="none" stroke="white" stroke-width="1.5" d="M0,-3.0v7 M-2.5,-0.5L0,-3.0L2.5,-0.5"/>
                </g>
                <g id="arrowRight" xlink:href="#dirArrow" transform="rotate(90) translate(36 -43)" onmousedown="handlePan(1,0)">
                  <use xlink:href="#rim" fill="#404040">
                        <set attributeName="fill" to="#808080" begin="arrowRight.mouseover" end="arrowRight.mouseout"/>
                  </use>
                  <path fill="none" stroke="white" stroke-width="1.5" d="M0,-3.0v7 M-2.5,-0.5L0,-3.0L2.5,-0.5"/>
                </g>
                <g id="arrowDown" xlink:href="#dirArrow" transform="rotate(180) translate(-30 -48)" onmousedown="handlePan(0,1)">
                  <use xlink:href="#rim" fill="#404040">
                        <set attributeName="fill" to="#808080" begin="arrowDown.mouseover" end="arrowDown.mouseout"/>
                  </use>
                  <path fill="none" stroke="white" stroke-width="1.5" d="M0,-3.0v7 M-2.5,-0.5L0,-3.0L2.5,-0.5"/>
                </g>
                <g id="arrowLeft" xlink:href="#dirArrow" transform="rotate(270) translate(-36 17)" onmousedown="handlePan(-1,0)">
                  <use xlink:href="#rim" fill="#404040">
                        <set attributeName="fill" to="#808080" begin="arrowLeft.mouseover" end="arrowLeft.mouseout"/>
                  </use>
                  <path fill="none" stroke="white" stroke-width="1.5" d="M0,-3.0v7 M-2.5,-0.5L0,-3.0L2.5,-0.5"/>
                </g>
        </g>
        <svg viewBox="0 0 15 15" width="100%" height="30px" preserveAspectRatio="xMaxYMin meet">
         <g id="arrow_out" transform="scale(0.3 0.3)">
          <a xlink:href="classOmniboxEditModel_aabb0bc08c67a7602b8015f402514b856_icgraph_org.svg" target="_base">
           <rect id="button" ry="5" rx="5" y="6" x="6" height="38" width="38"
                fill="#f2f5e9" fill-opacity="0.5" stroke="#606060" stroke-width="1.0"/>
           <path id="arrow"
             d="M 11.500037,31.436501 C 11.940474,20.09759 22.043105,11.32322 32.158766,21.979434 L 37.068811,17.246167 C 37.068811,17.246167 37.088388,32 37.088388,32 L 22.160133,31.978069 C 22.160133,31.978069 26.997745,27.140456 26.997745,27.140456 C 18.528582,18.264221 13.291696,25.230495 11.500037,31.436501 z"
             style="fill:#404040;"/>
          </a>
         </g>
        </svg>
</svg>
