<?xml version="1.0" encoding="UTF-8" standalone="no"?>
<!DOCTYPE svg PUBLIC "-//W3C//DTD SVG 1.1//EN"
 "http://www.w3.org/Graphics/SVG/1.1/DTD/svg11.dtd">
<!-- Generated by graphviz version 2.43.0 (0)
 -->
<!-- Title: OmniboxEditModel::OnChanged Pages: 1 -->
<!--zoomable 768 -->
<svg id="main" version="1.1" xmlns="http://www.w3.org/2000/svg" xmlns:xlink="http://www.w3.org/1999/xlink" xml:space="preserve" onload="init(evt)">
<style type="text/css"><![CDATA[
.edge:hover path { stroke: red; }
.edge:hover polygon { stroke: red; fill: red; }
]]></style>
<script type="text/javascript"><![CDATA[
var edges = document.getElementsByTagName('g');
if (edges && edges.length) {
  for (var i=0;i<edges.length;i++) {
    if (edges[i].id.substr(0,4)=='edge') {
      edges[i].setAttribute('class','edge');
    }
  }
}
]]></script>
        <defs>
                <circle id="rim" cx="0" cy="0" r="7"/>
                <circle id="rim2" cx="0" cy="0" r="3.5"/>
                <g id="zoomPlus">
                        <use xlink:href="#rim" fill="#404040">
                                <set attributeName="fill" to="#808080" begin="zoomplus.mouseover" end="zoomplus.mouseout"/>
                        </use>
                        <path d="M-4,0h8M0,-4v8" fill="none" stroke="white" stroke-width="1.5" pointer-events="none"/>
                </g>
                <g id="zoomMin">
                        <use xlink:href="#rim" fill="#404040">
                                <set attributeName="fill" to="#808080" begin="zoomminus.mouseover" end="zoomminus.mouseout"/>
                        </use>
                        <path d="M-4,0h8" fill="none" stroke="white" stroke-width="1.5" pointer-events="none"/>
                </g>
                <g id="dirArrow">
                        <path fill="none" stroke="white" stroke-width="1.5" d="M0,-3.0v7 M-2.5,-0.5L0,-3.0L2.5,-0.5"/>
                </g>
               <g id="resetDef">
                       <use xlink:href="#rim2" fill="#404040">
                               <set attributeName="fill" to="#808080" begin="reset.mouseover" end="reset.mouseout"/>
                       </use>
               </g>
        </defs>

<script type="text/javascript">
var viewWidth = 1080;
var viewHeight = 768;
var sectionId = 'dynsection-83';
</script>
<script xlink:href="../../svgpan.js"/>
<svg id="graph" class="graph">
<g id="viewport">
<title>OmniboxEditModel::OnChanged</title>
<polygon fill="white" stroke="transparent" points="-4,4 -4,-763.5 1076,-763.5 1076,4 -4,4"/>
<!-- Node1 -->
<g id="node1" class="node">
<title>Node1</title>
<g id="a_node1"><a xlink:title=" ">
<polygon fill="#bfbfbf" stroke="black" points="0,-388.5 0,-407.5 157,-407.5 157,-388.5 0,-388.5"/>
<text text-anchor="middle" x="78.5" y="-395.5" font-family="Helvetica,sans-Serif" font-size="10.00">OmniboxEditModel::OnChanged</text>
</a>
</g>
</g>
<!-- Node2 -->
<g id="node2" class="node">
<title>Node2</title>
<g id="a_node2"><a xlink:href="../../d0/d22/classOmniboxEditModel.html#a8fcc92f2543e50522f9e297ef4988e90" target="_top" xlink:title=" ">
<polygon fill="white" stroke="black" points="193,-408 193,-438 330,-438 330,-408 193,-408"/>
<text text-anchor="start" x="201" y="-426" font-family="Helvetica,sans-Serif" font-size="10.00">OmniboxEditModel::Current</text>
<text text-anchor="middle" x="261.5" y="-415" font-family="Helvetica,sans-Serif" font-size="10.00">Match</text>
</a>
</g>
</g>
<!-- Node1&#45;&gt;Node2 -->
<g id="edge1" class="edge">
<title>Node1&#45;&gt;Node2</title>
<path fill="none" stroke="midnightblue" d="M148.44,-407.52C159.73,-409.08 171.48,-410.7 182.95,-412.29"/>
<polygon fill="midnightblue" stroke="midnightblue" points="182.56,-415.77 192.94,-413.67 183.52,-408.83 182.56,-415.77"/>
</g>
<!-- Node22 -->
<g id="node22" class="node">
<title>Node22</title>
<g id="a_node22"><a xlink:href="../../d0/d22/classOmniboxEditModel.html#ad945a332660c6122dc25b93c1eee76d8" target="_top" xlink:title=" ">
<polygon fill="white" stroke="black" points="762.5,-577.5 762.5,-596.5 891.5,-596.5 891.5,-577.5 762.5,-577.5"/>
<text text-anchor="middle" x="827" y="-584.5" font-family="Helvetica,sans-Serif" font-size="10.00">OmniboxEditModel::result</text>
</a>
</g>
</g>
<!-- Node1&#45;&gt;Node22 -->
<g id="edge37" class="edge">
<title>Node1&#45;&gt;Node22</title>
<path fill="none" stroke="midnightblue" d="M91.27,-407.69C141.29,-448.14 342.64,-603.82 539,-655 612.11,-674.06 636.05,-674.66 709,-655 746.45,-644.91 784.25,-619.55 806.38,-602.82"/>
<polygon fill="midnightblue" stroke="midnightblue" points="808.56,-605.56 814.33,-596.67 804.28,-600.02 808.56,-605.56"/>
</g>
<!-- Node31 -->
<g id="node31" class="node">
<title>Node31</title>
<g id="a_node31"><a xlink:href="../../d0/d22/classOmniboxEditModel.html#ad400d2b658923ae65071a8f960946550" target="_top" xlink:title=" ">
<polygon fill="white" stroke="black" points="201,-359 201,-389 322,-389 322,-359 201,-359"/>
<text text-anchor="start" x="209" y="-377" font-family="Helvetica,sans-Serif" font-size="10.00">OmniboxEditModel::has</text>
<text text-anchor="middle" x="261.5" y="-366" font-family="Helvetica,sans-Serif" font-size="10.00">_focus</text>
</a>
</g>
</g>
<!-- Node1&#45;&gt;Node31 -->
<g id="edge35" class="edge">
<title>Node1&#45;&gt;Node31</title>
<path fill="none" stroke="midnightblue" d="M151.3,-388.48C164.22,-386.77 177.68,-384.98 190.56,-383.27"/>
<polygon fill="midnightblue" stroke="midnightblue" points="191.28,-386.71 200.74,-381.92 190.36,-379.77 191.28,-386.71"/>
</g>
<!-- Node32 -->
<g id="node32" class="node">
<title>Node32</title>
<g id="a_node32"><a xlink:href="../../dc/d81/classOmniboxEditController.html#a9b815eea7aef1420480366289ace0684" target="_top" xlink:title=" ">
<polygon fill="white" stroke="black" points="204,-310 204,-340 319,-340 319,-310 204,-310"/>
<text text-anchor="start" x="212" y="-328" font-family="Helvetica,sans-Serif" font-size="10.00">OmniboxEditController</text>
<text text-anchor="middle" x="261.5" y="-317" font-family="Helvetica,sans-Serif" font-size="10.00">::OnChanged</text>
</a>
</g>
</g>
<!-- Node1&#45;&gt;Node32 -->
<g id="edge36" class="edge">
<title>Node1&#45;&gt;Node32</title>
<path fill="none" stroke="midnightblue" d="M100.66,-388.37C123.33,-378.17 160.44,-361.8 193,-349 197.54,-347.22 202.26,-345.42 207.02,-343.65"/>
<polygon fill="midnightblue" stroke="midnightblue" points="208.59,-346.8 216.77,-340.07 206.18,-340.23 208.59,-346.8"/>
</g>
<!-- Node3 -->
<g id="node3" class="node">
<title>Node3</title>
<g id="a_node3"><a xlink:href="../../d3/d03/classAutocompleteResult.html#af09ffe15397e43cf992488963187189b" target="_top" xlink:title=" ">
<polygon fill="white" stroke="black" points="558,-137 558,-167 690,-167 690,-137 558,-137"/>
<text text-anchor="start" x="566" y="-155" font-family="Helvetica,sans-Serif" font-size="10.00">AutocompleteResult</text>
<text text-anchor="middle" x="624" y="-144" font-family="Helvetica,sans-Serif" font-size="10.00">::ComputeAlternateNavUrl</text>
</a>
</g>
</g>
<!-- Node2&#45;&gt;Node3 -->
<g id="edge2" class="edge">
<title>Node2&#45;&gt;Node3</title>
<path fill="none" stroke="midnightblue" d="M311.36,-407.94C317.86,-405.07 324.25,-401.77 330,-398 442.23,-324.38 425.57,-251.76 539,-180 544.29,-176.66 550.01,-173.67 555.91,-171.01"/>
<polygon fill="midnightblue" stroke="midnightblue" points="557.4,-174.18 565.27,-167.09 554.69,-167.72 557.4,-174.18"/>
</g>
<!-- Node10 -->
<g id="node10" class="node">
<title>Node10</title>
<g id="a_node10"><a xlink:href="../../d0/d22/classOmniboxEditModel.html#a5265a894f111d9204716d40e142e2645" target="_top" xlink:title=" ">
<polygon fill="white" stroke="black" points="366,-408 366,-438 503,-438 503,-408 366,-408"/>
<text text-anchor="start" x="374" y="-426" font-family="Helvetica,sans-Serif" font-size="10.00">OmniboxEditModel::GetInfo</text>
<text text-anchor="middle" x="434.5" y="-415" font-family="Helvetica,sans-Serif" font-size="10.00">ForCurrentText</text>
</a>
</g>
</g>
<!-- Node2&#45;&gt;Node10 -->
<g id="edge9" class="edge">
<title>Node2&#45;&gt;Node10</title>
<path fill="none" stroke="midnightblue" d="M330.08,-423C338.54,-423 347.24,-423 355.83,-423"/>
<polygon fill="midnightblue" stroke="midnightblue" points="355.85,-426.5 365.85,-423 355.85,-419.5 355.85,-426.5"/>
</g>
<!-- Node4 -->
<g id="node4" class="node">
<title>Node4</title>
<g id="a_node4"><a xlink:href="../../d9/df6/classAutocompleteInput.html#a419d05e14c86f18c137fbb4057fedb04" target="_top" xlink:title=" ">
<polygon fill="white" stroke="black" points="775,-186 775,-216 879,-216 879,-186 775,-186"/>
<text text-anchor="start" x="783" y="-204" font-family="Helvetica,sans-Serif" font-size="10.00">AutocompleteInput::</text>
<text text-anchor="middle" x="827" y="-193" font-family="Helvetica,sans-Serif" font-size="10.00">canonicalized_url</text>
</a>
</g>
</g>
<!-- Node3&#45;&gt;Node4 -->
<g id="edge3" class="edge">
<title>Node3&#45;&gt;Node4</title>
<path fill="none" stroke="midnightblue" d="M686.67,-167.03C711.52,-173.09 740.11,-180.06 764.9,-186.11"/>
<polygon fill="midnightblue" stroke="midnightblue" points="764.37,-189.58 774.92,-188.55 766.03,-182.78 764.37,-189.58"/>
</g>
<!-- Node5 -->
<g id="node5" class="node">
<title>Node5</title>
<g id="a_node5"><a xlink:href="../../d4/d19/namespaceomnibox.html#acabb493ed3d3ef334b91f977a3f954ef" target="_top" xlink:title=" ">
<polygon fill="white" stroke="black" points="764,-137 764,-167 890,-167 890,-137 764,-137"/>
<text text-anchor="start" x="772" y="-155" font-family="Helvetica,sans-Serif" font-size="10.00">omnibox::GetInterception</text>
<text text-anchor="middle" x="827" y="-144" font-family="Helvetica,sans-Serif" font-size="10.00">ChecksBehavior</text>
</a>
</g>
</g>
<!-- Node3&#45;&gt;Node5 -->
<g id="edge4" class="edge">
<title>Node3&#45;&gt;Node5</title>
<path fill="none" stroke="midnightblue" d="M690.26,-152C710.55,-152 733.04,-152 753.78,-152"/>
<polygon fill="midnightblue" stroke="midnightblue" points="753.8,-155.5 763.8,-152 753.8,-148.5 753.8,-155.5"/>
</g>
<!-- Node6 -->
<g id="node6" class="node">
<title>Node6</title>
<g id="a_node6"><a xlink:href="../../d5/dc7/classAutocompleteProviderClient.html#a39fb65fe5ac8de4439f41335bde2a3f5" target="_top" xlink:title=" ">
<polygon fill="white" stroke="black" points="758,-88 758,-118 896,-118 896,-88 758,-88"/>
<text text-anchor="start" x="766" y="-106" font-family="Helvetica,sans-Serif" font-size="10.00">AutocompleteProviderClient</text>
<text text-anchor="middle" x="827" y="-95" font-family="Helvetica,sans-Serif" font-size="10.00">::GetLocalState</text>
</a>
</g>
</g>
<!-- Node3&#45;&gt;Node6 -->
<g id="edge5" class="edge">
<title>Node3&#45;&gt;Node6</title>
<path fill="none" stroke="midnightblue" d="M686.67,-136.97C708.09,-131.74 732.28,-125.85 754.43,-120.45"/>
<polygon fill="midnightblue" stroke="midnightblue" points="755.56,-123.78 764.44,-118.01 753.9,-116.97 755.56,-123.78"/>
</g>
<!-- Node7 -->
<g id="node7" class="node">
<title>Node7</title>
<g id="a_node7"><a xlink:href="../../dc/d8f/structAutocompleteMatch.html#a2995f802114ff701b5d6e037fb3019b3" target="_top" xlink:title=" ">
<polygon fill="white" stroke="black" points="772,-39 772,-69 882,-69 882,-39 772,-39"/>
<text text-anchor="start" x="780" y="-57" font-family="Helvetica,sans-Serif" font-size="10.00">AutocompleteMatch::</text>
<text text-anchor="middle" x="827" y="-46" font-family="Helvetica,sans-Serif" font-size="10.00">IsSearchType</text>
</a>
</g>
</g>
<!-- Node3&#45;&gt;Node7 -->
<g id="edge6" class="edge">
<title>Node3&#45;&gt;Node7</title>
<path fill="none" stroke="midnightblue" d="M645.73,-136.84C668.94,-120.46 708.13,-94.48 745,-78 750.4,-75.58 756.12,-73.33 761.91,-71.26"/>
<polygon fill="midnightblue" stroke="midnightblue" points="763.35,-74.46 771.69,-67.93 761.09,-67.84 763.35,-74.46"/>
</g>
<!-- Node9 -->
<g id="node9" class="node">
<title>Node9</title>
<g id="a_node9"><a xlink:href="../../d9/df6/classAutocompleteInput.html#a5d6111d5ac18400cdf809820dfab9ab0" target="_top" xlink:title=" ">
<polygon fill="white" stroke="black" points="765.5,-0.5 765.5,-19.5 888.5,-19.5 888.5,-0.5 765.5,-0.5"/>
<text text-anchor="middle" x="827" y="-7.5" font-family="Helvetica,sans-Serif" font-size="10.00">AutocompleteInput::type</text>
</a>
</g>
</g>
<!-- Node3&#45;&gt;Node9 -->
<g id="edge8" class="edge">
<title>Node3&#45;&gt;Node9</title>
<path fill="none" stroke="midnightblue" d="M635.27,-136.83C653.89,-110.56 695.9,-56.73 745,-29 749,-26.74 753.25,-24.75 757.64,-23"/>
<polygon fill="midnightblue" stroke="midnightblue" points="759.16,-26.17 767.4,-19.52 756.81,-19.58 759.16,-26.17"/>
</g>
<!-- Node8 -->
<g id="node8" class="node">
<title>Node8</title>
<g id="a_node8"><a xlink:href="../../dc/d8f/structAutocompleteMatch.html#aaca5dac30caf1899132db064a3213d9e" target="_top" xlink:title=" ">
<polygon fill="white" stroke="black" points="945,-39 945,-69 1072,-69 1072,-39 945,-39"/>
<text text-anchor="start" x="953" y="-57" font-family="Helvetica,sans-Serif" font-size="10.00">AutocompleteMatch::</text>
<text text-anchor="middle" x="1008.5" y="-46" font-family="Helvetica,sans-Serif" font-size="10.00">IsSpecializedSearchType</text>
</a>
</g>
</g>
<!-- Node7&#45;&gt;Node8 -->
<g id="edge7" class="edge">
<title>Node7&#45;&gt;Node8</title>
<path fill="none" stroke="midnightblue" d="M882.34,-54C898.82,-54 917.19,-54 934.67,-54"/>
<polygon fill="midnightblue" stroke="midnightblue" points="934.84,-57.5 944.84,-54 934.84,-50.5 934.84,-57.5"/>
</g>
<!-- Node10&#45;&gt;Node3 -->
<g id="edge10" class="edge">
<title>Node10&#45;&gt;Node3</title>
<path fill="none" stroke="midnightblue" d="M443.31,-407.89C456.44,-382.19 483.45,-328.15 503,-281 521.25,-236.98 504.96,-213.35 539,-180 542.03,-177.04 545.38,-174.38 548.94,-172.01"/>
<polygon fill="midnightblue" stroke="midnightblue" points="550.72,-175.03 557.61,-166.98 547.2,-168.98 550.72,-175.03"/>
</g>
<!-- Node11 -->
<g id="node11" class="node">
<title>Node11</title>
<g id="a_node11"><a xlink:href="../../d3/d03/classAutocompleteResult.html#a41fc37ec73816fce3ea244e3401aac5b" target="_top" xlink:title=" ">
<polygon fill="white" stroke="black" points="774.5,-524 774.5,-554 879.5,-554 879.5,-524 774.5,-524"/>
<text text-anchor="start" x="782.5" y="-542" font-family="Helvetica,sans-Serif" font-size="10.00">AutocompleteResult</text>
<text text-anchor="middle" x="827" y="-531" font-family="Helvetica,sans-Serif" font-size="10.00">::default_match</text>
</a>
</g>
</g>
<!-- Node10&#45;&gt;Node11 -->
<g id="edge11" class="edge">
<title>Node10&#45;&gt;Node11</title>
<path fill="none" stroke="midnightblue" d="M444.67,-438.1C460.43,-462.47 495.24,-509.66 539,-529 611.32,-560.95 704.16,-557.16 764.36,-549.64"/>
<polygon fill="midnightblue" stroke="midnightblue" points="765.01,-553.09 774.47,-548.31 764.1,-546.15 765.01,-553.09"/>
</g>
<!-- Node14 -->
<g id="node14" class="node">
<title>Node14</title>
<g id="a_node14"><a xlink:href="../../d0/d22/classOmniboxEditModel.html#a95286d7e003516065267f306a6cb1965" target="_top" xlink:title=" ">
<polygon fill="white" stroke="black" points="552.5,-364 552.5,-394 695.5,-394 695.5,-364 552.5,-364"/>
<text text-anchor="start" x="560.5" y="-382" font-family="Helvetica,sans-Serif" font-size="10.00">OmniboxEditModel::GetPage</text>
<text text-anchor="middle" x="624" y="-371" font-family="Helvetica,sans-Serif" font-size="10.00">Classification</text>
</a>
</g>
</g>
<!-- Node10&#45;&gt;Node14 -->
<g id="edge14" class="edge">
<title>Node10&#45;&gt;Node14</title>
<path fill="none" stroke="midnightblue" d="M499.5,-407.98C515.4,-404.25 532.58,-400.22 548.92,-396.38"/>
<polygon fill="midnightblue" stroke="midnightblue" points="550.03,-399.72 558.97,-394.03 548.43,-392.9 550.03,-399.72"/>
</g>
<!-- Node18 -->
<g id="node18" class="node">
<title>Node18</title>
<g id="a_node18"><a xlink:href="../../d0/d22/classOmniboxEditModel.html#afca096faf219ac7be1bf9251466648a7" target="_top" xlink:title=" ">
<polygon fill="white" stroke="black" points="752.5,-467 752.5,-497 901.5,-497 901.5,-467 752.5,-467"/>
<text text-anchor="start" x="760.5" y="-485" font-family="Helvetica,sans-Serif" font-size="10.00">OmniboxEditModel::GetPopup</text>
<text text-anchor="middle" x="827" y="-474" font-family="Helvetica,sans-Serif" font-size="10.00">Selection</text>
</a>
</g>
</g>
<!-- Node10&#45;&gt;Node18 -->
<g id="edge18" class="edge">
<title>Node10&#45;&gt;Node18</title>
<path fill="none" stroke="midnightblue" d="M503.07,-435.84C515.03,-437.98 527.37,-440.12 539,-442 607.29,-453.02 685.01,-463.74 742.34,-471.31"/>
<polygon fill="midnightblue" stroke="midnightblue" points="742.06,-474.8 752.44,-472.63 742.98,-467.86 742.06,-474.8"/>
</g>
<!-- Node19 -->
<g id="node19" class="node">
<title>Node19</title>
<g id="a_node19"><a xlink:href="../../d9/d1e/classOmniboxView.html#a3dff0d042c74b0e8cb080e6bac15c8f9" target="_top" xlink:title=" ">
<polygon fill="white" stroke="black" points="565,-413.5 565,-432.5 683,-432.5 683,-413.5 565,-413.5"/>
<text text-anchor="middle" x="624" y="-420.5" font-family="Helvetica,sans-Serif" font-size="10.00">OmniboxView::GetText</text>
</a>
</g>
</g>
<!-- Node10&#45;&gt;Node19 -->
<g id="edge19" class="edge">
<title>Node10&#45;&gt;Node19</title>
<path fill="none" stroke="midnightblue" d="M503.19,-423C519.87,-423 537.74,-423 554.46,-423"/>
<polygon fill="midnightblue" stroke="midnightblue" points="554.7,-426.5 564.7,-423 554.7,-419.5 554.7,-426.5"/>
</g>
<!-- Node20 -->
<g id="node20" class="node">
<title>Node20</title>
<g id="a_node20"><a xlink:href="../../d0/d22/classOmniboxEditModel.html#a0a13d5acf2a89532b46249c91cecb04b" target="_top" xlink:title=" ">
<polygon fill="white" stroke="black" points="770.5,-274 770.5,-304 883.5,-304 883.5,-274 770.5,-274"/>
<text text-anchor="start" x="778.5" y="-292" font-family="Helvetica,sans-Serif" font-size="10.00">OmniboxEditModel::is</text>
<text text-anchor="middle" x="827" y="-281" font-family="Helvetica,sans-Serif" font-size="10.00">_keyword_selected</text>
</a>
</g>
</g>
<!-- Node10&#45;&gt;Node20 -->
<g id="edge20" class="edge">
<title>Node10&#45;&gt;Node20</title>
<path fill="none" stroke="midnightblue" d="M439.48,-407.81C449.46,-373.28 479.1,-289.35 539,-256 605.01,-219.25 634.16,-245.65 709,-256 720.75,-257.63 744.75,-264.19 767.97,-271.04"/>
<polygon fill="midnightblue" stroke="midnightblue" points="767.26,-274.48 777.84,-273.98 769.25,-267.77 767.26,-274.48"/>
</g>
<!-- Node21 -->
<g id="node21" class="node">
<title>Node21</title>
<g id="a_node21"><a xlink:href="../../d0/d22/classOmniboxEditModel.html#ab6b5c2d1d04d4b9c28287fecb627761c" target="_top" xlink:title=" ">
<polygon fill="white" stroke="black" points="553.5,-490 553.5,-520 694.5,-520 694.5,-490 553.5,-490"/>
<text text-anchor="start" x="561.5" y="-508" font-family="Helvetica,sans-Serif" font-size="10.00">OmniboxEditModel::IsPopup</text>
<text text-anchor="middle" x="624" y="-497" font-family="Helvetica,sans-Serif" font-size="10.00">SelectionOnInitialLine</text>
</a>
</g>
</g>
<!-- Node10&#45;&gt;Node21 -->
<g id="edge21" class="edge">
<title>Node10&#45;&gt;Node21</title>
<path fill="none" stroke="midnightblue" d="M463.18,-438.07C483.77,-449 512.75,-463.77 539,-475 548.29,-478.97 558.3,-482.87 568.06,-486.47"/>
<polygon fill="midnightblue" stroke="midnightblue" points="567.11,-489.85 577.7,-489.97 569.5,-483.27 567.11,-489.85"/>
</g>
<!-- Node10&#45;&gt;Node22 -->
<g id="edge33" class="edge">
<title>Node10&#45;&gt;Node22</title>
<path fill="none" stroke="midnightblue" d="M442.26,-438.2C455.9,-466.87 489.68,-528.51 539,-556 604.38,-592.45 691.16,-596.92 752.12,-594.32"/>
<polygon fill="midnightblue" stroke="midnightblue" points="752.62,-597.8 762.43,-593.8 752.27,-590.81 752.62,-597.8"/>
</g>
<!-- Node23 -->
<g id="node23" class="node">
<title>Node23</title>
<g id="a_node23"><a xlink:href="../../d3/d03/classAutocompleteResult.html#a1532251921e2112a24e3a52ec7ee4535" target="_top" xlink:title=" ">
<polygon fill="white" stroke="black" points="571.5,-266 571.5,-296 676.5,-296 676.5,-266 571.5,-266"/>
<text text-anchor="start" x="579.5" y="-284" font-family="Helvetica,sans-Serif" font-size="10.00">AutocompleteResult</text>
<text text-anchor="middle" x="624" y="-273" font-family="Helvetica,sans-Serif" font-size="10.00">::match_at</text>
</a>
</g>
</g>
<!-- Node10&#45;&gt;Node23 -->
<g id="edge25" class="edge">
<title>Node10&#45;&gt;Node23</title>
<path fill="none" stroke="midnightblue" d="M444.62,-407.85C460.57,-382.66 495.95,-332.26 539,-305 545.92,-300.62 553.67,-297.01 561.57,-294.06"/>
<polygon fill="midnightblue" stroke="midnightblue" points="562.92,-297.3 571.26,-290.76 560.66,-290.67 562.92,-297.3"/>
</g>
<!-- Node24 -->
<g id="node24" class="node">
<title>Node24</title>
<g id="a_node24"><a xlink:href="../../d0/d22/classOmniboxEditModel.html#a1599022fe3ededfff77ed2dc41ceb73a" target="_top" xlink:title=" ">
<polygon fill="white" stroke="black" points="539,-315 539,-345 709,-345 709,-315 539,-315"/>
<text text-anchor="start" x="547" y="-333" font-family="Helvetica,sans-Serif" font-size="10.00">OmniboxEditModel::MaybePrepend</text>
<text text-anchor="middle" x="624" y="-322" font-family="Helvetica,sans-Serif" font-size="10.00">Keyword</text>
</a>
</g>
</g>
<!-- Node10&#45;&gt;Node24 -->
<g id="edge26" class="edge">
<title>Node10&#45;&gt;Node24</title>
<path fill="none" stroke="midnightblue" d="M454.27,-407.86C474.23,-392.42 507.25,-368.68 539,-354 543.14,-352.09 547.46,-350.29 551.87,-348.61"/>
<polygon fill="midnightblue" stroke="midnightblue" points="553.39,-351.79 561.63,-345.13 551.03,-345.2 553.39,-351.79"/>
</g>
<!-- Node25 -->
<g id="node25" class="node">
<title>Node25</title>
<g id="a_node25"><a xlink:href="../../d0/d22/classOmniboxEditModel.html#a67fe900511cae558a9585411c98b36c6" target="_top" xlink:title=" ">
<polygon fill="white" stroke="black" points="542,-189.5 542,-208.5 706,-208.5 706,-189.5 542,-189.5"/>
<text text-anchor="middle" x="624" y="-196.5" font-family="Helvetica,sans-Serif" font-size="10.00">OmniboxEditModel::PopupIsOpen</text>
</a>
</g>
</g>
<!-- Node10&#45;&gt;Node25 -->
<g id="edge28" class="edge">
<title>Node10&#45;&gt;Node25</title>
<path fill="none" stroke="midnightblue" d="M442.49,-407.84C463.08,-363.46 523.04,-236.06 539,-223 544.21,-218.74 550.13,-215.24 556.36,-212.35"/>
<polygon fill="midnightblue" stroke="midnightblue" points="557.73,-215.58 565.67,-208.56 555.09,-209.09 557.73,-215.58"/>
</g>
<!-- Node27 -->
<g id="node27" class="node">
<title>Node27</title>
<g id="a_node27"><a xlink:href="../../d0/d22/classOmniboxEditModel.html#a34c6312cf87698170164370251851aea" target="_top" xlink:title=" ">
<polygon fill="white" stroke="black" points="559.5,-704 559.5,-734 688.5,-734 688.5,-704 559.5,-704"/>
<text text-anchor="start" x="567.5" y="-722" font-family="Helvetica,sans-Serif" font-size="10.00">OmniboxEditModel::query</text>
<text text-anchor="middle" x="624" y="-711" font-family="Helvetica,sans-Serif" font-size="10.00">_in_progress</text>
</a>
</g>
</g>
<!-- Node10&#45;&gt;Node27 -->
<g id="edge30" class="edge">
<title>Node10&#45;&gt;Node27</title>
<path fill="none" stroke="midnightblue" d="M439.43,-438.23C450.11,-477.47 482.74,-583.94 539,-655 552.57,-672.14 571.72,-687.19 588.3,-698.39"/>
<polygon fill="midnightblue" stroke="midnightblue" points="586.42,-701.34 596.7,-703.88 590.25,-695.48 586.42,-701.34"/>
</g>
<!-- Node30 -->
<g id="node30" class="node">
<title>Node30</title>
<g id="a_node30"><a xlink:href="../../d0/d22/classOmniboxEditModel.html#aa6151d568130ae55c72d762fb62bd87c" target="_top" xlink:title=" ">
<polygon fill="white" stroke="black" points="562,-616 562,-646 686,-646 686,-616 562,-616"/>
<text text-anchor="start" x="570" y="-634" font-family="Helvetica,sans-Serif" font-size="10.00">OmniboxEditModel::user</text>
<text text-anchor="middle" x="624" y="-623" font-family="Helvetica,sans-Serif" font-size="10.00">_input_in_progress</text>
</a>
</g>
</g>
<!-- Node10&#45;&gt;Node30 -->
<g id="edge34" class="edge">
<title>Node10&#45;&gt;Node30</title>
<path fill="none" stroke="midnightblue" d="M440.21,-438.01C451.62,-471.95 483.89,-555.18 539,-601 543.65,-604.87 548.84,-608.26 554.3,-611.22"/>
<polygon fill="midnightblue" stroke="midnightblue" points="553.16,-614.56 563.68,-615.81 556.24,-608.27 553.16,-614.56"/>
</g>
<!-- Node12 -->
<g id="node12" class="node">
<title>Node12</title>
<g id="a_node12"><a xlink:href="../../d3/d03/classAutocompleteResult.html#a4246a4276fdd2b4f5560cd45fa527d28" target="_top" xlink:title=" ">
<polygon fill="white" stroke="black" points="956,-502 956,-532 1061,-532 1061,-502 956,-502"/>
<text text-anchor="start" x="964" y="-520" font-family="Helvetica,sans-Serif" font-size="10.00">AutocompleteResult</text>
<text text-anchor="middle" x="1008.5" y="-509" font-family="Helvetica,sans-Serif" font-size="10.00">::begin</text>
</a>
</g>
</g>
<!-- Node11&#45;&gt;Node12 -->
<g id="edge12" class="edge">
<title>Node11&#45;&gt;Node12</title>
<path fill="none" stroke="midnightblue" d="M879.92,-532.64C900.48,-530.12 924.28,-527.2 945.71,-524.57"/>
<polygon fill="midnightblue" stroke="midnightblue" points="946.2,-528.04 955.7,-523.35 945.35,-521.09 946.2,-528.04"/>
</g>
<!-- Node13 -->
<g id="node13" class="node">
<title>Node13</title>
<g id="a_node13"><a xlink:href="../../d3/d03/classAutocompleteResult.html#a5545641c5c0d9473bccf85e267f44b58" target="_top" xlink:title=" ">
<polygon fill="white" stroke="black" points="945,-551.5 945,-570.5 1072,-570.5 1072,-551.5 945,-551.5"/>
<text text-anchor="middle" x="1008.5" y="-558.5" font-family="Helvetica,sans-Serif" font-size="10.00">AutocompleteResult::end</text>
</a>
</g>
</g>
<!-- Node11&#45;&gt;Node13 -->
<g id="edge13" class="edge">
<title>Node11&#45;&gt;Node13</title>
<path fill="none" stroke="midnightblue" d="M879.92,-545.36C897.04,-547.46 916.41,-549.84 934.8,-552.09"/>
<polygon fill="midnightblue" stroke="midnightblue" points="934.53,-555.58 944.89,-553.33 935.39,-548.64 934.53,-555.58"/>
</g>
<!-- Node15 -->
<g id="node15" class="node">
<title>Node15</title>
<g id="a_node15"><a xlink:href="../../d0/d22/classOmniboxEditModel.html#ad4c23db832a06ca44fb769a87cebd6e9" target="_top" xlink:title=" ">
<polygon fill="white" stroke="black" points="754.5,-372.5 754.5,-391.5 899.5,-391.5 899.5,-372.5 754.5,-372.5"/>
<text text-anchor="middle" x="827" y="-379.5" font-family="Helvetica,sans-Serif" font-size="10.00">OmniboxEditModel::controller</text>
</a>
</g>
</g>
<!-- Node14&#45;&gt;Node15 -->
<g id="edge15" class="edge">
<title>Node14&#45;&gt;Node15</title>
<path fill="none" stroke="midnightblue" d="M695.58,-380.05C711.17,-380.29 727.82,-380.53 743.82,-380.77"/>
<polygon fill="midnightblue" stroke="midnightblue" points="744.18,-384.28 754.23,-380.93 744.28,-377.28 744.18,-384.28"/>
</g>
<!-- Node16 -->
<g id="node16" class="node">
<title>Node16</title>
<g id="a_node16"><a xlink:href="../../dc/d81/classOmniboxEditController.html#af0496738d6b2b60045f04a52c8b015cb" target="_top" xlink:title=" ">
<polygon fill="white" stroke="black" points="769,-323 769,-353 885,-353 885,-323 769,-323"/>
<text text-anchor="start" x="777" y="-341" font-family="Helvetica,sans-Serif" font-size="10.00">OmniboxEditController</text>
<text text-anchor="middle" x="827" y="-330" font-family="Helvetica,sans-Serif" font-size="10.00">::GetLocationBarModel</text>
</a>
</g>
</g>
<!-- Node14&#45;&gt;Node16 -->
<g id="edge16" class="edge">
<title>Node14&#45;&gt;Node16</title>
<path fill="none" stroke="midnightblue" d="M695.58,-364.6C716.19,-360.4 738.65,-355.82 759.02,-351.66"/>
<polygon fill="midnightblue" stroke="midnightblue" points="759.75,-355.09 768.84,-349.66 758.35,-348.23 759.75,-355.09"/>
</g>
<!-- Node17 -->
<g id="node17" class="node">
<title>Node17</title>
<g id="a_node17"><a xlink:href="../../d1/d62/classLocationBarModel.html#a5fa3590a5fd5c3db742dd05adb55cc8a" target="_top" xlink:title=" ">
<polygon fill="white" stroke="black" points="757.5,-411 757.5,-441 896.5,-441 896.5,-411 757.5,-411"/>
<text text-anchor="start" x="765.5" y="-429" font-family="Helvetica,sans-Serif" font-size="10.00">LocationBarModel::GetPage</text>
<text text-anchor="middle" x="827" y="-418" font-family="Helvetica,sans-Serif" font-size="10.00">Classification</text>
</a>
</g>
</g>
<!-- Node14&#45;&gt;Node17 -->
<g id="edge17" class="edge">
<title>Node14&#45;&gt;Node17</title>
<path fill="none" stroke="midnightblue" d="M689.15,-394C709.09,-398.66 731.25,-403.84 751.82,-408.65"/>
<polygon fill="midnightblue" stroke="midnightblue" points="751.24,-412.11 761.77,-410.98 752.83,-405.3 751.24,-412.11"/>
</g>
<!-- Node21&#45;&gt;Node11 -->
<g id="edge22" class="edge">
<title>Node21&#45;&gt;Node11</title>
<path fill="none" stroke="midnightblue" d="M694.74,-516.8C717.45,-520.64 742.48,-524.87 764.54,-528.6"/>
<polygon fill="midnightblue" stroke="midnightblue" points="764.01,-532.06 774.45,-530.28 765.18,-525.16 764.01,-532.06"/>
</g>
<!-- Node21&#45;&gt;Node18 -->
<g id="edge23" class="edge">
<title>Node21&#45;&gt;Node18</title>
<path fill="none" stroke="midnightblue" d="M694.74,-497.02C709.99,-495.27 726.29,-493.41 742.03,-491.61"/>
<polygon fill="midnightblue" stroke="midnightblue" points="742.75,-495.05 752.28,-490.44 741.95,-488.09 742.75,-495.05"/>
</g>
<!-- Node21&#45;&gt;Node22 -->
<g id="edge24" class="edge">
<title>Node21&#45;&gt;Node22</title>
<path fill="none" stroke="midnightblue" d="M653.03,-520.16C676.99,-532.72 712.63,-550.48 745,-563 756,-567.26 768.09,-571.21 779.49,-574.63"/>
<polygon fill="midnightblue" stroke="midnightblue" points="778.71,-578.04 789.29,-577.49 780.67,-571.32 778.71,-578.04"/>
</g>
<!-- Node24&#45;&gt;Node20 -->
<g id="edge27" class="edge">
<title>Node24&#45;&gt;Node20</title>
<path fill="none" stroke="midnightblue" d="M698.7,-314.97C718.93,-310.84 740.71,-306.4 760.45,-302.37"/>
<polygon fill="midnightblue" stroke="midnightblue" points="761.16,-305.8 770.25,-300.37 759.76,-298.94 761.16,-305.8"/>
</g>
<!-- Node26 -->
<g id="node26" class="node">
<title>Node26</title>
<g id="a_node26"><a xlink:href="../../db/de1/classOmniboxPopupView.html#ab590e106e3a2f53bfa45712f529cf106" target="_top" xlink:title=" ">
<polygon fill="white" stroke="black" points="755.5,-235.5 755.5,-254.5 898.5,-254.5 898.5,-235.5 755.5,-235.5"/>
<text text-anchor="middle" x="827" y="-242.5" font-family="Helvetica,sans-Serif" font-size="10.00">OmniboxPopupView::IsOpen</text>
</a>
</g>
</g>
<!-- Node25&#45;&gt;Node26 -->
<g id="edge29" class="edge">
<title>Node25&#45;&gt;Node26</title>
<path fill="none" stroke="midnightblue" d="M666.65,-208.53C697.91,-215.69 740.9,-225.53 774.35,-233.18"/>
<polygon fill="midnightblue" stroke="midnightblue" points="773.88,-236.66 784.41,-235.48 775.44,-229.84 773.88,-236.66"/>
</g>
<!-- Node28 -->
<g id="node28" class="node">
<title>Node28</title>
<g id="a_node28"><a xlink:href="../../d0/d22/classOmniboxEditModel.html#a8c8a925ee670cdc9bd5c0ad8b07fa1a0" target="_top" xlink:title=" ">
<polygon fill="white" stroke="black" points="745,-680 745,-710 909,-710 909,-680 745,-680"/>
<text text-anchor="start" x="753" y="-698" font-family="Helvetica,sans-Serif" font-size="10.00">OmniboxEditModel::autocomplete</text>
<text text-anchor="middle" x="827" y="-687" font-family="Helvetica,sans-Serif" font-size="10.00">_controller</text>
</a>
</g>
</g>
<!-- Node27&#45;&gt;Node28 -->
<g id="edge31" class="edge">
<title>Node27&#45;&gt;Node28</title>
<path fill="none" stroke="midnightblue" d="M688.6,-711.41C703.22,-709.66 719.06,-707.77 734.6,-705.91"/>
<polygon fill="midnightblue" stroke="midnightblue" points="735.24,-709.36 744.75,-704.7 734.41,-702.41 735.24,-709.36"/>
</g>
<!-- Node29 -->
<g id="node29" class="node">
<title>Node29</title>
<g id="a_node29"><a xlink:href="../../df/d4d/classAutocompleteController.html#a0b6b9a27089bca29c9f9f557955d7ecf" target="_top" xlink:title=" ">
<polygon fill="white" stroke="black" points="767.5,-729 767.5,-759 886.5,-759 886.5,-729 767.5,-729"/>
<text text-anchor="start" x="775.5" y="-747" font-family="Helvetica,sans-Serif" font-size="10.00">AutocompleteController</text>
<text text-anchor="middle" x="827" y="-736" font-family="Helvetica,sans-Serif" font-size="10.00">::done</text>
</a>
</g>
</g>
<!-- Node27&#45;&gt;Node29 -->
<g id="edge32" class="edge">
<title>Node27&#45;&gt;Node29</title>
<path fill="none" stroke="midnightblue" d="M688.6,-726.91C710.44,-729.63 734.98,-732.68 757.22,-735.45"/>
<polygon fill="midnightblue" stroke="midnightblue" points="756.9,-738.93 767.25,-736.69 757.76,-731.99 756.9,-738.93"/>
</g>
</g>
</svg>
        <g id="navigator" transform="translate(0 0)" fill="#404254">
                <rect fill="#f2f5e9" fill-opacity="0.5" stroke="#606060" stroke-width=".5" x="0" y="0" width="60" height="60"/>
                <use id="zoomplus" xlink:href="#zoomPlus" x="17" y="9" onmousedown="handleZoom(evt,'in')"/>
                <use id="zoomminus" xlink:href="#zoomMin" x="42" y="9" onmousedown="handleZoom(evt,'out')"/>
                <use id="reset" xlink:href="#resetDef" x="30" y="36" onmousedown="handleReset()"/>
                <g id="arrowUp" xlink:href="#dirArrow" transform="translate(30 24)" onmousedown="handlePan(0,-1)">
                  <use xlink:href="#rim" fill="#404040">
                        <set attributeName="fill" to="#808080" begin="arrowUp.mouseover" end="arrowUp.mouseout"/>
                  </use>
                  <path fill="none" stroke="white" stroke-width="1.5" d="M0,-3.0v7 M-2.5,-0.5L0,-3.0L2.5,-0.5"/>
                </g>
                <g id="arrowRight" xlink:href="#dirArrow" transform="rotate(90) translate(36 -43)" onmousedown="handlePan(1,0)">
                  <use xlink:href="#rim" fill="#404040">
                        <set attributeName="fill" to="#808080" begin="arrowRight.mouseover" end="arrowRight.mouseout"/>
                  </use>
                  <path fill="none" stroke="white" stroke-width="1.5" d="M0,-3.0v7 M-2.5,-0.5L0,-3.0L2.5,-0.5"/>
                </g>
                <g id="arrowDown" xlink:href="#dirArrow" transform="rotate(180) translate(-30 -48)" onmousedown="handlePan(0,1)">
                  <use xlink:href="#rim" fill="#404040">
                        <set attributeName="fill" to="#808080" begin="arrowDown.mouseover" end="arrowDown.mouseout"/>
                  </use>
                  <path fill="none" stroke="white" stroke-width="1.5" d="M0,-3.0v7 M-2.5,-0.5L0,-3.0L2.5,-0.5"/>
                </g>
                <g id="arrowLeft" xlink:href="#dirArrow" transform="rotate(270) translate(-36 17)" onmousedown="handlePan(-1,0)">
                  <use xlink:href="#rim" fill="#404040">
                        <set attributeName="fill" to="#808080" begin="arrowLeft.mouseover" end="arrowLeft.mouseout"/>
                  </use>
                  <path fill="none" stroke="white" stroke-width="1.5" d="M0,-3.0v7 M-2.5,-0.5L0,-3.0L2.5,-0.5"/>
                </g>
        </g>
        <svg viewBox="0 0 15 15" width="100%" height="30px" preserveAspectRatio="xMaxYMin meet">
         <g id="arrow_out" transform="scale(0.3 0.3)">
          <a xlink:href="classOmniboxEditModel_a5f1c38693b1474acc7db403856b72512_cgraph_org.svg" target="_base">
           <rect id="button" ry="5" rx="5" y="6" x="6" height="38" width="38"
                fill="#f2f5e9" fill-opacity="0.5" stroke="#606060" stroke-width="1.0"/>
           <path id="arrow"
             d="M 11.500037,31.436501 C 11.940474,20.09759 22.043105,11.32322 32.158766,21.979434 L 37.068811,17.246167 C 37.068811,17.246167 37.088388,32 37.088388,32 L 22.160133,31.978069 C 22.160133,31.978069 26.997745,27.140456 26.997745,27.140456 C 18.528582,18.264221 13.291696,25.230495 11.500037,31.436501 z"
             style="fill:#404040;"/>
          </a>
         </g>
        </svg>
</svg>
