<?xml version="1.0" encoding="UTF-8" standalone="no"?>
<!DOCTYPE svg PUBLIC "-//W3C//DTD SVG 1.1//EN"
 "http://www.w3.org/Graphics/SVG/1.1/DTD/svg11.dtd">
<!-- Generated by graphviz version 2.43.0 (0)
 -->
<!-- Title: OmniboxEditModel::GetPopupAccessibilityLabelForCurrentSelection Pages: 1 -->
<!--zoomable 396 -->
<svg id="main" version="1.1" xmlns="http://www.w3.org/2000/svg" xmlns:xlink="http://www.w3.org/1999/xlink" xml:space="preserve" onload="init(evt)">
<style type="text/css"><![CDATA[
.edge:hover path { stroke: red; }
.edge:hover polygon { stroke: red; fill: red; }
]]></style>
<script type="text/javascript"><![CDATA[
var edges = document.getElementsByTagName('g');
if (edges && edges.length) {
  for (var i=0;i<edges.length;i++) {
    if (edges[i].id.substr(0,4)=='edge') {
      edges[i].setAttribute('class','edge');
    }
  }
}
]]></script>
        <defs>
                <circle id="rim" cx="0" cy="0" r="7"/>
                <circle id="rim2" cx="0" cy="0" r="3.5"/>
                <g id="zoomPlus">
                        <use xlink:href="#rim" fill="#404040">
                                <set attributeName="fill" to="#808080" begin="zoomplus.mouseover" end="zoomplus.mouseout"/>
                        </use>
                        <path d="M-4,0h8M0,-4v8" fill="none" stroke="white" stroke-width="1.5" pointer-events="none"/>
                </g>
                <g id="zoomMin">
                        <use xlink:href="#rim" fill="#404040">
                                <set attributeName="fill" to="#808080" begin="zoomminus.mouseover" end="zoomminus.mouseout"/>
                        </use>
                        <path d="M-4,0h8" fill="none" stroke="white" stroke-width="1.5" pointer-events="none"/>
                </g>
                <g id="dirArrow">
                        <path fill="none" stroke="white" stroke-width="1.5" d="M0,-3.0v7 M-2.5,-0.5L0,-3.0L2.5,-0.5"/>
                </g>
               <g id="resetDef">
                       <use xlink:href="#rim2" fill="#404040">
                               <set attributeName="fill" to="#808080" begin="reset.mouseover" end="reset.mouseout"/>
                       </use>
               </g>
        </defs>

<script type="text/javascript">
var viewWidth = 728;
var viewHeight = 396;
var sectionId = 'dynsection-47';
</script>
<script xlink:href="../../svgpan.js"/>
<svg id="graph" class="graph">
<g id="viewport">
<title>OmniboxEditModel::GetPopupAccessibilityLabelForCurrentSelection</title>
<polygon fill="white" stroke="transparent" points="-4,4 -4,-391.5 724,-391.5 724,4 -4,4"/>
<!-- Node1 -->
<g id="node1" class="node">
<title>Node1</title>
<g id="a_node1"><a xlink:title=" ">
<polygon fill="#bfbfbf" stroke="black" points="0,-151 0,-181 182,-181 182,-151 0,-151"/>
<text text-anchor="start" x="8" y="-169" font-family="Helvetica,sans-Serif" font-size="10.00">OmniboxEditModel::GetPopup</text>
<text text-anchor="middle" x="91" y="-158" font-family="Helvetica,sans-Serif" font-size="10.00">AccessibilityLabelForCurrentSelection</text>
</a>
</g>
</g>
<!-- Node2 -->
<g id="node2" class="node">
<title>Node2</title>
<g id="a_node2"><a xlink:href="../../d0/d22/classOmniboxEditModel.html#a83ebf99fd8b53140c36e887f644bd510" target="_top" xlink:title=" ">
<polygon fill="white" stroke="black" points="221,-301 221,-331 360,-331 360,-301 221,-301"/>
<text text-anchor="start" x="229" y="-319" font-family="Helvetica,sans-Serif" font-size="10.00">OmniboxEditModel::GetPref</text>
<text text-anchor="middle" x="290.5" y="-308" font-family="Helvetica,sans-Serif" font-size="10.00">Service</text>
</a>
</g>
</g>
<!-- Node1&#45;&gt;Node2 -->
<g id="edge1" class="edge">
<title>Node1&#45;&gt;Node2</title>
<path fill="none" stroke="midnightblue" d="M104.02,-181.3C124.78,-206.81 169.79,-258.29 218,-289 222.36,-291.78 227.06,-294.34 231.88,-296.68"/>
<polygon fill="midnightblue" stroke="midnightblue" points="230.7,-299.99 241.26,-300.92 233.59,-293.61 230.7,-299.99"/>
</g>
<!-- Node6 -->
<g id="node6" class="node">
<title>Node6</title>
<g id="a_node6"><a xlink:href="../../de/dfc/structOmniboxPopupSelection.html#acb9ff37b6248215d3e31810a46a82c5b" target="_top" xlink:title=" ">
<polygon fill="white" stroke="black" points="228.5,-249 228.5,-279 352.5,-279 352.5,-249 228.5,-249"/>
<text text-anchor="start" x="236.5" y="-267" font-family="Helvetica,sans-Serif" font-size="10.00">OmniboxPopupSelection</text>
<text text-anchor="middle" x="290.5" y="-256" font-family="Helvetica,sans-Serif" font-size="10.00">::IsButtonFocused</text>
</a>
</g>
</g>
<!-- Node1&#45;&gt;Node6 -->
<g id="edge5" class="edge">
<title>Node1&#45;&gt;Node6</title>
<path fill="none" stroke="midnightblue" d="M114.45,-181.12C139.08,-197.23 180.14,-222.75 218,-240 222.06,-241.85 226.32,-243.64 230.63,-245.34"/>
<polygon fill="midnightblue" stroke="midnightblue" points="229.54,-248.67 240.13,-248.93 232.01,-242.12 229.54,-248.67"/>
</g>
<!-- Node7 -->
<g id="node7" class="node">
<title>Node7</title>
<g id="a_node7"><a xlink:href="../../d3/d03/classAutocompleteResult.html#a1353d4a449288df34f1d6dd3eff73298" target="_top" xlink:title=" ">
<polygon fill="white" stroke="black" points="218,-200 218,-230 363,-230 363,-200 218,-200"/>
<text text-anchor="start" x="226" y="-218" font-family="Helvetica,sans-Serif" font-size="10.00">AutocompleteResult</text>
<text text-anchor="middle" x="290.5" y="-207" font-family="Helvetica,sans-Serif" font-size="10.00">::IsSuggestionGroupIdHidden</text>
</a>
</g>
</g>
<!-- Node1&#45;&gt;Node7 -->
<g id="edge6" class="edge">
<title>Node1&#45;&gt;Node7</title>
<path fill="none" stroke="midnightblue" d="M152.6,-181.03C173.64,-186.26 197.42,-192.15 219.18,-197.55"/>
<polygon fill="midnightblue" stroke="midnightblue" points="218.47,-200.98 229.02,-199.99 220.15,-194.19 218.47,-200.98"/>
</g>
<!-- Node9 -->
<g id="node9" class="node">
<title>Node9</title>
<g id="a_node9"><a xlink:href="../../d3/d03/classAutocompleteResult.html#a1532251921e2112a24e3a52ec7ee4535" target="_top" xlink:title=" ">
<polygon fill="white" stroke="black" points="238,-151 238,-181 343,-181 343,-151 238,-151"/>
<text text-anchor="start" x="246" y="-169" font-family="Helvetica,sans-Serif" font-size="10.00">AutocompleteResult</text>
<text text-anchor="middle" x="290.5" y="-158" font-family="Helvetica,sans-Serif" font-size="10.00">::match_at</text>
</a>
</g>
</g>
<!-- Node1&#45;&gt;Node9 -->
<g id="edge8" class="edge">
<title>Node1&#45;&gt;Node9</title>
<path fill="none" stroke="midnightblue" d="M182.08,-166C197.47,-166 213.15,-166 227.59,-166"/>
<polygon fill="midnightblue" stroke="midnightblue" points="227.87,-169.5 237.87,-166 227.87,-162.5 227.87,-169.5"/>
</g>
<!-- Node10 -->
<g id="node10" class="node">
<title>Node10</title>
<g id="a_node10"><a xlink:href="../../d0/d22/classOmniboxEditModel.html#ad945a332660c6122dc25b93c1eee76d8" target="_top" xlink:title=" ">
<polygon fill="white" stroke="black" points="226,-112.5 226,-131.5 355,-131.5 355,-112.5 226,-112.5"/>
<text text-anchor="middle" x="290.5" y="-119.5" font-family="Helvetica,sans-Serif" font-size="10.00">OmniboxEditModel::result</text>
</a>
</g>
</g>
<!-- Node1&#45;&gt;Node10 -->
<g id="edge9" class="edge">
<title>Node1&#45;&gt;Node10</title>
<path fill="none" stroke="midnightblue" d="M159.42,-150.98C184.74,-145.34 213.13,-139.01 236.91,-133.72"/>
<polygon fill="midnightblue" stroke="midnightblue" points="237.8,-137.1 246.8,-131.51 236.28,-130.27 237.8,-137.1"/>
</g>
<!-- Node11 -->
<g id="node11" class="node">
<title>Node11</title>
<g id="a_node11"><a xlink:href="../../d3/d03/classAutocompleteResult.html#a64a7947a81e007d5aa56ac9b25e84bb6" target="_top" xlink:title=" ">
<polygon fill="white" stroke="black" points="238,-63 238,-93 343,-93 343,-63 238,-63"/>
<text text-anchor="start" x="246" y="-81" font-family="Helvetica,sans-Serif" font-size="10.00">AutocompleteResult</text>
<text text-anchor="middle" x="290.5" y="-70" font-family="Helvetica,sans-Serif" font-size="10.00">::size</text>
</a>
</g>
</g>
<!-- Node1&#45;&gt;Node11 -->
<g id="edge10" class="edge">
<title>Node1&#45;&gt;Node11</title>
<path fill="none" stroke="midnightblue" d="M119.55,-150.95C144.76,-137.49 183.31,-117.67 218,-103 223.15,-100.82 228.56,-98.68 234,-96.62"/>
<polygon fill="midnightblue" stroke="midnightblue" points="235.61,-99.76 243.78,-93.01 233.19,-93.19 235.61,-99.76"/>
</g>
<!-- Node12 -->
<g id="node12" class="node">
<title>Node12</title>
<g id="a_node12"><a xlink:href="../../de/d0b/structAutocompleteMatchType.html#a6330850d6855c7d33e64f9c34f772efb" target="_top" xlink:title=" ">
<polygon fill="white" stroke="black" points="228,-14 228,-44 353,-44 353,-14 228,-14"/>
<text text-anchor="start" x="236" y="-32" font-family="Helvetica,sans-Serif" font-size="10.00">AutocompleteMatchType</text>
<text text-anchor="middle" x="290.5" y="-21" font-family="Helvetica,sans-Serif" font-size="10.00">::ToAccessibilityLabel</text>
</a>
</g>
</g>
<!-- Node1&#45;&gt;Node12 -->
<g id="edge11" class="edge">
<title>Node1&#45;&gt;Node12</title>
<path fill="none" stroke="midnightblue" d="M105.21,-150.67C126.63,-126.68 171.28,-80.21 218,-53 220.98,-51.27 224.09,-49.64 227.29,-48.11"/>
<polygon fill="midnightblue" stroke="midnightblue" points="228.74,-51.29 236.48,-44.06 225.92,-44.89 228.74,-51.29"/>
</g>
<!-- Node3 -->
<g id="node3" class="node">
<title>Node3</title>
<g id="a_node3"><a xlink:href="../../d0/d22/classOmniboxEditModel.html#a8c8a925ee670cdc9bd5c0ad8b07fa1a0" target="_top" xlink:title=" ">
<polygon fill="white" stroke="black" points="399,-357 399,-387 563,-387 563,-357 399,-357"/>
<text text-anchor="start" x="407" y="-375" font-family="Helvetica,sans-Serif" font-size="10.00">OmniboxEditModel::autocomplete</text>
<text text-anchor="middle" x="481" y="-364" font-family="Helvetica,sans-Serif" font-size="10.00">_controller</text>
</a>
</g>
</g>
<!-- Node2&#45;&gt;Node3 -->
<g id="edge2" class="edge">
<title>Node2&#45;&gt;Node3</title>
<path fill="none" stroke="midnightblue" d="M342.01,-331.01C365.89,-338.1 394.58,-346.62 419.6,-354.06"/>
<polygon fill="midnightblue" stroke="midnightblue" points="418.76,-357.46 429.35,-356.95 420.76,-350.75 418.76,-357.46"/>
</g>
<!-- Node4 -->
<g id="node4" class="node">
<title>Node4</title>
<g id="a_node4"><a xlink:href="../../df/d4d/classAutocompleteController.html#a1b73640ab24c9b6e706cdfafacccca52" target="_top" xlink:title=" ">
<polygon fill="white" stroke="black" points="420.5,-296.5 420.5,-337.5 541.5,-337.5 541.5,-296.5 420.5,-296.5"/>
<text text-anchor="start" x="428.5" y="-325.5" font-family="Helvetica,sans-Serif" font-size="10.00">AutocompleteController</text>
<text text-anchor="start" x="428.5" y="-314.5" font-family="Helvetica,sans-Serif" font-size="10.00">::autocomplete_provider</text>
<text text-anchor="middle" x="481" y="-303.5" font-family="Helvetica,sans-Serif" font-size="10.00">_client</text>
</a>
</g>
</g>
<!-- Node2&#45;&gt;Node4 -->
<g id="edge3" class="edge">
<title>Node2&#45;&gt;Node4</title>
<path fill="none" stroke="midnightblue" d="M360.09,-316.36C376.47,-316.45 393.98,-316.54 410.42,-316.63"/>
<polygon fill="midnightblue" stroke="midnightblue" points="410.47,-320.13 420.49,-316.68 410.51,-313.13 410.47,-320.13"/>
</g>
<!-- Node5 -->
<g id="node5" class="node">
<title>Node5</title>
<g id="a_node5"><a xlink:href="../../d5/dc7/classAutocompleteProviderClient.html#ac681cf50660fc21360da198bea6f4d8b" target="_top" xlink:title=" ">
<polygon fill="white" stroke="black" points="412,-247 412,-277 550,-277 550,-247 412,-247"/>
<text text-anchor="start" x="420" y="-265" font-family="Helvetica,sans-Serif" font-size="10.00">AutocompleteProviderClient</text>
<text text-anchor="middle" x="481" y="-254" font-family="Helvetica,sans-Serif" font-size="10.00">::GetPrefs</text>
</a>
</g>
</g>
<!-- Node2&#45;&gt;Node5 -->
<g id="edge4" class="edge">
<title>Node2&#45;&gt;Node5</title>
<path fill="none" stroke="midnightblue" d="M344.01,-300.96C366.89,-294.4 393.89,-286.67 417.77,-279.83"/>
<polygon fill="midnightblue" stroke="midnightblue" points="418.8,-283.17 427.45,-277.05 416.87,-276.44 418.8,-283.17"/>
</g>
<!-- Node8 -->
<g id="node8" class="node">
<title>Node8</title>
<g id="a_node8"><a xlink:href="../../d4/d19/namespaceomnibox.html#a416efcfe9398c882ad7a7c97b42578e1" target="_top" xlink:title=" ">
<polygon fill="white" stroke="black" points="409.5,-198 409.5,-228 552.5,-228 552.5,-198 409.5,-198"/>
<text text-anchor="start" x="417.5" y="-216" font-family="Helvetica,sans-Serif" font-size="10.00">omnibox::GetUserPreference</text>
<text text-anchor="middle" x="481" y="-205" font-family="Helvetica,sans-Serif" font-size="10.00">ForSuggestionGroupVisibility</text>
</a>
</g>
</g>
<!-- Node7&#45;&gt;Node8 -->
<g id="edge7" class="edge">
<title>Node7&#45;&gt;Node8</title>
<path fill="none" stroke="midnightblue" d="M363.03,-214.24C374.91,-214.11 387.3,-213.98 399.39,-213.86"/>
<polygon fill="midnightblue" stroke="midnightblue" points="399.49,-217.35 409.45,-213.75 399.42,-210.35 399.49,-217.35"/>
</g>
<!-- Node13 -->
<g id="node13" class="node">
<title>Node13</title>
<g id="a_node13"><a xlink:href="../../df/d95/autocomplete__match__type_8cc.html#a8e345670711f9f4bdd2185e129e6653e" target="_top" xlink:title=" ">
<polygon fill="white" stroke="black" points="419,-38.5 419,-57.5 543,-57.5 543,-38.5 419,-38.5"/>
<text text-anchor="middle" x="481" y="-45.5" font-family="Helvetica,sans-Serif" font-size="10.00">AddAdditionalMessaging</text>
</a>
</g>
</g>
<!-- Node12&#45;&gt;Node13 -->
<g id="edge12" class="edge">
<title>Node12&#45;&gt;Node13</title>
<path fill="none" stroke="midnightblue" d="M353.22,-35.22C370.98,-37.01 390.49,-38.98 408.77,-40.82"/>
<polygon fill="midnightblue" stroke="midnightblue" points="408.48,-44.31 418.78,-41.83 409.18,-37.34 408.48,-44.31"/>
</g>
<!-- Node15 -->
<g id="node15" class="node">
<title>Node15</title>
<g id="a_node15"><a xlink:href="../../df/d95/autocomplete__match__type_8cc.html#a247475396770103b803dc947a1736815" target="_top" xlink:title=" ">
<polygon fill="white" stroke="black" points="414,-0.5 414,-19.5 548,-19.5 548,-0.5 414,-0.5"/>
<text text-anchor="middle" x="481" y="-7.5" font-family="Helvetica,sans-Serif" font-size="10.00">GetAccessibilityBaseLabel</text>
</a>
</g>
</g>
<!-- Node12&#45;&gt;Node15 -->
<g id="edge14" class="edge">
<title>Node12&#45;&gt;Node15</title>
<path fill="none" stroke="midnightblue" d="M353.22,-22.78C369.32,-21.16 386.85,-19.39 403.61,-17.7"/>
<polygon fill="midnightblue" stroke="midnightblue" points="404.32,-21.15 413.92,-16.66 403.62,-14.18 404.32,-21.15"/>
</g>
<!-- Node14 -->
<g id="node14" class="node">
<title>Node14</title>
<g id="a_node14"><a xlink:href="../../df/d95/autocomplete__match__type_8cc.html#ad0f43dfffebbed1cde7c940490001927" target="_top" xlink:title=" ">
<polygon fill="white" stroke="black" points="599,-14 599,-44 720,-44 720,-14 599,-14"/>
<text text-anchor="start" x="607" y="-32" font-family="Helvetica,sans-Serif" font-size="10.00">AccessibilityLabelPrefix</text>
<text text-anchor="middle" x="659.5" y="-21" font-family="Helvetica,sans-Serif" font-size="10.00">Length</text>
</a>
</g>
</g>
<!-- Node13&#45;&gt;Node14 -->
<g id="edge13" class="edge">
<title>Node13&#45;&gt;Node14</title>
<path fill="none" stroke="midnightblue" d="M543.24,-41.41C557.88,-39.83 573.62,-38.14 588.62,-36.52"/>
<polygon fill="midnightblue" stroke="midnightblue" points="589.29,-39.97 598.86,-35.42 588.54,-33.01 589.29,-39.97"/>
</g>
<!-- Node15&#45;&gt;Node14 -->
<g id="edge15" class="edge">
<title>Node15&#45;&gt;Node14</title>
<path fill="none" stroke="midnightblue" d="M548.22,-17.13C561.48,-18.56 575.43,-20.06 588.8,-21.5"/>
<polygon fill="midnightblue" stroke="midnightblue" points="588.56,-24.99 598.88,-22.58 589.31,-18.03 588.56,-24.99"/>
</g>
</g>
</svg>
        <g id="navigator" transform="translate(0 0)" fill="#404254">
                <rect fill="#f2f5e9" fill-opacity="0.5" stroke="#606060" stroke-width=".5" x="0" y="0" width="60" height="60"/>
                <use id="zoomplus" xlink:href="#zoomPlus" x="17" y="9" onmousedown="handleZoom(evt,'in')"/>
                <use id="zoomminus" xlink:href="#zoomMin" x="42" y="9" onmousedown="handleZoom(evt,'out')"/>
                <use id="reset" xlink:href="#resetDef" x="30" y="36" onmousedown="handleReset()"/>
                <g id="arrowUp" xlink:href="#dirArrow" transform="translate(30 24)" onmousedown="handlePan(0,-1)">
                  <use xlink:href="#rim" fill="#404040">
                        <set attributeName="fill" to="#808080" begin="arrowUp.mouseover" end="arrowUp.mouseout"/>
                  </use>
                  <path fill="none" stroke="white" stroke-width="1.5" d="M0,-3.0v7 M-2.5,-0.5L0,-3.0L2.5,-0.5"/>
                </g>
                <g id="arrowRight" xlink:href="#dirArrow" transform="rotate(90) translate(36 -43)" onmousedown="handlePan(1,0)">
                  <use xlink:href="#rim" fill="#404040">
                        <set attributeName="fill" to="#808080" begin="arrowRight.mouseover" end="arrowRight.mouseout"/>
                  </use>
                  <path fill="none" stroke="white" stroke-width="1.5" d="M0,-3.0v7 M-2.5,-0.5L0,-3.0L2.5,-0.5"/>
                </g>
                <g id="arrowDown" xlink:href="#dirArrow" transform="rotate(180) translate(-30 -48)" onmousedown="handlePan(0,1)">
                  <use xlink:href="#rim" fill="#404040">
                        <set attributeName="fill" to="#808080" begin="arrowDown.mouseover" end="arrowDown.mouseout"/>
                  </use>
                  <path fill="none" stroke="white" stroke-width="1.5" d="M0,-3.0v7 M-2.5,-0.5L0,-3.0L2.5,-0.5"/>
                </g>
                <g id="arrowLeft" xlink:href="#dirArrow" transform="rotate(270) translate(-36 17)" onmousedown="handlePan(-1,0)">
                  <use xlink:href="#rim" fill="#404040">
                        <set attributeName="fill" to="#808080" begin="arrowLeft.mouseover" end="arrowLeft.mouseout"/>
                  </use>
                  <path fill="none" stroke="white" stroke-width="1.5" d="M0,-3.0v7 M-2.5,-0.5L0,-3.0L2.5,-0.5"/>
                </g>
        </g>
        <svg viewBox="0 0 15 15" width="100%" height="30px" preserveAspectRatio="xMaxYMin meet">
         <g id="arrow_out" transform="scale(0.3 0.3)">
          <a xlink:href="classOmniboxEditModel_a5319668a5f181fe2b2405b80ed7c8809_cgraph_org.svg" target="_base">
           <rect id="button" ry="5" rx="5" y="6" x="6" height="38" width="38"
                fill="#f2f5e9" fill-opacity="0.5" stroke="#606060" stroke-width="1.0"/>
           <path id="arrow"
             d="M 11.500037,31.436501 C 11.940474,20.09759 22.043105,11.32322 32.158766,21.979434 L 37.068811,17.246167 C 37.068811,17.246167 37.088388,32 37.088388,32 L 22.160133,31.978069 C 22.160133,31.978069 26.997745,27.140456 26.997745,27.140456 C 18.528582,18.264221 13.291696,25.230495 11.500037,31.436501 z"
             style="fill:#404040;"/>
          </a>
         </g>
        </svg>
</svg>
