<?xml version="1.0" encoding="UTF-8" standalone="no"?>
<!DOCTYPE svg PUBLIC "-//W3C//DTD SVG 1.1//EN"
 "http://www.w3.org/Graphics/SVG/1.1/DTD/svg11.dtd">
<!-- Generated by graphviz version 2.43.0 (0)
 -->
<!-- Title: OmniboxEditModel::is_keyword_hint Pages: 1 -->
<!--zoomable 729 -->
<svg id="main" version="1.1" xmlns="http://www.w3.org/2000/svg" xmlns:xlink="http://www.w3.org/1999/xlink" xml:space="preserve" onload="init(evt)">
<style type="text/css"><![CDATA[
.edge:hover path { stroke: red; }
.edge:hover polygon { stroke: red; fill: red; }
]]></style>
<script type="text/javascript"><![CDATA[
var edges = document.getElementsByTagName('g');
if (edges && edges.length) {
  for (var i=0;i<edges.length;i++) {
    if (edges[i].id.substr(0,4)=='edge') {
      edges[i].setAttribute('class','edge');
    }
  }
}
]]></script>
        <defs>
                <circle id="rim" cx="0" cy="0" r="7"/>
                <circle id="rim2" cx="0" cy="0" r="3.5"/>
                <g id="zoomPlus">
                        <use xlink:href="#rim" fill="#404040">
                                <set attributeName="fill" to="#808080" begin="zoomplus.mouseover" end="zoomplus.mouseout"/>
                        </use>
                        <path d="M-4,0h8M0,-4v8" fill="none" stroke="white" stroke-width="1.5" pointer-events="none"/>
                </g>
                <g id="zoomMin">
                        <use xlink:href="#rim" fill="#404040">
                                <set attributeName="fill" to="#808080" begin="zoomminus.mouseover" end="zoomminus.mouseout"/>
                        </use>
                        <path d="M-4,0h8" fill="none" stroke="white" stroke-width="1.5" pointer-events="none"/>
                </g>
                <g id="dirArrow">
                        <path fill="none" stroke="white" stroke-width="1.5" d="M0,-3.0v7 M-2.5,-0.5L0,-3.0L2.5,-0.5"/>
                </g>
               <g id="resetDef">
                       <use xlink:href="#rim2" fill="#404040">
                               <set attributeName="fill" to="#808080" begin="reset.mouseover" end="reset.mouseout"/>
                       </use>
               </g>
        </defs>

<script type="text/javascript">
var viewWidth = 1884;
var viewHeight = 729;
var sectionId = 'dynsection-61';
</script>
<script xlink:href="../../svgpan.js"/>
<svg id="graph" class="graph">
<g id="viewport">
<title>OmniboxEditModel::is_keyword_hint</title>
<polygon fill="white" stroke="transparent" points="-4,4 -4,-725 1880,-725 1880,4 -4,4"/>
<!-- Node1 -->
<g id="node1" class="node">
<title>Node1</title>
<g id="a_node1"><a xlink:title=" ">
<polygon fill="#bfbfbf" stroke="black" points="1763,-536.5 1763,-566.5 1876,-566.5 1876,-536.5 1763,-536.5"/>
<text text-anchor="start" x="1771" y="-554.5" font-family="Helvetica,sans-Serif" font-size="10.00">OmniboxEditModel::is</text>
<text text-anchor="middle" x="1819.5" y="-543.5" font-family="Helvetica,sans-Serif" font-size="10.00">_keyword_hint</text>
</a>
</g>
</g>
<!-- Node2 -->
<g id="node2" class="node">
<title>Node2</title>
<g id="a_node2"><a xlink:href="../../d3/d0a/classOmniboxSuggestionButtonRowView.html#a7914dd2f389c98c28906ce05bacf84e5" target="_top" xlink:title=" ">
<polygon fill="white" stroke="black" points="808,-549.5 808,-579.5 961,-579.5 961,-549.5 808,-549.5"/>
<text text-anchor="start" x="816" y="-567.5" font-family="Helvetica,sans-Serif" font-size="10.00">OmniboxSuggestionButtonRow</text>
<text text-anchor="middle" x="884.5" y="-556.5" font-family="Helvetica,sans-Serif" font-size="10.00">View::ButtonPressed</text>
</a>
</g>
</g>
<!-- Node1&#45;&gt;Node2 -->
<g id="edge1" class="edge">
<title>Node1&#45;&gt;Node2</title>
<path fill="none" stroke="midnightblue" d="M1760.68,-569.37C1692.23,-588.92 1574.45,-617.5 1471,-617.5 1471,-617.5 1471,-617.5 1278.5,-617.5 1164.21,-617.5 1032.9,-595.22 954.69,-579.55"/>
<polygon fill="midnightblue" stroke="midnightblue" points="1761.78,-572.7 1770.42,-566.56 1759.84,-565.97 1761.78,-572.7"/>
</g>
<!-- Node7 -->
<g id="node7" class="node">
<title>Node7</title>
<g id="a_node7"><a xlink:href="../../d0/d22/classOmniboxEditModel.html#a074bf2191bb13b8c34724fe8c865a70a" target="_top" xlink:title=" ">
<polygon fill="white" stroke="black" points="1395,-558.5 1395,-588.5 1545,-588.5 1545,-558.5 1395,-558.5"/>
<text text-anchor="start" x="1403" y="-576.5" font-family="Helvetica,sans-Serif" font-size="10.00">OmniboxEditModel::OnCurrent</text>
<text text-anchor="middle" x="1470" y="-565.5" font-family="Helvetica,sans-Serif" font-size="10.00">MatchChanged</text>
</a>
</g>
</g>
<!-- Node1&#45;&gt;Node7 -->
<g id="edge6" class="edge">
<title>Node1&#45;&gt;Node7</title>
<path fill="none" stroke="midnightblue" d="M1752.32,-555.69C1693.19,-559.43 1606.64,-564.91 1545.19,-568.8"/>
<polygon fill="midnightblue" stroke="midnightblue" points="1752.91,-559.16 1762.67,-555.03 1752.47,-552.17 1752.91,-559.16"/>
</g>
<!-- Node9 -->
<g id="node9" class="node">
<title>Node9</title>
<g id="a_node9"><a xlink:href="../../d0/d22/classOmniboxEditModel.html#a0bb7ed3d2b245eff5af2ae45d6f27a7c" target="_top" xlink:title=" ">
<polygon fill="white" stroke="black" points="1581,-514.5 1581,-544.5 1727,-544.5 1727,-514.5 1581,-514.5"/>
<text text-anchor="start" x="1589" y="-532.5" font-family="Helvetica,sans-Serif" font-size="10.00">OmniboxEditModel::OnPopup</text>
<text text-anchor="middle" x="1654" y="-521.5" font-family="Helvetica,sans-Serif" font-size="10.00">DataChanged</text>
</a>
</g>
</g>
<!-- Node1&#45;&gt;Node9 -->
<g id="edge8" class="edge">
<title>Node1&#45;&gt;Node9</title>
<path fill="none" stroke="midnightblue" d="M1752.58,-542.63C1744.17,-541.5 1735.53,-540.34 1727.04,-539.19"/>
<polygon fill="midnightblue" stroke="midnightblue" points="1752.31,-546.13 1762.69,-543.99 1753.25,-539.19 1752.31,-546.13"/>
</g>
<!-- Node10 -->
<g id="node10" class="node">
<title>Node10</title>
<g id="a_node10"><a xlink:href="../../d0/d22/classOmniboxEditModel.html#a066c5fd08558e0c15211647b034a35a9" target="_top" xlink:title=" ">
<polygon fill="white" stroke="black" points="1396,-350.5 1396,-380.5 1544,-380.5 1544,-350.5 1396,-350.5"/>
<text text-anchor="start" x="1404" y="-368.5" font-family="Helvetica,sans-Serif" font-size="10.00">OmniboxEditModel::SetPopup</text>
<text text-anchor="middle" x="1470" y="-357.5" font-family="Helvetica,sans-Serif" font-size="10.00">Selection</text>
</a>
</g>
</g>
<!-- Node1&#45;&gt;Node10 -->
<g id="edge55" class="edge">
<title>Node1&#45;&gt;Node10</title>
<path fill="none" stroke="midnightblue" d="M1781.45,-531.67C1711.63,-494.3 1561.97,-414.19 1499.41,-380.7"/>
<polygon fill="midnightblue" stroke="midnightblue" points="1779.89,-534.8 1790.36,-536.44 1783.19,-528.63 1779.89,-534.8"/>
</g>
<!-- Node3 -->
<g id="node3" class="node">
<title>Node3</title>
<g id="a_node3"><a xlink:href="../../d3/d0a/classOmniboxSuggestionButtonRowView.html#a75ca5fb3af853ffc8c5ed29380d2e72a" target="_top" xlink:title=" ">
<polygon fill="white" stroke="black" points="567,-549.5 567,-579.5 770,-579.5 770,-549.5 567,-549.5"/>
<text text-anchor="start" x="575" y="-567.5" font-family="Helvetica,sans-Serif" font-size="10.00">OmniboxSuggestionButtonRow</text>
<text text-anchor="middle" x="668.5" y="-556.5" font-family="Helvetica,sans-Serif" font-size="10.00">View::OmniboxSuggestionButtonRowView</text>
</a>
</g>
</g>
<!-- Node2&#45;&gt;Node3 -->
<g id="edge2" class="edge">
<title>Node2&#45;&gt;Node3</title>
<path fill="none" stroke="midnightblue" d="M797.67,-564.5C788.65,-564.5 779.42,-564.5 770.26,-564.5"/>
<polygon fill="midnightblue" stroke="midnightblue" points="797.75,-568 807.75,-564.5 797.75,-561 797.75,-568"/>
</g>
<!-- Node4 -->
<g id="node4" class="node">
<title>Node4</title>
<g id="a_node4"><a xlink:href="../../d3/d4c/classOmniboxResultView.html#a6768271ee0b1e6baa07eb56bbb74882d" target="_top" xlink:title=" ">
<polygon fill="white" stroke="black" points="394,-642.5 394,-672.5 506,-672.5 506,-642.5 394,-642.5"/>
<text text-anchor="start" x="402" y="-660.5" font-family="Helvetica,sans-Serif" font-size="10.00">OmniboxResultView::</text>
<text text-anchor="middle" x="450" y="-649.5" font-family="Helvetica,sans-Serif" font-size="10.00">OmniboxResultView</text>
</a>
</g>
</g>
<!-- Node3&#45;&gt;Node4 -->
<g id="edge3" class="edge">
<title>Node3&#45;&gt;Node4</title>
<path fill="none" stroke="midnightblue" d="M577.71,-583.62C574.01,-585.41 570.42,-587.36 567,-589.5 545.87,-602.71 551.73,-618.67 531,-632.5 523.5,-637.51 514.93,-641.55 506.27,-644.81"/>
<polygon fill="midnightblue" stroke="midnightblue" points="579.37,-586.72 587.13,-579.51 576.57,-580.3 579.37,-586.72"/>
</g>
<!-- Node5 -->
<g id="node5" class="node">
<title>Node5</title>
<g id="a_node5"><a xlink:href="../../d7/d88/classOmniboxPopupContentsView.html#aa8f47263f229af6a469c3bf964b81162" target="_top" xlink:title=" ">
<polygon fill="white" stroke="black" points="185,-620.5 185,-650.5 330,-650.5 330,-620.5 185,-620.5"/>
<text text-anchor="start" x="193" y="-638.5" font-family="Helvetica,sans-Serif" font-size="10.00">OmniboxPopupContentsView</text>
<text text-anchor="middle" x="257.5" y="-627.5" font-family="Helvetica,sans-Serif" font-size="10.00">::UpdatePopupAppearance</text>
</a>
</g>
</g>
<!-- Node4&#45;&gt;Node5 -->
<g id="edge4" class="edge">
<title>Node4&#45;&gt;Node5</title>
<path fill="none" stroke="midnightblue" d="M383.9,-649.98C366.59,-647.98 347.8,-645.81 330.16,-643.78"/>
<polygon fill="midnightblue" stroke="midnightblue" points="383.56,-653.47 393.9,-651.14 384.37,-646.51 383.56,-653.47"/>
</g>
<!-- Node6 -->
<g id="node6" class="node">
<title>Node6</title>
<g id="a_node6"><a xlink:href="../../d7/d88/classOmniboxPopupContentsView.html#a0e658101bc19acb66f6e0915fd6c2fe3" target="_top" xlink:title=" ">
<polygon fill="white" stroke="black" points="0.5,-620.5 0.5,-650.5 145.5,-650.5 145.5,-620.5 0.5,-620.5"/>
<text text-anchor="start" x="8.5" y="-638.5" font-family="Helvetica,sans-Serif" font-size="10.00">OmniboxPopupContentsView</text>
<text text-anchor="middle" x="73" y="-627.5" font-family="Helvetica,sans-Serif" font-size="10.00">::OnWidgetBoundsChanged</text>
</a>
</g>
</g>
<!-- Node5&#45;&gt;Node6 -->
<g id="edge5" class="edge">
<title>Node5&#45;&gt;Node6</title>
<path fill="none" stroke="midnightblue" d="M174.84,-635.5C165.12,-635.5 155.26,-635.5 145.7,-635.5"/>
<polygon fill="midnightblue" stroke="midnightblue" points="174.9,-639 184.89,-635.5 174.89,-632 174.9,-639"/>
</g>
<!-- Node8 -->
<g id="node8" class="node">
<title>Node8</title>
<g id="a_node8"><a xlink:href="../../d5/d13/classOmniboxController.html#a8a273db0287d14e6dcb4492d8c3c98fd" target="_top" xlink:title=" ">
<polygon fill="white" stroke="black" points="1227.5,-558.5 1227.5,-588.5 1331.5,-588.5 1331.5,-558.5 1227.5,-558.5"/>
<text text-anchor="start" x="1235.5" y="-576.5" font-family="Helvetica,sans-Serif" font-size="10.00">OmniboxController::</text>
<text text-anchor="middle" x="1279.5" y="-565.5" font-family="Helvetica,sans-Serif" font-size="10.00">OnResultChanged</text>
</a>
</g>
</g>
<!-- Node7&#45;&gt;Node8 -->
<g id="edge7" class="edge">
<title>Node7&#45;&gt;Node8</title>
<path fill="none" stroke="midnightblue" d="M1384.53,-573.5C1366.51,-573.5 1348.01,-573.5 1331.7,-573.5"/>
<polygon fill="midnightblue" stroke="midnightblue" points="1384.77,-577 1394.77,-573.5 1384.77,-570 1384.77,-577"/>
</g>
<!-- Node9&#45;&gt;Node7 -->
<g id="edge9" class="edge">
<title>Node9&#45;&gt;Node7</title>
<path fill="none" stroke="midnightblue" d="M1581.12,-546.88C1565.26,-550.71 1548.59,-554.74 1533.15,-558.47"/>
<polygon fill="midnightblue" stroke="midnightblue" points="1581.98,-550.27 1590.87,-544.52 1580.33,-543.47 1581.98,-550.27"/>
</g>
<!-- Node9&#45;&gt;Node8 -->
<g id="edge10" class="edge">
<title>Node9&#45;&gt;Node8</title>
<path fill="none" stroke="midnightblue" d="M1570.72,-533.16C1519.9,-536.1 1453.46,-541.14 1395,-549.5 1374.09,-552.49 1351.27,-557.01 1331.55,-561.33"/>
<polygon fill="midnightblue" stroke="midnightblue" points="1571.21,-536.64 1580.99,-532.59 1570.81,-529.65 1571.21,-536.64"/>
</g>
<!-- Node9&#45;&gt;Node10 -->
<g id="edge11" class="edge">
<title>Node9&#45;&gt;Node10</title>
<path fill="none" stroke="midnightblue" d="M1628.73,-507.63C1591.22,-473.83 1520.09,-409.74 1487.76,-380.6"/>
<polygon fill="midnightblue" stroke="midnightblue" points="1626.43,-510.27 1636.2,-514.37 1631.12,-505.07 1626.43,-510.27"/>
</g>
<!-- Node10&#45;&gt;Node2 -->
<g id="edge27" class="edge">
<title>Node10&#45;&gt;Node2</title>
<path fill="none" stroke="midnightblue" d="M1427.48,-384.66C1407.13,-393.59 1382.08,-403.89 1359,-411.5 1289.89,-434.27 1269.64,-429.41 1200,-450.5 1098.28,-481.31 981.28,-526.33 922.82,-549.49"/>
<polygon fill="midnightblue" stroke="midnightblue" points="1429.05,-387.79 1436.77,-380.54 1426.21,-381.4 1429.05,-387.79"/>
</g>
<!-- Node11 -->
<g id="node11" class="node">
<title>Node11</title>
<g id="a_node11"><a xlink:href="../../d0/d22/classOmniboxEditModel.html#a7fe9144afe6dfdee76ea48f698f21b7a" target="_top" xlink:title=" ">
<polygon fill="white" stroke="black" points="1211.5,-372.5 1211.5,-402.5 1347.5,-402.5 1347.5,-372.5 1211.5,-372.5"/>
<text text-anchor="start" x="1219.5" y="-390.5" font-family="Helvetica,sans-Serif" font-size="10.00">OmniboxEditModel::Accept</text>
<text text-anchor="middle" x="1279.5" y="-379.5" font-family="Helvetica,sans-Serif" font-size="10.00">Keyword</text>
</a>
</g>
</g>
<!-- Node10&#45;&gt;Node11 -->
<g id="edge12" class="edge">
<title>Node10&#45;&gt;Node11</title>
<path fill="none" stroke="midnightblue" d="M1385.74,-375.22C1373.03,-376.7 1360.06,-378.21 1347.75,-379.65"/>
<polygon fill="midnightblue" stroke="midnightblue" points="1386.32,-378.67 1395.85,-374.04 1385.51,-371.72 1386.32,-378.67"/>
</g>
<!-- Node20 -->
<g id="node20" class="node">
<title>Node20</title>
<g id="a_node20"><a xlink:href="../../d0/d22/classOmniboxEditModel.html#a83959087bebd9831bc3a3d0661ac85f0" target="_top" xlink:title=" ">
<polygon fill="white" stroke="black" points="1005,-309.5 1005,-339.5 1158,-339.5 1158,-309.5 1005,-309.5"/>
<text text-anchor="start" x="1013" y="-327.5" font-family="Helvetica,sans-Serif" font-size="10.00">OmniboxEditModel::StepPopup</text>
<text text-anchor="middle" x="1081.5" y="-316.5" font-family="Helvetica,sans-Serif" font-size="10.00">Selection</text>
</a>
</g>
</g>
<!-- Node10&#45;&gt;Node20 -->
<g id="edge42" class="edge">
<title>Node10&#45;&gt;Node20</title>
<path fill="none" stroke="midnightblue" d="M1385.67,-356.66C1318.13,-349.5 1223.76,-339.48 1158.32,-332.54"/>
<polygon fill="midnightblue" stroke="midnightblue" points="1385.53,-360.17 1395.85,-357.74 1386.27,-353.2 1385.53,-360.17"/>
</g>
<!-- Node22 -->
<g id="node22" class="node">
<title>Node22</title>
<g id="a_node22"><a xlink:href="../../d5/d13/classOmniboxController.html#a384c7add8676fa22968aa3cc0f90acf8" target="_top" xlink:title=" ">
<polygon fill="white" stroke="black" points="1214.5,-284.5 1214.5,-314.5 1344.5,-314.5 1344.5,-284.5 1214.5,-284.5"/>
<text text-anchor="start" x="1222.5" y="-302.5" font-family="Helvetica,sans-Serif" font-size="10.00">OmniboxController::</text>
<text text-anchor="middle" x="1279.5" y="-291.5" font-family="Helvetica,sans-Serif" font-size="10.00">ClearPopupKeywordMode</text>
</a>
</g>
</g>
<!-- Node10&#45;&gt;Node22 -->
<g id="edge28" class="edge">
<title>Node10&#45;&gt;Node22</title>
<path fill="none" stroke="midnightblue" d="M1416.12,-346.98C1386.89,-336.75 1351.04,-324.2 1323.54,-314.57"/>
<polygon fill="midnightblue" stroke="midnightblue" points="1415.16,-350.36 1425.75,-350.36 1417.47,-343.75 1415.16,-350.36"/>
</g>
<!-- Node24 -->
<g id="node24" class="node">
<title>Node24</title>
<g id="a_node24"><a xlink:href="../../d0/d94/classOmniboxViewViews.html#a9fc21bac19f3a666e10eabc84b72c745" target="_top" xlink:title=" ">
<polygon fill="white" stroke="black" points="1203.5,-235.5 1203.5,-265.5 1355.5,-265.5 1355.5,-235.5 1203.5,-235.5"/>
<text text-anchor="start" x="1211.5" y="-253.5" font-family="Helvetica,sans-Serif" font-size="10.00">OmniboxViewViews::OnMouse</text>
<text text-anchor="middle" x="1279.5" y="-242.5" font-family="Helvetica,sans-Serif" font-size="10.00">Pressed</text>
</a>
</g>
</g>
<!-- Node10&#45;&gt;Node24 -->
<g id="edge30" class="edge">
<title>Node10&#45;&gt;Node24</title>
<path fill="none" stroke="midnightblue" d="M1447.64,-343.38C1426.76,-322.9 1393.21,-292.92 1359,-274.5 1352.73,-271.12 1345.91,-268.15 1339,-265.55"/>
<polygon fill="midnightblue" stroke="midnightblue" points="1445.19,-345.87 1454.74,-350.45 1450.13,-340.91 1445.19,-345.87"/>
</g>
<!-- Node25 -->
<g id="node25" class="node">
<title>Node25</title>
<g id="a_node25"><a xlink:href="../../d0/d22/classOmniboxEditModel.html#a981623c1db1ef3409627b8cc237fe6a6" target="_top" xlink:title=" ">
<polygon fill="white" stroke="black" points="814,-191.5 814,-221.5 955,-221.5 955,-191.5 814,-191.5"/>
<text text-anchor="start" x="822" y="-209.5" font-family="Helvetica,sans-Serif" font-size="10.00">OmniboxEditModel::OnUpOr</text>
<text text-anchor="middle" x="884.5" y="-198.5" font-family="Helvetica,sans-Serif" font-size="10.00">DownKeyPressed</text>
</a>
</g>
</g>
<!-- Node10&#45;&gt;Node25 -->
<g id="edge31" class="edge">
<title>Node10&#45;&gt;Node25</title>
<path fill="none" stroke="midnightblue" d="M1457.88,-340.69C1441.54,-307.61 1407.64,-250.36 1359,-225.5 1290.5,-190.49 1069.42,-196.49 955.22,-202.27"/>
<polygon fill="midnightblue" stroke="midnightblue" points="1454.91,-342.6 1462.38,-350.11 1461.23,-339.58 1454.91,-342.6"/>
</g>
<!-- Node26 -->
<g id="node26" class="node">
<title>Node26</title>
<g id="a_node26"><a xlink:href="../../d0/d22/classOmniboxEditModel.html#aa9d90c515bb4fbd3dc1c12f5ffece74a" target="_top" xlink:title=" ">
<polygon fill="white" stroke="black" points="1200,-147.5 1200,-177.5 1359,-177.5 1359,-147.5 1200,-147.5"/>
<text text-anchor="start" x="1208" y="-165.5" font-family="Helvetica,sans-Serif" font-size="10.00">OmniboxEditModel::ResetPopup</text>
<text text-anchor="middle" x="1279.5" y="-154.5" font-family="Helvetica,sans-Serif" font-size="10.00">ToInitialState</text>
</a>
</g>
</g>
<!-- Node10&#45;&gt;Node26 -->
<g id="edge33" class="edge">
<title>Node10&#45;&gt;Node26</title>
<path fill="none" stroke="midnightblue" d="M1459.29,-340.7C1443.57,-303.55 1409.15,-233.45 1359,-192.5 1351.65,-186.5 1342.98,-181.62 1334.12,-177.66"/>
<polygon fill="midnightblue" stroke="midnightblue" points="1456.18,-342.34 1463.23,-350.25 1462.65,-339.67 1456.18,-342.34"/>
</g>
<!-- Node29 -->
<g id="node29" class="node">
<title>Node29</title>
<g id="a_node29"><a xlink:href="../../d7/d88/classOmniboxPopupContentsView.html#a98a7b1561a882c1894a11c08d007ca66" target="_top" xlink:title=" ">
<polygon fill="white" stroke="black" points="1207,-74.5 1207,-104.5 1352,-104.5 1352,-74.5 1207,-74.5"/>
<text text-anchor="start" x="1215" y="-92.5" font-family="Helvetica,sans-Serif" font-size="10.00">OmniboxPopupContentsView</text>
<text text-anchor="middle" x="1279.5" y="-81.5" font-family="Helvetica,sans-Serif" font-size="10.00">::SetSelectedIndex</text>
</a>
</g>
</g>
<!-- Node10&#45;&gt;Node29 -->
<g id="edge38" class="edge">
<title>Node10&#45;&gt;Node29</title>
<path fill="none" stroke="midnightblue" d="M1462.16,-340.7C1448.74,-295.73 1415.25,-199.64 1359,-137.5 1346.56,-123.76 1329.28,-112.62 1314.1,-104.54"/>
<polygon fill="midnightblue" stroke="midnightblue" points="1458.85,-341.86 1465,-350.49 1465.58,-339.91 1458.85,-341.86"/>
</g>
<!-- Node33 -->
<g id="node33" class="node">
<title>Node33</title>
<g id="a_node33"><a xlink:href="../../d0/d22/classOmniboxEditModel.html#a403c203952e105194bf2746aff5027dc" target="_top" xlink:title=" ">
<polygon fill="white" stroke="black" points="1202,-509.5 1202,-539.5 1357,-539.5 1357,-509.5 1202,-509.5"/>
<text text-anchor="start" x="1210" y="-527.5" font-family="Helvetica,sans-Serif" font-size="10.00">OmniboxEditModel::TryDeleting</text>
<text text-anchor="middle" x="1279.5" y="-516.5" font-family="Helvetica,sans-Serif" font-size="10.00">PopupLine</text>
</a>
</g>
</g>
<!-- Node10&#45;&gt;Node33 -->
<g id="edge43" class="edge">
<title>Node10&#45;&gt;Node33</title>
<path fill="none" stroke="midnightblue" d="M1455.19,-389.75C1436.92,-419.74 1401.93,-470.39 1359,-499.5 1353.32,-503.35 1347.01,-506.64 1340.5,-509.44"/>
<polygon fill="midnightblue" stroke="midnightblue" points="1458.42,-391.17 1460.53,-380.79 1452.4,-387.59 1458.42,-391.17"/>
</g>
<!-- Node40 -->
<g id="node40" class="node">
<title>Node40</title>
<g id="a_node40"><a xlink:href="../../d7/d88/classOmniboxPopupContentsView.html#afc5e0a376358cc99296ddb63c3fb14c0" target="_top" xlink:title=" ">
<polygon fill="white" stroke="black" points="1207,-460.5 1207,-490.5 1352,-490.5 1352,-460.5 1207,-460.5"/>
<text text-anchor="start" x="1215" y="-478.5" font-family="Helvetica,sans-Serif" font-size="10.00">OmniboxPopupContentsView</text>
<text text-anchor="middle" x="1279.5" y="-467.5" font-family="Helvetica,sans-Serif" font-size="10.00">::UnselectButton</text>
</a>
</g>
</g>
<!-- Node10&#45;&gt;Node40 -->
<g id="edge54" class="edge">
<title>Node10&#45;&gt;Node40</title>
<path fill="none" stroke="midnightblue" d="M1443.33,-387.2C1421.82,-404.6 1389.79,-428.8 1359,-445.5 1348.74,-451.06 1337.23,-456.08 1326.24,-460.35"/>
<polygon fill="midnightblue" stroke="midnightblue" points="1445.79,-389.7 1451.3,-380.66 1441.35,-384.29 1445.79,-389.7"/>
</g>
<!-- Node11&#45;&gt;Node2 -->
<g id="edge13" class="edge">
<title>Node11&#45;&gt;Node2</title>
<path fill="none" stroke="midnightblue" d="M1201.31,-396.92C1130.96,-406.49 1033,-422.56 999,-441.5 951.02,-468.22 912.02,-522.53 894.9,-549.13"/>
<polygon fill="midnightblue" stroke="midnightblue" points="1202.03,-400.35 1211.48,-395.56 1201.1,-393.42 1202.03,-400.35"/>
</g>
<!-- Node12 -->
<g id="node12" class="node">
<title>Node12</title>
<g id="a_node12"><a xlink:href="../../d0/d22/classOmniboxEditModel.html#a2aa7d96a6df61aa1e05131d1c8009c16" target="_top" xlink:title=" ">
<polygon fill="white" stroke="black" points="999,-358.5 999,-388.5 1164,-388.5 1164,-358.5 999,-358.5"/>
<text text-anchor="start" x="1007" y="-376.5" font-family="Helvetica,sans-Serif" font-size="10.00">OmniboxEditModel::MaybeAccept</text>
<text text-anchor="middle" x="1081.5" y="-365.5" font-family="Helvetica,sans-Serif" font-size="10.00">KeywordBySpace</text>
</a>
</g>
</g>
<!-- Node11&#45;&gt;Node12 -->
<g id="edge14" class="edge">
<title>Node11&#45;&gt;Node12</title>
<path fill="none" stroke="midnightblue" d="M1201.22,-381.98C1189.05,-381.11 1176.42,-380.21 1164.16,-379.33"/>
<polygon fill="midnightblue" stroke="midnightblue" points="1201.1,-385.48 1211.32,-382.7 1201.6,-378.5 1201.1,-385.48"/>
</g>
<!-- Node11&#45;&gt;Node20 -->
<g id="edge23" class="edge">
<title>Node11&#45;&gt;Node20</title>
<path fill="none" stroke="midnightblue" d="M1226.1,-369.14C1206.65,-362.46 1184.38,-354.97 1164,-348.5 1154.58,-345.51 1144.51,-342.44 1134.77,-339.54"/>
<polygon fill="midnightblue" stroke="midnightblue" points="1225.09,-372.49 1235.69,-372.44 1227.37,-365.87 1225.09,-372.49"/>
</g>
<!-- Node13 -->
<g id="node13" class="node">
<title>Node13</title>
<g id="a_node13"><a xlink:href="../../d0/d22/classOmniboxEditModel.html#ada57fd155509f60afd9228e3a07e9b47" target="_top" xlink:title=" ">
<polygon fill="white" stroke="black" points="815,-363.5 815,-393.5 954,-393.5 954,-363.5 815,-363.5"/>
<text text-anchor="start" x="823" y="-381.5" font-family="Helvetica,sans-Serif" font-size="10.00">OmniboxEditModel::OnAfter</text>
<text text-anchor="middle" x="884.5" y="-370.5" font-family="Helvetica,sans-Serif" font-size="10.00">PossibleChange</text>
</a>
</g>
</g>
<!-- Node12&#45;&gt;Node13 -->
<g id="edge15" class="edge">
<title>Node12&#45;&gt;Node13</title>
<path fill="none" stroke="midnightblue" d="M988.73,-375.85C977.06,-376.15 965.29,-376.45 954.07,-376.74"/>
<polygon fill="midnightblue" stroke="midnightblue" points="989.03,-379.35 998.93,-375.59 988.85,-372.35 989.03,-379.35"/>
</g>
<!-- Node14 -->
<g id="node14" class="node">
<title>Node14</title>
<g id="a_node14"><a xlink:href="../../d0/d94/classOmniboxViewViews.html#a18cba16b87566313a94b57d0e4a7ce12" target="_top" xlink:title=" ">
<polygon fill="white" stroke="black" points="596.5,-373.5 596.5,-403.5 740.5,-403.5 740.5,-373.5 596.5,-373.5"/>
<text text-anchor="start" x="604.5" y="-391.5" font-family="Helvetica,sans-Serif" font-size="10.00">OmniboxViewViews::OnAfter</text>
<text text-anchor="middle" x="668.5" y="-380.5" font-family="Helvetica,sans-Serif" font-size="10.00">PossibleChange</text>
</a>
</g>
</g>
<!-- Node13&#45;&gt;Node14 -->
<g id="edge16" class="edge">
<title>Node13&#45;&gt;Node14</title>
<path fill="none" stroke="midnightblue" d="M804.74,-382.18C783.76,-383.16 761.21,-384.21 740.65,-385.18"/>
<polygon fill="midnightblue" stroke="midnightblue" points="805.08,-385.67 814.91,-381.71 804.75,-378.68 805.08,-385.67"/>
</g>
<!-- Node15 -->
<g id="node15" class="node">
<title>Node15</title>
<g id="a_node15"><a xlink:href="../../d0/d94/classOmniboxViewViews.html#a487a0ced2870997b0f88d8dcab9a4f0e" target="_top" xlink:title=" ">
<polygon fill="white" stroke="black" points="0,-358.5 0,-388.5 146,-388.5 146,-358.5 0,-358.5"/>
<text text-anchor="start" x="8" y="-376.5" font-family="Helvetica,sans-Serif" font-size="10.00">OmniboxViewViews::Execute</text>
<text text-anchor="middle" x="73" y="-365.5" font-family="Helvetica,sans-Serif" font-size="10.00">Command</text>
</a>
</g>
</g>
<!-- Node14&#45;&gt;Node15 -->
<g id="edge17" class="edge">
<title>Node14&#45;&gt;Node15</title>
<path fill="none" stroke="midnightblue" d="M586.22,-386.45C469.73,-383.5 257.13,-378.13 146.01,-375.32"/>
<polygon fill="midnightblue" stroke="midnightblue" points="586.41,-389.95 596.5,-386.71 586.59,-382.95 586.41,-389.95"/>
</g>
<!-- Node16 -->
<g id="node16" class="node">
<title>Node16</title>
<g id="a_node16"><a xlink:href="../../d0/d94/classOmniboxViewViews.html#a81d025d1f692c96482925dfbab529691" target="_top" xlink:title=" ">
<polygon fill="white" stroke="black" points="378,-422.5 378,-452.5 522,-452.5 522,-422.5 378,-422.5"/>
<text text-anchor="start" x="386" y="-440.5" font-family="Helvetica,sans-Serif" font-size="10.00">OmniboxViewViews::OnAfter</text>
<text text-anchor="middle" x="450" y="-429.5" font-family="Helvetica,sans-Serif" font-size="10.00">UserAction</text>
</a>
</g>
</g>
<!-- Node14&#45;&gt;Node16 -->
<g id="edge18" class="edge">
<title>Node14&#45;&gt;Node16</title>
<path fill="none" stroke="midnightblue" d="M591.25,-405.76C567.12,-411.22 540.67,-417.21 517.3,-422.49"/>
<polygon fill="midnightblue" stroke="midnightblue" points="592.09,-409.16 601.07,-403.53 590.55,-402.33 592.09,-409.16"/>
</g>
<!-- Node17 -->
<g id="node17" class="node">
<title>Node17</title>
<g id="a_node17"><a xlink:href="../../d0/d94/classOmniboxViewViews.html#af593bb600ecfa2ed731497a260451b47" target="_top" xlink:title=" ">
<polygon fill="white" stroke="black" points="369,-334.5 369,-364.5 531,-364.5 531,-334.5 369,-334.5"/>
<text text-anchor="start" x="377" y="-352.5" font-family="Helvetica,sans-Serif" font-size="10.00">OmniboxViewViews::OnOmnibox</text>
<text text-anchor="middle" x="450" y="-341.5" font-family="Helvetica,sans-Serif" font-size="10.00">Paste</text>
</a>
</g>
</g>
<!-- Node14&#45;&gt;Node17 -->
<g id="edge19" class="edge">
<title>Node14&#45;&gt;Node17</title>
<path fill="none" stroke="midnightblue" d="M586.41,-373.89C568.36,-370.64 549.24,-367.2 531.22,-363.95"/>
<polygon fill="midnightblue" stroke="midnightblue" points="585.85,-377.35 596.31,-375.68 587.09,-370.46 585.85,-377.35"/>
</g>
<!-- Node18 -->
<g id="node18" class="node">
<title>Node18</title>
<g id="a_node18"><a xlink:href="../../d0/d94/classOmniboxViewViews.html#ae3ebda306ffa960bb7a3a1ebe7f7fc76" target="_top" xlink:title=" ">
<polygon fill="white" stroke="black" points="184.5,-334.5 184.5,-364.5 330.5,-364.5 330.5,-334.5 184.5,-334.5"/>
<text text-anchor="start" x="192.5" y="-352.5" font-family="Helvetica,sans-Serif" font-size="10.00">OmniboxViewViews::Execute</text>
<text text-anchor="middle" x="257.5" y="-341.5" font-family="Helvetica,sans-Serif" font-size="10.00">TextEditCommand</text>
</a>
</g>
</g>
<!-- Node17&#45;&gt;Node18 -->
<g id="edge20" class="edge">
<title>Node17&#45;&gt;Node18</title>
<path fill="none" stroke="midnightblue" d="M358.66,-349.5C349.3,-349.5 339.89,-349.5 330.77,-349.5"/>
<polygon fill="midnightblue" stroke="midnightblue" points="358.76,-353 368.76,-349.5 358.76,-346 358.76,-353"/>
</g>
<!-- Node18&#45;&gt;Node15 -->
<g id="edge21" class="edge">
<title>Node18&#45;&gt;Node15</title>
<path fill="none" stroke="midnightblue" d="M174.28,-360.31C164.92,-361.54 155.42,-362.79 146.2,-364"/>
<polygon fill="midnightblue" stroke="midnightblue" points="174.91,-363.76 184.37,-358.99 174,-356.82 174.91,-363.76"/>
</g>
<!-- Node19 -->
<g id="node19" class="node">
<title>Node19</title>
<g id="a_node19"><a xlink:href="../../d0/d94/classOmniboxViewViews.html#a5a64c1e16631c3301fb57307402784dc" target="_top" xlink:title=" ">
<polygon fill="white" stroke="black" points="2.5,-290.5 2.5,-320.5 143.5,-320.5 143.5,-290.5 2.5,-290.5"/>
<text text-anchor="start" x="10.5" y="-308.5" font-family="Helvetica,sans-Serif" font-size="10.00">OmniboxViewViews::Handle</text>
<text text-anchor="middle" x="73" y="-297.5" font-family="Helvetica,sans-Serif" font-size="10.00">KeyEvent</text>
</a>
</g>
</g>
<!-- Node18&#45;&gt;Node19 -->
<g id="edge22" class="edge">
<title>Node18&#45;&gt;Node19</title>
<path fill="none" stroke="midnightblue" d="M184.43,-332.12C168.52,-328.29 151.8,-324.26 136.32,-320.53"/>
<polygon fill="midnightblue" stroke="midnightblue" points="183.66,-335.54 194.2,-334.48 185.3,-328.73 183.66,-335.54"/>
</g>
<!-- Node20&#45;&gt;Node19 -->
<g id="edge26" class="edge">
<title>Node20&#45;&gt;Node19</title>
<path fill="none" stroke="midnightblue" d="M994.65,-318.22C911.53,-312.69 781.96,-305.5 669.5,-305.5 669.5,-305.5 669.5,-305.5 449,-305.5 342.55,-305.5 219.11,-305.5 143.81,-305.5"/>
<polygon fill="midnightblue" stroke="midnightblue" points="994.59,-321.72 1004.8,-318.9 995.06,-314.74 994.59,-321.72"/>
</g>
<!-- Node21 -->
<g id="node21" class="node">
<title>Node21</title>
<g id="a_node21"><a xlink:href="../../d0/d94/classOmniboxViewViews.html#a914ba78328ab785df56d9b0cbdee157e" target="_top" xlink:title=" ">
<polygon fill="white" stroke="black" points="187,-246.5 187,-276.5 328,-276.5 328,-246.5 187,-246.5"/>
<text text-anchor="start" x="195" y="-264.5" font-family="Helvetica,sans-Serif" font-size="10.00">OmniboxViewViews::Handle</text>
<text text-anchor="middle" x="257.5" y="-253.5" font-family="Helvetica,sans-Serif" font-size="10.00">EarlyTabActions</text>
</a>
</g>
</g>
<!-- Node20&#45;&gt;Node21 -->
<g id="edge24" class="edge">
<title>Node20&#45;&gt;Node21</title>
<path fill="none" stroke="midnightblue" d="M1021.37,-306.54C998.3,-299.82 974.63,-293.35 963,-291.5 732.7,-254.77 455.04,-256.09 328.03,-259.17"/>
<polygon fill="midnightblue" stroke="midnightblue" points="1020.6,-309.96 1031.18,-309.42 1022.58,-303.24 1020.6,-309.96"/>
</g>
<!-- Node21&#45;&gt;Node19 -->
<g id="edge25" class="edge">
<title>Node21&#45;&gt;Node19</title>
<path fill="none" stroke="midnightblue" d="M184.43,-278.88C168.52,-282.71 151.8,-286.74 136.32,-290.47"/>
<polygon fill="midnightblue" stroke="midnightblue" points="185.3,-282.27 194.2,-276.52 183.66,-275.46 185.3,-282.27"/>
</g>
<!-- Node23 -->
<g id="node23" class="node">
<title>Node23</title>
<g id="a_node23"><a xlink:href="../../d5/d13/classOmniboxController.html#a6d83556de328e78b4b531d7edac04852" target="_top" xlink:title=" ">
<polygon fill="white" stroke="black" points="1029.5,-260.5 1029.5,-290.5 1133.5,-290.5 1133.5,-260.5 1029.5,-260.5"/>
<text text-anchor="start" x="1037.5" y="-278.5" font-family="Helvetica,sans-Serif" font-size="10.00">OmniboxController::</text>
<text text-anchor="middle" x="1081.5" y="-267.5" font-family="Helvetica,sans-Serif" font-size="10.00">StartAutocomplete</text>
</a>
</g>
</g>
<!-- Node22&#45;&gt;Node23 -->
<g id="edge29" class="edge">
<title>Node22&#45;&gt;Node23</title>
<path fill="none" stroke="midnightblue" d="M1204.37,-290.42C1180.83,-287.54 1155.34,-284.42 1133.78,-281.78"/>
<polygon fill="midnightblue" stroke="midnightblue" points="1203.97,-293.9 1214.32,-291.64 1204.82,-286.95 1203.97,-293.9"/>
</g>
<!-- Node25&#45;&gt;Node18 -->
<g id="edge32" class="edge">
<title>Node25&#45;&gt;Node18</title>
<path fill="none" stroke="midnightblue" d="M808.03,-223.77C684.49,-252.03 441.17,-307.7 324.26,-334.45"/>
<polygon fill="midnightblue" stroke="midnightblue" points="808.83,-227.18 817.8,-221.53 807.27,-220.35 808.83,-227.18"/>
</g>
<!-- Node27 -->
<g id="node27" class="node">
<title>Node27</title>
<g id="a_node27"><a xlink:href="../../d0/d22/classOmniboxEditModel.html#a39926e2bd4726e63bbd5815c50075ad4" target="_top" xlink:title=" ">
<polygon fill="white" stroke="black" points="1014.5,-147.5 1014.5,-177.5 1148.5,-177.5 1148.5,-147.5 1014.5,-147.5"/>
<text text-anchor="start" x="1022.5" y="-165.5" font-family="Helvetica,sans-Serif" font-size="10.00">OmniboxEditModel::Revert</text>
<text text-anchor="middle" x="1081.5" y="-154.5" font-family="Helvetica,sans-Serif" font-size="10.00">TemporaryTextAndPopup</text>
</a>
</g>
</g>
<!-- Node26&#45;&gt;Node27 -->
<g id="edge34" class="edge">
<title>Node26&#45;&gt;Node27</title>
<path fill="none" stroke="midnightblue" d="M1189.85,-162.5C1175.95,-162.5 1161.79,-162.5 1148.52,-162.5"/>
<polygon fill="midnightblue" stroke="midnightblue" points="1189.91,-166 1199.91,-162.5 1189.91,-159 1189.91,-166"/>
</g>
<!-- Node27&#45;&gt;Node25 -->
<g id="edge37" class="edge">
<title>Node27&#45;&gt;Node25</title>
<path fill="none" stroke="midnightblue" d="M1004.44,-179.66C987.17,-183.56 968.96,-187.67 952.11,-191.47"/>
<polygon fill="midnightblue" stroke="midnightblue" points="1005.5,-183.01 1014.48,-177.4 1003.96,-176.18 1005.5,-183.01"/>
</g>
<!-- Node28 -->
<g id="node28" class="node">
<title>Node28</title>
<g id="a_node28"><a xlink:href="../../d0/d22/classOmniboxEditModel.html#a443085668cdebe43104bc5a52047d5db" target="_top" xlink:title=" ">
<polygon fill="white" stroke="black" points="182,-165.5 182,-195.5 333,-195.5 333,-165.5 182,-165.5"/>
<text text-anchor="start" x="190" y="-183.5" font-family="Helvetica,sans-Serif" font-size="10.00">OmniboxEditModel::OnEscape</text>
<text text-anchor="middle" x="257.5" y="-172.5" font-family="Helvetica,sans-Serif" font-size="10.00">KeyPressed</text>
</a>
</g>
</g>
<!-- Node27&#45;&gt;Node28 -->
<g id="edge35" class="edge">
<title>Node27&#45;&gt;Node28</title>
<path fill="none" stroke="midnightblue" d="M1004.22,-164.17C847.05,-167.61 488.87,-175.46 333.13,-178.87"/>
<polygon fill="midnightblue" stroke="midnightblue" points="1004.35,-167.67 1014.28,-163.95 1004.2,-160.67 1004.35,-167.67"/>
</g>
<!-- Node28&#45;&gt;Node19 -->
<g id="edge36" class="edge">
<title>Node28&#45;&gt;Node19</title>
<path fill="none" stroke="midnightblue" d="M226.16,-201.28C189.47,-226.41 128.61,-268.1 96.09,-290.37"/>
<polygon fill="midnightblue" stroke="midnightblue" points="228.21,-204.12 234.49,-195.58 224.26,-198.34 228.21,-204.12"/>
</g>
<!-- Node30 -->
<g id="node30" class="node">
<title>Node30</title>
<g id="a_node30"><a xlink:href="../../d7/d88/classOmniboxPopupContentsView.html#a3d38c79ff5a02bb128a765c54878bc65" target="_top" xlink:title=" ">
<polygon fill="white" stroke="black" points="1009,-0.5 1009,-30.5 1154,-30.5 1154,-0.5 1009,-0.5"/>
<text text-anchor="start" x="1017" y="-18.5" font-family="Helvetica,sans-Serif" font-size="10.00">OmniboxPopupContentsView</text>
<text text-anchor="middle" x="1081.5" y="-7.5" font-family="Helvetica,sans-Serif" font-size="10.00">::OnGestureEvent</text>
</a>
</g>
</g>
<!-- Node29&#45;&gt;Node30 -->
<g id="edge39" class="edge">
<title>Node29&#45;&gt;Node30</title>
<path fill="none" stroke="midnightblue" d="M1237.64,-70.17C1216.02,-60.32 1188.86,-48.55 1164,-39.5 1155.41,-36.37 1146.2,-33.35 1137.17,-30.57"/>
<polygon fill="midnightblue" stroke="midnightblue" points="1236.31,-73.41 1246.85,-74.4 1239.23,-67.05 1236.31,-73.41"/>
</g>
<!-- Node31 -->
<g id="node31" class="node">
<title>Node31</title>
<g id="a_node31"><a xlink:href="../../d3/d4c/classOmniboxResultView.html#adfc2b5da2f71c87fa3d391a32bc5ebf9" target="_top" xlink:title=" ">
<polygon fill="white" stroke="black" points="1025.5,-98.5 1025.5,-128.5 1137.5,-128.5 1137.5,-98.5 1025.5,-98.5"/>
<text text-anchor="start" x="1033.5" y="-116.5" font-family="Helvetica,sans-Serif" font-size="10.00">OmniboxResultView::</text>
<text text-anchor="middle" x="1081.5" y="-105.5" font-family="Helvetica,sans-Serif" font-size="10.00">OnMouseDragged</text>
</a>
</g>
</g>
<!-- Node29&#45;&gt;Node31 -->
<g id="edge40" class="edge">
<title>Node29&#45;&gt;Node31</title>
<path fill="none" stroke="midnightblue" d="M1196.88,-99.49C1176.92,-101.94 1156.02,-104.5 1137.63,-106.75"/>
<polygon fill="midnightblue" stroke="midnightblue" points="1197.41,-102.96 1206.91,-98.27 1196.56,-96.01 1197.41,-102.96"/>
</g>
<!-- Node32 -->
<g id="node32" class="node">
<title>Node32</title>
<g id="a_node32"><a xlink:href="../../d3/d4c/classOmniboxResultView.html#a6410100a85444fe2d63e736f77049d7e" target="_top" xlink:title=" ">
<polygon fill="white" stroke="black" points="1025.5,-49.5 1025.5,-79.5 1137.5,-79.5 1137.5,-49.5 1025.5,-49.5"/>
<text text-anchor="start" x="1033.5" y="-67.5" font-family="Helvetica,sans-Serif" font-size="10.00">OmniboxResultView::</text>
<text text-anchor="middle" x="1081.5" y="-56.5" font-family="Helvetica,sans-Serif" font-size="10.00">OnMousePressed</text>
</a>
</g>
</g>
<!-- Node29&#45;&gt;Node32 -->
<g id="edge41" class="edge">
<title>Node29&#45;&gt;Node32</title>
<path fill="none" stroke="midnightblue" d="M1196.88,-79.09C1176.92,-76.54 1156.02,-73.88 1137.63,-71.53"/>
<polygon fill="midnightblue" stroke="midnightblue" points="1196.55,-82.57 1206.91,-80.37 1197.43,-75.63 1196.55,-82.57"/>
</g>
<!-- Node33&#45;&gt;Node19 -->
<g id="edge44" class="edge">
<title>Node33&#45;&gt;Node19</title>
<path fill="none" stroke="midnightblue" d="M1191.23,-521.01C1111.6,-518.12 990.66,-514.5 885.5,-514.5 885.5,-514.5 885.5,-514.5 449,-514.5 295.45,-514.5 275.05,-431.71 146,-348.5 131.07,-338.87 114.02,-328.66 100.26,-320.6"/>
<polygon fill="midnightblue" stroke="midnightblue" points="1191.58,-524.52 1201.7,-521.39 1191.84,-517.53 1191.58,-524.52"/>
</g>
<!-- Node34 -->
<g id="node34" class="node">
<title>Node34</title>
<g id="a_node34"><a xlink:href="../../d0/d22/classOmniboxEditModel.html#aeef542747913fd1ebe0edc5a9714095c" target="_top" xlink:title=" ">
<polygon fill="white" stroke="black" points="1014,-646.5 1014,-676.5 1149,-676.5 1149,-646.5 1014,-646.5"/>
<text text-anchor="start" x="1022" y="-664.5" font-family="Helvetica,sans-Serif" font-size="10.00">OmniboxEditModel::Trigger</text>
<text text-anchor="middle" x="1081.5" y="-653.5" font-family="Helvetica,sans-Serif" font-size="10.00">PopupSelectionAction</text>
</a>
</g>
</g>
<!-- Node33&#45;&gt;Node34 -->
<g id="edge45" class="edge">
<title>Node33&#45;&gt;Node34</title>
<path fill="none" stroke="midnightblue" d="M1211.31,-543.58C1207.4,-545.4 1203.6,-547.37 1200,-549.5 1155.39,-575.93 1114.2,-622.23 1094.57,-646.18"/>
<polygon fill="midnightblue" stroke="midnightblue" points="1212.78,-546.76 1220.59,-539.6 1210.02,-540.32 1212.78,-546.76"/>
</g>
<!-- Node34&#45;&gt;Node2 -->
<g id="edge48" class="edge">
<title>Node34&#45;&gt;Node2</title>
<path fill="none" stroke="midnightblue" d="M1018.44,-642.33C1011.64,-639.17 1005.01,-635.57 999,-631.5 979.2,-618.09 982.92,-604.74 963,-591.5 956,-586.85 948.11,-582.9 940.11,-579.59"/>
<polygon fill="midnightblue" stroke="midnightblue" points="1017.22,-645.62 1027.79,-646.38 1020,-639.19 1017.22,-645.62"/>
</g>
<!-- Node35 -->
<g id="node35" class="node">
<title>Node35</title>
<g id="a_node35"><a xlink:href="../../d3/d4c/classOmniboxResultView.html#adea3835a2f2809073b71b101cfecc957" target="_top" xlink:title=" ">
<polygon fill="white" stroke="black" points="612.5,-647.5 612.5,-677.5 724.5,-677.5 724.5,-647.5 612.5,-647.5"/>
<text text-anchor="start" x="620.5" y="-665.5" font-family="Helvetica,sans-Serif" font-size="10.00">OmniboxResultView::</text>
<text text-anchor="middle" x="668.5" y="-654.5" font-family="Helvetica,sans-Serif" font-size="10.00">ButtonPressed</text>
</a>
</g>
</g>
<!-- Node34&#45;&gt;Node35 -->
<g id="edge46" class="edge">
<title>Node34&#45;&gt;Node35</title>
<path fill="none" stroke="midnightblue" d="M1003.38,-661.69C922.16,-661.89 796.31,-662.19 724.57,-662.37"/>
<polygon fill="midnightblue" stroke="midnightblue" points="1003.56,-665.19 1013.55,-661.66 1003.54,-658.19 1003.56,-665.19"/>
</g>
<!-- Node36 -->
<g id="node36" class="node">
<title>Node36</title>
<g id="a_node36"><a xlink:href="../../d2/dcb/classOmniboxRowView_1_1HeaderView.html#a441ded0bc83346ff1773063183d470f2" target="_top" xlink:title=" ">
<polygon fill="white" stroke="black" points="806,-600.5 806,-630.5 963,-630.5 963,-600.5 806,-600.5"/>
<text text-anchor="start" x="814" y="-618.5" font-family="Helvetica,sans-Serif" font-size="10.00">OmniboxRowView::HeaderView</text>
<text text-anchor="middle" x="884.5" y="-607.5" font-family="Helvetica,sans-Serif" font-size="10.00">::HeaderToggleButtonPressed</text>
</a>
</g>
</g>
<!-- Node34&#45;&gt;Node36 -->
<g id="edge49" class="edge">
<title>Node34&#45;&gt;Node36</title>
<path fill="none" stroke="midnightblue" d="M1006.85,-644.13C987.87,-639.65 967.59,-634.87 949.16,-630.52"/>
<polygon fill="midnightblue" stroke="midnightblue" points="1006.11,-647.55 1016.65,-646.44 1007.72,-640.74 1006.11,-647.55"/>
</g>
<!-- Node39 -->
<g id="node39" class="node">
<title>Node39</title>
<g id="a_node39"><a xlink:href="../../d2/dcb/classOmniboxRowView_1_1HeaderView.html#af9e1207af3e2688cdccfd7b8c1267a3c" target="_top" xlink:title=" ">
<polygon fill="white" stroke="black" points="806,-690.5 806,-720.5 963,-720.5 963,-690.5 806,-690.5"/>
<text text-anchor="start" x="814" y="-708.5" font-family="Helvetica,sans-Serif" font-size="10.00">OmniboxRowView::HeaderView</text>
<text text-anchor="middle" x="884.5" y="-697.5" font-family="Helvetica,sans-Serif" font-size="10.00">::OnMouseReleased</text>
</a>
</g>
</g>
<!-- Node34&#45;&gt;Node39 -->
<g id="edge53" class="edge">
<title>Node34&#45;&gt;Node39</title>
<path fill="none" stroke="midnightblue" d="M1003.97,-678.77C986.83,-682.64 968.79,-686.71 952.09,-690.47"/>
<polygon fill="midnightblue" stroke="midnightblue" points="1004.95,-682.13 1013.94,-676.52 1003.41,-675.31 1004.95,-682.13"/>
</g>
<!-- Node35&#45;&gt;Node4 -->
<g id="edge47" class="edge">
<title>Node35&#45;&gt;Node4</title>
<path fill="none" stroke="midnightblue" d="M602.14,-660.99C571.48,-660.28 535.34,-659.45 506.09,-658.77"/>
<polygon fill="midnightblue" stroke="midnightblue" points="602.23,-664.49 612.31,-661.23 602.39,-657.5 602.23,-664.49"/>
</g>
<!-- Node37 -->
<g id="node37" class="node">
<title>Node37</title>
<g id="a_node37"><a xlink:href="../../d2/dcb/classOmniboxRowView_1_1HeaderView.html#ad1abf8339bf99de0b39a9bb43111ba93" target="_top" xlink:title=" ">
<polygon fill="white" stroke="black" points="590,-598.5 590,-628.5 747,-628.5 747,-598.5 590,-598.5"/>
<text text-anchor="start" x="598" y="-616.5" font-family="Helvetica,sans-Serif" font-size="10.00">OmniboxRowView::HeaderView</text>
<text text-anchor="middle" x="668.5" y="-605.5" font-family="Helvetica,sans-Serif" font-size="10.00">::HeaderView</text>
</a>
</g>
</g>
<!-- Node36&#45;&gt;Node37 -->
<g id="edge50" class="edge">
<title>Node36&#45;&gt;Node37</title>
<path fill="none" stroke="midnightblue" d="M795.51,-614.68C779.48,-614.53 762.86,-614.37 747.16,-614.23"/>
<polygon fill="midnightblue" stroke="midnightblue" points="795.91,-618.18 805.94,-614.78 795.97,-611.18 795.91,-618.18"/>
</g>
<!-- Node38 -->
<g id="node38" class="node">
<title>Node38</title>
<g id="a_node38"><a xlink:href="../../da/da2/classOmniboxRowView.html#a6add650851301372ee9b8a6671cfa28c" target="_top" xlink:title=" ">
<polygon fill="white" stroke="black" points="370,-604 370,-623 530,-623 530,-604 370,-604"/>
<text text-anchor="middle" x="450" y="-611" font-family="Helvetica,sans-Serif" font-size="10.00">OmniboxRowView::ShowHeader</text>
</a>
</g>
</g>
<!-- Node37&#45;&gt;Node38 -->
<g id="edge51" class="edge">
<title>Node37&#45;&gt;Node38</title>
<path fill="none" stroke="midnightblue" d="M579.83,-613.5C563.41,-613.5 546.34,-613.5 530.2,-613.5"/>
<polygon fill="midnightblue" stroke="midnightblue" points="579.95,-617 589.95,-613.5 579.95,-610 579.95,-617"/>
</g>
<!-- Node38&#45;&gt;Node5 -->
<g id="edge52" class="edge">
<title>Node38&#45;&gt;Node5</title>
<path fill="none" stroke="midnightblue" d="M359.91,-623.79C349.91,-624.94 339.82,-626.11 330.08,-627.23"/>
<polygon fill="midnightblue" stroke="midnightblue" points="360.33,-627.26 369.87,-622.64 359.53,-620.31 360.33,-627.26"/>
</g>
</g>
</svg>
        <g id="navigator" transform="translate(0 0)" fill="#404254">
                <rect fill="#f2f5e9" fill-opacity="0.5" stroke="#606060" stroke-width=".5" x="0" y="0" width="60" height="60"/>
                <use id="zoomplus" xlink:href="#zoomPlus" x="17" y="9" onmousedown="handleZoom(evt,'in')"/>
                <use id="zoomminus" xlink:href="#zoomMin" x="42" y="9" onmousedown="handleZoom(evt,'out')"/>
                <use id="reset" xlink:href="#resetDef" x="30" y="36" onmousedown="handleReset()"/>
                <g id="arrowUp" xlink:href="#dirArrow" transform="translate(30 24)" onmousedown="handlePan(0,-1)">
                  <use xlink:href="#rim" fill="#404040">
                        <set attributeName="fill" to="#808080" begin="arrowUp.mouseover" end="arrowUp.mouseout"/>
                  </use>
                  <path fill="none" stroke="white" stroke-width="1.5" d="M0,-3.0v7 M-2.5,-0.5L0,-3.0L2.5,-0.5"/>
                </g>
                <g id="arrowRight" xlink:href="#dirArrow" transform="rotate(90) translate(36 -43)" onmousedown="handlePan(1,0)">
                  <use xlink:href="#rim" fill="#404040">
                        <set attributeName="fill" to="#808080" begin="arrowRight.mouseover" end="arrowRight.mouseout"/>
                  </use>
                  <path fill="none" stroke="white" stroke-width="1.5" d="M0,-3.0v7 M-2.5,-0.5L0,-3.0L2.5,-0.5"/>
                </g>
                <g id="arrowDown" xlink:href="#dirArrow" transform="rotate(180) translate(-30 -48)" onmousedown="handlePan(0,1)">
                  <use xlink:href="#rim" fill="#404040">
                        <set attributeName="fill" to="#808080" begin="arrowDown.mouseover" end="arrowDown.mouseout"/>
                  </use>
                  <path fill="none" stroke="white" stroke-width="1.5" d="M0,-3.0v7 M-2.5,-0.5L0,-3.0L2.5,-0.5"/>
                </g>
                <g id="arrowLeft" xlink:href="#dirArrow" transform="rotate(270) translate(-36 17)" onmousedown="handlePan(-1,0)">
                  <use xlink:href="#rim" fill="#404040">
                        <set attributeName="fill" to="#808080" begin="arrowLeft.mouseover" end="arrowLeft.mouseout"/>
                  </use>
                  <path fill="none" stroke="white" stroke-width="1.5" d="M0,-3.0v7 M-2.5,-0.5L0,-3.0L2.5,-0.5"/>
                </g>
        </g>
        <svg viewBox="0 0 15 15" width="100%" height="30px" preserveAspectRatio="xMaxYMin meet">
         <g id="arrow_out" transform="scale(0.3 0.3)">
          <a xlink:href="classOmniboxEditModel_ae128964f61e4856f0536cd9ca9284e36_icgraph_org.svg" target="_base">
           <rect id="button" ry="5" rx="5" y="6" x="6" height="38" width="38"
                fill="#f2f5e9" fill-opacity="0.5" stroke="#606060" stroke-width="1.0"/>
           <path id="arrow"
             d="M 11.500037,31.436501 C 11.940474,20.09759 22.043105,11.32322 32.158766,21.979434 L 37.068811,17.246167 C 37.068811,17.246167 37.088388,32 37.088388,32 L 22.160133,31.978069 C 22.160133,31.978069 26.997745,27.140456 26.997745,27.140456 C 18.528582,18.264221 13.291696,25.230495 11.500037,31.436501 z"
             style="fill:#404040;"/>
          </a>
         </g>
        </svg>
</svg>
