<?xml version="1.0" encoding="UTF-8" standalone="no"?>
<!DOCTYPE svg PUBLIC "-//W3C//DTD SVG 1.1//EN"
 "http://www.w3.org/Graphics/SVG/1.1/DTD/svg11.dtd">
<!-- Generated by graphviz version 2.43.0 (0)
 -->
<!-- Title: OmniboxEditModel::ConsumeCtrlKey Pages: 1 -->
<svg width="2101pt" height="683pt"
 viewBox="0.00 0.00 2101.00 682.66" xmlns="http://www.w3.org/2000/svg" xmlns:xlink="http://www.w3.org/1999/xlink">
<g id="graph0" class="graph" transform="scale(1 1) rotate(0) translate(4 678.66)">
<title>OmniboxEditModel::ConsumeCtrlKey</title>
<polygon fill="white" stroke="transparent" points="-4,4 -4,-678.66 2097,-678.66 2097,4 -4,4"/>
<!-- Node1 -->
<g id="node1" class="node">
<title>Node1</title>
<g id="a_node1"><a xlink:title=" ">
<polygon fill="#bfbfbf" stroke="black" points="1946,-320.5 1946,-350.5 2093,-350.5 2093,-320.5 1946,-320.5"/>
<text text-anchor="start" x="1954" y="-338.5" font-family="Helvetica,sans-Serif" font-size="10.00">OmniboxEditModel::Consume</text>
<text text-anchor="middle" x="2019.5" y="-327.5" font-family="Helvetica,sans-Serif" font-size="10.00">CtrlKey</text>
</a>
</g>
</g>
<!-- Node2 -->
<g id="node2" class="node">
<title>Node2</title>
<g id="a_node2"><a xlink:href="../../d0/d22/classOmniboxEditModel.html#ada57fd155509f60afd9228e3a07e9b47" target="_top" xlink:title=" ">
<polygon fill="white" stroke="black" points="795,-628.5 795,-658.5 934,-658.5 934,-628.5 795,-628.5"/>
<text text-anchor="start" x="803" y="-646.5" font-family="Helvetica,sans-Serif" font-size="10.00">OmniboxEditModel::OnAfter</text>
<text text-anchor="middle" x="864.5" y="-635.5" font-family="Helvetica,sans-Serif" font-size="10.00">PossibleChange</text>
</a>
</g>
</g>
<!-- Node1&#45;&gt;Node2 -->
<g id="edge1" class="edge">
<title>Node1&#45;&gt;Node2</title>
<path fill="none" stroke="midnightblue" d="M2005.17,-359.84C1963.18,-432.94 1825.79,-645.5 1648,-645.5 1648,-645.5 1648,-645.5 1278,-645.5 1156.97,-645.5 1015.97,-644.63 934.11,-644.04"/>
<polygon fill="midnightblue" stroke="midnightblue" points="2008.37,-361.3 2010.25,-350.87 2002.28,-357.85 2008.37,-361.3"/>
</g>
<!-- Node9 -->
<g id="node9" class="node">
<title>Node9</title>
<g id="a_node9"><a xlink:href="../../d0/d22/classOmniboxEditModel.html#a0bb7ed3d2b245eff5af2ae45d6f27a7c" target="_top" xlink:title=" ">
<polygon fill="white" stroke="black" points="1761,-320.5 1761,-350.5 1907,-350.5 1907,-320.5 1761,-320.5"/>
<text text-anchor="start" x="1769" y="-338.5" font-family="Helvetica,sans-Serif" font-size="10.00">OmniboxEditModel::OnPopup</text>
<text text-anchor="middle" x="1834" y="-327.5" font-family="Helvetica,sans-Serif" font-size="10.00">DataChanged</text>
</a>
</g>
</g>
<!-- Node1&#45;&gt;Node9 -->
<g id="edge9" class="edge">
<title>Node1&#45;&gt;Node9</title>
<path fill="none" stroke="midnightblue" d="M1935.75,-335.5C1926.26,-335.5 1916.64,-335.5 1907.3,-335.5"/>
<polygon fill="midnightblue" stroke="midnightblue" points="1935.98,-339 1945.98,-335.5 1935.98,-332 1935.98,-339"/>
</g>
<!-- Node42 -->
<g id="node42" class="node">
<title>Node42</title>
<g id="a_node42"><a xlink:href="../../d0/d94/classOmniboxViewViews.html#ae9d72f709ba57cd59d22d6fbef32dd1c" target="_top" xlink:title=" ">
<polygon fill="white" stroke="black" points="1758,-282 1758,-301 1910,-301 1910,-282 1758,-282"/>
<text text-anchor="middle" x="1834" y="-289" font-family="Helvetica,sans-Serif" font-size="10.00">OmniboxViewViews::SetFocus</text>
</a>
</g>
</g>
<!-- Node1&#45;&gt;Node42 -->
<g id="edge56" class="edge">
<title>Node1&#45;&gt;Node42</title>
<path fill="none" stroke="midnightblue" d="M1945.95,-318.1C1921.66,-312.28 1895.49,-306 1874.67,-301.01"/>
<polygon fill="midnightblue" stroke="midnightblue" points="1945.32,-321.55 1955.86,-320.48 1946.95,-314.75 1945.32,-321.55"/>
</g>
<!-- Node3 -->
<g id="node3" class="node">
<title>Node3</title>
<g id="a_node3"><a xlink:href="../../d0/d94/classOmniboxViewViews.html#a18cba16b87566313a94b57d0e4a7ce12" target="_top" xlink:title=" ">
<polygon fill="white" stroke="black" points="575,-628.5 575,-658.5 719,-658.5 719,-628.5 575,-628.5"/>
<text text-anchor="start" x="583" y="-646.5" font-family="Helvetica,sans-Serif" font-size="10.00">OmniboxViewViews::OnAfter</text>
<text text-anchor="middle" x="647" y="-635.5" font-family="Helvetica,sans-Serif" font-size="10.00">PossibleChange</text>
</a>
</g>
</g>
<!-- Node2&#45;&gt;Node3 -->
<g id="edge2" class="edge">
<title>Node2&#45;&gt;Node3</title>
<path fill="none" stroke="midnightblue" d="M784.67,-643.5C763.21,-643.5 740.09,-643.5 719.09,-643.5"/>
<polygon fill="midnightblue" stroke="midnightblue" points="784.72,-647 794.72,-643.5 784.72,-640 784.72,-647"/>
</g>
<!-- Node4 -->
<g id="node4" class="node">
<title>Node4</title>
<g id="a_node4"><a xlink:href="../../d0/d94/classOmniboxViewViews.html#a487a0ced2870997b0f88d8dcab9a4f0e" target="_top" xlink:title=" ">
<polygon fill="white" stroke="black" points="0,-629.5 0,-659.5 146,-659.5 146,-629.5 0,-629.5"/>
<text text-anchor="start" x="8" y="-647.5" font-family="Helvetica,sans-Serif" font-size="10.00">OmniboxViewViews::Execute</text>
<text text-anchor="middle" x="73" y="-636.5" font-family="Helvetica,sans-Serif" font-size="10.00">Command</text>
</a>
</g>
</g>
<!-- Node3&#45;&gt;Node4 -->
<g id="edge3" class="edge">
<title>Node3&#45;&gt;Node4</title>
<path fill="none" stroke="midnightblue" d="M578.46,-660.7C562.97,-663.94 546.5,-666.83 531,-668.5 395.52,-683.06 236.46,-667.34 146.22,-655.38"/>
<polygon fill="midnightblue" stroke="midnightblue" points="579.45,-664.07 588.48,-658.53 577.97,-657.23 579.45,-664.07"/>
</g>
<!-- Node5 -->
<g id="node5" class="node">
<title>Node5</title>
<g id="a_node5"><a xlink:href="../../d0/d94/classOmniboxViewViews.html#a81d025d1f692c96482925dfbab529691" target="_top" xlink:title=" ">
<polygon fill="white" stroke="black" points="378,-579.5 378,-609.5 522,-609.5 522,-579.5 378,-579.5"/>
<text text-anchor="start" x="386" y="-597.5" font-family="Helvetica,sans-Serif" font-size="10.00">OmniboxViewViews::OnAfter</text>
<text text-anchor="middle" x="450" y="-586.5" font-family="Helvetica,sans-Serif" font-size="10.00">UserAction</text>
</a>
</g>
</g>
<!-- Node3&#45;&gt;Node5 -->
<g id="edge4" class="edge">
<title>Node3&#45;&gt;Node5</title>
<path fill="none" stroke="midnightblue" d="M576.45,-626.02C554.96,-620.62 531.49,-614.72 510.72,-609.51"/>
<polygon fill="midnightblue" stroke="midnightblue" points="575.62,-629.42 586.17,-628.47 577.32,-622.63 575.62,-629.42"/>
</g>
<!-- Node6 -->
<g id="node6" class="node">
<title>Node6</title>
<g id="a_node6"><a xlink:href="../../d0/d94/classOmniboxViewViews.html#af593bb600ecfa2ed731497a260451b47" target="_top" xlink:title=" ">
<polygon fill="white" stroke="black" points="369,-628.5 369,-658.5 531,-658.5 531,-628.5 369,-628.5"/>
<text text-anchor="start" x="377" y="-646.5" font-family="Helvetica,sans-Serif" font-size="10.00">OmniboxViewViews::OnOmnibox</text>
<text text-anchor="middle" x="450" y="-635.5" font-family="Helvetica,sans-Serif" font-size="10.00">Paste</text>
</a>
</g>
</g>
<!-- Node3&#45;&gt;Node6 -->
<g id="edge5" class="edge">
<title>Node3&#45;&gt;Node6</title>
<path fill="none" stroke="midnightblue" d="M564.71,-643.5C553.65,-643.5 542.31,-643.5 531.27,-643.5"/>
<polygon fill="midnightblue" stroke="midnightblue" points="564.77,-647 574.77,-643.5 564.77,-640 564.77,-647"/>
</g>
<!-- Node7 -->
<g id="node7" class="node">
<title>Node7</title>
<g id="a_node7"><a xlink:href="../../d0/d94/classOmniboxViewViews.html#ae3ebda306ffa960bb7a3a1ebe7f7fc76" target="_top" xlink:title=" ">
<polygon fill="white" stroke="black" points="184.5,-587.5 184.5,-617.5 330.5,-617.5 330.5,-587.5 184.5,-587.5"/>
<text text-anchor="start" x="192.5" y="-605.5" font-family="Helvetica,sans-Serif" font-size="10.00">OmniboxViewViews::Execute</text>
<text text-anchor="middle" x="257.5" y="-594.5" font-family="Helvetica,sans-Serif" font-size="10.00">TextEditCommand</text>
</a>
</g>
</g>
<!-- Node6&#45;&gt;Node7 -->
<g id="edge6" class="edge">
<title>Node6&#45;&gt;Node7</title>
<path fill="none" stroke="midnightblue" d="M369.33,-626.35C355.72,-623.42 341.67,-620.4 328.35,-617.53"/>
<polygon fill="midnightblue" stroke="midnightblue" points="368.63,-629.78 379.15,-628.47 370.11,-622.94 368.63,-629.78"/>
</g>
<!-- Node7&#45;&gt;Node4 -->
<g id="edge7" class="edge">
<title>Node7&#45;&gt;Node4</title>
<path fill="none" stroke="midnightblue" d="M181.11,-619.85C167.21,-623.05 152.8,-626.37 139.22,-629.49"/>
<polygon fill="midnightblue" stroke="midnightblue" points="182.17,-623.2 191.13,-617.54 180.6,-616.38 182.17,-623.2"/>
</g>
<!-- Node8 -->
<g id="node8" class="node">
<title>Node8</title>
<g id="a_node8"><a xlink:href="../../d0/d94/classOmniboxViewViews.html#a5a64c1e16631c3301fb57307402784dc" target="_top" xlink:title=" ">
<polygon fill="white" stroke="black" points="2.5,-434.5 2.5,-464.5 143.5,-464.5 143.5,-434.5 2.5,-434.5"/>
<text text-anchor="start" x="10.5" y="-452.5" font-family="Helvetica,sans-Serif" font-size="10.00">OmniboxViewViews::Handle</text>
<text text-anchor="middle" x="73" y="-441.5" font-family="Helvetica,sans-Serif" font-size="10.00">KeyEvent</text>
</a>
</g>
</g>
<!-- Node7&#45;&gt;Node8 -->
<g id="edge8" class="edge">
<title>Node7&#45;&gt;Node8</title>
<path fill="none" stroke="midnightblue" d="M230.46,-580.89C216.14,-569 198.07,-553.96 182,-540.5 150.23,-513.9 113.34,-482.76 91.93,-464.67"/>
<polygon fill="midnightblue" stroke="midnightblue" points="228.48,-583.8 238.41,-587.5 232.95,-578.42 228.48,-583.8"/>
</g>
<!-- Node10 -->
<g id="node10" class="node">
<title>Node10</title>
<g id="a_node10"><a xlink:href="../../d0/d22/classOmniboxEditModel.html#a074bf2191bb13b8c34724fe8c865a70a" target="_top" xlink:title=" ">
<polygon fill="white" stroke="black" points="1572,-162.5 1572,-192.5 1722,-192.5 1722,-162.5 1572,-162.5"/>
<text text-anchor="start" x="1580" y="-180.5" font-family="Helvetica,sans-Serif" font-size="10.00">OmniboxEditModel::OnCurrent</text>
<text text-anchor="middle" x="1647" y="-169.5" font-family="Helvetica,sans-Serif" font-size="10.00">MatchChanged</text>
</a>
</g>
</g>
<!-- Node9&#45;&gt;Node10 -->
<g id="edge10" class="edge">
<title>Node9&#45;&gt;Node10</title>
<path fill="none" stroke="midnightblue" d="M1767.02,-315.96C1763.89,-314.28 1760.86,-312.46 1758,-310.5 1710.79,-278.15 1672.79,-220.04 1656.54,-192.61"/>
<polygon fill="midnightblue" stroke="midnightblue" points="1765.55,-319.14 1776.07,-320.35 1768.6,-312.84 1765.55,-319.14"/>
</g>
<!-- Node11 -->
<g id="node11" class="node">
<title>Node11</title>
<g id="a_node11"><a xlink:href="../../d5/d13/classOmniboxController.html#a8a273db0287d14e6dcb4492d8c3c98fd" target="_top" xlink:title=" ">
<polygon fill="white" stroke="black" points="1411.5,-98.5 1411.5,-128.5 1515.5,-128.5 1515.5,-98.5 1411.5,-98.5"/>
<text text-anchor="start" x="1419.5" y="-116.5" font-family="Helvetica,sans-Serif" font-size="10.00">OmniboxController::</text>
<text text-anchor="middle" x="1463.5" y="-105.5" font-family="Helvetica,sans-Serif" font-size="10.00">OnResultChanged</text>
</a>
</g>
</g>
<!-- Node9&#45;&gt;Node11 -->
<g id="edge12" class="edge">
<title>Node9&#45;&gt;Node11</title>
<path fill="none" stroke="midnightblue" d="M1773.35,-316.89C1768.1,-314.87 1762.92,-312.73 1758,-310.5 1670.74,-270.91 1639.15,-269.85 1572,-201.5 1549.13,-178.22 1561.15,-158.3 1536,-137.5 1530.05,-132.58 1523.04,-128.65 1515.78,-125.52"/>
<polygon fill="midnightblue" stroke="midnightblue" points="1772.22,-320.2 1782.82,-320.39 1774.65,-313.64 1772.22,-320.2"/>
</g>
<!-- Node12 -->
<g id="node12" class="node">
<title>Node12</title>
<g id="a_node12"><a xlink:href="../../d1/db1/classOmniboxPopupModel.html#a9bee10e41819099c41b5ad5cd989617a" target="_top" xlink:title=" ">
<polygon fill="white" stroke="black" points="1589,-360.5 1589,-390.5 1705,-390.5 1705,-360.5 1589,-360.5"/>
<text text-anchor="start" x="1597" y="-378.5" font-family="Helvetica,sans-Serif" font-size="10.00">OmniboxPopupModel::</text>
<text text-anchor="middle" x="1647" y="-367.5" font-family="Helvetica,sans-Serif" font-size="10.00">SetSelection</text>
</a>
</g>
</g>
<!-- Node9&#45;&gt;Node12 -->
<g id="edge13" class="edge">
<title>Node9&#45;&gt;Node12</title>
<path fill="none" stroke="midnightblue" d="M1753.54,-352.68C1737.26,-356.2 1720.43,-359.84 1705.12,-363.15"/>
<polygon fill="midnightblue" stroke="midnightblue" points="1754.55,-356.04 1763.59,-350.51 1753.07,-349.2 1754.55,-356.04"/>
</g>
<!-- Node10&#45;&gt;Node11 -->
<g id="edge11" class="edge">
<title>Node10&#45;&gt;Node11</title>
<path fill="none" stroke="midnightblue" d="M1595.82,-158.95C1577.08,-152.11 1555.6,-144.35 1536,-137.5 1527.59,-134.56 1518.61,-131.49 1509.95,-128.57"/>
<polygon fill="midnightblue" stroke="midnightblue" points="1594.75,-162.29 1605.34,-162.44 1597.15,-155.72 1594.75,-162.29"/>
</g>
<!-- Node13 -->
<g id="node13" class="node">
<title>Node13</title>
<g id="a_node13"><a xlink:href="../../d3/d0a/classOmniboxSuggestionButtonRowView.html#a35216a3671475e4ee13507b0465d5eb8" target="_top" xlink:title=" ">
<polygon fill="white" stroke="black" points="1008,-338.5 1008,-368.5 1161,-368.5 1161,-338.5 1008,-338.5"/>
<text text-anchor="start" x="1016" y="-356.5" font-family="Helvetica,sans-Serif" font-size="10.00">OmniboxSuggestionButtonRow</text>
<text text-anchor="middle" x="1084.5" y="-345.5" font-family="Helvetica,sans-Serif" font-size="10.00">View::ButtonPressed</text>
</a>
</g>
</g>
<!-- Node12&#45;&gt;Node13 -->
<g id="edge14" class="edge">
<title>Node12&#45;&gt;Node13</title>
<path fill="none" stroke="midnightblue" d="M1578.74,-372.86C1473.6,-368.73 1271,-360.78 1161.01,-356.46"/>
<polygon fill="midnightblue" stroke="midnightblue" points="1578.78,-376.36 1588.91,-373.26 1579.06,-369.37 1578.78,-376.36"/>
</g>
<!-- Node18 -->
<g id="node18" class="node">
<title>Node18</title>
<g id="a_node18"><a xlink:href="../../d0/d22/classOmniboxEditModel.html#a981623c1db1ef3409627b8cc237fe6a6" target="_top" xlink:title=" ">
<polygon fill="white" stroke="black" points="1014,-586.5 1014,-616.5 1155,-616.5 1155,-586.5 1014,-586.5"/>
<text text-anchor="start" x="1022" y="-604.5" font-family="Helvetica,sans-Serif" font-size="10.00">OmniboxEditModel::OnUpOr</text>
<text text-anchor="middle" x="1084.5" y="-593.5" font-family="Helvetica,sans-Serif" font-size="10.00">DownKeyPressed</text>
</a>
</g>
</g>
<!-- Node12&#45;&gt;Node18 -->
<g id="edge19" class="edge">
<title>Node12&#45;&gt;Node18</title>
<path fill="none" stroke="midnightblue" d="M1638.68,-400.3C1625.43,-440.33 1593.38,-518.38 1536,-554.5 1418.71,-628.34 1249.39,-622.78 1155.27,-612.16"/>
<polygon fill="midnightblue" stroke="midnightblue" points="1642.09,-401.12 1641.79,-390.53 1635.42,-399 1642.09,-401.12"/>
</g>
<!-- Node19 -->
<g id="node19" class="node">
<title>Node19</title>
<g id="a_node19"><a xlink:href="../../d1/db1/classOmniboxPopupModel.html#af648fbf58e6edfef7d14df5c6056f399" target="_top" xlink:title=" ">
<polygon fill="white" stroke="black" points="1405.5,-514.5 1405.5,-544.5 1521.5,-544.5 1521.5,-514.5 1405.5,-514.5"/>
<text text-anchor="start" x="1413.5" y="-532.5" font-family="Helvetica,sans-Serif" font-size="10.00">OmniboxPopupModel::</text>
<text text-anchor="middle" x="1463.5" y="-521.5" font-family="Helvetica,sans-Serif" font-size="10.00">ResetToInitialState</text>
</a>
</g>
</g>
<!-- Node12&#45;&gt;Node19 -->
<g id="edge21" class="edge">
<title>Node12&#45;&gt;Node19</title>
<path fill="none" stroke="midnightblue" d="M1630.13,-399.05C1610.71,-426.36 1575.49,-471.24 1536,-499.5 1527.9,-505.3 1518.51,-510.25 1509.25,-514.36"/>
<polygon fill="midnightblue" stroke="midnightblue" points="1633.01,-401.04 1635.87,-390.84 1627.27,-397.03 1633.01,-401.04"/>
</g>
<!-- Node22 -->
<g id="node22" class="node">
<title>Node22</title>
<g id="a_node22"><a xlink:href="../../d7/d88/classOmniboxPopupContentsView.html#a98a7b1561a882c1894a11c08d007ca66" target="_top" xlink:title=" ">
<polygon fill="white" stroke="black" points="1391,-147.5 1391,-177.5 1536,-177.5 1536,-147.5 1391,-147.5"/>
<text text-anchor="start" x="1399" y="-165.5" font-family="Helvetica,sans-Serif" font-size="10.00">OmniboxPopupContentsView</text>
<text text-anchor="middle" x="1463.5" y="-154.5" font-family="Helvetica,sans-Serif" font-size="10.00">::SetSelectedIndex</text>
</a>
</g>
</g>
<!-- Node12&#45;&gt;Node22 -->
<g id="edge26" class="edge">
<title>Node12&#45;&gt;Node22</title>
<path fill="none" stroke="midnightblue" d="M1617.6,-354.12C1602.72,-341.92 1584.95,-325.66 1572,-308.5 1550.21,-279.63 1556.92,-265.01 1536,-235.5 1520.3,-213.36 1497.83,-191.61 1482.29,-177.69"/>
<polygon fill="midnightblue" stroke="midnightblue" points="1615.53,-356.94 1625.53,-360.46 1619.91,-351.48 1615.53,-356.94"/>
</g>
<!-- Node26 -->
<g id="node26" class="node">
<title>Node26</title>
<g id="a_node26"><a xlink:href="../../d1/db1/classOmniboxPopupModel.html#a8e49ba1b4cb7d95640b5eeb0613b5fe8" target="_top" xlink:title=" ">
<polygon fill="white" stroke="black" points="1405.5,-245.5 1405.5,-275.5 1521.5,-275.5 1521.5,-245.5 1405.5,-245.5"/>
<text text-anchor="start" x="1413.5" y="-263.5" font-family="Helvetica,sans-Serif" font-size="10.00">OmniboxPopupModel::</text>
<text text-anchor="middle" x="1463.5" y="-252.5" font-family="Helvetica,sans-Serif" font-size="10.00">SetSelectedLineState</text>
</a>
</g>
</g>
<!-- Node12&#45;&gt;Node26 -->
<g id="edge30" class="edge">
<title>Node12&#45;&gt;Node26</title>
<path fill="none" stroke="midnightblue" d="M1613.6,-354.97C1577.6,-332.16 1520.3,-295.86 1488.23,-275.54"/>
<polygon fill="midnightblue" stroke="midnightblue" points="1611.95,-358.07 1622.27,-360.47 1615.7,-352.16 1611.95,-358.07"/>
</g>
<!-- Node29 -->
<g id="node29" class="node">
<title>Node29</title>
<g id="a_node29"><a xlink:href="../../d1/db1/classOmniboxPopupModel.html#a33a1c7164cb7fdceddbddf00267ea135" target="_top" xlink:title=" ">
<polygon fill="white" stroke="black" points="1026.5,-436.5 1026.5,-466.5 1142.5,-466.5 1142.5,-436.5 1026.5,-436.5"/>
<text text-anchor="start" x="1034.5" y="-454.5" font-family="Helvetica,sans-Serif" font-size="10.00">OmniboxPopupModel::</text>
<text text-anchor="middle" x="1084.5" y="-443.5" font-family="Helvetica,sans-Serif" font-size="10.00">StepSelection</text>
</a>
</g>
</g>
<!-- Node12&#45;&gt;Node29 -->
<g id="edge43" class="edge">
<title>Node12&#45;&gt;Node29</title>
<path fill="none" stroke="midnightblue" d="M1604.98,-394.94C1584.56,-404.13 1559.31,-414.75 1536,-422.5 1394.35,-469.62 1351.99,-475.97 1203,-466.5 1183.3,-465.25 1161.85,-462.82 1142.73,-460.29"/>
<polygon fill="midnightblue" stroke="midnightblue" points="1606.64,-398.03 1614.29,-390.7 1603.74,-391.66 1606.64,-398.03"/>
</g>
<!-- Node35 -->
<g id="node35" class="node">
<title>Node35</title>
<g id="a_node35"><a xlink:href="../../d1/db1/classOmniboxPopupModel.html#aa11680c969b457fc53da3446feabf8a8" target="_top" xlink:title=" ">
<polygon fill="white" stroke="black" points="1405.5,-382.5 1405.5,-412.5 1521.5,-412.5 1521.5,-382.5 1405.5,-382.5"/>
<text text-anchor="start" x="1413.5" y="-400.5" font-family="Helvetica,sans-Serif" font-size="10.00">OmniboxPopupModel::</text>
<text text-anchor="middle" x="1463.5" y="-389.5" font-family="Helvetica,sans-Serif" font-size="10.00">TryDeletingLine</text>
</a>
</g>
</g>
<!-- Node12&#45;&gt;Node35 -->
<g id="edge44" class="edge">
<title>Node12&#45;&gt;Node35</title>
<path fill="none" stroke="midnightblue" d="M1578.62,-383.67C1559.85,-385.94 1539.66,-388.39 1521.55,-390.58"/>
<polygon fill="midnightblue" stroke="midnightblue" points="1579.07,-387.14 1588.57,-382.46 1578.22,-380.19 1579.07,-387.14"/>
</g>
<!-- Node14 -->
<g id="node14" class="node">
<title>Node14</title>
<g id="a_node14"><a xlink:href="../../d3/d0a/classOmniboxSuggestionButtonRowView.html#a7272410c3b801796d1c9cbeb37f9b3e7" target="_top" xlink:title=" ">
<polygon fill="white" stroke="black" points="763,-274.5 763,-304.5 966,-304.5 966,-274.5 763,-274.5"/>
<text text-anchor="start" x="771" y="-292.5" font-family="Helvetica,sans-Serif" font-size="10.00">OmniboxSuggestionButtonRow</text>
<text text-anchor="middle" x="864.5" y="-281.5" font-family="Helvetica,sans-Serif" font-size="10.00">View::OmniboxSuggestionButtonRowView</text>
</a>
</g>
</g>
<!-- Node13&#45;&gt;Node14 -->
<g id="edge15" class="edge">
<title>Node13&#45;&gt;Node14</title>
<path fill="none" stroke="midnightblue" d="M1022.74,-335.66C989.35,-325.86 948.41,-313.84 916.67,-304.52"/>
<polygon fill="midnightblue" stroke="midnightblue" points="1021.81,-339.04 1032.39,-338.49 1023.78,-332.32 1021.81,-339.04"/>
</g>
<!-- Node15 -->
<g id="node15" class="node">
<title>Node15</title>
<g id="a_node15"><a xlink:href="../../d3/d4c/classOmniboxResultView.html#a632535684d6941455e8979815a978a44" target="_top" xlink:title=" ">
<polygon fill="white" stroke="black" points="591,-225.5 591,-255.5 703,-255.5 703,-225.5 591,-225.5"/>
<text text-anchor="start" x="599" y="-243.5" font-family="Helvetica,sans-Serif" font-size="10.00">OmniboxResultView::</text>
<text text-anchor="middle" x="647" y="-232.5" font-family="Helvetica,sans-Serif" font-size="10.00">OmniboxResultView</text>
</a>
</g>
</g>
<!-- Node14&#45;&gt;Node15 -->
<g id="edge16" class="edge">
<title>Node14&#45;&gt;Node15</title>
<path fill="none" stroke="midnightblue" d="M787.3,-272.17C759.54,-265.86 728.71,-258.85 703.12,-253.03"/>
<polygon fill="midnightblue" stroke="midnightblue" points="786.85,-275.66 797.38,-274.47 788.4,-268.84 786.85,-275.66"/>
</g>
<!-- Node16 -->
<g id="node16" class="node">
<title>Node16</title>
<g id="a_node16"><a xlink:href="../../d7/d88/classOmniboxPopupContentsView.html#aa8f47263f229af6a469c3bf964b81162" target="_top" xlink:title=" ">
<polygon fill="white" stroke="black" points="377.5,-201.5 377.5,-231.5 522.5,-231.5 522.5,-201.5 377.5,-201.5"/>
<text text-anchor="start" x="385.5" y="-219.5" font-family="Helvetica,sans-Serif" font-size="10.00">OmniboxPopupContentsView</text>
<text text-anchor="middle" x="450" y="-208.5" font-family="Helvetica,sans-Serif" font-size="10.00">::UpdatePopupAppearance</text>
</a>
</g>
</g>
<!-- Node15&#45;&gt;Node16 -->
<g id="edge17" class="edge">
<title>Node15&#45;&gt;Node16</title>
<path fill="none" stroke="midnightblue" d="M580.76,-232.47C562.13,-230.18 541.73,-227.67 522.73,-225.33"/>
<polygon fill="midnightblue" stroke="midnightblue" points="580.55,-235.97 590.9,-233.72 581.41,-229.02 580.55,-235.97"/>
</g>
<!-- Node17 -->
<g id="node17" class="node">
<title>Node17</title>
<g id="a_node17"><a xlink:href="../../d7/d88/classOmniboxPopupContentsView.html#a0e658101bc19acb66f6e0915fd6c2fe3" target="_top" xlink:title=" ">
<polygon fill="white" stroke="black" points="185,-201.5 185,-231.5 330,-231.5 330,-201.5 185,-201.5"/>
<text text-anchor="start" x="193" y="-219.5" font-family="Helvetica,sans-Serif" font-size="10.00">OmniboxPopupContentsView</text>
<text text-anchor="middle" x="257.5" y="-208.5" font-family="Helvetica,sans-Serif" font-size="10.00">::OnWidgetBoundsChanged</text>
</a>
</g>
</g>
<!-- Node16&#45;&gt;Node17 -->
<g id="edge18" class="edge">
<title>Node16&#45;&gt;Node17</title>
<path fill="none" stroke="midnightblue" d="M367.04,-216.5C354.78,-216.5 342.21,-216.5 330.18,-216.5"/>
<polygon fill="midnightblue" stroke="midnightblue" points="367.25,-220 377.25,-216.5 367.25,-213 367.25,-220"/>
</g>
<!-- Node18&#45;&gt;Node7 -->
<g id="edge20" class="edge">
<title>Node18&#45;&gt;Node7</title>
<path fill="none" stroke="midnightblue" d="M1003.8,-588.55C871.31,-569.13 597.69,-538.05 369,-570.5 345.77,-573.8 320.58,-580.81 300.13,-587.43"/>
<polygon fill="midnightblue" stroke="midnightblue" points="1003.46,-592.03 1013.86,-590.04 1004.48,-585.11 1003.46,-592.03"/>
</g>
<!-- Node20 -->
<g id="node20" class="node">
<title>Node20</title>
<g id="a_node20"><a xlink:href="../../d0/d22/classOmniboxEditModel.html#a39926e2bd4726e63bbd5815c50075ad4" target="_top" xlink:title=" ">
<polygon fill="white" stroke="black" points="1212,-514.5 1212,-544.5 1346,-544.5 1346,-514.5 1212,-514.5"/>
<text text-anchor="start" x="1220" y="-532.5" font-family="Helvetica,sans-Serif" font-size="10.00">OmniboxEditModel::Revert</text>
<text text-anchor="middle" x="1279" y="-521.5" font-family="Helvetica,sans-Serif" font-size="10.00">TemporaryTextAndPopup</text>
</a>
</g>
</g>
<!-- Node19&#45;&gt;Node20 -->
<g id="edge22" class="edge">
<title>Node19&#45;&gt;Node20</title>
<path fill="none" stroke="midnightblue" d="M1394.98,-529.5C1379.07,-529.5 1362.14,-529.5 1346.29,-529.5"/>
<polygon fill="midnightblue" stroke="midnightblue" points="1395.26,-533 1405.26,-529.5 1395.26,-526 1395.26,-533"/>
</g>
<!-- Node20&#45;&gt;Node18 -->
<g id="edge25" class="edge">
<title>Node20&#45;&gt;Node18</title>
<path fill="none" stroke="midnightblue" d="M1229.08,-548.39C1220.34,-551.95 1211.36,-555.75 1203,-559.5 1186.68,-566.83 1183.65,-570.95 1167,-577.5 1158.9,-580.69 1150.21,-583.68 1141.62,-586.4"/>
<polygon fill="midnightblue" stroke="midnightblue" points="1230.46,-551.6 1238.43,-544.62 1227.84,-545.11 1230.46,-551.6"/>
</g>
<!-- Node21 -->
<g id="node21" class="node">
<title>Node21</title>
<g id="a_node21"><a xlink:href="../../d0/d22/classOmniboxEditModel.html#a443085668cdebe43104bc5a52047d5db" target="_top" xlink:title=" ">
<polygon fill="white" stroke="black" points="182,-500.5 182,-530.5 333,-530.5 333,-500.5 182,-500.5"/>
<text text-anchor="start" x="190" y="-518.5" font-family="Helvetica,sans-Serif" font-size="10.00">OmniboxEditModel::OnEscape</text>
<text text-anchor="middle" x="257.5" y="-507.5" font-family="Helvetica,sans-Serif" font-size="10.00">KeyPressed</text>
</a>
</g>
</g>
<!-- Node20&#45;&gt;Node21 -->
<g id="edge23" class="edge">
<title>Node20&#45;&gt;Node21</title>
<path fill="none" stroke="midnightblue" d="M1201.74,-528.45C1012.16,-525.85 521.31,-519.11 333.29,-516.53"/>
<polygon fill="midnightblue" stroke="midnightblue" points="1201.85,-531.95 1211.89,-528.59 1201.94,-524.96 1201.85,-531.95"/>
</g>
<!-- Node21&#45;&gt;Node8 -->
<g id="edge24" class="edge">
<title>Node21&#45;&gt;Node8</title>
<path fill="none" stroke="midnightblue" d="M204.93,-496.85C176.7,-486.64 142.18,-474.16 115.67,-464.57"/>
<polygon fill="midnightblue" stroke="midnightblue" points="204.04,-500.25 214.63,-500.36 206.42,-493.67 204.04,-500.25"/>
</g>
<!-- Node23 -->
<g id="node23" class="node">
<title>Node23</title>
<g id="a_node23"><a xlink:href="../../d7/d88/classOmniboxPopupContentsView.html#a3d38c79ff5a02bb128a765c54878bc65" target="_top" xlink:title=" ">
<polygon fill="white" stroke="black" points="1206.5,-98.5 1206.5,-128.5 1351.5,-128.5 1351.5,-98.5 1206.5,-98.5"/>
<text text-anchor="start" x="1214.5" y="-116.5" font-family="Helvetica,sans-Serif" font-size="10.00">OmniboxPopupContentsView</text>
<text text-anchor="middle" x="1279" y="-105.5" font-family="Helvetica,sans-Serif" font-size="10.00">::OnGestureEvent</text>
</a>
</g>
</g>
<!-- Node22&#45;&gt;Node23 -->
<g id="edge27" class="edge">
<title>Node22&#45;&gt;Node23</title>
<path fill="none" stroke="midnightblue" d="M1396.4,-144.75C1376.62,-139.44 1355.13,-133.67 1336.06,-128.55"/>
<polygon fill="midnightblue" stroke="midnightblue" points="1395.69,-148.19 1406.25,-147.4 1397.5,-141.43 1395.69,-148.19"/>
</g>
<!-- Node24 -->
<g id="node24" class="node">
<title>Node24</title>
<g id="a_node24"><a xlink:href="../../d3/d4c/classOmniboxResultView.html#adfc2b5da2f71c87fa3d391a32bc5ebf9" target="_top" xlink:title=" ">
<polygon fill="white" stroke="black" points="1223,-49.5 1223,-79.5 1335,-79.5 1335,-49.5 1223,-49.5"/>
<text text-anchor="start" x="1231" y="-67.5" font-family="Helvetica,sans-Serif" font-size="10.00">OmniboxResultView::</text>
<text text-anchor="middle" x="1279" y="-56.5" font-family="Helvetica,sans-Serif" font-size="10.00">OnMouseDragged</text>
</a>
</g>
</g>
<!-- Node22&#45;&gt;Node24 -->
<g id="edge28" class="edge">
<title>Node22&#45;&gt;Node24</title>
<path fill="none" stroke="midnightblue" d="M1398.93,-142.69C1396.17,-141.08 1393.51,-139.36 1391,-137.5 1369.27,-121.43 1376.94,-104.28 1355,-88.5 1349.01,-84.19 1342.2,-80.63 1335.2,-77.7"/>
<polygon fill="midnightblue" stroke="midnightblue" points="1397.53,-145.91 1408.02,-147.41 1400.76,-139.7 1397.53,-145.91"/>
</g>
<!-- Node25 -->
<g id="node25" class="node">
<title>Node25</title>
<g id="a_node25"><a xlink:href="../../d3/d4c/classOmniboxResultView.html#a6410100a85444fe2d63e736f77049d7e" target="_top" xlink:title=" ">
<polygon fill="white" stroke="black" points="1223,-0.5 1223,-30.5 1335,-30.5 1335,-0.5 1223,-0.5"/>
<text text-anchor="start" x="1231" y="-18.5" font-family="Helvetica,sans-Serif" font-size="10.00">OmniboxResultView::</text>
<text text-anchor="middle" x="1279" y="-7.5" font-family="Helvetica,sans-Serif" font-size="10.00">OnMousePressed</text>
</a>
</g>
</g>
<!-- Node22&#45;&gt;Node25 -->
<g id="edge29" class="edge">
<title>Node22&#45;&gt;Node25</title>
<path fill="none" stroke="midnightblue" d="M1395.68,-141.61C1394.04,-140.32 1392.48,-138.95 1391,-137.5 1357.93,-104.95 1388.5,-71.61 1355,-39.5 1349.37,-34.11 1342.54,-29.93 1335.3,-26.69"/>
<polygon fill="midnightblue" stroke="midnightblue" points="1394.13,-144.79 1404.39,-147.42 1398.01,-138.96 1394.13,-144.79"/>
</g>
<!-- Node27 -->
<g id="node27" class="node">
<title>Node27</title>
<g id="a_node27"><a xlink:href="../../d0/d22/classOmniboxEditModel.html#a7fe9144afe6dfdee76ea48f698f21b7a" target="_top" xlink:title=" ">
<polygon fill="white" stroke="black" points="1211,-426.5 1211,-456.5 1347,-456.5 1347,-426.5 1211,-426.5"/>
<text text-anchor="start" x="1219" y="-444.5" font-family="Helvetica,sans-Serif" font-size="10.00">OmniboxEditModel::Accept</text>
<text text-anchor="middle" x="1279" y="-433.5" font-family="Helvetica,sans-Serif" font-size="10.00">Keyword</text>
</a>
</g>
</g>
<!-- Node26&#45;&gt;Node27 -->
<g id="edge31" class="edge">
<title>Node26&#45;&gt;Node27</title>
<path fill="none" stroke="midnightblue" d="M1439.79,-283.02C1402.07,-320.43 1327.48,-394.41 1295.33,-426.3"/>
<polygon fill="midnightblue" stroke="midnightblue" points="1442.62,-285.15 1447.25,-275.62 1437.69,-280.18 1442.62,-285.15"/>
</g>
<!-- Node31 -->
<g id="node31" class="node">
<title>Node31</title>
<g id="a_node31"><a xlink:href="../../d5/d13/classOmniboxController.html#a384c7add8676fa22968aa3cc0f90acf8" target="_top" xlink:title=" ">
<polygon fill="white" stroke="black" points="1214,-245.5 1214,-275.5 1344,-275.5 1344,-245.5 1214,-245.5"/>
<text text-anchor="start" x="1222" y="-263.5" font-family="Helvetica,sans-Serif" font-size="10.00">OmniboxController::</text>
<text text-anchor="middle" x="1279" y="-252.5" font-family="Helvetica,sans-Serif" font-size="10.00">ClearPopupKeywordMode</text>
</a>
</g>
</g>
<!-- Node26&#45;&gt;Node31 -->
<g id="edge39" class="edge">
<title>Node26&#45;&gt;Node31</title>
<path fill="none" stroke="midnightblue" d="M1395.04,-260.5C1378.36,-260.5 1360.54,-260.5 1344.03,-260.5"/>
<polygon fill="midnightblue" stroke="midnightblue" points="1395.26,-264 1405.26,-260.5 1395.26,-257 1395.26,-264"/>
</g>
<!-- Node33 -->
<g id="node33" class="node">
<title>Node33</title>
<g id="a_node33"><a xlink:href="../../d0/d94/classOmniboxViewViews.html#a9fc21bac19f3a666e10eabc84b72c745" target="_top" xlink:title=" ">
<polygon fill="white" stroke="black" points="1203,-196.5 1203,-226.5 1355,-226.5 1355,-196.5 1203,-196.5"/>
<text text-anchor="start" x="1211" y="-214.5" font-family="Helvetica,sans-Serif" font-size="10.00">OmniboxViewViews::OnMouse</text>
<text text-anchor="middle" x="1279" y="-203.5" font-family="Helvetica,sans-Serif" font-size="10.00">Pressed</text>
</a>
</g>
</g>
<!-- Node26&#45;&gt;Node33 -->
<g id="edge41" class="edge">
<title>Node26&#45;&gt;Node33</title>
<path fill="none" stroke="midnightblue" d="M1396.4,-242.75C1376.62,-237.44 1355.13,-231.67 1336.06,-226.55"/>
<polygon fill="midnightblue" stroke="midnightblue" points="1395.69,-246.19 1406.25,-245.4 1397.5,-239.43 1395.69,-246.19"/>
</g>
<!-- Node34 -->
<g id="node34" class="node">
<title>Node34</title>
<g id="a_node34"><a xlink:href="../../d7/d88/classOmniboxPopupContentsView.html#afc5e0a376358cc99296ddb63c3fb14c0" target="_top" xlink:title=" ">
<polygon fill="white" stroke="black" points="1206.5,-147.5 1206.5,-177.5 1351.5,-177.5 1351.5,-147.5 1206.5,-147.5"/>
<text text-anchor="start" x="1214.5" y="-165.5" font-family="Helvetica,sans-Serif" font-size="10.00">OmniboxPopupContentsView</text>
<text text-anchor="middle" x="1279" y="-154.5" font-family="Helvetica,sans-Serif" font-size="10.00">::UnselectButton</text>
</a>
</g>
</g>
<!-- Node26&#45;&gt;Node34 -->
<g id="edge42" class="edge">
<title>Node26&#45;&gt;Node34</title>
<path fill="none" stroke="midnightblue" d="M1436.04,-239C1415.07,-222.8 1384.5,-200.98 1355,-186.5 1348.25,-183.19 1340.94,-180.19 1333.62,-177.53"/>
<polygon fill="midnightblue" stroke="midnightblue" points="1434.1,-241.93 1444.13,-245.34 1438.42,-236.42 1434.1,-241.93"/>
</g>
<!-- Node27&#45;&gt;Node13 -->
<g id="edge32" class="edge">
<title>Node27&#45;&gt;Node13</title>
<path fill="none" stroke="midnightblue" d="M1235.36,-422.01C1200.11,-405.89 1150.77,-383.34 1118.48,-368.58"/>
<polygon fill="midnightblue" stroke="midnightblue" points="1234.36,-425.4 1244.91,-426.37 1237.27,-419.03 1234.36,-425.4"/>
</g>
<!-- Node28 -->
<g id="node28" class="node">
<title>Node28</title>
<g id="a_node28"><a xlink:href="../../d0/d22/classOmniboxEditModel.html#a2aa7d96a6df61aa1e05131d1c8009c16" target="_top" xlink:title=" ">
<polygon fill="white" stroke="black" points="1002,-537.5 1002,-567.5 1167,-567.5 1167,-537.5 1002,-537.5"/>
<text text-anchor="start" x="1010" y="-555.5" font-family="Helvetica,sans-Serif" font-size="10.00">OmniboxEditModel::MaybeAccept</text>
<text text-anchor="middle" x="1084.5" y="-544.5" font-family="Helvetica,sans-Serif" font-size="10.00">KeywordBySpace</text>
</a>
</g>
</g>
<!-- Node27&#45;&gt;Node28 -->
<g id="edge33" class="edge">
<title>Node27&#45;&gt;Node28</title>
<path fill="none" stroke="midnightblue" d="M1242.96,-461.7C1205.06,-483.56 1145.51,-517.9 1111.54,-537.48"/>
<polygon fill="midnightblue" stroke="midnightblue" points="1244.72,-464.73 1251.64,-456.7 1241.23,-458.66 1244.72,-464.73"/>
</g>
<!-- Node27&#45;&gt;Node29 -->
<g id="edge35" class="edge">
<title>Node27&#45;&gt;Node29</title>
<path fill="none" stroke="midnightblue" d="M1200.9,-445.51C1181.48,-446.51 1160.98,-447.58 1142.72,-448.53"/>
<polygon fill="midnightblue" stroke="midnightblue" points="1201.14,-449 1210.94,-444.98 1200.77,-442.01 1201.14,-449"/>
</g>
<!-- Node28&#45;&gt;Node2 -->
<g id="edge34" class="edge">
<title>Node28&#45;&gt;Node2</title>
<path fill="none" stroke="midnightblue" d="M1020.28,-570.84C1014.06,-572.96 1007.88,-575.19 1002,-577.5 963.41,-592.65 920.63,-614.14 893.43,-628.43"/>
<polygon fill="midnightblue" stroke="midnightblue" points="1021.65,-574.08 1030.05,-567.61 1019.46,-567.43 1021.65,-574.08"/>
</g>
<!-- Node29&#45;&gt;Node8 -->
<g id="edge38" class="edge">
<title>Node29&#45;&gt;Node8</title>
<path fill="none" stroke="midnightblue" d="M1016.38,-456.5C930.89,-462.42 778.55,-471.5 648,-471.5 648,-471.5 648,-471.5 449,-471.5 342.37,-471.5 218.98,-462.53 143.73,-456.04"/>
<polygon fill="midnightblue" stroke="midnightblue" points="1016.74,-459.98 1026.47,-455.79 1016.25,-453 1016.74,-459.98"/>
</g>
<!-- Node30 -->
<g id="node30" class="node">
<title>Node30</title>
<g id="a_node30"><a xlink:href="../../d0/d94/classOmniboxViewViews.html#a914ba78328ab785df56d9b0cbdee157e" target="_top" xlink:title=" ">
<polygon fill="white" stroke="black" points="576.5,-412.5 576.5,-442.5 717.5,-442.5 717.5,-412.5 576.5,-412.5"/>
<text text-anchor="start" x="584.5" y="-430.5" font-family="Helvetica,sans-Serif" font-size="10.00">OmniboxViewViews::Handle</text>
<text text-anchor="middle" x="647" y="-419.5" font-family="Helvetica,sans-Serif" font-size="10.00">EarlyTabActions</text>
</a>
</g>
</g>
<!-- Node29&#45;&gt;Node30 -->
<g id="edge36" class="edge">
<title>Node29&#45;&gt;Node30</title>
<path fill="none" stroke="midnightblue" d="M1016.03,-447.78C935,-443.32 799.78,-435.86 717.75,-431.34"/>
<polygon fill="midnightblue" stroke="midnightblue" points="1015.94,-451.28 1026.12,-448.34 1016.33,-444.29 1015.94,-451.28"/>
</g>
<!-- Node30&#45;&gt;Node8 -->
<g id="edge37" class="edge">
<title>Node30&#45;&gt;Node8</title>
<path fill="none" stroke="midnightblue" d="M566.16,-430.57C453.62,-434.9 250.19,-442.72 143.53,-446.83"/>
<polygon fill="midnightblue" stroke="midnightblue" points="566.58,-434.06 576.43,-430.18 566.31,-427.06 566.58,-434.06"/>
</g>
<!-- Node32 -->
<g id="node32" class="node">
<title>Node32</title>
<g id="a_node32"><a xlink:href="../../d5/d13/classOmniboxController.html#a6d83556de328e78b4b531d7edac04852" target="_top" xlink:title=" ">
<polygon fill="white" stroke="black" points="1032.5,-114.5 1032.5,-144.5 1136.5,-144.5 1136.5,-114.5 1032.5,-114.5"/>
<text text-anchor="start" x="1040.5" y="-132.5" font-family="Helvetica,sans-Serif" font-size="10.00">OmniboxController::</text>
<text text-anchor="middle" x="1084.5" y="-121.5" font-family="Helvetica,sans-Serif" font-size="10.00">StartAutocomplete</text>
</a>
</g>
</g>
<!-- Node31&#45;&gt;Node32 -->
<g id="edge40" class="edge">
<title>Node31&#45;&gt;Node32</title>
<path fill="none" stroke="midnightblue" d="M1208.48,-239.94C1206.56,-238.56 1204.73,-237.08 1203,-235.5 1173.59,-208.68 1196.88,-179.8 1167,-153.5 1158.47,-146 1147.7,-140.84 1136.81,-137.29"/>
<polygon fill="midnightblue" stroke="midnightblue" points="1206.98,-243.13 1217.32,-245.44 1210.68,-237.19 1206.98,-243.13"/>
</g>
<!-- Node35&#45;&gt;Node8 -->
<g id="edge45" class="edge">
<title>Node35&#45;&gt;Node8</title>
<path fill="none" stroke="midnightblue" d="M1395,-396.2C1245.66,-393.7 876.04,-389.64 567,-403.5 395.47,-411.19 352.74,-417.35 182,-435.5 169.59,-436.82 156.4,-438.39 143.66,-439.99"/>
<polygon fill="midnightblue" stroke="midnightblue" points="1395.31,-399.7 1405.36,-396.37 1395.42,-392.7 1395.31,-399.7"/>
</g>
<!-- Node36 -->
<g id="node36" class="node">
<title>Node36</title>
<g id="a_node36"><a xlink:href="../../d1/db1/classOmniboxPopupModel.html#acf1ecd019bf8b90655bb4a6c3dd7f8b1" target="_top" xlink:title=" ">
<polygon fill="white" stroke="black" points="1221,-294.5 1221,-324.5 1337,-324.5 1337,-294.5 1221,-294.5"/>
<text text-anchor="start" x="1229" y="-312.5" font-family="Helvetica,sans-Serif" font-size="10.00">OmniboxPopupModel::</text>
<text text-anchor="middle" x="1279" y="-301.5" font-family="Helvetica,sans-Serif" font-size="10.00">TriggerSelectionAction</text>
</a>
</g>
</g>
<!-- Node35&#45;&gt;Node36 -->
<g id="edge46" class="edge">
<title>Node35&#45;&gt;Node36</title>
<path fill="none" stroke="midnightblue" d="M1422.08,-378.01C1388.66,-361.89 1341.88,-339.34 1311.27,-324.58"/>
<polygon fill="midnightblue" stroke="midnightblue" points="1420.6,-381.18 1431.13,-382.37 1423.64,-374.88 1420.6,-381.18"/>
</g>
<!-- Node36&#45;&gt;Node8 -->
<g id="edge50" class="edge">
<title>Node36&#45;&gt;Node8</title>
<path fill="none" stroke="midnightblue" d="M1210.62,-313.75C1095.39,-320.65 853.06,-333.5 648,-333.5 648,-333.5 648,-333.5 449,-333.5 329.26,-333.5 292.94,-324.44 182,-369.5 144.82,-384.6 108.84,-415.52 89.24,-434.19"/>
<polygon fill="midnightblue" stroke="midnightblue" points="1210.93,-317.24 1220.7,-313.15 1210.5,-310.25 1210.93,-317.24"/>
</g>
<!-- Node36&#45;&gt;Node13 -->
<g id="edge49" class="edge">
<title>Node36&#45;&gt;Node13</title>
<path fill="none" stroke="midnightblue" d="M1210.85,-324.85C1191.55,-329.26 1170.52,-334.07 1151.31,-338.46"/>
<polygon fill="midnightblue" stroke="midnightblue" points="1211.8,-328.22 1220.76,-322.58 1210.24,-321.4 1211.8,-328.22"/>
</g>
<!-- Node37 -->
<g id="node37" class="node">
<title>Node37</title>
<g id="a_node37"><a xlink:href="../../d3/d4c/classOmniboxResultView.html#a7bd0ac4077f48f8cc13698e19ed36eb6" target="_top" xlink:title=" ">
<polygon fill="white" stroke="black" points="808.5,-225.5 808.5,-255.5 920.5,-255.5 920.5,-225.5 808.5,-225.5"/>
<text text-anchor="start" x="816.5" y="-243.5" font-family="Helvetica,sans-Serif" font-size="10.00">OmniboxResultView::</text>
<text text-anchor="middle" x="864.5" y="-232.5" font-family="Helvetica,sans-Serif" font-size="10.00">ButtonPressed</text>
</a>
</g>
</g>
<!-- Node36&#45;&gt;Node37 -->
<g id="edge47" class="edge">
<title>Node36&#45;&gt;Node37</title>
<path fill="none" stroke="midnightblue" d="M1210.57,-298.22C1129.71,-284.7 995.73,-262.28 920.72,-249.74"/>
<polygon fill="midnightblue" stroke="midnightblue" points="1210.2,-301.71 1220.64,-299.91 1211.36,-294.8 1210.2,-301.71"/>
</g>
<!-- Node38 -->
<g id="node38" class="node">
<title>Node38</title>
<g id="a_node38"><a xlink:href="../../d2/dcb/classOmniboxRowView_1_1HeaderView.html#a441ded0bc83346ff1773063183d470f2" target="_top" xlink:title=" ">
<polygon fill="white" stroke="black" points="1006,-212.5 1006,-242.5 1163,-242.5 1163,-212.5 1006,-212.5"/>
<text text-anchor="start" x="1014" y="-230.5" font-family="Helvetica,sans-Serif" font-size="10.00">OmniboxRowView::HeaderView</text>
<text text-anchor="middle" x="1084.5" y="-219.5" font-family="Helvetica,sans-Serif" font-size="10.00">::HeaderToggleButtonPressed</text>
</a>
</g>
</g>
<!-- Node36&#45;&gt;Node38 -->
<g id="edge51" class="edge">
<title>Node36&#45;&gt;Node38</title>
<path fill="none" stroke="midnightblue" d="M1216.11,-290.66C1211.6,-288.75 1207.19,-286.69 1203,-284.5 1185.28,-275.22 1184.57,-267.06 1167,-257.5 1156.54,-251.81 1144.77,-246.77 1133.5,-242.53"/>
<polygon fill="midnightblue" stroke="midnightblue" points="1214.87,-293.94 1225.46,-294.4 1217.47,-287.44 1214.87,-293.94"/>
</g>
<!-- Node41 -->
<g id="node41" class="node">
<title>Node41</title>
<g id="a_node41"><a xlink:href="../../d2/dcb/classOmniboxRowView_1_1HeaderView.html#af9e1207af3e2688cdccfd7b8c1267a3c" target="_top" xlink:title=" ">
<polygon fill="white" stroke="black" points="1006,-163.5 1006,-193.5 1163,-193.5 1163,-163.5 1006,-163.5"/>
<text text-anchor="start" x="1014" y="-181.5" font-family="Helvetica,sans-Serif" font-size="10.00">OmniboxRowView::HeaderView</text>
<text text-anchor="middle" x="1084.5" y="-170.5" font-family="Helvetica,sans-Serif" font-size="10.00">::OnMouseReleased</text>
</a>
</g>
</g>
<!-- Node36&#45;&gt;Node41 -->
<g id="edge55" class="edge">
<title>Node36&#45;&gt;Node41</title>
<path fill="none" stroke="midnightblue" d="M1211.93,-291.29C1208.75,-289.26 1205.75,-287.01 1203,-284.5 1173.59,-257.68 1196.88,-228.8 1167,-202.5 1163.12,-199.09 1158.79,-196.16 1154.18,-193.65"/>
<polygon fill="midnightblue" stroke="midnightblue" points="1210.25,-294.36 1220.69,-296.16 1213.65,-288.24 1210.25,-294.36"/>
</g>
<!-- Node37&#45;&gt;Node15 -->
<g id="edge48" class="edge">
<title>Node37&#45;&gt;Node15</title>
<path fill="none" stroke="midnightblue" d="M798.2,-240.5C767.82,-240.5 732.07,-240.5 703.07,-240.5"/>
<polygon fill="midnightblue" stroke="midnightblue" points="798.28,-244 808.28,-240.5 798.28,-237 798.28,-244"/>
</g>
<!-- Node39 -->
<g id="node39" class="node">
<title>Node39</title>
<g id="a_node39"><a xlink:href="../../d2/dcb/classOmniboxRowView_1_1HeaderView.html#ad1abf8339bf99de0b39a9bb43111ba93" target="_top" xlink:title=" ">
<polygon fill="white" stroke="black" points="786,-176.5 786,-206.5 943,-206.5 943,-176.5 786,-176.5"/>
<text text-anchor="start" x="794" y="-194.5" font-family="Helvetica,sans-Serif" font-size="10.00">OmniboxRowView::HeaderView</text>
<text text-anchor="middle" x="864.5" y="-183.5" font-family="Helvetica,sans-Serif" font-size="10.00">::HeaderView</text>
</a>
</g>
</g>
<!-- Node38&#45;&gt;Node39 -->
<g id="edge52" class="edge">
<title>Node38&#45;&gt;Node39</title>
<path fill="none" stroke="midnightblue" d="M995.62,-212.99C978.29,-210.13 960.22,-207.14 943.25,-204.34"/>
<polygon fill="midnightblue" stroke="midnightblue" points="995.28,-216.48 1005.72,-214.66 996.42,-209.57 995.28,-216.48"/>
</g>
<!-- Node40 -->
<g id="node40" class="node">
<title>Node40</title>
<g id="a_node40"><a xlink:href="../../da/da2/classOmniboxRowView.html#a6add650851301372ee9b8a6671cfa28c" target="_top" xlink:title=" ">
<polygon fill="white" stroke="black" points="567,-185 567,-204 727,-204 727,-185 567,-185"/>
<text text-anchor="middle" x="647" y="-192" font-family="Helvetica,sans-Serif" font-size="10.00">OmniboxRowView::ShowHeader</text>
</a>
</g>
</g>
<!-- Node39&#45;&gt;Node40 -->
<g id="edge53" class="edge">
<title>Node39&#45;&gt;Node40</title>
<path fill="none" stroke="midnightblue" d="M775.32,-192.73C759.36,-192.95 742.81,-193.18 727.14,-193.4"/>
<polygon fill="midnightblue" stroke="midnightblue" points="775.75,-196.22 785.7,-192.58 775.65,-189.22 775.75,-196.22"/>
</g>
<!-- Node40&#45;&gt;Node16 -->
<g id="edge54" class="edge">
<title>Node40&#45;&gt;Node16</title>
<path fill="none" stroke="midnightblue" d="M556.92,-204.55C545.42,-205.85 533.77,-207.16 522.6,-208.42"/>
<polygon fill="midnightblue" stroke="midnightblue" points="557.42,-208.02 566.97,-203.42 556.64,-201.06 557.42,-208.02"/>
</g>
</g>
</svg>
