<?xml version="1.0" encoding="UTF-8" standalone="no"?>
<!DOCTYPE svg PUBLIC "-//W3C//DTD SVG 1.1//EN"
 "http://www.w3.org/Graphics/SVG/1.1/DTD/svg11.dtd">
<!-- Generated by graphviz version 2.43.0 (0)
 -->
<!-- Title: OmniboxEditModel::CurrentTextIsURL Pages: 1 -->
<!--zoomable 719 -->
<svg id="main" version="1.1" xmlns="http://www.w3.org/2000/svg" xmlns:xlink="http://www.w3.org/1999/xlink" xml:space="preserve" onload="init(evt)">
<style type="text/css"><![CDATA[
.edge:hover path { stroke: red; }
.edge:hover polygon { stroke: red; fill: red; }
]]></style>
<script type="text/javascript"><![CDATA[
var edges = document.getElementsByTagName('g');
if (edges && edges.length) {
  for (var i=0;i<edges.length;i++) {
    if (edges[i].id.substr(0,4)=='edge') {
      edges[i].setAttribute('class','edge');
    }
  }
}
]]></script>
        <defs>
                <circle id="rim" cx="0" cy="0" r="7"/>
                <circle id="rim2" cx="0" cy="0" r="3.5"/>
                <g id="zoomPlus">
                        <use xlink:href="#rim" fill="#404040">
                                <set attributeName="fill" to="#808080" begin="zoomplus.mouseover" end="zoomplus.mouseout"/>
                        </use>
                        <path d="M-4,0h8M0,-4v8" fill="none" stroke="white" stroke-width="1.5" pointer-events="none"/>
                </g>
                <g id="zoomMin">
                        <use xlink:href="#rim" fill="#404040">
                                <set attributeName="fill" to="#808080" begin="zoomminus.mouseover" end="zoomminus.mouseout"/>
                        </use>
                        <path d="M-4,0h8" fill="none" stroke="white" stroke-width="1.5" pointer-events="none"/>
                </g>
                <g id="dirArrow">
                        <path fill="none" stroke="white" stroke-width="1.5" d="M0,-3.0v7 M-2.5,-0.5L0,-3.0L2.5,-0.5"/>
                </g>
               <g id="resetDef">
                       <use xlink:href="#rim2" fill="#404040">
                               <set attributeName="fill" to="#808080" begin="reset.mouseover" end="reset.mouseout"/>
                       </use>
               </g>
        </defs>

<script type="text/javascript">
var viewWidth = 1060;
var viewHeight = 719;
var sectionId = 'dynsection-29';
</script>
<script xlink:href="../../svgpan.js"/>
<svg id="graph" class="graph">
<g id="viewport">
<title>OmniboxEditModel::CurrentTextIsURL</title>
<polygon fill="white" stroke="transparent" points="-4,4 -4,-715 1056,-715 1056,4 -4,4"/>
<!-- Node1 -->
<g id="node1" class="node">
<title>Node1</title>
<g id="a_node1"><a xlink:title=" ">
<polygon fill="#bfbfbf" stroke="black" points="0,-50.5 0,-80.5 137,-80.5 137,-50.5 0,-50.5"/>
<text text-anchor="start" x="8" y="-68.5" font-family="Helvetica,sans-Serif" font-size="10.00">OmniboxEditModel::Current</text>
<text text-anchor="middle" x="68.5" y="-57.5" font-family="Helvetica,sans-Serif" font-size="10.00">TextIsURL</text>
</a>
</g>
</g>
<!-- Node2 -->
<g id="node2" class="node">
<title>Node2</title>
<g id="a_node2"><a xlink:href="../../d0/d22/classOmniboxEditModel.html#a8fcc92f2543e50522f9e297ef4988e90" target="_top" xlink:title=" ">
<polygon fill="white" stroke="black" points="173,-123.5 173,-153.5 310,-153.5 310,-123.5 173,-123.5"/>
<text text-anchor="start" x="181" y="-141.5" font-family="Helvetica,sans-Serif" font-size="10.00">OmniboxEditModel::Current</text>
<text text-anchor="middle" x="241.5" y="-130.5" font-family="Helvetica,sans-Serif" font-size="10.00">Match</text>
</a>
</g>
</g>
<!-- Node1&#45;&gt;Node2 -->
<g id="edge1" class="edge">
<title>Node1&#45;&gt;Node2</title>
<path fill="none" stroke="midnightblue" d="M104.93,-80.63C131.3,-91.88 167.47,-107.33 195.83,-119.43"/>
<polygon fill="midnightblue" stroke="midnightblue" points="194.54,-122.69 205.11,-123.39 197.29,-116.25 194.54,-122.69"/>
</g>
<!-- Node7 -->
<g id="node7" class="node">
<title>Node7</title>
<g id="a_node7"><a xlink:href="../../dc/d8f/structAutocompleteMatch.html#a2995f802114ff701b5d6e037fb3019b3" target="_top" xlink:title=" ">
<polygon fill="white" stroke="black" points="752,-0.5 752,-30.5 862,-30.5 862,-0.5 752,-0.5"/>
<text text-anchor="start" x="760" y="-18.5" font-family="Helvetica,sans-Serif" font-size="10.00">AutocompleteMatch::</text>
<text text-anchor="middle" x="807" y="-7.5" font-family="Helvetica,sans-Serif" font-size="10.00">IsSearchType</text>
</a>
</g>
</g>
<!-- Node1&#45;&gt;Node7 -->
<g id="edge35" class="edge">
<title>Node1&#45;&gt;Node7</title>
<path fill="none" stroke="midnightblue" d="M137.14,-60.91C278.51,-51.31 603.6,-29.24 741.87,-19.85"/>
<polygon fill="midnightblue" stroke="midnightblue" points="742.15,-23.34 751.89,-19.17 741.68,-16.36 742.15,-23.34"/>
</g>
<!-- Node3 -->
<g id="node3" class="node">
<title>Node3</title>
<g id="a_node3"><a xlink:href="../../d3/d03/classAutocompleteResult.html#af09ffe15397e43cf992488963187189b" target="_top" xlink:title=" ">
<polygon fill="white" stroke="black" points="538,-123.5 538,-153.5 670,-153.5 670,-123.5 538,-123.5"/>
<text text-anchor="start" x="546" y="-141.5" font-family="Helvetica,sans-Serif" font-size="10.00">AutocompleteResult</text>
<text text-anchor="middle" x="604" y="-130.5" font-family="Helvetica,sans-Serif" font-size="10.00">::ComputeAlternateNavUrl</text>
</a>
</g>
</g>
<!-- Node2&#45;&gt;Node3 -->
<g id="edge2" class="edge">
<title>Node2&#45;&gt;Node3</title>
<path fill="none" stroke="midnightblue" d="M310.31,-138.5C372.26,-138.5 463.72,-138.5 527.87,-138.5"/>
<polygon fill="midnightblue" stroke="midnightblue" points="527.92,-142 537.92,-138.5 527.92,-135 527.92,-142"/>
</g>
<!-- Node10 -->
<g id="node10" class="node">
<title>Node10</title>
<g id="a_node10"><a xlink:href="../../d0/d22/classOmniboxEditModel.html#a5265a894f111d9204716d40e142e2645" target="_top" xlink:title=" ">
<polygon fill="white" stroke="black" points="346,-395.5 346,-425.5 483,-425.5 483,-395.5 346,-395.5"/>
<text text-anchor="start" x="354" y="-413.5" font-family="Helvetica,sans-Serif" font-size="10.00">OmniboxEditModel::GetInfo</text>
<text text-anchor="middle" x="414.5" y="-402.5" font-family="Helvetica,sans-Serif" font-size="10.00">ForCurrentText</text>
</a>
</g>
</g>
<!-- Node2&#45;&gt;Node10 -->
<g id="edge9" class="edge">
<title>Node2&#45;&gt;Node10</title>
<path fill="none" stroke="midnightblue" d="M251.94,-153.51C280.13,-198.36 363.92,-331.64 398.41,-386.5"/>
<polygon fill="midnightblue" stroke="midnightblue" points="395.6,-388.6 403.88,-395.2 401.52,-384.87 395.6,-388.6"/>
</g>
<!-- Node4 -->
<g id="node4" class="node">
<title>Node4</title>
<g id="a_node4"><a xlink:href="../../d9/df6/classAutocompleteInput.html#a419d05e14c86f18c137fbb4057fedb04" target="_top" xlink:title=" ">
<polygon fill="white" stroke="black" points="755,-147.5 755,-177.5 859,-177.5 859,-147.5 755,-147.5"/>
<text text-anchor="start" x="763" y="-165.5" font-family="Helvetica,sans-Serif" font-size="10.00">AutocompleteInput::</text>
<text text-anchor="middle" x="807" y="-154.5" font-family="Helvetica,sans-Serif" font-size="10.00">canonicalized_url</text>
</a>
</g>
</g>
<!-- Node3&#45;&gt;Node4 -->
<g id="edge3" class="edge">
<title>Node3&#45;&gt;Node4</title>
<path fill="none" stroke="midnightblue" d="M670.26,-146.29C694.12,-149.14 721.02,-152.35 744.55,-155.16"/>
<polygon fill="midnightblue" stroke="midnightblue" points="744.4,-158.67 754.75,-156.38 745.23,-151.72 744.4,-158.67"/>
</g>
<!-- Node5 -->
<g id="node5" class="node">
<title>Node5</title>
<g id="a_node5"><a xlink:href="../../d4/d19/namespaceomnibox.html#acabb493ed3d3ef334b91f977a3f954ef" target="_top" xlink:title=" ">
<polygon fill="white" stroke="black" points="744,-98.5 744,-128.5 870,-128.5 870,-98.5 744,-98.5"/>
<text text-anchor="start" x="752" y="-116.5" font-family="Helvetica,sans-Serif" font-size="10.00">omnibox::GetInterception</text>
<text text-anchor="middle" x="807" y="-105.5" font-family="Helvetica,sans-Serif" font-size="10.00">ChecksBehavior</text>
</a>
</g>
</g>
<!-- Node3&#45;&gt;Node5 -->
<g id="edge4" class="edge">
<title>Node3&#45;&gt;Node5</title>
<path fill="none" stroke="midnightblue" d="M670.26,-130.38C690.55,-127.86 713.04,-125.06 733.78,-122.48"/>
<polygon fill="midnightblue" stroke="midnightblue" points="734.31,-125.94 743.8,-121.24 733.45,-119 734.31,-125.94"/>
</g>
<!-- Node6 -->
<g id="node6" class="node">
<title>Node6</title>
<g id="a_node6"><a xlink:href="../../d5/dc7/classAutocompleteProviderClient.html#a39fb65fe5ac8de4439f41335bde2a3f5" target="_top" xlink:title=" ">
<polygon fill="white" stroke="black" points="738,-49.5 738,-79.5 876,-79.5 876,-49.5 738,-49.5"/>
<text text-anchor="start" x="746" y="-67.5" font-family="Helvetica,sans-Serif" font-size="10.00">AutocompleteProviderClient</text>
<text text-anchor="middle" x="807" y="-56.5" font-family="Helvetica,sans-Serif" font-size="10.00">::GetLocalState</text>
</a>
</g>
</g>
<!-- Node3&#45;&gt;Node6 -->
<g id="edge5" class="edge">
<title>Node3&#45;&gt;Node6</title>
<path fill="none" stroke="midnightblue" d="M638.5,-123.41C662.37,-112.94 695.33,-99.04 725,-88.5 730.58,-86.52 736.41,-84.56 742.28,-82.68"/>
<polygon fill="midnightblue" stroke="midnightblue" points="743.66,-85.92 752.15,-79.58 741.56,-79.24 743.66,-85.92"/>
</g>
<!-- Node3&#45;&gt;Node7 -->
<g id="edge6" class="edge">
<title>Node3&#45;&gt;Node7</title>
<path fill="none" stroke="midnightblue" d="M619.45,-123.18C640.66,-101.56 682.32,-62.21 725,-39.5 730.44,-36.61 736.27,-34.02 742.23,-31.71"/>
<polygon fill="midnightblue" stroke="midnightblue" points="743.42,-35 751.64,-28.31 741.05,-28.41 743.42,-35"/>
</g>
<!-- Node9 -->
<g id="node9" class="node">
<title>Node9</title>
<g id="a_node9"><a xlink:href="../../d9/df6/classAutocompleteInput.html#a5d6111d5ac18400cdf809820dfab9ab0" target="_top" xlink:title=" ">
<polygon fill="white" stroke="black" points="745.5,-197 745.5,-216 868.5,-216 868.5,-197 745.5,-197"/>
<text text-anchor="middle" x="807" y="-204" font-family="Helvetica,sans-Serif" font-size="10.00">AutocompleteInput::type</text>
</a>
</g>
</g>
<!-- Node3&#45;&gt;Node9 -->
<g id="edge8" class="edge">
<title>Node3&#45;&gt;Node9</title>
<path fill="none" stroke="midnightblue" d="M638.94,-153.54C662.72,-163.71 695.42,-176.98 725,-186.5 733.81,-189.33 743.27,-192 752.5,-194.4"/>
<polygon fill="midnightblue" stroke="midnightblue" points="751.84,-197.85 762.39,-196.91 753.55,-191.06 751.84,-197.85"/>
</g>
<!-- Node8 -->
<g id="node8" class="node">
<title>Node8</title>
<g id="a_node8"><a xlink:href="../../dc/d8f/structAutocompleteMatch.html#aaca5dac30caf1899132db064a3213d9e" target="_top" xlink:title=" ">
<polygon fill="white" stroke="black" points="925,-0.5 925,-30.5 1052,-30.5 1052,-0.5 925,-0.5"/>
<text text-anchor="start" x="933" y="-18.5" font-family="Helvetica,sans-Serif" font-size="10.00">AutocompleteMatch::</text>
<text text-anchor="middle" x="988.5" y="-7.5" font-family="Helvetica,sans-Serif" font-size="10.00">IsSpecializedSearchType</text>
</a>
</g>
</g>
<!-- Node7&#45;&gt;Node8 -->
<g id="edge7" class="edge">
<title>Node7&#45;&gt;Node8</title>
<path fill="none" stroke="midnightblue" d="M862.34,-15.5C878.82,-15.5 897.19,-15.5 914.67,-15.5"/>
<polygon fill="midnightblue" stroke="midnightblue" points="914.84,-19 924.84,-15.5 914.84,-12 914.84,-19"/>
</g>
<!-- Node10&#45;&gt;Node3 -->
<g id="edge10" class="edge">
<title>Node10&#45;&gt;Node3</title>
<path fill="none" stroke="midnightblue" d="M419.69,-395.31C430.69,-357.69 463.4,-258.56 519,-194.5 531.39,-180.23 548.25,-168.04 563.61,-158.72"/>
<polygon fill="midnightblue" stroke="midnightblue" points="565.56,-161.63 572.43,-153.56 562.03,-155.58 565.56,-161.63"/>
</g>
<!-- Node11 -->
<g id="node11" class="node">
<title>Node11</title>
<g id="a_node11"><a xlink:href="../../d3/d03/classAutocompleteResult.html#a41fc37ec73816fce3ea244e3401aac5b" target="_top" xlink:title=" ">
<polygon fill="white" stroke="black" points="754.5,-459.5 754.5,-489.5 859.5,-489.5 859.5,-459.5 754.5,-459.5"/>
<text text-anchor="start" x="762.5" y="-477.5" font-family="Helvetica,sans-Serif" font-size="10.00">AutocompleteResult</text>
<text text-anchor="middle" x="807" y="-466.5" font-family="Helvetica,sans-Serif" font-size="10.00">::default_match</text>
</a>
</g>
</g>
<!-- Node10&#45;&gt;Node11 -->
<g id="edge11" class="edge">
<title>Node10&#45;&gt;Node11</title>
<path fill="none" stroke="midnightblue" d="M442.23,-425.56C462.6,-436.24 491.69,-449.8 519,-456.5 594.93,-475.12 685.36,-477.69 744.14,-476.89"/>
<polygon fill="midnightblue" stroke="midnightblue" points="744.43,-480.38 754.37,-476.71 744.31,-473.38 744.43,-480.38"/>
</g>
<!-- Node14 -->
<g id="node14" class="node">
<title>Node14</title>
<g id="a_node14"><a xlink:href="../../d0/d22/classOmniboxEditModel.html#a95286d7e003516065267f306a6cb1965" target="_top" xlink:title=" ">
<polygon fill="white" stroke="black" points="532.5,-253.5 532.5,-283.5 675.5,-283.5 675.5,-253.5 532.5,-253.5"/>
<text text-anchor="start" x="540.5" y="-271.5" font-family="Helvetica,sans-Serif" font-size="10.00">OmniboxEditModel::GetPage</text>
<text text-anchor="middle" x="604" y="-260.5" font-family="Helvetica,sans-Serif" font-size="10.00">Classification</text>
</a>
</g>
</g>
<!-- Node10&#45;&gt;Node14 -->
<g id="edge14" class="edge">
<title>Node10&#45;&gt;Node14</title>
<path fill="none" stroke="midnightblue" d="M424.95,-395.13C441.11,-370.1 476.48,-320.63 519,-293.5 522.3,-291.4 525.78,-289.46 529.37,-287.69"/>
<polygon fill="midnightblue" stroke="midnightblue" points="530.82,-290.88 538.51,-283.59 527.95,-284.49 530.82,-290.88"/>
</g>
<!-- Node18 -->
<g id="node18" class="node">
<title>Node18</title>
<g id="a_node18"><a xlink:href="../../d0/d22/classOmniboxEditModel.html#afca096faf219ac7be1bf9251466648a7" target="_top" xlink:title=" ">
<polygon fill="white" stroke="black" points="732.5,-410.5 732.5,-440.5 881.5,-440.5 881.5,-410.5 732.5,-410.5"/>
<text text-anchor="start" x="740.5" y="-428.5" font-family="Helvetica,sans-Serif" font-size="10.00">OmniboxEditModel::GetPopup</text>
<text text-anchor="middle" x="807" y="-417.5" font-family="Helvetica,sans-Serif" font-size="10.00">Selection</text>
</a>
</g>
</g>
<!-- Node10&#45;&gt;Node18 -->
<g id="edge18" class="edge">
<title>Node10&#45;&gt;Node18</title>
<path fill="none" stroke="midnightblue" d="M483.14,-408.26C495.08,-407.94 507.41,-407.67 519,-407.5 594.55,-406.41 613.66,-401.74 689,-407.5 699.75,-408.32 711,-409.56 722.1,-411.02"/>
<polygon fill="midnightblue" stroke="midnightblue" points="721.86,-414.51 732.24,-412.4 722.81,-407.58 721.86,-414.51"/>
</g>
<!-- Node19 -->
<g id="node19" class="node">
<title>Node19</title>
<g id="a_node19"><a xlink:href="../../d9/d1e/classOmniboxView.html#a3dff0d042c74b0e8cb080e6bac15c8f9" target="_top" xlink:title=" ">
<polygon fill="white" stroke="black" points="545,-303 545,-322 663,-322 663,-303 545,-303"/>
<text text-anchor="middle" x="604" y="-310" font-family="Helvetica,sans-Serif" font-size="10.00">OmniboxView::GetText</text>
</a>
</g>
</g>
<!-- Node10&#45;&gt;Node19 -->
<g id="edge19" class="edge">
<title>Node10&#45;&gt;Node19</title>
<path fill="none" stroke="midnightblue" d="M432.64,-395.4C452.26,-378.82 485.97,-352.43 519,-336.5 528.42,-331.96 538.86,-328.12 549.09,-324.94"/>
<polygon fill="midnightblue" stroke="midnightblue" points="550.18,-328.26 558.79,-322.08 548.21,-321.55 550.18,-328.26"/>
</g>
<!-- Node20 -->
<g id="node20" class="node">
<title>Node20</title>
<g id="a_node20"><a xlink:href="../../d0/d22/classOmniboxEditModel.html#a0a13d5acf2a89532b46249c91cecb04b" target="_top" xlink:title=" ">
<polygon fill="white" stroke="black" points="750.5,-663.5 750.5,-693.5 863.5,-693.5 863.5,-663.5 750.5,-663.5"/>
<text text-anchor="start" x="758.5" y="-681.5" font-family="Helvetica,sans-Serif" font-size="10.00">OmniboxEditModel::is</text>
<text text-anchor="middle" x="807" y="-670.5" font-family="Helvetica,sans-Serif" font-size="10.00">_keyword_selected</text>
</a>
</g>
</g>
<!-- Node10&#45;&gt;Node20 -->
<g id="edge20" class="edge">
<title>Node10&#45;&gt;Node20</title>
<path fill="none" stroke="midnightblue" d="M417.65,-425.66C424.32,-466.5 448.58,-579.33 519,-632.5 552.94,-658.13 666.63,-669.95 740.32,-675.04"/>
<polygon fill="midnightblue" stroke="midnightblue" points="740.23,-678.54 750.44,-675.71 740.69,-671.55 740.23,-678.54"/>
</g>
<!-- Node21 -->
<g id="node21" class="node">
<title>Node21</title>
<g id="a_node21"><a xlink:href="../../d0/d22/classOmniboxEditModel.html#ab6b5c2d1d04d4b9c28287fecb627761c" target="_top" xlink:title=" ">
<polygon fill="white" stroke="black" points="533.5,-417.5 533.5,-447.5 674.5,-447.5 674.5,-417.5 533.5,-417.5"/>
<text text-anchor="start" x="541.5" y="-435.5" font-family="Helvetica,sans-Serif" font-size="10.00">OmniboxEditModel::IsPopup</text>
<text text-anchor="middle" x="604" y="-424.5" font-family="Helvetica,sans-Serif" font-size="10.00">SelectionOnInitialLine</text>
</a>
</g>
</g>
<!-- Node10&#45;&gt;Node21 -->
<g id="edge21" class="edge">
<title>Node10&#45;&gt;Node21</title>
<path fill="none" stroke="midnightblue" d="M483.19,-418.44C496.15,-419.96 509.83,-421.57 523.12,-423.13"/>
<polygon fill="midnightblue" stroke="midnightblue" points="522.86,-426.62 533.2,-424.31 523.67,-419.67 522.86,-426.62"/>
</g>
<!-- Node22 -->
<g id="node22" class="node">
<title>Node22</title>
<g id="a_node22"><a xlink:href="../../d0/d22/classOmniboxEditModel.html#ad945a332660c6122dc25b93c1eee76d8" target="_top" xlink:title=" ">
<polygon fill="white" stroke="black" points="742.5,-372 742.5,-391 871.5,-391 871.5,-372 742.5,-372"/>
<text text-anchor="middle" x="807" y="-379" font-family="Helvetica,sans-Serif" font-size="10.00">OmniboxEditModel::result</text>
</a>
</g>
</g>
<!-- Node10&#45;&gt;Node22 -->
<g id="edge33" class="edge">
<title>Node10&#45;&gt;Node22</title>
<path fill="none" stroke="midnightblue" d="M483.13,-404.45C495.08,-403.43 507.4,-402.41 519,-401.5 591.46,-395.83 674.27,-390.14 732.26,-386.29"/>
<polygon fill="midnightblue" stroke="midnightblue" points="732.68,-389.77 742.43,-385.62 732.22,-382.78 732.68,-389.77"/>
</g>
<!-- Node23 -->
<g id="node23" class="node">
<title>Node23</title>
<g id="a_node23"><a xlink:href="../../d3/d03/classAutocompleteResult.html#a1532251921e2112a24e3a52ec7ee4535" target="_top" xlink:title=" ">
<polygon fill="white" stroke="black" points="551.5,-204.5 551.5,-234.5 656.5,-234.5 656.5,-204.5 551.5,-204.5"/>
<text text-anchor="start" x="559.5" y="-222.5" font-family="Helvetica,sans-Serif" font-size="10.00">AutocompleteResult</text>
<text text-anchor="middle" x="604" y="-211.5" font-family="Helvetica,sans-Serif" font-size="10.00">::match_at</text>
</a>
</g>
</g>
<!-- Node10&#45;&gt;Node23 -->
<g id="edge25" class="edge">
<title>Node10&#45;&gt;Node23</title>
<path fill="none" stroke="midnightblue" d="M420.55,-395.44C432.34,-362.64 464.85,-284.42 519,-243.5 525.78,-238.37 533.62,-234.34 541.73,-231.17"/>
<polygon fill="midnightblue" stroke="midnightblue" points="543.04,-234.42 551.33,-227.83 540.74,-227.81 543.04,-234.42"/>
</g>
<!-- Node24 -->
<g id="node24" class="node">
<title>Node24</title>
<g id="a_node24"><a xlink:href="../../d0/d22/classOmniboxEditModel.html#a1599022fe3ededfff77ed2dc41ceb73a" target="_top" xlink:title=" ">
<polygon fill="white" stroke="black" points="519,-680.5 519,-710.5 689,-710.5 689,-680.5 519,-680.5"/>
<text text-anchor="start" x="527" y="-698.5" font-family="Helvetica,sans-Serif" font-size="10.00">OmniboxEditModel::MaybePrepend</text>
<text text-anchor="middle" x="604" y="-687.5" font-family="Helvetica,sans-Serif" font-size="10.00">Keyword</text>
</a>
</g>
</g>
<!-- Node10&#45;&gt;Node24 -->
<g id="edge26" class="edge">
<title>Node10&#45;&gt;Node24</title>
<path fill="none" stroke="midnightblue" d="M417.31,-425.52C423.32,-468.96 446.56,-596.08 519,-665.5 522.98,-669.32 527.48,-672.65 532.28,-675.57"/>
<polygon fill="midnightblue" stroke="midnightblue" points="530.73,-678.71 541.19,-680.37 534.05,-672.54 530.73,-678.71"/>
</g>
<!-- Node25 -->
<g id="node25" class="node">
<title>Node25</title>
<g id="a_node25"><a xlink:href="../../d0/d22/classOmniboxEditModel.html#a67fe900511cae558a9585411c98b36c6" target="_top" xlink:title=" ">
<polygon fill="white" stroke="black" points="522,-604 522,-623 686,-623 686,-604 522,-604"/>
<text text-anchor="middle" x="604" y="-611" font-family="Helvetica,sans-Serif" font-size="10.00">OmniboxEditModel::PopupIsOpen</text>
</a>
</g>
</g>
<!-- Node10&#45;&gt;Node25 -->
<g id="edge28" class="edge">
<title>Node10&#45;&gt;Node25</title>
<path fill="none" stroke="midnightblue" d="M419.45,-425.7C429.51,-461.27 459.64,-550.26 519,-594.5 521.5,-596.36 524.14,-598.04 526.9,-599.57"/>
<polygon fill="midnightblue" stroke="midnightblue" points="525.49,-602.77 536.02,-603.91 528.49,-596.45 525.49,-602.77"/>
</g>
<!-- Node27 -->
<g id="node27" class="node">
<title>Node27</title>
<g id="a_node27"><a xlink:href="../../d0/d22/classOmniboxEditModel.html#a34c6312cf87698170164370251851aea" target="_top" xlink:title=" ">
<polygon fill="white" stroke="black" points="539.5,-554.5 539.5,-584.5 668.5,-584.5 668.5,-554.5 539.5,-554.5"/>
<text text-anchor="start" x="547.5" y="-572.5" font-family="Helvetica,sans-Serif" font-size="10.00">OmniboxEditModel::query</text>
<text text-anchor="middle" x="604" y="-561.5" font-family="Helvetica,sans-Serif" font-size="10.00">_in_progress</text>
</a>
</g>
</g>
<!-- Node10&#45;&gt;Node27 -->
<g id="edge30" class="edge">
<title>Node10&#45;&gt;Node27</title>
<path fill="none" stroke="midnightblue" d="M423.17,-425.89C437.87,-453.78 472.7,-512.74 519,-544.5 522.46,-546.87 526.15,-549.02 529.97,-550.97"/>
<polygon fill="midnightblue" stroke="midnightblue" points="528.57,-554.18 539.11,-555.17 531.49,-547.82 528.57,-554.18"/>
</g>
<!-- Node30 -->
<g id="node30" class="node">
<title>Node30</title>
<g id="a_node30"><a xlink:href="../../d0/d22/classOmniboxEditModel.html#aa6151d568130ae55c72d762fb62bd87c" target="_top" xlink:title=" ">
<polygon fill="white" stroke="black" points="542,-505.5 542,-535.5 666,-535.5 666,-505.5 542,-505.5"/>
<text text-anchor="start" x="550" y="-523.5" font-family="Helvetica,sans-Serif" font-size="10.00">OmniboxEditModel::user</text>
<text text-anchor="middle" x="604" y="-512.5" font-family="Helvetica,sans-Serif" font-size="10.00">_input_in_progress</text>
</a>
</g>
</g>
<!-- Node10&#45;&gt;Node30 -->
<g id="edge34" class="edge">
<title>Node10&#45;&gt;Node30</title>
<path fill="none" stroke="midnightblue" d="M431.57,-425.56C451.01,-443.12 485.33,-472.08 519,-490.5 526.6,-494.66 534.89,-498.43 543.21,-501.79"/>
<polygon fill="midnightblue" stroke="midnightblue" points="541.98,-505.07 552.57,-505.4 544.5,-498.54 541.98,-505.07"/>
</g>
<!-- Node12 -->
<g id="node12" class="node">
<title>Node12</title>
<g id="a_node12"><a xlink:href="../../d3/d03/classAutocompleteResult.html#a4246a4276fdd2b4f5560cd45fa527d28" target="_top" xlink:title=" ">
<polygon fill="white" stroke="black" points="936,-437.5 936,-467.5 1041,-467.5 1041,-437.5 936,-437.5"/>
<text text-anchor="start" x="944" y="-455.5" font-family="Helvetica,sans-Serif" font-size="10.00">AutocompleteResult</text>
<text text-anchor="middle" x="988.5" y="-444.5" font-family="Helvetica,sans-Serif" font-size="10.00">::begin</text>
</a>
</g>
</g>
<!-- Node11&#45;&gt;Node12 -->
<g id="edge12" class="edge">
<title>Node11&#45;&gt;Node12</title>
<path fill="none" stroke="midnightblue" d="M859.92,-468.14C880.48,-465.62 904.28,-462.7 925.71,-460.07"/>
<polygon fill="midnightblue" stroke="midnightblue" points="926.2,-463.54 935.7,-458.85 925.35,-456.59 926.2,-463.54"/>
</g>
<!-- Node13 -->
<g id="node13" class="node">
<title>Node13</title>
<g id="a_node13"><a xlink:href="../../d3/d03/classAutocompleteResult.html#a5545641c5c0d9473bccf85e267f44b58" target="_top" xlink:title=" ">
<polygon fill="white" stroke="black" points="925,-487 925,-506 1052,-506 1052,-487 925,-487"/>
<text text-anchor="middle" x="988.5" y="-494" font-family="Helvetica,sans-Serif" font-size="10.00">AutocompleteResult::end</text>
</a>
</g>
</g>
<!-- Node11&#45;&gt;Node13 -->
<g id="edge13" class="edge">
<title>Node11&#45;&gt;Node13</title>
<path fill="none" stroke="midnightblue" d="M859.92,-480.86C877.04,-482.96 896.41,-485.34 914.8,-487.59"/>
<polygon fill="midnightblue" stroke="midnightblue" points="914.53,-491.08 924.89,-488.83 915.39,-484.14 914.53,-491.08"/>
</g>
<!-- Node15 -->
<g id="node15" class="node">
<title>Node15</title>
<g id="a_node15"><a xlink:href="../../d0/d22/classOmniboxEditModel.html#ad4c23db832a06ca44fb769a87cebd6e9" target="_top" xlink:title=" ">
<polygon fill="white" stroke="black" points="734.5,-334 734.5,-353 879.5,-353 879.5,-334 734.5,-334"/>
<text text-anchor="middle" x="807" y="-341" font-family="Helvetica,sans-Serif" font-size="10.00">OmniboxEditModel::controller</text>
</a>
</g>
</g>
<!-- Node14&#45;&gt;Node15 -->
<g id="edge15" class="edge">
<title>Node14&#45;&gt;Node15</title>
<path fill="none" stroke="midnightblue" d="M666.28,-283.54C674.13,-286.39 681.89,-289.69 689,-293.5 707.36,-303.34 706.42,-314.1 725,-323.5 730.6,-326.33 736.62,-328.78 742.76,-330.89"/>
<polygon fill="midnightblue" stroke="midnightblue" points="741.88,-334.28 752.47,-333.93 743.98,-327.6 741.88,-334.28"/>
</g>
<!-- Node16 -->
<g id="node16" class="node">
<title>Node16</title>
<g id="a_node16"><a xlink:href="../../dc/d81/classOmniboxEditController.html#af0496738d6b2b60045f04a52c8b015cb" target="_top" xlink:title=" ">
<polygon fill="white" stroke="black" points="749,-284.5 749,-314.5 865,-314.5 865,-284.5 749,-284.5"/>
<text text-anchor="start" x="757" y="-302.5" font-family="Helvetica,sans-Serif" font-size="10.00">OmniboxEditController</text>
<text text-anchor="middle" x="807" y="-291.5" font-family="Helvetica,sans-Serif" font-size="10.00">::GetLocationBarModel</text>
</a>
</g>
</g>
<!-- Node14&#45;&gt;Node16 -->
<g id="edge16" class="edge">
<title>Node14&#45;&gt;Node16</title>
<path fill="none" stroke="midnightblue" d="M675.58,-279.39C696.1,-282.55 718.44,-286 738.75,-289.13"/>
<polygon fill="midnightblue" stroke="midnightblue" points="738.43,-292.62 748.84,-290.69 739.5,-285.7 738.43,-292.62"/>
</g>
<!-- Node17 -->
<g id="node17" class="node">
<title>Node17</title>
<g id="a_node17"><a xlink:href="../../d1/d62/classLocationBarModel.html#a5fa3590a5fd5c3db742dd05adb55cc8a" target="_top" xlink:title=" ">
<polygon fill="white" stroke="black" points="737.5,-235.5 737.5,-265.5 876.5,-265.5 876.5,-235.5 737.5,-235.5"/>
<text text-anchor="start" x="745.5" y="-253.5" font-family="Helvetica,sans-Serif" font-size="10.00">LocationBarModel::GetPage</text>
<text text-anchor="middle" x="807" y="-242.5" font-family="Helvetica,sans-Serif" font-size="10.00">Classification</text>
</a>
</g>
</g>
<!-- Node14&#45;&gt;Node17 -->
<g id="edge17" class="edge">
<title>Node14&#45;&gt;Node17</title>
<path fill="none" stroke="midnightblue" d="M675.58,-262.18C692.16,-260.69 709.94,-259.1 726.87,-257.59"/>
<polygon fill="midnightblue" stroke="midnightblue" points="727.63,-261.03 737.28,-256.65 727.01,-254.06 727.63,-261.03"/>
</g>
<!-- Node21&#45;&gt;Node11 -->
<g id="edge22" class="edge">
<title>Node21&#45;&gt;Node11</title>
<path fill="none" stroke="midnightblue" d="M674.74,-447.07C697.45,-451.82 722.48,-457.05 744.54,-461.66"/>
<polygon fill="midnightblue" stroke="midnightblue" points="743.95,-465.11 754.45,-463.73 745.38,-458.26 743.95,-465.11"/>
</g>
<!-- Node21&#45;&gt;Node18 -->
<g id="edge23" class="edge">
<title>Node21&#45;&gt;Node18</title>
<path fill="none" stroke="midnightblue" d="M674.74,-430.07C689.99,-429.54 706.29,-428.97 722.03,-428.42"/>
<polygon fill="midnightblue" stroke="midnightblue" points="722.41,-431.91 732.28,-428.07 722.17,-424.92 722.41,-431.91"/>
</g>
<!-- Node21&#45;&gt;Node22 -->
<g id="edge24" class="edge">
<title>Node21&#45;&gt;Node22</title>
<path fill="none" stroke="midnightblue" d="M659.87,-417.49C680.28,-412.01 703.67,-405.85 725,-400.5 734.46,-398.13 744.57,-395.69 754.32,-393.38"/>
<polygon fill="midnightblue" stroke="midnightblue" points="755.39,-396.72 764.32,-391.02 753.78,-389.91 755.39,-396.72"/>
</g>
<!-- Node24&#45;&gt;Node20 -->
<g id="edge27" class="edge">
<title>Node24&#45;&gt;Node20</title>
<path fill="none" stroke="midnightblue" d="M689.08,-688.39C706.18,-686.94 723.94,-685.44 740.29,-684.06"/>
<polygon fill="midnightblue" stroke="midnightblue" points="740.61,-687.54 750.28,-683.21 740.02,-680.57 740.61,-687.54"/>
</g>
<!-- Node26 -->
<g id="node26" class="node">
<title>Node26</title>
<g id="a_node26"><a xlink:href="../../db/de1/classOmniboxPopupView.html#ab590e106e3a2f53bfa45712f529cf106" target="_top" xlink:title=" ">
<polygon fill="white" stroke="black" points="735.5,-607 735.5,-626 878.5,-626 878.5,-607 735.5,-607"/>
<text text-anchor="middle" x="807" y="-614" font-family="Helvetica,sans-Serif" font-size="10.00">OmniboxPopupView::IsOpen</text>
</a>
</g>
</g>
<!-- Node25&#45;&gt;Node26 -->
<g id="edge29" class="edge">
<title>Node25&#45;&gt;Node26</title>
<path fill="none" stroke="midnightblue" d="M686.18,-614.71C698.98,-614.9 712.23,-615.1 725.04,-615.29"/>
<polygon fill="midnightblue" stroke="midnightblue" points="725.14,-618.79 735.19,-615.44 725.25,-611.79 725.14,-618.79"/>
</g>
<!-- Node28 -->
<g id="node28" class="node">
<title>Node28</title>
<g id="a_node28"><a xlink:href="../../d0/d22/classOmniboxEditModel.html#a8c8a925ee670cdc9bd5c0ad8b07fa1a0" target="_top" xlink:title=" ">
<polygon fill="white" stroke="black" points="725,-508.5 725,-538.5 889,-538.5 889,-508.5 725,-508.5"/>
<text text-anchor="start" x="733" y="-526.5" font-family="Helvetica,sans-Serif" font-size="10.00">OmniboxEditModel::autocomplete</text>
<text text-anchor="middle" x="807" y="-515.5" font-family="Helvetica,sans-Serif" font-size="10.00">_controller</text>
</a>
</g>
</g>
<!-- Node27&#45;&gt;Node28 -->
<g id="edge31" class="edge">
<title>Node27&#45;&gt;Node28</title>
<path fill="none" stroke="midnightblue" d="M668.6,-554.95C688.27,-550.44 710.13,-545.44 730.52,-540.77"/>
<polygon fill="midnightblue" stroke="midnightblue" points="731.43,-544.16 740.39,-538.51 729.86,-537.33 731.43,-544.16"/>
</g>
<!-- Node29 -->
<g id="node29" class="node">
<title>Node29</title>
<g id="a_node29"><a xlink:href="../../df/d4d/classAutocompleteController.html#a0b6b9a27089bca29c9f9f557955d7ecf" target="_top" xlink:title=" ">
<polygon fill="white" stroke="black" points="747.5,-557.5 747.5,-587.5 866.5,-587.5 866.5,-557.5 747.5,-557.5"/>
<text text-anchor="start" x="755.5" y="-575.5" font-family="Helvetica,sans-Serif" font-size="10.00">AutocompleteController</text>
<text text-anchor="middle" x="807" y="-564.5" font-family="Helvetica,sans-Serif" font-size="10.00">::done</text>
</a>
</g>
</g>
<!-- Node27&#45;&gt;Node29 -->
<g id="edge32" class="edge">
<title>Node27&#45;&gt;Node29</title>
<path fill="none" stroke="midnightblue" d="M668.6,-570.45C690.44,-570.78 714.98,-571.14 737.22,-571.47"/>
<polygon fill="midnightblue" stroke="midnightblue" points="737.2,-574.97 747.25,-571.62 737.31,-567.97 737.2,-574.97"/>
</g>
</g>
</svg>
        <g id="navigator" transform="translate(0 0)" fill="#404254">
                <rect fill="#f2f5e9" fill-opacity="0.5" stroke="#606060" stroke-width=".5" x="0" y="0" width="60" height="60"/>
                <use id="zoomplus" xlink:href="#zoomPlus" x="17" y="9" onmousedown="handleZoom(evt,'in')"/>
                <use id="zoomminus" xlink:href="#zoomMin" x="42" y="9" onmousedown="handleZoom(evt,'out')"/>
                <use id="reset" xlink:href="#resetDef" x="30" y="36" onmousedown="handleReset()"/>
                <g id="arrowUp" xlink:href="#dirArrow" transform="translate(30 24)" onmousedown="handlePan(0,-1)">
                  <use xlink:href="#rim" fill="#404040">
                        <set attributeName="fill" to="#808080" begin="arrowUp.mouseover" end="arrowUp.mouseout"/>
                  </use>
                  <path fill="none" stroke="white" stroke-width="1.5" d="M0,-3.0v7 M-2.5,-0.5L0,-3.0L2.5,-0.5"/>
                </g>
                <g id="arrowRight" xlink:href="#dirArrow" transform="rotate(90) translate(36 -43)" onmousedown="handlePan(1,0)">
                  <use xlink:href="#rim" fill="#404040">
                        <set attributeName="fill" to="#808080" begin="arrowRight.mouseover" end="arrowRight.mouseout"/>
                  </use>
                  <path fill="none" stroke="white" stroke-width="1.5" d="M0,-3.0v7 M-2.5,-0.5L0,-3.0L2.5,-0.5"/>
                </g>
                <g id="arrowDown" xlink:href="#dirArrow" transform="rotate(180) translate(-30 -48)" onmousedown="handlePan(0,1)">
                  <use xlink:href="#rim" fill="#404040">
                        <set attributeName="fill" to="#808080" begin="arrowDown.mouseover" end="arrowDown.mouseout"/>
                  </use>
                  <path fill="none" stroke="white" stroke-width="1.5" d="M0,-3.0v7 M-2.5,-0.5L0,-3.0L2.5,-0.5"/>
                </g>
                <g id="arrowLeft" xlink:href="#dirArrow" transform="rotate(270) translate(-36 17)" onmousedown="handlePan(-1,0)">
                  <use xlink:href="#rim" fill="#404040">
                        <set attributeName="fill" to="#808080" begin="arrowLeft.mouseover" end="arrowLeft.mouseout"/>
                  </use>
                  <path fill="none" stroke="white" stroke-width="1.5" d="M0,-3.0v7 M-2.5,-0.5L0,-3.0L2.5,-0.5"/>
                </g>
        </g>
        <svg viewBox="0 0 15 15" width="100%" height="30px" preserveAspectRatio="xMaxYMin meet">
         <g id="arrow_out" transform="scale(0.3 0.3)">
          <a xlink:href="classOmniboxEditModel_a9a6f578c4132b75ecfd690cd880be64e_cgraph_org.svg" target="_base">
           <rect id="button" ry="5" rx="5" y="6" x="6" height="38" width="38"
                fill="#f2f5e9" fill-opacity="0.5" stroke="#606060" stroke-width="1.0"/>
           <path id="arrow"
             d="M 11.500037,31.436501 C 11.940474,20.09759 22.043105,11.32322 32.158766,21.979434 L 37.068811,17.246167 C 37.068811,17.246167 37.088388,32 37.088388,32 L 22.160133,31.978069 C 22.160133,31.978069 26.997745,27.140456 26.997745,27.140456 C 18.528582,18.264221 13.291696,25.230495 11.500037,31.436501 z"
             style="fill:#404040;"/>
          </a>
         </g>
        </svg>
</svg>
