<?xml version="1.0" encoding="UTF-8" standalone="no"?>
<!DOCTYPE svg PUBLIC "-//W3C//DTD SVG 1.1//EN"
 "http://www.w3.org/Graphics/SVG/1.1/DTD/svg11.dtd">
<!-- Generated by graphviz version 2.43.0 (0)
 -->
<!-- Title: OmniboxEditModel::ExecuteAction Pages: 1 -->
<!--zoomable 384 -->
<svg id="main" version="1.1" xmlns="http://www.w3.org/2000/svg" xmlns:xlink="http://www.w3.org/1999/xlink" xml:space="preserve" onload="init(evt)">
<style type="text/css"><![CDATA[
.edge:hover path { stroke: red; }
.edge:hover polygon { stroke: red; fill: red; }
]]></style>
<script type="text/javascript"><![CDATA[
var edges = document.getElementsByTagName('g');
if (edges && edges.length) {
  for (var i=0;i<edges.length;i++) {
    if (edges[i].id.substr(0,4)=='edge') {
      edges[i].setAttribute('class','edge');
    }
  }
}
]]></script>
        <defs>
                <circle id="rim" cx="0" cy="0" r="7"/>
                <circle id="rim2" cx="0" cy="0" r="3.5"/>
                <g id="zoomPlus">
                        <use xlink:href="#rim" fill="#404040">
                                <set attributeName="fill" to="#808080" begin="zoomplus.mouseover" end="zoomplus.mouseout"/>
                        </use>
                        <path d="M-4,0h8M0,-4v8" fill="none" stroke="white" stroke-width="1.5" pointer-events="none"/>
                </g>
                <g id="zoomMin">
                        <use xlink:href="#rim" fill="#404040">
                                <set attributeName="fill" to="#808080" begin="zoomminus.mouseover" end="zoomminus.mouseout"/>
                        </use>
                        <path d="M-4,0h8" fill="none" stroke="white" stroke-width="1.5" pointer-events="none"/>
                </g>
                <g id="dirArrow">
                        <path fill="none" stroke="white" stroke-width="1.5" d="M0,-3.0v7 M-2.5,-0.5L0,-3.0L2.5,-0.5"/>
                </g>
               <g id="resetDef">
                       <use xlink:href="#rim2" fill="#404040">
                               <set attributeName="fill" to="#808080" begin="reset.mouseover" end="reset.mouseout"/>
                       </use>
               </g>
        </defs>

<script type="text/javascript">
var viewWidth = 777;
var viewHeight = 384;
var sectionId = 'dynsection-33';
</script>
<script xlink:href="../../svgpan.js"/>
<svg id="graph" class="graph">
<g id="viewport">
<title>OmniboxEditModel::ExecuteAction</title>
<polygon fill="white" stroke="transparent" points="-4,4 -4,-379.5 773,-379.5 773,4 -4,4"/>
<!-- Node1 -->
<g id="node1" class="node">
<title>Node1</title>
<g id="a_node1"><a xlink:title=" ">
<polygon fill="#bfbfbf" stroke="black" points="0,-164 0,-194 141,-194 141,-164 0,-164"/>
<text text-anchor="start" x="8" y="-182" font-family="Helvetica,sans-Serif" font-size="10.00">OmniboxEditModel::Execute</text>
<text text-anchor="middle" x="70.5" y="-171" font-family="Helvetica,sans-Serif" font-size="10.00">Action</text>
</a>
</g>
</g>
<!-- Node2 -->
<g id="node2" class="node">
<title>Node2</title>
<g id="a_node2"><a xlink:href="../../d0/d22/classOmniboxEditModel.html#a8c8a925ee670cdc9bd5c0ad8b07fa1a0" target="_top" xlink:title=" ">
<polygon fill="white" stroke="black" points="177,-235 177,-265 341,-265 341,-235 177,-235"/>
<text text-anchor="start" x="185" y="-253" font-family="Helvetica,sans-Serif" font-size="10.00">OmniboxEditModel::autocomplete</text>
<text text-anchor="middle" x="259" y="-242" font-family="Helvetica,sans-Serif" font-size="10.00">_controller</text>
</a>
</g>
</g>
<!-- Node1&#45;&gt;Node2 -->
<g id="edge1" class="edge">
<title>Node1&#45;&gt;Node2</title>
<path fill="none" stroke="midnightblue" d="M102.45,-194.08C123.24,-203.88 151.42,-216.56 177,-226 182.47,-228.02 188.18,-229.99 193.95,-231.87"/>
<polygon fill="midnightblue" stroke="midnightblue" points="193.06,-235.26 203.65,-234.97 195.18,-228.59 193.06,-235.26"/>
</g>
<!-- Node3 -->
<g id="node3" class="node">
<title>Node3</title>
<g id="a_node3"><a xlink:href="../../dc/d81/classOmniboxEditController.html#ab6e70e96fcd03454bd8bdd282f10dc0c" target="_top" xlink:title=" ">
<polygon fill="white" stroke="black" points="196,-186 196,-216 322,-216 322,-186 196,-186"/>
<text text-anchor="start" x="204" y="-204" font-family="Helvetica,sans-Serif" font-size="10.00">OmniboxEditController</text>
<text text-anchor="middle" x="259" y="-193" font-family="Helvetica,sans-Serif" font-size="10.00">::OnAutocompleteAccept</text>
</a>
</g>
</g>
<!-- Node1&#45;&gt;Node3 -->
<g id="edge2" class="edge">
<title>Node1&#45;&gt;Node3</title>
<path fill="none" stroke="midnightblue" d="M141.21,-187.22C155.75,-188.94 171.11,-190.75 185.75,-192.48"/>
<polygon fill="midnightblue" stroke="midnightblue" points="185.4,-195.96 195.74,-193.66 186.22,-189.01 185.4,-195.96"/>
</g>
<!-- Node10 -->
<g id="node10" class="node">
<title>Node10</title>
<g id="a_node10"><a xlink:href="../../d0/d22/classOmniboxEditModel.html#ad945a332660c6122dc25b93c1eee76d8" target="_top" xlink:title=" ">
<polygon fill="white" stroke="black" points="194.5,-147.5 194.5,-166.5 323.5,-166.5 323.5,-147.5 194.5,-147.5"/>
<text text-anchor="middle" x="259" y="-154.5" font-family="Helvetica,sans-Serif" font-size="10.00">OmniboxEditModel::result</text>
</a>
</g>
</g>
<!-- Node1&#45;&gt;Node10 -->
<g id="edge9" class="edge">
<title>Node1&#45;&gt;Node10</title>
<path fill="none" stroke="midnightblue" d="M141.21,-170.78C155.2,-169.13 169.94,-167.39 184.06,-165.72"/>
<polygon fill="midnightblue" stroke="midnightblue" points="184.7,-169.17 194.22,-164.52 183.88,-162.22 184.7,-169.17"/>
</g>
<!-- Node11 -->
<g id="node11" class="node">
<title>Node11</title>
<g id="a_node11"><a xlink:href="../../d9/d1e/classOmniboxView.html#a405dec91c8bd106dec923394899defa8" target="_top" xlink:title=" ">
<polygon fill="white" stroke="black" points="197,-44.5 197,-63.5 321,-63.5 321,-44.5 197,-44.5"/>
<text text-anchor="middle" x="259" y="-51.5" font-family="Helvetica,sans-Serif" font-size="10.00">OmniboxView::RevertAll</text>
</a>
</g>
</g>
<!-- Node1&#45;&gt;Node11 -->
<g id="edge10" class="edge">
<title>Node1&#45;&gt;Node11</title>
<path fill="none" stroke="midnightblue" d="M94,-163.92C129.72,-139.98 199.06,-93.51 235.06,-69.38"/>
<polygon fill="midnightblue" stroke="midnightblue" points="237.09,-72.22 243.45,-63.75 233.2,-66.41 237.09,-72.22"/>
</g>
<!-- Node4 -->
<g id="node4" class="node">
<title>Node4</title>
<g id="a_node4"><a xlink:href="../../dc/d81/classOmniboxEditController.html#a357e0b303b224e52eb11c01e31b1b2f4" target="_top" xlink:title=" ">
<polygon fill="white" stroke="black" points="393.5,-345 393.5,-375 508.5,-375 508.5,-345 393.5,-345"/>
<text text-anchor="start" x="401.5" y="-363" font-family="Helvetica,sans-Serif" font-size="10.00">OmniboxEditController</text>
<text text-anchor="middle" x="451" y="-352" font-family="Helvetica,sans-Serif" font-size="10.00">::destination_url</text>
</a>
</g>
</g>
<!-- Node3&#45;&gt;Node4 -->
<g id="edge3" class="edge">
<title>Node3&#45;&gt;Node4</title>
<path fill="none" stroke="midnightblue" d="M322.33,-213.31C329.2,-216.59 335.64,-220.75 341,-226 377.43,-261.72 341.12,-298.73 377,-335 379.36,-337.38 381.95,-339.54 384.71,-341.48"/>
<polygon fill="midnightblue" stroke="midnightblue" points="383.05,-344.57 393.42,-346.74 386.66,-338.58 383.05,-344.57"/>
</g>
<!-- Node5 -->
<g id="node5" class="node">
<title>Node5</title>
<g id="a_node5"><a xlink:href="../../dc/d81/classOmniboxEditController.html#adf86858279b8e1fcdcbaf574955fbdfa" target="_top" xlink:title=" ">
<polygon fill="white" stroke="black" points="389.5,-284.5 389.5,-325.5 512.5,-325.5 512.5,-284.5 389.5,-284.5"/>
<text text-anchor="start" x="397.5" y="-313.5" font-family="Helvetica,sans-Serif" font-size="10.00">OmniboxEditController</text>
<text text-anchor="start" x="397.5" y="-302.5" font-family="Helvetica,sans-Serif" font-size="10.00">::destination_url_entered</text>
<text text-anchor="middle" x="451" y="-291.5" font-family="Helvetica,sans-Serif" font-size="10.00">_without_scheme</text>
</a>
</g>
</g>
<!-- Node3&#45;&gt;Node5 -->
<g id="edge4" class="edge">
<title>Node3&#45;&gt;Node5</title>
<path fill="none" stroke="midnightblue" d="M322.12,-215.58C328.8,-218.47 335.24,-221.91 341,-226 363.02,-241.66 355.71,-258.36 377,-275 378.8,-276.41 380.67,-277.76 382.6,-279.05"/>
<polygon fill="midnightblue" stroke="midnightblue" points="381.02,-282.18 391.38,-284.38 384.65,-276.2 381.02,-282.18"/>
</g>
<!-- Node6 -->
<g id="node6" class="node">
<title>Node6</title>
<g id="a_node6"><a xlink:href="../../dc/d81/classOmniboxEditController.html#a752a0c02a41a4b518692240d20c36571" target="_top" xlink:title=" ">
<polygon fill="white" stroke="black" points="393.5,-235 393.5,-265 508.5,-265 508.5,-235 393.5,-235"/>
<text text-anchor="start" x="401.5" y="-253" font-family="Helvetica,sans-Serif" font-size="10.00">OmniboxEditController</text>
<text text-anchor="middle" x="451" y="-242" font-family="Helvetica,sans-Serif" font-size="10.00">::disposition</text>
</a>
</g>
</g>
<!-- Node3&#45;&gt;Node6 -->
<g id="edge5" class="edge">
<title>Node3&#45;&gt;Node6</title>
<path fill="none" stroke="midnightblue" d="M318.3,-216.03C338.92,-221.35 362.27,-227.38 383.52,-232.86"/>
<polygon fill="midnightblue" stroke="midnightblue" points="382.89,-236.31 393.44,-235.41 384.63,-229.53 382.89,-236.31"/>
</g>
<!-- Node7 -->
<g id="node7" class="node">
<title>Node7</title>
<g id="a_node7"><a xlink:href="../../dc/d81/classOmniboxEditController.html#aa1545817831067f22d7ae568004bf609" target="_top" xlink:title=" ">
<polygon fill="white" stroke="black" points="378.5,-186 378.5,-216 523.5,-216 523.5,-186 378.5,-186"/>
<text text-anchor="start" x="386.5" y="-204" font-family="Helvetica,sans-Serif" font-size="10.00">OmniboxEditController</text>
<text text-anchor="middle" x="451" y="-193" font-family="Helvetica,sans-Serif" font-size="10.00">::match_selection_timestamp</text>
</a>
</g>
</g>
<!-- Node3&#45;&gt;Node7 -->
<g id="edge6" class="edge">
<title>Node3&#45;&gt;Node7</title>
<path fill="none" stroke="midnightblue" d="M322.21,-201C336.95,-201 352.89,-201 368.34,-201"/>
<polygon fill="midnightblue" stroke="midnightblue" points="368.41,-204.5 378.41,-201 368.41,-197.5 368.41,-204.5"/>
</g>
<!-- Node8 -->
<g id="node8" class="node">
<title>Node8</title>
<g id="a_node8"><a xlink:href="../../dc/d81/classOmniboxEditController.html#a4995c166c33c1a00155a71fffdf7049c" target="_top" xlink:title=" ">
<polygon fill="white" stroke="black" points="393.5,-137 393.5,-167 508.5,-167 508.5,-137 393.5,-137"/>
<text text-anchor="start" x="401.5" y="-155" font-family="Helvetica,sans-Serif" font-size="10.00">OmniboxEditController</text>
<text text-anchor="middle" x="451" y="-144" font-family="Helvetica,sans-Serif" font-size="10.00">::post_content</text>
</a>
</g>
</g>
<!-- Node3&#45;&gt;Node8 -->
<g id="edge7" class="edge">
<title>Node3&#45;&gt;Node8</title>
<path fill="none" stroke="midnightblue" d="M318.3,-185.97C338.92,-180.65 362.27,-174.62 383.52,-169.14"/>
<polygon fill="midnightblue" stroke="midnightblue" points="384.63,-172.47 393.44,-166.59 382.89,-165.69 384.63,-172.47"/>
</g>
<!-- Node9 -->
<g id="node9" class="node">
<title>Node9</title>
<g id="a_node9"><a xlink:href="../../dc/d81/classOmniboxEditController.html#a316144ef13ab8e42b9c3c09c436e615d" target="_top" xlink:title=" ">
<polygon fill="white" stroke="black" points="393.5,-88 393.5,-118 508.5,-118 508.5,-88 393.5,-88"/>
<text text-anchor="start" x="401.5" y="-106" font-family="Helvetica,sans-Serif" font-size="10.00">OmniboxEditController</text>
<text text-anchor="middle" x="451" y="-95" font-family="Helvetica,sans-Serif" font-size="10.00">::transition</text>
</a>
</g>
</g>
<!-- Node3&#45;&gt;Node9 -->
<g id="edge8" class="edge">
<title>Node3&#45;&gt;Node9</title>
<path fill="none" stroke="midnightblue" d="M322.08,-186.36C328.77,-183.49 335.22,-180.07 341,-176 362.81,-160.65 355.43,-143.68 377,-128 379.65,-126.07 382.47,-124.28 385.39,-122.62"/>
<polygon fill="midnightblue" stroke="midnightblue" points="387.09,-125.69 394.41,-118.03 383.91,-119.45 387.09,-125.69"/>
</g>
<!-- Node12 -->
<g id="node12" class="node">
<title>Node12</title>
<g id="a_node12"><a xlink:href="../../d9/d1e/classOmniboxView.html#ac3ddb78512aba4b8a69b2b7e2b8caeb7" target="_top" xlink:title=" ">
<polygon fill="white" stroke="black" points="377,-39 377,-69 525,-69 525,-39 377,-39"/>
<text text-anchor="start" x="385" y="-57" font-family="Helvetica,sans-Serif" font-size="10.00">OmniboxView::CloseOmnibox</text>
<text text-anchor="middle" x="451" y="-46" font-family="Helvetica,sans-Serif" font-size="10.00">Popup</text>
</a>
</g>
</g>
<!-- Node11&#45;&gt;Node12 -->
<g id="edge11" class="edge">
<title>Node11&#45;&gt;Node12</title>
<path fill="none" stroke="midnightblue" d="M321.16,-54C335.53,-54 351.09,-54 366.25,-54"/>
<polygon fill="midnightblue" stroke="midnightblue" points="366.67,-57.5 376.67,-54 366.67,-50.5 366.67,-57.5"/>
</g>
<!-- Node13 -->
<g id="node13" class="node">
<title>Node13</title>
<g id="a_node13"><a xlink:href="../../d9/d1e/classOmniboxView.html#a601602b62f2b2f84d28660988c6b8959" target="_top" xlink:title=" ">
<polygon fill="white" stroke="black" points="380.5,-0.5 380.5,-19.5 521.5,-19.5 521.5,-0.5 380.5,-0.5"/>
<text text-anchor="middle" x="451" y="-7.5" font-family="Helvetica,sans-Serif" font-size="10.00">OmniboxView::TextChanged</text>
</a>
</g>
</g>
<!-- Node11&#45;&gt;Node13 -->
<g id="edge12" class="edge">
<title>Node11&#45;&gt;Node13</title>
<path fill="none" stroke="midnightblue" d="M301.23,-44.45C329.86,-37.82 368.21,-28.94 398.8,-21.86"/>
<polygon fill="midnightblue" stroke="midnightblue" points="399.9,-25.19 408.85,-19.53 398.32,-18.38 399.9,-25.19"/>
</g>
<!-- Node14 -->
<g id="node14" class="node">
<title>Node14</title>
<g id="a_node14"><a xlink:href="../../d9/d1e/classOmniboxView.html#a366f0727cd437ca6ad9bc44956fb5115" target="_top" xlink:title=" ">
<polygon fill="white" stroke="black" points="561,-0.5 561,-19.5 769,-19.5 769,-0.5 561,-0.5"/>
<text text-anchor="middle" x="665" y="-7.5" font-family="Helvetica,sans-Serif" font-size="10.00">OmniboxView::EmphasizeURLComponents</text>
</a>
</g>
</g>
<!-- Node13&#45;&gt;Node14 -->
<g id="edge13" class="edge">
<title>Node13&#45;&gt;Node14</title>
<path fill="none" stroke="midnightblue" d="M521.71,-10C531.03,-10 540.77,-10 550.59,-10"/>
<polygon fill="midnightblue" stroke="midnightblue" points="550.85,-13.5 560.85,-10 550.85,-6.5 550.85,-13.5"/>
</g>
</g>
</svg>
        <g id="navigator" transform="translate(0 0)" fill="#404254">
                <rect fill="#f2f5e9" fill-opacity="0.5" stroke="#606060" stroke-width=".5" x="0" y="0" width="60" height="60"/>
                <use id="zoomplus" xlink:href="#zoomPlus" x="17" y="9" onmousedown="handleZoom(evt,'in')"/>
                <use id="zoomminus" xlink:href="#zoomMin" x="42" y="9" onmousedown="handleZoom(evt,'out')"/>
                <use id="reset" xlink:href="#resetDef" x="30" y="36" onmousedown="handleReset()"/>
                <g id="arrowUp" xlink:href="#dirArrow" transform="translate(30 24)" onmousedown="handlePan(0,-1)">
                  <use xlink:href="#rim" fill="#404040">
                        <set attributeName="fill" to="#808080" begin="arrowUp.mouseover" end="arrowUp.mouseout"/>
                  </use>
                  <path fill="none" stroke="white" stroke-width="1.5" d="M0,-3.0v7 M-2.5,-0.5L0,-3.0L2.5,-0.5"/>
                </g>
                <g id="arrowRight" xlink:href="#dirArrow" transform="rotate(90) translate(36 -43)" onmousedown="handlePan(1,0)">
                  <use xlink:href="#rim" fill="#404040">
                        <set attributeName="fill" to="#808080" begin="arrowRight.mouseover" end="arrowRight.mouseout"/>
                  </use>
                  <path fill="none" stroke="white" stroke-width="1.5" d="M0,-3.0v7 M-2.5,-0.5L0,-3.0L2.5,-0.5"/>
                </g>
                <g id="arrowDown" xlink:href="#dirArrow" transform="rotate(180) translate(-30 -48)" onmousedown="handlePan(0,1)">
                  <use xlink:href="#rim" fill="#404040">
                        <set attributeName="fill" to="#808080" begin="arrowDown.mouseover" end="arrowDown.mouseout"/>
                  </use>
                  <path fill="none" stroke="white" stroke-width="1.5" d="M0,-3.0v7 M-2.5,-0.5L0,-3.0L2.5,-0.5"/>
                </g>
                <g id="arrowLeft" xlink:href="#dirArrow" transform="rotate(270) translate(-36 17)" onmousedown="handlePan(-1,0)">
                  <use xlink:href="#rim" fill="#404040">
                        <set attributeName="fill" to="#808080" begin="arrowLeft.mouseover" end="arrowLeft.mouseout"/>
                  </use>
                  <path fill="none" stroke="white" stroke-width="1.5" d="M0,-3.0v7 M-2.5,-0.5L0,-3.0L2.5,-0.5"/>
                </g>
        </g>
        <svg viewBox="0 0 15 15" width="100%" height="30px" preserveAspectRatio="xMaxYMin meet">
         <g id="arrow_out" transform="scale(0.3 0.3)">
          <a xlink:href="classOmniboxEditModel_a6a9a3276eec5aad437fc7fb4cee46d5f_cgraph_org.svg" target="_base">
           <rect id="button" ry="5" rx="5" y="6" x="6" height="38" width="38"
                fill="#f2f5e9" fill-opacity="0.5" stroke="#606060" stroke-width="1.0"/>
           <path id="arrow"
             d="M 11.500037,31.436501 C 11.940474,20.09759 22.043105,11.32322 32.158766,21.979434 L 37.068811,17.246167 C 37.068811,17.246167 37.088388,32 37.088388,32 L 22.160133,31.978069 C 22.160133,31.978069 26.997745,27.140456 26.997745,27.140456 C 18.528582,18.264221 13.291696,25.230495 11.500037,31.436501 z"
             style="fill:#404040;"/>
          </a>
         </g>
        </svg>
</svg>
