<?xml version="1.0" encoding="UTF-8" standalone="no"?>
<!DOCTYPE svg PUBLIC "-//W3C//DTD SVG 1.1//EN"
 "http://www.w3.org/Graphics/SVG/1.1/DTD/svg11.dtd">
<!-- Generated by graphviz version 2.43.0 (0)
 -->
<!-- Title: OmniboxEditModel::IsPopupControlPresentOnMatch Pages: 1 -->
<!--zoomable 264 -->
<svg id="main" version="1.1" xmlns="http://www.w3.org/2000/svg" xmlns:xlink="http://www.w3.org/1999/xlink" xml:space="preserve" onload="init(evt)">
<style type="text/css"><![CDATA[
.edge:hover path { stroke: red; }
.edge:hover polygon { stroke: red; fill: red; }
]]></style>
<script type="text/javascript"><![CDATA[
var edges = document.getElementsByTagName('g');
if (edges && edges.length) {
  for (var i=0;i<edges.length;i++) {
    if (edges[i].id.substr(0,4)=='edge') {
      edges[i].setAttribute('class','edge');
    }
  }
}
]]></script>
        <defs>
                <circle id="rim" cx="0" cy="0" r="7"/>
                <circle id="rim2" cx="0" cy="0" r="3.5"/>
                <g id="zoomPlus">
                        <use xlink:href="#rim" fill="#404040">
                                <set attributeName="fill" to="#808080" begin="zoomplus.mouseover" end="zoomplus.mouseout"/>
                        </use>
                        <path d="M-4,0h8M0,-4v8" fill="none" stroke="white" stroke-width="1.5" pointer-events="none"/>
                </g>
                <g id="zoomMin">
                        <use xlink:href="#rim" fill="#404040">
                                <set attributeName="fill" to="#808080" begin="zoomminus.mouseover" end="zoomminus.mouseout"/>
                        </use>
                        <path d="M-4,0h8" fill="none" stroke="white" stroke-width="1.5" pointer-events="none"/>
                </g>
                <g id="dirArrow">
                        <path fill="none" stroke="white" stroke-width="1.5" d="M0,-3.0v7 M-2.5,-0.5L0,-3.0L2.5,-0.5"/>
                </g>
               <g id="resetDef">
                       <use xlink:href="#rim2" fill="#404040">
                               <set attributeName="fill" to="#808080" begin="reset.mouseover" end="reset.mouseout"/>
                       </use>
               </g>
        </defs>

<script type="text/javascript">
var viewWidth = 1099;
var viewHeight = 264;
var sectionId = 'dynsection-64';
</script>
<script xlink:href="../../svgpan.js"/>
<svg id="graph" class="graph">
<g id="viewport">
<title>OmniboxEditModel::IsPopupControlPresentOnMatch</title>
<polygon fill="white" stroke="transparent" points="-4,4 -4,-260 1095,-260 1095,4 -4,4"/>
<!-- Node1 -->
<g id="node1" class="node">
<title>Node1</title>
<g id="a_node1"><a xlink:title=" ">
<polygon fill="#bfbfbf" stroke="black" points="950,-180.5 950,-210.5 1091,-210.5 1091,-180.5 950,-180.5"/>
<text text-anchor="start" x="958" y="-198.5" font-family="Helvetica,sans-Serif" font-size="10.00">OmniboxEditModel::IsPopup</text>
<text text-anchor="middle" x="1020.5" y="-187.5" font-family="Helvetica,sans-Serif" font-size="10.00">ControlPresentOnMatch</text>
</a>
</g>
</g>
<!-- Node2 -->
<g id="node2" class="node">
<title>Node2</title>
<g id="a_node2"><a xlink:href="../../d3/d0a/classOmniboxSuggestionButtonRowView.html#a42771914af6c819204b2dd61ec5b0731" target="_top" xlink:title=" ">
<polygon fill="white" stroke="black" points="752.5,-215.5 752.5,-245.5 905.5,-245.5 905.5,-215.5 752.5,-215.5"/>
<text text-anchor="start" x="760.5" y="-233.5" font-family="Helvetica,sans-Serif" font-size="10.00">OmniboxSuggestionButtonRow</text>
<text text-anchor="middle" x="829" y="-222.5" font-family="Helvetica,sans-Serif" font-size="10.00">View::SetPillButtonVisibility</text>
</a>
</g>
</g>
<!-- Node1&#45;&gt;Node2 -->
<g id="edge1" class="edge">
<title>Node1&#45;&gt;Node2</title>
<path fill="none" stroke="midnightblue" d="M939.88,-210.21C928.55,-212.3 916.92,-214.45 905.67,-216.52"/>
<polygon fill="midnightblue" stroke="midnightblue" points="940.55,-213.64 949.74,-208.38 939.28,-206.76 940.55,-213.64"/>
</g>
<!-- Node7 -->
<g id="node7" class="node">
<title>Node7</title>
<g id="a_node7"><a xlink:href="../../d3/d4c/classOmniboxResultView.html#ab1796346854dce2ece062cb44b67d30b" target="_top" xlink:title=" ">
<polygon fill="white" stroke="black" points="744,-156.5 744,-186.5 914,-186.5 914,-156.5 744,-156.5"/>
<text text-anchor="start" x="752" y="-174.5" font-family="Helvetica,sans-Serif" font-size="10.00">OmniboxResultView::</text>
<text text-anchor="middle" x="829" y="-163.5" font-family="Helvetica,sans-Serif" font-size="10.00">UpdateRemoveSuggestionVisibility</text>
</a>
</g>
</g>
<!-- Node1&#45;&gt;Node7 -->
<g id="edge6" class="edge">
<title>Node1&#45;&gt;Node7</title>
<path fill="none" stroke="midnightblue" d="M939.56,-185.38C931.13,-184.31 922.54,-183.22 914.07,-182.15"/>
<polygon fill="midnightblue" stroke="midnightblue" points="939.38,-188.88 949.74,-186.67 940.26,-181.94 939.38,-188.88"/>
</g>
<!-- Node3 -->
<g id="node3" class="node">
<title>Node3</title>
<g id="a_node3"><a xlink:href="../../d3/d0a/classOmniboxSuggestionButtonRowView.html#acf68e6dc59accade5d0abeffa0a55257" target="_top" xlink:title=" ">
<polygon fill="white" stroke="black" points="555,-225.5 555,-255.5 708,-255.5 708,-225.5 555,-225.5"/>
<text text-anchor="start" x="563" y="-243.5" font-family="Helvetica,sans-Serif" font-size="10.00">OmniboxSuggestionButtonRow</text>
<text text-anchor="middle" x="631.5" y="-232.5" font-family="Helvetica,sans-Serif" font-size="10.00">View::UpdateFromModel</text>
</a>
</g>
</g>
<!-- Node2&#45;&gt;Node3 -->
<g id="edge2" class="edge">
<title>Node2&#45;&gt;Node3</title>
<path fill="none" stroke="midnightblue" d="M742.12,-234.89C730.82,-235.47 719.32,-236.06 708.21,-236.63"/>
<polygon fill="midnightblue" stroke="midnightblue" points="742.61,-238.37 752.41,-234.37 742.25,-231.38 742.61,-238.37"/>
</g>
<!-- Node4 -->
<g id="node4" class="node">
<title>Node4</title>
<g id="a_node4"><a xlink:href="../../d3/d4c/classOmniboxResultView.html#ad0185705673042dc89733278acc080e5" target="_top" xlink:title=" ">
<polygon fill="white" stroke="black" points="384.5,-215.5 384.5,-245.5 496.5,-245.5 496.5,-215.5 384.5,-215.5"/>
<text text-anchor="start" x="392.5" y="-233.5" font-family="Helvetica,sans-Serif" font-size="10.00">OmniboxResultView::</text>
<text text-anchor="middle" x="440.5" y="-222.5" font-family="Helvetica,sans-Serif" font-size="10.00">SetMatch</text>
</a>
</g>
</g>
<!-- Node3&#45;&gt;Node4 -->
<g id="edge3" class="edge">
<title>Node3&#45;&gt;Node4</title>
<path fill="none" stroke="midnightblue" d="M544.83,-235.97C528.42,-235.1 511.65,-234.21 496.52,-233.41"/>
<polygon fill="midnightblue" stroke="midnightblue" points="544.82,-239.47 554.99,-236.5 545.19,-232.48 544.82,-239.47"/>
</g>
<!-- Node5 -->
<g id="node5" class="node">
<title>Node5</title>
<g id="a_node5"><a xlink:href="../../d7/d88/classOmniboxPopupContentsView.html#aa8f47263f229af6a469c3bf964b81162" target="_top" xlink:title=" ">
<polygon fill="white" stroke="black" points="181,-215.5 181,-245.5 326,-245.5 326,-215.5 181,-215.5"/>
<text text-anchor="start" x="189" y="-233.5" font-family="Helvetica,sans-Serif" font-size="10.00">OmniboxPopupContentsView</text>
<text text-anchor="middle" x="253.5" y="-222.5" font-family="Helvetica,sans-Serif" font-size="10.00">::UpdatePopupAppearance</text>
</a>
</g>
</g>
<!-- Node4&#45;&gt;Node5 -->
<g id="edge4" class="edge">
<title>Node4&#45;&gt;Node5</title>
<path fill="none" stroke="midnightblue" d="M374.41,-230.5C358.78,-230.5 342.01,-230.5 326.1,-230.5"/>
<polygon fill="midnightblue" stroke="midnightblue" points="374.49,-234 384.49,-230.5 374.49,-227 374.49,-234"/>
</g>
<!-- Node6 -->
<g id="node6" class="node">
<title>Node6</title>
<g id="a_node6"><a xlink:href="../../d7/d88/classOmniboxPopupContentsView.html#a0e658101bc19acb66f6e0915fd6c2fe3" target="_top" xlink:title=" ">
<polygon fill="white" stroke="black" points="0,-215.5 0,-245.5 145,-245.5 145,-215.5 0,-215.5"/>
<text text-anchor="start" x="8" y="-233.5" font-family="Helvetica,sans-Serif" font-size="10.00">OmniboxPopupContentsView</text>
<text text-anchor="middle" x="72.5" y="-222.5" font-family="Helvetica,sans-Serif" font-size="10.00">::OnWidgetBoundsChanged</text>
</a>
</g>
</g>
<!-- Node5&#45;&gt;Node6 -->
<g id="edge5" class="edge">
<title>Node5&#45;&gt;Node6</title>
<path fill="none" stroke="midnightblue" d="M170.96,-230.5C162.36,-230.5 153.67,-230.5 145.2,-230.5"/>
<polygon fill="midnightblue" stroke="midnightblue" points="170.98,-234 180.98,-230.5 170.98,-227 170.98,-234"/>
</g>
<!-- Node7&#45;&gt;Node4 -->
<g id="edge9" class="edge">
<title>Node7&#45;&gt;Node4</title>
<path fill="none" stroke="midnightblue" d="M733.37,-185.95C659.13,-197.28 558.37,-212.66 496.75,-222.07"/>
<polygon fill="midnightblue" stroke="midnightblue" points="734.3,-189.34 743.66,-184.37 733.24,-182.42 734.3,-189.34"/>
</g>
<!-- Node8 -->
<g id="node8" class="node">
<title>Node8</title>
<g id="a_node8"><a xlink:href="../../d3/d4c/classOmniboxResultView.html#a516affe0ed43559711704018b03c20b7" target="_top" xlink:title=" ">
<polygon fill="white" stroke="black" points="565.5,-137.5 565.5,-167.5 697.5,-167.5 697.5,-137.5 565.5,-137.5"/>
<text text-anchor="start" x="573.5" y="-155.5" font-family="Helvetica,sans-Serif" font-size="10.00">OmniboxResultView::</text>
<text text-anchor="middle" x="631.5" y="-144.5" font-family="Helvetica,sans-Serif" font-size="10.00">OnSelectionStateChanged</text>
</a>
</g>
</g>
<!-- Node7&#45;&gt;Node8 -->
<g id="edge7" class="edge">
<title>Node7&#45;&gt;Node8</title>
<path fill="none" stroke="midnightblue" d="M733.72,-162.34C721.49,-161.15 709.19,-159.95 697.58,-158.83"/>
<polygon fill="midnightblue" stroke="midnightblue" points="733.66,-165.85 743.96,-163.33 734.34,-158.88 733.66,-165.85"/>
</g>
<!-- Node10 -->
<g id="node10" class="node">
<title>Node10</title>
<g id="a_node10"><a xlink:href="../../d3/d4c/classOmniboxResultView.html#a15ea8940c53d801afdd7e1fe6d94c2e0" target="_top" xlink:title=" ">
<polygon fill="white" stroke="black" points="575.5,-83.5 575.5,-113.5 687.5,-113.5 687.5,-83.5 575.5,-83.5"/>
<text text-anchor="start" x="583.5" y="-101.5" font-family="Helvetica,sans-Serif" font-size="10.00">OmniboxResultView::</text>
<text text-anchor="middle" x="631.5" y="-90.5" font-family="Helvetica,sans-Serif" font-size="10.00">UpdateHoverState</text>
</a>
</g>
</g>
<!-- Node7&#45;&gt;Node10 -->
<g id="edge10" class="edge">
<title>Node7&#45;&gt;Node10</title>
<path fill="none" stroke="midnightblue" d="M777.71,-152.72C745.17,-140.57 703.35,-124.96 672.96,-113.61"/>
<polygon fill="midnightblue" stroke="midnightblue" points="776.9,-156.16 787.49,-156.37 779.35,-149.6 776.9,-156.16"/>
</g>
<!-- Node9 -->
<g id="node9" class="node">
<title>Node9</title>
<g id="a_node9"><a xlink:href="../../da/da2/classOmniboxRowView.html#a2b9d0b0fce1926c058199484af89949d" target="_top" xlink:title=" ">
<polygon fill="white" stroke="black" points="362,-147.5 362,-177.5 519,-177.5 519,-147.5 362,-147.5"/>
<text text-anchor="start" x="370" y="-165.5" font-family="Helvetica,sans-Serif" font-size="10.00">OmniboxRowView::OnSelection</text>
<text text-anchor="middle" x="440.5" y="-154.5" font-family="Helvetica,sans-Serif" font-size="10.00">StateChanged</text>
</a>
</g>
</g>
<!-- Node8&#45;&gt;Node9 -->
<g id="edge8" class="edge">
<title>Node8&#45;&gt;Node9</title>
<path fill="none" stroke="midnightblue" d="M555.15,-156.49C543.27,-157.12 530.97,-157.77 519.05,-158.4"/>
<polygon fill="midnightblue" stroke="midnightblue" points="555.66,-159.96 565.46,-155.94 555.29,-152.97 555.66,-159.96"/>
</g>
<!-- Node11 -->
<g id="node11" class="node">
<title>Node11</title>
<g id="a_node11"><a xlink:href="../../d3/d4c/classOmniboxResultView.html#adfc2b5da2f71c87fa3d391a32bc5ebf9" target="_top" xlink:title=" ">
<polygon fill="white" stroke="black" points="384.5,-98.5 384.5,-128.5 496.5,-128.5 496.5,-98.5 384.5,-98.5"/>
<text text-anchor="start" x="392.5" y="-116.5" font-family="Helvetica,sans-Serif" font-size="10.00">OmniboxResultView::</text>
<text text-anchor="middle" x="440.5" y="-105.5" font-family="Helvetica,sans-Serif" font-size="10.00">OnMouseDragged</text>
</a>
</g>
</g>
<!-- Node10&#45;&gt;Node11 -->
<g id="edge11" class="edge">
<title>Node10&#45;&gt;Node11</title>
<path fill="none" stroke="midnightblue" d="M565.26,-103.68C542.94,-105.45 518.2,-107.41 496.74,-109.12"/>
<polygon fill="midnightblue" stroke="midnightblue" points="565.63,-107.16 575.33,-102.88 565.08,-100.18 565.63,-107.16"/>
</g>
<!-- Node12 -->
<g id="node12" class="node">
<title>Node12</title>
<g id="a_node12"><a xlink:href="../../d3/d4c/classOmniboxResultView.html#a201378b2282d4d6cf4492f6df7636490" target="_top" xlink:title=" ">
<polygon fill="white" stroke="black" points="384.5,-49.5 384.5,-79.5 496.5,-79.5 496.5,-49.5 384.5,-49.5"/>
<text text-anchor="start" x="392.5" y="-67.5" font-family="Helvetica,sans-Serif" font-size="10.00">OmniboxResultView::</text>
<text text-anchor="middle" x="440.5" y="-56.5" font-family="Helvetica,sans-Serif" font-size="10.00">OnMouseEntered</text>
</a>
</g>
</g>
<!-- Node10&#45;&gt;Node12 -->
<g id="edge12" class="edge">
<title>Node10&#45;&gt;Node12</title>
<path fill="none" stroke="midnightblue" d="M565.26,-86.76C542.94,-82.75 518.2,-78.3 496.74,-74.44"/>
<polygon fill="midnightblue" stroke="midnightblue" points="564.86,-90.25 575.33,-88.57 566.1,-83.36 564.86,-90.25"/>
</g>
<!-- Node13 -->
<g id="node13" class="node">
<title>Node13</title>
<g id="a_node13"><a xlink:href="../../d3/d4c/classOmniboxResultView.html#a70322ccbbe5e2f0bbc94d35b17c70553" target="_top" xlink:title=" ">
<polygon fill="white" stroke="black" points="384.5,-0.5 384.5,-30.5 496.5,-30.5 496.5,-0.5 384.5,-0.5"/>
<text text-anchor="start" x="392.5" y="-18.5" font-family="Helvetica,sans-Serif" font-size="10.00">OmniboxResultView::</text>
<text text-anchor="middle" x="440.5" y="-7.5" font-family="Helvetica,sans-Serif" font-size="10.00">OnMouseExited</text>
</a>
</g>
</g>
<!-- Node10&#45;&gt;Node13 -->
<g id="edge13" class="edge">
<title>Node10&#45;&gt;Node13</title>
<path fill="none" stroke="midnightblue" d="M596.22,-78.22C574.56,-65.95 545.72,-50.59 519,-39.5 511.32,-36.31 503.07,-33.32 494.91,-30.6"/>
<polygon fill="midnightblue" stroke="midnightblue" points="594.61,-81.33 605.03,-83.26 598.09,-75.26 594.61,-81.33"/>
</g>
</g>
</svg>
        <g id="navigator" transform="translate(0 0)" fill="#404254">
                <rect fill="#f2f5e9" fill-opacity="0.5" stroke="#606060" stroke-width=".5" x="0" y="0" width="60" height="60"/>
                <use id="zoomplus" xlink:href="#zoomPlus" x="17" y="9" onmousedown="handleZoom(evt,'in')"/>
                <use id="zoomminus" xlink:href="#zoomMin" x="42" y="9" onmousedown="handleZoom(evt,'out')"/>
                <use id="reset" xlink:href="#resetDef" x="30" y="36" onmousedown="handleReset()"/>
                <g id="arrowUp" xlink:href="#dirArrow" transform="translate(30 24)" onmousedown="handlePan(0,-1)">
                  <use xlink:href="#rim" fill="#404040">
                        <set attributeName="fill" to="#808080" begin="arrowUp.mouseover" end="arrowUp.mouseout"/>
                  </use>
                  <path fill="none" stroke="white" stroke-width="1.5" d="M0,-3.0v7 M-2.5,-0.5L0,-3.0L2.5,-0.5"/>
                </g>
                <g id="arrowRight" xlink:href="#dirArrow" transform="rotate(90) translate(36 -43)" onmousedown="handlePan(1,0)">
                  <use xlink:href="#rim" fill="#404040">
                        <set attributeName="fill" to="#808080" begin="arrowRight.mouseover" end="arrowRight.mouseout"/>
                  </use>
                  <path fill="none" stroke="white" stroke-width="1.5" d="M0,-3.0v7 M-2.5,-0.5L0,-3.0L2.5,-0.5"/>
                </g>
                <g id="arrowDown" xlink:href="#dirArrow" transform="rotate(180) translate(-30 -48)" onmousedown="handlePan(0,1)">
                  <use xlink:href="#rim" fill="#404040">
                        <set attributeName="fill" to="#808080" begin="arrowDown.mouseover" end="arrowDown.mouseout"/>
                  </use>
                  <path fill="none" stroke="white" stroke-width="1.5" d="M0,-3.0v7 M-2.5,-0.5L0,-3.0L2.5,-0.5"/>
                </g>
                <g id="arrowLeft" xlink:href="#dirArrow" transform="rotate(270) translate(-36 17)" onmousedown="handlePan(-1,0)">
                  <use xlink:href="#rim" fill="#404040">
                        <set attributeName="fill" to="#808080" begin="arrowLeft.mouseover" end="arrowLeft.mouseout"/>
                  </use>
                  <path fill="none" stroke="white" stroke-width="1.5" d="M0,-3.0v7 M-2.5,-0.5L0,-3.0L2.5,-0.5"/>
                </g>
        </g>
        <svg viewBox="0 0 15 15" width="100%" height="30px" preserveAspectRatio="xMaxYMin meet">
         <g id="arrow_out" transform="scale(0.3 0.3)">
          <a xlink:href="classOmniboxEditModel_ac3f52192d6d6fedeb9fcfcfc7e430c96_icgraph_org.svg" target="_base">
           <rect id="button" ry="5" rx="5" y="6" x="6" height="38" width="38"
                fill="#f2f5e9" fill-opacity="0.5" stroke="#606060" stroke-width="1.0"/>
           <path id="arrow"
             d="M 11.500037,31.436501 C 11.940474,20.09759 22.043105,11.32322 32.158766,21.979434 L 37.068811,17.246167 C 37.068811,17.246167 37.088388,32 37.088388,32 L 22.160133,31.978069 C 22.160133,31.978069 26.997745,27.140456 26.997745,27.140456 C 18.528582,18.264221 13.291696,25.230495 11.500037,31.436501 z"
             style="fill:#404040;"/>
          </a>
         </g>
        </svg>
</svg>
