<?xml version="1.0" encoding="UTF-8" standalone="no"?>
<!DOCTYPE svg PUBLIC "-//W3C//DTD SVG 1.1//EN"
 "http://www.w3.org/Graphics/SVG/1.1/DTD/svg11.dtd">
<!-- Generated by graphviz version 2.43.0 (0)
 -->
<!-- Title: OmniboxEditModel::SetFocusState Pages: 1 -->
<svg width="1127pt" height="294pt"
 viewBox="0.00 0.00 1127.00 293.50" xmlns="http://www.w3.org/2000/svg" xmlns:xlink="http://www.w3.org/1999/xlink">
<g id="graph0" class="graph" transform="scale(1 1) rotate(0) translate(4 289.5)">
<title>OmniboxEditModel::SetFocusState</title>
<polygon fill="white" stroke="transparent" points="-4,4 -4,-289.5 1123,-289.5 1123,4 -4,4"/>
<!-- Node1 -->
<g id="node1" class="node">
<title>Node1</title>
<g id="a_node1"><a xlink:title=" ">
<polygon fill="#bfbfbf" stroke="black" points="972,-129 972,-159 1119,-159 1119,-129 972,-129"/>
<text text-anchor="start" x="980" y="-147" font-family="Helvetica,sans-Serif" font-size="10.00">OmniboxEditModel::SetFocus</text>
<text text-anchor="middle" x="1045.5" y="-136" font-family="Helvetica,sans-Serif" font-size="10.00">State</text>
</a>
</g>
</g>
<!-- Node2 -->
<g id="node2" class="node">
<title>Node2</title>
<g id="a_node2"><a xlink:href="../../d0/d22/classOmniboxEditModel.html#ada57fd155509f60afd9228e3a07e9b47" target="_top" xlink:title=" ">
<polygon fill="white" stroke="black" points="786.5,-222 786.5,-252 925.5,-252 925.5,-222 786.5,-222"/>
<text text-anchor="start" x="794.5" y="-240" font-family="Helvetica,sans-Serif" font-size="10.00">OmniboxEditModel::OnAfter</text>
<text text-anchor="middle" x="856" y="-229" font-family="Helvetica,sans-Serif" font-size="10.00">PossibleChange</text>
</a>
</g>
</g>
<!-- Node1&#45;&gt;Node2 -->
<g id="edge1" class="edge">
<title>Node1&#45;&gt;Node2</title>
<path fill="none" stroke="midnightblue" d="M1016.03,-165.15C994.83,-180.12 964.7,-199.81 936,-213 928.84,-216.29 921.1,-219.28 913.38,-221.93"/>
<polygon fill="midnightblue" stroke="midnightblue" points="1018.16,-167.92 1024.26,-159.25 1014.09,-162.23 1018.16,-167.92"/>
</g>
<!-- Node9 -->
<g id="node9" class="node">
<title>Node9</title>
<g id="a_node9"><a xlink:href="../../d0/d22/classOmniboxEditModel.html#ac66fd48c7e5358a61b9dd3e494a711d5" target="_top" xlink:title=" ">
<polygon fill="white" stroke="black" points="790.5,-173 790.5,-203 921.5,-203 921.5,-173 790.5,-173"/>
<text text-anchor="start" x="798.5" y="-191" font-family="Helvetica,sans-Serif" font-size="10.00">OmniboxEditModel::OnKill</text>
<text text-anchor="middle" x="856" y="-180" font-family="Helvetica,sans-Serif" font-size="10.00">Focus</text>
</a>
</g>
</g>
<!-- Node1&#45;&gt;Node9 -->
<g id="edge9" class="edge">
<title>Node1&#45;&gt;Node9</title>
<path fill="none" stroke="midnightblue" d="M970.45,-161.38C954.11,-165.21 936.94,-169.24 921.03,-172.97"/>
<polygon fill="midnightblue" stroke="midnightblue" points="971.56,-164.71 980.5,-159.02 969.96,-157.9 971.56,-164.71"/>
</g>
<!-- Node11 -->
<g id="node11" class="node">
<title>Node11</title>
<g id="a_node11"><a xlink:href="../../d0/d22/classOmniboxEditModel.html#a1d064498a54d70278bf6eb66336a58ef" target="_top" xlink:title=" ">
<polygon fill="white" stroke="black" points="776,-134.5 776,-153.5 936,-153.5 936,-134.5 776,-134.5"/>
<text text-anchor="middle" x="856" y="-141.5" font-family="Helvetica,sans-Serif" font-size="10.00">OmniboxEditModel::OnSetFocus</text>
</a>
</g>
</g>
<!-- Node1&#45;&gt;Node11 -->
<g id="edge11" class="edge">
<title>Node1&#45;&gt;Node11</title>
<path fill="none" stroke="midnightblue" d="M961.56,-144C953.15,-144 944.62,-144 936.25,-144"/>
<polygon fill="midnightblue" stroke="midnightblue" points="961.74,-147.5 971.74,-144 961.74,-140.5 961.74,-147.5"/>
</g>
<!-- Node13 -->
<g id="node13" class="node">
<title>Node13</title>
<g id="a_node13"><a xlink:href="../../d0/d22/classOmniboxEditModel.html#a2bb71ab51adf4ec1d8de8b448f89c440" target="_top" xlink:title=" ">
<polygon fill="white" stroke="black" points="786,-85 786,-115 926,-115 926,-85 786,-85"/>
<text text-anchor="start" x="794" y="-103" font-family="Helvetica,sans-Serif" font-size="10.00">OmniboxEditModel::Restore</text>
<text text-anchor="middle" x="856" y="-92" font-family="Helvetica,sans-Serif" font-size="10.00">State</text>
</a>
</g>
</g>
<!-- Node1&#45;&gt;Node13 -->
<g id="edge13" class="edge">
<title>Node1&#45;&gt;Node13</title>
<path fill="none" stroke="midnightblue" d="M970.45,-126.62C954.11,-122.79 936.94,-118.76 921.03,-115.03"/>
<polygon fill="midnightblue" stroke="midnightblue" points="969.96,-130.1 980.5,-128.98 971.56,-123.29 969.96,-130.1"/>
</g>
<!-- Node15 -->
<g id="node15" class="node">
<title>Node15</title>
<g id="a_node15"><a xlink:href="../../d0/d22/classOmniboxEditModel.html#af4d6703b21983c2c4be737d59b9d1085" target="_top" xlink:title=" ">
<polygon fill="white" stroke="black" points="784,-36 784,-66 928,-66 928,-36 784,-36"/>
<text text-anchor="start" x="792" y="-54" font-family="Helvetica,sans-Serif" font-size="10.00">OmniboxEditModel::SetCaret</text>
<text text-anchor="middle" x="856" y="-43" font-family="Helvetica,sans-Serif" font-size="10.00">Visibility</text>
</a>
</g>
</g>
<!-- Node1&#45;&gt;Node15 -->
<g id="edge15" class="edge">
<title>Node1&#45;&gt;Node15</title>
<path fill="none" stroke="midnightblue" d="M1015.54,-123.01C994.32,-108.35 964.37,-89.12 936,-76 928.04,-72.32 919.38,-68.97 910.82,-66.01"/>
<polygon fill="midnightblue" stroke="midnightblue" points="1013.59,-125.92 1023.79,-128.78 1017.6,-120.18 1013.59,-125.92"/>
</g>
<!-- Node3 -->
<g id="node3" class="node">
<title>Node3</title>
<g id="a_node3"><a xlink:href="../../d0/d94/classOmniboxViewViews.html#a18cba16b87566313a94b57d0e4a7ce12" target="_top" xlink:title=" ">
<polygon fill="white" stroke="black" points="579,-222 579,-252 723,-252 723,-222 579,-222"/>
<text text-anchor="start" x="587" y="-240" font-family="Helvetica,sans-Serif" font-size="10.00">OmniboxViewViews::OnAfter</text>
<text text-anchor="middle" x="651" y="-229" font-family="Helvetica,sans-Serif" font-size="10.00">PossibleChange</text>
</a>
</g>
</g>
<!-- Node2&#45;&gt;Node3 -->
<g id="edge2" class="edge">
<title>Node2&#45;&gt;Node3</title>
<path fill="none" stroke="midnightblue" d="M776.11,-237C758.64,-237 740.22,-237 723.08,-237"/>
<polygon fill="midnightblue" stroke="midnightblue" points="776.27,-240.5 786.27,-237 776.27,-233.5 776.27,-240.5"/>
</g>
<!-- Node4 -->
<g id="node4" class="node">
<title>Node4</title>
<g id="a_node4"><a xlink:href="../../d0/d94/classOmniboxViewViews.html#a487a0ced2870997b0f88d8dcab9a4f0e" target="_top" xlink:title=" ">
<polygon fill="white" stroke="black" points="0,-255 0,-285 146,-285 146,-255 0,-255"/>
<text text-anchor="start" x="8" y="-273" font-family="Helvetica,sans-Serif" font-size="10.00">OmniboxViewViews::Execute</text>
<text text-anchor="middle" x="73" y="-262" font-family="Helvetica,sans-Serif" font-size="10.00">Command</text>
</a>
</g>
</g>
<!-- Node3&#45;&gt;Node4 -->
<g id="edge3" class="edge">
<title>Node3&#45;&gt;Node4</title>
<path fill="none" stroke="midnightblue" d="M576.76,-254.05C560.16,-257.28 542.54,-260.2 526,-262 392.58,-276.51 235.73,-275.2 146.27,-272.74"/>
<polygon fill="midnightblue" stroke="midnightblue" points="577.83,-257.41 586.94,-252.01 576.45,-250.54 577.83,-257.41"/>
</g>
<!-- Node5 -->
<g id="node5" class="node">
<title>Node5</title>
<g id="a_node5"><a xlink:href="../../d0/d94/classOmniboxViewViews.html#a81d025d1f692c96482925dfbab529691" target="_top" xlink:title=" ">
<polygon fill="white" stroke="black" points="373,-222 373,-252 517,-252 517,-222 373,-222"/>
<text text-anchor="start" x="381" y="-240" font-family="Helvetica,sans-Serif" font-size="10.00">OmniboxViewViews::OnAfter</text>
<text text-anchor="middle" x="445" y="-229" font-family="Helvetica,sans-Serif" font-size="10.00">UserAction</text>
</a>
</g>
</g>
<!-- Node3&#45;&gt;Node5 -->
<g id="edge4" class="edge">
<title>Node3&#45;&gt;Node5</title>
<path fill="none" stroke="midnightblue" d="M568.48,-237C551.5,-237 533.73,-237 517.15,-237"/>
<polygon fill="midnightblue" stroke="midnightblue" points="568.94,-240.5 578.94,-237 568.94,-233.5 568.94,-240.5"/>
</g>
<!-- Node6 -->
<g id="node6" class="node">
<title>Node6</title>
<g id="a_node6"><a xlink:href="../../d0/d94/classOmniboxViewViews.html#af593bb600ecfa2ed731497a260451b47" target="_top" xlink:title=" ">
<polygon fill="white" stroke="black" points="364,-173 364,-203 526,-203 526,-173 364,-173"/>
<text text-anchor="start" x="372" y="-191" font-family="Helvetica,sans-Serif" font-size="10.00">OmniboxViewViews::OnOmnibox</text>
<text text-anchor="middle" x="445" y="-180" font-family="Helvetica,sans-Serif" font-size="10.00">Paste</text>
</a>
</g>
</g>
<!-- Node3&#45;&gt;Node6 -->
<g id="edge5" class="edge">
<title>Node3&#45;&gt;Node6</title>
<path fill="none" stroke="midnightblue" d="M577.54,-219.6C554.98,-214.18 530.3,-208.25 508.47,-203.01"/>
<polygon fill="midnightblue" stroke="midnightblue" points="576.87,-223.03 587.41,-221.97 578.5,-216.23 576.87,-223.03"/>
</g>
<!-- Node7 -->
<g id="node7" class="node">
<title>Node7</title>
<g id="a_node7"><a xlink:href="../../d0/d94/classOmniboxViewViews.html#ae3ebda306ffa960bb7a3a1ebe7f7fc76" target="_top" xlink:title=" ">
<polygon fill="white" stroke="black" points="182,-184 182,-214 328,-214 328,-184 182,-184"/>
<text text-anchor="start" x="190" y="-202" font-family="Helvetica,sans-Serif" font-size="10.00">OmniboxViewViews::Execute</text>
<text text-anchor="middle" x="255" y="-191" font-family="Helvetica,sans-Serif" font-size="10.00">TextEditCommand</text>
</a>
</g>
</g>
<!-- Node6&#45;&gt;Node7 -->
<g id="edge6" class="edge">
<title>Node6&#45;&gt;Node7</title>
<path fill="none" stroke="midnightblue" d="M353.91,-193.27C345.28,-193.78 336.61,-194.28 328.19,-194.78"/>
<polygon fill="midnightblue" stroke="midnightblue" points="354.22,-196.76 364,-192.68 353.81,-189.77 354.22,-196.76"/>
</g>
<!-- Node7&#45;&gt;Node4 -->
<g id="edge7" class="edge">
<title>Node7&#45;&gt;Node4</title>
<path fill="none" stroke="midnightblue" d="M206.17,-217.87C176.75,-229.47 139.55,-244.14 112.12,-254.96"/>
<polygon fill="midnightblue" stroke="midnightblue" points="207.81,-220.98 215.83,-214.06 205.24,-214.47 207.81,-220.98"/>
</g>
<!-- Node8 -->
<g id="node8" class="node">
<title>Node8</title>
<g id="a_node8"><a xlink:href="../../d0/d94/classOmniboxViewViews.html#a5a64c1e16631c3301fb57307402784dc" target="_top" xlink:title=" ">
<polygon fill="white" stroke="black" points="2.5,-184 2.5,-214 143.5,-214 143.5,-184 2.5,-184"/>
<text text-anchor="start" x="10.5" y="-202" font-family="Helvetica,sans-Serif" font-size="10.00">OmniboxViewViews::Handle</text>
<text text-anchor="middle" x="73" y="-191" font-family="Helvetica,sans-Serif" font-size="10.00">KeyEvent</text>
</a>
</g>
</g>
<!-- Node7&#45;&gt;Node8 -->
<g id="edge8" class="edge">
<title>Node7&#45;&gt;Node8</title>
<path fill="none" stroke="midnightblue" d="M171.69,-199C162.29,-199 152.77,-199 143.56,-199"/>
<polygon fill="midnightblue" stroke="midnightblue" points="171.82,-202.5 181.82,-199 171.82,-195.5 171.82,-202.5"/>
</g>
<!-- Node10 -->
<g id="node10" class="node">
<title>Node10</title>
<g id="a_node10"><a xlink:href="../../d0/d94/classOmniboxViewViews.html#a0ff89bd4e88c1746caa381d559266a4c" target="_top" xlink:title=" ">
<polygon fill="white" stroke="black" points="581,-178.5 581,-197.5 721,-197.5 721,-178.5 581,-178.5"/>
<text text-anchor="middle" x="651" y="-185.5" font-family="Helvetica,sans-Serif" font-size="10.00">OmniboxViewViews::OnBlur</text>
</a>
</g>
</g>
<!-- Node9&#45;&gt;Node10 -->
<g id="edge10" class="edge">
<title>Node9&#45;&gt;Node10</title>
<path fill="none" stroke="midnightblue" d="M780.24,-188C760.94,-188 740.26,-188 721.26,-188"/>
<polygon fill="midnightblue" stroke="midnightblue" points="780.49,-191.5 790.49,-188 780.49,-184.5 780.49,-191.5"/>
</g>
<!-- Node12 -->
<g id="node12" class="node">
<title>Node12</title>
<g id="a_node12"><a xlink:href="../../d0/d94/classOmniboxViewViews.html#a4edccd8e1879ed11bc458225d98af8d4" target="_top" xlink:title=" ">
<polygon fill="white" stroke="black" points="576,-134.5 576,-153.5 726,-153.5 726,-134.5 576,-134.5"/>
<text text-anchor="middle" x="651" y="-141.5" font-family="Helvetica,sans-Serif" font-size="10.00">OmniboxViewViews::OnFocus</text>
</a>
</g>
</g>
<!-- Node11&#45;&gt;Node12 -->
<g id="edge12" class="edge">
<title>Node11&#45;&gt;Node12</title>
<path fill="none" stroke="midnightblue" d="M765.88,-144C752.63,-144 739.1,-144 726.2,-144"/>
<polygon fill="midnightblue" stroke="midnightblue" points="765.93,-147.5 775.93,-144 765.93,-140.5 765.93,-147.5"/>
</g>
<!-- Node14 -->
<g id="node14" class="node">
<title>Node14</title>
<g id="a_node14"><a xlink:href="../../d0/d94/classOmniboxViewViews.html#a29443b7e10de80e21be533d0a9f5df7f" target="_top" xlink:title=" ">
<polygon fill="white" stroke="black" points="562,-90.5 562,-109.5 740,-109.5 740,-90.5 562,-90.5"/>
<text text-anchor="middle" x="651" y="-97.5" font-family="Helvetica,sans-Serif" font-size="10.00">OmniboxViewViews::OnTabChanged</text>
</a>
</g>
</g>
<!-- Node13&#45;&gt;Node14 -->
<g id="edge14" class="edge">
<title>Node13&#45;&gt;Node14</title>
<path fill="none" stroke="midnightblue" d="M775.85,-100C764.17,-100 752.08,-100 740.23,-100"/>
<polygon fill="midnightblue" stroke="midnightblue" points="775.99,-103.5 785.99,-100 775.99,-96.5 775.99,-103.5"/>
</g>
<!-- Node16 -->
<g id="node16" class="node">
<title>Node16</title>
<g id="a_node16"><a xlink:href="../../d0/d94/classOmniboxViewViews.html#a9fc21bac19f3a666e10eabc84b72c745" target="_top" xlink:title=" ">
<polygon fill="white" stroke="black" points="575,-39 575,-69 727,-69 727,-39 575,-39"/>
<text text-anchor="start" x="583" y="-57" font-family="Helvetica,sans-Serif" font-size="10.00">OmniboxViewViews::OnMouse</text>
<text text-anchor="middle" x="651" y="-46" font-family="Helvetica,sans-Serif" font-size="10.00">Pressed</text>
</a>
</g>
</g>
<!-- Node15&#45;&gt;Node16 -->
<g id="edge16" class="edge">
<title>Node15&#45;&gt;Node16</title>
<path fill="none" stroke="midnightblue" d="M773.3,-52.21C758.09,-52.43 742.26,-52.67 727.25,-52.89"/>
<polygon fill="midnightblue" stroke="midnightblue" points="773.77,-55.7 783.72,-52.05 773.66,-48.7 773.77,-55.7"/>
</g>
<!-- Node17 -->
<g id="node17" class="node">
<title>Node17</title>
<g id="a_node17"><a xlink:href="../../d0/d94/classOmniboxViewViews.html#ae9d72f709ba57cd59d22d6fbef32dd1c" target="_top" xlink:title=" ">
<polygon fill="white" stroke="black" points="575,-0.5 575,-19.5 727,-19.5 727,-0.5 575,-0.5"/>
<text text-anchor="middle" x="651" y="-7.5" font-family="Helvetica,sans-Serif" font-size="10.00">OmniboxViewViews::SetFocus</text>
</a>
</g>
</g>
<!-- Node15&#45;&gt;Node17 -->
<g id="edge17" class="edge">
<title>Node15&#45;&gt;Node17</title>
<path fill="none" stroke="midnightblue" d="M773.75,-34.59C748.46,-29.48 721.42,-24.02 699.26,-19.55"/>
<polygon fill="midnightblue" stroke="midnightblue" points="773.22,-38.05 783.72,-36.6 774.61,-31.19 773.22,-38.05"/>
</g>
</g>
</svg>
