<?xml version="1.0" encoding="UTF-8" standalone="no"?>
<!DOCTYPE svg PUBLIC "-//W3C//DTD SVG 1.1//EN"
 "http://www.w3.org/Graphics/SVG/1.1/DTD/svg11.dtd">
<!-- Generated by graphviz version 2.43.0 (0)
 -->
<!-- Title: OmniboxEditModel::ClassifyString Pages: 1 -->
<!--zoomable 271 -->
<svg id="main" version="1.1" xmlns="http://www.w3.org/2000/svg" xmlns:xlink="http://www.w3.org/1999/xlink" xml:space="preserve" onload="init(evt)">
<style type="text/css"><![CDATA[
.edge:hover path { stroke: red; }
.edge:hover polygon { stroke: red; fill: red; }
]]></style>
<script type="text/javascript"><![CDATA[
var edges = document.getElementsByTagName('g');
if (edges && edges.length) {
  for (var i=0;i<edges.length;i++) {
    if (edges[i].id.substr(0,4)=='edge') {
      edges[i].setAttribute('class','edge');
    }
  }
}
]]></script>
        <defs>
                <circle id="rim" cx="0" cy="0" r="7"/>
                <circle id="rim2" cx="0" cy="0" r="3.5"/>
                <g id="zoomPlus">
                        <use xlink:href="#rim" fill="#404040">
                                <set attributeName="fill" to="#808080" begin="zoomplus.mouseover" end="zoomplus.mouseout"/>
                        </use>
                        <path d="M-4,0h8M0,-4v8" fill="none" stroke="white" stroke-width="1.5" pointer-events="none"/>
                </g>
                <g id="zoomMin">
                        <use xlink:href="#rim" fill="#404040">
                                <set attributeName="fill" to="#808080" begin="zoomminus.mouseover" end="zoomminus.mouseout"/>
                        </use>
                        <path d="M-4,0h8" fill="none" stroke="white" stroke-width="1.5" pointer-events="none"/>
                </g>
                <g id="dirArrow">
                        <path fill="none" stroke="white" stroke-width="1.5" d="M0,-3.0v7 M-2.5,-0.5L0,-3.0L2.5,-0.5"/>
                </g>
               <g id="resetDef">
                       <use xlink:href="#rim2" fill="#404040">
                               <set attributeName="fill" to="#808080" begin="reset.mouseover" end="reset.mouseout"/>
                       </use>
               </g>
        </defs>

<script type="text/javascript">
var viewWidth = 1096;
var viewHeight = 271;
var sectionId = 'dynsection-17';
</script>
<script xlink:href="../../svgpan.js"/>
<svg id="graph" class="graph">
<g id="viewport">
<title>OmniboxEditModel::ClassifyString</title>
<polygon fill="white" stroke="transparent" points="-4,4 -4,-267.03 1092,-267.03 1092,4 -4,4"/>
<!-- Node1 -->
<g id="node1" class="node">
<title>Node1</title>
<g id="a_node1"><a xlink:title=" ">
<polygon fill="#bfbfbf" stroke="black" points="947,-44.18 947,-74.18 1088,-74.18 1088,-44.18 947,-44.18"/>
<text text-anchor="start" x="955" y="-62.18" font-family="Helvetica,sans-Serif" font-size="10.00">OmniboxEditModel::Classify</text>
<text text-anchor="middle" x="1017.5" y="-51.18" font-family="Helvetica,sans-Serif" font-size="10.00">String</text>
</a>
</g>
</g>
<!-- Node2 -->
<g id="node2" class="node">
<title>Node2</title>
<g id="a_node2"><a xlink:href="../../d0/d22/classOmniboxEditModel.html#a7cb57e6fcc73588ffba617ab74199069" target="_top" xlink:title=" ">
<polygon fill="white" stroke="black" points="762,-69.18 762,-99.18 911,-99.18 911,-69.18 762,-69.18"/>
<text text-anchor="start" x="770" y="-87.18" font-family="Helvetica,sans-Serif" font-size="10.00">OmniboxEditModel::CanPaste</text>
<text text-anchor="middle" x="836.5" y="-76.18" font-family="Helvetica,sans-Serif" font-size="10.00">AndGo</text>
</a>
</g>
</g>
<!-- Node1&#45;&gt;Node2 -->
<g id="edge1" class="edge">
<title>Node1&#45;&gt;Node2</title>
<path fill="none" stroke="midnightblue" d="M936.83,-70.31C928.29,-71.5 919.63,-72.71 911.17,-73.89"/>
<polygon fill="midnightblue" stroke="midnightblue" points="937.36,-73.77 946.78,-68.92 936.39,-66.84 937.36,-73.77"/>
</g>
<!-- Node4 -->
<g id="node4" class="node">
<title>Node4</title>
<g id="a_node4"><a xlink:href="../../d0/d22/classOmniboxEditModel.html#aab58057067d31b0c32e486889eb7a824" target="_top" xlink:title=" ">
<polygon fill="white" stroke="black" points="563.5,-5.68 563.5,-24.68 724.5,-24.68 724.5,-5.68 563.5,-5.68"/>
<text text-anchor="middle" x="644" y="-12.68" font-family="Helvetica,sans-Serif" font-size="10.00">OmniboxEditModel::PasteAndGo</text>
</a>
</g>
</g>
<!-- Node1&#45;&gt;Node4 -->
<g id="edge6" class="edge">
<title>Node1&#45;&gt;Node4</title>
<path fill="none" stroke="midnightblue" d="M983.25,-39.17C963.12,-28.24 936.48,-15.81 911,-10.18 843.24,4.79 763.39,0.46 708.98,-5.66"/>
<polygon fill="midnightblue" stroke="midnightblue" points="981.58,-42.25 992.01,-44.06 984.98,-36.13 981.58,-42.25"/>
</g>
<!-- Node6 -->
<g id="node6" class="node">
<title>Node6</title>
<g id="a_node6"><a xlink:href="../../d0/d94/classOmniboxViewViews.html#a1aca74603403828d3a9c391b61b2ae0f" target="_top" xlink:title=" ">
<polygon fill="white" stroke="black" points="762,-20.18 762,-50.18 911,-50.18 911,-20.18 762,-20.18"/>
<text text-anchor="start" x="770" y="-38.18" font-family="Helvetica,sans-Serif" font-size="10.00">OmniboxViewViews::GetLabel</text>
<text text-anchor="middle" x="836.5" y="-27.18" font-family="Helvetica,sans-Serif" font-size="10.00">ForCommandId</text>
</a>
</g>
</g>
<!-- Node1&#45;&gt;Node6 -->
<g id="edge5" class="edge">
<title>Node1&#45;&gt;Node6</title>
<path fill="none" stroke="midnightblue" d="M936.83,-48.5C928.29,-47.36 919.63,-46.19 911.17,-45.06"/>
<polygon fill="midnightblue" stroke="midnightblue" points="936.4,-51.97 946.78,-49.83 937.34,-45.04 936.4,-51.97"/>
</g>
<!-- Node7 -->
<g id="node7" class="node">
<title>Node7</title>
<g id="a_node7"><a xlink:href="../../d0/d94/classOmniboxViewViews.html#a4fbd35d6def5efeefc54068a25eb2f83" target="_top" xlink:title=" ">
<polygon fill="white" stroke="black" points="763.5,-142.18 763.5,-172.18 909.5,-172.18 909.5,-142.18 763.5,-142.18"/>
<text text-anchor="start" x="771.5" y="-160.18" font-family="Helvetica,sans-Serif" font-size="10.00">OmniboxViewViews::Unapply</text>
<text text-anchor="middle" x="836.5" y="-149.18" font-family="Helvetica,sans-Serif" font-size="10.00">SteadyStateElisions</text>
</a>
</g>
</g>
<!-- Node1&#45;&gt;Node7 -->
<g id="edge7" class="edge">
<title>Node1&#45;&gt;Node7</title>
<path fill="none" stroke="midnightblue" d="M979.77,-79.29C945.74,-97.92 895.87,-125.23 865.11,-142.07"/>
<polygon fill="midnightblue" stroke="midnightblue" points="981.83,-82.15 988.92,-74.28 978.47,-76.01 981.83,-82.15"/>
</g>
<!-- Node3 -->
<g id="node3" class="node">
<title>Node3</title>
<g id="a_node3"><a xlink:href="../../d0/d94/classOmniboxViewViews.html#a82a27e210a45aaa9b83ce62f84e4ca4d" target="_top" xlink:title=" ">
<polygon fill="white" stroke="black" points="562,-44.18 562,-74.18 726,-74.18 726,-44.18 562,-44.18"/>
<text text-anchor="start" x="570" y="-62.18" font-family="Helvetica,sans-Serif" font-size="10.00">OmniboxViewViews::IsCommand</text>
<text text-anchor="middle" x="644" y="-51.18" font-family="Helvetica,sans-Serif" font-size="10.00">IdEnabled</text>
</a>
</g>
</g>
<!-- Node2&#45;&gt;Node3 -->
<g id="edge2" class="edge">
<title>Node2&#45;&gt;Node3</title>
<path fill="none" stroke="midnightblue" d="M751.86,-73.21C743.29,-72.08 734.59,-70.94 726.05,-69.82"/>
<polygon fill="midnightblue" stroke="midnightblue" points="751.48,-76.69 761.85,-74.52 752.39,-69.74 751.48,-76.69"/>
</g>
<!-- Node2&#45;&gt;Node4 -->
<g id="edge3" class="edge">
<title>Node2&#45;&gt;Node4</title>
<path fill="none" stroke="midnightblue" d="M775.4,-65.31C770.8,-63.39 766.29,-61.35 762,-59.18 744.61,-50.4 743.8,-42.1 726,-34.18 717.42,-30.36 707.98,-27.26 698.66,-24.75"/>
<polygon fill="midnightblue" stroke="midnightblue" points="774.33,-68.65 784.92,-69.07 776.9,-62.14 774.33,-68.65"/>
</g>
<!-- Node5 -->
<g id="node5" class="node">
<title>Node5</title>
<g id="a_node5"><a xlink:href="../../d0/d94/classOmniboxViewViews.html#a487a0ced2870997b0f88d8dcab9a4f0e" target="_top" xlink:title=" ">
<polygon fill="white" stroke="black" points="0,-49.18 0,-79.18 146,-79.18 146,-49.18 0,-49.18"/>
<text text-anchor="start" x="8" y="-67.18" font-family="Helvetica,sans-Serif" font-size="10.00">OmniboxViewViews::Execute</text>
<text text-anchor="middle" x="73" y="-56.18" font-family="Helvetica,sans-Serif" font-size="10.00">Command</text>
</a>
</g>
</g>
<!-- Node4&#45;&gt;Node5 -->
<g id="edge4" class="edge">
<title>Node4&#45;&gt;Node5</title>
<path fill="none" stroke="midnightblue" d="M553.32,-22.91C440.82,-32.59 250.14,-49.01 146.43,-57.94"/>
<polygon fill="midnightblue" stroke="midnightblue" points="553.62,-26.39 563.28,-22.05 553.02,-19.42 553.62,-26.39"/>
</g>
<!-- Node8 -->
<g id="node8" class="node">
<title>Node8</title>
<g id="a_node8"><a xlink:href="../../d0/d94/classOmniboxViewViews.html#a5a64c1e16631c3301fb57307402784dc" target="_top" xlink:title=" ">
<polygon fill="white" stroke="black" points="2.5,-188.18 2.5,-218.18 143.5,-218.18 143.5,-188.18 2.5,-188.18"/>
<text text-anchor="start" x="10.5" y="-206.18" font-family="Helvetica,sans-Serif" font-size="10.00">OmniboxViewViews::Handle</text>
<text text-anchor="middle" x="73" y="-195.18" font-family="Helvetica,sans-Serif" font-size="10.00">KeyEvent</text>
</a>
</g>
</g>
<!-- Node7&#45;&gt;Node8 -->
<g id="edge8" class="edge">
<title>Node7&#45;&gt;Node8</title>
<path fill="none" stroke="midnightblue" d="M812.05,-179.21C791.26,-197.13 759.12,-221.04 726,-231.18 514.75,-295.87 247.03,-245.76 131.43,-218.21"/>
<polygon fill="midnightblue" stroke="midnightblue" points="814.54,-181.69 819.71,-172.44 809.9,-176.44 814.54,-181.69"/>
</g>
<!-- Node9 -->
<g id="node9" class="node">
<title>Node9</title>
<g id="a_node9"><a xlink:href="../../d0/d94/classOmniboxViewViews.html#a18cba16b87566313a94b57d0e4a7ce12" target="_top" xlink:title=" ">
<polygon fill="white" stroke="black" points="572,-93.18 572,-123.18 716,-123.18 716,-93.18 572,-93.18"/>
<text text-anchor="start" x="580" y="-111.18" font-family="Helvetica,sans-Serif" font-size="10.00">OmniboxViewViews::OnAfter</text>
<text text-anchor="middle" x="644" y="-100.18" font-family="Helvetica,sans-Serif" font-size="10.00">PossibleChange</text>
</a>
</g>
</g>
<!-- Node7&#45;&gt;Node9 -->
<g id="edge9" class="edge">
<title>Node7&#45;&gt;Node9</title>
<path fill="none" stroke="midnightblue" d="M767.27,-139.63C746.35,-134.25 723.54,-128.38 703.34,-123.19"/>
<polygon fill="midnightblue" stroke="midnightblue" points="766.49,-143.05 777.05,-142.15 768.24,-136.27 766.49,-143.05"/>
</g>
<!-- Node13 -->
<g id="node13" class="node">
<title>Node13</title>
<g id="a_node13"><a xlink:href="../../d0/d94/classOmniboxViewViews.html#a9fc21bac19f3a666e10eabc84b72c745" target="_top" xlink:title=" ">
<polygon fill="white" stroke="black" points="568,-191.18 568,-221.18 720,-221.18 720,-191.18 568,-191.18"/>
<text text-anchor="start" x="576" y="-209.18" font-family="Helvetica,sans-Serif" font-size="10.00">OmniboxViewViews::OnMouse</text>
<text text-anchor="middle" x="644" y="-198.18" font-family="Helvetica,sans-Serif" font-size="10.00">Pressed</text>
</a>
</g>
</g>
<!-- Node7&#45;&gt;Node13 -->
<g id="edge16" class="edge">
<title>Node7&#45;&gt;Node13</title>
<path fill="none" stroke="midnightblue" d="M767.27,-174.73C746.35,-180.11 723.54,-185.98 703.34,-191.18"/>
<polygon fill="midnightblue" stroke="midnightblue" points="768.24,-178.1 777.05,-172.22 766.49,-171.32 768.24,-178.1"/>
</g>
<!-- Node14 -->
<g id="node14" class="node">
<title>Node14</title>
<g id="a_node14"><a xlink:href="../../d0/d94/classOmniboxViewViews.html#aef90f48ecf2ced3ede6d986328b82b15" target="_top" xlink:title=" ">
<polygon fill="white" stroke="black" points="568,-142.18 568,-172.18 720,-172.18 720,-142.18 568,-142.18"/>
<text text-anchor="start" x="576" y="-160.18" font-family="Helvetica,sans-Serif" font-size="10.00">OmniboxViewViews::OnMouse</text>
<text text-anchor="middle" x="644" y="-149.18" font-family="Helvetica,sans-Serif" font-size="10.00">Released</text>
</a>
</g>
</g>
<!-- Node7&#45;&gt;Node14 -->
<g id="edge17" class="edge">
<title>Node7&#45;&gt;Node14</title>
<path fill="none" stroke="midnightblue" d="M753.45,-157.18C742.44,-157.18 731.18,-157.18 720.29,-157.18"/>
<polygon fill="midnightblue" stroke="midnightblue" points="753.48,-160.68 763.48,-157.18 753.48,-153.68 753.48,-160.68"/>
</g>
<!-- Node9&#45;&gt;Node5 -->
<g id="edge10" class="edge">
<title>Node9&#45;&gt;Node5</title>
<path fill="none" stroke="midnightblue" d="M572.18,-91.05C557.02,-87.95 541.04,-85.09 526,-83.18 392.76,-66.27 235.85,-63.47 146.34,-63.48"/>
<polygon fill="midnightblue" stroke="midnightblue" points="571.5,-94.48 582,-93.12 572.94,-87.63 571.5,-94.48"/>
</g>
<!-- Node10 -->
<g id="node10" class="node">
<title>Node10</title>
<g id="a_node10"><a xlink:href="../../d0/d94/classOmniboxViewViews.html#a81d025d1f692c96482925dfbab529691" target="_top" xlink:title=" ">
<polygon fill="white" stroke="black" points="373,-93.18 373,-123.18 517,-123.18 517,-93.18 373,-93.18"/>
<text text-anchor="start" x="381" y="-111.18" font-family="Helvetica,sans-Serif" font-size="10.00">OmniboxViewViews::OnAfter</text>
<text text-anchor="middle" x="445" y="-100.18" font-family="Helvetica,sans-Serif" font-size="10.00">UserAction</text>
</a>
</g>
</g>
<!-- Node9&#45;&gt;Node10 -->
<g id="edge11" class="edge">
<title>Node9&#45;&gt;Node10</title>
<path fill="none" stroke="midnightblue" d="M561.72,-108.18C546.89,-108.18 531.52,-108.18 517.02,-108.18"/>
<polygon fill="midnightblue" stroke="midnightblue" points="561.88,-111.68 571.88,-108.18 561.88,-104.68 561.88,-111.68"/>
</g>
<!-- Node11 -->
<g id="node11" class="node">
<title>Node11</title>
<g id="a_node11"><a xlink:href="../../d0/d94/classOmniboxViewViews.html#af593bb600ecfa2ed731497a260451b47" target="_top" xlink:title=" ">
<polygon fill="white" stroke="black" points="364,-142.18 364,-172.18 526,-172.18 526,-142.18 364,-142.18"/>
<text text-anchor="start" x="372" y="-160.18" font-family="Helvetica,sans-Serif" font-size="10.00">OmniboxViewViews::OnOmnibox</text>
<text text-anchor="middle" x="445" y="-149.18" font-family="Helvetica,sans-Serif" font-size="10.00">Paste</text>
</a>
</g>
</g>
<!-- Node9&#45;&gt;Node11 -->
<g id="edge12" class="edge">
<title>Node9&#45;&gt;Node11</title>
<path fill="none" stroke="midnightblue" d="M572.74,-125.66C551.02,-131.06 527.31,-136.96 506.33,-142.18"/>
<polygon fill="midnightblue" stroke="midnightblue" points="573.7,-129.03 582.55,-123.22 572.01,-122.23 573.7,-129.03"/>
</g>
<!-- Node12 -->
<g id="node12" class="node">
<title>Node12</title>
<g id="a_node12"><a xlink:href="../../d0/d94/classOmniboxViewViews.html#ae3ebda306ffa960bb7a3a1ebe7f7fc76" target="_top" xlink:title=" ">
<polygon fill="white" stroke="black" points="182,-142.18 182,-172.18 328,-172.18 328,-142.18 182,-142.18"/>
<text text-anchor="start" x="190" y="-160.18" font-family="Helvetica,sans-Serif" font-size="10.00">OmniboxViewViews::Execute</text>
<text text-anchor="middle" x="255" y="-149.18" font-family="Helvetica,sans-Serif" font-size="10.00">TextEditCommand</text>
</a>
</g>
</g>
<!-- Node11&#45;&gt;Node12 -->
<g id="edge13" class="edge">
<title>Node11&#45;&gt;Node12</title>
<path fill="none" stroke="midnightblue" d="M353.91,-157.18C345.28,-157.18 336.61,-157.18 328.19,-157.18"/>
<polygon fill="midnightblue" stroke="midnightblue" points="354,-160.68 364,-157.18 354,-153.68 354,-160.68"/>
</g>
<!-- Node12&#45;&gt;Node5 -->
<g id="edge14" class="edge">
<title>Node12&#45;&gt;Node5</title>
<path fill="none" stroke="midnightblue" d="M215.61,-137.35C182.01,-119.99 133.9,-95.13 103.31,-79.32"/>
<polygon fill="midnightblue" stroke="midnightblue" points="214.19,-140.55 224.68,-142.03 217.4,-134.33 214.19,-140.55"/>
</g>
<!-- Node12&#45;&gt;Node8 -->
<g id="edge15" class="edge">
<title>Node12&#45;&gt;Node8</title>
<path fill="none" stroke="midnightblue" d="M185.05,-174.8C167.81,-179.21 149.47,-183.9 132.76,-188.16"/>
<polygon fill="midnightblue" stroke="midnightblue" points="186.24,-178.11 195.06,-172.24 184.51,-171.33 186.24,-178.11"/>
</g>
</g>
</svg>
        <g id="navigator" transform="translate(0 0)" fill="#404254">
                <rect fill="#f2f5e9" fill-opacity="0.5" stroke="#606060" stroke-width=".5" x="0" y="0" width="60" height="60"/>
                <use id="zoomplus" xlink:href="#zoomPlus" x="17" y="9" onmousedown="handleZoom(evt,'in')"/>
                <use id="zoomminus" xlink:href="#zoomMin" x="42" y="9" onmousedown="handleZoom(evt,'out')"/>
                <use id="reset" xlink:href="#resetDef" x="30" y="36" onmousedown="handleReset()"/>
                <g id="arrowUp" xlink:href="#dirArrow" transform="translate(30 24)" onmousedown="handlePan(0,-1)">
                  <use xlink:href="#rim" fill="#404040">
                        <set attributeName="fill" to="#808080" begin="arrowUp.mouseover" end="arrowUp.mouseout"/>
                  </use>
                  <path fill="none" stroke="white" stroke-width="1.5" d="M0,-3.0v7 M-2.5,-0.5L0,-3.0L2.5,-0.5"/>
                </g>
                <g id="arrowRight" xlink:href="#dirArrow" transform="rotate(90) translate(36 -43)" onmousedown="handlePan(1,0)">
                  <use xlink:href="#rim" fill="#404040">
                        <set attributeName="fill" to="#808080" begin="arrowRight.mouseover" end="arrowRight.mouseout"/>
                  </use>
                  <path fill="none" stroke="white" stroke-width="1.5" d="M0,-3.0v7 M-2.5,-0.5L0,-3.0L2.5,-0.5"/>
                </g>
                <g id="arrowDown" xlink:href="#dirArrow" transform="rotate(180) translate(-30 -48)" onmousedown="handlePan(0,1)">
                  <use xlink:href="#rim" fill="#404040">
                        <set attributeName="fill" to="#808080" begin="arrowDown.mouseover" end="arrowDown.mouseout"/>
                  </use>
                  <path fill="none" stroke="white" stroke-width="1.5" d="M0,-3.0v7 M-2.5,-0.5L0,-3.0L2.5,-0.5"/>
                </g>
                <g id="arrowLeft" xlink:href="#dirArrow" transform="rotate(270) translate(-36 17)" onmousedown="handlePan(-1,0)">
                  <use xlink:href="#rim" fill="#404040">
                        <set attributeName="fill" to="#808080" begin="arrowLeft.mouseover" end="arrowLeft.mouseout"/>
                  </use>
                  <path fill="none" stroke="white" stroke-width="1.5" d="M0,-3.0v7 M-2.5,-0.5L0,-3.0L2.5,-0.5"/>
                </g>
        </g>
        <svg viewBox="0 0 15 15" width="100%" height="30px" preserveAspectRatio="xMaxYMin meet">
         <g id="arrow_out" transform="scale(0.3 0.3)">
          <a xlink:href="classOmniboxEditModel_a90f619a8a4908d7e8bd9db0264b68ebc_icgraph_org.svg" target="_base">
           <rect id="button" ry="5" rx="5" y="6" x="6" height="38" width="38"
                fill="#f2f5e9" fill-opacity="0.5" stroke="#606060" stroke-width="1.0"/>
           <path id="arrow"
             d="M 11.500037,31.436501 C 11.940474,20.09759 22.043105,11.32322 32.158766,21.979434 L 37.068811,17.246167 C 37.068811,17.246167 37.088388,32 37.088388,32 L 22.160133,31.978069 C 22.160133,31.978069 26.997745,27.140456 26.997745,27.140456 C 18.528582,18.264221 13.291696,25.230495 11.500037,31.436501 z"
             style="fill:#404040;"/>
          </a>
         </g>
        </svg>
</svg>
