<?xml version="1.0" encoding="UTF-8" standalone="no"?>
<!DOCTYPE svg PUBLIC "-//W3C//DTD SVG 1.1//EN"
 "http://www.w3.org/Graphics/SVG/1.1/DTD/svg11.dtd">
<!-- Generated by graphviz version 2.43.0 (0)
 -->
<!-- Title: OmniboxEditModel::GetPermanentDisplayText Pages: 1 -->
<svg width="776pt" height="94pt"
 viewBox="0.00 0.00 776.00 94.00" xmlns="http://www.w3.org/2000/svg" xmlns:xlink="http://www.w3.org/1999/xlink">
<g id="graph0" class="graph" transform="scale(1 1) rotate(0) translate(4 90)">
<title>OmniboxEditModel::GetPermanentDisplayText</title>
<polygon fill="white" stroke="transparent" points="-4,4 -4,-90 772,-90 772,4 -4,4"/>
<!-- Node1 -->
<g id="node1" class="node">
<title>Node1</title>
<g id="a_node1"><a xlink:title=" ">
<polygon fill="#bfbfbf" stroke="black" points="600,-17 600,-47 768,-47 768,-17 600,-17"/>
<text text-anchor="start" x="608" y="-35" font-family="Helvetica,sans-Serif" font-size="10.00">OmniboxEditModel::GetPermanent</text>
<text text-anchor="middle" x="684" y="-24" font-family="Helvetica,sans-Serif" font-size="10.00">DisplayText</text>
</a>
</g>
</g>
<!-- Node2 -->
<g id="node2" class="node">
<title>Node2</title>
<g id="a_node2"><a xlink:href="../../d0/d22/classOmniboxEditModel.html#a16f401285ef4ae6467632912e566fa34" target="_top" xlink:title=" ">
<polygon fill="white" stroke="black" points="400,-39 400,-69 564,-69 564,-39 400,-39"/>
<text text-anchor="start" x="408" y="-57" font-family="Helvetica,sans-Serif" font-size="10.00">OmniboxEditModel::ResetDisplay</text>
<text text-anchor="middle" x="482" y="-46" font-family="Helvetica,sans-Serif" font-size="10.00">Texts</text>
</a>
</g>
</g>
<!-- Node1&#45;&gt;Node2 -->
<g id="edge1" class="edge">
<title>Node1&#45;&gt;Node2</title>
<path fill="none" stroke="midnightblue" d="M589.9,-42.24C581.32,-43.18 572.67,-44.14 564.21,-45.07"/>
<polygon fill="midnightblue" stroke="midnightblue" points="590.36,-45.71 599.92,-41.14 589.6,-38.75 590.36,-45.71"/>
</g>
<!-- Node6 -->
<g id="node6" class="node">
<title>Node6</title>
<g id="a_node6"><a xlink:href="../../d0/d22/classOmniboxEditModel.html#adc1fe440d4ebc435036ee2de27d932d1" target="_top" xlink:title=" ">
<polygon fill="white" stroke="black" points="415,-0.5 415,-19.5 549,-19.5 549,-0.5 415,-0.5"/>
<text text-anchor="middle" x="482" y="-7.5" font-family="Helvetica,sans-Serif" font-size="10.00">OmniboxEditModel::Revert</text>
</a>
</g>
</g>
<!-- Node1&#45;&gt;Node6 -->
<g id="edge5" class="edge">
<title>Node1&#45;&gt;Node6</title>
<path fill="none" stroke="midnightblue" d="M589.92,-21.76C576.13,-20.24 562.16,-18.71 549.07,-17.27"/>
<polygon fill="midnightblue" stroke="midnightblue" points="589.6,-25.25 599.92,-22.86 590.36,-18.29 589.6,-25.25"/>
</g>
<!-- Node3 -->
<g id="node3" class="node">
<title>Node3</title>
<g id="a_node3"><a xlink:href="../../d0/d94/classOmniboxViewViews.html#a4edccd8e1879ed11bc458225d98af8d4" target="_top" xlink:title=" ">
<polygon fill="white" stroke="black" points="214,-66.5 214,-85.5 364,-85.5 364,-66.5 214,-66.5"/>
<text text-anchor="middle" x="289" y="-73.5" font-family="Helvetica,sans-Serif" font-size="10.00">OmniboxViewViews::OnFocus</text>
</a>
</g>
</g>
<!-- Node2&#45;&gt;Node3 -->
<g id="edge2" class="edge">
<title>Node2&#45;&gt;Node3</title>
<path fill="none" stroke="midnightblue" d="M389.91,-64.49C381.27,-65.49 372.6,-66.49 364.15,-67.46"/>
<polygon fill="midnightblue" stroke="midnightblue" points="390.47,-67.95 400,-63.33 389.66,-61 390.47,-67.95"/>
</g>
<!-- Node4 -->
<g id="node4" class="node">
<title>Node4</title>
<g id="a_node4"><a xlink:href="../../d0/d22/classOmniboxEditModel.html#a2bb71ab51adf4ec1d8de8b448f89c440" target="_top" xlink:title=" ">
<polygon fill="white" stroke="black" points="219,-17 219,-47 359,-47 359,-17 219,-17"/>
<text text-anchor="start" x="227" y="-35" font-family="Helvetica,sans-Serif" font-size="10.00">OmniboxEditModel::Restore</text>
<text text-anchor="middle" x="289" y="-24" font-family="Helvetica,sans-Serif" font-size="10.00">State</text>
</a>
</g>
</g>
<!-- Node2&#45;&gt;Node4 -->
<g id="edge3" class="edge">
<title>Node2&#45;&gt;Node4</title>
<path fill="none" stroke="midnightblue" d="M390.05,-43.52C379.62,-42.32 369.13,-41.11 359.06,-39.95"/>
<polygon fill="midnightblue" stroke="midnightblue" points="389.66,-47 400,-44.67 390.47,-40.05 389.66,-47"/>
</g>
<!-- Node5 -->
<g id="node5" class="node">
<title>Node5</title>
<g id="a_node5"><a xlink:href="../../d0/d94/classOmniboxViewViews.html#a29443b7e10de80e21be533d0a9f5df7f" target="_top" xlink:title=" ">
<polygon fill="white" stroke="black" points="0,-22.5 0,-41.5 178,-41.5 178,-22.5 0,-22.5"/>
<text text-anchor="middle" x="89" y="-29.5" font-family="Helvetica,sans-Serif" font-size="10.00">OmniboxViewViews::OnTabChanged</text>
</a>
</g>
</g>
<!-- Node4&#45;&gt;Node5 -->
<g id="edge4" class="edge">
<title>Node4&#45;&gt;Node5</title>
<path fill="none" stroke="midnightblue" d="M208.44,-32C198.42,-32 188.14,-32 178.01,-32"/>
<polygon fill="midnightblue" stroke="midnightblue" points="208.75,-35.5 218.75,-32 208.75,-28.5 208.75,-35.5"/>
</g>
</g>
</svg>
