<?xml version="1.0" encoding="UTF-8" standalone="no"?>
<!DOCTYPE svg PUBLIC "-//W3C//DTD SVG 1.1//EN"
 "http://www.w3.org/Graphics/SVG/1.1/DTD/svg11.dtd">
<!-- Generated by graphviz version 2.43.0 (0)
 -->
<!-- Title: OmniboxEditModel::AdjustTextForCopy Pages: 1 -->
<!--zoomable 870 -->
<svg id="main" version="1.1" xmlns="http://www.w3.org/2000/svg" xmlns:xlink="http://www.w3.org/1999/xlink" xml:space="preserve" onload="init(evt)">
<style type="text/css"><![CDATA[
.edge:hover path { stroke: red; }
.edge:hover polygon { stroke: red; fill: red; }
]]></style>
<script type="text/javascript"><![CDATA[
var edges = document.getElementsByTagName('g');
if (edges && edges.length) {
  for (var i=0;i<edges.length;i++) {
    if (edges[i].id.substr(0,4)=='edge') {
      edges[i].setAttribute('class','edge');
    }
  }
}
]]></script>
        <defs>
                <circle id="rim" cx="0" cy="0" r="7"/>
                <circle id="rim2" cx="0" cy="0" r="3.5"/>
                <g id="zoomPlus">
                        <use xlink:href="#rim" fill="#404040">
                                <set attributeName="fill" to="#808080" begin="zoomplus.mouseover" end="zoomplus.mouseout"/>
                        </use>
                        <path d="M-4,0h8M0,-4v8" fill="none" stroke="white" stroke-width="1.5" pointer-events="none"/>
                </g>
                <g id="zoomMin">
                        <use xlink:href="#rim" fill="#404040">
                                <set attributeName="fill" to="#808080" begin="zoomminus.mouseover" end="zoomminus.mouseout"/>
                        </use>
                        <path d="M-4,0h8" fill="none" stroke="white" stroke-width="1.5" pointer-events="none"/>
                </g>
                <g id="dirArrow">
                        <path fill="none" stroke="white" stroke-width="1.5" d="M0,-3.0v7 M-2.5,-0.5L0,-3.0L2.5,-0.5"/>
                </g>
               <g id="resetDef">
                       <use xlink:href="#rim2" fill="#404040">
                               <set attributeName="fill" to="#808080" begin="reset.mouseover" end="reset.mouseout"/>
                       </use>
               </g>
        </defs>

<script type="text/javascript">
var viewWidth = 1056;
var viewHeight = 870;
var sectionId = 'dynsection-9';
</script>
<script xlink:href="../../svgpan.js"/>
<svg id="graph" class="graph">
<g id="viewport">
<title>OmniboxEditModel::AdjustTextForCopy</title>
<polygon fill="white" stroke="transparent" points="-4,4 -4,-866 1052,-866 1052,4 -4,4"/>
<!-- Node1 -->
<g id="node1" class="node">
<title>Node1</title>
<g id="a_node1"><a xlink:title=" ">
<polygon fill="#bfbfbf" stroke="black" points="0,-648 0,-678 133,-678 133,-648 0,-648"/>
<text text-anchor="start" x="8" y="-666" font-family="Helvetica,sans-Serif" font-size="10.00">OmniboxEditModel::Adjust</text>
<text text-anchor="middle" x="66.5" y="-655" font-family="Helvetica,sans-Serif" font-size="10.00">TextForCopy</text>
</a>
</g>
</g>
<!-- Node2 -->
<g id="node2" class="node">
<title>Node2</title>
<g id="a_node2"><a xlink:href="../../d0/d22/classOmniboxEditModel.html#ad4c23db832a06ca44fb769a87cebd6e9" target="_top" xlink:title=" ">
<polygon fill="white" stroke="black" points="730.5,-842.5 730.5,-861.5 875.5,-861.5 875.5,-842.5 730.5,-842.5"/>
<text text-anchor="middle" x="803" y="-849.5" font-family="Helvetica,sans-Serif" font-size="10.00">OmniboxEditModel::controller</text>
</a>
</g>
</g>
<!-- Node1&#45;&gt;Node2 -->
<g id="edge1" class="edge">
<title>Node1&#45;&gt;Node2</title>
<path fill="none" stroke="midnightblue" d="M78.78,-678.22C95.82,-700.06 130.26,-739.96 169,-761 347.35,-857.86 593.75,-862.79 720.08,-857.69"/>
<polygon fill="midnightblue" stroke="midnightblue" points="720.24,-861.19 730.07,-857.26 719.93,-854.2 720.24,-861.19"/>
</g>
<!-- Node3 -->
<g id="node3" class="node">
<title>Node3</title>
<g id="a_node3"><a xlink:href="../../d0/d22/classOmniboxEditModel.html#a8fcc92f2543e50522f9e297ef4988e90" target="_top" xlink:title=" ">
<polygon fill="white" stroke="black" points="169,-580 169,-610 306,-610 306,-580 169,-580"/>
<text text-anchor="start" x="177" y="-598" font-family="Helvetica,sans-Serif" font-size="10.00">OmniboxEditModel::Current</text>
<text text-anchor="middle" x="237.5" y="-587" font-family="Helvetica,sans-Serif" font-size="10.00">Match</text>
</a>
</g>
</g>
<!-- Node1&#45;&gt;Node3 -->
<g id="edge2" class="edge">
<title>Node1&#45;&gt;Node3</title>
<path fill="none" stroke="midnightblue" d="M105.01,-647.91C129.95,-637.87 162.9,-624.61 189.58,-613.88"/>
<polygon fill="midnightblue" stroke="midnightblue" points="191.13,-617.03 199.1,-610.05 188.51,-610.54 191.13,-617.03"/>
</g>
<!-- Node8 -->
<g id="node8" class="node">
<title>Node8</title>
<g id="a_node8"><a xlink:href="../../dc/d8f/structAutocompleteMatch.html#a2995f802114ff701b5d6e037fb3019b3" target="_top" xlink:title=" ">
<polygon fill="white" stroke="black" points="748,-695 748,-725 858,-725 858,-695 748,-695"/>
<text text-anchor="start" x="756" y="-713" font-family="Helvetica,sans-Serif" font-size="10.00">AutocompleteMatch::</text>
<text text-anchor="middle" x="803" y="-702" font-family="Helvetica,sans-Serif" font-size="10.00">IsSearchType</text>
</a>
</g>
</g>
<!-- Node1&#45;&gt;Node8 -->
<g id="edge40" class="edge">
<title>Node1&#45;&gt;Node8</title>
<path fill="none" stroke="midnightblue" d="M133,-667.19C272.79,-676.14 598.83,-697 737.61,-705.88"/>
<polygon fill="midnightblue" stroke="midnightblue" points="737.47,-709.38 747.68,-706.52 737.92,-702.39 737.47,-709.38"/>
</g>
<!-- Node15 -->
<g id="node15" class="node">
<title>Node15</title>
<g id="a_node15"><a xlink:href="../../d0/d22/classOmniboxEditModel.html#a95286d7e003516065267f306a6cb1965" target="_top" xlink:title=" ">
<polygon fill="white" stroke="black" points="528.5,-744 528.5,-774 671.5,-774 671.5,-744 528.5,-744"/>
<text text-anchor="start" x="536.5" y="-762" font-family="Helvetica,sans-Serif" font-size="10.00">OmniboxEditModel::GetPage</text>
<text text-anchor="middle" x="600" y="-751" font-family="Helvetica,sans-Serif" font-size="10.00">Classification</text>
</a>
</g>
</g>
<!-- Node1&#45;&gt;Node15 -->
<g id="edge37" class="edge">
<title>Node1&#45;&gt;Node15</title>
<path fill="none" stroke="midnightblue" d="M102.11,-678.17C121.45,-686.07 146.19,-695.27 169,-701 288.64,-731.06 431.18,-746.4 518.36,-753.54"/>
<polygon fill="midnightblue" stroke="midnightblue" points="518.2,-757.04 528.45,-754.36 518.76,-750.07 518.2,-757.04"/>
</g>
<!-- Node16 -->
<g id="node16" class="node">
<title>Node16</title>
<g id="a_node16"><a xlink:href="../../dc/d81/classOmniboxEditController.html#af0496738d6b2b60045f04a52c8b015cb" target="_top" xlink:title=" ">
<polygon fill="white" stroke="black" points="745,-793 745,-823 861,-823 861,-793 745,-793"/>
<text text-anchor="start" x="753" y="-811" font-family="Helvetica,sans-Serif" font-size="10.00">OmniboxEditController</text>
<text text-anchor="middle" x="803" y="-800" font-family="Helvetica,sans-Serif" font-size="10.00">::GetLocationBarModel</text>
</a>
</g>
</g>
<!-- Node1&#45;&gt;Node16 -->
<g id="edge36" class="edge">
<title>Node1&#45;&gt;Node16</title>
<path fill="none" stroke="midnightblue" d="M86.06,-678.24C105.5,-693.37 137.53,-715.97 169,-728 364.55,-802.73 616.36,-810.72 734.79,-809.79"/>
<polygon fill="midnightblue" stroke="midnightblue" points="734.84,-813.29 744.8,-809.68 734.77,-806.29 734.84,-813.29"/>
</g>
<!-- Node20 -->
<g id="node20" class="node">
<title>Node20</title>
<g id="a_node20"><a xlink:href="../../d0/d22/classOmniboxEditModel.html#a0a13d5acf2a89532b46249c91cecb04b" target="_top" xlink:title=" ">
<polygon fill="white" stroke="black" points="746.5,-109 746.5,-139 859.5,-139 859.5,-109 746.5,-109"/>
<text text-anchor="start" x="754.5" y="-127" font-family="Helvetica,sans-Serif" font-size="10.00">OmniboxEditModel::is</text>
<text text-anchor="middle" x="803" y="-116" font-family="Helvetica,sans-Serif" font-size="10.00">_keyword_selected</text>
</a>
</g>
</g>
<!-- Node1&#45;&gt;Node20 -->
<g id="edge39" class="edge">
<title>Node1&#45;&gt;Node20</title>
<path fill="none" stroke="midnightblue" d="M73.62,-647.76C105.41,-570.89 260.19,-224.69 515,-102 591.56,-65.14 693.03,-86.95 752.54,-105.75"/>
<polygon fill="midnightblue" stroke="midnightblue" points="751.49,-109.09 762.08,-108.86 753.66,-102.43 751.49,-109.09"/>
</g>
<!-- Node25 -->
<g id="node25" class="node">
<title>Node25</title>
<g id="a_node25"><a xlink:href="../../d0/d22/classOmniboxEditModel.html#a67fe900511cae558a9585411c98b36c6" target="_top" xlink:title=" ">
<polygon fill="white" stroke="black" points="518,-38.5 518,-57.5 682,-57.5 682,-38.5 518,-38.5"/>
<text text-anchor="middle" x="600" y="-45.5" font-family="Helvetica,sans-Serif" font-size="10.00">OmniboxEditModel::PopupIsOpen</text>
</a>
</g>
</g>
<!-- Node1&#45;&gt;Node25 -->
<g id="edge41" class="edge">
<title>Node1&#45;&gt;Node25</title>
<path fill="none" stroke="midnightblue" d="M67.67,-647.87C68.97,-563.44 79.84,-151.51 169,-72 217.23,-28.99 396.37,-33.12 507.65,-40.34"/>
<polygon fill="midnightblue" stroke="midnightblue" points="507.65,-43.85 517.87,-41.02 508.12,-36.86 507.65,-43.85"/>
</g>
<!-- Node31 -->
<g id="node31" class="node">
<title>Node31</title>
<g id="a_node31"><a xlink:href="../../d1/d62/classLocationBarModel.html#a59dbb65d6241277baa8006d6bb3e3e3a" target="_top" xlink:title=" ">
<polygon fill="white" stroke="black" points="169,-0.5 169,-19.5 306,-19.5 306,-0.5 169,-0.5"/>
<text text-anchor="middle" x="237.5" y="-7.5" font-family="Helvetica,sans-Serif" font-size="10.00">LocationBarModel::GetURL</text>
</a>
</g>
</g>
<!-- Node1&#45;&gt;Node31 -->
<g id="edge38" class="edge">
<title>Node1&#45;&gt;Node31</title>
<path fill="none" stroke="midnightblue" d="M67.91,-647.88C70.53,-561.57 87.58,-131.73 169,-34 172.12,-30.26 175.87,-27.09 179.97,-24.43"/>
<polygon fill="midnightblue" stroke="midnightblue" points="181.71,-27.46 188.83,-19.61 178.37,-21.31 181.71,-27.46"/>
</g>
<!-- Node4 -->
<g id="node4" class="node">
<title>Node4</title>
<g id="a_node4"><a xlink:href="../../d3/d03/classAutocompleteResult.html#af09ffe15397e43cf992488963187189b" target="_top" xlink:title=" ">
<polygon fill="white" stroke="black" points="534,-580 534,-610 666,-610 666,-580 534,-580"/>
<text text-anchor="start" x="542" y="-598" font-family="Helvetica,sans-Serif" font-size="10.00">AutocompleteResult</text>
<text text-anchor="middle" x="600" y="-587" font-family="Helvetica,sans-Serif" font-size="10.00">::ComputeAlternateNavUrl</text>
</a>
</g>
</g>
<!-- Node3&#45;&gt;Node4 -->
<g id="edge3" class="edge">
<title>Node3&#45;&gt;Node4</title>
<path fill="none" stroke="midnightblue" d="M306.31,-595C368.26,-595 459.72,-595 523.87,-595"/>
<polygon fill="midnightblue" stroke="midnightblue" points="523.92,-598.5 533.92,-595 523.92,-591.5 523.92,-598.5"/>
</g>
<!-- Node11 -->
<g id="node11" class="node">
<title>Node11</title>
<g id="a_node11"><a xlink:href="../../d0/d22/classOmniboxEditModel.html#a5265a894f111d9204716d40e142e2645" target="_top" xlink:title=" ">
<polygon fill="white" stroke="black" points="342,-345 342,-375 479,-375 479,-345 342,-345"/>
<text text-anchor="start" x="350" y="-363" font-family="Helvetica,sans-Serif" font-size="10.00">OmniboxEditModel::GetInfo</text>
<text text-anchor="middle" x="410.5" y="-352" font-family="Helvetica,sans-Serif" font-size="10.00">ForCurrentText</text>
</a>
</g>
</g>
<!-- Node3&#45;&gt;Node11 -->
<g id="edge10" class="edge">
<title>Node3&#45;&gt;Node11</title>
<path fill="none" stroke="midnightblue" d="M249.46,-579.94C278.46,-540.08 357.42,-431.57 392.41,-383.48"/>
<polygon fill="midnightblue" stroke="midnightblue" points="395.36,-385.38 398.41,-375.24 389.7,-381.26 395.36,-385.38"/>
</g>
<!-- Node5 -->
<g id="node5" class="node">
<title>Node5</title>
<g id="a_node5"><a xlink:href="../../d9/df6/classAutocompleteInput.html#a419d05e14c86f18c137fbb4057fedb04" target="_top" xlink:title=" ">
<polygon fill="white" stroke="black" points="751,-558 751,-588 855,-588 855,-558 751,-558"/>
<text text-anchor="start" x="759" y="-576" font-family="Helvetica,sans-Serif" font-size="10.00">AutocompleteInput::</text>
<text text-anchor="middle" x="803" y="-565" font-family="Helvetica,sans-Serif" font-size="10.00">canonicalized_url</text>
</a>
</g>
</g>
<!-- Node4&#45;&gt;Node5 -->
<g id="edge4" class="edge">
<title>Node4&#45;&gt;Node5</title>
<path fill="none" stroke="midnightblue" d="M666.26,-587.86C690.12,-585.25 717.02,-582.3 740.55,-579.73"/>
<polygon fill="midnightblue" stroke="midnightblue" points="741.19,-583.18 750.75,-578.61 740.42,-576.22 741.19,-583.18"/>
</g>
<!-- Node6 -->
<g id="node6" class="node">
<title>Node6</title>
<g id="a_node6"><a xlink:href="../../d4/d19/namespaceomnibox.html#acabb493ed3d3ef334b91f977a3f954ef" target="_top" xlink:title=" ">
<polygon fill="white" stroke="black" points="740,-509 740,-539 866,-539 866,-509 740,-509"/>
<text text-anchor="start" x="748" y="-527" font-family="Helvetica,sans-Serif" font-size="10.00">omnibox::GetInterception</text>
<text text-anchor="middle" x="803" y="-516" font-family="Helvetica,sans-Serif" font-size="10.00">ChecksBehavior</text>
</a>
</g>
</g>
<!-- Node4&#45;&gt;Node6 -->
<g id="edge5" class="edge">
<title>Node4&#45;&gt;Node6</title>
<path fill="none" stroke="midnightblue" d="M638.33,-579.95C661.89,-570.64 693.06,-558.66 721,-549 727.54,-546.74 734.41,-544.47 741.27,-542.26"/>
<polygon fill="midnightblue" stroke="midnightblue" points="742.8,-545.45 751.28,-539.09 740.69,-538.77 742.8,-545.45"/>
</g>
<!-- Node7 -->
<g id="node7" class="node">
<title>Node7</title>
<g id="a_node7"><a xlink:href="../../d5/dc7/classAutocompleteProviderClient.html#a39fb65fe5ac8de4439f41335bde2a3f5" target="_top" xlink:title=" ">
<polygon fill="white" stroke="black" points="734,-646 734,-676 872,-676 872,-646 734,-646"/>
<text text-anchor="start" x="742" y="-664" font-family="Helvetica,sans-Serif" font-size="10.00">AutocompleteProviderClient</text>
<text text-anchor="middle" x="803" y="-653" font-family="Helvetica,sans-Serif" font-size="10.00">::GetLocalState</text>
</a>
</g>
</g>
<!-- Node4&#45;&gt;Node7 -->
<g id="edge6" class="edge">
<title>Node4&#45;&gt;Node7</title>
<path fill="none" stroke="midnightblue" d="M643.94,-610.02C666.77,-617.92 695.35,-627.66 721,-636 727.93,-638.25 735.21,-640.57 742.44,-642.84"/>
<polygon fill="midnightblue" stroke="midnightblue" points="741.65,-646.26 752.24,-645.9 743.73,-639.58 741.65,-646.26"/>
</g>
<!-- Node4&#45;&gt;Node8 -->
<g id="edge7" class="edge">
<title>Node4&#45;&gt;Node8</title>
<path fill="none" stroke="midnightblue" d="M616.8,-610.02C638.62,-630 679.94,-665.22 721,-686 726.5,-688.78 732.37,-691.3 738.35,-693.56"/>
<polygon fill="midnightblue" stroke="midnightblue" points="737.2,-696.86 747.79,-696.9 739.53,-690.26 737.2,-696.86"/>
</g>
<!-- Node10 -->
<g id="node10" class="node">
<title>Node10</title>
<g id="a_node10"><a xlink:href="../../d9/df6/classAutocompleteInput.html#a5d6111d5ac18400cdf809820dfab9ab0" target="_top" xlink:title=" ">
<polygon fill="white" stroke="black" points="741.5,-607.5 741.5,-626.5 864.5,-626.5 864.5,-607.5 741.5,-607.5"/>
<text text-anchor="middle" x="803" y="-614.5" font-family="Helvetica,sans-Serif" font-size="10.00">AutocompleteInput::type</text>
</a>
</g>
</g>
<!-- Node4&#45;&gt;Node10 -->
<g id="edge9" class="edge">
<title>Node4&#45;&gt;Node10</title>
<path fill="none" stroke="midnightblue" d="M666.26,-602.14C687.04,-604.42 710.13,-606.94 731.29,-609.26"/>
<polygon fill="midnightblue" stroke="midnightblue" points="731.17,-612.77 741.5,-610.38 731.94,-605.81 731.17,-612.77"/>
</g>
<!-- Node9 -->
<g id="node9" class="node">
<title>Node9</title>
<g id="a_node9"><a xlink:href="../../dc/d8f/structAutocompleteMatch.html#aaca5dac30caf1899132db064a3213d9e" target="_top" xlink:title=" ">
<polygon fill="white" stroke="black" points="921,-695 921,-725 1048,-725 1048,-695 921,-695"/>
<text text-anchor="start" x="929" y="-713" font-family="Helvetica,sans-Serif" font-size="10.00">AutocompleteMatch::</text>
<text text-anchor="middle" x="984.5" y="-702" font-family="Helvetica,sans-Serif" font-size="10.00">IsSpecializedSearchType</text>
</a>
</g>
</g>
<!-- Node8&#45;&gt;Node9 -->
<g id="edge8" class="edge">
<title>Node8&#45;&gt;Node9</title>
<path fill="none" stroke="midnightblue" d="M858.34,-710C874.82,-710 893.19,-710 910.67,-710"/>
<polygon fill="midnightblue" stroke="midnightblue" points="910.84,-713.5 920.84,-710 910.84,-706.5 910.84,-713.5"/>
</g>
<!-- Node11&#45;&gt;Node4 -->
<g id="edge11" class="edge">
<title>Node11&#45;&gt;Node4</title>
<path fill="none" stroke="midnightblue" d="M416.97,-375.25C429.7,-409.06 464.16,-491.44 515,-544 526.89,-556.29 542.34,-566.77 556.74,-574.98"/>
<polygon fill="midnightblue" stroke="midnightblue" points="555.08,-578.06 565.53,-579.79 558.44,-571.92 555.08,-578.06"/>
</g>
<!-- Node12 -->
<g id="node12" class="node">
<title>Node12</title>
<g id="a_node12"><a xlink:href="../../d3/d03/classAutocompleteResult.html#a41fc37ec73816fce3ea244e3401aac5b" target="_top" xlink:title=" ">
<polygon fill="white" stroke="black" points="750.5,-323 750.5,-353 855.5,-353 855.5,-323 750.5,-323"/>
<text text-anchor="start" x="758.5" y="-341" font-family="Helvetica,sans-Serif" font-size="10.00">AutocompleteResult</text>
<text text-anchor="middle" x="803" y="-330" font-family="Helvetica,sans-Serif" font-size="10.00">::default_match</text>
</a>
</g>
</g>
<!-- Node11&#45;&gt;Node12 -->
<g id="edge12" class="edge">
<title>Node11&#45;&gt;Node12</title>
<path fill="none" stroke="midnightblue" d="M479.07,-356.19C552.52,-352.06 668.89,-345.5 740.05,-341.49"/>
<polygon fill="midnightblue" stroke="midnightblue" points="740.42,-344.97 750.21,-340.92 740.03,-337.99 740.42,-344.97"/>
</g>
<!-- Node11&#45;&gt;Node15 -->
<g id="edge15" class="edge">
<title>Node11&#45;&gt;Node15</title>
<path fill="none" stroke="midnightblue" d="M416.5,-375.03C430.2,-415.53 470.24,-529.94 515,-620 535.86,-661.97 565.04,-708.03 582.95,-735.19"/>
<polygon fill="midnightblue" stroke="midnightblue" points="580.11,-737.24 588.56,-743.63 585.94,-733.37 580.11,-737.24"/>
</g>
<!-- Node18 -->
<g id="node18" class="node">
<title>Node18</title>
<g id="a_node18"><a xlink:href="../../d0/d22/classOmniboxEditModel.html#afca096faf219ac7be1bf9251466648a7" target="_top" xlink:title=" ">
<polygon fill="white" stroke="black" points="728.5,-274 728.5,-304 877.5,-304 877.5,-274 728.5,-274"/>
<text text-anchor="start" x="736.5" y="-292" font-family="Helvetica,sans-Serif" font-size="10.00">OmniboxEditModel::GetPopup</text>
<text text-anchor="middle" x="803" y="-281" font-family="Helvetica,sans-Serif" font-size="10.00">Selection</text>
</a>
</g>
</g>
<!-- Node11&#45;&gt;Node18 -->
<g id="edge19" class="edge">
<title>Node11&#45;&gt;Node18</title>
<path fill="none" stroke="midnightblue" d="M479.07,-347.71C545.48,-335.64 646.96,-317.19 718.41,-304.2"/>
<polygon fill="midnightblue" stroke="midnightblue" points="719.07,-307.64 728.28,-302.4 717.82,-300.75 719.07,-307.64"/>
</g>
<!-- Node19 -->
<g id="node19" class="node">
<title>Node19</title>
<g id="a_node19"><a xlink:href="../../d9/d1e/classOmniboxView.html#a3dff0d042c74b0e8cb080e6bac15c8f9" target="_top" xlink:title=" ">
<polygon fill="white" stroke="black" points="541,-202.5 541,-221.5 659,-221.5 659,-202.5 541,-202.5"/>
<text text-anchor="middle" x="600" y="-209.5" font-family="Helvetica,sans-Serif" font-size="10.00">OmniboxView::GetText</text>
</a>
</g>
</g>
<!-- Node11&#45;&gt;Node19 -->
<g id="edge20" class="edge">
<title>Node11&#45;&gt;Node19</title>
<path fill="none" stroke="midnightblue" d="M419.13,-344.89C433.77,-317.57 468.49,-260.06 515,-231 520.04,-227.85 525.53,-225.22 531.22,-223.03"/>
<polygon fill="midnightblue" stroke="midnightblue" points="532.59,-226.26 540.94,-219.73 530.34,-219.63 532.59,-226.26"/>
</g>
<!-- Node11&#45;&gt;Node20 -->
<g id="edge21" class="edge">
<title>Node11&#45;&gt;Node20</title>
<path fill="none" stroke="midnightblue" d="M413.52,-344.82C419.84,-303.99 443.32,-191.61 515,-143 580.08,-98.86 673.7,-101.84 736.12,-110.67"/>
<polygon fill="midnightblue" stroke="midnightblue" points="735.83,-114.16 746.24,-112.19 736.87,-107.24 735.83,-114.16"/>
</g>
<!-- Node21 -->
<g id="node21" class="node">
<title>Node21</title>
<g id="a_node21"><a xlink:href="../../d0/d22/classOmniboxEditModel.html#ab6b5c2d1d04d4b9c28287fecb627761c" target="_top" xlink:title=" ">
<polygon fill="white" stroke="black" points="529.5,-367 529.5,-397 670.5,-397 670.5,-367 529.5,-367"/>
<text text-anchor="start" x="537.5" y="-385" font-family="Helvetica,sans-Serif" font-size="10.00">OmniboxEditModel::IsPopup</text>
<text text-anchor="middle" x="600" y="-374" font-family="Helvetica,sans-Serif" font-size="10.00">SelectionOnInitialLine</text>
</a>
</g>
</g>
<!-- Node11&#45;&gt;Node21 -->
<g id="edge22" class="edge">
<title>Node11&#45;&gt;Node21</title>
<path fill="none" stroke="midnightblue" d="M479.19,-367.94C492.15,-369.46 505.83,-371.07 519.12,-372.63"/>
<polygon fill="midnightblue" stroke="midnightblue" points="518.86,-376.12 529.2,-373.81 519.67,-369.17 518.86,-376.12"/>
</g>
<!-- Node22 -->
<g id="node22" class="node">
<title>Node22</title>
<g id="a_node22"><a xlink:href="../../d0/d22/classOmniboxEditModel.html#ad945a332660c6122dc25b93c1eee76d8" target="_top" xlink:title=" ">
<polygon fill="white" stroke="black" points="738.5,-372.5 738.5,-391.5 867.5,-391.5 867.5,-372.5 738.5,-372.5"/>
<text text-anchor="middle" x="803" y="-379.5" font-family="Helvetica,sans-Serif" font-size="10.00">OmniboxEditModel::result</text>
</a>
</g>
</g>
<!-- Node11&#45;&gt;Node22 -->
<g id="edge34" class="edge">
<title>Node11&#45;&gt;Node22</title>
<path fill="none" stroke="midnightblue" d="M437.27,-375.11C457.61,-386.11 487.11,-400.08 515,-406 588.91,-421.68 609.83,-413.63 685,-406 708.42,-403.62 734.07,-398.63 755.38,-393.82"/>
<polygon fill="midnightblue" stroke="midnightblue" points="756.2,-397.22 765.15,-391.55 754.62,-390.4 756.2,-397.22"/>
</g>
<!-- Node23 -->
<g id="node23" class="node">
<title>Node23</title>
<g id="a_node23"><a xlink:href="../../d3/d03/classAutocompleteResult.html#a1532251921e2112a24e3a52ec7ee4535" target="_top" xlink:title=" ">
<polygon fill="white" stroke="black" points="547.5,-153 547.5,-183 652.5,-183 652.5,-153 547.5,-153"/>
<text text-anchor="start" x="555.5" y="-171" font-family="Helvetica,sans-Serif" font-size="10.00">AutocompleteResult</text>
<text text-anchor="middle" x="600" y="-160" font-family="Helvetica,sans-Serif" font-size="10.00">::match_at</text>
</a>
</g>
</g>
<!-- Node11&#45;&gt;Node23 -->
<g id="edge26" class="edge">
<title>Node11&#45;&gt;Node23</title>
<path fill="none" stroke="midnightblue" d="M416.59,-344.98C428.44,-312.27 461.07,-234.22 515,-193 521.78,-187.82 529.61,-183.71 537.72,-180.45"/>
<polygon fill="midnightblue" stroke="midnightblue" points="539.09,-183.68 547.32,-177 536.72,-177.09 539.09,-183.68"/>
</g>
<!-- Node24 -->
<g id="node24" class="node">
<title>Node24</title>
<g id="a_node24"><a xlink:href="../../d0/d22/classOmniboxEditModel.html#a1599022fe3ededfff77ed2dc41ceb73a" target="_top" xlink:title=" ">
<polygon fill="white" stroke="black" points="515,-241 515,-271 685,-271 685,-241 515,-241"/>
<text text-anchor="start" x="523" y="-259" font-family="Helvetica,sans-Serif" font-size="10.00">OmniboxEditModel::MaybePrepend</text>
<text text-anchor="middle" x="600" y="-248" font-family="Helvetica,sans-Serif" font-size="10.00">Keyword</text>
</a>
</g>
</g>
<!-- Node11&#45;&gt;Node24 -->
<g id="edge27" class="edge">
<title>Node11&#45;&gt;Node24</title>
<path fill="none" stroke="midnightblue" d="M429.19,-345C449.04,-328.75 482.7,-302.89 515,-286 522.88,-281.88 531.44,-278.1 540,-274.71"/>
<polygon fill="midnightblue" stroke="midnightblue" points="541.5,-277.89 549.61,-271.06 539.02,-271.34 541.5,-277.89"/>
</g>
<!-- Node11&#45;&gt;Node25 -->
<g id="edge29" class="edge">
<title>Node11&#45;&gt;Node25</title>
<path fill="none" stroke="midnightblue" d="M414.77,-344.75C424.25,-303.34 454.95,-186.78 515,-110 530.4,-90.3 553.6,-73.83 571.72,-62.83"/>
<polygon fill="midnightblue" stroke="midnightblue" points="573.8,-65.66 580.66,-57.58 570.26,-59.62 573.8,-65.66"/>
</g>
<!-- Node27 -->
<g id="node27" class="node">
<title>Node27</title>
<g id="a_node27"><a xlink:href="../../d0/d22/classOmniboxEditModel.html#a34c6312cf87698170164370251851aea" target="_top" xlink:title=" ">
<polygon fill="white" stroke="black" points="535.5,-504 535.5,-534 664.5,-534 664.5,-504 535.5,-504"/>
<text text-anchor="start" x="543.5" y="-522" font-family="Helvetica,sans-Serif" font-size="10.00">OmniboxEditModel::query</text>
<text text-anchor="middle" x="600" y="-511" font-family="Helvetica,sans-Serif" font-size="10.00">_in_progress</text>
</a>
</g>
</g>
<!-- Node11&#45;&gt;Node27 -->
<g id="edge31" class="edge">
<title>Node11&#45;&gt;Node27</title>
<path fill="none" stroke="midnightblue" d="M418.88,-375.11C433.34,-403.11 468.12,-463.1 515,-495 518.46,-497.35 522.14,-499.48 525.97,-501.39"/>
<polygon fill="midnightblue" stroke="midnightblue" points="524.55,-504.59 535.11,-505.5 527.42,-498.21 524.55,-504.59"/>
</g>
<!-- Node30 -->
<g id="node30" class="node">
<title>Node30</title>
<g id="a_node30"><a xlink:href="../../d0/d22/classOmniboxEditModel.html#aa6151d568130ae55c72d762fb62bd87c" target="_top" xlink:title=" ">
<polygon fill="white" stroke="black" points="538,-455 538,-485 662,-485 662,-455 538,-455"/>
<text text-anchor="start" x="546" y="-473" font-family="Helvetica,sans-Serif" font-size="10.00">OmniboxEditModel::user</text>
<text text-anchor="middle" x="600" y="-462" font-family="Helvetica,sans-Serif" font-size="10.00">_input_in_progress</text>
</a>
</g>
</g>
<!-- Node11&#45;&gt;Node30 -->
<g id="edge35" class="edge">
<title>Node11&#45;&gt;Node30</title>
<path fill="none" stroke="midnightblue" d="M427.57,-375.06C447.01,-392.62 481.33,-421.58 515,-440 522.6,-444.16 530.89,-447.93 539.21,-451.29"/>
<polygon fill="midnightblue" stroke="midnightblue" points="537.98,-454.57 548.57,-454.9 540.5,-448.04 537.98,-454.57"/>
</g>
<!-- Node13 -->
<g id="node13" class="node">
<title>Node13</title>
<g id="a_node13"><a xlink:href="../../d3/d03/classAutocompleteResult.html#a4246a4276fdd2b4f5560cd45fa527d28" target="_top" xlink:title=" ">
<polygon fill="white" stroke="black" points="932,-345 932,-375 1037,-375 1037,-345 932,-345"/>
<text text-anchor="start" x="940" y="-363" font-family="Helvetica,sans-Serif" font-size="10.00">AutocompleteResult</text>
<text text-anchor="middle" x="984.5" y="-352" font-family="Helvetica,sans-Serif" font-size="10.00">::begin</text>
</a>
</g>
</g>
<!-- Node12&#45;&gt;Node13 -->
<g id="edge13" class="edge">
<title>Node12&#45;&gt;Node13</title>
<path fill="none" stroke="midnightblue" d="M855.92,-344.36C876.48,-346.88 900.28,-349.8 921.71,-352.43"/>
<polygon fill="midnightblue" stroke="midnightblue" points="921.35,-355.91 931.7,-353.65 922.2,-348.96 921.35,-355.91"/>
</g>
<!-- Node14 -->
<g id="node14" class="node">
<title>Node14</title>
<g id="a_node14"><a xlink:href="../../d3/d03/classAutocompleteResult.html#a5545641c5c0d9473bccf85e267f44b58" target="_top" xlink:title=" ">
<polygon fill="white" stroke="black" points="921,-306.5 921,-325.5 1048,-325.5 1048,-306.5 921,-306.5"/>
<text text-anchor="middle" x="984.5" y="-313.5" font-family="Helvetica,sans-Serif" font-size="10.00">AutocompleteResult::end</text>
</a>
</g>
</g>
<!-- Node12&#45;&gt;Node14 -->
<g id="edge14" class="edge">
<title>Node12&#45;&gt;Node14</title>
<path fill="none" stroke="midnightblue" d="M855.92,-331.64C873.04,-329.54 892.41,-327.16 910.8,-324.91"/>
<polygon fill="midnightblue" stroke="midnightblue" points="911.39,-328.36 920.89,-323.67 910.53,-321.42 911.39,-328.36"/>
</g>
<!-- Node15&#45;&gt;Node2 -->
<g id="edge16" class="edge">
<title>Node15&#45;&gt;Node2</title>
<path fill="none" stroke="midnightblue" d="M621.14,-774.26C644.14,-790.98 683.44,-817.5 721,-833 727.19,-835.56 733.79,-837.81 740.46,-839.78"/>
<polygon fill="midnightblue" stroke="midnightblue" points="739.66,-843.19 750.23,-842.48 741.52,-836.45 739.66,-843.19"/>
</g>
<!-- Node15&#45;&gt;Node16 -->
<g id="edge17" class="edge">
<title>Node15&#45;&gt;Node16</title>
<path fill="none" stroke="midnightblue" d="M662.67,-774.03C685.59,-779.62 711.7,-785.99 735.07,-791.68"/>
<polygon fill="midnightblue" stroke="midnightblue" points="734.36,-795.11 744.9,-794.08 736.01,-788.31 734.36,-795.11"/>
</g>
<!-- Node17 -->
<g id="node17" class="node">
<title>Node17</title>
<g id="a_node17"><a xlink:href="../../d1/d62/classLocationBarModel.html#a5fa3590a5fd5c3db742dd05adb55cc8a" target="_top" xlink:title=" ">
<polygon fill="white" stroke="black" points="733.5,-744 733.5,-774 872.5,-774 872.5,-744 733.5,-744"/>
<text text-anchor="start" x="741.5" y="-762" font-family="Helvetica,sans-Serif" font-size="10.00">LocationBarModel::GetPage</text>
<text text-anchor="middle" x="803" y="-751" font-family="Helvetica,sans-Serif" font-size="10.00">Classification</text>
</a>
</g>
</g>
<!-- Node15&#45;&gt;Node17 -->
<g id="edge18" class="edge">
<title>Node15&#45;&gt;Node17</title>
<path fill="none" stroke="midnightblue" d="M671.58,-759C688.16,-759 705.94,-759 722.87,-759"/>
<polygon fill="midnightblue" stroke="midnightblue" points="723.28,-762.5 733.28,-759 723.28,-755.5 723.28,-762.5"/>
</g>
<!-- Node21&#45;&gt;Node12 -->
<g id="edge23" class="edge">
<title>Node21&#45;&gt;Node12</title>
<path fill="none" stroke="midnightblue" d="M669.61,-366.98C692.49,-361.97 717.83,-356.42 740.17,-351.54"/>
<polygon fill="midnightblue" stroke="midnightblue" points="741.18,-354.9 750.2,-349.34 739.68,-348.06 741.18,-354.9"/>
</g>
<!-- Node21&#45;&gt;Node18 -->
<g id="edge24" class="edge">
<title>Node21&#45;&gt;Node18</title>
<path fill="none" stroke="midnightblue" d="M623.62,-366.84C647.14,-351.6 685.44,-328.24 721,-313 725.6,-311.03 730.41,-309.16 735.3,-307.39"/>
<polygon fill="midnightblue" stroke="midnightblue" points="736.44,-310.7 744.76,-304.13 734.16,-304.08 736.44,-310.7"/>
</g>
<!-- Node21&#45;&gt;Node22 -->
<g id="edge25" class="edge">
<title>Node21&#45;&gt;Node22</title>
<path fill="none" stroke="midnightblue" d="M670.74,-382C689.38,-382 709.59,-382 728.44,-382"/>
<polygon fill="midnightblue" stroke="midnightblue" points="728.45,-385.5 738.45,-382 728.45,-378.5 728.45,-385.5"/>
</g>
<!-- Node24&#45;&gt;Node20 -->
<g id="edge28" class="edge">
<title>Node24&#45;&gt;Node20</title>
<path fill="none" stroke="midnightblue" d="M663.34,-240.93C670.85,-238.11 678.25,-234.82 685,-231 724.39,-208.71 761.44,-170.92 782.91,-146.73"/>
<polygon fill="midnightblue" stroke="midnightblue" points="785.64,-148.92 789.58,-139.09 780.37,-144.32 785.64,-148.92"/>
</g>
<!-- Node26 -->
<g id="node26" class="node">
<title>Node26</title>
<g id="a_node26"><a xlink:href="../../db/de1/classOmniboxPopupView.html#ab590e106e3a2f53bfa45712f529cf106" target="_top" xlink:title=" ">
<polygon fill="white" stroke="black" points="731.5,-38.5 731.5,-57.5 874.5,-57.5 874.5,-38.5 731.5,-38.5"/>
<text text-anchor="middle" x="803" y="-45.5" font-family="Helvetica,sans-Serif" font-size="10.00">OmniboxPopupView::IsOpen</text>
</a>
</g>
</g>
<!-- Node25&#45;&gt;Node26 -->
<g id="edge30" class="edge">
<title>Node25&#45;&gt;Node26</title>
<path fill="none" stroke="midnightblue" d="M682.18,-48C694.98,-48 708.23,-48 721.04,-48"/>
<polygon fill="midnightblue" stroke="midnightblue" points="721.19,-51.5 731.19,-48 721.19,-44.5 721.19,-51.5"/>
</g>
<!-- Node28 -->
<g id="node28" class="node">
<title>Node28</title>
<g id="a_node28"><a xlink:href="../../d0/d22/classOmniboxEditModel.html#a8c8a925ee670cdc9bd5c0ad8b07fa1a0" target="_top" xlink:title=" ">
<polygon fill="white" stroke="black" points="721,-460 721,-490 885,-490 885,-460 721,-460"/>
<text text-anchor="start" x="729" y="-478" font-family="Helvetica,sans-Serif" font-size="10.00">OmniboxEditModel::autocomplete</text>
<text text-anchor="middle" x="803" y="-467" font-family="Helvetica,sans-Serif" font-size="10.00">_controller</text>
</a>
</g>
</g>
<!-- Node27&#45;&gt;Node28 -->
<g id="edge32" class="edge">
<title>Node27&#45;&gt;Node28</title>
<path fill="none" stroke="midnightblue" d="M664.6,-505.08C683.29,-500.99 703.96,-496.46 723.47,-492.19"/>
<polygon fill="midnightblue" stroke="midnightblue" points="724.23,-495.61 733.25,-490.05 722.73,-488.77 724.23,-495.61"/>
</g>
<!-- Node29 -->
<g id="node29" class="node">
<title>Node29</title>
<g id="a_node29"><a xlink:href="../../df/d4d/classAutocompleteController.html#a0b6b9a27089bca29c9f9f557955d7ecf" target="_top" xlink:title=" ">
<polygon fill="white" stroke="black" points="743.5,-411 743.5,-441 862.5,-441 862.5,-411 743.5,-411"/>
<text text-anchor="start" x="751.5" y="-429" font-family="Helvetica,sans-Serif" font-size="10.00">AutocompleteController</text>
<text text-anchor="middle" x="803" y="-418" font-family="Helvetica,sans-Serif" font-size="10.00">::done</text>
</a>
</g>
</g>
<!-- Node27&#45;&gt;Node29 -->
<g id="edge33" class="edge">
<title>Node27&#45;&gt;Node29</title>
<path fill="none" stroke="midnightblue" d="M664.81,-505.38C671.92,-502.54 678.81,-499.12 685,-495 706.32,-480.81 699.75,-464.29 721,-450 725.05,-447.28 729.41,-444.86 733.94,-442.71"/>
<polygon fill="midnightblue" stroke="midnightblue" points="735.59,-445.81 743.41,-438.66 732.84,-439.37 735.59,-445.81"/>
</g>
</g>
</svg>
        <g id="navigator" transform="translate(0 0)" fill="#404254">
                <rect fill="#f2f5e9" fill-opacity="0.5" stroke="#606060" stroke-width=".5" x="0" y="0" width="60" height="60"/>
                <use id="zoomplus" xlink:href="#zoomPlus" x="17" y="9" onmousedown="handleZoom(evt,'in')"/>
                <use id="zoomminus" xlink:href="#zoomMin" x="42" y="9" onmousedown="handleZoom(evt,'out')"/>
                <use id="reset" xlink:href="#resetDef" x="30" y="36" onmousedown="handleReset()"/>
                <g id="arrowUp" xlink:href="#dirArrow" transform="translate(30 24)" onmousedown="handlePan(0,-1)">
                  <use xlink:href="#rim" fill="#404040">
                        <set attributeName="fill" to="#808080" begin="arrowUp.mouseover" end="arrowUp.mouseout"/>
                  </use>
                  <path fill="none" stroke="white" stroke-width="1.5" d="M0,-3.0v7 M-2.5,-0.5L0,-3.0L2.5,-0.5"/>
                </g>
                <g id="arrowRight" xlink:href="#dirArrow" transform="rotate(90) translate(36 -43)" onmousedown="handlePan(1,0)">
                  <use xlink:href="#rim" fill="#404040">
                        <set attributeName="fill" to="#808080" begin="arrowRight.mouseover" end="arrowRight.mouseout"/>
                  </use>
                  <path fill="none" stroke="white" stroke-width="1.5" d="M0,-3.0v7 M-2.5,-0.5L0,-3.0L2.5,-0.5"/>
                </g>
                <g id="arrowDown" xlink:href="#dirArrow" transform="rotate(180) translate(-30 -48)" onmousedown="handlePan(0,1)">
                  <use xlink:href="#rim" fill="#404040">
                        <set attributeName="fill" to="#808080" begin="arrowDown.mouseover" end="arrowDown.mouseout"/>
                  </use>
                  <path fill="none" stroke="white" stroke-width="1.5" d="M0,-3.0v7 M-2.5,-0.5L0,-3.0L2.5,-0.5"/>
                </g>
                <g id="arrowLeft" xlink:href="#dirArrow" transform="rotate(270) translate(-36 17)" onmousedown="handlePan(-1,0)">
                  <use xlink:href="#rim" fill="#404040">
                        <set attributeName="fill" to="#808080" begin="arrowLeft.mouseover" end="arrowLeft.mouseout"/>
                  </use>
                  <path fill="none" stroke="white" stroke-width="1.5" d="M0,-3.0v7 M-2.5,-0.5L0,-3.0L2.5,-0.5"/>
                </g>
        </g>
        <svg viewBox="0 0 15 15" width="100%" height="30px" preserveAspectRatio="xMaxYMin meet">
         <g id="arrow_out" transform="scale(0.3 0.3)">
          <a xlink:href="classOmniboxEditModel_ab45b2ea3b6c02339e39daa03ae72ed83_cgraph_org.svg" target="_base">
           <rect id="button" ry="5" rx="5" y="6" x="6" height="38" width="38"
                fill="#f2f5e9" fill-opacity="0.5" stroke="#606060" stroke-width="1.0"/>
           <path id="arrow"
             d="M 11.500037,31.436501 C 11.940474,20.09759 22.043105,11.32322 32.158766,21.979434 L 37.068811,17.246167 C 37.068811,17.246167 37.088388,32 37.088388,32 L 22.160133,31.978069 C 22.160133,31.978069 26.997745,27.140456 26.997745,27.140456 C 18.528582,18.264221 13.291696,25.230495 11.500037,31.436501 z"
             style="fill:#404040;"/>
          </a>
         </g>
        </svg>
</svg>
