<?xml version="1.0" encoding="UTF-8" standalone="no"?>
<!DOCTYPE svg PUBLIC "-//W3C//DTD SVG 1.1//EN"
 "http://www.w3.org/Graphics/SVG/1.1/DTD/svg11.dtd">
<!-- Generated by graphviz version 2.43.0 (0)
 -->
<!-- Title: OmniboxEditModel::ClearKeyword Pages: 1 -->
<svg width="685pt" height="421pt"
 viewBox="0.00 0.00 685.00 421.00" xmlns="http://www.w3.org/2000/svg" xmlns:xlink="http://www.w3.org/1999/xlink">
<g id="graph0" class="graph" transform="scale(1 1) rotate(0) translate(4 417)">
<title>OmniboxEditModel::ClearKeyword</title>
<polygon fill="white" stroke="transparent" points="-4,4 -4,-417 681,-417 681,4 -4,4"/>
<!-- Node1 -->
<g id="node1" class="node">
<title>Node1</title>
<g id="a_node1"><a xlink:title=" ">
<polygon fill="#bfbfbf" stroke="black" points="0,-226 0,-245 167,-245 167,-226 0,-226"/>
<text text-anchor="middle" x="83.5" y="-233" font-family="Helvetica,sans-Serif" font-size="10.00">OmniboxEditModel::ClearKeyword</text>
</a>
</g>
</g>
<!-- Node2 -->
<g id="node2" class="node">
<title>Node2</title>
<g id="a_node2"><a xlink:href="../../d0/d22/classOmniboxEditModel.html#a8c8a925ee670cdc9bd5c0ad8b07fa1a0" target="_top" xlink:title=" ">
<polygon fill="white" stroke="black" points="203,-382.5 203,-412.5 367,-412.5 367,-382.5 203,-382.5"/>
<text text-anchor="start" x="211" y="-400.5" font-family="Helvetica,sans-Serif" font-size="10.00">OmniboxEditModel::autocomplete</text>
<text text-anchor="middle" x="285" y="-389.5" font-family="Helvetica,sans-Serif" font-size="10.00">_controller</text>
</a>
</g>
</g>
<!-- Node1&#45;&gt;Node2 -->
<g id="edge1" class="edge">
<title>Node1&#45;&gt;Node2</title>
<path fill="none" stroke="midnightblue" d="M90.05,-245.19C104.94,-270.33 148.4,-338.14 203,-373.5 205.56,-375.16 208.25,-376.71 211.01,-378.15"/>
<polygon fill="midnightblue" stroke="midnightblue" points="209.54,-381.33 220.08,-382.42 212.52,-375 209.54,-381.33"/>
</g>
<!-- Node3 -->
<g id="node3" class="node">
<title>Node3</title>
<g id="a_node3"><a xlink:href="../../d0/d22/classOmniboxEditModel.html#afca096faf219ac7be1bf9251466648a7" target="_top" xlink:title=" ">
<polygon fill="white" stroke="black" points="210.5,-333.5 210.5,-363.5 359.5,-363.5 359.5,-333.5 210.5,-333.5"/>
<text text-anchor="start" x="218.5" y="-351.5" font-family="Helvetica,sans-Serif" font-size="10.00">OmniboxEditModel::GetPopup</text>
<text text-anchor="middle" x="285" y="-340.5" font-family="Helvetica,sans-Serif" font-size="10.00">Selection</text>
</a>
</g>
</g>
<!-- Node1&#45;&gt;Node3 -->
<g id="edge2" class="edge">
<title>Node1&#45;&gt;Node3</title>
<path fill="none" stroke="midnightblue" d="M94.79,-245.08C114.4,-262.88 159.11,-301.26 203,-323.5 207.48,-325.77 212.2,-327.88 217.03,-329.83"/>
<polygon fill="midnightblue" stroke="midnightblue" points="215.8,-333.11 226.39,-333.39 218.29,-326.56 215.8,-333.11"/>
</g>
<!-- Node4 -->
<g id="node4" class="node">
<title>Node4</title>
<g id="a_node4"><a xlink:href="../../d9/d1e/classOmniboxView.html#a3dff0d042c74b0e8cb080e6bac15c8f9" target="_top" xlink:title=" ">
<polygon fill="white" stroke="black" points="226,-295 226,-314 344,-314 344,-295 226,-295"/>
<text text-anchor="middle" x="285" y="-302" font-family="Helvetica,sans-Serif" font-size="10.00">OmniboxView::GetText</text>
</a>
</g>
</g>
<!-- Node1&#45;&gt;Node4 -->
<g id="edge3" class="edge">
<title>Node1&#45;&gt;Node4</title>
<path fill="none" stroke="midnightblue" d="M104.24,-245.04C127.44,-255.98 167.33,-273.88 203,-285.5 210.81,-288.04 219.15,-290.4 227.4,-292.51"/>
<polygon fill="midnightblue" stroke="midnightblue" points="226.82,-295.98 237.37,-294.98 228.5,-289.18 226.82,-295.98"/>
</g>
<!-- Node5 -->
<g id="node5" class="node">
<title>Node5</title>
<g id="a_node5"><a xlink:href="../../d0/d22/classOmniboxEditModel.html#a0a13d5acf2a89532b46249c91cecb04b" target="_top" xlink:title=" ">
<polygon fill="white" stroke="black" points="228.5,-245.5 228.5,-275.5 341.5,-275.5 341.5,-245.5 228.5,-245.5"/>
<text text-anchor="start" x="236.5" y="-263.5" font-family="Helvetica,sans-Serif" font-size="10.00">OmniboxEditModel::is</text>
<text text-anchor="middle" x="285" y="-252.5" font-family="Helvetica,sans-Serif" font-size="10.00">_keyword_selected</text>
</a>
</g>
</g>
<!-- Node1&#45;&gt;Node5 -->
<g id="edge4" class="edge">
<title>Node1&#45;&gt;Node5</title>
<path fill="none" stroke="midnightblue" d="M160.49,-245.02C179.54,-247.41 199.81,-249.95 218.31,-252.27"/>
<polygon fill="midnightblue" stroke="midnightblue" points="218.03,-255.76 228.38,-253.53 218.9,-248.81 218.03,-255.76"/>
</g>
<!-- Node6 -->
<g id="node6" class="node">
<title>Node6</title>
<g id="a_node6"><a xlink:href="../../d9/d1e/classOmniboxView.html#a66aaf4ecc9e22a88cce4e614c585a51f" target="_top" xlink:title=" ">
<polygon fill="white" stroke="black" points="207.5,-196.5 207.5,-226.5 362.5,-226.5 362.5,-196.5 207.5,-196.5"/>
<text text-anchor="start" x="215.5" y="-214.5" font-family="Helvetica,sans-Serif" font-size="10.00">OmniboxView::OnAfterPossible</text>
<text text-anchor="middle" x="285" y="-203.5" font-family="Helvetica,sans-Serif" font-size="10.00">Change</text>
</a>
</g>
</g>
<!-- Node1&#45;&gt;Node6 -->
<g id="edge5" class="edge">
<title>Node1&#45;&gt;Node6</title>
<path fill="none" stroke="midnightblue" d="M163.63,-225.98C174.63,-224.66 185.97,-223.29 197.1,-221.95"/>
<polygon fill="midnightblue" stroke="midnightblue" points="197.73,-225.4 207.24,-220.73 196.89,-218.45 197.73,-225.4"/>
</g>
<!-- Node7 -->
<g id="node7" class="node">
<title>Node7</title>
<g id="a_node7"><a xlink:href="../../d9/d1e/classOmniboxView.html#ab5f6e38e0758c7e796df04450f920d7d" target="_top" xlink:title=" ">
<polygon fill="white" stroke="black" points="204,-147.5 204,-177.5 366,-177.5 366,-147.5 204,-147.5"/>
<text text-anchor="start" x="212" y="-165.5" font-family="Helvetica,sans-Serif" font-size="10.00">OmniboxView::OnBeforePossible</text>
<text text-anchor="middle" x="285" y="-154.5" font-family="Helvetica,sans-Serif" font-size="10.00">Change</text>
</a>
</g>
</g>
<!-- Node1&#45;&gt;Node7 -->
<g id="edge6" class="edge">
<title>Node1&#45;&gt;Node7</title>
<path fill="none" stroke="midnightblue" d="M106.56,-225.9C130.19,-215.78 168.92,-199.64 203,-187.5 209.43,-185.21 216.18,-182.93 222.94,-180.73"/>
<polygon fill="midnightblue" stroke="midnightblue" points="224.34,-183.96 232.79,-177.58 222.2,-177.29 224.34,-183.96"/>
</g>
<!-- Node8 -->
<g id="node8" class="node">
<title>Node8</title>
<g id="a_node8"><a xlink:href="../../d9/d1e/classOmniboxView.html#a74d64c2aae7695bc7a537963a7ab2e2f" target="_top" xlink:title=" ">
<polygon fill="white" stroke="black" points="209,-98.5 209,-128.5 361,-128.5 361,-98.5 209,-98.5"/>
<text text-anchor="start" x="217" y="-116.5" font-family="Helvetica,sans-Serif" font-size="10.00">OmniboxView::SetWindowText</text>
<text text-anchor="middle" x="285" y="-105.5" font-family="Helvetica,sans-Serif" font-size="10.00">AndCaretPos</text>
</a>
</g>
</g>
<!-- Node1&#45;&gt;Node8 -->
<g id="edge7" class="edge">
<title>Node1&#45;&gt;Node8</title>
<path fill="none" stroke="midnightblue" d="M93.7,-225.78C112.48,-206.47 157.32,-163.02 203,-138.5 207.16,-136.27 211.54,-134.2 216.04,-132.3"/>
<polygon fill="midnightblue" stroke="midnightblue" points="217.36,-135.54 225.37,-128.61 214.78,-129.03 217.36,-135.54"/>
</g>
<!-- Node9 -->
<g id="node9" class="node">
<title>Node9</title>
<g id="a_node9"><a xlink:href="../../df/d4d/classAutocompleteController.html#a44dbaf07e79aee3dd54aba4672294765" target="_top" xlink:title=" ">
<polygon fill="white" stroke="black" points="225.5,-49.5 225.5,-79.5 344.5,-79.5 344.5,-49.5 225.5,-49.5"/>
<text text-anchor="start" x="233.5" y="-67.5" font-family="Helvetica,sans-Serif" font-size="10.00">AutocompleteController</text>
<text text-anchor="middle" x="285" y="-56.5" font-family="Helvetica,sans-Serif" font-size="10.00">::Stop</text>
</a>
</g>
</g>
<!-- Node1&#45;&gt;Node9 -->
<g id="edge8" class="edge">
<title>Node1&#45;&gt;Node9</title>
<path fill="none" stroke="midnightblue" d="M89.71,-225.66C104.09,-199.44 147.01,-127.33 203,-89.5 207.05,-86.76 211.42,-84.31 215.95,-82.12"/>
<polygon fill="midnightblue" stroke="midnightblue" points="217.67,-85.19 225.44,-77.99 214.87,-78.78 217.67,-85.19"/>
</g>
<!-- Node10 -->
<g id="node10" class="node">
<title>Node10</title>
<g id="a_node10"><a xlink:href="../../df/d4d/classAutocompleteController.html#aaae9d9416ebc5a5611a1c4c3c835abf3" target="_top" xlink:title=" ">
<polygon fill="white" stroke="black" points="403,-49.5 403,-79.5 522,-79.5 522,-49.5 403,-49.5"/>
<text text-anchor="start" x="411" y="-67.5" font-family="Helvetica,sans-Serif" font-size="10.00">AutocompleteController</text>
<text text-anchor="middle" x="462.5" y="-56.5" font-family="Helvetica,sans-Serif" font-size="10.00">::StopHelper</text>
</a>
</g>
</g>
<!-- Node9&#45;&gt;Node10 -->
<g id="edge9" class="edge">
<title>Node9&#45;&gt;Node10</title>
<path fill="none" stroke="midnightblue" d="M344.93,-64.5C360.2,-64.5 376.79,-64.5 392.53,-64.5"/>
<polygon fill="midnightblue" stroke="midnightblue" points="392.73,-68 402.73,-64.5 392.73,-61 392.73,-68"/>
</g>
<!-- Node11 -->
<g id="node11" class="node">
<title>Node11</title>
<g id="a_node11"><a xlink:href="../../d3/d03/classAutocompleteResult.html#a12916726799e192d22b31b3735b9e977" target="_top" xlink:title=" ">
<polygon fill="white" stroke="black" points="565,-98.5 565,-128.5 670,-128.5 670,-98.5 565,-98.5"/>
<text text-anchor="start" x="573" y="-116.5" font-family="Helvetica,sans-Serif" font-size="10.00">AutocompleteResult</text>
<text text-anchor="middle" x="617.5" y="-105.5" font-family="Helvetica,sans-Serif" font-size="10.00">::empty</text>
</a>
</g>
</g>
<!-- Node10&#45;&gt;Node11 -->
<g id="edge10" class="edge">
<title>Node10&#45;&gt;Node11</title>
<path fill="none" stroke="midnightblue" d="M510.65,-79.6C526.14,-84.56 543.52,-90.13 559.65,-95.29"/>
<polygon fill="midnightblue" stroke="midnightblue" points="558.91,-98.73 569.5,-98.45 561.05,-92.07 558.91,-98.73"/>
</g>
<!-- Node12 -->
<g id="node12" class="node">
<title>Node12</title>
<g id="a_node12"><a xlink:href="../../df/d4d/classAutocompleteController.html#ac640590adf32dfbe295e4780f826ed47" target="_top" xlink:title=" ">
<polygon fill="white" stroke="black" points="558,-49.5 558,-79.5 677,-79.5 677,-49.5 558,-49.5"/>
<text text-anchor="start" x="566" y="-67.5" font-family="Helvetica,sans-Serif" font-size="10.00">AutocompleteController</text>
<text text-anchor="middle" x="617.5" y="-56.5" font-family="Helvetica,sans-Serif" font-size="10.00">::NotifyChanged</text>
</a>
</g>
</g>
<!-- Node10&#45;&gt;Node12 -->
<g id="edge11" class="edge">
<title>Node10&#45;&gt;Node12</title>
<path fill="none" stroke="midnightblue" d="M522.22,-64.5C530.54,-64.5 539.17,-64.5 547.67,-64.5"/>
<polygon fill="midnightblue" stroke="midnightblue" points="547.94,-68 557.94,-64.5 547.94,-61 547.94,-68"/>
</g>
<!-- Node13 -->
<g id="node13" class="node">
<title>Node13</title>
<g id="a_node13"><a xlink:href="../../d3/d03/classAutocompleteResult.html#a0b6c4e005e5374be82a69ef2bd2d54dc" target="_top" xlink:title=" ">
<polygon fill="white" stroke="black" points="565,-0.5 565,-30.5 670,-30.5 670,-0.5 565,-0.5"/>
<text text-anchor="start" x="573" y="-18.5" font-family="Helvetica,sans-Serif" font-size="10.00">AutocompleteResult</text>
<text text-anchor="middle" x="617.5" y="-7.5" font-family="Helvetica,sans-Serif" font-size="10.00">::Reset</text>
</a>
</g>
</g>
<!-- Node10&#45;&gt;Node13 -->
<g id="edge12" class="edge">
<title>Node10&#45;&gt;Node13</title>
<path fill="none" stroke="midnightblue" d="M510.65,-49.4C526.14,-44.44 543.52,-38.87 559.65,-33.71"/>
<polygon fill="midnightblue" stroke="midnightblue" points="561.05,-36.93 569.5,-30.55 558.91,-30.27 561.05,-36.93"/>
</g>
</g>
</svg>
