<?xml version="1.0" encoding="UTF-8" standalone="no"?>
<!DOCTYPE svg PUBLIC "-//W3C//DTD SVG 1.1//EN"
 "http://www.w3.org/Graphics/SVG/1.1/DTD/svg11.dtd">
<!-- Generated by graphviz version 2.43.0 (0)
 -->
<!-- Title: OmniboxEditModel::GetPrefService Pages: 1 -->
<svg width="347pt" height="149pt"
 viewBox="0.00 0.00 347.00 149.00" xmlns="http://www.w3.org/2000/svg" xmlns:xlink="http://www.w3.org/1999/xlink">
<g id="graph0" class="graph" transform="scale(1 1) rotate(0) translate(4 145)">
<title>OmniboxEditModel::GetPrefService</title>
<polygon fill="white" stroke="transparent" points="-4,4 -4,-145 343,-145 343,4 -4,4"/>
<!-- Node1 -->
<g id="node1" class="node">
<title>Node1</title>
<g id="a_node1"><a xlink:title=" ">
<polygon fill="#bfbfbf" stroke="black" points="0,-55.5 0,-85.5 139,-85.5 139,-55.5 0,-55.5"/>
<text text-anchor="start" x="8" y="-73.5" font-family="Helvetica,sans-Serif" font-size="10.00">OmniboxEditModel::GetPref</text>
<text text-anchor="middle" x="69.5" y="-62.5" font-family="Helvetica,sans-Serif" font-size="10.00">Service</text>
</a>
</g>
</g>
<!-- Node2 -->
<g id="node2" class="node">
<title>Node2</title>
<g id="a_node2"><a xlink:href="../../d0/d22/classOmniboxEditModel.html#a8c8a925ee670cdc9bd5c0ad8b07fa1a0" target="_top" xlink:title=" ">
<polygon fill="white" stroke="black" points="175,-110.5 175,-140.5 339,-140.5 339,-110.5 175,-110.5"/>
<text text-anchor="start" x="183" y="-128.5" font-family="Helvetica,sans-Serif" font-size="10.00">OmniboxEditModel::autocomplete</text>
<text text-anchor="middle" x="257" y="-117.5" font-family="Helvetica,sans-Serif" font-size="10.00">_controller</text>
</a>
</g>
</g>
<!-- Node1&#45;&gt;Node2 -->
<g id="edge1" class="edge">
<title>Node1&#45;&gt;Node2</title>
<path fill="none" stroke="midnightblue" d="M121.19,-85.53C144.19,-92.35 171.58,-100.47 195.64,-107.6"/>
<polygon fill="midnightblue" stroke="midnightblue" points="194.79,-111 205.37,-110.49 196.78,-104.29 194.79,-111"/>
</g>
<!-- Node3 -->
<g id="node3" class="node">
<title>Node3</title>
<g id="a_node3"><a xlink:href="../../df/d4d/classAutocompleteController.html#a1b73640ab24c9b6e706cdfafacccca52" target="_top" xlink:title=" ">
<polygon fill="white" stroke="black" points="196.5,-50 196.5,-91 317.5,-91 317.5,-50 196.5,-50"/>
<text text-anchor="start" x="204.5" y="-79" font-family="Helvetica,sans-Serif" font-size="10.00">AutocompleteController</text>
<text text-anchor="start" x="204.5" y="-68" font-family="Helvetica,sans-Serif" font-size="10.00">::autocomplete_provider</text>
<text text-anchor="middle" x="257" y="-57" font-family="Helvetica,sans-Serif" font-size="10.00">_client</text>
</a>
</g>
</g>
<!-- Node1&#45;&gt;Node3 -->
<g id="edge2" class="edge">
<title>Node1&#45;&gt;Node3</title>
<path fill="none" stroke="midnightblue" d="M139.05,-70.5C154.45,-70.5 170.82,-70.5 186.28,-70.5"/>
<polygon fill="midnightblue" stroke="midnightblue" points="186.28,-74 196.28,-70.5 186.28,-67 186.28,-74"/>
</g>
<!-- Node4 -->
<g id="node4" class="node">
<title>Node4</title>
<g id="a_node4"><a xlink:href="../../d5/dc7/classAutocompleteProviderClient.html#ac681cf50660fc21360da198bea6f4d8b" target="_top" xlink:title=" ">
<polygon fill="white" stroke="black" points="188,-0.5 188,-30.5 326,-30.5 326,-0.5 188,-0.5"/>
<text text-anchor="start" x="196" y="-18.5" font-family="Helvetica,sans-Serif" font-size="10.00">AutocompleteProviderClient</text>
<text text-anchor="middle" x="257" y="-7.5" font-family="Helvetica,sans-Serif" font-size="10.00">::GetPrefs</text>
</a>
</g>
</g>
<!-- Node1&#45;&gt;Node4 -->
<g id="edge3" class="edge">
<title>Node1&#45;&gt;Node4</title>
<path fill="none" stroke="midnightblue" d="M121.19,-55.47C144.19,-48.65 171.58,-40.53 195.64,-33.4"/>
<polygon fill="midnightblue" stroke="midnightblue" points="196.78,-36.71 205.37,-30.51 194.79,-30 196.78,-36.71"/>
</g>
</g>
</svg>
