<?xml version="1.0" encoding="UTF-8" standalone="no"?>
<!DOCTYPE svg PUBLIC "-//W3C//DTD SVG 1.1//EN"
 "http://www.w3.org/Graphics/SVG/1.1/DTD/svg11.dtd">
<!-- Generated by graphviz version 2.43.0 (0)
 -->
<!-- Title: OmniboxEditModel::has_focus Pages: 1 -->
<svg width="2134pt" height="722pt"
 viewBox="0.00 0.00 2134.00 722.00" xmlns="http://www.w3.org/2000/svg" xmlns:xlink="http://www.w3.org/1999/xlink">
<g id="graph0" class="graph" transform="scale(1 1) rotate(0) translate(4 718)">
<title>OmniboxEditModel::has_focus</title>
<polygon fill="white" stroke="transparent" points="-4,4 -4,-718 2130,-718 2130,4 -4,4"/>
<!-- Node1 -->
<g id="node1" class="node">
<title>Node1</title>
<g id="a_node1"><a xlink:title=" ">
<polygon fill="#bfbfbf" stroke="black" points="2005,-395.5 2005,-425.5 2126,-425.5 2126,-395.5 2005,-395.5"/>
<text text-anchor="start" x="2013" y="-413.5" font-family="Helvetica,sans-Serif" font-size="10.00">OmniboxEditModel::has</text>
<text text-anchor="middle" x="2065.5" y="-402.5" font-family="Helvetica,sans-Serif" font-size="10.00">_focus</text>
</a>
</g>
</g>
<!-- Node2 -->
<g id="node2" class="node">
<title>Node2</title>
<g id="a_node2"><a xlink:href="../../d0/d22/classOmniboxEditModel.html#a5f1c38693b1474acc7db403856b72512" target="_top" xlink:title=" ">
<polygon fill="white" stroke="black" points="1808.5,-467 1808.5,-486 1965.5,-486 1965.5,-467 1808.5,-467"/>
<text text-anchor="middle" x="1887" y="-474" font-family="Helvetica,sans-Serif" font-size="10.00">OmniboxEditModel::OnChanged</text>
</a>
</g>
</g>
<!-- Node1&#45;&gt;Node2 -->
<g id="edge1" class="edge">
<title>Node1&#45;&gt;Node2</title>
<path fill="none" stroke="midnightblue" d="M2014.54,-429.18C1981.63,-441.49 1939.89,-457.09 1913.56,-466.94"/>
<polygon fill="midnightblue" stroke="midnightblue" points="2015.87,-432.42 2024.01,-425.64 2013.41,-425.87 2015.87,-432.42"/>
</g>
<!-- Node42 -->
<g id="node42" class="node">
<title>Node42</title>
<g id="a_node42"><a xlink:href="../../d0/d22/classOmniboxEditModel.html#a16f401285ef4ae6467632912e566fa34" target="_top" xlink:title=" ">
<polygon fill="white" stroke="black" points="1805,-395.5 1805,-425.5 1969,-425.5 1969,-395.5 1805,-395.5"/>
<text text-anchor="start" x="1813" y="-413.5" font-family="Helvetica,sans-Serif" font-size="10.00">OmniboxEditModel::ResetDisplay</text>
<text text-anchor="middle" x="1887" y="-402.5" font-family="Helvetica,sans-Serif" font-size="10.00">Texts</text>
</a>
</g>
</g>
<!-- Node1&#45;&gt;Node42 -->
<g id="edge54" class="edge">
<title>Node1&#45;&gt;Node42</title>
<path fill="none" stroke="midnightblue" d="M1994.7,-410.5C1986.36,-410.5 1977.78,-410.5 1969.29,-410.5"/>
<polygon fill="midnightblue" stroke="midnightblue" points="1994.75,-414 2004.75,-410.5 1994.75,-407 1994.75,-414"/>
</g>
<!-- Node46 -->
<g id="node46" class="node">
<title>Node46</title>
<g id="a_node46"><a xlink:href="../../d0/d22/classOmniboxEditModel.html#a8fd45b4cc033ef4a4c36d313a279ee33" target="_top" xlink:title=" ">
<polygon fill="white" stroke="black" points="1818.5,-346.5 1818.5,-376.5 1955.5,-376.5 1955.5,-346.5 1818.5,-346.5"/>
<text text-anchor="start" x="1826.5" y="-364.5" font-family="Helvetica,sans-Serif" font-size="10.00">OmniboxEditModel::Update</text>
<text text-anchor="middle" x="1887" y="-353.5" font-family="Helvetica,sans-Serif" font-size="10.00">Input</text>
</a>
</g>
</g>
<!-- Node1&#45;&gt;Node46 -->
<g id="edge58" class="edge">
<title>Node1&#45;&gt;Node46</title>
<path fill="none" stroke="midnightblue" d="M2000.31,-392.68C1981.25,-387.39 1960.57,-381.65 1942.22,-376.55"/>
<polygon fill="midnightblue" stroke="midnightblue" points="1999.53,-396.1 2010.1,-395.4 2001.4,-389.35 1999.53,-396.1"/>
</g>
<!-- Node3 -->
<g id="node3" class="node">
<title>Node3</title>
<g id="a_node3"><a xlink:href="../../d0/d22/classOmniboxEditModel.html#a0bb7ed3d2b245eff5af2ae45d6f27a7c" target="_top" xlink:title=" ">
<polygon fill="white" stroke="black" points="1621,-472.5 1621,-502.5 1767,-502.5 1767,-472.5 1621,-472.5"/>
<text text-anchor="start" x="1629" y="-490.5" font-family="Helvetica,sans-Serif" font-size="10.00">OmniboxEditModel::OnPopup</text>
<text text-anchor="middle" x="1694" y="-479.5" font-family="Helvetica,sans-Serif" font-size="10.00">DataChanged</text>
</a>
</g>
</g>
<!-- Node2&#45;&gt;Node3 -->
<g id="edge2" class="edge">
<title>Node2&#45;&gt;Node3</title>
<path fill="none" stroke="midnightblue" d="M1798.01,-481.57C1787.65,-482.16 1777.18,-482.77 1767.07,-483.35"/>
<polygon fill="midnightblue" stroke="midnightblue" points="1798.53,-485.04 1808.31,-480.97 1798.13,-478.05 1798.53,-485.04"/>
</g>
<!-- Node4 -->
<g id="node4" class="node">
<title>Node4</title>
<g id="a_node4"><a xlink:href="../../d0/d22/classOmniboxEditModel.html#a074bf2191bb13b8c34724fe8c865a70a" target="_top" xlink:title=" ">
<polygon fill="white" stroke="black" points="1419,-644.5 1419,-674.5 1569,-674.5 1569,-644.5 1419,-644.5"/>
<text text-anchor="start" x="1427" y="-662.5" font-family="Helvetica,sans-Serif" font-size="10.00">OmniboxEditModel::OnCurrent</text>
<text text-anchor="middle" x="1494" y="-651.5" font-family="Helvetica,sans-Serif" font-size="10.00">MatchChanged</text>
</a>
</g>
</g>
<!-- Node3&#45;&gt;Node4 -->
<g id="edge3" class="edge">
<title>Node3&#45;&gt;Node4</title>
<path fill="none" stroke="midnightblue" d="M1671.59,-510.04C1650,-532.35 1615.34,-567.05 1583,-594.5 1561.57,-612.69 1535.51,-631.57 1517.33,-644.27"/>
<polygon fill="midnightblue" stroke="midnightblue" points="1674.24,-512.33 1678.66,-502.7 1669.2,-507.48 1674.24,-512.33"/>
</g>
<!-- Node5 -->
<g id="node5" class="node">
<title>Node5</title>
<g id="a_node5"><a xlink:href="../../d5/d13/classOmniboxController.html#a8a273db0287d14e6dcb4492d8c3c98fd" target="_top" xlink:title=" ">
<polygon fill="white" stroke="black" points="1232.5,-683.5 1232.5,-713.5 1336.5,-713.5 1336.5,-683.5 1232.5,-683.5"/>
<text text-anchor="start" x="1240.5" y="-701.5" font-family="Helvetica,sans-Serif" font-size="10.00">OmniboxController::</text>
<text text-anchor="middle" x="1284.5" y="-690.5" font-family="Helvetica,sans-Serif" font-size="10.00">OnResultChanged</text>
</a>
</g>
</g>
<!-- Node3&#45;&gt;Node5 -->
<g id="edge5" class="edge">
<title>Node3&#45;&gt;Node5</title>
<path fill="none" stroke="midnightblue" d="M1644.12,-506.38C1584.3,-530.84 1481.52,-577.33 1405,-635.5 1386.22,-649.78 1389.08,-662.12 1369,-674.5 1359.24,-680.52 1347.92,-685.08 1336.82,-688.51"/>
<polygon fill="midnightblue" stroke="midnightblue" points="1645.75,-509.5 1653.7,-502.5 1643.12,-503.01 1645.75,-509.5"/>
</g>
<!-- Node6 -->
<g id="node6" class="node">
<title>Node6</title>
<g id="a_node6"><a xlink:href="../../d0/d22/classOmniboxEditModel.html#a066c5fd08558e0c15211647b034a35a9" target="_top" xlink:title=" ">
<polygon fill="white" stroke="black" points="1420,-450.5 1420,-480.5 1568,-480.5 1568,-450.5 1420,-450.5"/>
<text text-anchor="start" x="1428" y="-468.5" font-family="Helvetica,sans-Serif" font-size="10.00">OmniboxEditModel::SetPopup</text>
<text text-anchor="middle" x="1494" y="-457.5" font-family="Helvetica,sans-Serif" font-size="10.00">Selection</text>
</a>
</g>
</g>
<!-- Node3&#45;&gt;Node6 -->
<g id="edge6" class="edge">
<title>Node3&#45;&gt;Node6</title>
<path fill="none" stroke="midnightblue" d="M1610.8,-478.37C1596.71,-476.8 1582.15,-475.18 1568.32,-473.65"/>
<polygon fill="midnightblue" stroke="midnightblue" points="1610.63,-481.87 1620.96,-479.5 1611.41,-474.91 1610.63,-481.87"/>
</g>
<!-- Node4&#45;&gt;Node5 -->
<g id="edge4" class="edge">
<title>Node4&#45;&gt;Node5</title>
<path fill="none" stroke="midnightblue" d="M1408.96,-675.3C1384.49,-679.89 1358.51,-684.78 1336.73,-688.87"/>
<polygon fill="midnightblue" stroke="midnightblue" points="1409.79,-678.7 1418.97,-673.41 1408.49,-671.82 1409.79,-678.7"/>
</g>
<!-- Node7 -->
<g id="node7" class="node">
<title>Node7</title>
<g id="a_node7"><a xlink:href="../../d0/d22/classOmniboxEditModel.html#a7fe9144afe6dfdee76ea48f698f21b7a" target="_top" xlink:title=" ">
<polygon fill="white" stroke="black" points="1216.5,-494.5 1216.5,-524.5 1352.5,-524.5 1352.5,-494.5 1216.5,-494.5"/>
<text text-anchor="start" x="1224.5" y="-512.5" font-family="Helvetica,sans-Serif" font-size="10.00">OmniboxEditModel::Accept</text>
<text text-anchor="middle" x="1284.5" y="-501.5" font-family="Helvetica,sans-Serif" font-size="10.00">Keyword</text>
</a>
</g>
</g>
<!-- Node6&#45;&gt;Node7 -->
<g id="edge7" class="edge">
<title>Node6&#45;&gt;Node7</title>
<path fill="none" stroke="midnightblue" d="M1412.27,-482.62C1392.5,-486.81 1371.56,-491.25 1352.51,-495.29"/>
<polygon fill="midnightblue" stroke="midnightblue" points="1413.11,-486.02 1422.17,-480.52 1411.66,-479.17 1413.11,-486.02"/>
</g>
<!-- Node8 -->
<g id="node8" class="node">
<title>Node8</title>
<g id="a_node8"><a xlink:href="../../d3/d0a/classOmniboxSuggestionButtonRowView.html#a7914dd2f389c98c28906ce05bacf84e5" target="_top" xlink:title=" ">
<polygon fill="white" stroke="black" points="808,-176.5 808,-206.5 961,-206.5 961,-176.5 808,-176.5"/>
<text text-anchor="start" x="816" y="-194.5" font-family="Helvetica,sans-Serif" font-size="10.00">OmniboxSuggestionButtonRow</text>
<text text-anchor="middle" x="884.5" y="-183.5" font-family="Helvetica,sans-Serif" font-size="10.00">View::ButtonPressed</text>
</a>
</g>
</g>
<!-- Node6&#45;&gt;Node8 -->
<g id="edge26" class="edge">
<title>Node6&#45;&gt;Node8</title>
<path fill="none" stroke="midnightblue" d="M1439.22,-445.79C1426.45,-438.88 1413.95,-429.91 1405,-418.5 1365.08,-367.61 1412.68,-325.2 1369,-277.5 1265.49,-164.48 1068.97,-167.78 961.08,-179.76"/>
<polygon fill="midnightblue" stroke="midnightblue" points="1438.02,-449.1 1448.53,-450.46 1441.16,-442.84 1438.02,-449.1"/>
</g>
<!-- Node21 -->
<g id="node21" class="node">
<title>Node21</title>
<g id="a_node21"><a xlink:href="../../d0/d22/classOmniboxEditModel.html#a83959087bebd9831bc3a3d0661ac85f0" target="_top" xlink:title=" ">
<polygon fill="white" stroke="black" points="1005,-449.5 1005,-479.5 1158,-479.5 1158,-449.5 1005,-449.5"/>
<text text-anchor="start" x="1013" y="-467.5" font-family="Helvetica,sans-Serif" font-size="10.00">OmniboxEditModel::StepPopup</text>
<text text-anchor="middle" x="1081.5" y="-456.5" font-family="Helvetica,sans-Serif" font-size="10.00">Selection</text>
</a>
</g>
</g>
<!-- Node6&#45;&gt;Node21 -->
<g id="edge41" class="edge">
<title>Node6&#45;&gt;Node21</title>
<path fill="none" stroke="midnightblue" d="M1409.43,-465.3C1335.72,-465.12 1229.23,-464.86 1158.03,-464.68"/>
<polygon fill="midnightblue" stroke="midnightblue" points="1409.6,-468.8 1419.61,-465.32 1409.62,-461.8 1409.6,-468.8"/>
</g>
<!-- Node23 -->
<g id="node23" class="node">
<title>Node23</title>
<g id="a_node23"><a xlink:href="../../d5/d13/classOmniboxController.html#a384c7add8676fa22968aa3cc0f90acf8" target="_top" xlink:title=" ">
<polygon fill="white" stroke="black" points="1219.5,-357.5 1219.5,-387.5 1349.5,-387.5 1349.5,-357.5 1219.5,-357.5"/>
<text text-anchor="start" x="1227.5" y="-375.5" font-family="Helvetica,sans-Serif" font-size="10.00">OmniboxController::</text>
<text text-anchor="middle" x="1284.5" y="-364.5" font-family="Helvetica,sans-Serif" font-size="10.00">ClearPopupKeywordMode</text>
</a>
</g>
</g>
<!-- Node6&#45;&gt;Node23 -->
<g id="edge27" class="edge">
<title>Node6&#45;&gt;Node23</title>
<path fill="none" stroke="midnightblue" d="M1455.08,-445.64C1439.49,-437.38 1421.31,-427.61 1405,-418.5 1388.83,-409.47 1385.99,-404.87 1369,-397.5 1360.53,-393.82 1351.36,-390.48 1342.3,-387.52"/>
<polygon fill="midnightblue" stroke="midnightblue" points="1453.44,-448.74 1463.92,-450.32 1456.71,-442.55 1453.44,-448.74"/>
</g>
<!-- Node25 -->
<g id="node25" class="node">
<title>Node25</title>
<g id="a_node25"><a xlink:href="../../d0/d94/classOmniboxViewViews.html#a9fc21bac19f3a666e10eabc84b72c745" target="_top" xlink:title=" ">
<polygon fill="white" stroke="black" points="1208.5,-406.5 1208.5,-436.5 1360.5,-436.5 1360.5,-406.5 1208.5,-406.5"/>
<text text-anchor="start" x="1216.5" y="-424.5" font-family="Helvetica,sans-Serif" font-size="10.00">OmniboxViewViews::OnMouse</text>
<text text-anchor="middle" x="1284.5" y="-413.5" font-family="Helvetica,sans-Serif" font-size="10.00">Pressed</text>
</a>
</g>
</g>
<!-- Node6&#45;&gt;Node25 -->
<g id="edge29" class="edge">
<title>Node6&#45;&gt;Node25</title>
<path fill="none" stroke="midnightblue" d="M1412.33,-448.39C1393.87,-444.48 1374.38,-440.35 1356.36,-436.53"/>
<polygon fill="midnightblue" stroke="midnightblue" points="1411.66,-451.83 1422.17,-450.48 1413.11,-444.98 1411.66,-451.83"/>
</g>
<!-- Node26 -->
<g id="node26" class="node">
<title>Node26</title>
<g id="a_node26"><a xlink:href="../../d0/d22/classOmniboxEditModel.html#a981623c1db1ef3409627b8cc237fe6a6" target="_top" xlink:title=" ">
<polygon fill="white" stroke="black" points="814,-591.5 814,-621.5 955,-621.5 955,-591.5 814,-591.5"/>
<text text-anchor="start" x="822" y="-609.5" font-family="Helvetica,sans-Serif" font-size="10.00">OmniboxEditModel::OnUpOr</text>
<text text-anchor="middle" x="884.5" y="-598.5" font-family="Helvetica,sans-Serif" font-size="10.00">DownKeyPressed</text>
</a>
</g>
</g>
<!-- Node6&#45;&gt;Node26 -->
<g id="edge30" class="edge">
<title>Node6&#45;&gt;Node26</title>
<path fill="none" stroke="midnightblue" d="M1459.26,-486.26C1441.86,-497.95 1421,-513.57 1405,-530.5 1384.93,-551.73 1394.39,-571.05 1369,-585.5 1300.36,-624.56 1071.78,-617.58 955.19,-611.11"/>
<polygon fill="midnightblue" stroke="midnightblue" points="1461.56,-488.94 1467.99,-480.52 1457.71,-483.09 1461.56,-488.94"/>
</g>
<!-- Node27 -->
<g id="node27" class="node">
<title>Node27</title>
<g id="a_node27"><a xlink:href="../../d0/d22/classOmniboxEditModel.html#aa9d90c515bb4fbd3dc1c12f5ffece74a" target="_top" xlink:title=" ">
<polygon fill="white" stroke="black" points="1205,-545.5 1205,-575.5 1364,-575.5 1364,-545.5 1205,-545.5"/>
<text text-anchor="start" x="1213" y="-563.5" font-family="Helvetica,sans-Serif" font-size="10.00">OmniboxEditModel::ResetPopup</text>
<text text-anchor="middle" x="1284.5" y="-552.5" font-family="Helvetica,sans-Serif" font-size="10.00">ToInitialState</text>
</a>
</g>
</g>
<!-- Node6&#45;&gt;Node27 -->
<g id="edge32" class="edge">
<title>Node6&#45;&gt;Node27</title>
<path fill="none" stroke="midnightblue" d="M1460.52,-486.01C1436.03,-500.86 1401.27,-520.67 1369,-534.5 1359.65,-538.51 1349.47,-542.2 1339.55,-545.46"/>
<polygon fill="midnightblue" stroke="midnightblue" points="1462.35,-488.99 1469.05,-480.78 1458.7,-483.02 1462.35,-488.99"/>
</g>
<!-- Node30 -->
<g id="node30" class="node">
<title>Node30</title>
<g id="a_node30"><a xlink:href="../../d7/d88/classOmniboxPopupContentsView.html#a98a7b1561a882c1894a11c08d007ca66" target="_top" xlink:title=" ">
<polygon fill="white" stroke="black" points="1212,-286.5 1212,-316.5 1357,-316.5 1357,-286.5 1212,-286.5"/>
<text text-anchor="start" x="1220" y="-304.5" font-family="Helvetica,sans-Serif" font-size="10.00">OmniboxPopupContentsView</text>
<text text-anchor="middle" x="1284.5" y="-293.5" font-family="Helvetica,sans-Serif" font-size="10.00">::SetSelectedIndex</text>
</a>
</g>
</g>
<!-- Node6&#45;&gt;Node30 -->
<g id="edge37" class="edge">
<title>Node6&#45;&gt;Node30</title>
<path fill="none" stroke="midnightblue" d="M1443.49,-445.71C1429.86,-438.59 1415.86,-429.53 1405,-418.5 1380.46,-393.57 1393.27,-373.7 1369,-348.5 1356.08,-335.08 1338.48,-324.41 1322.77,-316.64"/>
<polygon fill="midnightblue" stroke="midnightblue" points="1442.31,-449.02 1452.82,-450.32 1445.41,-442.75 1442.31,-449.02"/>
</g>
<!-- Node34 -->
<g id="node34" class="node">
<title>Node34</title>
<g id="a_node34"><a xlink:href="../../d0/d22/classOmniboxEditModel.html#a403c203952e105194bf2746aff5027dc" target="_top" xlink:title=" ">
<polygon fill="white" stroke="black" points="1207,-126.5 1207,-156.5 1362,-156.5 1362,-126.5 1207,-126.5"/>
<text text-anchor="start" x="1215" y="-144.5" font-family="Helvetica,sans-Serif" font-size="10.00">OmniboxEditModel::TryDeleting</text>
<text text-anchor="middle" x="1284.5" y="-133.5" font-family="Helvetica,sans-Serif" font-size="10.00">PopupLine</text>
</a>
</g>
</g>
<!-- Node6&#45;&gt;Node34 -->
<g id="edge42" class="edge">
<title>Node6&#45;&gt;Node34</title>
<path fill="none" stroke="midnightblue" d="M1437.29,-445.8C1424.92,-438.96 1413.09,-430.02 1405,-418.5 1341.22,-327.73 1439.21,-257.39 1369,-171.5 1364.03,-165.42 1357.72,-160.57 1350.81,-156.7"/>
<polygon fill="midnightblue" stroke="midnightblue" points="1435.85,-448.99 1446.35,-450.42 1439.02,-442.76 1435.85,-448.99"/>
</g>
<!-- Node41 -->
<g id="node41" class="node">
<title>Node41</title>
<g id="a_node41"><a xlink:href="../../d7/d88/classOmniboxPopupContentsView.html#afc5e0a376358cc99296ddb63c3fb14c0" target="_top" xlink:title=" ">
<polygon fill="white" stroke="black" points="1212,-634.5 1212,-664.5 1357,-664.5 1357,-634.5 1212,-634.5"/>
<text text-anchor="start" x="1220" y="-652.5" font-family="Helvetica,sans-Serif" font-size="10.00">OmniboxPopupContentsView</text>
<text text-anchor="middle" x="1284.5" y="-641.5" font-family="Helvetica,sans-Serif" font-size="10.00">::UnselectButton</text>
</a>
</g>
</g>
<!-- Node6&#45;&gt;Node41 -->
<g id="edge53" class="edge">
<title>Node6&#45;&gt;Node41</title>
<path fill="none" stroke="midnightblue" d="M1471.86,-488.16C1453.5,-508.21 1426.56,-538.53 1405,-566.5 1387.62,-589.05 1391.5,-602.05 1369,-619.5 1361.21,-625.54 1352.09,-630.44 1342.81,-634.38"/>
<polygon fill="midnightblue" stroke="midnightblue" points="1474.48,-490.48 1478.68,-480.75 1469.33,-485.74 1474.48,-490.48"/>
</g>
<!-- Node7&#45;&gt;Node8 -->
<g id="edge8" class="edge">
<title>Node7&#45;&gt;Node8</title>
<path fill="none" stroke="midnightblue" d="M1253.13,-488.63C1229.7,-473.37 1195.99,-453.2 1164,-440.5 1093.96,-412.7 1058.82,-447.32 999,-401.5 931.39,-349.71 899.19,-245.75 889.12,-206.75"/>
<polygon fill="midnightblue" stroke="midnightblue" points="1251.31,-491.62 1261.59,-494.21 1255.17,-485.78 1251.31,-491.62"/>
</g>
<!-- Node13 -->
<g id="node13" class="node">
<title>Node13</title>
<g id="a_node13"><a xlink:href="../../d0/d22/classOmniboxEditModel.html#a2aa7d96a6df61aa1e05131d1c8009c16" target="_top" xlink:title=" ">
<polygon fill="white" stroke="black" points="999,-498.5 999,-528.5 1164,-528.5 1164,-498.5 999,-498.5"/>
<text text-anchor="start" x="1007" y="-516.5" font-family="Helvetica,sans-Serif" font-size="10.00">OmniboxEditModel::MaybeAccept</text>
<text text-anchor="middle" x="1081.5" y="-505.5" font-family="Helvetica,sans-Serif" font-size="10.00">KeywordBySpace</text>
</a>
</g>
</g>
<!-- Node7&#45;&gt;Node13 -->
<g id="edge13" class="edge">
<title>Node7&#45;&gt;Node13</title>
<path fill="none" stroke="midnightblue" d="M1205.98,-511.04C1192.33,-511.31 1178.08,-511.6 1164.31,-511.87"/>
<polygon fill="midnightblue" stroke="midnightblue" points="1206.36,-514.54 1216.29,-510.84 1206.22,-507.54 1206.36,-514.54"/>
</g>
<!-- Node7&#45;&gt;Node21 -->
<g id="edge22" class="edge">
<title>Node7&#45;&gt;Node21</title>
<path fill="none" stroke="midnightblue" d="M1206.34,-492.23C1187.66,-488.04 1167.83,-483.6 1149.65,-479.53"/>
<polygon fill="midnightblue" stroke="midnightblue" points="1205.77,-495.68 1216.29,-494.45 1207.3,-488.85 1205.77,-495.68"/>
</g>
<!-- Node9 -->
<g id="node9" class="node">
<title>Node9</title>
<g id="a_node9"><a xlink:href="../../d3/d0a/classOmniboxSuggestionButtonRowView.html#a75ca5fb3af853ffc8c5ed29380d2e72a" target="_top" xlink:title=" ">
<polygon fill="white" stroke="black" points="567,-176.5 567,-206.5 770,-206.5 770,-176.5 567,-176.5"/>
<text text-anchor="start" x="575" y="-194.5" font-family="Helvetica,sans-Serif" font-size="10.00">OmniboxSuggestionButtonRow</text>
<text text-anchor="middle" x="668.5" y="-183.5" font-family="Helvetica,sans-Serif" font-size="10.00">View::OmniboxSuggestionButtonRowView</text>
</a>
</g>
</g>
<!-- Node8&#45;&gt;Node9 -->
<g id="edge9" class="edge">
<title>Node8&#45;&gt;Node9</title>
<path fill="none" stroke="midnightblue" d="M797.67,-191.5C788.65,-191.5 779.42,-191.5 770.26,-191.5"/>
<polygon fill="midnightblue" stroke="midnightblue" points="797.75,-195 807.75,-191.5 797.75,-188 797.75,-195"/>
</g>
<!-- Node10 -->
<g id="node10" class="node">
<title>Node10</title>
<g id="a_node10"><a xlink:href="../../d3/d4c/classOmniboxResultView.html#a6768271ee0b1e6baa07eb56bbb74882d" target="_top" xlink:title=" ">
<polygon fill="white" stroke="black" points="394,-49.5 394,-79.5 506,-79.5 506,-49.5 394,-49.5"/>
<text text-anchor="start" x="402" y="-67.5" font-family="Helvetica,sans-Serif" font-size="10.00">OmniboxResultView::</text>
<text text-anchor="middle" x="450" y="-56.5" font-family="Helvetica,sans-Serif" font-size="10.00">OmniboxResultView</text>
</a>
</g>
</g>
<!-- Node9&#45;&gt;Node10 -->
<g id="edge10" class="edge">
<title>Node9&#45;&gt;Node10</title>
<path fill="none" stroke="midnightblue" d="M633.01,-171.27C589.45,-145.72 515.53,-102.36 476.65,-79.55"/>
<polygon fill="midnightblue" stroke="midnightblue" points="631.42,-174.39 641.81,-176.43 634.96,-168.35 631.42,-174.39"/>
</g>
<!-- Node11 -->
<g id="node11" class="node">
<title>Node11</title>
<g id="a_node11"><a xlink:href="../../d7/d88/classOmniboxPopupContentsView.html#aa8f47263f229af6a469c3bf964b81162" target="_top" xlink:title=" ">
<polygon fill="white" stroke="black" points="185,-26.5 185,-56.5 330,-56.5 330,-26.5 185,-26.5"/>
<text text-anchor="start" x="193" y="-44.5" font-family="Helvetica,sans-Serif" font-size="10.00">OmniboxPopupContentsView</text>
<text text-anchor="middle" x="257.5" y="-33.5" font-family="Helvetica,sans-Serif" font-size="10.00">::UpdatePopupAppearance</text>
</a>
</g>
</g>
<!-- Node10&#45;&gt;Node11 -->
<g id="edge11" class="edge">
<title>Node10&#45;&gt;Node11</title>
<path fill="none" stroke="midnightblue" d="M383.9,-56.64C366.59,-54.55 347.8,-52.28 330.16,-50.15"/>
<polygon fill="midnightblue" stroke="midnightblue" points="383.55,-60.12 393.9,-57.85 384.39,-53.17 383.55,-60.12"/>
</g>
<!-- Node12 -->
<g id="node12" class="node">
<title>Node12</title>
<g id="a_node12"><a xlink:href="../../d7/d88/classOmniboxPopupContentsView.html#a0e658101bc19acb66f6e0915fd6c2fe3" target="_top" xlink:title=" ">
<polygon fill="white" stroke="black" points="0.5,-26.5 0.5,-56.5 145.5,-56.5 145.5,-26.5 0.5,-26.5"/>
<text text-anchor="start" x="8.5" y="-44.5" font-family="Helvetica,sans-Serif" font-size="10.00">OmniboxPopupContentsView</text>
<text text-anchor="middle" x="73" y="-33.5" font-family="Helvetica,sans-Serif" font-size="10.00">::OnWidgetBoundsChanged</text>
</a>
</g>
</g>
<!-- Node11&#45;&gt;Node12 -->
<g id="edge12" class="edge">
<title>Node11&#45;&gt;Node12</title>
<path fill="none" stroke="midnightblue" d="M174.84,-41.5C165.12,-41.5 155.26,-41.5 145.7,-41.5"/>
<polygon fill="midnightblue" stroke="midnightblue" points="174.9,-45 184.89,-41.5 174.89,-38 174.9,-45"/>
</g>
<!-- Node14 -->
<g id="node14" class="node">
<title>Node14</title>
<g id="a_node14"><a xlink:href="../../d0/d22/classOmniboxEditModel.html#ada57fd155509f60afd9228e3a07e9b47" target="_top" xlink:title=" ">
<polygon fill="white" stroke="black" points="815,-495.5 815,-525.5 954,-525.5 954,-495.5 815,-495.5"/>
<text text-anchor="start" x="823" y="-513.5" font-family="Helvetica,sans-Serif" font-size="10.00">OmniboxEditModel::OnAfter</text>
<text text-anchor="middle" x="884.5" y="-502.5" font-family="Helvetica,sans-Serif" font-size="10.00">PossibleChange</text>
</a>
</g>
</g>
<!-- Node13&#45;&gt;Node14 -->
<g id="edge14" class="edge">
<title>Node13&#45;&gt;Node14</title>
<path fill="none" stroke="midnightblue" d="M988.73,-512.09C977.06,-511.91 965.29,-511.73 954.07,-511.55"/>
<polygon fill="midnightblue" stroke="midnightblue" points="988.88,-515.59 998.93,-512.25 988.99,-508.59 988.88,-515.59"/>
</g>
<!-- Node15 -->
<g id="node15" class="node">
<title>Node15</title>
<g id="a_node15"><a xlink:href="../../d0/d94/classOmniboxViewViews.html#a18cba16b87566313a94b57d0e4a7ce12" target="_top" xlink:title=" ">
<polygon fill="white" stroke="black" points="596.5,-601.5 596.5,-631.5 740.5,-631.5 740.5,-601.5 596.5,-601.5"/>
<text text-anchor="start" x="604.5" y="-619.5" font-family="Helvetica,sans-Serif" font-size="10.00">OmniboxViewViews::OnAfter</text>
<text text-anchor="middle" x="668.5" y="-608.5" font-family="Helvetica,sans-Serif" font-size="10.00">PossibleChange</text>
</a>
</g>
</g>
<!-- Node14&#45;&gt;Node15 -->
<g id="edge15" class="edge">
<title>Node14&#45;&gt;Node15</title>
<path fill="none" stroke="midnightblue" d="M843.82,-530.15C802.27,-550.74 737.9,-582.62 700.1,-601.34"/>
<polygon fill="midnightblue" stroke="midnightblue" points="845.43,-533.26 852.84,-525.69 842.32,-526.99 845.43,-533.26"/>
</g>
<!-- Node16 -->
<g id="node16" class="node">
<title>Node16</title>
<g id="a_node16"><a xlink:href="../../d0/d94/classOmniboxViewViews.html#a487a0ced2870997b0f88d8dcab9a4f0e" target="_top" xlink:title=" ">
<polygon fill="white" stroke="black" points="0,-645.5 0,-675.5 146,-675.5 146,-645.5 0,-645.5"/>
<text text-anchor="start" x="8" y="-663.5" font-family="Helvetica,sans-Serif" font-size="10.00">OmniboxViewViews::Execute</text>
<text text-anchor="middle" x="73" y="-652.5" font-family="Helvetica,sans-Serif" font-size="10.00">Command</text>
</a>
</g>
</g>
<!-- Node15&#45;&gt;Node16 -->
<g id="edge16" class="edge">
<title>Node15&#45;&gt;Node16</title>
<path fill="none" stroke="midnightblue" d="M624.49,-635.43C598.09,-646 563.25,-658.1 531,-663.5 396.6,-685.99 236.84,-676.95 146.24,-668.57"/>
<polygon fill="midnightblue" stroke="midnightblue" points="625.89,-638.64 633.82,-631.61 623.24,-632.16 625.89,-638.64"/>
</g>
<!-- Node17 -->
<g id="node17" class="node">
<title>Node17</title>
<g id="a_node17"><a xlink:href="../../d0/d94/classOmniboxViewViews.html#a81d025d1f692c96482925dfbab529691" target="_top" xlink:title=" ">
<polygon fill="white" stroke="black" points="378,-574.5 378,-604.5 522,-604.5 522,-574.5 378,-574.5"/>
<text text-anchor="start" x="386" y="-592.5" font-family="Helvetica,sans-Serif" font-size="10.00">OmniboxViewViews::OnAfter</text>
<text text-anchor="middle" x="450" y="-581.5" font-family="Helvetica,sans-Serif" font-size="10.00">UserAction</text>
</a>
</g>
</g>
<!-- Node15&#45;&gt;Node17 -->
<g id="edge17" class="edge">
<title>Node15&#45;&gt;Node17</title>
<path fill="none" stroke="midnightblue" d="M586.13,-606.35C565.12,-603.73 542.68,-600.93 522.23,-598.38"/>
<polygon fill="midnightblue" stroke="midnightblue" points="585.95,-609.86 596.31,-607.62 586.82,-602.91 585.95,-609.86"/>
</g>
<!-- Node18 -->
<g id="node18" class="node">
<title>Node18</title>
<g id="a_node18"><a xlink:href="../../d0/d94/classOmniboxViewViews.html#af593bb600ecfa2ed731497a260451b47" target="_top" xlink:title=" ">
<polygon fill="white" stroke="black" points="369,-623.5 369,-653.5 531,-653.5 531,-623.5 369,-623.5"/>
<text text-anchor="start" x="377" y="-641.5" font-family="Helvetica,sans-Serif" font-size="10.00">OmniboxViewViews::OnOmnibox</text>
<text text-anchor="middle" x="450" y="-630.5" font-family="Helvetica,sans-Serif" font-size="10.00">Paste</text>
</a>
</g>
</g>
<!-- Node15&#45;&gt;Node18 -->
<g id="edge18" class="edge">
<title>Node15&#45;&gt;Node18</title>
<path fill="none" stroke="midnightblue" d="M586.16,-624.77C568.18,-626.59 549.15,-628.53 531.22,-630.35"/>
<polygon fill="midnightblue" stroke="midnightblue" points="586.72,-628.23 596.31,-623.73 586.01,-621.26 586.72,-628.23"/>
</g>
<!-- Node19 -->
<g id="node19" class="node">
<title>Node19</title>
<g id="a_node19"><a xlink:href="../../d0/d94/classOmniboxViewViews.html#ae3ebda306ffa960bb7a3a1ebe7f7fc76" target="_top" xlink:title=" ">
<polygon fill="white" stroke="black" points="184.5,-623.5 184.5,-653.5 330.5,-653.5 330.5,-623.5 184.5,-623.5"/>
<text text-anchor="start" x="192.5" y="-641.5" font-family="Helvetica,sans-Serif" font-size="10.00">OmniboxViewViews::Execute</text>
<text text-anchor="middle" x="257.5" y="-630.5" font-family="Helvetica,sans-Serif" font-size="10.00">TextEditCommand</text>
</a>
</g>
</g>
<!-- Node18&#45;&gt;Node19 -->
<g id="edge19" class="edge">
<title>Node18&#45;&gt;Node19</title>
<path fill="none" stroke="midnightblue" d="M358.66,-638.5C349.3,-638.5 339.89,-638.5 330.77,-638.5"/>
<polygon fill="midnightblue" stroke="midnightblue" points="358.76,-642 368.76,-638.5 358.76,-635 358.76,-642"/>
</g>
<!-- Node19&#45;&gt;Node16 -->
<g id="edge20" class="edge">
<title>Node19&#45;&gt;Node16</title>
<path fill="none" stroke="midnightblue" d="M174.28,-648.41C164.92,-649.54 155.42,-650.68 146.2,-651.8"/>
<polygon fill="midnightblue" stroke="midnightblue" points="174.86,-651.87 184.37,-647.19 174.02,-644.92 174.86,-651.87"/>
</g>
<!-- Node20 -->
<g id="node20" class="node">
<title>Node20</title>
<g id="a_node20"><a xlink:href="../../d0/d94/classOmniboxViewViews.html#a5a64c1e16631c3301fb57307402784dc" target="_top" xlink:title=" ">
<polygon fill="white" stroke="black" points="2.5,-457.5 2.5,-487.5 143.5,-487.5 143.5,-457.5 2.5,-457.5"/>
<text text-anchor="start" x="10.5" y="-475.5" font-family="Helvetica,sans-Serif" font-size="10.00">OmniboxViewViews::Handle</text>
<text text-anchor="middle" x="73" y="-464.5" font-family="Helvetica,sans-Serif" font-size="10.00">KeyEvent</text>
</a>
</g>
</g>
<!-- Node19&#45;&gt;Node20 -->
<g id="edge21" class="edge">
<title>Node19&#45;&gt;Node20</title>
<path fill="none" stroke="midnightblue" d="M232.5,-616.67C194.9,-582.47 123.04,-517.11 90.61,-487.61"/>
<polygon fill="midnightblue" stroke="midnightblue" points="230.23,-619.34 239.98,-623.48 234.94,-614.16 230.23,-619.34"/>
</g>
<!-- Node21&#45;&gt;Node20 -->
<g id="edge25" class="edge">
<title>Node21&#45;&gt;Node20</title>
<path fill="none" stroke="midnightblue" d="M994.78,-452.6C911.77,-442.11 782.27,-428.5 669.5,-428.5 669.5,-428.5 669.5,-428.5 449,-428.5 330,-428.5 299.72,-431.1 182,-448.5 166.51,-450.79 149.94,-454.05 134.55,-457.44"/>
<polygon fill="midnightblue" stroke="midnightblue" points="994.56,-456.1 1004.92,-453.89 995.45,-449.16 994.56,-456.1"/>
</g>
<!-- Node22 -->
<g id="node22" class="node">
<title>Node22</title>
<g id="a_node22"><a xlink:href="../../d0/d94/classOmniboxViewViews.html#a914ba78328ab785df56d9b0cbdee157e" target="_top" xlink:title=" ">
<polygon fill="white" stroke="black" points="187,-457.5 187,-487.5 328,-487.5 328,-457.5 187,-457.5"/>
<text text-anchor="start" x="195" y="-475.5" font-family="Helvetica,sans-Serif" font-size="10.00">OmniboxViewViews::Handle</text>
<text text-anchor="middle" x="257.5" y="-464.5" font-family="Helvetica,sans-Serif" font-size="10.00">EarlyTabActions</text>
</a>
</g>
</g>
<!-- Node21&#45;&gt;Node22 -->
<g id="edge23" class="edge">
<title>Node21&#45;&gt;Node22</title>
<path fill="none" stroke="midnightblue" d="M994.62,-465.34C831.08,-466.93 477.91,-470.36 328.03,-471.82"/>
<polygon fill="midnightblue" stroke="midnightblue" points="994.68,-468.84 1004.64,-465.24 994.61,-461.84 994.68,-468.84"/>
</g>
<!-- Node22&#45;&gt;Node20 -->
<g id="edge24" class="edge">
<title>Node22&#45;&gt;Node20</title>
<path fill="none" stroke="midnightblue" d="M176.89,-472.5C165.81,-472.5 154.5,-472.5 143.62,-472.5"/>
<polygon fill="midnightblue" stroke="midnightblue" points="176.98,-476 186.98,-472.5 176.98,-469 176.98,-476"/>
</g>
<!-- Node24 -->
<g id="node24" class="node">
<title>Node24</title>
<g id="a_node24"><a xlink:href="../../d5/d13/classOmniboxController.html#a6d83556de328e78b4b531d7edac04852" target="_top" xlink:title=" ">
<polygon fill="white" stroke="black" points="1029.5,-361.5 1029.5,-391.5 1133.5,-391.5 1133.5,-361.5 1029.5,-361.5"/>
<text text-anchor="start" x="1037.5" y="-379.5" font-family="Helvetica,sans-Serif" font-size="10.00">OmniboxController::</text>
<text text-anchor="middle" x="1081.5" y="-368.5" font-family="Helvetica,sans-Serif" font-size="10.00">StartAutocomplete</text>
</a>
</g>
</g>
<!-- Node23&#45;&gt;Node24 -->
<g id="edge28" class="edge">
<title>Node23&#45;&gt;Node24</title>
<path fill="none" stroke="midnightblue" d="M1209.12,-373.98C1184.01,-374.48 1156.56,-375.03 1133.66,-375.48"/>
<polygon fill="midnightblue" stroke="midnightblue" points="1209.42,-377.47 1219.35,-373.78 1209.28,-370.48 1209.42,-377.47"/>
</g>
<!-- Node26&#45;&gt;Node19 -->
<g id="edge31" class="edge">
<title>Node26&#45;&gt;Node19</title>
<path fill="none" stroke="midnightblue" d="M832.47,-624.7C813.13,-630.95 790.77,-637.39 770,-641.5 594.91,-676.17 546.39,-683.32 369,-663.5 350.82,-661.47 331.27,-657.61 313.74,-653.53"/>
<polygon fill="midnightblue" stroke="midnightblue" points="833.58,-628.02 841.99,-621.57 831.4,-621.37 833.58,-628.02"/>
</g>
<!-- Node28 -->
<g id="node28" class="node">
<title>Node28</title>
<g id="a_node28"><a xlink:href="../../d0/d22/classOmniboxEditModel.html#a39926e2bd4726e63bbd5815c50075ad4" target="_top" xlink:title=" ">
<polygon fill="white" stroke="black" points="1014.5,-547.5 1014.5,-577.5 1148.5,-577.5 1148.5,-547.5 1014.5,-547.5"/>
<text text-anchor="start" x="1022.5" y="-565.5" font-family="Helvetica,sans-Serif" font-size="10.00">OmniboxEditModel::Revert</text>
<text text-anchor="middle" x="1081.5" y="-554.5" font-family="Helvetica,sans-Serif" font-size="10.00">TemporaryTextAndPopup</text>
</a>
</g>
</g>
<!-- Node27&#45;&gt;Node28 -->
<g id="edge33" class="edge">
<title>Node27&#45;&gt;Node28</title>
<path fill="none" stroke="midnightblue" d="M1194.81,-561.38C1179.3,-561.54 1163.42,-561.69 1148.66,-561.84"/>
<polygon fill="midnightblue" stroke="midnightblue" points="1194.96,-564.88 1204.92,-561.28 1194.89,-557.88 1194.96,-564.88"/>
</g>
<!-- Node28&#45;&gt;Node26 -->
<g id="edge36" class="edge">
<title>Node28&#45;&gt;Node26</title>
<path fill="none" stroke="midnightblue" d="M1004.44,-579.66C987.17,-583.56 968.96,-587.67 952.11,-591.47"/>
<polygon fill="midnightblue" stroke="midnightblue" points="1005.5,-583.01 1014.48,-577.4 1003.96,-576.18 1005.5,-583.01"/>
</g>
<!-- Node29 -->
<g id="node29" class="node">
<title>Node29</title>
<g id="a_node29"><a xlink:href="../../d0/d22/classOmniboxEditModel.html#a443085668cdebe43104bc5a52047d5db" target="_top" xlink:title=" ">
<polygon fill="white" stroke="black" points="182,-514.5 182,-544.5 333,-544.5 333,-514.5 182,-514.5"/>
<text text-anchor="start" x="190" y="-532.5" font-family="Helvetica,sans-Serif" font-size="10.00">OmniboxEditModel::OnEscape</text>
<text text-anchor="middle" x="257.5" y="-521.5" font-family="Helvetica,sans-Serif" font-size="10.00">KeyPressed</text>
</a>
</g>
</g>
<!-- Node28&#45;&gt;Node29 -->
<g id="edge34" class="edge">
<title>Node28&#45;&gt;Node29</title>
<path fill="none" stroke="midnightblue" d="M1004.22,-559.44C847.05,-553.13 488.87,-538.75 333.13,-532.5"/>
<polygon fill="midnightblue" stroke="midnightblue" points="1004.14,-562.94 1014.28,-559.84 1004.42,-555.94 1004.14,-562.94"/>
</g>
<!-- Node29&#45;&gt;Node20 -->
<g id="edge35" class="edge">
<title>Node29&#45;&gt;Node20</title>
<path fill="none" stroke="midnightblue" d="M198.52,-511.39C173.98,-503.73 145.72,-494.9 122.34,-487.6"/>
<polygon fill="midnightblue" stroke="midnightblue" points="197.48,-514.73 208.07,-514.37 199.57,-508.05 197.48,-514.73"/>
</g>
<!-- Node31 -->
<g id="node31" class="node">
<title>Node31</title>
<g id="a_node31"><a xlink:href="../../d7/d88/classOmniboxPopupContentsView.html#a3d38c79ff5a02bb128a765c54878bc65" target="_top" xlink:title=" ">
<polygon fill="white" stroke="black" points="1009,-312.5 1009,-342.5 1154,-342.5 1154,-312.5 1009,-312.5"/>
<text text-anchor="start" x="1017" y="-330.5" font-family="Helvetica,sans-Serif" font-size="10.00">OmniboxPopupContentsView</text>
<text text-anchor="middle" x="1081.5" y="-319.5" font-family="Helvetica,sans-Serif" font-size="10.00">::OnGestureEvent</text>
</a>
</g>
</g>
<!-- Node30&#45;&gt;Node31 -->
<g id="edge38" class="edge">
<title>Node30&#45;&gt;Node31</title>
<path fill="none" stroke="midnightblue" d="M1201.57,-312.1C1185.87,-314.13 1169.54,-316.24 1154.19,-318.23"/>
<polygon fill="midnightblue" stroke="midnightblue" points="1202.32,-315.53 1211.79,-310.78 1201.42,-308.59 1202.32,-315.53"/>
</g>
<!-- Node32 -->
<g id="node32" class="node">
<title>Node32</title>
<g id="a_node32"><a xlink:href="../../d3/d4c/classOmniboxResultView.html#adfc2b5da2f71c87fa3d391a32bc5ebf9" target="_top" xlink:title=" ">
<polygon fill="white" stroke="black" points="1025.5,-263.5 1025.5,-293.5 1137.5,-293.5 1137.5,-263.5 1025.5,-263.5"/>
<text text-anchor="start" x="1033.5" y="-281.5" font-family="Helvetica,sans-Serif" font-size="10.00">OmniboxResultView::</text>
<text text-anchor="middle" x="1081.5" y="-270.5" font-family="Helvetica,sans-Serif" font-size="10.00">OnMouseDragged</text>
</a>
</g>
</g>
<!-- Node30&#45;&gt;Node32 -->
<g id="edge39" class="edge">
<title>Node30&#45;&gt;Node32</title>
<path fill="none" stroke="midnightblue" d="M1201.68,-292.14C1180.17,-289.68 1157.49,-287.08 1137.75,-284.82"/>
<polygon fill="midnightblue" stroke="midnightblue" points="1201.45,-295.63 1211.79,-293.29 1202.25,-288.68 1201.45,-295.63"/>
</g>
<!-- Node33 -->
<g id="node33" class="node">
<title>Node33</title>
<g id="a_node33"><a xlink:href="../../d3/d4c/classOmniboxResultView.html#a6410100a85444fe2d63e736f77049d7e" target="_top" xlink:title=" ">
<polygon fill="white" stroke="black" points="1025.5,-214.5 1025.5,-244.5 1137.5,-244.5 1137.5,-214.5 1025.5,-214.5"/>
<text text-anchor="start" x="1033.5" y="-232.5" font-family="Helvetica,sans-Serif" font-size="10.00">OmniboxResultView::</text>
<text text-anchor="middle" x="1081.5" y="-221.5" font-family="Helvetica,sans-Serif" font-size="10.00">OnMousePressed</text>
</a>
</g>
</g>
<!-- Node30&#45;&gt;Node33 -->
<g id="edge40" class="edge">
<title>Node30&#45;&gt;Node33</title>
<path fill="none" stroke="midnightblue" d="M1237.94,-282.63C1215.78,-273.69 1188.66,-263.12 1164,-254.5 1154.22,-251.08 1143.69,-247.66 1133.56,-244.5"/>
<polygon fill="midnightblue" stroke="midnightblue" points="1236.84,-285.96 1247.43,-286.47 1239.47,-279.47 1236.84,-285.96"/>
</g>
<!-- Node34&#45;&gt;Node20 -->
<g id="edge43" class="edge">
<title>Node34&#45;&gt;Node20</title>
<path fill="none" stroke="midnightblue" d="M1196.73,-143.56C1116.11,-145.3 992.69,-147.5 885.5,-147.5 885.5,-147.5 885.5,-147.5 449,-147.5 257.31,-147.5 115.55,-393.01 81.74,-457.26"/>
<polygon fill="midnightblue" stroke="midnightblue" points="1196.91,-147.06 1206.83,-143.34 1196.76,-140.06 1196.91,-147.06"/>
</g>
<!-- Node35 -->
<g id="node35" class="node">
<title>Node35</title>
<g id="a_node35"><a xlink:href="../../d0/d22/classOmniboxEditModel.html#aeef542747913fd1ebe0edc5a9714095c" target="_top" xlink:title=" ">
<polygon fill="white" stroke="black" points="1014,-88.5 1014,-118.5 1149,-118.5 1149,-88.5 1014,-88.5"/>
<text text-anchor="start" x="1022" y="-106.5" font-family="Helvetica,sans-Serif" font-size="10.00">OmniboxEditModel::Trigger</text>
<text text-anchor="middle" x="1081.5" y="-95.5" font-family="Helvetica,sans-Serif" font-size="10.00">PopupSelectionAction</text>
</a>
</g>
</g>
<!-- Node34&#45;&gt;Node35 -->
<g id="edge44" class="edge">
<title>Node34&#45;&gt;Node35</title>
<path fill="none" stroke="midnightblue" d="M1197.06,-125.16C1181.08,-122.14 1164.61,-119.02 1149.32,-116.13"/>
<polygon fill="midnightblue" stroke="midnightblue" points="1196.46,-128.61 1206.94,-127.03 1197.76,-121.73 1196.46,-128.61"/>
</g>
<!-- Node35&#45;&gt;Node8 -->
<g id="edge47" class="edge">
<title>Node35&#45;&gt;Node8</title>
<path fill="none" stroke="midnightblue" d="M1037.77,-122.78C1002.03,-138.91 951.76,-161.6 918.91,-176.42"/>
<polygon fill="midnightblue" stroke="midnightblue" points="1039.3,-125.93 1046.98,-118.63 1036.42,-119.55 1039.3,-125.93"/>
</g>
<!-- Node36 -->
<g id="node36" class="node">
<title>Node36</title>
<g id="a_node36"><a xlink:href="../../d3/d4c/classOmniboxResultView.html#adea3835a2f2809073b71b101cfecc957" target="_top" xlink:title=" ">
<polygon fill="white" stroke="black" points="612.5,-49.5 612.5,-79.5 724.5,-79.5 724.5,-49.5 612.5,-49.5"/>
<text text-anchor="start" x="620.5" y="-67.5" font-family="Helvetica,sans-Serif" font-size="10.00">OmniboxResultView::</text>
<text text-anchor="middle" x="668.5" y="-56.5" font-family="Helvetica,sans-Serif" font-size="10.00">ButtonPressed</text>
</a>
</g>
</g>
<!-- Node35&#45;&gt;Node36 -->
<g id="edge45" class="edge">
<title>Node35&#45;&gt;Node36</title>
<path fill="none" stroke="midnightblue" d="M1009.11,-86.38C993.96,-83.29 978.02,-80.44 963,-78.5 880.41,-67.82 783.8,-65.06 724.64,-64.47"/>
<polygon fill="midnightblue" stroke="midnightblue" points="1008.42,-89.81 1018.93,-88.44 1009.86,-82.96 1008.42,-89.81"/>
</g>
<!-- Node37 -->
<g id="node37" class="node">
<title>Node37</title>
<g id="a_node37"><a xlink:href="../../d2/dcb/classOmniboxRowView_1_1HeaderView.html#a441ded0bc83346ff1773063183d470f2" target="_top" xlink:title=" ">
<polygon fill="white" stroke="black" points="806,-0.5 806,-30.5 963,-30.5 963,-0.5 806,-0.5"/>
<text text-anchor="start" x="814" y="-18.5" font-family="Helvetica,sans-Serif" font-size="10.00">OmniboxRowView::HeaderView</text>
<text text-anchor="middle" x="884.5" y="-7.5" font-family="Helvetica,sans-Serif" font-size="10.00">::HeaderToggleButtonPressed</text>
</a>
</g>
</g>
<!-- Node35&#45;&gt;Node37 -->
<g id="edge48" class="edge">
<title>Node35&#45;&gt;Node37</title>
<path fill="none" stroke="midnightblue" d="M1042.85,-83.85C1019.99,-72.18 990.09,-57.4 963,-45.5 951.24,-40.34 938.29,-35.14 926.4,-30.55"/>
<polygon fill="midnightblue" stroke="midnightblue" points="1041.37,-87.02 1051.87,-88.47 1044.57,-80.79 1041.37,-87.02"/>
</g>
<!-- Node40 -->
<g id="node40" class="node">
<title>Node40</title>
<g id="a_node40"><a xlink:href="../../d2/dcb/classOmniboxRowView_1_1HeaderView.html#af9e1207af3e2688cdccfd7b8c1267a3c" target="_top" xlink:title=" ">
<polygon fill="white" stroke="black" points="806,-88.5 806,-118.5 963,-118.5 963,-88.5 806,-88.5"/>
<text text-anchor="start" x="814" y="-106.5" font-family="Helvetica,sans-Serif" font-size="10.00">OmniboxRowView::HeaderView</text>
<text text-anchor="middle" x="884.5" y="-95.5" font-family="Helvetica,sans-Serif" font-size="10.00">::OnMouseReleased</text>
</a>
</g>
</g>
<!-- Node35&#45;&gt;Node40 -->
<g id="edge52" class="edge">
<title>Node35&#45;&gt;Node40</title>
<path fill="none" stroke="midnightblue" d="M1003.84,-103.5C990.48,-103.5 976.57,-103.5 963.19,-103.5"/>
<polygon fill="midnightblue" stroke="midnightblue" points="1003.94,-107 1013.94,-103.5 1003.94,-100 1003.94,-107"/>
</g>
<!-- Node36&#45;&gt;Node10 -->
<g id="edge46" class="edge">
<title>Node36&#45;&gt;Node10</title>
<path fill="none" stroke="midnightblue" d="M602.14,-64.5C571.48,-64.5 535.34,-64.5 506.09,-64.5"/>
<polygon fill="midnightblue" stroke="midnightblue" points="602.31,-68 612.31,-64.5 602.31,-61 602.31,-68"/>
</g>
<!-- Node38 -->
<g id="node38" class="node">
<title>Node38</title>
<g id="a_node38"><a xlink:href="../../d2/dcb/classOmniboxRowView_1_1HeaderView.html#ad1abf8339bf99de0b39a9bb43111ba93" target="_top" xlink:title=" ">
<polygon fill="white" stroke="black" points="590,-0.5 590,-30.5 747,-30.5 747,-0.5 590,-0.5"/>
<text text-anchor="start" x="598" y="-18.5" font-family="Helvetica,sans-Serif" font-size="10.00">OmniboxRowView::HeaderView</text>
<text text-anchor="middle" x="668.5" y="-7.5" font-family="Helvetica,sans-Serif" font-size="10.00">::HeaderView</text>
</a>
</g>
</g>
<!-- Node37&#45;&gt;Node38 -->
<g id="edge49" class="edge">
<title>Node37&#45;&gt;Node38</title>
<path fill="none" stroke="midnightblue" d="M795.51,-15.5C779.48,-15.5 762.86,-15.5 747.16,-15.5"/>
<polygon fill="midnightblue" stroke="midnightblue" points="795.94,-19 805.94,-15.5 795.94,-12 795.94,-19"/>
</g>
<!-- Node39 -->
<g id="node39" class="node">
<title>Node39</title>
<g id="a_node39"><a xlink:href="../../da/da2/classOmniboxRowView.html#a6add650851301372ee9b8a6671cfa28c" target="_top" xlink:title=" ">
<polygon fill="white" stroke="black" points="370,-9 370,-28 530,-28 530,-9 370,-9"/>
<text text-anchor="middle" x="450" y="-16" font-family="Helvetica,sans-Serif" font-size="10.00">OmniboxRowView::ShowHeader</text>
</a>
</g>
</g>
<!-- Node38&#45;&gt;Node39 -->
<g id="edge50" class="edge">
<title>Node38&#45;&gt;Node39</title>
<path fill="none" stroke="midnightblue" d="M579.83,-16.71C563.41,-16.94 546.34,-17.18 530.2,-17.4"/>
<polygon fill="midnightblue" stroke="midnightblue" points="580,-20.21 589.95,-16.57 579.9,-13.21 580,-20.21"/>
</g>
<!-- Node39&#45;&gt;Node11 -->
<g id="edge51" class="edge">
<title>Node39&#45;&gt;Node11</title>
<path fill="none" stroke="midnightblue" d="M360.17,-29.22C350.16,-30.43 340.05,-31.65 330.29,-32.83"/>
<polygon fill="midnightblue" stroke="midnightblue" points="360.63,-32.69 370.14,-28.02 359.79,-25.74 360.63,-32.69"/>
</g>
<!-- Node43 -->
<g id="node43" class="node">
<title>Node43</title>
<g id="a_node43"><a xlink:href="../../d0/d94/classOmniboxViewViews.html#a4edccd8e1879ed11bc458225d98af8d4" target="_top" xlink:title=" ">
<polygon fill="white" stroke="black" points="1619,-434 1619,-453 1769,-453 1769,-434 1619,-434"/>
<text text-anchor="middle" x="1694" y="-441" font-family="Helvetica,sans-Serif" font-size="10.00">OmniboxViewViews::OnFocus</text>
</a>
</g>
</g>
<!-- Node42&#45;&gt;Node43 -->
<g id="edge55" class="edge">
<title>Node42&#45;&gt;Node43</title>
<path fill="none" stroke="midnightblue" d="M1794.97,-426.23C1779.65,-428.88 1764.17,-431.55 1750.12,-433.98"/>
<polygon fill="midnightblue" stroke="midnightblue" points="1795.74,-429.65 1805,-424.49 1794.55,-422.75 1795.74,-429.65"/>
</g>
<!-- Node44 -->
<g id="node44" class="node">
<title>Node44</title>
<g id="a_node44"><a xlink:href="../../d0/d22/classOmniboxEditModel.html#a2bb71ab51adf4ec1d8de8b448f89c440" target="_top" xlink:title=" ">
<polygon fill="white" stroke="black" points="1624,-384.5 1624,-414.5 1764,-414.5 1764,-384.5 1624,-384.5"/>
<text text-anchor="start" x="1632" y="-402.5" font-family="Helvetica,sans-Serif" font-size="10.00">OmniboxEditModel::Restore</text>
<text text-anchor="middle" x="1694" y="-391.5" font-family="Helvetica,sans-Serif" font-size="10.00">State</text>
</a>
</g>
</g>
<!-- Node42&#45;&gt;Node44 -->
<g id="edge56" class="edge">
<title>Node42&#45;&gt;Node44</title>
<path fill="none" stroke="midnightblue" d="M1794.72,-405.24C1784.41,-404.65 1774.03,-404.05 1764.06,-403.48"/>
<polygon fill="midnightblue" stroke="midnightblue" points="1794.81,-408.75 1805,-405.84 1795.22,-401.77 1794.81,-408.75"/>
</g>
<!-- Node45 -->
<g id="node45" class="node">
<title>Node45</title>
<g id="a_node45"><a xlink:href="../../d0/d94/classOmniboxViewViews.html#a29443b7e10de80e21be533d0a9f5df7f" target="_top" xlink:title=" ">
<polygon fill="white" stroke="black" points="1405,-390 1405,-409 1583,-409 1583,-390 1405,-390"/>
<text text-anchor="middle" x="1494" y="-397" font-family="Helvetica,sans-Serif" font-size="10.00">OmniboxViewViews::OnTabChanged</text>
</a>
</g>
</g>
<!-- Node44&#45;&gt;Node45 -->
<g id="edge57" class="edge">
<title>Node44&#45;&gt;Node45</title>
<path fill="none" stroke="midnightblue" d="M1613.44,-399.5C1603.42,-399.5 1593.14,-399.5 1583.01,-399.5"/>
<polygon fill="midnightblue" stroke="midnightblue" points="1613.75,-403 1623.75,-399.5 1613.75,-396 1613.75,-403"/>
</g>
<!-- Node47 -->
<g id="node47" class="node">
<title>Node47</title>
<g id="a_node47"><a xlink:href="../../d0/d94/classOmniboxViewViews.html#aa74a64e459c128dff566e7392751a67f" target="_top" xlink:title=" ">
<polygon fill="white" stroke="black" points="1623,-265.5 1623,-295.5 1765,-295.5 1765,-265.5 1623,-265.5"/>
<text text-anchor="start" x="1631" y="-283.5" font-family="Helvetica,sans-Serif" font-size="10.00">OmniboxViewViews::Update</text>
<text text-anchor="middle" x="1694" y="-272.5" font-family="Helvetica,sans-Serif" font-size="10.00">Popup</text>
</a>
</g>
</g>
<!-- Node46&#45;&gt;Node47 -->
<g id="edge59" class="edge">
<title>Node46&#45;&gt;Node47</title>
<path fill="none" stroke="midnightblue" d="M1840.91,-342.38C1807.21,-328.09 1761.78,-308.82 1730.61,-295.6"/>
<polygon fill="midnightblue" stroke="midnightblue" points="1839.95,-345.77 1850.52,-346.45 1842.68,-339.33 1839.95,-345.77"/>
</g>
<!-- Node48 -->
<g id="node48" class="node">
<title>Node48</title>
<g id="a_node48"><a xlink:href="../../d0/d94/classOmniboxViewViews.html#a2b71803c688c8d3db0ddfe1a6c561208" target="_top" xlink:title=" ">
<polygon fill="white" stroke="black" points="1413.5,-126.5 1413.5,-156.5 1574.5,-156.5 1574.5,-126.5 1413.5,-126.5"/>
<text text-anchor="start" x="1421.5" y="-144.5" font-family="Helvetica,sans-Serif" font-size="10.00">OmniboxViewViews::SetWindow</text>
<text text-anchor="middle" x="1494" y="-133.5" font-family="Helvetica,sans-Serif" font-size="10.00">TextAndCaretPos</text>
</a>
</g>
</g>
<!-- Node47&#45;&gt;Node48 -->
<g id="edge60" class="edge">
<title>Node47&#45;&gt;Node48</title>
<path fill="none" stroke="midnightblue" d="M1663.08,-259.49C1622.77,-231.2 1552.01,-181.52 1516.54,-156.62"/>
<polygon fill="midnightblue" stroke="midnightblue" points="1661.24,-262.48 1671.43,-265.36 1665.26,-256.75 1661.24,-262.48"/>
</g>
<!-- Node49 -->
<g id="node49" class="node">
<title>Node49</title>
<g id="a_node49"><a xlink:href="../../d0/d94/classOmniboxViewViews.html#acce156344df7256bce712db64896eaf6" target="_top" xlink:title=" ">
<polygon fill="white" stroke="black" points="1200,-77.5 1200,-107.5 1369,-107.5 1369,-77.5 1200,-77.5"/>
<text text-anchor="start" x="1208" y="-95.5" font-family="Helvetica,sans-Serif" font-size="10.00">OmniboxViewViews::OnTemporary</text>
<text text-anchor="middle" x="1284.5" y="-84.5" font-family="Helvetica,sans-Serif" font-size="10.00">TextMaybeChanged</text>
</a>
</g>
</g>
<!-- Node48&#45;&gt;Node49 -->
<g id="edge61" class="edge">
<title>Node48&#45;&gt;Node49</title>
<path fill="none" stroke="midnightblue" d="M1419.3,-124.1C1396.35,-118.68 1371.24,-112.75 1349.05,-107.51"/>
<polygon fill="midnightblue" stroke="midnightblue" points="1418.8,-127.57 1429.33,-126.47 1420.41,-120.76 1418.8,-127.57"/>
</g>
</g>
</svg>
