<?xml version="1.0" encoding="UTF-8" standalone="no"?>
<!DOCTYPE svg PUBLIC "-//W3C//DTD SVG 1.1//EN"
 "http://www.w3.org/Graphics/SVG/1.1/DTD/svg11.dtd">
<!-- Generated by graphviz version 2.43.0 (0)
 -->
<!-- Title: OmniboxView::GetState Pages: 1 -->
<svg width="880pt" height="215pt"
 viewBox="0.00 0.00 880.00 215.00" xmlns="http://www.w3.org/2000/svg" xmlns:xlink="http://www.w3.org/1999/xlink">
<g id="graph0" class="graph" transform="scale(1 1) rotate(0) translate(4 211)">
<title>OmniboxView::GetState</title>
<polygon fill="white" stroke="transparent" points="-4,4 -4,-211 876,-211 876,4 -4,4"/>
<!-- Node1 -->
<g id="node1" class="node">
<title>Node1</title>
<g id="a_node1"><a xlink:title=" ">
<polygon fill="#bfbfbf" stroke="black" points="750,-93 750,-112 872,-112 872,-93 750,-93"/>
<text text-anchor="middle" x="811" y="-100" font-family="Helvetica,sans-Serif" font-size="10.00">OmniboxView::GetState</text>
</a>
</g>
</g>
<!-- Node2 -->
<g id="node2" class="node">
<title>Node2</title>
<g id="a_node2"><a xlink:href="../../d0/d94/classOmniboxViewViews.html#a18cba16b87566313a94b57d0e4a7ce12" target="_top" xlink:title=" ">
<polygon fill="white" stroke="black" points="566,-122.5 566,-152.5 710,-152.5 710,-122.5 566,-122.5"/>
<text text-anchor="start" x="574" y="-140.5" font-family="Helvetica,sans-Serif" font-size="10.00">OmniboxViewViews::OnAfter</text>
<text text-anchor="middle" x="638" y="-129.5" font-family="Helvetica,sans-Serif" font-size="10.00">PossibleChange</text>
</a>
</g>
</g>
<!-- Node1&#45;&gt;Node2 -->
<g id="edge1" class="edge">
<title>Node1&#45;&gt;Node2</title>
<path fill="none" stroke="midnightblue" d="M753.4,-114.08C739.53,-116.92 724.52,-120 710.06,-122.95"/>
<polygon fill="midnightblue" stroke="midnightblue" points="754.18,-117.5 763.27,-112.06 752.77,-110.64 754.18,-117.5"/>
</g>
<!-- Node8 -->
<g id="node8" class="node">
<title>Node8</title>
<g id="a_node8"><a xlink:href="../../d0/d94/classOmniboxViewViews.html#abc8d4a0a88a542297015267e29e7cf1e" target="_top" xlink:title=" ">
<polygon fill="white" stroke="black" points="562,-63.5 562,-93.5 714,-93.5 714,-63.5 562,-63.5"/>
<text text-anchor="start" x="570" y="-81.5" font-family="Helvetica,sans-Serif" font-size="10.00">OmniboxViewViews::OnBefore</text>
<text text-anchor="middle" x="638" y="-70.5" font-family="Helvetica,sans-Serif" font-size="10.00">PossibleChange</text>
</a>
</g>
</g>
<!-- Node1&#45;&gt;Node8 -->
<g id="edge8" class="edge">
<title>Node1&#45;&gt;Node8</title>
<path fill="none" stroke="midnightblue" d="M739.56,-92.61C731.14,-91.43 722.51,-90.22 714.03,-89.03"/>
<polygon fill="midnightblue" stroke="midnightblue" points="739.32,-96.11 749.71,-94.04 740.3,-89.18 739.32,-96.11"/>
</g>
<!-- Node3 -->
<g id="node3" class="node">
<title>Node3</title>
<g id="a_node3"><a xlink:href="../../d0/d94/classOmniboxViewViews.html#a487a0ced2870997b0f88d8dcab9a4f0e" target="_top" xlink:title=" ">
<polygon fill="white" stroke="black" points="0,-66.5 0,-96.5 146,-96.5 146,-66.5 0,-66.5"/>
<text text-anchor="start" x="8" y="-84.5" font-family="Helvetica,sans-Serif" font-size="10.00">OmniboxViewViews::Execute</text>
<text text-anchor="middle" x="73" y="-73.5" font-family="Helvetica,sans-Serif" font-size="10.00">Command</text>
</a>
</g>
</g>
<!-- Node2&#45;&gt;Node3 -->
<g id="edge2" class="edge">
<title>Node2&#45;&gt;Node3</title>
<path fill="none" stroke="midnightblue" d="M555.76,-148.45C463.22,-158.07 308.46,-165.44 182,-128.5 164,-123.24 162.95,-114.51 146,-106.5 138.46,-102.94 130.27,-99.62 122.21,-96.63"/>
<polygon fill="midnightblue" stroke="midnightblue" points="556.33,-151.91 565.9,-147.36 555.59,-144.95 556.33,-151.91"/>
</g>
<!-- Node4 -->
<g id="node4" class="node">
<title>Node4</title>
<g id="a_node4"><a xlink:href="../../d0/d94/classOmniboxViewViews.html#a81d025d1f692c96482925dfbab529691" target="_top" xlink:title=" ">
<polygon fill="white" stroke="black" points="373,-176.5 373,-206.5 517,-206.5 517,-176.5 373,-176.5"/>
<text text-anchor="start" x="381" y="-194.5" font-family="Helvetica,sans-Serif" font-size="10.00">OmniboxViewViews::OnAfter</text>
<text text-anchor="middle" x="445" y="-183.5" font-family="Helvetica,sans-Serif" font-size="10.00">UserAction</text>
</a>
</g>
</g>
<!-- Node2&#45;&gt;Node4 -->
<g id="edge3" class="edge">
<title>Node2&#45;&gt;Node4</title>
<path fill="none" stroke="midnightblue" d="M573.99,-155.31C549.8,-162.15 522.44,-169.89 499.25,-176.45"/>
<polygon fill="midnightblue" stroke="midnightblue" points="575.13,-158.63 583.8,-152.54 573.22,-151.89 575.13,-158.63"/>
</g>
<!-- Node5 -->
<g id="node5" class="node">
<title>Node5</title>
<g id="a_node5"><a xlink:href="../../d0/d94/classOmniboxViewViews.html#af593bb600ecfa2ed731497a260451b47" target="_top" xlink:title=" ">
<polygon fill="white" stroke="black" points="364,-88.5 364,-118.5 526,-118.5 526,-88.5 364,-88.5"/>
<text text-anchor="start" x="372" y="-106.5" font-family="Helvetica,sans-Serif" font-size="10.00">OmniboxViewViews::OnOmnibox</text>
<text text-anchor="middle" x="445" y="-95.5" font-family="Helvetica,sans-Serif" font-size="10.00">Paste</text>
</a>
</g>
</g>
<!-- Node2&#45;&gt;Node5 -->
<g id="edge4" class="edge">
<title>Node2&#45;&gt;Node5</title>
<path fill="none" stroke="midnightblue" d="M555.76,-123.04C545.96,-121.29 535.96,-119.51 526.18,-117.77"/>
<polygon fill="midnightblue" stroke="midnightblue" points="555.42,-126.53 565.88,-124.84 556.65,-119.64 555.42,-126.53"/>
</g>
<!-- Node6 -->
<g id="node6" class="node">
<title>Node6</title>
<g id="a_node6"><a xlink:href="../../d0/d94/classOmniboxViewViews.html#ae3ebda306ffa960bb7a3a1ebe7f7fc76" target="_top" xlink:title=" ">
<polygon fill="white" stroke="black" points="182,-88.5 182,-118.5 328,-118.5 328,-88.5 182,-88.5"/>
<text text-anchor="start" x="190" y="-106.5" font-family="Helvetica,sans-Serif" font-size="10.00">OmniboxViewViews::Execute</text>
<text text-anchor="middle" x="255" y="-95.5" font-family="Helvetica,sans-Serif" font-size="10.00">TextEditCommand</text>
</a>
</g>
</g>
<!-- Node5&#45;&gt;Node6 -->
<g id="edge5" class="edge">
<title>Node5&#45;&gt;Node6</title>
<path fill="none" stroke="midnightblue" d="M353.91,-103.5C345.28,-103.5 336.61,-103.5 328.19,-103.5"/>
<polygon fill="midnightblue" stroke="midnightblue" points="354,-107 364,-103.5 354,-100 354,-107"/>
</g>
<!-- Node6&#45;&gt;Node3 -->
<g id="edge6" class="edge">
<title>Node6&#45;&gt;Node3</title>
<path fill="none" stroke="midnightblue" d="M171.84,-93.46C163.28,-92.41 154.63,-91.35 146.19,-90.32"/>
<polygon fill="midnightblue" stroke="midnightblue" points="171.47,-96.94 181.82,-94.68 172.32,-89.99 171.47,-96.94"/>
</g>
<!-- Node7 -->
<g id="node7" class="node">
<title>Node7</title>
<g id="a_node7"><a xlink:href="../../d0/d94/classOmniboxViewViews.html#a5a64c1e16631c3301fb57307402784dc" target="_top" xlink:title=" ">
<polygon fill="white" stroke="black" points="2.5,-115.5 2.5,-145.5 143.5,-145.5 143.5,-115.5 2.5,-115.5"/>
<text text-anchor="start" x="10.5" y="-133.5" font-family="Helvetica,sans-Serif" font-size="10.00">OmniboxViewViews::Handle</text>
<text text-anchor="middle" x="73" y="-122.5" font-family="Helvetica,sans-Serif" font-size="10.00">KeyEvent</text>
</a>
</g>
</g>
<!-- Node6&#45;&gt;Node7 -->
<g id="edge7" class="edge">
<title>Node6&#45;&gt;Node7</title>
<path fill="none" stroke="midnightblue" d="M171.69,-115.85C162.29,-117.26 152.77,-118.68 143.56,-120.07"/>
<polygon fill="midnightblue" stroke="midnightblue" points="172.45,-119.27 181.82,-114.33 171.42,-112.35 172.45,-119.27"/>
</g>
<!-- Node8&#45;&gt;Node3 -->
<g id="edge9" class="edge">
<title>Node8&#45;&gt;Node3</title>
<path fill="none" stroke="midnightblue" d="M551.69,-78.27C460.25,-78.13 310.86,-78.17 182,-79.5 170.37,-79.62 158.04,-79.8 146.03,-80"/>
<polygon fill="midnightblue" stroke="midnightblue" points="551.71,-81.77 561.72,-78.29 551.73,-74.77 551.71,-81.77"/>
</g>
<!-- Node8&#45;&gt;Node5 -->
<g id="edge11" class="edge">
<title>Node8&#45;&gt;Node5</title>
<path fill="none" stroke="midnightblue" d="M551.84,-89.65C543.3,-90.76 534.66,-91.9 526.18,-93.01"/>
<polygon fill="midnightblue" stroke="midnightblue" points="552.32,-93.11 561.79,-88.34 551.42,-86.17 552.32,-93.11"/>
</g>
<!-- Node9 -->
<g id="node9" class="node">
<title>Node9</title>
<g id="a_node9"><a xlink:href="../../d0/d94/classOmniboxViewViews.html#ae77c412dfece0660e86404843b2654ad" target="_top" xlink:title=" ">
<polygon fill="white" stroke="black" points="369,-0.5 369,-30.5 521,-30.5 521,-0.5 369,-0.5"/>
<text text-anchor="start" x="377" y="-18.5" font-family="Helvetica,sans-Serif" font-size="10.00">OmniboxViewViews::OnBefore</text>
<text text-anchor="middle" x="445" y="-7.5" font-family="Helvetica,sans-Serif" font-size="10.00">UserAction</text>
</a>
</g>
</g>
<!-- Node8&#45;&gt;Node9 -->
<g id="edge10" class="edge">
<title>Node8&#45;&gt;Node9</title>
<path fill="none" stroke="midnightblue" d="M581.43,-60.17C552.94,-50.77 518.65,-39.46 491.71,-30.58"/>
<polygon fill="midnightblue" stroke="midnightblue" points="580.66,-63.6 591.25,-63.41 582.85,-56.95 580.66,-63.6"/>
</g>
</g>
</svg>
