<?xml version="1.0" encoding="UTF-8" standalone="no"?>
<!DOCTYPE svg PUBLIC "-//W3C//DTD SVG 1.1//EN"
 "http://www.w3.org/Graphics/SVG/1.1/DTD/svg11.dtd">
<!-- Generated by graphviz version 2.43.0 (0)
 -->
<!-- Title: OmniboxView::SanitizeTextForPaste Pages: 1 -->
<svg width="912pt" height="213pt"
 viewBox="0.00 0.00 912.00 213.12" xmlns="http://www.w3.org/2000/svg" xmlns:xlink="http://www.w3.org/1999/xlink">
<g id="graph0" class="graph" transform="scale(1 1) rotate(0) translate(4 209.12)">
<title>OmniboxView::SanitizeTextForPaste</title>
<polygon fill="white" stroke="transparent" points="-4,4 -4,-209.12 908,-209.12 908,4 -4,4"/>
<!-- Node1 -->
<g id="node1" class="node">
<title>Node1</title>
<g id="a_node1"><a xlink:title=" ">
<polygon fill="#bfbfbf" stroke="black" points="767,-54.5 767,-84.5 904,-84.5 904,-54.5 767,-54.5"/>
<text text-anchor="start" x="775" y="-72.5" font-family="Helvetica,sans-Serif" font-size="10.00">OmniboxView::SanitizeText</text>
<text text-anchor="middle" x="835.5" y="-61.5" font-family="Helvetica,sans-Serif" font-size="10.00">ForPaste</text>
</a>
</g>
</g>
<!-- Node2 -->
<g id="node2" class="node">
<title>Node2</title>
<g id="a_node2"><a xlink:href="../../d1/d5e/clipboard__utils_8cc.html#acfa63ebdd0470fe88413a3273b69e42f" target="_top" xlink:title=" ">
<polygon fill="white" stroke="black" points="601.5,-104 601.5,-123 693.5,-123 693.5,-104 601.5,-104"/>
<text text-anchor="middle" x="647.5" y="-111" font-family="Helvetica,sans-Serif" font-size="10.00">GetClipboardText</text>
</a>
</g>
</g>
<!-- Node1&#45;&gt;Node2 -->
<g id="edge1" class="edge">
<title>Node1&#45;&gt;Node2</title>
<path fill="none" stroke="midnightblue" d="M762.93,-86.89C752.23,-89.46 741.33,-92.06 731,-94.5 717.84,-97.6 703.48,-100.93 690.49,-103.92"/>
<polygon fill="midnightblue" stroke="midnightblue" points="763.78,-90.29 772.68,-84.55 762.14,-83.48 763.78,-90.29"/>
</g>
<!-- Node10 -->
<g id="node10" class="node">
<title>Node10</title>
<g id="a_node10"><a xlink:href="../../d0/d94/classOmniboxViewViews.html#ac8f5aa18d2e4f8669da18cee70b69c85" target="_top" xlink:title=" ">
<polygon fill="white" stroke="black" points="564,-54.5 564,-84.5 731,-84.5 731,-54.5 564,-54.5"/>
<text text-anchor="start" x="572" y="-72.5" font-family="Helvetica,sans-Serif" font-size="10.00">OmniboxViewViews::GetSelection</text>
<text text-anchor="middle" x="647.5" y="-61.5" font-family="Helvetica,sans-Serif" font-size="10.00">ClipboardText</text>
</a>
</g>
</g>
<!-- Node1&#45;&gt;Node10 -->
<g id="edge12" class="edge">
<title>Node1&#45;&gt;Node10</title>
<path fill="none" stroke="midnightblue" d="M756.61,-69.5C748.15,-69.5 739.52,-69.5 731.01,-69.5"/>
<polygon fill="midnightblue" stroke="midnightblue" points="756.82,-73 766.82,-69.5 756.82,-66 756.82,-73"/>
</g>
<!-- Node11 -->
<g id="node11" class="node">
<title>Node11</title>
<g id="a_node11"><a xlink:href="../../da/d83/omnibox__view__fuzzer_8cc.html#a91ce7c16e9840492202299da2b451e60" target="_top" xlink:title=" ">
<polygon fill="white" stroke="black" points="582.5,-16 582.5,-35 712.5,-35 712.5,-16 582.5,-16"/>
<text text-anchor="middle" x="647.5" y="-23" font-family="Helvetica,sans-Serif" font-size="10.00">LLVMFuzzerTestOneInput</text>
</a>
</g>
</g>
<!-- Node1&#45;&gt;Node11 -->
<g id="edge13" class="edge">
<title>Node1&#45;&gt;Node11</title>
<path fill="none" stroke="midnightblue" d="M760.96,-52.1C736.34,-46.28 709.81,-40 688.71,-35.01"/>
<polygon fill="midnightblue" stroke="midnightblue" points="760.47,-55.58 771.01,-54.48 762.08,-48.77 760.47,-55.58"/>
</g>
<!-- Node3 -->
<g id="node3" class="node">
<title>Node3</title>
<g id="a_node3"><a xlink:href="../../d0/d94/classOmniboxViewViews.html#a487a0ced2870997b0f88d8dcab9a4f0e" target="_top" xlink:title=" ">
<polygon fill="white" stroke="black" points="0,-131.5 0,-161.5 146,-161.5 146,-131.5 0,-131.5"/>
<text text-anchor="start" x="8" y="-149.5" font-family="Helvetica,sans-Serif" font-size="10.00">OmniboxViewViews::Execute</text>
<text text-anchor="middle" x="73" y="-138.5" font-family="Helvetica,sans-Serif" font-size="10.00">Command</text>
</a>
</g>
</g>
<!-- Node2&#45;&gt;Node3 -->
<g id="edge2" class="edge">
<title>Node2&#45;&gt;Node3</title>
<path fill="none" stroke="midnightblue" d="M627.9,-129.83C605.84,-148 567.11,-176.29 528,-187.5 383.45,-228.93 203.39,-186.28 120.15,-161.53"/>
<polygon fill="midnightblue" stroke="midnightblue" points="630.38,-132.31 635.77,-123.19 625.87,-126.96 630.38,-132.31"/>
</g>
<!-- Node4 -->
<g id="node4" class="node">
<title>Node4</title>
<g id="a_node4"><a xlink:href="../../d0/d94/classOmniboxViewViews.html#a1aca74603403828d3a9c391b61b2ae0f" target="_top" xlink:title=" ">
<polygon fill="white" stroke="black" points="371.5,-147.5 371.5,-177.5 520.5,-177.5 520.5,-147.5 371.5,-147.5"/>
<text text-anchor="start" x="379.5" y="-165.5" font-family="Helvetica,sans-Serif" font-size="10.00">OmniboxViewViews::GetLabel</text>
<text text-anchor="middle" x="446" y="-154.5" font-family="Helvetica,sans-Serif" font-size="10.00">ForCommandId</text>
</a>
</g>
</g>
<!-- Node2&#45;&gt;Node4 -->
<g id="edge3" class="edge">
<title>Node2&#45;&gt;Node4</title>
<path fill="none" stroke="midnightblue" d="M597.59,-125.51C570.63,-132.14 536.91,-140.42 508.22,-147.46"/>
<polygon fill="midnightblue" stroke="midnightblue" points="598.68,-128.85 607.56,-123.06 597.01,-122.05 598.68,-128.85"/>
</g>
<!-- Node5 -->
<g id="node5" class="node">
<title>Node5</title>
<g id="a_node5"><a xlink:href="../../d0/d94/classOmniboxViewViews.html#a82a27e210a45aaa9b83ce62f84e4ca4d" target="_top" xlink:title=" ">
<polygon fill="white" stroke="black" points="364,-98.5 364,-128.5 528,-128.5 528,-98.5 364,-98.5"/>
<text text-anchor="start" x="372" y="-116.5" font-family="Helvetica,sans-Serif" font-size="10.00">OmniboxViewViews::IsCommand</text>
<text text-anchor="middle" x="446" y="-105.5" font-family="Helvetica,sans-Serif" font-size="10.00">IdEnabled</text>
</a>
</g>
</g>
<!-- Node2&#45;&gt;Node5 -->
<g id="edge4" class="edge">
<title>Node2&#45;&gt;Node5</title>
<path fill="none" stroke="midnightblue" d="M591.03,-113.5C571.57,-113.5 549.28,-113.5 528.15,-113.5"/>
<polygon fill="midnightblue" stroke="midnightblue" points="591.23,-117 601.23,-113.5 591.23,-110 591.23,-117"/>
</g>
<!-- Node6 -->
<g id="node6" class="node">
<title>Node6</title>
<g id="a_node6"><a xlink:href="../../d0/d94/classOmniboxViewViews.html#a2c9c7e60059768c0141bd7c95a9b5a48" target="_top" xlink:title=" ">
<polygon fill="white" stroke="black" points="377.5,-0.5 377.5,-30.5 514.5,-30.5 514.5,-0.5 377.5,-0.5"/>
<text text-anchor="start" x="385.5" y="-18.5" font-family="Helvetica,sans-Serif" font-size="10.00">OmniboxViewViews::IsText</text>
<text text-anchor="middle" x="446" y="-7.5" font-family="Helvetica,sans-Serif" font-size="10.00">EditCommandEnabled</text>
</a>
</g>
</g>
<!-- Node2&#45;&gt;Node6 -->
<g id="edge5" class="edge">
<title>Node2&#45;&gt;Node6</title>
<path fill="none" stroke="midnightblue" d="M591.16,-106.85C581.56,-104.04 572.08,-100.08 564,-94.5 540.27,-78.1 551.12,-57.75 528,-40.5 522.81,-36.63 517.01,-33.35 510.97,-30.57"/>
<polygon fill="midnightblue" stroke="midnightblue" points="590.6,-110.32 601.15,-109.38 592.31,-103.53 590.6,-110.32"/>
</g>
<!-- Node9 -->
<g id="node9" class="node">
<title>Node9</title>
<g id="a_node9"><a xlink:href="../../d0/d94/classOmniboxViewViews.html#af593bb600ecfa2ed731497a260451b47" target="_top" xlink:title=" ">
<polygon fill="white" stroke="black" points="365,-49.5 365,-79.5 527,-79.5 527,-49.5 365,-49.5"/>
<text text-anchor="start" x="373" y="-67.5" font-family="Helvetica,sans-Serif" font-size="10.00">OmniboxViewViews::OnOmnibox</text>
<text text-anchor="middle" x="446" y="-56.5" font-family="Helvetica,sans-Serif" font-size="10.00">Paste</text>
</a>
</g>
</g>
<!-- Node2&#45;&gt;Node9 -->
<g id="edge10" class="edge">
<title>Node2&#45;&gt;Node9</title>
<path fill="none" stroke="midnightblue" d="M594.19,-101.66C584.16,-99.33 573.75,-96.87 564,-94.5 544.54,-89.77 523.32,-84.39 504.36,-79.51"/>
<polygon fill="midnightblue" stroke="midnightblue" points="593.53,-105.1 604.06,-103.94 595.1,-98.28 593.53,-105.1"/>
</g>
<!-- Node7 -->
<g id="node7" class="node">
<title>Node7</title>
<g id="a_node7"><a xlink:href="../../d0/d94/classOmniboxViewViews.html#ae3ebda306ffa960bb7a3a1ebe7f7fc76" target="_top" xlink:title=" ">
<polygon fill="white" stroke="black" points="182,-47.5 182,-77.5 328,-77.5 328,-47.5 182,-47.5"/>
<text text-anchor="start" x="190" y="-65.5" font-family="Helvetica,sans-Serif" font-size="10.00">OmniboxViewViews::Execute</text>
<text text-anchor="middle" x="255" y="-54.5" font-family="Helvetica,sans-Serif" font-size="10.00">TextEditCommand</text>
</a>
</g>
</g>
<!-- Node6&#45;&gt;Node7 -->
<g id="edge6" class="edge">
<title>Node6&#45;&gt;Node7</title>
<path fill="none" stroke="midnightblue" d="M374.79,-32.96C355.61,-37.73 334.98,-42.86 316.4,-47.48"/>
<polygon fill="midnightblue" stroke="midnightblue" points="375.82,-36.31 384.68,-30.5 374.13,-29.52 375.82,-36.31"/>
</g>
<!-- Node8 -->
<g id="node8" class="node">
<title>Node8</title>
<g id="a_node8"><a xlink:href="../../d0/d94/classOmniboxViewViews.html#a5a64c1e16631c3301fb57307402784dc" target="_top" xlink:title=" ">
<polygon fill="white" stroke="black" points="2.5,-24.5 2.5,-54.5 143.5,-54.5 143.5,-24.5 2.5,-24.5"/>
<text text-anchor="start" x="10.5" y="-42.5" font-family="Helvetica,sans-Serif" font-size="10.00">OmniboxViewViews::Handle</text>
<text text-anchor="middle" x="73" y="-31.5" font-family="Helvetica,sans-Serif" font-size="10.00">KeyEvent</text>
</a>
</g>
</g>
<!-- Node6&#45;&gt;Node8 -->
<g id="edge9" class="edge">
<title>Node6&#45;&gt;Node8</title>
<path fill="none" stroke="midnightblue" d="M367.03,-20.54C301.01,-24.81 207.22,-30.88 143.67,-34.99"/>
<polygon fill="midnightblue" stroke="midnightblue" points="367.63,-24.01 377.38,-19.87 367.18,-17.03 367.63,-24.01"/>
</g>
<!-- Node7&#45;&gt;Node3 -->
<g id="edge7" class="edge">
<title>Node7&#45;&gt;Node3</title>
<path fill="none" stroke="midnightblue" d="M212.61,-81.81C180.26,-96.91 135.94,-117.59 106.2,-131.47"/>
<polygon fill="midnightblue" stroke="midnightblue" points="214.24,-84.92 221.82,-77.52 211.28,-78.57 214.24,-84.92"/>
</g>
<!-- Node7&#45;&gt;Node8 -->
<g id="edge8" class="edge">
<title>Node7&#45;&gt;Node8</title>
<path fill="none" stroke="midnightblue" d="M171.69,-51.98C162.29,-50.78 152.77,-49.57 143.56,-48.39"/>
<polygon fill="midnightblue" stroke="midnightblue" points="171.46,-55.48 181.82,-53.28 172.35,-48.54 171.46,-55.48"/>
</g>
<!-- Node9&#45;&gt;Node7 -->
<g id="edge11" class="edge">
<title>Node9&#45;&gt;Node7</title>
<path fill="none" stroke="midnightblue" d="M354.8,-63.55C345.88,-63.45 336.9,-63.36 328.18,-63.26"/>
<polygon fill="midnightblue" stroke="midnightblue" points="354.81,-67.05 364.85,-63.65 354.88,-60.05 354.81,-67.05"/>
</g>
</g>
</svg>
