<?xml version="1.0" encoding="UTF-8" standalone="no"?>
<!DOCTYPE svg PUBLIC "-//W3C//DTD SVG 1.1//EN"
 "http://www.w3.org/Graphics/SVG/1.1/DTD/svg11.dtd">
<!-- Generated by graphviz version 2.43.0 (0)
 -->
<!-- Title: OmniboxView::RevertAll Pages: 1 -->
<svg width="1533pt" height="394pt"
 viewBox="0.00 0.00 1533.00 394.00" xmlns="http://www.w3.org/2000/svg" xmlns:xlink="http://www.w3.org/1999/xlink">
<g id="graph0" class="graph" transform="scale(1 1) rotate(0) translate(4 390)">
<title>OmniboxView::RevertAll</title>
<polygon fill="white" stroke="transparent" points="-4,4 -4,-390 1529,-390 1529,4 -4,4"/>
<!-- Node1 -->
<g id="node1" class="node">
<title>Node1</title>
<g id="a_node1"><a xlink:title=" ">
<polygon fill="#bfbfbf" stroke="black" points="1401,-149 1401,-168 1525,-168 1525,-149 1401,-149"/>
<text text-anchor="middle" x="1463" y="-156" font-family="Helvetica,sans-Serif" font-size="10.00">OmniboxView::RevertAll</text>
</a>
</g>
</g>
<!-- Node2 -->
<g id="node2" class="node">
<title>Node2</title>
<g id="a_node2"><a xlink:href="../../d0/d22/classOmniboxEditModel.html#a2fe06b37f9d625552449449507f4cf66" target="_top" xlink:title=" ">
<polygon fill="white" stroke="black" points="1214,-244.5 1214,-274.5 1355,-274.5 1355,-244.5 1214,-244.5"/>
<text text-anchor="start" x="1222" y="-262.5" font-family="Helvetica,sans-Serif" font-size="10.00">OmniboxEditModel::Execute</text>
<text text-anchor="middle" x="1284.5" y="-251.5" font-family="Helvetica,sans-Serif" font-size="10.00">Action</text>
</a>
</g>
</g>
<!-- Node1&#45;&gt;Node2 -->
<g id="edge1" class="edge">
<title>Node1&#45;&gt;Node2</title>
<path fill="none" stroke="midnightblue" d="M1445.08,-174.9C1426.7,-191.92 1395.84,-218.26 1365,-234.5 1357.83,-238.27 1349.99,-241.59 1342.12,-244.48"/>
<polygon fill="midnightblue" stroke="midnightblue" points="1447.5,-177.43 1452.37,-168.03 1442.7,-172.34 1447.5,-177.43"/>
</g>
<!-- Node15 -->
<g id="node15" class="node">
<title>Node15</title>
<g id="a_node15"><a xlink:href="../../d0/d22/classOmniboxEditModel.html#a443085668cdebe43104bc5a52047d5db" target="_top" xlink:title=" ">
<polygon fill="white" stroke="black" points="1003.5,-172.5 1003.5,-202.5 1154.5,-202.5 1154.5,-172.5 1003.5,-172.5"/>
<text text-anchor="start" x="1011.5" y="-190.5" font-family="Helvetica,sans-Serif" font-size="10.00">OmniboxEditModel::OnEscape</text>
<text text-anchor="middle" x="1079" y="-179.5" font-family="Helvetica,sans-Serif" font-size="10.00">KeyPressed</text>
</a>
</g>
</g>
<!-- Node1&#45;&gt;Node15 -->
<g id="edge16" class="edge">
<title>Node1&#45;&gt;Node15</title>
<path fill="none" stroke="midnightblue" d="M1390.54,-163.93C1323.28,-169.03 1222.95,-176.65 1154.67,-181.83"/>
<polygon fill="midnightblue" stroke="midnightblue" points="1390.92,-167.41 1400.63,-163.16 1390.39,-160.43 1390.92,-167.41"/>
</g>
<!-- Node16 -->
<g id="node16" class="node">
<title>Node16</title>
<g id="a_node16"><a xlink:href="../../d0/d22/classOmniboxEditModel.html#a2048ac3eb134371876a1517bba0eb54a" target="_top" xlink:title=" ">
<polygon fill="white" stroke="black" points="1207,-206 1207,-225 1362,-225 1362,-206 1207,-206"/>
<text text-anchor="middle" x="1284.5" y="-213" font-family="Helvetica,sans-Serif" font-size="10.00">OmniboxEditModel::OpenMatch</text>
</a>
</g>
</g>
<!-- Node1&#45;&gt;Node16 -->
<g id="edge18" class="edge">
<title>Node1&#45;&gt;Node16</title>
<path fill="none" stroke="midnightblue" d="M1424.92,-171.45C1406.89,-177.66 1384.86,-185.12 1365,-191.5 1349.63,-196.43 1332.49,-201.64 1318.07,-205.95"/>
<polygon fill="midnightblue" stroke="midnightblue" points="1426.18,-174.72 1434.49,-168.14 1423.89,-168.1 1426.18,-174.72"/>
</g>
<!-- Node17 -->
<g id="node17" class="node">
<title>Node17</title>
<g id="a_node17"><a xlink:href="../../d0/d22/classOmniboxEditModel.html#aab58057067d31b0c32e486889eb7a824" target="_top" xlink:title=" ">
<polygon fill="white" stroke="black" points="1204,-130 1204,-149 1365,-149 1365,-130 1204,-130"/>
<text text-anchor="middle" x="1284.5" y="-137" font-family="Helvetica,sans-Serif" font-size="10.00">OmniboxEditModel::PasteAndGo</text>
</a>
</g>
</g>
<!-- Node1&#45;&gt;Node17 -->
<g id="edge20" class="edge">
<title>Node1&#45;&gt;Node17</title>
<path fill="none" stroke="midnightblue" d="M1390.69,-150.82C1382.32,-149.92 1373.75,-149 1365.28,-148.09"/>
<polygon fill="midnightblue" stroke="midnightblue" points="1390.45,-154.32 1400.76,-151.91 1391.2,-147.36 1390.45,-154.32"/>
</g>
<!-- Node19 -->
<g id="node19" class="node">
<title>Node19</title>
<g id="a_node19"><a xlink:href="../../d0/d22/classOmniboxEditModel.html#a2bb71ab51adf4ec1d8de8b448f89c440" target="_top" xlink:title=" ">
<polygon fill="white" stroke="black" points="1214.5,-80.5 1214.5,-110.5 1354.5,-110.5 1354.5,-80.5 1214.5,-80.5"/>
<text text-anchor="start" x="1222.5" y="-98.5" font-family="Helvetica,sans-Serif" font-size="10.00">OmniboxEditModel::Restore</text>
<text text-anchor="middle" x="1284.5" y="-87.5" font-family="Helvetica,sans-Serif" font-size="10.00">State</text>
</a>
</g>
</g>
<!-- Node1&#45;&gt;Node19 -->
<g id="edge22" class="edge">
<title>Node1&#45;&gt;Node19</title>
<path fill="none" stroke="midnightblue" d="M1429.76,-145.23C1410.98,-137.66 1386.79,-128.18 1365,-120.5 1355.45,-117.13 1345.18,-113.74 1335.29,-110.58"/>
<polygon fill="midnightblue" stroke="midnightblue" points="1428.46,-148.48 1439.04,-148.99 1431.09,-141.99 1428.46,-148.48"/>
</g>
<!-- Node21 -->
<g id="node21" class="node">
<title>Node21</title>
<g id="a_node21"><a xlink:href="../../d0/d94/classOmniboxViewViews.html#ab6a54ac38f2deb636bf333ab39181422" target="_top" xlink:title=" ">
<polygon fill="white" stroke="black" points="1209,-42 1209,-61 1360,-61 1360,-42 1209,-42"/>
<text text-anchor="middle" x="1284.5" y="-49" font-family="Helvetica,sans-Serif" font-size="10.00">OmniboxViewViews::RevertAll</text>
</a>
</g>
</g>
<!-- Node1&#45;&gt;Node21 -->
<g id="edge24" class="edge">
<title>Node1&#45;&gt;Node21</title>
<path fill="none" stroke="midnightblue" d="M1447.39,-141.05C1429.84,-121.24 1398.55,-89.34 1365,-71.5 1356.83,-67.16 1347.69,-63.73 1338.59,-61.03"/>
<polygon fill="midnightblue" stroke="midnightblue" points="1444.84,-143.46 1454.03,-148.73 1450.14,-138.88 1444.84,-143.46"/>
</g>
<!-- Node3 -->
<g id="node3" class="node">
<title>Node3</title>
<g id="a_node3"><a xlink:href="../../d1/db1/classOmniboxPopupModel.html#acf1ecd019bf8b90655bb4a6c3dd7f8b1" target="_top" xlink:title=" ">
<polygon fill="white" stroke="black" points="1021,-244.5 1021,-274.5 1137,-274.5 1137,-244.5 1021,-244.5"/>
<text text-anchor="start" x="1029" y="-262.5" font-family="Helvetica,sans-Serif" font-size="10.00">OmniboxPopupModel::</text>
<text text-anchor="middle" x="1079" y="-251.5" font-family="Helvetica,sans-Serif" font-size="10.00">TriggerSelectionAction</text>
</a>
</g>
</g>
<!-- Node2&#45;&gt;Node3 -->
<g id="edge2" class="edge">
<title>Node2&#45;&gt;Node3</title>
<path fill="none" stroke="midnightblue" d="M1203.67,-259.5C1181.46,-259.5 1157.8,-259.5 1137.17,-259.5"/>
<polygon fill="midnightblue" stroke="midnightblue" points="1203.75,-263 1213.75,-259.5 1203.75,-256 1203.75,-263"/>
</g>
<!-- Node4 -->
<g id="node4" class="node">
<title>Node4</title>
<g id="a_node4"><a xlink:href="../../d3/d4c/classOmniboxResultView.html#a7bd0ac4077f48f8cc13698e19ed36eb6" target="_top" xlink:title=" ">
<polygon fill="white" stroke="black" points="603.5,-355.5 603.5,-385.5 715.5,-385.5 715.5,-355.5 603.5,-355.5"/>
<text text-anchor="start" x="611.5" y="-373.5" font-family="Helvetica,sans-Serif" font-size="10.00">OmniboxResultView::</text>
<text text-anchor="middle" x="659.5" y="-362.5" font-family="Helvetica,sans-Serif" font-size="10.00">ButtonPressed</text>
</a>
</g>
</g>
<!-- Node3&#45;&gt;Node4 -->
<g id="edge3" class="edge">
<title>Node3&#45;&gt;Node4</title>
<path fill="none" stroke="midnightblue" d="M1054.73,-281.65C1031.31,-302.42 993.16,-332.35 954,-346.5 874.78,-375.12 775.97,-376.84 715.59,-374.43"/>
<polygon fill="midnightblue" stroke="midnightblue" points="1057.31,-284.03 1062.37,-274.72 1052.61,-278.84 1057.31,-284.03"/>
</g>
<!-- Node8 -->
<g id="node8" class="node">
<title>Node8</title>
<g id="a_node8"><a xlink:href="../../d3/d0a/classOmniboxSuggestionButtonRowView.html#a35216a3671475e4ee13507b0465d5eb8" target="_top" xlink:title=" ">
<polygon fill="white" stroke="black" points="799,-306.5 799,-336.5 952,-336.5 952,-306.5 799,-306.5"/>
<text text-anchor="start" x="807" y="-324.5" font-family="Helvetica,sans-Serif" font-size="10.00">OmniboxSuggestionButtonRow</text>
<text text-anchor="middle" x="875.5" y="-313.5" font-family="Helvetica,sans-Serif" font-size="10.00">View::ButtonPressed</text>
</a>
</g>
</g>
<!-- Node3&#45;&gt;Node8 -->
<g id="edge7" class="edge">
<title>Node3&#45;&gt;Node8</title>
<path fill="none" stroke="midnightblue" d="M1019.37,-277.54C989.59,-286.7 953.82,-297.71 925.53,-306.41"/>
<polygon fill="midnightblue" stroke="midnightblue" points="1020.69,-280.79 1029.22,-274.51 1018.64,-274.1 1020.69,-280.79"/>
</g>
<!-- Node10 -->
<g id="node10" class="node">
<title>Node10</title>
<g id="a_node10"><a xlink:href="../../d0/d94/classOmniboxViewViews.html#a5a64c1e16631c3301fb57307402784dc" target="_top" xlink:title=" ">
<polygon fill="white" stroke="black" points="805,-159.5 805,-189.5 946,-189.5 946,-159.5 805,-159.5"/>
<text text-anchor="start" x="813" y="-177.5" font-family="Helvetica,sans-Serif" font-size="10.00">OmniboxViewViews::Handle</text>
<text text-anchor="middle" x="875.5" y="-166.5" font-family="Helvetica,sans-Serif" font-size="10.00">KeyEvent</text>
</a>
</g>
</g>
<!-- Node3&#45;&gt;Node10 -->
<g id="edge10" class="edge">
<title>Node3&#45;&gt;Node10</title>
<path fill="none" stroke="midnightblue" d="M1040.24,-239.54C1015.99,-227.14 983.59,-211.37 954,-199.5 945.34,-196.03 935.99,-192.68 926.89,-189.63"/>
<polygon fill="midnightblue" stroke="midnightblue" points="1038.95,-242.81 1049.45,-244.28 1042.16,-236.59 1038.95,-242.81"/>
</g>
<!-- Node11 -->
<g id="node11" class="node">
<title>Node11</title>
<g id="a_node11"><a xlink:href="../../d2/dcb/classOmniboxRowView_1_1HeaderView.html#a441ded0bc83346ff1773063183d470f2" target="_top" xlink:title=" ">
<polygon fill="white" stroke="black" points="797,-257.5 797,-287.5 954,-287.5 954,-257.5 797,-257.5"/>
<text text-anchor="start" x="805" y="-275.5" font-family="Helvetica,sans-Serif" font-size="10.00">OmniboxRowView::HeaderView</text>
<text text-anchor="middle" x="875.5" y="-264.5" font-family="Helvetica,sans-Serif" font-size="10.00">::HeaderToggleButtonPressed</text>
</a>
</g>
</g>
<!-- Node3&#45;&gt;Node11 -->
<g id="edge11" class="edge">
<title>Node3&#45;&gt;Node11</title>
<path fill="none" stroke="midnightblue" d="M1010.63,-263.85C992.52,-265.01 972.78,-266.29 954.16,-267.49"/>
<polygon fill="midnightblue" stroke="midnightblue" points="1011.04,-267.33 1020.8,-263.19 1010.59,-260.34 1011.04,-267.33"/>
</g>
<!-- Node14 -->
<g id="node14" class="node">
<title>Node14</title>
<g id="a_node14"><a xlink:href="../../d2/dcb/classOmniboxRowView_1_1HeaderView.html#af9e1207af3e2688cdccfd7b8c1267a3c" target="_top" xlink:title=" ">
<polygon fill="white" stroke="black" points="797,-208.5 797,-238.5 954,-238.5 954,-208.5 797,-208.5"/>
<text text-anchor="start" x="805" y="-226.5" font-family="Helvetica,sans-Serif" font-size="10.00">OmniboxRowView::HeaderView</text>
<text text-anchor="middle" x="875.5" y="-215.5" font-family="Helvetica,sans-Serif" font-size="10.00">::OnMouseReleased</text>
</a>
</g>
</g>
<!-- Node3&#45;&gt;Node14 -->
<g id="edge15" class="edge">
<title>Node3&#45;&gt;Node14</title>
<path fill="none" stroke="midnightblue" d="M1010.88,-247.51C992.7,-244.26 972.87,-240.72 954.16,-237.38"/>
<polygon fill="midnightblue" stroke="midnightblue" points="1010.34,-250.97 1020.8,-249.28 1011.57,-244.08 1010.34,-250.97"/>
</g>
<!-- Node5 -->
<g id="node5" class="node">
<title>Node5</title>
<g id="a_node5"><a xlink:href="../../d3/d4c/classOmniboxResultView.html#a632535684d6941455e8979815a978a44" target="_top" xlink:title=" ">
<polygon fill="white" stroke="black" points="386,-306.5 386,-336.5 498,-336.5 498,-306.5 386,-306.5"/>
<text text-anchor="start" x="394" y="-324.5" font-family="Helvetica,sans-Serif" font-size="10.00">OmniboxResultView::</text>
<text text-anchor="middle" x="442" y="-313.5" font-family="Helvetica,sans-Serif" font-size="10.00">OmniboxResultView</text>
</a>
</g>
</g>
<!-- Node4&#45;&gt;Node5 -->
<g id="edge4" class="edge">
<title>Node4&#45;&gt;Node5</title>
<path fill="none" stroke="midnightblue" d="M593.2,-355.65C562.82,-348.74 527.07,-340.62 498.07,-334.02"/>
<polygon fill="midnightblue" stroke="midnightblue" points="592.76,-359.14 603.28,-357.94 594.31,-352.31 592.76,-359.14"/>
</g>
<!-- Node6 -->
<g id="node6" class="node">
<title>Node6</title>
<g id="a_node6"><a xlink:href="../../d7/d88/classOmniboxPopupContentsView.html#aa8f47263f229af6a469c3bf964b81162" target="_top" xlink:title=" ">
<polygon fill="white" stroke="black" points="181,-282.5 181,-312.5 326,-312.5 326,-282.5 181,-282.5"/>
<text text-anchor="start" x="189" y="-300.5" font-family="Helvetica,sans-Serif" font-size="10.00">OmniboxPopupContentsView</text>
<text text-anchor="middle" x="253.5" y="-289.5" font-family="Helvetica,sans-Serif" font-size="10.00">::UpdatePopupAppearance</text>
</a>
</g>
</g>
<!-- Node5&#45;&gt;Node6 -->
<g id="edge5" class="edge">
<title>Node5&#45;&gt;Node6</title>
<path fill="none" stroke="midnightblue" d="M375.51,-313.07C359.55,-311.02 342.41,-308.81 326.18,-306.72"/>
<polygon fill="midnightblue" stroke="midnightblue" points="375.44,-316.59 385.8,-314.4 376.33,-309.65 375.44,-316.59"/>
</g>
<!-- Node7 -->
<g id="node7" class="node">
<title>Node7</title>
<g id="a_node7"><a xlink:href="../../d7/d88/classOmniboxPopupContentsView.html#a0e658101bc19acb66f6e0915fd6c2fe3" target="_top" xlink:title=" ">
<polygon fill="white" stroke="black" points="0,-282.5 0,-312.5 145,-312.5 145,-282.5 0,-282.5"/>
<text text-anchor="start" x="8" y="-300.5" font-family="Helvetica,sans-Serif" font-size="10.00">OmniboxPopupContentsView</text>
<text text-anchor="middle" x="72.5" y="-289.5" font-family="Helvetica,sans-Serif" font-size="10.00">::OnWidgetBoundsChanged</text>
</a>
</g>
</g>
<!-- Node6&#45;&gt;Node7 -->
<g id="edge6" class="edge">
<title>Node6&#45;&gt;Node7</title>
<path fill="none" stroke="midnightblue" d="M170.96,-297.5C162.36,-297.5 153.67,-297.5 145.2,-297.5"/>
<polygon fill="midnightblue" stroke="midnightblue" points="170.98,-301 180.98,-297.5 170.98,-294 170.98,-301"/>
</g>
<!-- Node9 -->
<g id="node9" class="node">
<title>Node9</title>
<g id="a_node9"><a xlink:href="../../d3/d0a/classOmniboxSuggestionButtonRowView.html#a7272410c3b801796d1c9cbeb37f9b3e7" target="_top" xlink:title=" ">
<polygon fill="white" stroke="black" points="558,-306.5 558,-336.5 761,-336.5 761,-306.5 558,-306.5"/>
<text text-anchor="start" x="566" y="-324.5" font-family="Helvetica,sans-Serif" font-size="10.00">OmniboxSuggestionButtonRow</text>
<text text-anchor="middle" x="659.5" y="-313.5" font-family="Helvetica,sans-Serif" font-size="10.00">View::OmniboxSuggestionButtonRowView</text>
</a>
</g>
</g>
<!-- Node8&#45;&gt;Node9 -->
<g id="edge8" class="edge">
<title>Node8&#45;&gt;Node9</title>
<path fill="none" stroke="midnightblue" d="M788.67,-321.5C779.65,-321.5 770.42,-321.5 761.26,-321.5"/>
<polygon fill="midnightblue" stroke="midnightblue" points="788.75,-325 798.75,-321.5 788.75,-318 788.75,-325"/>
</g>
<!-- Node9&#45;&gt;Node5 -->
<g id="edge9" class="edge">
<title>Node9&#45;&gt;Node5</title>
<path fill="none" stroke="midnightblue" d="M547.59,-321.5C530.45,-321.5 513.4,-321.5 498.21,-321.5"/>
<polygon fill="midnightblue" stroke="midnightblue" points="547.69,-325 557.69,-321.5 547.69,-318 547.69,-325"/>
</g>
<!-- Node12 -->
<g id="node12" class="node">
<title>Node12</title>
<g id="a_node12"><a xlink:href="../../d2/dcb/classOmniboxRowView_1_1HeaderView.html#ad1abf8339bf99de0b39a9bb43111ba93" target="_top" xlink:title=" ">
<polygon fill="white" stroke="black" points="581,-257.5 581,-287.5 738,-287.5 738,-257.5 581,-257.5"/>
<text text-anchor="start" x="589" y="-275.5" font-family="Helvetica,sans-Serif" font-size="10.00">OmniboxRowView::HeaderView</text>
<text text-anchor="middle" x="659.5" y="-264.5" font-family="Helvetica,sans-Serif" font-size="10.00">::HeaderView</text>
</a>
</g>
</g>
<!-- Node11&#45;&gt;Node12 -->
<g id="edge12" class="edge">
<title>Node11&#45;&gt;Node12</title>
<path fill="none" stroke="midnightblue" d="M786.51,-272.5C770.48,-272.5 753.86,-272.5 738.16,-272.5"/>
<polygon fill="midnightblue" stroke="midnightblue" points="786.94,-276 796.94,-272.5 786.94,-269 786.94,-276"/>
</g>
<!-- Node13 -->
<g id="node13" class="node">
<title>Node13</title>
<g id="a_node13"><a xlink:href="../../da/da2/classOmniboxRowView.html#a6add650851301372ee9b8a6671cfa28c" target="_top" xlink:title=" ">
<polygon fill="white" stroke="black" points="362,-266 362,-285 522,-285 522,-266 362,-266"/>
<text text-anchor="middle" x="442" y="-273" font-family="Helvetica,sans-Serif" font-size="10.00">OmniboxRowView::ShowHeader</text>
</a>
</g>
</g>
<!-- Node12&#45;&gt;Node13 -->
<g id="edge13" class="edge">
<title>Node12&#45;&gt;Node13</title>
<path fill="none" stroke="midnightblue" d="M570.32,-273.73C554.36,-273.95 537.81,-274.18 522.14,-274.4"/>
<polygon fill="midnightblue" stroke="midnightblue" points="570.75,-277.22 580.7,-273.58 570.65,-270.22 570.75,-277.22"/>
</g>
<!-- Node13&#45;&gt;Node6 -->
<g id="edge14" class="edge">
<title>Node13&#45;&gt;Node6</title>
<path fill="none" stroke="midnightblue" d="M351.8,-286.02C343.15,-287.04 334.46,-288.07 326.02,-289.06"/>
<polygon fill="midnightblue" stroke="midnightblue" points="352.39,-289.48 361.91,-284.83 351.57,-282.53 352.39,-289.48"/>
</g>
<!-- Node15&#45;&gt;Node10 -->
<g id="edge17" class="edge">
<title>Node15&#45;&gt;Node10</title>
<path fill="none" stroke="midnightblue" d="M993.06,-182.02C977.42,-181.01 961.25,-179.97 946.12,-178.99"/>
<polygon fill="midnightblue" stroke="midnightblue" points="993.05,-185.53 1003.26,-182.68 993.5,-178.54 993.05,-185.53"/>
</g>
<!-- Node16&#45;&gt;Node3 -->
<g id="edge19" class="edge">
<title>Node16&#45;&gt;Node3</title>
<path fill="none" stroke="midnightblue" d="M1229.56,-227.16C1201.1,-233.32 1166.17,-240.87 1137.23,-247.13"/>
<polygon fill="midnightblue" stroke="midnightblue" points="1230.31,-230.58 1239.34,-225.05 1228.83,-223.74 1230.31,-230.58"/>
</g>
<!-- Node18 -->
<g id="node18" class="node">
<title>Node18</title>
<g id="a_node18"><a xlink:href="../../d0/d94/classOmniboxViewViews.html#a487a0ced2870997b0f88d8dcab9a4f0e" target="_top" xlink:title=" ">
<polygon fill="white" stroke="black" points="1006,-123.5 1006,-153.5 1152,-153.5 1152,-123.5 1006,-123.5"/>
<text text-anchor="start" x="1014" y="-141.5" font-family="Helvetica,sans-Serif" font-size="10.00">OmniboxViewViews::Execute</text>
<text text-anchor="middle" x="1079" y="-130.5" font-family="Helvetica,sans-Serif" font-size="10.00">Command</text>
</a>
</g>
</g>
<!-- Node17&#45;&gt;Node18 -->
<g id="edge21" class="edge">
<title>Node17&#45;&gt;Node18</title>
<path fill="none" stroke="midnightblue" d="M1193.87,-139.06C1179.93,-138.99 1165.69,-138.92 1152.2,-138.85"/>
<polygon fill="midnightblue" stroke="midnightblue" points="1193.93,-142.56 1203.95,-139.11 1193.96,-135.56 1193.93,-142.56"/>
</g>
<!-- Node20 -->
<g id="node20" class="node">
<title>Node20</title>
<g id="a_node20"><a xlink:href="../../d0/d94/classOmniboxViewViews.html#a29443b7e10de80e21be533d0a9f5df7f" target="_top" xlink:title=" ">
<polygon fill="white" stroke="black" points="990,-85 990,-104 1168,-104 1168,-85 990,-85"/>
<text text-anchor="middle" x="1079" y="-92" font-family="Helvetica,sans-Serif" font-size="10.00">OmniboxViewViews::OnTabChanged</text>
</a>
</g>
</g>
<!-- Node19&#45;&gt;Node20 -->
<g id="edge23" class="edge">
<title>Node19&#45;&gt;Node20</title>
<path fill="none" stroke="midnightblue" d="M1204.07,-95.11C1192.27,-95.05 1180.05,-94.99 1168.08,-94.93"/>
<polygon fill="midnightblue" stroke="midnightblue" points="1204.3,-98.61 1214.32,-95.16 1204.34,-91.61 1204.3,-98.61"/>
</g>
<!-- Node22 -->
<g id="node22" class="node">
<title>Node22</title>
<g id="a_node22"><a xlink:href="../../d0/d94/classOmniboxViewViews.html#a0ff89bd4e88c1746caa381d559266a4c" target="_top" xlink:title=" ">
<polygon fill="white" stroke="black" points="1009,-44 1009,-63 1149,-63 1149,-44 1009,-44"/>
<text text-anchor="middle" x="1079" y="-51" font-family="Helvetica,sans-Serif" font-size="10.00">OmniboxViewViews::OnBlur</text>
</a>
</g>
</g>
<!-- Node21&#45;&gt;Node22 -->
<g id="edge25" class="edge">
<title>Node21&#45;&gt;Node22</title>
<path fill="none" stroke="midnightblue" d="M1198.71,-52.33C1182.22,-52.5 1165.12,-52.66 1149.21,-52.82"/>
<polygon fill="midnightblue" stroke="midnightblue" points="1198.91,-55.83 1208.88,-52.23 1198.85,-48.83 1198.91,-55.83"/>
</g>
<!-- Node23 -->
<g id="node23" class="node">
<title>Node23</title>
<g id="a_node23"><a xlink:href="../../d0/d94/classOmniboxViewViews.html#a564d40cfb08dd21f090a41775e984636" target="_top" xlink:title=" ">
<polygon fill="white" stroke="black" points="1008,-6 1008,-25 1150,-25 1150,-6 1008,-6"/>
<text text-anchor="middle" x="1079" y="-13" font-family="Helvetica,sans-Serif" font-size="10.00">OmniboxViewViews::Update</text>
</a>
</g>
</g>
<!-- Node21&#45;&gt;Node23 -->
<g id="edge26" class="edge">
<title>Node21&#45;&gt;Node23</title>
<path fill="none" stroke="midnightblue" d="M1219.83,-40.24C1192.29,-35.37 1160.4,-29.72 1134.03,-25.06"/>
<polygon fill="midnightblue" stroke="midnightblue" points="1219.31,-43.7 1229.77,-41.99 1220.53,-36.81 1219.31,-43.7"/>
</g>
<!-- Node24 -->
<g id="node24" class="node">
<title>Node24</title>
<g id="a_node24"><a xlink:href="../../d0/d94/classOmniboxViewViews.html#ae60b252829545c1772018fe11927182b" target="_top" xlink:title=" ">
<polygon fill="white" stroke="black" points="801,-0.5 801,-30.5 950,-30.5 950,-0.5 801,-0.5"/>
<text text-anchor="start" x="809" y="-18.5" font-family="Helvetica,sans-Serif" font-size="10.00">OmniboxViewViews::Omnibox</text>
<text text-anchor="middle" x="875.5" y="-7.5" font-family="Helvetica,sans-Serif" font-size="10.00">ViewViews</text>
</a>
</g>
</g>
<!-- Node23&#45;&gt;Node24 -->
<g id="edge27" class="edge">
<title>Node23&#45;&gt;Node24</title>
<path fill="none" stroke="midnightblue" d="M997.63,-15.5C981.98,-15.5 965.63,-15.5 950.21,-15.5"/>
<polygon fill="midnightblue" stroke="midnightblue" points="997.81,-19 1007.81,-15.5 997.81,-12 997.81,-19"/>
</g>
</g>
</svg>
