<?xml version="1.0" encoding="UTF-8" standalone="no"?>
<!DOCTYPE svg PUBLIC "-//W3C//DTD SVG 1.1//EN"
 "http://www.w3.org/Graphics/SVG/1.1/DTD/svg11.dtd">
<!-- Generated by graphviz version 2.43.0 (0)
 -->
<!-- Title: OmniboxView::TextChanged Pages: 1 -->
<svg width="1755pt" height="467pt"
 viewBox="0.00 0.00 1755.00 467.00" xmlns="http://www.w3.org/2000/svg" xmlns:xlink="http://www.w3.org/1999/xlink">
<g id="graph0" class="graph" transform="scale(1 1) rotate(0) translate(4 463)">
<title>OmniboxView::TextChanged</title>
<polygon fill="white" stroke="transparent" points="-4,4 -4,-463 1751,-463 1751,4 -4,4"/>
<!-- Node1 -->
<g id="node1" class="node">
<title>Node1</title>
<g id="a_node1"><a xlink:title=" ">
<polygon fill="#bfbfbf" stroke="black" points="1606,-220 1606,-239 1747,-239 1747,-220 1606,-220"/>
<text text-anchor="middle" x="1676.5" y="-227" font-family="Helvetica,sans-Serif" font-size="10.00">OmniboxView::TextChanged</text>
</a>
</g>
</g>
<!-- Node2 -->
<g id="node2" class="node">
<title>Node2</title>
<g id="a_node2"><a xlink:href="../../d0/d94/classOmniboxViewViews.html#a4e2e5817caa504f109907ce64eb30915" target="_top" xlink:title=" ">
<polygon fill="white" stroke="black" points="1419,-389.5 1419,-419.5 1560,-419.5 1560,-389.5 1419,-389.5"/>
<text text-anchor="start" x="1427" y="-407.5" font-family="Helvetica,sans-Serif" font-size="10.00">OmniboxViewViews::Handle</text>
<text text-anchor="middle" x="1489.5" y="-396.5" font-family="Helvetica,sans-Serif" font-size="10.00">AccessibleAction</text>
</a>
</g>
</g>
<!-- Node1&#45;&gt;Node2 -->
<g id="edge1" class="edge">
<title>Node1&#45;&gt;Node2</title>
<path fill="none" stroke="midnightblue" d="M1667.35,-248.49C1652.65,-280.54 1618.6,-345.28 1570,-380.5 1565.21,-383.97 1559.92,-386.94 1554.41,-389.49"/>
<polygon fill="midnightblue" stroke="midnightblue" points="1670.57,-249.88 1671.44,-239.32 1664.18,-247.03 1670.57,-249.88"/>
</g>
<!-- Node3 -->
<g id="node3" class="node">
<title>Node3</title>
<g id="a_node3"><a xlink:href="../../d0/d94/classOmniboxViewViews.html#a5a64c1e16631c3301fb57307402784dc" target="_top" xlink:title=" ">
<polygon fill="white" stroke="black" points="805,-254.5 805,-284.5 946,-284.5 946,-254.5 805,-254.5"/>
<text text-anchor="start" x="813" y="-272.5" font-family="Helvetica,sans-Serif" font-size="10.00">OmniboxViewViews::Handle</text>
<text text-anchor="middle" x="875.5" y="-261.5" font-family="Helvetica,sans-Serif" font-size="10.00">KeyEvent</text>
</a>
</g>
</g>
<!-- Node1&#45;&gt;Node3 -->
<g id="edge2" class="edge">
<title>Node1&#45;&gt;Node3</title>
<path fill="none" stroke="midnightblue" d="M1633.14,-241.7C1614.02,-246.64 1591.05,-251.81 1570,-254.5 1343.33,-283.48 1071.68,-277.74 946.26,-272.83"/>
<polygon fill="midnightblue" stroke="midnightblue" points="1634.27,-245.02 1643.04,-239.07 1632.47,-238.25 1634.27,-245.02"/>
</g>
<!-- Node4 -->
<g id="node4" class="node">
<title>Node4</title>
<g id="a_node4"><a xlink:href="../../d0/d94/classOmniboxViewViews.html#a18cba16b87566313a94b57d0e4a7ce12" target="_top" xlink:title=" ">
<polygon fill="white" stroke="black" points="1417.5,-340.5 1417.5,-370.5 1561.5,-370.5 1561.5,-340.5 1417.5,-340.5"/>
<text text-anchor="start" x="1425.5" y="-358.5" font-family="Helvetica,sans-Serif" font-size="10.00">OmniboxViewViews::OnAfter</text>
<text text-anchor="middle" x="1489.5" y="-347.5" font-family="Helvetica,sans-Serif" font-size="10.00">PossibleChange</text>
</a>
</g>
</g>
<!-- Node1&#45;&gt;Node4 -->
<g id="edge3" class="edge">
<title>Node1&#45;&gt;Node4</title>
<path fill="none" stroke="midnightblue" d="M1652.97,-244.84C1617.25,-269.17 1548.04,-316.31 1512.6,-340.45"/>
<polygon fill="midnightblue" stroke="midnightblue" points="1655,-247.7 1661.29,-239.18 1651.06,-241.91 1655,-247.7"/>
</g>
<!-- Node9 -->
<g id="node9" class="node">
<title>Node9</title>
<g id="a_node9"><a xlink:href="../../d0/d94/classOmniboxViewViews.html#a9fc21bac19f3a666e10eabc84b72c745" target="_top" xlink:title=" ">
<polygon fill="white" stroke="black" points="1413.5,-214.5 1413.5,-244.5 1565.5,-244.5 1565.5,-214.5 1413.5,-214.5"/>
<text text-anchor="start" x="1421.5" y="-232.5" font-family="Helvetica,sans-Serif" font-size="10.00">OmniboxViewViews::OnMouse</text>
<text text-anchor="middle" x="1489.5" y="-221.5" font-family="Helvetica,sans-Serif" font-size="10.00">Pressed</text>
</a>
</g>
</g>
<!-- Node1&#45;&gt;Node9 -->
<g id="edge10" class="edge">
<title>Node1&#45;&gt;Node9</title>
<path fill="none" stroke="midnightblue" d="M1595.57,-229.5C1585.65,-229.5 1575.53,-229.5 1565.68,-229.5"/>
<polygon fill="midnightblue" stroke="midnightblue" points="1595.82,-233 1605.82,-229.5 1595.82,-226 1595.82,-233"/>
</g>
<!-- Node10 -->
<g id="node10" class="node">
<title>Node10</title>
<g id="a_node10"><a xlink:href="../../d0/d94/classOmniboxViewViews.html#aef90f48ecf2ced3ede6d986328b82b15" target="_top" xlink:title=" ">
<polygon fill="white" stroke="black" points="1413.5,-165.5 1413.5,-195.5 1565.5,-195.5 1565.5,-165.5 1413.5,-165.5"/>
<text text-anchor="start" x="1421.5" y="-183.5" font-family="Helvetica,sans-Serif" font-size="10.00">OmniboxViewViews::OnMouse</text>
<text text-anchor="middle" x="1489.5" y="-172.5" font-family="Helvetica,sans-Serif" font-size="10.00">Released</text>
</a>
</g>
</g>
<!-- Node1&#45;&gt;Node10 -->
<g id="edge11" class="edge">
<title>Node1&#45;&gt;Node10</title>
<path fill="none" stroke="midnightblue" d="M1629.48,-217.31C1604.59,-210.72 1573.64,-202.52 1547.27,-195.54"/>
<polygon fill="midnightblue" stroke="midnightblue" points="1628.83,-220.76 1639.39,-219.94 1630.62,-213.99 1628.83,-220.76"/>
</g>
<!-- Node11 -->
<g id="node11" class="node">
<title>Node11</title>
<g id="a_node11"><a xlink:href="../../d9/d1e/classOmniboxView.html#a405dec91c8bd106dec923394899defa8" target="_top" xlink:title=" ">
<polygon fill="white" stroke="black" points="1427.5,-127 1427.5,-146 1551.5,-146 1551.5,-127 1427.5,-127"/>
<text text-anchor="middle" x="1489.5" y="-134" font-family="Helvetica,sans-Serif" font-size="10.00">OmniboxView::RevertAll</text>
</a>
</g>
</g>
<!-- Node1&#45;&gt;Node11 -->
<g id="edge12" class="edge">
<title>Node1&#45;&gt;Node11</title>
<path fill="none" stroke="midnightblue" d="M1656.84,-213.46C1636.69,-196.91 1603.01,-171.48 1570,-156.5 1560.67,-152.27 1550.3,-148.83 1540.21,-146.08"/>
<polygon fill="midnightblue" stroke="midnightblue" points="1654.69,-216.22 1664.61,-219.95 1659.18,-210.85 1654.69,-216.22"/>
</g>
<!-- Node33 -->
<g id="node33" class="node">
<title>Node33</title>
<g id="a_node33"><a xlink:href="../../d0/d94/classOmniboxViewViews.html#a2b71803c688c8d3db0ddfe1a6c561208" target="_top" xlink:title=" ">
<polygon fill="white" stroke="black" points="1409,-39.5 1409,-69.5 1570,-69.5 1570,-39.5 1409,-39.5"/>
<text text-anchor="start" x="1417" y="-57.5" font-family="Helvetica,sans-Serif" font-size="10.00">OmniboxViewViews::SetWindow</text>
<text text-anchor="middle" x="1489.5" y="-46.5" font-family="Helvetica,sans-Serif" font-size="10.00">TextAndCaretPos</text>
</a>
</g>
</g>
<!-- Node1&#45;&gt;Node33 -->
<g id="edge40" class="edge">
<title>Node1&#45;&gt;Node33</title>
<path fill="none" stroke="midnightblue" d="M1660.43,-211.98C1640.59,-189.28 1604.2,-148.9 1570,-117.5 1550.93,-99.99 1527.55,-81.82 1511.09,-69.52"/>
<polygon fill="midnightblue" stroke="midnightblue" points="1657.99,-214.51 1667.19,-219.76 1663.27,-209.92 1657.99,-214.51"/>
</g>
<!-- Node5 -->
<g id="node5" class="node">
<title>Node5</title>
<g id="a_node5"><a xlink:href="../../d0/d94/classOmniboxViewViews.html#a487a0ced2870997b0f88d8dcab9a4f0e" target="_top" xlink:title=" ">
<polygon fill="white" stroke="black" points="802.5,-340.5 802.5,-370.5 948.5,-370.5 948.5,-340.5 802.5,-340.5"/>
<text text-anchor="start" x="810.5" y="-358.5" font-family="Helvetica,sans-Serif" font-size="10.00">OmniboxViewViews::Execute</text>
<text text-anchor="middle" x="875.5" y="-347.5" font-family="Helvetica,sans-Serif" font-size="10.00">Command</text>
</a>
</g>
</g>
<!-- Node4&#45;&gt;Node5 -->
<g id="edge4" class="edge">
<title>Node4&#45;&gt;Node5</title>
<path fill="none" stroke="midnightblue" d="M1420.67,-372.7C1405.11,-375.94 1388.56,-378.83 1373,-380.5 1203.74,-398.61 1159.22,-398.92 990,-380.5 971.35,-378.47 951.27,-374.62 933.26,-370.53"/>
<polygon fill="midnightblue" stroke="midnightblue" points="1421.69,-376.06 1430.73,-370.53 1420.21,-369.22 1421.69,-376.06"/>
</g>
<!-- Node6 -->
<g id="node6" class="node">
<title>Node6</title>
<g id="a_node6"><a xlink:href="../../d0/d94/classOmniboxViewViews.html#a81d025d1f692c96482925dfbab529691" target="_top" xlink:title=" ">
<polygon fill="white" stroke="black" points="1216.5,-428.5 1216.5,-458.5 1360.5,-458.5 1360.5,-428.5 1216.5,-428.5"/>
<text text-anchor="start" x="1224.5" y="-446.5" font-family="Helvetica,sans-Serif" font-size="10.00">OmniboxViewViews::OnAfter</text>
<text text-anchor="middle" x="1288.5" y="-435.5" font-family="Helvetica,sans-Serif" font-size="10.00">UserAction</text>
</a>
</g>
</g>
<!-- Node4&#45;&gt;Node6 -->
<g id="edge5" class="edge">
<title>Node4&#45;&gt;Node6</title>
<path fill="none" stroke="midnightblue" d="M1420.5,-374.62C1416.53,-376.43 1412.67,-378.39 1409,-380.5 1390.2,-391.35 1391.58,-402.28 1373,-413.5 1363.38,-419.31 1352.45,-424.25 1341.75,-428.34"/>
<polygon fill="midnightblue" stroke="midnightblue" points="1422.06,-377.76 1429.92,-370.66 1419.35,-371.31 1422.06,-377.76"/>
</g>
<!-- Node7 -->
<g id="node7" class="node">
<title>Node7</title>
<g id="a_node7"><a xlink:href="../../d0/d94/classOmniboxViewViews.html#af593bb600ecfa2ed731497a260451b47" target="_top" xlink:title=" ">
<polygon fill="white" stroke="black" points="1207.5,-340.5 1207.5,-370.5 1369.5,-370.5 1369.5,-340.5 1207.5,-340.5"/>
<text text-anchor="start" x="1215.5" y="-358.5" font-family="Helvetica,sans-Serif" font-size="10.00">OmniboxViewViews::OnOmnibox</text>
<text text-anchor="middle" x="1288.5" y="-347.5" font-family="Helvetica,sans-Serif" font-size="10.00">Paste</text>
</a>
</g>
</g>
<!-- Node4&#45;&gt;Node7 -->
<g id="edge6" class="edge">
<title>Node4&#45;&gt;Node7</title>
<path fill="none" stroke="midnightblue" d="M1407.19,-355.5C1394.79,-355.5 1381.99,-355.5 1369.62,-355.5"/>
<polygon fill="midnightblue" stroke="midnightblue" points="1407.5,-359 1417.5,-355.5 1407.5,-352 1407.5,-359"/>
</g>
<!-- Node8 -->
<g id="node8" class="node">
<title>Node8</title>
<g id="a_node8"><a xlink:href="../../d0/d94/classOmniboxViewViews.html#ae3ebda306ffa960bb7a3a1ebe7f7fc76" target="_top" xlink:title=" ">
<polygon fill="white" stroke="black" points="1006,-340.5 1006,-370.5 1152,-370.5 1152,-340.5 1006,-340.5"/>
<text text-anchor="start" x="1014" y="-358.5" font-family="Helvetica,sans-Serif" font-size="10.00">OmniboxViewViews::Execute</text>
<text text-anchor="middle" x="1079" y="-347.5" font-family="Helvetica,sans-Serif" font-size="10.00">TextEditCommand</text>
</a>
</g>
</g>
<!-- Node7&#45;&gt;Node8 -->
<g id="edge7" class="edge">
<title>Node7&#45;&gt;Node8</title>
<path fill="none" stroke="midnightblue" d="M1196.98,-355.5C1182.01,-355.5 1166.66,-355.5 1152.22,-355.5"/>
<polygon fill="midnightblue" stroke="midnightblue" points="1197.28,-359 1207.28,-355.5 1197.28,-352 1197.28,-359"/>
</g>
<!-- Node8&#45;&gt;Node3 -->
<g id="edge9" class="edge">
<title>Node8&#45;&gt;Node3</title>
<path fill="none" stroke="midnightblue" d="M1008.36,-337.24C1002.09,-335.14 995.89,-332.89 990,-330.5 958.07,-317.56 923.48,-298.12 900.99,-284.67"/>
<polygon fill="midnightblue" stroke="midnightblue" points="1007.65,-340.69 1018.24,-340.41 1009.79,-334.02 1007.65,-340.69"/>
</g>
<!-- Node8&#45;&gt;Node5 -->
<g id="edge8" class="edge">
<title>Node8&#45;&gt;Node5</title>
<path fill="none" stroke="midnightblue" d="M995.66,-355.5C980.03,-355.5 963.79,-355.5 948.51,-355.5"/>
<polygon fill="midnightblue" stroke="midnightblue" points="995.82,-359 1005.82,-355.5 995.82,-352 995.82,-359"/>
</g>
<!-- Node12 -->
<g id="node12" class="node">
<title>Node12</title>
<g id="a_node12"><a xlink:href="../../d0/d22/classOmniboxEditModel.html#a2fe06b37f9d625552449449507f4cf66" target="_top" xlink:title=" ">
<polygon fill="white" stroke="black" points="1218,-88.5 1218,-118.5 1359,-118.5 1359,-88.5 1218,-88.5"/>
<text text-anchor="start" x="1226" y="-106.5" font-family="Helvetica,sans-Serif" font-size="10.00">OmniboxEditModel::Execute</text>
<text text-anchor="middle" x="1288.5" y="-95.5" font-family="Helvetica,sans-Serif" font-size="10.00">Action</text>
</a>
</g>
</g>
<!-- Node11&#45;&gt;Node12 -->
<g id="edge13" class="edge">
<title>Node11&#45;&gt;Node12</title>
<path fill="none" stroke="midnightblue" d="M1421.25,-125.35C1401.23,-122.03 1379.25,-118.38 1359.09,-115.04"/>
<polygon fill="midnightblue" stroke="midnightblue" points="1420.77,-128.82 1431.21,-127 1421.92,-121.91 1420.77,-128.82"/>
</g>
<!-- Node24 -->
<g id="node24" class="node">
<title>Node24</title>
<g id="a_node24"><a xlink:href="../../d0/d22/classOmniboxEditModel.html#a443085668cdebe43104bc5a52047d5db" target="_top" xlink:title=" ">
<polygon fill="white" stroke="black" points="1003.5,-172.5 1003.5,-202.5 1154.5,-202.5 1154.5,-172.5 1003.5,-172.5"/>
<text text-anchor="start" x="1011.5" y="-190.5" font-family="Helvetica,sans-Serif" font-size="10.00">OmniboxEditModel::OnEscape</text>
<text text-anchor="middle" x="1079" y="-179.5" font-family="Helvetica,sans-Serif" font-size="10.00">KeyPressed</text>
</a>
</g>
</g>
<!-- Node11&#45;&gt;Node24 -->
<g id="edge28" class="edge">
<title>Node11&#45;&gt;Node24</title>
<path fill="none" stroke="midnightblue" d="M1439.68,-148.58C1429.53,-151.15 1418.91,-153.88 1409,-156.5 1392.95,-160.75 1389.36,-163.67 1373,-166.5 1299.38,-179.23 1214.07,-184.27 1154.55,-186.25"/>
<polygon fill="midnightblue" stroke="midnightblue" points="1440.79,-151.91 1449.63,-146.08 1439.08,-145.12 1440.79,-151.91"/>
</g>
<!-- Node25 -->
<g id="node25" class="node">
<title>Node25</title>
<g id="a_node25"><a xlink:href="../../d0/d22/classOmniboxEditModel.html#a2048ac3eb134371876a1517bba0eb54a" target="_top" xlink:title=" ">
<polygon fill="white" stroke="black" points="1211,-138 1211,-157 1366,-157 1366,-138 1211,-138"/>
<text text-anchor="middle" x="1288.5" y="-145" font-family="Helvetica,sans-Serif" font-size="10.00">OmniboxEditModel::OpenMatch</text>
</a>
</g>
</g>
<!-- Node11&#45;&gt;Node25 -->
<g id="edge30" class="edge">
<title>Node11&#45;&gt;Node25</title>
<path fill="none" stroke="midnightblue" d="M1417.3,-140.44C1400.75,-141.35 1383.06,-142.33 1366.28,-143.26"/>
<polygon fill="midnightblue" stroke="midnightblue" points="1417.65,-143.92 1427.44,-139.88 1417.26,-136.93 1417.65,-143.92"/>
</g>
<!-- Node26 -->
<g id="node26" class="node">
<title>Node26</title>
<g id="a_node26"><a xlink:href="../../d0/d22/classOmniboxEditModel.html#aab58057067d31b0c32e486889eb7a824" target="_top" xlink:title=" ">
<polygon fill="white" stroke="black" points="998.5,-302 998.5,-321 1159.5,-321 1159.5,-302 998.5,-302"/>
<text text-anchor="middle" x="1079" y="-309" font-family="Helvetica,sans-Serif" font-size="10.00">OmniboxEditModel::PasteAndGo</text>
</a>
</g>
</g>
<!-- Node11&#45;&gt;Node26 -->
<g id="edge32" class="edge">
<title>Node11&#45;&gt;Node26</title>
<path fill="none" stroke="midnightblue" d="M1418.16,-149.81C1414.89,-151.75 1411.81,-153.97 1409,-156.5 1374.5,-187.53 1408.33,-224.41 1373,-254.5 1314.12,-304.65 1224.3,-315.7 1159.64,-316.19"/>
<polygon fill="midnightblue" stroke="midnightblue" points="1419.83,-152.89 1427.19,-145.26 1416.68,-146.63 1419.83,-152.89"/>
</g>
<!-- Node27 -->
<g id="node27" class="node">
<title>Node27</title>
<g id="a_node27"><a xlink:href="../../d0/d22/classOmniboxEditModel.html#a2bb71ab51adf4ec1d8de8b448f89c440" target="_top" xlink:title=" ">
<polygon fill="white" stroke="black" points="1218.5,-214.5 1218.5,-244.5 1358.5,-244.5 1358.5,-214.5 1218.5,-214.5"/>
<text text-anchor="start" x="1226.5" y="-232.5" font-family="Helvetica,sans-Serif" font-size="10.00">OmniboxEditModel::Restore</text>
<text text-anchor="middle" x="1288.5" y="-221.5" font-family="Helvetica,sans-Serif" font-size="10.00">State</text>
</a>
</g>
</g>
<!-- Node11&#45;&gt;Node27 -->
<g id="edge34" class="edge">
<title>Node11&#45;&gt;Node27</title>
<path fill="none" stroke="midnightblue" d="M1422.26,-149.66C1417.63,-151.63 1413.15,-153.9 1409,-156.5 1387.88,-169.74 1393.44,-185.23 1373,-199.5 1364.41,-205.49 1354.49,-210.42 1344.56,-214.42"/>
<polygon fill="midnightblue" stroke="midnightblue" points="1423.82,-152.81 1431.94,-146.01 1421.35,-146.26 1423.82,-152.81"/>
</g>
<!-- Node29 -->
<g id="node29" class="node">
<title>Node29</title>
<g id="a_node29"><a xlink:href="../../d0/d94/classOmniboxViewViews.html#ab6a54ac38f2deb636bf333ab39181422" target="_top" xlink:title=" ">
<polygon fill="white" stroke="black" points="1213,-50 1213,-69 1364,-69 1364,-50 1213,-50"/>
<text text-anchor="middle" x="1288.5" y="-57" font-family="Helvetica,sans-Serif" font-size="10.00">OmniboxViewViews::RevertAll</text>
</a>
</g>
</g>
<!-- Node11&#45;&gt;Node29 -->
<g id="edge36" class="edge">
<title>Node11&#45;&gt;Node29</title>
<path fill="none" stroke="midnightblue" d="M1463.44,-122.09C1440.52,-109.41 1405.35,-91.19 1373,-79.5 1361.64,-75.4 1349.12,-71.89 1337.29,-69.01"/>
<polygon fill="midnightblue" stroke="midnightblue" points="1461.75,-125.15 1472.18,-126.99 1465.17,-119.05 1461.75,-125.15"/>
</g>
<!-- Node13 -->
<g id="node13" class="node">
<title>Node13</title>
<g id="a_node13"><a xlink:href="../../d1/db1/classOmniboxPopupModel.html#acf1ecd019bf8b90655bb4a6c3dd7f8b1" target="_top" xlink:title=" ">
<polygon fill="white" stroke="black" points="1021,-123.5 1021,-153.5 1137,-153.5 1137,-123.5 1021,-123.5"/>
<text text-anchor="start" x="1029" y="-141.5" font-family="Helvetica,sans-Serif" font-size="10.00">OmniboxPopupModel::</text>
<text text-anchor="middle" x="1079" y="-130.5" font-family="Helvetica,sans-Serif" font-size="10.00">TriggerSelectionAction</text>
</a>
</g>
</g>
<!-- Node12&#45;&gt;Node13 -->
<g id="edge14" class="edge">
<title>Node12&#45;&gt;Node13</title>
<path fill="none" stroke="midnightblue" d="M1207.84,-116.94C1184.26,-120.91 1158.92,-125.19 1137.07,-128.87"/>
<polygon fill="midnightblue" stroke="midnightblue" points="1208.55,-120.37 1217.83,-115.25 1207.39,-113.46 1208.55,-120.37"/>
</g>
<!-- Node13&#45;&gt;Node3 -->
<g id="edge22" class="edge">
<title>Node13&#45;&gt;Node3</title>
<path fill="none" stroke="midnightblue" d="M1011.28,-150.56C1003.56,-153.88 996.24,-158.11 990,-163.5 960.49,-188.98 982.9,-217.33 954,-243.5 949.27,-247.79 943.8,-251.37 938.01,-254.36"/>
<polygon fill="midnightblue" stroke="midnightblue" points="1012.72,-153.76 1020.84,-146.94 1010.25,-147.21 1012.72,-153.76"/>
</g>
<!-- Node14 -->
<g id="node14" class="node">
<title>Node14</title>
<g id="a_node14"><a xlink:href="../../d3/d4c/classOmniboxResultView.html#a7bd0ac4077f48f8cc13698e19ed36eb6" target="_top" xlink:title=" ">
<polygon fill="white" stroke="black" points="603.5,-164.5 603.5,-194.5 715.5,-194.5 715.5,-164.5 603.5,-164.5"/>
<text text-anchor="start" x="611.5" y="-182.5" font-family="Helvetica,sans-Serif" font-size="10.00">OmniboxResultView::</text>
<text text-anchor="middle" x="659.5" y="-171.5" font-family="Helvetica,sans-Serif" font-size="10.00">ButtonPressed</text>
</a>
</g>
</g>
<!-- Node13&#45;&gt;Node14 -->
<g id="edge15" class="edge">
<title>Node13&#45;&gt;Node14</title>
<path fill="none" stroke="midnightblue" d="M1010.92,-148.38C992.5,-150.91 972.5,-153.48 954,-155.5 871.16,-164.56 774.82,-171.81 715.76,-175.89"/>
<polygon fill="midnightblue" stroke="midnightblue" points="1011.55,-151.82 1020.98,-146.98 1010.59,-144.89 1011.55,-151.82"/>
</g>
<!-- Node18 -->
<g id="node18" class="node">
<title>Node18</title>
<g id="a_node18"><a xlink:href="../../d3/d0a/classOmniboxSuggestionButtonRowView.html#a35216a3671475e4ee13507b0465d5eb8" target="_top" xlink:title=" ">
<polygon fill="white" stroke="black" points="799,-115.5 799,-145.5 952,-145.5 952,-115.5 799,-115.5"/>
<text text-anchor="start" x="807" y="-133.5" font-family="Helvetica,sans-Serif" font-size="10.00">OmniboxSuggestionButtonRow</text>
<text text-anchor="middle" x="875.5" y="-122.5" font-family="Helvetica,sans-Serif" font-size="10.00">View::ButtonPressed</text>
</a>
</g>
</g>
<!-- Node13&#45;&gt;Node18 -->
<g id="edge19" class="edge">
<title>Node13&#45;&gt;Node18</title>
<path fill="none" stroke="midnightblue" d="M1010.6,-135.82C991.89,-135.08 971.45,-134.27 952.3,-133.51"/>
<polygon fill="midnightblue" stroke="midnightblue" points="1010.67,-139.33 1020.8,-136.23 1010.94,-132.33 1010.67,-139.33"/>
</g>
<!-- Node20 -->
<g id="node20" class="node">
<title>Node20</title>
<g id="a_node20"><a xlink:href="../../d2/dcb/classOmniboxRowView_1_1HeaderView.html#a441ded0bc83346ff1773063183d470f2" target="_top" xlink:title=" ">
<polygon fill="white" stroke="black" points="797,-66.5 797,-96.5 954,-96.5 954,-66.5 797,-66.5"/>
<text text-anchor="start" x="805" y="-84.5" font-family="Helvetica,sans-Serif" font-size="10.00">OmniboxRowView::HeaderView</text>
<text text-anchor="middle" x="875.5" y="-73.5" font-family="Helvetica,sans-Serif" font-size="10.00">::HeaderToggleButtonPressed</text>
</a>
</g>
</g>
<!-- Node13&#45;&gt;Node20 -->
<g id="edge23" class="edge">
<title>Node13&#45;&gt;Node20</title>
<path fill="none" stroke="midnightblue" d="M1014.92,-120.66C987.54,-112.91 955.82,-103.94 929.65,-96.54"/>
<polygon fill="midnightblue" stroke="midnightblue" points="1014.22,-124.1 1024.79,-123.45 1016.12,-117.36 1014.22,-124.1"/>
</g>
<!-- Node23 -->
<g id="node23" class="node">
<title>Node23</title>
<g id="a_node23"><a xlink:href="../../d2/dcb/classOmniboxRowView_1_1HeaderView.html#af9e1207af3e2688cdccfd7b8c1267a3c" target="_top" xlink:title=" ">
<polygon fill="white" stroke="black" points="797,-203.5 797,-233.5 954,-233.5 954,-203.5 797,-203.5"/>
<text text-anchor="start" x="805" y="-221.5" font-family="Helvetica,sans-Serif" font-size="10.00">OmniboxRowView::HeaderView</text>
<text text-anchor="middle" x="875.5" y="-210.5" font-family="Helvetica,sans-Serif" font-size="10.00">::OnMouseReleased</text>
</a>
</g>
</g>
<!-- Node13&#45;&gt;Node23 -->
<g id="edge27" class="edge">
<title>Node13&#45;&gt;Node23</title>
<path fill="none" stroke="midnightblue" d="M1010.86,-155.05C1003.7,-157.56 996.61,-160.37 990,-163.5 972.39,-171.83 971.2,-179.36 954,-188.5 943.55,-194.05 931.84,-199.12 920.76,-203.45"/>
<polygon fill="midnightblue" stroke="midnightblue" points="1012.26,-158.28 1020.66,-151.82 1010.06,-151.63 1012.26,-158.28"/>
</g>
<!-- Node15 -->
<g id="node15" class="node">
<title>Node15</title>
<g id="a_node15"><a xlink:href="../../d3/d4c/classOmniboxResultView.html#a632535684d6941455e8979815a978a44" target="_top" xlink:title=" ">
<polygon fill="white" stroke="black" points="386,-115.5 386,-145.5 498,-145.5 498,-115.5 386,-115.5"/>
<text text-anchor="start" x="394" y="-133.5" font-family="Helvetica,sans-Serif" font-size="10.00">OmniboxResultView::</text>
<text text-anchor="middle" x="442" y="-122.5" font-family="Helvetica,sans-Serif" font-size="10.00">OmniboxResultView</text>
</a>
</g>
</g>
<!-- Node14&#45;&gt;Node15 -->
<g id="edge16" class="edge">
<title>Node14&#45;&gt;Node15</title>
<path fill="none" stroke="midnightblue" d="M593.2,-164.65C562.82,-157.74 527.07,-149.62 498.07,-143.02"/>
<polygon fill="midnightblue" stroke="midnightblue" points="592.76,-168.14 603.28,-166.94 594.31,-161.31 592.76,-168.14"/>
</g>
<!-- Node16 -->
<g id="node16" class="node">
<title>Node16</title>
<g id="a_node16"><a xlink:href="../../d7/d88/classOmniboxPopupContentsView.html#aa8f47263f229af6a469c3bf964b81162" target="_top" xlink:title=" ">
<polygon fill="white" stroke="black" points="181,-91.5 181,-121.5 326,-121.5 326,-91.5 181,-91.5"/>
<text text-anchor="start" x="189" y="-109.5" font-family="Helvetica,sans-Serif" font-size="10.00">OmniboxPopupContentsView</text>
<text text-anchor="middle" x="253.5" y="-98.5" font-family="Helvetica,sans-Serif" font-size="10.00">::UpdatePopupAppearance</text>
</a>
</g>
</g>
<!-- Node15&#45;&gt;Node16 -->
<g id="edge17" class="edge">
<title>Node15&#45;&gt;Node16</title>
<path fill="none" stroke="midnightblue" d="M375.51,-122.07C359.55,-120.02 342.41,-117.81 326.18,-115.72"/>
<polygon fill="midnightblue" stroke="midnightblue" points="375.44,-125.59 385.8,-123.4 376.33,-118.65 375.44,-125.59"/>
</g>
<!-- Node17 -->
<g id="node17" class="node">
<title>Node17</title>
<g id="a_node17"><a xlink:href="../../d7/d88/classOmniboxPopupContentsView.html#a0e658101bc19acb66f6e0915fd6c2fe3" target="_top" xlink:title=" ">
<polygon fill="white" stroke="black" points="0,-91.5 0,-121.5 145,-121.5 145,-91.5 0,-91.5"/>
<text text-anchor="start" x="8" y="-109.5" font-family="Helvetica,sans-Serif" font-size="10.00">OmniboxPopupContentsView</text>
<text text-anchor="middle" x="72.5" y="-98.5" font-family="Helvetica,sans-Serif" font-size="10.00">::OnWidgetBoundsChanged</text>
</a>
</g>
</g>
<!-- Node16&#45;&gt;Node17 -->
<g id="edge18" class="edge">
<title>Node16&#45;&gt;Node17</title>
<path fill="none" stroke="midnightblue" d="M170.96,-106.5C162.36,-106.5 153.67,-106.5 145.2,-106.5"/>
<polygon fill="midnightblue" stroke="midnightblue" points="170.98,-110 180.98,-106.5 170.98,-103 170.98,-110"/>
</g>
<!-- Node19 -->
<g id="node19" class="node">
<title>Node19</title>
<g id="a_node19"><a xlink:href="../../d3/d0a/classOmniboxSuggestionButtonRowView.html#a7272410c3b801796d1c9cbeb37f9b3e7" target="_top" xlink:title=" ">
<polygon fill="white" stroke="black" points="558,-115.5 558,-145.5 761,-145.5 761,-115.5 558,-115.5"/>
<text text-anchor="start" x="566" y="-133.5" font-family="Helvetica,sans-Serif" font-size="10.00">OmniboxSuggestionButtonRow</text>
<text text-anchor="middle" x="659.5" y="-122.5" font-family="Helvetica,sans-Serif" font-size="10.00">View::OmniboxSuggestionButtonRowView</text>
</a>
</g>
</g>
<!-- Node18&#45;&gt;Node19 -->
<g id="edge20" class="edge">
<title>Node18&#45;&gt;Node19</title>
<path fill="none" stroke="midnightblue" d="M788.67,-130.5C779.65,-130.5 770.42,-130.5 761.26,-130.5"/>
<polygon fill="midnightblue" stroke="midnightblue" points="788.75,-134 798.75,-130.5 788.75,-127 788.75,-134"/>
</g>
<!-- Node19&#45;&gt;Node15 -->
<g id="edge21" class="edge">
<title>Node19&#45;&gt;Node15</title>
<path fill="none" stroke="midnightblue" d="M547.59,-130.5C530.45,-130.5 513.4,-130.5 498.21,-130.5"/>
<polygon fill="midnightblue" stroke="midnightblue" points="547.69,-134 557.69,-130.5 547.69,-127 547.69,-134"/>
</g>
<!-- Node21 -->
<g id="node21" class="node">
<title>Node21</title>
<g id="a_node21"><a xlink:href="../../d2/dcb/classOmniboxRowView_1_1HeaderView.html#ad1abf8339bf99de0b39a9bb43111ba93" target="_top" xlink:title=" ">
<polygon fill="white" stroke="black" points="581,-66.5 581,-96.5 738,-96.5 738,-66.5 581,-66.5"/>
<text text-anchor="start" x="589" y="-84.5" font-family="Helvetica,sans-Serif" font-size="10.00">OmniboxRowView::HeaderView</text>
<text text-anchor="middle" x="659.5" y="-73.5" font-family="Helvetica,sans-Serif" font-size="10.00">::HeaderView</text>
</a>
</g>
</g>
<!-- Node20&#45;&gt;Node21 -->
<g id="edge24" class="edge">
<title>Node20&#45;&gt;Node21</title>
<path fill="none" stroke="midnightblue" d="M786.51,-81.5C770.48,-81.5 753.86,-81.5 738.16,-81.5"/>
<polygon fill="midnightblue" stroke="midnightblue" points="786.94,-85 796.94,-81.5 786.94,-78 786.94,-85"/>
</g>
<!-- Node22 -->
<g id="node22" class="node">
<title>Node22</title>
<g id="a_node22"><a xlink:href="../../da/da2/classOmniboxRowView.html#a6add650851301372ee9b8a6671cfa28c" target="_top" xlink:title=" ">
<polygon fill="white" stroke="black" points="362,-75 362,-94 522,-94 522,-75 362,-75"/>
<text text-anchor="middle" x="442" y="-82" font-family="Helvetica,sans-Serif" font-size="10.00">OmniboxRowView::ShowHeader</text>
</a>
</g>
</g>
<!-- Node21&#45;&gt;Node22 -->
<g id="edge25" class="edge">
<title>Node21&#45;&gt;Node22</title>
<path fill="none" stroke="midnightblue" d="M570.32,-82.73C554.36,-82.95 537.81,-83.18 522.14,-83.4"/>
<polygon fill="midnightblue" stroke="midnightblue" points="570.75,-86.22 580.7,-82.58 570.65,-79.22 570.75,-86.22"/>
</g>
<!-- Node22&#45;&gt;Node16 -->
<g id="edge26" class="edge">
<title>Node22&#45;&gt;Node16</title>
<path fill="none" stroke="midnightblue" d="M351.8,-95.02C343.15,-96.04 334.46,-97.07 326.02,-98.06"/>
<polygon fill="midnightblue" stroke="midnightblue" points="352.39,-98.48 361.91,-93.83 351.57,-91.53 352.39,-98.48"/>
</g>
<!-- Node24&#45;&gt;Node3 -->
<g id="edge29" class="edge">
<title>Node24&#45;&gt;Node3</title>
<path fill="none" stroke="midnightblue" d="M1003.28,-206.22C998.7,-208.13 994.23,-210.22 990,-212.5 971.41,-222.51 972.35,-233.06 954,-243.5 946.72,-247.64 938.68,-251.25 930.62,-254.36"/>
<polygon fill="midnightblue" stroke="midnightblue" points="1004.74,-209.4 1012.81,-202.53 1002.22,-202.87 1004.74,-209.4"/>
</g>
<!-- Node25&#45;&gt;Node13 -->
<g id="edge31" class="edge">
<title>Node25&#45;&gt;Node13</title>
<path fill="none" stroke="midnightblue" d="M1200.73,-143.74C1179.29,-142.81 1156.86,-141.83 1137.22,-140.98"/>
<polygon fill="midnightblue" stroke="midnightblue" points="1200.68,-147.24 1210.82,-144.17 1200.99,-140.24 1200.68,-147.24"/>
</g>
<!-- Node26&#45;&gt;Node5 -->
<g id="edge33" class="edge">
<title>Node26&#45;&gt;Node5</title>
<path fill="none" stroke="midnightblue" d="M1024.23,-323.24C1000.05,-328.52 971.23,-334.81 945.49,-340.43"/>
<polygon fill="midnightblue" stroke="midnightblue" points="1025.25,-326.6 1034.28,-321.05 1023.76,-319.76 1025.25,-326.6"/>
</g>
<!-- Node28 -->
<g id="node28" class="node">
<title>Node28</title>
<g id="a_node28"><a xlink:href="../../d0/d94/classOmniboxViewViews.html#a29443b7e10de80e21be533d0a9f5df7f" target="_top" xlink:title=" ">
<polygon fill="white" stroke="black" points="990,-222 990,-241 1168,-241 1168,-222 990,-222"/>
<text text-anchor="middle" x="1079" y="-229" font-family="Helvetica,sans-Serif" font-size="10.00">OmniboxViewViews::OnTabChanged</text>
</a>
</g>
</g>
<!-- Node27&#45;&gt;Node28 -->
<g id="edge35" class="edge">
<title>Node27&#45;&gt;Node28</title>
<path fill="none" stroke="midnightblue" d="M1208.11,-230.27C1195.11,-230.39 1181.56,-230.52 1168.36,-230.65"/>
<polygon fill="midnightblue" stroke="midnightblue" points="1208.44,-233.76 1218.41,-230.17 1208.37,-226.76 1208.44,-233.76"/>
</g>
<!-- Node30 -->
<g id="node30" class="node">
<title>Node30</title>
<g id="a_node30"><a xlink:href="../../d0/d94/classOmniboxViewViews.html#a0ff89bd4e88c1746caa381d559266a4c" target="_top" xlink:title=" ">
<polygon fill="white" stroke="black" points="1009,-54 1009,-73 1149,-73 1149,-54 1009,-54"/>
<text text-anchor="middle" x="1079" y="-61" font-family="Helvetica,sans-Serif" font-size="10.00">OmniboxViewViews::OnBlur</text>
</a>
</g>
</g>
<!-- Node29&#45;&gt;Node30 -->
<g id="edge37" class="edge">
<title>Node29&#45;&gt;Node30</title>
<path fill="none" stroke="midnightblue" d="M1202.52,-61.14C1184.76,-61.48 1166.23,-61.84 1149.12,-62.17"/>
<polygon fill="midnightblue" stroke="midnightblue" points="1202.95,-64.63 1212.88,-60.94 1202.82,-57.63 1202.95,-64.63"/>
</g>
<!-- Node31 -->
<g id="node31" class="node">
<title>Node31</title>
<g id="a_node31"><a xlink:href="../../d0/d94/classOmniboxViewViews.html#a564d40cfb08dd21f090a41775e984636" target="_top" xlink:title=" ">
<polygon fill="white" stroke="black" points="1008,-16 1008,-35 1150,-35 1150,-16 1008,-16"/>
<text text-anchor="middle" x="1079" y="-23" font-family="Helvetica,sans-Serif" font-size="10.00">OmniboxViewViews::Update</text>
</a>
</g>
</g>
<!-- Node29&#45;&gt;Node31 -->
<g id="edge38" class="edge">
<title>Node29&#45;&gt;Node31</title>
<path fill="none" stroke="midnightblue" d="M1219.52,-48.36C1193.19,-44.05 1163.36,-39.16 1138.06,-35.01"/>
<polygon fill="midnightblue" stroke="midnightblue" points="1218.99,-51.82 1229.42,-49.98 1220.12,-44.91 1218.99,-51.82"/>
</g>
<!-- Node32 -->
<g id="node32" class="node">
<title>Node32</title>
<g id="a_node32"><a xlink:href="../../d0/d94/classOmniboxViewViews.html#ae60b252829545c1772018fe11927182b" target="_top" xlink:title=" ">
<polygon fill="white" stroke="black" points="801,-10.5 801,-40.5 950,-40.5 950,-10.5 801,-10.5"/>
<text text-anchor="start" x="809" y="-28.5" font-family="Helvetica,sans-Serif" font-size="10.00">OmniboxViewViews::Omnibox</text>
<text text-anchor="middle" x="875.5" y="-17.5" font-family="Helvetica,sans-Serif" font-size="10.00">ViewViews</text>
</a>
</g>
</g>
<!-- Node31&#45;&gt;Node32 -->
<g id="edge39" class="edge">
<title>Node31&#45;&gt;Node32</title>
<path fill="none" stroke="midnightblue" d="M997.63,-25.5C981.98,-25.5 965.63,-25.5 950.21,-25.5"/>
<polygon fill="midnightblue" stroke="midnightblue" points="997.81,-29 1007.81,-25.5 997.81,-22 997.81,-29"/>
</g>
<!-- Node34 -->
<g id="node34" class="node">
<title>Node34</title>
<g id="a_node34"><a xlink:href="../../d0/d94/classOmniboxViewViews.html#acce156344df7256bce712db64896eaf6" target="_top" xlink:title=" ">
<polygon fill="white" stroke="black" points="1204,-0.5 1204,-30.5 1373,-30.5 1373,-0.5 1204,-0.5"/>
<text text-anchor="start" x="1212" y="-18.5" font-family="Helvetica,sans-Serif" font-size="10.00">OmniboxViewViews::OnTemporary</text>
<text text-anchor="middle" x="1288.5" y="-7.5" font-family="Helvetica,sans-Serif" font-size="10.00">TextMaybeChanged</text>
</a>
</g>
</g>
<!-- Node33&#45;&gt;Node34 -->
<g id="edge41" class="edge">
<title>Node33&#45;&gt;Node34</title>
<path fill="none" stroke="midnightblue" d="M1401.91,-37.53C1390,-35.2 1377.83,-32.81 1366.11,-30.51"/>
<polygon fill="midnightblue" stroke="midnightblue" points="1401.36,-40.99 1411.85,-39.48 1402.71,-34.12 1401.36,-40.99"/>
</g>
</g>
</svg>
