<?xml version="1.0" encoding="UTF-8" standalone="no"?>
<!DOCTYPE svg PUBLIC "-//W3C//DTD SVG 1.1//EN"
 "http://www.w3.org/Graphics/SVG/1.1/DTD/svg11.dtd">
<!-- Generated by graphviz version 2.43.0 (0)
 -->
<!-- Title: OmniboxView::StripJavascriptSchemas Pages: 1 -->
<!--zoomable 306 -->
<svg id="main" version="1.1" xmlns="http://www.w3.org/2000/svg" xmlns:xlink="http://www.w3.org/1999/xlink" xml:space="preserve" onload="init(evt)">
<style type="text/css"><![CDATA[
.edge:hover path { stroke: red; }
.edge:hover polygon { stroke: red; fill: red; }
]]></style>
<script type="text/javascript"><![CDATA[
var edges = document.getElementsByTagName('g');
if (edges && edges.length) {
  for (var i=0;i<edges.length;i++) {
    if (edges[i].id.substr(0,4)=='edge') {
      edges[i].setAttribute('class','edge');
    }
  }
}
]]></script>
        <defs>
                <circle id="rim" cx="0" cy="0" r="7"/>
                <circle id="rim2" cx="0" cy="0" r="3.5"/>
                <g id="zoomPlus">
                        <use xlink:href="#rim" fill="#404040">
                                <set attributeName="fill" to="#808080" begin="zoomplus.mouseover" end="zoomplus.mouseout"/>
                        </use>
                        <path d="M-4,0h8M0,-4v8" fill="none" stroke="white" stroke-width="1.5" pointer-events="none"/>
                </g>
                <g id="zoomMin">
                        <use xlink:href="#rim" fill="#404040">
                                <set attributeName="fill" to="#808080" begin="zoomminus.mouseover" end="zoomminus.mouseout"/>
                        </use>
                        <path d="M-4,0h8" fill="none" stroke="white" stroke-width="1.5" pointer-events="none"/>
                </g>
                <g id="dirArrow">
                        <path fill="none" stroke="white" stroke-width="1.5" d="M0,-3.0v7 M-2.5,-0.5L0,-3.0L2.5,-0.5"/>
                </g>
               <g id="resetDef">
                       <use xlink:href="#rim2" fill="#404040">
                               <set attributeName="fill" to="#808080" begin="reset.mouseover" end="reset.mouseout"/>
                       </use>
               </g>
        </defs>

<script type="text/javascript">
var viewWidth = 923;
var viewHeight = 306;
var sectionId = 'dynsection-36';
</script>
<script xlink:href="../../svgpan.js"/>
<svg id="graph" class="graph">
<g id="viewport">
<title>OmniboxView::StripJavascriptSchemas</title>
<polygon fill="white" stroke="transparent" points="-4,4 -4,-302.13 919,-302.13 919,4 -4,4"/>
<!-- Node1 -->
<g id="node1" class="node">
<title>Node1</title>
<g id="a_node1"><a xlink:title=" ">
<polygon fill="#bfbfbf" stroke="black" points="766,-88 766,-118 915,-118 915,-88 766,-88"/>
<text text-anchor="start" x="774" y="-106" font-family="Helvetica,sans-Serif" font-size="10.00">OmniboxView::StripJavascript</text>
<text text-anchor="middle" x="840.5" y="-95" font-family="Helvetica,sans-Serif" font-size="10.00">Schemas</text>
</a>
</g>
</g>
<!-- Node2 -->
<g id="node2" class="node">
<title>Node2</title>
<g id="a_node2"><a xlink:href="../../d1/d5e/clipboard__utils_8cc.html#acfa63ebdd0470fe88413a3273b69e42f" target="_top" xlink:title=" ">
<polygon fill="white" stroke="black" points="601,-166.5 601,-185.5 693,-185.5 693,-166.5 601,-166.5"/>
<text text-anchor="middle" x="647" y="-173.5" font-family="Helvetica,sans-Serif" font-size="10.00">GetClipboardText</text>
</a>
</g>
</g>
<!-- Node1&#45;&gt;Node2 -->
<g id="edge1" class="edge">
<title>Node1&#45;&gt;Node2</title>
<path fill="none" stroke="midnightblue" d="M790.09,-121.83C752.6,-136.13 702.61,-155.18 673.02,-166.46"/>
<polygon fill="midnightblue" stroke="midnightblue" points="791.72,-124.96 799.82,-118.13 789.23,-118.42 791.72,-124.96"/>
</g>
<!-- Node10 -->
<g id="node10" class="node">
<title>Node10</title>
<g id="a_node10"><a xlink:href="../../d0/d94/classOmniboxViewViews.html#a9d361f37d8551d36a71405f883054bcd" target="_top" xlink:title=" ">
<polygon fill="white" stroke="black" points="564,-44.5 564,-63.5 730,-63.5 730,-44.5 564,-44.5"/>
<text text-anchor="middle" x="647" y="-51.5" font-family="Helvetica,sans-Serif" font-size="10.00">OmniboxViewViews::PerformDrop</text>
</a>
</g>
</g>
<!-- Node1&#45;&gt;Node10 -->
<g id="edge12" class="edge">
<title>Node1&#45;&gt;Node10</title>
<path fill="none" stroke="midnightblue" d="M770.71,-85.4C741.88,-78.02 709.49,-69.73 685.24,-63.53"/>
<polygon fill="midnightblue" stroke="midnightblue" points="770.19,-88.88 780.74,-87.97 771.92,-82.1 770.19,-88.88"/>
</g>
<!-- Node3 -->
<g id="node3" class="node">
<title>Node3</title>
<g id="a_node3"><a xlink:href="../../d0/d94/classOmniboxViewViews.html#a487a0ced2870997b0f88d8dcab9a4f0e" target="_top" xlink:title=" ">
<polygon fill="white" stroke="black" points="0,-219 0,-249 146,-249 146,-219 0,-219"/>
<text text-anchor="start" x="8" y="-237" font-family="Helvetica,sans-Serif" font-size="10.00">OmniboxViewViews::Execute</text>
<text text-anchor="middle" x="73" y="-226" font-family="Helvetica,sans-Serif" font-size="10.00">Command</text>
</a>
</g>
</g>
<!-- Node2&#45;&gt;Node3 -->
<g id="edge2" class="edge">
<title>Node2&#45;&gt;Node3</title>
<path fill="none" stroke="midnightblue" d="M632.31,-193.39C612.36,-217.16 572.76,-258.71 528,-275 383.35,-327.64 196.43,-276.63 114.97,-249.08"/>
<polygon fill="midnightblue" stroke="midnightblue" points="635.13,-195.47 638.75,-185.51 629.71,-191.04 635.13,-195.47"/>
</g>
<!-- Node4 -->
<g id="node4" class="node">
<title>Node4</title>
<g id="a_node4"><a xlink:href="../../d0/d94/classOmniboxViewViews.html#a1aca74603403828d3a9c391b61b2ae0f" target="_top" xlink:title=" ">
<polygon fill="white" stroke="black" points="371.5,-235 371.5,-265 520.5,-265 520.5,-235 371.5,-235"/>
<text text-anchor="start" x="379.5" y="-253" font-family="Helvetica,sans-Serif" font-size="10.00">OmniboxViewViews::GetLabel</text>
<text text-anchor="middle" x="446" y="-242" font-family="Helvetica,sans-Serif" font-size="10.00">ForCommandId</text>
</a>
</g>
</g>
<!-- Node2&#45;&gt;Node4 -->
<g id="edge3" class="edge">
<title>Node2&#45;&gt;Node4</title>
<path fill="none" stroke="midnightblue" d="M616.25,-189.71C592.61,-200.33 558.55,-215.04 528,-226 519.3,-229.12 509.98,-232.16 500.87,-234.97"/>
<polygon fill="midnightblue" stroke="midnightblue" points="617.73,-192.88 625.39,-185.57 614.84,-186.51 617.73,-192.88"/>
</g>
<!-- Node5 -->
<g id="node5" class="node">
<title>Node5</title>
<g id="a_node5"><a xlink:href="../../d0/d94/classOmniboxViewViews.html#a82a27e210a45aaa9b83ce62f84e4ca4d" target="_top" xlink:title=" ">
<polygon fill="white" stroke="black" points="364,-186 364,-216 528,-216 528,-186 364,-186"/>
<text text-anchor="start" x="372" y="-204" font-family="Helvetica,sans-Serif" font-size="10.00">OmniboxViewViews::IsCommand</text>
<text text-anchor="middle" x="446" y="-193" font-family="Helvetica,sans-Serif" font-size="10.00">IdEnabled</text>
</a>
</g>
</g>
<!-- Node2&#45;&gt;Node5 -->
<g id="edge4" class="edge">
<title>Node2&#45;&gt;Node5</title>
<path fill="none" stroke="midnightblue" d="M590.73,-182.94C571.42,-185.37 549.33,-188.14 528.35,-190.78"/>
<polygon fill="midnightblue" stroke="midnightblue" points="591.36,-186.39 600.84,-181.67 590.49,-179.45 591.36,-186.39"/>
</g>
<!-- Node6 -->
<g id="node6" class="node">
<title>Node6</title>
<g id="a_node6"><a xlink:href="../../d0/d94/classOmniboxViewViews.html#a2c9c7e60059768c0141bd7c95a9b5a48" target="_top" xlink:title=" ">
<polygon fill="white" stroke="black" points="377.5,-88 377.5,-118 514.5,-118 514.5,-88 377.5,-88"/>
<text text-anchor="start" x="385.5" y="-106" font-family="Helvetica,sans-Serif" font-size="10.00">OmniboxViewViews::IsText</text>
<text text-anchor="middle" x="446" y="-95" font-family="Helvetica,sans-Serif" font-size="10.00">EditCommandEnabled</text>
</a>
</g>
</g>
<!-- Node2&#45;&gt;Node6 -->
<g id="edge5" class="edge">
<title>Node2&#45;&gt;Node6</title>
<path fill="none" stroke="midnightblue" d="M615.79,-162.42C592.15,-152.05 558.32,-137.75 528,-127 519.29,-123.91 509.96,-120.89 500.85,-118.09"/>
<polygon fill="midnightblue" stroke="midnightblue" points="614.38,-165.62 624.95,-166.46 617.21,-159.22 614.38,-165.62"/>
</g>
<!-- Node9 -->
<g id="node9" class="node">
<title>Node9</title>
<g id="a_node9"><a xlink:href="../../d0/d94/classOmniboxViewViews.html#af593bb600ecfa2ed731497a260451b47" target="_top" xlink:title=" ">
<polygon fill="white" stroke="black" points="365,-137 365,-167 527,-167 527,-137 365,-137"/>
<text text-anchor="start" x="373" y="-155" font-family="Helvetica,sans-Serif" font-size="10.00">OmniboxViewViews::OnOmnibox</text>
<text text-anchor="middle" x="446" y="-144" font-family="Helvetica,sans-Serif" font-size="10.00">Paste</text>
</a>
</g>
</g>
<!-- Node2&#45;&gt;Node9 -->
<g id="edge10" class="edge">
<title>Node2&#45;&gt;Node9</title>
<path fill="none" stroke="midnightblue" d="M590.83,-169.35C571.14,-166.97 548.53,-164.24 527.16,-161.67"/>
<polygon fill="midnightblue" stroke="midnightblue" points="590.5,-172.83 600.84,-170.55 591.33,-165.88 590.5,-172.83"/>
</g>
<!-- Node7 -->
<g id="node7" class="node">
<title>Node7</title>
<g id="a_node7"><a xlink:href="../../d0/d94/classOmniboxViewViews.html#ae3ebda306ffa960bb7a3a1ebe7f7fc76" target="_top" xlink:title=" ">
<polygon fill="white" stroke="black" points="182,-135 182,-165 328,-165 328,-135 182,-135"/>
<text text-anchor="start" x="190" y="-153" font-family="Helvetica,sans-Serif" font-size="10.00">OmniboxViewViews::Execute</text>
<text text-anchor="middle" x="255" y="-142" font-family="Helvetica,sans-Serif" font-size="10.00">TextEditCommand</text>
</a>
</g>
</g>
<!-- Node6&#45;&gt;Node7 -->
<g id="edge6" class="edge">
<title>Node6&#45;&gt;Node7</title>
<path fill="none" stroke="midnightblue" d="M374.79,-120.46C355.61,-125.23 334.98,-130.36 316.4,-134.98"/>
<polygon fill="midnightblue" stroke="midnightblue" points="375.82,-123.81 384.68,-118 374.13,-117.02 375.82,-123.81"/>
</g>
<!-- Node8 -->
<g id="node8" class="node">
<title>Node8</title>
<g id="a_node8"><a xlink:href="../../d0/d94/classOmniboxViewViews.html#a5a64c1e16631c3301fb57307402784dc" target="_top" xlink:title=" ">
<polygon fill="white" stroke="black" points="2.5,-112 2.5,-142 143.5,-142 143.5,-112 2.5,-112"/>
<text text-anchor="start" x="10.5" y="-130" font-family="Helvetica,sans-Serif" font-size="10.00">OmniboxViewViews::Handle</text>
<text text-anchor="middle" x="73" y="-119" font-family="Helvetica,sans-Serif" font-size="10.00">KeyEvent</text>
</a>
</g>
</g>
<!-- Node6&#45;&gt;Node8 -->
<g id="edge9" class="edge">
<title>Node6&#45;&gt;Node8</title>
<path fill="none" stroke="midnightblue" d="M367.03,-108.04C301.01,-112.31 207.22,-118.38 143.67,-122.49"/>
<polygon fill="midnightblue" stroke="midnightblue" points="367.63,-111.51 377.38,-107.37 367.18,-104.53 367.63,-111.51"/>
</g>
<!-- Node7&#45;&gt;Node3 -->
<g id="edge7" class="edge">
<title>Node7&#45;&gt;Node3</title>
<path fill="none" stroke="midnightblue" d="M212.61,-169.31C180.26,-184.41 135.94,-205.09 106.2,-218.97"/>
<polygon fill="midnightblue" stroke="midnightblue" points="214.24,-172.42 221.82,-165.02 211.28,-166.07 214.24,-172.42"/>
</g>
<!-- Node7&#45;&gt;Node8 -->
<g id="edge8" class="edge">
<title>Node7&#45;&gt;Node8</title>
<path fill="none" stroke="midnightblue" d="M171.69,-139.48C162.29,-138.28 152.77,-137.07 143.56,-135.89"/>
<polygon fill="midnightblue" stroke="midnightblue" points="171.46,-142.98 181.82,-140.78 172.35,-136.04 171.46,-142.98"/>
</g>
<!-- Node9&#45;&gt;Node7 -->
<g id="edge11" class="edge">
<title>Node9&#45;&gt;Node7</title>
<path fill="none" stroke="midnightblue" d="M354.8,-151.05C345.88,-150.95 336.9,-150.86 328.18,-150.76"/>
<polygon fill="midnightblue" stroke="midnightblue" points="354.81,-154.55 364.85,-151.15 354.88,-147.55 354.81,-154.55"/>
</g>
<!-- Node11 -->
<g id="node11" class="node">
<title>Node11</title>
<g id="a_node11"><a xlink:href="../../d0/d94/classOmniboxViewViews.html#a87782fc4f0196aa844bf101f6f350a99" target="_top" xlink:title=" ">
<polygon fill="white" stroke="black" points="376,-39 376,-69 516,-69 516,-39 376,-39"/>
<text text-anchor="start" x="384" y="-57" font-family="Helvetica,sans-Serif" font-size="10.00">OmniboxViewViews::Create</text>
<text text-anchor="middle" x="446" y="-46" font-family="Helvetica,sans-Serif" font-size="10.00">DropCallback</text>
</a>
</g>
</g>
<!-- Node10&#45;&gt;Node11 -->
<g id="edge13" class="edge">
<title>Node10&#45;&gt;Node11</title>
<path fill="none" stroke="midnightblue" d="M553.82,-54C541.17,-54 528.37,-54 516.23,-54"/>
<polygon fill="midnightblue" stroke="midnightblue" points="553.91,-57.5 563.91,-54 553.91,-50.5 553.91,-57.5"/>
</g>
<!-- Node12 -->
<g id="node12" class="node">
<title>Node12</title>
<g id="a_node12"><a xlink:href="../../d0/d94/classOmniboxViewViews.html#aaedb3612ac83dde33bb4792043a44186" target="_top" xlink:title=" ">
<polygon fill="white" stroke="black" points="374,-0.5 374,-19.5 518,-19.5 518,-0.5 374,-0.5"/>
<text text-anchor="middle" x="446" y="-7.5" font-family="Helvetica,sans-Serif" font-size="10.00">OmniboxViewViews::OnDrop</text>
</a>
</g>
</g>
<!-- Node10&#45;&gt;Node12 -->
<g id="edge14" class="edge">
<title>Node10&#45;&gt;Node12</title>
<path fill="none" stroke="midnightblue" d="M592.7,-42.22C560.58,-35.11 520.2,-26.18 490.1,-19.53"/>
<polygon fill="midnightblue" stroke="midnightblue" points="592.3,-45.71 602.82,-44.45 593.81,-38.88 592.3,-45.71"/>
</g>
</g>
</svg>
        <g id="navigator" transform="translate(0 0)" fill="#404254">
                <rect fill="#f2f5e9" fill-opacity="0.5" stroke="#606060" stroke-width=".5" x="0" y="0" width="60" height="60"/>
                <use id="zoomplus" xlink:href="#zoomPlus" x="17" y="9" onmousedown="handleZoom(evt,'in')"/>
                <use id="zoomminus" xlink:href="#zoomMin" x="42" y="9" onmousedown="handleZoom(evt,'out')"/>
                <use id="reset" xlink:href="#resetDef" x="30" y="36" onmousedown="handleReset()"/>
                <g id="arrowUp" xlink:href="#dirArrow" transform="translate(30 24)" onmousedown="handlePan(0,-1)">
                  <use xlink:href="#rim" fill="#404040">
                        <set attributeName="fill" to="#808080" begin="arrowUp.mouseover" end="arrowUp.mouseout"/>
                  </use>
                  <path fill="none" stroke="white" stroke-width="1.5" d="M0,-3.0v7 M-2.5,-0.5L0,-3.0L2.5,-0.5"/>
                </g>
                <g id="arrowRight" xlink:href="#dirArrow" transform="rotate(90) translate(36 -43)" onmousedown="handlePan(1,0)">
                  <use xlink:href="#rim" fill="#404040">
                        <set attributeName="fill" to="#808080" begin="arrowRight.mouseover" end="arrowRight.mouseout"/>
                  </use>
                  <path fill="none" stroke="white" stroke-width="1.5" d="M0,-3.0v7 M-2.5,-0.5L0,-3.0L2.5,-0.5"/>
                </g>
                <g id="arrowDown" xlink:href="#dirArrow" transform="rotate(180) translate(-30 -48)" onmousedown="handlePan(0,1)">
                  <use xlink:href="#rim" fill="#404040">
                        <set attributeName="fill" to="#808080" begin="arrowDown.mouseover" end="arrowDown.mouseout"/>
                  </use>
                  <path fill="none" stroke="white" stroke-width="1.5" d="M0,-3.0v7 M-2.5,-0.5L0,-3.0L2.5,-0.5"/>
                </g>
                <g id="arrowLeft" xlink:href="#dirArrow" transform="rotate(270) translate(-36 17)" onmousedown="handlePan(-1,0)">
                  <use xlink:href="#rim" fill="#404040">
                        <set attributeName="fill" to="#808080" begin="arrowLeft.mouseover" end="arrowLeft.mouseout"/>
                  </use>
                  <path fill="none" stroke="white" stroke-width="1.5" d="M0,-3.0v7 M-2.5,-0.5L0,-3.0L2.5,-0.5"/>
                </g>
        </g>
        <svg viewBox="0 0 15 15" width="100%" height="30px" preserveAspectRatio="xMaxYMin meet">
         <g id="arrow_out" transform="scale(0.3 0.3)">
          <a xlink:href="classOmniboxView_ac2a781a8536f8a589f94d3b8cea72a08_icgraph_org.svg" target="_base">
           <rect id="button" ry="5" rx="5" y="6" x="6" height="38" width="38"
                fill="#f2f5e9" fill-opacity="0.5" stroke="#606060" stroke-width="1.0"/>
           <path id="arrow"
             d="M 11.500037,31.436501 C 11.940474,20.09759 22.043105,11.32322 32.158766,21.979434 L 37.068811,17.246167 C 37.068811,17.246167 37.088388,32 37.088388,32 L 22.160133,31.978069 C 22.160133,31.978069 26.997745,27.140456 26.997745,27.140456 C 18.528582,18.264221 13.291696,25.230495 11.500037,31.436501 z"
             style="fill:#404040;"/>
          </a>
         </g>
        </svg>
</svg>
