<?xml version="1.0" encoding="UTF-8" standalone="no"?>
<!DOCTYPE svg PUBLIC "-//W3C//DTD SVG 1.1//EN"
 "http://www.w3.org/Graphics/SVG/1.1/DTD/svg11.dtd">
<!-- Generated by graphviz version 2.43.0 (0)
 -->
<!-- Title: OmniboxPedalCreateGoogleDoc Pages: 1 -->
<svg width="166pt" height="263pt"
 viewBox="0.00 0.00 166.00 263.00" xmlns="http://www.w3.org/2000/svg" xmlns:xlink="http://www.w3.org/1999/xlink">
<g id="graph0" class="graph" transform="scale(1 1) rotate(0) translate(4 259)">
<title>OmniboxPedalCreateGoogleDoc</title>
<polygon fill="white" stroke="transparent" points="-4,4 -4,-259 162,-259 162,4 -4,4"/>
<!-- Node1 -->
<g id="node1" class="node">
<title>Node1</title>
<g id="a_node1"><a xlink:title=" ">
<polygon fill="#bfbfbf" stroke="black" points="0,-0.5 0,-19.5 158,-19.5 158,-0.5 0,-0.5"/>
<text text-anchor="middle" x="79" y="-7.5" font-family="Helvetica,sans-Serif" font-size="10.00">OmniboxPedalCreateGoogleDoc</text>
</a>
</g>
</g>
<!-- Node2 -->
<g id="node2" class="node">
<title>Node2</title>
<g id="a_node2"><a xlink:href="../../d8/d15/classOmniboxPedalAuthRequired.html" target="_top" xlink:title=" ">
<polygon fill="white" stroke="black" points="9,-56.5 9,-75.5 149,-75.5 149,-56.5 9,-56.5"/>
<text text-anchor="middle" x="79" y="-63.5" font-family="Helvetica,sans-Serif" font-size="10.00">OmniboxPedalAuthRequired</text>
</a>
</g>
</g>
<!-- Node2&#45;&gt;Node1 -->
<g id="edge1" class="edge">
<title>Node2&#45;&gt;Node1</title>
<path fill="none" stroke="midnightblue" d="M79,-45.8C79,-36.91 79,-26.78 79,-19.75"/>
<polygon fill="midnightblue" stroke="midnightblue" points="75.5,-46.08 79,-56.08 82.5,-46.08 75.5,-46.08"/>
</g>
<!-- Node3 -->
<g id="node3" class="node">
<title>Node3</title>
<g id="a_node3"><a xlink:href="../../d4/de9/classOmniboxPedal.html" target="_top" xlink:title=" ">
<polygon fill="white" stroke="black" points="39,-112.5 39,-131.5 119,-131.5 119,-112.5 39,-112.5"/>
<text text-anchor="middle" x="79" y="-119.5" font-family="Helvetica,sans-Serif" font-size="10.00">OmniboxPedal</text>
</a>
</g>
</g>
<!-- Node3&#45;&gt;Node2 -->
<g id="edge2" class="edge">
<title>Node3&#45;&gt;Node2</title>
<path fill="none" stroke="midnightblue" d="M79,-101.8C79,-92.91 79,-82.78 79,-75.75"/>
<polygon fill="midnightblue" stroke="midnightblue" points="75.5,-102.08 79,-112.08 82.5,-102.08 75.5,-102.08"/>
</g>
<!-- Node4 -->
<g id="node4" class="node">
<title>Node4</title>
<g id="a_node4"><a xlink:href="../../d9/d8f/classOmniboxAction.html" target="_top" xlink:title=" ">
<polygon fill="white" stroke="black" points="37.5,-168.5 37.5,-187.5 120.5,-187.5 120.5,-168.5 37.5,-168.5"/>
<text text-anchor="middle" x="79" y="-175.5" font-family="Helvetica,sans-Serif" font-size="10.00">OmniboxAction</text>
</a>
</g>
</g>
<!-- Node4&#45;&gt;Node3 -->
<g id="edge3" class="edge">
<title>Node4&#45;&gt;Node3</title>
<path fill="none" stroke="midnightblue" d="M79,-157.8C79,-148.91 79,-138.78 79,-131.75"/>
<polygon fill="midnightblue" stroke="midnightblue" points="75.5,-158.08 79,-168.08 82.5,-158.08 75.5,-158.08"/>
</g>
<!-- Node5 -->
<g id="node5" class="node">
<title>Node5</title>
<g id="a_node5"><a xlink:title=" ">
<polygon fill="white" stroke="#bfbfbf" points="7,-224.5 7,-254.5 151,-254.5 151,-224.5 7,-224.5"/>
<text text-anchor="start" x="15" y="-242.5" font-family="Helvetica,sans-Serif" font-size="10.00">base::RefCounted&lt; Omnibox</text>
<text text-anchor="middle" x="79" y="-231.5" font-family="Helvetica,sans-Serif" font-size="10.00">Action &gt;</text>
</a>
</g>
</g>
<!-- Node5&#45;&gt;Node4 -->
<g id="edge4" class="edge">
<title>Node5&#45;&gt;Node4</title>
<path fill="none" stroke="midnightblue" d="M79,-214.29C79,-204.86 79,-194.65 79,-187.66"/>
<polygon fill="midnightblue" stroke="midnightblue" points="75.5,-214.4 79,-224.4 82.5,-214.4 75.5,-214.4"/>
</g>
</g>
</svg>
