<?xml version="1.0" encoding="UTF-8" standalone="no"?>
<!DOCTYPE svg PUBLIC "-//W3C//DTD SVG 1.1//EN"
 "http://www.w3.org/Graphics/SVG/1.1/DTD/svg11.dtd">
<!-- Generated by graphviz version 2.43.0 (0)
 -->
<!-- Title: HistoryURLProvider::FixupExactSuggestion Pages: 1 -->
<!--zoomable 518 -->
<svg id="main" version="1.1" xmlns="http://www.w3.org/2000/svg" xmlns:xlink="http://www.w3.org/1999/xlink" xml:space="preserve" onload="init(evt)">
<style type="text/css"><![CDATA[
.edge:hover path { stroke: red; }
.edge:hover polygon { stroke: red; fill: red; }
]]></style>
<script type="text/javascript"><![CDATA[
var edges = document.getElementsByTagName('g');
if (edges && edges.length) {
  for (var i=0;i<edges.length;i++) {
    if (edges[i].id.substr(0,4)=='edge') {
      edges[i].setAttribute('class','edge');
    }
  }
}
]]></script>
        <defs>
                <circle id="rim" cx="0" cy="0" r="7"/>
                <circle id="rim2" cx="0" cy="0" r="3.5"/>
                <g id="zoomPlus">
                        <use xlink:href="#rim" fill="#404040">
                                <set attributeName="fill" to="#808080" begin="zoomplus.mouseover" end="zoomplus.mouseout"/>
                        </use>
                        <path d="M-4,0h8M0,-4v8" fill="none" stroke="white" stroke-width="1.5" pointer-events="none"/>
                </g>
                <g id="zoomMin">
                        <use xlink:href="#rim" fill="#404040">
                                <set attributeName="fill" to="#808080" begin="zoomminus.mouseover" end="zoomminus.mouseout"/>
                        </use>
                        <path d="M-4,0h8" fill="none" stroke="white" stroke-width="1.5" pointer-events="none"/>
                </g>
                <g id="dirArrow">
                        <path fill="none" stroke="white" stroke-width="1.5" d="M0,-3.0v7 M-2.5,-0.5L0,-3.0L2.5,-0.5"/>
                </g>
               <g id="resetDef">
                       <use xlink:href="#rim2" fill="#404040">
                               <set attributeName="fill" to="#808080" begin="reset.mouseover" end="reset.mouseout"/>
                       </use>
               </g>
        </defs>

<script type="text/javascript">
var viewWidth = 1153;
var viewHeight = 518;
var sectionId = 'dynsection-16';
</script>
<script xlink:href="../../svgpan.js"/>
<svg id="graph" class="graph">
<g id="viewport">
<title>HistoryURLProvider::FixupExactSuggestion</title>
<polygon fill="white" stroke="transparent" points="-4,4 -4,-513.93 1149,-513.93 1149,4 -4,4"/>
<!-- Node1 -->
<g id="node1" class="node">
<title>Node1</title>
<g id="a_node1"><a xlink:title=" ">
<polygon fill="#bfbfbf" stroke="black" points="0,-230.43 0,-260.43 121,-260.43 121,-230.43 0,-230.43"/>
<text text-anchor="start" x="8" y="-248.43" font-family="Helvetica,sans-Serif" font-size="10.00">HistoryURLProvider</text>
<text text-anchor="middle" x="60.5" y="-237.43" font-family="Helvetica,sans-Serif" font-size="10.00">::FixupExactSuggestion</text>
</a>
</g>
</g>
<!-- Node2 -->
<g id="node2" class="node">
<title>Node2</title>
<g id="a_node2"><a xlink:href="../../da/dad/classHistoryURLProvider.html#a0cb141b156acb0766862f37bf0836b4a" target="_top" xlink:title=" ">
<polygon fill="white" stroke="black" points="158.5,-381.43 158.5,-411.43 276.5,-411.43 276.5,-381.43 158.5,-381.43"/>
<text text-anchor="start" x="166.5" y="-399.43" font-family="Helvetica,sans-Serif" font-size="10.00">HistoryURLProvider</text>
<text text-anchor="middle" x="217.5" y="-388.43" font-family="Helvetica,sans-Serif" font-size="10.00">::AsKnownIntranetURL</text>
</a>
</g>
</g>
<!-- Node1&#45;&gt;Node2 -->
<g id="edge1" class="edge">
<title>Node1&#45;&gt;Node2</title>
<path fill="none" stroke="midnightblue" d="M70.37,-260.56C85.5,-285.34 118.45,-334.94 157,-366.43 161.37,-370 166.23,-373.29 171.24,-376.29"/>
<polygon fill="midnightblue" stroke="midnightblue" points="169.9,-379.55 180.34,-381.37 173.31,-373.44 169.9,-379.55"/>
</g>
<!-- Node6 -->
<g id="node6" class="node">
<title>Node6</title>
<g id="a_node6"><a xlink:href="../../d9/df6/classAutocompleteInput.html#ac055dacf90a052c92e2bfe5c01328a95" target="_top" xlink:title=" ">
<polygon fill="white" stroke="black" points="315,-342.93 315,-361.93 436,-361.93 436,-342.93 315,-342.93"/>
<text text-anchor="middle" x="375.5" y="-349.93" font-family="Helvetica,sans-Serif" font-size="10.00">AutocompleteInput::text</text>
</a>
</g>
</g>
<!-- Node1&#45;&gt;Node6 -->
<g id="edge28" class="edge">
<title>Node1&#45;&gt;Node6</title>
<path fill="none" stroke="midnightblue" d="M76.17,-260.49C93.71,-277.52 124.76,-304.65 157,-318.43 203.79,-338.42 260.73,-346.82 304.62,-350.27"/>
<polygon fill="midnightblue" stroke="midnightblue" points="304.4,-353.76 314.63,-350.99 304.9,-346.78 304.4,-353.76"/>
</g>
<!-- Node7 -->
<g id="node7" class="node">
<title>Node7</title>
<g id="a_node7"><a xlink:href="../../d9/df6/classAutocompleteInput.html#a5d6111d5ac18400cdf809820dfab9ab0" target="_top" xlink:title=" ">
<polygon fill="white" stroke="black" points="314,-304.93 314,-323.93 437,-323.93 437,-304.93 314,-304.93"/>
<text text-anchor="middle" x="375.5" y="-311.93" font-family="Helvetica,sans-Serif" font-size="10.00">AutocompleteInput::type</text>
</a>
</g>
</g>
<!-- Node1&#45;&gt;Node7 -->
<g id="edge29" class="edge">
<title>Node1&#45;&gt;Node7</title>
<path fill="none" stroke="midnightblue" d="M83.96,-260.46C102.65,-272.15 130.42,-287.65 157,-295.43 204.65,-309.38 260.49,-314.03 303.66,-315.24"/>
<polygon fill="midnightblue" stroke="midnightblue" points="303.71,-318.74 313.78,-315.47 303.86,-311.74 303.71,-318.74"/>
</g>
<!-- Node8 -->
<g id="node8" class="node">
<title>Node8</title>
<g id="a_node8"><a xlink:href="../../da/dad/classHistoryURLProvider.html#ac0a5d8e516351b36816e720fa13bb03b" target="_top" xlink:title=" ">
<polygon fill="white" stroke="black" points="162.5,-255.43 162.5,-285.43 272.5,-285.43 272.5,-255.43 162.5,-255.43"/>
<text text-anchor="start" x="170.5" y="-273.43" font-family="Helvetica,sans-Serif" font-size="10.00">HistoryURLProvider</text>
<text text-anchor="middle" x="217.5" y="-262.43" font-family="Helvetica,sans-Serif" font-size="10.00">::CalculateRelevance</text>
</a>
</g>
</g>
<!-- Node1&#45;&gt;Node8 -->
<g id="edge7" class="edge">
<title>Node1&#45;&gt;Node8</title>
<path fill="none" stroke="midnightblue" d="M121.43,-255.1C131.52,-256.72 142.04,-258.42 152.24,-260.06"/>
<polygon fill="midnightblue" stroke="midnightblue" points="151.87,-263.55 162.3,-261.69 152.99,-256.64 151.87,-263.55"/>
</g>
<!-- Node9 -->
<g id="node9" class="node">
<title>Node9</title>
<g id="a_node9"><a xlink:href="../../da/dad/classHistoryURLProvider.html#a165834594bca45663c12cc77f5763556" target="_top" xlink:title=" ">
<polygon fill="white" stroke="black" points="163.5,-206.43 163.5,-236.43 271.5,-236.43 271.5,-206.43 163.5,-206.43"/>
<text text-anchor="start" x="171.5" y="-224.43" font-family="Helvetica,sans-Serif" font-size="10.00">HistoryURLProvider</text>
<text text-anchor="middle" x="217.5" y="-213.43" font-family="Helvetica,sans-Serif" font-size="10.00">::ClassifyDescription</text>
</a>
</g>
</g>
<!-- Node1&#45;&gt;Node9 -->
<g id="edge8" class="edge">
<title>Node1&#45;&gt;Node9</title>
<path fill="none" stroke="midnightblue" d="M121.43,-236.15C131.89,-234.53 142.79,-232.84 153.34,-231.21"/>
<polygon fill="midnightblue" stroke="midnightblue" points="153.96,-234.66 163.31,-229.67 152.89,-227.74 153.96,-234.66"/>
</g>
<!-- Node26 -->
<g id="node26" class="node">
<title>Node26</title>
<g id="a_node26"><a xlink:href="../../dd/de9/classAutocompleteProvider.html#afee5fe39a16a2cc459b6baa0d8a1521e" target="_top" xlink:title=" ">
<polygon fill="white" stroke="black" points="161,-157.43 161,-187.43 274,-187.43 274,-157.43 161,-157.43"/>
<text text-anchor="start" x="169" y="-175.43" font-family="Helvetica,sans-Serif" font-size="10.00">AutocompleteProvider</text>
<text text-anchor="middle" x="217.5" y="-164.43" font-family="Helvetica,sans-Serif" font-size="10.00">::type</text>
</a>
</g>
</g>
<!-- Node1&#45;&gt;Node26 -->
<g id="edge30" class="edge">
<title>Node1&#45;&gt;Node26</title>
<path fill="none" stroke="midnightblue" d="M90.09,-230.42C108.93,-220.69 134.25,-207.91 157,-197.43 161.29,-195.45 165.78,-193.45 170.29,-191.48"/>
<polygon fill="midnightblue" stroke="midnightblue" points="171.71,-194.68 179.51,-187.51 168.94,-188.25 171.71,-194.68"/>
</g>
<!-- Node27 -->
<g id="node27" class="node">
<title>Node27</title>
<g id="a_node27"><a xlink:href="../../d2/d8d/classHistoryURLProvider_1_1VisitClassifier.html#a6703ac5989ec854030edf253f5d8f407" target="_top" xlink:title=" ">
<polygon fill="white" stroke="black" points="163.5,-108.43 163.5,-138.43 271.5,-138.43 271.5,-108.43 163.5,-108.43"/>
<text text-anchor="start" x="171.5" y="-126.43" font-family="Helvetica,sans-Serif" font-size="10.00">HistoryURLProvider</text>
<text text-anchor="middle" x="217.5" y="-115.43" font-family="Helvetica,sans-Serif" font-size="10.00">::VisitClassifier::type</text>
</a>
</g>
</g>
<!-- Node1&#45;&gt;Node27 -->
<g id="edge31" class="edge">
<title>Node1&#45;&gt;Node27</title>
<path fill="none" stroke="midnightblue" d="M73.28,-230.12C89.97,-209.28 122.37,-171.89 157,-148.43 159.74,-146.58 162.63,-144.82 165.61,-143.16"/>
<polygon fill="midnightblue" stroke="midnightblue" points="167.45,-146.15 174.75,-138.47 164.25,-139.92 167.45,-146.15"/>
</g>
<!-- Node28 -->
<g id="node28" class="node">
<title>Node28</title>
<g id="a_node28"><a xlink:href="../../d2/d8d/classHistoryURLProvider_1_1VisitClassifier.html#ae4d8ee092757b29fee3ab4805b16546c" target="_top" xlink:title=" ">
<polygon fill="white" stroke="black" points="157,-59.43 157,-89.43 278,-89.43 278,-59.43 157,-59.43"/>
<text text-anchor="start" x="165" y="-77.43" font-family="Helvetica,sans-Serif" font-size="10.00">HistoryURLProvider</text>
<text text-anchor="middle" x="217.5" y="-66.43" font-family="Helvetica,sans-Serif" font-size="10.00">::VisitClassifier::url_row</text>
</a>
</g>
</g>
<!-- Node1&#45;&gt;Node28 -->
<g id="edge32" class="edge">
<title>Node1&#45;&gt;Node28</title>
<path fill="none" stroke="midnightblue" d="M67.57,-230.34C80.08,-201.03 111.43,-135.97 157,-98.43 158.55,-97.16 160.17,-95.94 161.85,-94.79"/>
<polygon fill="midnightblue" stroke="midnightblue" points="163.9,-97.64 170.66,-89.48 160.29,-91.64 163.9,-97.64"/>
</g>
<!-- Node3 -->
<g id="node3" class="node">
<title>Node3</title>
<g id="a_node3"><a xlink:href="../../d9/df6/classAutocompleteInput.html#a419d05e14c86f18c137fbb4057fedb04" target="_top" xlink:title=" ">
<polygon fill="white" stroke="black" points="323.5,-479.43 323.5,-509.43 427.5,-509.43 427.5,-479.43 323.5,-479.43"/>
<text text-anchor="start" x="331.5" y="-497.43" font-family="Helvetica,sans-Serif" font-size="10.00">AutocompleteInput::</text>
<text text-anchor="middle" x="375.5" y="-486.43" font-family="Helvetica,sans-Serif" font-size="10.00">canonicalized_url</text>
</a>
</g>
</g>
<!-- Node2&#45;&gt;Node3 -->
<g id="edge2" class="edge">
<title>Node2&#45;&gt;Node3</title>
<path fill="none" stroke="midnightblue" d="M235.06,-411.63C253.33,-427.81 284.12,-453.38 314,-470.43 316.85,-472.05 319.82,-473.62 322.87,-475.11"/>
<polygon fill="midnightblue" stroke="midnightblue" points="321.58,-478.38 332.13,-479.4 324.52,-472.02 321.58,-478.38"/>
</g>
<!-- Node4 -->
<g id="node4" class="node">
<title>Node4</title>
<g id="a_node4"><a xlink:href="../../d9/df6/classAutocompleteInput.html#a3ac662d726d6c8788dbcc199397e8ba5" target="_top" xlink:title=" ">
<polygon fill="white" stroke="black" points="323.5,-430.43 323.5,-460.43 427.5,-460.43 427.5,-430.43 323.5,-430.43"/>
<text text-anchor="start" x="331.5" y="-448.43" font-family="Helvetica,sans-Serif" font-size="10.00">AutocompleteInput::</text>
<text text-anchor="middle" x="375.5" y="-437.43" font-family="Helvetica,sans-Serif" font-size="10.00">parts</text>
</a>
</g>
</g>
<!-- Node2&#45;&gt;Node4 -->
<g id="edge3" class="edge">
<title>Node2&#45;&gt;Node4</title>
<path fill="none" stroke="midnightblue" d="M266.58,-411.53C282.52,-416.54 300.42,-422.16 317,-427.37"/>
<polygon fill="midnightblue" stroke="midnightblue" points="315.99,-430.72 326.58,-430.38 318.09,-424.04 315.99,-430.72"/>
</g>
<!-- Node5 -->
<g id="node5" class="node">
<title>Node5</title>
<g id="a_node5"><a xlink:href="../../d9/df6/classAutocompleteInput.html#a9f88d669e8aa433c507320111a7b38a8" target="_top" xlink:title=" ">
<polygon fill="white" stroke="black" points="323.5,-381.43 323.5,-411.43 427.5,-411.43 427.5,-381.43 323.5,-381.43"/>
<text text-anchor="start" x="331.5" y="-399.43" font-family="Helvetica,sans-Serif" font-size="10.00">AutocompleteInput::</text>
<text text-anchor="middle" x="375.5" y="-388.43" font-family="Helvetica,sans-Serif" font-size="10.00">scheme</text>
</a>
</g>
</g>
<!-- Node2&#45;&gt;Node5 -->
<g id="edge4" class="edge">
<title>Node2&#45;&gt;Node5</title>
<path fill="none" stroke="midnightblue" d="M276.59,-396.43C288.45,-396.43 300.96,-396.43 312.94,-396.43"/>
<polygon fill="midnightblue" stroke="midnightblue" points="313.29,-399.93 323.29,-396.43 313.29,-392.93 313.29,-399.93"/>
</g>
<!-- Node2&#45;&gt;Node6 -->
<g id="edge5" class="edge">
<title>Node2&#45;&gt;Node6</title>
<path fill="none" stroke="midnightblue" d="M271.75,-381.41C290.96,-375.99 312.41,-369.94 330.72,-364.78"/>
<polygon fill="midnightblue" stroke="midnightblue" points="331.87,-368.09 340.54,-362.01 329.97,-361.35 331.87,-368.09"/>
</g>
<!-- Node2&#45;&gt;Node7 -->
<g id="edge6" class="edge">
<title>Node2&#45;&gt;Node7</title>
<path fill="none" stroke="midnightblue" d="M238.02,-381.19C256.67,-367.22 286.02,-346.73 314,-333.43 318.67,-331.21 323.65,-329.17 328.69,-327.31"/>
<polygon fill="midnightblue" stroke="midnightblue" points="330.05,-330.54 338.36,-323.97 327.76,-323.93 330.05,-330.54"/>
</g>
<!-- Node10 -->
<g id="node10" class="node">
<title>Node10</title>
<g id="a_node10"><a xlink:href="../../dc/db8/autocomplete__match__classification_8cc.html#a24f64d2639070ff605d2c295d6c4b328" target="_top" xlink:title=" ">
<polygon fill="white" stroke="black" points="319.5,-192.93 319.5,-211.93 431.5,-211.93 431.5,-192.93 319.5,-192.93"/>
<text text-anchor="middle" x="375.5" y="-199.93" font-family="Helvetica,sans-Serif" font-size="10.00">ClassifyTermMatches</text>
</a>
</g>
</g>
<!-- Node9&#45;&gt;Node10 -->
<g id="edge9" class="edge">
<title>Node9&#45;&gt;Node10</title>
<path fill="none" stroke="midnightblue" d="M271.75,-214.94C283.87,-213.47 296.88,-211.88 309.43,-210.36"/>
<polygon fill="midnightblue" stroke="midnightblue" points="309.86,-213.83 319.36,-209.15 309.01,-206.88 309.86,-213.83"/>
</g>
<!-- Node11 -->
<g id="node11" class="node">
<title>Node11</title>
<g id="a_node11"><a xlink:href="../../dc/db8/autocomplete__match__classification_8cc.html#a854bdbfcba7705ea05f3f6b08c904eb8" target="_top" xlink:title=" ">
<polygon fill="white" stroke="black" points="328,-230.93 328,-249.93 423,-249.93 423,-230.93 328,-230.93"/>
<text text-anchor="middle" x="375.5" y="-237.93" font-family="Helvetica,sans-Serif" font-size="10.00">FindTermMatches</text>
</a>
</g>
</g>
<!-- Node9&#45;&gt;Node11 -->
<g id="edge10" class="edge">
<title>Node9&#45;&gt;Node11</title>
<path fill="none" stroke="midnightblue" d="M271.75,-227.92C286.52,-229.71 302.62,-231.68 317.59,-233.5"/>
<polygon fill="midnightblue" stroke="midnightblue" points="317.4,-237 327.75,-234.74 318.25,-230.05 317.4,-237"/>
</g>
<!-- Node12 -->
<g id="node12" class="node">
<title>Node12</title>
<g id="a_node12"><a xlink:href="../../d7/daf/in__memory__url__index__types_8cc.html#ad3af38f30311d2ed9ba53010f3883b1f" target="_top" xlink:title=" ">
<polygon fill="white" stroke="black" points="506,-318.93 506,-337.93 604,-337.93 604,-318.93 506,-318.93"/>
<text text-anchor="middle" x="555" y="-325.93" font-family="Helvetica,sans-Serif" font-size="10.00">DeoverlapMatches</text>
</a>
</g>
</g>
<!-- Node11&#45;&gt;Node12 -->
<g id="edge11" class="edge">
<title>Node11&#45;&gt;Node12</title>
<path fill="none" stroke="midnightblue" d="M386.92,-250.02C403.73,-264.98 438.48,-293.78 473,-309.43 480.3,-312.74 488.23,-315.5 496.19,-317.81"/>
<polygon fill="midnightblue" stroke="midnightblue" points="495.29,-321.19 505.86,-320.39 497.1,-314.43 495.29,-321.19"/>
</g>
<!-- Node13 -->
<g id="node13" class="node">
<title>Node13</title>
<g id="a_node13"><a xlink:href="../../d3/d1d/structScoredHistoryMatch.html#a10728307ce3b27ae70244571e20ca541" target="_top" xlink:title=" ">
<polygon fill="white" stroke="black" points="473,-269.43 473,-299.43 637,-299.43 637,-269.43 473,-269.43"/>
<text text-anchor="start" x="481" y="-287.43" font-family="Helvetica,sans-Serif" font-size="10.00">ScoredHistoryMatch</text>
<text text-anchor="middle" x="555" y="-276.43" font-family="Helvetica,sans-Serif" font-size="10.00">::FilterTermMatchesByWordStarts</text>
</a>
</g>
</g>
<!-- Node11&#45;&gt;Node13 -->
<g id="edge12" class="edge">
<title>Node11&#45;&gt;Node13</title>
<path fill="none" stroke="midnightblue" d="M415.01,-249.98C435,-254.93 460.05,-261.14 483.36,-266.92"/>
<polygon fill="midnightblue" stroke="midnightblue" points="482.68,-270.36 493.22,-269.36 484.36,-263.56 482.68,-270.36"/>
</g>
<!-- Node14 -->
<g id="node14" class="node">
<title>Node14</title>
<g id="a_node14"><a xlink:href="../../d7/daf/in__memory__url__index__types_8cc.html#a6d76a8dafe24063b50b78d3a0a77a62b" target="_top" xlink:title=" ">
<polygon fill="white" stroke="black" points="503,-230.93 503,-249.93 607,-249.93 607,-230.93 503,-230.93"/>
<text text-anchor="middle" x="555" y="-237.93" font-family="Helvetica,sans-Serif" font-size="10.00">MatchTermsInString</text>
</a>
</g>
</g>
<!-- Node11&#45;&gt;Node14 -->
<g id="edge13" class="edge">
<title>Node11&#45;&gt;Node14</title>
<path fill="none" stroke="midnightblue" d="M423.14,-240.43C444.42,-240.43 469.92,-240.43 492.73,-240.43"/>
<polygon fill="midnightblue" stroke="midnightblue" points="493,-243.93 503,-240.43 493,-236.93 493,-243.93"/>
</g>
<!-- Node16 -->
<g id="node16" class="node">
<title>Node16</title>
<g id="a_node16"><a xlink:href="../../d7/daf/in__memory__url__index__types_8cc.html#af8b5ad29b184b31f6b9a4e0c7f7106c0" target="_top" xlink:title=" ">
<polygon fill="white" stroke="black" points="519,-192.93 519,-211.93 591,-211.93 591,-192.93 519,-192.93"/>
<text text-anchor="middle" x="555" y="-199.93" font-family="Helvetica,sans-Serif" font-size="10.00">SortMatches</text>
</a>
</g>
</g>
<!-- Node11&#45;&gt;Node16 -->
<g id="edge15" class="edge">
<title>Node11&#45;&gt;Node16</title>
<path fill="none" stroke="midnightblue" d="M421.29,-230.84C448.06,-225.11 481.98,-217.85 508.82,-212.1"/>
<polygon fill="midnightblue" stroke="midnightblue" points="509.69,-215.5 518.73,-209.98 508.22,-208.65 509.69,-215.5"/>
</g>
<!-- Node18 -->
<g id="node18" class="node">
<title>Node18</title>
<g id="a_node18"><a xlink:href="../../d7/daf/in__memory__url__index__types_8cc.html#ac7945538f83c74cad6ec3b7b5183b0b2" target="_top" xlink:title=" ">
<polygon fill="white" stroke="black" points="485,-110.93 485,-129.93 625,-129.93 625,-110.93 485,-110.93"/>
<text text-anchor="middle" x="555" y="-117.93" font-family="Helvetica,sans-Serif" font-size="10.00">String16VectorFromString16</text>
</a>
</g>
</g>
<!-- Node11&#45;&gt;Node18 -->
<g id="edge17" class="edge">
<title>Node11&#45;&gt;Node18</title>
<path fill="none" stroke="midnightblue" d="M416.83,-230.93C423.83,-228.41 430.84,-225.28 437,-221.43 456.73,-209.1 455.77,-199.06 473,-183.43 491.93,-166.26 515.07,-148.55 531.77,-136.3"/>
<polygon fill="midnightblue" stroke="midnightblue" points="534.28,-138.8 540.31,-130.09 530.17,-133.14 534.28,-138.8"/>
</g>
<!-- Node15 -->
<g id="node15" class="node">
<title>Node15</title>
<g id="a_node15"><a xlink:href="../../d7/daf/in__memory__url__index__types_8cc.html#aecafd72a53e5d7b1b34d5b955b24a163" target="_top" xlink:title=" ">
<polygon fill="white" stroke="black" points="688,-230.93 688,-249.93 787,-249.93 787,-230.93 688,-230.93"/>
<text text-anchor="middle" x="737.5" y="-237.93" font-family="Helvetica,sans-Serif" font-size="10.00">MatchTermInString</text>
</a>
</g>
</g>
<!-- Node14&#45;&gt;Node15 -->
<g id="edge14" class="edge">
<title>Node14&#45;&gt;Node15</title>
<path fill="none" stroke="midnightblue" d="M607.24,-240.43C629.2,-240.43 654.98,-240.43 677.72,-240.43"/>
<polygon fill="midnightblue" stroke="midnightblue" points="677.93,-243.93 687.93,-240.43 677.93,-236.93 677.93,-243.93"/>
</g>
<!-- Node17 -->
<g id="node17" class="node">
<title>Node17</title>
<g id="a_node17"><a xlink:href="../../d7/daf/in__memory__url__index__types_8cc.html#addea1e98ffd9ae0c40cd8add5cc914d2" target="_top" xlink:title=" ">
<polygon fill="white" stroke="black" points="681,-192.93 681,-211.93 794,-211.93 794,-192.93 681,-192.93"/>
<text text-anchor="middle" x="737.5" y="-199.93" font-family="Helvetica,sans-Serif" font-size="10.00">SortMatchComparator</text>
</a>
</g>
</g>
<!-- Node16&#45;&gt;Node17 -->
<g id="edge16" class="edge">
<title>Node16&#45;&gt;Node17</title>
<path fill="none" stroke="midnightblue" d="M591.23,-202.43C613.79,-202.43 643.77,-202.43 670.63,-202.43"/>
<polygon fill="midnightblue" stroke="midnightblue" points="670.76,-205.93 680.76,-202.43 670.76,-198.93 670.76,-205.93"/>
</g>
<!-- Node19 -->
<g id="node19" class="node">
<title>Node19</title>
<g id="a_node19"><a xlink:href="../../d6/dcd/classTailoredWordBreakIterator.html#a2821ad0b98d4c6dacdf2b007ae042cde" target="_top" xlink:title=" ">
<polygon fill="white" stroke="black" points="673,-17.43 673,-47.43 802,-47.43 802,-17.43 673,-17.43"/>
<text text-anchor="start" x="681" y="-35.43" font-family="Helvetica,sans-Serif" font-size="10.00">TailoredWordBreakIterator</text>
<text text-anchor="middle" x="737.5" y="-24.43" font-family="Helvetica,sans-Serif" font-size="10.00">::Advance</text>
</a>
</g>
</g>
<!-- Node18&#45;&gt;Node19 -->
<g id="edge18" class="edge">
<title>Node18&#45;&gt;Node19</title>
<path fill="none" stroke="midnightblue" d="M575,-110.88C598.1,-99.29 638.31,-79.22 673,-62.43 680.1,-58.99 687.67,-55.38 695.01,-51.89"/>
<polygon fill="midnightblue" stroke="midnightblue" points="696.6,-55.01 704.14,-47.57 693.6,-48.69 696.6,-55.01"/>
</g>
<!-- Node22 -->
<g id="node22" class="node">
<title>Node22</title>
<g id="a_node22"><a xlink:href="../../d6/dcd/classTailoredWordBreakIterator.html#a198bd2927e6b6e17cd0e6b4fba8756fa" target="_top" xlink:title=" ">
<polygon fill="white" stroke="black" points="844.5,-66.43 844.5,-96.43 973.5,-96.43 973.5,-66.43 844.5,-66.43"/>
<text text-anchor="start" x="852.5" y="-84.43" font-family="Helvetica,sans-Serif" font-size="10.00">TailoredWordBreakIterator</text>
<text text-anchor="middle" x="909" y="-73.43" font-family="Helvetica,sans-Serif" font-size="10.00">::IsWord</text>
</a>
</g>
</g>
<!-- Node18&#45;&gt;Node22 -->
<g id="edge26" class="edge">
<title>Node18&#45;&gt;Node22</title>
<path fill="none" stroke="midnightblue" d="M593.42,-110.93C616.26,-105.5 646.14,-99.08 673,-95.43 726.65,-88.14 787.71,-84.65 834.14,-82.97"/>
<polygon fill="midnightblue" stroke="midnightblue" points="834.54,-86.46 844.41,-82.62 834.3,-79.47 834.54,-86.46"/>
</g>
<!-- Node24 -->
<g id="node24" class="node">
<title>Node24</title>
<g id="a_node24"><a xlink:href="../../d6/dcd/classTailoredWordBreakIterator.html#a3ac822a0237ada88c32c0ca5fe6cc18d" target="_top" xlink:title=" ">
<polygon fill="white" stroke="black" points="844.5,-132.43 844.5,-162.43 973.5,-162.43 973.5,-132.43 844.5,-132.43"/>
<text text-anchor="start" x="852.5" y="-150.43" font-family="Helvetica,sans-Serif" font-size="10.00">TailoredWordBreakIterator</text>
<text text-anchor="middle" x="909" y="-139.43" font-family="Helvetica,sans-Serif" font-size="10.00">::GetString</text>
</a>
</g>
</g>
<!-- Node18&#45;&gt;Node24 -->
<g id="edge24" class="edge">
<title>Node18&#45;&gt;Node24</title>
<path fill="none" stroke="midnightblue" d="M593.39,-129.98C616.22,-135.35 646.1,-141.53 673,-144.43 726.74,-150.23 787.8,-150.83 834.2,-150.06"/>
<polygon fill="midnightblue" stroke="midnightblue" points="834.54,-153.56 844.47,-149.86 834.4,-146.56 834.54,-153.56"/>
</g>
<!-- Node25 -->
<g id="node25" class="node">
<title>Node25</title>
<g id="a_node25"><a xlink:href="../../d6/dcd/classTailoredWordBreakIterator.html#ad2c08e1c2124a921ac2976e30c39d478" target="_top" xlink:title=" ">
<polygon fill="white" stroke="black" points="673,-105.43 673,-135.43 802,-135.43 802,-105.43 673,-105.43"/>
<text text-anchor="start" x="681" y="-123.43" font-family="Helvetica,sans-Serif" font-size="10.00">TailoredWordBreakIterator</text>
<text text-anchor="middle" x="737.5" y="-112.43" font-family="Helvetica,sans-Serif" font-size="10.00">::prev</text>
</a>
</g>
</g>
<!-- Node18&#45;&gt;Node25 -->
<g id="edge27" class="edge">
<title>Node18&#45;&gt;Node25</title>
<path fill="none" stroke="midnightblue" d="M625.01,-120.43C637.3,-120.43 650.14,-120.43 662.55,-120.43"/>
<polygon fill="midnightblue" stroke="midnightblue" points="662.86,-123.93 672.86,-120.43 662.86,-116.93 662.86,-123.93"/>
</g>
<!-- Node20 -->
<g id="node20" class="node">
<title>Node20</title>
<g id="a_node20"><a xlink:href="../../d6/dcd/classTailoredWordBreakIterator.html#a1b478919417288a574d74b521b52fc08" target="_top" xlink:title=" ">
<polygon fill="white" stroke="black" points="838,-17.43 838,-47.43 980,-47.43 980,-17.43 838,-17.43"/>
<text text-anchor="start" x="846" y="-35.43" font-family="Helvetica,sans-Serif" font-size="10.00">TailoredWordBreakIterator</text>
<text text-anchor="middle" x="909" y="-24.43" font-family="Helvetica,sans-Serif" font-size="10.00">::AdvanceInUnderscoreWord</text>
</a>
</g>
</g>
<!-- Node19&#45;&gt;Node20 -->
<g id="edge19" class="edge">
<title>Node19&#45;&gt;Node20</title>
<path fill="none" stroke="midnightblue" d="M802.1,-32.43C810.47,-32.43 819.14,-32.43 827.74,-32.43"/>
<polygon fill="midnightblue" stroke="midnightblue" points="827.79,-35.93 837.79,-32.43 827.79,-28.93 827.79,-35.93"/>
</g>
<!-- Node21 -->
<g id="node21" class="node">
<title>Node21</title>
<g id="a_node21"><a xlink:href="../../d6/dcd/classTailoredWordBreakIterator.html#aae84d81bdce60da2914d52d30b6c74b4" target="_top" xlink:title=" ">
<polygon fill="white" stroke="black" points="1016,-30.43 1016,-60.43 1145,-60.43 1145,-30.43 1016,-30.43"/>
<text text-anchor="start" x="1024" y="-48.43" font-family="Helvetica,sans-Serif" font-size="10.00">TailoredWordBreakIterator</text>
<text text-anchor="middle" x="1080.5" y="-37.43" font-family="Helvetica,sans-Serif" font-size="10.00">::HasUnderscoreWord</text>
</a>
</g>
</g>
<!-- Node19&#45;&gt;Node21 -->
<g id="edge20" class="edge">
<title>Node19&#45;&gt;Node21</title>
<path fill="none" stroke="midnightblue" d="M788.15,-17.4C803.93,-13.32 821.56,-9.46 838,-7.43 900.63,0.32 917.94,4.02 980,-7.43 1000.1,-11.14 1021.39,-18.73 1039.1,-26.16"/>
<polygon fill="midnightblue" stroke="midnightblue" points="1037.97,-29.48 1048.54,-30.24 1040.75,-23.06 1037.97,-29.48"/>
</g>
<!-- Node19&#45;&gt;Node22 -->
<g id="edge21" class="edge">
<title>Node19&#45;&gt;Node22</title>
<path fill="none" stroke="midnightblue" d="M790.74,-47.53C808.3,-52.61 828.06,-58.32 846.28,-63.59"/>
<polygon fill="midnightblue" stroke="midnightblue" points="845.36,-66.96 855.93,-66.38 847.3,-60.24 845.36,-66.96"/>
</g>
<!-- Node22&#45;&gt;Node21 -->
<g id="edge23" class="edge">
<title>Node22&#45;&gt;Node21</title>
<path fill="none" stroke="midnightblue" d="M973.6,-67.92C984.17,-65.68 995.21,-63.33 1006.01,-61.04"/>
<polygon fill="midnightblue" stroke="midnightblue" points="1006.77,-64.45 1015.83,-58.95 1005.32,-57.61 1006.77,-64.45"/>
</g>
<!-- Node23 -->
<g id="node23" class="node">
<title>Node23</title>
<g id="a_node23"><a xlink:href="../../d6/dcd/classTailoredWordBreakIterator.html#a08b402a57411161426e21a435a9a047f" target="_top" xlink:title=" ">
<polygon fill="white" stroke="black" points="1016,-101.43 1016,-131.43 1145,-131.43 1145,-101.43 1016,-101.43"/>
<text text-anchor="start" x="1024" y="-119.43" font-family="Helvetica,sans-Serif" font-size="10.00">TailoredWordBreakIterator</text>
<text text-anchor="middle" x="1080.5" y="-108.43" font-family="Helvetica,sans-Serif" font-size="10.00">::GetStringPiece</text>
</a>
</g>
</g>
<!-- Node22&#45;&gt;Node23 -->
<g id="edge22" class="edge">
<title>Node22&#45;&gt;Node23</title>
<path fill="none" stroke="midnightblue" d="M973.6,-94.56C984.17,-96.75 995.21,-99.03 1006.01,-101.25"/>
<polygon fill="midnightblue" stroke="midnightblue" points="1005.33,-104.69 1015.83,-103.28 1006.74,-97.83 1005.33,-104.69"/>
</g>
<!-- Node24&#45;&gt;Node23 -->
<g id="edge25" class="edge">
<title>Node24&#45;&gt;Node23</title>
<path fill="none" stroke="midnightblue" d="M973.6,-135.8C984.06,-133.88 994.99,-131.89 1005.67,-129.93"/>
<polygon fill="midnightblue" stroke="midnightblue" points="1006.62,-133.32 1015.83,-128.07 1005.36,-126.43 1006.62,-133.32"/>
</g>
</g>
</svg>
        <g id="navigator" transform="translate(0 0)" fill="#404254">
                <rect fill="#f2f5e9" fill-opacity="0.5" stroke="#606060" stroke-width=".5" x="0" y="0" width="60" height="60"/>
                <use id="zoomplus" xlink:href="#zoomPlus" x="17" y="9" onmousedown="handleZoom(evt,'in')"/>
                <use id="zoomminus" xlink:href="#zoomMin" x="42" y="9" onmousedown="handleZoom(evt,'out')"/>
                <use id="reset" xlink:href="#resetDef" x="30" y="36" onmousedown="handleReset()"/>
                <g id="arrowUp" xlink:href="#dirArrow" transform="translate(30 24)" onmousedown="handlePan(0,-1)">
                  <use xlink:href="#rim" fill="#404040">
                        <set attributeName="fill" to="#808080" begin="arrowUp.mouseover" end="arrowUp.mouseout"/>
                  </use>
                  <path fill="none" stroke="white" stroke-width="1.5" d="M0,-3.0v7 M-2.5,-0.5L0,-3.0L2.5,-0.5"/>
                </g>
                <g id="arrowRight" xlink:href="#dirArrow" transform="rotate(90) translate(36 -43)" onmousedown="handlePan(1,0)">
                  <use xlink:href="#rim" fill="#404040">
                        <set attributeName="fill" to="#808080" begin="arrowRight.mouseover" end="arrowRight.mouseout"/>
                  </use>
                  <path fill="none" stroke="white" stroke-width="1.5" d="M0,-3.0v7 M-2.5,-0.5L0,-3.0L2.5,-0.5"/>
                </g>
                <g id="arrowDown" xlink:href="#dirArrow" transform="rotate(180) translate(-30 -48)" onmousedown="handlePan(0,1)">
                  <use xlink:href="#rim" fill="#404040">
                        <set attributeName="fill" to="#808080" begin="arrowDown.mouseover" end="arrowDown.mouseout"/>
                  </use>
                  <path fill="none" stroke="white" stroke-width="1.5" d="M0,-3.0v7 M-2.5,-0.5L0,-3.0L2.5,-0.5"/>
                </g>
                <g id="arrowLeft" xlink:href="#dirArrow" transform="rotate(270) translate(-36 17)" onmousedown="handlePan(-1,0)">
                  <use xlink:href="#rim" fill="#404040">
                        <set attributeName="fill" to="#808080" begin="arrowLeft.mouseover" end="arrowLeft.mouseout"/>
                  </use>
                  <path fill="none" stroke="white" stroke-width="1.5" d="M0,-3.0v7 M-2.5,-0.5L0,-3.0L2.5,-0.5"/>
                </g>
        </g>
        <svg viewBox="0 0 15 15" width="100%" height="30px" preserveAspectRatio="xMaxYMin meet">
         <g id="arrow_out" transform="scale(0.3 0.3)">
          <a xlink:href="classHistoryURLProvider_a822b419eb238e4369fa3012bb04513f8_cgraph_org.svg" target="_base">
           <rect id="button" ry="5" rx="5" y="6" x="6" height="38" width="38"
                fill="#f2f5e9" fill-opacity="0.5" stroke="#606060" stroke-width="1.0"/>
           <path id="arrow"
             d="M 11.500037,31.436501 C 11.940474,20.09759 22.043105,11.32322 32.158766,21.979434 L 37.068811,17.246167 C 37.068811,17.246167 37.088388,32 37.088388,32 L 22.160133,31.978069 C 22.160133,31.978069 26.997745,27.140456 26.997745,27.140456 C 18.528582,18.264221 13.291696,25.230495 11.500037,31.436501 z"
             style="fill:#404040;"/>
          </a>
         </g>
        </svg>
</svg>
