<?xml version="1.0" encoding="UTF-8" standalone="no"?>
<!DOCTYPE svg PUBLIC "-//W3C//DTD SVG 1.1//EN"
 "http://www.w3.org/Graphics/SVG/1.1/DTD/svg11.dtd">
<!-- Generated by graphviz version 2.43.0 (0)
 -->
<!-- Title: HistoryURLProvider::AsKnownIntranetURL Pages: 1 -->
<svg width="285pt" height="214pt"
 viewBox="0.00 0.00 285.00 213.50" xmlns="http://www.w3.org/2000/svg" xmlns:xlink="http://www.w3.org/1999/xlink">
<g id="graph0" class="graph" transform="scale(1 1) rotate(0) translate(4 209.5)">
<title>HistoryURLProvider::AsKnownIntranetURL</title>
<polygon fill="white" stroke="transparent" points="-4,4 -4,-209.5 281,-209.5 281,4 -4,4"/>
<!-- Node1 -->
<g id="node1" class="node">
<title>Node1</title>
<g id="a_node1"><a xlink:title=" ">
<polygon fill="#bfbfbf" stroke="black" points="0,-77 0,-107 118,-107 118,-77 0,-77"/>
<text text-anchor="start" x="8" y="-95" font-family="Helvetica,sans-Serif" font-size="10.00">HistoryURLProvider</text>
<text text-anchor="middle" x="59" y="-84" font-family="Helvetica,sans-Serif" font-size="10.00">::AsKnownIntranetURL</text>
</a>
</g>
</g>
<!-- Node2 -->
<g id="node2" class="node">
<title>Node2</title>
<g id="a_node2"><a xlink:href="../../d9/df6/classAutocompleteInput.html#a419d05e14c86f18c137fbb4057fedb04" target="_top" xlink:title=" ">
<polygon fill="white" stroke="black" points="163.5,-175 163.5,-205 267.5,-205 267.5,-175 163.5,-175"/>
<text text-anchor="start" x="171.5" y="-193" font-family="Helvetica,sans-Serif" font-size="10.00">AutocompleteInput::</text>
<text text-anchor="middle" x="215.5" y="-182" font-family="Helvetica,sans-Serif" font-size="10.00">canonicalized_url</text>
</a>
</g>
</g>
<!-- Node1&#45;&gt;Node2 -->
<g id="edge1" class="edge">
<title>Node1&#45;&gt;Node2</title>
<path fill="none" stroke="midnightblue" d="M76.26,-107.22C94.2,-123.42 124.48,-149.01 154,-166 156.79,-167.61 159.71,-169.15 162.7,-170.63"/>
<polygon fill="midnightblue" stroke="midnightblue" points="161.24,-173.82 171.78,-174.86 164.19,-167.47 161.24,-173.82"/>
</g>
<!-- Node3 -->
<g id="node3" class="node">
<title>Node3</title>
<g id="a_node3"><a xlink:href="../../d9/df6/classAutocompleteInput.html#a3ac662d726d6c8788dbcc199397e8ba5" target="_top" xlink:title=" ">
<polygon fill="white" stroke="black" points="163.5,-126 163.5,-156 267.5,-156 267.5,-126 163.5,-126"/>
<text text-anchor="start" x="171.5" y="-144" font-family="Helvetica,sans-Serif" font-size="10.00">AutocompleteInput::</text>
<text text-anchor="middle" x="215.5" y="-133" font-family="Helvetica,sans-Serif" font-size="10.00">parts</text>
</a>
</g>
</g>
<!-- Node1&#45;&gt;Node3 -->
<g id="edge2" class="edge">
<title>Node1&#45;&gt;Node3</title>
<path fill="none" stroke="midnightblue" d="M107.62,-107.1C123.26,-112.06 140.8,-117.63 157.09,-122.79"/>
<polygon fill="midnightblue" stroke="midnightblue" points="156.45,-126.26 167.04,-125.95 158.57,-119.59 156.45,-126.26"/>
</g>
<!-- Node4 -->
<g id="node4" class="node">
<title>Node4</title>
<g id="a_node4"><a xlink:href="../../d9/df6/classAutocompleteInput.html#a9f88d669e8aa433c507320111a7b38a8" target="_top" xlink:title=" ">
<polygon fill="white" stroke="black" points="163.5,-77 163.5,-107 267.5,-107 267.5,-77 163.5,-77"/>
<text text-anchor="start" x="171.5" y="-95" font-family="Helvetica,sans-Serif" font-size="10.00">AutocompleteInput::</text>
<text text-anchor="middle" x="215.5" y="-84" font-family="Helvetica,sans-Serif" font-size="10.00">scheme</text>
</a>
</g>
</g>
<!-- Node1&#45;&gt;Node4 -->
<g id="edge3" class="edge">
<title>Node1&#45;&gt;Node4</title>
<path fill="none" stroke="midnightblue" d="M118.41,-92C129.66,-92 141.48,-92 152.84,-92"/>
<polygon fill="midnightblue" stroke="midnightblue" points="153.1,-95.5 163.1,-92 153.1,-88.5 153.1,-95.5"/>
</g>
<!-- Node5 -->
<g id="node5" class="node">
<title>Node5</title>
<g id="a_node5"><a xlink:href="../../d9/df6/classAutocompleteInput.html#ac055dacf90a052c92e2bfe5c01328a95" target="_top" xlink:title=" ">
<polygon fill="white" stroke="black" points="155,-38.5 155,-57.5 276,-57.5 276,-38.5 155,-38.5"/>
<text text-anchor="middle" x="215.5" y="-45.5" font-family="Helvetica,sans-Serif" font-size="10.00">AutocompleteInput::text</text>
</a>
</g>
</g>
<!-- Node1&#45;&gt;Node5 -->
<g id="edge4" class="edge">
<title>Node1&#45;&gt;Node5</title>
<path fill="none" stroke="midnightblue" d="M112.74,-76.98C131.77,-71.56 153.01,-65.51 171.15,-60.35"/>
<polygon fill="midnightblue" stroke="midnightblue" points="172.21,-63.68 180.87,-57.58 170.29,-56.95 172.21,-63.68"/>
</g>
<!-- Node6 -->
<g id="node6" class="node">
<title>Node6</title>
<g id="a_node6"><a xlink:href="../../d9/df6/classAutocompleteInput.html#a5d6111d5ac18400cdf809820dfab9ab0" target="_top" xlink:title=" ">
<polygon fill="white" stroke="black" points="154,-0.5 154,-19.5 277,-19.5 277,-0.5 154,-0.5"/>
<text text-anchor="middle" x="215.5" y="-7.5" font-family="Helvetica,sans-Serif" font-size="10.00">AutocompleteInput::type</text>
</a>
</g>
</g>
<!-- Node1&#45;&gt;Node6 -->
<g id="edge5" class="edge">
<title>Node1&#45;&gt;Node6</title>
<path fill="none" stroke="midnightblue" d="M79.18,-76.74C97.51,-62.75 126.37,-42.26 154,-29 158.6,-26.79 163.51,-24.76 168.48,-22.92"/>
<polygon fill="midnightblue" stroke="midnightblue" points="169.72,-26.19 178.02,-19.6 167.42,-19.58 169.72,-26.19"/>
</g>
</g>
</svg>
