<?xml version="1.0" encoding="UTF-8" standalone="no"?>
<!DOCTYPE svg PUBLIC "-//W3C//DTD SVG 1.1//EN"
 "http://www.w3.org/Graphics/SVG/1.1/DTD/svg11.dtd">
<!-- Generated by graphviz version 2.43.0 (0)
 -->
<!-- Title: HistoryURLProvider::PromoteMatchesIfNecessary Pages: 1 -->
<svg width="578pt" height="61pt"
 viewBox="0.00 0.00 578.00 61.00" xmlns="http://www.w3.org/2000/svg" xmlns:xlink="http://www.w3.org/1999/xlink">
<g id="graph0" class="graph" transform="scale(1 1) rotate(0) translate(4 57)">
<title>HistoryURLProvider::PromoteMatchesIfNecessary</title>
<polygon fill="white" stroke="transparent" points="-4,4 -4,-57 574,-57 574,4 -4,4"/>
<!-- Node1 -->
<g id="node1" class="node">
<title>Node1</title>
<g id="a_node1"><a xlink:title=" ">
<polygon fill="#bfbfbf" stroke="black" points="420,-0.5 420,-30.5 570,-30.5 570,-0.5 420,-0.5"/>
<text text-anchor="start" x="428" y="-18.5" font-family="Helvetica,sans-Serif" font-size="10.00">HistoryURLProvider</text>
<text text-anchor="middle" x="495" y="-7.5" font-family="Helvetica,sans-Serif" font-size="10.00">::PromoteMatchesIfNecessary</text>
</a>
</g>
</g>
<!-- Node2 -->
<g id="node2" class="node">
<title>Node2</title>
<g id="a_node2"><a xlink:href="../../da/dad/classHistoryURLProvider.html#ab297ab23ac3520f3f0be38417325e609" target="_top" xlink:title=" ">
<polygon fill="white" stroke="black" points="280,-22.5 280,-52.5 384,-52.5 384,-22.5 280,-22.5"/>
<text text-anchor="start" x="288" y="-40.5" font-family="Helvetica,sans-Serif" font-size="10.00">HistoryURLProvider</text>
<text text-anchor="middle" x="332" y="-29.5" font-family="Helvetica,sans-Serif" font-size="10.00">::QueryComplete</text>
</a>
</g>
</g>
<!-- Node1&#45;&gt;Node2 -->
<g id="edge1" class="edge">
<title>Node1&#45;&gt;Node2</title>
<path fill="none" stroke="midnightblue" d="M409.46,-27.05C400.8,-28.24 392.2,-29.41 384.07,-30.52"/>
<polygon fill="midnightblue" stroke="midnightblue" points="410.19,-30.48 419.63,-25.66 409.24,-23.55 410.19,-30.48"/>
</g>
<!-- Node4 -->
<g id="node4" class="node">
<title>Node4</title>
<g id="a_node4"><a xlink:href="../../da/dad/classHistoryURLProvider.html#ad8668da3c2254ca7ac51f0d7b0fc4104" target="_top" xlink:title=" ">
<polygon fill="white" stroke="black" points="0,-0.5 0,-30.5 104,-30.5 104,-0.5 0,-0.5"/>
<text text-anchor="start" x="8" y="-18.5" font-family="Helvetica,sans-Serif" font-size="10.00">HistoryURLProvider</text>
<text text-anchor="middle" x="52" y="-7.5" font-family="Helvetica,sans-Serif" font-size="10.00">::Start</text>
</a>
</g>
</g>
<!-- Node1&#45;&gt;Node4 -->
<g id="edge4" class="edge">
<title>Node1&#45;&gt;Node4</title>
<path fill="none" stroke="midnightblue" d="M409.62,-12.96C400.97,-12.77 392.31,-12.61 384,-12.5 275.57,-11.02 248.43,-10.63 140,-12.5 128.36,-12.7 115.86,-13.05 104.06,-13.45"/>
<polygon fill="midnightblue" stroke="midnightblue" points="409.67,-16.47 419.75,-13.2 409.83,-9.47 409.67,-16.47"/>
</g>
<!-- Node3 -->
<g id="node3" class="node">
<title>Node3</title>
<g id="a_node3"><a xlink:href="../../da/dad/classHistoryURLProvider.html#afb38c4ac596ac8c3de848f4c35f53656" target="_top" xlink:title=" ">
<polygon fill="white" stroke="black" points="140,-22.5 140,-52.5 244,-52.5 244,-22.5 140,-22.5"/>
<text text-anchor="start" x="148" y="-40.5" font-family="Helvetica,sans-Serif" font-size="10.00">HistoryURLProvider</text>
<text text-anchor="middle" x="192" y="-29.5" font-family="Helvetica,sans-Serif" font-size="10.00">::ExecuteWithDB</text>
</a>
</g>
</g>
<!-- Node2&#45;&gt;Node3 -->
<g id="edge2" class="edge">
<title>Node2&#45;&gt;Node3</title>
<path fill="none" stroke="midnightblue" d="M269.5,-37.5C261.13,-37.5 252.6,-37.5 244.43,-37.5"/>
<polygon fill="midnightblue" stroke="midnightblue" points="269.61,-41 279.61,-37.5 269.61,-34 269.61,-41"/>
</g>
<!-- Node3&#45;&gt;Node4 -->
<g id="edge3" class="edge">
<title>Node3&#45;&gt;Node4</title>
<path fill="none" stroke="midnightblue" d="M129.5,-27.7C121.13,-26.36 112.6,-25 104.43,-23.7"/>
<polygon fill="midnightblue" stroke="midnightblue" points="129.19,-31.19 139.61,-29.31 130.29,-24.28 129.19,-31.19"/>
</g>
</g>
</svg>
