<?xml version="1.0" encoding="UTF-8" standalone="no"?>
<!DOCTYPE svg PUBLIC "-//W3C//DTD SVG 1.1//EN"
 "http://www.w3.org/Graphics/SVG/1.1/DTD/svg11.dtd">
<!-- Generated by graphviz version 2.43.0 (0)
 -->
<!-- Title: HistoryURLProvider::CalculateRelevance Pages: 1 -->
<!--zoomable 154 -->
<svg id="main" version="1.1" xmlns="http://www.w3.org/2000/svg" xmlns:xlink="http://www.w3.org/1999/xlink" xml:space="preserve" onload="init(evt)">
<style type="text/css"><![CDATA[
.edge:hover path { stroke: red; }
.edge:hover polygon { stroke: red; fill: red; }
]]></style>
<script type="text/javascript"><![CDATA[
var edges = document.getElementsByTagName('g');
if (edges && edges.length) {
  for (var i=0;i<edges.length;i++) {
    if (edges[i].id.substr(0,4)=='edge') {
      edges[i].setAttribute('class','edge');
    }
  }
}
]]></script>
        <defs>
                <circle id="rim" cx="0" cy="0" r="7"/>
                <circle id="rim2" cx="0" cy="0" r="3.5"/>
                <g id="zoomPlus">
                        <use xlink:href="#rim" fill="#404040">
                                <set attributeName="fill" to="#808080" begin="zoomplus.mouseover" end="zoomplus.mouseout"/>
                        </use>
                        <path d="M-4,0h8M0,-4v8" fill="none" stroke="white" stroke-width="1.5" pointer-events="none"/>
                </g>
                <g id="zoomMin">
                        <use xlink:href="#rim" fill="#404040">
                                <set attributeName="fill" to="#808080" begin="zoomminus.mouseover" end="zoomminus.mouseout"/>
                        </use>
                        <path d="M-4,0h8" fill="none" stroke="white" stroke-width="1.5" pointer-events="none"/>
                </g>
                <g id="dirArrow">
                        <path fill="none" stroke="white" stroke-width="1.5" d="M0,-3.0v7 M-2.5,-0.5L0,-3.0L2.5,-0.5"/>
                </g>
               <g id="resetDef">
                       <use xlink:href="#rim2" fill="#404040">
                               <set attributeName="fill" to="#808080" begin="reset.mouseover" end="reset.mouseout"/>
                       </use>
               </g>
        </defs>

<script type="text/javascript">
var viewWidth = 724;
var viewHeight = 154;
var sectionId = 'dynsection-5';
</script>
<script xlink:href="../../svgpan.js"/>
<svg id="graph" class="graph">
<g id="viewport">
<title>HistoryURLProvider::CalculateRelevance</title>
<polygon fill="white" stroke="transparent" points="-4,4 -4,-149.65 720,-149.65 720,4 -4,4"/>
<!-- Node1 -->
<g id="node1" class="node">
<title>Node1</title>
<g id="a_node1"><a xlink:title=" ">
<polygon fill="#bfbfbf" stroke="black" points="606,-49.15 606,-79.15 716,-79.15 716,-49.15 606,-49.15"/>
<text text-anchor="start" x="614" y="-67.15" font-family="Helvetica,sans-Serif" font-size="10.00">HistoryURLProvider</text>
<text text-anchor="middle" x="661" y="-56.15" font-family="Helvetica,sans-Serif" font-size="10.00">::CalculateRelevance</text>
</a>
</g>
</g>
<!-- Node2 -->
<g id="node2" class="node">
<title>Node2</title>
<g id="a_node2"><a xlink:href="../../da/dad/classHistoryURLProvider.html#a822b419eb238e4369fa3012bb04513f8" target="_top" xlink:title=" ">
<polygon fill="white" stroke="black" points="434.5,-115.15 434.5,-145.15 555.5,-145.15 555.5,-115.15 434.5,-115.15"/>
<text text-anchor="start" x="442.5" y="-133.15" font-family="Helvetica,sans-Serif" font-size="10.00">HistoryURLProvider</text>
<text text-anchor="middle" x="495" y="-122.15" font-family="Helvetica,sans-Serif" font-size="10.00">::FixupExactSuggestion</text>
</a>
</g>
</g>
<!-- Node1&#45;&gt;Node2 -->
<g id="edge1" class="edge">
<title>Node1&#45;&gt;Node2</title>
<path fill="none" stroke="midnightblue" d="M612.99,-83.07C587.75,-93.23 557.06,-105.58 533.45,-115.08"/>
<polygon fill="midnightblue" stroke="midnightblue" points="614.4,-86.27 622.38,-79.29 611.79,-79.78 614.4,-86.27"/>
</g>
<!-- Node5 -->
<g id="node5" class="node">
<title>Node5</title>
<g id="a_node5"><a xlink:href="../../da/dad/classHistoryURLProvider.html#ad8668da3c2254ca7ac51f0d7b0fc4104" target="_top" xlink:title=" ">
<polygon fill="white" stroke="black" points="0,-44.15 0,-74.15 104,-74.15 104,-44.15 0,-44.15"/>
<text text-anchor="start" x="8" y="-62.15" font-family="Helvetica,sans-Serif" font-size="10.00">HistoryURLProvider</text>
<text text-anchor="middle" x="52" y="-51.15" font-family="Helvetica,sans-Serif" font-size="10.00">::Start</text>
</a>
</g>
</g>
<!-- Node1&#45;&gt;Node5 -->
<g id="edge11" class="edge">
<title>Node1&#45;&gt;Node5</title>
<path fill="none" stroke="midnightblue" d="M629.49,-43.51C612.72,-33.4 591.09,-22.33 570,-17.15 403.17,23.79 197.92,-19.6 104.13,-44.38"/>
<polygon fill="midnightblue" stroke="midnightblue" points="627.93,-46.66 638.27,-48.97 631.63,-40.72 627.93,-46.66"/>
</g>
<!-- Node6 -->
<g id="node6" class="node">
<title>Node6</title>
<g id="a_node6"><a xlink:href="../../da/dad/classHistoryURLProvider.html#ac09d95504d0957ea4c3608fc6a0d82c6" target="_top" xlink:title=" ">
<polygon fill="white" stroke="black" points="420,-27.15 420,-57.15 570,-57.15 570,-27.15 420,-27.15"/>
<text text-anchor="start" x="428" y="-45.15" font-family="Helvetica,sans-Serif" font-size="10.00">HistoryURLProvider</text>
<text text-anchor="middle" x="495" y="-34.15" font-family="Helvetica,sans-Serif" font-size="10.00">::PromoteMatchesIfNecessary</text>
</a>
</g>
</g>
<!-- Node1&#45;&gt;Node6 -->
<g id="edge6" class="edge">
<title>Node1&#45;&gt;Node6</title>
<path fill="none" stroke="midnightblue" d="M595.71,-55.53C587.28,-54.4 578.58,-53.23 570,-52.08"/>
<polygon fill="midnightblue" stroke="midnightblue" points="595.47,-59.03 605.85,-56.89 596.4,-52.09 595.47,-59.03"/>
</g>
<!-- Node7 -->
<g id="node7" class="node">
<title>Node7</title>
<g id="a_node7"><a xlink:href="../../da/dad/classHistoryURLProvider.html#ab297ab23ac3520f3f0be38417325e609" target="_top" xlink:title=" ">
<polygon fill="white" stroke="black" points="280,-66.15 280,-96.15 384,-96.15 384,-66.15 280,-66.15"/>
<text text-anchor="start" x="288" y="-84.15" font-family="Helvetica,sans-Serif" font-size="10.00">HistoryURLProvider</text>
<text text-anchor="middle" x="332" y="-73.15" font-family="Helvetica,sans-Serif" font-size="10.00">::QueryComplete</text>
</a>
</g>
</g>
<!-- Node1&#45;&gt;Node7 -->
<g id="edge10" class="edge">
<title>Node1&#45;&gt;Node7</title>
<path fill="none" stroke="midnightblue" d="M595.59,-67.5C533.68,-70.72 441.33,-75.52 384.26,-78.49"/>
<polygon fill="midnightblue" stroke="midnightblue" points="595.83,-70.99 605.64,-66.98 595.47,-64 595.83,-70.99"/>
</g>
<!-- Node3 -->
<g id="node3" class="node">
<title>Node3</title>
<g id="a_node3"><a xlink:href="../../da/dad/classHistoryURLProvider.html#a5fc3efbb45bc4e93df981144b60d753f" target="_top" xlink:title=" ">
<polygon fill="white" stroke="black" points="280,-115.15 280,-145.15 384,-145.15 384,-115.15 280,-115.15"/>
<text text-anchor="start" x="288" y="-133.15" font-family="Helvetica,sans-Serif" font-size="10.00">HistoryURLProvider</text>
<text text-anchor="middle" x="332" y="-122.15" font-family="Helvetica,sans-Serif" font-size="10.00">::DoAutocomplete</text>
</a>
</g>
</g>
<!-- Node2&#45;&gt;Node3 -->
<g id="edge2" class="edge">
<title>Node2&#45;&gt;Node3</title>
<path fill="none" stroke="midnightblue" d="M423.9,-130.15C410.49,-130.15 396.69,-130.15 384.02,-130.15"/>
<polygon fill="midnightblue" stroke="midnightblue" points="424.05,-133.65 434.05,-130.15 424.05,-126.65 424.05,-133.65"/>
</g>
<!-- Node4 -->
<g id="node4" class="node">
<title>Node4</title>
<g id="a_node4"><a xlink:href="../../da/dad/classHistoryURLProvider.html#afb38c4ac596ac8c3de848f4c35f53656" target="_top" xlink:title=" ">
<polygon fill="white" stroke="black" points="140,-66.15 140,-96.15 244,-96.15 244,-66.15 140,-66.15"/>
<text text-anchor="start" x="148" y="-84.15" font-family="Helvetica,sans-Serif" font-size="10.00">HistoryURLProvider</text>
<text text-anchor="middle" x="192" y="-73.15" font-family="Helvetica,sans-Serif" font-size="10.00">::ExecuteWithDB</text>
</a>
</g>
</g>
<!-- Node3&#45;&gt;Node4 -->
<g id="edge3" class="edge">
<title>Node3&#45;&gt;Node4</title>
<path fill="none" stroke="midnightblue" d="M278.8,-111.62C264.55,-106.56 249.28,-101.13 235.63,-96.29"/>
<polygon fill="midnightblue" stroke="midnightblue" points="277.87,-115 288.47,-115.05 280.22,-108.41 277.87,-115"/>
</g>
<!-- Node3&#45;&gt;Node5 -->
<g id="edge5" class="edge">
<title>Node3&#45;&gt;Node5</title>
<path fill="none" stroke="midnightblue" d="M269.22,-128.17C231.2,-125.54 181.89,-119.58 140,-106.15 116.62,-98.66 92.22,-84.87 75.22,-74.16"/>
<polygon fill="midnightblue" stroke="midnightblue" points="269.43,-131.69 279.63,-128.82 269.87,-124.7 269.43,-131.69"/>
</g>
<!-- Node4&#45;&gt;Node5 -->
<g id="edge4" class="edge">
<title>Node4&#45;&gt;Node5</title>
<path fill="none" stroke="midnightblue" d="M129.5,-71.35C121.13,-70.01 112.6,-68.65 104.43,-67.35"/>
<polygon fill="midnightblue" stroke="midnightblue" points="129.19,-74.84 139.61,-72.96 130.29,-67.93 129.19,-74.84"/>
</g>
<!-- Node6&#45;&gt;Node5 -->
<g id="edge9" class="edge">
<title>Node6&#45;&gt;Node5</title>
<path fill="none" stroke="midnightblue" d="M409.48,-45.41C319.19,-48.89 179,-54.29 104.17,-57.18"/>
<polygon fill="midnightblue" stroke="midnightblue" points="409.83,-48.9 419.69,-45.02 409.56,-41.9 409.83,-48.9"/>
</g>
<!-- Node6&#45;&gt;Node7 -->
<g id="edge7" class="edge">
<title>Node6&#45;&gt;Node7</title>
<path fill="none" stroke="midnightblue" d="M421.68,-59.67C409.01,-62.74 396.08,-65.87 384.14,-68.76"/>
<polygon fill="midnightblue" stroke="midnightblue" points="422.86,-62.99 431.75,-57.23 421.21,-56.18 422.86,-62.99"/>
</g>
<!-- Node7&#45;&gt;Node4 -->
<g id="edge8" class="edge">
<title>Node7&#45;&gt;Node4</title>
<path fill="none" stroke="midnightblue" d="M269.5,-81.15C261.13,-81.15 252.6,-81.15 244.43,-81.15"/>
<polygon fill="midnightblue" stroke="midnightblue" points="269.61,-84.65 279.61,-81.15 269.61,-77.65 269.61,-84.65"/>
</g>
</g>
</svg>
        <g id="navigator" transform="translate(0 0)" fill="#404254">
                <rect fill="#f2f5e9" fill-opacity="0.5" stroke="#606060" stroke-width=".5" x="0" y="0" width="60" height="60"/>
                <use id="zoomplus" xlink:href="#zoomPlus" x="17" y="9" onmousedown="handleZoom(evt,'in')"/>
                <use id="zoomminus" xlink:href="#zoomMin" x="42" y="9" onmousedown="handleZoom(evt,'out')"/>
                <use id="reset" xlink:href="#resetDef" x="30" y="36" onmousedown="handleReset()"/>
                <g id="arrowUp" xlink:href="#dirArrow" transform="translate(30 24)" onmousedown="handlePan(0,-1)">
                  <use xlink:href="#rim" fill="#404040">
                        <set attributeName="fill" to="#808080" begin="arrowUp.mouseover" end="arrowUp.mouseout"/>
                  </use>
                  <path fill="none" stroke="white" stroke-width="1.5" d="M0,-3.0v7 M-2.5,-0.5L0,-3.0L2.5,-0.5"/>
                </g>
                <g id="arrowRight" xlink:href="#dirArrow" transform="rotate(90) translate(36 -43)" onmousedown="handlePan(1,0)">
                  <use xlink:href="#rim" fill="#404040">
                        <set attributeName="fill" to="#808080" begin="arrowRight.mouseover" end="arrowRight.mouseout"/>
                  </use>
                  <path fill="none" stroke="white" stroke-width="1.5" d="M0,-3.0v7 M-2.5,-0.5L0,-3.0L2.5,-0.5"/>
                </g>
                <g id="arrowDown" xlink:href="#dirArrow" transform="rotate(180) translate(-30 -48)" onmousedown="handlePan(0,1)">
                  <use xlink:href="#rim" fill="#404040">
                        <set attributeName="fill" to="#808080" begin="arrowDown.mouseover" end="arrowDown.mouseout"/>
                  </use>
                  <path fill="none" stroke="white" stroke-width="1.5" d="M0,-3.0v7 M-2.5,-0.5L0,-3.0L2.5,-0.5"/>
                </g>
                <g id="arrowLeft" xlink:href="#dirArrow" transform="rotate(270) translate(-36 17)" onmousedown="handlePan(-1,0)">
                  <use xlink:href="#rim" fill="#404040">
                        <set attributeName="fill" to="#808080" begin="arrowLeft.mouseover" end="arrowLeft.mouseout"/>
                  </use>
                  <path fill="none" stroke="white" stroke-width="1.5" d="M0,-3.0v7 M-2.5,-0.5L0,-3.0L2.5,-0.5"/>
                </g>
        </g>
        <svg viewBox="0 0 15 15" width="100%" height="30px" preserveAspectRatio="xMaxYMin meet">
         <g id="arrow_out" transform="scale(0.3 0.3)">
          <a xlink:href="classHistoryURLProvider_ac0a5d8e516351b36816e720fa13bb03b_icgraph_org.svg" target="_base">
           <rect id="button" ry="5" rx="5" y="6" x="6" height="38" width="38"
                fill="#f2f5e9" fill-opacity="0.5" stroke="#606060" stroke-width="1.0"/>
           <path id="arrow"
             d="M 11.500037,31.436501 C 11.940474,20.09759 22.043105,11.32322 32.158766,21.979434 L 37.068811,17.246167 C 37.068811,17.246167 37.088388,32 37.088388,32 L 22.160133,31.978069 C 22.160133,31.978069 26.997745,27.140456 26.997745,27.140456 C 18.528582,18.264221 13.291696,25.230495 11.500037,31.436501 z"
             style="fill:#404040;"/>
          </a>
         </g>
        </svg>
</svg>
