<?xml version="1.0" encoding="UTF-8" standalone="no"?>
<!DOCTYPE svg PUBLIC "-//W3C//DTD SVG 1.1//EN"
 "http://www.w3.org/Graphics/SVG/1.1/DTD/svg11.dtd">
<!-- Generated by graphviz version 2.43.0 (0)
 -->
<!-- Title: components/omnibox/browser/autocomplete_match.h Pages: 1 -->
<svg width="2229pt" height="206pt"
 viewBox="0.00 0.00 2229.00 206.00" xmlns="http://www.w3.org/2000/svg" xmlns:xlink="http://www.w3.org/1999/xlink">
<g id="graph0" class="graph" transform="scale(1 1) rotate(0) translate(4 202)">
<title>components/omnibox/browser/autocomplete_match.h</title>
<polygon fill="white" stroke="transparent" points="-4,4 -4,-202 2225,-202 2225,4 -4,4"/>
<!-- Node1 -->
<g id="node1" class="node">
<title>Node1</title>
<g id="a_node1"><a xlink:title=" ">
<polygon fill="#bfbfbf" stroke="black" points="838.5,-156.5 838.5,-197.5 954.5,-197.5 954.5,-156.5 838.5,-156.5"/>
<text text-anchor="start" x="846.5" y="-185.5" font-family="Helvetica,sans-Serif" font-size="10.00">components/omnibox</text>
<text text-anchor="start" x="846.5" y="-174.5" font-family="Helvetica,sans-Serif" font-size="10.00">/browser/autocomplete</text>
<text text-anchor="middle" x="896.5" y="-163.5" font-family="Helvetica,sans-Serif" font-size="10.00">_match.h</text>
</a>
</g>
</g>
<!-- Node2 -->
<g id="node2" class="node">
<title>Node2</title>
<g id="a_node2"><a xlink:title=" ">
<polygon fill="white" stroke="#bfbfbf" points="1342.5,-11.5 1342.5,-30.5 1394.5,-30.5 1394.5,-11.5 1342.5,-11.5"/>
<text text-anchor="middle" x="1368.5" y="-18.5" font-family="Helvetica,sans-Serif" font-size="10.00">stddef.h</text>
</a>
</g>
</g>
<!-- Node1&#45;&gt;Node2 -->
<g id="edge1" class="edge">
<title>Node1&#45;&gt;Node2</title>
<path fill="none" stroke="midnightblue" d="M838.34,-165.51C812.34,-157.61 784.1,-143.85 768.5,-120 758.28,-104.38 755.73,-91.61 768.5,-78 811.54,-32.13 1273.25,-60.07 1333.5,-42 1338.36,-40.54 1343.27,-38.31 1347.81,-35.86"/>
<polygon fill="midnightblue" stroke="midnightblue" points="1349.69,-38.81 1356.49,-30.69 1346.11,-32.8 1349.69,-38.81"/>
</g>
<!-- Node3 -->
<g id="node3" class="node">
<title>Node3</title>
<g id="a_node3"><a xlink:title=" ">
<polygon fill="white" stroke="#bfbfbf" points="777,-89.5 777,-108.5 812,-108.5 812,-89.5 777,-89.5"/>
<text text-anchor="middle" x="794.5" y="-96.5" font-family="Helvetica,sans-Serif" font-size="10.00">map</text>
</a>
</g>
</g>
<!-- Node1&#45;&gt;Node3 -->
<g id="edge2" class="edge">
<title>Node1&#45;&gt;Node3</title>
<path fill="none" stroke="midnightblue" d="M870.23,-156.43C852.7,-143.37 830.03,-126.47 814.07,-114.58"/>
<polygon fill="midnightblue" stroke="midnightblue" points="816.09,-111.72 805.98,-108.55 811.91,-117.33 816.09,-111.72"/>
</g>
<!-- Node4 -->
<g id="node4" class="node">
<title>Node4</title>
<g id="a_node4"><a xlink:title=" ">
<polygon fill="white" stroke="#bfbfbf" points="59.5,-11.5 59.5,-30.5 111.5,-30.5 111.5,-11.5 59.5,-11.5"/>
<text text-anchor="middle" x="85.5" y="-18.5" font-family="Helvetica,sans-Serif" font-size="10.00">memory</text>
</a>
</g>
</g>
<!-- Node1&#45;&gt;Node4 -->
<g id="edge3" class="edge">
<title>Node1&#45;&gt;Node4</title>
<path fill="none" stroke="midnightblue" d="M838.39,-175.42C740.49,-173.21 537.12,-163.28 371.5,-120 325.65,-108.02 318.51,-92.82 273.5,-78 207.15,-56.16 185.5,-67.59 120.5,-42 116.06,-40.25 111.5,-38.01 107.2,-35.67"/>
<polygon fill="midnightblue" stroke="midnightblue" points="108.75,-32.53 98.35,-30.53 105.24,-38.58 108.75,-32.53"/>
</g>
<!-- Node5 -->
<g id="node5" class="node">
<title>Node5</title>
<g id="a_node5"><a xlink:title=" ">
<polygon fill="white" stroke="#bfbfbf" points="0,-11.5 0,-30.5 41,-30.5 41,-11.5 0,-11.5"/>
<text text-anchor="middle" x="20.5" y="-18.5" font-family="Helvetica,sans-Serif" font-size="10.00">string</text>
</a>
</g>
</g>
<!-- Node1&#45;&gt;Node5 -->
<g id="edge4" class="edge">
<title>Node1&#45;&gt;Node5</title>
<path fill="none" stroke="midnightblue" d="M838.39,-176.21C683.91,-176.06 266.25,-170.83 139.5,-120 95.01,-102.16 54.52,-61.31 34.21,-38.38"/>
<polygon fill="midnightblue" stroke="midnightblue" points="36.64,-35.83 27.45,-30.56 31.34,-40.41 36.64,-35.83"/>
</g>
<!-- Node6 -->
<g id="node6" class="node">
<title>Node6</title>
<g id="a_node6"><a xlink:title=" ">
<polygon fill="white" stroke="#bfbfbf" points="830.5,-89.5 830.5,-108.5 870.5,-108.5 870.5,-89.5 830.5,-89.5"/>
<text text-anchor="middle" x="850.5" y="-96.5" font-family="Helvetica,sans-Serif" font-size="10.00">utility</text>
</a>
</g>
</g>
<!-- Node1&#45;&gt;Node6 -->
<g id="edge5" class="edge">
<title>Node1&#45;&gt;Node6</title>
<path fill="none" stroke="midnightblue" d="M884.65,-156.43C877.33,-144.33 868.02,-128.95 860.97,-117.3"/>
<polygon fill="midnightblue" stroke="midnightblue" points="863.85,-115.29 855.68,-108.55 857.86,-118.92 863.85,-115.29"/>
</g>
<!-- Node7 -->
<g id="node7" class="node">
<title>Node7</title>
<g id="a_node7"><a xlink:title=" ">
<polygon fill="white" stroke="#bfbfbf" points="494.5,-11.5 494.5,-30.5 538.5,-30.5 538.5,-11.5 494.5,-11.5"/>
<text text-anchor="middle" x="516.5" y="-18.5" font-family="Helvetica,sans-Serif" font-size="10.00">vector</text>
</a>
</g>
</g>
<!-- Node1&#45;&gt;Node7 -->
<g id="edge6" class="edge">
<title>Node1&#45;&gt;Node7</title>
<path fill="none" stroke="midnightblue" d="M838.31,-171.71C757.46,-164.78 616.35,-148.89 574.5,-120 546.4,-100.6 529.81,-62.76 522,-40.2"/>
<polygon fill="midnightblue" stroke="midnightblue" points="525.27,-38.93 518.85,-30.5 518.61,-41.09 525.27,-38.93"/>
</g>
<!-- Node8 -->
<g id="node8" class="node">
<title>Node8</title>
<g id="a_node8"><a xlink:title=" ">
<polygon fill="white" stroke="#bfbfbf" points="888.5,-84 888.5,-114 998.5,-114 998.5,-84 888.5,-84"/>
<text text-anchor="start" x="896.5" y="-102" font-family="Helvetica,sans-Serif" font-size="10.00">base/memory/scoped</text>
<text text-anchor="middle" x="943.5" y="-91" font-family="Helvetica,sans-Serif" font-size="10.00">_refptr.h</text>
</a>
</g>
</g>
<!-- Node1&#45;&gt;Node8 -->
<g id="edge7" class="edge">
<title>Node1&#45;&gt;Node8</title>
<path fill="none" stroke="midnightblue" d="M908.6,-156.43C914.91,-146.22 922.67,-133.68 929.27,-123.01"/>
<polygon fill="midnightblue" stroke="midnightblue" points="932.42,-124.57 934.7,-114.23 926.47,-120.89 932.42,-124.57"/>
</g>
<!-- Node9 -->
<g id="node9" class="node">
<title>Node9</title>
<g id="a_node9"><a xlink:title=" ">
<polygon fill="white" stroke="#bfbfbf" points="1016.5,-89.5 1016.5,-108.5 1142.5,-108.5 1142.5,-89.5 1016.5,-89.5"/>
<text text-anchor="middle" x="1079.5" y="-96.5" font-family="Helvetica,sans-Serif" font-size="10.00">base/memory/weak_ptr.h</text>
</a>
</g>
</g>
<!-- Node1&#45;&gt;Node9 -->
<g id="edge8" class="edge">
<title>Node1&#45;&gt;Node9</title>
<path fill="none" stroke="midnightblue" d="M943.63,-156.43C976.97,-142.58 1020.69,-124.42 1049.42,-112.49"/>
<polygon fill="midnightblue" stroke="midnightblue" points="1051.01,-115.62 1058.91,-108.55 1048.33,-109.16 1051.01,-115.62"/>
</g>
<!-- Node10 -->
<g id="node10" class="node">
<title>Node10</title>
<g id="a_node10"><a xlink:title=" ">
<polygon fill="white" stroke="#bfbfbf" points="1160.5,-84 1160.5,-114 1274.5,-114 1274.5,-84 1160.5,-84"/>
<text text-anchor="start" x="1168.5" y="-102" font-family="Helvetica,sans-Serif" font-size="10.00">base/strings/utf_offset</text>
<text text-anchor="middle" x="1217.5" y="-91" font-family="Helvetica,sans-Serif" font-size="10.00">_string_conversions.h</text>
</a>
</g>
</g>
<!-- Node1&#45;&gt;Node10 -->
<g id="edge9" class="edge">
<title>Node1&#45;&gt;Node10</title>
<path fill="none" stroke="midnightblue" d="M954.53,-164.6C1006.42,-154.09 1084.4,-137.51 1151.5,-120 1155.3,-119.01 1159.21,-117.94 1163.14,-116.84"/>
<polygon fill="midnightblue" stroke="midnightblue" points="1164.26,-120.16 1172.9,-114.03 1162.32,-113.43 1164.26,-120.16"/>
</g>
<!-- Node11 -->
<g id="node11" class="node">
<title>Node11</title>
<g id="a_node11"><a xlink:title=" ">
<polygon fill="white" stroke="#bfbfbf" points="1292.5,-89.5 1292.5,-108.5 1392.5,-108.5 1392.5,-89.5 1292.5,-89.5"/>
<text text-anchor="middle" x="1342.5" y="-96.5" font-family="Helvetica,sans-Serif" font-size="10.00">build/build_config.h</text>
</a>
</g>
</g>
<!-- Node1&#45;&gt;Node11 -->
<g id="edge10" class="edge">
<title>Node1&#45;&gt;Node11</title>
<path fill="none" stroke="midnightblue" d="M954.82,-170.92C1031.13,-163.51 1168.63,-147.53 1283.5,-120 1292.52,-117.84 1302.11,-114.88 1310.89,-111.9"/>
<polygon fill="midnightblue" stroke="midnightblue" points="1312.09,-115.19 1320.37,-108.58 1309.77,-108.59 1312.09,-115.19"/>
</g>
<!-- Node12 -->
<g id="node12" class="node">
<title>Node12</title>
<g id="a_node12"><a xlink:href="../../df/dab/autocomplete__input_8h.html" target="_top" xlink:title=" ">
<polygon fill="white" stroke="black" points="604.5,-78.5 604.5,-119.5 720.5,-119.5 720.5,-78.5 604.5,-78.5"/>
<text text-anchor="start" x="612.5" y="-107.5" font-family="Helvetica,sans-Serif" font-size="10.00">components/omnibox</text>
<text text-anchor="start" x="612.5" y="-96.5" font-family="Helvetica,sans-Serif" font-size="10.00">/browser/autocomplete</text>
<text text-anchor="middle" x="662.5" y="-85.5" font-family="Helvetica,sans-Serif" font-size="10.00">_input.h</text>
</a>
</g>
</g>
<!-- Node1&#45;&gt;Node12 -->
<g id="edge11" class="edge">
<title>Node1&#45;&gt;Node12</title>
<path fill="none" stroke="midnightblue" d="M838.36,-157.12C805.71,-146.51 764.8,-133.22 730.65,-122.13"/>
<polygon fill="midnightblue" stroke="midnightblue" points="731.34,-118.68 720.75,-118.92 729.18,-125.34 731.34,-118.68"/>
</g>
<!-- Node17 -->
<g id="node17" class="node">
<title>Node17</title>
<g id="a_node17"><a xlink:title=" ">
<polygon fill="white" stroke="#bfbfbf" points="556.5,-11.5 556.5,-30.5 610.5,-30.5 610.5,-11.5 556.5,-11.5"/>
<text text-anchor="middle" x="583.5" y="-18.5" font-family="Helvetica,sans-Serif" font-size="10.00">url/gurl.h</text>
</a>
</g>
</g>
<!-- Node1&#45;&gt;Node17 -->
<g id="edge38" class="edge">
<title>Node1&#45;&gt;Node17</title>
<path fill="none" stroke="midnightblue" d="M838.39,-173.15C760.39,-168.04 627.85,-154.42 595.5,-120 575.61,-98.83 576.79,-62.75 579.87,-40.77"/>
<polygon fill="midnightblue" stroke="midnightblue" points="583.35,-41.15 581.55,-30.71 576.45,-40 583.35,-41.15"/>
</g>
<!-- Node19 -->
<g id="node19" class="node">
<title>Node19</title>
<g id="a_node19"><a xlink:href="../../df/d34/autocomplete__match__type_8h.html" target="_top" xlink:title=" ">
<polygon fill="white" stroke="black" points="148.5,-78.5 148.5,-119.5 264.5,-119.5 264.5,-78.5 148.5,-78.5"/>
<text text-anchor="start" x="156.5" y="-107.5" font-family="Helvetica,sans-Serif" font-size="10.00">components/omnibox</text>
<text text-anchor="start" x="156.5" y="-96.5" font-family="Helvetica,sans-Serif" font-size="10.00">/browser/autocomplete</text>
<text text-anchor="middle" x="206.5" y="-85.5" font-family="Helvetica,sans-Serif" font-size="10.00">_match_type.h</text>
</a>
</g>
</g>
<!-- Node1&#45;&gt;Node19 -->
<g id="edge21" class="edge">
<title>Node1&#45;&gt;Node19</title>
<path fill="none" stroke="midnightblue" d="M838.48,-171.93C734.14,-164.25 508.02,-146.06 318.5,-120 304.27,-118.04 289.09,-115.58 274.64,-113.07"/>
<polygon fill="midnightblue" stroke="midnightblue" points="275.24,-109.62 264.78,-111.32 274.02,-116.51 275.24,-109.62"/>
</g>
<!-- Node20 -->
<g id="node20" class="node">
<title>Node20</title>
<g id="a_node20"><a xlink:title=" ">
<polygon fill="white" stroke="#bfbfbf" points="1410.5,-84 1410.5,-114 1520.5,-114 1520.5,-84 1410.5,-84"/>
<text text-anchor="start" x="1418.5" y="-102" font-family="Helvetica,sans-Serif" font-size="10.00">components/omnibox</text>
<text text-anchor="middle" x="1465.5" y="-91" font-family="Helvetica,sans-Serif" font-size="10.00">/browser/buildflags.h</text>
</a>
</g>
</g>
<!-- Node1&#45;&gt;Node20 -->
<g id="edge23" class="edge">
<title>Node1&#45;&gt;Node20</title>
<path fill="none" stroke="midnightblue" d="M954.63,-173.19C1049.18,-167.82 1241.78,-153.49 1401.5,-120 1405.85,-119.09 1410.32,-118 1414.79,-116.82"/>
<polygon fill="midnightblue" stroke="midnightblue" points="1415.81,-120.17 1424.49,-114.09 1413.92,-113.43 1415.81,-120.17"/>
</g>
<!-- Node21 -->
<g id="node21" class="node">
<title>Node21</title>
<g id="a_node21"><a xlink:href="../../dd/d32/suggestion__answer_8h.html" target="_top" xlink:title=" ">
<polygon fill="white" stroke="black" points="380.5,-78.5 380.5,-119.5 490.5,-119.5 490.5,-78.5 380.5,-78.5"/>
<text text-anchor="start" x="388.5" y="-107.5" font-family="Helvetica,sans-Serif" font-size="10.00">components/omnibox</text>
<text text-anchor="start" x="388.5" y="-96.5" font-family="Helvetica,sans-Serif" font-size="10.00">/browser/suggestion</text>
<text text-anchor="middle" x="435.5" y="-85.5" font-family="Helvetica,sans-Serif" font-size="10.00">_answer.h</text>
</a>
</g>
</g>
<!-- Node1&#45;&gt;Node21 -->
<g id="edge24" class="edge">
<title>Node1&#45;&gt;Node21</title>
<path fill="none" stroke="midnightblue" d="M838.43,-169.12C763.81,-159.88 630.43,-142.07 517.5,-120 512.11,-118.95 506.53,-117.77 500.95,-116.54"/>
<polygon fill="midnightblue" stroke="midnightblue" points="501.45,-113.06 490.92,-114.25 499.9,-119.89 501.45,-113.06"/>
</g>
<!-- Node25 -->
<g id="node25" class="node">
<title>Node25</title>
<g id="a_node25"><a xlink:title=" ">
<polygon fill="white" stroke="#bfbfbf" points="1538.5,-84 1538.5,-114 1658.5,-114 1658.5,-84 1538.5,-84"/>
<text text-anchor="start" x="1546.5" y="-102" font-family="Helvetica,sans-Serif" font-size="10.00">components/query_tiles</text>
<text text-anchor="middle" x="1598.5" y="-91" font-family="Helvetica,sans-Serif" font-size="10.00">/tile.h</text>
</a>
</g>
</g>
<!-- Node1&#45;&gt;Node25 -->
<g id="edge33" class="edge">
<title>Node1&#45;&gt;Node25</title>
<path fill="none" stroke="midnightblue" d="M954.61,-174.62C1066.71,-171.13 1320.21,-159.21 1529.5,-120 1534.51,-119.06 1539.67,-117.92 1544.81,-116.65"/>
<polygon fill="midnightblue" stroke="midnightblue" points="1545.84,-120 1554.64,-114.09 1544.08,-113.22 1545.84,-120"/>
</g>
<!-- Node26 -->
<g id="node26" class="node">
<title>Node26</title>
<g id="a_node26"><a xlink:title=" ">
<polygon fill="white" stroke="#bfbfbf" points="1677,-84 1677,-114 1818,-114 1818,-84 1677,-84"/>
<text text-anchor="start" x="1685" y="-102" font-family="Helvetica,sans-Serif" font-size="10.00">components/search_engines</text>
<text text-anchor="middle" x="1747.5" y="-91" font-family="Helvetica,sans-Serif" font-size="10.00">/template_url.h</text>
</a>
</g>
</g>
<!-- Node1&#45;&gt;Node26 -->
<g id="edge34" class="edge">
<title>Node1&#45;&gt;Node26</title>
<path fill="none" stroke="midnightblue" d="M954.93,-175.19C1084.18,-172.64 1403.79,-162.22 1667.5,-120 1673.81,-118.99 1680.35,-117.72 1686.85,-116.32"/>
<polygon fill="midnightblue" stroke="midnightblue" points="1688.01,-119.65 1696.99,-114.03 1686.46,-112.82 1688.01,-119.65"/>
</g>
<!-- Node27 -->
<g id="node27" class="node">
<title>Node27</title>
<g id="a_node27"><a xlink:title=" ">
<polygon fill="white" stroke="#bfbfbf" points="1836.5,-84 1836.5,-114 1964.5,-114 1964.5,-84 1836.5,-84"/>
<text text-anchor="start" x="1844.5" y="-102" font-family="Helvetica,sans-Serif" font-size="10.00">components/url_formatter</text>
<text text-anchor="middle" x="1900.5" y="-91" font-family="Helvetica,sans-Serif" font-size="10.00">/url_formatter.h</text>
</a>
</g>
</g>
<!-- Node1&#45;&gt;Node27 -->
<g id="edge35" class="edge">
<title>Node1&#45;&gt;Node27</title>
<path fill="none" stroke="midnightblue" d="M954.71,-176.67C1101.96,-177.45 1500.79,-173.98 1827.5,-120 1833.23,-119.05 1839.16,-117.84 1845.05,-116.47"/>
<polygon fill="midnightblue" stroke="midnightblue" points="1846,-119.84 1854.87,-114.06 1844.32,-113.05 1846,-119.84"/>
</g>
<!-- Node28 -->
<g id="node28" class="node">
<title>Node28</title>
<g id="a_node28"><a xlink:title=" ">
<polygon fill="white" stroke="#bfbfbf" points="1983,-84 1983,-114 2100,-114 2100,-84 1983,-84"/>
<text text-anchor="start" x="1991" y="-102" font-family="Helvetica,sans-Serif" font-size="10.00">ui/base/page_transition</text>
<text text-anchor="middle" x="2041.5" y="-91" font-family="Helvetica,sans-Serif" font-size="10.00">_types.h</text>
</a>
</g>
</g>
<!-- Node1&#45;&gt;Node28 -->
<g id="edge36" class="edge">
<title>Node1&#45;&gt;Node28</title>
<path fill="none" stroke="midnightblue" d="M954.58,-174.77C1148.85,-170.38 1774.86,-153.89 1973.5,-120 1978.81,-119.09 1984.29,-117.91 1989.72,-116.58"/>
<polygon fill="midnightblue" stroke="midnightblue" points="1990.63,-119.96 1999.42,-114.04 1988.86,-113.19 1990.63,-119.96"/>
</g>
<!-- Node29 -->
<g id="node29" class="node">
<title>Node29</title>
<g id="a_node29"><a xlink:title=" ">
<polygon fill="white" stroke="#bfbfbf" points="2118,-89.5 2118,-108.5 2221,-108.5 2221,-89.5 2118,-89.5"/>
<text text-anchor="middle" x="2169.5" y="-96.5" font-family="Helvetica,sans-Serif" font-size="10.00">ui/gfx/range/range.h</text>
</a>
</g>
</g>
<!-- Node1&#45;&gt;Node29 -->
<g id="edge37" class="edge">
<title>Node1&#45;&gt;Node29</title>
<path fill="none" stroke="midnightblue" d="M954.53,-175.43C1164.47,-173.06 1883.85,-161.98 2109.5,-120 2119.25,-118.19 2129.59,-115.16 2138.89,-112.01"/>
<polygon fill="midnightblue" stroke="midnightblue" points="2140.25,-115.24 2148.49,-108.59 2137.9,-108.65 2140.25,-115.24"/>
</g>
<!-- Node12&#45;&gt;Node2 -->
<g id="edge12" class="edge">
<title>Node12&#45;&gt;Node2</title>
<path fill="none" stroke="midnightblue" d="M720.82,-80.69C725.42,-79.67 730.02,-78.75 734.5,-78 997.56,-34.07 1077.9,-118.16 1333.5,-42 1338.36,-40.55 1343.27,-38.32 1347.81,-35.87"/>
<polygon fill="midnightblue" stroke="midnightblue" points="1349.7,-38.82 1356.5,-30.7 1346.11,-32.81 1349.7,-38.82"/>
</g>
<!-- Node12&#45;&gt;Node5 -->
<g id="edge13" class="edge">
<title>Node12&#45;&gt;Node5</title>
<path fill="none" stroke="midnightblue" d="M604.48,-90.28C573.38,-86.29 534.39,-81.54 499.5,-78 300.33,-57.8 239.63,-107.63 50.5,-42 46.55,-40.63 42.63,-38.62 38.98,-36.39"/>
<polygon fill="midnightblue" stroke="midnightblue" points="40.85,-33.42 30.62,-30.64 36.88,-39.19 40.85,-33.42"/>
</g>
<!-- Node12&#45;&gt;Node7 -->
<g id="edge14" class="edge">
<title>Node12&#45;&gt;Node7</title>
<path fill="none" stroke="midnightblue" d="M619.27,-78.45C597.44,-68.2 570.72,-55.08 547.5,-42 544.18,-40.13 540.73,-38.05 537.39,-35.95"/>
<polygon fill="midnightblue" stroke="midnightblue" points="539.26,-33 528.96,-30.52 535.47,-38.88 539.26,-33"/>
</g>
<!-- Node13 -->
<g id="node13" class="node">
<title>Node13</title>
<g id="a_node13"><a xlink:title=" ">
<polygon fill="white" stroke="#bfbfbf" points="775,-6 775,-36 916,-36 916,-6 775,-6"/>
<text text-anchor="start" x="783" y="-24" font-family="Helvetica,sans-Serif" font-size="10.00">components/search_engines</text>
<text text-anchor="middle" x="845.5" y="-13" font-family="Helvetica,sans-Serif" font-size="10.00">/omnibox_focus_type.h</text>
</a>
</g>
</g>
<!-- Node12&#45;&gt;Node13 -->
<g id="edge15" class="edge">
<title>Node12&#45;&gt;Node13</title>
<path fill="none" stroke="midnightblue" d="M709.63,-78.43C738.14,-66.59 774.24,-51.59 802.06,-40.04"/>
<polygon fill="midnightblue" stroke="midnightblue" points="803.64,-43.17 811.53,-36.11 800.96,-36.71 803.64,-43.17"/>
</g>
<!-- Node14 -->
<g id="node14" class="node">
<title>Node14</title>
<g id="a_node14"><a xlink:title=" ">
<polygon fill="white" stroke="#bfbfbf" points="628.5,-6 628.5,-36 756.5,-36 756.5,-6 628.5,-6"/>
<text text-anchor="start" x="636.5" y="-24" font-family="Helvetica,sans-Serif" font-size="10.00">third_party/abseil</text>
<text text-anchor="middle" x="692.5" y="-13" font-family="Helvetica,sans-Serif" font-size="10.00">&#45;cpp/absl/types/optional.h</text>
</a>
</g>
</g>
<!-- Node12&#45;&gt;Node14 -->
<g id="edge16" class="edge">
<title>Node12&#45;&gt;Node14</title>
<path fill="none" stroke="midnightblue" d="M670.23,-78.43C674.17,-68.43 679.01,-56.18 683.16,-45.66"/>
<polygon fill="midnightblue" stroke="midnightblue" points="686.47,-46.81 686.88,-36.23 679.96,-44.24 686.47,-46.81"/>
</g>
<!-- Node15 -->
<g id="node15" class="node">
<title>Node15</title>
<g id="a_node15"><a xlink:title=" ">
<polygon fill="white" stroke="#bfbfbf" points="934.5,-6 934.5,-36 1068.5,-36 1068.5,-6 934.5,-6"/>
<text text-anchor="start" x="942.5" y="-24" font-family="Helvetica,sans-Serif" font-size="10.00">third_party/metrics</text>
<text text-anchor="middle" x="1001.5" y="-13" font-family="Helvetica,sans-Serif" font-size="10.00">_proto/omnibox_event.pb.h</text>
</a>
</g>
</g>
<!-- Node12&#45;&gt;Node15 -->
<g id="edge17" class="edge">
<title>Node12&#45;&gt;Node15</title>
<path fill="none" stroke="midnightblue" d="M720.55,-81.42C725.26,-80.21 729.95,-79.06 734.5,-78 818.64,-58.42 841.23,-61 925.5,-42 930.24,-40.93 935.14,-39.77 940.05,-38.57"/>
<polygon fill="midnightblue" stroke="midnightblue" points="941.26,-41.87 950.11,-36.05 939.56,-35.08 941.26,-41.87"/>
</g>
<!-- Node16 -->
<g id="node16" class="node">
<title>Node16</title>
<g id="a_node16"><a xlink:title=" ">
<polygon fill="white" stroke="#bfbfbf" points="1086.5,-0.5 1086.5,-41.5 1196.5,-41.5 1196.5,-0.5 1086.5,-0.5"/>
<text text-anchor="start" x="1094.5" y="-29.5" font-family="Helvetica,sans-Serif" font-size="10.00">third_party/metrics</text>
<text text-anchor="start" x="1094.5" y="-18.5" font-family="Helvetica,sans-Serif" font-size="10.00">_proto/omnibox_input</text>
<text text-anchor="middle" x="1141.5" y="-7.5" font-family="Helvetica,sans-Serif" font-size="10.00">_type.pb.h</text>
</a>
</g>
</g>
<!-- Node12&#45;&gt;Node16 -->
<g id="edge18" class="edge">
<title>Node12&#45;&gt;Node16</title>
<path fill="none" stroke="midnightblue" d="M720.86,-80.91C725.45,-79.84 730.04,-78.85 734.5,-78 881.85,-50 925.52,-72.02 1076.1,-42.08"/>
<polygon fill="midnightblue" stroke="midnightblue" points="1077.07,-45.45 1086.17,-40.03 1075.68,-38.59 1077.07,-45.45"/>
</g>
<!-- Node12&#45;&gt;Node17 -->
<g id="edge19" class="edge">
<title>Node12&#45;&gt;Node17</title>
<path fill="none" stroke="midnightblue" d="M642.16,-78.43C628.95,-65.73 611.99,-49.41 599.7,-37.59"/>
<polygon fill="midnightblue" stroke="midnightblue" points="602.02,-34.96 592.39,-30.55 597.17,-40.01 602.02,-34.96"/>
</g>
<!-- Node18 -->
<g id="node18" class="node">
<title>Node18</title>
<g id="a_node18"><a xlink:title=" ">
<polygon fill="white" stroke="#bfbfbf" points="1214.5,-6 1214.5,-36 1324.5,-36 1324.5,-6 1214.5,-6"/>
<text text-anchor="start" x="1222.5" y="-24" font-family="Helvetica,sans-Serif" font-size="10.00">url/third_party/mozilla</text>
<text text-anchor="middle" x="1269.5" y="-13" font-family="Helvetica,sans-Serif" font-size="10.00">/url_parse.h</text>
</a>
</g>
</g>
<!-- Node12&#45;&gt;Node18 -->
<g id="edge20" class="edge">
<title>Node12&#45;&gt;Node18</title>
<path fill="none" stroke="midnightblue" d="M720.83,-80.77C725.43,-79.73 730.03,-78.78 734.5,-78 941.29,-41.73 999.32,-81.56 1205.5,-42 1210.18,-41.1 1215.01,-39.98 1219.81,-38.72"/>
<polygon fill="midnightblue" stroke="midnightblue" points="1220.88,-42.06 1229.57,-36 1219,-35.32 1220.88,-42.06"/>
</g>
<!-- Node19&#45;&gt;Node5 -->
<g id="edge22" class="edge">
<title>Node19&#45;&gt;Node5</title>
<path fill="none" stroke="midnightblue" d="M148.42,-80.89C118.45,-71.13 81.73,-57.72 50.5,-42 47.21,-40.35 43.85,-38.4 40.63,-36.38"/>
<polygon fill="midnightblue" stroke="midnightblue" points="42.33,-33.3 32.07,-30.67 38.45,-39.13 42.33,-33.3"/>
</g>
<!-- Node21&#45;&gt;Node4 -->
<g id="edge25" class="edge">
<title>Node21&#45;&gt;Node4</title>
<path fill="none" stroke="midnightblue" d="M380.07,-84.98C368.97,-82.53 357.39,-80.09 346.5,-78 246.61,-58.84 216.44,-75.78 120.5,-42 115.92,-40.39 111.25,-38.18 106.88,-35.82"/>
<polygon fill="midnightblue" stroke="midnightblue" points="108.33,-32.61 97.93,-30.57 104.79,-38.65 108.33,-32.61"/>
</g>
<!-- Node21&#45;&gt;Node5 -->
<g id="edge26" class="edge">
<title>Node21&#45;&gt;Node5</title>
<path fill="none" stroke="midnightblue" d="M380.25,-91.33C281.15,-79.17 80.69,-53.58 50.5,-42 46.66,-40.53 42.82,-38.5 39.23,-36.29"/>
<polygon fill="midnightblue" stroke="midnightblue" points="41.2,-33.4 30.97,-30.66 37.26,-39.18 41.2,-33.4"/>
</g>
<!-- Node21&#45;&gt;Node7 -->
<g id="edge27" class="edge">
<title>Node21&#45;&gt;Node7</title>
<path fill="none" stroke="midnightblue" d="M456.36,-78.43C469.89,-65.73 487.29,-49.41 499.89,-37.59"/>
<polygon fill="midnightblue" stroke="midnightblue" points="502.49,-39.95 507.39,-30.55 497.7,-34.84 502.49,-39.95"/>
</g>
<!-- Node21&#45;&gt;Node14 -->
<g id="edge31" class="edge">
<title>Node21&#45;&gt;Node14</title>
<path fill="none" stroke="midnightblue" d="M490.63,-81.7C533.19,-69.11 591.89,-51.75 635.02,-39"/>
<polygon fill="midnightblue" stroke="midnightblue" points="636.2,-42.3 644.8,-36.11 634.22,-35.59 636.2,-42.3"/>
</g>
<!-- Node21&#45;&gt;Node17 -->
<g id="edge32" class="edge">
<title>Node21&#45;&gt;Node17</title>
<path fill="none" stroke="midnightblue" d="M475.63,-78.46C497.07,-67.89 523.85,-54.48 547.5,-42 551.41,-39.94 555.54,-37.7 559.54,-35.5"/>
<polygon fill="midnightblue" stroke="midnightblue" points="561.47,-38.43 568.52,-30.52 558.07,-32.31 561.47,-38.43"/>
</g>
<!-- Node22 -->
<g id="node22" class="node">
<title>Node22</title>
<g id="a_node22"><a xlink:title=" ">
<polygon fill="white" stroke="#bfbfbf" points="264,-11.5 264,-30.5 377,-30.5 377,-11.5 264,-11.5"/>
<text text-anchor="middle" x="320.5" y="-18.5" font-family="Helvetica,sans-Serif" font-size="10.00">base/gtest_prod_util.h</text>
</a>
</g>
</g>
<!-- Node21&#45;&gt;Node22 -->
<g id="edge28" class="edge">
<title>Node21&#45;&gt;Node22</title>
<path fill="none" stroke="midnightblue" d="M405.88,-78.43C385.94,-65.24 360.08,-48.16 342.07,-36.26"/>
<polygon fill="midnightblue" stroke="midnightblue" points="343.71,-33.15 333.44,-30.55 339.85,-38.99 343.71,-33.15"/>
</g>
<!-- Node23 -->
<g id="node23" class="node">
<title>Node23</title>
<g id="a_node23"><a xlink:title=" ">
<polygon fill="white" stroke="#bfbfbf" points="395,-11.5 395,-30.5 476,-30.5 476,-11.5 395,-11.5"/>
<text text-anchor="middle" x="435.5" y="-18.5" font-family="Helvetica,sans-Serif" font-size="10.00">base/macros.h</text>
</a>
</g>
</g>
<!-- Node21&#45;&gt;Node23 -->
<g id="edge29" class="edge">
<title>Node21&#45;&gt;Node23</title>
<path fill="none" stroke="midnightblue" d="M435.5,-78.43C435.5,-66.82 435.5,-52.18 435.5,-40.72"/>
<polygon fill="midnightblue" stroke="midnightblue" points="439,-40.55 435.5,-30.55 432,-40.55 439,-40.55"/>
</g>
<!-- Node24 -->
<g id="node24" class="node">
<title>Node24</title>
<g id="a_node24"><a xlink:title=" ">
<polygon fill="white" stroke="#bfbfbf" points="129.5,-11.5 129.5,-30.5 245.5,-30.5 245.5,-11.5 129.5,-11.5"/>
<text text-anchor="middle" x="187.5" y="-18.5" font-family="Helvetica,sans-Serif" font-size="10.00">base/memory/ptr_util.h</text>
</a>
</g>
</g>
<!-- Node21&#45;&gt;Node24 -->
<g id="edge30" class="edge">
<title>Node21&#45;&gt;Node24</title>
<path fill="none" stroke="midnightblue" d="M380.46,-81.13C333.27,-66.67 266.53,-46.22 225.19,-33.55"/>
<polygon fill="midnightblue" stroke="midnightblue" points="226.09,-30.17 215.5,-30.58 224.04,-36.86 226.09,-30.17"/>
</g>
</g>
</svg>
