<?xml version="1.0" encoding="UTF-8" standalone="no"?>
<!DOCTYPE svg PUBLIC "-//W3C//DTD SVG 1.1//EN"
 "http://www.w3.org/Graphics/SVG/1.1/DTD/svg11.dtd">
<!-- Generated by graphviz version 2.43.0 (0)
 -->
<!-- Title: components/omnibox/browser/actions/omnibox_pedal_implementations.h Pages: 1 -->
<!--zoomable 273 -->
<svg id="main" version="1.1" xmlns="http://www.w3.org/2000/svg" xmlns:xlink="http://www.w3.org/1999/xlink" xml:space="preserve" onload="init(evt)">
<style type="text/css"><![CDATA[
.edge:hover path { stroke: red; }
.edge:hover polygon { stroke: red; fill: red; }
]]></style>
<script type="text/javascript"><![CDATA[
var edges = document.getElementsByTagName('g');
if (edges && edges.length) {
  for (var i=0;i<edges.length;i++) {
    if (edges[i].id.substr(0,4)=='edge') {
      edges[i].setAttribute('class','edge');
    }
  }
}
]]></script>
        <defs>
                <circle id="rim" cx="0" cy="0" r="7"/>
                <circle id="rim2" cx="0" cy="0" r="3.5"/>
                <g id="zoomPlus">
                        <use xlink:href="#rim" fill="#404040">
                                <set attributeName="fill" to="#808080" begin="zoomplus.mouseover" end="zoomplus.mouseout"/>
                        </use>
                        <path d="M-4,0h8M0,-4v8" fill="none" stroke="white" stroke-width="1.5" pointer-events="none"/>
                </g>
                <g id="zoomMin">
                        <use xlink:href="#rim" fill="#404040">
                                <set attributeName="fill" to="#808080" begin="zoomminus.mouseover" end="zoomminus.mouseout"/>
                        </use>
                        <path d="M-4,0h8" fill="none" stroke="white" stroke-width="1.5" pointer-events="none"/>
                </g>
                <g id="dirArrow">
                        <path fill="none" stroke="white" stroke-width="1.5" d="M0,-3.0v7 M-2.5,-0.5L0,-3.0L2.5,-0.5"/>
                </g>
               <g id="resetDef">
                       <use xlink:href="#rim2" fill="#404040">
                               <set attributeName="fill" to="#808080" begin="reset.mouseover" end="reset.mouseout"/>
                       </use>
               </g>
        </defs>

<script type="text/javascript">
var viewWidth = 1049;
var viewHeight = 273;
var sectionId = 'dynsection-0';
</script>
<script xlink:href="../../svgpan.js"/>
<svg id="graph" class="graph">
<g id="viewport">
<title>components/omnibox/browser/actions/omnibox_pedal_implementations.h</title>
<polygon fill="white" stroke="transparent" points="-4,4 -4,-269 1044.5,-269 1044.5,4 -4,4"/>
<!-- Node1 -->
<g id="node1" class="node">
<title>Node1</title>
<g id="a_node1"><a xlink:title=" ">
<polygon fill="#bfbfbf" stroke="black" points="174.5,-223.5 174.5,-264.5 304.5,-264.5 304.5,-223.5 174.5,-223.5"/>
<text text-anchor="start" x="182.5" y="-252.5" font-family="Helvetica,sans-Serif" font-size="10.00">components/omnibox</text>
<text text-anchor="start" x="182.5" y="-241.5" font-family="Helvetica,sans-Serif" font-size="10.00">/browser/actions/omnibox</text>
<text text-anchor="middle" x="239.5" y="-230.5" font-family="Helvetica,sans-Serif" font-size="10.00">_pedal_implementations.h</text>
</a>
</g>
</g>
<!-- Node2 -->
<g id="node2" class="node">
<title>Node2</title>
<g id="a_node2"><a xlink:title=" ">
<polygon fill="white" stroke="#bfbfbf" points="0,-156.5 0,-175.5 83,-175.5 83,-156.5 0,-156.5"/>
<text text-anchor="middle" x="41.5" y="-163.5" font-family="Helvetica,sans-Serif" font-size="10.00">unordered_map</text>
</a>
</g>
</g>
<!-- Node1&#45;&gt;Node2 -->
<g id="edge1" class="edge">
<title>Node1&#45;&gt;Node2</title>
<path fill="none" stroke="midnightblue" d="M187.75,-223.43C159.56,-212.73 124.09,-199.21 92.5,-187 86.21,-184.57 79.5,-181.95 73.07,-179.44"/>
<polygon fill="midnightblue" stroke="midnightblue" points="73.91,-176.01 63.32,-175.61 71.35,-182.52 73.91,-176.01"/>
</g>
<!-- Node3 -->
<g id="node3" class="node">
<title>Node3</title>
<g id="a_node3"><a xlink:title=" ">
<polygon fill="white" stroke="#bfbfbf" points="101.5,-151 101.5,-181 211.5,-181 211.5,-151 101.5,-151"/>
<text text-anchor="start" x="109.5" y="-169" font-family="Helvetica,sans-Serif" font-size="10.00">base/memory/scoped</text>
<text text-anchor="middle" x="156.5" y="-158" font-family="Helvetica,sans-Serif" font-size="10.00">_refptr.h</text>
</a>
</g>
</g>
<!-- Node1&#45;&gt;Node3 -->
<g id="edge2" class="edge">
<title>Node1&#45;&gt;Node3</title>
<path fill="none" stroke="midnightblue" d="M218.13,-223.43C206.31,-212.6 191.61,-199.15 179.54,-188.09"/>
<polygon fill="midnightblue" stroke="midnightblue" points="181.77,-185.4 172.04,-181.23 177.05,-190.56 181.77,-185.4"/>
</g>
<!-- Node4 -->
<g id="node4" class="node">
<title>Node4</title>
<g id="a_node4"><a xlink:title=" ">
<polygon fill="white" stroke="#bfbfbf" points="208.5,-6 208.5,-25 308.5,-25 308.5,-6 208.5,-6"/>
<text text-anchor="middle" x="258.5" y="-13" font-family="Helvetica,sans-Serif" font-size="10.00">build/build_config.h</text>
</a>
</g>
</g>
<!-- Node1&#45;&gt;Node4 -->
<g id="edge3" class="edge">
<title>Node1&#45;&gt;Node4</title>
<path fill="none" stroke="midnightblue" d="M241.15,-223.3C244.78,-180.11 253.37,-77.62 256.92,-35.29"/>
<polygon fill="midnightblue" stroke="midnightblue" points="260.42,-35.51 257.77,-25.26 253.44,-34.93 260.42,-35.51"/>
</g>
<!-- Node5 -->
<g id="node5" class="node">
<title>Node5</title>
<g id="a_node5"><a xlink:href="../../d1/d68/omnibox__pedal_8h.html" target="_top" xlink:title=" ">
<polygon fill="white" stroke="black" points="553.5,-145.5 553.5,-186.5 681.5,-186.5 681.5,-145.5 553.5,-145.5"/>
<text text-anchor="start" x="561.5" y="-174.5" font-family="Helvetica,sans-Serif" font-size="10.00">components/omnibox</text>
<text text-anchor="start" x="561.5" y="-163.5" font-family="Helvetica,sans-Serif" font-size="10.00">/browser/actions/omnibox</text>
<text text-anchor="middle" x="617.5" y="-152.5" font-family="Helvetica,sans-Serif" font-size="10.00">_pedal.h</text>
</a>
</g>
</g>
<!-- Node1&#45;&gt;Node5 -->
<g id="edge4" class="edge">
<title>Node1&#45;&gt;Node5</title>
<path fill="none" stroke="midnightblue" d="M304.91,-229.85C371.27,-216.51 473.83,-195.89 543.22,-181.94"/>
<polygon fill="midnightblue" stroke="midnightblue" points="544.09,-185.33 553.2,-179.93 542.71,-178.47 544.09,-185.33"/>
</g>
<!-- Node16 -->
<g id="node16" class="node">
<title>Node16</title>
<g id="a_node16"><a xlink:href="../../d6/d72/omnibox__pedal__concepts_8h.html" target="_top" xlink:title=" ">
<polygon fill="white" stroke="black" points="912.5,-67.5 912.5,-108.5 1040.5,-108.5 1040.5,-67.5 912.5,-67.5"/>
<text text-anchor="start" x="920.5" y="-96.5" font-family="Helvetica,sans-Serif" font-size="10.00">components/omnibox</text>
<text text-anchor="start" x="920.5" y="-85.5" font-family="Helvetica,sans-Serif" font-size="10.00">/browser/actions/omnibox</text>
<text text-anchor="middle" x="976.5" y="-74.5" font-family="Helvetica,sans-Serif" font-size="10.00">_pedal_concepts.h</text>
</a>
</g>
</g>
<!-- Node1&#45;&gt;Node16 -->
<g id="edge20" class="edge">
<title>Node1&#45;&gt;Node16</title>
<path fill="none" stroke="midnightblue" d="M304.84,-239.13C393.23,-232.94 555.39,-218.18 690.5,-187 771.96,-168.2 862.77,-134.85 919.76,-112.34"/>
<polygon fill="midnightblue" stroke="midnightblue" points="921.31,-115.5 929.31,-108.55 918.72,-108.99 921.31,-115.5"/>
</g>
<!-- Node5&#45;&gt;Node4 -->
<g id="edge9" class="edge">
<title>Node5&#45;&gt;Node4</title>
<path fill="none" stroke="midnightblue" d="M553.37,-161.07C471.31,-154.83 335.14,-140.05 296.5,-109 273.79,-90.75 264.52,-56.67 260.83,-35.36"/>
<polygon fill="midnightblue" stroke="midnightblue" points="264.27,-34.66 259.34,-25.28 257.34,-35.68 264.27,-34.66"/>
</g>
<!-- Node6 -->
<g id="node6" class="node">
<title>Node6</title>
<g id="a_node6"><a xlink:title=" ">
<polygon fill="white" stroke="#bfbfbf" points="451.5,-78.5 451.5,-97.5 529.5,-97.5 529.5,-78.5 451.5,-78.5"/>
<text text-anchor="middle" x="490.5" y="-85.5" font-family="Helvetica,sans-Serif" font-size="10.00">unordered_set</text>
</a>
</g>
</g>
<!-- Node5&#45;&gt;Node6 -->
<g id="edge5" class="edge">
<title>Node5&#45;&gt;Node6</title>
<path fill="none" stroke="midnightblue" d="M584.79,-145.43C562.46,-132.06 533.42,-114.69 513.5,-102.77"/>
<polygon fill="midnightblue" stroke="midnightblue" points="515.17,-99.68 504.79,-97.55 511.57,-105.69 515.17,-99.68"/>
</g>
<!-- Node7 -->
<g id="node7" class="node">
<title>Node7</title>
<g id="a_node7"><a xlink:title=" ">
<polygon fill="white" stroke="#bfbfbf" points="547.5,-78.5 547.5,-97.5 591.5,-97.5 591.5,-78.5 547.5,-78.5"/>
<text text-anchor="middle" x="569.5" y="-85.5" font-family="Helvetica,sans-Serif" font-size="10.00">vector</text>
</a>
</g>
</g>
<!-- Node5&#45;&gt;Node7 -->
<g id="edge6" class="edge">
<title>Node5&#45;&gt;Node7</title>
<path fill="none" stroke="midnightblue" d="M605.14,-145.43C597.5,-133.33 587.79,-117.95 580.43,-106.3"/>
<polygon fill="midnightblue" stroke="midnightblue" points="583.2,-104.14 574.9,-97.55 577.28,-107.88 583.2,-104.14"/>
</g>
<!-- Node8 -->
<g id="node8" class="node">
<title>Node8</title>
<g id="a_node8"><a xlink:title=" ">
<polygon fill="white" stroke="#bfbfbf" points="610,-78.5 610,-97.5 723,-97.5 723,-78.5 610,-78.5"/>
<text text-anchor="middle" x="666.5" y="-85.5" font-family="Helvetica,sans-Serif" font-size="10.00">base/gtest_prod_util.h</text>
</a>
</g>
</g>
<!-- Node5&#45;&gt;Node8 -->
<g id="edge7" class="edge">
<title>Node5&#45;&gt;Node8</title>
<path fill="none" stroke="midnightblue" d="M630.12,-145.43C637.92,-133.33 647.83,-117.95 655.34,-106.3"/>
<polygon fill="midnightblue" stroke="midnightblue" points="658.51,-107.85 660.99,-97.55 652.63,-104.06 658.51,-107.85"/>
</g>
<!-- Node9 -->
<g id="node9" class="node">
<title>Node9</title>
<g id="a_node9"><a xlink:title=" ">
<polygon fill="white" stroke="#bfbfbf" points="741,-78.5 741,-97.5 818,-97.5 818,-78.5 741,-78.5"/>
<text text-anchor="middle" x="779.5" y="-85.5" font-family="Helvetica,sans-Serif" font-size="10.00">base/values.h</text>
</a>
</g>
</g>
<!-- Node5&#45;&gt;Node9 -->
<g id="edge8" class="edge">
<title>Node5&#45;&gt;Node9</title>
<path fill="none" stroke="midnightblue" d="M659.22,-145.43C688.48,-131.7 726.77,-113.74 752.2,-101.81"/>
<polygon fill="midnightblue" stroke="midnightblue" points="753.7,-104.97 761.27,-97.55 750.73,-98.63 753.7,-104.97"/>
</g>
<!-- Node10 -->
<g id="node10" class="node">
<title>Node10</title>
<g id="a_node10"><a xlink:href="../../de/d5a/omnibox__action_8h.html" target="_top" xlink:title=" ">
<polygon fill="white" stroke="black" points="305.5,-67.5 305.5,-108.5 433.5,-108.5 433.5,-67.5 305.5,-67.5"/>
<text text-anchor="start" x="313.5" y="-96.5" font-family="Helvetica,sans-Serif" font-size="10.00">components/omnibox</text>
<text text-anchor="start" x="313.5" y="-85.5" font-family="Helvetica,sans-Serif" font-size="10.00">/browser/actions/omnibox</text>
<text text-anchor="middle" x="369.5" y="-74.5" font-family="Helvetica,sans-Serif" font-size="10.00">_action.h</text>
</a>
</g>
</g>
<!-- Node5&#45;&gt;Node10 -->
<g id="edge10" class="edge">
<title>Node5&#45;&gt;Node10</title>
<path fill="none" stroke="midnightblue" d="M553.63,-145.43C519.79,-135.06 478.06,-122.27 442.88,-111.49"/>
<polygon fill="midnightblue" stroke="midnightblue" points="443.74,-108.09 433.15,-108.51 441.69,-114.78 443.74,-108.09"/>
</g>
<!-- Node14 -->
<g id="node14" class="node">
<title>Node14</title>
<g id="a_node14"><a xlink:title=" ">
<polygon fill="white" stroke="#bfbfbf" points="689.5,-0.5 689.5,-30.5 799.5,-30.5 799.5,-0.5 689.5,-0.5"/>
<text text-anchor="start" x="697.5" y="-18.5" font-family="Helvetica,sans-Serif" font-size="10.00">components/omnibox</text>
<text text-anchor="middle" x="744.5" y="-7.5" font-family="Helvetica,sans-Serif" font-size="10.00">/browser/buildflags.h</text>
</a>
</g>
</g>
<!-- Node5&#45;&gt;Node14 -->
<g id="edge18" class="edge">
<title>Node5&#45;&gt;Node14</title>
<path fill="none" stroke="midnightblue" d="M681.68,-156.43C736.37,-147.65 808.83,-132.02 826.5,-109 837.86,-94.19 835.6,-83.3 826.5,-67 818.88,-53.35 805.88,-42.93 792.45,-35.21"/>
<polygon fill="midnightblue" stroke="midnightblue" points="794.09,-32.12 783.62,-30.52 790.81,-38.3 794.09,-32.12"/>
</g>
<!-- Node15 -->
<g id="node15" class="node">
<title>Node15</title>
<g id="a_node15"><a xlink:title=" ">
<polygon fill="white" stroke="#bfbfbf" points="837.5,-6 837.5,-25 891.5,-25 891.5,-6 837.5,-6"/>
<text text-anchor="middle" x="864.5" y="-13" font-family="Helvetica,sans-Serif" font-size="10.00">url/gurl.h</text>
</a>
</g>
</g>
<!-- Node5&#45;&gt;Node15 -->
<g id="edge19" class="edge">
<title>Node5&#45;&gt;Node15</title>
<path fill="none" stroke="midnightblue" d="M681.73,-156.82C740.67,-147.99 822.12,-132.04 844.5,-109 863.53,-89.41 866.28,-56.26 865.87,-35.42"/>
<polygon fill="midnightblue" stroke="midnightblue" points="869.36,-35.1 865.4,-25.28 862.36,-35.43 869.36,-35.1"/>
</g>
<!-- Node5&#45;&gt;Node16 -->
<g id="edge17" class="edge">
<title>Node5&#45;&gt;Node16</title>
<path fill="none" stroke="midnightblue" d="M681.6,-153.25C738.69,-142.54 824.41,-125.87 898.5,-109 899.77,-108.71 901.04,-108.42 902.33,-108.12"/>
<polygon fill="midnightblue" stroke="midnightblue" points="903.37,-111.47 912.29,-105.76 901.76,-104.66 903.37,-111.47"/>
</g>
<!-- Node10&#45;&gt;Node4 -->
<g id="edge14" class="edge">
<title>Node10&#45;&gt;Node4</title>
<path fill="none" stroke="midnightblue" d="M338.58,-67.36C320.18,-55.67 297.26,-41.12 280.66,-30.57"/>
<polygon fill="midnightblue" stroke="midnightblue" points="282.47,-27.58 272.16,-25.17 278.72,-33.49 282.47,-27.58"/>
</g>
<!-- Node11 -->
<g id="node11" class="node">
<title>Node11</title>
<g id="a_node11"><a xlink:title=" ">
<polygon fill="white" stroke="#bfbfbf" points="327,-6 327,-25 368,-25 368,-6 327,-6"/>
<text text-anchor="middle" x="347.5" y="-13" font-family="Helvetica,sans-Serif" font-size="10.00">string</text>
</a>
</g>
</g>
<!-- Node10&#45;&gt;Node11 -->
<g id="edge11" class="edge">
<title>Node10&#45;&gt;Node11</title>
<path fill="none" stroke="midnightblue" d="M363.37,-67.36C360.2,-57.19 356.34,-44.84 353.23,-34.86"/>
<polygon fill="midnightblue" stroke="midnightblue" points="356.53,-33.68 350.21,-25.17 349.84,-35.76 356.53,-33.68"/>
</g>
<!-- Node12 -->
<g id="node12" class="node">
<title>Node12</title>
<g id="a_node12"><a xlink:title=" ">
<polygon fill="white" stroke="#bfbfbf" points="386.5,-6 386.5,-25 524.5,-25 524.5,-6 386.5,-6"/>
<text text-anchor="middle" x="455.5" y="-13" font-family="Helvetica,sans-Serif" font-size="10.00">base/memory/ref_counted.h</text>
</a>
</g>
</g>
<!-- Node10&#45;&gt;Node12 -->
<g id="edge12" class="edge">
<title>Node10&#45;&gt;Node12</title>
<path fill="none" stroke="midnightblue" d="M393.46,-67.36C407.19,-56.11 424.16,-42.19 436.88,-31.76"/>
<polygon fill="midnightblue" stroke="midnightblue" points="439.41,-34.22 444.92,-25.17 434.97,-28.81 439.41,-34.22"/>
</g>
<!-- Node13 -->
<g id="node13" class="node">
<title>Node13</title>
<g id="a_node13"><a xlink:title=" ">
<polygon fill="white" stroke="#bfbfbf" points="543,-6 543,-25 632,-25 632,-6 543,-6"/>
<text text-anchor="middle" x="587.5" y="-13" font-family="Helvetica,sans-Serif" font-size="10.00">base/time/time.h</text>
</a>
</g>
</g>
<!-- Node10&#45;&gt;Node13 -->
<g id="edge13" class="edge">
<title>Node10&#45;&gt;Node13</title>
<path fill="none" stroke="midnightblue" d="M429.94,-67.46C468.99,-54.83 518.5,-38.81 551.5,-28.14"/>
<polygon fill="midnightblue" stroke="midnightblue" points="552.74,-31.42 561.18,-25.01 550.58,-24.76 552.74,-31.42"/>
</g>
<!-- Node10&#45;&gt;Node14 -->
<g id="edge15" class="edge">
<title>Node10&#45;&gt;Node14</title>
<path fill="none" stroke="midnightblue" d="M433.5,-69.07C436.54,-68.34 439.55,-67.65 442.5,-67 523.52,-49.18 617.99,-34.32 679.4,-25.43"/>
<polygon fill="midnightblue" stroke="midnightblue" points="679.94,-28.89 689.35,-24 678.95,-21.96 679.94,-28.89"/>
</g>
<!-- Node10&#45;&gt;Node15 -->
<g id="edge16" class="edge">
<title>Node10&#45;&gt;Node15</title>
<path fill="none" stroke="midnightblue" d="M433.85,-68.73C436.76,-68.11 439.66,-67.53 442.5,-67 603.23,-37.3 647.56,-59.57 808.5,-31 814.73,-29.89 821.28,-28.45 827.63,-26.91"/>
<polygon fill="midnightblue" stroke="midnightblue" points="828.52,-30.3 837.34,-24.44 826.79,-23.51 828.52,-30.3"/>
</g>
</g>
</svg>
        <g id="navigator" transform="translate(0 0)" fill="#404254">
                <rect fill="#f2f5e9" fill-opacity="0.5" stroke="#606060" stroke-width=".5" x="0" y="0" width="60" height="60"/>
                <use id="zoomplus" xlink:href="#zoomPlus" x="17" y="9" onmousedown="handleZoom(evt,'in')"/>
                <use id="zoomminus" xlink:href="#zoomMin" x="42" y="9" onmousedown="handleZoom(evt,'out')"/>
                <use id="reset" xlink:href="#resetDef" x="30" y="36" onmousedown="handleReset()"/>
                <g id="arrowUp" xlink:href="#dirArrow" transform="translate(30 24)" onmousedown="handlePan(0,-1)">
                  <use xlink:href="#rim" fill="#404040">
                        <set attributeName="fill" to="#808080" begin="arrowUp.mouseover" end="arrowUp.mouseout"/>
                  </use>
                  <path fill="none" stroke="white" stroke-width="1.5" d="M0,-3.0v7 M-2.5,-0.5L0,-3.0L2.5,-0.5"/>
                </g>
                <g id="arrowRight" xlink:href="#dirArrow" transform="rotate(90) translate(36 -43)" onmousedown="handlePan(1,0)">
                  <use xlink:href="#rim" fill="#404040">
                        <set attributeName="fill" to="#808080" begin="arrowRight.mouseover" end="arrowRight.mouseout"/>
                  </use>
                  <path fill="none" stroke="white" stroke-width="1.5" d="M0,-3.0v7 M-2.5,-0.5L0,-3.0L2.5,-0.5"/>
                </g>
                <g id="arrowDown" xlink:href="#dirArrow" transform="rotate(180) translate(-30 -48)" onmousedown="handlePan(0,1)">
                  <use xlink:href="#rim" fill="#404040">
                        <set attributeName="fill" to="#808080" begin="arrowDown.mouseover" end="arrowDown.mouseout"/>
                  </use>
                  <path fill="none" stroke="white" stroke-width="1.5" d="M0,-3.0v7 M-2.5,-0.5L0,-3.0L2.5,-0.5"/>
                </g>
                <g id="arrowLeft" xlink:href="#dirArrow" transform="rotate(270) translate(-36 17)" onmousedown="handlePan(-1,0)">
                  <use xlink:href="#rim" fill="#404040">
                        <set attributeName="fill" to="#808080" begin="arrowLeft.mouseover" end="arrowLeft.mouseout"/>
                  </use>
                  <path fill="none" stroke="white" stroke-width="1.5" d="M0,-3.0v7 M-2.5,-0.5L0,-3.0L2.5,-0.5"/>
                </g>
        </g>
        <svg viewBox="0 0 15 15" width="100%" height="30px" preserveAspectRatio="xMaxYMin meet">
         <g id="arrow_out" transform="scale(0.3 0.3)">
          <a xlink:href="omnibox__pedal__implementations_8h__incl_org.svg" target="_base">
           <rect id="button" ry="5" rx="5" y="6" x="6" height="38" width="38"
                fill="#f2f5e9" fill-opacity="0.5" stroke="#606060" stroke-width="1.0"/>
           <path id="arrow"
             d="M 11.500037,31.436501 C 11.940474,20.09759 22.043105,11.32322 32.158766,21.979434 L 37.068811,17.246167 C 37.068811,17.246167 37.088388,32 37.088388,32 L 22.160133,31.978069 C 22.160133,31.978069 26.997745,27.140456 26.997745,27.140456 C 18.528582,18.264221 13.291696,25.230495 11.500037,31.436501 z"
             style="fill:#404040;"/>
          </a>
         </g>
        </svg>
</svg>
