<?xml version="1.0" encoding="UTF-8" standalone="no"?>
<!DOCTYPE svg PUBLIC "-//W3C//DTD SVG 1.1//EN"
 "http://www.w3.org/Graphics/SVG/1.1/DTD/svg11.dtd">
<!-- Generated by graphviz version 2.43.0 (0)
 -->
<!-- Title: components/omnibox/browser/actions/omnibox_pedal_implementations.h Pages: 1 -->
<svg width="1384pt" height="340pt"
 viewBox="0.00 0.00 1384.00 340.00" xmlns="http://www.w3.org/2000/svg" xmlns:xlink="http://www.w3.org/1999/xlink">
<g id="graph0" class="graph" transform="scale(1 1) rotate(0) translate(4 336)">
<title>components/omnibox/browser/actions/omnibox_pedal_implementations.h</title>
<polygon fill="white" stroke="transparent" points="-4,4 -4,-336 1380,-336 1380,4 -4,4"/>
<!-- Node1 -->
<g id="node1" class="node">
<title>Node1</title>
<g id="a_node1"><a xlink:title=" ">
<polygon fill="#bfbfbf" stroke="black" points="466,-290.5 466,-331.5 596,-331.5 596,-290.5 466,-290.5"/>
<text text-anchor="start" x="474" y="-319.5" font-family="Helvetica,sans-Serif" font-size="10.00">components/omnibox</text>
<text text-anchor="start" x="474" y="-308.5" font-family="Helvetica,sans-Serif" font-size="10.00">/browser/actions/omnibox</text>
<text text-anchor="middle" x="531" y="-297.5" font-family="Helvetica,sans-Serif" font-size="10.00">_pedal_implementations.h</text>
</a>
</g>
</g>
<!-- Node2 -->
<g id="node2" class="node">
<title>Node2</title>
<g id="a_node2"><a xlink:title=" ">
<polygon fill="white" stroke="#bfbfbf" points="291.5,-223.5 291.5,-242.5 374.5,-242.5 374.5,-223.5 291.5,-223.5"/>
<text text-anchor="middle" x="333" y="-230.5" font-family="Helvetica,sans-Serif" font-size="10.00">unordered_map</text>
</a>
</g>
</g>
<!-- Node1&#45;&gt;Node2 -->
<g id="edge1" class="edge">
<title>Node1&#45;&gt;Node2</title>
<path fill="none" stroke="midnightblue" d="M479.25,-290.43C451.06,-279.73 415.59,-266.21 384,-254 377.71,-251.57 371,-248.95 364.57,-246.44"/>
<polygon fill="midnightblue" stroke="midnightblue" points="365.41,-243.01 354.82,-242.61 362.85,-249.52 365.41,-243.01"/>
</g>
<!-- Node3 -->
<g id="node3" class="node">
<title>Node3</title>
<g id="a_node3"><a xlink:title=" ">
<polygon fill="white" stroke="#bfbfbf" points="393,-218 393,-248 503,-248 503,-218 393,-218"/>
<text text-anchor="start" x="401" y="-236" font-family="Helvetica,sans-Serif" font-size="10.00">base/memory/scoped</text>
<text text-anchor="middle" x="448" y="-225" font-family="Helvetica,sans-Serif" font-size="10.00">_refptr.h</text>
</a>
</g>
</g>
<!-- Node1&#45;&gt;Node3 -->
<g id="edge2" class="edge">
<title>Node1&#45;&gt;Node3</title>
<path fill="none" stroke="midnightblue" d="M509.63,-290.43C497.81,-279.6 483.11,-266.15 471.04,-255.09"/>
<polygon fill="midnightblue" stroke="midnightblue" points="473.27,-252.4 463.54,-248.23 468.55,-257.56 473.27,-252.4"/>
</g>
<!-- Node4 -->
<g id="node4" class="node">
<title>Node4</title>
<g id="a_node4"><a xlink:title=" ">
<polygon fill="white" stroke="#bfbfbf" points="0,-67.5 0,-86.5 100,-86.5 100,-67.5 0,-67.5"/>
<text text-anchor="middle" x="50" y="-74.5" font-family="Helvetica,sans-Serif" font-size="10.00">build/build_config.h</text>
</a>
</g>
</g>
<!-- Node1&#45;&gt;Node4 -->
<g id="edge3" class="edge">
<title>Node1&#45;&gt;Node4</title>
<path fill="none" stroke="midnightblue" d="M532.78,-290.45C533.65,-268.57 531.52,-233.37 512,-212 497.44,-196.06 204.94,-118.43 93.03,-89.18"/>
<polygon fill="midnightblue" stroke="midnightblue" points="93.65,-85.73 83.09,-86.59 91.88,-92.5 93.65,-85.73"/>
</g>
<!-- Node5 -->
<g id="node5" class="node">
<title>Node5</title>
<g id="a_node5"><a xlink:href="../../d1/d68/omnibox__pedal_8h.html" target="_top" xlink:title=" ">
<polygon fill="white" stroke="black" points="845,-212.5 845,-253.5 973,-253.5 973,-212.5 845,-212.5"/>
<text text-anchor="start" x="853" y="-241.5" font-family="Helvetica,sans-Serif" font-size="10.00">components/omnibox</text>
<text text-anchor="start" x="853" y="-230.5" font-family="Helvetica,sans-Serif" font-size="10.00">/browser/actions/omnibox</text>
<text text-anchor="middle" x="909" y="-219.5" font-family="Helvetica,sans-Serif" font-size="10.00">_pedal.h</text>
</a>
</g>
</g>
<!-- Node1&#45;&gt;Node5 -->
<g id="edge4" class="edge">
<title>Node1&#45;&gt;Node5</title>
<path fill="none" stroke="midnightblue" d="M596.41,-296.85C662.77,-283.51 765.33,-262.89 834.72,-248.94"/>
<polygon fill="midnightblue" stroke="midnightblue" points="835.59,-252.33 844.7,-246.93 834.21,-245.47 835.59,-252.33"/>
</g>
<!-- Node22 -->
<g id="node22" class="node">
<title>Node22</title>
<g id="a_node22"><a xlink:href="../../d6/d72/omnibox__pedal__concepts_8h.html" target="_top" xlink:title=" ">
<polygon fill="white" stroke="black" points="1204,-134.5 1204,-175.5 1332,-175.5 1332,-134.5 1204,-134.5"/>
<text text-anchor="start" x="1212" y="-163.5" font-family="Helvetica,sans-Serif" font-size="10.00">components/omnibox</text>
<text text-anchor="start" x="1212" y="-152.5" font-family="Helvetica,sans-Serif" font-size="10.00">/browser/actions/omnibox</text>
<text text-anchor="middle" x="1268" y="-141.5" font-family="Helvetica,sans-Serif" font-size="10.00">_pedal_concepts.h</text>
</a>
</g>
</g>
<!-- Node1&#45;&gt;Node22 -->
<g id="edge27" class="edge">
<title>Node1&#45;&gt;Node22</title>
<path fill="none" stroke="midnightblue" d="M596.34,-306.13C684.73,-299.94 846.89,-285.18 982,-254 1063.46,-235.2 1154.27,-201.85 1211.26,-179.34"/>
<polygon fill="midnightblue" stroke="midnightblue" points="1212.81,-182.5 1220.81,-175.55 1210.22,-175.99 1212.81,-182.5"/>
</g>
<!-- Node5&#45;&gt;Node4 -->
<g id="edge9" class="edge">
<title>Node5&#45;&gt;Node4</title>
<path fill="none" stroke="midnightblue" d="M844.88,-231.82C777.44,-229.2 669.95,-217.96 588,-176 564.22,-163.83 569.27,-145.15 545,-134 462.09,-95.91 226.1,-112.37 136,-98 121.5,-95.69 105.82,-92.31 91.87,-88.98"/>
<polygon fill="midnightblue" stroke="midnightblue" points="92.6,-85.56 82.05,-86.58 90.93,-92.36 92.6,-85.56"/>
</g>
<!-- Node6 -->
<g id="node6" class="node">
<title>Node6</title>
<g id="a_node6"><a xlink:title=" ">
<polygon fill="white" stroke="#bfbfbf" points="743,-145.5 743,-164.5 821,-164.5 821,-145.5 743,-145.5"/>
<text text-anchor="middle" x="782" y="-152.5" font-family="Helvetica,sans-Serif" font-size="10.00">unordered_set</text>
</a>
</g>
</g>
<!-- Node5&#45;&gt;Node6 -->
<g id="edge5" class="edge">
<title>Node5&#45;&gt;Node6</title>
<path fill="none" stroke="midnightblue" d="M876.29,-212.43C853.96,-199.06 824.92,-181.69 805,-169.77"/>
<polygon fill="midnightblue" stroke="midnightblue" points="806.67,-166.68 796.29,-164.55 803.07,-172.69 806.67,-166.68"/>
</g>
<!-- Node7 -->
<g id="node7" class="node">
<title>Node7</title>
<g id="a_node7"><a xlink:title=" ">
<polygon fill="white" stroke="#bfbfbf" points="839,-145.5 839,-164.5 883,-164.5 883,-145.5 839,-145.5"/>
<text text-anchor="middle" x="861" y="-152.5" font-family="Helvetica,sans-Serif" font-size="10.00">vector</text>
</a>
</g>
</g>
<!-- Node5&#45;&gt;Node7 -->
<g id="edge6" class="edge">
<title>Node5&#45;&gt;Node7</title>
<path fill="none" stroke="midnightblue" d="M896.64,-212.43C889,-200.33 879.29,-184.95 871.93,-173.3"/>
<polygon fill="midnightblue" stroke="midnightblue" points="874.7,-171.14 866.4,-164.55 868.78,-174.88 874.7,-171.14"/>
</g>
<!-- Node8 -->
<g id="node8" class="node">
<title>Node8</title>
<g id="a_node8"><a xlink:title=" ">
<polygon fill="white" stroke="#bfbfbf" points="901.5,-145.5 901.5,-164.5 1014.5,-164.5 1014.5,-145.5 901.5,-145.5"/>
<text text-anchor="middle" x="958" y="-152.5" font-family="Helvetica,sans-Serif" font-size="10.00">base/gtest_prod_util.h</text>
</a>
</g>
</g>
<!-- Node5&#45;&gt;Node8 -->
<g id="edge7" class="edge">
<title>Node5&#45;&gt;Node8</title>
<path fill="none" stroke="midnightblue" d="M921.62,-212.43C929.42,-200.33 939.33,-184.95 946.84,-173.3"/>
<polygon fill="midnightblue" stroke="midnightblue" points="950.01,-174.85 952.49,-164.55 944.13,-171.06 950.01,-174.85"/>
</g>
<!-- Node9 -->
<g id="node9" class="node">
<title>Node9</title>
<g id="a_node9"><a xlink:title=" ">
<polygon fill="white" stroke="#bfbfbf" points="1032.5,-145.5 1032.5,-164.5 1109.5,-164.5 1109.5,-145.5 1032.5,-145.5"/>
<text text-anchor="middle" x="1071" y="-152.5" font-family="Helvetica,sans-Serif" font-size="10.00">base/values.h</text>
</a>
</g>
</g>
<!-- Node5&#45;&gt;Node9 -->
<g id="edge8" class="edge">
<title>Node5&#45;&gt;Node9</title>
<path fill="none" stroke="midnightblue" d="M950.72,-212.43C979.98,-198.7 1018.27,-180.74 1043.7,-168.81"/>
<polygon fill="midnightblue" stroke="midnightblue" points="1045.2,-171.97 1052.77,-164.55 1042.23,-165.63 1045.2,-171.97"/>
</g>
<!-- Node10 -->
<g id="node10" class="node">
<title>Node10</title>
<g id="a_node10"><a xlink:href="../../de/d5a/omnibox__action_8h.html" target="_top" xlink:title=" ">
<polygon fill="white" stroke="black" points="597,-134.5 597,-175.5 725,-175.5 725,-134.5 597,-134.5"/>
<text text-anchor="start" x="605" y="-163.5" font-family="Helvetica,sans-Serif" font-size="10.00">components/omnibox</text>
<text text-anchor="start" x="605" y="-152.5" font-family="Helvetica,sans-Serif" font-size="10.00">/browser/actions/omnibox</text>
<text text-anchor="middle" x="661" y="-141.5" font-family="Helvetica,sans-Serif" font-size="10.00">_action.h</text>
</a>
</g>
</g>
<!-- Node5&#45;&gt;Node10 -->
<g id="edge10" class="edge">
<title>Node5&#45;&gt;Node10</title>
<path fill="none" stroke="midnightblue" d="M845.13,-212.43C811.29,-202.06 769.56,-189.27 734.38,-178.49"/>
<polygon fill="midnightblue" stroke="midnightblue" points="735.24,-175.09 724.65,-175.51 733.19,-181.78 735.24,-175.09"/>
</g>
<!-- Node16 -->
<g id="node16" class="node">
<title>Node16</title>
<g id="a_node16"><a xlink:title=" ">
<polygon fill="white" stroke="#bfbfbf" points="1194,-62 1194,-92 1304,-92 1304,-62 1194,-62"/>
<text text-anchor="start" x="1202" y="-80" font-family="Helvetica,sans-Serif" font-size="10.00">components/omnibox</text>
<text text-anchor="middle" x="1249" y="-69" font-family="Helvetica,sans-Serif" font-size="10.00">/browser/buildflags.h</text>
</a>
</g>
</g>
<!-- Node5&#45;&gt;Node16 -->
<g id="edge25" class="edge">
<title>Node5&#45;&gt;Node16</title>
<path fill="none" stroke="midnightblue" d="M973.41,-223.29C1016.43,-215.48 1073.14,-201.21 1118,-176 1141.57,-162.76 1140.76,-150.73 1162,-134 1178.91,-120.69 1199.05,-107.57 1215.69,-97.38"/>
<polygon fill="midnightblue" stroke="midnightblue" points="1217.78,-100.2 1224.53,-92.04 1214.16,-94.21 1217.78,-100.2"/>
</g>
<!-- Node21 -->
<g id="node21" class="node">
<title>Node21</title>
<g id="a_node21"><a xlink:title=" ">
<polygon fill="white" stroke="#bfbfbf" points="1322,-67.5 1322,-86.5 1376,-86.5 1376,-67.5 1322,-67.5"/>
<text text-anchor="middle" x="1349" y="-74.5" font-family="Helvetica,sans-Serif" font-size="10.00">url/gurl.h</text>
</a>
</g>
</g>
<!-- Node5&#45;&gt;Node21 -->
<g id="edge26" class="edge">
<title>Node5&#45;&gt;Node21</title>
<path fill="none" stroke="midnightblue" d="M973.21,-227.34C1024.84,-221.32 1097.77,-207.53 1154,-176 1176.75,-163.24 1172.72,-147.56 1195,-134 1241.84,-105.49 1262.53,-119.43 1313,-98 1317.34,-96.16 1321.83,-93.94 1326.1,-91.66"/>
<polygon fill="midnightblue" stroke="midnightblue" points="1327.96,-94.63 1334.98,-86.69 1324.55,-88.52 1327.96,-94.63"/>
</g>
<!-- Node5&#45;&gt;Node22 -->
<g id="edge24" class="edge">
<title>Node5&#45;&gt;Node22</title>
<path fill="none" stroke="midnightblue" d="M973.1,-220.25C1030.19,-209.54 1115.91,-192.87 1190,-176 1191.27,-175.71 1192.54,-175.42 1193.83,-175.12"/>
<polygon fill="midnightblue" stroke="midnightblue" points="1194.87,-178.47 1203.79,-172.76 1193.26,-171.66 1194.87,-178.47"/>
</g>
<!-- Node10&#45;&gt;Node4 -->
<g id="edge15" class="edge">
<title>Node10&#45;&gt;Node4</title>
<path fill="none" stroke="midnightblue" d="M596.92,-136.62C592.23,-135.64 587.55,-134.75 583,-134 376.74,-99.91 319.31,-137.43 114,-98 103.54,-95.99 92.38,-92.86 82.36,-89.67"/>
<polygon fill="midnightblue" stroke="midnightblue" points="83.38,-86.32 72.78,-86.5 81.18,-92.97 83.38,-86.32"/>
</g>
<!-- Node11 -->
<g id="node11" class="node">
<title>Node11</title>
<g id="a_node11"><a xlink:title=" ">
<polygon fill="white" stroke="#bfbfbf" points="150.5,-0.5 150.5,-19.5 191.5,-19.5 191.5,-0.5 150.5,-0.5"/>
<text text-anchor="middle" x="171" y="-7.5" font-family="Helvetica,sans-Serif" font-size="10.00">string</text>
</a>
</g>
</g>
<!-- Node10&#45;&gt;Node11 -->
<g id="edge11" class="edge">
<title>Node10&#45;&gt;Node11</title>
<path fill="none" stroke="midnightblue" d="M596.91,-136.65C592.22,-135.67 587.55,-134.77 583,-134 535.06,-125.93 179.93,-133.76 147,-98 129.13,-78.6 145.14,-47.09 158.2,-27.79"/>
<polygon fill="midnightblue" stroke="midnightblue" points="161.06,-29.81 164.04,-19.64 155.37,-25.73 161.06,-29.81"/>
</g>
<!-- Node12 -->
<g id="node12" class="node">
<title>Node12</title>
<g id="a_node12"><a xlink:title=" ">
<polygon fill="white" stroke="#bfbfbf" points="290.5,-67.5 290.5,-86.5 375.5,-86.5 375.5,-67.5 290.5,-67.5"/>
<text text-anchor="middle" x="333" y="-74.5" font-family="Helvetica,sans-Serif" font-size="10.00">base/callback.h</text>
</a>
</g>
</g>
<!-- Node10&#45;&gt;Node12 -->
<g id="edge12" class="edge">
<title>Node10&#45;&gt;Node12</title>
<path fill="none" stroke="midnightblue" d="M596.81,-137.16C592.15,-136.05 587.51,-134.99 583,-134 495.62,-114.88 471.12,-122.16 385,-98 377.57,-95.92 369.73,-93.19 362.44,-90.42"/>
<polygon fill="midnightblue" stroke="midnightblue" points="363.54,-87.09 352.95,-86.68 360.97,-93.61 363.54,-87.09"/>
</g>
<!-- Node13 -->
<g id="node13" class="node">
<title>Node13</title>
<g id="a_node13"><a xlink:title=" ">
<polygon fill="white" stroke="#bfbfbf" points="394,-67.5 394,-86.5 532,-86.5 532,-67.5 394,-67.5"/>
<text text-anchor="middle" x="463" y="-74.5" font-family="Helvetica,sans-Serif" font-size="10.00">base/memory/ref_counted.h</text>
</a>
</g>
</g>
<!-- Node10&#45;&gt;Node13 -->
<g id="edge13" class="edge">
<title>Node10&#45;&gt;Node13</title>
<path fill="none" stroke="midnightblue" d="M610.01,-134.43C573.62,-120.46 525.8,-102.11 494.74,-90.18"/>
<polygon fill="midnightblue" stroke="midnightblue" points="495.87,-86.87 485.28,-86.55 493.36,-93.4 495.87,-86.87"/>
</g>
<!-- Node14 -->
<g id="node14" class="node">
<title>Node14</title>
<g id="a_node14"><a xlink:title=" ">
<polygon fill="white" stroke="#bfbfbf" points="550.5,-67.5 550.5,-86.5 639.5,-86.5 639.5,-67.5 550.5,-67.5"/>
<text text-anchor="middle" x="595" y="-74.5" font-family="Helvetica,sans-Serif" font-size="10.00">base/time/time.h</text>
</a>
</g>
</g>
<!-- Node10&#45;&gt;Node14 -->
<g id="edge14" class="edge">
<title>Node10&#45;&gt;Node14</title>
<path fill="none" stroke="midnightblue" d="M644,-134.43C633.18,-121.97 619.34,-106.03 609.13,-94.27"/>
<polygon fill="midnightblue" stroke="midnightblue" points="611.63,-91.81 602.43,-86.55 606.34,-96.4 611.63,-91.81"/>
</g>
<!-- Node15 -->
<g id="node15" class="node">
<title>Node15</title>
<g id="a_node15"><a xlink:href="../../df/d34/autocomplete__match__type_8h.html" target="_top" xlink:title=" ">
<polygon fill="white" stroke="black" points="156,-56.5 156,-97.5 272,-97.5 272,-56.5 156,-56.5"/>
<text text-anchor="start" x="164" y="-85.5" font-family="Helvetica,sans-Serif" font-size="10.00">components/omnibox</text>
<text text-anchor="start" x="164" y="-74.5" font-family="Helvetica,sans-Serif" font-size="10.00">/browser/autocomplete</text>
<text text-anchor="middle" x="214" y="-63.5" font-family="Helvetica,sans-Serif" font-size="10.00">_match_type.h</text>
</a>
</g>
</g>
<!-- Node10&#45;&gt;Node15 -->
<g id="edge16" class="edge">
<title>Node10&#45;&gt;Node15</title>
<path fill="none" stroke="midnightblue" d="M596.88,-136.84C592.2,-135.81 587.53,-134.85 583,-134 453.37,-109.77 415.21,-124.66 282.46,-98.12"/>
<polygon fill="midnightblue" stroke="midnightblue" points="282.81,-94.62 272.31,-96.05 281.41,-101.48 282.81,-94.62"/>
</g>
<!-- Node10&#45;&gt;Node16 -->
<g id="edge18" class="edge">
<title>Node10&#45;&gt;Node16</title>
<path fill="none" stroke="midnightblue" d="M725.34,-135.67C728.26,-135.06 731.15,-134.5 734,-134 932.06,-99.28 987.58,-136.23 1185,-98 1189.49,-97.13 1194.12,-96.06 1198.72,-94.86"/>
<polygon fill="midnightblue" stroke="midnightblue" points="1200.02,-98.13 1208.72,-92.08 1198.15,-91.39 1200.02,-98.13"/>
</g>
<!-- Node17 -->
<g id="node17" class="node">
<title>Node17</title>
<g id="a_node17"><a xlink:title=" ">
<polygon fill="white" stroke="#bfbfbf" points="657.5,-62 657.5,-92 798.5,-92 798.5,-62 657.5,-62"/>
<text text-anchor="start" x="665.5" y="-80" font-family="Helvetica,sans-Serif" font-size="10.00">components/search_engines</text>
<text text-anchor="middle" x="728" y="-69" font-family="Helvetica,sans-Serif" font-size="10.00">/template_url.h</text>
</a>
</g>
</g>
<!-- Node10&#45;&gt;Node17 -->
<g id="edge19" class="edge">
<title>Node10&#45;&gt;Node17</title>
<path fill="none" stroke="midnightblue" d="M678.25,-134.43C687.61,-123.81 699.21,-110.66 708.85,-99.73"/>
<polygon fill="midnightblue" stroke="midnightblue" points="711.47,-102.04 715.46,-92.23 706.22,-97.41 711.47,-102.04"/>
</g>
<!-- Node18 -->
<g id="node18" class="node">
<title>Node18</title>
<g id="a_node18"><a xlink:title=" ">
<polygon fill="white" stroke="#bfbfbf" points="816.5,-62 816.5,-92 933.5,-92 933.5,-62 816.5,-62"/>
<text text-anchor="start" x="824.5" y="-80" font-family="Helvetica,sans-Serif" font-size="10.00">ui/base/page_transition</text>
<text text-anchor="middle" x="875" y="-69" font-family="Helvetica,sans-Serif" font-size="10.00">_types.h</text>
</a>
</g>
</g>
<!-- Node10&#45;&gt;Node18 -->
<g id="edge20" class="edge">
<title>Node10&#45;&gt;Node18</title>
<path fill="none" stroke="midnightblue" d="M716.11,-134.43C749.89,-122.43 792.78,-107.2 825.48,-95.59"/>
<polygon fill="midnightblue" stroke="midnightblue" points="827.03,-98.75 835.28,-92.11 824.68,-92.15 827.03,-98.75"/>
</g>
<!-- Node19 -->
<g id="node19" class="node">
<title>Node19</title>
<g id="a_node19"><a xlink:title=" ">
<polygon fill="white" stroke="#bfbfbf" points="952,-62 952,-92 1062,-92 1062,-62 952,-62"/>
<text text-anchor="start" x="960" y="-80" font-family="Helvetica,sans-Serif" font-size="10.00">ui/base/window_open</text>
<text text-anchor="middle" x="1007" y="-69" font-family="Helvetica,sans-Serif" font-size="10.00">_disposition.h</text>
</a>
</g>
</g>
<!-- Node10&#45;&gt;Node19 -->
<g id="edge21" class="edge">
<title>Node10&#45;&gt;Node19</title>
<path fill="none" stroke="midnightblue" d="M725.01,-136.09C728.04,-135.36 731.05,-134.66 734,-134 825.57,-113.58 850.76,-119.84 942,-98 946.07,-97.03 950.26,-95.94 954.45,-94.79"/>
<polygon fill="midnightblue" stroke="midnightblue" points="955.55,-98.11 964.21,-92.01 953.63,-91.38 955.55,-98.11"/>
</g>
<!-- Node20 -->
<g id="node20" class="node">
<title>Node20</title>
<g id="a_node20"><a xlink:title=" ">
<polygon fill="white" stroke="#bfbfbf" points="1080,-67.5 1080,-86.5 1176,-86.5 1176,-67.5 1080,-67.5"/>
<text text-anchor="middle" x="1128" y="-74.5" font-family="Helvetica,sans-Serif" font-size="10.00">ui/gfx/color_utils.h</text>
</a>
</g>
</g>
<!-- Node10&#45;&gt;Node20 -->
<g id="edge22" class="edge">
<title>Node10&#45;&gt;Node20</title>
<path fill="none" stroke="midnightblue" d="M725.36,-135.76C728.27,-135.13 731.16,-134.54 734,-134 882.01,-106.01 924.06,-131.16 1071,-98 1079.82,-96.01 1089.17,-93.09 1097.69,-90.09"/>
<polygon fill="midnightblue" stroke="midnightblue" points="1099.04,-93.32 1107.23,-86.59 1096.63,-86.75 1099.04,-93.32"/>
</g>
<!-- Node10&#45;&gt;Node21 -->
<g id="edge23" class="edge">
<title>Node10&#45;&gt;Node21</title>
<path fill="none" stroke="midnightblue" d="M725.33,-135.61C728.25,-135.01 731.15,-134.47 734,-134 988.34,-91.71 1065.54,-170.39 1313,-98 1317.97,-96.55 1323.01,-94.31 1327.68,-91.86"/>
<polygon fill="midnightblue" stroke="midnightblue" points="1329.71,-94.73 1336.62,-86.69 1326.21,-88.67 1329.71,-94.73"/>
</g>
<!-- Node15&#45;&gt;Node11 -->
<g id="edge17" class="edge">
<title>Node15&#45;&gt;Node11</title>
<path fill="none" stroke="midnightblue" d="M201.1,-56.5C195.14,-47.49 188.13,-36.89 182.37,-28.19"/>
<polygon fill="midnightblue" stroke="midnightblue" points="185.16,-26.06 176.72,-19.65 179.32,-29.92 185.16,-26.06"/>
</g>
</g>
</svg>
