<?xml version="1.0" encoding="UTF-8" standalone="no"?>
<!DOCTYPE svg PUBLIC "-//W3C//DTD SVG 1.1//EN"
 "http://www.w3.org/Graphics/SVG/1.1/DTD/svg11.dtd">
<!-- Generated by graphviz version 2.43.0 (0)
 -->
<!-- Title: TailoredWordBreakIterator::Advance Pages: 1 -->
<svg width="480pt" height="132pt"
 viewBox="0.00 0.00 480.00 132.00" xmlns="http://www.w3.org/2000/svg" xmlns:xlink="http://www.w3.org/1999/xlink">
<g id="graph0" class="graph" transform="scale(1 1) rotate(0) translate(4 128)">
<title>TailoredWordBreakIterator::Advance</title>
<polygon fill="white" stroke="transparent" points="-4,4 -4,-128 476,-128 476,4 -4,4"/>
<!-- Node1 -->
<g id="node1" class="node">
<title>Node1</title>
<g id="a_node1"><a xlink:title=" ">
<polygon fill="#bfbfbf" stroke="black" points="0,-49.5 0,-79.5 129,-79.5 129,-49.5 0,-49.5"/>
<text text-anchor="start" x="8" y="-67.5" font-family="Helvetica,sans-Serif" font-size="10.00">TailoredWordBreakIterator</text>
<text text-anchor="middle" x="64.5" y="-56.5" font-family="Helvetica,sans-Serif" font-size="10.00">::Advance</text>
</a>
</g>
</g>
<!-- Node2 -->
<g id="node2" class="node">
<title>Node2</title>
<g id="a_node2"><a xlink:href="../../d6/dcd/classTailoredWordBreakIterator.html#a1b478919417288a574d74b521b52fc08" target="_top" xlink:title=" ">
<polygon fill="white" stroke="black" points="165,-93.5 165,-123.5 307,-123.5 307,-93.5 165,-93.5"/>
<text text-anchor="start" x="173" y="-111.5" font-family="Helvetica,sans-Serif" font-size="10.00">TailoredWordBreakIterator</text>
<text text-anchor="middle" x="236" y="-100.5" font-family="Helvetica,sans-Serif" font-size="10.00">::AdvanceInUnderscoreWord</text>
</a>
</g>
</g>
<!-- Node1&#45;&gt;Node2 -->
<g id="edge1" class="edge">
<title>Node1&#45;&gt;Node2</title>
<path fill="none" stroke="midnightblue" d="M123.36,-79.52C137.46,-83.18 152.67,-87.13 167.19,-90.9"/>
<polygon fill="midnightblue" stroke="midnightblue" points="166.56,-94.35 177.11,-93.47 168.32,-87.57 166.56,-94.35"/>
</g>
<!-- Node3 -->
<g id="node3" class="node">
<title>Node3</title>
<g id="a_node3"><a xlink:href="../../d6/dcd/classTailoredWordBreakIterator.html#aae84d81bdce60da2914d52d30b6c74b4" target="_top" xlink:title=" ">
<polygon fill="white" stroke="black" points="343,-49.5 343,-79.5 472,-79.5 472,-49.5 343,-49.5"/>
<text text-anchor="start" x="351" y="-67.5" font-family="Helvetica,sans-Serif" font-size="10.00">TailoredWordBreakIterator</text>
<text text-anchor="middle" x="407.5" y="-56.5" font-family="Helvetica,sans-Serif" font-size="10.00">::HasUnderscoreWord</text>
</a>
</g>
</g>
<!-- Node1&#45;&gt;Node3 -->
<g id="edge2" class="edge">
<title>Node1&#45;&gt;Node3</title>
<path fill="none" stroke="midnightblue" d="M129.24,-64.5C186.91,-64.5 271.86,-64.5 332.51,-64.5"/>
<polygon fill="midnightblue" stroke="midnightblue" points="332.78,-68 342.78,-64.5 332.78,-61 332.78,-68"/>
</g>
<!-- Node4 -->
<g id="node4" class="node">
<title>Node4</title>
<g id="a_node4"><a xlink:href="../../d6/dcd/classTailoredWordBreakIterator.html#a198bd2927e6b6e17cd0e6b4fba8756fa" target="_top" xlink:title=" ">
<polygon fill="white" stroke="black" points="171.5,-5.5 171.5,-35.5 300.5,-35.5 300.5,-5.5 171.5,-5.5"/>
<text text-anchor="start" x="179.5" y="-23.5" font-family="Helvetica,sans-Serif" font-size="10.00">TailoredWordBreakIterator</text>
<text text-anchor="middle" x="236" y="-12.5" font-family="Helvetica,sans-Serif" font-size="10.00">::IsWord</text>
</a>
</g>
</g>
<!-- Node1&#45;&gt;Node4 -->
<g id="edge3" class="edge">
<title>Node1&#45;&gt;Node4</title>
<path fill="none" stroke="midnightblue" d="M123.36,-49.48C137.46,-45.82 152.67,-41.87 167.19,-38.1"/>
<polygon fill="midnightblue" stroke="midnightblue" points="168.32,-41.43 177.11,-35.53 166.56,-34.65 168.32,-41.43"/>
</g>
<!-- Node4&#45;&gt;Node3 -->
<g id="edge5" class="edge">
<title>Node4&#45;&gt;Node3</title>
<path fill="none" stroke="midnightblue" d="M294.86,-35.52C308.96,-39.18 324.17,-43.13 338.69,-46.9"/>
<polygon fill="midnightblue" stroke="midnightblue" points="338.06,-50.35 348.61,-49.47 339.82,-43.57 338.06,-50.35"/>
</g>
<!-- Node5 -->
<g id="node5" class="node">
<title>Node5</title>
<g id="a_node5"><a xlink:href="../../d6/dcd/classTailoredWordBreakIterator.html#a08b402a57411161426e21a435a9a047f" target="_top" xlink:title=" ">
<polygon fill="white" stroke="black" points="343,-0.5 343,-30.5 472,-30.5 472,-0.5 343,-0.5"/>
<text text-anchor="start" x="351" y="-18.5" font-family="Helvetica,sans-Serif" font-size="10.00">TailoredWordBreakIterator</text>
<text text-anchor="middle" x="407.5" y="-7.5" font-family="Helvetica,sans-Serif" font-size="10.00">::GetStringPiece</text>
</a>
</g>
</g>
<!-- Node4&#45;&gt;Node5 -->
<g id="edge4" class="edge">
<title>Node4&#45;&gt;Node5</title>
<path fill="none" stroke="midnightblue" d="M300.6,-18.62C311.06,-18.32 321.99,-17.99 332.67,-17.68"/>
<polygon fill="midnightblue" stroke="midnightblue" points="332.94,-21.17 342.83,-17.38 332.73,-14.17 332.94,-21.17"/>
</g>
</g>
</svg>
