<?xml version="1.0" encoding="UTF-8" standalone="no"?>
<!DOCTYPE svg PUBLIC "-//W3C//DTD SVG 1.1//EN"
 "http://www.w3.org/Graphics/SVG/1.1/DTD/svg11.dtd">
<!-- Generated by graphviz version 2.43.0 (0)
 -->
<!-- Title: TailoredWordBreakIterator::GetString Pages: 1 -->
<svg width="1800pt" height="511pt"
 viewBox="0.00 0.00 1800.00 511.37" xmlns="http://www.w3.org/2000/svg" xmlns:xlink="http://www.w3.org/1999/xlink">
<g id="graph0" class="graph" transform="scale(1 1) rotate(0) translate(4 507.37)">
<title>TailoredWordBreakIterator::GetString</title>
<polygon fill="white" stroke="transparent" points="-4,4 -4,-507.37 1796,-507.37 1796,4 -4,4"/>
<!-- Node1 -->
<g id="node1" class="node">
<title>Node1</title>
<g id="a_node1"><a xlink:title=" ">
<polygon fill="#bfbfbf" stroke="black" points="1663,-243.37 1663,-273.37 1792,-273.37 1792,-243.37 1663,-243.37"/>
<text text-anchor="start" x="1671" y="-261.37" font-family="Helvetica,sans-Serif" font-size="10.00">TailoredWordBreakIterator</text>
<text text-anchor="middle" x="1727.5" y="-250.37" font-family="Helvetica,sans-Serif" font-size="10.00">::GetString</text>
</a>
</g>
</g>
<!-- Node2 -->
<g id="node2" class="node">
<title>Node2</title>
<g id="a_node2"><a xlink:href="../../d7/daf/in__memory__url__index__types_8cc.html#ac7945538f83c74cad6ec3b7b5183b0b2" target="_top" xlink:title=" ">
<polygon fill="white" stroke="black" points="1487,-248.87 1487,-267.87 1627,-267.87 1627,-248.87 1487,-248.87"/>
<text text-anchor="middle" x="1557" y="-255.87" font-family="Helvetica,sans-Serif" font-size="10.00">String16VectorFromString16</text>
</a>
</g>
</g>
<!-- Node1&#45;&gt;Node2 -->
<g id="edge1" class="edge">
<title>Node1&#45;&gt;Node2</title>
<path fill="none" stroke="midnightblue" d="M1652.58,-258.37C1644.12,-258.37 1635.53,-258.37 1627.14,-258.37"/>
<polygon fill="midnightblue" stroke="midnightblue" points="1652.8,-261.87 1662.8,-258.37 1652.8,-254.87 1652.8,-261.87"/>
</g>
<!-- Node3 -->
<g id="node3" class="node">
<title>Node3</title>
<g id="a_node3"><a xlink:href="../../d4/d5d/inline__autocompletion__util_8cc.html#a9583fbb9832652d109c6207aca346704" target="_top" xlink:title=" ">
<polygon fill="white" stroke="black" points="1342,-350.87 1342,-369.87 1434,-369.87 1434,-350.87 1342,-350.87"/>
<text text-anchor="middle" x="1388" y="-357.87" font-family="Helvetica,sans-Serif" font-size="10.00">FindAtWordbreak</text>
</a>
</g>
</g>
<!-- Node2&#45;&gt;Node3 -->
<g id="edge2" class="edge">
<title>Node2&#45;&gt;Node3</title>
<path fill="none" stroke="midnightblue" d="M1537.15,-274.45C1516.86,-291.21 1483.14,-317.47 1451,-335.37 1440.25,-341.35 1427.77,-346.67 1416.84,-350.84"/>
<polygon fill="midnightblue" stroke="midnightblue" points="1539.55,-277 1544.98,-267.9 1535.06,-271.63 1539.55,-277"/>
</g>
<!-- Node4 -->
<g id="node4" class="node">
<title>Node4</title>
<g id="a_node4"><a xlink:href="../../d4/d5d/inline__autocompletion__util_8cc.html#ab968ce35ffda29f421146b337cf33f60" target="_top" xlink:title=" ">
<polygon fill="white" stroke="black" points="1116,-350.87 1116,-369.87 1289,-369.87 1289,-350.87 1116,-350.87"/>
<text text-anchor="middle" x="1202.5" y="-357.87" font-family="Helvetica,sans-Serif" font-size="10.00">FindWordsSequentiallyAtWordbreak</text>
</a>
</g>
</g>
<!-- Node2&#45;&gt;Node4 -->
<g id="edge47" class="edge">
<title>Node2&#45;&gt;Node4</title>
<path fill="none" stroke="midnightblue" d="M1513.16,-270.76C1441.89,-291.39 1300.45,-332.31 1236.39,-350.85"/>
<polygon fill="midnightblue" stroke="midnightblue" points="1514.52,-274.01 1523.15,-267.87 1512.58,-267.29 1514.52,-274.01"/>
</g>
<!-- Node25 -->
<g id="node25" class="node">
<title>Node25</title>
<g id="a_node25"><a xlink:href="../../dc/db8/autocomplete__match__classification_8cc.html#a854bdbfcba7705ea05f3f6b08c904eb8" target="_top" xlink:title=" ">
<polygon fill="white" stroke="black" points="1155,-270.87 1155,-289.87 1250,-289.87 1250,-270.87 1155,-270.87"/>
<text text-anchor="middle" x="1202.5" y="-277.87" font-family="Helvetica,sans-Serif" font-size="10.00">FindTermMatches</text>
</a>
</g>
</g>
<!-- Node2&#45;&gt;Node25 -->
<g id="edge27" class="edge">
<title>Node2&#45;&gt;Node25</title>
<path fill="none" stroke="midnightblue" d="M1476.71,-263.32C1406.95,-267.67 1307.77,-273.86 1250.08,-277.46"/>
<polygon fill="midnightblue" stroke="midnightblue" points="1477.02,-266.8 1486.78,-262.69 1476.58,-259.82 1477.02,-266.8"/>
</g>
<!-- Node36 -->
<g id="node36" class="node">
<title>Node36</title>
<g id="a_node36"><a xlink:href="../../d0/d85/classURLIndexPrivateData.html#ad90f78b503f7ec90cdf9263b97a10a24" target="_top" xlink:title=" ">
<polygon fill="white" stroke="black" points="1328,-221.37 1328,-251.37 1448,-251.37 1448,-221.37 1328,-221.37"/>
<text text-anchor="start" x="1336" y="-239.37" font-family="Helvetica,sans-Serif" font-size="10.00">URLIndexPrivateData</text>
<text text-anchor="middle" x="1388" y="-228.37" font-family="Helvetica,sans-Serif" font-size="10.00">::HistoryItemsForTerms</text>
</a>
</g>
</g>
<!-- Node2&#45;&gt;Node36 -->
<g id="edge48" class="edge">
<title>Node2&#45;&gt;Node36</title>
<path fill="none" stroke="midnightblue" d="M1476.65,-247.91C1467.02,-246.65 1457.32,-245.37 1448.07,-244.15"/>
<polygon fill="midnightblue" stroke="midnightblue" points="1476.26,-251.39 1486.63,-249.23 1477.17,-244.45 1476.26,-251.39"/>
</g>
<!-- Node37 -->
<g id="node37" class="node">
<title>Node37</title>
<g id="a_node37"><a xlink:href="../../d0/d85/classURLIndexPrivateData.html#ae830a4d5784d80fe7fd1a610ea0bed57" target="_top" xlink:title=" ">
<polygon fill="white" stroke="black" points="1325.5,-172.37 1325.5,-202.37 1450.5,-202.37 1450.5,-172.37 1325.5,-172.37"/>
<text text-anchor="start" x="1333.5" y="-190.37" font-family="Helvetica,sans-Serif" font-size="10.00">URLIndexPrivateData</text>
<text text-anchor="middle" x="1388" y="-179.37" font-family="Helvetica,sans-Serif" font-size="10.00">::RestoreWordStartsMap</text>
</a>
</g>
</g>
<!-- Node2&#45;&gt;Node37 -->
<g id="edge49" class="edge">
<title>Node2&#45;&gt;Node37</title>
<path fill="none" stroke="midnightblue" d="M1525.44,-244.69C1504.55,-235.42 1476.18,-222.96 1451,-212.37 1443.19,-209.08 1434.79,-205.64 1426.78,-202.39"/>
<polygon fill="midnightblue" stroke="midnightblue" points="1524.2,-247.98 1534.76,-248.84 1527.05,-241.58 1524.2,-247.98"/>
</g>
<!-- Node39 -->
<g id="node39" class="node">
<title>Node39</title>
<g id="a_node39"><a xlink:href="../../d7/daf/in__memory__url__index__types_8cc.html#a5f9beafdd4e0df78d31248fb69b928fe" target="_top" xlink:title=" ">
<polygon fill="white" stroke="black" points="1325,-76.87 1325,-95.87 1451,-95.87 1451,-76.87 1325,-76.87"/>
<text text-anchor="middle" x="1388" y="-83.87" font-family="Helvetica,sans-Serif" font-size="10.00">String16SetFromString16</text>
</a>
</g>
</g>
<!-- Node2&#45;&gt;Node39 -->
<g id="edge51" class="edge">
<title>Node2&#45;&gt;Node39</title>
<path fill="none" stroke="midnightblue" d="M1539.49,-241.37C1504.86,-205.69 1425.55,-124.01 1398.35,-96"/>
<polygon fill="midnightblue" stroke="midnightblue" points="1537.07,-243.89 1546.54,-248.63 1542.09,-239.01 1537.07,-243.89"/>
</g>
<!-- Node3&#45;&gt;Node4 -->
<g id="edge3" class="edge">
<title>Node3&#45;&gt;Node4</title>
<path fill="none" stroke="midnightblue" d="M1331.26,-360.37C1317.95,-360.37 1303.45,-360.37 1289.14,-360.37"/>
<polygon fill="midnightblue" stroke="midnightblue" points="1331.64,-363.87 1341.64,-360.37 1331.64,-356.87 1331.64,-363.87"/>
</g>
<!-- Node5 -->
<g id="node5" class="node">
<title>Node5</title>
<g id="a_node5"><a xlink:href="../../dc/d8f/structAutocompleteMatch.html#a7d32cb29accb8f2e566b696401fdd3dc" target="_top" xlink:title=" ">
<polygon fill="white" stroke="black" points="948,-385.37 948,-415.37 1067,-415.37 1067,-385.37 948,-385.37"/>
<text text-anchor="start" x="956" y="-403.37" font-family="Helvetica,sans-Serif" font-size="10.00">AutocompleteMatch::</text>
<text text-anchor="middle" x="1007.5" y="-392.37" font-family="Helvetica,sans-Serif" font-size="10.00">TryRichAutocompletion</text>
</a>
</g>
</g>
<!-- Node3&#45;&gt;Node5 -->
<g id="edge26" class="edge">
<title>Node3&#45;&gt;Node5</title>
<path fill="none" stroke="midnightblue" d="M1333.94,-371.83C1319.43,-374.64 1303.65,-377.41 1289,-379.37 1212.77,-389.58 1124.16,-395.17 1067.27,-397.97"/>
<polygon fill="midnightblue" stroke="midnightblue" points="1334.63,-375.26 1343.76,-369.88 1333.27,-368.39 1334.63,-375.26"/>
</g>
<!-- Node4&#45;&gt;Node5 -->
<g id="edge4" class="edge">
<title>Node4&#45;&gt;Node5</title>
<path fill="none" stroke="midnightblue" d="M1145.38,-372C1120.83,-377.09 1092.01,-383.06 1067.17,-388.21"/>
<polygon fill="midnightblue" stroke="midnightblue" points="1146.19,-375.41 1155.27,-369.95 1144.77,-368.55 1146.19,-375.41"/>
</g>
<!-- Node6 -->
<g id="node6" class="node">
<title>Node6</title>
<g id="a_node6"><a xlink:href="../../da/dad/classHistoryURLProvider.html#a7916812392de472afbe860622a910f8c" target="_top" xlink:title=" ">
<polygon fill="white" stroke="black" points="745.5,-177.37 745.5,-207.37 878.5,-207.37 878.5,-177.37 745.5,-177.37"/>
<text text-anchor="start" x="753.5" y="-195.37" font-family="Helvetica,sans-Serif" font-size="10.00">HistoryURLProvider</text>
<text text-anchor="middle" x="812" y="-184.37" font-family="Helvetica,sans-Serif" font-size="10.00">::HistoryMatchToACMatch</text>
</a>
</g>
</g>
<!-- Node5&#45;&gt;Node6 -->
<g id="edge5" class="edge">
<title>Node5&#45;&gt;Node6</title>
<path fill="none" stroke="midnightblue" d="M939.45,-379.5C937.89,-378.2 936.4,-376.83 935,-375.37 896.77,-335.47 930.76,-301.58 899,-256.37 884.34,-235.5 860.74,-218.64 841.97,-207.47"/>
<polygon fill="midnightblue" stroke="midnightblue" points="937.6,-382.48 947.81,-385.32 941.61,-376.73 937.6,-382.48"/>
</g>
<!-- Node11 -->
<g id="node11" class="node">
<title>Node11</title>
<g id="a_node11"><a xlink:href="../../dc/dfa/classDocumentProvider.html#af3f28f0db7d2555450a770571288099d" target="_top" xlink:title=" ">
<polygon fill="white" stroke="black" points="725,-363.37 725,-393.37 899,-393.37 899,-363.37 725,-363.37"/>
<text text-anchor="start" x="733" y="-381.37" font-family="Helvetica,sans-Serif" font-size="10.00">DocumentProvider::ParseDocument</text>
<text text-anchor="middle" x="812" y="-370.37" font-family="Helvetica,sans-Serif" font-size="10.00">SearchResults</text>
</a>
</g>
</g>
<!-- Node5&#45;&gt;Node11 -->
<g id="edge12" class="edge">
<title>Node5&#45;&gt;Node11</title>
<path fill="none" stroke="midnightblue" d="M937.65,-392.54C925.2,-391.12 912.09,-389.63 899.23,-388.17"/>
<polygon fill="midnightblue" stroke="midnightblue" points="937.59,-396.06 947.92,-393.71 938.38,-389.1 937.59,-396.06"/>
</g>
<!-- Node16 -->
<g id="node16" class="node">
<title>Node16</title>
<g id="a_node16"><a xlink:href="../../d4/dfb/classHistoryQuickProvider.html#a7b399ca42a8512a7187e26daa68c91b7" target="_top" xlink:title=" ">
<polygon fill="white" stroke="black" points="748.5,-314.37 748.5,-344.37 875.5,-344.37 875.5,-314.37 748.5,-314.37"/>
<text text-anchor="start" x="756.5" y="-332.37" font-family="Helvetica,sans-Serif" font-size="10.00">HistoryQuickProvider</text>
<text text-anchor="middle" x="812" y="-321.37" font-family="Helvetica,sans-Serif" font-size="10.00">::QuickMatchToACMatch</text>
</a>
</g>
</g>
<!-- Node5&#45;&gt;Node16 -->
<g id="edge17" class="edge">
<title>Node5&#45;&gt;Node16</title>
<path fill="none" stroke="midnightblue" d="M949.74,-381.65C944.71,-379.65 939.73,-377.55 935,-375.37 918.18,-367.61 916.02,-361.67 899,-354.37 890.43,-350.69 881.15,-347.36 871.97,-344.42"/>
<polygon fill="midnightblue" stroke="midnightblue" points="948.86,-385.06 959.45,-385.36 951.36,-378.52 948.86,-385.06"/>
</g>
<!-- Node19 -->
<g id="node19" class="node">
<title>Node19</title>
<g id="a_node19"><a xlink:href="../../d7/d54/classShortcutsProvider.html#af3f9f49d6b067473aad145aa91e463a5" target="_top" xlink:title=" ">
<polygon fill="white" stroke="black" points="759.5,-412.37 759.5,-442.37 864.5,-442.37 864.5,-412.37 759.5,-412.37"/>
<text text-anchor="start" x="767.5" y="-430.37" font-family="Helvetica,sans-Serif" font-size="10.00">ShortcutsProvider::</text>
<text text-anchor="middle" x="812" y="-419.37" font-family="Helvetica,sans-Serif" font-size="10.00">ShortcutToACMatch</text>
</a>
</g>
</g>
<!-- Node5&#45;&gt;Node19 -->
<g id="edge20" class="edge">
<title>Node5&#45;&gt;Node19</title>
<path fill="none" stroke="midnightblue" d="M937.8,-409.95C913.78,-413.31 887.23,-417.01 864.82,-420.14"/>
<polygon fill="midnightblue" stroke="midnightblue" points="938.5,-413.39 947.92,-408.54 937.53,-406.46 938.5,-413.39"/>
</g>
<!-- Node22 -->
<g id="node22" class="node">
<title>Node22</title>
<g id="a_node22"><a xlink:href="../../d9/d3f/namespacebookmarks.html#ae1033bf99cb69672ce0233663385e6c5" target="_top" xlink:title=" ">
<polygon fill="white" stroke="black" points="745,-265.37 745,-295.37 879,-295.37 879,-265.37 745,-265.37"/>
<text text-anchor="start" x="753" y="-283.37" font-family="Helvetica,sans-Serif" font-size="10.00">bookmarks::TitledUrlMatch</text>
<text text-anchor="middle" x="812" y="-272.37" font-family="Helvetica,sans-Serif" font-size="10.00">ToAutocompleteMatch</text>
</a>
</g>
</g>
<!-- Node5&#45;&gt;Node22 -->
<g id="edge23" class="edge">
<title>Node5&#45;&gt;Node22</title>
<path fill="none" stroke="midnightblue" d="M941.2,-380.13C939.03,-378.65 936.95,-377.07 935,-375.37 908.61,-352.4 926,-327.62 899,-305.37 893.12,-300.52 886.34,-296.62 879.22,-293.47"/>
<polygon fill="midnightblue" stroke="midnightblue" points="939.56,-383.23 949.95,-385.33 943.14,-377.22 939.56,-383.23"/>
</g>
<!-- Node7 -->
<g id="node7" class="node">
<title>Node7</title>
<g id="a_node7"><a xlink:href="../../da/dad/classHistoryURLProvider.html#ac09d95504d0957ea4c3608fc6a0d82c6" target="_top" xlink:title=" ">
<polygon fill="white" stroke="black" points="526,-133.37 526,-163.37 676,-163.37 676,-133.37 526,-133.37"/>
<text text-anchor="start" x="534" y="-151.37" font-family="Helvetica,sans-Serif" font-size="10.00">HistoryURLProvider</text>
<text text-anchor="middle" x="601" y="-140.37" font-family="Helvetica,sans-Serif" font-size="10.00">::PromoteMatchesIfNecessary</text>
</a>
</g>
</g>
<!-- Node6&#45;&gt;Node7 -->
<g id="edge6" class="edge">
<title>Node6&#45;&gt;Node7</title>
<path fill="none" stroke="midnightblue" d="M735.64,-176.5C715.38,-172.24 693.53,-167.64 673.49,-163.42"/>
<polygon fill="midnightblue" stroke="midnightblue" points="734.94,-179.93 745.44,-178.57 736.38,-173.08 734.94,-179.93"/>
</g>
<!-- Node8 -->
<g id="node8" class="node">
<title>Node8</title>
<g id="a_node8"><a xlink:href="../../da/dad/classHistoryURLProvider.html#ab297ab23ac3520f3f0be38417325e609" target="_top" xlink:title=" ">
<polygon fill="white" stroke="black" points="346,-172.37 346,-202.37 450,-202.37 450,-172.37 346,-172.37"/>
<text text-anchor="start" x="354" y="-190.37" font-family="Helvetica,sans-Serif" font-size="10.00">HistoryURLProvider</text>
<text text-anchor="middle" x="398" y="-179.37" font-family="Helvetica,sans-Serif" font-size="10.00">::QueryComplete</text>
</a>
</g>
</g>
<!-- Node6&#45;&gt;Node8 -->
<g id="edge11" class="edge">
<title>Node6&#45;&gt;Node8</title>
<path fill="none" stroke="midnightblue" d="M735.15,-191.45C652.26,-190.44 521.76,-188.86 450.19,-187.99"/>
<polygon fill="midnightblue" stroke="midnightblue" points="735.22,-194.95 745.26,-191.57 735.31,-187.95 735.22,-194.95"/>
</g>
<!-- Node7&#45;&gt;Node8 -->
<g id="edge7" class="edge">
<title>Node7&#45;&gt;Node8</title>
<path fill="none" stroke="midnightblue" d="M515.89,-164.69C493.55,-169.02 470.09,-173.58 450.1,-177.45"/>
<polygon fill="midnightblue" stroke="midnightblue" points="516.58,-168.12 525.73,-162.78 515.24,-161.25 516.58,-168.12"/>
</g>
<!-- Node10 -->
<g id="node10" class="node">
<title>Node10</title>
<g id="a_node10"><a xlink:href="../../da/dad/classHistoryURLProvider.html#ad8668da3c2254ca7ac51f0d7b0fc4104" target="_top" xlink:title=" ">
<polygon fill="white" stroke="black" points="10.5,-174.37 10.5,-204.37 114.5,-204.37 114.5,-174.37 10.5,-174.37"/>
<text text-anchor="start" x="18.5" y="-192.37" font-family="Helvetica,sans-Serif" font-size="10.00">HistoryURLProvider</text>
<text text-anchor="middle" x="62.5" y="-181.37" font-family="Helvetica,sans-Serif" font-size="10.00">::Start</text>
</a>
</g>
</g>
<!-- Node7&#45;&gt;Node10 -->
<g id="edge10" class="edge">
<title>Node7&#45;&gt;Node10</title>
<path fill="none" stroke="midnightblue" d="M515.79,-146.59C427.09,-145.89 283.54,-148.1 161,-165.37 145.81,-167.51 129.54,-171.01 114.73,-174.69"/>
<polygon fill="midnightblue" stroke="midnightblue" points="515.77,-150.09 525.8,-146.68 515.84,-143.09 515.77,-150.09"/>
</g>
<!-- Node9 -->
<g id="node9" class="node">
<title>Node9</title>
<g id="a_node9"><a xlink:href="../../da/dad/classHistoryURLProvider.html#afb38c4ac596ac8c3de848f4c35f53656" target="_top" xlink:title=" ">
<polygon fill="white" stroke="black" points="170,-174.37 170,-204.37 274,-204.37 274,-174.37 170,-174.37"/>
<text text-anchor="start" x="178" y="-192.37" font-family="Helvetica,sans-Serif" font-size="10.00">HistoryURLProvider</text>
<text text-anchor="middle" x="222" y="-181.37" font-family="Helvetica,sans-Serif" font-size="10.00">::ExecuteWithDB</text>
</a>
</g>
</g>
<!-- Node8&#45;&gt;Node9 -->
<g id="edge8" class="edge">
<title>Node8&#45;&gt;Node9</title>
<path fill="none" stroke="midnightblue" d="M335.74,-188.07C315.62,-188.3 293.49,-188.56 274.2,-188.78"/>
<polygon fill="midnightblue" stroke="midnightblue" points="335.78,-191.57 345.74,-187.96 335.7,-184.57 335.78,-191.57"/>
</g>
<!-- Node9&#45;&gt;Node10 -->
<g id="edge9" class="edge">
<title>Node9&#45;&gt;Node10</title>
<path fill="none" stroke="midnightblue" d="M159.71,-189.37C144.81,-189.37 129.03,-189.37 114.65,-189.37"/>
<polygon fill="midnightblue" stroke="midnightblue" points="159.86,-192.87 169.86,-189.37 159.86,-185.87 159.86,-192.87"/>
</g>
<!-- Node12 -->
<g id="node12" class="node">
<title>Node12</title>
<g id="a_node12"><a xlink:href="../../dc/dfa/classDocumentProvider.html#a01f932ec42e54a121bf93abe3d75c1d7" target="_top" xlink:title=" ">
<polygon fill="white" stroke="black" points="533.5,-363.37 533.5,-393.37 668.5,-393.37 668.5,-363.37 533.5,-363.37"/>
<text text-anchor="start" x="541.5" y="-381.37" font-family="Helvetica,sans-Serif" font-size="10.00">DocumentProvider::Update</text>
<text text-anchor="middle" x="601" y="-370.37" font-family="Helvetica,sans-Serif" font-size="10.00">Results</text>
</a>
</g>
</g>
<!-- Node11&#45;&gt;Node12 -->
<g id="edge13" class="edge">
<title>Node11&#45;&gt;Node12</title>
<path fill="none" stroke="midnightblue" d="M714.6,-378.37C699.02,-378.37 683.2,-378.37 668.54,-378.37"/>
<polygon fill="midnightblue" stroke="midnightblue" points="714.79,-381.87 724.79,-378.37 714.79,-374.87 714.79,-381.87"/>
</g>
<!-- Node13 -->
<g id="node13" class="node">
<title>Node13</title>
<g id="a_node13"><a xlink:href="../../dc/dfa/classDocumentProvider.html#a2bfea6fa03acad2d185a55cc86847624" target="_top" xlink:title=" ">
<polygon fill="white" stroke="black" points="319,-363.37 319,-393.37 477,-393.37 477,-363.37 319,-363.37"/>
<text text-anchor="start" x="327" y="-381.37" font-family="Helvetica,sans-Serif" font-size="10.00">DocumentProvider::OnURLLoad</text>
<text text-anchor="middle" x="398" y="-370.37" font-family="Helvetica,sans-Serif" font-size="10.00">Complete</text>
</a>
</g>
</g>
<!-- Node12&#45;&gt;Node13 -->
<g id="edge14" class="edge">
<title>Node12&#45;&gt;Node13</title>
<path fill="none" stroke="midnightblue" d="M523.1,-378.37C508.11,-378.37 492.37,-378.37 477.32,-378.37"/>
<polygon fill="midnightblue" stroke="midnightblue" points="523.35,-381.87 533.35,-378.37 523.35,-374.87 523.35,-381.87"/>
</g>
<!-- Node14 -->
<g id="node14" class="node">
<title>Node14</title>
<g id="a_node14"><a xlink:href="../../dc/dfa/classDocumentProvider.html#ab41060dd5676c221e9904cd0fc156149" target="_top" xlink:title=" ">
<polygon fill="white" stroke="black" points="161,-368.87 161,-387.87 283,-387.87 283,-368.87 161,-368.87"/>
<text text-anchor="middle" x="222" y="-375.87" font-family="Helvetica,sans-Serif" font-size="10.00">DocumentProvider::Run</text>
</a>
</g>
</g>
<!-- Node13&#45;&gt;Node14 -->
<g id="edge15" class="edge">
<title>Node13&#45;&gt;Node14</title>
<path fill="none" stroke="midnightblue" d="M308.73,-378.37C300.06,-378.37 291.4,-378.37 283.1,-378.37"/>
<polygon fill="midnightblue" stroke="midnightblue" points="308.91,-381.87 318.91,-378.37 308.91,-374.87 308.91,-381.87"/>
</g>
<!-- Node15 -->
<g id="node15" class="node">
<title>Node15</title>
<g id="a_node15"><a xlink:href="../../dc/dfa/classDocumentProvider.html#a8b72b3391cd4d228b531f63938023a08" target="_top" xlink:title=" ">
<polygon fill="white" stroke="black" points="0,-368.87 0,-387.87 125,-387.87 125,-368.87 0,-368.87"/>
<text text-anchor="middle" x="62.5" y="-375.87" font-family="Helvetica,sans-Serif" font-size="10.00">DocumentProvider::Start</text>
</a>
</g>
</g>
<!-- Node14&#45;&gt;Node15 -->
<g id="edge16" class="edge">
<title>Node14&#45;&gt;Node15</title>
<path fill="none" stroke="midnightblue" d="M150.36,-378.37C141.93,-378.37 133.37,-378.37 125.08,-378.37"/>
<polygon fill="midnightblue" stroke="midnightblue" points="150.56,-381.87 160.56,-378.37 150.56,-374.87 150.56,-381.87"/>
</g>
<!-- Node17 -->
<g id="node17" class="node">
<title>Node17</title>
<g id="a_node17"><a xlink:href="../../d4/dfb/classHistoryQuickProvider.html#a9c0b9a122cf1a2a0f952e1b70c0c4c0a" target="_top" xlink:title=" ">
<polygon fill="white" stroke="black" points="546,-314.37 546,-344.37 656,-344.37 656,-314.37 546,-314.37"/>
<text text-anchor="start" x="554" y="-332.37" font-family="Helvetica,sans-Serif" font-size="10.00">HistoryQuickProvider</text>
<text text-anchor="middle" x="601" y="-321.37" font-family="Helvetica,sans-Serif" font-size="10.00">::DoAutocomplete</text>
</a>
</g>
</g>
<!-- Node16&#45;&gt;Node17 -->
<g id="edge18" class="edge">
<title>Node16&#45;&gt;Node17</title>
<path fill="none" stroke="midnightblue" d="M738.14,-329.37C711.2,-329.37 681.16,-329.37 656.17,-329.37"/>
<polygon fill="midnightblue" stroke="midnightblue" points="738.29,-332.87 748.29,-329.37 738.29,-325.87 738.29,-332.87"/>
</g>
<!-- Node18 -->
<g id="node18" class="node">
<title>Node18</title>
<g id="a_node18"><a xlink:href="../../d4/dfb/classHistoryQuickProvider.html#aecd0ae2b2605021d4f74bb43d07d9b83" target="_top" xlink:title=" ">
<polygon fill="white" stroke="black" points="343,-314.37 343,-344.37 453,-344.37 453,-314.37 343,-314.37"/>
<text text-anchor="start" x="351" y="-332.37" font-family="Helvetica,sans-Serif" font-size="10.00">HistoryQuickProvider</text>
<text text-anchor="middle" x="398" y="-321.37" font-family="Helvetica,sans-Serif" font-size="10.00">::Start</text>
</a>
</g>
</g>
<!-- Node17&#45;&gt;Node18 -->
<g id="edge19" class="edge">
<title>Node17&#45;&gt;Node18</title>
<path fill="none" stroke="midnightblue" d="M535.53,-329.37C508.99,-329.37 478.59,-329.37 453.23,-329.37"/>
<polygon fill="midnightblue" stroke="midnightblue" points="535.87,-332.87 545.87,-329.37 535.87,-325.87 535.87,-332.87"/>
</g>
<!-- Node20 -->
<g id="node20" class="node">
<title>Node20</title>
<g id="a_node20"><a xlink:href="../../d7/d54/classShortcutsProvider.html#a41688b93a4f3250b9d703a7393f7a6d2" target="_top" xlink:title=" ">
<polygon fill="white" stroke="black" points="550.5,-412.37 550.5,-442.37 651.5,-442.37 651.5,-412.37 550.5,-412.37"/>
<text text-anchor="start" x="558.5" y="-430.37" font-family="Helvetica,sans-Serif" font-size="10.00">ShortcutsProvider::</text>
<text text-anchor="middle" x="601" y="-419.37" font-family="Helvetica,sans-Serif" font-size="10.00">GetMatches</text>
</a>
</g>
</g>
<!-- Node19&#45;&gt;Node20 -->
<g id="edge21" class="edge">
<title>Node19&#45;&gt;Node20</title>
<path fill="none" stroke="midnightblue" d="M749.05,-427.37C717.96,-427.37 680.81,-427.37 651.63,-427.37"/>
<polygon fill="midnightblue" stroke="midnightblue" points="749.34,-430.87 759.34,-427.37 749.34,-423.87 749.34,-430.87"/>
</g>
<!-- Node21 -->
<g id="node21" class="node">
<title>Node21</title>
<g id="a_node21"><a xlink:href="../../d7/d54/classShortcutsProvider.html#a35f84843c54123f37cfed2c878c90427" target="_top" xlink:title=" ">
<polygon fill="white" stroke="black" points="347.5,-412.37 347.5,-442.37 448.5,-442.37 448.5,-412.37 347.5,-412.37"/>
<text text-anchor="start" x="355.5" y="-430.37" font-family="Helvetica,sans-Serif" font-size="10.00">ShortcutsProvider::</text>
<text text-anchor="middle" x="398" y="-419.37" font-family="Helvetica,sans-Serif" font-size="10.00">Start</text>
</a>
</g>
</g>
<!-- Node20&#45;&gt;Node21 -->
<g id="edge22" class="edge">
<title>Node20&#45;&gt;Node21</title>
<path fill="none" stroke="midnightblue" d="M540.26,-427.37C511.13,-427.37 476.49,-427.37 448.81,-427.37"/>
<polygon fill="midnightblue" stroke="midnightblue" points="540.31,-430.87 550.31,-427.37 540.31,-423.87 540.31,-430.87"/>
</g>
<!-- Node23 -->
<g id="node23" class="node">
<title>Node23</title>
<g id="a_node23"><a xlink:href="../../d9/d85/classBookmarkProvider.html#afadaef69eb46311e736113fcfb9fb940" target="_top" xlink:title=" ">
<polygon fill="white" stroke="black" points="513,-270.87 513,-289.87 689,-289.87 689,-270.87 513,-270.87"/>
<text text-anchor="middle" x="601" y="-277.87" font-family="Helvetica,sans-Serif" font-size="10.00">BookmarkProvider::DoAutocomplete</text>
</a>
</g>
</g>
<!-- Node22&#45;&gt;Node23 -->
<g id="edge24" class="edge">
<title>Node22&#45;&gt;Node23</title>
<path fill="none" stroke="midnightblue" d="M734.75,-280.37C719.92,-280.37 704.27,-280.37 689.12,-280.37"/>
<polygon fill="midnightblue" stroke="midnightblue" points="734.87,-283.87 744.87,-280.37 734.87,-276.87 734.87,-283.87"/>
</g>
<!-- Node24 -->
<g id="node24" class="node">
<title>Node24</title>
<g id="a_node24"><a xlink:href="../../d9/d85/classBookmarkProvider.html#a6b6511006b139be9855d11d197ef3b60" target="_top" xlink:title=" ">
<polygon fill="white" stroke="black" points="336,-270.87 336,-289.87 460,-289.87 460,-270.87 336,-270.87"/>
<text text-anchor="middle" x="398" y="-277.87" font-family="Helvetica,sans-Serif" font-size="10.00">BookmarkProvider::Start</text>
</a>
</g>
</g>
<!-- Node23&#45;&gt;Node24 -->
<g id="edge25" class="edge">
<title>Node23&#45;&gt;Node24</title>
<path fill="none" stroke="midnightblue" d="M502.3,-280.37C487.96,-280.37 473.54,-280.37 460.21,-280.37"/>
<polygon fill="midnightblue" stroke="midnightblue" points="502.72,-283.87 512.72,-280.37 502.72,-276.87 502.72,-283.87"/>
</g>
<!-- Node25&#45;&gt;Node6 -->
<g id="edge44" class="edge">
<title>Node25&#45;&gt;Node6</title>
<path fill="none" stroke="midnightblue" d="M1180.5,-264.82C1157.24,-248.55 1118.01,-223.81 1080,-212.37 1013.46,-192.33 933.58,-188.87 878.63,-189.47"/>
<polygon fill="midnightblue" stroke="midnightblue" points="1178.7,-267.84 1188.87,-270.8 1182.77,-262.14 1178.7,-267.84"/>
</g>
<!-- Node25&#45;&gt;Node16 -->
<g id="edge45" class="edge">
<title>Node25&#45;&gt;Node16</title>
<path fill="none" stroke="midnightblue" d="M1144.44,-287.56C1072.73,-296.61 950.07,-312.08 875.77,-321.45"/>
<polygon fill="midnightblue" stroke="midnightblue" points="1145.15,-291 1154.64,-286.28 1144.28,-284.06 1145.15,-291"/>
</g>
<!-- Node25&#45;&gt;Node22 -->
<g id="edge46" class="edge">
<title>Node25&#45;&gt;Node22</title>
<path fill="none" stroke="midnightblue" d="M1144.59,-280.37C1073.99,-280.37 953.83,-280.37 879.18,-280.37"/>
<polygon fill="midnightblue" stroke="midnightblue" points="1144.64,-283.87 1154.64,-280.37 1144.64,-276.87 1144.64,-283.87"/>
</g>
<!-- Node26 -->
<g id="node26" class="node">
<title>Node26</title>
<g id="a_node26"><a xlink:href="../../dd/d0f/classSearchSuggestionParser_1_1NavigationResult.html#a99b53d89e9883b51f6801975df0b8b16" target="_top" xlink:title=" ">
<polygon fill="white" stroke="black" points="935,-122.87 935,-163.87 1080,-163.87 1080,-122.87 935,-122.87"/>
<text text-anchor="start" x="943" y="-151.87" font-family="Helvetica,sans-Serif" font-size="10.00">SearchSuggestionParser</text>
<text text-anchor="start" x="943" y="-140.87" font-family="Helvetica,sans-Serif" font-size="10.00">::NavigationResult::Calculate</text>
<text text-anchor="middle" x="1007.5" y="-129.87" font-family="Helvetica,sans-Serif" font-size="10.00">AndClassifyMatchContents</text>
</a>
</g>
</g>
<!-- Node25&#45;&gt;Node26 -->
<g id="edge28" class="edge">
<title>Node25&#45;&gt;Node26</title>
<path fill="none" stroke="midnightblue" d="M1180.37,-264.37C1162.82,-250.89 1137.35,-230.88 1116,-212.37 1099.37,-197.95 1098.09,-190.9 1080,-178.37 1072.5,-173.17 1064.12,-168.33 1055.8,-164"/>
<polygon fill="midnightblue" stroke="midnightblue" points="1178.7,-267.49 1188.77,-270.78 1182.95,-261.93 1178.7,-267.49"/>
</g>
<!-- Node28 -->
<g id="node28" class="node">
<title>Node28</title>
<g id="a_node28"><a xlink:href="../../dc/dfa/classDocumentProvider.html#aefbd2c580326d23a50e1219a186d7921" target="_top" xlink:title=" ">
<polygon fill="white" stroke="black" points="937.5,-346.87 937.5,-365.87 1077.5,-365.87 1077.5,-346.87 937.5,-346.87"/>
<text text-anchor="middle" x="1007.5" y="-353.87" font-family="Helvetica,sans-Serif" font-size="10.00">DocumentProvider::Classify</text>
</a>
</g>
</g>
<!-- Node25&#45;&gt;Node28 -->
<g id="edge30" class="edge">
<title>Node25&#45;&gt;Node28</title>
<path fill="none" stroke="midnightblue" d="M1171.21,-294.14C1146.79,-305.04 1111.47,-320.37 1080,-332.37 1066.54,-337.5 1051.45,-342.65 1038.61,-346.86"/>
<polygon fill="midnightblue" stroke="midnightblue" points="1172.95,-297.19 1180.64,-289.9 1170.08,-290.81 1172.95,-297.19"/>
</g>
<!-- Node29 -->
<g id="node29" class="node">
<title>Node29</title>
<g id="a_node29"><a xlink:href="../../dd/de9/classAutocompleteProvider.html#ad8da4f96e7eb8bfc070e107bd576321d" target="_top" xlink:title=" ">
<polygon fill="white" stroke="black" points="937,-434.37 937,-464.37 1078,-464.37 1078,-434.37 937,-434.37"/>
<text text-anchor="start" x="945" y="-452.37" font-family="Helvetica,sans-Serif" font-size="10.00">AutocompleteProvider</text>
<text text-anchor="middle" x="1007.5" y="-441.37" font-family="Helvetica,sans-Serif" font-size="10.00">::ClassifyAllMatchesInString</text>
</a>
</g>
</g>
<!-- Node25&#45;&gt;Node29 -->
<g id="edge32" class="edge">
<title>Node25&#45;&gt;Node29</title>
<path fill="none" stroke="midnightblue" d="M1173.7,-294.87C1155.3,-305.64 1131.75,-321.81 1116,-341.37 1090.52,-373 1109.86,-397.83 1080,-425.37 1076.25,-428.83 1071.98,-431.79 1067.43,-434.33"/>
<polygon fill="midnightblue" stroke="midnightblue" points="1175.54,-297.85 1182.52,-289.89 1172.1,-291.76 1175.54,-297.85"/>
</g>
<!-- Node32 -->
<g id="node32" class="node">
<title>Node32</title>
<g id="a_node32"><a xlink:href="../../dd/d0f/classSearchSuggestionParser_1_1NavigationResult.html#a1f94c19a37bd00a4479638a31279d5f8" target="_top" xlink:title=" ">
<polygon fill="white" stroke="black" points="937.5,-62.87 937.5,-103.87 1077.5,-103.87 1077.5,-62.87 937.5,-62.87"/>
<text text-anchor="start" x="945.5" y="-91.87" font-family="Helvetica,sans-Serif" font-size="10.00">SearchSuggestionParser</text>
<text text-anchor="start" x="945.5" y="-80.87" font-family="Helvetica,sans-Serif" font-size="10.00">::NavigationResult::Classify</text>
<text text-anchor="middle" x="1007.5" y="-69.87" font-family="Helvetica,sans-Serif" font-size="10.00">Description</text>
</a>
</g>
</g>
<!-- Node25&#45;&gt;Node32 -->
<g id="edge36" class="edge">
<title>Node25&#45;&gt;Node32</title>
<path fill="none" stroke="midnightblue" d="M1175.69,-265.32C1156.84,-253.15 1131.9,-234.46 1116,-212.37 1088.65,-174.37 1112.29,-147.27 1080,-113.37 1076.66,-109.86 1072.84,-106.74 1068.75,-103.98"/>
<polygon fill="midnightblue" stroke="midnightblue" points="1174.06,-268.42 1184.39,-270.75 1177.76,-262.48 1174.06,-268.42"/>
</g>
<!-- Node33 -->
<g id="node33" class="node">
<title>Node33</title>
<g id="a_node33"><a xlink:href="../../da/dad/classHistoryURLProvider.html#a165834594bca45663c12cc77f5763556" target="_top" xlink:title=" ">
<polygon fill="white" stroke="black" points="953.5,-221.37 953.5,-251.37 1061.5,-251.37 1061.5,-221.37 953.5,-221.37"/>
<text text-anchor="start" x="961.5" y="-239.37" font-family="Helvetica,sans-Serif" font-size="10.00">HistoryURLProvider</text>
<text text-anchor="middle" x="1007.5" y="-228.37" font-family="Helvetica,sans-Serif" font-size="10.00">::ClassifyDescription</text>
</a>
</g>
</g>
<!-- Node25&#45;&gt;Node33 -->
<g id="edge38" class="edge">
<title>Node25&#45;&gt;Node33</title>
<path fill="none" stroke="midnightblue" d="M1149.52,-268.52C1122.32,-262.32 1089.08,-254.74 1061.7,-248.5"/>
<polygon fill="midnightblue" stroke="midnightblue" points="1149.09,-272.01 1159.62,-270.82 1150.65,-265.19 1149.09,-272.01"/>
</g>
<!-- Node27 -->
<g id="node27" class="node">
<title>Node27</title>
<g id="a_node27"><a xlink:href="../../dd/d0f/classSearchSuggestionParser_1_1NavigationResult.html#adedfeeaa9c4a7997e222aa6824b6f5f4" target="_top" xlink:title=" ">
<polygon fill="white" stroke="black" points="737,-73.87 737,-114.87 887,-114.87 887,-73.87 737,-73.87"/>
<text text-anchor="start" x="745" y="-102.87" font-family="Helvetica,sans-Serif" font-size="10.00">SearchSuggestionParser</text>
<text text-anchor="start" x="745" y="-91.87" font-family="Helvetica,sans-Serif" font-size="10.00">::NavigationResult::Navigation</text>
<text text-anchor="middle" x="812" y="-80.87" font-family="Helvetica,sans-Serif" font-size="10.00">Result</text>
</a>
</g>
</g>
<!-- Node26&#45;&gt;Node27 -->
<g id="edge29" class="edge">
<title>Node26&#45;&gt;Node27</title>
<path fill="none" stroke="midnightblue" d="M925.01,-122.73C912.44,-119.55 899.52,-116.28 887.12,-113.14"/>
<polygon fill="midnightblue" stroke="midnightblue" points="924.44,-126.2 935,-125.26 926.16,-119.41 924.44,-126.2"/>
</g>
<!-- Node28&#45;&gt;Node11 -->
<g id="edge31" class="edge">
<title>Node28&#45;&gt;Node11</title>
<path fill="none" stroke="midnightblue" d="M927.48,-365.35C918.18,-366.41 908.66,-367.49 899.27,-368.56"/>
<polygon fill="midnightblue" stroke="midnightblue" points="927.92,-368.82 937.46,-364.22 927.13,-361.87 927.92,-368.82"/>
</g>
<!-- Node29&#45;&gt;Node19 -->
<g id="edge35" class="edge">
<title>Node29&#45;&gt;Node19</title>
<path fill="none" stroke="midnightblue" d="M926.74,-440.3C905.78,-437.92 883.73,-435.41 864.68,-433.24"/>
<polygon fill="midnightblue" stroke="midnightblue" points="926.58,-443.8 936.92,-441.46 927.37,-436.85 926.58,-443.8"/>
</g>
<!-- Node30 -->
<g id="node30" class="node">
<title>Node30</title>
<g id="a_node30"><a xlink:href="../../d4/d3d/classSearchSuggestionParser_1_1SuggestResult.html#a5ef2e2679c7799ceb7a97abe3ba7e8de" target="_top" xlink:title=" ">
<polygon fill="white" stroke="black" points="734,-461.87 734,-502.87 890,-502.87 890,-461.87 734,-461.87"/>
<text text-anchor="start" x="742" y="-490.87" font-family="Helvetica,sans-Serif" font-size="10.00">SearchSuggestionParser</text>
<text text-anchor="start" x="742" y="-479.87" font-family="Helvetica,sans-Serif" font-size="10.00">::SuggestResult::ClassifyMatch</text>
<text text-anchor="middle" x="812" y="-468.87" font-family="Helvetica,sans-Serif" font-size="10.00">Contents</text>
</a>
</g>
</g>
<!-- Node29&#45;&gt;Node30 -->
<g id="edge33" class="edge">
<title>Node29&#45;&gt;Node30</title>
<path fill="none" stroke="midnightblue" d="M926.84,-462.95C914.72,-465.02 902.23,-467.15 890.16,-469.21"/>
<polygon fill="midnightblue" stroke="midnightblue" points="927.65,-466.37 936.92,-461.24 926.47,-459.47 927.65,-466.37"/>
</g>
<!-- Node31 -->
<g id="node31" class="node">
<title>Node31</title>
<g id="a_node31"><a xlink:href="../../d4/d3d/classSearchSuggestionParser_1_1SuggestResult.html#a5afae3b5bbe90ccd52b96b811a7cf6e0" target="_top" xlink:title=" ">
<polygon fill="white" stroke="black" points="522,-467.37 522,-497.37 680,-497.37 680,-467.37 522,-467.37"/>
<text text-anchor="start" x="530" y="-485.37" font-family="Helvetica,sans-Serif" font-size="10.00">SearchSuggestionParser</text>
<text text-anchor="middle" x="601" y="-474.37" font-family="Helvetica,sans-Serif" font-size="10.00">::SuggestResult::SuggestResult</text>
</a>
</g>
</g>
<!-- Node30&#45;&gt;Node31 -->
<g id="edge34" class="edge">
<title>Node30&#45;&gt;Node31</title>
<path fill="none" stroke="midnightblue" d="M723.44,-482.37C709.13,-482.37 694.38,-482.37 680.31,-482.37"/>
<polygon fill="midnightblue" stroke="midnightblue" points="723.77,-485.87 733.77,-482.37 723.77,-478.87 723.77,-485.87"/>
</g>
<!-- Node32&#45;&gt;Node27 -->
<g id="edge37" class="edge">
<title>Node32&#45;&gt;Node27</title>
<path fill="none" stroke="midnightblue" d="M927.42,-87.86C914.14,-88.62 900.41,-89.4 887.26,-90.15"/>
<polygon fill="midnightblue" stroke="midnightblue" points="927.68,-91.35 937.46,-87.29 927.28,-84.37 927.68,-91.35"/>
</g>
<!-- Node33&#45;&gt;Node6 -->
<g id="edge43" class="edge">
<title>Node33&#45;&gt;Node6</title>
<path fill="none" stroke="midnightblue" d="M943.42,-222.02C922.72,-217.32 899.68,-212.08 878.79,-207.33"/>
<polygon fill="midnightblue" stroke="midnightblue" points="942.84,-225.48 953.37,-224.29 944.39,-218.66 942.84,-225.48"/>
</g>
<!-- Node34 -->
<g id="node34" class="node">
<title>Node34</title>
<g id="a_node34"><a xlink:href="../../da/dad/classHistoryURLProvider.html#a822b419eb238e4369fa3012bb04513f8" target="_top" xlink:title=" ">
<polygon fill="white" stroke="black" points="540.5,-221.37 540.5,-251.37 661.5,-251.37 661.5,-221.37 540.5,-221.37"/>
<text text-anchor="start" x="548.5" y="-239.37" font-family="Helvetica,sans-Serif" font-size="10.00">HistoryURLProvider</text>
<text text-anchor="middle" x="601" y="-228.37" font-family="Helvetica,sans-Serif" font-size="10.00">::FixupExactSuggestion</text>
</a>
</g>
</g>
<!-- Node33&#45;&gt;Node34 -->
<g id="edge39" class="edge">
<title>Node33&#45;&gt;Node34</title>
<path fill="none" stroke="midnightblue" d="M943.15,-236.37C866.1,-236.37 737.02,-236.37 661.67,-236.37"/>
<polygon fill="midnightblue" stroke="midnightblue" points="943.2,-239.87 953.2,-236.37 943.2,-232.87 943.2,-239.87"/>
</g>
<!-- Node35 -->
<g id="node35" class="node">
<title>Node35</title>
<g id="a_node35"><a xlink:href="../../da/dad/classHistoryURLProvider.html#a5fc3efbb45bc4e93df981144b60d753f" target="_top" xlink:title=" ">
<polygon fill="white" stroke="black" points="346,-221.37 346,-251.37 450,-251.37 450,-221.37 346,-221.37"/>
<text text-anchor="start" x="354" y="-239.37" font-family="Helvetica,sans-Serif" font-size="10.00">HistoryURLProvider</text>
<text text-anchor="middle" x="398" y="-228.37" font-family="Helvetica,sans-Serif" font-size="10.00">::DoAutocomplete</text>
</a>
</g>
</g>
<!-- Node34&#45;&gt;Node35 -->
<g id="edge40" class="edge">
<title>Node34&#45;&gt;Node35</title>
<path fill="none" stroke="midnightblue" d="M529.95,-236.37C503.65,-236.37 474.29,-236.37 450.04,-236.37"/>
<polygon fill="midnightblue" stroke="midnightblue" points="530.24,-239.87 540.24,-236.37 530.24,-232.87 530.24,-239.87"/>
</g>
<!-- Node35&#45;&gt;Node9 -->
<g id="edge41" class="edge">
<title>Node35&#45;&gt;Node9</title>
<path fill="none" stroke="midnightblue" d="M336.01,-219.89C315.82,-214.44 293.58,-208.43 274.2,-203.2"/>
<polygon fill="midnightblue" stroke="midnightblue" points="335.17,-223.29 345.74,-222.52 336.99,-216.53 335.17,-223.29"/>
</g>
<!-- Node35&#45;&gt;Node10 -->
<g id="edge42" class="edge">
<title>Node35&#45;&gt;Node10</title>
<path fill="none" stroke="midnightblue" d="M335.4,-233.3C287.57,-230.27 219.73,-224.57 161,-214.37 145.76,-211.72 129.41,-207.92 114.53,-204.07"/>
<polygon fill="midnightblue" stroke="midnightblue" points="335.4,-236.8 345.59,-233.92 335.82,-229.82 335.4,-236.8"/>
</g>
<!-- Node38 -->
<g id="node38" class="node">
<title>Node38</title>
<g id="a_node38"><a xlink:href="../../d0/d85/classURLIndexPrivateData.html#a275be57ed855b17fa80e7f852633ecb6" target="_top" xlink:title=" ">
<polygon fill="white" stroke="black" points="1146,-172.37 1146,-202.37 1259,-202.37 1259,-172.37 1146,-172.37"/>
<text text-anchor="start" x="1154" y="-190.37" font-family="Helvetica,sans-Serif" font-size="10.00">URLIndexPrivateData</text>
<text text-anchor="middle" x="1202.5" y="-179.37" font-family="Helvetica,sans-Serif" font-size="10.00">::RestorePrivateData</text>
</a>
</g>
</g>
<!-- Node37&#45;&gt;Node38 -->
<g id="edge50" class="edge">
<title>Node37&#45;&gt;Node38</title>
<path fill="none" stroke="midnightblue" d="M1315.17,-187.37C1296.54,-187.37 1276.75,-187.37 1259.09,-187.37"/>
<polygon fill="midnightblue" stroke="midnightblue" points="1315.39,-190.87 1325.39,-187.37 1315.39,-183.87 1315.39,-190.87"/>
</g>
<!-- Node40 -->
<g id="node40" class="node">
<title>Node40</title>
<g id="a_node40"><a xlink:href="../../d0/d85/classURLIndexPrivateData.html#a2d33a57d2ba9aaf60d93a79aba482eb5" target="_top" xlink:title=" ">
<polygon fill="white" stroke="black" points="1141.5,-13.37 1141.5,-43.37 1263.5,-43.37 1263.5,-13.37 1141.5,-13.37"/>
<text text-anchor="start" x="1149.5" y="-31.37" font-family="Helvetica,sans-Serif" font-size="10.00">URLIndexPrivateData</text>
<text text-anchor="middle" x="1202.5" y="-20.37" font-family="Helvetica,sans-Serif" font-size="10.00">::AddRowWordsToIndex</text>
</a>
</g>
</g>
<!-- Node39&#45;&gt;Node40 -->
<g id="edge52" class="edge">
<title>Node39&#45;&gt;Node40</title>
<path fill="none" stroke="midnightblue" d="M1347.15,-73.77C1318.92,-64.85 1280.92,-52.84 1251.09,-43.41"/>
<polygon fill="midnightblue" stroke="midnightblue" points="1346.11,-77.11 1356.7,-76.79 1348.22,-70.44 1346.11,-77.11"/>
</g>
<!-- Node41 -->
<g id="node41" class="node">
<title>Node41</title>
<g id="a_node41"><a xlink:href="../../d0/d85/classURLIndexPrivateData.html#adb2e56d6db7487fd5121f5724d8efff4" target="_top" xlink:title=" ">
<polygon fill="white" stroke="black" points="951,-13.37 951,-43.37 1064,-43.37 1064,-13.37 951,-13.37"/>
<text text-anchor="start" x="959" y="-31.37" font-family="Helvetica,sans-Serif" font-size="10.00">URLIndexPrivateData</text>
<text text-anchor="middle" x="1007.5" y="-20.37" font-family="Helvetica,sans-Serif" font-size="10.00">::IndexRow</text>
</a>
</g>
</g>
<!-- Node40&#45;&gt;Node41 -->
<g id="edge53" class="edge">
<title>Node40&#45;&gt;Node41</title>
<path fill="none" stroke="midnightblue" d="M1131.48,-28.37C1109.34,-28.37 1085.19,-28.37 1064.2,-28.37"/>
<polygon fill="midnightblue" stroke="midnightblue" points="1131.49,-31.87 1141.49,-28.37 1131.49,-24.87 1131.49,-31.87"/>
</g>
<!-- Node42 -->
<g id="node42" class="node">
<title>Node42</title>
<g id="a_node42"><a xlink:href="../../d0/d85/classURLIndexPrivateData.html#a7fa2deac91d55f25fc9e517edc64c59d" target="_top" xlink:title=" ">
<polygon fill="white" stroke="black" points="755.5,-2.37 755.5,-32.37 868.5,-32.37 868.5,-2.37 755.5,-2.37"/>
<text text-anchor="start" x="763.5" y="-20.37" font-family="Helvetica,sans-Serif" font-size="10.00">URLIndexPrivateData</text>
<text text-anchor="middle" x="812" y="-9.37" font-family="Helvetica,sans-Serif" font-size="10.00">::UpdateURL</text>
</a>
</g>
</g>
<!-- Node40&#45;&gt;Node42 -->
<g id="edge55" class="edge">
<title>Node40&#45;&gt;Node42</title>
<path fill="none" stroke="midnightblue" d="M1131.1,-11.36C1114.45,-8.04 1096.68,-5.07 1080,-3.37 1007.15,4.05 922.7,-2.99 868.61,-9.49"/>
<polygon fill="midnightblue" stroke="midnightblue" points="1130.81,-14.88 1141.31,-13.47 1132.22,-8.02 1130.81,-14.88"/>
</g>
<!-- Node41&#45;&gt;Node42 -->
<g id="edge54" class="edge">
<title>Node41&#45;&gt;Node42</title>
<path fill="none" stroke="midnightblue" d="M940.6,-24.62C917.2,-23.29 891.11,-21.81 868.65,-20.53"/>
<polygon fill="midnightblue" stroke="midnightblue" points="940.61,-28.13 950.79,-25.2 941.01,-21.14 940.61,-28.13"/>
</g>
</g>
</svg>
