<?xml version="1.0" encoding="UTF-8" standalone="no"?>
<!DOCTYPE svg PUBLIC "-//W3C//DTD SVG 1.1//EN"
 "http://www.w3.org/Graphics/SVG/1.1/DTD/svg11.dtd">
<!-- Generated by graphviz version 2.43.0 (0)
 -->
<!-- Title: QueryTileProvider::OnSubTilesFetched Pages: 1 -->
<svg width="747pt" height="165pt"
 viewBox="0.00 0.00 747.00 164.50" xmlns="http://www.w3.org/2000/svg" xmlns:xlink="http://www.w3.org/1999/xlink">
<g id="graph0" class="graph" transform="scale(1 1) rotate(0) translate(4 160.5)">
<title>QueryTileProvider::OnSubTilesFetched</title>
<polygon fill="white" stroke="transparent" points="-4,4 -4,-160.5 743,-160.5 743,4 -4,4"/>
<!-- Node1 -->
<g id="node1" class="node">
<title>Node1</title>
<g id="a_node1"><a xlink:title=" ">
<polygon fill="#bfbfbf" stroke="black" points="0,-55 0,-85 103,-85 103,-55 0,-55"/>
<text text-anchor="start" x="8" y="-73" font-family="Helvetica,sans-Serif" font-size="10.00">QueryTileProvider::</text>
<text text-anchor="middle" x="51.5" y="-62" font-family="Helvetica,sans-Serif" font-size="10.00">OnSubTilesFetched</text>
</a>
</g>
</g>
<!-- Node2 -->
<g id="node2" class="node">
<title>Node2</title>
<g id="a_node2"><a xlink:href="../../dc/ddd/classQueryTileProvider.html#a19cbb37255df49a8198a733b568316ec" target="_top" xlink:title=" ">
<polygon fill="white" stroke="black" points="139,-55 139,-85 240,-85 240,-55 139,-55"/>
<text text-anchor="start" x="147" y="-73" font-family="Helvetica,sans-Serif" font-size="10.00">QueryTileProvider::</text>
<text text-anchor="middle" x="189.5" y="-62" font-family="Helvetica,sans-Serif" font-size="10.00">BuildSuggestion</text>
</a>
</g>
</g>
<!-- Node1&#45;&gt;Node2 -->
<g id="edge1" class="edge">
<title>Node1&#45;&gt;Node2</title>
<path fill="none" stroke="midnightblue" d="M103.14,-70C111.41,-70 120.05,-70 128.51,-70"/>
<polygon fill="midnightblue" stroke="midnightblue" points="128.72,-73.5 138.72,-70 128.72,-66.5 128.72,-73.5"/>
</g>
<!-- Node3 -->
<g id="node3" class="node">
<title>Node3</title>
<g id="a_node3"><a xlink:href="../../dc/dce/classAutocompleteProviderListener.html#a5a9a4ed9fe89fc1cce87b4f5ce216581" target="_top" xlink:title=" ">
<polygon fill="white" stroke="black" points="276,-126 276,-156 423,-156 423,-126 276,-126"/>
<text text-anchor="start" x="284" y="-144" font-family="Helvetica,sans-Serif" font-size="10.00">AutocompleteProviderListener</text>
<text text-anchor="middle" x="349.5" y="-133" font-family="Helvetica,sans-Serif" font-size="10.00">::OnProviderUpdate</text>
</a>
</g>
</g>
<!-- Node2&#45;&gt;Node3 -->
<g id="edge2" class="edge">
<title>Node2&#45;&gt;Node3</title>
<path fill="none" stroke="midnightblue" d="M216.15,-85.21C232.85,-94.76 255.31,-106.94 276,-116 281.03,-118.2 286.32,-120.35 291.66,-122.39"/>
<polygon fill="midnightblue" stroke="midnightblue" points="290.68,-125.76 301.27,-125.95 293.11,-119.2 290.68,-125.76"/>
</g>
<!-- Node4 -->
<g id="node4" class="node">
<title>Node4</title>
<g id="a_node4"><a xlink:href="../../dc/d8f/structAutocompleteMatch.html#af18aecf86a36322e0abbfc1f89a85d83" target="_top" xlink:title=" ">
<polygon fill="white" stroke="black" points="289.5,-77 289.5,-107 409.5,-107 409.5,-77 289.5,-77"/>
<text text-anchor="start" x="297.5" y="-95" font-family="Helvetica,sans-Serif" font-size="10.00">AutocompleteMatch::</text>
<text text-anchor="middle" x="349.5" y="-84" font-family="Helvetica,sans-Serif" font-size="10.00">SetAllowedToBeDefault</text>
</a>
</g>
</g>
<!-- Node2&#45;&gt;Node4 -->
<g id="edge3" class="edge">
<title>Node2&#45;&gt;Node4</title>
<path fill="none" stroke="midnightblue" d="M240.06,-76.9C252.54,-78.64 266.15,-80.53 279.4,-82.38"/>
<polygon fill="midnightblue" stroke="midnightblue" points="279.04,-85.86 289.43,-83.77 280,-78.93 279.04,-85.86"/>
</g>
<!-- Node8 -->
<g id="node8" class="node">
<title>Node8</title>
<g id="a_node8"><a xlink:href="../../d9/df6/classAutocompleteInput.html#ac055dacf90a052c92e2bfe5c01328a95" target="_top" xlink:title=" ">
<polygon fill="white" stroke="black" points="468.5,-38.5 468.5,-57.5 589.5,-57.5 589.5,-38.5 468.5,-38.5"/>
<text text-anchor="middle" x="529" y="-45.5" font-family="Helvetica,sans-Serif" font-size="10.00">AutocompleteInput::text</text>
</a>
</g>
</g>
<!-- Node2&#45;&gt;Node8 -->
<g id="edge8" class="edge">
<title>Node2&#45;&gt;Node8</title>
<path fill="none" stroke="midnightblue" d="M240.3,-66.75C297.91,-63 393.15,-56.79 458.15,-52.55"/>
<polygon fill="midnightblue" stroke="midnightblue" points="458.56,-56.03 468.31,-51.89 458.1,-49.05 458.56,-56.03"/>
</g>
<!-- Node9 -->
<g id="node9" class="node">
<title>Node9</title>
<g id="a_node9"><a xlink:href="../../d9/df6/classAutocompleteInput.html#a5d6111d5ac18400cdf809820dfab9ab0" target="_top" xlink:title=" ">
<polygon fill="white" stroke="black" points="288,-0.5 288,-19.5 411,-19.5 411,-0.5 288,-0.5"/>
<text text-anchor="middle" x="349.5" y="-7.5" font-family="Helvetica,sans-Serif" font-size="10.00">AutocompleteInput::type</text>
</a>
</g>
</g>
<!-- Node2&#45;&gt;Node9 -->
<g id="edge9" class="edge">
<title>Node2&#45;&gt;Node9</title>
<path fill="none" stroke="midnightblue" d="M224.78,-54.84C240.31,-48.16 258.96,-40.4 276,-34 286.35,-30.12 297.64,-26.22 308.17,-22.72"/>
<polygon fill="midnightblue" stroke="midnightblue" points="309.56,-25.95 317.98,-19.51 307.38,-19.3 309.56,-25.95"/>
</g>
<!-- Node5 -->
<g id="node5" class="node">
<title>Node5</title>
<g id="a_node5"><a xlink:href="../../dc/d8f/structAutocompleteMatch.html#a07d2ed81147aa68a53d233efdf61282f" target="_top" xlink:title=" ">
<polygon fill="white" stroke="black" points="468.5,-126 468.5,-156 589.5,-156 589.5,-126 468.5,-126"/>
<text text-anchor="start" x="476.5" y="-144" font-family="Helvetica,sans-Serif" font-size="10.00">AutocompleteMatch::</text>
<text text-anchor="middle" x="529" y="-133" font-family="Helvetica,sans-Serif" font-size="10.00">IsEmptyAutocompletion</text>
</a>
</g>
</g>
<!-- Node4&#45;&gt;Node5 -->
<g id="edge4" class="edge">
<title>Node4&#45;&gt;Node5</title>
<path fill="none" stroke="midnightblue" d="M405.2,-107.1C423.68,-112.2 444.48,-117.94 463.63,-123.23"/>
<polygon fill="midnightblue" stroke="midnightblue" points="462.91,-126.66 473.48,-125.95 464.77,-119.91 462.91,-126.66"/>
</g>
<!-- Node7 -->
<g id="node7" class="node">
<title>Node7</title>
<g id="a_node7"><a xlink:href="../../d9/df6/classAutocompleteInput.html#ac81e31d82e4da3a4b8ea3c37bb575dcc" target="_top" xlink:title=" ">
<polygon fill="white" stroke="black" points="459,-77 459,-107 599,-107 599,-77 459,-77"/>
<text text-anchor="start" x="467" y="-95" font-family="Helvetica,sans-Serif" font-size="10.00">AutocompleteInput::</text>
<text text-anchor="middle" x="529" y="-84" font-family="Helvetica,sans-Serif" font-size="10.00">prevent_inline_autocomplete</text>
</a>
</g>
</g>
<!-- Node4&#45;&gt;Node7 -->
<g id="edge6" class="edge">
<title>Node4&#45;&gt;Node7</title>
<path fill="none" stroke="midnightblue" d="M409.6,-92C422.02,-92 435.31,-92 448.33,-92"/>
<polygon fill="midnightblue" stroke="midnightblue" points="448.7,-95.5 458.7,-92 448.7,-88.5 448.7,-95.5"/>
</g>
<!-- Node4&#45;&gt;Node8 -->
<g id="edge7" class="edge">
<title>Node4&#45;&gt;Node8</title>
<path fill="none" stroke="midnightblue" d="M409.6,-77.35C432.33,-71.72 457.98,-65.36 479.58,-60"/>
<polygon fill="midnightblue" stroke="midnightblue" points="480.65,-63.34 489.51,-57.54 478.97,-56.55 480.65,-63.34"/>
</g>
<!-- Node6 -->
<g id="node6" class="node">
<title>Node6</title>
<g id="a_node6"><a xlink:href="../../d5/d39/structSplitAutocompletion.html#af6adc4670ff9f0de121a86ea8c8315f2" target="_top" xlink:title=" ">
<polygon fill="white" stroke="black" points="635,-126 635,-156 739,-156 739,-126 635,-126"/>
<text text-anchor="start" x="643" y="-144" font-family="Helvetica,sans-Serif" font-size="10.00">SplitAutocompletion</text>
<text text-anchor="middle" x="687" y="-133" font-family="Helvetica,sans-Serif" font-size="10.00">::Empty</text>
</a>
</g>
</g>
<!-- Node5&#45;&gt;Node6 -->
<g id="edge5" class="edge">
<title>Node5&#45;&gt;Node6</title>
<path fill="none" stroke="midnightblue" d="M589.87,-141C601.18,-141 613.04,-141 624.4,-141"/>
<polygon fill="midnightblue" stroke="midnightblue" points="624.68,-144.5 634.68,-141 624.68,-137.5 624.68,-144.5"/>
</g>
</g>
</svg>
