<?xml version="1.0" encoding="UTF-8" standalone="no"?>
<!DOCTYPE svg PUBLIC "-//W3C//DTD SVG 1.1//EN"
 "http://www.w3.org/Graphics/SVG/1.1/DTD/svg11.dtd">
<!-- Generated by graphviz version 2.43.0 (0)
 -->
<!-- Title: SuggestionAnswer::type Pages: 1 -->
<svg width="1337pt" height="160pt"
 viewBox="0.00 0.00 1337.00 159.50" xmlns="http://www.w3.org/2000/svg" xmlns:xlink="http://www.w3.org/1999/xlink">
<g id="graph0" class="graph" transform="scale(1 1) rotate(0) translate(4 155.5)">
<title>SuggestionAnswer::type</title>
<polygon fill="white" stroke="transparent" points="-4,4 -4,-155.5 1333,-155.5 1333,4 -4,4"/>
<!-- Node1 -->
<g id="node1" class="node">
<title>Node1</title>
<g id="a_node1"><a xlink:title=" ">
<polygon fill="#bfbfbf" stroke="black" points="1206,-68.5 1206,-87.5 1329,-87.5 1329,-68.5 1206,-68.5"/>
<text text-anchor="middle" x="1267.5" y="-75.5" font-family="Helvetica,sans-Serif" font-size="10.00">SuggestionAnswer::type</text>
</a>
</g>
</g>
<!-- Node2 -->
<g id="node2" class="node">
<title>Node2</title>
<g id="a_node2"><a xlink:href="../../d2/dcd/classSuggestionAnswer.html#a237edb5e1f501126fb99e0d371adcba0" target="_top" xlink:title=" ">
<polygon fill="white" stroke="black" points="840,-121 840,-151 980,-151 980,-121 840,-121"/>
<text text-anchor="start" x="848" y="-139" font-family="Helvetica,sans-Serif" font-size="10.00">SuggestionAnswer::Interpret</text>
<text text-anchor="middle" x="910" y="-128" font-family="Helvetica,sans-Serif" font-size="10.00">TextTypes</text>
</a>
</g>
</g>
<!-- Node1&#45;&gt;Node2 -->
<g id="edge1" class="edge">
<title>Node1&#45;&gt;Node2</title>
<path fill="none" stroke="midnightblue" d="M1244.48,-93.07C1225.64,-105.03 1197.31,-120.9 1170,-128 1107.2,-144.34 1032.94,-144.8 980.07,-142.1"/>
<polygon fill="midnightblue" stroke="midnightblue" points="1246.46,-95.95 1252.92,-87.56 1242.63,-90.09 1246.46,-95.95"/>
</g>
<!-- Node3 -->
<g id="node3" class="node">
<title>Node3</title>
<g id="a_node3"><a xlink:href="../../d2/dcd/classSuggestionAnswer.html#a6d4287cd70b281dbbccab891c4e92e08" target="_top" xlink:title=" ">
<polygon fill="white" stroke="black" points="1016,-88 1016,-118 1170,-118 1170,-88 1016,-88"/>
<text text-anchor="start" x="1024" y="-106" font-family="Helvetica,sans-Serif" font-size="10.00">SuggestionAnswer::IsExcepted</text>
<text text-anchor="middle" x="1093" y="-95" font-family="Helvetica,sans-Serif" font-size="10.00">FromLineReversal</text>
</a>
</g>
</g>
<!-- Node1&#45;&gt;Node3 -->
<g id="edge2" class="edge">
<title>Node1&#45;&gt;Node3</title>
<path fill="none" stroke="midnightblue" d="M1195.61,-88.27C1187.26,-89.48 1178.71,-90.72 1170.29,-91.94"/>
<polygon fill="midnightblue" stroke="midnightblue" points="1196.29,-91.71 1205.68,-86.81 1195.28,-84.78 1196.29,-91.71"/>
</g>
<!-- Node4 -->
<g id="node4" class="node">
<title>Node4</title>
<g id="a_node4"><a xlink:href="../../dc/d3c/classSearchSuggestionParser.html#aa49132ed8edc8c7b9c58a77e5e758255" target="_top" xlink:title=" ">
<polygon fill="white" stroke="black" points="1030.5,-39 1030.5,-69 1155.5,-69 1155.5,-39 1030.5,-39"/>
<text text-anchor="start" x="1038.5" y="-57" font-family="Helvetica,sans-Serif" font-size="10.00">SearchSuggestionParser</text>
<text text-anchor="middle" x="1093" y="-46" font-family="Helvetica,sans-Serif" font-size="10.00">::ParseSuggestResults</text>
</a>
</g>
</g>
<!-- Node1&#45;&gt;Node4 -->
<g id="edge4" class="edge">
<title>Node1&#45;&gt;Node4</title>
<path fill="none" stroke="midnightblue" d="M1195.67,-68.15C1182.42,-66.3 1168.67,-64.39 1155.72,-62.59"/>
<polygon fill="midnightblue" stroke="midnightblue" points="1195.3,-71.63 1205.68,-69.54 1196.26,-64.69 1195.3,-71.63"/>
</g>
<!-- Node16 -->
<g id="node16" class="node">
<title>Node16</title>
<g id="a_node16"><a xlink:href="../../d2/dcd/classSuggestionAnswer.html#ac4c117e33a4e457bbad5c0a425411949" target="_top" xlink:title=" ">
<polygon fill="white" stroke="black" points="1022,-0.5 1022,-19.5 1164,-19.5 1164,-0.5 1022,-0.5"/>
<text text-anchor="middle" x="1093" y="-7.5" font-family="Helvetica,sans-Serif" font-size="10.00">SuggestionAnswer::set_type</text>
</a>
</g>
</g>
<!-- Node1&#45;&gt;Node16 -->
<g id="edge17" class="edge">
<title>Node1&#45;&gt;Node16</title>
<path fill="none" stroke="midnightblue" d="M1241.35,-63.25C1222.28,-52.56 1195.15,-38.39 1170,-29 1160.19,-25.34 1149.4,-22.16 1139.12,-19.5"/>
<polygon fill="midnightblue" stroke="midnightblue" points="1239.86,-66.43 1250.28,-68.33 1243.32,-60.34 1239.86,-66.43"/>
</g>
<!-- Node3&#45;&gt;Node2 -->
<g id="edge3" class="edge">
<title>Node3&#45;&gt;Node2</title>
<path fill="none" stroke="midnightblue" d="M1005.76,-118.72C997.2,-120.28 988.59,-121.85 980.24,-123.38"/>
<polygon fill="midnightblue" stroke="midnightblue" points="1006.55,-122.14 1015.76,-116.9 1005.3,-115.25 1006.55,-122.14"/>
</g>
<!-- Node5 -->
<g id="node5" class="node">
<title>Node5</title>
<g id="a_node5"><a xlink:href="../../d8/de9/search__suggestion__parser__fuzzer_8cc.html#a91ce7c16e9840492202299da2b451e60" target="_top" xlink:title=" ">
<polygon fill="white" stroke="black" points="845,-11.5 845,-30.5 975,-30.5 975,-11.5 845,-11.5"/>
<text text-anchor="middle" x="910" y="-18.5" font-family="Helvetica,sans-Serif" font-size="10.00">LLVMFuzzerTestOneInput</text>
</a>
</g>
</g>
<!-- Node4&#45;&gt;Node5 -->
<g id="edge5" class="edge">
<title>Node4&#45;&gt;Node5</title>
<path fill="none" stroke="midnightblue" d="M1020.6,-40.98C1001.49,-37.5 981.18,-33.8 963.31,-30.54"/>
<polygon fill="midnightblue" stroke="midnightblue" points="1020,-44.43 1030.47,-42.78 1021.26,-37.54 1020,-44.43"/>
</g>
<!-- Node6 -->
<g id="node6" class="node">
<title>Node6</title>
<g id="a_node6"><a xlink:href="../../d0/ddc/classBaseSearchProvider.html#a3342cff48b1b080e2fe12f180f15828c" target="_top" xlink:title=" ">
<polygon fill="white" stroke="black" points="851,-50 851,-80 969,-80 969,-50 851,-50"/>
<text text-anchor="start" x="859" y="-68" font-family="Helvetica,sans-Serif" font-size="10.00">BaseSearchProvider</text>
<text text-anchor="middle" x="910" y="-57" font-family="Helvetica,sans-Serif" font-size="10.00">::ParseSuggestResults</text>
</a>
</g>
</g>
<!-- Node4&#45;&gt;Node6 -->
<g id="edge6" class="edge">
<title>Node4&#45;&gt;Node6</title>
<path fill="none" stroke="midnightblue" d="M1020.06,-58.37C1003.11,-59.4 985.25,-60.49 969,-61.48"/>
<polygon fill="midnightblue" stroke="midnightblue" points="1020.7,-61.84 1030.47,-57.74 1020.28,-54.85 1020.7,-61.84"/>
</g>
<!-- Node7 -->
<g id="node7" class="node">
<title>Node7</title>
<g id="a_node7"><a xlink:href="../../d3/dbc/classZeroSuggestProvider.html#a5a1c47322df6df8bfa3374fc08369314" target="_top" xlink:title=" ">
<polygon fill="white" stroke="black" points="467,-50 467,-80 625,-80 625,-50 467,-50"/>
<text text-anchor="start" x="475" y="-68" font-family="Helvetica,sans-Serif" font-size="10.00">ZeroSuggestProvider</text>
<text text-anchor="middle" x="546" y="-57" font-family="Helvetica,sans-Serif" font-size="10.00">::MaybeUseCachedSuggestions</text>
</a>
</g>
</g>
<!-- Node6&#45;&gt;Node7 -->
<g id="edge7" class="edge">
<title>Node6&#45;&gt;Node7</title>
<path fill="none" stroke="midnightblue" d="M840.5,-65C779.2,-65 689.39,-65 625.28,-65"/>
<polygon fill="midnightblue" stroke="midnightblue" points="840.84,-68.5 850.84,-65 840.84,-61.5 840.84,-68.5"/>
</g>
<!-- Node9 -->
<g id="node9" class="node">
<title>Node9</title>
<g id="a_node9"><a xlink:href="../../d4/dee/classSearchProvider.html#a62390d46fb831c0919093798ab7bd52d" target="_top" xlink:title=" ">
<polygon fill="white" stroke="black" points="661,-4 661,-34 804,-34 804,-4 661,-4"/>
<text text-anchor="start" x="669" y="-22" font-family="Helvetica,sans-Serif" font-size="10.00">SearchProvider::OnURLLoad</text>
<text text-anchor="middle" x="732.5" y="-11" font-family="Helvetica,sans-Serif" font-size="10.00">Complete</text>
</a>
</g>
</g>
<!-- Node6&#45;&gt;Node9 -->
<g id="edge9" class="edge">
<title>Node6&#45;&gt;Node9</title>
<path fill="none" stroke="midnightblue" d="M841.78,-47.38C824.96,-42.97 807.08,-38.29 790.79,-34.02"/>
<polygon fill="midnightblue" stroke="midnightblue" points="840.97,-50.79 851.53,-49.94 842.75,-44.02 840.97,-50.79"/>
</g>
<!-- Node14 -->
<g id="node14" class="node">
<title>Node14</title>
<g id="a_node14"><a xlink:href="../../d3/dbc/classZeroSuggestProvider.html#a23ed4e024f176a325953927fc87f131d" target="_top" xlink:title=" ">
<polygon fill="white" stroke="black" points="678.5,-96 678.5,-126 786.5,-126 786.5,-96 678.5,-96"/>
<text text-anchor="start" x="686.5" y="-114" font-family="Helvetica,sans-Serif" font-size="10.00">ZeroSuggestProvider</text>
<text text-anchor="middle" x="732.5" y="-103" font-family="Helvetica,sans-Serif" font-size="10.00">::UpdateResults</text>
</a>
</g>
</g>
<!-- Node6&#45;&gt;Node14 -->
<g id="edge14" class="edge">
<title>Node6&#45;&gt;Node14</title>
<path fill="none" stroke="midnightblue" d="M841.82,-82.61C823.55,-87.4 804.01,-92.52 786.64,-97.07"/>
<polygon fill="midnightblue" stroke="midnightblue" points="842.75,-85.98 851.53,-80.06 840.97,-79.21 842.75,-85.98"/>
</g>
<!-- Node8 -->
<g id="node8" class="node">
<title>Node8</title>
<g id="a_node8"><a xlink:href="../../d3/dbc/classZeroSuggestProvider.html#ac0afcbd72684c1a1478301c21b3ff486" target="_top" xlink:title=" ">
<polygon fill="white" stroke="black" points="323,-74 323,-104 431,-104 431,-74 323,-74"/>
<text text-anchor="start" x="331" y="-92" font-family="Helvetica,sans-Serif" font-size="10.00">ZeroSuggestProvider</text>
<text text-anchor="middle" x="377" y="-81" font-family="Helvetica,sans-Serif" font-size="10.00">::Start</text>
</a>
</g>
</g>
<!-- Node7&#45;&gt;Node8 -->
<g id="edge8" class="edge">
<title>Node7&#45;&gt;Node8</title>
<path fill="none" stroke="midnightblue" d="M456.98,-77.65C448.21,-78.91 439.52,-80.16 431.28,-81.34"/>
<polygon fill="midnightblue" stroke="midnightblue" points="457.48,-81.11 466.88,-76.23 456.48,-74.19 457.48,-81.11"/>
</g>
<!-- Node10 -->
<g id="node10" class="node">
<title>Node10</title>
<g id="a_node10"><a xlink:href="../../d4/dee/classSearchProvider.html#ac6613acbe0b4e879590cdb0d562999c9" target="_top" xlink:title=" ">
<polygon fill="white" stroke="black" points="468.5,-1 468.5,-31 623.5,-31 623.5,-1 468.5,-1"/>
<text text-anchor="start" x="476.5" y="-19" font-family="Helvetica,sans-Serif" font-size="10.00">SearchProvider::CreateSuggest</text>
<text text-anchor="middle" x="546" y="-8" font-family="Helvetica,sans-Serif" font-size="10.00">Loader</text>
</a>
</g>
</g>
<!-- Node9&#45;&gt;Node10 -->
<g id="edge10" class="edge">
<title>Node9&#45;&gt;Node10</title>
<path fill="none" stroke="midnightblue" d="M650.84,-17.69C641.81,-17.54 632.63,-17.39 623.65,-17.25"/>
<polygon fill="midnightblue" stroke="midnightblue" points="650.9,-21.19 660.96,-17.85 651.02,-14.19 650.9,-21.19"/>
</g>
<!-- Node11 -->
<g id="node11" class="node">
<title>Node11</title>
<g id="a_node11"><a xlink:href="../../d4/dee/classSearchProvider.html#a02c8b00f5d4da0ce7e5de29658483914" target="_top" xlink:title=" ">
<polygon fill="white" stroke="black" points="323.5,-6.5 323.5,-25.5 430.5,-25.5 430.5,-6.5 323.5,-6.5"/>
<text text-anchor="middle" x="377" y="-13.5" font-family="Helvetica,sans-Serif" font-size="10.00">SearchProvider::Run</text>
</a>
</g>
</g>
<!-- Node10&#45;&gt;Node11 -->
<g id="edge11" class="edge">
<title>Node10&#45;&gt;Node11</title>
<path fill="none" stroke="midnightblue" d="M458.21,-16C448.87,-16 439.58,-16 430.82,-16"/>
<polygon fill="midnightblue" stroke="midnightblue" points="458.34,-19.5 468.34,-16 458.34,-12.5 458.34,-19.5"/>
</g>
<!-- Node12 -->
<g id="node12" class="node">
<title>Node12</title>
<g id="a_node12"><a xlink:href="../../d4/dee/classSearchProvider.html#af0c60cb234c815b05521a08434e7dcdc" target="_top" xlink:title=" ">
<polygon fill="white" stroke="black" points="146,-1 146,-31 287,-31 287,-1 146,-1"/>
<text text-anchor="start" x="154" y="-19" font-family="Helvetica,sans-Serif" font-size="10.00">SearchProvider::StartOrStop</text>
<text text-anchor="middle" x="216.5" y="-8" font-family="Helvetica,sans-Serif" font-size="10.00">SuggestQuery</text>
</a>
</g>
</g>
<!-- Node11&#45;&gt;Node12 -->
<g id="edge12" class="edge">
<title>Node11&#45;&gt;Node12</title>
<path fill="none" stroke="midnightblue" d="M313.04,-16C304.57,-16 295.83,-16 287.25,-16"/>
<polygon fill="midnightblue" stroke="midnightblue" points="313.22,-19.5 323.22,-16 313.22,-12.5 313.22,-19.5"/>
</g>
<!-- Node13 -->
<g id="node13" class="node">
<title>Node13</title>
<g id="a_node13"><a xlink:href="../../d4/dee/classSearchProvider.html#a9e8f7e367904d424ac875e501844e830" target="_top" xlink:title=" ">
<polygon fill="white" stroke="black" points="0,-6.5 0,-25.5 110,-25.5 110,-6.5 0,-6.5"/>
<text text-anchor="middle" x="55" y="-13.5" font-family="Helvetica,sans-Serif" font-size="10.00">SearchProvider::Start</text>
</a>
</g>
</g>
<!-- Node12&#45;&gt;Node13 -->
<g id="edge13" class="edge">
<title>Node12&#45;&gt;Node13</title>
<path fill="none" stroke="midnightblue" d="M135.47,-16C126.87,-16 118.27,-16 110.08,-16"/>
<polygon fill="midnightblue" stroke="midnightblue" points="135.54,-19.5 145.54,-16 135.54,-12.5 135.54,-19.5"/>
</g>
<!-- Node15 -->
<g id="node15" class="node">
<title>Node15</title>
<g id="a_node15"><a xlink:href="../../d3/dbc/classZeroSuggestProvider.html#a4049ecf2307fddcdfae00f7632660d3a" target="_top" xlink:title=" ">
<polygon fill="white" stroke="black" points="486.5,-99 486.5,-129 605.5,-129 605.5,-99 486.5,-99"/>
<text text-anchor="start" x="494.5" y="-117" font-family="Helvetica,sans-Serif" font-size="10.00">ZeroSuggestProvider</text>
<text text-anchor="middle" x="546" y="-106" font-family="Helvetica,sans-Serif" font-size="10.00">::OnURLLoadComplete</text>
</a>
</g>
</g>
<!-- Node14&#45;&gt;Node15 -->
<g id="edge15" class="edge">
<title>Node14&#45;&gt;Node15</title>
<path fill="none" stroke="midnightblue" d="M668.09,-112.03C647.87,-112.36 625.61,-112.72 605.74,-113.04"/>
<polygon fill="midnightblue" stroke="midnightblue" points="668.19,-115.53 678.13,-111.87 668.08,-108.53 668.19,-115.53"/>
</g>
<!-- Node15&#45;&gt;Node8 -->
<g id="edge16" class="edge">
<title>Node15&#45;&gt;Node8</title>
<path fill="none" stroke="midnightblue" d="M475.88,-103.65C460.91,-101.41 445.3,-99.07 431.06,-96.94"/>
<polygon fill="midnightblue" stroke="midnightblue" points="475.71,-107.17 486.12,-105.19 476.75,-100.24 475.71,-107.17"/>
</g>
</g>
</svg>
