<?xml version="1.0" encoding="UTF-8" standalone="no"?>
<!DOCTYPE svg PUBLIC "-//W3C//DTD SVG 1.1//EN"
 "http://www.w3.org/Graphics/SVG/1.1/DTD/svg11.dtd">
<!-- Generated by graphviz version 2.43.0 (0)
 -->
<!-- Title: SuggestionAnswer::ParseAnswer Pages: 1 -->
<svg width="1338pt" height="137pt"
 viewBox="0.00 0.00 1338.00 137.00" xmlns="http://www.w3.org/2000/svg" xmlns:xlink="http://www.w3.org/1999/xlink">
<g id="graph0" class="graph" transform="scale(1 1) rotate(0) translate(4 133)">
<title>SuggestionAnswer::ParseAnswer</title>
<polygon fill="white" stroke="transparent" points="-4,4 -4,-133 1334,-133 1334,4 -4,4"/>
<!-- Node1 -->
<g id="node1" class="node">
<title>Node1</title>
<g id="a_node1"><a xlink:title=" ">
<polygon fill="#bfbfbf" stroke="black" points="1167,-77 1167,-96 1330,-96 1330,-77 1167,-77"/>
<text text-anchor="middle" x="1248.5" y="-84" font-family="Helvetica,sans-Serif" font-size="10.00">SuggestionAnswer::ParseAnswer</text>
</a>
</g>
</g>
<!-- Node2 -->
<g id="node2" class="node">
<title>Node2</title>
<g id="a_node2"><a xlink:href="../../dc/d3c/classSearchSuggestionParser.html#aa49132ed8edc8c7b9c58a77e5e758255" target="_top" xlink:title=" ">
<polygon fill="white" stroke="black" points="1006,-71.5 1006,-101.5 1131,-101.5 1131,-71.5 1006,-71.5"/>
<text text-anchor="start" x="1014" y="-89.5" font-family="Helvetica,sans-Serif" font-size="10.00">SearchSuggestionParser</text>
<text text-anchor="middle" x="1068.5" y="-78.5" font-family="Helvetica,sans-Serif" font-size="10.00">::ParseSuggestResults</text>
</a>
</g>
</g>
<!-- Node1&#45;&gt;Node2 -->
<g id="edge1" class="edge">
<title>Node1&#45;&gt;Node2</title>
<path fill="none" stroke="midnightblue" d="M1156.71,-86.5C1148.09,-86.5 1139.48,-86.5 1131.23,-86.5"/>
<polygon fill="midnightblue" stroke="midnightblue" points="1156.83,-90 1166.83,-86.5 1156.83,-83 1156.83,-90"/>
</g>
<!-- Node3 -->
<g id="node3" class="node">
<title>Node3</title>
<g id="a_node3"><a xlink:href="../../d8/de9/search__suggestion__parser__fuzzer_8cc.html#a91ce7c16e9840492202299da2b451e60" target="_top" xlink:title=" ">
<polygon fill="white" stroke="black" points="840,-99 840,-118 970,-118 970,-99 840,-99"/>
<text text-anchor="middle" x="905" y="-106" font-family="Helvetica,sans-Serif" font-size="10.00">LLVMFuzzerTestOneInput</text>
</a>
</g>
</g>
<!-- Node2&#45;&gt;Node3 -->
<g id="edge2" class="edge">
<title>Node2&#45;&gt;Node3</title>
<path fill="none" stroke="midnightblue" d="M995.94,-96.25C987.31,-97.42 978.54,-98.62 970.03,-99.78"/>
<polygon fill="midnightblue" stroke="midnightblue" points="996.55,-99.7 1005.98,-94.88 995.6,-92.76 996.55,-99.7"/>
</g>
<!-- Node4 -->
<g id="node4" class="node">
<title>Node4</title>
<g id="a_node4"><a xlink:href="../../d0/ddc/classBaseSearchProvider.html#a3342cff48b1b080e2fe12f180f15828c" target="_top" xlink:title=" ">
<polygon fill="white" stroke="black" points="846,-49.5 846,-79.5 964,-79.5 964,-49.5 846,-49.5"/>
<text text-anchor="start" x="854" y="-67.5" font-family="Helvetica,sans-Serif" font-size="10.00">BaseSearchProvider</text>
<text text-anchor="middle" x="905" y="-56.5" font-family="Helvetica,sans-Serif" font-size="10.00">::ParseSuggestResults</text>
</a>
</g>
</g>
<!-- Node2&#45;&gt;Node4 -->
<g id="edge3" class="edge">
<title>Node2&#45;&gt;Node4</title>
<path fill="none" stroke="midnightblue" d="M995.89,-76.75C985.28,-75.3 974.45,-73.82 964.15,-72.42"/>
<polygon fill="midnightblue" stroke="midnightblue" points="995.6,-80.24 1005.98,-78.12 996.55,-73.3 995.6,-80.24"/>
</g>
<!-- Node5 -->
<g id="node5" class="node">
<title>Node5</title>
<g id="a_node5"><a xlink:href="../../d3/dbc/classZeroSuggestProvider.html#a5a1c47322df6df8bfa3374fc08369314" target="_top" xlink:title=" ">
<polygon fill="white" stroke="black" points="467,-49.5 467,-79.5 625,-79.5 625,-49.5 467,-49.5"/>
<text text-anchor="start" x="475" y="-67.5" font-family="Helvetica,sans-Serif" font-size="10.00">ZeroSuggestProvider</text>
<text text-anchor="middle" x="546" y="-56.5" font-family="Helvetica,sans-Serif" font-size="10.00">::MaybeUseCachedSuggestions</text>
</a>
</g>
</g>
<!-- Node4&#45;&gt;Node5 -->
<g id="edge4" class="edge">
<title>Node4&#45;&gt;Node5</title>
<path fill="none" stroke="midnightblue" d="M835.7,-64.5C775.57,-64.5 688.05,-64.5 625.15,-64.5"/>
<polygon fill="midnightblue" stroke="midnightblue" points="835.85,-68 845.85,-64.5 835.85,-61 835.85,-68"/>
</g>
<!-- Node7 -->
<g id="node7" class="node">
<title>Node7</title>
<g id="a_node7"><a xlink:href="../../d4/dee/classSearchProvider.html#a62390d46fb831c0919093798ab7bd52d" target="_top" xlink:title=" ">
<polygon fill="white" stroke="black" points="661,-3.5 661,-33.5 804,-33.5 804,-3.5 661,-3.5"/>
<text text-anchor="start" x="669" y="-21.5" font-family="Helvetica,sans-Serif" font-size="10.00">SearchProvider::OnURLLoad</text>
<text text-anchor="middle" x="732.5" y="-10.5" font-family="Helvetica,sans-Serif" font-size="10.00">Complete</text>
</a>
</g>
</g>
<!-- Node4&#45;&gt;Node7 -->
<g id="edge6" class="edge">
<title>Node4&#45;&gt;Node7</title>
<path fill="none" stroke="midnightblue" d="M838.23,-46.76C822.03,-42.39 804.83,-37.75 789.16,-33.52"/>
<polygon fill="midnightblue" stroke="midnightblue" points="837.61,-50.21 848.17,-49.44 839.43,-43.45 837.61,-50.21"/>
</g>
<!-- Node12 -->
<g id="node12" class="node">
<title>Node12</title>
<g id="a_node12"><a xlink:href="../../d3/dbc/classZeroSuggestProvider.html#a23ed4e024f176a325953927fc87f131d" target="_top" xlink:title=" ">
<polygon fill="white" stroke="black" points="678.5,-95.5 678.5,-125.5 786.5,-125.5 786.5,-95.5 678.5,-95.5"/>
<text text-anchor="start" x="686.5" y="-113.5" font-family="Helvetica,sans-Serif" font-size="10.00">ZeroSuggestProvider</text>
<text text-anchor="middle" x="732.5" y="-102.5" font-family="Helvetica,sans-Serif" font-size="10.00">::UpdateResults</text>
</a>
</g>
</g>
<!-- Node4&#45;&gt;Node12 -->
<g id="edge11" class="edge">
<title>Node4&#45;&gt;Node12</title>
<path fill="none" stroke="midnightblue" d="M838.25,-82.24C821.14,-86.86 802.92,-91.77 786.56,-96.19"/>
<polygon fill="midnightblue" stroke="midnightblue" points="839.43,-85.55 848.17,-79.56 837.61,-78.79 839.43,-85.55"/>
</g>
<!-- Node6 -->
<g id="node6" class="node">
<title>Node6</title>
<g id="a_node6"><a xlink:href="../../d3/dbc/classZeroSuggestProvider.html#ac0afcbd72684c1a1478301c21b3ff486" target="_top" xlink:title=" ">
<polygon fill="white" stroke="black" points="323,-73.5 323,-103.5 431,-103.5 431,-73.5 323,-73.5"/>
<text text-anchor="start" x="331" y="-91.5" font-family="Helvetica,sans-Serif" font-size="10.00">ZeroSuggestProvider</text>
<text text-anchor="middle" x="377" y="-80.5" font-family="Helvetica,sans-Serif" font-size="10.00">::Start</text>
</a>
</g>
</g>
<!-- Node5&#45;&gt;Node6 -->
<g id="edge5" class="edge">
<title>Node5&#45;&gt;Node6</title>
<path fill="none" stroke="midnightblue" d="M456.98,-77.15C448.21,-78.41 439.52,-79.66 431.28,-80.84"/>
<polygon fill="midnightblue" stroke="midnightblue" points="457.48,-80.61 466.88,-75.73 456.48,-73.69 457.48,-80.61"/>
</g>
<!-- Node8 -->
<g id="node8" class="node">
<title>Node8</title>
<g id="a_node8"><a xlink:href="../../d4/dee/classSearchProvider.html#ac6613acbe0b4e879590cdb0d562999c9" target="_top" xlink:title=" ">
<polygon fill="white" stroke="black" points="468.5,-0.5 468.5,-30.5 623.5,-30.5 623.5,-0.5 468.5,-0.5"/>
<text text-anchor="start" x="476.5" y="-18.5" font-family="Helvetica,sans-Serif" font-size="10.00">SearchProvider::CreateSuggest</text>
<text text-anchor="middle" x="546" y="-7.5" font-family="Helvetica,sans-Serif" font-size="10.00">Loader</text>
</a>
</g>
</g>
<!-- Node7&#45;&gt;Node8 -->
<g id="edge7" class="edge">
<title>Node7&#45;&gt;Node8</title>
<path fill="none" stroke="midnightblue" d="M650.84,-17.19C641.81,-17.04 632.63,-16.89 623.65,-16.75"/>
<polygon fill="midnightblue" stroke="midnightblue" points="650.9,-20.69 660.96,-17.35 651.02,-13.69 650.9,-20.69"/>
</g>
<!-- Node9 -->
<g id="node9" class="node">
<title>Node9</title>
<g id="a_node9"><a xlink:href="../../d4/dee/classSearchProvider.html#a02c8b00f5d4da0ce7e5de29658483914" target="_top" xlink:title=" ">
<polygon fill="white" stroke="black" points="323.5,-6 323.5,-25 430.5,-25 430.5,-6 323.5,-6"/>
<text text-anchor="middle" x="377" y="-13" font-family="Helvetica,sans-Serif" font-size="10.00">SearchProvider::Run</text>
</a>
</g>
</g>
<!-- Node8&#45;&gt;Node9 -->
<g id="edge8" class="edge">
<title>Node8&#45;&gt;Node9</title>
<path fill="none" stroke="midnightblue" d="M458.21,-15.5C448.87,-15.5 439.58,-15.5 430.82,-15.5"/>
<polygon fill="midnightblue" stroke="midnightblue" points="458.34,-19 468.34,-15.5 458.34,-12 458.34,-19"/>
</g>
<!-- Node10 -->
<g id="node10" class="node">
<title>Node10</title>
<g id="a_node10"><a xlink:href="../../d4/dee/classSearchProvider.html#af0c60cb234c815b05521a08434e7dcdc" target="_top" xlink:title=" ">
<polygon fill="white" stroke="black" points="146,-0.5 146,-30.5 287,-30.5 287,-0.5 146,-0.5"/>
<text text-anchor="start" x="154" y="-18.5" font-family="Helvetica,sans-Serif" font-size="10.00">SearchProvider::StartOrStop</text>
<text text-anchor="middle" x="216.5" y="-7.5" font-family="Helvetica,sans-Serif" font-size="10.00">SuggestQuery</text>
</a>
</g>
</g>
<!-- Node9&#45;&gt;Node10 -->
<g id="edge9" class="edge">
<title>Node9&#45;&gt;Node10</title>
<path fill="none" stroke="midnightblue" d="M313.04,-15.5C304.57,-15.5 295.83,-15.5 287.25,-15.5"/>
<polygon fill="midnightblue" stroke="midnightblue" points="313.22,-19 323.22,-15.5 313.22,-12 313.22,-19"/>
</g>
<!-- Node11 -->
<g id="node11" class="node">
<title>Node11</title>
<g id="a_node11"><a xlink:href="../../d4/dee/classSearchProvider.html#a9e8f7e367904d424ac875e501844e830" target="_top" xlink:title=" ">
<polygon fill="white" stroke="black" points="0,-6 0,-25 110,-25 110,-6 0,-6"/>
<text text-anchor="middle" x="55" y="-13" font-family="Helvetica,sans-Serif" font-size="10.00">SearchProvider::Start</text>
</a>
</g>
</g>
<!-- Node10&#45;&gt;Node11 -->
<g id="edge10" class="edge">
<title>Node10&#45;&gt;Node11</title>
<path fill="none" stroke="midnightblue" d="M135.47,-15.5C126.87,-15.5 118.27,-15.5 110.08,-15.5"/>
<polygon fill="midnightblue" stroke="midnightblue" points="135.54,-19 145.54,-15.5 135.54,-12 135.54,-19"/>
</g>
<!-- Node13 -->
<g id="node13" class="node">
<title>Node13</title>
<g id="a_node13"><a xlink:href="../../d3/dbc/classZeroSuggestProvider.html#a4049ecf2307fddcdfae00f7632660d3a" target="_top" xlink:title=" ">
<polygon fill="white" stroke="black" points="486.5,-98.5 486.5,-128.5 605.5,-128.5 605.5,-98.5 486.5,-98.5"/>
<text text-anchor="start" x="494.5" y="-116.5" font-family="Helvetica,sans-Serif" font-size="10.00">ZeroSuggestProvider</text>
<text text-anchor="middle" x="546" y="-105.5" font-family="Helvetica,sans-Serif" font-size="10.00">::OnURLLoadComplete</text>
</a>
</g>
</g>
<!-- Node12&#45;&gt;Node13 -->
<g id="edge12" class="edge">
<title>Node12&#45;&gt;Node13</title>
<path fill="none" stroke="midnightblue" d="M668.09,-111.53C647.87,-111.86 625.61,-112.22 605.74,-112.54"/>
<polygon fill="midnightblue" stroke="midnightblue" points="668.19,-115.03 678.13,-111.37 668.08,-108.03 668.19,-115.03"/>
</g>
<!-- Node13&#45;&gt;Node6 -->
<g id="edge13" class="edge">
<title>Node13&#45;&gt;Node6</title>
<path fill="none" stroke="midnightblue" d="M475.88,-103.15C460.91,-100.91 445.3,-98.57 431.06,-96.44"/>
<polygon fill="midnightblue" stroke="midnightblue" points="475.71,-106.67 486.12,-104.69 476.75,-99.74 475.71,-106.67"/>
</g>
</g>
</svg>
