<?xml version="1.0" encoding="UTF-8" standalone="no"?>
<!DOCTYPE svg PUBLIC "-//W3C//DTD SVG 1.1//EN"
 "http://www.w3.org/Graphics/SVG/1.1/DTD/svg11.dtd">
<!-- Generated by graphviz version 2.43.0 (0)
 -->
<!-- Title: LocationBarModelImpl::GetVectorIcon Pages: 1 -->
<svg width="690pt" height="320pt"
 viewBox="0.00 0.00 690.00 319.50" xmlns="http://www.w3.org/2000/svg" xmlns:xlink="http://www.w3.org/1999/xlink">
<g id="graph0" class="graph" transform="scale(1 1) rotate(0) translate(4 315.5)">
<title>LocationBarModelImpl::GetVectorIcon</title>
<polygon fill="white" stroke="transparent" points="-4,4 -4,-315.5 686,-315.5 686,4 -4,4"/>
<!-- Node1 -->
<g id="node1" class="node">
<title>Node1</title>
<g id="a_node1"><a xlink:title=" ">
<polygon fill="#bfbfbf" stroke="black" points="0,-134 0,-164 113,-164 113,-134 0,-134"/>
<text text-anchor="start" x="8" y="-152" font-family="Helvetica,sans-Serif" font-size="10.00">LocationBarModelImpl</text>
<text text-anchor="middle" x="56.5" y="-141" font-family="Helvetica,sans-Serif" font-size="10.00">::GetVectorIcon</text>
</a>
</g>
</g>
<!-- Node2 -->
<g id="node2" class="node">
<title>Node2</title>
<g id="a_node2"><a xlink:href="../../df/d01/classLocationBarModelImpl.html#afc7024ea02ade2ad50edcf05a06a6067" target="_top" xlink:title=" ">
<polygon fill="white" stroke="black" points="189,-257 189,-287 302,-287 302,-257 189,-257"/>
<text text-anchor="start" x="197" y="-275" font-family="Helvetica,sans-Serif" font-size="10.00">LocationBarModelImpl</text>
<text text-anchor="middle" x="245.5" y="-264" font-family="Helvetica,sans-Serif" font-size="10.00">::GetSecurityLevel</text>
</a>
</g>
</g>
<!-- Node1&#45;&gt;Node2 -->
<g id="edge1" class="edge">
<title>Node1&#45;&gt;Node2</title>
<path fill="none" stroke="midnightblue" d="M67.33,-164.31C82.25,-186.29 112.77,-226.5 149,-248 158.23,-253.48 168.68,-257.71 179.19,-260.98"/>
<polygon fill="midnightblue" stroke="midnightblue" points="178.25,-264.35 188.83,-263.72 180.17,-257.62 178.25,-264.35"/>
</g>
<!-- Node6 -->
<g id="node6" class="node">
<title>Node6</title>
<g id="a_node6"><a xlink:href="../../df/d10/namespacelocation__bar__model.html#ad8949a7a0592fa45934700ff7d82002e" target="_top" xlink:title=" ">
<polygon fill="white" stroke="black" points="184.5,-208 184.5,-238 306.5,-238 306.5,-208 184.5,-208"/>
<text text-anchor="start" x="192.5" y="-226" font-family="Helvetica,sans-Serif" font-size="10.00">location_bar_model</text>
<text text-anchor="middle" x="245.5" y="-215" font-family="Helvetica,sans-Serif" font-size="10.00">::GetSecurityVectorIcon</text>
</a>
</g>
</g>
<!-- Node1&#45;&gt;Node6 -->
<g id="edge5" class="edge">
<title>Node1&#45;&gt;Node6</title>
<path fill="none" stroke="midnightblue" d="M81.16,-164.11C99.17,-175.07 124.9,-189.56 149,-199 157.15,-202.19 165.87,-205.07 174.59,-207.63"/>
<polygon fill="midnightblue" stroke="midnightblue" points="173.84,-211.05 184.42,-210.38 175.73,-204.31 173.84,-211.05"/>
</g>
<!-- Node7 -->
<g id="node7" class="node">
<title>Node7</title>
<g id="a_node7"><a xlink:href="../../de/dd9/classLocationBarModelDelegate.html#af613227d846017cba7f39ac866735e6e" target="_top" xlink:title=" ">
<polygon fill="white" stroke="black" points="178.5,-159 178.5,-189 312.5,-189 312.5,-159 178.5,-159"/>
<text text-anchor="start" x="186.5" y="-177" font-family="Helvetica,sans-Serif" font-size="10.00">LocationBarModelDelegate</text>
<text text-anchor="middle" x="245.5" y="-166" font-family="Helvetica,sans-Serif" font-size="10.00">::GetVectorIconOverride</text>
</a>
</g>
</g>
<!-- Node1&#45;&gt;Node7 -->
<g id="edge6" class="edge">
<title>Node1&#45;&gt;Node7</title>
<path fill="none" stroke="midnightblue" d="M113.1,-156.43C130.36,-158.74 149.69,-161.33 168.11,-163.79"/>
<polygon fill="midnightblue" stroke="midnightblue" points="167.85,-167.28 178.23,-165.14 168.78,-160.35 167.85,-167.28"/>
</g>
<!-- Node8 -->
<g id="node8" class="node">
<title>Node8</title>
<g id="a_node8"><a xlink:href="../../df/d01/classLocationBarModelImpl.html#a7eeec148b3424cd24095781b17f0ac4a" target="_top" xlink:title=" ">
<polygon fill="white" stroke="black" points="189,-110 189,-140 302,-140 302,-110 189,-110"/>
<text text-anchor="start" x="197" y="-128" font-family="Helvetica,sans-Serif" font-size="10.00">LocationBarModelImpl</text>
<text text-anchor="middle" x="245.5" y="-117" font-family="Helvetica,sans-Serif" font-size="10.00">::IsOfflinePage</text>
</a>
</g>
</g>
<!-- Node1&#45;&gt;Node8 -->
<g id="edge7" class="edge">
<title>Node1&#45;&gt;Node8</title>
<path fill="none" stroke="midnightblue" d="M113.1,-141.86C133.73,-139.22 157.33,-136.19 178.78,-133.43"/>
<polygon fill="midnightblue" stroke="midnightblue" points="179.32,-136.89 188.79,-132.15 178.43,-129.95 179.32,-136.89"/>
</g>
<!-- Node10 -->
<g id="node10" class="node">
<title>Node10</title>
<g id="a_node10"><a xlink:href="../../de/dd9/classLocationBarModelDelegate.html#a698c0d7eff28272abc7b005cb62d0e71" target="_top" xlink:title=" ">
<polygon fill="white" stroke="black" points="178.5,-61 178.5,-91 312.5,-91 312.5,-61 178.5,-61"/>
<text text-anchor="start" x="186.5" y="-79" font-family="Helvetica,sans-Serif" font-size="10.00">LocationBarModelDelegate</text>
<text text-anchor="middle" x="245.5" y="-68" font-family="Helvetica,sans-Serif" font-size="10.00">::IsShowingAccuracyTip</text>
</a>
</g>
</g>
<!-- Node1&#45;&gt;Node10 -->
<g id="edge9" class="edge">
<title>Node1&#45;&gt;Node10</title>
<path fill="none" stroke="midnightblue" d="M81.58,-133.99C99.59,-123.29 125.13,-109.23 149,-100 155.27,-97.58 161.86,-95.33 168.53,-93.27"/>
<polygon fill="midnightblue" stroke="midnightblue" points="169.74,-96.56 178.34,-90.37 167.76,-89.85 169.74,-96.56"/>
</g>
<!-- Node11 -->
<g id="node11" class="node">
<title>Node11</title>
<g id="a_node11"><a xlink:href="../../de/dd9/classLocationBarModelDelegate.html#ae9d44afd8751a30a72047d4ce95da847" target="_top" xlink:title=" ">
<polygon fill="white" stroke="black" points="149,-0.5 149,-41.5 342,-41.5 342,-0.5 149,-0.5"/>
<text text-anchor="start" x="157" y="-29.5" font-family="Helvetica,sans-Serif" font-size="10.00">LocationBarModelDelegate</text>
<text text-anchor="start" x="157" y="-18.5" font-family="Helvetica,sans-Serif" font-size="10.00">::ShouldUseUpdatedConnectionSecurity</text>
<text text-anchor="middle" x="245.5" y="-7.5" font-family="Helvetica,sans-Serif" font-size="10.00">Indicators</text>
</a>
</g>
</g>
<!-- Node1&#45;&gt;Node11 -->
<g id="edge10" class="edge">
<title>Node1&#45;&gt;Node11</title>
<path fill="none" stroke="midnightblue" d="M67.79,-133.76C83.06,-112.27 113.74,-73.2 149,-51 151.79,-49.24 154.7,-47.58 157.68,-46"/>
<polygon fill="midnightblue" stroke="midnightblue" points="159.38,-49.07 166.84,-41.56 156.32,-42.78 159.38,-49.07"/>
</g>
<!-- Node3 -->
<g id="node3" class="node">
<title>Node3</title>
<g id="a_node3"><a xlink:href="../../de/dd9/classLocationBarModelDelegate.html#a7ac65c8acbf7231d3ccbcf2b85a50263" target="_top" xlink:title=" ">
<polygon fill="white" stroke="black" points="378,-281 378,-311 512,-311 512,-281 378,-281"/>
<text text-anchor="start" x="386" y="-299" font-family="Helvetica,sans-Serif" font-size="10.00">LocationBarModelDelegate</text>
<text text-anchor="middle" x="445" y="-288" font-family="Helvetica,sans-Serif" font-size="10.00">::GetSecurityLevel</text>
</a>
</g>
</g>
<!-- Node2&#45;&gt;Node3 -->
<g id="edge2" class="edge">
<title>Node2&#45;&gt;Node3</title>
<path fill="none" stroke="midnightblue" d="M302.04,-278.75C322.42,-281.23 345.86,-284.07 367.75,-286.73"/>
<polygon fill="midnightblue" stroke="midnightblue" points="367.33,-290.21 377.68,-287.94 368.17,-283.26 367.33,-290.21"/>
</g>
<!-- Node4 -->
<g id="node4" class="node">
<title>Node4</title>
<g id="a_node4"><a xlink:href="../../df/d01/classLocationBarModelImpl.html#a97b7041286cd2b3bbb818dd37901b010" target="_top" xlink:title=" ">
<polygon fill="white" stroke="black" points="388.5,-232 388.5,-262 501.5,-262 501.5,-232 388.5,-232"/>
<text text-anchor="start" x="396.5" y="-250" font-family="Helvetica,sans-Serif" font-size="10.00">LocationBarModelImpl</text>
<text text-anchor="middle" x="445" y="-239" font-family="Helvetica,sans-Serif" font-size="10.00">::ShouldDisplayURL</text>
</a>
</g>
</g>
<!-- Node2&#45;&gt;Node4 -->
<g id="edge3" class="edge">
<title>Node2&#45;&gt;Node4</title>
<path fill="none" stroke="midnightblue" d="M302.04,-264.97C325.71,-261.97 353.5,-258.46 378.18,-255.33"/>
<polygon fill="midnightblue" stroke="midnightblue" points="378.71,-258.79 388.19,-254.06 377.83,-251.85 378.71,-258.79"/>
</g>
<!-- Node5 -->
<g id="node5" class="node">
<title>Node5</title>
<g id="a_node5"><a xlink:href="../../de/dd9/classLocationBarModelDelegate.html#acd7eea7b2c51dfdf52570a816dce3ec9" target="_top" xlink:title=" ">
<polygon fill="white" stroke="black" points="548,-232 548,-262 682,-262 682,-232 548,-232"/>
<text text-anchor="start" x="556" y="-250" font-family="Helvetica,sans-Serif" font-size="10.00">LocationBarModelDelegate</text>
<text text-anchor="middle" x="615" y="-239" font-family="Helvetica,sans-Serif" font-size="10.00">::ShouldDisplayURL</text>
</a>
</g>
</g>
<!-- Node4&#45;&gt;Node5 -->
<g id="edge4" class="edge">
<title>Node4&#45;&gt;Node5</title>
<path fill="none" stroke="midnightblue" d="M501.94,-247C513.43,-247 525.7,-247 537.76,-247"/>
<polygon fill="midnightblue" stroke="midnightblue" points="537.82,-250.5 547.82,-247 537.82,-243.5 537.82,-250.5"/>
</g>
<!-- Node9 -->
<g id="node9" class="node">
<title>Node9</title>
<g id="a_node9"><a xlink:href="../../de/dd9/classLocationBarModelDelegate.html#aeaff7bf0ea7b177dc4c91bab7635de72" target="_top" xlink:title=" ">
<polygon fill="white" stroke="black" points="378,-110 378,-140 512,-140 512,-110 378,-110"/>
<text text-anchor="start" x="386" y="-128" font-family="Helvetica,sans-Serif" font-size="10.00">LocationBarModelDelegate</text>
<text text-anchor="middle" x="445" y="-117" font-family="Helvetica,sans-Serif" font-size="10.00">::IsOfflinePage</text>
</a>
</g>
</g>
<!-- Node8&#45;&gt;Node9 -->
<g id="edge8" class="edge">
<title>Node8&#45;&gt;Node9</title>
<path fill="none" stroke="midnightblue" d="M302.04,-125C322.33,-125 345.65,-125 367.45,-125"/>
<polygon fill="midnightblue" stroke="midnightblue" points="367.68,-128.5 377.68,-125 367.68,-121.5 367.68,-128.5"/>
</g>
</g>
</svg>
