<?xml version="1.0" encoding="UTF-8" standalone="no"?>
<!DOCTYPE svg PUBLIC "-//W3C//DTD SVG 1.1//EN"
 "http://www.w3.org/Graphics/SVG/1.1/DTD/svg11.dtd">
<!-- Generated by graphviz version 2.43.0 (0)
 -->
<!-- Title: LocationBarModelImpl::GetFormattedURL Pages: 1 -->
<svg width="655pt" height="188pt"
 viewBox="0.00 0.00 655.00 187.50" xmlns="http://www.w3.org/2000/svg" xmlns:xlink="http://www.w3.org/1999/xlink">
<g id="graph0" class="graph" transform="scale(1 1) rotate(0) translate(4 183.5)">
<title>LocationBarModelImpl::GetFormattedURL</title>
<polygon fill="white" stroke="transparent" points="-4,4 -4,-183.5 651,-183.5 651,4 -4,4"/>
<!-- Node1 -->
<g id="node1" class="node">
<title>Node1</title>
<g id="a_node1"><a xlink:title=" ">
<polygon fill="#bfbfbf" stroke="black" points="0,-66.5 0,-96.5 113,-96.5 113,-66.5 0,-66.5"/>
<text text-anchor="start" x="8" y="-84.5" font-family="Helvetica,sans-Serif" font-size="10.00">LocationBarModelImpl</text>
<text text-anchor="middle" x="56.5" y="-73.5" font-family="Helvetica,sans-Serif" font-size="10.00">::GetFormattedURL</text>
</a>
</g>
</g>
<!-- Node2 -->
<g id="node2" class="node">
<title>Node2</title>
<g id="a_node2"><a xlink:href="../../de/dd9/classLocationBarModelDelegate.html#aeb619f8f0efbf8726e49aca7cfe03186" target="_top" xlink:title=" ">
<polygon fill="white" stroke="black" points="149,-138 149,-179 307,-179 307,-138 149,-138"/>
<text text-anchor="start" x="157" y="-167" font-family="Helvetica,sans-Serif" font-size="10.00">LocationBarModelDelegate</text>
<text text-anchor="start" x="157" y="-156" font-family="Helvetica,sans-Serif" font-size="10.00">::FormattedStringWithEquivalent</text>
<text text-anchor="middle" x="228" y="-145" font-family="Helvetica,sans-Serif" font-size="10.00">Meaning</text>
</a>
</g>
</g>
<!-- Node1&#45;&gt;Node2 -->
<g id="edge1" class="edge">
<title>Node1&#45;&gt;Node2</title>
<path fill="none" stroke="midnightblue" d="M85.15,-96.69C103.11,-106.3 127.16,-118.72 149,-128.5 153.13,-130.35 157.42,-132.2 161.76,-134.01"/>
<polygon fill="midnightblue" stroke="midnightblue" points="160.72,-137.37 171.3,-137.92 163.38,-130.89 160.72,-137.37"/>
</g>
<!-- Node3 -->
<g id="node3" class="node">
<title>Node3</title>
<g id="a_node3"><a xlink:href="../../df/d01/classLocationBarModelImpl.html#a3e6081464985392e9f5232340cb618c5" target="_top" xlink:title=" ">
<polygon fill="white" stroke="black" points="171.5,-88.5 171.5,-118.5 284.5,-118.5 284.5,-88.5 171.5,-88.5"/>
<text text-anchor="start" x="179.5" y="-106.5" font-family="Helvetica,sans-Serif" font-size="10.00">LocationBarModelImpl</text>
<text text-anchor="middle" x="228" y="-95.5" font-family="Helvetica,sans-Serif" font-size="10.00">::GetURL</text>
</a>
</g>
</g>
<!-- Node1&#45;&gt;Node3 -->
<g id="edge2" class="edge">
<title>Node1&#45;&gt;Node3</title>
<path fill="none" stroke="midnightblue" d="M113,-88.7C128.37,-90.7 145.19,-92.88 161.09,-94.95"/>
<polygon fill="midnightblue" stroke="midnightblue" points="161.01,-98.46 171.37,-96.28 161.91,-91.52 161.01,-98.46"/>
</g>
<!-- Node5 -->
<g id="node5" class="node">
<title>Node5</title>
<g id="a_node5"><a xlink:href="../../df/d01/classLocationBarModelImpl.html#a97b7041286cd2b3bbb818dd37901b010" target="_top" xlink:title=" ">
<polygon fill="white" stroke="black" points="353.5,-44.5 353.5,-74.5 466.5,-74.5 466.5,-44.5 353.5,-44.5"/>
<text text-anchor="start" x="361.5" y="-62.5" font-family="Helvetica,sans-Serif" font-size="10.00">LocationBarModelImpl</text>
<text text-anchor="middle" x="410" y="-51.5" font-family="Helvetica,sans-Serif" font-size="10.00">::ShouldDisplayURL</text>
</a>
</g>
</g>
<!-- Node1&#45;&gt;Node5 -->
<g id="edge6" class="edge">
<title>Node1&#45;&gt;Node5</title>
<path fill="none" stroke="midnightblue" d="M113.2,-78.01C175.58,-74.11 276.62,-67.79 342.94,-63.63"/>
<polygon fill="midnightblue" stroke="midnightblue" points="343.51,-67.11 353.27,-62.99 343.08,-60.12 343.51,-67.11"/>
</g>
<!-- Node7 -->
<g id="node7" class="node">
<title>Node7</title>
<g id="a_node7"><a xlink:href="../../de/dd9/classLocationBarModelDelegate.html#ac14a0974e6b87a6647ec3f49a9897613" target="_top" xlink:title=" ">
<polygon fill="white" stroke="black" points="161,-0.5 161,-30.5 295,-30.5 295,-0.5 161,-0.5"/>
<text text-anchor="start" x="169" y="-18.5" font-family="Helvetica,sans-Serif" font-size="10.00">LocationBarModelDelegate</text>
<text text-anchor="middle" x="228" y="-7.5" font-family="Helvetica,sans-Serif" font-size="10.00">::ShouldPreventElision</text>
</a>
</g>
</g>
<!-- Node1&#45;&gt;Node7 -->
<g id="edge7" class="edge">
<title>Node1&#45;&gt;Node7</title>
<path fill="none" stroke="midnightblue" d="M95.76,-66.37C112.15,-59.91 131.5,-52.31 149,-45.5 158.43,-41.83 168.51,-37.93 178.19,-34.21"/>
<polygon fill="midnightblue" stroke="midnightblue" points="179.62,-37.41 187.7,-30.55 177.11,-30.87 179.62,-37.41"/>
</g>
<!-- Node4 -->
<g id="node4" class="node">
<title>Node4</title>
<g id="a_node4"><a xlink:href="../../de/dd9/classLocationBarModelDelegate.html#ab780132e4ae9fb94f704c461880753e6" target="_top" xlink:title=" ">
<polygon fill="white" stroke="black" points="343,-93.5 343,-123.5 477,-123.5 477,-93.5 343,-93.5"/>
<text text-anchor="start" x="351" y="-111.5" font-family="Helvetica,sans-Serif" font-size="10.00">LocationBarModelDelegate</text>
<text text-anchor="middle" x="410" y="-100.5" font-family="Helvetica,sans-Serif" font-size="10.00">::GetURL</text>
</a>
</g>
</g>
<!-- Node3&#45;&gt;Node4 -->
<g id="edge3" class="edge">
<title>Node3&#45;&gt;Node4</title>
<path fill="none" stroke="midnightblue" d="M284.97,-105.05C300.04,-105.47 316.6,-105.93 332.58,-106.38"/>
<polygon fill="midnightblue" stroke="midnightblue" points="332.88,-109.89 342.97,-106.67 333.07,-102.89 332.88,-109.89"/>
</g>
<!-- Node3&#45;&gt;Node5 -->
<g id="edge4" class="edge">
<title>Node3&#45;&gt;Node5</title>
<path fill="none" stroke="midnightblue" d="M284.97,-89.82C303.51,-85.29 324.31,-80.2 343.51,-75.51"/>
<polygon fill="midnightblue" stroke="midnightblue" points="344.49,-78.87 353.38,-73.1 342.83,-72.07 344.49,-78.87"/>
</g>
<!-- Node6 -->
<g id="node6" class="node">
<title>Node6</title>
<g id="a_node6"><a xlink:href="../../de/dd9/classLocationBarModelDelegate.html#acd7eea7b2c51dfdf52570a816dce3ec9" target="_top" xlink:title=" ">
<polygon fill="white" stroke="black" points="513,-44.5 513,-74.5 647,-74.5 647,-44.5 513,-44.5"/>
<text text-anchor="start" x="521" y="-62.5" font-family="Helvetica,sans-Serif" font-size="10.00">LocationBarModelDelegate</text>
<text text-anchor="middle" x="580" y="-51.5" font-family="Helvetica,sans-Serif" font-size="10.00">::ShouldDisplayURL</text>
</a>
</g>
</g>
<!-- Node5&#45;&gt;Node6 -->
<g id="edge5" class="edge">
<title>Node5&#45;&gt;Node6</title>
<path fill="none" stroke="midnightblue" d="M466.94,-59.5C478.43,-59.5 490.7,-59.5 502.76,-59.5"/>
<polygon fill="midnightblue" stroke="midnightblue" points="502.82,-63 512.82,-59.5 502.82,-56 502.82,-63"/>
</g>
</g>
</svg>
