<?xml version="1.0" encoding="UTF-8" standalone="no"?>
<!DOCTYPE svg PUBLIC "-//W3C//DTD SVG 1.1//EN"
 "http://www.w3.org/Graphics/SVG/1.1/DTD/svg11.dtd">
<!-- Generated by graphviz version 2.43.0 (0)
 -->
<!-- Title: LocationBarModelImpl::GetPageClassification Pages: 1 -->
<svg width="298pt" height="235pt"
 viewBox="0.00 0.00 298.00 235.00" xmlns="http://www.w3.org/2000/svg" xmlns:xlink="http://www.w3.org/1999/xlink">
<g id="graph0" class="graph" transform="scale(1 1) rotate(0) translate(4 231)">
<title>LocationBarModelImpl::GetPageClassification</title>
<polygon fill="white" stroke="transparent" points="-4,4 -4,-231 294,-231 294,4 -4,4"/>
<!-- Node1 -->
<g id="node1" class="node">
<title>Node1</title>
<g id="a_node1"><a xlink:title=" ">
<polygon fill="#bfbfbf" stroke="black" points="0,-98.5 0,-128.5 120,-128.5 120,-98.5 0,-98.5"/>
<text text-anchor="start" x="8" y="-116.5" font-family="Helvetica,sans-Serif" font-size="10.00">LocationBarModelImpl</text>
<text text-anchor="middle" x="60" y="-105.5" font-family="Helvetica,sans-Serif" font-size="10.00">::GetPageClassification</text>
</a>
</g>
</g>
<!-- Node2 -->
<g id="node2" class="node">
<title>Node2</title>
<g id="a_node2"><a xlink:href="../../de/dd9/classLocationBarModelDelegate.html#ae0a240cdcfe08cef867c9ee795433de1" target="_top" xlink:title=" ">
<polygon fill="white" stroke="black" points="156,-196.5 156,-226.5 290,-226.5 290,-196.5 156,-196.5"/>
<text text-anchor="start" x="164" y="-214.5" font-family="Helvetica,sans-Serif" font-size="10.00">LocationBarModelDelegate</text>
<text text-anchor="middle" x="223" y="-203.5" font-family="Helvetica,sans-Serif" font-size="10.00">::GetTemplateURLService</text>
</a>
</g>
</g>
<!-- Node1&#45;&gt;Node2 -->
<g id="edge1" class="edge">
<title>Node1&#45;&gt;Node2</title>
<path fill="none" stroke="midnightblue" d="M77.04,-128.57C95.08,-144.89 125.82,-170.8 156,-187.5 159.08,-189.2 162.31,-190.83 165.6,-192.37"/>
<polygon fill="midnightblue" stroke="midnightblue" points="164.47,-195.69 175.03,-196.49 167.27,-189.28 164.47,-195.69"/>
</g>
<!-- Node3 -->
<g id="node3" class="node">
<title>Node3</title>
<g id="a_node3"><a xlink:href="../../de/dd9/classLocationBarModelDelegate.html#ab780132e4ae9fb94f704c461880753e6" target="_top" xlink:title=" ">
<polygon fill="white" stroke="black" points="156,-147.5 156,-177.5 290,-177.5 290,-147.5 156,-147.5"/>
<text text-anchor="start" x="164" y="-165.5" font-family="Helvetica,sans-Serif" font-size="10.00">LocationBarModelDelegate</text>
<text text-anchor="middle" x="223" y="-154.5" font-family="Helvetica,sans-Serif" font-size="10.00">::GetURL</text>
</a>
</g>
</g>
<!-- Node1&#45;&gt;Node3 -->
<g id="edge2" class="edge">
<title>Node1&#45;&gt;Node3</title>
<path fill="none" stroke="midnightblue" d="M110.62,-128.6C127.07,-133.61 145.55,-139.23 162.66,-144.44"/>
<polygon fill="midnightblue" stroke="midnightblue" points="161.96,-147.89 172.54,-147.45 164,-141.19 161.96,-147.89"/>
</g>
<!-- Node4 -->
<g id="node4" class="node">
<title>Node4</title>
<g id="a_node4"><a xlink:href="../../de/dd9/classLocationBarModelDelegate.html#afba5faa07e14092a9cd376290ec71054" target="_top" xlink:title=" ">
<polygon fill="white" stroke="black" points="156,-98.5 156,-128.5 290,-128.5 290,-98.5 156,-98.5"/>
<text text-anchor="start" x="164" y="-116.5" font-family="Helvetica,sans-Serif" font-size="10.00">LocationBarModelDelegate</text>
<text text-anchor="middle" x="223" y="-105.5" font-family="Helvetica,sans-Serif" font-size="10.00">::IsHomePage</text>
</a>
</g>
</g>
<!-- Node1&#45;&gt;Node4 -->
<g id="edge3" class="edge">
<title>Node1&#45;&gt;Node4</title>
<path fill="none" stroke="midnightblue" d="M120.04,-113.5C128.42,-113.5 137.14,-113.5 145.8,-113.5"/>
<polygon fill="midnightblue" stroke="midnightblue" points="145.9,-117 155.9,-113.5 145.9,-110 145.9,-117"/>
</g>
<!-- Node5 -->
<g id="node5" class="node">
<title>Node5</title>
<g id="a_node5"><a xlink:href="../../de/dd9/classLocationBarModelDelegate.html#a1a49c0d2402ef349b9eab2a2e502b85b" target="_top" xlink:title=" ">
<polygon fill="white" stroke="black" points="156,-49.5 156,-79.5 290,-79.5 290,-49.5 156,-49.5"/>
<text text-anchor="start" x="164" y="-67.5" font-family="Helvetica,sans-Serif" font-size="10.00">LocationBarModelDelegate</text>
<text text-anchor="middle" x="223" y="-56.5" font-family="Helvetica,sans-Serif" font-size="10.00">::IsNewTabPage</text>
</a>
</g>
</g>
<!-- Node1&#45;&gt;Node5 -->
<g id="edge4" class="edge">
<title>Node1&#45;&gt;Node5</title>
<path fill="none" stroke="midnightblue" d="M110.62,-98.4C127.07,-93.39 145.55,-87.77 162.66,-82.56"/>
<polygon fill="midnightblue" stroke="midnightblue" points="164,-85.81 172.54,-79.55 161.96,-79.11 164,-85.81"/>
</g>
<!-- Node6 -->
<g id="node6" class="node">
<title>Node6</title>
<g id="a_node6"><a xlink:href="../../de/dd9/classLocationBarModelDelegate.html#a307a214e9ce9d2f46c7fff8407476f83" target="_top" xlink:title=" ">
<polygon fill="white" stroke="black" points="156,-0.5 156,-30.5 290,-30.5 290,-0.5 156,-0.5"/>
<text text-anchor="start" x="164" y="-18.5" font-family="Helvetica,sans-Serif" font-size="10.00">LocationBarModelDelegate</text>
<text text-anchor="middle" x="223" y="-7.5" font-family="Helvetica,sans-Serif" font-size="10.00">::IsNewTabPageURL</text>
</a>
</g>
</g>
<!-- Node1&#45;&gt;Node6 -->
<g id="edge5" class="edge">
<title>Node1&#45;&gt;Node6</title>
<path fill="none" stroke="midnightblue" d="M77.45,-98.43C95.6,-82.4 126.21,-57.11 156,-40.5 159.67,-38.45 163.55,-36.5 167.5,-34.67"/>
<polygon fill="midnightblue" stroke="midnightblue" points="169.07,-37.8 176.82,-30.58 166.26,-31.39 169.07,-37.8"/>
</g>
</g>
</svg>
