<?xml version="1.0" encoding="UTF-8" standalone="no"?>
<!DOCTYPE svg PUBLIC "-//W3C//DTD SVG 1.1//EN"
 "http://www.w3.org/Graphics/SVG/1.1/DTD/svg11.dtd">
<!-- Generated by graphviz version 2.43.0 (0)
 -->
<!-- Title: LocationBarModelImpl::GetSecureAccessibilityText Pages: 1 -->
<!--zoomable 210 -->
<svg id="main" version="1.1" xmlns="http://www.w3.org/2000/svg" xmlns:xlink="http://www.w3.org/1999/xlink" xml:space="preserve" onload="init(evt)">
<style type="text/css"><![CDATA[
.edge:hover path { stroke: red; }
.edge:hover polygon { stroke: red; fill: red; }
]]></style>
<script type="text/javascript"><![CDATA[
var edges = document.getElementsByTagName('g');
if (edges && edges.length) {
  for (var i=0;i<edges.length;i++) {
    if (edges[i].id.substr(0,4)=='edge') {
      edges[i].setAttribute('class','edge');
    }
  }
}
]]></script>
        <defs>
                <circle id="rim" cx="0" cy="0" r="7"/>
                <circle id="rim2" cx="0" cy="0" r="3.5"/>
                <g id="zoomPlus">
                        <use xlink:href="#rim" fill="#404040">
                                <set attributeName="fill" to="#808080" begin="zoomplus.mouseover" end="zoomplus.mouseout"/>
                        </use>
                        <path d="M-4,0h8M0,-4v8" fill="none" stroke="white" stroke-width="1.5" pointer-events="none"/>
                </g>
                <g id="zoomMin">
                        <use xlink:href="#rim" fill="#404040">
                                <set attributeName="fill" to="#808080" begin="zoomminus.mouseover" end="zoomminus.mouseout"/>
                        </use>
                        <path d="M-4,0h8" fill="none" stroke="white" stroke-width="1.5" pointer-events="none"/>
                </g>
                <g id="dirArrow">
                        <path fill="none" stroke="white" stroke-width="1.5" d="M0,-3.0v7 M-2.5,-0.5L0,-3.0L2.5,-0.5"/>
                </g>
               <g id="resetDef">
                       <use xlink:href="#rim2" fill="#404040">
                               <set attributeName="fill" to="#808080" begin="reset.mouseover" end="reset.mouseout"/>
                       </use>
               </g>
        </defs>

<script type="text/javascript">
var viewWidth = 818;
var viewHeight = 210;
var sectionId = 'dynsection-7';
</script>
<script xlink:href="../../svgpan.js"/>
<svg id="graph" class="graph">
<g id="viewport">
<title>LocationBarModelImpl::GetSecureAccessibilityText</title>
<polygon fill="white" stroke="transparent" points="-4,4 -4,-206 814,-206 814,4 -4,4"/>
<!-- Node1 -->
<g id="node1" class="node">
<title>Node1</title>
<g id="a_node1"><a xlink:title=" ">
<polygon fill="#bfbfbf" stroke="black" points="0,-120.5 0,-150.5 143,-150.5 143,-120.5 0,-120.5"/>
<text text-anchor="start" x="8" y="-138.5" font-family="Helvetica,sans-Serif" font-size="10.00">LocationBarModelImpl</text>
<text text-anchor="middle" x="71.5" y="-127.5" font-family="Helvetica,sans-Serif" font-size="10.00">::GetSecureAccessibilityText</text>
</a>
</g>
</g>
<!-- Node2 -->
<g id="node2" class="node">
<title>Node2</title>
<g id="a_node2"><a xlink:href="../../df/d01/classLocationBarModelImpl.html#a6e43d2a7734fce24b5fc35ae0b1da45f" target="_top" xlink:title=" ">
<polygon fill="white" stroke="black" points="179,-98.5 179,-128.5 300,-128.5 300,-98.5 179,-98.5"/>
<text text-anchor="start" x="187" y="-116.5" font-family="Helvetica,sans-Serif" font-size="10.00">LocationBarModelImpl</text>
<text text-anchor="middle" x="239.5" y="-105.5" font-family="Helvetica,sans-Serif" font-size="10.00">::GetSecureDisplayText</text>
</a>
</g>
</g>
<!-- Node1&#45;&gt;Node2 -->
<g id="edge1" class="edge">
<title>Node1&#45;&gt;Node2</title>
<path fill="none" stroke="midnightblue" d="M143.38,-126.11C151.78,-124.99 160.34,-123.86 168.72,-122.75"/>
<polygon fill="midnightblue" stroke="midnightblue" points="169.37,-126.19 178.82,-121.41 168.45,-119.25 169.37,-126.19"/>
</g>
<!-- Node3 -->
<g id="node3" class="node">
<title>Node3</title>
<g id="a_node3"><a xlink:href="../../df/d01/classLocationBarModelImpl.html#afc7024ea02ade2ad50edcf05a06a6067" target="_top" xlink:title=" ">
<polygon fill="white" stroke="black" points="346.5,-147.5 346.5,-177.5 459.5,-177.5 459.5,-147.5 346.5,-147.5"/>
<text text-anchor="start" x="354.5" y="-165.5" font-family="Helvetica,sans-Serif" font-size="10.00">LocationBarModelImpl</text>
<text text-anchor="middle" x="403" y="-154.5" font-family="Helvetica,sans-Serif" font-size="10.00">::GetSecurityLevel</text>
</a>
</g>
</g>
<!-- Node1&#45;&gt;Node3 -->
<g id="edge10" class="edge">
<title>Node1&#45;&gt;Node3</title>
<path fill="none" stroke="midnightblue" d="M143.19,-141.29C200.42,-145.98 280.43,-152.54 336.29,-157.12"/>
<polygon fill="midnightblue" stroke="midnightblue" points="336.17,-160.62 346.42,-157.95 336.74,-153.64 336.17,-160.62"/>
</g>
<!-- Node2&#45;&gt;Node3 -->
<g id="edge2" class="edge">
<title>Node2&#45;&gt;Node3</title>
<path fill="none" stroke="midnightblue" d="M290.27,-128.6C306.78,-133.61 325.31,-139.23 342.47,-144.44"/>
<polygon fill="midnightblue" stroke="midnightblue" points="341.81,-147.89 352.39,-147.45 343.84,-141.2 341.81,-147.89"/>
</g>
<!-- Node7 -->
<g id="node7" class="node">
<title>Node7</title>
<g id="a_node7"><a xlink:href="../../de/dd9/classLocationBarModelDelegate.html#a2c71abb67df3c7ad5535686dbfed0784" target="_top" xlink:title=" ">
<polygon fill="white" stroke="black" points="336,-98.5 336,-128.5 470,-128.5 470,-98.5 336,-98.5"/>
<text text-anchor="start" x="344" y="-116.5" font-family="Helvetica,sans-Serif" font-size="10.00">LocationBarModelDelegate</text>
<text text-anchor="middle" x="403" y="-105.5" font-family="Helvetica,sans-Serif" font-size="10.00">::GetVisibleSecurityState</text>
</a>
</g>
</g>
<!-- Node2&#45;&gt;Node7 -->
<g id="edge6" class="edge">
<title>Node2&#45;&gt;Node7</title>
<path fill="none" stroke="midnightblue" d="M300.18,-113.5C308.51,-113.5 317.16,-113.5 325.75,-113.5"/>
<polygon fill="midnightblue" stroke="midnightblue" points="325.77,-117 335.77,-113.5 325.77,-110 325.77,-117"/>
</g>
<!-- Node8 -->
<g id="node8" class="node">
<title>Node8</title>
<g id="a_node8"><a xlink:href="../../df/d01/classLocationBarModelImpl.html#a7eeec148b3424cd24095781b17f0ac4a" target="_top" xlink:title=" ">
<polygon fill="white" stroke="black" points="346.5,-49.5 346.5,-79.5 459.5,-79.5 459.5,-49.5 346.5,-49.5"/>
<text text-anchor="start" x="354.5" y="-67.5" font-family="Helvetica,sans-Serif" font-size="10.00">LocationBarModelImpl</text>
<text text-anchor="middle" x="403" y="-56.5" font-family="Helvetica,sans-Serif" font-size="10.00">::IsOfflinePage</text>
</a>
</g>
</g>
<!-- Node2&#45;&gt;Node8 -->
<g id="edge7" class="edge">
<title>Node2&#45;&gt;Node8</title>
<path fill="none" stroke="midnightblue" d="M290.27,-98.4C306.78,-93.39 325.31,-87.77 342.47,-82.56"/>
<polygon fill="midnightblue" stroke="midnightblue" points="343.84,-85.8 352.39,-79.55 341.81,-79.11 343.84,-85.8"/>
</g>
<!-- Node10 -->
<g id="node10" class="node">
<title>Node10</title>
<g id="a_node10"><a xlink:href="../../de/dd9/classLocationBarModelDelegate.html#a698c0d7eff28272abc7b005cb62d0e71" target="_top" xlink:title=" ">
<polygon fill="white" stroke="black" points="336,-0.5 336,-30.5 470,-30.5 470,-0.5 336,-0.5"/>
<text text-anchor="start" x="344" y="-18.5" font-family="Helvetica,sans-Serif" font-size="10.00">LocationBarModelDelegate</text>
<text text-anchor="middle" x="403" y="-7.5" font-family="Helvetica,sans-Serif" font-size="10.00">::IsShowingAccuracyTip</text>
</a>
</g>
</g>
<!-- Node2&#45;&gt;Node10 -->
<g id="edge9" class="edge">
<title>Node2&#45;&gt;Node10</title>
<path fill="none" stroke="midnightblue" d="M256.63,-98.43C274.78,-82.12 305.69,-56.21 336,-39.5 339.08,-37.8 342.31,-36.18 345.61,-34.64"/>
<polygon fill="midnightblue" stroke="midnightblue" points="347.28,-37.73 355.04,-30.52 344.48,-31.31 347.28,-37.73"/>
</g>
<!-- Node4 -->
<g id="node4" class="node">
<title>Node4</title>
<g id="a_node4"><a xlink:href="../../de/dd9/classLocationBarModelDelegate.html#a7ac65c8acbf7231d3ccbcf2b85a50263" target="_top" xlink:title=" ">
<polygon fill="white" stroke="black" points="506,-171.5 506,-201.5 640,-201.5 640,-171.5 506,-171.5"/>
<text text-anchor="start" x="514" y="-189.5" font-family="Helvetica,sans-Serif" font-size="10.00">LocationBarModelDelegate</text>
<text text-anchor="middle" x="573" y="-178.5" font-family="Helvetica,sans-Serif" font-size="10.00">::GetSecurityLevel</text>
</a>
</g>
</g>
<!-- Node3&#45;&gt;Node4 -->
<g id="edge3" class="edge">
<title>Node3&#45;&gt;Node4</title>
<path fill="none" stroke="midnightblue" d="M459.94,-170.49C471.43,-172.13 483.7,-173.89 495.76,-175.61"/>
<polygon fill="midnightblue" stroke="midnightblue" points="495.42,-179.1 505.82,-177.05 496.41,-172.17 495.42,-179.1"/>
</g>
<!-- Node5 -->
<g id="node5" class="node">
<title>Node5</title>
<g id="a_node5"><a xlink:href="../../df/d01/classLocationBarModelImpl.html#a97b7041286cd2b3bbb818dd37901b010" target="_top" xlink:title=" ">
<polygon fill="white" stroke="black" points="516.5,-122.5 516.5,-152.5 629.5,-152.5 629.5,-122.5 516.5,-122.5"/>
<text text-anchor="start" x="524.5" y="-140.5" font-family="Helvetica,sans-Serif" font-size="10.00">LocationBarModelImpl</text>
<text text-anchor="middle" x="573" y="-129.5" font-family="Helvetica,sans-Serif" font-size="10.00">::ShouldDisplayURL</text>
</a>
</g>
</g>
<!-- Node3&#45;&gt;Node5 -->
<g id="edge4" class="edge">
<title>Node3&#45;&gt;Node5</title>
<path fill="none" stroke="midnightblue" d="M459.94,-154.18C474.82,-151.96 491.02,-149.55 506.37,-147.27"/>
<polygon fill="midnightblue" stroke="midnightblue" points="506.93,-150.72 516.3,-145.79 505.9,-143.8 506.93,-150.72"/>
</g>
<!-- Node6 -->
<g id="node6" class="node">
<title>Node6</title>
<g id="a_node6"><a xlink:href="../../de/dd9/classLocationBarModelDelegate.html#acd7eea7b2c51dfdf52570a816dce3ec9" target="_top" xlink:title=" ">
<polygon fill="white" stroke="black" points="676,-122.5 676,-152.5 810,-152.5 810,-122.5 676,-122.5"/>
<text text-anchor="start" x="684" y="-140.5" font-family="Helvetica,sans-Serif" font-size="10.00">LocationBarModelDelegate</text>
<text text-anchor="middle" x="743" y="-129.5" font-family="Helvetica,sans-Serif" font-size="10.00">::ShouldDisplayURL</text>
</a>
</g>
</g>
<!-- Node5&#45;&gt;Node6 -->
<g id="edge5" class="edge">
<title>Node5&#45;&gt;Node6</title>
<path fill="none" stroke="midnightblue" d="M629.94,-137.5C641.43,-137.5 653.7,-137.5 665.76,-137.5"/>
<polygon fill="midnightblue" stroke="midnightblue" points="665.82,-141 675.82,-137.5 665.82,-134 665.82,-141"/>
</g>
<!-- Node9 -->
<g id="node9" class="node">
<title>Node9</title>
<g id="a_node9"><a xlink:href="../../de/dd9/classLocationBarModelDelegate.html#aeaff7bf0ea7b177dc4c91bab7635de72" target="_top" xlink:title=" ">
<polygon fill="white" stroke="black" points="506,-49.5 506,-79.5 640,-79.5 640,-49.5 506,-49.5"/>
<text text-anchor="start" x="514" y="-67.5" font-family="Helvetica,sans-Serif" font-size="10.00">LocationBarModelDelegate</text>
<text text-anchor="middle" x="573" y="-56.5" font-family="Helvetica,sans-Serif" font-size="10.00">::IsOfflinePage</text>
</a>
</g>
</g>
<!-- Node8&#45;&gt;Node9 -->
<g id="edge8" class="edge">
<title>Node8&#45;&gt;Node9</title>
<path fill="none" stroke="midnightblue" d="M459.94,-64.5C471.43,-64.5 483.7,-64.5 495.76,-64.5"/>
<polygon fill="midnightblue" stroke="midnightblue" points="495.82,-68 505.82,-64.5 495.82,-61 495.82,-68"/>
</g>
</g>
</svg>
        <g id="navigator" transform="translate(0 0)" fill="#404254">
                <rect fill="#f2f5e9" fill-opacity="0.5" stroke="#606060" stroke-width=".5" x="0" y="0" width="60" height="60"/>
                <use id="zoomplus" xlink:href="#zoomPlus" x="17" y="9" onmousedown="handleZoom(evt,'in')"/>
                <use id="zoomminus" xlink:href="#zoomMin" x="42" y="9" onmousedown="handleZoom(evt,'out')"/>
                <use id="reset" xlink:href="#resetDef" x="30" y="36" onmousedown="handleReset()"/>
                <g id="arrowUp" xlink:href="#dirArrow" transform="translate(30 24)" onmousedown="handlePan(0,-1)">
                  <use xlink:href="#rim" fill="#404040">
                        <set attributeName="fill" to="#808080" begin="arrowUp.mouseover" end="arrowUp.mouseout"/>
                  </use>
                  <path fill="none" stroke="white" stroke-width="1.5" d="M0,-3.0v7 M-2.5,-0.5L0,-3.0L2.5,-0.5"/>
                </g>
                <g id="arrowRight" xlink:href="#dirArrow" transform="rotate(90) translate(36 -43)" onmousedown="handlePan(1,0)">
                  <use xlink:href="#rim" fill="#404040">
                        <set attributeName="fill" to="#808080" begin="arrowRight.mouseover" end="arrowRight.mouseout"/>
                  </use>
                  <path fill="none" stroke="white" stroke-width="1.5" d="M0,-3.0v7 M-2.5,-0.5L0,-3.0L2.5,-0.5"/>
                </g>
                <g id="arrowDown" xlink:href="#dirArrow" transform="rotate(180) translate(-30 -48)" onmousedown="handlePan(0,1)">
                  <use xlink:href="#rim" fill="#404040">
                        <set attributeName="fill" to="#808080" begin="arrowDown.mouseover" end="arrowDown.mouseout"/>
                  </use>
                  <path fill="none" stroke="white" stroke-width="1.5" d="M0,-3.0v7 M-2.5,-0.5L0,-3.0L2.5,-0.5"/>
                </g>
                <g id="arrowLeft" xlink:href="#dirArrow" transform="rotate(270) translate(-36 17)" onmousedown="handlePan(-1,0)">
                  <use xlink:href="#rim" fill="#404040">
                        <set attributeName="fill" to="#808080" begin="arrowLeft.mouseover" end="arrowLeft.mouseout"/>
                  </use>
                  <path fill="none" stroke="white" stroke-width="1.5" d="M0,-3.0v7 M-2.5,-0.5L0,-3.0L2.5,-0.5"/>
                </g>
        </g>
        <svg viewBox="0 0 15 15" width="100%" height="30px" preserveAspectRatio="xMaxYMin meet">
         <g id="arrow_out" transform="scale(0.3 0.3)">
          <a xlink:href="classLocationBarModelImpl_a52d665b819f03cc6bc66384e089f9a82_cgraph_org.svg" target="_base">
           <rect id="button" ry="5" rx="5" y="6" x="6" height="38" width="38"
                fill="#f2f5e9" fill-opacity="0.5" stroke="#606060" stroke-width="1.0"/>
           <path id="arrow"
             d="M 11.500037,31.436501 C 11.940474,20.09759 22.043105,11.32322 32.158766,21.979434 L 37.068811,17.246167 C 37.068811,17.246167 37.088388,32 37.088388,32 L 22.160133,31.978069 C 22.160133,31.978069 26.997745,27.140456 26.997745,27.140456 C 18.528582,18.264221 13.291696,25.230495 11.500037,31.436501 z"
             style="fill:#404040;"/>
          </a>
         </g>
        </svg>
</svg>
