<?xml version="1.0" encoding="UTF-8" standalone="no"?>
<!DOCTYPE svg PUBLIC "-//W3C//DTD SVG 1.1//EN"
 "http://www.w3.org/Graphics/SVG/1.1/DTD/svg11.dtd">
<!-- Generated by graphviz version 2.43.0 (0)
 -->
<!-- Title: LocationBarModelImpl::GetSecurityLevel Pages: 1 -->
<svg width="461pt" height="88pt"
 viewBox="0.00 0.00 461.00 88.00" xmlns="http://www.w3.org/2000/svg" xmlns:xlink="http://www.w3.org/1999/xlink">
<g id="graph0" class="graph" transform="scale(1 1) rotate(0) translate(4 84)">
<title>LocationBarModelImpl::GetSecurityLevel</title>
<polygon fill="white" stroke="transparent" points="-4,4 -4,-84 457,-84 457,4 -4,4"/>
<!-- Node1 -->
<g id="node1" class="node">
<title>Node1</title>
<g id="a_node1"><a xlink:title=" ">
<polygon fill="#bfbfbf" stroke="black" points="0,-24.5 0,-54.5 113,-54.5 113,-24.5 0,-24.5"/>
<text text-anchor="start" x="8" y="-42.5" font-family="Helvetica,sans-Serif" font-size="10.00">LocationBarModelImpl</text>
<text text-anchor="middle" x="56.5" y="-31.5" font-family="Helvetica,sans-Serif" font-size="10.00">::GetSecurityLevel</text>
</a>
</g>
</g>
<!-- Node2 -->
<g id="node2" class="node">
<title>Node2</title>
<g id="a_node2"><a xlink:href="../../de/dd9/classLocationBarModelDelegate.html#a7ac65c8acbf7231d3ccbcf2b85a50263" target="_top" xlink:title=" ">
<polygon fill="white" stroke="black" points="149,-49.5 149,-79.5 283,-79.5 283,-49.5 149,-49.5"/>
<text text-anchor="start" x="157" y="-67.5" font-family="Helvetica,sans-Serif" font-size="10.00">LocationBarModelDelegate</text>
<text text-anchor="middle" x="216" y="-56.5" font-family="Helvetica,sans-Serif" font-size="10.00">::GetSecurityLevel</text>
</a>
</g>
</g>
<!-- Node1&#45;&gt;Node2 -->
<g id="edge1" class="edge">
<title>Node1&#45;&gt;Node2</title>
<path fill="none" stroke="midnightblue" d="M113.03,-48.31C121.37,-49.64 130.09,-51.02 138.77,-52.4"/>
<polygon fill="midnightblue" stroke="midnightblue" points="138.49,-55.9 148.91,-54.01 139.59,-48.99 138.49,-55.9"/>
</g>
<!-- Node3 -->
<g id="node3" class="node">
<title>Node3</title>
<g id="a_node3"><a xlink:href="../../df/d01/classLocationBarModelImpl.html#a97b7041286cd2b3bbb818dd37901b010" target="_top" xlink:title=" ">
<polygon fill="white" stroke="black" points="159.5,-0.5 159.5,-30.5 272.5,-30.5 272.5,-0.5 159.5,-0.5"/>
<text text-anchor="start" x="167.5" y="-18.5" font-family="Helvetica,sans-Serif" font-size="10.00">LocationBarModelImpl</text>
<text text-anchor="middle" x="216" y="-7.5" font-family="Helvetica,sans-Serif" font-size="10.00">::ShouldDisplayURL</text>
</a>
</g>
</g>
<!-- Node1&#45;&gt;Node3 -->
<g id="edge2" class="edge">
<title>Node1&#45;&gt;Node3</title>
<path fill="none" stroke="midnightblue" d="M113.03,-31.04C124.79,-29.25 137.31,-27.34 149.41,-25.49"/>
<polygon fill="midnightblue" stroke="midnightblue" points="150.08,-28.93 159.44,-23.97 149.03,-22.01 150.08,-28.93"/>
</g>
<!-- Node4 -->
<g id="node4" class="node">
<title>Node4</title>
<g id="a_node4"><a xlink:href="../../de/dd9/classLocationBarModelDelegate.html#acd7eea7b2c51dfdf52570a816dce3ec9" target="_top" xlink:title=" ">
<polygon fill="white" stroke="black" points="319,-0.5 319,-30.5 453,-30.5 453,-0.5 319,-0.5"/>
<text text-anchor="start" x="327" y="-18.5" font-family="Helvetica,sans-Serif" font-size="10.00">LocationBarModelDelegate</text>
<text text-anchor="middle" x="386" y="-7.5" font-family="Helvetica,sans-Serif" font-size="10.00">::ShouldDisplayURL</text>
</a>
</g>
</g>
<!-- Node3&#45;&gt;Node4 -->
<g id="edge3" class="edge">
<title>Node3&#45;&gt;Node4</title>
<path fill="none" stroke="midnightblue" d="M272.94,-15.5C284.43,-15.5 296.7,-15.5 308.76,-15.5"/>
<polygon fill="midnightblue" stroke="midnightblue" points="308.82,-19 318.82,-15.5 308.82,-12 308.82,-19"/>
</g>
</g>
</svg>
