<?xml version="1.0" encoding="UTF-8" standalone="no"?>
<!DOCTYPE svg PUBLIC "-//W3C//DTD SVG 1.1//EN"
 "http://www.w3.org/Graphics/SVG/1.1/DTD/svg11.dtd">
<!-- Generated by graphviz version 2.43.0 (0)
 -->
<!-- Title: OmniboxPopupModel::GetNextSelection Pages: 1 -->
<svg width="1034pt" height="248pt"
 viewBox="0.00 0.00 1034.00 248.00" xmlns="http://www.w3.org/2000/svg" xmlns:xlink="http://www.w3.org/1999/xlink">
<g id="graph0" class="graph" transform="scale(1 1) rotate(0) translate(4 244)">
<title>OmniboxPopupModel::GetNextSelection</title>
<polygon fill="white" stroke="transparent" points="-4,4 -4,-244 1030,-244 1030,4 -4,4"/>
<!-- Node1 -->
<g id="node1" class="node">
<title>Node1</title>
<g id="a_node1"><a xlink:title=" ">
<polygon fill="#bfbfbf" stroke="black" points="0,-148.5 0,-178.5 116,-178.5 116,-148.5 0,-148.5"/>
<text text-anchor="start" x="8" y="-166.5" font-family="Helvetica,sans-Serif" font-size="10.00">OmniboxPopupModel::</text>
<text text-anchor="middle" x="58" y="-155.5" font-family="Helvetica,sans-Serif" font-size="10.00">GetNextSelection</text>
</a>
</g>
</g>
<!-- Node2 -->
<g id="node2" class="node">
<title>Node2</title>
<g id="a_node2"><a xlink:href="../../d1/db1/classOmniboxPopupModel.html#ad43bcb8640447e5211b016f49139c186" target="_top" xlink:title=" ">
<polygon fill="white" stroke="black" points="152,-110.5 152,-140.5 310,-140.5 310,-110.5 152,-110.5"/>
<text text-anchor="start" x="160" y="-128.5" font-family="Helvetica,sans-Serif" font-size="10.00">OmniboxPopupModel::</text>
<text text-anchor="middle" x="231" y="-117.5" font-family="Helvetica,sans-Serif" font-size="10.00">GetAllAvailableSelectionsSorted</text>
</a>
</g>
</g>
<!-- Node1&#45;&gt;Node2 -->
<g id="edge1" class="edge">
<title>Node1&#45;&gt;Node2</title>
<path fill="none" stroke="midnightblue" d="M116.42,-150.74C127.94,-148.18 140.23,-145.45 152.3,-142.77"/>
<polygon fill="midnightblue" stroke="midnightblue" points="153.38,-146.11 162.38,-140.53 151.86,-139.28 153.38,-146.11"/>
</g>
<!-- Node6 -->
<g id="node6" class="node">
<title>Node6</title>
<g id="a_node6"><a xlink:href="../../d1/db1/classOmniboxPopupModel.html#a819a99147bf9bc6ad4f7096218a388b0" target="_top" xlink:title=" ">
<polygon fill="white" stroke="black" points="533,-184.5 533,-214.5 649,-214.5 649,-184.5 533,-184.5"/>
<text text-anchor="start" x="541" y="-202.5" font-family="Helvetica,sans-Serif" font-size="10.00">OmniboxPopupModel::</text>
<text text-anchor="middle" x="591" y="-191.5" font-family="Helvetica,sans-Serif" font-size="10.00">result</text>
</a>
</g>
</g>
<!-- Node1&#45;&gt;Node6 -->
<g id="edge14" class="edge">
<title>Node1&#45;&gt;Node6</title>
<path fill="none" stroke="midnightblue" d="M116.08,-167.37C214.84,-174.07 417.15,-187.78 522.64,-194.93"/>
<polygon fill="midnightblue" stroke="midnightblue" points="522.63,-198.44 532.84,-195.63 523.1,-191.46 522.63,-198.44"/>
</g>
<!-- Node3 -->
<g id="node3" class="node">
<title>Node3</title>
<g id="a_node3"><a xlink:href="../../d1/db1/classOmniboxPopupModel.html#a9a33f6a6cdf9384bf827e63ab2ce6952" target="_top" xlink:title=" ">
<polygon fill="white" stroke="black" points="346,-88.5 346,-118.5 476,-118.5 476,-88.5 346,-88.5"/>
<text text-anchor="start" x="354" y="-106.5" font-family="Helvetica,sans-Serif" font-size="10.00">OmniboxPopupModel::</text>
<text text-anchor="middle" x="411" y="-95.5" font-family="Helvetica,sans-Serif" font-size="10.00">IsControlPresentOnMatch</text>
</a>
</g>
</g>
<!-- Node2&#45;&gt;Node3 -->
<g id="edge2" class="edge">
<title>Node2&#45;&gt;Node3</title>
<path fill="none" stroke="midnightblue" d="M310.07,-115.85C318.57,-114.8 327.21,-113.73 335.66,-112.69"/>
<polygon fill="midnightblue" stroke="midnightblue" points="336.37,-116.13 345.86,-111.43 335.51,-109.18 336.37,-116.13"/>
</g>
<!-- Node4 -->
<g id="node4" class="node">
<title>Node4</title>
<g id="a_node4"><a xlink:href="../../d1/d73/namespaceOmniboxFieldTrial.html#a5946bfcba47abaa751ad85c5fa022f86" target="_top" xlink:title=" ">
<polygon fill="white" stroke="black" points="512,-135.5 512,-165.5 670,-165.5 670,-135.5 512,-135.5"/>
<text text-anchor="start" x="520" y="-153.5" font-family="Helvetica,sans-Serif" font-size="10.00">OmniboxFieldTrial::</text>
<text text-anchor="middle" x="591" y="-142.5" font-family="Helvetica,sans-Serif" font-size="10.00">IsKeywordSearchButtonEnabled</text>
</a>
</g>
</g>
<!-- Node2&#45;&gt;Node4 -->
<g id="edge10" class="edge">
<title>Node2&#45;&gt;Node4</title>
<path fill="none" stroke="midnightblue" d="M310.12,-130.96C366.62,-134.9 443.03,-140.24 501.73,-144.34"/>
<polygon fill="midnightblue" stroke="midnightblue" points="501.52,-147.83 511.74,-145.03 502,-140.85 501.52,-147.83"/>
</g>
<!-- Node2&#45;&gt;Node6 -->
<g id="edge11" class="edge">
<title>Node2&#45;&gt;Node6</title>
<path fill="none" stroke="midnightblue" d="M293.42,-140.55C310.42,-144.58 328.9,-148.83 346,-152.5 405.59,-165.29 473.71,-178.28 522.81,-187.35"/>
<polygon fill="midnightblue" stroke="midnightblue" points="522.2,-190.8 532.67,-189.16 523.47,-183.91 522.2,-190.8"/>
</g>
<!-- Node10 -->
<g id="node10" class="node">
<title>Node10</title>
<g id="a_node10"><a xlink:href="../../d1/db1/classOmniboxPopupModel.html#aefaa1c821356750ca507e8db8bfd1309" target="_top" xlink:title=" ">
<polygon fill="white" stroke="black" points="533,-37.5 533,-67.5 649,-67.5 649,-37.5 533,-37.5"/>
<text text-anchor="start" x="541" y="-55.5" font-family="Helvetica,sans-Serif" font-size="10.00">OmniboxPopupModel::</text>
<text text-anchor="middle" x="591" y="-44.5" font-family="Helvetica,sans-Serif" font-size="10.00">selection</text>
</a>
</g>
</g>
<!-- Node2&#45;&gt;Node10 -->
<g id="edge12" class="edge">
<title>Node2&#45;&gt;Node10</title>
<path fill="none" stroke="midnightblue" d="M262.16,-110.29C284.68,-99.62 316.54,-85.98 346,-78.5 404.59,-63.63 473.2,-57.25 522.72,-54.53"/>
<polygon fill="midnightblue" stroke="midnightblue" points="523.18,-58.01 532.99,-54 522.82,-51.02 523.18,-58.01"/>
</g>
<!-- Node11 -->
<g id="node11" class="node">
<title>Node11</title>
<g id="a_node11"><a xlink:href="../../d3/d03/classAutocompleteResult.html#a64a7947a81e007d5aa56ac9b25e84bb6" target="_top" xlink:title=" ">
<polygon fill="white" stroke="black" points="358.5,-0.5 358.5,-30.5 463.5,-30.5 463.5,-0.5 358.5,-0.5"/>
<text text-anchor="start" x="366.5" y="-18.5" font-family="Helvetica,sans-Serif" font-size="10.00">AutocompleteResult</text>
<text text-anchor="middle" x="411" y="-7.5" font-family="Helvetica,sans-Serif" font-size="10.00">::size</text>
</a>
</g>
</g>
<!-- Node2&#45;&gt;Node11 -->
<g id="edge13" class="edge">
<title>Node2&#45;&gt;Node11</title>
<path fill="none" stroke="midnightblue" d="M251.49,-110.25C273.65,-93.29 311.27,-65.62 346,-45.5 352.28,-41.86 359.07,-38.31 365.8,-34.98"/>
<polygon fill="midnightblue" stroke="midnightblue" points="367.4,-38.1 374.9,-30.62 364.37,-31.79 367.4,-38.1"/>
</g>
<!-- Node3&#45;&gt;Node4 -->
<g id="edge3" class="edge">
<title>Node3&#45;&gt;Node4</title>
<path fill="none" stroke="midnightblue" d="M468.81,-118.5C486.15,-123.08 505.38,-128.16 523.31,-132.89"/>
<polygon fill="midnightblue" stroke="midnightblue" points="522.56,-136.31 533.12,-135.48 524.34,-129.54 522.56,-136.31"/>
</g>
<!-- Node5 -->
<g id="node5" class="node">
<title>Node5</title>
<g id="a_node5"><a xlink:href="../../d3/d03/classAutocompleteResult.html#a1532251921e2112a24e3a52ec7ee4535" target="_top" xlink:title=" ">
<polygon fill="white" stroke="black" points="538.5,-86.5 538.5,-116.5 643.5,-116.5 643.5,-86.5 538.5,-86.5"/>
<text text-anchor="start" x="546.5" y="-104.5" font-family="Helvetica,sans-Serif" font-size="10.00">AutocompleteResult</text>
<text text-anchor="middle" x="591" y="-93.5" font-family="Helvetica,sans-Serif" font-size="10.00">::match_at</text>
</a>
</g>
</g>
<!-- Node3&#45;&gt;Node5 -->
<g id="edge4" class="edge">
<title>Node3&#45;&gt;Node5</title>
<path fill="none" stroke="midnightblue" d="M476.01,-102.78C492.93,-102.59 511.16,-102.39 527.98,-102.2"/>
<polygon fill="midnightblue" stroke="midnightblue" points="528.28,-105.69 538.24,-102.08 528.2,-98.69 528.28,-105.69"/>
</g>
<!-- Node3&#45;&gt;Node6 -->
<g id="edge5" class="edge">
<title>Node3&#45;&gt;Node6</title>
<path fill="none" stroke="midnightblue" d="M429.71,-118.66C448.91,-134.44 480.96,-158.97 512,-174.5 516.5,-176.75 521.24,-178.85 526.07,-180.81"/>
<polygon fill="midnightblue" stroke="midnightblue" points="524.84,-184.09 535.44,-184.39 527.34,-177.55 524.84,-184.09"/>
</g>
<!-- Node3&#45;&gt;Node10 -->
<g id="edge9" class="edge">
<title>Node3&#45;&gt;Node10</title>
<path fill="none" stroke="midnightblue" d="M464.44,-88.47C484.36,-82.77 507.24,-76.21 527.96,-70.28"/>
<polygon fill="midnightblue" stroke="midnightblue" points="528.98,-73.63 537.62,-67.51 527.05,-66.9 528.98,-73.63"/>
</g>
<!-- Node7 -->
<g id="node7" class="node">
<title>Node7</title>
<g id="a_node7"><a xlink:href="../../d1/db1/classOmniboxPopupModel.html#a15465ac89016d4717442d3be4e43f3ae" target="_top" xlink:title=" ">
<polygon fill="white" stroke="black" points="706,-209.5 706,-239.5 826,-239.5 826,-209.5 706,-209.5"/>
<text text-anchor="start" x="714" y="-227.5" font-family="Helvetica,sans-Serif" font-size="10.00">OmniboxPopupModel::</text>
<text text-anchor="middle" x="766" y="-216.5" font-family="Helvetica,sans-Serif" font-size="10.00">autocomplete_controller</text>
</a>
</g>
</g>
<!-- Node6&#45;&gt;Node7 -->
<g id="edge6" class="edge">
<title>Node6&#45;&gt;Node7</title>
<path fill="none" stroke="midnightblue" d="M649.13,-207.76C664.06,-209.91 680.32,-212.26 695.81,-214.5"/>
<polygon fill="midnightblue" stroke="midnightblue" points="695.46,-217.99 705.86,-215.95 696.46,-211.06 695.46,-217.99"/>
</g>
<!-- Node9 -->
<g id="node9" class="node">
<title>Node9</title>
<g id="a_node9"><a xlink:href="../../df/d4d/classAutocompleteController.html#a4aad481d8777819a1acec95affee80b2" target="_top" xlink:title=" ">
<polygon fill="white" stroke="black" points="706.5,-160.5 706.5,-190.5 825.5,-190.5 825.5,-160.5 706.5,-160.5"/>
<text text-anchor="start" x="714.5" y="-178.5" font-family="Helvetica,sans-Serif" font-size="10.00">AutocompleteController</text>
<text text-anchor="middle" x="766" y="-167.5" font-family="Helvetica,sans-Serif" font-size="10.00">::result</text>
</a>
</g>
</g>
<!-- Node6&#45;&gt;Node9 -->
<g id="edge8" class="edge">
<title>Node6&#45;&gt;Node9</title>
<path fill="none" stroke="midnightblue" d="M649.13,-191.57C664.22,-189.48 680.68,-187.2 696.32,-185.03"/>
<polygon fill="midnightblue" stroke="midnightblue" points="697.03,-188.46 706.45,-183.62 696.07,-181.53 697.03,-188.46"/>
</g>
<!-- Node8 -->
<g id="node8" class="node">
<title>Node8</title>
<g id="a_node8"><a xlink:href="../../d0/d22/classOmniboxEditModel.html#a8c8a925ee670cdc9bd5c0ad8b07fa1a0" target="_top" xlink:title=" ">
<polygon fill="white" stroke="black" points="862,-209.5 862,-239.5 1026,-239.5 1026,-209.5 862,-209.5"/>
<text text-anchor="start" x="870" y="-227.5" font-family="Helvetica,sans-Serif" font-size="10.00">OmniboxEditModel::autocomplete</text>
<text text-anchor="middle" x="944" y="-216.5" font-family="Helvetica,sans-Serif" font-size="10.00">_controller</text>
</a>
</g>
</g>
<!-- Node7&#45;&gt;Node8 -->
<g id="edge7" class="edge">
<title>Node7&#45;&gt;Node8</title>
<path fill="none" stroke="midnightblue" d="M826.1,-224.5C834.35,-224.5 842.99,-224.5 851.66,-224.5"/>
<polygon fill="midnightblue" stroke="midnightblue" points="851.85,-228 861.85,-224.5 851.85,-221 851.85,-228"/>
</g>
</g>
</svg>
