<?xml version="1.0" encoding="UTF-8" standalone="no"?>
<!DOCTYPE svg PUBLIC "-//W3C//DTD SVG 1.1//EN"
 "http://www.w3.org/Graphics/SVG/1.1/DTD/svg11.dtd">
<!-- Generated by graphviz version 2.43.0 (0)
 -->
<!-- Title: OmniboxPopupModel::StepSelection Pages: 1 -->
<svg width="478pt" height="61pt"
 viewBox="0.00 0.00 478.00 61.00" xmlns="http://www.w3.org/2000/svg" xmlns:xlink="http://www.w3.org/1999/xlink">
<g id="graph0" class="graph" transform="scale(1 1) rotate(0) translate(4 57)">
<title>OmniboxPopupModel::StepSelection</title>
<polygon fill="white" stroke="transparent" points="-4,4 -4,-57 474,-57 474,4 -4,4"/>
<!-- Node1 -->
<g id="node1" class="node">
<title>Node1</title>
<g id="a_node1"><a xlink:title=" ">
<polygon fill="#bfbfbf" stroke="black" points="354,-0.5 354,-30.5 470,-30.5 470,-0.5 354,-0.5"/>
<text text-anchor="start" x="362" y="-18.5" font-family="Helvetica,sans-Serif" font-size="10.00">OmniboxPopupModel::</text>
<text text-anchor="middle" x="412" y="-7.5" font-family="Helvetica,sans-Serif" font-size="10.00">StepSelection</text>
</a>
</g>
</g>
<!-- Node2 -->
<g id="node2" class="node">
<title>Node2</title>
<g id="a_node2"><a xlink:href="../../d0/d94/classOmniboxViewViews.html#a914ba78328ab785df56d9b0cbdee157e" target="_top" xlink:title=" ">
<polygon fill="white" stroke="black" points="177,-22.5 177,-52.5 318,-52.5 318,-22.5 177,-22.5"/>
<text text-anchor="start" x="185" y="-40.5" font-family="Helvetica,sans-Serif" font-size="10.00">OmniboxViewViews::Handle</text>
<text text-anchor="middle" x="247.5" y="-29.5" font-family="Helvetica,sans-Serif" font-size="10.00">EarlyTabActions</text>
</a>
</g>
</g>
<!-- Node1&#45;&gt;Node2 -->
<g id="edge1" class="edge">
<title>Node1&#45;&gt;Node2</title>
<path fill="none" stroke="midnightblue" d="M343.57,-24.63C335.16,-25.77 326.54,-26.93 318.1,-28.08"/>
<polygon fill="midnightblue" stroke="midnightblue" points="344.27,-28.07 353.71,-23.26 343.33,-21.13 344.27,-28.07"/>
</g>
<!-- Node3 -->
<g id="node3" class="node">
<title>Node3</title>
<g id="a_node3"><a xlink:href="../../d0/d94/classOmniboxViewViews.html#a5a64c1e16631c3301fb57307402784dc" target="_top" xlink:title=" ">
<polygon fill="white" stroke="black" points="0,-0.5 0,-30.5 141,-30.5 141,-0.5 0,-0.5"/>
<text text-anchor="start" x="8" y="-18.5" font-family="Helvetica,sans-Serif" font-size="10.00">OmniboxViewViews::Handle</text>
<text text-anchor="middle" x="70.5" y="-7.5" font-family="Helvetica,sans-Serif" font-size="10.00">KeyEvent</text>
</a>
</g>
</g>
<!-- Node1&#45;&gt;Node3 -->
<g id="edge3" class="edge">
<title>Node1&#45;&gt;Node3</title>
<path fill="none" stroke="midnightblue" d="M343.82,-13.88C335.14,-13.73 326.36,-13.59 318,-13.5 255.34,-12.83 239.66,-12.91 177,-13.5 165.37,-13.61 153.02,-13.79 141.02,-14"/>
<polygon fill="midnightblue" stroke="midnightblue" points="343.89,-17.39 353.95,-14.08 344.02,-10.39 343.89,-17.39"/>
</g>
<!-- Node2&#45;&gt;Node3 -->
<g id="edge2" class="edge">
<title>Node2&#45;&gt;Node3</title>
<path fill="none" stroke="midnightblue" d="M166.85,-27.49C158.3,-26.41 149.64,-25.32 141.21,-24.26"/>
<polygon fill="midnightblue" stroke="midnightblue" points="166.47,-30.97 176.83,-28.74 167.35,-24.02 166.47,-30.97"/>
</g>
</g>
</svg>
