<?xml version="1.0" encoding="UTF-8" standalone="no"?>
<!DOCTYPE svg PUBLIC "-//W3C//DTD SVG 1.1//EN"
 "http://www.w3.org/Graphics/SVG/1.1/DTD/svg11.dtd">
<!-- Generated by graphviz version 2.43.0 (0)
 -->
<!-- Title: OmniboxPopupModel::IsControlPresentOnMatch Pages: 1 -->
<svg width="688pt" height="186pt"
 viewBox="0.00 0.00 688.00 186.00" xmlns="http://www.w3.org/2000/svg" xmlns:xlink="http://www.w3.org/1999/xlink">
<g id="graph0" class="graph" transform="scale(1 1) rotate(0) translate(4 182)">
<title>OmniboxPopupModel::IsControlPresentOnMatch</title>
<polygon fill="white" stroke="transparent" points="-4,4 -4,-182 684,-182 684,4 -4,4"/>
<!-- Node1 -->
<g id="node1" class="node">
<title>Node1</title>
<g id="a_node1"><a xlink:title=" ">
<polygon fill="#bfbfbf" stroke="black" points="0,-73.5 0,-103.5 130,-103.5 130,-73.5 0,-73.5"/>
<text text-anchor="start" x="8" y="-91.5" font-family="Helvetica,sans-Serif" font-size="10.00">OmniboxPopupModel::</text>
<text text-anchor="middle" x="65" y="-80.5" font-family="Helvetica,sans-Serif" font-size="10.00">IsControlPresentOnMatch</text>
</a>
</g>
</g>
<!-- Node2 -->
<g id="node2" class="node">
<title>Node2</title>
<g id="a_node2"><a xlink:href="../../d1/d73/namespaceOmniboxFieldTrial.html#a5946bfcba47abaa751ad85c5fa022f86" target="_top" xlink:title=" ">
<polygon fill="white" stroke="black" points="166,-147.5 166,-177.5 324,-177.5 324,-147.5 166,-147.5"/>
<text text-anchor="start" x="174" y="-165.5" font-family="Helvetica,sans-Serif" font-size="10.00">OmniboxFieldTrial::</text>
<text text-anchor="middle" x="245" y="-154.5" font-family="Helvetica,sans-Serif" font-size="10.00">IsKeywordSearchButtonEnabled</text>
</a>
</g>
</g>
<!-- Node1&#45;&gt;Node2 -->
<g id="edge1" class="edge">
<title>Node1&#45;&gt;Node2</title>
<path fill="none" stroke="midnightblue" d="M93.03,-103.54C112.84,-114.19 140.59,-128.32 166,-138.5 170.81,-140.43 175.83,-142.29 180.92,-144.08"/>
<polygon fill="midnightblue" stroke="midnightblue" points="180.13,-147.5 190.72,-147.4 182.37,-140.87 180.13,-147.5"/>
</g>
<!-- Node3 -->
<g id="node3" class="node">
<title>Node3</title>
<g id="a_node3"><a xlink:href="../../d3/d03/classAutocompleteResult.html#a1532251921e2112a24e3a52ec7ee4535" target="_top" xlink:title=" ">
<polygon fill="white" stroke="black" points="192.5,-98.5 192.5,-128.5 297.5,-128.5 297.5,-98.5 192.5,-98.5"/>
<text text-anchor="start" x="200.5" y="-116.5" font-family="Helvetica,sans-Serif" font-size="10.00">AutocompleteResult</text>
<text text-anchor="middle" x="245" y="-105.5" font-family="Helvetica,sans-Serif" font-size="10.00">::match_at</text>
</a>
</g>
</g>
<!-- Node1&#45;&gt;Node3 -->
<g id="edge2" class="edge">
<title>Node1&#45;&gt;Node3</title>
<path fill="none" stroke="midnightblue" d="M130.01,-97.49C146.93,-99.87 165.16,-102.43 181.98,-104.79"/>
<polygon fill="midnightblue" stroke="midnightblue" points="181.85,-108.3 192.24,-106.23 182.82,-101.37 181.85,-108.3"/>
</g>
<!-- Node4 -->
<g id="node4" class="node">
<title>Node4</title>
<g id="a_node4"><a xlink:href="../../d1/db1/classOmniboxPopupModel.html#a819a99147bf9bc6ad4f7096218a388b0" target="_top" xlink:title=" ">
<polygon fill="white" stroke="black" points="187,-49.5 187,-79.5 303,-79.5 303,-49.5 187,-49.5"/>
<text text-anchor="start" x="195" y="-67.5" font-family="Helvetica,sans-Serif" font-size="10.00">OmniboxPopupModel::</text>
<text text-anchor="middle" x="245" y="-56.5" font-family="Helvetica,sans-Serif" font-size="10.00">result</text>
</a>
</g>
</g>
<!-- Node1&#45;&gt;Node4 -->
<g id="edge3" class="edge">
<title>Node1&#45;&gt;Node4</title>
<path fill="none" stroke="midnightblue" d="M130.01,-79.87C145.22,-77.82 161.48,-75.63 176.83,-73.56"/>
<polygon fill="midnightblue" stroke="midnightblue" points="177.32,-77.02 186.76,-72.22 176.38,-70.09 177.32,-77.02"/>
</g>
<!-- Node8 -->
<g id="node8" class="node">
<title>Node8</title>
<g id="a_node8"><a xlink:href="../../d1/db1/classOmniboxPopupModel.html#aefaa1c821356750ca507e8db8bfd1309" target="_top" xlink:title=" ">
<polygon fill="white" stroke="black" points="187,-0.5 187,-30.5 303,-30.5 303,-0.5 187,-0.5"/>
<text text-anchor="start" x="195" y="-18.5" font-family="Helvetica,sans-Serif" font-size="10.00">OmniboxPopupModel::</text>
<text text-anchor="middle" x="245" y="-7.5" font-family="Helvetica,sans-Serif" font-size="10.00">selection</text>
</a>
</g>
</g>
<!-- Node1&#45;&gt;Node8 -->
<g id="edge7" class="edge">
<title>Node1&#45;&gt;Node8</title>
<path fill="none" stroke="midnightblue" d="M94.85,-73.35C114.57,-63.32 141.49,-50.26 166,-40.5 171.72,-38.22 177.74,-36 183.79,-33.88"/>
<polygon fill="midnightblue" stroke="midnightblue" points="184.96,-37.18 193.29,-30.64 182.7,-30.55 184.96,-37.18"/>
</g>
<!-- Node5 -->
<g id="node5" class="node">
<title>Node5</title>
<g id="a_node5"><a xlink:href="../../d1/db1/classOmniboxPopupModel.html#a15465ac89016d4717442d3be4e43f3ae" target="_top" xlink:title=" ">
<polygon fill="white" stroke="black" points="360,-73.5 360,-103.5 480,-103.5 480,-73.5 360,-73.5"/>
<text text-anchor="start" x="368" y="-91.5" font-family="Helvetica,sans-Serif" font-size="10.00">OmniboxPopupModel::</text>
<text text-anchor="middle" x="420" y="-80.5" font-family="Helvetica,sans-Serif" font-size="10.00">autocomplete_controller</text>
</a>
</g>
</g>
<!-- Node4&#45;&gt;Node5 -->
<g id="edge4" class="edge">
<title>Node4&#45;&gt;Node5</title>
<path fill="none" stroke="midnightblue" d="M303.13,-72.43C318.06,-74.5 334.32,-76.75 349.81,-78.9"/>
<polygon fill="midnightblue" stroke="midnightblue" points="349.47,-82.39 359.86,-80.3 350.44,-75.45 349.47,-82.39"/>
</g>
<!-- Node7 -->
<g id="node7" class="node">
<title>Node7</title>
<g id="a_node7"><a xlink:href="../../df/d4d/classAutocompleteController.html#a4aad481d8777819a1acec95affee80b2" target="_top" xlink:title=" ">
<polygon fill="white" stroke="black" points="360.5,-24.5 360.5,-54.5 479.5,-54.5 479.5,-24.5 360.5,-24.5"/>
<text text-anchor="start" x="368.5" y="-42.5" font-family="Helvetica,sans-Serif" font-size="10.00">AutocompleteController</text>
<text text-anchor="middle" x="420" y="-31.5" font-family="Helvetica,sans-Serif" font-size="10.00">::result</text>
</a>
</g>
</g>
<!-- Node4&#45;&gt;Node7 -->
<g id="edge6" class="edge">
<title>Node4&#45;&gt;Node7</title>
<path fill="none" stroke="midnightblue" d="M303.13,-56.24C318.22,-54.06 334.68,-51.69 350.32,-49.43"/>
<polygon fill="midnightblue" stroke="midnightblue" points="351.06,-52.85 360.45,-47.96 350.06,-45.93 351.06,-52.85"/>
</g>
<!-- Node6 -->
<g id="node6" class="node">
<title>Node6</title>
<g id="a_node6"><a xlink:href="../../d0/d22/classOmniboxEditModel.html#a8c8a925ee670cdc9bd5c0ad8b07fa1a0" target="_top" xlink:title=" ">
<polygon fill="white" stroke="black" points="516,-73.5 516,-103.5 680,-103.5 680,-73.5 516,-73.5"/>
<text text-anchor="start" x="524" y="-91.5" font-family="Helvetica,sans-Serif" font-size="10.00">OmniboxEditModel::autocomplete</text>
<text text-anchor="middle" x="598" y="-80.5" font-family="Helvetica,sans-Serif" font-size="10.00">_controller</text>
</a>
</g>
</g>
<!-- Node5&#45;&gt;Node6 -->
<g id="edge5" class="edge">
<title>Node5&#45;&gt;Node6</title>
<path fill="none" stroke="midnightblue" d="M480.1,-88.5C488.35,-88.5 496.99,-88.5 505.66,-88.5"/>
<polygon fill="midnightblue" stroke="midnightblue" points="505.85,-92 515.85,-88.5 505.85,-85 505.85,-92"/>
</g>
</g>
</svg>
