<?xml version="1.0" encoding="UTF-8" standalone="no"?>
<!DOCTYPE svg PUBLIC "-//W3C//DTD SVG 1.1//EN"
 "http://www.w3.org/Graphics/SVG/1.1/DTD/svg11.dtd">
<!-- Generated by graphviz version 2.43.0 (0)
 -->
<!-- Title: OmniboxPopupModel::OnResultChanged Pages: 1 -->
<!--zoomable 460 -->
<svg id="main" version="1.1" xmlns="http://www.w3.org/2000/svg" xmlns:xlink="http://www.w3.org/1999/xlink" xml:space="preserve" onload="init(evt)">
<style type="text/css"><![CDATA[
.edge:hover path { stroke: red; }
.edge:hover polygon { stroke: red; fill: red; }
]]></style>
<script type="text/javascript"><![CDATA[
var edges = document.getElementsByTagName('g');
if (edges && edges.length) {
  for (var i=0;i<edges.length;i++) {
    if (edges[i].id.substr(0,4)=='edge') {
      edges[i].setAttribute('class','edge');
    }
  }
}
]]></script>
        <defs>
                <circle id="rim" cx="0" cy="0" r="7"/>
                <circle id="rim2" cx="0" cy="0" r="3.5"/>
                <g id="zoomPlus">
                        <use xlink:href="#rim" fill="#404040">
                                <set attributeName="fill" to="#808080" begin="zoomplus.mouseover" end="zoomplus.mouseout"/>
                        </use>
                        <path d="M-4,0h8M0,-4v8" fill="none" stroke="white" stroke-width="1.5" pointer-events="none"/>
                </g>
                <g id="zoomMin">
                        <use xlink:href="#rim" fill="#404040">
                                <set attributeName="fill" to="#808080" begin="zoomminus.mouseover" end="zoomminus.mouseout"/>
                        </use>
                        <path d="M-4,0h8" fill="none" stroke="white" stroke-width="1.5" pointer-events="none"/>
                </g>
                <g id="dirArrow">
                        <path fill="none" stroke="white" stroke-width="1.5" d="M0,-3.0v7 M-2.5,-0.5L0,-3.0L2.5,-0.5"/>
                </g>
               <g id="resetDef">
                       <use xlink:href="#rim2" fill="#404040">
                               <set attributeName="fill" to="#808080" begin="reset.mouseover" end="reset.mouseout"/>
                       </use>
               </g>
        </defs>

<script type="text/javascript">
var viewWidth = 668;
var viewHeight = 460;
var sectionId = 'dynsection-21';
</script>
<script xlink:href="../../svgpan.js"/>
<svg id="graph" class="graph">
<g id="viewport">
<title>OmniboxPopupModel::OnResultChanged</title>
<polygon fill="white" stroke="transparent" points="-4,4 -4,-455.5 664,-455.5 664,4 -4,4"/>
<!-- Node1 -->
<g id="node1" class="node">
<title>Node1</title>
<g id="a_node1"><a xlink:title=" ">
<polygon fill="#bfbfbf" stroke="black" points="0,-220.5 0,-250.5 116,-250.5 116,-220.5 0,-220.5"/>
<text text-anchor="start" x="8" y="-238.5" font-family="Helvetica,sans-Serif" font-size="10.00">OmniboxPopupModel::</text>
<text text-anchor="middle" x="58" y="-227.5" font-family="Helvetica,sans-Serif" font-size="10.00">OnResultChanged</text>
</a>
</g>
</g>
<!-- Node2 -->
<g id="node2" class="node">
<title>Node2</title>
<g id="a_node2"><a xlink:href="../../d0/d22/classOmniboxEditModel.html#ad4c23db832a06ca44fb769a87cebd6e9" target="_top" xlink:title=" ">
<polygon fill="white" stroke="black" points="152,-432 152,-451 297,-451 297,-432 152,-432"/>
<text text-anchor="middle" x="224.5" y="-439" font-family="Helvetica,sans-Serif" font-size="10.00">OmniboxEditModel::controller</text>
</a>
</g>
</g>
<!-- Node1&#45;&gt;Node2 -->
<g id="edge1" class="edge">
<title>Node1&#45;&gt;Node2</title>
<path fill="none" stroke="midnightblue" d="M62.03,-250.5C70.03,-286.09 95.12,-376.07 152,-422.5 154.16,-424.27 156.48,-425.87 158.9,-427.33"/>
<polygon fill="midnightblue" stroke="midnightblue" points="157.56,-430.57 168.06,-431.97 160.72,-424.33 157.56,-430.57"/>
</g>
<!-- Node3 -->
<g id="node3" class="node">
<title>Node3</title>
<g id="a_node3"><a xlink:href="../../d3/d03/classAutocompleteResult.html#a41fc37ec73816fce3ea244e3401aac5b" target="_top" xlink:title=" ">
<polygon fill="white" stroke="black" points="172,-382.5 172,-412.5 277,-412.5 277,-382.5 172,-382.5"/>
<text text-anchor="start" x="180" y="-400.5" font-family="Helvetica,sans-Serif" font-size="10.00">AutocompleteResult</text>
<text text-anchor="middle" x="224.5" y="-389.5" font-family="Helvetica,sans-Serif" font-size="10.00">::default_match</text>
</a>
</g>
</g>
<!-- Node1&#45;&gt;Node3 -->
<g id="edge2" class="edge">
<title>Node1&#45;&gt;Node3</title>
<path fill="none" stroke="midnightblue" d="M65.33,-250.6C77.81,-278.62 108.24,-338.86 152,-372.5 155.34,-375.07 158.97,-377.39 162.76,-379.48"/>
<polygon fill="midnightblue" stroke="midnightblue" points="161.31,-382.67 171.83,-383.95 164.41,-376.39 161.31,-382.67"/>
</g>
<!-- Node6 -->
<g id="node6" class="node">
<title>Node6</title>
<g id="a_node6"><a xlink:href="../../db/de1/classOmniboxPopupView.html#ab590e106e3a2f53bfa45712f529cf106" target="_top" xlink:title=" ">
<polygon fill="white" stroke="black" points="153,-344 153,-363 296,-363 296,-344 153,-344"/>
<text text-anchor="middle" x="224.5" y="-351" font-family="Helvetica,sans-Serif" font-size="10.00">OmniboxPopupView::IsOpen</text>
</a>
</g>
</g>
<!-- Node1&#45;&gt;Node6 -->
<g id="edge5" class="edge">
<title>Node1&#45;&gt;Node6</title>
<path fill="none" stroke="midnightblue" d="M69.09,-250.74C84.38,-272.64 115.55,-312.74 152,-334.5 155.66,-336.68 159.57,-338.62 163.61,-340.34"/>
<polygon fill="midnightblue" stroke="midnightblue" points="162.61,-343.7 173.2,-343.96 165.08,-337.16 162.61,-343.7"/>
</g>
<!-- Node7 -->
<g id="node7" class="node">
<title>Node7</title>
<g id="a_node7"><a xlink:href="../../d3/d03/classAutocompleteResult.html#a1532251921e2112a24e3a52ec7ee4535" target="_top" xlink:title=" ">
<polygon fill="white" stroke="black" points="172,-294.5 172,-324.5 277,-324.5 277,-294.5 172,-294.5"/>
<text text-anchor="start" x="180" y="-312.5" font-family="Helvetica,sans-Serif" font-size="10.00">AutocompleteResult</text>
<text text-anchor="middle" x="224.5" y="-301.5" font-family="Helvetica,sans-Serif" font-size="10.00">::match_at</text>
</a>
</g>
</g>
<!-- Node1&#45;&gt;Node7 -->
<g id="edge6" class="edge">
<title>Node1&#45;&gt;Node7</title>
<path fill="none" stroke="midnightblue" d="M84.47,-250.71C102.84,-261.31 128.45,-275.3 152,-285.5 156.35,-287.38 160.9,-289.22 165.51,-290.97"/>
<polygon fill="midnightblue" stroke="midnightblue" points="164.41,-294.3 175,-294.46 166.83,-287.73 164.41,-294.3"/>
</g>
<!-- Node8 -->
<g id="node8" class="node">
<title>Node8</title>
<g id="a_node8"><a xlink:href="../../dc/d81/classOmniboxEditController.html#af6e30aca935108514f1e91722ce87a91" target="_top" xlink:title=" ">
<polygon fill="white" stroke="black" points="155,-245.5 155,-275.5 294,-275.5 294,-245.5 155,-245.5"/>
<text text-anchor="start" x="163" y="-263.5" font-family="Helvetica,sans-Serif" font-size="10.00">OmniboxEditController</text>
<text text-anchor="middle" x="224.5" y="-252.5" font-family="Helvetica,sans-Serif" font-size="10.00">::OnPopupVisibilityChanged</text>
</a>
</g>
</g>
<!-- Node1&#45;&gt;Node8 -->
<g id="edge7" class="edge">
<title>Node1&#45;&gt;Node8</title>
<path fill="none" stroke="midnightblue" d="M116.07,-244.17C125.37,-245.59 135.14,-247.07 144.85,-248.55"/>
<polygon fill="midnightblue" stroke="midnightblue" points="144.5,-252.03 154.92,-250.08 145.56,-245.11 144.5,-252.03"/>
</g>
<!-- Node9 -->
<g id="node9" class="node">
<title>Node9</title>
<g id="a_node9"><a xlink:href="../../d1/db1/classOmniboxPopupModel.html#a819a99147bf9bc6ad4f7096218a388b0" target="_top" xlink:title=" ">
<polygon fill="white" stroke="black" points="166.5,-196.5 166.5,-226.5 282.5,-226.5 282.5,-196.5 166.5,-196.5"/>
<text text-anchor="start" x="174.5" y="-214.5" font-family="Helvetica,sans-Serif" font-size="10.00">OmniboxPopupModel::</text>
<text text-anchor="middle" x="224.5" y="-203.5" font-family="Helvetica,sans-Serif" font-size="10.00">result</text>
</a>
</g>
</g>
<!-- Node1&#45;&gt;Node9 -->
<g id="edge8" class="edge">
<title>Node1&#45;&gt;Node9</title>
<path fill="none" stroke="midnightblue" d="M116.07,-227.17C129.01,-225.29 142.87,-223.26 156.19,-221.32"/>
<polygon fill="midnightblue" stroke="midnightblue" points="156.86,-224.76 166.25,-219.85 155.85,-217.83 156.86,-224.76"/>
</g>
<!-- Node13 -->
<g id="node13" class="node">
<title>Node13</title>
<g id="a_node13"><a xlink:href="../../d1/db1/classOmniboxPopupModel.html#ac7f0c94e4da21543213dbef3ce023aca" target="_top" xlink:title=" ">
<polygon fill="white" stroke="black" points="166.5,-147.5 166.5,-177.5 282.5,-177.5 282.5,-147.5 166.5,-147.5"/>
<text text-anchor="start" x="174.5" y="-165.5" font-family="Helvetica,sans-Serif" font-size="10.00">OmniboxPopupModel::</text>
<text text-anchor="middle" x="224.5" y="-154.5" font-family="Helvetica,sans-Serif" font-size="10.00">selected_line</text>
</a>
</g>
</g>
<!-- Node1&#45;&gt;Node13 -->
<g id="edge12" class="edge">
<title>Node1&#45;&gt;Node13</title>
<path fill="none" stroke="midnightblue" d="M85.78,-220.41C104.11,-210.4 129.14,-197.34 152,-187.5 157.06,-185.32 162.37,-183.19 167.73,-181.14"/>
<polygon fill="midnightblue" stroke="midnightblue" points="169.21,-184.33 177.36,-177.56 166.77,-177.77 169.21,-184.33"/>
</g>
<!-- Node14 -->
<g id="node14" class="node">
<title>Node14</title>
<g id="a_node14"><a xlink:href="../../d1/db1/classOmniboxPopupModel.html#a89f2d7464b757a9707bb7df522a2fea5" target="_top" xlink:title=" ">
<polygon fill="white" stroke="black" points="166.5,-98.5 166.5,-128.5 282.5,-128.5 282.5,-98.5 166.5,-98.5"/>
<text text-anchor="start" x="174.5" y="-116.5" font-family="Helvetica,sans-Serif" font-size="10.00">OmniboxPopupModel::</text>
<text text-anchor="middle" x="224.5" y="-105.5" font-family="Helvetica,sans-Serif" font-size="10.00">selected_line_state</text>
</a>
</g>
</g>
<!-- Node1&#45;&gt;Node14 -->
<g id="edge13" class="edge">
<title>Node1&#45;&gt;Node14</title>
<path fill="none" stroke="midnightblue" d="M69.57,-220.36C85.24,-198.99 116.6,-160.08 152,-137.5 154.57,-135.86 157.26,-134.33 160.03,-132.88"/>
<polygon fill="midnightblue" stroke="midnightblue" points="161.55,-136.03 169.09,-128.59 158.56,-129.71 161.55,-136.03"/>
</g>
<!-- Node15 -->
<g id="node15" class="node">
<title>Node15</title>
<g id="a_node15"><a xlink:href="../../d1/db1/classOmniboxPopupModel.html#aefaa1c821356750ca507e8db8bfd1309" target="_top" xlink:title=" ">
<polygon fill="white" stroke="black" points="166.5,-49.5 166.5,-79.5 282.5,-79.5 282.5,-49.5 166.5,-49.5"/>
<text text-anchor="start" x="174.5" y="-67.5" font-family="Helvetica,sans-Serif" font-size="10.00">OmniboxPopupModel::</text>
<text text-anchor="middle" x="224.5" y="-56.5" font-family="Helvetica,sans-Serif" font-size="10.00">selection</text>
</a>
</g>
</g>
<!-- Node1&#45;&gt;Node15 -->
<g id="edge14" class="edge">
<title>Node1&#45;&gt;Node15</title>
<path fill="none" stroke="midnightblue" d="M64.61,-220.17C76.27,-190.44 105.91,-124.66 152,-88.5 153.76,-87.12 155.6,-85.82 157.5,-84.59"/>
<polygon fill="midnightblue" stroke="midnightblue" points="159.24,-87.63 166.21,-79.66 155.79,-81.54 159.24,-87.63"/>
</g>
<!-- Node16 -->
<g id="node16" class="node">
<title>Node16</title>
<g id="a_node16"><a xlink:href="../../db/de1/classOmniboxPopupView.html#a9cb6b629fed2a68b795227050f1c2342" target="_top" xlink:title=" ">
<polygon fill="white" stroke="black" points="153,-0.5 153,-30.5 296,-30.5 296,-0.5 153,-0.5"/>
<text text-anchor="start" x="161" y="-18.5" font-family="Helvetica,sans-Serif" font-size="10.00">OmniboxPopupView::Update</text>
<text text-anchor="middle" x="224.5" y="-7.5" font-family="Helvetica,sans-Serif" font-size="10.00">PopupAppearance</text>
</a>
</g>
</g>
<!-- Node1&#45;&gt;Node16 -->
<g id="edge15" class="edge">
<title>Node1&#45;&gt;Node16</title>
<path fill="none" stroke="midnightblue" d="M61.95,-220.3C69.84,-183.76 94.81,-90.25 152,-39.5 153.35,-38.31 154.75,-37.17 156.21,-36.09"/>
<polygon fill="midnightblue" stroke="midnightblue" points="158.47,-38.8 165.06,-30.5 154.73,-32.88 158.47,-38.8"/>
</g>
<!-- Node4 -->
<g id="node4" class="node">
<title>Node4</title>
<g id="a_node4"><a xlink:href="../../d3/d03/classAutocompleteResult.html#a4246a4276fdd2b4f5560cd45fa527d28" target="_top" xlink:title=" ">
<polygon fill="white" stroke="black" points="344,-404.5 344,-434.5 449,-434.5 449,-404.5 344,-404.5"/>
<text text-anchor="start" x="352" y="-422.5" font-family="Helvetica,sans-Serif" font-size="10.00">AutocompleteResult</text>
<text text-anchor="middle" x="396.5" y="-411.5" font-family="Helvetica,sans-Serif" font-size="10.00">::begin</text>
</a>
</g>
</g>
<!-- Node3&#45;&gt;Node4 -->
<g id="edge3" class="edge">
<title>Node3&#45;&gt;Node4</title>
<path fill="none" stroke="midnightblue" d="M277.43,-404.22C295.23,-406.52 315.31,-409.12 333.8,-411.52"/>
<polygon fill="midnightblue" stroke="midnightblue" points="333.52,-415.01 343.89,-412.82 334.42,-408.07 333.52,-415.01"/>
</g>
<!-- Node5 -->
<g id="node5" class="node">
<title>Node5</title>
<g id="a_node5"><a xlink:href="../../d3/d03/classAutocompleteResult.html#a5545641c5c0d9473bccf85e267f44b58" target="_top" xlink:title=" ">
<polygon fill="white" stroke="black" points="333,-366 333,-385 460,-385 460,-366 333,-366"/>
<text text-anchor="middle" x="396.5" y="-373" font-family="Helvetica,sans-Serif" font-size="10.00">AutocompleteResult::end</text>
</a>
</g>
</g>
<!-- Node3&#45;&gt;Node5 -->
<g id="edge4" class="edge">
<title>Node3&#45;&gt;Node5</title>
<path fill="none" stroke="midnightblue" d="M277.43,-390.78C291.77,-388.92 307.59,-386.88 322.87,-384.9"/>
<polygon fill="midnightblue" stroke="midnightblue" points="323.35,-388.37 332.81,-383.61 322.45,-381.42 323.35,-388.37"/>
</g>
<!-- Node10 -->
<g id="node10" class="node">
<title>Node10</title>
<g id="a_node10"><a xlink:href="../../d1/db1/classOmniboxPopupModel.html#a15465ac89016d4717442d3be4e43f3ae" target="_top" xlink:title=" ">
<polygon fill="white" stroke="black" points="336.5,-220.5 336.5,-250.5 456.5,-250.5 456.5,-220.5 336.5,-220.5"/>
<text text-anchor="start" x="344.5" y="-238.5" font-family="Helvetica,sans-Serif" font-size="10.00">OmniboxPopupModel::</text>
<text text-anchor="middle" x="396.5" y="-227.5" font-family="Helvetica,sans-Serif" font-size="10.00">autocomplete_controller</text>
</a>
</g>
</g>
<!-- Node9&#45;&gt;Node10 -->
<g id="edge9" class="edge">
<title>Node9&#45;&gt;Node10</title>
<path fill="none" stroke="midnightblue" d="M282.58,-219.56C296.61,-221.54 311.78,-223.68 326.31,-225.73"/>
<polygon fill="midnightblue" stroke="midnightblue" points="325.86,-229.2 336.25,-227.13 326.83,-222.27 325.86,-229.2"/>
</g>
<!-- Node12 -->
<g id="node12" class="node">
<title>Node12</title>
<g id="a_node12"><a xlink:href="../../df/d4d/classAutocompleteController.html#a4aad481d8777819a1acec95affee80b2" target="_top" xlink:title=" ">
<polygon fill="white" stroke="black" points="337,-171.5 337,-201.5 456,-201.5 456,-171.5 337,-171.5"/>
<text text-anchor="start" x="345" y="-189.5" font-family="Helvetica,sans-Serif" font-size="10.00">AutocompleteController</text>
<text text-anchor="middle" x="396.5" y="-178.5" font-family="Helvetica,sans-Serif" font-size="10.00">::result</text>
</a>
</g>
</g>
<!-- Node9&#45;&gt;Node12 -->
<g id="edge11" class="edge">
<title>Node9&#45;&gt;Node12</title>
<path fill="none" stroke="midnightblue" d="M282.58,-203.11C296.77,-201.02 312.12,-198.76 326.8,-196.6"/>
<polygon fill="midnightblue" stroke="midnightblue" points="327.44,-200.05 336.83,-195.13 326.43,-193.12 327.44,-200.05"/>
</g>
<!-- Node11 -->
<g id="node11" class="node">
<title>Node11</title>
<g id="a_node11"><a xlink:href="../../d0/d22/classOmniboxEditModel.html#a8c8a925ee670cdc9bd5c0ad8b07fa1a0" target="_top" xlink:title=" ">
<polygon fill="white" stroke="black" points="496,-220.5 496,-250.5 660,-250.5 660,-220.5 496,-220.5"/>
<text text-anchor="start" x="504" y="-238.5" font-family="Helvetica,sans-Serif" font-size="10.00">OmniboxEditModel::autocomplete</text>
<text text-anchor="middle" x="578" y="-227.5" font-family="Helvetica,sans-Serif" font-size="10.00">_controller</text>
</a>
</g>
</g>
<!-- Node10&#45;&gt;Node11 -->
<g id="edge10" class="edge">
<title>Node10&#45;&gt;Node11</title>
<path fill="none" stroke="midnightblue" d="M456.77,-235.5C466.02,-235.5 475.76,-235.5 485.52,-235.5"/>
<polygon fill="midnightblue" stroke="midnightblue" points="485.68,-239 495.68,-235.5 485.68,-232 485.68,-239"/>
</g>
</g>
</svg>
        <g id="navigator" transform="translate(0 0)" fill="#404254">
                <rect fill="#f2f5e9" fill-opacity="0.5" stroke="#606060" stroke-width=".5" x="0" y="0" width="60" height="60"/>
                <use id="zoomplus" xlink:href="#zoomPlus" x="17" y="9" onmousedown="handleZoom(evt,'in')"/>
                <use id="zoomminus" xlink:href="#zoomMin" x="42" y="9" onmousedown="handleZoom(evt,'out')"/>
                <use id="reset" xlink:href="#resetDef" x="30" y="36" onmousedown="handleReset()"/>
                <g id="arrowUp" xlink:href="#dirArrow" transform="translate(30 24)" onmousedown="handlePan(0,-1)">
                  <use xlink:href="#rim" fill="#404040">
                        <set attributeName="fill" to="#808080" begin="arrowUp.mouseover" end="arrowUp.mouseout"/>
                  </use>
                  <path fill="none" stroke="white" stroke-width="1.5" d="M0,-3.0v7 M-2.5,-0.5L0,-3.0L2.5,-0.5"/>
                </g>
                <g id="arrowRight" xlink:href="#dirArrow" transform="rotate(90) translate(36 -43)" onmousedown="handlePan(1,0)">
                  <use xlink:href="#rim" fill="#404040">
                        <set attributeName="fill" to="#808080" begin="arrowRight.mouseover" end="arrowRight.mouseout"/>
                  </use>
                  <path fill="none" stroke="white" stroke-width="1.5" d="M0,-3.0v7 M-2.5,-0.5L0,-3.0L2.5,-0.5"/>
                </g>
                <g id="arrowDown" xlink:href="#dirArrow" transform="rotate(180) translate(-30 -48)" onmousedown="handlePan(0,1)">
                  <use xlink:href="#rim" fill="#404040">
                        <set attributeName="fill" to="#808080" begin="arrowDown.mouseover" end="arrowDown.mouseout"/>
                  </use>
                  <path fill="none" stroke="white" stroke-width="1.5" d="M0,-3.0v7 M-2.5,-0.5L0,-3.0L2.5,-0.5"/>
                </g>
                <g id="arrowLeft" xlink:href="#dirArrow" transform="rotate(270) translate(-36 17)" onmousedown="handlePan(-1,0)">
                  <use xlink:href="#rim" fill="#404040">
                        <set attributeName="fill" to="#808080" begin="arrowLeft.mouseover" end="arrowLeft.mouseout"/>
                  </use>
                  <path fill="none" stroke="white" stroke-width="1.5" d="M0,-3.0v7 M-2.5,-0.5L0,-3.0L2.5,-0.5"/>
                </g>
        </g>
        <svg viewBox="0 0 15 15" width="100%" height="30px" preserveAspectRatio="xMaxYMin meet">
         <g id="arrow_out" transform="scale(0.3 0.3)">
          <a xlink:href="classOmniboxPopupModel_a01ba11633e6cf96521cdb7cd772f6c2c_cgraph_org.svg" target="_base">
           <rect id="button" ry="5" rx="5" y="6" x="6" height="38" width="38"
                fill="#f2f5e9" fill-opacity="0.5" stroke="#606060" stroke-width="1.0"/>
           <path id="arrow"
             d="M 11.500037,31.436501 C 11.940474,20.09759 22.043105,11.32322 32.158766,21.979434 L 37.068811,17.246167 C 37.068811,17.246167 37.088388,32 37.088388,32 L 22.160133,31.978069 C 22.160133,31.978069 26.997745,27.140456 26.997745,27.140456 C 18.528582,18.264221 13.291696,25.230495 11.500037,31.436501 z"
             style="fill:#404040;"/>
          </a>
         </g>
        </svg>
</svg>
