<?xml version="1.0" encoding="UTF-8" standalone="no"?>
<!DOCTYPE svg PUBLIC "-//W3C//DTD SVG 1.1//EN"
 "http://www.w3.org/Graphics/SVG/1.1/DTD/svg11.dtd">
<!-- Generated by graphviz version 2.43.0 (0)
 -->
<!-- Title: OmniboxPedalCreateGoogleForm Pages: 1 -->
<svg width="171pt" height="263pt"
 viewBox="0.00 0.00 171.00 263.00" xmlns="http://www.w3.org/2000/svg" xmlns:xlink="http://www.w3.org/1999/xlink">
<g id="graph0" class="graph" transform="scale(1 1) rotate(0) translate(4 259)">
<title>OmniboxPedalCreateGoogleForm</title>
<polygon fill="white" stroke="transparent" points="-4,4 -4,-259 167,-259 167,4 -4,4"/>
<!-- Node1 -->
<g id="node1" class="node">
<title>Node1</title>
<g id="a_node1"><a xlink:title=" ">
<polygon fill="#bfbfbf" stroke="black" points="0,-0.5 0,-19.5 163,-19.5 163,-0.5 0,-0.5"/>
<text text-anchor="middle" x="81.5" y="-7.5" font-family="Helvetica,sans-Serif" font-size="10.00">OmniboxPedalCreateGoogleForm</text>
</a>
</g>
</g>
<!-- Node2 -->
<g id="node2" class="node">
<title>Node2</title>
<g id="a_node2"><a xlink:href="../../d8/d15/classOmniboxPedalAuthRequired.html" target="_top" xlink:title=" ">
<polygon fill="white" stroke="black" points="11.5,-56.5 11.5,-75.5 151.5,-75.5 151.5,-56.5 11.5,-56.5"/>
<text text-anchor="middle" x="81.5" y="-63.5" font-family="Helvetica,sans-Serif" font-size="10.00">OmniboxPedalAuthRequired</text>
</a>
</g>
</g>
<!-- Node2&#45;&gt;Node1 -->
<g id="edge1" class="edge">
<title>Node2&#45;&gt;Node1</title>
<path fill="none" stroke="midnightblue" d="M81.5,-45.8C81.5,-36.91 81.5,-26.78 81.5,-19.75"/>
<polygon fill="midnightblue" stroke="midnightblue" points="78,-46.08 81.5,-56.08 85,-46.08 78,-46.08"/>
</g>
<!-- Node3 -->
<g id="node3" class="node">
<title>Node3</title>
<g id="a_node3"><a xlink:href="../../d4/de9/classOmniboxPedal.html" target="_top" xlink:title=" ">
<polygon fill="white" stroke="black" points="41.5,-112.5 41.5,-131.5 121.5,-131.5 121.5,-112.5 41.5,-112.5"/>
<text text-anchor="middle" x="81.5" y="-119.5" font-family="Helvetica,sans-Serif" font-size="10.00">OmniboxPedal</text>
</a>
</g>
</g>
<!-- Node3&#45;&gt;Node2 -->
<g id="edge2" class="edge">
<title>Node3&#45;&gt;Node2</title>
<path fill="none" stroke="midnightblue" d="M81.5,-101.8C81.5,-92.91 81.5,-82.78 81.5,-75.75"/>
<polygon fill="midnightblue" stroke="midnightblue" points="78,-102.08 81.5,-112.08 85,-102.08 78,-102.08"/>
</g>
<!-- Node4 -->
<g id="node4" class="node">
<title>Node4</title>
<g id="a_node4"><a xlink:href="../../d9/d8f/classOmniboxAction.html" target="_top" xlink:title=" ">
<polygon fill="white" stroke="black" points="40,-168.5 40,-187.5 123,-187.5 123,-168.5 40,-168.5"/>
<text text-anchor="middle" x="81.5" y="-175.5" font-family="Helvetica,sans-Serif" font-size="10.00">OmniboxAction</text>
</a>
</g>
</g>
<!-- Node4&#45;&gt;Node3 -->
<g id="edge3" class="edge">
<title>Node4&#45;&gt;Node3</title>
<path fill="none" stroke="midnightblue" d="M81.5,-157.8C81.5,-148.91 81.5,-138.78 81.5,-131.75"/>
<polygon fill="midnightblue" stroke="midnightblue" points="78,-158.08 81.5,-168.08 85,-158.08 78,-158.08"/>
</g>
<!-- Node5 -->
<g id="node5" class="node">
<title>Node5</title>
<g id="a_node5"><a xlink:title=" ">
<polygon fill="white" stroke="#bfbfbf" points="9.5,-224.5 9.5,-254.5 153.5,-254.5 153.5,-224.5 9.5,-224.5"/>
<text text-anchor="start" x="17.5" y="-242.5" font-family="Helvetica,sans-Serif" font-size="10.00">base::RefCounted&lt; Omnibox</text>
<text text-anchor="middle" x="81.5" y="-231.5" font-family="Helvetica,sans-Serif" font-size="10.00">Action &gt;</text>
</a>
</g>
</g>
<!-- Node5&#45;&gt;Node4 -->
<g id="edge4" class="edge">
<title>Node5&#45;&gt;Node4</title>
<path fill="none" stroke="midnightblue" d="M81.5,-214.29C81.5,-204.86 81.5,-194.65 81.5,-187.66"/>
<polygon fill="midnightblue" stroke="midnightblue" points="78,-214.4 81.5,-224.4 85,-214.4 78,-214.4"/>
</g>
</g>
</svg>
