<?xml version="1.0" encoding="UTF-8" standalone="no"?>
<!DOCTYPE svg PUBLIC "-//W3C//DTD SVG 1.1//EN"
 "http://www.w3.org/Graphics/SVG/1.1/DTD/svg11.dtd">
<!-- Generated by graphviz version 2.43.0 (0)
 -->
<!-- Title: components/omnibox/browser/omnibox_client.h Pages: 1 -->
<svg width="1964pt" height="507pt"
 viewBox="0.00 0.00 1963.68 507.00" xmlns="http://www.w3.org/2000/svg" xmlns:xlink="http://www.w3.org/1999/xlink">
<g id="graph0" class="graph" transform="scale(1 1) rotate(0) translate(4 503)">
<title>components/omnibox/browser/omnibox_client.h</title>
<polygon fill="white" stroke="transparent" points="-4,4 -4,-503 1959.68,-503 1959.68,4 -4,4"/>
<!-- Node1 -->
<g id="node1" class="node">
<title>Node1</title>
<g id="a_node1"><a xlink:title=" ">
<polygon fill="#bfbfbf" stroke="black" points="652,-468.5 652,-498.5 783,-498.5 783,-468.5 652,-468.5"/>
<text text-anchor="start" x="660" y="-486.5" font-family="Helvetica,sans-Serif" font-size="10.00">components/omnibox</text>
<text text-anchor="middle" x="717.5" y="-475.5" font-family="Helvetica,sans-Serif" font-size="10.00">/browser/omnibox_client.h</text>
</a>
</g>
</g>
<!-- Node2 -->
<g id="node2" class="node">
<title>Node2</title>
<g id="a_node2"><a xlink:href="../../d7/dcb/chrome__omnibox__client_8h.html" target="_top" xlink:title=" ">
<polygon fill="white" stroke="black" points="0,-396 0,-426 137,-426 137,-396 0,-396"/>
<text text-anchor="start" x="8" y="-414" font-family="Helvetica,sans-Serif" font-size="10.00">chrome/browser/ui/omnibox</text>
<text text-anchor="middle" x="68.5" y="-403" font-family="Helvetica,sans-Serif" font-size="10.00">/chrome_omnibox_client.h</text>
</a>
</g>
</g>
<!-- Node1&#45;&gt;Node2 -->
<g id="edge1" class="edge">
<title>Node1&#45;&gt;Node2</title>
<path fill="none" stroke="midnightblue" d="M641.66,-479.72C531.8,-474.81 322.3,-462.11 146.5,-432 137.27,-430.42 127.53,-428.3 118.17,-426.02"/>
<polygon fill="midnightblue" stroke="midnightblue" points="641.83,-483.23 651.97,-480.17 642.14,-476.24 641.83,-483.23"/>
</g>
<!-- Node4 -->
<g id="node4" class="node">
<title>Node4</title>
<g id="a_node4"><a xlink:href="../../de/d24/omnibox__action_8cc.html" target="_top" xlink:title=" ">
<polygon fill="white" stroke="black" points="155.5,-390.5 155.5,-431.5 283.5,-431.5 283.5,-390.5 155.5,-390.5"/>
<text text-anchor="start" x="163.5" y="-419.5" font-family="Helvetica,sans-Serif" font-size="10.00">components/omnibox</text>
<text text-anchor="start" x="163.5" y="-408.5" font-family="Helvetica,sans-Serif" font-size="10.00">/browser/actions/omnibox</text>
<text text-anchor="middle" x="219.5" y="-397.5" font-family="Helvetica,sans-Serif" font-size="10.00">_action.cc</text>
</a>
</g>
</g>
<!-- Node1&#45;&gt;Node4 -->
<g id="edge3" class="edge">
<title>Node1&#45;&gt;Node4</title>
<path fill="none" stroke="midnightblue" d="M641.74,-476.93C556.32,-469.85 413.56,-455.64 292.5,-432 289.66,-431.45 286.77,-430.84 283.86,-430.19"/>
<polygon fill="midnightblue" stroke="midnightblue" points="641.61,-480.43 651.87,-477.76 642.18,-473.45 641.61,-480.43"/>
</g>
<!-- Node5 -->
<g id="node5" class="node">
<title>Node5</title>
<g id="a_node5"><a xlink:href="../../d9/d99/omnibox__pedal_8cc.html" target="_top" xlink:title=" ">
<polygon fill="white" stroke="black" points="301.5,-390.5 301.5,-431.5 429.5,-431.5 429.5,-390.5 301.5,-390.5"/>
<text text-anchor="start" x="309.5" y="-419.5" font-family="Helvetica,sans-Serif" font-size="10.00">components/omnibox</text>
<text text-anchor="start" x="309.5" y="-408.5" font-family="Helvetica,sans-Serif" font-size="10.00">/browser/actions/omnibox</text>
<text text-anchor="middle" x="365.5" y="-397.5" font-family="Helvetica,sans-Serif" font-size="10.00">_pedal.cc</text>
</a>
</g>
</g>
<!-- Node1&#45;&gt;Node5 -->
<g id="edge4" class="edge">
<title>Node1&#45;&gt;Node5</title>
<path fill="none" stroke="midnightblue" d="M641.88,-470.67C585.55,-461.41 506.88,-447.52 438.5,-432 435.55,-431.33 432.55,-430.62 429.51,-429.88"/>
<polygon fill="midnightblue" stroke="midnightblue" points="641.34,-474.13 651.78,-472.29 642.47,-467.22 641.34,-474.13"/>
</g>
<!-- Node6 -->
<g id="node6" class="node">
<title>Node6</title>
<g id="a_node6"><a xlink:href="../../d9/d94/omnibox__pedal__implementations_8cc.html" target="_top" xlink:title=" ">
<polygon fill="white" stroke="black" points="448,-390.5 448,-431.5 583,-431.5 583,-390.5 448,-390.5"/>
<text text-anchor="start" x="456" y="-419.5" font-family="Helvetica,sans-Serif" font-size="10.00">components/omnibox</text>
<text text-anchor="start" x="456" y="-408.5" font-family="Helvetica,sans-Serif" font-size="10.00">/browser/actions/omnibox</text>
<text text-anchor="middle" x="515.5" y="-397.5" font-family="Helvetica,sans-Serif" font-size="10.00">_pedal_implementations.cc</text>
</a>
</g>
</g>
<!-- Node1&#45;&gt;Node6 -->
<g id="edge5" class="edge">
<title>Node1&#45;&gt;Node6</title>
<path fill="none" stroke="midnightblue" d="M667.55,-465.07C638.42,-454.9 601.61,-442.05 571.51,-431.55"/>
<polygon fill="midnightblue" stroke="midnightblue" points="666.51,-468.41 677.11,-468.4 668.82,-461.8 666.51,-468.41"/>
</g>
<!-- Node7 -->
<g id="node7" class="node">
<title>Node7</title>
<g id="a_node7"><a xlink:href="../../dd/d6c/omnibox__client_8cc.html" target="_top" xlink:title=" ">
<polygon fill="white" stroke="black" points="601.5,-396 601.5,-426 737.5,-426 737.5,-396 601.5,-396"/>
<text text-anchor="start" x="609.5" y="-414" font-family="Helvetica,sans-Serif" font-size="10.00">components/omnibox</text>
<text text-anchor="middle" x="669.5" y="-403" font-family="Helvetica,sans-Serif" font-size="10.00">/browser/omnibox_client.cc</text>
</a>
</g>
</g>
<!-- Node1&#45;&gt;Node7 -->
<g id="edge6" class="edge">
<title>Node1&#45;&gt;Node7</title>
<path fill="none" stroke="midnightblue" d="M702.1,-459.89C694.58,-448.84 685.77,-435.89 679.2,-426.25"/>
<polygon fill="midnightblue" stroke="midnightblue" points="699.27,-461.94 707.79,-468.23 705.05,-458 699.27,-461.94"/>
</g>
<!-- Node8 -->
<g id="node8" class="node">
<title>Node8</title>
<g id="a_node8"><a xlink:href="../../dd/d1e/omnibox__controller_8cc.html" target="_top" xlink:title=" ">
<polygon fill="white" stroke="black" points="1447.5,-162 1447.5,-192 1599.5,-192 1599.5,-162 1447.5,-162"/>
<text text-anchor="start" x="1455.5" y="-180" font-family="Helvetica,sans-Serif" font-size="10.00">components/omnibox</text>
<text text-anchor="middle" x="1523.5" y="-169" font-family="Helvetica,sans-Serif" font-size="10.00">/browser/omnibox_controller.cc</text>
</a>
</g>
</g>
<!-- Node1&#45;&gt;Node8 -->
<g id="edge7" class="edge">
<title>Node1&#45;&gt;Node8</title>
<path fill="none" stroke="midnightblue" d="M793.28,-483.07C982.83,-482.72 1469.44,-470.28 1569.5,-354 1610.9,-305.88 1558.93,-224.83 1534.69,-192.22"/>
<polygon fill="midnightblue" stroke="midnightblue" points="793.12,-479.57 783.12,-483.08 793.13,-486.57 793.12,-479.57"/>
</g>
<!-- Node9 -->
<g id="node9" class="node">
<title>Node9</title>
<g id="a_node9"><a xlink:href="../../d7/df6/omnibox__edit__model_8cc.html" target="_top" xlink:title=" ">
<polygon fill="white" stroke="black" points="572,-156.5 572,-197.5 687,-197.5 687,-156.5 572,-156.5"/>
<text text-anchor="start" x="580" y="-185.5" font-family="Helvetica,sans-Serif" font-size="10.00">components/omnibox</text>
<text text-anchor="start" x="580" y="-174.5" font-family="Helvetica,sans-Serif" font-size="10.00">/browser/omnibox_edit</text>
<text text-anchor="middle" x="629.5" y="-163.5" font-family="Helvetica,sans-Serif" font-size="10.00">_model.cc</text>
</a>
</g>
</g>
<!-- Node1&#45;&gt;Node9 -->
<g id="edge8" class="edge">
<title>Node1&#45;&gt;Node9</title>
<path fill="none" stroke="midnightblue" d="M733.8,-459.95C738.91,-451.59 743.9,-441.76 746.5,-432 751.31,-413.96 751.37,-408.02 746.5,-390 741.67,-372.12 734.6,-370.13 725.5,-354 693.69,-297.62 657.42,-230.26 639.97,-197.63"/>
<polygon fill="midnightblue" stroke="midnightblue" points="730.84,-458.08 728.31,-468.37 736.7,-461.91 730.84,-458.08"/>
</g>
<!-- Node10 -->
<g id="node10" class="node">
<title>Node10</title>
<g id="a_node10"><a xlink:href="../../d3/de0/omnibox__popup__model_8cc.html" target="_top" xlink:title=" ">
<polygon fill="white" stroke="black" points="1799,-156.5 1799,-197.5 1924,-197.5 1924,-156.5 1799,-156.5"/>
<text text-anchor="start" x="1807" y="-185.5" font-family="Helvetica,sans-Serif" font-size="10.00">components/omnibox</text>
<text text-anchor="start" x="1807" y="-174.5" font-family="Helvetica,sans-Serif" font-size="10.00">/browser/omnibox_popup</text>
<text text-anchor="middle" x="1861.5" y="-163.5" font-family="Helvetica,sans-Serif" font-size="10.00">_model.cc</text>
</a>
</g>
</g>
<!-- Node1&#45;&gt;Node10 -->
<g id="edge9" class="edge">
<title>Node1&#45;&gt;Node10</title>
<path fill="none" stroke="midnightblue" d="M793.15,-482.26C958.52,-480.96 1347.32,-473.44 1471.5,-432 1629.01,-379.44 1784.95,-247.59 1840.35,-197.62"/>
<polygon fill="midnightblue" stroke="midnightblue" points="793.04,-478.76 783.06,-482.33 793.09,-485.76 793.04,-478.76"/>
</g>
<!-- Node11 -->
<g id="node11" class="node">
<title>Node11</title>
<g id="a_node11"><a xlink:href="../../de/d4e/omnibox__view_8h.html" target="_top" xlink:title=" ">
<polygon fill="white" stroke="black" points="907.5,-396 907.5,-426 1033.5,-426 1033.5,-396 907.5,-396"/>
<text text-anchor="start" x="915.5" y="-414" font-family="Helvetica,sans-Serif" font-size="10.00">components/omnibox</text>
<text text-anchor="middle" x="970.5" y="-403" font-family="Helvetica,sans-Serif" font-size="10.00">/browser/omnibox_view.h</text>
</a>
</g>
</g>
<!-- Node1&#45;&gt;Node11 -->
<g id="edge10" class="edge">
<title>Node1&#45;&gt;Node11</title>
<path fill="none" stroke="midnightblue" d="M777.64,-465.74C821,-453.66 878.87,-437.53 919.88,-426.11"/>
<polygon fill="midnightblue" stroke="midnightblue" points="776.48,-462.43 767.79,-468.49 778.36,-469.17 776.48,-462.43"/>
</g>
<!-- Node22 -->
<g id="node22" class="node">
<title>Node22</title>
<g id="a_node22"><a xlink:href="../../d8/d7a/omnibox__view__views_8cc.html" target="_top" xlink:title=" ">
<polygon fill="white" stroke="black" points="1545,-78.5 1545,-119.5 1670,-119.5 1670,-78.5 1545,-78.5"/>
<text text-anchor="start" x="1553" y="-107.5" font-family="Helvetica,sans-Serif" font-size="10.00">chrome/browser/ui/views</text>
<text text-anchor="start" x="1553" y="-96.5" font-family="Helvetica,sans-Serif" font-size="10.00">/omnibox/omnibox_view</text>
<text text-anchor="middle" x="1607.5" y="-85.5" font-family="Helvetica,sans-Serif" font-size="10.00">_views.cc</text>
</a>
</g>
</g>
<!-- Node1&#45;&gt;Node22 -->
<g id="edge51" class="edge">
<title>Node1&#45;&gt;Node22</title>
<path fill="none" stroke="midnightblue" d="M793.07,-481.4C1061.41,-476.5 1952.5,-451.4 1952.5,-334 1952.5,-334 1952.5,-334 1952.5,-254 1952.5,-209.63 1965.21,-187.03 1933.5,-156 1897.03,-120.3 1754.04,-107.18 1670.03,-102.49"/>
<polygon fill="midnightblue" stroke="midnightblue" points="792.96,-477.9 783.03,-481.58 793.09,-484.9 792.96,-477.9"/>
</g>
<!-- Node3 -->
<g id="node3" class="node">
<title>Node3</title>
<g id="a_node3"><a xlink:href="../../d0/d58/chrome__omnibox__client_8cc.html" target="_top" xlink:title=" ">
<polygon fill="white" stroke="black" points="0,-318 0,-348 137,-348 137,-318 0,-318"/>
<text text-anchor="start" x="8" y="-336" font-family="Helvetica,sans-Serif" font-size="10.00">chrome/browser/ui/omnibox</text>
<text text-anchor="middle" x="68.5" y="-325" font-family="Helvetica,sans-Serif" font-size="10.00">/chrome_omnibox_client.cc</text>
</a>
</g>
</g>
<!-- Node2&#45;&gt;Node3 -->
<g id="edge2" class="edge">
<title>Node2&#45;&gt;Node3</title>
<path fill="none" stroke="midnightblue" d="M68.5,-385.59C68.5,-373.26 68.5,-358.72 68.5,-348.23"/>
<polygon fill="midnightblue" stroke="midnightblue" points="65,-385.7 68.5,-395.7 72,-385.71 65,-385.7"/>
</g>
<!-- Node11&#45;&gt;Node9 -->
<g id="edge13" class="edge">
<title>Node11&#45;&gt;Node9</title>
<path fill="none" stroke="midnightblue" d="M897.29,-408.31C850.32,-403.49 790.97,-389.94 751.5,-354 709.61,-315.86 742.75,-279.13 708.5,-234 697.42,-219.4 681.46,-207.08 666.77,-197.75"/>
<polygon fill="midnightblue" stroke="midnightblue" points="897.14,-411.81 907.41,-409.23 897.77,-404.84 897.14,-411.81"/>
</g>
<!-- Node12 -->
<g id="node12" class="node">
<title>Node12</title>
<g id="a_node12"><a xlink:href="../../d1/d5e/clipboard__utils_8cc.html" target="_top" xlink:title=" ">
<polygon fill="white" stroke="black" points="1423,-318 1423,-348 1560,-348 1560,-318 1423,-318"/>
<text text-anchor="start" x="1431" y="-336" font-family="Helvetica,sans-Serif" font-size="10.00">chrome/browser/ui/omnibox</text>
<text text-anchor="middle" x="1491.5" y="-325" font-family="Helvetica,sans-Serif" font-size="10.00">/clipboard_utils.cc</text>
</a>
</g>
</g>
<!-- Node11&#45;&gt;Node12 -->
<g id="edge11" class="edge">
<title>Node11&#45;&gt;Node12</title>
<path fill="none" stroke="midnightblue" d="M1043.64,-403.12C1130.91,-394.34 1281.04,-377.43 1408.5,-354 1417.68,-352.31 1427.37,-350.24 1436.77,-348.08"/>
<polygon fill="midnightblue" stroke="midnightblue" points="1043.18,-399.65 1033.57,-404.12 1043.87,-406.61 1043.18,-399.65"/>
</g>
<!-- Node13 -->
<g id="node13" class="node">
<title>Node13</title>
<g id="a_node13"><a xlink:href="../../d5/db6/omnibox__tab__helper_8cc.html" target="_top" xlink:title=" ">
<polygon fill="white" stroke="black" points="761,-318 761,-348 898,-348 898,-318 761,-318"/>
<text text-anchor="start" x="769" y="-336" font-family="Helvetica,sans-Serif" font-size="10.00">chrome/browser/ui/omnibox</text>
<text text-anchor="middle" x="829.5" y="-325" font-family="Helvetica,sans-Serif" font-size="10.00">/omnibox_tab_helper.cc</text>
</a>
</g>
</g>
<!-- Node11&#45;&gt;Node13 -->
<g id="edge12" class="edge">
<title>Node11&#45;&gt;Node13</title>
<path fill="none" stroke="midnightblue" d="M935.25,-391C910.5,-377.66 877.97,-360.12 855.55,-348.04"/>
<polygon fill="midnightblue" stroke="midnightblue" points="933.85,-394.22 944.31,-395.88 937.17,-388.06 933.85,-394.22"/>
</g>
<!-- Node14 -->
<g id="node14" class="node">
<title>Node14</title>
<g id="a_node14"><a xlink:href="../../d9/d1b/omnibox__edit__model_8h.html" target="_top" xlink:title=" ">
<polygon fill="white" stroke="black" points="1092,-312.5 1092,-353.5 1207,-353.5 1207,-312.5 1092,-312.5"/>
<text text-anchor="start" x="1100" y="-341.5" font-family="Helvetica,sans-Serif" font-size="10.00">components/omnibox</text>
<text text-anchor="start" x="1100" y="-330.5" font-family="Helvetica,sans-Serif" font-size="10.00">/browser/omnibox_edit</text>
<text text-anchor="middle" x="1149.5" y="-319.5" font-family="Helvetica,sans-Serif" font-size="10.00">_model.h</text>
</a>
</g>
</g>
<!-- Node11&#45;&gt;Node14 -->
<g id="edge14" class="edge">
<title>Node11&#45;&gt;Node14</title>
<path fill="none" stroke="midnightblue" d="M1013,-391.96C1040.17,-380.42 1075.4,-365.46 1103.27,-353.63"/>
<polygon fill="midnightblue" stroke="midnightblue" points="1011.59,-388.75 1003.75,-395.88 1014.32,-395.2 1011.59,-388.75"/>
</g>
<!-- Node28 -->
<g id="node28" class="node">
<title>Node28</title>
<g id="a_node28"><a xlink:href="../../d0/d6c/omnibox__view_8cc.html" target="_top" xlink:title=" ">
<polygon fill="white" stroke="black" points="761,-240 761,-270 892,-270 892,-240 761,-240"/>
<text text-anchor="start" x="769" y="-258" font-family="Helvetica,sans-Serif" font-size="10.00">components/omnibox</text>
<text text-anchor="middle" x="826.5" y="-247" font-family="Helvetica,sans-Serif" font-size="10.00">/browser/omnibox_view.cc</text>
</a>
</g>
</g>
<!-- Node11&#45;&gt;Node28 -->
<g id="edge46" class="edge">
<title>Node11&#45;&gt;Node28</title>
<path fill="none" stroke="midnightblue" d="M958.76,-386.93C947.31,-365.87 928.44,-334.66 906.5,-312 890.23,-295.19 868.25,-280.23 851.45,-270.01"/>
<polygon fill="midnightblue" stroke="midnightblue" points="955.7,-388.64 963.48,-395.83 961.88,-385.35 955.7,-388.64"/>
</g>
<!-- Node29 -->
<g id="node29" class="node">
<title>Node29</title>
<g id="a_node29"><a xlink:href="../../da/d83/omnibox__view__fuzzer_8cc.html" target="_top" xlink:title=" ">
<polygon fill="white" stroke="black" points="955,-312.5 955,-353.5 1074,-353.5 1074,-312.5 955,-312.5"/>
<text text-anchor="start" x="963" y="-341.5" font-family="Helvetica,sans-Serif" font-size="10.00">components/omnibox</text>
<text text-anchor="start" x="963" y="-330.5" font-family="Helvetica,sans-Serif" font-size="10.00">/browser/omnibox_view</text>
<text text-anchor="middle" x="1014.5" y="-319.5" font-family="Helvetica,sans-Serif" font-size="10.00">_fuzzer.cc</text>
</a>
</g>
</g>
<!-- Node11&#45;&gt;Node29 -->
<g id="edge47" class="edge">
<title>Node11&#45;&gt;Node29</title>
<path fill="none" stroke="midnightblue" d="M983.84,-386.95C989.99,-376.33 997.22,-363.85 1003.11,-353.68"/>
<polygon fill="midnightblue" stroke="midnightblue" points="980.76,-385.3 978.78,-395.7 986.82,-388.8 980.76,-385.3"/>
</g>
<!-- Node30 -->
<g id="node30" class="node">
<title>Node30</title>
<g id="a_node30"><a xlink:href="../../db/db7/omnibox__view__views_8h.html" target="_top" xlink:title=" ">
<polygon fill="white" stroke="black" points="1656,-156.5 1656,-197.5 1781,-197.5 1781,-156.5 1656,-156.5"/>
<text text-anchor="start" x="1664" y="-185.5" font-family="Helvetica,sans-Serif" font-size="10.00">chrome/browser/ui/views</text>
<text text-anchor="start" x="1664" y="-174.5" font-family="Helvetica,sans-Serif" font-size="10.00">/omnibox/omnibox_view</text>
<text text-anchor="middle" x="1718.5" y="-163.5" font-family="Helvetica,sans-Serif" font-size="10.00">_views.h</text>
</a>
</g>
</g>
<!-- Node11&#45;&gt;Node30 -->
<g id="edge48" class="edge">
<title>Node11&#45;&gt;Node30</title>
<path fill="none" stroke="midnightblue" d="M1043.51,-397.4C1149.53,-377.91 1351.37,-336.3 1515.5,-276 1576.48,-253.6 1643.73,-219.04 1683.48,-197.51"/>
<polygon fill="midnightblue" stroke="midnightblue" points="1042.76,-393.98 1033.55,-399.21 1044.01,-400.86 1042.76,-393.98"/>
</g>
<!-- Node14&#45;&gt;Node8 -->
<g id="edge15" class="edge">
<title>Node14&#45;&gt;Node8</title>
<path fill="none" stroke="midnightblue" d="M1206.15,-308.67C1284.83,-276.28 1424.77,-218.65 1489.24,-192.11"/>
<polygon fill="midnightblue" stroke="midnightblue" points="1204.78,-305.45 1196.87,-312.5 1207.45,-311.92 1204.78,-305.45"/>
</g>
<!-- Node14&#45;&gt;Node9 -->
<g id="edge16" class="edge">
<title>Node14&#45;&gt;Node9</title>
<path fill="none" stroke="midnightblue" d="M1081.83,-311.97C1019.27,-296 997.16,-305.36 944.5,-276 920.89,-262.83 924.63,-246.2 900.5,-234 817.94,-192.27 785.48,-219.45 695.5,-198 692.82,-197.36 690.09,-196.68 687.34,-195.96"/>
<polygon fill="midnightblue" stroke="midnightblue" points="1081.23,-315.43 1091.79,-314.63 1083.04,-308.67 1081.23,-315.43"/>
</g>
<!-- Node15 -->
<g id="node15" class="node">
<title>Node15</title>
<g id="a_node15"><a xlink:href="../../d2/d1a/omnibox__popup__model_8h.html" target="_top" xlink:title=" ">
<polygon fill="white" stroke="black" points="1087,-234.5 1087,-275.5 1212,-275.5 1212,-234.5 1087,-234.5"/>
<text text-anchor="start" x="1095" y="-263.5" font-family="Helvetica,sans-Serif" font-size="10.00">components/omnibox</text>
<text text-anchor="start" x="1095" y="-252.5" font-family="Helvetica,sans-Serif" font-size="10.00">/browser/omnibox_popup</text>
<text text-anchor="middle" x="1149.5" y="-241.5" font-family="Helvetica,sans-Serif" font-size="10.00">_model.h</text>
</a>
</g>
</g>
<!-- Node14&#45;&gt;Node15 -->
<g id="edge17" class="edge">
<title>Node14&#45;&gt;Node15</title>
<path fill="none" stroke="midnightblue" d="M1149.5,-302.3C1149.5,-293.3 1149.5,-283.65 1149.5,-275.51"/>
<polygon fill="midnightblue" stroke="midnightblue" points="1146,-302.43 1149.5,-312.43 1153,-302.43 1146,-302.43"/>
</g>
<!-- Node21 -->
<g id="node21" class="node">
<title>Node21</title>
<g id="a_node21"><a xlink:href="../../de/d2f/omnibox__suggestion__button__row__view_8cc.html" target="_top" xlink:title=" ">
<polygon fill="white" stroke="black" points="743,-78.5 743,-119.5 892,-119.5 892,-78.5 743,-78.5"/>
<text text-anchor="start" x="751" y="-107.5" font-family="Helvetica,sans-Serif" font-size="10.00">chrome/browser/ui/views</text>
<text text-anchor="start" x="751" y="-96.5" font-family="Helvetica,sans-Serif" font-size="10.00">/omnibox/omnibox_suggestion</text>
<text text-anchor="middle" x="817.5" y="-85.5" font-family="Helvetica,sans-Serif" font-size="10.00">_button_row_view.cc</text>
</a>
</g>
</g>
<!-- Node14&#45;&gt;Node21 -->
<g id="edge44" class="edge">
<title>Node14&#45;&gt;Node21</title>
<path fill="none" stroke="midnightblue" d="M1100.51,-307.82C1052.45,-283.11 978.07,-242.2 919.5,-198 887.55,-173.89 854.93,-140.75 835.45,-119.86"/>
<polygon fill="midnightblue" stroke="midnightblue" points="1098.97,-310.96 1109.46,-312.39 1102.15,-304.73 1098.97,-310.96"/>
</g>
<!-- Node14&#45;&gt;Node22 -->
<g id="edge45" class="edge">
<title>Node14&#45;&gt;Node22</title>
<path fill="none" stroke="midnightblue" d="M1217.23,-322.29C1333.15,-304.14 1561.67,-261.08 1608.5,-198 1625.23,-175.46 1619.98,-141.26 1614.13,-119.8"/>
<polygon fill="midnightblue" stroke="midnightblue" points="1216.39,-318.88 1207.05,-323.87 1217.46,-325.8 1216.39,-318.88"/>
</g>
<!-- Node14&#45;&gt;Node28 -->
<g id="edge43" class="edge">
<title>Node14&#45;&gt;Node28</title>
<path fill="none" stroke="midnightblue" d="M1081.97,-311.98C1003.36,-292.62 981.32,-293 906.5,-276 898.4,-274.16 889.87,-272.13 881.51,-270.08"/>
<polygon fill="midnightblue" stroke="midnightblue" points="1081.3,-315.42 1091.85,-314.44 1082.99,-308.62 1081.3,-315.42"/>
</g>
<!-- Node15&#45;&gt;Node8 -->
<g id="edge19" class="edge">
<title>Node15&#45;&gt;Node8</title>
<path fill="none" stroke="midnightblue" d="M1222.27,-240.15C1279.7,-229.1 1361.81,-213.03 1433.5,-198 1442.43,-196.13 1451.84,-194.1 1461.09,-192.07"/>
<polygon fill="midnightblue" stroke="midnightblue" points="1221.35,-236.76 1212.19,-242.09 1222.68,-243.64 1221.35,-236.76"/>
</g>
<!-- Node15&#45;&gt;Node9 -->
<g id="edge20" class="edge">
<title>Node15&#45;&gt;Node9</title>
<path fill="none" stroke="midnightblue" d="M1076.78,-246.57C967.59,-235.14 766.51,-213.02 695.5,-198 692.81,-197.43 690.06,-196.8 687.3,-196.13"/>
<polygon fill="midnightblue" stroke="midnightblue" points="1076.42,-250.05 1086.73,-247.6 1077.15,-243.09 1076.42,-250.05"/>
</g>
<!-- Node15&#45;&gt;Node10 -->
<g id="edge21" class="edge">
<title>Node15&#45;&gt;Node10</title>
<path fill="none" stroke="midnightblue" d="M1222.48,-252.07C1342.07,-247.91 1586.83,-235.24 1790.5,-198 1793.27,-197.49 1796.09,-196.93 1798.93,-196.31"/>
<polygon fill="midnightblue" stroke="midnightblue" points="1222.22,-248.57 1212.35,-252.41 1222.46,-255.57 1222.22,-248.57"/>
</g>
<!-- Node16 -->
<g id="node16" class="node">
<title>Node16</title>
<g id="a_node16"><a xlink:href="../../df/d95/autocomplete__match__type_8cc.html" target="_top" xlink:title=" ">
<polygon fill="white" stroke="black" points="1275.5,-156.5 1275.5,-197.5 1391.5,-197.5 1391.5,-156.5 1275.5,-156.5"/>
<text text-anchor="start" x="1283.5" y="-185.5" font-family="Helvetica,sans-Serif" font-size="10.00">components/omnibox</text>
<text text-anchor="start" x="1283.5" y="-174.5" font-family="Helvetica,sans-Serif" font-size="10.00">/browser/autocomplete</text>
<text text-anchor="middle" x="1333.5" y="-163.5" font-family="Helvetica,sans-Serif" font-size="10.00">_match_type.cc</text>
</a>
</g>
</g>
<!-- Node15&#45;&gt;Node16 -->
<g id="edge18" class="edge">
<title>Node15&#45;&gt;Node16</title>
<path fill="none" stroke="midnightblue" d="M1206.13,-230.61C1231.81,-220 1261.83,-207.6 1286.28,-197.51"/>
<polygon fill="midnightblue" stroke="midnightblue" points="1204.79,-227.38 1196.88,-234.43 1207.46,-233.85 1204.79,-227.38"/>
</g>
<!-- Node17 -->
<g id="node17" class="node">
<title>Node17</title>
<g id="a_node17"><a xlink:href="../../d4/d25/omnibox__popup__contents__view_8h.html" target="_top" xlink:title=" ">
<polygon fill="white" stroke="black" points="947.5,-156.5 947.5,-197.5 1075.5,-197.5 1075.5,-156.5 947.5,-156.5"/>
<text text-anchor="start" x="955.5" y="-185.5" font-family="Helvetica,sans-Serif" font-size="10.00">chrome/browser/ui/views</text>
<text text-anchor="start" x="955.5" y="-174.5" font-family="Helvetica,sans-Serif" font-size="10.00">/omnibox/omnibox_popup</text>
<text text-anchor="middle" x="1011.5" y="-163.5" font-family="Helvetica,sans-Serif" font-size="10.00">_contents_view.h</text>
</a>
</g>
</g>
<!-- Node15&#45;&gt;Node17 -->
<g id="edge22" class="edge">
<title>Node15&#45;&gt;Node17</title>
<path fill="none" stroke="midnightblue" d="M1104.99,-229.49C1086.19,-219.13 1064.61,-207.25 1046.92,-197.51"/>
<polygon fill="midnightblue" stroke="midnightblue" points="1103.51,-232.67 1113.96,-234.43 1106.89,-226.54 1103.51,-232.67"/>
</g>
<!-- Node20 -->
<g id="node20" class="node">
<title>Node20</title>
<g id="a_node20"><a xlink:href="../../d3/d3f/omnibox__result__view_8cc.html" target="_top" xlink:title=" ">
<polygon fill="white" stroke="black" points="895,-0.5 895,-41.5 1020,-41.5 1020,-0.5 895,-0.5"/>
<text text-anchor="start" x="903" y="-29.5" font-family="Helvetica,sans-Serif" font-size="10.00">chrome/browser/ui/views</text>
<text text-anchor="start" x="903" y="-18.5" font-family="Helvetica,sans-Serif" font-size="10.00">/omnibox/omnibox_result</text>
<text text-anchor="middle" x="957.5" y="-7.5" font-family="Helvetica,sans-Serif" font-size="10.00">_view.cc</text>
</a>
</g>
</g>
<!-- Node15&#45;&gt;Node20 -->
<g id="edge28" class="edge">
<title>Node15&#45;&gt;Node20</title>
<path fill="none" stroke="midnightblue" d="M1076.92,-244.26C1022.84,-235.34 955.52,-220.13 938.5,-198 902.8,-151.59 930.75,-76.79 947.39,-41.56"/>
<polygon fill="midnightblue" stroke="midnightblue" points="1076.42,-247.72 1086.85,-245.85 1077.53,-240.81 1076.42,-247.72"/>
</g>
<!-- Node15&#45;&gt;Node22 -->
<g id="edge42" class="edge">
<title>Node15&#45;&gt;Node22</title>
<path fill="none" stroke="midnightblue" d="M1221.97,-242.85C1284.94,-232.26 1370.61,-215.41 1400.5,-198 1422.25,-185.33 1417.41,-169.75 1438.5,-156 1470.61,-135.07 1511.26,-121.28 1544.65,-112.62"/>
<polygon fill="midnightblue" stroke="midnightblue" points="1221.36,-239.41 1212.07,-244.5 1222.51,-246.31 1221.36,-239.41"/>
</g>
<!-- Node23 -->
<g id="node23" class="node">
<title>Node23</title>
<g id="a_node23"><a xlink:href="../../dd/d82/omnibox__result__view_8h.html" target="_top" xlink:title=" ">
<polygon fill="white" stroke="black" points="1132,-156.5 1132,-197.5 1257,-197.5 1257,-156.5 1132,-156.5"/>
<text text-anchor="start" x="1140" y="-185.5" font-family="Helvetica,sans-Serif" font-size="10.00">chrome/browser/ui/views</text>
<text text-anchor="start" x="1140" y="-174.5" font-family="Helvetica,sans-Serif" font-size="10.00">/omnibox/omnibox_result</text>
<text text-anchor="middle" x="1194.5" y="-163.5" font-family="Helvetica,sans-Serif" font-size="10.00">_view.h</text>
</a>
</g>
</g>
<!-- Node15&#45;&gt;Node23 -->
<g id="edge29" class="edge">
<title>Node15&#45;&gt;Node23</title>
<path fill="none" stroke="midnightblue" d="M1166.22,-225.76C1171.79,-216.35 1177.86,-206.1 1182.95,-197.51"/>
<polygon fill="midnightblue" stroke="midnightblue" points="1163.17,-224.04 1161.09,-234.43 1169.2,-227.61 1163.17,-224.04"/>
</g>
<!-- Node24 -->
<g id="node24" class="node">
<title>Node24</title>
<g id="a_node24"><a xlink:href="../../dc/dce/omnibox__row__view_8cc.html" target="_top" xlink:title=" ">
<polygon fill="white" stroke="black" points="1024,-84 1024,-114 1179,-114 1179,-84 1024,-84"/>
<text text-anchor="start" x="1032" y="-102" font-family="Helvetica,sans-Serif" font-size="10.00">chrome/browser/ui/views</text>
<text text-anchor="middle" x="1101.5" y="-91" font-family="Helvetica,sans-Serif" font-size="10.00">/omnibox/omnibox_row_view.cc</text>
</a>
</g>
</g>
<!-- Node15&#45;&gt;Node24 -->
<g id="edge38" class="edge">
<title>Node15&#45;&gt;Node24</title>
<path fill="none" stroke="midnightblue" d="M1133.95,-225.1C1129.79,-216.55 1125.6,-207.05 1122.5,-198 1112.57,-169.03 1106.37,-133.57 1103.46,-114.24"/>
<polygon fill="midnightblue" stroke="midnightblue" points="1130.94,-226.91 1138.56,-234.27 1137.19,-223.77 1130.94,-226.91"/>
</g>
<!-- Node27 -->
<g id="node27" class="node">
<title>Node27</title>
<g id="a_node27"><a xlink:href="../../d6/de9/omnibox__suggestion__button__row__view_8h.html" target="_top" xlink:title=" ">
<polygon fill="white" stroke="black" points="705,-156.5 705,-197.5 854,-197.5 854,-156.5 705,-156.5"/>
<text text-anchor="start" x="713" y="-185.5" font-family="Helvetica,sans-Serif" font-size="10.00">chrome/browser/ui/views</text>
<text text-anchor="start" x="713" y="-174.5" font-family="Helvetica,sans-Serif" font-size="10.00">/omnibox/omnibox_suggestion</text>
<text text-anchor="middle" x="779.5" y="-163.5" font-family="Helvetica,sans-Serif" font-size="10.00">_button_row_view.h</text>
</a>
</g>
</g>
<!-- Node15&#45;&gt;Node27 -->
<g id="edge39" class="edge">
<title>Node15&#45;&gt;Node27</title>
<path fill="none" stroke="midnightblue" d="M1076.67,-239.04C1012.33,-225.82 918.92,-206.64 854.07,-193.32"/>
<polygon fill="midnightblue" stroke="midnightblue" points="1076.23,-242.52 1086.73,-241.11 1077.64,-235.67 1076.23,-242.52"/>
</g>
<!-- Node18 -->
<g id="node18" class="node">
<title>Node18</title>
<g id="a_node18"><a xlink:href="../../d8/df8/omnibox__match__cell__view_8cc.html" target="_top" xlink:title=" ">
<polygon fill="white" stroke="black" points="1137.5,-0.5 1137.5,-41.5 1265.5,-41.5 1265.5,-0.5 1137.5,-0.5"/>
<text text-anchor="start" x="1145.5" y="-29.5" font-family="Helvetica,sans-Serif" font-size="10.00">chrome/browser/ui/views</text>
<text text-anchor="start" x="1145.5" y="-18.5" font-family="Helvetica,sans-Serif" font-size="10.00">/omnibox/omnibox_match</text>
<text text-anchor="middle" x="1201.5" y="-7.5" font-family="Helvetica,sans-Serif" font-size="10.00">_cell_view.cc</text>
</a>
</g>
</g>
<!-- Node17&#45;&gt;Node18 -->
<g id="edge23" class="edge">
<title>Node17&#45;&gt;Node18</title>
<path fill="none" stroke="midnightblue" d="M1003.99,-146.41C1000.46,-125.22 999.77,-97.17 1014.5,-78 1043,-40.92 1095.11,-27.54 1137.1,-23.09"/>
<polygon fill="midnightblue" stroke="midnightblue" points="1000.61,-147.35 1005.97,-156.49 1007.48,-146 1000.61,-147.35"/>
</g>
<!-- Node19 -->
<g id="node19" class="node">
<title>Node19</title>
<g id="a_node19"><a xlink:href="../../d8/d69/omnibox__popup__contents__view_8cc.html" target="_top" xlink:title=" ">
<polygon fill="white" stroke="black" points="1235.5,-78.5 1235.5,-119.5 1363.5,-119.5 1363.5,-78.5 1235.5,-78.5"/>
<text text-anchor="start" x="1243.5" y="-107.5" font-family="Helvetica,sans-Serif" font-size="10.00">chrome/browser/ui/views</text>
<text text-anchor="start" x="1243.5" y="-96.5" font-family="Helvetica,sans-Serif" font-size="10.00">/omnibox/omnibox_popup</text>
<text text-anchor="middle" x="1299.5" y="-85.5" font-family="Helvetica,sans-Serif" font-size="10.00">_contents_view.cc</text>
</a>
</g>
</g>
<!-- Node17&#45;&gt;Node19 -->
<g id="edge24" class="edge">
<title>Node17&#45;&gt;Node19</title>
<path fill="none" stroke="midnightblue" d="M1085.47,-156.48C1131.85,-144.24 1191.05,-128.62 1235.42,-116.91"/>
<polygon fill="midnightblue" stroke="midnightblue" points="1084.55,-153.1 1075.77,-159.04 1086.34,-159.87 1084.55,-153.1"/>
</g>
<!-- Node17&#45;&gt;Node20 -->
<g id="edge25" class="edge">
<title>Node17&#45;&gt;Node20</title>
<path fill="none" stroke="midnightblue" d="M994.43,-147.47C989.77,-138.85 985.04,-129.23 981.5,-120 971.41,-93.67 964.52,-61.69 960.79,-41.59"/>
<polygon fill="midnightblue" stroke="midnightblue" points="991.47,-149.34 999.4,-156.36 997.58,-145.92 991.47,-149.34"/>
</g>
<!-- Node17&#45;&gt;Node21 -->
<g id="edge26" class="edge">
<title>Node17&#45;&gt;Node21</title>
<path fill="none" stroke="midnightblue" d="M952.15,-152.75C924.99,-142.11 893.17,-129.65 867.29,-119.51"/>
<polygon fill="midnightblue" stroke="midnightblue" points="950.95,-156.04 961.54,-156.43 953.51,-149.52 950.95,-156.04"/>
</g>
<!-- Node17&#45;&gt;Node22 -->
<g id="edge27" class="edge">
<title>Node17&#45;&gt;Node22</title>
<path fill="none" stroke="midnightblue" d="M1085.8,-161.69C1098.03,-159.6 1110.6,-157.61 1122.5,-156 1296.75,-132.39 1342.73,-146.93 1516.5,-120 1525.61,-118.59 1535.18,-116.81 1544.54,-114.91"/>
<polygon fill="midnightblue" stroke="midnightblue" points="1084.87,-158.3 1075.62,-163.47 1086.07,-165.2 1084.87,-158.3"/>
</g>
<!-- Node23&#45;&gt;Node19 -->
<g id="edge30" class="edge">
<title>Node23&#45;&gt;Node19</title>
<path fill="none" stroke="midnightblue" d="M1229.94,-150.35C1243.86,-140.27 1259.58,-128.89 1272.55,-119.51"/>
<polygon fill="midnightblue" stroke="midnightblue" points="1227.59,-147.73 1221.54,-156.43 1231.69,-153.4 1227.59,-147.73"/>
</g>
<!-- Node23&#45;&gt;Node20 -->
<g id="edge31" class="edge">
<title>Node23&#45;&gt;Node20</title>
<path fill="none" stroke="midnightblue" d="M1200.84,-146.31C1203.58,-124.89 1203.21,-96.59 1187.5,-78 1166.15,-52.73 1080.68,-37.1 1020.19,-28.97"/>
<polygon fill="midnightblue" stroke="midnightblue" points="1197.38,-145.78 1199.29,-156.2 1204.29,-146.86 1197.38,-145.78"/>
</g>
<!-- Node23&#45;&gt;Node22 -->
<g id="edge37" class="edge">
<title>Node23&#45;&gt;Node22</title>
<path fill="none" stroke="midnightblue" d="M1267.12,-156.01C1378.11,-133.31 1409.18,-139.49 1516.5,-120 1525.73,-118.32 1535.45,-116.38 1544.96,-114.38"/>
<polygon fill="midnightblue" stroke="midnightblue" points="1266.29,-152.61 1257.21,-158.07 1267.72,-159.46 1266.29,-152.61"/>
</g>
<!-- Node23&#45;&gt;Node24 -->
<g id="edge32" class="edge">
<title>Node23&#45;&gt;Node24</title>
<path fill="none" stroke="midnightblue" d="M1162.67,-149.99C1148.02,-138.02 1131.2,-124.27 1118.91,-114.23"/>
<polygon fill="midnightblue" stroke="midnightblue" points="1160.59,-152.81 1170.55,-156.43 1165.02,-147.39 1160.59,-152.81"/>
</g>
<!-- Node25 -->
<g id="node25" class="node">
<title>Node25</title>
<g id="a_node25"><a xlink:href="../../db/d83/omnibox__text__view_8h.html" target="_top" xlink:title=" ">
<polygon fill="white" stroke="black" points="1382,-78.5 1382,-119.5 1507,-119.5 1507,-78.5 1382,-78.5"/>
<text text-anchor="start" x="1390" y="-107.5" font-family="Helvetica,sans-Serif" font-size="10.00">chrome/browser/ui/views</text>
<text text-anchor="start" x="1390" y="-96.5" font-family="Helvetica,sans-Serif" font-size="10.00">/omnibox/omnibox_text</text>
<text text-anchor="middle" x="1444.5" y="-85.5" font-family="Helvetica,sans-Serif" font-size="10.00">_view.h</text>
</a>
</g>
</g>
<!-- Node23&#45;&gt;Node25 -->
<g id="edge33" class="edge">
<title>Node23&#45;&gt;Node25</title>
<path fill="none" stroke="midnightblue" d="M1267.29,-153.87C1303.54,-142.85 1346.94,-129.66 1381.71,-119.09"/>
<polygon fill="midnightblue" stroke="midnightblue" points="1265.81,-150.66 1257.26,-156.92 1267.85,-157.36 1265.81,-150.66"/>
</g>
<!-- Node25&#45;&gt;Node18 -->
<g id="edge34" class="edge">
<title>Node25&#45;&gt;Node18</title>
<path fill="none" stroke="midnightblue" d="M1372.37,-75.44C1337.88,-64.66 1297,-51.87 1263.87,-41.51"/>
<polygon fill="midnightblue" stroke="midnightblue" points="1371.33,-78.78 1381.92,-78.43 1373.42,-72.1 1371.33,-78.78"/>
</g>
<!-- Node25&#45;&gt;Node20 -->
<g id="edge35" class="edge">
<title>Node25&#45;&gt;Node20</title>
<path fill="none" stroke="midnightblue" d="M1371.5,-77.99C1290.69,-62.5 1114.99,-40.74 1020.36,-29.41"/>
<polygon fill="midnightblue" stroke="midnightblue" points="1371.3,-81.52 1381.79,-80.04 1372.67,-74.65 1371.3,-81.52"/>
</g>
<!-- Node26 -->
<g id="node26" class="node">
<title>Node26</title>
<g id="a_node26"><a xlink:href="../../d7/d7d/omnibox__text__view_8cc.html" target="_top" xlink:title=" ">
<polygon fill="white" stroke="black" points="1382,-0.5 1382,-41.5 1507,-41.5 1507,-0.5 1382,-0.5"/>
<text text-anchor="start" x="1390" y="-29.5" font-family="Helvetica,sans-Serif" font-size="10.00">chrome/browser/ui/views</text>
<text text-anchor="start" x="1390" y="-18.5" font-family="Helvetica,sans-Serif" font-size="10.00">/omnibox/omnibox_text</text>
<text text-anchor="middle" x="1444.5" y="-7.5" font-family="Helvetica,sans-Serif" font-size="10.00">_view.cc</text>
</a>
</g>
</g>
<!-- Node25&#45;&gt;Node26 -->
<g id="edge36" class="edge">
<title>Node25&#45;&gt;Node26</title>
<path fill="none" stroke="midnightblue" d="M1444.5,-68.3C1444.5,-59.3 1444.5,-49.65 1444.5,-41.51"/>
<polygon fill="midnightblue" stroke="midnightblue" points="1441,-68.43 1444.5,-78.43 1448,-68.43 1441,-68.43"/>
</g>
<!-- Node27&#45;&gt;Node20 -->
<g id="edge40" class="edge">
<title>Node27&#45;&gt;Node20</title>
<path fill="none" stroke="midnightblue" d="M751.42,-148.62C733.6,-127.88 716.78,-99.41 733.5,-78 753.24,-52.72 835.8,-37.17 894.95,-29.06"/>
<polygon fill="midnightblue" stroke="midnightblue" points="748.93,-151.08 758.23,-156.16 754.13,-146.39 748.93,-151.08"/>
</g>
<!-- Node27&#45;&gt;Node21 -->
<g id="edge41" class="edge">
<title>Node27&#45;&gt;Node21</title>
<path fill="none" stroke="midnightblue" d="M793.77,-147.47C798.43,-138.14 803.5,-128.01 807.75,-119.51"/>
<polygon fill="midnightblue" stroke="midnightblue" points="790.63,-145.92 789.29,-156.43 796.89,-149.05 790.63,-145.92"/>
</g>
<!-- Node30&#45;&gt;Node19 -->
<g id="edge49" class="edge">
<title>Node30&#45;&gt;Node19</title>
<path fill="none" stroke="midnightblue" d="M1645.85,-162.49C1633.4,-160.27 1620.58,-158.02 1608.5,-156 1504.29,-138.55 1476.89,-141.82 1373.5,-120 1370.24,-119.31 1366.92,-118.57 1363.57,-117.79"/>
<polygon fill="midnightblue" stroke="midnightblue" points="1645.27,-165.95 1655.73,-164.28 1646.51,-159.06 1645.27,-165.95"/>
</g>
<!-- Node30&#45;&gt;Node22 -->
<g id="edge50" class="edge">
<title>Node30&#45;&gt;Node22</title>
<path fill="none" stroke="midnightblue" d="M1681.45,-150.64C1666.63,-140.49 1649.83,-128.98 1635.99,-119.51"/>
<polygon fill="midnightblue" stroke="midnightblue" points="1679.69,-153.67 1689.91,-156.43 1683.64,-147.89 1679.69,-153.67"/>
</g>
</g>
</svg>
