<?xml version="1.0" encoding="UTF-8" standalone="no"?>
<!DOCTYPE svg PUBLIC "-//W3C//DTD SVG 1.1//EN"
 "http://www.w3.org/Graphics/SVG/1.1/DTD/svg11.dtd">
<!-- Generated by graphviz version 2.43.0 (0)
 -->
<!-- Title: components/omnibox/browser/url_prefix.cc Pages: 1 -->
<svg width="895pt" height="162pt"
 viewBox="0.00 0.00 894.50 162.00" xmlns="http://www.w3.org/2000/svg" xmlns:xlink="http://www.w3.org/1999/xlink">
<g id="graph0" class="graph" transform="scale(1 1) rotate(0) translate(4 158)">
<title>components/omnibox/browser/url_prefix.cc</title>
<polygon fill="white" stroke="transparent" points="-4,4 -4,-158 890.5,-158 890.5,4 -4,4"/>
<!-- Node1 -->
<g id="node1" class="node">
<title>Node1</title>
<g id="a_node1"><a xlink:title=" ">
<polygon fill="#bfbfbf" stroke="black" points="420,-123.5 420,-153.5 530,-153.5 530,-123.5 420,-123.5"/>
<text text-anchor="start" x="428" y="-141.5" font-family="Helvetica,sans-Serif" font-size="10.00">components/omnibox</text>
<text text-anchor="middle" x="475" y="-130.5" font-family="Helvetica,sans-Serif" font-size="10.00">/browser/url_prefix.cc</text>
</a>
</g>
</g>
<!-- Node2 -->
<g id="node2" class="node">
<title>Node2</title>
<g id="a_node2"><a xlink:href="../../d8/da6/url__prefix_8h.html" target="_top" xlink:title=" ">
<polygon fill="white" stroke="black" points="36,-56.5 36,-86.5 146,-86.5 146,-56.5 36,-56.5"/>
<text text-anchor="start" x="44" y="-74.5" font-family="Helvetica,sans-Serif" font-size="10.00">components/omnibox</text>
<text text-anchor="middle" x="91" y="-63.5" font-family="Helvetica,sans-Serif" font-size="10.00">/browser/url_prefix.h</text>
</a>
</g>
</g>
<!-- Node1&#45;&gt;Node2 -->
<g id="edge1" class="edge">
<title>Node1&#45;&gt;Node2</title>
<path fill="none" stroke="midnightblue" d="M419.78,-129.83C358.09,-121.02 255.03,-105.58 156.13,-86.95"/>
<polygon fill="midnightblue" stroke="midnightblue" points="156.75,-83.5 146.27,-85.08 155.44,-90.38 156.75,-83.5"/>
</g>
<!-- Node6 -->
<g id="node6" class="node">
<title>Node6</title>
<g id="a_node6"><a xlink:title=" ">
<polygon fill="white" stroke="#bfbfbf" points="164.5,-62 164.5,-81 255.5,-81 255.5,-62 164.5,-62"/>
<text text-anchor="middle" x="210" y="-69" font-family="Helvetica,sans-Serif" font-size="10.00">base/check_op.h</text>
</a>
</g>
</g>
<!-- Node1&#45;&gt;Node6 -->
<g id="edge5" class="edge">
<title>Node1&#45;&gt;Node6</title>
<path fill="none" stroke="midnightblue" d="M419.65,-124.54C377.26,-114.52 317.36,-100.2 265,-87 260.68,-85.91 256.18,-84.76 251.69,-83.59"/>
<polygon fill="midnightblue" stroke="midnightblue" points="252.52,-80.19 241.96,-81.05 250.75,-86.97 252.52,-80.19"/>
</g>
<!-- Node7 -->
<g id="node7" class="node">
<title>Node7</title>
<g id="a_node7"><a xlink:title=" ">
<polygon fill="white" stroke="#bfbfbf" points="273.5,-62 273.5,-81 416.5,-81 416.5,-62 273.5,-62"/>
<text text-anchor="middle" x="345" y="-69" font-family="Helvetica,sans-Serif" font-size="10.00">base/i18n/case_conversion.h</text>
</a>
</g>
</g>
<!-- Node1&#45;&gt;Node7 -->
<g id="edge6" class="edge">
<title>Node1&#45;&gt;Node7</title>
<path fill="none" stroke="midnightblue" d="M446.79,-123.4C424.28,-112.14 393,-96.5 371.08,-85.54"/>
<polygon fill="midnightblue" stroke="midnightblue" points="372.52,-82.35 362.01,-81.01 369.39,-88.61 372.52,-82.35"/>
</g>
<!-- Node8 -->
<g id="node8" class="node">
<title>Node8</title>
<g id="a_node8"><a xlink:title=" ">
<polygon fill="white" stroke="#bfbfbf" points="435,-62 435,-81 515,-81 515,-62 435,-62"/>
<text text-anchor="middle" x="475" y="-69" font-family="Helvetica,sans-Serif" font-size="10.00">base/logging.h</text>
</a>
</g>
</g>
<!-- Node1&#45;&gt;Node8 -->
<g id="edge7" class="edge">
<title>Node1&#45;&gt;Node8</title>
<path fill="none" stroke="midnightblue" d="M475,-123.4C475,-114.06 475,-101.71 475,-91.52"/>
<polygon fill="midnightblue" stroke="midnightblue" points="478.5,-91.19 475,-81.19 471.5,-91.19 478.5,-91.19"/>
</g>
<!-- Node9 -->
<g id="node9" class="node">
<title>Node9</title>
<g id="a_node9"><a xlink:title=" ">
<polygon fill="white" stroke="#bfbfbf" points="533.5,-62 533.5,-81 640.5,-81 640.5,-62 533.5,-62"/>
<text text-anchor="middle" x="587" y="-69" font-family="Helvetica,sans-Serif" font-size="10.00">base/no_destructor.h</text>
</a>
</g>
</g>
<!-- Node1&#45;&gt;Node9 -->
<g id="edge8" class="edge">
<title>Node1&#45;&gt;Node9</title>
<path fill="none" stroke="midnightblue" d="M499.3,-123.4C518.35,-112.34 544.68,-97.06 563.51,-86.13"/>
<polygon fill="midnightblue" stroke="midnightblue" points="565.45,-89.05 572.34,-81.01 561.94,-83 565.45,-89.05"/>
</g>
<!-- Node10 -->
<g id="node10" class="node">
<title>Node10</title>
<g id="a_node10"><a xlink:title=" ">
<polygon fill="white" stroke="#bfbfbf" points="658.5,-56.5 658.5,-86.5 755.5,-86.5 755.5,-56.5 658.5,-56.5"/>
<text text-anchor="start" x="666.5" y="-74.5" font-family="Helvetica,sans-Serif" font-size="10.00">base/strings/string</text>
<text text-anchor="middle" x="707" y="-63.5" font-family="Helvetica,sans-Serif" font-size="10.00">_util.h</text>
</a>
</g>
</g>
<!-- Node1&#45;&gt;Node10 -->
<g id="edge9" class="edge">
<title>Node1&#45;&gt;Node10</title>
<path fill="none" stroke="midnightblue" d="M525.05,-123.48C561.25,-113.34 610.27,-99.6 648.31,-88.94"/>
<polygon fill="midnightblue" stroke="midnightblue" points="649.54,-92.23 658.23,-86.16 647.65,-85.49 649.54,-92.23"/>
</g>
<!-- Node11 -->
<g id="node11" class="node">
<title>Node11</title>
<g id="a_node11"><a xlink:title=" ">
<polygon fill="white" stroke="#bfbfbf" points="773.5,-56.5 773.5,-86.5 886.5,-86.5 886.5,-56.5 773.5,-56.5"/>
<text text-anchor="start" x="781.5" y="-74.5" font-family="Helvetica,sans-Serif" font-size="10.00">base/strings/utf_string</text>
<text text-anchor="middle" x="830" y="-63.5" font-family="Helvetica,sans-Serif" font-size="10.00">_conversions.h</text>
</a>
</g>
</g>
<!-- Node1&#45;&gt;Node11 -->
<g id="edge10" class="edge">
<title>Node1&#45;&gt;Node11</title>
<path fill="none" stroke="midnightblue" d="M530.2,-128.68C586.48,-119.51 676.55,-104.35 763.3,-87.29"/>
<polygon fill="midnightblue" stroke="midnightblue" points="764.18,-90.68 773.31,-85.31 762.82,-83.82 764.18,-90.68"/>
</g>
<!-- Node3 -->
<g id="node3" class="node">
<title>Node3</title>
<g id="a_node3"><a xlink:title=" ">
<polygon fill="white" stroke="#bfbfbf" points="0,-0.5 0,-19.5 52,-19.5 52,-0.5 0,-0.5"/>
<text text-anchor="middle" x="26" y="-7.5" font-family="Helvetica,sans-Serif" font-size="10.00">stddef.h</text>
</a>
</g>
</g>
<!-- Node2&#45;&gt;Node3 -->
<g id="edge2" class="edge">
<title>Node2&#45;&gt;Node3</title>
<path fill="none" stroke="midnightblue" d="M75.6,-56.4C65.76,-47.4 53.01,-35.72 42.89,-26.47"/>
<polygon fill="midnightblue" stroke="midnightblue" points="45.2,-23.83 35.46,-19.66 40.47,-28.99 45.2,-23.83"/>
</g>
<!-- Node4 -->
<g id="node4" class="node">
<title>Node4</title>
<g id="a_node4"><a xlink:title=" ">
<polygon fill="white" stroke="#bfbfbf" points="70.5,-0.5 70.5,-19.5 111.5,-19.5 111.5,-0.5 70.5,-0.5"/>
<text text-anchor="middle" x="91" y="-7.5" font-family="Helvetica,sans-Serif" font-size="10.00">string</text>
</a>
</g>
</g>
<!-- Node2&#45;&gt;Node4 -->
<g id="edge3" class="edge">
<title>Node2&#45;&gt;Node4</title>
<path fill="none" stroke="midnightblue" d="M91,-56.4C91,-48.47 91,-38.46 91,-29.86"/>
<polygon fill="midnightblue" stroke="midnightblue" points="94.5,-29.66 91,-19.66 87.5,-29.66 94.5,-29.66"/>
</g>
<!-- Node5 -->
<g id="node5" class="node">
<title>Node5</title>
<g id="a_node5"><a xlink:title=" ">
<polygon fill="white" stroke="#bfbfbf" points="130,-0.5 130,-19.5 174,-19.5 174,-0.5 130,-0.5"/>
<text text-anchor="middle" x="152" y="-7.5" font-family="Helvetica,sans-Serif" font-size="10.00">vector</text>
</a>
</g>
</g>
<!-- Node2&#45;&gt;Node5 -->
<g id="edge4" class="edge">
<title>Node2&#45;&gt;Node5</title>
<path fill="none" stroke="midnightblue" d="M105.46,-56.4C114.59,-47.49 126.42,-35.95 135.86,-26.74"/>
<polygon fill="midnightblue" stroke="midnightblue" points="138.41,-29.15 143.12,-19.66 133.52,-24.13 138.41,-29.15"/>
</g>
</g>
</svg>
