<?xml version="1.0" encoding="UTF-8" standalone="no"?>
<!DOCTYPE svg PUBLIC "-//W3C//DTD SVG 1.1//EN"
 "http://www.w3.org/Graphics/SVG/1.1/DTD/svg11.dtd">
<!-- Generated by graphviz version 2.43.0 (0)
 -->
<!-- Title: UpdateRecentVisitsFromHistoryDBTask Pages: 1 -->
<svg width="275pt" height="174pt"
 viewBox="0.00 0.00 274.50 174.00" xmlns="http://www.w3.org/2000/svg" xmlns:xlink="http://www.w3.org/1999/xlink">
<g id="graph0" class="graph" transform="scale(1 1) rotate(0) translate(4 170)">
<title>UpdateRecentVisitsFromHistoryDBTask</title>
<polygon fill="white" stroke="transparent" points="-4,4 -4,-170 270.5,-170 270.5,4 -4,4"/>
<!-- Node1 -->
<g id="node1" class="node">
<title>Node1</title>
<g id="a_node1"><a xlink:title=" ">
<polygon fill="#bfbfbf" stroke="black" points="21.5,-0.5 21.5,-30.5 179.5,-30.5 179.5,-0.5 21.5,-0.5"/>
<text text-anchor="start" x="29.5" y="-18.5" font-family="Helvetica,sans-Serif" font-size="10.00">UpdateRecentVisitsFromHistory</text>
<text text-anchor="middle" x="100.5" y="-7.5" font-family="Helvetica,sans-Serif" font-size="10.00">DBTask</text>
</a>
</g>
</g>
<!-- Node2 -->
<g id="node2" class="node">
<title>Node2</title>
<g id="a_node2"><a xlink:title=" ">
<polygon fill="white" stroke="#bfbfbf" points="0,-78.5 0,-97.5 119,-97.5 119,-78.5 0,-78.5"/>
<text text-anchor="middle" x="59.5" y="-85.5" font-family="Helvetica,sans-Serif" font-size="10.00">history::HistoryDBTask</text>
</a>
</g>
</g>
<!-- Node2&#45;&gt;Node1 -->
<g id="edge1" class="edge">
<title>Node2&#45;&gt;Node1</title>
<path fill="none" stroke="midnightblue" d="M69.57,-69.68C76.57,-57.65 85.77,-41.83 92.31,-30.58"/>
<polygon fill="midnightblue" stroke="midnightblue" points="66.53,-67.95 64.53,-78.36 72.58,-71.47 66.53,-67.95"/>
</g>
<!-- Node3 -->
<g id="node3" class="node">
<title>Node3</title>
<g id="a_node3"><a xlink:href="../../d0/d85/classURLIndexPrivateData.html" target="_top" xlink:title=" ">
<polygon fill="white" stroke="black" points="137,-78.5 137,-97.5 250,-97.5 250,-78.5 137,-78.5"/>
<text text-anchor="middle" x="193.5" y="-85.5" font-family="Helvetica,sans-Serif" font-size="10.00">URLIndexPrivateData</text>
</a>
</g>
</g>
<!-- Node3&#45;&gt;Node1 -->
<g id="edge2" class="edge">
<title>Node3&#45;&gt;Node1</title>
<path fill="none" stroke="#9a32cd" stroke-dasharray="5,2" d="M173.88,-72.13C157.71,-59.87 134.94,-42.61 119.07,-30.58"/>
<polygon fill="#9a32cd" stroke="#9a32cd" points="172.01,-75.1 182.1,-78.36 176.24,-69.53 172.01,-75.1"/>
<text text-anchor="middle" x="185.5" y="-52" font-family="Helvetica,sans-Serif" font-size="10.00"> private_data_</text>
</g>
<!-- Node4 -->
<g id="node4" class="node">
<title>Node4</title>
<g id="a_node4"><a xlink:title=" ">
<polygon fill="white" stroke="#bfbfbf" points="120.5,-135.5 120.5,-165.5 266.5,-165.5 266.5,-135.5 120.5,-135.5"/>
<text text-anchor="start" x="128.5" y="-153.5" font-family="Helvetica,sans-Serif" font-size="10.00">base::RefCountedThreadSafe</text>
<text text-anchor="middle" x="193.5" y="-142.5" font-family="Helvetica,sans-Serif" font-size="10.00">&lt; URLIndexPrivateData &gt;</text>
</a>
</g>
</g>
<!-- Node4&#45;&gt;Node3 -->
<g id="edge3" class="edge">
<title>Node4&#45;&gt;Node3</title>
<path fill="none" stroke="midnightblue" d="M193.5,-125.35C193.5,-115.51 193.5,-104.78 193.5,-97.54"/>
<polygon fill="midnightblue" stroke="midnightblue" points="190,-125.47 193.5,-135.47 197,-125.47 190,-125.47"/>
</g>
</g>
</svg>
