<?xml version="1.0" encoding="UTF-8" standalone="no"?>
<!DOCTYPE svg PUBLIC "-//W3C//DTD SVG 1.1//EN"
 "http://www.w3.org/Graphics/SVG/1.1/DTD/svg11.dtd">
<!-- Generated by graphviz version 2.43.0 (0)
 -->
<!-- Title: OnDeviceHeadProvider Pages: 1 -->
<svg width="459pt" height="163pt"
 viewBox="0.00 0.00 459.00 163.00" xmlns="http://www.w3.org/2000/svg" xmlns:xlink="http://www.w3.org/1999/xlink">
<g id="graph0" class="graph" transform="scale(1 1) rotate(0) translate(4 159)">
<title>OnDeviceHeadProvider</title>
<polygon fill="white" stroke="transparent" points="-4,4 -4,-159 455,-159 455,4 -4,4"/>
<!-- Node1 -->
<g id="node1" class="node">
<title>Node1</title>
<g id="a_node1"><a xlink:title=" ">
<polygon fill="#bfbfbf" stroke="black" points="161.5,-0.5 161.5,-19.5 280.5,-19.5 280.5,-0.5 161.5,-0.5"/>
<text text-anchor="middle" x="221" y="-7.5" font-family="Helvetica,sans-Serif" font-size="10.00">OnDeviceHeadProvider</text>
</a>
</g>
</g>
<!-- Node2 -->
<g id="node2" class="node">
<title>Node2</title>
<g id="a_node2"><a xlink:href="../../dd/de9/classAutocompleteProvider.html" target="_top" xlink:title=" ">
<polygon fill="white" stroke="black" points="16.5,-67.5 16.5,-86.5 129.5,-86.5 129.5,-67.5 16.5,-67.5"/>
<text text-anchor="middle" x="73" y="-74.5" font-family="Helvetica,sans-Serif" font-size="10.00">AutocompleteProvider</text>
</a>
</g>
</g>
<!-- Node2&#45;&gt;Node1 -->
<g id="edge1" class="edge">
<title>Node2&#45;&gt;Node1</title>
<path fill="none" stroke="midnightblue" d="M101.96,-63.28C131.27,-50.41 175.79,-30.85 201.27,-19.67"/>
<polygon fill="midnightblue" stroke="midnightblue" points="100.4,-60.14 92.65,-67.37 103.22,-66.55 100.4,-60.14"/>
</g>
<!-- Node3 -->
<g id="node3" class="node">
<title>Node3</title>
<g id="a_node3"><a xlink:title=" ">
<polygon fill="white" stroke="#bfbfbf" points="0,-124.5 0,-154.5 146,-154.5 146,-124.5 0,-124.5"/>
<text text-anchor="start" x="8" y="-142.5" font-family="Helvetica,sans-Serif" font-size="10.00">base::RefCountedThreadSafe</text>
<text text-anchor="middle" x="73" y="-131.5" font-family="Helvetica,sans-Serif" font-size="10.00">&lt; AutocompleteProvider &gt;</text>
</a>
</g>
</g>
<!-- Node3&#45;&gt;Node2 -->
<g id="edge2" class="edge">
<title>Node3&#45;&gt;Node2</title>
<path fill="none" stroke="midnightblue" d="M73,-114.35C73,-104.51 73,-93.78 73,-86.54"/>
<polygon fill="midnightblue" stroke="midnightblue" points="69.5,-114.47 73,-124.47 76.5,-114.47 69.5,-114.47"/>
</g>
<!-- Node4 -->
<g id="node4" class="node">
<title>Node4</title>
<g id="a_node4"><a xlink:href="../../dc/dce/classAutocompleteProviderListener.html" target="_top" xlink:title=" ">
<polygon fill="white" stroke="black" points="147.5,-67.5 147.5,-86.5 294.5,-86.5 294.5,-67.5 147.5,-67.5"/>
<text text-anchor="middle" x="221" y="-74.5" font-family="Helvetica,sans-Serif" font-size="10.00">AutocompleteProviderListener</text>
</a>
</g>
</g>
<!-- Node4&#45;&gt;Node1 -->
<g id="edge3" class="edge">
<title>Node4&#45;&gt;Node1</title>
<path fill="none" stroke="#9a32cd" stroke-dasharray="5,2" d="M221,-57.04C221,-44.67 221,-29.12 221,-19.63"/>
<polygon fill="#9a32cd" stroke="#9a32cd" points="217.5,-57.23 221,-67.23 224.5,-57.23 217.5,-57.23"/>
<text text-anchor="middle" x="241" y="-41" font-family="Helvetica,sans-Serif" font-size="10.00"> listener_</text>
</g>
<!-- Node5 -->
<g id="node5" class="node">
<title>Node5</title>
<g id="a_node5"><a xlink:href="../../d5/dc7/classAutocompleteProviderClient.html" target="_top" xlink:title=" ">
<polygon fill="white" stroke="black" points="313,-67.5 313,-86.5 451,-86.5 451,-67.5 313,-67.5"/>
<text text-anchor="middle" x="382" y="-74.5" font-family="Helvetica,sans-Serif" font-size="10.00">AutocompleteProviderClient</text>
</a>
</g>
</g>
<!-- Node5&#45;&gt;Node1 -->
<g id="edge4" class="edge">
<title>Node5&#45;&gt;Node1</title>
<path fill="none" stroke="#9a32cd" stroke-dasharray="5,2" d="M351.3,-63.6C319.33,-50.7 270.11,-30.83 242.21,-19.56"/>
<polygon fill="#9a32cd" stroke="#9a32cd" points="350.04,-66.87 360.62,-67.37 352.66,-60.38 350.04,-66.87"/>
<text text-anchor="middle" x="328" y="-41" font-family="Helvetica,sans-Serif" font-size="10.00"> client_</text>
</g>
<!-- Node6 -->
<g id="node6" class="node">
<title>Node6</title>
<g id="a_node6"><a xlink:href="../../d2/df2/structOmniboxAction_1_1Client.html" target="_top" xlink:title=" ">
<polygon fill="white" stroke="black" points="324.5,-130 324.5,-149 439.5,-149 439.5,-130 324.5,-130"/>
<text text-anchor="middle" x="382" y="-137" font-family="Helvetica,sans-Serif" font-size="10.00">OmniboxAction::Client</text>
</a>
</g>
</g>
<!-- Node6&#45;&gt;Node5 -->
<g id="edge5" class="edge">
<title>Node6&#45;&gt;Node5</title>
<path fill="none" stroke="midnightblue" d="M382,-119.5C382,-108.5 382,-95.18 382,-86.65"/>
<polygon fill="midnightblue" stroke="midnightblue" points="378.5,-119.83 382,-129.83 385.5,-119.83 378.5,-119.83"/>
</g>
</g>
</svg>
