<?xml version="1.0" encoding="UTF-8" standalone="no"?>
<!DOCTYPE svg PUBLIC "-//W3C//DTD SVG 1.1//EN"
 "http://www.w3.org/Graphics/SVG/1.1/DTD/svg11.dtd">
<!-- Generated by graphviz version 2.43.0 (0)
 -->
<!-- Title: components/omnibox/browser/omnibox_edit_controller.h Pages: 1 -->
<svg width="1410pt" height="195pt"
 viewBox="0.00 0.00 1410.00 195.00" xmlns="http://www.w3.org/2000/svg" xmlns:xlink="http://www.w3.org/1999/xlink">
<g id="graph0" class="graph" transform="scale(1 1) rotate(0) translate(4 191)">
<title>components/omnibox/browser/omnibox_edit_controller.h</title>
<polygon fill="white" stroke="transparent" points="-4,4 -4,-191 1406,-191 1406,4 -4,4"/>
<!-- Node1 -->
<g id="node1" class="node">
<title>Node1</title>
<g id="a_node1"><a xlink:title=" ">
<polygon fill="#bfbfbf" stroke="black" points="719,-145.5 719,-186.5 834,-186.5 834,-145.5 719,-145.5"/>
<text text-anchor="start" x="727" y="-174.5" font-family="Helvetica,sans-Serif" font-size="10.00">components/omnibox</text>
<text text-anchor="start" x="727" y="-163.5" font-family="Helvetica,sans-Serif" font-size="10.00">/browser/omnibox_edit</text>
<text text-anchor="middle" x="776.5" y="-152.5" font-family="Helvetica,sans-Serif" font-size="10.00">_controller.h</text>
</a>
</g>
</g>
<!-- Node2 -->
<g id="node2" class="node">
<title>Node2</title>
<g id="a_node2"><a xlink:href="../../dc/d51/chrome__omnibox__edit__controller_8h.html" target="_top" xlink:title=" ">
<polygon fill="white" stroke="black" points="71,-73 71,-103 238,-103 238,-73 71,-73"/>
<text text-anchor="start" x="79" y="-91" font-family="Helvetica,sans-Serif" font-size="10.00">chrome/browser/ui/omnibox</text>
<text text-anchor="middle" x="154.5" y="-80" font-family="Helvetica,sans-Serif" font-size="10.00">/chrome_omnibox_edit_controller.h</text>
</a>
</g>
</g>
<!-- Node1&#45;&gt;Node2 -->
<g id="edge1" class="edge">
<title>Node1&#45;&gt;Node2</title>
<path fill="none" stroke="midnightblue" d="M708.64,-160.14C607.68,-152.38 412.15,-135.34 247.5,-109 237.06,-107.33 226.03,-105.25 215.36,-103.06"/>
<polygon fill="midnightblue" stroke="midnightblue" points="708.46,-163.64 718.7,-160.91 708.99,-156.66 708.46,-163.64"/>
</g>
<!-- Node5 -->
<g id="node5" class="node">
<title>Node5</title>
<g id="a_node5"><a xlink:href="../../de/d24/omnibox__action_8cc.html" target="_top" xlink:title=" ">
<polygon fill="white" stroke="black" points="256.5,-67.5 256.5,-108.5 384.5,-108.5 384.5,-67.5 256.5,-67.5"/>
<text text-anchor="start" x="264.5" y="-96.5" font-family="Helvetica,sans-Serif" font-size="10.00">components/omnibox</text>
<text text-anchor="start" x="264.5" y="-85.5" font-family="Helvetica,sans-Serif" font-size="10.00">/browser/actions/omnibox</text>
<text text-anchor="middle" x="320.5" y="-74.5" font-family="Helvetica,sans-Serif" font-size="10.00">_action.cc</text>
</a>
</g>
</g>
<!-- Node1&#45;&gt;Node5 -->
<g id="edge4" class="edge">
<title>Node1&#45;&gt;Node5</title>
<path fill="none" stroke="midnightblue" d="M708.65,-157.62C631.75,-148.67 502.87,-131.89 393.5,-109 390.67,-108.41 387.79,-107.77 384.88,-107.1"/>
<polygon fill="midnightblue" stroke="midnightblue" points="708.35,-161.11 718.69,-158.78 709.16,-154.16 708.35,-161.11"/>
</g>
<!-- Node6 -->
<g id="node6" class="node">
<title>Node6</title>
<g id="a_node6"><a xlink:href="../../d9/d99/omnibox__pedal_8cc.html" target="_top" xlink:title=" ">
<polygon fill="white" stroke="black" points="402.5,-67.5 402.5,-108.5 530.5,-108.5 530.5,-67.5 402.5,-67.5"/>
<text text-anchor="start" x="410.5" y="-96.5" font-family="Helvetica,sans-Serif" font-size="10.00">components/omnibox</text>
<text text-anchor="start" x="410.5" y="-85.5" font-family="Helvetica,sans-Serif" font-size="10.00">/browser/actions/omnibox</text>
<text text-anchor="middle" x="466.5" y="-74.5" font-family="Helvetica,sans-Serif" font-size="10.00">_pedal.cc</text>
</a>
</g>
</g>
<!-- Node1&#45;&gt;Node6 -->
<g id="edge5" class="edge">
<title>Node1&#45;&gt;Node6</title>
<path fill="none" stroke="midnightblue" d="M709.03,-149.73C661.52,-138.81 596.49,-123.53 539.5,-109 536.57,-108.25 533.58,-107.48 530.56,-106.69"/>
<polygon fill="midnightblue" stroke="midnightblue" points="708.36,-153.16 718.89,-151.99 709.93,-146.34 708.36,-153.16"/>
</g>
<!-- Node7 -->
<g id="node7" class="node">
<title>Node7</title>
<g id="a_node7"><a xlink:href="../../dd/d1e/omnibox__controller_8cc.html" target="_top" xlink:title=" ">
<polygon fill="white" stroke="black" points="548.5,-73 548.5,-103 700.5,-103 700.5,-73 548.5,-73"/>
<text text-anchor="start" x="556.5" y="-91" font-family="Helvetica,sans-Serif" font-size="10.00">components/omnibox</text>
<text text-anchor="middle" x="624.5" y="-80" font-family="Helvetica,sans-Serif" font-size="10.00">/browser/omnibox_controller.cc</text>
</a>
</g>
</g>
<!-- Node1&#45;&gt;Node7 -->
<g id="edge6" class="edge">
<title>Node1&#45;&gt;Node7</title>
<path fill="none" stroke="midnightblue" d="M728.11,-140.81C703.35,-128.43 674.06,-113.78 652.95,-103.23"/>
<polygon fill="midnightblue" stroke="midnightblue" points="726.85,-144.09 737.36,-145.43 729.98,-137.83 726.85,-144.09"/>
</g>
<!-- Node8 -->
<g id="node8" class="node">
<title>Node8</title>
<g id="a_node8"><a xlink:href="../../dd/dbd/omnibox__edit__controller_8cc.html" target="_top" xlink:title=" ">
<polygon fill="white" stroke="black" points="719,-67.5 719,-108.5 834,-108.5 834,-67.5 719,-67.5"/>
<text text-anchor="start" x="727" y="-96.5" font-family="Helvetica,sans-Serif" font-size="10.00">components/omnibox</text>
<text text-anchor="start" x="727" y="-85.5" font-family="Helvetica,sans-Serif" font-size="10.00">/browser/omnibox_edit</text>
<text text-anchor="middle" x="776.5" y="-74.5" font-family="Helvetica,sans-Serif" font-size="10.00">_controller.cc</text>
</a>
</g>
</g>
<!-- Node1&#45;&gt;Node8 -->
<g id="edge7" class="edge">
<title>Node1&#45;&gt;Node8</title>
<path fill="none" stroke="midnightblue" d="M776.5,-135.3C776.5,-126.3 776.5,-116.65 776.5,-108.51"/>
<polygon fill="midnightblue" stroke="midnightblue" points="773,-135.43 776.5,-145.43 780,-135.43 773,-135.43"/>
</g>
<!-- Node9 -->
<g id="node9" class="node">
<title>Node9</title>
<g id="a_node9"><a xlink:href="../../d7/df6/omnibox__edit__model_8cc.html" target="_top" xlink:title=" ">
<polygon fill="white" stroke="black" points="852,-67.5 852,-108.5 967,-108.5 967,-67.5 852,-67.5"/>
<text text-anchor="start" x="860" y="-96.5" font-family="Helvetica,sans-Serif" font-size="10.00">components/omnibox</text>
<text text-anchor="start" x="860" y="-85.5" font-family="Helvetica,sans-Serif" font-size="10.00">/browser/omnibox_edit</text>
<text text-anchor="middle" x="909.5" y="-74.5" font-family="Helvetica,sans-Serif" font-size="10.00">_model.cc</text>
</a>
</g>
</g>
<!-- Node1&#45;&gt;Node9 -->
<g id="edge8" class="edge">
<title>Node1&#45;&gt;Node9</title>
<path fill="none" stroke="midnightblue" d="M819.89,-140.2C837.89,-129.92 858.47,-118.16 875.37,-108.51"/>
<polygon fill="midnightblue" stroke="midnightblue" points="817.7,-137.43 810.75,-145.43 821.17,-143.51 817.7,-137.43"/>
</g>
<!-- Node10 -->
<g id="node10" class="node">
<title>Node10</title>
<g id="a_node10"><a xlink:href="../../d3/de0/omnibox__popup__model_8cc.html" target="_top" xlink:title=" ">
<polygon fill="white" stroke="black" points="985,-67.5 985,-108.5 1110,-108.5 1110,-67.5 985,-67.5"/>
<text text-anchor="start" x="993" y="-96.5" font-family="Helvetica,sans-Serif" font-size="10.00">components/omnibox</text>
<text text-anchor="start" x="993" y="-85.5" font-family="Helvetica,sans-Serif" font-size="10.00">/browser/omnibox_popup</text>
<text text-anchor="middle" x="1047.5" y="-74.5" font-family="Helvetica,sans-Serif" font-size="10.00">_model.cc</text>
</a>
</g>
</g>
<!-- Node1&#45;&gt;Node10 -->
<g id="edge9" class="edge">
<title>Node1&#45;&gt;Node10</title>
<path fill="none" stroke="midnightblue" d="M844.38,-146.02C883.1,-135.19 932.52,-121.35 976.5,-109 979.21,-108.24 981.98,-107.46 984.78,-106.67"/>
<polygon fill="midnightblue" stroke="midnightblue" points="842.96,-142.79 834.27,-148.85 844.84,-149.53 842.96,-142.79"/>
</g>
<!-- Node11 -->
<g id="node11" class="node">
<title>Node11</title>
<g id="a_node11"><a xlink:href="../../d0/d6c/omnibox__view_8cc.html" target="_top" xlink:title=" ">
<polygon fill="white" stroke="black" points="1128,-73 1128,-103 1259,-103 1259,-73 1128,-73"/>
<text text-anchor="start" x="1136" y="-91" font-family="Helvetica,sans-Serif" font-size="10.00">components/omnibox</text>
<text text-anchor="middle" x="1193.5" y="-80" font-family="Helvetica,sans-Serif" font-size="10.00">/browser/omnibox_view.cc</text>
</a>
</g>
</g>
<!-- Node1&#45;&gt;Node11 -->
<g id="edge10" class="edge">
<title>Node1&#45;&gt;Node11</title>
<path fill="none" stroke="midnightblue" d="M844.13,-156.04C913.59,-146.35 1024.65,-129.51 1119.5,-109 1127.56,-107.26 1136.06,-105.18 1144.31,-103.05"/>
<polygon fill="midnightblue" stroke="midnightblue" points="843.61,-152.58 834.19,-157.42 844.57,-159.51 843.61,-152.58"/>
</g>
<!-- Node12 -->
<g id="node12" class="node">
<title>Node12</title>
<g id="a_node12"><a xlink:href="../../d8/d7a/omnibox__view__views_8cc.html" target="_top" xlink:title=" ">
<polygon fill="white" stroke="black" points="1277,-67.5 1277,-108.5 1402,-108.5 1402,-67.5 1277,-67.5"/>
<text text-anchor="start" x="1285" y="-96.5" font-family="Helvetica,sans-Serif" font-size="10.00">chrome/browser/ui/views</text>
<text text-anchor="start" x="1285" y="-85.5" font-family="Helvetica,sans-Serif" font-size="10.00">/omnibox/omnibox_view</text>
<text text-anchor="middle" x="1339.5" y="-74.5" font-family="Helvetica,sans-Serif" font-size="10.00">_views.cc</text>
</a>
</g>
</g>
<!-- Node1&#45;&gt;Node12 -->
<g id="edge11" class="edge">
<title>Node1&#45;&gt;Node12</title>
<path fill="none" stroke="midnightblue" d="M844.24,-160.76C939.6,-154.01 1118.54,-138.46 1268.5,-109 1271.26,-108.46 1274.08,-107.86 1276.91,-107.22"/>
<polygon fill="midnightblue" stroke="midnightblue" points="843.88,-157.28 834.15,-161.46 844.37,-164.26 843.88,-157.28"/>
</g>
<!-- Node3 -->
<g id="node3" class="node">
<title>Node3</title>
<g id="a_node3"><a xlink:href="../../d0/d58/chrome__omnibox__client_8cc.html" target="_top" xlink:title=" ">
<polygon fill="white" stroke="black" points="0,-0.5 0,-30.5 137,-30.5 137,-0.5 0,-0.5"/>
<text text-anchor="start" x="8" y="-18.5" font-family="Helvetica,sans-Serif" font-size="10.00">chrome/browser/ui/omnibox</text>
<text text-anchor="middle" x="68.5" y="-7.5" font-family="Helvetica,sans-Serif" font-size="10.00">/chrome_omnibox_client.cc</text>
</a>
</g>
</g>
<!-- Node2&#45;&gt;Node3 -->
<g id="edge2" class="edge">
<title>Node2&#45;&gt;Node3</title>
<path fill="none" stroke="midnightblue" d="M129.23,-66.29C115.18,-54.77 98.06,-40.73 85.58,-30.5"/>
<polygon fill="midnightblue" stroke="midnightblue" points="127.14,-69.1 137.1,-72.73 131.58,-63.69 127.14,-69.1"/>
</g>
<!-- Node4 -->
<g id="node4" class="node">
<title>Node4</title>
<g id="a_node4"><a xlink:href="../../d7/d12/chrome__omnibox__edit__controller_8cc.html" target="_top" xlink:title=" ">
<polygon fill="white" stroke="black" points="155,-0.5 155,-30.5 328,-30.5 328,-0.5 155,-0.5"/>
<text text-anchor="start" x="163" y="-18.5" font-family="Helvetica,sans-Serif" font-size="10.00">chrome/browser/ui/omnibox</text>
<text text-anchor="middle" x="241.5" y="-7.5" font-family="Helvetica,sans-Serif" font-size="10.00">/chrome_omnibox_edit_controller.cc</text>
</a>
</g>
</g>
<!-- Node2&#45;&gt;Node4 -->
<g id="edge3" class="edge">
<title>Node2&#45;&gt;Node4</title>
<path fill="none" stroke="midnightblue" d="M180.06,-66.29C194.28,-54.77 211.6,-40.73 224.22,-30.5"/>
<polygon fill="midnightblue" stroke="midnightblue" points="177.67,-63.72 172.11,-72.73 182.08,-69.16 177.67,-63.72"/>
</g>
</g>
</svg>
