<?xml version="1.0" encoding="UTF-8" standalone="no"?>
<!DOCTYPE svg PUBLIC "-//W3C//DTD SVG 1.1//EN"
 "http://www.w3.org/Graphics/SVG/1.1/DTD/svg11.dtd">
<!-- Generated by graphviz version 2.43.0 (0)
 -->
<!-- Title: OmniboxRowView::HeaderView Pages: 1 -->
<svg width="2350pt" height="735pt"
 viewBox="0.00 0.00 2350.00 735.00" xmlns="http://www.w3.org/2000/svg" xmlns:xlink="http://www.w3.org/1999/xlink">
<g id="graph0" class="graph" transform="scale(1 1) rotate(0) translate(4 731)">
<title>OmniboxRowView::HeaderView</title>
<polygon fill="white" stroke="transparent" points="-4,4 -4,-731 2346,-731 2346,4 -4,4"/>
<!-- Node1 -->
<g id="node1" class="node">
<title>Node1</title>
<g id="a_node1"><a xlink:title=" ">
<polygon fill="#bfbfbf" stroke="black" points="1666,-76.5 1666,-95.5 1823,-95.5 1823,-76.5 1666,-76.5"/>
<text text-anchor="middle" x="1744.5" y="-83.5" font-family="Helvetica,sans-Serif" font-size="10.00">OmniboxRowView::HeaderView</text>
</a>
</g>
</g>
<!-- Node3 -->
<g id="node3" class="node">
<title>Node3</title>
<g id="a_node3"><a xlink:href="../../da/da2/classOmniboxRowView.html" target="_top" xlink:title=" ">
<polygon fill="white" stroke="black" points="1981,-95.5 1981,-114.5 2079,-114.5 2079,-95.5 1981,-95.5"/>
<text text-anchor="middle" x="2030" y="-102.5" font-family="Helvetica,sans-Serif" font-size="10.00">OmniboxRowView</text>
</a>
</g>
</g>
<!-- Node1&#45;&gt;Node3 -->
<g id="edge50" class="edge">
<title>Node1&#45;&gt;Node3</title>
<path fill="none" stroke="#9a32cd" stroke-dasharray="5,2" d="M1833.71,-75.83C1864.59,-73.95 1899.43,-73.73 1931,-78 1955.48,-81.31 1982.5,-89.08 2001.95,-95.43"/>
<polygon fill="#9a32cd" stroke="#9a32cd" points="1833.14,-72.36 1823.4,-76.52 1833.61,-79.34 1833.14,-72.36"/>
<text text-anchor="middle" x="1886" y="-81" font-family="Helvetica,sans-Serif" font-size="10.00"> header_view_</text>
</g>
<!-- Node2 -->
<g id="node2" class="node">
<title>Node2</title>
<g id="a_node2"><a xlink:title=" ">
<polygon fill="white" stroke="#bfbfbf" points="546.5,-142.5 546.5,-161.5 616.5,-161.5 616.5,-142.5 546.5,-142.5"/>
<text text-anchor="middle" x="581.5" y="-149.5" font-family="Helvetica,sans-Serif" font-size="10.00">views::View</text>
</a>
</g>
</g>
<!-- Node2&#45;&gt;Node1 -->
<g id="edge1" class="edge">
<title>Node2&#45;&gt;Node1</title>
<path fill="none" stroke="midnightblue" d="M604.17,-136.71C620.64,-125.85 644.26,-111.85 667,-104 735.18,-80.46 755.37,-80 827.5,-80 827.5,-80 827.5,-80 1420.5,-80 1504.35,-80 1600.42,-82.05 1665.84,-83.75"/>
<polygon fill="midnightblue" stroke="midnightblue" points="602.13,-133.86 595.81,-142.36 606.05,-139.66 602.13,-133.86"/>
</g>
<!-- Node2&#45;&gt;Node3 -->
<g id="edge3" class="edge">
<title>Node2&#45;&gt;Node3</title>
<path fill="none" stroke="midnightblue" d="M598.33,-134.94C614.21,-118.79 640.13,-95 667,-81 732.49,-46.88 753.65,-38 827.5,-38 827.5,-38 827.5,-38 1745.5,-38 1844.12,-38 1956.99,-76.87 2005.18,-95.4"/>
<polygon fill="midnightblue" stroke="midnightblue" points="595.78,-132.54 591.37,-142.18 600.83,-137.39 595.78,-132.54"/>
</g>
<!-- Node12 -->
<g id="node12" class="node">
<title>Node12</title>
<g id="a_node12"><a xlink:href="../../d3/d4c/classOmniboxResultView.html" target="_top" xlink:title=" ">
<polygon fill="white" stroke="black" points="1691.5,-330.5 1691.5,-349.5 1797.5,-349.5 1797.5,-330.5 1691.5,-330.5"/>
<text text-anchor="middle" x="1744.5" y="-337.5" font-family="Helvetica,sans-Serif" font-size="10.00">OmniboxResultView</text>
</a>
</g>
</g>
<!-- Node2&#45;&gt;Node12 -->
<g id="edge14" class="edge">
<title>Node2&#45;&gt;Node12</title>
<path fill="none" stroke="midnightblue" d="M603.83,-167.22C620.29,-178.18 644.05,-192.32 667,-200 861.47,-265.09 1503.25,-320.69 1691.29,-335.89"/>
<polygon fill="midnightblue" stroke="midnightblue" points="605.72,-164.28 595.49,-161.53 601.78,-170.06 605.72,-164.28"/>
</g>
<!-- Node14 -->
<g id="node14" class="node">
<title>Node14</title>
<g id="a_node14"><a xlink:href="../../d2/d0b/classOmniboxMatchCellView.html" target="_top" xlink:title=" ">
<polygon fill="white" stroke="black" points="2220,-207.5 2220,-226.5 2342,-226.5 2342,-207.5 2220,-207.5"/>
<text text-anchor="middle" x="2281" y="-214.5" font-family="Helvetica,sans-Serif" font-size="10.00">OmniboxMatchCellView</text>
</a>
</g>
</g>
<!-- Node2&#45;&gt;Node14 -->
<g id="edge17" class="edge">
<title>Node2&#45;&gt;Node14</title>
<path fill="none" stroke="midnightblue" d="M592.44,-133.39C606.1,-109.59 632.91,-68.75 667,-46 728.72,-4.81 753.29,0 827.5,0 827.5,0 827.5,0 2031,0 2159.16,0 2253.33,-165.4 2275.18,-207.4"/>
<polygon fill="midnightblue" stroke="midnightblue" points="589.21,-132 587.41,-142.44 595.33,-135.4 589.21,-132"/>
</g>
<!-- Node15 -->
<g id="node15" class="node">
<title>Node15</title>
<g id="a_node15"><a xlink:href="../../df/d61/classOmniboxTextView.html" target="_top" xlink:title=" ">
<polygon fill="white" stroke="black" points="1982,-207.5 1982,-226.5 2078,-226.5 2078,-207.5 1982,-207.5"/>
<text text-anchor="middle" x="2030" y="-214.5" font-family="Helvetica,sans-Serif" font-size="10.00">OmniboxTextView</text>
</a>
</g>
</g>
<!-- Node2&#45;&gt;Node15 -->
<g id="edge19" class="edge">
<title>Node2&#45;&gt;Node15</title>
<path fill="none" stroke="midnightblue" d="M626.7,-142.13C675.57,-132.09 756.74,-118 827.5,-118 827.5,-118 827.5,-118 1420.5,-118 1649.7,-118 1707.97,-138.21 1931,-191 1952.24,-196.03 1975.9,-202.29 1994.65,-207.4"/>
<polygon fill="midnightblue" stroke="midnightblue" points="625.85,-138.73 616.78,-144.2 627.28,-145.58 625.85,-138.73"/>
</g>
<!-- Node16 -->
<g id="node16" class="node">
<title>Node16</title>
<g id="a_node16"><a xlink:href="../../d3/d0a/classOmniboxSuggestionButtonRowView.html" target="_top" xlink:title=" ">
<polygon fill="white" stroke="black" points="1332,-331.5 1332,-350.5 1507,-350.5 1507,-331.5 1332,-331.5"/>
<text text-anchor="middle" x="1419.5" y="-338.5" font-family="Helvetica,sans-Serif" font-size="10.00">OmniboxSuggestionButtonRowView</text>
</a>
</g>
</g>
<!-- Node2&#45;&gt;Node16 -->
<g id="edge22" class="edge">
<title>Node2&#45;&gt;Node16</title>
<path fill="none" stroke="midnightblue" d="M594.61,-170.14C609.2,-190.36 635.69,-222.28 667,-238 696.85,-252.98 1151.35,-308.9 1338.7,-331.47"/>
<polygon fill="midnightblue" stroke="midnightblue" points="597.37,-167.97 588.77,-161.77 591.63,-171.97 597.37,-167.97"/>
</g>
<!-- Node19 -->
<g id="node19" class="node">
<title>Node19</title>
<g id="a_node19"><a xlink:href="../../d7/d88/classOmniboxPopupContentsView.html" target="_top" xlink:title=" ">
<polygon fill="white" stroke="black" points="756,-434.5 756,-453.5 901,-453.5 901,-434.5 756,-434.5"/>
<text text-anchor="middle" x="828.5" y="-441.5" font-family="Helvetica,sans-Serif" font-size="10.00">OmniboxPopupContentsView</text>
</a>
</g>
</g>
<!-- Node2&#45;&gt;Node19 -->
<g id="edge27" class="edge">
<title>Node2&#45;&gt;Node19</title>
<path fill="none" stroke="midnightblue" d="M592.87,-170.7C606.72,-196.1 631.53,-243.15 649,-285 658.58,-307.96 651.42,-318.61 667,-338 690.11,-366.76 710.4,-356.52 738,-381 747.71,-389.61 746.14,-395.55 756,-404 770.91,-416.77 790.52,-427.4 805.43,-434.48"/>
<polygon fill="midnightblue" stroke="midnightblue" points="595.86,-168.87 587.98,-161.79 589.72,-172.24 595.86,-168.87"/>
</g>
<!-- Node28 -->
<g id="node28" class="node">
<title>Node28</title>
<g id="a_node28"><a xlink:href="../../dd/dc5/classOmniboxResultSelectionIndicator.html" target="_top" xlink:title=" ">
<polygon fill="white" stroke="black" points="1949,-296.5 1949,-315.5 2111,-315.5 2111,-296.5 1949,-296.5"/>
<text text-anchor="middle" x="2030" y="-303.5" font-family="Helvetica,sans-Serif" font-size="10.00">OmniboxResultSelectionIndicator</text>
</a>
</g>
</g>
<!-- Node2&#45;&gt;Node28 -->
<g id="edge41" class="edge">
<title>Node2&#45;&gt;Node28</title>
<path fill="none" stroke="midnightblue" d="M627.06,-154.25C708.88,-158.39 888.54,-167.45 1040,-175 1139,-179.93 1839.82,-180.12 1931,-219 1941.12,-223.32 1940.86,-228.6 1949,-236 1973.17,-257.97 2002.16,-283.02 2017.75,-296.39"/>
<polygon fill="midnightblue" stroke="midnightblue" points="626.81,-150.74 616.65,-153.73 626.46,-157.73 626.81,-150.74"/>
</g>
<!-- Node3&#45;&gt;Node1 -->
<g id="edge2" class="edge">
<title>Node3&#45;&gt;Node1</title>
<path fill="none" stroke="#9a32cd" stroke-dasharray="5,2" d="M1970.5,-101.08C1927.92,-98.23 1869.83,-94.33 1823.34,-91.22"/>
<polygon fill="#9a32cd" stroke="#9a32cd" points="1970.48,-104.59 1980.7,-101.76 1970.95,-97.6 1970.48,-104.59"/>
<text text-anchor="middle" x="1886" y="-102" font-family="Helvetica,sans-Serif" font-size="10.00"> row_view_</text>
</g>
<!-- Node4 -->
<g id="node4" class="node">
<title>Node4</title>
<g id="a_node4"><a xlink:href="../../d1/db1/classOmniboxPopupModel.html" target="_top" xlink:title=" ">
<polygon fill="white" stroke="black" points="773.5,-375.5 773.5,-394.5 883.5,-394.5 883.5,-375.5 773.5,-375.5"/>
<text text-anchor="middle" x="828.5" y="-382.5" font-family="Helvetica,sans-Serif" font-size="10.00">OmniboxPopupModel</text>
</a>
</g>
</g>
<!-- Node4&#45;&gt;Node3 -->
<g id="edge4" class="edge">
<title>Node4&#45;&gt;Node3</title>
<path fill="none" stroke="#9a32cd" stroke-dasharray="5,2" d="M866,-372.18C882.16,-366.65 901.45,-360.27 919,-355 1185.92,-274.9 1252.87,-254.06 1525,-194 1691.16,-157.33 1890.75,-125.72 1980.78,-112.12"/>
<polygon fill="#9a32cd" stroke="#9a32cd" points="864.7,-368.93 856.38,-375.49 866.98,-375.54 864.7,-368.93"/>
<text text-anchor="middle" x="1419.5" y="-240" font-family="Helvetica,sans-Serif" font-size="10.00"> popup_model_</text>
</g>
<!-- Node5 -->
<g id="node5" class="node">
<title>Node5</title>
<g id="a_node5"><a xlink:href="../../d4/d41/structOmniboxPopupModel_1_1Selection.html" target="_top" xlink:title=" ">
<polygon fill="white" stroke="black" points="523.5,-294 523.5,-324 639.5,-324 639.5,-294 523.5,-294"/>
<text text-anchor="start" x="531.5" y="-312" font-family="Helvetica,sans-Serif" font-size="10.00">OmniboxPopupModel::</text>
<text text-anchor="middle" x="581.5" y="-301" font-family="Helvetica,sans-Serif" font-size="10.00">Selection</text>
</a>
</g>
</g>
<!-- Node5&#45;&gt;Node4 -->
<g id="edge5" class="edge">
<title>Node5&#45;&gt;Node4</title>
<path fill="none" stroke="#9a32cd" stroke-dasharray="5,2" d="M640.73,-327.06C689.64,-342.23 757.62,-363.32 796.64,-375.43"/>
<polygon fill="#9a32cd" stroke="#9a32cd" points="641.49,-323.64 630.9,-324.02 639.42,-330.32 641.49,-323.64"/>
<text text-anchor="middle" x="702.5" y="-359" font-family="Helvetica,sans-Serif" font-size="10.00"> selection_</text>
</g>
<!-- Node17 -->
<g id="node17" class="node">
<title>Node17</title>
<g id="a_node17"><a xlink:href="../../d0/da8/classOmniboxSuggestionRowButton.html" target="_top" xlink:title=" ">
<polygon fill="white" stroke="black" points="1040,-336.5 1040,-355.5 1193,-355.5 1193,-336.5 1040,-336.5"/>
<text text-anchor="middle" x="1116.5" y="-343.5" font-family="Helvetica,sans-Serif" font-size="10.00">OmniboxSuggestionRowButton</text>
</a>
</g>
</g>
<!-- Node5&#45;&gt;Node17 -->
<g id="edge25" class="edge">
<title>Node5&#45;&gt;Node17</title>
<path fill="none" stroke="#9a32cd" stroke-dasharray="5,2" d="M649.78,-313.67C749.36,-320.58 935.4,-333.5 1039.67,-340.74"/>
<polygon fill="#9a32cd" stroke="#9a32cd" points="649.76,-310.16 639.54,-312.96 649.27,-317.14 649.76,-310.16"/>
<text text-anchor="middle" x="828.5" y="-333" font-family="Helvetica,sans-Serif" font-size="10.00"> selection_</text>
</g>
<!-- Node6 -->
<g id="node6" class="node">
<title>Node6</title>
<g id="a_node6"><a xlink:href="../../db/de1/classOmniboxPopupView.html" target="_top" xlink:title=" ">
<polygon fill="white" stroke="black" points="529,-377.5 529,-396.5 634,-396.5 634,-377.5 529,-377.5"/>
<text text-anchor="middle" x="581.5" y="-384.5" font-family="Helvetica,sans-Serif" font-size="10.00">OmniboxPopupView</text>
</a>
</g>
</g>
<!-- Node6&#45;&gt;Node4 -->
<g id="edge6" class="edge">
<title>Node6&#45;&gt;Node4</title>
<path fill="none" stroke="#9a32cd" stroke-dasharray="5,2" d="M644.57,-386.23C652.13,-386.14 659.74,-386.07 667,-386 702.39,-385.68 742.16,-385.43 773.27,-385.26"/>
<polygon fill="#9a32cd" stroke="#9a32cd" points="644.3,-382.73 634.34,-386.34 644.38,-389.73 644.3,-382.73"/>
<text text-anchor="middle" x="702.5" y="-389" font-family="Helvetica,sans-Serif" font-size="10.00"> view_</text>
</g>
<!-- Node6&#45;&gt;Node19 -->
<g id="edge28" class="edge">
<title>Node6&#45;&gt;Node19</title>
<path fill="none" stroke="midnightblue" d="M633.43,-398.85C678.77,-409.4 744.26,-424.63 786.36,-434.43"/>
<polygon fill="midnightblue" stroke="midnightblue" points="634.04,-395.4 623.51,-396.54 632.45,-402.22 634.04,-395.4"/>
</g>
<!-- Node7 -->
<g id="node7" class="node">
<title>Node7</title>
<g id="a_node7"><a xlink:href="../../d0/d22/classOmniboxEditModel.html" target="_top" xlink:title=" ">
<polygon fill="white" stroke="black" points="532,-417.5 532,-436.5 631,-436.5 631,-417.5 532,-417.5"/>
<text text-anchor="middle" x="581.5" y="-424.5" font-family="Helvetica,sans-Serif" font-size="10.00">OmniboxEditModel</text>
</a>
</g>
</g>
<!-- Node7&#45;&gt;Node4 -->
<g id="edge7" class="edge">
<title>Node7&#45;&gt;Node4</title>
<path fill="none" stroke="#9a32cd" stroke-dasharray="5,2" d="M641.21,-417.34C670.33,-412.51 706.03,-406.53 738,-401 749.82,-398.96 762.51,-396.71 774.51,-394.57"/>
<polygon fill="#9a32cd" stroke="#9a32cd" points="640.49,-413.91 631.2,-419 641.64,-420.82 640.49,-413.91"/>
<text text-anchor="middle" x="702.5" y="-415" font-family="Helvetica,sans-Serif" font-size="10.00"> edit_model_</text>
</g>
<!-- Node7&#45;&gt;Node19 -->
<g id="edge38" class="edge">
<title>Node7&#45;&gt;Node19</title>
<path fill="none" stroke="#9a32cd" stroke-dasharray="5,2" d="M613.58,-440.43C629.27,-446.49 648.8,-452.96 667,-456 704.62,-462.28 747.75,-458.45 779.82,-453.51"/>
<polygon fill="#9a32cd" stroke="#9a32cd" points="614.46,-437.01 603.87,-436.54 611.85,-443.51 614.46,-437.01"/>
<text text-anchor="middle" x="702.5" y="-462" font-family="Helvetica,sans-Serif" font-size="10.00"> edit_model_</text>
</g>
<!-- Node8 -->
<g id="node8" class="node">
<title>Node8</title>
<g id="a_node8"><a xlink:href="../../dc/d81/classOmniboxEditController.html" target="_top" xlink:title=" ">
<polygon fill="white" stroke="black" points="15.5,-397.5 15.5,-416.5 130.5,-416.5 130.5,-397.5 15.5,-397.5"/>
<text text-anchor="middle" x="73" y="-404.5" font-family="Helvetica,sans-Serif" font-size="10.00">OmniboxEditController</text>
</a>
</g>
</g>
<!-- Node8&#45;&gt;Node7 -->
<g id="edge8" class="edge">
<title>Node8&#45;&gt;Node7</title>
<path fill="none" stroke="#9a32cd" stroke-dasharray="5,2" d="M140.69,-402.33C168.58,-400.6 201.35,-398.85 231,-398 297.2,-396.1 313.95,-393.25 380,-398 432.09,-401.75 491.22,-410.91 531.69,-417.94"/>
<polygon fill="#9a32cd" stroke="#9a32cd" points="140.41,-398.84 130.65,-402.97 140.85,-405.83 140.41,-398.84"/>
<text text-anchor="middle" x="305.5" y="-401" font-family="Helvetica,sans-Serif" font-size="10.00"> controller_</text>
</g>
<!-- Node10 -->
<g id="node10" class="node">
<title>Node10</title>
<g id="a_node10"><a xlink:href="../../d9/d1e/classOmniboxView.html" target="_top" xlink:title=" ">
<polygon fill="white" stroke="black" points="267,-418.5 267,-437.5 344,-437.5 344,-418.5 267,-418.5"/>
<text text-anchor="middle" x="305.5" y="-425.5" font-family="Helvetica,sans-Serif" font-size="10.00">OmniboxView</text>
</a>
</g>
</g>
<!-- Node8&#45;&gt;Node10 -->
<g id="edge11" class="edge">
<title>Node8&#45;&gt;Node10</title>
<path fill="none" stroke="#9a32cd" stroke-dasharray="5,2" d="M140.86,-413.09C181.82,-416.82 232.74,-421.46 266.8,-424.57"/>
<polygon fill="#9a32cd" stroke="#9a32cd" points="140.96,-409.59 130.68,-412.16 140.32,-416.56 140.96,-409.59"/>
<text text-anchor="middle" x="188.5" y="-422" font-family="Helvetica,sans-Serif" font-size="10.00"> controller_</text>
</g>
<!-- Node9 -->
<g id="node9" class="node">
<title>Node9</title>
<g id="a_node9"><a xlink:href="../../d5/d39/structSplitAutocompletion.html" target="_top" xlink:title=" ">
<polygon fill="white" stroke="black" points="253.5,-555.5 253.5,-574.5 357.5,-574.5 357.5,-555.5 253.5,-555.5"/>
<text text-anchor="middle" x="305.5" y="-562.5" font-family="Helvetica,sans-Serif" font-size="10.00">SplitAutocompletion</text>
</a>
</g>
</g>
<!-- Node9&#45;&gt;Node7 -->
<g id="edge9" class="edge">
<title>Node9&#45;&gt;Node7</title>
<path fill="none" stroke="#9a32cd" stroke-dasharray="5,2" d="M361.69,-552.56C367.95,-550.61 374.17,-548.43 380,-546 455.12,-514.74 535.88,-459.21 567.11,-436.79"/>
<polygon fill="#9a32cd" stroke="#9a32cd" points="360.48,-549.26 351.86,-555.42 362.44,-555.98 360.48,-549.26"/>
<text text-anchor="middle" x="447" y="-538" font-family="Helvetica,sans-Serif" font-size="10.00"> split_autocompletion_</text>
</g>
<!-- Node29 -->
<g id="node29" class="node">
<title>Node29</title>
<g id="a_node29"><a xlink:href="../../dc/d8f/structAutocompleteMatch.html" target="_top" xlink:title=" ">
<polygon fill="white" stroke="black" points="529.5,-576.5 529.5,-595.5 633.5,-595.5 633.5,-576.5 529.5,-576.5"/>
<text text-anchor="middle" x="581.5" y="-583.5" font-family="Helvetica,sans-Serif" font-size="10.00">AutocompleteMatch</text>
</a>
</g>
</g>
<!-- Node9&#45;&gt;Node29 -->
<g id="edge44" class="edge">
<title>Node9&#45;&gt;Node29</title>
<path fill="none" stroke="#9a32cd" stroke-dasharray="5,2" d="M367.78,-569.7C416.3,-573.42 483.31,-578.55 529.07,-582.06"/>
<polygon fill="#9a32cd" stroke="#9a32cd" points="367.95,-566.2 357.72,-568.93 367.42,-573.18 367.95,-566.2"/>
<text text-anchor="middle" x="447" y="-582" font-family="Helvetica,sans-Serif" font-size="10.00"> split_autocompletion</text>
</g>
<!-- Node10&#45;&gt;Node7 -->
<g id="edge10" class="edge">
<title>Node10&#45;&gt;Node7</title>
<path fill="none" stroke="#9a32cd" stroke-dasharray="5,2" d="M354.7,-424.87C368.66,-424.1 383.93,-423.38 398,-423 441.54,-421.81 452.46,-421.97 496,-423 507.6,-423.27 520.09,-423.76 531.81,-424.3"/>
<polygon fill="#9a32cd" stroke="#9a32cd" points="354.1,-421.4 344.32,-425.47 354.51,-428.39 354.1,-421.4"/>
<text text-anchor="middle" x="447" y="-426" font-family="Helvetica,sans-Serif" font-size="10.00"> view_</text>
</g>
<!-- Node23 -->
<g id="node23" class="node">
<title>Node23</title>
<g id="a_node23"><a xlink:href="../../d0/d94/classOmniboxViewViews.html" target="_top" xlink:title=" ">
<polygon fill="white" stroke="black" points="529.5,-500.5 529.5,-519.5 633.5,-519.5 633.5,-500.5 529.5,-500.5"/>
<text text-anchor="middle" x="581.5" y="-507.5" font-family="Helvetica,sans-Serif" font-size="10.00">OmniboxViewViews</text>
</a>
</g>
</g>
<!-- Node10&#45;&gt;Node23 -->
<g id="edge33" class="edge">
<title>Node10&#45;&gt;Node23</title>
<path fill="none" stroke="midnightblue" d="M354.19,-432.04C393.22,-436.41 449.4,-445.15 496,-462 522.81,-471.7 551.05,-489.51 567.15,-500.5"/>
<polygon fill="midnightblue" stroke="midnightblue" points="354.47,-428.55 344.15,-430.97 353.72,-435.51 354.47,-428.55"/>
</g>
<!-- Node11 -->
<g id="node11" class="node">
<title>Node11</title>
<g id="a_node11"><a xlink:href="../../d9/df6/classAutocompleteInput.html" target="_top" xlink:title=" ">
<polygon fill="white" stroke="black" points="256.5,-333.5 256.5,-352.5 354.5,-352.5 354.5,-333.5 256.5,-333.5"/>
<text text-anchor="middle" x="305.5" y="-340.5" font-family="Helvetica,sans-Serif" font-size="10.00">AutocompleteInput</text>
</a>
</g>
</g>
<!-- Node11&#45;&gt;Node7 -->
<g id="edge12" class="edge">
<title>Node11&#45;&gt;Node7</title>
<path fill="none" stroke="#9a32cd" stroke-dasharray="5,2" d="M364.93,-335.03C405.5,-332.7 458.75,-336.37 496,-364 512.31,-376.1 498.95,-392.37 514,-406 519.38,-410.88 525.9,-414.62 532.72,-417.49"/>
<polygon fill="#9a32cd" stroke="#9a32cd" points="364.63,-331.54 354.91,-335.74 365.13,-338.52 364.63,-331.54"/>
<text text-anchor="middle" x="447" y="-367" font-family="Helvetica,sans-Serif" font-size="10.00"> input_</text>
</g>
<!-- Node12&#45;&gt;Node3 -->
<g id="edge13" class="edge">
<title>Node12&#45;&gt;Node3</title>
<path fill="none" stroke="#9a32cd" stroke-dasharray="5,2" d="M1759.86,-322.36C1777.71,-300.96 1809.68,-264.34 1841,-237 1900.19,-185.33 1979.61,-135.02 2013.08,-114.57"/>
<polygon fill="#9a32cd" stroke="#9a32cd" points="1756.99,-320.34 1753.32,-330.28 1762.39,-324.79 1756.99,-320.34"/>
<text text-anchor="middle" x="1886" y="-240" font-family="Helvetica,sans-Serif" font-size="10.00"> result_view_</text>
</g>
<!-- Node12&#45;&gt;Node15 -->
<g id="edge20" class="edge">
<title>Node12&#45;&gt;Node15</title>
<path fill="none" stroke="#9a32cd" stroke-dasharray="5,2" d="M1768.07,-324.76C1786.99,-312.43 1815,-295.17 1841,-283 1855.88,-276.03 1952.23,-243.05 2000.92,-226.51"/>
<polygon fill="#9a32cd" stroke="#9a32cd" points="1765.99,-321.95 1759.57,-330.38 1769.84,-327.79 1765.99,-321.95"/>
<text text-anchor="middle" x="1886" y="-286" font-family="Helvetica,sans-Serif" font-size="10.00"> result_view_</text>
</g>
<!-- Node12&#45;&gt;Node28 -->
<g id="edge42" class="edge">
<title>Node12&#45;&gt;Node28</title>
<path fill="none" stroke="#9a32cd" stroke-dasharray="5,2" d="M1774.76,-326.23C1793.29,-318.28 1818.01,-309.08 1841,-305 1876.03,-298.78 1915.31,-298.04 1948.87,-299.24"/>
<polygon fill="#9a32cd" stroke="#9a32cd" points="1773.15,-323.11 1765.42,-330.35 1775.98,-329.52 1773.15,-323.11"/>
<text text-anchor="middle" x="1886" y="-308" font-family="Helvetica,sans-Serif" font-size="10.00"> result_view_</text>
</g>
<!-- Node13 -->
<g id="node13" class="node">
<title>Node13</title>
<g id="a_node13"><a xlink:title=" ">
<polygon fill="white" stroke="#bfbfbf" points="1354,-473 1354,-503 1485,-503 1485,-473 1354,-473"/>
<text text-anchor="start" x="1362" y="-491" font-family="Helvetica,sans-Serif" font-size="10.00">views::AnimationDelegate</text>
<text text-anchor="middle" x="1419.5" y="-480" font-family="Helvetica,sans-Serif" font-size="10.00">Views</text>
</a>
</g>
</g>
<!-- Node13&#45;&gt;Node12 -->
<g id="edge15" class="edge">
<title>Node13&#45;&gt;Node12</title>
<path fill="none" stroke="midnightblue" d="M1495.1,-491.82C1541.77,-491.04 1601.62,-483.99 1648,-458 1694.67,-431.85 1727.38,-372.97 1738.92,-349.72"/>
<polygon fill="midnightblue" stroke="midnightblue" points="1495.02,-488.32 1485.05,-491.9 1495.07,-495.32 1495.02,-488.32"/>
</g>
<!-- Node14&#45;&gt;Node12 -->
<g id="edge16" class="edge">
<title>Node14&#45;&gt;Node12</title>
<path fill="none" stroke="#9a32cd" stroke-dasharray="5,2" d="M2261.27,-233.26C2231.65,-257.92 2171.18,-304.11 2111,-325 2004.66,-361.92 1870.36,-354.9 1797.79,-347.1"/>
<polygon fill="#9a32cd" stroke="#9a32cd" points="2263.73,-235.76 2269.11,-226.63 2259.21,-230.42 2263.73,-235.76"/>
<text text-anchor="middle" x="2030" y="-366" font-family="Helvetica,sans-Serif" font-size="10.00"> keyword_view_</text>
<text text-anchor="middle" x="2030" y="-355" font-family="Helvetica,sans-Serif" font-size="10.00">suggestion_view_</text>
</g>
<!-- Node15&#45;&gt;Node14 -->
<g id="edge18" class="edge">
<title>Node15&#45;&gt;Node14</title>
<path fill="none" stroke="#9a32cd" stroke-dasharray="5,2" d="M2088.36,-217C2127.73,-217 2179.88,-217 2219.84,-217"/>
<polygon fill="#9a32cd" stroke="#9a32cd" points="2088.13,-213.5 2078.13,-217 2088.13,-220.5 2088.13,-213.5"/>
<text text-anchor="middle" x="2165.5" y="-253" font-family="Helvetica,sans-Serif" font-size="10.00"> content_view_</text>
<text text-anchor="start" x="2129" y="-242" font-family="Helvetica,sans-Serif" font-size="10.00">description_view</text>
<text text-anchor="middle" x="2165.5" y="-231" font-family="Helvetica,sans-Serif" font-size="10.00">_</text>
<text text-anchor="middle" x="2165.5" y="-220" font-family="Helvetica,sans-Serif" font-size="10.00">separator_view_</text>
</g>
<!-- Node16&#45;&gt;Node12 -->
<g id="edge21" class="edge">
<title>Node16&#45;&gt;Node12</title>
<path fill="none" stroke="#9a32cd" stroke-dasharray="5,2" d="M1517.18,-340.7C1574.22,-340.52 1644.19,-340.31 1691.09,-340.16"/>
<polygon fill="#9a32cd" stroke="#9a32cd" points="1517.05,-337.2 1507.06,-340.73 1517.07,-344.2 1517.05,-337.2"/>
<text text-anchor="middle" x="1586.5" y="-343" font-family="Helvetica,sans-Serif" font-size="10.00"> button_row_</text>
</g>
<!-- Node17&#45;&gt;Node16 -->
<g id="edge23" class="edge">
<title>Node17&#45;&gt;Node16</title>
<path fill="none" stroke="#9a32cd" stroke-dasharray="5,2" d="M1203.15,-344.58C1243.49,-343.91 1291.52,-343.11 1331.98,-342.44"/>
<polygon fill="#9a32cd" stroke="#9a32cd" points="1203.01,-341.08 1193.07,-344.74 1203.12,-348.08 1203.01,-341.08"/>
<text text-anchor="middle" x="1262.5" y="-369" font-family="Helvetica,sans-Serif" font-size="10.00"> keyword_button_</text>
<text text-anchor="middle" x="1262.5" y="-358" font-family="Helvetica,sans-Serif" font-size="10.00">pedal_button_</text>
<text text-anchor="middle" x="1262.5" y="-347" font-family="Helvetica,sans-Serif" font-size="10.00">tab_switch_button_</text>
</g>
<!-- Node18 -->
<g id="node18" class="node">
<title>Node18</title>
<g id="a_node18"><a xlink:title=" ">
<polygon fill="white" stroke="#bfbfbf" points="774,-290.5 774,-309.5 883,-309.5 883,-290.5 774,-290.5"/>
<text text-anchor="middle" x="828.5" y="-297.5" font-family="Helvetica,sans-Serif" font-size="10.00">views::MdTextButton</text>
</a>
</g>
</g>
<!-- Node18&#45;&gt;Node17 -->
<g id="edge24" class="edge">
<title>Node18&#45;&gt;Node17</title>
<path fill="none" stroke="midnightblue" d="M893.41,-310.28C942.14,-318.12 1008.74,-328.83 1056.27,-336.47"/>
<polygon fill="midnightblue" stroke="midnightblue" points="893.72,-306.78 883.29,-308.65 892.61,-313.7 893.72,-306.78"/>
</g>
<!-- Node19&#45;&gt;Node12 -->
<g id="edge49" class="edge">
<title>Node19&#45;&gt;Node12</title>
<path fill="none" stroke="#9a32cd" stroke-dasharray="5,2" d="M911.23,-443.73C985.03,-442.81 1096.53,-439.71 1193,-430 1381.37,-411.05 1603.09,-368.55 1697.36,-349.53"/>
<polygon fill="#9a32cd" stroke="#9a32cd" points="911.03,-440.23 901.07,-443.85 911.11,-447.23 911.03,-440.23"/>
<text text-anchor="middle" x="1262.5" y="-430" font-family="Helvetica,sans-Serif" font-size="10.00"> popup_contents_view_</text>
</g>
<!-- Node19&#45;&gt;Node16 -->
<g id="edge39" class="edge">
<title>Node19&#45;&gt;Node16</title>
<path fill="none" stroke="#9a32cd" stroke-dasharray="5,2" d="M898.69,-432.95C905.55,-431.93 912.41,-430.92 919,-430 1094.19,-405.44 1142.36,-423.82 1314,-381 1343.97,-373.52 1377.02,-359.9 1397.77,-350.66"/>
<polygon fill="#9a32cd" stroke="#9a32cd" points="898.04,-429.51 888.68,-434.47 899.09,-436.43 898.04,-429.51"/>
<text text-anchor="middle" x="1116.5" y="-420" font-family="Helvetica,sans-Serif" font-size="10.00"> popup_contents_view_</text>
</g>
<!-- Node19&#45;&gt;Node17 -->
<g id="edge26" class="edge">
<title>Node19&#45;&gt;Node17</title>
<path fill="none" stroke="#9a32cd" stroke-dasharray="5,2" d="M861.16,-429.91C874.3,-423.17 889.2,-414.32 901,-404 911.04,-395.22 907.63,-386.96 919,-380 929.91,-373.32 993.68,-363.03 1045.66,-355.52"/>
<polygon fill="#9a32cd" stroke="#9a32cd" points="859.41,-426.87 851.98,-434.42 862.5,-433.15 859.41,-426.87"/>
<text text-anchor="middle" x="970.5" y="-383" font-family="Helvetica,sans-Serif" font-size="10.00"> popup_contents_view_</text>
</g>
<!-- Node20 -->
<g id="node20" class="node">
<title>Node20</title>
<g id="a_node20"><a xlink:title=" ">
<polygon fill="white" stroke="#bfbfbf" points="522,-538.5 522,-557.5 641,-557.5 641,-538.5 522,-538.5"/>
<text text-anchor="middle" x="581.5" y="-545.5" font-family="Helvetica,sans-Serif" font-size="10.00">views::WidgetObserver</text>
</a>
</g>
</g>
<!-- Node20&#45;&gt;Node19 -->
<g id="edge29" class="edge">
<title>Node20&#45;&gt;Node19</title>
<path fill="none" stroke="midnightblue" d="M645.21,-536.21C674.26,-529.47 708.73,-519.59 738,-506 768.69,-491.75 800.22,-467.11 816.41,-453.58"/>
<polygon fill="midnightblue" stroke="midnightblue" points="644.17,-532.86 635.18,-538.47 645.71,-539.69 644.17,-532.86"/>
</g>
<!-- Node21 -->
<g id="node21" class="node">
<title>Node21</title>
<g id="a_node21"><a xlink:href="../../d0/d53/classWebUIOmniboxPopupView.html" target="_top" xlink:title=" ">
<polygon fill="white" stroke="black" points="514,-662.5 514,-681.5 649,-681.5 649,-662.5 514,-662.5"/>
<text text-anchor="middle" x="581.5" y="-669.5" font-family="Helvetica,sans-Serif" font-size="10.00">WebUIOmniboxPopupView</text>
</a>
</g>
</g>
<!-- Node21&#45;&gt;Node19 -->
<g id="edge30" class="edge">
<title>Node21&#45;&gt;Node19</title>
<path fill="none" stroke="#9a32cd" stroke-dasharray="5,2" d="M601.44,-655.43C630.97,-629.49 689.6,-577.54 738,-532 767.68,-504.08 801.75,-469.99 817.97,-453.65"/>
<polygon fill="#9a32cd" stroke="#9a32cd" points="598.79,-653.09 593.59,-662.32 603.41,-658.36 598.79,-653.09"/>
<text text-anchor="middle" x="702.5" y="-597" font-family="Helvetica,sans-Serif" font-size="10.00"> webui_view_</text>
</g>
<!-- Node22 -->
<g id="node22" class="node">
<title>Node22</title>
<g id="a_node22"><a xlink:title=" ">
<polygon fill="white" stroke="#bfbfbf" points="261,-707.5 261,-726.5 350,-726.5 350,-707.5 261,-707.5"/>
<text text-anchor="middle" x="305.5" y="-714.5" font-family="Helvetica,sans-Serif" font-size="10.00">views::WebView</text>
</a>
</g>
</g>
<!-- Node22&#45;&gt;Node21 -->
<g id="edge31" class="edge">
<title>Node22&#45;&gt;Node21</title>
<path fill="none" stroke="midnightblue" d="M360.69,-711.33C398.71,-706.99 450.65,-700.34 496,-692 511.72,-689.11 528.91,-685.19 543.65,-681.58"/>
<polygon fill="midnightblue" stroke="midnightblue" points="359.9,-707.89 350.35,-712.49 360.68,-714.85 359.9,-707.89"/>
</g>
<!-- Node23&#45;&gt;Node19 -->
<g id="edge32" class="edge">
<title>Node23&#45;&gt;Node19</title>
<path fill="none" stroke="#9a32cd" stroke-dasharray="5,2" d="M639.22,-498.24C668.83,-491.75 705.56,-483.17 738,-474 759.45,-467.94 783.37,-459.85 801.08,-453.6"/>
<polygon fill="#9a32cd" stroke="#9a32cd" points="638.1,-494.9 629.06,-500.44 639.58,-501.74 638.1,-494.9"/>
<text text-anchor="middle" x="702.5" y="-494" font-family="Helvetica,sans-Serif" font-size="10.00"> omnibox_view_</text>
</g>
<!-- Node24 -->
<g id="node24" class="node">
<title>Node24</title>
<g id="a_node24"><a xlink:title=" ">
<polygon fill="white" stroke="#bfbfbf" points="263,-517.5 263,-536.5 348,-536.5 348,-517.5 263,-517.5"/>
<text text-anchor="middle" x="305.5" y="-524.5" font-family="Helvetica,sans-Serif" font-size="10.00">views::Textfield</text>
</a>
</g>
</g>
<!-- Node24&#45;&gt;Node23 -->
<g id="edge34" class="edge">
<title>Node24&#45;&gt;Node23</title>
<path fill="none" stroke="midnightblue" d="M358.64,-525.18C396.73,-523.69 449.6,-521.3 496,-518 506.73,-517.24 518.21,-516.26 529.14,-515.25"/>
<polygon fill="midnightblue" stroke="midnightblue" points="358.17,-521.7 348.31,-525.58 358.43,-528.69 358.17,-521.7"/>
</g>
<!-- Node25 -->
<g id="node25" class="node">
<title>Node25</title>
<g id="a_node25"><a xlink:title=" ">
<polygon fill="white" stroke="#bfbfbf" points="242,-479.5 242,-498.5 369,-498.5 369,-479.5 242,-479.5"/>
<text text-anchor="middle" x="305.5" y="-486.5" font-family="Helvetica,sans-Serif" font-size="10.00">views::TextfieldController</text>
</a>
</g>
</g>
<!-- Node25&#45;&gt;Node23 -->
<g id="edge35" class="edge">
<title>Node25&#45;&gt;Node23</title>
<path fill="none" stroke="midnightblue" d="M379.2,-494.57C426.48,-498.2 486.98,-502.83 529.26,-506.07"/>
<polygon fill="midnightblue" stroke="midnightblue" points="379.26,-491.07 369.02,-493.79 378.72,-498.05 379.26,-491.07"/>
</g>
<!-- Node26 -->
<g id="node26" class="node">
<title>Node26</title>
<g id="a_node26"><a xlink:title=" ">
<polygon fill="white" stroke="#bfbfbf" points="245.5,-631.5 245.5,-650.5 365.5,-650.5 365.5,-631.5 245.5,-631.5"/>
<text text-anchor="middle" x="305.5" y="-638.5" font-family="Helvetica,sans-Serif" font-size="10.00">ui::CompositorObserver</text>
</a>
</g>
</g>
<!-- Node26&#45;&gt;Node23 -->
<g id="edge36" class="edge">
<title>Node26&#45;&gt;Node23</title>
<path fill="none" stroke="midnightblue" d="M375.91,-650.14C415.91,-651.38 464.36,-645.41 496,-616 524.92,-589.11 487.14,-557.94 514,-529 518.25,-524.42 523.51,-520.92 529.21,-518.25"/>
<polygon fill="midnightblue" stroke="midnightblue" points="375.83,-646.63 365.68,-649.66 375.5,-653.62 375.83,-646.63"/>
</g>
<!-- Node27 -->
<g id="node27" class="node">
<title>Node27</title>
<g id="a_node27"><a xlink:title=" ">
<polygon fill="white" stroke="#bfbfbf" points="231,-593.5 231,-612.5 380,-612.5 380,-593.5 231,-593.5"/>
<text text-anchor="middle" x="305.5" y="-600.5" font-family="Helvetica,sans-Serif" font-size="10.00">TemplateURLServiceObserver</text>
</a>
</g>
</g>
<!-- Node27&#45;&gt;Node23 -->
<g id="edge37" class="edge">
<title>Node27&#45;&gt;Node23</title>
<path fill="none" stroke="midnightblue" d="M359.06,-613.97C400.69,-619.47 457.98,-619.53 496,-589 517.71,-571.57 494.18,-548.56 514,-529 518.36,-524.7 523.62,-521.36 529.25,-518.76"/>
<polygon fill="midnightblue" stroke="midnightblue" points="359.5,-610.5 349.1,-612.51 358.48,-617.42 359.5,-610.5"/>
</g>
<!-- Node28&#45;&gt;Node12 -->
<g id="edge40" class="edge">
<title>Node28&#45;&gt;Node12</title>
<path fill="none" stroke="#9a32cd" stroke-dasharray="5,2" d="M1941.44,-316.74C1937.91,-317.17 1934.42,-317.59 1931,-318 1886.08,-323.41 1835.04,-329.46 1797.88,-333.84"/>
<polygon fill="#9a32cd" stroke="#9a32cd" points="1941.93,-320.2 1951.44,-315.53 1941.09,-313.26 1941.93,-320.2"/>
<text text-anchor="middle" x="1886" y="-331" font-family="Helvetica,sans-Serif" font-size="10.00"> selection_indicator_</text>
</g>
<!-- Node29&#45;&gt;Node12 -->
<g id="edge43" class="edge">
<title>Node29&#45;&gt;Node12</title>
<path fill="none" stroke="#9a32cd" stroke-dasharray="5,2" d="M643.86,-583.28C693.41,-581.31 764.93,-579 827.5,-579 827.5,-579 827.5,-579 1420.5,-579 1529.4,-579 1563.95,-557.25 1648,-488 1696.85,-447.75 1729.14,-375.83 1739.71,-349.77"/>
<polygon fill="#9a32cd" stroke="#9a32cd" points="643.49,-579.79 633.64,-583.69 643.77,-586.78 643.49,-579.79"/>
<text text-anchor="middle" x="1116.5" y="-582" font-family="Helvetica,sans-Serif" font-size="10.00"> match_</text>
</g>
<!-- Node30 -->
<g id="node30" class="node">
<title>Node30</title>
<g id="a_node30"><a xlink:href="../../dd/de9/classAutocompleteProvider.html" target="_top" xlink:title=" ">
<polygon fill="white" stroke="black" points="249,-669.5 249,-688.5 362,-688.5 362,-669.5 249,-669.5"/>
<text text-anchor="middle" x="305.5" y="-676.5" font-family="Helvetica,sans-Serif" font-size="10.00">AutocompleteProvider</text>
</a>
</g>
</g>
<!-- Node30&#45;&gt;Node29 -->
<g id="edge45" class="edge">
<title>Node30&#45;&gt;Node29</title>
<path fill="none" stroke="#9a32cd" stroke-dasharray="5,2" d="M372.22,-674.54C417.87,-670.72 474.26,-664.33 496,-655 528.37,-641.11 558.31,-610.98 572.26,-595.54"/>
<polygon fill="#9a32cd" stroke="#9a32cd" points="371.75,-671.07 362.06,-675.37 372.31,-678.05 371.75,-671.07"/>
<text text-anchor="middle" x="447" y="-674" font-family="Helvetica,sans-Serif" font-size="10.00"> provider</text>
</g>
<!-- Node31 -->
<g id="node31" class="node">
<title>Node31</title>
<g id="a_node31"><a xlink:title=" ">
<polygon fill="white" stroke="#bfbfbf" points="0,-664 0,-694 146,-694 146,-664 0,-664"/>
<text text-anchor="start" x="8" y="-682" font-family="Helvetica,sans-Serif" font-size="10.00">base::RefCountedThreadSafe</text>
<text text-anchor="middle" x="73" y="-671" font-family="Helvetica,sans-Serif" font-size="10.00">&lt; AutocompleteProvider &gt;</text>
</a>
</g>
</g>
<!-- Node31&#45;&gt;Node30 -->
<g id="edge46" class="edge">
<title>Node31&#45;&gt;Node30</title>
<path fill="none" stroke="midnightblue" d="M156.55,-679C187.21,-679 221.23,-679 248.92,-679"/>
<polygon fill="midnightblue" stroke="midnightblue" points="156.3,-675.5 146.3,-679 156.3,-682.5 156.3,-675.5"/>
</g>
<!-- Node32 -->
<g id="node32" class="node">
<title>Node32</title>
<g id="a_node32"><a xlink:href="../../da/de3/classOmniboxMouseEnterExitHandler.html" target="_top" xlink:title=" ">
<polygon fill="white" stroke="black" points="1340,-146.5 1340,-165.5 1499,-165.5 1499,-146.5 1340,-146.5"/>
<text text-anchor="middle" x="1419.5" y="-153.5" font-family="Helvetica,sans-Serif" font-size="10.00">OmniboxMouseEnterExitHandler</text>
</a>
</g>
</g>
<!-- Node32&#45;&gt;Node1 -->
<g id="edge51" class="edge">
<title>Node32&#45;&gt;Node1</title>
<path fill="none" stroke="#9a32cd" stroke-dasharray="5,2" d="M1474.56,-144.29C1537.7,-130.6 1640.94,-108.23 1699.44,-95.55"/>
<polygon fill="#9a32cd" stroke="#9a32cd" points="1473.43,-140.95 1464.4,-146.49 1474.91,-147.79 1473.43,-140.95"/>
<text text-anchor="middle" x="1586.5" y="-135" font-family="Helvetica,sans-Serif" font-size="10.00"> mouse_enter_exit_handler_</text>
</g>
<!-- Node32&#45;&gt;Node12 -->
<g id="edge47" class="edge">
<title>Node32&#45;&gt;Node12</title>
<path fill="none" stroke="#9a32cd" stroke-dasharray="5,2" d="M1460.67,-168.81C1507.72,-184.81 1586.98,-214.9 1648,-254 1683.69,-276.87 1719.01,-313.17 1734.85,-330.36"/>
<polygon fill="#9a32cd" stroke="#9a32cd" points="1461.73,-165.48 1451.14,-165.61 1459.51,-172.11 1461.73,-165.48"/>
<text text-anchor="middle" x="1586.5" y="-257" font-family="Helvetica,sans-Serif" font-size="10.00"> mouse_enter_exit_handler_</text>
</g>
<!-- Node33 -->
<g id="node33" class="node">
<title>Node33</title>
<g id="a_node33"><a xlink:title=" ">
<polygon fill="white" stroke="#bfbfbf" points="1072,-146.5 1072,-165.5 1161,-165.5 1161,-146.5 1072,-146.5"/>
<text text-anchor="middle" x="1116.5" y="-153.5" font-family="Helvetica,sans-Serif" font-size="10.00">ui::EventHandler</text>
</a>
</g>
</g>
<!-- Node33&#45;&gt;Node32 -->
<g id="edge48" class="edge">
<title>Node33&#45;&gt;Node32</title>
<path fill="none" stroke="midnightblue" d="M1171.52,-156C1218.44,-156 1286.97,-156 1339.94,-156"/>
<polygon fill="midnightblue" stroke="midnightblue" points="1171.27,-152.5 1161.27,-156 1171.27,-159.5 1171.27,-152.5"/>
</g>
</g>
</svg>
