<?xml version="1.0" encoding="UTF-8" standalone="no"?>
<!DOCTYPE svg PUBLIC "-//W3C//DTD SVG 1.1//EN"
 "http://www.w3.org/Graphics/SVG/1.1/DTD/svg11.dtd">
<!-- Generated by graphviz version 2.43.0 (0)
 -->
<!-- Title: ChromeOmniboxEditController::GetWebContents Pages: 1 -->
<!--zoomable 604 -->
<svg id="main" version="1.1" xmlns="http://www.w3.org/2000/svg" xmlns:xlink="http://www.w3.org/1999/xlink" xml:space="preserve" onload="init(evt)">
<style type="text/css"><![CDATA[
.edge:hover path { stroke: red; }
.edge:hover polygon { stroke: red; fill: red; }
]]></style>
<script type="text/javascript"><![CDATA[
var edges = document.getElementsByTagName('g');
if (edges && edges.length) {
  for (var i=0;i<edges.length;i++) {
    if (edges[i].id.substr(0,4)=='edge') {
      edges[i].setAttribute('class','edge');
    }
  }
}
]]></script>
        <defs>
                <circle id="rim" cx="0" cy="0" r="7"/>
                <circle id="rim2" cx="0" cy="0" r="3.5"/>
                <g id="zoomPlus">
                        <use xlink:href="#rim" fill="#404040">
                                <set attributeName="fill" to="#808080" begin="zoomplus.mouseover" end="zoomplus.mouseout"/>
                        </use>
                        <path d="M-4,0h8M0,-4v8" fill="none" stroke="white" stroke-width="1.5" pointer-events="none"/>
                </g>
                <g id="zoomMin">
                        <use xlink:href="#rim" fill="#404040">
                                <set attributeName="fill" to="#808080" begin="zoomminus.mouseover" end="zoomminus.mouseout"/>
                        </use>
                        <path d="M-4,0h8" fill="none" stroke="white" stroke-width="1.5" pointer-events="none"/>
                </g>
                <g id="dirArrow">
                        <path fill="none" stroke="white" stroke-width="1.5" d="M0,-3.0v7 M-2.5,-0.5L0,-3.0L2.5,-0.5"/>
                </g>
               <g id="resetDef">
                       <use xlink:href="#rim2" fill="#404040">
                               <set attributeName="fill" to="#808080" begin="reset.mouseover" end="reset.mouseout"/>
                       </use>
               </g>
        </defs>

<script type="text/javascript">
var viewWidth = 671;
var viewHeight = 604;
var sectionId = 'dynsection-3';
</script>
<script xlink:href="../../svgpan.js"/>
<svg id="graph" class="graph">
<g id="viewport">
<title>ChromeOmniboxEditController::GetWebContents</title>
<polygon fill="white" stroke="transparent" points="-4,4 -4,-600.16 667,-600.16 667,4 -4,4"/>
<!-- Node1 -->
<g id="node1" class="node">
<title>Node1</title>
<g id="a_node1"><a xlink:title=" ">
<polygon fill="#bfbfbf" stroke="black" points="514,-294.5 514,-324.5 663,-324.5 663,-294.5 514,-294.5"/>
<text text-anchor="start" x="522" y="-312.5" font-family="Helvetica,sans-Serif" font-size="10.00">ChromeOmniboxEditController</text>
<text text-anchor="middle" x="588.5" y="-301.5" font-family="Helvetica,sans-Serif" font-size="10.00">::GetWebContents</text>
</a>
</g>
</g>
<!-- Node2 -->
<g id="node2" class="node">
<title>Node2</title>
<g id="a_node2"><a xlink:href="../../d5/d3e/classChromeOmniboxClient.html#a5984bdedaa2b5c05d9f9047797f5f060" target="_top" xlink:title=" ">
<polygon fill="white" stroke="black" points="333,-519.5 333,-549.5 449,-549.5 449,-519.5 333,-519.5"/>
<text text-anchor="start" x="341" y="-537.5" font-family="Helvetica,sans-Serif" font-size="10.00">ChromeOmniboxClient</text>
<text text-anchor="middle" x="391" y="-526.5" font-family="Helvetica,sans-Serif" font-size="10.00">::CurrentPageExists</text>
</a>
</g>
</g>
<!-- Node1&#45;&gt;Node2 -->
<g id="edge1" class="edge">
<title>Node1&#45;&gt;Node2</title>
<path fill="none" stroke="midnightblue" d="M580,-334.37C566.34,-375.54 533.58,-457.94 478,-504.5 469.64,-511.51 459.53,-516.92 449.24,-521.08"/>
<polygon fill="midnightblue" stroke="midnightblue" points="583.41,-335.2 583.13,-324.6 576.74,-333.06 583.41,-335.2"/>
</g>
<!-- Node3 -->
<g id="node3" class="node">
<title>Node3</title>
<g id="a_node3"><a xlink:href="../../d5/d3e/classChromeOmniboxClient.html#a88d2075c687f5d32b4fd17538a571e84" target="_top" xlink:title=" ">
<polygon fill="white" stroke="black" points="152,-563.5 152,-593.5 268,-593.5 268,-563.5 152,-563.5"/>
<text text-anchor="start" x="160" y="-581.5" font-family="Helvetica,sans-Serif" font-size="10.00">ChromeOmniboxClient</text>
<text text-anchor="middle" x="210" y="-570.5" font-family="Helvetica,sans-Serif" font-size="10.00">::GetTitle</text>
</a>
</g>
</g>
<!-- Node1&#45;&gt;Node3 -->
<g id="edge11" class="edge">
<title>Node1&#45;&gt;Node3</title>
<path fill="none" stroke="midnightblue" d="M584.88,-334.65C578,-386.66 554.26,-505.68 478,-559.5 416.68,-602.77 326.47,-599.01 268.22,-590.33"/>
<polygon fill="midnightblue" stroke="midnightblue" points="588.37,-334.97 586.11,-324.62 581.42,-334.12 588.37,-334.97"/>
</g>
<!-- Node4 -->
<g id="node4" class="node">
<title>Node4</title>
<g id="a_node4"><a xlink:href="../../d5/d3e/classChromeOmniboxClient.html#ac918768281b00b26969a0fbf20e231bb" target="_top" xlink:title=" ">
<polygon fill="white" stroke="black" points="152,-475.5 152,-505.5 268,-505.5 268,-475.5 152,-475.5"/>
<text text-anchor="start" x="160" y="-493.5" font-family="Helvetica,sans-Serif" font-size="10.00">ChromeOmniboxClient</text>
<text text-anchor="middle" x="210" y="-482.5" font-family="Helvetica,sans-Serif" font-size="10.00">::GetURL</text>
</a>
</g>
</g>
<!-- Node1&#45;&gt;Node4 -->
<g id="edge12" class="edge">
<title>Node1&#45;&gt;Node4</title>
<path fill="none" stroke="midnightblue" d="M578.84,-334.32C564.4,-371.49 531.61,-440.54 478,-471.5 413.51,-508.74 325.14,-506.8 268.05,-500.14"/>
<polygon fill="midnightblue" stroke="midnightblue" points="582.2,-335.33 582.42,-324.74 575.64,-332.88 582.2,-335.33"/>
</g>
<!-- Node6 -->
<g id="node6" class="node">
<title>Node6</title>
<g id="a_node6"><a xlink:href="../../d5/d3e/classChromeOmniboxClient.html#a715d5ce7adb64f7fe4bff012db66cea3" target="_top" xlink:title=" ">
<polygon fill="white" stroke="black" points="304,-431.5 304,-461.5 478,-461.5 478,-431.5 304,-431.5"/>
<text text-anchor="start" x="312" y="-449.5" font-family="Helvetica,sans-Serif" font-size="10.00">ChromeOmniboxClient</text>
<text text-anchor="middle" x="391" y="-438.5" font-family="Helvetica,sans-Serif" font-size="10.00">::DiscardNonCommittedNavigations</text>
</a>
</g>
</g>
<!-- Node1&#45;&gt;Node6 -->
<g id="edge6" class="edge">
<title>Node1&#45;&gt;Node6</title>
<path fill="none" stroke="midnightblue" d="M569.15,-332.65C549.07,-356.63 514.78,-393.71 478,-416.5 468.46,-422.41 457.59,-427.35 446.87,-431.41"/>
<polygon fill="midnightblue" stroke="midnightblue" points="572,-334.71 575.65,-324.77 566.59,-330.26 572,-334.71"/>
</g>
<!-- Node7 -->
<g id="node7" class="node">
<title>Node7</title>
<g id="a_node7"><a xlink:href="../../d5/d3e/classChromeOmniboxClient.html#a4d561215e3a67532b72c6ba1f1e1d807" target="_top" xlink:title=" ">
<polygon fill="white" stroke="black" points="152,-407.5 152,-437.5 268,-437.5 268,-407.5 152,-407.5"/>
<text text-anchor="start" x="160" y="-425.5" font-family="Helvetica,sans-Serif" font-size="10.00">ChromeOmniboxClient</text>
<text text-anchor="middle" x="210" y="-414.5" font-family="Helvetica,sans-Serif" font-size="10.00">::DoPrerender</text>
</a>
</g>
</g>
<!-- Node1&#45;&gt;Node7 -->
<g id="edge7" class="edge">
<title>Node1&#45;&gt;Node7</title>
<path fill="none" stroke="midnightblue" d="M562.45,-330.91C541.35,-347.73 509.61,-370.3 478,-382.5 408.91,-409.17 323.4,-418.15 268.05,-421.13"/>
<polygon fill="midnightblue" stroke="midnightblue" points="564.72,-333.57 570.27,-324.55 560.31,-328.14 564.72,-333.57"/>
</g>
<!-- Node8 -->
<g id="node8" class="node">
<title>Node8</title>
<g id="a_node8"><a xlink:href="../../d5/d3e/classChromeOmniboxClient.html#aa60639725d5c3411dd6ea17620b284fd" target="_top" xlink:title=" ">
<polygon fill="white" stroke="black" points="333,-343.5 333,-373.5 449,-373.5 449,-343.5 333,-343.5"/>
<text text-anchor="start" x="341" y="-361.5" font-family="Helvetica,sans-Serif" font-size="10.00">ChromeOmniboxClient</text>
<text text-anchor="middle" x="391" y="-350.5" font-family="Helvetica,sans-Serif" font-size="10.00">::GetFavicon</text>
</a>
</g>
</g>
<!-- Node1&#45;&gt;Node8 -->
<g id="edge9" class="edge">
<title>Node1&#45;&gt;Node8</title>
<path fill="none" stroke="midnightblue" d="M517.7,-326.99C495.24,-332.62 470.64,-338.79 449.19,-344.16"/>
<polygon fill="midnightblue" stroke="midnightblue" points="518.67,-330.36 527.51,-324.53 516.96,-323.57 518.67,-330.36"/>
</g>
<!-- Node9 -->
<g id="node9" class="node">
<title>Node9</title>
<g id="a_node9"><a xlink:href="../../d5/d3e/classChromeOmniboxClient.html#a8919630de8b57b8200db53028a9a0cb8" target="_top" xlink:title=" ">
<polygon fill="white" stroke="black" points="333,-294.5 333,-324.5 449,-324.5 449,-294.5 333,-294.5"/>
<text text-anchor="start" x="341" y="-312.5" font-family="Helvetica,sans-Serif" font-size="10.00">ChromeOmniboxClient</text>
<text text-anchor="middle" x="391" y="-301.5" font-family="Helvetica,sans-Serif" font-size="10.00">::GetSessionID</text>
</a>
</g>
</g>
<!-- Node1&#45;&gt;Node9 -->
<g id="edge10" class="edge">
<title>Node1&#45;&gt;Node9</title>
<path fill="none" stroke="midnightblue" d="M503.72,-309.5C485.29,-309.5 466.19,-309.5 449.11,-309.5"/>
<polygon fill="midnightblue" stroke="midnightblue" points="503.87,-313 513.87,-309.5 503.87,-306 503.87,-313"/>
</g>
<!-- Node10 -->
<g id="node10" class="node">
<title>Node10</title>
<g id="a_node10"><a xlink:href="../../d5/d3e/classChromeOmniboxClient.html#aa1da0b73de91d410fb3c86ad07b88779" target="_top" xlink:title=" ">
<polygon fill="white" stroke="black" points="333,-245.5 333,-275.5 449,-275.5 449,-245.5 333,-245.5"/>
<text text-anchor="start" x="341" y="-263.5" font-family="Helvetica,sans-Serif" font-size="10.00">ChromeOmniboxClient</text>
<text text-anchor="middle" x="391" y="-252.5" font-family="Helvetica,sans-Serif" font-size="10.00">::IsLoading</text>
</a>
</g>
</g>
<!-- Node1&#45;&gt;Node10 -->
<g id="edge13" class="edge">
<title>Node1&#45;&gt;Node10</title>
<path fill="none" stroke="midnightblue" d="M517.7,-292.01C495.24,-286.38 470.64,-280.21 449.19,-274.84"/>
<polygon fill="midnightblue" stroke="midnightblue" points="516.96,-295.43 527.51,-294.47 518.67,-288.64 516.96,-295.43"/>
</g>
<!-- Node11 -->
<g id="node11" class="node">
<title>Node11</title>
<g id="a_node11"><a xlink:href="../../d4/d38/classChromeOmniboxEditController.html#a9f91e23a342c8c8215208eacc7e8bc1d" target="_top" xlink:title=" ">
<polygon fill="white" stroke="black" points="316.5,-196.5 316.5,-226.5 465.5,-226.5 465.5,-196.5 316.5,-196.5"/>
<text text-anchor="start" x="324.5" y="-214.5" font-family="Helvetica,sans-Serif" font-size="10.00">ChromeOmniboxEditController</text>
<text text-anchor="middle" x="391" y="-203.5" font-family="Helvetica,sans-Serif" font-size="10.00">::OnAutocompleteAccept</text>
</a>
</g>
</g>
<!-- Node1&#45;&gt;Node11 -->
<g id="edge14" class="edge">
<title>Node1&#45;&gt;Node11</title>
<path fill="none" stroke="midnightblue" d="M561.3,-288.23C539.98,-271.82 508.52,-249.62 478,-235.5 470.82,-232.18 463.1,-229.23 455.32,-226.64"/>
<polygon fill="midnightblue" stroke="midnightblue" points="559.2,-291.02 569.23,-294.42 563.51,-285.51 559.2,-291.02"/>
</g>
<!-- Node12 -->
<g id="node12" class="node">
<title>Node12</title>
<g id="a_node12"><a xlink:href="../../d5/d3e/classChromeOmniboxClient.html#aff1fbf81971d26be7a147ead45bc1b81" target="_top" xlink:title=" ">
<polygon fill="white" stroke="black" points="333,-147.5 333,-177.5 449,-177.5 449,-147.5 333,-147.5"/>
<text text-anchor="start" x="341" y="-165.5" font-family="Helvetica,sans-Serif" font-size="10.00">ChromeOmniboxClient</text>
<text text-anchor="middle" x="391" y="-154.5" font-family="Helvetica,sans-Serif" font-size="10.00">::OnFocusChanged</text>
</a>
</g>
</g>
<!-- Node1&#45;&gt;Node12 -->
<g id="edge15" class="edge">
<title>Node1&#45;&gt;Node12</title>
<path fill="none" stroke="midnightblue" d="M572.57,-285.72C553.85,-257.83 519.15,-212.17 478,-186.5 469.19,-181 459.1,-176.74 449,-173.44"/>
<polygon fill="midnightblue" stroke="midnightblue" points="569.66,-287.66 578.08,-294.1 575.51,-283.82 569.66,-287.66"/>
</g>
<!-- Node13 -->
<g id="node13" class="node">
<title>Node13</title>
<g id="a_node13"><a xlink:href="../../d5/d3e/classChromeOmniboxClient.html#a787db333beb069016ce389ef914c5c22" target="_top" xlink:title=" ">
<polygon fill="white" stroke="black" points="331.5,-98.5 331.5,-128.5 450.5,-128.5 450.5,-98.5 331.5,-98.5"/>
<text text-anchor="start" x="339.5" y="-116.5" font-family="Helvetica,sans-Serif" font-size="10.00">ChromeOmniboxClient</text>
<text text-anchor="middle" x="391" y="-105.5" font-family="Helvetica,sans-Serif" font-size="10.00">::OnInputStateChanged</text>
</a>
</g>
</g>
<!-- Node1&#45;&gt;Node13 -->
<g id="edge16" class="edge">
<title>Node1&#45;&gt;Node13</title>
<path fill="none" stroke="midnightblue" d="M578.51,-284.81C563.56,-247.25 529.98,-176.04 478,-137.5 469.91,-131.5 460.38,-127 450.67,-123.62"/>
<polygon fill="midnightblue" stroke="midnightblue" points="575.37,-286.39 582.24,-294.46 581.9,-283.87 575.37,-286.39"/>
</g>
<!-- Node14 -->
<g id="node14" class="node">
<title>Node14</title>
<g id="a_node14"><a xlink:href="../../d5/d3e/classChromeOmniboxClient.html#a056427c6e8d3735a6acb72c910d03904" target="_top" xlink:title=" ">
<polygon fill="white" stroke="black" points="321,-49.5 321,-79.5 461,-79.5 461,-49.5 321,-49.5"/>
<text text-anchor="start" x="329" y="-67.5" font-family="Helvetica,sans-Serif" font-size="10.00">ChromeOmniboxClient</text>
<text text-anchor="middle" x="391" y="-56.5" font-family="Helvetica,sans-Serif" font-size="10.00">::OpenUpdateChromeDialog</text>
</a>
</g>
</g>
<!-- Node1&#45;&gt;Node14 -->
<g id="edge17" class="edge">
<title>Node1&#45;&gt;Node14</title>
<path fill="none" stroke="midnightblue" d="M582.12,-284.2C571,-238.18 541.06,-140.7 478,-88.5 472.98,-84.35 467.3,-80.91 461.3,-78.07"/>
<polygon fill="midnightblue" stroke="midnightblue" points="578.78,-285.28 584.44,-294.23 585.6,-283.7 578.78,-285.28"/>
</g>
<!-- Node15 -->
<g id="node15" class="node">
<title>Node15</title>
<g id="a_node15"><a xlink:href="../../d5/d3e/classChromeOmniboxClient.html#a0254debb55a7618ecdd757384e2f7efb" target="_top" xlink:title=" ">
<polygon fill="white" stroke="black" points="321,-0.5 321,-30.5 461,-30.5 461,-0.5 321,-0.5"/>
<text text-anchor="start" x="329" y="-18.5" font-family="Helvetica,sans-Serif" font-size="10.00">ChromeOmniboxClient</text>
<text text-anchor="middle" x="391" y="-7.5" font-family="Helvetica,sans-Serif" font-size="10.00">::ProcessExtensionKeyword</text>
</a>
</g>
</g>
<!-- Node1&#45;&gt;Node15 -->
<g id="edge18" class="edge">
<title>Node1&#45;&gt;Node15</title>
<path fill="none" stroke="midnightblue" d="M584.67,-284.37C577.32,-231.07 552.66,-106.16 478,-39.5 473.03,-35.06 467.3,-31.44 461.21,-28.48"/>
<polygon fill="midnightblue" stroke="midnightblue" points="581.21,-284.85 585.96,-294.32 588.15,-283.95 581.21,-284.85"/>
</g>
<!-- Node2&#45;&gt;Node3 -->
<g id="edge2" class="edge">
<title>Node2&#45;&gt;Node3</title>
<path fill="none" stroke="midnightblue" d="M323.01,-550.97C304.98,-555.4 285.64,-560.15 268.2,-564.44"/>
<polygon fill="midnightblue" stroke="midnightblue" points="324,-554.33 332.87,-548.54 322.32,-547.53 324,-554.33"/>
</g>
<!-- Node2&#45;&gt;Node4 -->
<g id="edge3" class="edge">
<title>Node2&#45;&gt;Node4</title>
<path fill="none" stroke="midnightblue" d="M323.01,-518.03C304.98,-513.6 285.64,-508.85 268.2,-504.56"/>
<polygon fill="midnightblue" stroke="midnightblue" points="322.32,-521.47 332.87,-520.46 324,-514.67 322.32,-521.47"/>
</g>
<!-- Node5 -->
<g id="node5" class="node">
<title>Node5</title>
<g id="a_node5"><a xlink:href="../../d5/d3e/classChromeOmniboxClient.html#a46cf4900110df743bb44f31225678c4f" target="_top" xlink:title=" ">
<polygon fill="white" stroke="black" points="0,-475.5 0,-505.5 116,-505.5 116,-475.5 0,-475.5"/>
<text text-anchor="start" x="8" y="-493.5" font-family="Helvetica,sans-Serif" font-size="10.00">ChromeOmniboxClient</text>
<text text-anchor="middle" x="58" y="-482.5" font-family="Helvetica,sans-Serif" font-size="10.00">::OnTextChanged</text>
</a>
</g>
</g>
<!-- Node2&#45;&gt;Node5 -->
<g id="edge5" class="edge">
<title>Node2&#45;&gt;Node5</title>
<path fill="none" stroke="midnightblue" d="M322.65,-532.41C274.76,-530.12 209.08,-525.36 152,-515.5 137.67,-513.02 122.33,-509.34 108.34,-505.56"/>
<polygon fill="midnightblue" stroke="midnightblue" points="322.74,-535.91 332.89,-532.87 323.06,-528.92 322.74,-535.91"/>
</g>
<!-- Node4&#45;&gt;Node5 -->
<g id="edge4" class="edge">
<title>Node4&#45;&gt;Node5</title>
<path fill="none" stroke="midnightblue" d="M141.69,-490.5C133.27,-490.5 124.72,-490.5 116.47,-490.5"/>
<polygon fill="midnightblue" stroke="midnightblue" points="141.86,-494 151.86,-490.5 141.86,-487 141.86,-494"/>
</g>
<!-- Node7&#45;&gt;Node5 -->
<g id="edge8" class="edge">
<title>Node7&#45;&gt;Node5</title>
<path fill="none" stroke="midnightblue" d="M166.32,-441.85C142.79,-452.51 114.02,-465.56 92.2,-475.45"/>
<polygon fill="midnightblue" stroke="midnightblue" points="168.05,-444.91 175.71,-437.59 165.16,-438.53 168.05,-444.91"/>
</g>
</g>
</svg>
        <g id="navigator" transform="translate(0 0)" fill="#404254">
                <rect fill="#f2f5e9" fill-opacity="0.5" stroke="#606060" stroke-width=".5" x="0" y="0" width="60" height="60"/>
                <use id="zoomplus" xlink:href="#zoomPlus" x="17" y="9" onmousedown="handleZoom(evt,'in')"/>
                <use id="zoomminus" xlink:href="#zoomMin" x="42" y="9" onmousedown="handleZoom(evt,'out')"/>
                <use id="reset" xlink:href="#resetDef" x="30" y="36" onmousedown="handleReset()"/>
                <g id="arrowUp" xlink:href="#dirArrow" transform="translate(30 24)" onmousedown="handlePan(0,-1)">
                  <use xlink:href="#rim" fill="#404040">
                        <set attributeName="fill" to="#808080" begin="arrowUp.mouseover" end="arrowUp.mouseout"/>
                  </use>
                  <path fill="none" stroke="white" stroke-width="1.5" d="M0,-3.0v7 M-2.5,-0.5L0,-3.0L2.5,-0.5"/>
                </g>
                <g id="arrowRight" xlink:href="#dirArrow" transform="rotate(90) translate(36 -43)" onmousedown="handlePan(1,0)">
                  <use xlink:href="#rim" fill="#404040">
                        <set attributeName="fill" to="#808080" begin="arrowRight.mouseover" end="arrowRight.mouseout"/>
                  </use>
                  <path fill="none" stroke="white" stroke-width="1.5" d="M0,-3.0v7 M-2.5,-0.5L0,-3.0L2.5,-0.5"/>
                </g>
                <g id="arrowDown" xlink:href="#dirArrow" transform="rotate(180) translate(-30 -48)" onmousedown="handlePan(0,1)">
                  <use xlink:href="#rim" fill="#404040">
                        <set attributeName="fill" to="#808080" begin="arrowDown.mouseover" end="arrowDown.mouseout"/>
                  </use>
                  <path fill="none" stroke="white" stroke-width="1.5" d="M0,-3.0v7 M-2.5,-0.5L0,-3.0L2.5,-0.5"/>
                </g>
                <g id="arrowLeft" xlink:href="#dirArrow" transform="rotate(270) translate(-36 17)" onmousedown="handlePan(-1,0)">
                  <use xlink:href="#rim" fill="#404040">
                        <set attributeName="fill" to="#808080" begin="arrowLeft.mouseover" end="arrowLeft.mouseout"/>
                  </use>
                  <path fill="none" stroke="white" stroke-width="1.5" d="M0,-3.0v7 M-2.5,-0.5L0,-3.0L2.5,-0.5"/>
                </g>
        </g>
        <svg viewBox="0 0 15 15" width="100%" height="30px" preserveAspectRatio="xMaxYMin meet">
         <g id="arrow_out" transform="scale(0.3 0.3)">
          <a xlink:href="classChromeOmniboxEditController_a3f6e74807b9576ed6613c2caea1e22d9_icgraph_org.svg" target="_base">
           <rect id="button" ry="5" rx="5" y="6" x="6" height="38" width="38"
                fill="#f2f5e9" fill-opacity="0.5" stroke="#606060" stroke-width="1.0"/>
           <path id="arrow"
             d="M 11.500037,31.436501 C 11.940474,20.09759 22.043105,11.32322 32.158766,21.979434 L 37.068811,17.246167 C 37.068811,17.246167 37.088388,32 37.088388,32 L 22.160133,31.978069 C 22.160133,31.978069 26.997745,27.140456 26.997745,27.140456 C 18.528582,18.264221 13.291696,25.230495 11.500037,31.436501 z"
             style="fill:#404040;"/>
          </a>
         </g>
        </svg>
</svg>
