<?xml version="1.0" encoding="UTF-8" standalone="no"?>
<!DOCTYPE svg PUBLIC "-//W3C//DTD SVG 1.1//EN"
 "http://www.w3.org/Graphics/SVG/1.1/DTD/svg11.dtd">
<!-- Generated by graphviz version 2.43.0 (0)
 -->
<!-- Title: components/omnibox/browser/shortcuts_backend.h Pages: 1 -->
<svg width="3790pt" height="351pt"
 viewBox="0.00 0.00 3790.00 351.00" xmlns="http://www.w3.org/2000/svg" xmlns:xlink="http://www.w3.org/1999/xlink">
<g id="graph0" class="graph" transform="scale(1 1) rotate(0) translate(4 347)">
<title>components/omnibox/browser/shortcuts_backend.h</title>
<polygon fill="white" stroke="transparent" points="-4,4 -4,-347 3786,-347 3786,4 -4,4"/>
<!-- Node1 -->
<g id="node1" class="node">
<title>Node1</title>
<g id="a_node1"><a xlink:title=" ">
<polygon fill="#bfbfbf" stroke="black" points="2571.5,-312.5 2571.5,-342.5 2719.5,-342.5 2719.5,-312.5 2571.5,-312.5"/>
<text text-anchor="start" x="2579.5" y="-330.5" font-family="Helvetica,sans-Serif" font-size="10.00">components/omnibox</text>
<text text-anchor="middle" x="2645.5" y="-319.5" font-family="Helvetica,sans-Serif" font-size="10.00">/browser/shortcuts_backend.h</text>
</a>
</g>
</g>
<!-- Node2 -->
<g id="node2" class="node">
<title>Node2</title>
<g id="a_node2"><a xlink:title=" ">
<polygon fill="white" stroke="#bfbfbf" points="261,-89.5 261,-108.5 296,-108.5 296,-89.5 261,-89.5"/>
<text text-anchor="middle" x="278.5" y="-96.5" font-family="Helvetica,sans-Serif" font-size="10.00">map</text>
</a>
</g>
</g>
<!-- Node1&#45;&gt;Node2 -->
<g id="edge1" class="edge">
<title>Node1&#45;&gt;Node2</title>
<path fill="none" stroke="midnightblue" d="M2571.3,-325.95C2206.83,-323.11 619.67,-308.89 520.5,-276 421.02,-243 328.04,-152.71 293.1,-115.92"/>
<polygon fill="midnightblue" stroke="midnightblue" points="295.58,-113.45 286.19,-108.54 290.47,-118.23 295.58,-113.45"/>
</g>
<!-- Node3 -->
<g id="node3" class="node">
<title>Node3</title>
<g id="a_node3"><a xlink:title=" ">
<polygon fill="white" stroke="#bfbfbf" points="2352.5,-11.5 2352.5,-30.5 2404.5,-30.5 2404.5,-11.5 2352.5,-11.5"/>
<text text-anchor="middle" x="2378.5" y="-18.5" font-family="Helvetica,sans-Serif" font-size="10.00">memory</text>
</a>
</g>
</g>
<!-- Node1&#45;&gt;Node3 -->
<g id="edge2" class="edge">
<title>Node1&#45;&gt;Node3</title>
<path fill="none" stroke="midnightblue" d="M2640.23,-312.43C2622.3,-265.15 2562.62,-112.93 2524.5,-78 2493.53,-49.61 2446.65,-35.08 2414.41,-28.03"/>
<polygon fill="midnightblue" stroke="midnightblue" points="2415,-24.58 2404.5,-25.99 2413.59,-31.43 2415,-24.58"/>
</g>
<!-- Node4 -->
<g id="node4" class="node">
<title>Node4</title>
<g id="a_node4"><a xlink:title=" ">
<polygon fill="white" stroke="#bfbfbf" points="2652.5,-245.5 2652.5,-264.5 2682.5,-264.5 2682.5,-245.5 2652.5,-245.5"/>
<text text-anchor="middle" x="2667.5" y="-252.5" font-family="Helvetica,sans-Serif" font-size="10.00">set</text>
</a>
</g>
</g>
<!-- Node1&#45;&gt;Node4 -->
<g id="edge3" class="edge">
<title>Node1&#45;&gt;Node4</title>
<path fill="none" stroke="midnightblue" d="M2649.95,-312.23C2653.34,-301.39 2658.02,-286.38 2661.7,-274.6"/>
<polygon fill="midnightblue" stroke="midnightblue" points="2665.09,-275.48 2664.72,-264.89 2658.4,-273.4 2665.09,-275.48"/>
</g>
<!-- Node5 -->
<g id="node5" class="node">
<title>Node5</title>
<g id="a_node5"><a xlink:title=" ">
<polygon fill="white" stroke="#bfbfbf" points="1681,-11.5 1681,-30.5 1722,-30.5 1722,-11.5 1681,-11.5"/>
<text text-anchor="middle" x="1701.5" y="-18.5" font-family="Helvetica,sans-Serif" font-size="10.00">string</text>
</a>
</g>
</g>
<!-- Node1&#45;&gt;Node5 -->
<g id="edge4" class="edge">
<title>Node1&#45;&gt;Node5</title>
<path fill="none" stroke="midnightblue" d="M2571.27,-325.01C2217.11,-317.16 710.69,-274.77 578.5,-120 566.38,-105.81 565.63,-91.52 578.5,-78 588.19,-67.81 1491.17,-30.56 1670.68,-23.25"/>
<polygon fill="midnightblue" stroke="midnightblue" points="1670.91,-26.74 1680.76,-22.84 1670.62,-19.75 1670.91,-26.74"/>
</g>
<!-- Node6 -->
<g id="node6" class="node">
<title>Node6</title>
<g id="a_node6"><a xlink:title=" ">
<polygon fill="white" stroke="#bfbfbf" points="1296,-167.5 1296,-186.5 1403,-186.5 1403,-167.5 1296,-167.5"/>
<text text-anchor="middle" x="1349.5" y="-174.5" font-family="Helvetica,sans-Serif" font-size="10.00">base/files/file_path.h</text>
</a>
</g>
</g>
<!-- Node1&#45;&gt;Node6 -->
<g id="edge5" class="edge">
<title>Node1&#45;&gt;Node6</title>
<path fill="none" stroke="midnightblue" d="M2571.26,-325.3C2425.59,-322.22 2092.27,-311.57 1814.5,-276 1636.14,-253.16 1592.16,-240.75 1417.5,-198 1407.28,-195.5 1396.3,-192.44 1386.21,-189.47"/>
<polygon fill="midnightblue" stroke="midnightblue" points="1387.06,-186.07 1376.48,-186.56 1385.05,-192.78 1387.06,-186.07"/>
</g>
<!-- Node7 -->
<g id="node7" class="node">
<title>Node7</title>
<g id="a_node7"><a xlink:title=" ">
<polygon fill="white" stroke="#bfbfbf" points="2492,-11.5 2492,-30.5 2605,-30.5 2605,-11.5 2492,-11.5"/>
<text text-anchor="middle" x="2548.5" y="-18.5" font-family="Helvetica,sans-Serif" font-size="10.00">base/gtest_prod_util.h</text>
</a>
</g>
</g>
<!-- Node1&#45;&gt;Node7 -->
<g id="edge6" class="edge">
<title>Node1&#45;&gt;Node7</title>
<path fill="none" stroke="midnightblue" d="M2643.99,-312.34C2638.91,-266.1 2621.53,-120.06 2600.5,-78 2592.57,-62.15 2578.76,-47.59 2567.36,-37.3"/>
<polygon fill="midnightblue" stroke="midnightblue" points="2569.46,-34.49 2559.61,-30.59 2564.89,-39.78 2569.46,-34.49"/>
</g>
<!-- Node8 -->
<g id="node8" class="node">
<title>Node8</title>
<g id="a_node8"><a xlink:title=" ">
<polygon fill="white" stroke="#bfbfbf" points="2382.5,-167.5 2382.5,-186.5 2520.5,-186.5 2520.5,-167.5 2382.5,-167.5"/>
<text text-anchor="middle" x="2451.5" y="-174.5" font-family="Helvetica,sans-Serif" font-size="10.00">base/memory/ref_counted.h</text>
</a>
</g>
</g>
<!-- Node1&#45;&gt;Node8 -->
<g id="edge7" class="edge">
<title>Node1&#45;&gt;Node8</title>
<path fill="none" stroke="midnightblue" d="M2603.57,-312.49C2581.71,-303.98 2555.27,-291.71 2534.5,-276 2503.83,-252.8 2476.81,-216.38 2462.45,-195.08"/>
<polygon fill="midnightblue" stroke="midnightblue" points="2465.35,-193.13 2456.93,-186.71 2459.51,-196.99 2465.35,-193.13"/>
</g>
<!-- Node9 -->
<g id="node9" class="node">
<title>Node9</title>
<g id="a_node9"><a xlink:title=" ">
<polygon fill="white" stroke="#bfbfbf" points="2700.5,-245.5 2700.5,-264.5 2804.5,-264.5 2804.5,-245.5 2700.5,-245.5"/>
<text text-anchor="middle" x="2752.5" y="-252.5" font-family="Helvetica,sans-Serif" font-size="10.00">base/observer_list.h</text>
</a>
</g>
</g>
<!-- Node1&#45;&gt;Node9 -->
<g id="edge8" class="edge">
<title>Node1&#45;&gt;Node9</title>
<path fill="none" stroke="midnightblue" d="M2666.9,-312.4C2685.55,-300.11 2712.48,-282.37 2731.13,-270.08"/>
<polygon fill="midnightblue" stroke="midnightblue" points="2733.12,-272.96 2739.55,-264.53 2729.27,-267.11 2733.12,-272.96"/>
</g>
<!-- Node10 -->
<g id="node10" class="node">
<title>Node10</title>
<g id="a_node10"><a xlink:title=" ">
<polygon fill="white" stroke="#bfbfbf" points="2822.5,-245.5 2822.5,-264.5 2958.5,-264.5 2958.5,-245.5 2822.5,-245.5"/>
<text text-anchor="middle" x="2890.5" y="-252.5" font-family="Helvetica,sans-Serif" font-size="10.00">base/scoped_observation.h</text>
</a>
</g>
</g>
<!-- Node1&#45;&gt;Node10 -->
<g id="edge9" class="edge">
<title>Node1&#45;&gt;Node10</title>
<path fill="none" stroke="midnightblue" d="M2694.2,-312.49C2740.19,-299.25 2808.31,-279.65 2851.01,-267.36"/>
<polygon fill="midnightblue" stroke="midnightblue" points="2852.13,-270.68 2860.77,-264.55 2850.19,-263.96 2852.13,-270.68"/>
</g>
<!-- Node11 -->
<g id="node11" class="node">
<title>Node11</title>
<g id="a_node11"><a xlink:title=" ">
<polygon fill="white" stroke="#bfbfbf" points="2976.5,-240 2976.5,-270 3088.5,-270 3088.5,-240 2976.5,-240"/>
<text text-anchor="start" x="2984.5" y="-258" font-family="Helvetica,sans-Serif" font-size="10.00">base/sequenced_task</text>
<text text-anchor="middle" x="3032.5" y="-247" font-family="Helvetica,sans-Serif" font-size="10.00">_runner.h</text>
</a>
</g>
</g>
<!-- Node1&#45;&gt;Node11 -->
<g id="edge10" class="edge">
<title>Node1&#45;&gt;Node11</title>
<path fill="none" stroke="midnightblue" d="M2719.61,-317.94C2785.25,-309.63 2883.42,-295.42 2967.5,-276 2971.64,-275.04 2975.9,-273.96 2980.17,-272.81"/>
<polygon fill="midnightblue" stroke="midnightblue" points="2981.41,-276.09 2990.08,-270 2979.51,-269.36 2981.41,-276.09"/>
</g>
<!-- Node12 -->
<g id="node12" class="node">
<title>Node12</title>
<g id="a_node12"><a xlink:title=" ">
<polygon fill="white" stroke="#bfbfbf" points="3107,-240 3107,-270 3216,-270 3216,-240 3107,-240"/>
<text text-anchor="start" x="3115" y="-258" font-family="Helvetica,sans-Serif" font-size="10.00">base/synchronization</text>
<text text-anchor="middle" x="3161.5" y="-247" font-family="Helvetica,sans-Serif" font-size="10.00">/lock.h</text>
</a>
</g>
</g>
<!-- Node1&#45;&gt;Node12 -->
<g id="edge11" class="edge">
<title>Node1&#45;&gt;Node12</title>
<path fill="none" stroke="midnightblue" d="M2719.78,-322.58C2809.92,-316.81 2966.13,-303.6 3097.5,-276 3101.85,-275.09 3106.32,-274 3110.78,-272.82"/>
<polygon fill="midnightblue" stroke="midnightblue" points="3111.81,-276.16 3120.49,-270.09 3109.92,-269.42 3111.81,-276.16"/>
</g>
<!-- Node13 -->
<g id="node13" class="node">
<title>Node13</title>
<g id="a_node13"><a xlink:title=" ">
<polygon fill="white" stroke="#bfbfbf" points="3234.5,-234.5 3234.5,-275.5 3342.5,-275.5 3342.5,-234.5 3234.5,-234.5"/>
<text text-anchor="start" x="3242.5" y="-263.5" font-family="Helvetica,sans-Serif" font-size="10.00">components/history</text>
<text text-anchor="start" x="3242.5" y="-252.5" font-family="Helvetica,sans-Serif" font-size="10.00">/core/browser/history</text>
<text text-anchor="middle" x="3288.5" y="-241.5" font-family="Helvetica,sans-Serif" font-size="10.00">_service.h</text>
</a>
</g>
</g>
<!-- Node1&#45;&gt;Node13 -->
<g id="edge12" class="edge">
<title>Node1&#45;&gt;Node13</title>
<path fill="none" stroke="midnightblue" d="M2719.94,-325.25C2829.09,-322.26 3038.81,-312.14 3224.46,-275.97"/>
<polygon fill="midnightblue" stroke="midnightblue" points="3225.27,-279.38 3234.4,-274.01 3223.91,-272.52 3225.27,-279.38"/>
</g>
<!-- Node14 -->
<g id="node14" class="node">
<title>Node14</title>
<g id="a_node14"><a xlink:title=" ">
<polygon fill="white" stroke="#bfbfbf" points="3360.5,-234.5 3360.5,-275.5 3468.5,-275.5 3468.5,-234.5 3360.5,-234.5"/>
<text text-anchor="start" x="3368.5" y="-263.5" font-family="Helvetica,sans-Serif" font-size="10.00">components/history</text>
<text text-anchor="start" x="3368.5" y="-252.5" font-family="Helvetica,sans-Serif" font-size="10.00">/core/browser/history</text>
<text text-anchor="middle" x="3414.5" y="-241.5" font-family="Helvetica,sans-Serif" font-size="10.00">_service_observer.h</text>
</a>
</g>
</g>
<!-- Node1&#45;&gt;Node14 -->
<g id="edge13" class="edge">
<title>Node1&#45;&gt;Node14</title>
<path fill="none" stroke="midnightblue" d="M2719.68,-326.91C2847.29,-326.38 3116.4,-319.77 3350.35,-275.97"/>
<polygon fill="midnightblue" stroke="midnightblue" points="3351.24,-279.37 3360.41,-274.06 3349.94,-272.49 3351.24,-279.37"/>
</g>
<!-- Node15 -->
<g id="node15" class="node">
<title>Node15</title>
<g id="a_node15"><a xlink:title=" ">
<polygon fill="white" stroke="#bfbfbf" points="3486.5,-234.5 3486.5,-275.5 3622.5,-275.5 3622.5,-234.5 3486.5,-234.5"/>
<text text-anchor="start" x="3494.5" y="-263.5" font-family="Helvetica,sans-Serif" font-size="10.00">components/keyed_service</text>
<text text-anchor="start" x="3494.5" y="-252.5" font-family="Helvetica,sans-Serif" font-size="10.00">/core/refcounted_keyed</text>
<text text-anchor="middle" x="3554.5" y="-241.5" font-family="Helvetica,sans-Serif" font-size="10.00">_service.h</text>
</a>
</g>
</g>
<!-- Node1&#45;&gt;Node15 -->
<g id="edge14" class="edge">
<title>Node1&#45;&gt;Node15</title>
<path fill="none" stroke="midnightblue" d="M2719.76,-326.79C2864.12,-326.31 3192.59,-320.12 3476.14,-276.05"/>
<polygon fill="midnightblue" stroke="midnightblue" points="3476.88,-279.48 3486.21,-274.47 3475.79,-272.57 3476.88,-279.48"/>
</g>
<!-- Node16 -->
<g id="node16" class="node">
<title>Node16</title>
<g id="a_node16"><a xlink:href="../../dc/d0c/autocomplete__match_8h.html" target="_top" xlink:title=" ">
<polygon fill="white" stroke="black" points="1459.5,-156.5 1459.5,-197.5 1575.5,-197.5 1575.5,-156.5 1459.5,-156.5"/>
<text text-anchor="start" x="1467.5" y="-185.5" font-family="Helvetica,sans-Serif" font-size="10.00">components/omnibox</text>
<text text-anchor="start" x="1467.5" y="-174.5" font-family="Helvetica,sans-Serif" font-size="10.00">/browser/autocomplete</text>
<text text-anchor="middle" x="1517.5" y="-163.5" font-family="Helvetica,sans-Serif" font-size="10.00">_match.h</text>
</a>
</g>
</g>
<!-- Node1&#45;&gt;Node16 -->
<g id="edge15" class="edge">
<title>Node1&#45;&gt;Node16</title>
<path fill="none" stroke="midnightblue" d="M2571.19,-321.77C2463.43,-314.46 2257.6,-298.86 2083.5,-276 1902.7,-252.27 1691.42,-212.44 1585.44,-191.62"/>
<polygon fill="midnightblue" stroke="midnightblue" points="1586.01,-188.16 1575.52,-189.66 1584.65,-195.03 1586.01,-188.16"/>
</g>
<!-- Node30 -->
<g id="node30" class="node">
<title>Node30</title>
<g id="a_node30"><a xlink:title=" ">
<polygon fill="white" stroke="#bfbfbf" points="2280.5,-11.5 2280.5,-30.5 2334.5,-30.5 2334.5,-11.5 2280.5,-11.5"/>
<text text-anchor="middle" x="2307.5" y="-18.5" font-family="Helvetica,sans-Serif" font-size="10.00">url/gurl.h</text>
</a>
</g>
</g>
<!-- Node1&#45;&gt;Node30 -->
<g id="edge70" class="edge">
<title>Node1&#45;&gt;Node30</title>
<path fill="none" stroke="midnightblue" d="M2633.53,-312.23C2625.36,-302.28 2614.43,-288.59 2605.5,-276 2544,-189.35 2559.03,-138.24 2471.5,-78 2422.82,-44.5 2398.14,-64.5 2343.5,-42 2339.07,-40.17 2334.49,-37.93 2330.14,-35.62"/>
<polygon fill="midnightblue" stroke="midnightblue" points="2331.58,-32.41 2321.14,-30.57 2328.15,-38.52 2331.58,-32.41"/>
</g>
<!-- Node42 -->
<g id="node42" class="node">
<title>Node42</title>
<g id="a_node42"><a xlink:href="../../df/d0f/shortcuts__database_8h.html" target="_top" xlink:title=" ">
<polygon fill="white" stroke="black" points="2092,-240 2092,-270 2243,-270 2243,-240 2092,-240"/>
<text text-anchor="start" x="2100" y="-258" font-family="Helvetica,sans-Serif" font-size="10.00">components/omnibox</text>
<text text-anchor="middle" x="2167.5" y="-247" font-family="Helvetica,sans-Serif" font-size="10.00">/browser/shortcuts_database.h</text>
</a>
</g>
</g>
<!-- Node1&#45;&gt;Node42 -->
<g id="edge56" class="edge">
<title>Node1&#45;&gt;Node42</title>
<path fill="none" stroke="midnightblue" d="M2571.34,-315.56C2485.27,-302.87 2343.61,-281.97 2252.99,-268.61"/>
<polygon fill="midnightblue" stroke="midnightblue" points="2253.43,-265.14 2243.02,-267.14 2252.4,-272.06 2253.43,-265.14"/>
</g>
<!-- Node45 -->
<g id="node45" class="node">
<title>Node45</title>
<g id="a_node45"><a xlink:title=" ">
<polygon fill="white" stroke="#bfbfbf" points="3641,-240 3641,-270 3782,-270 3782,-240 3641,-240"/>
<text text-anchor="start" x="3649" y="-258" font-family="Helvetica,sans-Serif" font-size="10.00">components/search_engines</text>
<text text-anchor="middle" x="3711.5" y="-247" font-family="Helvetica,sans-Serif" font-size="10.00">/search_terms_data.h</text>
</a>
</g>
</g>
<!-- Node1&#45;&gt;Node45 -->
<g id="edge69" class="edge">
<title>Node1&#45;&gt;Node45</title>
<path fill="none" stroke="midnightblue" d="M2719.68,-324.56C2917.72,-319.1 3455.72,-302.22 3631.5,-276 3638.06,-275.02 3644.87,-273.74 3651.63,-272.3"/>
<polygon fill="midnightblue" stroke="midnightblue" points="3652.45,-275.7 3661.44,-270.09 3650.92,-268.87 3652.45,-275.7"/>
</g>
<!-- Node16&#45;&gt;Node2 -->
<g id="edge17" class="edge">
<title>Node16&#45;&gt;Node2</title>
<path fill="none" stroke="midnightblue" d="M1459.21,-158.55C1454.6,-157.56 1449.99,-156.68 1445.5,-156 1196.03,-117.96 551.94,-193.4 310.5,-120 306.13,-118.67 301.76,-116.58 297.73,-114.24"/>
<polygon fill="midnightblue" stroke="midnightblue" points="299.34,-111.12 289.05,-108.58 295.51,-116.98 299.34,-111.12"/>
</g>
<!-- Node16&#45;&gt;Node3 -->
<g id="edge18" class="edge">
<title>Node16&#45;&gt;Node3</title>
<path fill="none" stroke="midnightblue" d="M1575.62,-173.96C1741.82,-167.8 2211.23,-148.1 2274.5,-120 2299.21,-109.03 2298.84,-96.56 2318.5,-78 2332.98,-64.33 2349.53,-48.9 2361.58,-37.7"/>
<polygon fill="midnightblue" stroke="midnightblue" points="2364.17,-40.07 2369.12,-30.7 2359.41,-34.94 2364.17,-40.07"/>
</g>
<!-- Node16&#45;&gt;Node5 -->
<g id="edge19" class="edge">
<title>Node16&#45;&gt;Node5</title>
<path fill="none" stroke="midnightblue" d="M1459.2,-158.6C1454.59,-157.6 1449.99,-156.71 1445.5,-156 1398.59,-148.6 624.36,-154.28 591.5,-120 578.58,-106.53 578.64,-91.53 591.5,-78 601.07,-67.93 1492.71,-30.62 1670.77,-23.26"/>
<polygon fill="midnightblue" stroke="midnightblue" points="1671.15,-26.75 1681,-22.84 1670.86,-19.76 1671.15,-26.75"/>
</g>
<!-- Node17 -->
<g id="node17" class="node">
<title>Node17</title>
<g id="a_node17"><a xlink:title=" ">
<polygon fill="white" stroke="#bfbfbf" points="707.5,-11.5 707.5,-30.5 759.5,-30.5 759.5,-11.5 707.5,-11.5"/>
<text text-anchor="middle" x="733.5" y="-18.5" font-family="Helvetica,sans-Serif" font-size="10.00">stddef.h</text>
</a>
</g>
</g>
<!-- Node16&#45;&gt;Node17 -->
<g id="edge16" class="edge">
<title>Node16&#45;&gt;Node17</title>
<path fill="none" stroke="midnightblue" d="M1459.2,-158.6C1454.59,-157.59 1449.99,-156.71 1445.5,-156 1397.88,-148.5 611.87,-154.79 578.5,-120 565.58,-106.53 567.37,-92.99 578.5,-78 611.43,-33.63 646.62,-63.54 697.5,-42 701.92,-40.13 706.49,-37.87 710.83,-35.55"/>
<polygon fill="midnightblue" stroke="midnightblue" points="712.82,-38.45 719.83,-30.5 709.39,-32.34 712.82,-38.45"/>
</g>
<!-- Node18 -->
<g id="node18" class="node">
<title>Node18</title>
<g id="a_node18"><a xlink:title=" ">
<polygon fill="white" stroke="#bfbfbf" points="600.5,-89.5 600.5,-108.5 640.5,-108.5 640.5,-89.5 600.5,-89.5"/>
<text text-anchor="middle" x="620.5" y="-96.5" font-family="Helvetica,sans-Serif" font-size="10.00">utility</text>
</a>
</g>
</g>
<!-- Node16&#45;&gt;Node18 -->
<g id="edge20" class="edge">
<title>Node16&#45;&gt;Node18</title>
<path fill="none" stroke="midnightblue" d="M1459.19,-158.62C1454.59,-157.61 1449.98,-156.71 1445.5,-156 1270.64,-128.13 817.33,-176.45 649.5,-120 645.57,-118.68 641.69,-116.65 638.1,-114.39"/>
<polygon fill="midnightblue" stroke="midnightblue" points="640.11,-111.53 629.95,-108.54 636.03,-117.21 640.11,-111.53"/>
</g>
<!-- Node19 -->
<g id="node19" class="node">
<title>Node19</title>
<g id="a_node19"><a xlink:title=" ">
<polygon fill="white" stroke="#bfbfbf" points="1984.5,-11.5 1984.5,-30.5 2028.5,-30.5 2028.5,-11.5 1984.5,-11.5"/>
<text text-anchor="middle" x="2006.5" y="-18.5" font-family="Helvetica,sans-Serif" font-size="10.00">vector</text>
</a>
</g>
</g>
<!-- Node16&#45;&gt;Node19 -->
<g id="edge21" class="edge">
<title>Node16&#45;&gt;Node19</title>
<path fill="none" stroke="midnightblue" d="M1575.61,-173.34C1697.41,-167.2 1970.64,-150.17 1999.5,-120 2019.57,-99.02 2016.04,-62.6 2011.43,-40.56"/>
<polygon fill="midnightblue" stroke="midnightblue" points="2014.82,-39.69 2009.1,-30.76 2008.01,-41.3 2014.82,-39.69"/>
</g>
<!-- Node20 -->
<g id="node20" class="node">
<title>Node20</title>
<g id="a_node20"><a xlink:title=" ">
<polygon fill="white" stroke="#bfbfbf" points="658.5,-84 658.5,-114 768.5,-114 768.5,-84 658.5,-84"/>
<text text-anchor="start" x="666.5" y="-102" font-family="Helvetica,sans-Serif" font-size="10.00">base/memory/scoped</text>
<text text-anchor="middle" x="713.5" y="-91" font-family="Helvetica,sans-Serif" font-size="10.00">_refptr.h</text>
</a>
</g>
</g>
<!-- Node16&#45;&gt;Node20 -->
<g id="edge22" class="edge">
<title>Node16&#45;&gt;Node20</title>
<path fill="none" stroke="midnightblue" d="M1459.19,-158.66C1454.58,-157.64 1449.98,-156.73 1445.5,-156 1152.09,-107.93 1070.1,-172.75 777.5,-120 772.74,-119.14 767.84,-118.03 762.96,-116.78"/>
<polygon fill="midnightblue" stroke="midnightblue" points="763.63,-113.34 753.06,-114.04 761.77,-120.08 763.63,-113.34"/>
</g>
<!-- Node21 -->
<g id="node21" class="node">
<title>Node21</title>
<g id="a_node21"><a xlink:title=" ">
<polygon fill="white" stroke="#bfbfbf" points="786.5,-89.5 786.5,-108.5 912.5,-108.5 912.5,-89.5 786.5,-89.5"/>
<text text-anchor="middle" x="849.5" y="-96.5" font-family="Helvetica,sans-Serif" font-size="10.00">base/memory/weak_ptr.h</text>
</a>
</g>
</g>
<!-- Node16&#45;&gt;Node21 -->
<g id="edge23" class="edge">
<title>Node16&#45;&gt;Node21</title>
<path fill="none" stroke="midnightblue" d="M1459.18,-158.73C1454.57,-157.7 1449.98,-156.77 1445.5,-156 1215.42,-116.56 1151.58,-159.44 921.5,-120 909.43,-117.93 896.48,-114.67 884.93,-111.38"/>
<polygon fill="midnightblue" stroke="midnightblue" points="885.79,-107.98 875.21,-108.5 883.81,-114.69 885.79,-107.98"/>
</g>
<!-- Node22 -->
<g id="node22" class="node">
<title>Node22</title>
<g id="a_node22"><a xlink:title=" ">
<polygon fill="white" stroke="#bfbfbf" points="930.5,-84 930.5,-114 1044.5,-114 1044.5,-84 930.5,-84"/>
<text text-anchor="start" x="938.5" y="-102" font-family="Helvetica,sans-Serif" font-size="10.00">base/strings/utf_offset</text>
<text text-anchor="middle" x="987.5" y="-91" font-family="Helvetica,sans-Serif" font-size="10.00">_string_conversions.h</text>
</a>
</g>
</g>
<!-- Node16&#45;&gt;Node22 -->
<g id="edge24" class="edge">
<title>Node16&#45;&gt;Node22</title>
<path fill="none" stroke="midnightblue" d="M1459.15,-158.85C1454.56,-157.79 1449.97,-156.82 1445.5,-156 1273.41,-124.46 1225.21,-153.54 1053.5,-120 1048.83,-119.09 1044.01,-117.97 1039.21,-116.75"/>
<polygon fill="midnightblue" stroke="midnightblue" points="1040,-113.33 1029.43,-114.09 1038.16,-120.09 1040,-113.33"/>
</g>
<!-- Node23 -->
<g id="node23" class="node">
<title>Node23</title>
<g id="a_node23"><a xlink:title=" ">
<polygon fill="white" stroke="#bfbfbf" points="1062.5,-89.5 1062.5,-108.5 1162.5,-108.5 1162.5,-89.5 1062.5,-89.5"/>
<text text-anchor="middle" x="1112.5" y="-96.5" font-family="Helvetica,sans-Serif" font-size="10.00">build/build_config.h</text>
</a>
</g>
</g>
<!-- Node16&#45;&gt;Node23 -->
<g id="edge25" class="edge">
<title>Node16&#45;&gt;Node23</title>
<path fill="none" stroke="midnightblue" d="M1459.12,-159.04C1454.53,-157.94 1449.95,-156.91 1445.5,-156 1325.14,-131.5 1291.13,-147.85 1171.5,-120 1162.39,-117.88 1152.71,-114.91 1143.87,-111.91"/>
<polygon fill="midnightblue" stroke="midnightblue" points="1144.93,-108.57 1134.34,-108.55 1142.6,-115.17 1144.93,-108.57"/>
</g>
<!-- Node24 -->
<g id="node24" class="node">
<title>Node24</title>
<g id="a_node24"><a xlink:href="../../df/dab/autocomplete__input_8h.html" target="_top" xlink:title=" ">
<polygon fill="white" stroke="black" points="352.5,-78.5 352.5,-119.5 468.5,-119.5 468.5,-78.5 352.5,-78.5"/>
<text text-anchor="start" x="360.5" y="-107.5" font-family="Helvetica,sans-Serif" font-size="10.00">components/omnibox</text>
<text text-anchor="start" x="360.5" y="-96.5" font-family="Helvetica,sans-Serif" font-size="10.00">/browser/autocomplete</text>
<text text-anchor="middle" x="410.5" y="-85.5" font-family="Helvetica,sans-Serif" font-size="10.00">_input.h</text>
</a>
</g>
</g>
<!-- Node16&#45;&gt;Node24 -->
<g id="edge26" class="edge">
<title>Node16&#45;&gt;Node24</title>
<path fill="none" stroke="midnightblue" d="M1459.2,-158.58C1454.59,-157.58 1449.99,-156.7 1445.5,-156 1022.28,-90.24 905.72,-185.76 482.5,-120 481.24,-119.8 479.97,-119.59 478.69,-119.37"/>
<polygon fill="midnightblue" stroke="midnightblue" points="479.29,-115.92 468.8,-117.42 477.93,-122.79 479.29,-115.92"/>
</g>
<!-- Node29 -->
<g id="node29" class="node">
<title>Node29</title>
<g id="a_node29"><a xlink:title=" ">
<polygon fill="white" stroke="#bfbfbf" points="0,-0.5 0,-41.5 121,-41.5 121,-0.5 0,-0.5"/>
<text text-anchor="start" x="8" y="-29.5" font-family="Helvetica,sans-Serif" font-size="10.00">third_party/perfetto</text>
<text text-anchor="start" x="8" y="-18.5" font-family="Helvetica,sans-Serif" font-size="10.00">/include/perfetto/tracing</text>
<text text-anchor="middle" x="60.5" y="-7.5" font-family="Helvetica,sans-Serif" font-size="10.00">/traced_value_forward.h</text>
</a>
</g>
</g>
<!-- Node16&#45;&gt;Node29 -->
<g id="edge52" class="edge">
<title>Node16&#45;&gt;Node29</title>
<path fill="none" stroke="midnightblue" d="M1459.2,-158.55C1454.6,-157.56 1449.99,-156.69 1445.5,-156 1324.4,-137.47 454.98,-170.8 343.5,-120 320.32,-109.44 326.69,-90.51 304.5,-78 238.39,-40.74 209.48,-59.26 130.96,-41.92"/>
<polygon fill="midnightblue" stroke="midnightblue" points="131.67,-38.49 121.13,-39.62 130.07,-45.31 131.67,-38.49"/>
</g>
<!-- Node16&#45;&gt;Node30 -->
<g id="edge55" class="edge">
<title>Node16&#45;&gt;Node30</title>
<path fill="none" stroke="midnightblue" d="M1575.7,-174.39C1737.51,-169.52 2184.55,-153.19 2241.5,-120 2272.25,-102.08 2291.64,-63.43 2300.94,-40.38"/>
<polygon fill="midnightblue" stroke="midnightblue" points="2304.32,-41.34 2304.6,-30.75 2297.77,-38.85 2304.32,-41.34"/>
</g>
<!-- Node32 -->
<g id="node32" class="node">
<title>Node32</title>
<g id="a_node32"><a xlink:href="../../df/d34/autocomplete__match__type_8h.html" target="_top" xlink:title=" ">
<polygon fill="white" stroke="black" points="1874.5,-78.5 1874.5,-119.5 1990.5,-119.5 1990.5,-78.5 1874.5,-78.5"/>
<text text-anchor="start" x="1882.5" y="-107.5" font-family="Helvetica,sans-Serif" font-size="10.00">components/omnibox</text>
<text text-anchor="start" x="1882.5" y="-96.5" font-family="Helvetica,sans-Serif" font-size="10.00">/browser/autocomplete</text>
<text text-anchor="middle" x="1932.5" y="-85.5" font-family="Helvetica,sans-Serif" font-size="10.00">_match_type.h</text>
</a>
</g>
</g>
<!-- Node16&#45;&gt;Node32 -->
<g id="edge37" class="edge">
<title>Node16&#45;&gt;Node32</title>
<path fill="none" stroke="midnightblue" d="M1575.52,-169.02C1642.86,-160.39 1757.34,-144.11 1864.17,-120.17"/>
<polygon fill="midnightblue" stroke="midnightblue" points="1865.18,-123.53 1874.15,-117.91 1863.63,-116.71 1865.18,-123.53"/>
</g>
<!-- Node33 -->
<g id="node33" class="node">
<title>Node33</title>
<g id="a_node33"><a xlink:title=" ">
<polygon fill="white" stroke="#bfbfbf" points="1180.5,-84 1180.5,-114 1290.5,-114 1290.5,-84 1180.5,-84"/>
<text text-anchor="start" x="1188.5" y="-102" font-family="Helvetica,sans-Serif" font-size="10.00">components/omnibox</text>
<text text-anchor="middle" x="1235.5" y="-91" font-family="Helvetica,sans-Serif" font-size="10.00">/browser/buildflags.h</text>
</a>
</g>
</g>
<!-- Node16&#45;&gt;Node33 -->
<g id="edge39" class="edge">
<title>Node16&#45;&gt;Node33</title>
<path fill="none" stroke="midnightblue" d="M1459.38,-159.7C1454.69,-158.43 1450.02,-157.18 1445.5,-156 1380.85,-139.05 1363.87,-137.98 1299.5,-120 1295.99,-119.02 1292.37,-117.98 1288.74,-116.91"/>
<polygon fill="midnightblue" stroke="midnightblue" points="1289.7,-113.54 1279.12,-114.02 1287.69,-120.25 1289.7,-113.54"/>
</g>
<!-- Node34 -->
<g id="node34" class="node">
<title>Node34</title>
<g id="a_node34"><a xlink:href="../../dd/d32/suggestion__answer_8h.html" target="_top" xlink:title=" ">
<polygon fill="white" stroke="black" points="2122.5,-78.5 2122.5,-119.5 2232.5,-119.5 2232.5,-78.5 2122.5,-78.5"/>
<text text-anchor="start" x="2130.5" y="-107.5" font-family="Helvetica,sans-Serif" font-size="10.00">components/omnibox</text>
<text text-anchor="start" x="2130.5" y="-96.5" font-family="Helvetica,sans-Serif" font-size="10.00">/browser/suggestion</text>
<text text-anchor="middle" x="2177.5" y="-85.5" font-family="Helvetica,sans-Serif" font-size="10.00">_answer.h</text>
</a>
</g>
</g>
<!-- Node16&#45;&gt;Node34 -->
<g id="edge40" class="edge">
<title>Node16&#45;&gt;Node34</title>
<path fill="none" stroke="midnightblue" d="M1575.87,-170.2C1671.43,-160.59 1867.14,-140.39 2032.5,-120 2058.66,-116.77 2087.42,-112.88 2112.38,-109.39"/>
<polygon fill="midnightblue" stroke="midnightblue" points="2113.05,-112.83 2122.47,-107.97 2112.08,-105.9 2113.05,-112.83"/>
</g>
<!-- Node37 -->
<g id="node37" class="node">
<title>Node37</title>
<g id="a_node37"><a xlink:title=" ">
<polygon fill="white" stroke="#bfbfbf" points="1308.5,-84 1308.5,-114 1428.5,-114 1428.5,-84 1308.5,-84"/>
<text text-anchor="start" x="1316.5" y="-102" font-family="Helvetica,sans-Serif" font-size="10.00">components/query_tiles</text>
<text text-anchor="middle" x="1368.5" y="-91" font-family="Helvetica,sans-Serif" font-size="10.00">/tile.h</text>
</a>
</g>
</g>
<!-- Node16&#45;&gt;Node37 -->
<g id="edge49" class="edge">
<title>Node16&#45;&gt;Node37</title>
<path fill="none" stroke="midnightblue" d="M1479.13,-156.43C1456.49,-144.88 1427.99,-130.34 1405.58,-118.92"/>
<polygon fill="midnightblue" stroke="midnightblue" points="1406.89,-115.65 1396.39,-114.23 1403.71,-121.89 1406.89,-115.65"/>
</g>
<!-- Node38 -->
<g id="node38" class="node">
<title>Node38</title>
<g id="a_node38"><a xlink:title=" ">
<polygon fill="white" stroke="#bfbfbf" points="1447,-84 1447,-114 1588,-114 1588,-84 1447,-84"/>
<text text-anchor="start" x="1455" y="-102" font-family="Helvetica,sans-Serif" font-size="10.00">components/search_engines</text>
<text text-anchor="middle" x="1517.5" y="-91" font-family="Helvetica,sans-Serif" font-size="10.00">/template_url.h</text>
</a>
</g>
</g>
<!-- Node16&#45;&gt;Node38 -->
<g id="edge50" class="edge">
<title>Node16&#45;&gt;Node38</title>
<path fill="none" stroke="midnightblue" d="M1517.5,-156.43C1517.5,-146.64 1517.5,-134.69 1517.5,-124.31"/>
<polygon fill="midnightblue" stroke="midnightblue" points="1521,-124.23 1517.5,-114.23 1514,-124.23 1521,-124.23"/>
</g>
<!-- Node39 -->
<g id="node39" class="node">
<title>Node39</title>
<g id="a_node39"><a xlink:title=" ">
<polygon fill="white" stroke="#bfbfbf" points="1606.5,-84 1606.5,-114 1734.5,-114 1734.5,-84 1606.5,-84"/>
<text text-anchor="start" x="1614.5" y="-102" font-family="Helvetica,sans-Serif" font-size="10.00">components/url_formatter</text>
<text text-anchor="middle" x="1670.5" y="-91" font-family="Helvetica,sans-Serif" font-size="10.00">/url_formatter.h</text>
</a>
</g>
</g>
<!-- Node16&#45;&gt;Node39 -->
<g id="edge51" class="edge">
<title>Node16&#45;&gt;Node39</title>
<path fill="none" stroke="midnightblue" d="M1556.9,-156.43C1580.25,-144.83 1609.67,-130.21 1632.73,-118.76"/>
<polygon fill="midnightblue" stroke="midnightblue" points="1634.46,-121.81 1641.86,-114.23 1631.35,-115.54 1634.46,-121.81"/>
</g>
<!-- Node40 -->
<g id="node40" class="node">
<title>Node40</title>
<g id="a_node40"><a xlink:title=" ">
<polygon fill="white" stroke="#bfbfbf" points="2327,-84 2327,-114 2444,-114 2444,-84 2327,-84"/>
<text text-anchor="start" x="2335" y="-102" font-family="Helvetica,sans-Serif" font-size="10.00">ui/base/page_transition</text>
<text text-anchor="middle" x="2385.5" y="-91" font-family="Helvetica,sans-Serif" font-size="10.00">_types.h</text>
</a>
</g>
</g>
<!-- Node16&#45;&gt;Node40 -->
<g id="edge53" class="edge">
<title>Node16&#45;&gt;Node40</title>
<path fill="none" stroke="midnightblue" d="M1575.62,-173.4C1733.96,-166.06 2170.56,-144.2 2312.5,-120 2318.01,-119.06 2323.69,-117.88 2329.36,-116.57"/>
<polygon fill="midnightblue" stroke="midnightblue" points="2330.59,-119.87 2339.47,-114.09 2328.92,-113.07 2330.59,-119.87"/>
</g>
<!-- Node41 -->
<g id="node41" class="node">
<title>Node41</title>
<g id="a_node41"><a xlink:title=" ">
<polygon fill="white" stroke="#bfbfbf" points="1753,-89.5 1753,-108.5 1856,-108.5 1856,-89.5 1753,-89.5"/>
<text text-anchor="middle" x="1804.5" y="-96.5" font-family="Helvetica,sans-Serif" font-size="10.00">ui/gfx/range/range.h</text>
</a>
</g>
</g>
<!-- Node16&#45;&gt;Node41 -->
<g id="edge54" class="edge">
<title>Node16&#45;&gt;Node41</title>
<path fill="none" stroke="midnightblue" d="M1575.88,-162.79C1621.7,-152.11 1686.97,-136.25 1743.5,-120 1752.12,-117.52 1761.35,-114.62 1769.96,-111.82"/>
<polygon fill="midnightblue" stroke="midnightblue" points="1771.31,-115.06 1779.7,-108.59 1769.11,-108.41 1771.31,-115.06"/>
</g>
<!-- Node24&#45;&gt;Node5 -->
<g id="edge28" class="edge">
<title>Node24&#45;&gt;Node5</title>
<path fill="none" stroke="midnightblue" d="M468.52,-85.97C485.23,-82.9 503.53,-79.94 520.5,-78 637.73,-64.62 1497.13,-30.1 1670.91,-23.21"/>
<polygon fill="midnightblue" stroke="midnightblue" points="1671.06,-26.7 1680.91,-22.81 1670.78,-19.71 1671.06,-26.7"/>
</g>
<!-- Node24&#45;&gt;Node17 -->
<g id="edge27" class="edge">
<title>Node24&#45;&gt;Node17</title>
<path fill="none" stroke="midnightblue" d="M468.53,-81.32C473.24,-80.13 477.94,-79.01 482.5,-78 577.08,-57.01 606.05,-73.99 697.5,-42 702.31,-40.32 707.23,-38.02 711.83,-35.59"/>
<polygon fill="midnightblue" stroke="midnightblue" points="713.72,-38.53 720.67,-30.54 710.25,-32.46 713.72,-38.53"/>
</g>
<!-- Node24&#45;&gt;Node19 -->
<g id="edge29" class="edge">
<title>Node24&#45;&gt;Node19</title>
<path fill="none" stroke="midnightblue" d="M468.68,-90.4C504.11,-86.06 550.35,-80.92 591.5,-78 1097.15,-42.14 1225.27,-68.39 1731.5,-42 1819.42,-37.42 1922.95,-29.1 1974.28,-24.77"/>
<polygon fill="midnightblue" stroke="midnightblue" points="1974.75,-28.25 1984.42,-23.91 1974.16,-21.27 1974.75,-28.25"/>
</g>
<!-- Node25 -->
<g id="node25" class="node">
<title>Node25</title>
<g id="a_node25"><a xlink:title=" ">
<polygon fill="white" stroke="#bfbfbf" points="548,-6 548,-36 689,-36 689,-6 548,-6"/>
<text text-anchor="start" x="556" y="-24" font-family="Helvetica,sans-Serif" font-size="10.00">components/search_engines</text>
<text text-anchor="middle" x="618.5" y="-13" font-family="Helvetica,sans-Serif" font-size="10.00">/omnibox_focus_type.h</text>
</a>
</g>
</g>
<!-- Node24&#45;&gt;Node25 -->
<g id="edge30" class="edge">
<title>Node24&#45;&gt;Node25</title>
<path fill="none" stroke="midnightblue" d="M464.07,-78.43C496.9,-66.43 538.58,-51.2 570.37,-39.59"/>
<polygon fill="midnightblue" stroke="midnightblue" points="571.7,-42.83 579.89,-36.11 569.3,-36.25 571.7,-42.83"/>
</g>
<!-- Node26 -->
<g id="node26" class="node">
<title>Node26</title>
<g id="a_node26"><a xlink:title=" ">
<polygon fill="white" stroke="#bfbfbf" points="1072.5,-6 1072.5,-36 1200.5,-36 1200.5,-6 1072.5,-6"/>
<text text-anchor="start" x="1080.5" y="-24" font-family="Helvetica,sans-Serif" font-size="10.00">third_party/abseil</text>
<text text-anchor="middle" x="1136.5" y="-13" font-family="Helvetica,sans-Serif" font-size="10.00">&#45;cpp/absl/types/optional.h</text>
</a>
</g>
</g>
<!-- Node24&#45;&gt;Node26 -->
<g id="edge31" class="edge">
<title>Node24&#45;&gt;Node26</title>
<path fill="none" stroke="midnightblue" d="M468.57,-86.44C485.29,-83.39 503.57,-80.3 520.5,-78 715.2,-51.5 946.27,-34.28 1062.26,-26.6"/>
<polygon fill="midnightblue" stroke="midnightblue" points="1062.69,-30.08 1072.44,-25.93 1062.23,-23.1 1062.69,-30.08"/>
</g>
<!-- Node27 -->
<g id="node27" class="node">
<title>Node27</title>
<g id="a_node27"><a xlink:title=" ">
<polygon fill="white" stroke="#bfbfbf" points="139.5,-6 139.5,-36 273.5,-36 273.5,-6 139.5,-6"/>
<text text-anchor="start" x="147.5" y="-24" font-family="Helvetica,sans-Serif" font-size="10.00">third_party/metrics</text>
<text text-anchor="middle" x="206.5" y="-13" font-family="Helvetica,sans-Serif" font-size="10.00">_proto/omnibox_event.pb.h</text>
</a>
</g>
</g>
<!-- Node24&#45;&gt;Node27 -->
<g id="edge32" class="edge">
<title>Node24&#45;&gt;Node27</title>
<path fill="none" stroke="midnightblue" d="M357.96,-78.43C325.9,-66.48 285.23,-51.33 254.11,-39.74"/>
<polygon fill="midnightblue" stroke="midnightblue" points="254.96,-36.32 244.36,-36.11 252.51,-42.88 254.96,-36.32"/>
</g>
<!-- Node28 -->
<g id="node28" class="node">
<title>Node28</title>
<g id="a_node28"><a xlink:title=" ">
<polygon fill="white" stroke="#bfbfbf" points="291.5,-0.5 291.5,-41.5 401.5,-41.5 401.5,-0.5 291.5,-0.5"/>
<text text-anchor="start" x="299.5" y="-29.5" font-family="Helvetica,sans-Serif" font-size="10.00">third_party/metrics</text>
<text text-anchor="start" x="299.5" y="-18.5" font-family="Helvetica,sans-Serif" font-size="10.00">_proto/omnibox_input</text>
<text text-anchor="middle" x="346.5" y="-7.5" font-family="Helvetica,sans-Serif" font-size="10.00">_type.pb.h</text>
</a>
</g>
</g>
<!-- Node24&#45;&gt;Node28 -->
<g id="edge33" class="edge">
<title>Node24&#45;&gt;Node28</title>
<path fill="none" stroke="midnightblue" d="M394.02,-78.43C386.55,-69.56 377.6,-58.93 369.49,-49.3"/>
<polygon fill="midnightblue" stroke="midnightblue" points="372.04,-46.9 362.93,-41.51 366.69,-51.41 372.04,-46.9"/>
</g>
<!-- Node24&#45;&gt;Node29 -->
<g id="edge34" class="edge">
<title>Node24&#45;&gt;Node29</title>
<path fill="none" stroke="midnightblue" d="M352.47,-81.35C347.76,-80.16 343.06,-79.02 338.5,-78 250.01,-58.1 223.69,-62.58 130.9,-41.96"/>
<polygon fill="midnightblue" stroke="midnightblue" points="131.63,-38.54 121.1,-39.74 130.09,-45.36 131.63,-38.54"/>
</g>
<!-- Node24&#45;&gt;Node30 -->
<g id="edge35" class="edge">
<title>Node24&#45;&gt;Node30</title>
<path fill="none" stroke="midnightblue" d="M468.67,-90.25C504.1,-85.85 550.33,-80.71 591.5,-78 777.81,-65.73 2091.27,-90.77 2271.5,-42 2276.71,-40.59 2281.99,-38.27 2286.83,-35.7"/>
<polygon fill="midnightblue" stroke="midnightblue" points="2288.63,-38.7 2295.48,-30.62 2285.09,-32.66 2288.63,-38.7"/>
</g>
<!-- Node31 -->
<g id="node31" class="node">
<title>Node31</title>
<g id="a_node31"><a xlink:title=" ">
<polygon fill="white" stroke="#bfbfbf" points="419.5,-6 419.5,-36 529.5,-36 529.5,-6 419.5,-6"/>
<text text-anchor="start" x="427.5" y="-24" font-family="Helvetica,sans-Serif" font-size="10.00">url/third_party/mozilla</text>
<text text-anchor="middle" x="474.5" y="-13" font-family="Helvetica,sans-Serif" font-size="10.00">/url_parse.h</text>
</a>
</g>
</g>
<!-- Node24&#45;&gt;Node31 -->
<g id="edge36" class="edge">
<title>Node24&#45;&gt;Node31</title>
<path fill="none" stroke="midnightblue" d="M426.98,-78.43C435.84,-67.91 446.78,-54.92 455.93,-44.05"/>
<polygon fill="midnightblue" stroke="midnightblue" points="458.76,-46.13 462.52,-36.23 453.4,-41.62 458.76,-46.13"/>
</g>
<!-- Node32&#45;&gt;Node5 -->
<g id="edge38" class="edge">
<title>Node32&#45;&gt;Node5</title>
<path fill="none" stroke="midnightblue" d="M1874.21,-78.82C1828.96,-63.93 1768.03,-43.89 1731.95,-32.02"/>
<polygon fill="midnightblue" stroke="midnightblue" points="1732.62,-28.55 1722.03,-28.75 1730.43,-35.2 1732.62,-28.55"/>
</g>
<!-- Node34&#45;&gt;Node3 -->
<g id="edge41" class="edge">
<title>Node34&#45;&gt;Node3</title>
<path fill="none" stroke="midnightblue" d="M2232.72,-82.32C2265.51,-72.28 2307.57,-58.14 2343.5,-42 2347.59,-40.16 2351.83,-37.99 2355.89,-35.76"/>
<polygon fill="midnightblue" stroke="midnightblue" points="2357.93,-38.63 2364.86,-30.62 2354.44,-32.56 2357.93,-38.63"/>
</g>
<!-- Node34&#45;&gt;Node5 -->
<g id="edge42" class="edge">
<title>Node34&#45;&gt;Node5</title>
<path fill="none" stroke="midnightblue" d="M2122.31,-87.31C2105.68,-84.19 2087.36,-80.85 2070.5,-78 1945.49,-56.84 1795.99,-35.31 1732.48,-26.34"/>
<polygon fill="midnightblue" stroke="midnightblue" points="1732.74,-22.84 1722.35,-24.91 1731.76,-29.77 1732.74,-22.84"/>
</g>
<!-- Node34&#45;&gt;Node7 -->
<g id="edge44" class="edge">
<title>Node34&#45;&gt;Node7</title>
<path fill="none" stroke="midnightblue" d="M2232.64,-86.7C2304.02,-72.08 2427.46,-46.79 2497.01,-32.55"/>
<polygon fill="midnightblue" stroke="midnightblue" points="2497.77,-35.96 2506.87,-30.53 2496.37,-29.11 2497.77,-35.96"/>
</g>
<!-- Node34&#45;&gt;Node19 -->
<g id="edge43" class="edge">
<title>Node34&#45;&gt;Node19</title>
<path fill="none" stroke="midnightblue" d="M2122.23,-78.7C2096.02,-68.85 2064.6,-55.99 2037.5,-42 2034.05,-40.22 2030.5,-38.16 2027.09,-36.06"/>
<polygon fill="midnightblue" stroke="midnightblue" points="2028.84,-33.03 2018.54,-30.54 2025.05,-38.91 2028.84,-33.03"/>
</g>
<!-- Node34&#45;&gt;Node26 -->
<g id="edge47" class="edge">
<title>Node34&#45;&gt;Node26</title>
<path fill="none" stroke="midnightblue" d="M2122.24,-91.11C2087.13,-86.9 2040.7,-81.65 1999.5,-78 1708.31,-52.21 1360.86,-33.26 1211.16,-25.66"/>
<polygon fill="midnightblue" stroke="midnightblue" points="1210.89,-22.14 1200.72,-25.13 1210.53,-29.13 1210.89,-22.14"/>
</g>
<!-- Node34&#45;&gt;Node30 -->
<g id="edge48" class="edge">
<title>Node34&#45;&gt;Node30</title>
<path fill="none" stroke="midnightblue" d="M2210.98,-78.43C2233.94,-65 2263.83,-47.53 2284.23,-35.61"/>
<polygon fill="midnightblue" stroke="midnightblue" points="2286,-38.62 2292.87,-30.55 2282.47,-32.58 2286,-38.62"/>
</g>
<!-- Node35 -->
<g id="node35" class="node">
<title>Node35</title>
<g id="a_node35"><a xlink:title=" ">
<polygon fill="white" stroke="#bfbfbf" points="2181,-11.5 2181,-30.5 2262,-30.5 2262,-11.5 2181,-11.5"/>
<text text-anchor="middle" x="2221.5" y="-18.5" font-family="Helvetica,sans-Serif" font-size="10.00">base/macros.h</text>
</a>
</g>
</g>
<!-- Node34&#45;&gt;Node35 -->
<g id="edge45" class="edge">
<title>Node34&#45;&gt;Node35</title>
<path fill="none" stroke="midnightblue" d="M2188.83,-78.43C2195.83,-66.33 2204.74,-50.95 2211.48,-39.3"/>
<polygon fill="midnightblue" stroke="midnightblue" points="2214.57,-40.96 2216.55,-30.55 2208.51,-37.45 2214.57,-40.96"/>
</g>
<!-- Node36 -->
<g id="node36" class="node">
<title>Node36</title>
<g id="a_node36"><a xlink:title=" ">
<polygon fill="white" stroke="#bfbfbf" points="2046.5,-11.5 2046.5,-30.5 2162.5,-30.5 2162.5,-11.5 2046.5,-11.5"/>
<text text-anchor="middle" x="2104.5" y="-18.5" font-family="Helvetica,sans-Serif" font-size="10.00">base/memory/ptr_util.h</text>
</a>
</g>
</g>
<!-- Node34&#45;&gt;Node36 -->
<g id="edge46" class="edge">
<title>Node34&#45;&gt;Node36</title>
<path fill="none" stroke="midnightblue" d="M2158.7,-78.43C2146.62,-65.85 2131.12,-49.72 2119.8,-37.92"/>
<polygon fill="midnightblue" stroke="midnightblue" points="2122.17,-35.34 2112.71,-30.55 2117.12,-40.19 2122.17,-35.34"/>
</g>
<!-- Node42&#45;&gt;Node2 -->
<g id="edge57" class="edge">
<title>Node42&#45;&gt;Node2</title>
<path fill="none" stroke="midnightblue" d="M2091.87,-251.2C1919.33,-244.37 1507.17,-225.39 1450.5,-198 1427.56,-186.92 1434.68,-166.56 1411.5,-156 1186.7,-53.61 529.43,-212.79 300.5,-120 297.72,-118.87 295.07,-117.23 292.63,-115.35"/>
<polygon fill="midnightblue" stroke="midnightblue" points="295,-112.78 285.28,-108.55 290.24,-117.91 295,-112.78"/>
</g>
<!-- Node42&#45;&gt;Node5 -->
<g id="edge58" class="edge">
<title>Node42&#45;&gt;Node5</title>
<path fill="none" stroke="midnightblue" d="M2091.68,-242.93C2063.67,-235 2034.22,-221.38 2015.5,-198 1981.87,-156 2036.52,-117.04 1999.5,-78 1963.23,-39.75 1801.31,-27.07 1732.55,-23.37"/>
<polygon fill="midnightblue" stroke="midnightblue" points="1732.51,-19.86 1722.34,-22.85 1732.15,-26.85 1732.51,-19.86"/>
</g>
<!-- Node42&#45;&gt;Node6 -->
<g id="edge60" class="edge">
<title>Node42&#45;&gt;Node6</title>
<path fill="none" stroke="midnightblue" d="M2091.83,-250.39C1928.09,-242.24 1545.39,-221.31 1417.5,-198 1406.4,-195.98 1394.53,-192.84 1383.86,-189.64"/>
<polygon fill="midnightblue" stroke="midnightblue" points="1384.65,-186.22 1374.07,-186.59 1382.57,-192.91 1384.65,-186.22"/>
</g>
<!-- Node42&#45;&gt;Node7 -->
<g id="edge61" class="edge">
<title>Node42&#45;&gt;Node7</title>
<path fill="none" stroke="midnightblue" d="M2228.4,-240C2260.31,-230.99 2299.17,-217.31 2330.5,-198 2353.24,-183.98 2350.91,-170.25 2373.5,-156 2412.74,-131.24 2433.96,-147.28 2471.5,-120 2501.71,-98.05 2526.18,-61.16 2538.92,-39.45"/>
<polygon fill="midnightblue" stroke="midnightblue" points="2542.02,-41.07 2543.93,-30.65 2535.94,-37.61 2542.02,-41.07"/>
</g>
<!-- Node42&#45;&gt;Node8 -->
<g id="edge62" class="edge">
<title>Node42&#45;&gt;Node8</title>
<path fill="none" stroke="midnightblue" d="M2219.92,-239.97C2274.65,-225.33 2359.39,-202.65 2409.76,-189.17"/>
<polygon fill="midnightblue" stroke="midnightblue" points="2410.9,-192.49 2419.66,-186.52 2409.09,-185.72 2410.9,-192.49"/>
</g>
<!-- Node42&#45;&gt;Node16 -->
<g id="edge63" class="edge">
<title>Node42&#45;&gt;Node16</title>
<path fill="none" stroke="midnightblue" d="M2091.98,-245.17C1964.43,-230.26 1708.27,-200.3 1585.78,-185.98"/>
<polygon fill="midnightblue" stroke="midnightblue" points="1586.11,-182.5 1575.77,-184.81 1585.29,-189.45 1586.11,-182.5"/>
</g>
<!-- Node42&#45;&gt;Node19 -->
<g id="edge59" class="edge">
<title>Node42&#45;&gt;Node19</title>
<path fill="none" stroke="midnightblue" d="M2187.44,-239.85C2199.81,-229.77 2214.63,-215.03 2221.5,-198 2228.49,-180.69 2232.41,-171.14 2221.5,-156 2191.92,-114.95 2156.7,-146.35 2113.5,-120 2090.69,-106.09 2090.12,-96.14 2070.5,-78 2055.2,-63.86 2037.33,-48.29 2024.36,-37.17"/>
<polygon fill="midnightblue" stroke="midnightblue" points="2026.5,-34.4 2016.63,-30.56 2021.96,-39.72 2026.5,-34.4"/>
</g>
<!-- Node42&#45;&gt;Node30 -->
<g id="edge68" class="edge">
<title>Node42&#45;&gt;Node30</title>
<path fill="none" stroke="midnightblue" d="M2206.76,-239.91C2232.19,-229.95 2265.47,-215.32 2292.5,-198 2316.37,-182.7 2315.81,-169.93 2340.5,-156 2386.41,-130.1 2422.4,-162.55 2453.5,-120 2464.52,-104.93 2464.46,-93.11 2453.5,-78 2423.31,-36.35 2390.64,-62.58 2343.5,-42 2339.18,-40.11 2334.7,-37.87 2330.43,-35.59"/>
<polygon fill="midnightblue" stroke="midnightblue" points="2331.98,-32.45 2321.55,-30.62 2328.57,-38.56 2331.98,-32.45"/>
</g>
<!-- Node42&#45;&gt;Node32 -->
<g id="edge64" class="edge">
<title>Node42&#45;&gt;Node32</title>
<path fill="none" stroke="midnightblue" d="M2091.58,-245.06C2055.26,-237.52 2013.13,-223.62 1982.5,-198 1961.38,-180.33 1948.19,-151.49 1940.7,-129.65"/>
<polygon fill="midnightblue" stroke="midnightblue" points="1943.95,-128.33 1937.56,-119.88 1937.28,-130.47 1943.95,-128.33"/>
</g>
<!-- Node42&#45;&gt;Node40 -->
<g id="edge67" class="edge">
<title>Node42&#45;&gt;Node40</title>
<path fill="none" stroke="midnightblue" d="M2191.39,-239.93C2209.24,-229.11 2233.98,-213.45 2254.5,-198 2277.15,-180.95 2280.04,-173.29 2302.5,-156 2319.23,-143.11 2338.78,-129.85 2354.7,-119.46"/>
<polygon fill="midnightblue" stroke="midnightblue" points="2356.63,-122.38 2363.13,-114.01 2352.83,-116.5 2356.63,-122.38"/>
</g>
<!-- Node43 -->
<g id="node43" class="node">
<title>Node43</title>
<g id="a_node43"><a xlink:title=" ">
<polygon fill="white" stroke="#bfbfbf" points="2024.5,-167.5 2024.5,-186.5 2104.5,-186.5 2104.5,-167.5 2024.5,-167.5"/>
<text text-anchor="middle" x="2064.5" y="-174.5" font-family="Helvetica,sans-Serif" font-size="10.00">sql/database.h</text>
</a>
</g>
</g>
<!-- Node42&#45;&gt;Node43 -->
<g id="edge65" class="edge">
<title>Node42&#45;&gt;Node43</title>
<path fill="none" stroke="midnightblue" d="M2148.13,-239.7C2129.9,-226.25 2102.73,-206.21 2084.35,-192.64"/>
<polygon fill="midnightblue" stroke="midnightblue" points="2086.23,-189.68 2076.11,-186.56 2082.07,-195.32 2086.23,-189.68"/>
</g>
<!-- Node44 -->
<g id="node44" class="node">
<title>Node44</title>
<g id="a_node44"><a xlink:title=" ">
<polygon fill="white" stroke="#bfbfbf" points="2123,-167.5 2123,-186.5 2212,-186.5 2212,-167.5 2123,-167.5"/>
<text text-anchor="middle" x="2167.5" y="-174.5" font-family="Helvetica,sans-Serif" font-size="10.00">sql/meta_table.h</text>
</a>
</g>
</g>
<!-- Node42&#45;&gt;Node44 -->
<g id="edge66" class="edge">
<title>Node42&#45;&gt;Node44</title>
<path fill="none" stroke="midnightblue" d="M2167.5,-239.7C2167.5,-227.6 2167.5,-210.15 2167.5,-196.89"/>
<polygon fill="midnightblue" stroke="midnightblue" points="2171,-196.56 2167.5,-186.56 2164,-196.56 2171,-196.56"/>
</g>
</g>
</svg>
