<?xml version="1.0" encoding="UTF-8" standalone="no"?>
<!DOCTYPE svg PUBLIC "-//W3C//DTD SVG 1.1//EN"
 "http://www.w3.org/Graphics/SVG/1.1/DTD/svg11.dtd">
<!-- Generated by graphviz version 2.43.0 (0)
 -->
<!-- Title: components/omnibox/browser/url_prefix.h Pages: 1 -->
<svg width="1130pt" height="117pt"
 viewBox="0.00 0.00 1129.50 117.00" xmlns="http://www.w3.org/2000/svg" xmlns:xlink="http://www.w3.org/1999/xlink">
<g id="graph0" class="graph" transform="scale(1 1) rotate(0) translate(4 113)">
<title>components/omnibox/browser/url_prefix.h</title>
<polygon fill="white" stroke="transparent" points="-4,4 -4,-113 1125.5,-113 1125.5,4 -4,4"/>
<!-- Node1 -->
<g id="node1" class="node">
<title>Node1</title>
<g id="a_node1"><a xlink:title=" ">
<polygon fill="#bfbfbf" stroke="black" points="493.5,-78.5 493.5,-108.5 603.5,-108.5 603.5,-78.5 493.5,-78.5"/>
<text text-anchor="start" x="501.5" y="-96.5" font-family="Helvetica,sans-Serif" font-size="10.00">components/omnibox</text>
<text text-anchor="middle" x="548.5" y="-85.5" font-family="Helvetica,sans-Serif" font-size="10.00">/browser/url_prefix.h</text>
</a>
</g>
</g>
<!-- Node2 -->
<g id="node2" class="node">
<title>Node2</title>
<g id="a_node2"><a xlink:href="../../dc/d09/history__quick__provider_8cc.html" target="_top" xlink:title=" ">
<polygon fill="white" stroke="black" points="0,-0.5 0,-41.5 115,-41.5 115,-0.5 0,-0.5"/>
<text text-anchor="start" x="8" y="-29.5" font-family="Helvetica,sans-Serif" font-size="10.00">components/omnibox</text>
<text text-anchor="start" x="8" y="-18.5" font-family="Helvetica,sans-Serif" font-size="10.00">/browser/history_quick</text>
<text text-anchor="middle" x="57.5" y="-7.5" font-family="Helvetica,sans-Serif" font-size="10.00">_provider.cc</text>
</a>
</g>
</g>
<!-- Node1&#45;&gt;Node2 -->
<g id="edge1" class="edge">
<title>Node1&#45;&gt;Node2</title>
<path fill="none" stroke="midnightblue" d="M483.34,-88.23C399.62,-81.94 250.1,-68.03 124.5,-42 121.41,-41.36 118.26,-40.64 115.08,-39.87"/>
<polygon fill="midnightblue" stroke="midnightblue" points="483.24,-91.73 493.47,-88.97 483.75,-84.75 483.24,-91.73"/>
</g>
<!-- Node3 -->
<g id="node3" class="node">
<title>Node3</title>
<g id="a_node3"><a xlink:href="../../d0/df9/history__url__provider_8cc.html" target="_top" xlink:title=" ">
<polygon fill="white" stroke="black" points="133.5,-0.5 133.5,-41.5 243.5,-41.5 243.5,-0.5 133.5,-0.5"/>
<text text-anchor="start" x="141.5" y="-29.5" font-family="Helvetica,sans-Serif" font-size="10.00">components/omnibox</text>
<text text-anchor="start" x="141.5" y="-18.5" font-family="Helvetica,sans-Serif" font-size="10.00">/browser/history_url</text>
<text text-anchor="middle" x="188.5" y="-7.5" font-family="Helvetica,sans-Serif" font-size="10.00">_provider.cc</text>
</a>
</g>
</g>
<!-- Node1&#45;&gt;Node3 -->
<g id="edge2" class="edge">
<title>Node1&#45;&gt;Node3</title>
<path fill="none" stroke="midnightblue" d="M483.36,-83.95C423.04,-75.42 331.08,-60.89 252.5,-42 249.56,-41.29 246.55,-40.52 243.53,-39.71"/>
<polygon fill="midnightblue" stroke="midnightblue" points="483.11,-87.45 493.5,-85.36 484.08,-80.51 483.11,-87.45"/>
</g>
<!-- Node4 -->
<g id="node4" class="node">
<title>Node4</title>
<g id="a_node4"><a xlink:href="../../d2/d90/scored__history__match_8cc.html" target="_top" xlink:title=" ">
<polygon fill="white" stroke="black" points="262,-0.5 262,-41.5 383,-41.5 383,-0.5 262,-0.5"/>
<text text-anchor="start" x="270" y="-29.5" font-family="Helvetica,sans-Serif" font-size="10.00">components/omnibox</text>
<text text-anchor="start" x="270" y="-18.5" font-family="Helvetica,sans-Serif" font-size="10.00">/browser/scored_history</text>
<text text-anchor="middle" x="322.5" y="-7.5" font-family="Helvetica,sans-Serif" font-size="10.00">_match.cc</text>
</a>
</g>
</g>
<!-- Node1&#45;&gt;Node4 -->
<g id="edge3" class="edge">
<title>Node1&#45;&gt;Node4</title>
<path fill="none" stroke="midnightblue" d="M493.97,-75.49C460.54,-65.06 417.68,-51.69 383.17,-40.93"/>
<polygon fill="midnightblue" stroke="midnightblue" points="492.99,-78.85 503.58,-78.49 495.08,-72.17 492.99,-78.85"/>
</g>
<!-- Node5 -->
<g id="node5" class="node">
<title>Node5</title>
<g id="a_node5"><a xlink:href="../../da/d9f/search__provider_8cc.html" target="_top" xlink:title=" ">
<polygon fill="white" stroke="black" points="401,-6 401,-36 540,-36 540,-6 401,-6"/>
<text text-anchor="start" x="409" y="-24" font-family="Helvetica,sans-Serif" font-size="10.00">components/omnibox</text>
<text text-anchor="middle" x="470.5" y="-13" font-family="Helvetica,sans-Serif" font-size="10.00">/browser/search_provider.cc</text>
</a>
</g>
</g>
<!-- Node1&#45;&gt;Node5 -->
<g id="edge4" class="edge">
<title>Node1&#45;&gt;Node5</title>
<path fill="none" stroke="midnightblue" d="M525.23,-71.46C512.55,-60 497.2,-46.14 485.99,-36"/>
<polygon fill="midnightblue" stroke="midnightblue" points="522.95,-74.12 532.72,-78.23 527.64,-68.93 522.95,-74.12"/>
</g>
<!-- Node6 -->
<g id="node6" class="node">
<title>Node6</title>
<g id="a_node6"><a xlink:href="../../da/dac/search__suggestion__parser_8cc.html" target="_top" xlink:title=" ">
<polygon fill="white" stroke="black" points="558,-0.5 558,-41.5 697,-41.5 697,-0.5 558,-0.5"/>
<text text-anchor="start" x="566" y="-29.5" font-family="Helvetica,sans-Serif" font-size="10.00">components/omnibox</text>
<text text-anchor="start" x="566" y="-18.5" font-family="Helvetica,sans-Serif" font-size="10.00">/browser/search_suggestion</text>
<text text-anchor="middle" x="627.5" y="-7.5" font-family="Helvetica,sans-Serif" font-size="10.00">_parser.cc</text>
</a>
</g>
</g>
<!-- Node1&#45;&gt;Node6 -->
<g id="edge5" class="edge">
<title>Node1&#45;&gt;Node6</title>
<path fill="none" stroke="midnightblue" d="M572.17,-71.38C582.76,-61.93 595.17,-50.85 605.55,-41.59"/>
<polygon fill="midnightblue" stroke="midnightblue" points="569.62,-68.96 564.49,-78.23 574.28,-74.19 569.62,-68.96"/>
</g>
<!-- Node7 -->
<g id="node7" class="node">
<title>Node7</title>
<g id="a_node7"><a xlink:href="../../db/d1c/shortcuts__provider_8cc.html" target="_top" xlink:title=" ">
<polygon fill="white" stroke="black" points="715.5,-6 715.5,-36 865.5,-36 865.5,-6 715.5,-6"/>
<text text-anchor="start" x="723.5" y="-24" font-family="Helvetica,sans-Serif" font-size="10.00">components/omnibox</text>
<text text-anchor="middle" x="790.5" y="-13" font-family="Helvetica,sans-Serif" font-size="10.00">/browser/shortcuts_provider.cc</text>
</a>
</g>
</g>
<!-- Node1&#45;&gt;Node7 -->
<g id="edge6" class="edge">
<title>Node1&#45;&gt;Node7</title>
<path fill="none" stroke="midnightblue" d="M606.29,-75.66C647.73,-63.59 702.94,-47.51 742.08,-36.11"/>
<polygon fill="midnightblue" stroke="midnightblue" points="605.22,-72.33 596.6,-78.49 607.18,-79.05 605.22,-72.33"/>
</g>
<!-- Node8 -->
<g id="node8" class="node">
<title>Node8</title>
<g id="a_node8"><a xlink:href="../../d3/d80/titled__url__match__utils_8cc.html" target="_top" xlink:title=" ">
<polygon fill="white" stroke="black" points="883.5,-0.5 883.5,-41.5 993.5,-41.5 993.5,-0.5 883.5,-0.5"/>
<text text-anchor="start" x="891.5" y="-29.5" font-family="Helvetica,sans-Serif" font-size="10.00">components/omnibox</text>
<text text-anchor="start" x="891.5" y="-18.5" font-family="Helvetica,sans-Serif" font-size="10.00">/browser/titled_url</text>
<text text-anchor="middle" x="938.5" y="-7.5" font-family="Helvetica,sans-Serif" font-size="10.00">_match_utils.cc</text>
</a>
</g>
</g>
<!-- Node1&#45;&gt;Node8 -->
<g id="edge7" class="edge">
<title>Node1&#45;&gt;Node8</title>
<path fill="none" stroke="midnightblue" d="M614.06,-85.26C680.29,-77.27 785.27,-62.73 874.5,-42 877.45,-41.32 880.46,-40.56 883.49,-39.76"/>
<polygon fill="midnightblue" stroke="midnightblue" points="613.29,-81.83 603.78,-86.49 614.12,-88.78 613.29,-81.83"/>
</g>
<!-- Node9 -->
<g id="node9" class="node">
<title>Node9</title>
<g id="a_node9"><a xlink:href="../../df/d39/url__prefix_8cc.html" target="_top" xlink:title=" ">
<polygon fill="white" stroke="black" points="1011.5,-6 1011.5,-36 1121.5,-36 1121.5,-6 1011.5,-6"/>
<text text-anchor="start" x="1019.5" y="-24" font-family="Helvetica,sans-Serif" font-size="10.00">components/omnibox</text>
<text text-anchor="middle" x="1066.5" y="-13" font-family="Helvetica,sans-Serif" font-size="10.00">/browser/url_prefix.cc</text>
</a>
</g>
</g>
<!-- Node1&#45;&gt;Node9 -->
<g id="edge8" class="edge">
<title>Node1&#45;&gt;Node9</title>
<path fill="none" stroke="midnightblue" d="M613.73,-89.19C702.48,-83.79 865.87,-70.67 1002.5,-42 1010.02,-40.42 1017.92,-38.33 1025.49,-36.09"/>
<polygon fill="midnightblue" stroke="midnightblue" points="613.32,-85.71 603.55,-89.79 613.74,-92.69 613.32,-85.71"/>
</g>
</g>
</svg>
