<?xml version="1.0" encoding="UTF-8" standalone="no"?>
<!DOCTYPE svg PUBLIC "-//W3C//DTD SVG 1.1//EN"
 "http://www.w3.org/Graphics/SVG/1.1/DTD/svg11.dtd">
<!-- Generated by graphviz version 2.43.0 (0)
 -->
<!-- Title: omnibox::SetSuggestionGroupVisibility Pages: 1 -->
<svg width="1318pt" height="186pt"
 viewBox="0.00 0.00 1318.00 186.00" xmlns="http://www.w3.org/2000/svg" xmlns:xlink="http://www.w3.org/1999/xlink">
<g id="graph0" class="graph" transform="scale(1 1) rotate(0) translate(4 182)">
<title>omnibox::SetSuggestionGroupVisibility</title>
<polygon fill="white" stroke="transparent" points="-4,4 -4,-182 1314,-182 1314,4 -4,4"/>
<!-- Node1 -->
<g id="node1" class="node">
<title>Node1</title>
<g id="a_node1"><a xlink:title=" ">
<polygon fill="#bfbfbf" stroke="black" points="1161,-73.5 1161,-103.5 1310,-103.5 1310,-73.5 1161,-73.5"/>
<text text-anchor="start" x="1169" y="-91.5" font-family="Helvetica,sans-Serif" font-size="10.00">omnibox::SetSuggestionGroup</text>
<text text-anchor="middle" x="1235.5" y="-80.5" font-family="Helvetica,sans-Serif" font-size="10.00">Visibility</text>
</a>
</g>
</g>
<!-- Node2 -->
<g id="node2" class="node">
<title>Node2</title>
<g id="a_node2"><a xlink:href="../../d0/d22/classOmniboxEditModel.html#aeef542747913fd1ebe0edc5a9714095c" target="_top" xlink:title=" ">
<polygon fill="white" stroke="black" points="990,-73.5 990,-103.5 1125,-103.5 1125,-73.5 990,-73.5"/>
<text text-anchor="start" x="998" y="-91.5" font-family="Helvetica,sans-Serif" font-size="10.00">OmniboxEditModel::Trigger</text>
<text text-anchor="middle" x="1057.5" y="-80.5" font-family="Helvetica,sans-Serif" font-size="10.00">PopupSelectionAction</text>
</a>
</g>
</g>
<!-- Node1&#45;&gt;Node2 -->
<g id="edge1" class="edge">
<title>Node1&#45;&gt;Node2</title>
<path fill="none" stroke="midnightblue" d="M1150.8,-88.5C1142.18,-88.5 1133.5,-88.5 1125.09,-88.5"/>
<polygon fill="midnightblue" stroke="midnightblue" points="1150.88,-92 1160.88,-88.5 1150.88,-85 1150.88,-92"/>
</g>
<!-- Node3 -->
<g id="node3" class="node">
<title>Node3</title>
<g id="a_node3"><a xlink:href="../../d3/d4c/classOmniboxResultView.html#adea3835a2f2809073b71b101cfecc957" target="_top" xlink:title=" ">
<polygon fill="white" stroke="black" points="603.5,-147.5 603.5,-177.5 715.5,-177.5 715.5,-147.5 603.5,-147.5"/>
<text text-anchor="start" x="611.5" y="-165.5" font-family="Helvetica,sans-Serif" font-size="10.00">OmniboxResultView::</text>
<text text-anchor="middle" x="659.5" y="-154.5" font-family="Helvetica,sans-Serif" font-size="10.00">ButtonPressed</text>
</a>
</g>
</g>
<!-- Node2&#45;&gt;Node3 -->
<g id="edge2" class="edge">
<title>Node2&#45;&gt;Node3</title>
<path fill="none" stroke="midnightblue" d="M1023.47,-108.53C1003.97,-119.34 978.4,-131.81 954,-138.5 873.14,-160.68 775.43,-164.29 715.64,-164.02"/>
<polygon fill="midnightblue" stroke="midnightblue" points="1025.28,-111.53 1032.25,-103.55 1021.83,-105.44 1025.28,-111.53"/>
</g>
<!-- Node7 -->
<g id="node7" class="node">
<title>Node7</title>
<g id="a_node7"><a xlink:href="../../d3/d0a/classOmniboxSuggestionButtonRowView.html#a7914dd2f389c98c28906ce05bacf84e5" target="_top" xlink:title=" ">
<polygon fill="white" stroke="black" points="799,-98.5 799,-128.5 952,-128.5 952,-98.5 799,-98.5"/>
<text text-anchor="start" x="807" y="-116.5" font-family="Helvetica,sans-Serif" font-size="10.00">OmniboxSuggestionButtonRow</text>
<text text-anchor="middle" x="875.5" y="-105.5" font-family="Helvetica,sans-Serif" font-size="10.00">View::ButtonPressed</text>
</a>
</g>
</g>
<!-- Node2&#45;&gt;Node7 -->
<g id="edge6" class="edge">
<title>Node2&#45;&gt;Node7</title>
<path fill="none" stroke="midnightblue" d="M980.06,-99.12C970.82,-100.4 961.38,-101.71 952.15,-102.99"/>
<polygon fill="midnightblue" stroke="midnightblue" points="980.56,-102.58 989.99,-97.74 979.6,-95.65 980.56,-102.58"/>
</g>
<!-- Node9 -->
<g id="node9" class="node">
<title>Node9</title>
<g id="a_node9"><a xlink:href="../../d2/dcb/classOmniboxRowView_1_1HeaderView.html#a441ded0bc83346ff1773063183d470f2" target="_top" xlink:title=" ">
<polygon fill="white" stroke="black" points="797,-49.5 797,-79.5 954,-79.5 954,-49.5 797,-49.5"/>
<text text-anchor="start" x="805" y="-67.5" font-family="Helvetica,sans-Serif" font-size="10.00">OmniboxRowView::HeaderView</text>
<text text-anchor="middle" x="875.5" y="-56.5" font-family="Helvetica,sans-Serif" font-size="10.00">::HeaderToggleButtonPressed</text>
</a>
</g>
</g>
<!-- Node2&#45;&gt;Node9 -->
<g id="edge9" class="edge">
<title>Node2&#45;&gt;Node9</title>
<path fill="none" stroke="midnightblue" d="M980.07,-78.31C971.54,-77.17 962.85,-76.01 954.3,-74.87"/>
<polygon fill="midnightblue" stroke="midnightblue" points="979.61,-81.78 989.99,-79.63 980.54,-74.84 979.61,-81.78"/>
</g>
<!-- Node12 -->
<g id="node12" class="node">
<title>Node12</title>
<g id="a_node12"><a xlink:href="../../d2/dcb/classOmniboxRowView_1_1HeaderView.html#af9e1207af3e2688cdccfd7b8c1267a3c" target="_top" xlink:title=" ">
<polygon fill="white" stroke="black" points="797,-0.5 797,-30.5 954,-30.5 954,-0.5 797,-0.5"/>
<text text-anchor="start" x="805" y="-18.5" font-family="Helvetica,sans-Serif" font-size="10.00">OmniboxRowView::HeaderView</text>
<text text-anchor="middle" x="875.5" y="-7.5" font-family="Helvetica,sans-Serif" font-size="10.00">::OnMouseReleased</text>
</a>
</g>
</g>
<!-- Node2&#45;&gt;Node12 -->
<g id="edge13" class="edge">
<title>Node2&#45;&gt;Node12</title>
<path fill="none" stroke="midnightblue" d="M1018.85,-68.88C999.72,-59.33 975.94,-48.09 954,-39.5 946,-36.37 937.41,-33.37 928.97,-30.61"/>
<polygon fill="midnightblue" stroke="midnightblue" points="1017.33,-72.03 1027.84,-73.41 1020.49,-65.78 1017.33,-72.03"/>
</g>
<!-- Node4 -->
<g id="node4" class="node">
<title>Node4</title>
<g id="a_node4"><a xlink:href="../../d3/d4c/classOmniboxResultView.html#a6768271ee0b1e6baa07eb56bbb74882d" target="_top" xlink:title=" ">
<polygon fill="white" stroke="black" points="386,-98.5 386,-128.5 498,-128.5 498,-98.5 386,-98.5"/>
<text text-anchor="start" x="394" y="-116.5" font-family="Helvetica,sans-Serif" font-size="10.00">OmniboxResultView::</text>
<text text-anchor="middle" x="442" y="-105.5" font-family="Helvetica,sans-Serif" font-size="10.00">OmniboxResultView</text>
</a>
</g>
</g>
<!-- Node3&#45;&gt;Node4 -->
<g id="edge3" class="edge">
<title>Node3&#45;&gt;Node4</title>
<path fill="none" stroke="midnightblue" d="M593.2,-147.65C562.82,-140.74 527.07,-132.62 498.07,-126.02"/>
<polygon fill="midnightblue" stroke="midnightblue" points="592.76,-151.14 603.28,-149.94 594.31,-144.31 592.76,-151.14"/>
</g>
<!-- Node5 -->
<g id="node5" class="node">
<title>Node5</title>
<g id="a_node5"><a xlink:href="../../d7/d88/classOmniboxPopupContentsView.html#aa8f47263f229af6a469c3bf964b81162" target="_top" xlink:title=" ">
<polygon fill="white" stroke="black" points="181,-74.5 181,-104.5 326,-104.5 326,-74.5 181,-74.5"/>
<text text-anchor="start" x="189" y="-92.5" font-family="Helvetica,sans-Serif" font-size="10.00">OmniboxPopupContentsView</text>
<text text-anchor="middle" x="253.5" y="-81.5" font-family="Helvetica,sans-Serif" font-size="10.00">::UpdatePopupAppearance</text>
</a>
</g>
</g>
<!-- Node4&#45;&gt;Node5 -->
<g id="edge4" class="edge">
<title>Node4&#45;&gt;Node5</title>
<path fill="none" stroke="midnightblue" d="M375.51,-105.07C359.55,-103.02 342.41,-100.81 326.18,-98.72"/>
<polygon fill="midnightblue" stroke="midnightblue" points="375.44,-108.59 385.8,-106.4 376.33,-101.65 375.44,-108.59"/>
</g>
<!-- Node6 -->
<g id="node6" class="node">
<title>Node6</title>
<g id="a_node6"><a xlink:href="../../d7/d88/classOmniboxPopupContentsView.html#a0e658101bc19acb66f6e0915fd6c2fe3" target="_top" xlink:title=" ">
<polygon fill="white" stroke="black" points="0,-74.5 0,-104.5 145,-104.5 145,-74.5 0,-74.5"/>
<text text-anchor="start" x="8" y="-92.5" font-family="Helvetica,sans-Serif" font-size="10.00">OmniboxPopupContentsView</text>
<text text-anchor="middle" x="72.5" y="-81.5" font-family="Helvetica,sans-Serif" font-size="10.00">::OnWidgetBoundsChanged</text>
</a>
</g>
</g>
<!-- Node5&#45;&gt;Node6 -->
<g id="edge5" class="edge">
<title>Node5&#45;&gt;Node6</title>
<path fill="none" stroke="midnightblue" d="M170.96,-89.5C162.36,-89.5 153.67,-89.5 145.2,-89.5"/>
<polygon fill="midnightblue" stroke="midnightblue" points="170.98,-93 180.98,-89.5 170.98,-86 170.98,-93"/>
</g>
<!-- Node8 -->
<g id="node8" class="node">
<title>Node8</title>
<g id="a_node8"><a xlink:href="../../d3/d0a/classOmniboxSuggestionButtonRowView.html#a75ca5fb3af853ffc8c5ed29380d2e72a" target="_top" xlink:title=" ">
<polygon fill="white" stroke="black" points="558,-98.5 558,-128.5 761,-128.5 761,-98.5 558,-98.5"/>
<text text-anchor="start" x="566" y="-116.5" font-family="Helvetica,sans-Serif" font-size="10.00">OmniboxSuggestionButtonRow</text>
<text text-anchor="middle" x="659.5" y="-105.5" font-family="Helvetica,sans-Serif" font-size="10.00">View::OmniboxSuggestionButtonRowView</text>
</a>
</g>
</g>
<!-- Node7&#45;&gt;Node8 -->
<g id="edge7" class="edge">
<title>Node7&#45;&gt;Node8</title>
<path fill="none" stroke="midnightblue" d="M788.67,-113.5C779.65,-113.5 770.42,-113.5 761.26,-113.5"/>
<polygon fill="midnightblue" stroke="midnightblue" points="788.75,-117 798.75,-113.5 788.75,-110 788.75,-117"/>
</g>
<!-- Node8&#45;&gt;Node4 -->
<g id="edge8" class="edge">
<title>Node8&#45;&gt;Node4</title>
<path fill="none" stroke="midnightblue" d="M547.59,-113.5C530.45,-113.5 513.4,-113.5 498.21,-113.5"/>
<polygon fill="midnightblue" stroke="midnightblue" points="547.69,-117 557.69,-113.5 547.69,-110 547.69,-117"/>
</g>
<!-- Node10 -->
<g id="node10" class="node">
<title>Node10</title>
<g id="a_node10"><a xlink:href="../../d2/dcb/classOmniboxRowView_1_1HeaderView.html#ad1abf8339bf99de0b39a9bb43111ba93" target="_top" xlink:title=" ">
<polygon fill="white" stroke="black" points="581,-49.5 581,-79.5 738,-79.5 738,-49.5 581,-49.5"/>
<text text-anchor="start" x="589" y="-67.5" font-family="Helvetica,sans-Serif" font-size="10.00">OmniboxRowView::HeaderView</text>
<text text-anchor="middle" x="659.5" y="-56.5" font-family="Helvetica,sans-Serif" font-size="10.00">::HeaderView</text>
</a>
</g>
</g>
<!-- Node9&#45;&gt;Node10 -->
<g id="edge10" class="edge">
<title>Node9&#45;&gt;Node10</title>
<path fill="none" stroke="midnightblue" d="M786.51,-64.5C770.48,-64.5 753.86,-64.5 738.16,-64.5"/>
<polygon fill="midnightblue" stroke="midnightblue" points="786.94,-68 796.94,-64.5 786.94,-61 786.94,-68"/>
</g>
<!-- Node11 -->
<g id="node11" class="node">
<title>Node11</title>
<g id="a_node11"><a xlink:href="../../da/da2/classOmniboxRowView.html#a6add650851301372ee9b8a6671cfa28c" target="_top" xlink:title=" ">
<polygon fill="white" stroke="black" points="362,-58 362,-77 522,-77 522,-58 362,-58"/>
<text text-anchor="middle" x="442" y="-65" font-family="Helvetica,sans-Serif" font-size="10.00">OmniboxRowView::ShowHeader</text>
</a>
</g>
</g>
<!-- Node10&#45;&gt;Node11 -->
<g id="edge11" class="edge">
<title>Node10&#45;&gt;Node11</title>
<path fill="none" stroke="midnightblue" d="M570.32,-65.73C554.36,-65.95 537.81,-66.18 522.14,-66.4"/>
<polygon fill="midnightblue" stroke="midnightblue" points="570.75,-69.22 580.7,-65.58 570.65,-62.22 570.75,-69.22"/>
</g>
<!-- Node11&#45;&gt;Node5 -->
<g id="edge12" class="edge">
<title>Node11&#45;&gt;Node5</title>
<path fill="none" stroke="midnightblue" d="M351.8,-78.02C343.15,-79.04 334.46,-80.07 326.02,-81.06"/>
<polygon fill="midnightblue" stroke="midnightblue" points="352.39,-81.48 361.91,-76.83 351.57,-74.53 352.39,-81.48"/>
</g>
</g>
</svg>
