<?xml version="1.0" encoding="UTF-8" standalone="no"?>
<!DOCTYPE svg PUBLIC "-//W3C//DTD SVG 1.1//EN"
 "http://www.w3.org/Graphics/SVG/1.1/DTD/svg11.dtd">
<!-- Generated by graphviz version 2.43.0 (0)
 -->
<!-- Title: AutocompleteResult::CalculateNumMatches Pages: 1 -->
<!--zoomable 192 -->
<svg id="main" version="1.1" xmlns="http://www.w3.org/2000/svg" xmlns:xlink="http://www.w3.org/1999/xlink" xml:space="preserve" onload="init(evt)">
<style type="text/css"><![CDATA[
.edge:hover path { stroke: red; }
.edge:hover polygon { stroke: red; fill: red; }
]]></style>
<script type="text/javascript"><![CDATA[
var edges = document.getElementsByTagName('g');
if (edges && edges.length) {
  for (var i=0;i<edges.length;i++) {
    if (edges[i].id.substr(0,4)=='edge') {
      edges[i].setAttribute('class','edge');
    }
  }
}
]]></script>
        <defs>
                <circle id="rim" cx="0" cy="0" r="7"/>
                <circle id="rim2" cx="0" cy="0" r="3.5"/>
                <g id="zoomPlus">
                        <use xlink:href="#rim" fill="#404040">
                                <set attributeName="fill" to="#808080" begin="zoomplus.mouseover" end="zoomplus.mouseout"/>
                        </use>
                        <path d="M-4,0h8M0,-4v8" fill="none" stroke="white" stroke-width="1.5" pointer-events="none"/>
                </g>
                <g id="zoomMin">
                        <use xlink:href="#rim" fill="#404040">
                                <set attributeName="fill" to="#808080" begin="zoomminus.mouseover" end="zoomminus.mouseout"/>
                        </use>
                        <path d="M-4,0h8" fill="none" stroke="white" stroke-width="1.5" pointer-events="none"/>
                </g>
                <g id="dirArrow">
                        <path fill="none" stroke="white" stroke-width="1.5" d="M0,-3.0v7 M-2.5,-0.5L0,-3.0L2.5,-0.5"/>
                </g>
               <g id="resetDef">
                       <use xlink:href="#rim2" fill="#404040">
                               <set attributeName="fill" to="#808080" begin="reset.mouseover" end="reset.mouseout"/>
                       </use>
               </g>
        </defs>

<script type="text/javascript">
var viewWidth = 659;
var viewHeight = 192;
var sectionId = 'dynsection-8';
</script>
<script xlink:href="../../svgpan.js"/>
<svg id="graph" class="graph">
<g id="viewport">
<title>AutocompleteResult::CalculateNumMatches</title>
<polygon fill="white" stroke="transparent" points="-4,4 -4,-187.56 655,-187.56 655,4 -4,4"/>
<!-- Node1 -->
<g id="node1" class="node">
<title>Node1</title>
<g id="a_node1"><a xlink:title=" ">
<polygon fill="#bfbfbf" stroke="black" points="0,-71.06 0,-101.06 122,-101.06 122,-71.06 0,-71.06"/>
<text text-anchor="start" x="8" y="-89.06" font-family="Helvetica,sans-Serif" font-size="10.00">AutocompleteResult</text>
<text text-anchor="middle" x="61" y="-78.06" font-family="Helvetica,sans-Serif" font-size="10.00">::CalculateNumMatches</text>
</a>
</g>
</g>
<!-- Node2 -->
<g id="node2" class="node">
<title>Node2</title>
<g id="a_node2"><a xlink:href="../../d3/d03/classAutocompleteResult.html#a5db22ae015dfae96ad151f9abcd1b3ba" target="_top" xlink:title=" ">
<polygon fill="white" stroke="black" points="158,-65.56 158,-106.56 308,-106.56 308,-65.56 158,-65.56"/>
<text text-anchor="start" x="166" y="-94.56" font-family="Helvetica,sans-Serif" font-size="10.00">AutocompleteResult</text>
<text text-anchor="start" x="166" y="-83.56" font-family="Helvetica,sans-Serif" font-size="10.00">::CalculateNumMatchesPerUrl</text>
<text text-anchor="middle" x="233" y="-72.56" font-family="Helvetica,sans-Serif" font-size="10.00">Count</text>
</a>
</g>
</g>
<!-- Node1&#45;&gt;Node2 -->
<g id="edge1" class="edge">
<title>Node1&#45;&gt;Node2</title>
<path fill="none" stroke="midnightblue" d="M122.41,-86.06C130.65,-86.06 139.21,-86.06 147.77,-86.06"/>
<polygon fill="midnightblue" stroke="midnightblue" points="147.79,-89.56 157.79,-86.06 147.79,-82.56 147.79,-89.56"/>
</g>
<!-- Node3 -->
<g id="node3" class="node">
<title>Node3</title>
<g id="a_node3"><a xlink:href="../../d4/d8a/classCompareWithDemoteByType.html#aab5bde0779e024043e78e177af7e49e2" target="_top" xlink:title=" ">
<polygon fill="white" stroke="black" points="344,-153.06 344,-183.06 488,-183.06 488,-153.06 344,-153.06"/>
<text text-anchor="start" x="352" y="-171.06" font-family="Helvetica,sans-Serif" font-size="10.00">CompareWithDemoteByType</text>
<text text-anchor="middle" x="416" y="-160.06" font-family="Helvetica,sans-Serif" font-size="10.00">::GetDemotedRelevance</text>
</a>
</g>
</g>
<!-- Node1&#45;&gt;Node3 -->
<g id="edge8" class="edge">
<title>Node1&#45;&gt;Node3</title>
<path fill="none" stroke="midnightblue" d="M106.66,-101.07C122.74,-106.19 141.09,-111.72 158,-116.06 216.39,-131.05 283.14,-144.44 333.97,-153.89"/>
<polygon fill="midnightblue" stroke="midnightblue" points="333.45,-157.35 343.92,-155.72 334.72,-150.46 333.45,-157.35"/>
</g>
<!-- Node5 -->
<g id="node5" class="node">
<title>Node5</title>
<g id="a_node5"><a xlink:href="../../d3/d03/classAutocompleteResult.html#a11cfd5d16a9a465e034b639b35c395fd" target="_top" xlink:title=" ">
<polygon fill="white" stroke="black" points="535,-16.06 535,-46.06 640,-46.06 640,-16.06 535,-16.06"/>
<text text-anchor="start" x="543" y="-34.06" font-family="Helvetica,sans-Serif" font-size="10.00">AutocompleteResult</text>
<text text-anchor="middle" x="587.5" y="-23.06" font-family="Helvetica,sans-Serif" font-size="10.00">::GetMaxMatches</text>
</a>
</g>
</g>
<!-- Node1&#45;&gt;Node5 -->
<g id="edge9" class="edge">
<title>Node1&#45;&gt;Node5</title>
<path fill="none" stroke="midnightblue" d="M108.76,-71.03C124.38,-66.13 141.9,-60.74 158,-56.06 300.45,-14.67 340.8,12.33 488,-6.06 500.97,-7.68 514.69,-10.46 527.63,-13.59"/>
<polygon fill="midnightblue" stroke="midnightblue" points="526.8,-16.99 537.36,-16.04 528.51,-10.2 526.8,-16.99"/>
</g>
<!-- Node2&#45;&gt;Node3 -->
<g id="edge2" class="edge">
<title>Node2&#45;&gt;Node3</title>
<path fill="none" stroke="midnightblue" d="M269.46,-106.61C290.68,-118.43 318.41,-133.07 344,-144.06 348.33,-145.92 352.86,-147.73 357.44,-149.48"/>
<polygon fill="midnightblue" stroke="midnightblue" points="356.27,-152.78 366.87,-152.95 358.69,-146.21 356.27,-152.78"/>
</g>
<!-- Node4 -->
<g id="node4" class="node">
<title>Node4</title>
<g id="a_node4"><a xlink:href="../../d3/d03/classAutocompleteResult.html#ae9057eb6f4a0c9894ff03c75cbc9eba1" target="_top" xlink:title=" ">
<polygon fill="white" stroke="black" points="349,-16.06 349,-46.06 483,-46.06 483,-16.06 349,-16.06"/>
<text text-anchor="start" x="357" y="-34.06" font-family="Helvetica,sans-Serif" font-size="10.00">AutocompleteResult</text>
<text text-anchor="middle" x="416" y="-23.06" font-family="Helvetica,sans-Serif" font-size="10.00">::GetDynamicMaxMatches</text>
</a>
</g>
</g>
<!-- Node2&#45;&gt;Node4 -->
<g id="edge3" class="edge">
<title>Node2&#45;&gt;Node4</title>
<path fill="none" stroke="midnightblue" d="M301.66,-65.5C319.37,-60.12 338.33,-54.36 355.57,-49.12"/>
<polygon fill="midnightblue" stroke="midnightblue" points="356.96,-52.36 365.51,-46.1 354.92,-45.66 356.96,-52.36"/>
</g>
<!-- Node2&#45;&gt;Node5 -->
<g id="edge5" class="edge">
<title>Node2&#45;&gt;Node5</title>
<path fill="none" stroke="midnightblue" d="M308.26,-79.32C359.09,-74.14 427.91,-66.01 488,-55.06 499.97,-52.88 512.66,-50.13 524.81,-47.27"/>
<polygon fill="midnightblue" stroke="midnightblue" points="525.95,-50.59 534.86,-44.85 524.32,-43.79 525.95,-50.59"/>
</g>
<!-- Node6 -->
<g id="node6" class="node">
<title>Node6</title>
<g id="a_node6"><a xlink:href="../../dc/d8f/structAutocompleteMatch.html#a2995f802114ff701b5d6e037fb3019b3" target="_top" xlink:title=" ">
<polygon fill="white" stroke="black" points="361,-104.06 361,-134.06 471,-134.06 471,-104.06 361,-104.06"/>
<text text-anchor="start" x="369" y="-122.06" font-family="Helvetica,sans-Serif" font-size="10.00">AutocompleteMatch::</text>
<text text-anchor="middle" x="416" y="-111.06" font-family="Helvetica,sans-Serif" font-size="10.00">IsSearchType</text>
</a>
</g>
</g>
<!-- Node2&#45;&gt;Node6 -->
<g id="edge6" class="edge">
<title>Node2&#45;&gt;Node6</title>
<path fill="none" stroke="midnightblue" d="M308.14,-99.58C322.36,-102.17 337.14,-104.87 351,-107.39"/>
<polygon fill="midnightblue" stroke="midnightblue" points="350.45,-110.85 360.92,-109.2 351.71,-103.96 350.45,-110.85"/>
</g>
<!-- Node4&#45;&gt;Node5 -->
<g id="edge4" class="edge">
<title>Node4&#45;&gt;Node5</title>
<path fill="none" stroke="midnightblue" d="M483.02,-31.06C496.72,-31.06 511.11,-31.06 524.66,-31.06"/>
<polygon fill="midnightblue" stroke="midnightblue" points="524.83,-34.56 534.83,-31.06 524.83,-27.56 524.83,-34.56"/>
</g>
<!-- Node7 -->
<g id="node7" class="node">
<title>Node7</title>
<g id="a_node7"><a xlink:href="../../dc/d8f/structAutocompleteMatch.html#aaca5dac30caf1899132db064a3213d9e" target="_top" xlink:title=" ">
<polygon fill="white" stroke="black" points="524,-104.06 524,-134.06 651,-134.06 651,-104.06 524,-104.06"/>
<text text-anchor="start" x="532" y="-122.06" font-family="Helvetica,sans-Serif" font-size="10.00">AutocompleteMatch::</text>
<text text-anchor="middle" x="587.5" y="-111.06" font-family="Helvetica,sans-Serif" font-size="10.00">IsSpecializedSearchType</text>
</a>
</g>
</g>
<!-- Node6&#45;&gt;Node7 -->
<g id="edge7" class="edge">
<title>Node6&#45;&gt;Node7</title>
<path fill="none" stroke="midnightblue" d="M471.1,-119.06C484.58,-119.06 499.27,-119.06 513.5,-119.06"/>
<polygon fill="midnightblue" stroke="midnightblue" points="513.76,-122.56 523.76,-119.06 513.76,-115.56 513.76,-122.56"/>
</g>
</g>
</svg>
        <g id="navigator" transform="translate(0 0)" fill="#404254">
                <rect fill="#f2f5e9" fill-opacity="0.5" stroke="#606060" stroke-width=".5" x="0" y="0" width="60" height="60"/>
                <use id="zoomplus" xlink:href="#zoomPlus" x="17" y="9" onmousedown="handleZoom(evt,'in')"/>
                <use id="zoomminus" xlink:href="#zoomMin" x="42" y="9" onmousedown="handleZoom(evt,'out')"/>
                <use id="reset" xlink:href="#resetDef" x="30" y="36" onmousedown="handleReset()"/>
                <g id="arrowUp" xlink:href="#dirArrow" transform="translate(30 24)" onmousedown="handlePan(0,-1)">
                  <use xlink:href="#rim" fill="#404040">
                        <set attributeName="fill" to="#808080" begin="arrowUp.mouseover" end="arrowUp.mouseout"/>
                  </use>
                  <path fill="none" stroke="white" stroke-width="1.5" d="M0,-3.0v7 M-2.5,-0.5L0,-3.0L2.5,-0.5"/>
                </g>
                <g id="arrowRight" xlink:href="#dirArrow" transform="rotate(90) translate(36 -43)" onmousedown="handlePan(1,0)">
                  <use xlink:href="#rim" fill="#404040">
                        <set attributeName="fill" to="#808080" begin="arrowRight.mouseover" end="arrowRight.mouseout"/>
                  </use>
                  <path fill="none" stroke="white" stroke-width="1.5" d="M0,-3.0v7 M-2.5,-0.5L0,-3.0L2.5,-0.5"/>
                </g>
                <g id="arrowDown" xlink:href="#dirArrow" transform="rotate(180) translate(-30 -48)" onmousedown="handlePan(0,1)">
                  <use xlink:href="#rim" fill="#404040">
                        <set attributeName="fill" to="#808080" begin="arrowDown.mouseover" end="arrowDown.mouseout"/>
                  </use>
                  <path fill="none" stroke="white" stroke-width="1.5" d="M0,-3.0v7 M-2.5,-0.5L0,-3.0L2.5,-0.5"/>
                </g>
                <g id="arrowLeft" xlink:href="#dirArrow" transform="rotate(270) translate(-36 17)" onmousedown="handlePan(-1,0)">
                  <use xlink:href="#rim" fill="#404040">
                        <set attributeName="fill" to="#808080" begin="arrowLeft.mouseover" end="arrowLeft.mouseout"/>
                  </use>
                  <path fill="none" stroke="white" stroke-width="1.5" d="M0,-3.0v7 M-2.5,-0.5L0,-3.0L2.5,-0.5"/>
                </g>
        </g>
        <svg viewBox="0 0 15 15" width="100%" height="30px" preserveAspectRatio="xMaxYMin meet">
         <g id="arrow_out" transform="scale(0.3 0.3)">
          <a xlink:href="classAutocompleteResult_abbcf1890e4c52ca485a6059242617197_cgraph_org.svg" target="_base">
           <rect id="button" ry="5" rx="5" y="6" x="6" height="38" width="38"
                fill="#f2f5e9" fill-opacity="0.5" stroke="#606060" stroke-width="1.0"/>
           <path id="arrow"
             d="M 11.500037,31.436501 C 11.940474,20.09759 22.043105,11.32322 32.158766,21.979434 L 37.068811,17.246167 C 37.068811,17.246167 37.088388,32 37.088388,32 L 22.160133,31.978069 C 22.160133,31.978069 26.997745,27.140456 26.997745,27.140456 C 18.528582,18.264221 13.291696,25.230495 11.500037,31.436501 z"
             style="fill:#404040;"/>
          </a>
         </g>
        </svg>
</svg>
