<?xml version="1.0" encoding="UTF-8" standalone="no"?>
<!DOCTYPE svg PUBLIC "-//W3C//DTD SVG 1.1//EN"
 "http://www.w3.org/Graphics/SVG/1.1/DTD/svg11.dtd">
<!-- Generated by graphviz version 2.43.0 (0)
 -->
<!-- Title: AutocompleteResult::GroupSuggestionsBySearchVsURL Pages: 1 -->
<svg width="530pt" height="188pt"
 viewBox="0.00 0.00 530.00 187.50" xmlns="http://www.w3.org/2000/svg" xmlns:xlink="http://www.w3.org/1999/xlink">
<g id="graph0" class="graph" transform="scale(1 1) rotate(0) translate(4 183.5)">
<title>AutocompleteResult::GroupSuggestionsBySearchVsURL</title>
<polygon fill="white" stroke="transparent" points="-4,4 -4,-183.5 526,-183.5 526,4 -4,4"/>
<!-- Node1 -->
<g id="node1" class="node">
<title>Node1</title>
<g id="a_node1"><a xlink:title=" ">
<polygon fill="#bfbfbf" stroke="black" points="0,-77.5 0,-118.5 146,-118.5 146,-77.5 0,-77.5"/>
<text text-anchor="start" x="8" y="-106.5" font-family="Helvetica,sans-Serif" font-size="10.00">AutocompleteResult</text>
<text text-anchor="start" x="8" y="-95.5" font-family="Helvetica,sans-Serif" font-size="10.00">::GroupSuggestionsBySearch</text>
<text text-anchor="middle" x="73" y="-84.5" font-family="Helvetica,sans-Serif" font-size="10.00">VsURL</text>
</a>
</g>
</g>
<!-- Node2 -->
<g id="node2" class="node">
<title>Node2</title>
<g id="a_node2"><a xlink:href="../../d3/d03/classAutocompleteResult.html#a4246a4276fdd2b4f5560cd45fa527d28" target="_top" xlink:title=" ">
<polygon fill="white" stroke="black" points="218,-149 218,-179 323,-179 323,-149 218,-149"/>
<text text-anchor="start" x="226" y="-167" font-family="Helvetica,sans-Serif" font-size="10.00">AutocompleteResult</text>
<text text-anchor="middle" x="270.5" y="-156" font-family="Helvetica,sans-Serif" font-size="10.00">::begin</text>
</a>
</g>
</g>
<!-- Node1&#45;&gt;Node2 -->
<g id="edge1" class="edge">
<title>Node1&#45;&gt;Node2</title>
<path fill="none" stroke="midnightblue" d="M125.59,-118.6C143.35,-125.42 163.44,-132.84 182,-139 190.39,-141.79 199.29,-144.55 208.08,-147.16"/>
<polygon fill="midnightblue" stroke="midnightblue" points="207.34,-150.59 217.92,-150.05 209.31,-143.88 207.34,-150.59"/>
</g>
<!-- Node3 -->
<g id="node3" class="node">
<title>Node3</title>
<g id="a_node3"><a xlink:href="../../d3/d03/classAutocompleteResult.html#a5545641c5c0d9473bccf85e267f44b58" target="_top" xlink:title=" ">
<polygon fill="white" stroke="black" points="207,-110.5 207,-129.5 334,-129.5 334,-110.5 207,-110.5"/>
<text text-anchor="middle" x="270.5" y="-117.5" font-family="Helvetica,sans-Serif" font-size="10.00">AutocompleteResult::end</text>
</a>
</g>
</g>
<!-- Node1&#45;&gt;Node3 -->
<g id="edge2" class="edge">
<title>Node1&#45;&gt;Node3</title>
<path fill="none" stroke="midnightblue" d="M146.24,-106.13C162.73,-107.98 180.25,-109.96 196.75,-111.81"/>
<polygon fill="midnightblue" stroke="midnightblue" points="196.55,-115.31 206.88,-112.95 197.34,-108.36 196.55,-115.31"/>
</g>
<!-- Node4 -->
<g id="node4" class="node">
<title>Node4</title>
<g id="a_node4"><a xlink:href="../../dc/d8f/structAutocompleteMatch.html#a2995f802114ff701b5d6e037fb3019b3" target="_top" xlink:title=" ">
<polygon fill="white" stroke="black" points="215.5,-61 215.5,-91 325.5,-91 325.5,-61 215.5,-61"/>
<text text-anchor="start" x="223.5" y="-79" font-family="Helvetica,sans-Serif" font-size="10.00">AutocompleteMatch::</text>
<text text-anchor="middle" x="270.5" y="-68" font-family="Helvetica,sans-Serif" font-size="10.00">IsSearchType</text>
</a>
</g>
</g>
<!-- Node1&#45;&gt;Node4 -->
<g id="edge3" class="edge">
<title>Node1&#45;&gt;Node4</title>
<path fill="none" stroke="midnightblue" d="M146.24,-89.87C165.6,-87.69 186.4,-85.35 205.3,-83.23"/>
<polygon fill="midnightblue" stroke="midnightblue" points="205.73,-86.7 215.28,-82.1 204.95,-79.74 205.73,-86.7"/>
</g>
<!-- Node6 -->
<g id="node6" class="node">
<title>Node6</title>
<g id="a_node6"><a xlink:href="../../dc/d8f/structAutocompleteMatch.html#ae484ab3dc106358978057faf4bc5c17b" target="_top" xlink:title=" ">
<polygon fill="white" stroke="black" points="182,-0.5 182,-41.5 359,-41.5 359,-0.5 182,-0.5"/>
<text text-anchor="start" x="190" y="-29.5" font-family="Helvetica,sans-Serif" font-size="10.00">AutocompleteMatch::</text>
<text text-anchor="start" x="190" y="-18.5" font-family="Helvetica,sans-Serif" font-size="10.00">ShouldBeSkippedForGroupBySearch</text>
<text text-anchor="middle" x="270.5" y="-7.5" font-family="Helvetica,sans-Serif" font-size="10.00">VsUrl</text>
</a>
</g>
</g>
<!-- Node1&#45;&gt;Node6 -->
<g id="edge5" class="edge">
<title>Node1&#45;&gt;Node6</title>
<path fill="none" stroke="midnightblue" d="M120.52,-77.44C139.48,-69.25 161.68,-59.92 182,-52 187.91,-49.7 194.08,-47.37 200.27,-45.08"/>
<polygon fill="midnightblue" stroke="midnightblue" points="201.82,-48.24 210.01,-41.52 199.42,-41.66 201.82,-48.24"/>
</g>
<!-- Node5 -->
<g id="node5" class="node">
<title>Node5</title>
<g id="a_node5"><a xlink:href="../../dc/d8f/structAutocompleteMatch.html#aaca5dac30caf1899132db064a3213d9e" target="_top" xlink:title=" ">
<polygon fill="white" stroke="black" points="395,-61 395,-91 522,-91 522,-61 395,-61"/>
<text text-anchor="start" x="403" y="-79" font-family="Helvetica,sans-Serif" font-size="10.00">AutocompleteMatch::</text>
<text text-anchor="middle" x="458.5" y="-68" font-family="Helvetica,sans-Serif" font-size="10.00">IsSpecializedSearchType</text>
</a>
</g>
</g>
<!-- Node4&#45;&gt;Node5 -->
<g id="edge4" class="edge">
<title>Node4&#45;&gt;Node5</title>
<path fill="none" stroke="midnightblue" d="M325.55,-76C344,-76 364.95,-76 384.63,-76"/>
<polygon fill="midnightblue" stroke="midnightblue" points="384.79,-79.5 394.79,-76 384.79,-72.5 384.79,-79.5"/>
</g>
</g>
</svg>
