<?xml version="1.0" encoding="UTF-8" standalone="no"?>
<!DOCTYPE svg PUBLIC "-//W3C//DTD SVG 1.1//EN"
 "http://www.w3.org/Graphics/SVG/1.1/DTD/svg11.dtd">
<!-- Generated by graphviz version 2.43.0 (0)
 -->
<!-- Title: AutocompleteResult::CalculateNumMatchesPerUrlCount Pages: 1 -->
<svg width="501pt" height="176pt"
 viewBox="0.00 0.00 501.00 176.00" xmlns="http://www.w3.org/2000/svg" xmlns:xlink="http://www.w3.org/1999/xlink">
<g id="graph0" class="graph" transform="scale(1 1) rotate(0) translate(4 172)">
<title>AutocompleteResult::CalculateNumMatchesPerUrlCount</title>
<polygon fill="white" stroke="transparent" points="-4,4 -4,-172 497,-172 497,4 -4,4"/>
<!-- Node1 -->
<g id="node1" class="node">
<title>Node1</title>
<g id="a_node1"><a xlink:title=" ">
<polygon fill="#bfbfbf" stroke="black" points="0,-61 0,-102 150,-102 150,-61 0,-61"/>
<text text-anchor="start" x="8" y="-90" font-family="Helvetica,sans-Serif" font-size="10.00">AutocompleteResult</text>
<text text-anchor="start" x="8" y="-79" font-family="Helvetica,sans-Serif" font-size="10.00">::CalculateNumMatchesPerUrl</text>
<text text-anchor="middle" x="75" y="-68" font-family="Helvetica,sans-Serif" font-size="10.00">Count</text>
</a>
</g>
</g>
<!-- Node2 -->
<g id="node2" class="node">
<title>Node2</title>
<g id="a_node2"><a xlink:href="../../d4/d8a/classCompareWithDemoteByType.html#aab5bde0779e024043e78e177af7e49e2" target="_top" xlink:title=" ">
<polygon fill="white" stroke="black" points="186,-137.5 186,-167.5 330,-167.5 330,-137.5 186,-137.5"/>
<text text-anchor="start" x="194" y="-155.5" font-family="Helvetica,sans-Serif" font-size="10.00">CompareWithDemoteByType</text>
<text text-anchor="middle" x="258" y="-144.5" font-family="Helvetica,sans-Serif" font-size="10.00">::GetDemotedRelevance</text>
</a>
</g>
</g>
<!-- Node1&#45;&gt;Node2 -->
<g id="edge1" class="edge">
<title>Node1&#45;&gt;Node2</title>
<path fill="none" stroke="midnightblue" d="M121.97,-102.09C141.56,-110.61 164.76,-120.39 186,-128.5 190.81,-130.34 195.84,-132.18 200.89,-133.99"/>
<polygon fill="midnightblue" stroke="midnightblue" points="200.01,-137.39 210.6,-137.4 202.33,-130.78 200.01,-137.39"/>
</g>
<!-- Node3 -->
<g id="node3" class="node">
<title>Node3</title>
<g id="a_node3"><a xlink:href="../../d3/d03/classAutocompleteResult.html#ae9057eb6f4a0c9894ff03c75cbc9eba1" target="_top" xlink:title=" ">
<polygon fill="white" stroke="black" points="191,-88.5 191,-118.5 325,-118.5 325,-88.5 191,-88.5"/>
<text text-anchor="start" x="199" y="-106.5" font-family="Helvetica,sans-Serif" font-size="10.00">AutocompleteResult</text>
<text text-anchor="middle" x="258" y="-95.5" font-family="Helvetica,sans-Serif" font-size="10.00">::GetDynamicMaxMatches</text>
</a>
</g>
</g>
<!-- Node1&#45;&gt;Node3 -->
<g id="edge2" class="edge">
<title>Node1&#45;&gt;Node3</title>
<path fill="none" stroke="midnightblue" d="M150.14,-90.51C160.25,-91.74 170.63,-93 180.77,-94.23"/>
<polygon fill="midnightblue" stroke="midnightblue" points="180.46,-97.72 190.81,-95.46 181.31,-90.77 180.46,-97.72"/>
</g>
<!-- Node4 -->
<g id="node4" class="node">
<title>Node4</title>
<g id="a_node4"><a xlink:href="../../d3/d03/classAutocompleteResult.html#a11cfd5d16a9a465e034b639b35c395fd" target="_top" xlink:title=" ">
<polygon fill="white" stroke="black" points="377,-68.5 377,-98.5 482,-98.5 482,-68.5 377,-68.5"/>
<text text-anchor="start" x="385" y="-86.5" font-family="Helvetica,sans-Serif" font-size="10.00">AutocompleteResult</text>
<text text-anchor="middle" x="429.5" y="-75.5" font-family="Helvetica,sans-Serif" font-size="10.00">::GetMaxMatches</text>
</a>
</g>
</g>
<!-- Node1&#45;&gt;Node4 -->
<g id="edge4" class="edge">
<title>Node1&#45;&gt;Node4</title>
<path fill="none" stroke="midnightblue" d="M150.2,-79.82C200.85,-78.94 269.49,-78.27 330,-79.5 341.9,-79.74 354.6,-80.15 366.79,-80.61"/>
<polygon fill="midnightblue" stroke="midnightblue" points="366.75,-84.11 376.88,-81.01 367.03,-77.12 366.75,-84.11"/>
</g>
<!-- Node5 -->
<g id="node5" class="node">
<title>Node5</title>
<g id="a_node5"><a xlink:href="../../dc/d8f/structAutocompleteMatch.html#a2995f802114ff701b5d6e037fb3019b3" target="_top" xlink:title=" ">
<polygon fill="white" stroke="black" points="203,-0.5 203,-30.5 313,-30.5 313,-0.5 203,-0.5"/>
<text text-anchor="start" x="211" y="-18.5" font-family="Helvetica,sans-Serif" font-size="10.00">AutocompleteMatch::</text>
<text text-anchor="middle" x="258" y="-7.5" font-family="Helvetica,sans-Serif" font-size="10.00">IsSearchType</text>
</a>
</g>
</g>
<!-- Node1&#45;&gt;Node5 -->
<g id="edge5" class="edge">
<title>Node1&#45;&gt;Node5</title>
<path fill="none" stroke="midnightblue" d="M132.28,-60.98C155.89,-52.37 183.14,-42.43 206.14,-34.05"/>
<polygon fill="midnightblue" stroke="midnightblue" points="207.51,-37.27 215.71,-30.56 205.11,-30.69 207.51,-37.27"/>
</g>
<!-- Node3&#45;&gt;Node4 -->
<g id="edge3" class="edge">
<title>Node3&#45;&gt;Node4</title>
<path fill="none" stroke="midnightblue" d="M325.02,-95.71C338.72,-94.09 353.11,-92.4 366.66,-90.8"/>
<polygon fill="midnightblue" stroke="midnightblue" points="367.31,-94.24 376.83,-89.6 366.49,-87.29 367.31,-94.24"/>
</g>
<!-- Node6 -->
<g id="node6" class="node">
<title>Node6</title>
<g id="a_node6"><a xlink:href="../../dc/d8f/structAutocompleteMatch.html#aaca5dac30caf1899132db064a3213d9e" target="_top" xlink:title=" ">
<polygon fill="white" stroke="black" points="366,-0.5 366,-30.5 493,-30.5 493,-0.5 366,-0.5"/>
<text text-anchor="start" x="374" y="-18.5" font-family="Helvetica,sans-Serif" font-size="10.00">AutocompleteMatch::</text>
<text text-anchor="middle" x="429.5" y="-7.5" font-family="Helvetica,sans-Serif" font-size="10.00">IsSpecializedSearchType</text>
</a>
</g>
</g>
<!-- Node5&#45;&gt;Node6 -->
<g id="edge6" class="edge">
<title>Node5&#45;&gt;Node6</title>
<path fill="none" stroke="midnightblue" d="M313.1,-15.5C326.58,-15.5 341.27,-15.5 355.5,-15.5"/>
<polygon fill="midnightblue" stroke="midnightblue" points="355.76,-19 365.76,-15.5 355.76,-12 355.76,-19"/>
</g>
</g>
</svg>
