<?xml version="1.0" encoding="UTF-8" standalone="no"?>
<!DOCTYPE svg PUBLIC "-//W3C//DTD SVG 1.1//EN"
 "http://www.w3.org/Graphics/SVG/1.1/DTD/svg11.dtd">
<!-- Generated by graphviz version 2.43.0 (0)
 -->
<!-- Title: AutocompleteResult::FindTopMatch Pages: 1 -->
<svg width="284pt" height="127pt"
 viewBox="0.00 0.00 284.00 126.50" xmlns="http://www.w3.org/2000/svg" xmlns:xlink="http://www.w3.org/1999/xlink">
<g id="graph0" class="graph" transform="scale(1 1) rotate(0) translate(4 122.5)">
<title>AutocompleteResult::FindTopMatch</title>
<polygon fill="white" stroke="transparent" points="-4,4 -4,-122.5 280,-122.5 280,4 -4,4"/>
<!-- Node1 -->
<g id="node1" class="node">
<title>Node1</title>
<g id="a_node1"><a xlink:title=" ">
<polygon fill="#bfbfbf" stroke="black" points="0,-39 0,-69 105,-69 105,-39 0,-39"/>
<text text-anchor="start" x="8" y="-57" font-family="Helvetica,sans-Serif" font-size="10.00">AutocompleteResult</text>
<text text-anchor="middle" x="52.5" y="-46" font-family="Helvetica,sans-Serif" font-size="10.00">::FindTopMatch</text>
</a>
</g>
</g>
<!-- Node2 -->
<g id="node2" class="node">
<title>Node2</title>
<g id="a_node2"><a xlink:href="../../d9/df6/classAutocompleteInput.html#ade8235d079a10a9ed0afb2b40771cd4d" target="_top" xlink:title=" ">
<polygon fill="white" stroke="black" points="141,-88 141,-118 276,-118 276,-88 141,-88"/>
<text text-anchor="start" x="149" y="-106" font-family="Helvetica,sans-Serif" font-size="10.00">AutocompleteInput::</text>
<text text-anchor="middle" x="208.5" y="-95" font-family="Helvetica,sans-Serif" font-size="10.00">current_page_classification</text>
</a>
</g>
</g>
<!-- Node1&#45;&gt;Node2 -->
<g id="edge1" class="edge">
<title>Node1&#45;&gt;Node2</title>
<path fill="none" stroke="midnightblue" d="M100.96,-69.1C116.55,-74.06 134.04,-79.63 150.28,-84.79"/>
<polygon fill="midnightblue" stroke="midnightblue" points="149.6,-88.25 160.2,-87.95 151.73,-81.58 149.6,-88.25"/>
</g>
<!-- Node3 -->
<g id="node3" class="node">
<title>Node3</title>
<g id="a_node3"><a xlink:href="../../dc/d8f/structAutocompleteMatch.html#ac3a116c4349e36f3ce2de0546234baae" target="_top" xlink:title=" ">
<polygon fill="white" stroke="black" points="153.5,-39 153.5,-69 263.5,-69 263.5,-39 153.5,-39"/>
<text text-anchor="start" x="161.5" y="-57" font-family="Helvetica,sans-Serif" font-size="10.00">AutocompleteMatch::</text>
<text text-anchor="middle" x="208.5" y="-46" font-family="Helvetica,sans-Serif" font-size="10.00">MoreRelevant</text>
</a>
</g>
</g>
<!-- Node1&#45;&gt;Node3 -->
<g id="edge2" class="edge">
<title>Node1&#45;&gt;Node3</title>
<path fill="none" stroke="midnightblue" d="M105.21,-54C117.41,-54 130.57,-54 143.25,-54"/>
<polygon fill="midnightblue" stroke="midnightblue" points="143.29,-57.5 153.29,-54 143.29,-50.5 143.29,-57.5"/>
</g>
<!-- Node4 -->
<g id="node4" class="node">
<title>Node4</title>
<g id="a_node4"><a xlink:href="../../d9/df6/classAutocompleteInput.html#a5d6111d5ac18400cdf809820dfab9ab0" target="_top" xlink:title=" ">
<polygon fill="white" stroke="black" points="147,-0.5 147,-19.5 270,-19.5 270,-0.5 147,-0.5"/>
<text text-anchor="middle" x="208.5" y="-7.5" font-family="Helvetica,sans-Serif" font-size="10.00">AutocompleteInput::type</text>
</a>
</g>
</g>
<!-- Node1&#45;&gt;Node4 -->
<g id="edge3" class="edge">
<title>Node1&#45;&gt;Node4</title>
<path fill="none" stroke="midnightblue" d="M105.21,-39.23C124.38,-33.75 145.9,-27.6 164.24,-22.36"/>
<polygon fill="midnightblue" stroke="midnightblue" points="165.41,-25.67 174.06,-19.55 163.49,-18.94 165.41,-25.67"/>
</g>
</g>
</svg>
