<?xml version="1.0" encoding="UTF-8" standalone="no"?>
<!DOCTYPE svg PUBLIC "-//W3C//DTD SVG 1.1//EN"
 "http://www.w3.org/Graphics/SVG/1.1/DTD/svg11.dtd">
<!-- Generated by graphviz version 2.43.0 (0)
 -->
<!-- Title: RemoteSuggestionsService::EndpointUrl Pages: 1 -->
<svg width="630pt" height="127pt"
 viewBox="0.00 0.00 630.00 127.00" xmlns="http://www.w3.org/2000/svg" xmlns:xlink="http://www.w3.org/1999/xlink">
<g id="graph0" class="graph" transform="scale(1 1) rotate(0) translate(4 123)">
<title>RemoteSuggestionsService::EndpointUrl</title>
<polygon fill="white" stroke="transparent" points="-4,4 -4,-123 626,-123 626,4 -4,4"/>
<!-- Node1 -->
<g id="node1" class="node">
<title>Node1</title>
<g id="a_node1"><a xlink:title=" ">
<polygon fill="#bfbfbf" stroke="black" points="484,-44.5 484,-74.5 622,-74.5 622,-44.5 484,-44.5"/>
<text text-anchor="start" x="492" y="-62.5" font-family="Helvetica,sans-Serif" font-size="10.00">RemoteSuggestionsService</text>
<text text-anchor="middle" x="553" y="-51.5" font-family="Helvetica,sans-Serif" font-size="10.00">::EndpointUrl</text>
</a>
</g>
</g>
<!-- Node2 -->
<g id="node2" class="node">
<title>Node2</title>
<g id="a_node2"><a xlink:href="../../d2/de7/classRemoteSuggestionsService.html#ad74e4429facf574aedbede5c5eca30e4" target="_top" xlink:title=" ">
<polygon fill="white" stroke="black" points="305,-88.5 305,-118.5 448,-118.5 448,-88.5 305,-88.5"/>
<text text-anchor="start" x="313" y="-106.5" font-family="Helvetica,sans-Serif" font-size="10.00">RemoteSuggestionsService</text>
<text text-anchor="middle" x="376.5" y="-95.5" font-family="Helvetica,sans-Serif" font-size="10.00">::CreateSuggestionsRequest</text>
</a>
</g>
</g>
<!-- Node1&#45;&gt;Node2 -->
<g id="edge1" class="edge">
<title>Node1&#45;&gt;Node2</title>
<path fill="none" stroke="midnightblue" d="M482.65,-76.99C467.58,-80.79 451.75,-84.78 437.09,-88.47"/>
<polygon fill="midnightblue" stroke="midnightblue" points="483.59,-80.36 492.44,-74.52 481.88,-73.57 483.59,-80.36"/>
</g>
<!-- Node3 -->
<g id="node3" class="node">
<title>Node3</title>
<g id="a_node3"><a xlink:href="../../d3/dbc/classZeroSuggestProvider.html#ac0afcbd72684c1a1478301c21b3ff486" target="_top" xlink:title=" ">
<polygon fill="white" stroke="black" points="161,-68.5 161,-98.5 269,-98.5 269,-68.5 161,-68.5"/>
<text text-anchor="start" x="169" y="-86.5" font-family="Helvetica,sans-Serif" font-size="10.00">ZeroSuggestProvider</text>
<text text-anchor="middle" x="215" y="-75.5" font-family="Helvetica,sans-Serif" font-size="10.00">::Start</text>
</a>
</g>
</g>
<!-- Node1&#45;&gt;Node3 -->
<g id="edge3" class="edge">
<title>Node1&#45;&gt;Node3</title>
<path fill="none" stroke="midnightblue" d="M473.33,-65.12C410.47,-69.61 324.08,-75.78 269.13,-79.7"/>
<polygon fill="midnightblue" stroke="midnightblue" points="473.88,-68.59 483.6,-64.39 473.38,-61.61 473.88,-68.59"/>
</g>
<!-- Node4 -->
<g id="node4" class="node">
<title>Node4</title>
<g id="a_node4"><a xlink:href="../../d3/dbc/classZeroSuggestProvider.html#aee611525cf7f09c7e6b019dacd79410c" target="_top" xlink:title=" ">
<polygon fill="white" stroke="black" points="319.5,-0.5 319.5,-30.5 433.5,-30.5 433.5,-0.5 319.5,-0.5"/>
<text text-anchor="start" x="327.5" y="-18.5" font-family="Helvetica,sans-Serif" font-size="10.00">ZeroSuggestProvider</text>
<text text-anchor="middle" x="376.5" y="-7.5" font-family="Helvetica,sans-Serif" font-size="10.00">::ZeroSuggestProvider</text>
</a>
</g>
</g>
<!-- Node1&#45;&gt;Node4 -->
<g id="edge4" class="edge">
<title>Node1&#45;&gt;Node4</title>
<path fill="none" stroke="midnightblue" d="M482.46,-41.96C466.22,-37.87 449.13,-33.56 433.56,-29.64"/>
<polygon fill="midnightblue" stroke="midnightblue" points="481.88,-45.43 492.44,-44.48 483.59,-38.64 481.88,-45.43"/>
</g>
<!-- Node2&#45;&gt;Node3 -->
<g id="edge2" class="edge">
<title>Node2&#45;&gt;Node3</title>
<path fill="none" stroke="midnightblue" d="M294.6,-93.36C286.07,-92.29 277.55,-91.22 269.44,-90.2"/>
<polygon fill="midnightblue" stroke="midnightblue" points="294.25,-96.84 304.61,-94.61 295.13,-89.89 294.25,-96.84"/>
</g>
<!-- Node5 -->
<g id="node5" class="node">
<title>Node5</title>
<g id="a_node5"><a xlink:href="../../d3/dbc/classZeroSuggestProvider.html#a0dd2ed2b81d093bbb97a2e5f6049371f" target="_top" xlink:title=" ">
<polygon fill="white" stroke="black" points="161,-0.5 161,-30.5 269,-30.5 269,-0.5 161,-0.5"/>
<text text-anchor="start" x="169" y="-18.5" font-family="Helvetica,sans-Serif" font-size="10.00">ZeroSuggestProvider</text>
<text text-anchor="middle" x="215" y="-7.5" font-family="Helvetica,sans-Serif" font-size="10.00">::Create</text>
</a>
</g>
</g>
<!-- Node4&#45;&gt;Node5 -->
<g id="edge5" class="edge">
<title>Node4&#45;&gt;Node5</title>
<path fill="none" stroke="midnightblue" d="M309.17,-15.5C295.79,-15.5 281.9,-15.5 269.05,-15.5"/>
<polygon fill="midnightblue" stroke="midnightblue" points="309.27,-19 319.27,-15.5 309.27,-12 309.27,-19"/>
</g>
<!-- Node6 -->
<g id="node6" class="node">
<title>Node6</title>
<g id="a_node6"><a xlink:href="../../df/d4d/classAutocompleteController.html#af85f887b2fe95261e148e7695272fc52" target="_top" xlink:title=" ">
<polygon fill="white" stroke="black" points="0,-0.5 0,-30.5 125,-30.5 125,-0.5 0,-0.5"/>
<text text-anchor="start" x="8" y="-18.5" font-family="Helvetica,sans-Serif" font-size="10.00">AutocompleteController</text>
<text text-anchor="middle" x="62.5" y="-7.5" font-family="Helvetica,sans-Serif" font-size="10.00">::AutocompleteController</text>
</a>
</g>
</g>
<!-- Node5&#45;&gt;Node6 -->
<g id="edge6" class="edge">
<title>Node5&#45;&gt;Node6</title>
<path fill="none" stroke="midnightblue" d="M150.72,-15.5C142.24,-15.5 133.54,-15.5 125.08,-15.5"/>
<polygon fill="midnightblue" stroke="midnightblue" points="150.94,-19 160.94,-15.5 150.94,-12 150.94,-19"/>
</g>
</g>
</svg>
