<?xml version="1.0" encoding="UTF-8" standalone="no"?>
<!DOCTYPE svg PUBLIC "-//W3C//DTD SVG 1.1//EN"
 "http://www.w3.org/Graphics/SVG/1.1/DTD/svg11.dtd">
<!-- Generated by graphviz version 2.43.0 (0)
 -->
<!-- Title: RemoteSuggestionsService::EndpointUrl Pages: 1 -->
<svg width="352pt" height="50pt"
 viewBox="0.00 0.00 352.00 50.00" xmlns="http://www.w3.org/2000/svg" xmlns:xlink="http://www.w3.org/1999/xlink">
<g id="graph0" class="graph" transform="scale(1 1) rotate(0) translate(4 46)">
<title>RemoteSuggestionsService::EndpointUrl</title>
<polygon fill="white" stroke="transparent" points="-4,4 -4,-46 348,-46 348,4 -4,4"/>
<!-- Node1 -->
<g id="node1" class="node">
<title>Node1</title>
<g id="a_node1"><a xlink:title=" ">
<polygon fill="#bfbfbf" stroke="black" points="0,-6 0,-36 138,-36 138,-6 0,-6"/>
<text text-anchor="start" x="8" y="-24" font-family="Helvetica,sans-Serif" font-size="10.00">RemoteSuggestionsService</text>
<text text-anchor="middle" x="69" y="-13" font-family="Helvetica,sans-Serif" font-size="10.00">::EndpointUrl</text>
</a>
</g>
</g>
<!-- Node2 -->
<g id="node2" class="node">
<title>Node2</title>
<g id="a_node2"><a xlink:href="../../d0/ddc/classBaseSearchProvider.html#a5ca528e9f5b4a349d3a8f7b2fbb5a238" target="_top" xlink:title=" ">
<polygon fill="white" stroke="black" points="174,-0.5 174,-41.5 344,-41.5 344,-0.5 174,-0.5"/>
<text text-anchor="start" x="182" y="-29.5" font-family="Helvetica,sans-Serif" font-size="10.00">BaseSearchProvider</text>
<text text-anchor="start" x="182" y="-18.5" font-family="Helvetica,sans-Serif" font-size="10.00">::AppendSuggestClientToAdditional</text>
<text text-anchor="middle" x="259" y="-7.5" font-family="Helvetica,sans-Serif" font-size="10.00">QueryParams</text>
</a>
</g>
</g>
<!-- Node1&#45;&gt;Node2 -->
<g id="edge1" class="edge">
<title>Node1&#45;&gt;Node2</title>
<path fill="none" stroke="midnightblue" d="M138.14,-21C146.45,-21 155.05,-21 163.65,-21"/>
<polygon fill="midnightblue" stroke="midnightblue" points="163.74,-24.5 173.74,-21 163.74,-17.5 163.74,-24.5"/>
</g>
</g>
</svg>
