<?xml version="1.0" encoding="UTF-8" standalone="no"?>
<!DOCTYPE svg PUBLIC "-//W3C//DTD SVG 1.1//EN"
 "http://www.w3.org/Graphics/SVG/1.1/DTD/svg11.dtd">
<!-- Generated by graphviz version 2.43.0 (0)
 -->
<!-- Title: ChromeOmniboxNavigationObserver::AlternativeNavigationURLLoader::AlternativeNavigationURLLoader Pages: 1 -->
<svg width="608pt" height="110pt"
 viewBox="0.00 0.00 608.00 110.00" xmlns="http://www.w3.org/2000/svg" xmlns:xlink="http://www.w3.org/1999/xlink">
<g id="graph0" class="graph" transform="scale(1 1) rotate(0) translate(4 106)">
<title>ChromeOmniboxNavigationObserver::AlternativeNavigationURLLoader::AlternativeNavigationURLLoader</title>
<polygon fill="white" stroke="transparent" points="-4,4 -4,-106 604,-106 604,4 -4,4"/>
<!-- Node1 -->
<g id="node1" class="node">
<title>Node1</title>
<g id="a_node1"><a xlink:title=" ">
<polygon fill="#bfbfbf" stroke="black" points="0,-30.5 0,-71.5 176,-71.5 176,-30.5 0,-30.5"/>
<text text-anchor="start" x="8" y="-59.5" font-family="Helvetica,sans-Serif" font-size="10.00">ChromeOmniboxNavigationObserver</text>
<text text-anchor="start" x="8" y="-48.5" font-family="Helvetica,sans-Serif" font-size="10.00">::AlternativeNavigationURLLoader</text>
<text text-anchor="middle" x="88" y="-37.5" font-family="Helvetica,sans-Serif" font-size="10.00">::AlternativeNavigationURLLoader</text>
</a>
</g>
</g>
<!-- Node2 -->
<g id="node2" class="node">
<title>Node2</title>
<g id="a_node2"><a xlink:href="../../d9/dec/classChromeOmniboxNavigationObserver_1_1AlternativeNavigationURLLoader.html#aae9122a1585900a2adf4eb765db7c662" target="_top" xlink:title=" ">
<polygon fill="white" stroke="black" points="212,-60.5 212,-101.5 388,-101.5 388,-60.5 212,-60.5"/>
<text text-anchor="start" x="220" y="-89.5" font-family="Helvetica,sans-Serif" font-size="10.00">ChromeOmniboxNavigationObserver</text>
<text text-anchor="start" x="220" y="-78.5" font-family="Helvetica,sans-Serif" font-size="10.00">::AlternativeNavigationURLLoader</text>
<text text-anchor="middle" x="300" y="-67.5" font-family="Helvetica,sans-Serif" font-size="10.00">::OnRedirect</text>
</a>
</g>
</g>
<!-- Node1&#45;&gt;Node2 -->
<g id="edge1" class="edge">
<title>Node1&#45;&gt;Node2</title>
<path fill="none" stroke="midnightblue" d="M176.23,-63.46C184.66,-64.67 193.24,-65.89 201.75,-67.11"/>
<polygon fill="midnightblue" stroke="midnightblue" points="201.3,-70.58 211.7,-68.53 202.29,-63.65 201.3,-70.58"/>
</g>
<!-- Node4 -->
<g id="node4" class="node">
<title>Node4</title>
<g id="a_node4"><a xlink:href="../../d9/dec/classChromeOmniboxNavigationObserver_1_1AlternativeNavigationURLLoader.html#a0805a23ad720ce926980f35560306fe6" target="_top" xlink:title=" ">
<polygon fill="white" stroke="black" points="212,-0.5 212,-41.5 388,-41.5 388,-0.5 212,-0.5"/>
<text text-anchor="start" x="220" y="-29.5" font-family="Helvetica,sans-Serif" font-size="10.00">ChromeOmniboxNavigationObserver</text>
<text text-anchor="start" x="220" y="-18.5" font-family="Helvetica,sans-Serif" font-size="10.00">::AlternativeNavigationURLLoader</text>
<text text-anchor="middle" x="300" y="-7.5" font-family="Helvetica,sans-Serif" font-size="10.00">::OnURLLoadComplete</text>
</a>
</g>
</g>
<!-- Node1&#45;&gt;Node4 -->
<g id="edge3" class="edge">
<title>Node1&#45;&gt;Node4</title>
<path fill="none" stroke="midnightblue" d="M176.23,-38.54C184.66,-37.33 193.24,-36.11 201.75,-34.89"/>
<polygon fill="midnightblue" stroke="midnightblue" points="202.29,-38.35 211.7,-33.47 201.3,-31.42 202.29,-38.35"/>
</g>
<!-- Node3 -->
<g id="node3" class="node">
<title>Node3</title>
<g id="a_node3"><a xlink:href="../../d9/dec/classChromeOmniboxNavigationObserver_1_1AlternativeNavigationURLLoader.html#aab8b262f4d44a3b713113c4671619045" target="_top" xlink:title=" ">
<polygon fill="white" stroke="black" points="424,-30.5 424,-71.5 600,-71.5 600,-30.5 424,-30.5"/>
<text text-anchor="start" x="432" y="-59.5" font-family="Helvetica,sans-Serif" font-size="10.00">ChromeOmniboxNavigationObserver</text>
<text text-anchor="start" x="432" y="-48.5" font-family="Helvetica,sans-Serif" font-size="10.00">::AlternativeNavigationURLLoader</text>
<text text-anchor="middle" x="512" y="-37.5" font-family="Helvetica,sans-Serif" font-size="10.00">::OnDoneWithURL</text>
</a>
</g>
</g>
<!-- Node2&#45;&gt;Node3 -->
<g id="edge2" class="edge">
<title>Node2&#45;&gt;Node3</title>
<path fill="none" stroke="midnightblue" d="M388.23,-68.54C396.66,-67.33 405.24,-66.11 413.75,-64.89"/>
<polygon fill="midnightblue" stroke="midnightblue" points="414.29,-68.35 423.7,-63.47 413.3,-61.42 414.29,-68.35"/>
</g>
<!-- Node4&#45;&gt;Node3 -->
<g id="edge4" class="edge">
<title>Node4&#45;&gt;Node3</title>
<path fill="none" stroke="midnightblue" d="M388.23,-33.46C396.66,-34.67 405.24,-35.89 413.75,-37.11"/>
<polygon fill="midnightblue" stroke="midnightblue" points="413.3,-40.58 423.7,-38.53 414.29,-33.65 413.3,-40.58"/>
</g>
</g>
</svg>
