<?xml version="1.0" encoding="UTF-8" standalone="no"?>
<!DOCTYPE svg PUBLIC "-//W3C//DTD SVG 1.1//EN"
 "http://www.w3.org/Graphics/SVG/1.1/DTD/svg11.dtd">
<!-- Generated by graphviz version 2.43.0 (0)
 -->
<!-- Title: SearchProvider::Providers::GetDefaultProviderURL Pages: 1 -->
<!--zoomable 224 -->
<svg id="main" version="1.1" xmlns="http://www.w3.org/2000/svg" xmlns:xlink="http://www.w3.org/1999/xlink" xml:space="preserve" onload="init(evt)">
<style type="text/css"><![CDATA[
.edge:hover path { stroke: red; }
.edge:hover polygon { stroke: red; fill: red; }
]]></style>
<script type="text/javascript"><![CDATA[
var edges = document.getElementsByTagName('g');
if (edges && edges.length) {
  for (var i=0;i<edges.length;i++) {
    if (edges[i].id.substr(0,4)=='edge') {
      edges[i].setAttribute('class','edge');
    }
  }
}
]]></script>
        <defs>
                <circle id="rim" cx="0" cy="0" r="7"/>
                <circle id="rim2" cx="0" cy="0" r="3.5"/>
                <g id="zoomPlus">
                        <use xlink:href="#rim" fill="#404040">
                                <set attributeName="fill" to="#808080" begin="zoomplus.mouseover" end="zoomplus.mouseout"/>
                        </use>
                        <path d="M-4,0h8M0,-4v8" fill="none" stroke="white" stroke-width="1.5" pointer-events="none"/>
                </g>
                <g id="zoomMin">
                        <use xlink:href="#rim" fill="#404040">
                                <set attributeName="fill" to="#808080" begin="zoomminus.mouseover" end="zoomminus.mouseout"/>
                        </use>
                        <path d="M-4,0h8" fill="none" stroke="white" stroke-width="1.5" pointer-events="none"/>
                </g>
                <g id="dirArrow">
                        <path fill="none" stroke="white" stroke-width="1.5" d="M0,-3.0v7 M-2.5,-0.5L0,-3.0L2.5,-0.5"/>
                </g>
               <g id="resetDef">
                       <use xlink:href="#rim2" fill="#404040">
                               <set attributeName="fill" to="#808080" begin="reset.mouseover" end="reset.mouseout"/>
                       </use>
               </g>
        </defs>

<script type="text/javascript">
var viewWidth = 1183;
var viewHeight = 224;
var sectionId = 'dynsection-3';
</script>
<script xlink:href="../../svgpan.js"/>
<svg id="graph" class="graph">
<g id="viewport">
<title>SearchProvider::Providers::GetDefaultProviderURL</title>
<polygon fill="white" stroke="transparent" points="-4,4 -4,-220 1179,-220 1179,4 -4,4"/>
<!-- Node1 -->
<g id="node1" class="node">
<title>Node1</title>
<g id="a_node1"><a xlink:title=" ">
<polygon fill="#bfbfbf" stroke="black" points="1044,-101.5 1044,-131.5 1175,-131.5 1175,-101.5 1044,-101.5"/>
<text text-anchor="start" x="1052" y="-119.5" font-family="Helvetica,sans-Serif" font-size="10.00">SearchProvider::Providers</text>
<text text-anchor="middle" x="1109.5" y="-108.5" font-family="Helvetica,sans-Serif" font-size="10.00">::GetDefaultProviderURL</text>
</a>
</g>
</g>
<!-- Node2 -->
<g id="node2" class="node">
<title>Node2</title>
<g id="a_node2"><a xlink:href="../../d4/dee/classSearchProvider.html#a977f6c76178ac46bddb2a7c12b6ddf4d" target="_top" xlink:title=" ">
<polygon fill="white" stroke="black" points="665.5,-185.5 665.5,-215.5 799.5,-215.5 799.5,-185.5 665.5,-185.5"/>
<text text-anchor="start" x="673.5" y="-203.5" font-family="Helvetica,sans-Serif" font-size="10.00">SearchProvider::DoHistory</text>
<text text-anchor="middle" x="732.5" y="-192.5" font-family="Helvetica,sans-Serif" font-size="10.00">Query</text>
</a>
</g>
</g>
<!-- Node1&#45;&gt;Node2 -->
<g id="edge1" class="edge">
<title>Node1&#45;&gt;Node2</title>
<path fill="none" stroke="midnightblue" d="M1087.19,-139.02C1068.33,-157.23 1039.06,-181.57 1008,-192.5 939.98,-216.43 856.51,-214.88 799.6,-209.6"/>
<polygon fill="midnightblue" stroke="midnightblue" points="1089.98,-141.18 1094.6,-131.64 1085.04,-136.21 1089.98,-141.18"/>
</g>
<!-- Node4 -->
<g id="node4" class="node">
<title>Node4</title>
<g id="a_node4"><a xlink:href="../../d4/dee/classSearchProvider.html#ad4147d9489eca6c81d35e821d3e6918c" target="_top" xlink:title=" ">
<polygon fill="white" stroke="black" points="841.5,-164 841.5,-183 1006.5,-183 1006.5,-164 841.5,-164"/>
<text text-anchor="middle" x="924" y="-171" font-family="Helvetica,sans-Serif" font-size="10.00">SearchProvider::GetTemplateURL</text>
</a>
</g>
</g>
<!-- Node1&#45;&gt;Node4 -->
<g id="edge3" class="edge">
<title>Node1&#45;&gt;Node4</title>
<path fill="none" stroke="midnightblue" d="M1062.5,-135.4C1045.54,-141.97 1026.06,-149.05 1008,-154.5 996.4,-158 983.71,-161.21 971.83,-163.96"/>
<polygon fill="midnightblue" stroke="midnightblue" points="1064.13,-138.52 1072.16,-131.61 1061.57,-132.01 1064.13,-138.52"/>
</g>
<!-- Node7 -->
<g id="node7" class="node">
<title>Node7</title>
<g id="a_node7"><a xlink:href="../../d4/dee/classSearchProvider.html#a02c8b00f5d4da0ce7e5de29658483914" target="_top" xlink:title=" ">
<polygon fill="white" stroke="black" points="323,-110 323,-129 430,-129 430,-110 323,-110"/>
<text text-anchor="middle" x="376.5" y="-117" font-family="Helvetica,sans-Serif" font-size="10.00">SearchProvider::Run</text>
</a>
</g>
</g>
<!-- Node1&#45;&gt;Node7 -->
<g id="edge14" class="edge">
<title>Node1&#45;&gt;Node7</title>
<path fill="none" stroke="midnightblue" d="M1033.58,-115.68C913.7,-114.55 671.36,-113.02 466,-116.5 454.47,-116.7 442.1,-117.03 430.37,-117.41"/>
<polygon fill="midnightblue" stroke="midnightblue" points="1033.71,-119.18 1043.74,-115.78 1033.78,-112.18 1033.71,-119.18"/>
</g>
<!-- Node9 -->
<g id="node9" class="node">
<title>Node9</title>
<g id="a_node9"><a xlink:href="../../d4/dee/classSearchProvider.html#a653124bafb14a2271662cc81d572a94d" target="_top" xlink:title=" ">
<polygon fill="white" stroke="black" points="466,-38.5 466,-68.5 625,-68.5 625,-38.5 466,-38.5"/>
<text text-anchor="start" x="474" y="-56.5" font-family="Helvetica,sans-Serif" font-size="10.00">SearchProvider::IsQuerySuitable</text>
<text text-anchor="middle" x="545.5" y="-45.5" font-family="Helvetica,sans-Serif" font-size="10.00">ForSuggest</text>
</a>
</g>
</g>
<!-- Node1&#45;&gt;Node9 -->
<g id="edge9" class="edge">
<title>Node1&#45;&gt;Node9</title>
<path fill="none" stroke="midnightblue" d="M1061,-98.18C1044.46,-92.53 1025.63,-86.91 1008,-83.5 875.37,-57.84 717.73,-52.95 625.25,-52.61"/>
<polygon fill="midnightblue" stroke="midnightblue" points="1059.85,-101.48 1070.45,-101.49 1062.17,-94.88 1059.85,-101.48"/>
</g>
<!-- Node10 -->
<g id="node10" class="node">
<title>Node10</title>
<g id="a_node10"><a xlink:href="../../d4/dee/classSearchProvider.html#ae7195806b8b7c373d38bd779c5ba7f7d" target="_top" xlink:title=" ">
<polygon fill="white" stroke="black" points="840,-126 840,-145 1008,-145 1008,-126 840,-126"/>
<text text-anchor="middle" x="924" y="-133" font-family="Helvetica,sans-Serif" font-size="10.00">SearchProvider::LogLoadComplete</text>
</a>
</g>
</g>
<!-- Node1&#45;&gt;Node10 -->
<g id="edge11" class="edge">
<title>Node1&#45;&gt;Node10</title>
<path fill="none" stroke="midnightblue" d="M1033.65,-124.25C1025.22,-125.12 1016.6,-126.02 1008.08,-126.9"/>
<polygon fill="midnightblue" stroke="midnightblue" points="1034.22,-127.71 1043.8,-123.2 1033.5,-120.75 1034.22,-127.71"/>
</g>
<!-- Node11 -->
<g id="node11" class="node">
<title>Node11</title>
<g id="a_node11"><a xlink:href="../../d4/dee/classSearchProvider.html#ac19ab2526055b301d5a3dde7889895eb" target="_top" xlink:title=" ">
<polygon fill="white" stroke="black" points="853,-0.5 853,-30.5 995,-30.5 995,-0.5 853,-0.5"/>
<text text-anchor="start" x="861" y="-18.5" font-family="Helvetica,sans-Serif" font-size="10.00">SearchProvider::OnTemplate</text>
<text text-anchor="middle" x="924" y="-7.5" font-family="Helvetica,sans-Serif" font-size="10.00">URLServiceChanged</text>
</a>
</g>
</g>
<!-- Node1&#45;&gt;Node11 -->
<g id="edge13" class="edge">
<title>Node1&#45;&gt;Node11</title>
<path fill="none" stroke="midnightblue" d="M1082.36,-95.07C1062.78,-79.77 1034.85,-59.51 1008,-45.5 997.13,-39.83 984.95,-34.77 973.34,-30.5"/>
<polygon fill="midnightblue" stroke="midnightblue" points="1080.2,-97.82 1090.21,-101.29 1084.54,-92.34 1080.2,-97.82"/>
</g>
<!-- Node3 -->
<g id="node3" class="node">
<title>Node3</title>
<g id="a_node3"><a xlink:href="../../d4/dee/classSearchProvider.html#a9e8f7e367904d424ac875e501844e830" target="_top" xlink:title=" ">
<polygon fill="white" stroke="black" points="0,-156 0,-175 110,-175 110,-156 0,-156"/>
<text text-anchor="middle" x="55" y="-163" font-family="Helvetica,sans-Serif" font-size="10.00">SearchProvider::Start</text>
</a>
</g>
</g>
<!-- Node2&#45;&gt;Node3 -->
<g id="edge2" class="edge">
<title>Node2&#45;&gt;Node3</title>
<path fill="none" stroke="midnightblue" d="M655.13,-196.54C517.24,-189.4 229.97,-174.51 110.23,-168.31"/>
<polygon fill="midnightblue" stroke="midnightblue" points="655.02,-200.04 665.19,-197.06 655.39,-193.05 655.02,-200.04"/>
</g>
<!-- Node5 -->
<g id="node5" class="node">
<title>Node5</title>
<g id="a_node5"><a xlink:href="../../d4/dee/classSearchProvider.html#a62390d46fb831c0919093798ab7bd52d" target="_top" xlink:title=" ">
<polygon fill="white" stroke="black" points="661,-126.5 661,-156.5 804,-156.5 804,-126.5 661,-126.5"/>
<text text-anchor="start" x="669" y="-144.5" font-family="Helvetica,sans-Serif" font-size="10.00">SearchProvider::OnURLLoad</text>
<text text-anchor="middle" x="732.5" y="-133.5" font-family="Helvetica,sans-Serif" font-size="10.00">Complete</text>
</a>
</g>
</g>
<!-- Node4&#45;&gt;Node5 -->
<g id="edge4" class="edge">
<title>Node4&#45;&gt;Node5</title>
<path fill="none" stroke="midnightblue" d="M856.8,-162.32C839.75,-159.44 821.34,-156.33 804.08,-153.42"/>
<polygon fill="midnightblue" stroke="midnightblue" points="856.21,-165.77 866.66,-163.99 857.38,-158.87 856.21,-165.77"/>
</g>
<!-- Node6 -->
<g id="node6" class="node">
<title>Node6</title>
<g id="a_node6"><a xlink:href="../../d4/dee/classSearchProvider.html#ac6613acbe0b4e879590cdb0d562999c9" target="_top" xlink:title=" ">
<polygon fill="white" stroke="black" points="468,-126.5 468,-156.5 623,-156.5 623,-126.5 468,-126.5"/>
<text text-anchor="start" x="476" y="-144.5" font-family="Helvetica,sans-Serif" font-size="10.00">SearchProvider::CreateSuggest</text>
<text text-anchor="middle" x="545.5" y="-133.5" font-family="Helvetica,sans-Serif" font-size="10.00">Loader</text>
</a>
</g>
</g>
<!-- Node5&#45;&gt;Node6 -->
<g id="edge5" class="edge">
<title>Node5&#45;&gt;Node6</title>
<path fill="none" stroke="midnightblue" d="M650.54,-141.5C641.41,-141.5 632.12,-141.5 623.04,-141.5"/>
<polygon fill="midnightblue" stroke="midnightblue" points="650.77,-145 660.77,-141.5 650.77,-138 650.77,-145"/>
</g>
<!-- Node6&#45;&gt;Node7 -->
<g id="edge6" class="edge">
<title>Node6&#45;&gt;Node7</title>
<path fill="none" stroke="midnightblue" d="M457.71,-130.07C448.37,-128.84 439.08,-127.61 430.32,-126.46"/>
<polygon fill="midnightblue" stroke="midnightblue" points="457.47,-133.57 467.84,-131.4 458.39,-126.63 457.47,-133.57"/>
</g>
<!-- Node8 -->
<g id="node8" class="node">
<title>Node8</title>
<g id="a_node8"><a xlink:href="../../d4/dee/classSearchProvider.html#af0c60cb234c815b05521a08434e7dcdc" target="_top" xlink:title=" ">
<polygon fill="white" stroke="black" points="146,-104.5 146,-134.5 287,-134.5 287,-104.5 146,-104.5"/>
<text text-anchor="start" x="154" y="-122.5" font-family="Helvetica,sans-Serif" font-size="10.00">SearchProvider::StartOrStop</text>
<text text-anchor="middle" x="216.5" y="-111.5" font-family="Helvetica,sans-Serif" font-size="10.00">SuggestQuery</text>
</a>
</g>
</g>
<!-- Node7&#45;&gt;Node8 -->
<g id="edge7" class="edge">
<title>Node7&#45;&gt;Node8</title>
<path fill="none" stroke="midnightblue" d="M312.74,-119.5C304.29,-119.5 295.59,-119.5 287.03,-119.5"/>
<polygon fill="midnightblue" stroke="midnightblue" points="312.89,-123 322.89,-119.5 312.89,-116 312.89,-123"/>
</g>
<!-- Node8&#45;&gt;Node3 -->
<g id="edge8" class="edge">
<title>Node8&#45;&gt;Node3</title>
<path fill="none" stroke="midnightblue" d="M153.39,-137.41C131.54,-143.71 107.83,-150.55 89.28,-155.9"/>
<polygon fill="midnightblue" stroke="midnightblue" points="154.64,-140.7 163.27,-134.56 152.7,-133.97 154.64,-140.7"/>
</g>
<!-- Node9&#45;&gt;Node8 -->
<g id="edge10" class="edge">
<title>Node9&#45;&gt;Node8</title>
<path fill="none" stroke="midnightblue" d="M460.04,-70.55C406.32,-81.39 337.6,-95.26 287.04,-105.46"/>
<polygon fill="midnightblue" stroke="midnightblue" points="460.78,-73.97 469.89,-68.56 459.39,-67.11 460.78,-73.97"/>
</g>
<!-- Node10&#45;&gt;Node5 -->
<g id="edge12" class="edge">
<title>Node10&#45;&gt;Node5</title>
<path fill="none" stroke="midnightblue" d="M829.77,-138.45C821.14,-138.73 812.49,-139 804.1,-139.26"/>
<polygon fill="midnightblue" stroke="midnightblue" points="830,-141.95 839.88,-138.13 829.78,-134.95 830,-141.95"/>
</g>
</g>
</svg>
        <g id="navigator" transform="translate(0 0)" fill="#404254">
                <rect fill="#f2f5e9" fill-opacity="0.5" stroke="#606060" stroke-width=".5" x="0" y="0" width="60" height="60"/>
                <use id="zoomplus" xlink:href="#zoomPlus" x="17" y="9" onmousedown="handleZoom(evt,'in')"/>
                <use id="zoomminus" xlink:href="#zoomMin" x="42" y="9" onmousedown="handleZoom(evt,'out')"/>
                <use id="reset" xlink:href="#resetDef" x="30" y="36" onmousedown="handleReset()"/>
                <g id="arrowUp" xlink:href="#dirArrow" transform="translate(30 24)" onmousedown="handlePan(0,-1)">
                  <use xlink:href="#rim" fill="#404040">
                        <set attributeName="fill" to="#808080" begin="arrowUp.mouseover" end="arrowUp.mouseout"/>
                  </use>
                  <path fill="none" stroke="white" stroke-width="1.5" d="M0,-3.0v7 M-2.5,-0.5L0,-3.0L2.5,-0.5"/>
                </g>
                <g id="arrowRight" xlink:href="#dirArrow" transform="rotate(90) translate(36 -43)" onmousedown="handlePan(1,0)">
                  <use xlink:href="#rim" fill="#404040">
                        <set attributeName="fill" to="#808080" begin="arrowRight.mouseover" end="arrowRight.mouseout"/>
                  </use>
                  <path fill="none" stroke="white" stroke-width="1.5" d="M0,-3.0v7 M-2.5,-0.5L0,-3.0L2.5,-0.5"/>
                </g>
                <g id="arrowDown" xlink:href="#dirArrow" transform="rotate(180) translate(-30 -48)" onmousedown="handlePan(0,1)">
                  <use xlink:href="#rim" fill="#404040">
                        <set attributeName="fill" to="#808080" begin="arrowDown.mouseover" end="arrowDown.mouseout"/>
                  </use>
                  <path fill="none" stroke="white" stroke-width="1.5" d="M0,-3.0v7 M-2.5,-0.5L0,-3.0L2.5,-0.5"/>
                </g>
                <g id="arrowLeft" xlink:href="#dirArrow" transform="rotate(270) translate(-36 17)" onmousedown="handlePan(-1,0)">
                  <use xlink:href="#rim" fill="#404040">
                        <set attributeName="fill" to="#808080" begin="arrowLeft.mouseover" end="arrowLeft.mouseout"/>
                  </use>
                  <path fill="none" stroke="white" stroke-width="1.5" d="M0,-3.0v7 M-2.5,-0.5L0,-3.0L2.5,-0.5"/>
                </g>
        </g>
        <svg viewBox="0 0 15 15" width="100%" height="30px" preserveAspectRatio="xMaxYMin meet">
         <g id="arrow_out" transform="scale(0.3 0.3)">
          <a xlink:href="classSearchProvider_1_1Providers_a28f7e857e752c6c028afa37541afe766_icgraph_org.svg" target="_base">
           <rect id="button" ry="5" rx="5" y="6" x="6" height="38" width="38"
                fill="#f2f5e9" fill-opacity="0.5" stroke="#606060" stroke-width="1.0"/>
           <path id="arrow"
             d="M 11.500037,31.436501 C 11.940474,20.09759 22.043105,11.32322 32.158766,21.979434 L 37.068811,17.246167 C 37.068811,17.246167 37.088388,32 37.088388,32 L 22.160133,31.978069 C 22.160133,31.978069 26.997745,27.140456 26.997745,27.140456 C 18.528582,18.264221 13.291696,25.230495 11.500037,31.436501 z"
             style="fill:#404040;"/>
          </a>
         </g>
        </svg>
</svg>
