<?xml version="1.0" encoding="UTF-8" standalone="no"?>
<!DOCTYPE svg PUBLIC "-//W3C//DTD SVG 1.1//EN"
 "http://www.w3.org/Graphics/SVG/1.1/DTD/svg11.dtd">
<!-- Generated by graphviz version 2.43.0 (0)
 -->
<!-- Title: SearchProvider::Providers::GetKeywordProviderURL Pages: 1 -->
<svg width="1972pt" height="517pt"
 viewBox="0.00 0.00 1972.00 517.47" xmlns="http://www.w3.org/2000/svg" xmlns:xlink="http://www.w3.org/1999/xlink">
<g id="graph0" class="graph" transform="scale(1 1) rotate(0) translate(4 513.47)">
<title>SearchProvider::Providers::GetKeywordProviderURL</title>
<polygon fill="white" stroke="transparent" points="-4,4 -4,-513.47 1968,-513.47 1968,4 -4,4"/>
<!-- Node1 -->
<g id="node1" class="node">
<title>Node1</title>
<g id="a_node1"><a xlink:title=" ">
<polygon fill="#bfbfbf" stroke="black" points="1831,-264.94 1831,-294.94 1964,-294.94 1964,-264.94 1831,-264.94"/>
<text text-anchor="start" x="1839" y="-282.94" font-family="Helvetica,sans-Serif" font-size="10.00">SearchProvider::Providers</text>
<text text-anchor="middle" x="1897.5" y="-271.94" font-family="Helvetica,sans-Serif" font-size="10.00">::GetKeywordProviderURL</text>
</a>
</g>
</g>
<!-- Node2 -->
<g id="node2" class="node">
<title>Node2</title>
<g id="a_node2"><a xlink:href="../../d4/dee/classSearchProvider.html#a2ec5ec7235a847611a7e79a87625eb7b" target="_top" xlink:title=" ">
<polygon fill="white" stroke="black" points="1447.5,-308.94 1447.5,-338.94 1590.5,-338.94 1590.5,-308.94 1447.5,-308.94"/>
<text text-anchor="start" x="1455.5" y="-326.94" font-family="Helvetica,sans-Serif" font-size="10.00">SearchProvider::AddSuggest</text>
<text text-anchor="middle" x="1519" y="-315.94" font-family="Helvetica,sans-Serif" font-size="10.00">ResultsToMap</text>
</a>
</g>
</g>
<!-- Node1&#45;&gt;Node2 -->
<g id="edge1" class="edge">
<title>Node1&#45;&gt;Node2</title>
<path fill="none" stroke="midnightblue" d="M1820.64,-290.65C1812,-291.8 1803.31,-292.92 1795,-293.94 1725.65,-302.51 1646.3,-311.03 1590.71,-316.79"/>
<polygon fill="midnightblue" stroke="midnightblue" points="1821.3,-294.09 1830.74,-289.29 1820.37,-287.15 1821.3,-294.09"/>
</g>
<!-- Node3 -->
<g id="node3" class="node">
<title>Node3</title>
<g id="a_node3"><a xlink:href="../../d4/dee/classSearchProvider.html#a0399169b208c94d4599111517f9abf7f" target="_top" xlink:title=" ">
<polygon fill="white" stroke="black" points="1246,-308.94 1246,-338.94 1404,-338.94 1404,-308.94 1246,-308.94"/>
<text text-anchor="start" x="1254" y="-326.94" font-family="Helvetica,sans-Serif" font-size="10.00">SearchProvider::ConvertResults</text>
<text text-anchor="middle" x="1325" y="-315.94" font-family="Helvetica,sans-Serif" font-size="10.00">ToAutocompleteMatches</text>
</a>
</g>
</g>
<!-- Node1&#45;&gt;Node3 -->
<g id="edge18" class="edge">
<title>Node1&#45;&gt;Node3</title>
<path fill="none" stroke="midnightblue" d="M1820.62,-279.48C1729.77,-279.8 1573.19,-283.12 1440,-299.94 1423.14,-302.07 1405.08,-305.39 1388.41,-308.88"/>
<polygon fill="midnightblue" stroke="midnightblue" points="1820.83,-282.98 1830.83,-279.46 1820.82,-275.98 1820.83,-282.98"/>
</g>
<!-- Node4 -->
<g id="node4" class="node">
<title>Node4</title>
<g id="a_node4"><a xlink:href="../../d4/dee/classSearchProvider.html#a9616ba802ad8e814267f9e3eb5096006" target="_top" xlink:title=" ">
<polygon fill="white" stroke="black" points="1037,-352.44 1037,-371.44 1210,-371.44 1210,-352.44 1037,-352.44"/>
<text text-anchor="middle" x="1123.5" y="-359.44" font-family="Helvetica,sans-Serif" font-size="10.00">SearchProvider::EnforceConstraints</text>
</a>
</g>
</g>
<!-- Node1&#45;&gt;Node4 -->
<g id="edge21" class="edge">
<title>Node1&#45;&gt;Node4</title>
<path fill="none" stroke="midnightblue" d="M1883.41,-303.97C1866.9,-331.49 1835.69,-375.19 1795,-393.94 1686.91,-443.76 1324.48,-393.71 1182.37,-371.45"/>
<polygon fill="midnightblue" stroke="midnightblue" points="1886.64,-305.38 1888.63,-294.98 1880.58,-301.87 1886.64,-305.38"/>
</g>
<!-- Node6 -->
<g id="node6" class="node">
<title>Node6</title>
<g id="a_node6"><a xlink:href="../../d4/dee/classSearchProvider.html#ac19ab2526055b301d5a3dde7889895eb" target="_top" xlink:title=" ">
<polygon fill="white" stroke="black" points="657.5,-405.94 657.5,-435.94 799.5,-435.94 799.5,-405.94 657.5,-405.94"/>
<text text-anchor="start" x="665.5" y="-423.94" font-family="Helvetica,sans-Serif" font-size="10.00">SearchProvider::OnTemplate</text>
<text text-anchor="middle" x="728.5" y="-412.94" font-family="Helvetica,sans-Serif" font-size="10.00">URLServiceChanged</text>
</a>
</g>
</g>
<!-- Node1&#45;&gt;Node6 -->
<g id="edge29" class="edge">
<title>Node1&#45;&gt;Node6</title>
<path fill="none" stroke="midnightblue" d="M1890.92,-304.96C1880.2,-346.52 1852.54,-429.08 1795,-467.94 1693.07,-536.78 1643,-498.94 1520,-498.94 1520,-498.94 1520,-498.94 1122.5,-498.94 994.51,-498.94 847.48,-458.65 774.9,-435.98"/>
<polygon fill="midnightblue" stroke="midnightblue" points="1894.35,-305.64 1893.34,-295.09 1887.56,-303.97 1894.35,-305.64"/>
</g>
<!-- Node9 -->
<g id="node9" class="node">
<title>Node9</title>
<g id="a_node9"><a xlink:href="../../d4/dee/classSearchProvider.html#a02c8b00f5d4da0ce7e5de29658483914" target="_top" xlink:title=" ">
<polygon fill="white" stroke="black" points="323,-112.44 323,-131.44 430,-131.44 430,-112.44 323,-112.44"/>
<text text-anchor="middle" x="376.5" y="-119.44" font-family="Helvetica,sans-Serif" font-size="10.00">SearchProvider::Run</text>
</a>
</g>
</g>
<!-- Node1&#45;&gt;Node9 -->
<g id="edge32" class="edge">
<title>Node1&#45;&gt;Node9</title>
<path fill="none" stroke="midnightblue" d="M1883.91,-255.82C1867.55,-227.13 1836.14,-180.2 1795,-156.94 1687.42,-96.14 1643.57,-115.94 1520,-115.94 1520,-115.94 1520,-115.94 1324,-115.94 983.23,-115.94 573.46,-119.88 430.09,-121.38"/>
<polygon fill="midnightblue" stroke="midnightblue" points="1880.97,-257.74 1888.87,-264.8 1887.09,-254.35 1880.97,-257.74"/>
</g>
<!-- Node12 -->
<g id="node12" class="node">
<title>Node12</title>
<g id="a_node12"><a xlink:href="../../d4/dee/classSearchProvider.html#a878a5cb4b651cba06a70356c08d9ef22" target="_top" xlink:title=" ">
<polygon fill="white" stroke="black" points="1634,-220.94 1634,-250.94 1795,-250.94 1795,-220.94 1634,-220.94"/>
<text text-anchor="start" x="1642" y="-238.94" font-family="Helvetica,sans-Serif" font-size="10.00">SearchProvider::AddTransformed</text>
<text text-anchor="middle" x="1714.5" y="-227.94" font-family="Helvetica,sans-Serif" font-size="10.00">HistoryResultsToMap</text>
</a>
</g>
</g>
<!-- Node1&#45;&gt;Node12 -->
<g id="edge13" class="edge">
<title>Node1&#45;&gt;Node12</title>
<path fill="none" stroke="midnightblue" d="M1824.57,-262.46C1808.93,-258.66 1792.52,-254.67 1777.31,-250.97"/>
<polygon fill="midnightblue" stroke="midnightblue" points="1824.17,-265.96 1834.72,-264.93 1825.83,-259.16 1824.17,-265.96"/>
</g>
<!-- Node15 -->
<g id="node15" class="node">
<title>Node15</title>
<g id="a_node15"><a xlink:href="../../d4/dee/classSearchProvider.html#a977f6c76178ac46bddb2a7c12b6ddf4d" target="_top" xlink:title=" ">
<polygon fill="white" stroke="black" points="1258,-14.94 1258,-44.94 1392,-44.94 1392,-14.94 1258,-14.94"/>
<text text-anchor="start" x="1266" y="-32.94" font-family="Helvetica,sans-Serif" font-size="10.00">SearchProvider::DoHistory</text>
<text text-anchor="middle" x="1325" y="-21.94" font-family="Helvetica,sans-Serif" font-size="10.00">Query</text>
</a>
</g>
</g>
<!-- Node1&#45;&gt;Node15 -->
<g id="edge19" class="edge">
<title>Node1&#45;&gt;Node15</title>
<path fill="none" stroke="midnightblue" d="M1893.05,-254.88C1885.13,-208.13 1861,-108.27 1795,-62.94 1673.38,20.58 1489.7,2.61 1392.22,-15.17"/>
<polygon fill="midnightblue" stroke="midnightblue" points="1889.59,-255.46 1894.61,-264.79 1896.51,-254.37 1889.59,-255.46"/>
</g>
<!-- Node16 -->
<g id="node16" class="node">
<title>Node16</title>
<g id="a_node16"><a xlink:href="../../d4/dee/classSearchProvider.html#ad4147d9489eca6c81d35e821d3e6918c" target="_top" xlink:title=" ">
<polygon fill="white" stroke="black" points="836,-144.44 836,-163.44 1001,-163.44 1001,-144.44 836,-144.44"/>
<text text-anchor="middle" x="918.5" y="-151.44" font-family="Helvetica,sans-Serif" font-size="10.00">SearchProvider::GetTemplateURL</text>
</a>
</g>
</g>
<!-- Node1&#45;&gt;Node16 -->
<g id="edge22" class="edge">
<title>Node1&#45;&gt;Node16</title>
<path fill="none" stroke="midnightblue" d="M1871.23,-258.59C1851.64,-243.11 1823.15,-222.87 1795,-210.94 1680.07,-162.26 1644.82,-153.94 1520,-153.94 1520,-153.94 1520,-153.94 1324,-153.94 1212.17,-153.94 1082.94,-153.94 1001.24,-153.94"/>
<polygon fill="midnightblue" stroke="midnightblue" points="1869.08,-261.35 1879.06,-264.9 1873.47,-255.9 1869.08,-261.35"/>
</g>
<!-- Node17 -->
<g id="node17" class="node">
<title>Node17</title>
<g id="a_node17"><a xlink:href="../../d4/dee/classSearchProvider.html#a653124bafb14a2271662cc81d572a94d" target="_top" xlink:title=" ">
<polygon fill="white" stroke="black" points="1044,-56.94 1044,-86.94 1203,-86.94 1203,-56.94 1044,-56.94"/>
<text text-anchor="start" x="1052" y="-74.94" font-family="Helvetica,sans-Serif" font-size="10.00">SearchProvider::IsQuerySuitable</text>
<text text-anchor="middle" x="1123.5" y="-63.94" font-family="Helvetica,sans-Serif" font-size="10.00">ForSuggest</text>
</a>
</g>
</g>
<!-- Node1&#45;&gt;Node17 -->
<g id="edge24" class="edge">
<title>Node1&#45;&gt;Node17</title>
<path fill="none" stroke="midnightblue" d="M1890.53,-254.96C1879.42,-214.69 1851.42,-136.43 1795,-101.94 1697.88,-42.58 1358.47,-56.35 1203.16,-66.21"/>
<polygon fill="midnightblue" stroke="midnightblue" points="1887.18,-256.01 1893.11,-264.79 1893.95,-254.23 1887.18,-256.01"/>
</g>
<!-- Node18 -->
<g id="node18" class="node">
<title>Node18</title>
<g id="a_node18"><a xlink:href="../../d4/dee/classSearchProvider.html#a2413b664cb548628ea5eba7e9e8cdc7e" target="_top" xlink:title=" ">
<polygon fill="white" stroke="black" points="1646.5,-353.94 1646.5,-383.94 1782.5,-383.94 1782.5,-353.94 1646.5,-353.94"/>
<text text-anchor="start" x="1654.5" y="-371.94" font-family="Helvetica,sans-Serif" font-size="10.00">SearchProvider::Navigation</text>
<text text-anchor="middle" x="1714.5" y="-360.94" font-family="Helvetica,sans-Serif" font-size="10.00">ToMatch</text>
</a>
</g>
</g>
<!-- Node1&#45;&gt;Node18 -->
<g id="edge26" class="edge">
<title>Node1&#45;&gt;Node18</title>
<path fill="none" stroke="midnightblue" d="M1861.36,-300.02C1842.01,-310.82 1817.43,-324.1 1795,-334.94 1781.35,-341.54 1766.1,-348.23 1752.63,-353.9"/>
<polygon fill="midnightblue" stroke="midnightblue" points="1863.13,-303.05 1870.14,-295.1 1859.7,-296.94 1863.13,-303.05"/>
</g>
<!-- Node20 -->
<g id="node20" class="node">
<title>Node20</title>
<g id="a_node20"><a xlink:href="../../d4/dee/classSearchProvider.html#a5b30421b37eae04800b4d4f33d94e19c" target="_top" xlink:title=" ">
<polygon fill="white" stroke="black" points="1257,-439.94 1257,-469.94 1393,-469.94 1393,-439.94 1257,-439.94"/>
<text text-anchor="start" x="1265" y="-457.94" font-family="Helvetica,sans-Serif" font-size="10.00">SearchProvider::PersistTop</text>
<text text-anchor="middle" x="1325" y="-446.94" font-family="Helvetica,sans-Serif" font-size="10.00">Suggestions</text>
</a>
</g>
</g>
<!-- Node1&#45;&gt;Node20 -->
<g id="edge30" class="edge">
<title>Node1&#45;&gt;Node20</title>
<path fill="none" stroke="midnightblue" d="M1887.9,-304.97C1874.33,-340.15 1844.29,-403.05 1795,-430.94 1667.99,-502.83 1489.3,-485.92 1393.3,-469.25"/>
<polygon fill="midnightblue" stroke="midnightblue" points="1891.24,-306.02 1891.44,-295.43 1884.68,-303.58 1891.24,-306.02"/>
</g>
<!-- Node2&#45;&gt;Node3 -->
<g id="edge2" class="edge">
<title>Node2&#45;&gt;Node3</title>
<path fill="none" stroke="midnightblue" d="M1437.03,-323.94C1426.19,-323.94 1415.09,-323.94 1404.29,-323.94"/>
<polygon fill="midnightblue" stroke="midnightblue" points="1437.32,-327.45 1447.32,-323.94 1437.32,-320.45 1437.32,-327.45"/>
</g>
<!-- Node3&#45;&gt;Node4 -->
<g id="edge3" class="edge">
<title>Node3&#45;&gt;Node4</title>
<path fill="none" stroke="midnightblue" d="M1235.79,-340.75C1214.74,-344.76 1193,-348.9 1174.38,-352.44"/>
<polygon fill="midnightblue" stroke="midnightblue" points="1236.56,-344.16 1245.72,-338.85 1235.25,-337.29 1236.56,-344.16"/>
</g>
<!-- Node5 -->
<g id="node5" class="node">
<title>Node5</title>
<g id="a_node5"><a xlink:href="../../d4/dee/classSearchProvider.html#a2069cdad12e1ef540aead34c19af5128" target="_top" xlink:title=" ">
<polygon fill="white" stroke="black" points="839.5,-333.44 839.5,-352.44 997.5,-352.44 997.5,-333.44 839.5,-333.44"/>
<text text-anchor="middle" x="918.5" y="-340.44" font-family="Helvetica,sans-Serif" font-size="10.00">SearchProvider::UpdateMatches</text>
</a>
</g>
</g>
<!-- Node3&#45;&gt;Node5 -->
<g id="edge12" class="edge">
<title>Node3&#45;&gt;Node5</title>
<path fill="none" stroke="midnightblue" d="M1235.27,-328.11C1164.31,-331.45 1065.79,-336.07 997.75,-339.27"/>
<polygon fill="midnightblue" stroke="midnightblue" points="1235.7,-331.6 1245.53,-327.63 1235.38,-324.6 1235.7,-331.6"/>
</g>
<!-- Node4&#45;&gt;Node5 -->
<g id="edge4" class="edge">
<title>Node4&#45;&gt;Node5</title>
<path fill="none" stroke="midnightblue" d="M1026.88,-353C1017.14,-352.08 1007.32,-351.16 997.79,-350.27"/>
<polygon fill="midnightblue" stroke="midnightblue" points="1026.72,-356.5 1037,-353.94 1027.37,-349.53 1026.72,-356.5"/>
</g>
<!-- Node5&#45;&gt;Node6 -->
<g id="edge5" class="edge">
<title>Node5&#45;&gt;Node6</title>
<path fill="none" stroke="midnightblue" d="M885.2,-356.35C852.06,-370.1 800.58,-391.45 765.99,-405.81"/>
<polygon fill="midnightblue" stroke="midnightblue" points="886.55,-359.57 894.45,-352.51 883.87,-353.11 886.55,-359.57"/>
</g>
<!-- Node7 -->
<g id="node7" class="node">
<title>Node7</title>
<g id="a_node7"><a xlink:href="../../d4/dee/classSearchProvider.html#a62390d46fb831c0919093798ab7bd52d" target="_top" xlink:title=" ">
<polygon fill="white" stroke="black" points="657,-138.94 657,-168.94 800,-168.94 800,-138.94 657,-138.94"/>
<text text-anchor="start" x="665" y="-156.94" font-family="Helvetica,sans-Serif" font-size="10.00">SearchProvider::OnURLLoad</text>
<text text-anchor="middle" x="728.5" y="-145.94" font-family="Helvetica,sans-Serif" font-size="10.00">Complete</text>
</a>
</g>
</g>
<!-- Node5&#45;&gt;Node7 -->
<g id="edge6" class="edge">
<title>Node5&#45;&gt;Node7</title>
<path fill="none" stroke="midnightblue" d="M900.54,-325.9C864.16,-289.33 779.14,-203.84 744.54,-169.07"/>
<polygon fill="midnightblue" stroke="midnightblue" points="898.38,-328.69 907.92,-333.31 903.35,-323.75 898.38,-328.69"/>
</g>
<!-- Node11 -->
<g id="node11" class="node">
<title>Node11</title>
<g id="a_node11"><a xlink:href="../../d4/dee/classSearchProvider.html#a9e8f7e367904d424ac875e501844e830" target="_top" xlink:title=" ">
<polygon fill="white" stroke="black" points="0,-134.44 0,-153.44 110,-153.44 110,-134.44 0,-134.44"/>
<text text-anchor="middle" x="55" y="-141.44" font-family="Helvetica,sans-Serif" font-size="10.00">SearchProvider::Start</text>
</a>
</g>
</g>
<!-- Node5&#45;&gt;Node11 -->
<g id="edge11" class="edge">
<title>Node5&#45;&gt;Node11</title>
<path fill="none" stroke="midnightblue" d="M881.74,-329.99C815.93,-307.34 670.81,-262.94 544.5,-262.94 544.5,-262.94 544.5,-262.94 375.5,-262.94 250.31,-262.94 113.9,-181.72 70.26,-153.48"/>
<polygon fill="midnightblue" stroke="midnightblue" points="880.64,-333.31 891.23,-333.3 882.94,-326.7 880.64,-333.31"/>
</g>
<!-- Node8 -->
<g id="node8" class="node">
<title>Node8</title>
<g id="a_node8"><a xlink:href="../../d4/dee/classSearchProvider.html#ac6613acbe0b4e879590cdb0d562999c9" target="_top" xlink:title=" ">
<polygon fill="white" stroke="black" points="466,-138.94 466,-168.94 621,-168.94 621,-138.94 466,-138.94"/>
<text text-anchor="start" x="474" y="-156.94" font-family="Helvetica,sans-Serif" font-size="10.00">SearchProvider::CreateSuggest</text>
<text text-anchor="middle" x="543.5" y="-145.94" font-family="Helvetica,sans-Serif" font-size="10.00">Loader</text>
</a>
</g>
</g>
<!-- Node7&#45;&gt;Node8 -->
<g id="edge7" class="edge">
<title>Node7&#45;&gt;Node8</title>
<path fill="none" stroke="midnightblue" d="M646.53,-153.94C638.09,-153.94 629.53,-153.94 621.14,-153.94"/>
<polygon fill="midnightblue" stroke="midnightblue" points="646.75,-157.45 656.75,-153.94 646.75,-150.45 646.75,-157.45"/>
</g>
<!-- Node8&#45;&gt;Node9 -->
<g id="edge8" class="edge">
<title>Node8&#45;&gt;Node9</title>
<path fill="none" stroke="midnightblue" d="M455.81,-137.13C445.82,-135.2 435.92,-133.28 426.69,-131.49"/>
<polygon fill="midnightblue" stroke="midnightblue" points="455.31,-140.6 465.8,-139.07 456.65,-133.73 455.31,-140.6"/>
</g>
<!-- Node10 -->
<g id="node10" class="node">
<title>Node10</title>
<g id="a_node10"><a xlink:href="../../d4/dee/classSearchProvider.html#af0c60cb234c815b05521a08434e7dcdc" target="_top" xlink:title=" ">
<polygon fill="white" stroke="black" points="146,-106.94 146,-136.94 287,-136.94 287,-106.94 146,-106.94"/>
<text text-anchor="start" x="154" y="-124.94" font-family="Helvetica,sans-Serif" font-size="10.00">SearchProvider::StartOrStop</text>
<text text-anchor="middle" x="216.5" y="-113.94" font-family="Helvetica,sans-Serif" font-size="10.00">SuggestQuery</text>
</a>
</g>
</g>
<!-- Node9&#45;&gt;Node10 -->
<g id="edge9" class="edge">
<title>Node9&#45;&gt;Node10</title>
<path fill="none" stroke="midnightblue" d="M312.74,-121.94C304.29,-121.94 295.59,-121.94 287.03,-121.94"/>
<polygon fill="midnightblue" stroke="midnightblue" points="312.89,-125.45 322.89,-121.94 312.89,-118.45 312.89,-125.45"/>
</g>
<!-- Node10&#45;&gt;Node11 -->
<g id="edge10" class="edge">
<title>Node10&#45;&gt;Node11</title>
<path fill="none" stroke="midnightblue" d="M135.47,-132.98C126.87,-134.17 118.27,-135.36 110.08,-136.49"/>
<polygon fill="midnightblue" stroke="midnightblue" points="136.11,-136.43 145.54,-131.59 135.16,-129.49 136.11,-136.43"/>
</g>
<!-- Node13 -->
<g id="node13" class="node">
<title>Node13</title>
<g id="a_node13"><a xlink:href="../../d4/dee/classSearchProvider.html#a3d5b064d07f4b9d0b6540408dd7df1b6" target="_top" xlink:title=" ">
<polygon fill="white" stroke="black" points="1440,-220.94 1440,-250.94 1598,-250.94 1598,-220.94 1440,-220.94"/>
<text text-anchor="start" x="1448" y="-238.94" font-family="Helvetica,sans-Serif" font-size="10.00">SearchProvider::AddRawHistory</text>
<text text-anchor="middle" x="1519" y="-227.94" font-family="Helvetica,sans-Serif" font-size="10.00">ResultsToMap</text>
</a>
</g>
</g>
<!-- Node12&#45;&gt;Node13 -->
<g id="edge14" class="edge">
<title>Node12&#45;&gt;Node13</title>
<path fill="none" stroke="midnightblue" d="M1623.95,-235.94C1615.39,-235.94 1606.74,-235.94 1598.3,-235.94"/>
<polygon fill="midnightblue" stroke="midnightblue" points="1623.96,-239.45 1633.96,-235.94 1623.96,-232.45 1623.96,-239.45"/>
</g>
<!-- Node14 -->
<g id="node14" class="node">
<title>Node14</title>
<g id="a_node14"><a xlink:href="../../d4/dee/classSearchProvider.html#ae275a6523093e88c10cf383628091597" target="_top" xlink:title=" ">
<polygon fill="white" stroke="black" points="470.5,-187.94 470.5,-217.94 616.5,-217.94 616.5,-187.94 470.5,-187.94"/>
<text text-anchor="start" x="478.5" y="-205.94" font-family="Helvetica,sans-Serif" font-size="10.00">SearchProvider::FindAnswers</text>
<text text-anchor="middle" x="543.5" y="-194.94" font-family="Helvetica,sans-Serif" font-size="10.00">PrefetchData</text>
</a>
</g>
</g>
<!-- Node12&#45;&gt;Node14 -->
<g id="edge16" class="edge">
<title>Node12&#45;&gt;Node14</title>
<path fill="none" stroke="midnightblue" d="M1645.41,-218.78C1629.92,-215.55 1613.47,-212.66 1598,-210.94 1231.01,-170.27 787.7,-188.77 616.65,-198.41"/>
<polygon fill="midnightblue" stroke="midnightblue" points="1644.91,-222.25 1655.42,-220.94 1646.38,-215.41 1644.91,-222.25"/>
</g>
<!-- Node13&#45;&gt;Node3 -->
<g id="edge15" class="edge">
<title>Node13&#45;&gt;Node3</title>
<path fill="none" stroke="midnightblue" d="M1467.05,-254.67C1457.97,-258.25 1448.66,-262.09 1440,-265.94 1409.98,-279.31 1376.57,-296.61 1353.72,-308.82"/>
<polygon fill="midnightblue" stroke="midnightblue" points="1468.33,-257.92 1476.38,-251.04 1465.79,-251.4 1468.33,-257.92"/>
</g>
<!-- Node14&#45;&gt;Node11 -->
<g id="edge17" class="edge">
<title>Node14&#45;&gt;Node11</title>
<path fill="none" stroke="midnightblue" d="M460.42,-192.99C360.74,-180.9 195.4,-160.85 110.3,-150.53"/>
<polygon fill="midnightblue" stroke="midnightblue" points="460.1,-196.48 470.45,-194.21 460.95,-189.53 460.1,-196.48"/>
</g>
<!-- Node15&#45;&gt;Node11 -->
<g id="edge20" class="edge">
<title>Node15&#45;&gt;Node11</title>
<path fill="none" stroke="midnightblue" d="M1247.64,-29.34C1166.31,-28.75 1033.82,-27.94 919.5,-27.94 919.5,-27.94 919.5,-27.94 375.5,-27.94 251.28,-27.94 115.32,-106.37 70.92,-134.25"/>
<polygon fill="midnightblue" stroke="midnightblue" points="1247.76,-32.84 1257.79,-29.42 1247.81,-25.84 1247.76,-32.84"/>
</g>
<!-- Node16&#45;&gt;Node7 -->
<g id="edge23" class="edge">
<title>Node16&#45;&gt;Node7</title>
<path fill="none" stroke="midnightblue" d="M825.78,-153.94C817.17,-153.94 808.53,-153.94 800.16,-153.94"/>
<polygon fill="midnightblue" stroke="midnightblue" points="825.86,-157.45 835.86,-153.94 825.86,-150.45 825.86,-157.45"/>
</g>
<!-- Node17&#45;&gt;Node10 -->
<g id="edge25" class="edge">
<title>Node17&#45;&gt;Node10</title>
<path fill="none" stroke="midnightblue" d="M1033.35,-71.94C953.7,-71.94 833.81,-71.94 729.5,-71.94 729.5,-71.94 729.5,-71.94 542.5,-71.94 449.45,-71.94 343.13,-92.22 278.17,-106.94"/>
<polygon fill="midnightblue" stroke="midnightblue" points="1033.83,-75.45 1043.83,-71.94 1033.83,-68.45 1033.83,-75.45"/>
</g>
<!-- Node19 -->
<g id="node19" class="node">
<title>Node19</title>
<g id="a_node19"><a xlink:href="../../d4/dee/classSearchProvider.html#a72255ff8ee607869c072a7680f14aff4" target="_top" xlink:title=" ">
<polygon fill="white" stroke="black" points="1442.5,-357.94 1442.5,-387.94 1595.5,-387.94 1595.5,-357.94 1442.5,-357.94"/>
<text text-anchor="start" x="1450.5" y="-375.94" font-family="Helvetica,sans-Serif" font-size="10.00">SearchProvider::AddNavigation</text>
<text text-anchor="middle" x="1519" y="-364.94" font-family="Helvetica,sans-Serif" font-size="10.00">ResultsToMatches</text>
</a>
</g>
</g>
<!-- Node18&#45;&gt;Node19 -->
<g id="edge27" class="edge">
<title>Node18&#45;&gt;Node19</title>
<path fill="none" stroke="midnightblue" d="M1636.25,-370.54C1622.87,-370.82 1608.97,-371.11 1595.63,-371.38"/>
<polygon fill="midnightblue" stroke="midnightblue" points="1636.44,-374.04 1646.37,-370.33 1636.3,-367.04 1636.44,-374.04"/>
</g>
<!-- Node19&#45;&gt;Node3 -->
<g id="edge28" class="edge">
<title>Node19&#45;&gt;Node3</title>
<path fill="none" stroke="midnightblue" d="M1449.23,-355.4C1428.15,-350.01 1405.15,-344.15 1384.8,-338.95"/>
<polygon fill="midnightblue" stroke="midnightblue" points="1448.53,-358.83 1459.09,-357.91 1450.26,-352.05 1448.53,-358.83"/>
</g>
<!-- Node20&#45;&gt;Node5 -->
<g id="edge31" class="edge">
<title>Node20&#45;&gt;Node5</title>
<path fill="none" stroke="midnightblue" d="M1251.44,-437.52C1193.22,-423.23 1109.52,-402 1037,-380.94 1006.12,-371.98 971.08,-360.47 947.37,-352.48"/>
<polygon fill="midnightblue" stroke="midnightblue" points="1250.73,-440.95 1261.28,-439.93 1252.4,-434.15 1250.73,-440.95"/>
</g>
</g>
</svg>
