<?xml version="1.0" encoding="UTF-8" standalone="no"?>
<!DOCTYPE svg PUBLIC "-//W3C//DTD SVG 1.1//EN"
 "http://www.w3.org/Graphics/SVG/1.1/DTD/svg11.dtd">
<!-- Generated by graphviz version 2.43.0 (0)
 -->
<!-- Title: SearchProvider::Providers::keyword_provider Pages: 1 -->
<!--zoomable 272 -->
<svg id="main" version="1.1" xmlns="http://www.w3.org/2000/svg" xmlns:xlink="http://www.w3.org/1999/xlink" xml:space="preserve" onload="init(evt)">
<style type="text/css"><![CDATA[
.edge:hover path { stroke: red; }
.edge:hover polygon { stroke: red; fill: red; }
]]></style>
<script type="text/javascript"><![CDATA[
var edges = document.getElementsByTagName('g');
if (edges && edges.length) {
  for (var i=0;i<edges.length;i++) {
    if (edges[i].id.substr(0,4)=='edge') {
      edges[i].setAttribute('class','edge');
    }
  }
}
]]></script>
        <defs>
                <circle id="rim" cx="0" cy="0" r="7"/>
                <circle id="rim2" cx="0" cy="0" r="3.5"/>
                <g id="zoomPlus">
                        <use xlink:href="#rim" fill="#404040">
                                <set attributeName="fill" to="#808080" begin="zoomplus.mouseover" end="zoomplus.mouseout"/>
                        </use>
                        <path d="M-4,0h8M0,-4v8" fill="none" stroke="white" stroke-width="1.5" pointer-events="none"/>
                </g>
                <g id="zoomMin">
                        <use xlink:href="#rim" fill="#404040">
                                <set attributeName="fill" to="#808080" begin="zoomminus.mouseover" end="zoomminus.mouseout"/>
                        </use>
                        <path d="M-4,0h8" fill="none" stroke="white" stroke-width="1.5" pointer-events="none"/>
                </g>
                <g id="dirArrow">
                        <path fill="none" stroke="white" stroke-width="1.5" d="M0,-3.0v7 M-2.5,-0.5L0,-3.0L2.5,-0.5"/>
                </g>
               <g id="resetDef">
                       <use xlink:href="#rim2" fill="#404040">
                               <set attributeName="fill" to="#808080" begin="reset.mouseover" end="reset.mouseout"/>
                       </use>
               </g>
        </defs>

<script type="text/javascript">
var viewWidth = 1928;
var viewHeight = 272;
var sectionId = 'dynsection-6';
</script>
<script xlink:href="../../svgpan.js"/>
<svg id="graph" class="graph">
<g id="viewport">
<title>SearchProvider::Providers::keyword_provider</title>
<polygon fill="white" stroke="transparent" points="-4,4 -4,-267.76 1924,-267.76 1924,4 -4,4"/>
<!-- Node1 -->
<g id="node1" class="node">
<title>Node1</title>
<g id="a_node1"><a xlink:title=" ">
<polygon fill="#bfbfbf" stroke="black" points="1789,-93.76 1789,-123.76 1920,-123.76 1920,-93.76 1789,-93.76"/>
<text text-anchor="start" x="1797" y="-111.76" font-family="Helvetica,sans-Serif" font-size="10.00">SearchProvider::Providers</text>
<text text-anchor="middle" x="1854.5" y="-100.76" font-family="Helvetica,sans-Serif" font-size="10.00">::keyword_provider</text>
</a>
</g>
</g>
<!-- Node2 -->
<g id="node2" class="node">
<title>Node2</title>
<g id="a_node2"><a xlink:href="../../d4/dee/classSearchProvider.html#ae8cdcda63a3af46b9366dc1c0189ed39" target="_top" xlink:title=" ">
<polygon fill="white" stroke="black" points="1617.5,-118.76 1617.5,-148.76 1748.5,-148.76 1748.5,-118.76 1617.5,-118.76"/>
<text text-anchor="start" x="1625.5" y="-136.76" font-family="Helvetica,sans-Serif" font-size="10.00">SearchProvider::Calculate</text>
<text text-anchor="middle" x="1683" y="-125.76" font-family="Helvetica,sans-Serif" font-size="10.00">RelevanceForVerbatim</text>
</a>
</g>
</g>
<!-- Node1&#45;&gt;Node2 -->
<g id="edge1" class="edge">
<title>Node1&#45;&gt;Node2</title>
<path fill="none" stroke="midnightblue" d="M1778.93,-119.76C1768.85,-121.25 1758.56,-122.76 1748.67,-124.22"/>
<polygon fill="midnightblue" stroke="midnightblue" points="1779.55,-123.21 1788.94,-118.28 1778.53,-116.28 1779.55,-123.21"/>
</g>
<!-- Node7 -->
<g id="node7" class="node">
<title>Node7</title>
<g id="a_node7"><a xlink:href="../../d4/dee/classSearchProvider.html#ac19ab2526055b301d5a3dde7889895eb" target="_top" xlink:title=" ">
<polygon fill="white" stroke="black" points="657.5,-194.76 657.5,-224.76 799.5,-224.76 799.5,-194.76 657.5,-194.76"/>
<text text-anchor="start" x="665.5" y="-212.76" font-family="Helvetica,sans-Serif" font-size="10.00">SearchProvider::OnTemplate</text>
<text text-anchor="middle" x="728.5" y="-201.76" font-family="Helvetica,sans-Serif" font-size="10.00">URLServiceChanged</text>
</a>
</g>
</g>
<!-- Node1&#45;&gt;Node7 -->
<g id="edge18" class="edge">
<title>Node1&#45;&gt;Node7</title>
<path fill="none" stroke="midnightblue" d="M1818.53,-128.7C1799.6,-138.83 1775.54,-150.68 1753,-158.76 1646.95,-196.78 1618.66,-215.76 1506,-215.76 1506,-215.76 1506,-215.76 1115.5,-215.76 1005.08,-215.76 876.92,-213.28 799.58,-211.5"/>
<polygon fill="midnightblue" stroke="midnightblue" points="1820.26,-131.74 1827.38,-123.89 1816.92,-125.59 1820.26,-131.74"/>
</g>
<!-- Node14 -->
<g id="node14" class="node">
<title>Node14</title>
<g id="a_node14"><a xlink:href="../../d1/de5/classSearchProvider_1_1Providers.html#acf9544e1fe34965e6a3354c02f99a60e" target="_top" xlink:title=" ">
<polygon fill="white" stroke="black" points="1051,-22.76 1051,-52.76 1182,-52.76 1182,-22.76 1051,-22.76"/>
<text text-anchor="start" x="1059" y="-40.76" font-family="Helvetica,sans-Serif" font-size="10.00">SearchProvider::Providers</text>
<text text-anchor="middle" x="1116.5" y="-29.76" font-family="Helvetica,sans-Serif" font-size="10.00">::equal</text>
</a>
</g>
</g>
<!-- Node1&#45;&gt;Node14 -->
<g id="edge16" class="edge">
<title>Node1&#45;&gt;Node14</title>
<path fill="none" stroke="midnightblue" d="M1830.55,-86.68C1811.49,-69.96 1782.77,-48.29 1753,-38.76 1553.09,25.25 1299.33,-5.33 1182.17,-25.26"/>
<polygon fill="midnightblue" stroke="midnightblue" points="1828.33,-89.39 1838.1,-93.49 1833.02,-84.2 1828.33,-89.39"/>
</g>
<!-- Node15 -->
<g id="node15" class="node">
<title>Node15</title>
<g id="a_node15"><a xlink:href="../../d1/de5/classSearchProvider_1_1Providers.html#ab287eb1e020e22d1336e5edc68eb5c80" target="_top" xlink:title=" ">
<polygon fill="white" stroke="black" points="840,-244.26 840,-263.26 990,-263.26 990,-244.26 840,-244.26"/>
<text text-anchor="middle" x="915" y="-251.26" font-family="Helvetica,sans-Serif" font-size="10.00">SearchProvider::Providers::set</text>
</a>
</g>
</g>
<!-- Node1&#45;&gt;Node15 -->
<g id="edge19" class="edge">
<title>Node1&#45;&gt;Node15</title>
<path fill="none" stroke="midnightblue" d="M1841.18,-132.84C1825.13,-161.42 1794.19,-207.93 1753,-229.76 1655.54,-281.4 1616.29,-253.76 1506,-253.76 1506,-253.76 1506,-253.76 1317,-253.76 1203,-253.76 1070.77,-253.76 990.28,-253.76"/>
<polygon fill="midnightblue" stroke="midnightblue" points="1844.34,-134.35 1846.05,-123.9 1838.19,-131.01 1844.34,-134.35"/>
</g>
<!-- Node16 -->
<g id="node16" class="node">
<title>Node16</title>
<g id="a_node16"><a xlink:href="../../d4/dee/classSearchProvider.html#a660ea741f820183309dff7b205a4f19c" target="_top" xlink:title=" ">
<polygon fill="white" stroke="black" points="1613,-69.76 1613,-99.76 1753,-99.76 1753,-69.76 1613,-69.76"/>
<text text-anchor="start" x="1621" y="-87.76" font-family="Helvetica,sans-Serif" font-size="10.00">SearchProvider::ShouldCurb</text>
<text text-anchor="middle" x="1683" y="-76.76" font-family="Helvetica,sans-Serif" font-size="10.00">DefaultSuggestions</text>
</a>
</g>
</g>
<!-- Node1&#45;&gt;Node16 -->
<g id="edge22" class="edge">
<title>Node1&#45;&gt;Node16</title>
<path fill="none" stroke="midnightblue" d="M1778.96,-98.21C1770.39,-96.99 1761.68,-95.76 1753.18,-94.56"/>
<polygon fill="midnightblue" stroke="midnightblue" points="1778.54,-101.68 1788.94,-99.62 1779.53,-94.75 1778.54,-101.68"/>
</g>
<!-- Node17 -->
<g id="node17" class="node">
<title>Node17</title>
<g id="a_node17"><a xlink:href="../../d4/dee/classSearchProvider.html#a9e1f1b81ddfa85db39cb68fcd3c8f472" target="_top" xlink:title=" ">
<polygon fill="white" stroke="black" points="1247.5,-50.26 1247.5,-69.26 1388.5,-69.26 1388.5,-50.26 1247.5,-50.26"/>
<text text-anchor="middle" x="1318" y="-57.26" font-family="Helvetica,sans-Serif" font-size="10.00">SearchProvider::SortResults</text>
</a>
</g>
</g>
<!-- Node1&#45;&gt;Node17 -->
<g id="edge24" class="edge">
<title>Node1&#45;&gt;Node17</title>
<path fill="none" stroke="midnightblue" d="M1821.43,-88.46C1802.35,-77.61 1777.22,-65.35 1753,-59.76 1627.27,-30.74 1475.55,-40.55 1388.86,-50.22"/>
<polygon fill="midnightblue" stroke="midnightblue" points="1819.88,-91.61 1830.28,-93.64 1823.42,-85.57 1819.88,-91.61"/>
</g>
<!-- Node3 -->
<g id="node3" class="node">
<title>Node3</title>
<g id="a_node3"><a xlink:href="../../d4/dee/classSearchProvider.html#a2a84d36eab5f6dc1cb378b22ef0d23e4" target="_top" xlink:title=" ">
<polygon fill="white" stroke="black" points="1433,-107.76 1433,-137.76 1577,-137.76 1577,-107.76 1433,-107.76"/>
<text text-anchor="start" x="1441" y="-125.76" font-family="Helvetica,sans-Serif" font-size="10.00">SearchProvider::GetVerbatim</text>
<text text-anchor="middle" x="1505" y="-114.76" font-family="Helvetica,sans-Serif" font-size="10.00">Relevance</text>
</a>
</g>
</g>
<!-- Node2&#45;&gt;Node3 -->
<g id="edge2" class="edge">
<title>Node2&#45;&gt;Node3</title>
<path fill="none" stroke="midnightblue" d="M1607.48,-129.1C1597.4,-128.47 1587.08,-127.83 1577.06,-127.2"/>
<polygon fill="midnightblue" stroke="midnightblue" points="1607.26,-132.6 1617.46,-129.73 1607.7,-125.61 1607.26,-132.6"/>
</g>
<!-- Node13 -->
<g id="node13" class="node">
<title>Node13</title>
<g id="a_node13"><a xlink:href="../../d4/dee/classSearchProvider.html#aedea42d1148132da397d83b3b563967b" target="_top" xlink:title=" ">
<polygon fill="white" stroke="black" points="1435,-156.76 1435,-186.76 1575,-186.76 1575,-156.76 1435,-156.76"/>
<text text-anchor="start" x="1443" y="-174.76" font-family="Helvetica,sans-Serif" font-size="10.00">SearchProvider::IsTopMatch</text>
<text text-anchor="middle" x="1505" y="-163.76" font-family="Helvetica,sans-Serif" font-size="10.00">SearchWithURLInput</text>
</a>
</g>
</g>
<!-- Node2&#45;&gt;Node13 -->
<g id="edge14" class="edge">
<title>Node2&#45;&gt;Node13</title>
<path fill="none" stroke="midnightblue" d="M1607.36,-149.88C1596.72,-152.17 1585.8,-154.53 1575.27,-156.81"/>
<polygon fill="midnightblue" stroke="midnightblue" points="1608.43,-153.23 1617.46,-147.69 1606.95,-146.38 1608.43,-153.23"/>
</g>
<!-- Node4 -->
<g id="node4" class="node">
<title>Node4</title>
<g id="a_node4"><a xlink:href="../../d4/dee/classSearchProvider.html#a0399169b208c94d4599111517f9abf7f" target="_top" xlink:title=" ">
<polygon fill="white" stroke="black" points="1239,-107.76 1239,-137.76 1397,-137.76 1397,-107.76 1239,-107.76"/>
<text text-anchor="start" x="1247" y="-125.76" font-family="Helvetica,sans-Serif" font-size="10.00">SearchProvider::ConvertResults</text>
<text text-anchor="middle" x="1318" y="-114.76" font-family="Helvetica,sans-Serif" font-size="10.00">ToAutocompleteMatches</text>
</a>
</g>
</g>
<!-- Node3&#45;&gt;Node4 -->
<g id="edge3" class="edge">
<title>Node3&#45;&gt;Node4</title>
<path fill="none" stroke="midnightblue" d="M1422.58,-122.76C1414.18,-122.76 1405.66,-122.76 1397.3,-122.76"/>
<polygon fill="midnightblue" stroke="midnightblue" points="1422.74,-126.26 1432.74,-122.76 1422.74,-119.26 1422.74,-126.26"/>
</g>
<!-- Node5 -->
<g id="node5" class="node">
<title>Node5</title>
<g id="a_node5"><a xlink:href="../../d4/dee/classSearchProvider.html#a9616ba802ad8e814267f9e3eb5096006" target="_top" xlink:title=" ">
<polygon fill="white" stroke="black" points="1030,-151.26 1030,-170.26 1203,-170.26 1203,-151.26 1030,-151.26"/>
<text text-anchor="middle" x="1116.5" y="-158.26" font-family="Helvetica,sans-Serif" font-size="10.00">SearchProvider::EnforceConstraints</text>
</a>
</g>
</g>
<!-- Node4&#45;&gt;Node5 -->
<g id="edge4" class="edge">
<title>Node4&#45;&gt;Node5</title>
<path fill="none" stroke="midnightblue" d="M1228.79,-139.56C1207.74,-143.57 1186,-147.71 1167.38,-151.26"/>
<polygon fill="midnightblue" stroke="midnightblue" points="1229.56,-142.98 1238.72,-137.67 1228.25,-136.1 1229.56,-142.98"/>
</g>
<!-- Node6 -->
<g id="node6" class="node">
<title>Node6</title>
<g id="a_node6"><a xlink:href="../../d4/dee/classSearchProvider.html#a2069cdad12e1ef540aead34c19af5128" target="_top" xlink:title=" ">
<polygon fill="white" stroke="black" points="836,-116.26 836,-135.26 994,-135.26 994,-116.26 836,-116.26"/>
<text text-anchor="middle" x="915" y="-123.26" font-family="Helvetica,sans-Serif" font-size="10.00">SearchProvider::UpdateMatches</text>
</a>
</g>
</g>
<!-- Node4&#45;&gt;Node6 -->
<g id="edge13" class="edge">
<title>Node4&#45;&gt;Node6</title>
<path fill="none" stroke="midnightblue" d="M1228.59,-123.42C1158.45,-123.95 1061.36,-124.67 994.07,-125.18"/>
<polygon fill="midnightblue" stroke="midnightblue" points="1228.76,-126.92 1238.73,-123.35 1228.71,-119.92 1228.76,-126.92"/>
</g>
<!-- Node5&#45;&gt;Node6 -->
<g id="edge5" class="edge">
<title>Node5&#45;&gt;Node6</title>
<path fill="none" stroke="midnightblue" d="M1051.08,-149.46C1024.99,-144.88 995.19,-139.65 970.24,-135.28"/>
<polygon fill="midnightblue" stroke="midnightblue" points="1050.79,-152.96 1061.25,-151.24 1052,-146.07 1050.79,-152.96"/>
</g>
<!-- Node6&#45;&gt;Node7 -->
<g id="edge6" class="edge">
<title>Node6&#45;&gt;Node7</title>
<path fill="none" stroke="midnightblue" d="M883.58,-139.61C850.22,-154.8 796.88,-179.09 762.52,-194.73"/>
<polygon fill="midnightblue" stroke="midnightblue" points="885.18,-142.73 892.84,-135.4 882.28,-136.35 885.18,-142.73"/>
</g>
<!-- Node8 -->
<g id="node8" class="node">
<title>Node8</title>
<g id="a_node8"><a xlink:href="../../d4/dee/classSearchProvider.html#a62390d46fb831c0919093798ab7bd52d" target="_top" xlink:title=" ">
<polygon fill="white" stroke="black" points="657,-66.76 657,-96.76 800,-96.76 800,-66.76 657,-66.76"/>
<text text-anchor="start" x="665" y="-84.76" font-family="Helvetica,sans-Serif" font-size="10.00">SearchProvider::OnURLLoad</text>
<text text-anchor="middle" x="728.5" y="-73.76" font-family="Helvetica,sans-Serif" font-size="10.00">Complete</text>
</a>
</g>
</g>
<!-- Node6&#45;&gt;Node8 -->
<g id="edge7" class="edge">
<title>Node6&#45;&gt;Node8</title>
<path fill="none" stroke="midnightblue" d="M864.17,-113.88C842.16,-108.63 816.03,-102.4 792.67,-96.83"/>
<polygon fill="midnightblue" stroke="midnightblue" points="863.43,-117.3 873.97,-116.21 865.05,-110.49 863.43,-117.3"/>
</g>
<!-- Node12 -->
<g id="node12" class="node">
<title>Node12</title>
<g id="a_node12"><a xlink:href="../../d4/dee/classSearchProvider.html#a9e8f7e367904d424ac875e501844e830" target="_top" xlink:title=" ">
<polygon fill="white" stroke="black" points="0,-94.26 0,-113.26 110,-113.26 110,-94.26 0,-94.26"/>
<text text-anchor="middle" x="55" y="-101.26" font-family="Helvetica,sans-Serif" font-size="10.00">SearchProvider::Start</text>
</a>
</g>
</g>
<!-- Node6&#45;&gt;Node12 -->
<g id="edge12" class="edge">
<title>Node6&#45;&gt;Node12</title>
<path fill="none" stroke="midnightblue" d="M825.47,-125.76C750.61,-125.76 640.54,-125.76 544.5,-125.76 544.5,-125.76 544.5,-125.76 375.5,-125.76 282.09,-125.76 173.68,-116.29 110.19,-109.77"/>
<polygon fill="midnightblue" stroke="midnightblue" points="825.79,-129.26 835.79,-125.76 825.79,-122.26 825.79,-129.26"/>
</g>
<!-- Node9 -->
<g id="node9" class="node">
<title>Node9</title>
<g id="a_node9"><a xlink:href="../../d4/dee/classSearchProvider.html#ac6613acbe0b4e879590cdb0d562999c9" target="_top" xlink:title=" ">
<polygon fill="white" stroke="black" points="466,-66.76 466,-96.76 621,-96.76 621,-66.76 466,-66.76"/>
<text text-anchor="start" x="474" y="-84.76" font-family="Helvetica,sans-Serif" font-size="10.00">SearchProvider::CreateSuggest</text>
<text text-anchor="middle" x="543.5" y="-73.76" font-family="Helvetica,sans-Serif" font-size="10.00">Loader</text>
</a>
</g>
</g>
<!-- Node8&#45;&gt;Node9 -->
<g id="edge8" class="edge">
<title>Node8&#45;&gt;Node9</title>
<path fill="none" stroke="midnightblue" d="M646.53,-81.76C638.09,-81.76 629.53,-81.76 621.14,-81.76"/>
<polygon fill="midnightblue" stroke="midnightblue" points="646.75,-85.26 656.75,-81.76 646.75,-78.26 646.75,-85.26"/>
</g>
<!-- Node10 -->
<g id="node10" class="node">
<title>Node10</title>
<g id="a_node10"><a xlink:href="../../d4/dee/classSearchProvider.html#a02c8b00f5d4da0ce7e5de29658483914" target="_top" xlink:title=" ">
<polygon fill="white" stroke="black" points="323,-72.26 323,-91.26 430,-91.26 430,-72.26 323,-72.26"/>
<text text-anchor="middle" x="376.5" y="-79.26" font-family="Helvetica,sans-Serif" font-size="10.00">SearchProvider::Run</text>
</a>
</g>
</g>
<!-- Node9&#45;&gt;Node10 -->
<g id="edge9" class="edge">
<title>Node9&#45;&gt;Node10</title>
<path fill="none" stroke="midnightblue" d="M455.7,-81.76C447.1,-81.76 438.56,-81.76 430.47,-81.76"/>
<polygon fill="midnightblue" stroke="midnightblue" points="455.8,-85.26 465.8,-81.76 455.8,-78.26 455.8,-85.26"/>
</g>
<!-- Node11 -->
<g id="node11" class="node">
<title>Node11</title>
<g id="a_node11"><a xlink:href="../../d4/dee/classSearchProvider.html#af0c60cb234c815b05521a08434e7dcdc" target="_top" xlink:title=" ">
<polygon fill="white" stroke="black" points="146,-66.76 146,-96.76 287,-96.76 287,-66.76 146,-66.76"/>
<text text-anchor="start" x="154" y="-84.76" font-family="Helvetica,sans-Serif" font-size="10.00">SearchProvider::StartOrStop</text>
<text text-anchor="middle" x="216.5" y="-73.76" font-family="Helvetica,sans-Serif" font-size="10.00">SuggestQuery</text>
</a>
</g>
</g>
<!-- Node10&#45;&gt;Node11 -->
<g id="edge10" class="edge">
<title>Node10&#45;&gt;Node11</title>
<path fill="none" stroke="midnightblue" d="M312.74,-81.76C304.29,-81.76 295.59,-81.76 287.03,-81.76"/>
<polygon fill="midnightblue" stroke="midnightblue" points="312.89,-85.26 322.89,-81.76 312.89,-78.26 312.89,-85.26"/>
</g>
<!-- Node11&#45;&gt;Node12 -->
<g id="edge11" class="edge">
<title>Node11&#45;&gt;Node12</title>
<path fill="none" stroke="midnightblue" d="M135.47,-92.8C126.87,-93.99 118.27,-95.17 110.08,-96.3"/>
<polygon fill="midnightblue" stroke="midnightblue" points="136.11,-96.24 145.54,-91.41 135.16,-89.31 136.11,-96.24"/>
</g>
<!-- Node13&#45;&gt;Node5 -->
<g id="edge15" class="edge">
<title>Node13&#45;&gt;Node5</title>
<path fill="none" stroke="midnightblue" d="M1424.79,-169.51C1360.29,-167.67 1269.42,-165.08 1203.23,-163.2"/>
<polygon fill="midnightblue" stroke="midnightblue" points="1424.81,-173.01 1434.9,-169.79 1425.01,-166.01 1424.81,-173.01"/>
</g>
<!-- Node14&#45;&gt;Node12 -->
<g id="edge17" class="edge">
<title>Node14&#45;&gt;Node12</title>
<path fill="none" stroke="midnightblue" d="M1040.78,-37.76C963.02,-37.76 837.73,-37.76 729.5,-37.76 729.5,-37.76 729.5,-37.76 375.5,-37.76 273.15,-37.76 244.31,-28.29 146,-56.76 117.22,-65.1 86.97,-83.09 69.9,-94.23"/>
<polygon fill="midnightblue" stroke="midnightblue" points="1040.96,-41.26 1050.96,-37.76 1040.96,-34.26 1040.96,-41.26"/>
</g>
<!-- Node15&#45;&gt;Node7 -->
<g id="edge20" class="edge">
<title>Node15&#45;&gt;Node7</title>
<path fill="none" stroke="midnightblue" d="M864.17,-241.88C842.16,-236.63 816.03,-230.4 792.67,-224.83"/>
<polygon fill="midnightblue" stroke="midnightblue" points="863.43,-245.3 873.97,-244.21 865.05,-238.49 863.43,-245.3"/>
</g>
<!-- Node15&#45;&gt;Node12 -->
<g id="edge21" class="edge">
<title>Node15&#45;&gt;Node12</title>
<path fill="none" stroke="midnightblue" d="M829.37,-253.76C754.48,-253.76 642.22,-253.76 544.5,-253.76 544.5,-253.76 544.5,-253.76 375.5,-253.76 242.83,-253.76 106.05,-146.48 67,-113.37"/>
<polygon fill="midnightblue" stroke="midnightblue" points="829.69,-257.26 839.69,-253.76 829.69,-250.26 829.69,-257.26"/>
</g>
<!-- Node16&#45;&gt;Node4 -->
<g id="edge23" class="edge">
<title>Node16&#45;&gt;Node4</title>
<path fill="none" stroke="midnightblue" d="M1602.55,-86.17C1553.51,-87.79 1489.4,-91.28 1433,-98.76 1416.36,-100.97 1398.52,-104.27 1382.02,-107.72"/>
<polygon fill="midnightblue" stroke="midnightblue" points="1602.89,-89.66 1612.77,-85.85 1602.67,-82.66 1602.89,-89.66"/>
</g>
<!-- Node17&#45;&gt;Node8 -->
<g id="edge25" class="edge">
<title>Node17&#45;&gt;Node8</title>
<path fill="none" stroke="midnightblue" d="M1237.11,-62.75C1121.66,-67.08 910,-75 800.02,-79.12"/>
<polygon fill="midnightblue" stroke="midnightblue" points="1237.44,-66.24 1247.3,-62.37 1237.17,-59.25 1237.44,-66.24"/>
</g>
</g>
</svg>
        <g id="navigator" transform="translate(0 0)" fill="#404254">
                <rect fill="#f2f5e9" fill-opacity="0.5" stroke="#606060" stroke-width=".5" x="0" y="0" width="60" height="60"/>
                <use id="zoomplus" xlink:href="#zoomPlus" x="17" y="9" onmousedown="handleZoom(evt,'in')"/>
                <use id="zoomminus" xlink:href="#zoomMin" x="42" y="9" onmousedown="handleZoom(evt,'out')"/>
                <use id="reset" xlink:href="#resetDef" x="30" y="36" onmousedown="handleReset()"/>
                <g id="arrowUp" xlink:href="#dirArrow" transform="translate(30 24)" onmousedown="handlePan(0,-1)">
                  <use xlink:href="#rim" fill="#404040">
                        <set attributeName="fill" to="#808080" begin="arrowUp.mouseover" end="arrowUp.mouseout"/>
                  </use>
                  <path fill="none" stroke="white" stroke-width="1.5" d="M0,-3.0v7 M-2.5,-0.5L0,-3.0L2.5,-0.5"/>
                </g>
                <g id="arrowRight" xlink:href="#dirArrow" transform="rotate(90) translate(36 -43)" onmousedown="handlePan(1,0)">
                  <use xlink:href="#rim" fill="#404040">
                        <set attributeName="fill" to="#808080" begin="arrowRight.mouseover" end="arrowRight.mouseout"/>
                  </use>
                  <path fill="none" stroke="white" stroke-width="1.5" d="M0,-3.0v7 M-2.5,-0.5L0,-3.0L2.5,-0.5"/>
                </g>
                <g id="arrowDown" xlink:href="#dirArrow" transform="rotate(180) translate(-30 -48)" onmousedown="handlePan(0,1)">
                  <use xlink:href="#rim" fill="#404040">
                        <set attributeName="fill" to="#808080" begin="arrowDown.mouseover" end="arrowDown.mouseout"/>
                  </use>
                  <path fill="none" stroke="white" stroke-width="1.5" d="M0,-3.0v7 M-2.5,-0.5L0,-3.0L2.5,-0.5"/>
                </g>
                <g id="arrowLeft" xlink:href="#dirArrow" transform="rotate(270) translate(-36 17)" onmousedown="handlePan(-1,0)">
                  <use xlink:href="#rim" fill="#404040">
                        <set attributeName="fill" to="#808080" begin="arrowLeft.mouseover" end="arrowLeft.mouseout"/>
                  </use>
                  <path fill="none" stroke="white" stroke-width="1.5" d="M0,-3.0v7 M-2.5,-0.5L0,-3.0L2.5,-0.5"/>
                </g>
        </g>
        <svg viewBox="0 0 15 15" width="100%" height="30px" preserveAspectRatio="xMaxYMin meet">
         <g id="arrow_out" transform="scale(0.3 0.3)">
          <a xlink:href="classSearchProvider_1_1Providers_a370181d55b7071f6cfef36b665746f5e_icgraph_org.svg" target="_base">
           <rect id="button" ry="5" rx="5" y="6" x="6" height="38" width="38"
                fill="#f2f5e9" fill-opacity="0.5" stroke="#606060" stroke-width="1.0"/>
           <path id="arrow"
             d="M 11.500037,31.436501 C 11.940474,20.09759 22.043105,11.32322 32.158766,21.979434 L 37.068811,17.246167 C 37.068811,17.246167 37.088388,32 37.088388,32 L 22.160133,31.978069 C 22.160133,31.978069 26.997745,27.140456 26.997745,27.140456 C 18.528582,18.264221 13.291696,25.230495 11.500037,31.436501 z"
             style="fill:#404040;"/>
          </a>
         </g>
        </svg>
</svg>
