<?xml version="1.0" encoding="UTF-8" standalone="no"?>
<!DOCTYPE svg PUBLIC "-//W3C//DTD SVG 1.1//EN"
 "http://www.w3.org/Graphics/SVG/1.1/DTD/svg11.dtd">
<!-- Generated by graphviz version 2.43.0 (0)
 -->
<!-- Title: URLIndexPrivateData::RestoreWordStartsMap Pages: 1 -->
<svg width="817pt" height="209pt"
 viewBox="0.00 0.00 817.00 209.00" xmlns="http://www.w3.org/2000/svg" xmlns:xlink="http://www.w3.org/1999/xlink">
<g id="graph0" class="graph" transform="scale(1 1) rotate(0) translate(4 205)">
<title>URLIndexPrivateData::RestoreWordStartsMap</title>
<polygon fill="white" stroke="transparent" points="-4,4 -4,-205 813,-205 813,4 -4,4"/>
<!-- Node1 -->
<g id="node1" class="node">
<title>Node1</title>
<g id="a_node1"><a xlink:title=" ">
<polygon fill="#bfbfbf" stroke="black" points="0,-63.5 0,-93.5 125,-93.5 125,-63.5 0,-63.5"/>
<text text-anchor="start" x="8" y="-81.5" font-family="Helvetica,sans-Serif" font-size="10.00">URLIndexPrivateData</text>
<text text-anchor="middle" x="62.5" y="-70.5" font-family="Helvetica,sans-Serif" font-size="10.00">::RestoreWordStartsMap</text>
</a>
</g>
</g>
<!-- Node2 -->
<g id="node2" class="node">
<title>Node2</title>
<g id="a_node2"><a xlink:href="../../d7/daf/in__memory__url__index__types_8cc.html#ac7945538f83c74cad6ec3b7b5183b0b2" target="_top" xlink:title=" ">
<polygon fill="white" stroke="black" points="161,-69 161,-88 301,-88 301,-69 161,-69"/>
<text text-anchor="middle" x="231" y="-76" font-family="Helvetica,sans-Serif" font-size="10.00">String16VectorFromString16</text>
</a>
</g>
</g>
<!-- Node1&#45;&gt;Node2 -->
<g id="edge1" class="edge">
<title>Node1&#45;&gt;Node2</title>
<path fill="none" stroke="midnightblue" d="M125.03,-78.5C133.41,-78.5 142.12,-78.5 150.77,-78.5"/>
<polygon fill="midnightblue" stroke="midnightblue" points="150.87,-82 160.87,-78.5 150.87,-75 150.87,-82"/>
</g>
<!-- Node3 -->
<g id="node3" class="node">
<title>Node3</title>
<g id="a_node3"><a xlink:href="../../d6/dcd/classTailoredWordBreakIterator.html#a2821ad0b98d4c6dacdf2b007ae042cde" target="_top" xlink:title=" ">
<polygon fill="white" stroke="black" points="337,-126.5 337,-156.5 466,-156.5 466,-126.5 337,-126.5"/>
<text text-anchor="start" x="345" y="-144.5" font-family="Helvetica,sans-Serif" font-size="10.00">TailoredWordBreakIterator</text>
<text text-anchor="middle" x="401.5" y="-133.5" font-family="Helvetica,sans-Serif" font-size="10.00">::Advance</text>
</a>
</g>
</g>
<!-- Node2&#45;&gt;Node3 -->
<g id="edge2" class="edge">
<title>Node2&#45;&gt;Node3</title>
<path fill="none" stroke="midnightblue" d="M257.59,-88.07C282.18,-97.26 320.01,-111.4 350.57,-122.83"/>
<polygon fill="midnightblue" stroke="midnightblue" points="349.61,-126.21 360.21,-126.43 352.07,-119.65 349.61,-126.21"/>
</g>
<!-- Node6 -->
<g id="node6" class="node">
<title>Node6</title>
<g id="a_node6"><a xlink:href="../../d6/dcd/classTailoredWordBreakIterator.html#a198bd2927e6b6e17cd0e6b4fba8756fa" target="_top" xlink:title=" ">
<polygon fill="white" stroke="black" points="508.5,-82.5 508.5,-112.5 637.5,-112.5 637.5,-82.5 508.5,-82.5"/>
<text text-anchor="start" x="516.5" y="-100.5" font-family="Helvetica,sans-Serif" font-size="10.00">TailoredWordBreakIterator</text>
<text text-anchor="middle" x="573" y="-89.5" font-family="Helvetica,sans-Serif" font-size="10.00">::IsWord</text>
</a>
</g>
</g>
<!-- Node2&#45;&gt;Node6 -->
<g id="edge10" class="edge">
<title>Node2&#45;&gt;Node6</title>
<path fill="none" stroke="midnightblue" d="M301.21,-82.37C358.45,-85.57 439.55,-90.1 498.05,-93.37"/>
<polygon fill="midnightblue" stroke="midnightblue" points="498.16,-96.88 508.34,-93.94 498.55,-89.89 498.16,-96.88"/>
</g>
<!-- Node8 -->
<g id="node8" class="node">
<title>Node8</title>
<g id="a_node8"><a xlink:href="../../d6/dcd/classTailoredWordBreakIterator.html#a3ac822a0237ada88c32c0ca5fe6cc18d" target="_top" xlink:title=" ">
<polygon fill="white" stroke="black" points="508.5,-33.5 508.5,-63.5 637.5,-63.5 637.5,-33.5 508.5,-33.5"/>
<text text-anchor="start" x="516.5" y="-51.5" font-family="Helvetica,sans-Serif" font-size="10.00">TailoredWordBreakIterator</text>
<text text-anchor="middle" x="573" y="-40.5" font-family="Helvetica,sans-Serif" font-size="10.00">::GetString</text>
</a>
</g>
</g>
<!-- Node2&#45;&gt;Node8 -->
<g id="edge8" class="edge">
<title>Node2&#45;&gt;Node8</title>
<path fill="none" stroke="midnightblue" d="M301.21,-72.39C358.45,-67.34 439.55,-60.19 498.05,-55.02"/>
<polygon fill="midnightblue" stroke="midnightblue" points="498.68,-58.48 508.34,-54.12 498.07,-51.51 498.68,-58.48"/>
</g>
<!-- Node9 -->
<g id="node9" class="node">
<title>Node9</title>
<g id="a_node9"><a xlink:href="../../d6/dcd/classTailoredWordBreakIterator.html#ad2c08e1c2124a921ac2976e30c39d478" target="_top" xlink:title=" ">
<polygon fill="white" stroke="black" points="337,-0.5 337,-30.5 466,-30.5 466,-0.5 337,-0.5"/>
<text text-anchor="start" x="345" y="-18.5" font-family="Helvetica,sans-Serif" font-size="10.00">TailoredWordBreakIterator</text>
<text text-anchor="middle" x="401.5" y="-7.5" font-family="Helvetica,sans-Serif" font-size="10.00">::prev</text>
</a>
</g>
</g>
<!-- Node2&#45;&gt;Node9 -->
<g id="edge11" class="edge">
<title>Node2&#45;&gt;Node9</title>
<path fill="none" stroke="midnightblue" d="M257.59,-68.93C282.18,-59.74 320.01,-45.6 350.57,-34.17"/>
<polygon fill="midnightblue" stroke="midnightblue" points="352.07,-37.35 360.21,-30.57 349.61,-30.79 352.07,-37.35"/>
</g>
<!-- Node4 -->
<g id="node4" class="node">
<title>Node4</title>
<g id="a_node4"><a xlink:href="../../d6/dcd/classTailoredWordBreakIterator.html#a1b478919417288a574d74b521b52fc08" target="_top" xlink:title=" ">
<polygon fill="white" stroke="black" points="502,-170.5 502,-200.5 644,-200.5 644,-170.5 502,-170.5"/>
<text text-anchor="start" x="510" y="-188.5" font-family="Helvetica,sans-Serif" font-size="10.00">TailoredWordBreakIterator</text>
<text text-anchor="middle" x="573" y="-177.5" font-family="Helvetica,sans-Serif" font-size="10.00">::AdvanceInUnderscoreWord</text>
</a>
</g>
</g>
<!-- Node3&#45;&gt;Node4 -->
<g id="edge3" class="edge">
<title>Node3&#45;&gt;Node4</title>
<path fill="none" stroke="midnightblue" d="M460.36,-156.52C474.46,-160.18 489.67,-164.13 504.19,-167.9"/>
<polygon fill="midnightblue" stroke="midnightblue" points="503.56,-171.35 514.11,-170.47 505.32,-164.57 503.56,-171.35"/>
</g>
<!-- Node5 -->
<g id="node5" class="node">
<title>Node5</title>
<g id="a_node5"><a xlink:href="../../d6/dcd/classTailoredWordBreakIterator.html#aae84d81bdce60da2914d52d30b6c74b4" target="_top" xlink:title=" ">
<polygon fill="white" stroke="black" points="680,-115.5 680,-145.5 809,-145.5 809,-115.5 680,-115.5"/>
<text text-anchor="start" x="688" y="-133.5" font-family="Helvetica,sans-Serif" font-size="10.00">TailoredWordBreakIterator</text>
<text text-anchor="middle" x="744.5" y="-122.5" font-family="Helvetica,sans-Serif" font-size="10.00">::HasUnderscoreWord</text>
</a>
</g>
</g>
<!-- Node3&#45;&gt;Node5 -->
<g id="edge4" class="edge">
<title>Node3&#45;&gt;Node5</title>
<path fill="none" stroke="midnightblue" d="M466.24,-139.44C523.91,-137.58 608.86,-134.84 669.51,-132.89"/>
<polygon fill="midnightblue" stroke="midnightblue" points="669.9,-136.38 679.78,-132.56 669.68,-129.38 669.9,-136.38"/>
</g>
<!-- Node3&#45;&gt;Node6 -->
<g id="edge5" class="edge">
<title>Node3&#45;&gt;Node6</title>
<path fill="none" stroke="midnightblue" d="M460.36,-126.48C474.46,-122.82 489.67,-118.87 504.19,-115.1"/>
<polygon fill="midnightblue" stroke="midnightblue" points="505.32,-118.43 514.11,-112.53 503.56,-111.65 505.32,-118.43"/>
</g>
<!-- Node6&#45;&gt;Node5 -->
<g id="edge7" class="edge">
<title>Node6&#45;&gt;Node5</title>
<path fill="none" stroke="midnightblue" d="M637.6,-109.88C648.17,-111.94 659.21,-114.09 670.01,-116.19"/>
<polygon fill="midnightblue" stroke="midnightblue" points="669.34,-119.63 679.83,-118.1 670.68,-112.76 669.34,-119.63"/>
</g>
<!-- Node7 -->
<g id="node7" class="node">
<title>Node7</title>
<g id="a_node7"><a xlink:href="../../d6/dcd/classTailoredWordBreakIterator.html#a08b402a57411161426e21a435a9a047f" target="_top" xlink:title=" ">
<polygon fill="white" stroke="black" points="680,-55.5 680,-85.5 809,-85.5 809,-55.5 680,-55.5"/>
<text text-anchor="start" x="688" y="-73.5" font-family="Helvetica,sans-Serif" font-size="10.00">TailoredWordBreakIterator</text>
<text text-anchor="middle" x="744.5" y="-62.5" font-family="Helvetica,sans-Serif" font-size="10.00">::GetStringPiece</text>
</a>
</g>
</g>
<!-- Node6&#45;&gt;Node7 -->
<g id="edge6" class="edge">
<title>Node6&#45;&gt;Node7</title>
<path fill="none" stroke="midnightblue" d="M637.6,-87.37C648.06,-85.7 658.99,-83.96 669.67,-82.26"/>
<polygon fill="midnightblue" stroke="midnightblue" points="670.5,-85.67 679.83,-80.64 669.4,-78.76 670.5,-85.67"/>
</g>
<!-- Node8&#45;&gt;Node7 -->
<g id="edge9" class="edge">
<title>Node8&#45;&gt;Node7</title>
<path fill="none" stroke="midnightblue" d="M637.6,-56.75C648.06,-58.11 658.99,-59.53 669.67,-60.92"/>
<polygon fill="midnightblue" stroke="midnightblue" points="669.46,-64.42 679.83,-62.24 670.36,-57.48 669.46,-64.42"/>
</g>
</g>
</svg>
