<?xml version="1.0" encoding="UTF-8" standalone="no"?>
<!DOCTYPE svg PUBLIC "-//W3C//DTD SVG 1.1//EN"
 "http://www.w3.org/Graphics/SVG/1.1/DTD/svg11.dtd">
<!-- Generated by graphviz version 2.43.0 (0)
 -->
<!-- Title: URLIndexPrivateData::AddRowWordsToIndex Pages: 1 -->
<!--zoomable 209 -->
<svg id="main" version="1.1" xmlns="http://www.w3.org/2000/svg" xmlns:xlink="http://www.w3.org/1999/xlink" xml:space="preserve" onload="init(evt)">
<style type="text/css"><![CDATA[
.edge:hover path { stroke: red; }
.edge:hover polygon { stroke: red; fill: red; }
]]></style>
<script type="text/javascript"><![CDATA[
var edges = document.getElementsByTagName('g');
if (edges && edges.length) {
  for (var i=0;i<edges.length;i++) {
    if (edges[i].id.substr(0,4)=='edge') {
      edges[i].setAttribute('class','edge');
    }
  }
}
]]></script>
        <defs>
                <circle id="rim" cx="0" cy="0" r="7"/>
                <circle id="rim2" cx="0" cy="0" r="3.5"/>
                <g id="zoomPlus">
                        <use xlink:href="#rim" fill="#404040">
                                <set attributeName="fill" to="#808080" begin="zoomplus.mouseover" end="zoomplus.mouseout"/>
                        </use>
                        <path d="M-4,0h8M0,-4v8" fill="none" stroke="white" stroke-width="1.5" pointer-events="none"/>
                </g>
                <g id="zoomMin">
                        <use xlink:href="#rim" fill="#404040">
                                <set attributeName="fill" to="#808080" begin="zoomminus.mouseover" end="zoomminus.mouseout"/>
                        </use>
                        <path d="M-4,0h8" fill="none" stroke="white" stroke-width="1.5" pointer-events="none"/>
                </g>
                <g id="dirArrow">
                        <path fill="none" stroke="white" stroke-width="1.5" d="M0,-3.0v7 M-2.5,-0.5L0,-3.0L2.5,-0.5"/>
                </g>
               <g id="resetDef">
                       <use xlink:href="#rim2" fill="#404040">
                               <set attributeName="fill" to="#808080" begin="reset.mouseover" end="reset.mouseout"/>
                       </use>
               </g>
        </defs>

<script type="text/javascript">
var viewWidth = 976;
var viewHeight = 209;
var sectionId = 'dynsection-4';
</script>
<script xlink:href="../../svgpan.js"/>
<svg id="graph" class="graph">
<g id="viewport">
<title>URLIndexPrivateData::AddRowWordsToIndex</title>
<polygon fill="white" stroke="transparent" points="-4,4 -4,-205 972,-205 972,4 -4,4"/>
<!-- Node1 -->
<g id="node1" class="node">
<title>Node1</title>
<g id="a_node1"><a xlink:title=" ">
<polygon fill="#bfbfbf" stroke="black" points="0,-85.5 0,-115.5 122,-115.5 122,-85.5 0,-85.5"/>
<text text-anchor="start" x="8" y="-103.5" font-family="Helvetica,sans-Serif" font-size="10.00">URLIndexPrivateData</text>
<text text-anchor="middle" x="61" y="-92.5" font-family="Helvetica,sans-Serif" font-size="10.00">::AddRowWordsToIndex</text>
</a>
</g>
</g>
<!-- Node2 -->
<g id="node2" class="node">
<title>Node2</title>
<g id="a_node2"><a xlink:href="../../d0/d85/classURLIndexPrivateData.html#aee3e3987b38794e92d61041a7898f804" target="_top" xlink:title=" ">
<polygon fill="white" stroke="black" points="164.5,-107.5 164.5,-137.5 277.5,-137.5 277.5,-107.5 164.5,-107.5"/>
<text text-anchor="start" x="172.5" y="-125.5" font-family="Helvetica,sans-Serif" font-size="10.00">URLIndexPrivateData</text>
<text text-anchor="middle" x="221" y="-114.5" font-family="Helvetica,sans-Serif" font-size="10.00">::AddWordToIndex</text>
</a>
</g>
</g>
<!-- Node1&#45;&gt;Node2 -->
<g id="edge1" class="edge">
<title>Node1&#45;&gt;Node2</title>
<path fill="none" stroke="midnightblue" d="M122.18,-108.88C132.69,-110.34 143.67,-111.87 154.32,-113.35"/>
<polygon fill="midnightblue" stroke="midnightblue" points="154.01,-116.85 164.4,-114.76 154.98,-109.91 154.01,-116.85"/>
</g>
<!-- Node5 -->
<g id="node5" class="node">
<title>Node5</title>
<g id="a_node5"><a xlink:href="../../d7/daf/in__memory__url__index__types_8cc.html#a5f9beafdd4e0df78d31248fb69b928fe" target="_top" xlink:title=" ">
<polygon fill="white" stroke="black" points="158,-69 158,-88 284,-88 284,-69 158,-69"/>
<text text-anchor="middle" x="221" y="-76" font-family="Helvetica,sans-Serif" font-size="10.00">String16SetFromString16</text>
</a>
</g>
</g>
<!-- Node1&#45;&gt;Node5 -->
<g id="edge4" class="edge">
<title>Node1&#45;&gt;Node5</title>
<path fill="none" stroke="midnightblue" d="M122.18,-92.12C130.58,-90.95 139.28,-89.74 147.87,-88.54"/>
<polygon fill="midnightblue" stroke="midnightblue" points="148.46,-91.99 157.89,-87.15 147.5,-85.06 148.46,-91.99"/>
</g>
<!-- Node3 -->
<g id="node3" class="node">
<title>Node3</title>
<g id="a_node3"><a xlink:href="../../d0/d85/classURLIndexPrivateData.html#af7afa3b46a83e1480b74a07e7699f053" target="_top" xlink:title=" ">
<polygon fill="white" stroke="black" points="324.5,-148.5 324.5,-178.5 455.5,-178.5 455.5,-148.5 324.5,-148.5"/>
<text text-anchor="start" x="332.5" y="-166.5" font-family="Helvetica,sans-Serif" font-size="10.00">URLIndexPrivateData</text>
<text text-anchor="middle" x="390" y="-155.5" font-family="Helvetica,sans-Serif" font-size="10.00">::AddNewWordToWordList</text>
</a>
</g>
</g>
<!-- Node2&#45;&gt;Node3 -->
<g id="edge2" class="edge">
<title>Node2&#45;&gt;Node3</title>
<path fill="none" stroke="midnightblue" d="M277.61,-136.15C290.59,-139.34 304.58,-142.78 318.13,-146.1"/>
<polygon fill="midnightblue" stroke="midnightblue" points="317.34,-149.51 327.89,-148.5 319.01,-142.71 317.34,-149.51"/>
</g>
<!-- Node4 -->
<g id="node4" class="node">
<title>Node4</title>
<g id="a_node4"><a xlink:href="../../d7/daf/in__memory__url__index__types_8cc.html#a1bd0123786a8983c09cf3e114aa6f654" target="_top" xlink:title=" ">
<polygon fill="white" stroke="black" points="329,-110 329,-129 451,-129 451,-110 329,-110"/>
<text text-anchor="middle" x="390" y="-117" font-family="Helvetica,sans-Serif" font-size="10.00">Char16SetFromString16</text>
</a>
</g>
</g>
<!-- Node2&#45;&gt;Node4 -->
<g id="edge3" class="edge">
<title>Node2&#45;&gt;Node4</title>
<path fill="none" stroke="midnightblue" d="M277.61,-121.5C290.69,-121.27 304.8,-121.01 318.44,-120.77"/>
<polygon fill="midnightblue" stroke="midnightblue" points="318.82,-124.26 328.76,-120.58 318.69,-117.26 318.82,-124.26"/>
</g>
<!-- Node6 -->
<g id="node6" class="node">
<title>Node6</title>
<g id="a_node6"><a xlink:href="../../d7/daf/in__memory__url__index__types_8cc.html#ac7945538f83c74cad6ec3b7b5183b0b2" target="_top" xlink:title=" ">
<polygon fill="white" stroke="black" points="320,-69 320,-88 460,-88 460,-69 320,-69"/>
<text text-anchor="middle" x="390" y="-76" font-family="Helvetica,sans-Serif" font-size="10.00">String16VectorFromString16</text>
</a>
</g>
</g>
<!-- Node5&#45;&gt;Node6 -->
<g id="edge5" class="edge">
<title>Node5&#45;&gt;Node6</title>
<path fill="none" stroke="midnightblue" d="M284.18,-78.5C292.52,-78.5 301.15,-78.5 309.73,-78.5"/>
<polygon fill="midnightblue" stroke="midnightblue" points="309.74,-82 319.74,-78.5 309.74,-75 309.74,-82"/>
</g>
<!-- Node7 -->
<g id="node7" class="node">
<title>Node7</title>
<g id="a_node7"><a xlink:href="../../d6/dcd/classTailoredWordBreakIterator.html#a2821ad0b98d4c6dacdf2b007ae042cde" target="_top" xlink:title=" ">
<polygon fill="white" stroke="black" points="496,-126.5 496,-156.5 625,-156.5 625,-126.5 496,-126.5"/>
<text text-anchor="start" x="504" y="-144.5" font-family="Helvetica,sans-Serif" font-size="10.00">TailoredWordBreakIterator</text>
<text text-anchor="middle" x="560.5" y="-133.5" font-family="Helvetica,sans-Serif" font-size="10.00">::Advance</text>
</a>
</g>
</g>
<!-- Node6&#45;&gt;Node7 -->
<g id="edge6" class="edge">
<title>Node6&#45;&gt;Node7</title>
<path fill="none" stroke="midnightblue" d="M422.79,-88.03C434.55,-91.72 447.95,-96.11 460,-100.5 478.36,-107.2 498.34,-115.27 515.54,-122.47"/>
<polygon fill="midnightblue" stroke="midnightblue" points="514.2,-125.71 524.78,-126.37 516.92,-119.26 514.2,-125.71"/>
</g>
<!-- Node10 -->
<g id="node10" class="node">
<title>Node10</title>
<g id="a_node10"><a xlink:href="../../d6/dcd/classTailoredWordBreakIterator.html#a198bd2927e6b6e17cd0e6b4fba8756fa" target="_top" xlink:title=" ">
<polygon fill="white" stroke="black" points="667.5,-82.5 667.5,-112.5 796.5,-112.5 796.5,-82.5 667.5,-82.5"/>
<text text-anchor="start" x="675.5" y="-100.5" font-family="Helvetica,sans-Serif" font-size="10.00">TailoredWordBreakIterator</text>
<text text-anchor="middle" x="732" y="-89.5" font-family="Helvetica,sans-Serif" font-size="10.00">::IsWord</text>
</a>
</g>
</g>
<!-- Node6&#45;&gt;Node10 -->
<g id="edge14" class="edge">
<title>Node6&#45;&gt;Node10</title>
<path fill="none" stroke="midnightblue" d="M460.21,-82.37C517.45,-85.57 598.55,-90.1 657.05,-93.37"/>
<polygon fill="midnightblue" stroke="midnightblue" points="657.16,-96.88 667.34,-93.94 657.55,-89.89 657.16,-96.88"/>
</g>
<!-- Node12 -->
<g id="node12" class="node">
<title>Node12</title>
<g id="a_node12"><a xlink:href="../../d6/dcd/classTailoredWordBreakIterator.html#a3ac822a0237ada88c32c0ca5fe6cc18d" target="_top" xlink:title=" ">
<polygon fill="white" stroke="black" points="667.5,-33.5 667.5,-63.5 796.5,-63.5 796.5,-33.5 667.5,-33.5"/>
<text text-anchor="start" x="675.5" y="-51.5" font-family="Helvetica,sans-Serif" font-size="10.00">TailoredWordBreakIterator</text>
<text text-anchor="middle" x="732" y="-40.5" font-family="Helvetica,sans-Serif" font-size="10.00">::GetString</text>
</a>
</g>
</g>
<!-- Node6&#45;&gt;Node12 -->
<g id="edge12" class="edge">
<title>Node6&#45;&gt;Node12</title>
<path fill="none" stroke="midnightblue" d="M460.21,-72.39C517.45,-67.34 598.55,-60.19 657.05,-55.02"/>
<polygon fill="midnightblue" stroke="midnightblue" points="657.68,-58.48 667.34,-54.12 657.07,-51.51 657.68,-58.48"/>
</g>
<!-- Node13 -->
<g id="node13" class="node">
<title>Node13</title>
<g id="a_node13"><a xlink:href="../../d6/dcd/classTailoredWordBreakIterator.html#ad2c08e1c2124a921ac2976e30c39d478" target="_top" xlink:title=" ">
<polygon fill="white" stroke="black" points="496,-0.5 496,-30.5 625,-30.5 625,-0.5 496,-0.5"/>
<text text-anchor="start" x="504" y="-18.5" font-family="Helvetica,sans-Serif" font-size="10.00">TailoredWordBreakIterator</text>
<text text-anchor="middle" x="560.5" y="-7.5" font-family="Helvetica,sans-Serif" font-size="10.00">::prev</text>
</a>
</g>
</g>
<!-- Node6&#45;&gt;Node13 -->
<g id="edge15" class="edge">
<title>Node6&#45;&gt;Node13</title>
<path fill="none" stroke="midnightblue" d="M416.59,-68.93C441.18,-59.74 479.01,-45.6 509.57,-34.17"/>
<polygon fill="midnightblue" stroke="midnightblue" points="511.07,-37.35 519.21,-30.57 508.61,-30.79 511.07,-37.35"/>
</g>
<!-- Node8 -->
<g id="node8" class="node">
<title>Node8</title>
<g id="a_node8"><a xlink:href="../../d6/dcd/classTailoredWordBreakIterator.html#a1b478919417288a574d74b521b52fc08" target="_top" xlink:title=" ">
<polygon fill="white" stroke="black" points="661,-170.5 661,-200.5 803,-200.5 803,-170.5 661,-170.5"/>
<text text-anchor="start" x="669" y="-188.5" font-family="Helvetica,sans-Serif" font-size="10.00">TailoredWordBreakIterator</text>
<text text-anchor="middle" x="732" y="-177.5" font-family="Helvetica,sans-Serif" font-size="10.00">::AdvanceInUnderscoreWord</text>
</a>
</g>
</g>
<!-- Node7&#45;&gt;Node8 -->
<g id="edge7" class="edge">
<title>Node7&#45;&gt;Node8</title>
<path fill="none" stroke="midnightblue" d="M619.36,-156.52C633.46,-160.18 648.67,-164.13 663.19,-167.9"/>
<polygon fill="midnightblue" stroke="midnightblue" points="662.56,-171.35 673.11,-170.47 664.32,-164.57 662.56,-171.35"/>
</g>
<!-- Node9 -->
<g id="node9" class="node">
<title>Node9</title>
<g id="a_node9"><a xlink:href="../../d6/dcd/classTailoredWordBreakIterator.html#aae84d81bdce60da2914d52d30b6c74b4" target="_top" xlink:title=" ">
<polygon fill="white" stroke="black" points="839,-115.5 839,-145.5 968,-145.5 968,-115.5 839,-115.5"/>
<text text-anchor="start" x="847" y="-133.5" font-family="Helvetica,sans-Serif" font-size="10.00">TailoredWordBreakIterator</text>
<text text-anchor="middle" x="903.5" y="-122.5" font-family="Helvetica,sans-Serif" font-size="10.00">::HasUnderscoreWord</text>
</a>
</g>
</g>
<!-- Node7&#45;&gt;Node9 -->
<g id="edge8" class="edge">
<title>Node7&#45;&gt;Node9</title>
<path fill="none" stroke="midnightblue" d="M625.24,-139.44C682.91,-137.58 767.86,-134.84 828.51,-132.89"/>
<polygon fill="midnightblue" stroke="midnightblue" points="828.9,-136.38 838.78,-132.56 828.68,-129.38 828.9,-136.38"/>
</g>
<!-- Node7&#45;&gt;Node10 -->
<g id="edge9" class="edge">
<title>Node7&#45;&gt;Node10</title>
<path fill="none" stroke="midnightblue" d="M619.36,-126.48C633.46,-122.82 648.67,-118.87 663.19,-115.1"/>
<polygon fill="midnightblue" stroke="midnightblue" points="664.32,-118.43 673.11,-112.53 662.56,-111.65 664.32,-118.43"/>
</g>
<!-- Node10&#45;&gt;Node9 -->
<g id="edge11" class="edge">
<title>Node10&#45;&gt;Node9</title>
<path fill="none" stroke="midnightblue" d="M796.6,-109.88C807.17,-111.94 818.21,-114.09 829.01,-116.19"/>
<polygon fill="midnightblue" stroke="midnightblue" points="828.34,-119.63 838.83,-118.1 829.68,-112.76 828.34,-119.63"/>
</g>
<!-- Node11 -->
<g id="node11" class="node">
<title>Node11</title>
<g id="a_node11"><a xlink:href="../../d6/dcd/classTailoredWordBreakIterator.html#a08b402a57411161426e21a435a9a047f" target="_top" xlink:title=" ">
<polygon fill="white" stroke="black" points="839,-55.5 839,-85.5 968,-85.5 968,-55.5 839,-55.5"/>
<text text-anchor="start" x="847" y="-73.5" font-family="Helvetica,sans-Serif" font-size="10.00">TailoredWordBreakIterator</text>
<text text-anchor="middle" x="903.5" y="-62.5" font-family="Helvetica,sans-Serif" font-size="10.00">::GetStringPiece</text>
</a>
</g>
</g>
<!-- Node10&#45;&gt;Node11 -->
<g id="edge10" class="edge">
<title>Node10&#45;&gt;Node11</title>
<path fill="none" stroke="midnightblue" d="M796.6,-87.37C807.06,-85.7 817.99,-83.96 828.67,-82.26"/>
<polygon fill="midnightblue" stroke="midnightblue" points="829.5,-85.67 838.83,-80.64 828.4,-78.76 829.5,-85.67"/>
</g>
<!-- Node12&#45;&gt;Node11 -->
<g id="edge13" class="edge">
<title>Node12&#45;&gt;Node11</title>
<path fill="none" stroke="midnightblue" d="M796.6,-56.75C807.06,-58.11 817.99,-59.53 828.67,-60.92"/>
<polygon fill="midnightblue" stroke="midnightblue" points="828.46,-64.42 838.83,-62.24 829.36,-57.48 828.46,-64.42"/>
</g>
</g>
</svg>
        <g id="navigator" transform="translate(0 0)" fill="#404254">
                <rect fill="#f2f5e9" fill-opacity="0.5" stroke="#606060" stroke-width=".5" x="0" y="0" width="60" height="60"/>
                <use id="zoomplus" xlink:href="#zoomPlus" x="17" y="9" onmousedown="handleZoom(evt,'in')"/>
                <use id="zoomminus" xlink:href="#zoomMin" x="42" y="9" onmousedown="handleZoom(evt,'out')"/>
                <use id="reset" xlink:href="#resetDef" x="30" y="36" onmousedown="handleReset()"/>
                <g id="arrowUp" xlink:href="#dirArrow" transform="translate(30 24)" onmousedown="handlePan(0,-1)">
                  <use xlink:href="#rim" fill="#404040">
                        <set attributeName="fill" to="#808080" begin="arrowUp.mouseover" end="arrowUp.mouseout"/>
                  </use>
                  <path fill="none" stroke="white" stroke-width="1.5" d="M0,-3.0v7 M-2.5,-0.5L0,-3.0L2.5,-0.5"/>
                </g>
                <g id="arrowRight" xlink:href="#dirArrow" transform="rotate(90) translate(36 -43)" onmousedown="handlePan(1,0)">
                  <use xlink:href="#rim" fill="#404040">
                        <set attributeName="fill" to="#808080" begin="arrowRight.mouseover" end="arrowRight.mouseout"/>
                  </use>
                  <path fill="none" stroke="white" stroke-width="1.5" d="M0,-3.0v7 M-2.5,-0.5L0,-3.0L2.5,-0.5"/>
                </g>
                <g id="arrowDown" xlink:href="#dirArrow" transform="rotate(180) translate(-30 -48)" onmousedown="handlePan(0,1)">
                  <use xlink:href="#rim" fill="#404040">
                        <set attributeName="fill" to="#808080" begin="arrowDown.mouseover" end="arrowDown.mouseout"/>
                  </use>
                  <path fill="none" stroke="white" stroke-width="1.5" d="M0,-3.0v7 M-2.5,-0.5L0,-3.0L2.5,-0.5"/>
                </g>
                <g id="arrowLeft" xlink:href="#dirArrow" transform="rotate(270) translate(-36 17)" onmousedown="handlePan(-1,0)">
                  <use xlink:href="#rim" fill="#404040">
                        <set attributeName="fill" to="#808080" begin="arrowLeft.mouseover" end="arrowLeft.mouseout"/>
                  </use>
                  <path fill="none" stroke="white" stroke-width="1.5" d="M0,-3.0v7 M-2.5,-0.5L0,-3.0L2.5,-0.5"/>
                </g>
        </g>
        <svg viewBox="0 0 15 15" width="100%" height="30px" preserveAspectRatio="xMaxYMin meet">
         <g id="arrow_out" transform="scale(0.3 0.3)">
          <a xlink:href="classURLIndexPrivateData_a2d33a57d2ba9aaf60d93a79aba482eb5_cgraph_org.svg" target="_base">
           <rect id="button" ry="5" rx="5" y="6" x="6" height="38" width="38"
                fill="#f2f5e9" fill-opacity="0.5" stroke="#606060" stroke-width="1.0"/>
           <path id="arrow"
             d="M 11.500037,31.436501 C 11.940474,20.09759 22.043105,11.32322 32.158766,21.979434 L 37.068811,17.246167 C 37.068811,17.246167 37.088388,32 37.088388,32 L 22.160133,31.978069 C 22.160133,31.978069 26.997745,27.140456 26.997745,27.140456 C 18.528582,18.264221 13.291696,25.230495 11.500037,31.436501 z"
             style="fill:#404040;"/>
          </a>
         </g>
        </svg>
</svg>
