<?xml version="1.0" encoding="UTF-8" standalone="no"?>
<!DOCTYPE svg PUBLIC "-//W3C//DTD SVG 1.1//EN"
 "http://www.w3.org/Graphics/SVG/1.1/DTD/svg11.dtd">
<!-- Generated by graphviz version 2.43.0 (0)
 -->
<!-- Title: URLIndexPrivateData::RestorePrivateData Pages: 1 -->
<svg width="981pt" height="347pt"
 viewBox="0.00 0.00 981.00 347.00" xmlns="http://www.w3.org/2000/svg" xmlns:xlink="http://www.w3.org/1999/xlink">
<g id="graph0" class="graph" transform="scale(1 1) rotate(0) translate(4 343)">
<title>URLIndexPrivateData::RestorePrivateData</title>
<polygon fill="white" stroke="transparent" points="-4,4 -4,-343 977,-343 977,4 -4,4"/>
<!-- Node1 -->
<g id="node1" class="node">
<title>Node1</title>
<g id="a_node1"><a xlink:title=" ">
<polygon fill="#bfbfbf" stroke="black" points="0,-185.5 0,-215.5 113,-215.5 113,-185.5 0,-185.5"/>
<text text-anchor="start" x="8" y="-203.5" font-family="Helvetica,sans-Serif" font-size="10.00">URLIndexPrivateData</text>
<text text-anchor="middle" x="56.5" y="-192.5" font-family="Helvetica,sans-Serif" font-size="10.00">::RestorePrivateData</text>
</a>
</g>
</g>
<!-- Node2 -->
<g id="node2" class="node">
<title>Node2</title>
<g id="a_node2"><a xlink:href="../../d0/d85/classURLIndexPrivateData.html#ac1fc37fd763a9a156966ecf5a87a9c0e" target="_top" xlink:title=" ">
<polygon fill="white" stroke="black" points="159.5,-308.5 159.5,-338.5 278.5,-338.5 278.5,-308.5 159.5,-308.5"/>
<text text-anchor="start" x="167.5" y="-326.5" font-family="Helvetica,sans-Serif" font-size="10.00">URLIndexPrivateData</text>
<text text-anchor="middle" x="219" y="-315.5" font-family="Helvetica,sans-Serif" font-size="10.00">::RestoreCharWordMap</text>
</a>
</g>
</g>
<!-- Node1&#45;&gt;Node2 -->
<g id="edge1" class="edge">
<title>Node1&#45;&gt;Node2</title>
<path fill="none" stroke="midnightblue" d="M67.84,-215.75C83.18,-237.29 113.95,-276.55 149,-299.5 151.44,-301.1 153.99,-302.6 156.63,-304.01"/>
<polygon fill="midnightblue" stroke="midnightblue" points="155.29,-307.25 165.81,-308.48 158.35,-300.96 155.29,-307.25"/>
</g>
<!-- Node3 -->
<g id="node3" class="node">
<title>Node3</title>
<g id="a_node3"><a xlink:href="../../d0/d85/classURLIndexPrivateData.html#abca881313c6462239564053f2b746629" target="_top" xlink:title=" ">
<polygon fill="white" stroke="black" points="157,-259.5 157,-289.5 281,-289.5 281,-259.5 157,-259.5"/>
<text text-anchor="start" x="165" y="-277.5" font-family="Helvetica,sans-Serif" font-size="10.00">URLIndexPrivateData</text>
<text text-anchor="middle" x="219" y="-266.5" font-family="Helvetica,sans-Serif" font-size="10.00">::RestoreHistoryInfoMap</text>
</a>
</g>
</g>
<!-- Node1&#45;&gt;Node3 -->
<g id="edge2" class="edge">
<title>Node1&#45;&gt;Node3</title>
<path fill="none" stroke="midnightblue" d="M82.56,-215.67C100.64,-226.24 125.83,-240.23 149,-250.5 153.09,-252.31 157.36,-254.08 161.69,-255.79"/>
<polygon fill="midnightblue" stroke="midnightblue" points="160.61,-259.12 171.2,-259.4 163.09,-252.57 160.61,-259.12"/>
</g>
<!-- Node4 -->
<g id="node4" class="node">
<title>Node4</title>
<g id="a_node4"><a xlink:href="../../d0/d85/classURLIndexPrivateData.html#a1492512e3249f8791e2a728685f26952" target="_top" xlink:title=" ">
<polygon fill="white" stroke="black" points="149,-210.5 149,-240.5 289,-240.5 289,-210.5 149,-210.5"/>
<text text-anchor="start" x="157" y="-228.5" font-family="Helvetica,sans-Serif" font-size="10.00">URLIndexPrivateData</text>
<text text-anchor="middle" x="219" y="-217.5" font-family="Helvetica,sans-Serif" font-size="10.00">::RestoreWordIDHistoryMap</text>
</a>
</g>
</g>
<!-- Node1&#45;&gt;Node4 -->
<g id="edge3" class="edge">
<title>Node1&#45;&gt;Node4</title>
<path fill="none" stroke="midnightblue" d="M113.18,-209.17C121.45,-210.46 130.1,-211.81 138.73,-213.15"/>
<polygon fill="midnightblue" stroke="midnightblue" points="138.42,-216.65 148.84,-214.73 139.5,-209.73 138.42,-216.65"/>
</g>
<!-- Node5 -->
<g id="node5" class="node">
<title>Node5</title>
<g id="a_node5"><a xlink:href="../../d0/d85/classURLIndexPrivateData.html#a3175be73e9b2527ac6cb937234fb5a72" target="_top" xlink:title=" ">
<polygon fill="white" stroke="black" points="162.5,-161.5 162.5,-191.5 275.5,-191.5 275.5,-161.5 162.5,-161.5"/>
<text text-anchor="start" x="170.5" y="-179.5" font-family="Helvetica,sans-Serif" font-size="10.00">URLIndexPrivateData</text>
<text text-anchor="middle" x="219" y="-168.5" font-family="Helvetica,sans-Serif" font-size="10.00">::RestoreWordList</text>
</a>
</g>
</g>
<!-- Node1&#45;&gt;Node5 -->
<g id="edge4" class="edge">
<title>Node1&#45;&gt;Node5</title>
<path fill="none" stroke="midnightblue" d="M113.18,-192.17C125.76,-190.29 139.22,-188.28 152.17,-186.34"/>
<polygon fill="midnightblue" stroke="midnightblue" points="153.04,-189.75 162.41,-184.81 152.01,-182.83 153.04,-189.75"/>
</g>
<!-- Node6 -->
<g id="node6" class="node">
<title>Node6</title>
<g id="a_node6"><a xlink:href="../../d0/d85/classURLIndexPrivateData.html#a44c23aa37e343d728fbfc9ec9418c016" target="_top" xlink:title=" ">
<polygon fill="white" stroke="black" points="162.5,-112.5 162.5,-142.5 275.5,-142.5 275.5,-112.5 162.5,-112.5"/>
<text text-anchor="start" x="170.5" y="-130.5" font-family="Helvetica,sans-Serif" font-size="10.00">URLIndexPrivateData</text>
<text text-anchor="middle" x="219" y="-119.5" font-family="Helvetica,sans-Serif" font-size="10.00">::RestoreWordMap</text>
</a>
</g>
</g>
<!-- Node1&#45;&gt;Node6 -->
<g id="edge5" class="edge">
<title>Node1&#45;&gt;Node6</title>
<path fill="none" stroke="midnightblue" d="M83.86,-185.46C101.89,-175.47 126.51,-162.42 149,-152.5 153.76,-150.4 158.76,-148.34 163.79,-146.35"/>
<polygon fill="midnightblue" stroke="midnightblue" points="165.4,-149.48 173.48,-142.63 162.89,-142.95 165.4,-149.48"/>
</g>
<!-- Node7 -->
<g id="node7" class="node">
<title>Node7</title>
<g id="a_node7"><a xlink:href="../../d0/d85/classURLIndexPrivateData.html#ae830a4d5784d80fe7fd1a610ea0bed57" target="_top" xlink:title=" ">
<polygon fill="white" stroke="black" points="156.5,-63.5 156.5,-93.5 281.5,-93.5 281.5,-63.5 156.5,-63.5"/>
<text text-anchor="start" x="164.5" y="-81.5" font-family="Helvetica,sans-Serif" font-size="10.00">URLIndexPrivateData</text>
<text text-anchor="middle" x="219" y="-70.5" font-family="Helvetica,sans-Serif" font-size="10.00">::RestoreWordStartsMap</text>
</a>
</g>
</g>
<!-- Node1&#45;&gt;Node7 -->
<g id="edge6" class="edge">
<title>Node1&#45;&gt;Node7</title>
<path fill="none" stroke="midnightblue" d="M68.21,-185.27C83.77,-164.18 114.56,-126.12 149,-103.5 151.97,-101.55 155.1,-99.73 158.34,-98.04"/>
<polygon fill="midnightblue" stroke="midnightblue" points="160.15,-101.05 167.66,-93.58 157.13,-94.74 160.15,-101.05"/>
</g>
<!-- Node8 -->
<g id="node8" class="node">
<title>Node8</title>
<g id="a_node8"><a xlink:href="../../d7/daf/in__memory__url__index__types_8cc.html#ac7945538f83c74cad6ec3b7b5183b0b2" target="_top" xlink:title=" ">
<polygon fill="white" stroke="black" points="325,-69 325,-88 465,-88 465,-69 325,-69"/>
<text text-anchor="middle" x="395" y="-76" font-family="Helvetica,sans-Serif" font-size="10.00">String16VectorFromString16</text>
</a>
</g>
</g>
<!-- Node7&#45;&gt;Node8 -->
<g id="edge7" class="edge">
<title>Node7&#45;&gt;Node8</title>
<path fill="none" stroke="midnightblue" d="M281.84,-78.5C292.53,-78.5 303.78,-78.5 314.86,-78.5"/>
<polygon fill="midnightblue" stroke="midnightblue" points="314.96,-82 324.96,-78.5 314.96,-75 314.96,-82"/>
</g>
<!-- Node9 -->
<g id="node9" class="node">
<title>Node9</title>
<g id="a_node9"><a xlink:href="../../d6/dcd/classTailoredWordBreakIterator.html#a2821ad0b98d4c6dacdf2b007ae042cde" target="_top" xlink:title=" ">
<polygon fill="white" stroke="black" points="501,-126.5 501,-156.5 630,-156.5 630,-126.5 501,-126.5"/>
<text text-anchor="start" x="509" y="-144.5" font-family="Helvetica,sans-Serif" font-size="10.00">TailoredWordBreakIterator</text>
<text text-anchor="middle" x="565.5" y="-133.5" font-family="Helvetica,sans-Serif" font-size="10.00">::Advance</text>
</a>
</g>
</g>
<!-- Node8&#45;&gt;Node9 -->
<g id="edge8" class="edge">
<title>Node8&#45;&gt;Node9</title>
<path fill="none" stroke="midnightblue" d="M421.59,-88.07C446.18,-97.26 484.01,-111.4 514.57,-122.83"/>
<polygon fill="midnightblue" stroke="midnightblue" points="513.61,-126.21 524.21,-126.43 516.07,-119.65 513.61,-126.21"/>
</g>
<!-- Node12 -->
<g id="node12" class="node">
<title>Node12</title>
<g id="a_node12"><a xlink:href="../../d6/dcd/classTailoredWordBreakIterator.html#a198bd2927e6b6e17cd0e6b4fba8756fa" target="_top" xlink:title=" ">
<polygon fill="white" stroke="black" points="672.5,-82.5 672.5,-112.5 801.5,-112.5 801.5,-82.5 672.5,-82.5"/>
<text text-anchor="start" x="680.5" y="-100.5" font-family="Helvetica,sans-Serif" font-size="10.00">TailoredWordBreakIterator</text>
<text text-anchor="middle" x="737" y="-89.5" font-family="Helvetica,sans-Serif" font-size="10.00">::IsWord</text>
</a>
</g>
</g>
<!-- Node8&#45;&gt;Node12 -->
<g id="edge16" class="edge">
<title>Node8&#45;&gt;Node12</title>
<path fill="none" stroke="midnightblue" d="M465.21,-82.37C522.45,-85.57 603.55,-90.1 662.05,-93.37"/>
<polygon fill="midnightblue" stroke="midnightblue" points="662.16,-96.88 672.34,-93.94 662.55,-89.89 662.16,-96.88"/>
</g>
<!-- Node14 -->
<g id="node14" class="node">
<title>Node14</title>
<g id="a_node14"><a xlink:href="../../d6/dcd/classTailoredWordBreakIterator.html#a3ac822a0237ada88c32c0ca5fe6cc18d" target="_top" xlink:title=" ">
<polygon fill="white" stroke="black" points="672.5,-33.5 672.5,-63.5 801.5,-63.5 801.5,-33.5 672.5,-33.5"/>
<text text-anchor="start" x="680.5" y="-51.5" font-family="Helvetica,sans-Serif" font-size="10.00">TailoredWordBreakIterator</text>
<text text-anchor="middle" x="737" y="-40.5" font-family="Helvetica,sans-Serif" font-size="10.00">::GetString</text>
</a>
</g>
</g>
<!-- Node8&#45;&gt;Node14 -->
<g id="edge14" class="edge">
<title>Node8&#45;&gt;Node14</title>
<path fill="none" stroke="midnightblue" d="M465.21,-72.39C522.45,-67.34 603.55,-60.19 662.05,-55.02"/>
<polygon fill="midnightblue" stroke="midnightblue" points="662.68,-58.48 672.34,-54.12 662.07,-51.51 662.68,-58.48"/>
</g>
<!-- Node15 -->
<g id="node15" class="node">
<title>Node15</title>
<g id="a_node15"><a xlink:href="../../d6/dcd/classTailoredWordBreakIterator.html#ad2c08e1c2124a921ac2976e30c39d478" target="_top" xlink:title=" ">
<polygon fill="white" stroke="black" points="501,-0.5 501,-30.5 630,-30.5 630,-0.5 501,-0.5"/>
<text text-anchor="start" x="509" y="-18.5" font-family="Helvetica,sans-Serif" font-size="10.00">TailoredWordBreakIterator</text>
<text text-anchor="middle" x="565.5" y="-7.5" font-family="Helvetica,sans-Serif" font-size="10.00">::prev</text>
</a>
</g>
</g>
<!-- Node8&#45;&gt;Node15 -->
<g id="edge17" class="edge">
<title>Node8&#45;&gt;Node15</title>
<path fill="none" stroke="midnightblue" d="M421.59,-68.93C446.18,-59.74 484.01,-45.6 514.57,-34.17"/>
<polygon fill="midnightblue" stroke="midnightblue" points="516.07,-37.35 524.21,-30.57 513.61,-30.79 516.07,-37.35"/>
</g>
<!-- Node10 -->
<g id="node10" class="node">
<title>Node10</title>
<g id="a_node10"><a xlink:href="../../d6/dcd/classTailoredWordBreakIterator.html#a1b478919417288a574d74b521b52fc08" target="_top" xlink:title=" ">
<polygon fill="white" stroke="black" points="666,-170.5 666,-200.5 808,-200.5 808,-170.5 666,-170.5"/>
<text text-anchor="start" x="674" y="-188.5" font-family="Helvetica,sans-Serif" font-size="10.00">TailoredWordBreakIterator</text>
<text text-anchor="middle" x="737" y="-177.5" font-family="Helvetica,sans-Serif" font-size="10.00">::AdvanceInUnderscoreWord</text>
</a>
</g>
</g>
<!-- Node9&#45;&gt;Node10 -->
<g id="edge9" class="edge">
<title>Node9&#45;&gt;Node10</title>
<path fill="none" stroke="midnightblue" d="M624.36,-156.52C638.46,-160.18 653.67,-164.13 668.19,-167.9"/>
<polygon fill="midnightblue" stroke="midnightblue" points="667.56,-171.35 678.11,-170.47 669.32,-164.57 667.56,-171.35"/>
</g>
<!-- Node11 -->
<g id="node11" class="node">
<title>Node11</title>
<g id="a_node11"><a xlink:href="../../d6/dcd/classTailoredWordBreakIterator.html#aae84d81bdce60da2914d52d30b6c74b4" target="_top" xlink:title=" ">
<polygon fill="white" stroke="black" points="844,-115.5 844,-145.5 973,-145.5 973,-115.5 844,-115.5"/>
<text text-anchor="start" x="852" y="-133.5" font-family="Helvetica,sans-Serif" font-size="10.00">TailoredWordBreakIterator</text>
<text text-anchor="middle" x="908.5" y="-122.5" font-family="Helvetica,sans-Serif" font-size="10.00">::HasUnderscoreWord</text>
</a>
</g>
</g>
<!-- Node9&#45;&gt;Node11 -->
<g id="edge10" class="edge">
<title>Node9&#45;&gt;Node11</title>
<path fill="none" stroke="midnightblue" d="M630.24,-139.44C687.91,-137.58 772.86,-134.84 833.51,-132.89"/>
<polygon fill="midnightblue" stroke="midnightblue" points="833.9,-136.38 843.78,-132.56 833.68,-129.38 833.9,-136.38"/>
</g>
<!-- Node9&#45;&gt;Node12 -->
<g id="edge11" class="edge">
<title>Node9&#45;&gt;Node12</title>
<path fill="none" stroke="midnightblue" d="M624.36,-126.48C638.46,-122.82 653.67,-118.87 668.19,-115.1"/>
<polygon fill="midnightblue" stroke="midnightblue" points="669.32,-118.43 678.11,-112.53 667.56,-111.65 669.32,-118.43"/>
</g>
<!-- Node12&#45;&gt;Node11 -->
<g id="edge13" class="edge">
<title>Node12&#45;&gt;Node11</title>
<path fill="none" stroke="midnightblue" d="M801.6,-109.88C812.17,-111.94 823.21,-114.09 834.01,-116.19"/>
<polygon fill="midnightblue" stroke="midnightblue" points="833.34,-119.63 843.83,-118.1 834.68,-112.76 833.34,-119.63"/>
</g>
<!-- Node13 -->
<g id="node13" class="node">
<title>Node13</title>
<g id="a_node13"><a xlink:href="../../d6/dcd/classTailoredWordBreakIterator.html#a08b402a57411161426e21a435a9a047f" target="_top" xlink:title=" ">
<polygon fill="white" stroke="black" points="844,-55.5 844,-85.5 973,-85.5 973,-55.5 844,-55.5"/>
<text text-anchor="start" x="852" y="-73.5" font-family="Helvetica,sans-Serif" font-size="10.00">TailoredWordBreakIterator</text>
<text text-anchor="middle" x="908.5" y="-62.5" font-family="Helvetica,sans-Serif" font-size="10.00">::GetStringPiece</text>
</a>
</g>
</g>
<!-- Node12&#45;&gt;Node13 -->
<g id="edge12" class="edge">
<title>Node12&#45;&gt;Node13</title>
<path fill="none" stroke="midnightblue" d="M801.6,-87.37C812.06,-85.7 822.99,-83.96 833.67,-82.26"/>
<polygon fill="midnightblue" stroke="midnightblue" points="834.5,-85.67 843.83,-80.64 833.4,-78.76 834.5,-85.67"/>
</g>
<!-- Node14&#45;&gt;Node13 -->
<g id="edge15" class="edge">
<title>Node14&#45;&gt;Node13</title>
<path fill="none" stroke="midnightblue" d="M801.6,-56.75C812.06,-58.11 822.99,-59.53 833.67,-60.92"/>
<polygon fill="midnightblue" stroke="midnightblue" points="833.46,-64.42 843.83,-62.24 834.36,-57.48 833.46,-64.42"/>
</g>
</g>
</svg>
