<?xml version="1.0" encoding="UTF-8" standalone="no"?>
<!DOCTYPE svg PUBLIC "-//W3C//DTD SVG 1.1//EN"
 "http://www.w3.org/Graphics/SVG/1.1/DTD/svg11.dtd">
<!-- Generated by graphviz version 2.43.0 (0)
 -->
<!-- Title: URLIndexPrivateData::DeleteURL Pages: 1 -->
<svg width="631pt" height="39pt"
 viewBox="0.00 0.00 631.00 39.00" xmlns="http://www.w3.org/2000/svg" xmlns:xlink="http://www.w3.org/1999/xlink">
<g id="graph0" class="graph" transform="scale(1 1) rotate(0) translate(4 35)">
<title>URLIndexPrivateData::DeleteURL</title>
<polygon fill="white" stroke="transparent" points="-4,4 -4,-35 627,-35 627,4 -4,4"/>
<!-- Node1 -->
<g id="node1" class="node">
<title>Node1</title>
<g id="a_node1"><a xlink:title=" ">
<polygon fill="#bfbfbf" stroke="black" points="0,-0.5 0,-30.5 113,-30.5 113,-0.5 0,-0.5"/>
<text text-anchor="start" x="8" y="-18.5" font-family="Helvetica,sans-Serif" font-size="10.00">URLIndexPrivateData</text>
<text text-anchor="middle" x="56.5" y="-7.5" font-family="Helvetica,sans-Serif" font-size="10.00">::DeleteURL</text>
</a>
</g>
</g>
<!-- Node2 -->
<g id="node2" class="node">
<title>Node2</title>
<g id="a_node2"><a xlink:href="../../d0/d85/classURLIndexPrivateData.html#ad534098a0b9985a9de3f51540e241d98" target="_top" xlink:title=" ">
<polygon fill="white" stroke="black" points="149,-0.5 149,-30.5 275,-30.5 275,-0.5 149,-0.5"/>
<text text-anchor="start" x="157" y="-18.5" font-family="Helvetica,sans-Serif" font-size="10.00">URLIndexPrivateData</text>
<text text-anchor="middle" x="212" y="-7.5" font-family="Helvetica,sans-Serif" font-size="10.00">::RemoveRowFromIndex</text>
</a>
</g>
</g>
<!-- Node1&#45;&gt;Node2 -->
<g id="edge1" class="edge">
<title>Node1&#45;&gt;Node2</title>
<path fill="none" stroke="midnightblue" d="M113.35,-15.5C121.67,-15.5 130.34,-15.5 138.93,-15.5"/>
<polygon fill="midnightblue" stroke="midnightblue" points="138.96,-19 148.96,-15.5 138.96,-12 138.96,-19"/>
</g>
<!-- Node3 -->
<g id="node3" class="node">
<title>Node3</title>
<g id="a_node3"><a xlink:href="../../d0/d85/classURLIndexPrivateData.html#a78a1c987ef6417f8fefbb86390c2907e" target="_top" xlink:title=" ">
<polygon fill="white" stroke="black" points="311,-0.5 311,-30.5 465,-30.5 465,-0.5 311,-0.5"/>
<text text-anchor="start" x="319" y="-18.5" font-family="Helvetica,sans-Serif" font-size="10.00">URLIndexPrivateData</text>
<text text-anchor="middle" x="388" y="-7.5" font-family="Helvetica,sans-Serif" font-size="10.00">::RemoveRowWordsFromIndex</text>
</a>
</g>
</g>
<!-- Node2&#45;&gt;Node3 -->
<g id="edge2" class="edge">
<title>Node2&#45;&gt;Node3</title>
<path fill="none" stroke="midnightblue" d="M275.33,-15.5C283.6,-15.5 292.19,-15.5 300.78,-15.5"/>
<polygon fill="midnightblue" stroke="midnightblue" points="300.83,-19 310.83,-15.5 300.83,-12 300.83,-19"/>
</g>
<!-- Node4 -->
<g id="node4" class="node">
<title>Node4</title>
<g id="a_node4"><a xlink:href="../../d7/daf/in__memory__url__index__types_8cc.html#a1bd0123786a8983c09cf3e114aa6f654" target="_top" xlink:title=" ">
<polygon fill="white" stroke="black" points="501,-6 501,-25 623,-25 623,-6 501,-6"/>
<text text-anchor="middle" x="562" y="-13" font-family="Helvetica,sans-Serif" font-size="10.00">Char16SetFromString16</text>
</a>
</g>
</g>
<!-- Node3&#45;&gt;Node4 -->
<g id="edge3" class="edge">
<title>Node3&#45;&gt;Node4</title>
<path fill="none" stroke="midnightblue" d="M465.19,-15.5C473.69,-15.5 482.32,-15.5 490.73,-15.5"/>
<polygon fill="midnightblue" stroke="midnightblue" points="490.87,-19 500.87,-15.5 490.87,-12 490.87,-19"/>
</g>
</g>
</svg>
