<?xml version="1.0" encoding="UTF-8" standalone="no"?>
<!DOCTYPE svg PUBLIC "-//W3C//DTD SVG 1.1//EN"
 "http://www.w3.org/Graphics/SVG/1.1/DTD/svg11.dtd">
<!-- Generated by graphviz version 2.43.0 (0)
 -->
<!-- Title: URLIndexPrivateData::UpdateURL Pages: 1 -->
<svg width="1319pt" height="271pt"
 viewBox="0.00 0.00 1319.00 271.00" xmlns="http://www.w3.org/2000/svg" xmlns:xlink="http://www.w3.org/1999/xlink">
<g id="graph0" class="graph" transform="scale(1 1) rotate(0) translate(4 267)">
<title>URLIndexPrivateData::UpdateURL</title>
<polygon fill="white" stroke="transparent" points="-4,4 -4,-267 1315,-267 1315,4 -4,4"/>
<!-- Node1 -->
<g id="node1" class="node">
<title>Node1</title>
<g id="a_node1"><a xlink:title=" ">
<polygon fill="#bfbfbf" stroke="black" points="0,-133.5 0,-163.5 113,-163.5 113,-133.5 0,-133.5"/>
<text text-anchor="start" x="8" y="-151.5" font-family="Helvetica,sans-Serif" font-size="10.00">URLIndexPrivateData</text>
<text text-anchor="middle" x="56.5" y="-140.5" font-family="Helvetica,sans-Serif" font-size="10.00">::UpdateURL</text>
</a>
</g>
</g>
<!-- Node2 -->
<g id="node2" class="node">
<title>Node2</title>
<g id="a_node2"><a xlink:href="../../d0/d85/classURLIndexPrivateData.html#a2d33a57d2ba9aaf60d93a79aba482eb5" target="_top" xlink:title=" ">
<polygon fill="white" stroke="black" points="327,-147.5 327,-177.5 449,-177.5 449,-147.5 327,-147.5"/>
<text text-anchor="start" x="335" y="-165.5" font-family="Helvetica,sans-Serif" font-size="10.00">URLIndexPrivateData</text>
<text text-anchor="middle" x="388" y="-154.5" font-family="Helvetica,sans-Serif" font-size="10.00">::AddRowWordsToIndex</text>
</a>
</g>
</g>
<!-- Node1&#45;&gt;Node2 -->
<g id="edge1" class="edge">
<title>Node1&#45;&gt;Node2</title>
<path fill="none" stroke="midnightblue" d="M113.02,-150.86C169.02,-153.24 255.67,-156.92 316.49,-159.5"/>
<polygon fill="midnightblue" stroke="midnightblue" points="316.64,-163.01 326.78,-159.94 316.94,-156.02 316.64,-163.01"/>
</g>
<!-- Node15 -->
<g id="node15" class="node">
<title>Node15</title>
<g id="a_node15"><a xlink:href="../../d0/d85/classURLIndexPrivateData.html#adb2e56d6db7487fd5121f5724d8efff4" target="_top" xlink:title=" ">
<polygon fill="white" stroke="black" points="155.5,-89.5 155.5,-119.5 268.5,-119.5 268.5,-89.5 155.5,-89.5"/>
<text text-anchor="start" x="163.5" y="-107.5" font-family="Helvetica,sans-Serif" font-size="10.00">URLIndexPrivateData</text>
<text text-anchor="middle" x="212" y="-96.5" font-family="Helvetica,sans-Serif" font-size="10.00">::IndexRow</text>
</a>
</g>
</g>
<!-- Node1&#45;&gt;Node15 -->
<g id="edge17" class="edge">
<title>Node1&#45;&gt;Node15</title>
<path fill="none" stroke="midnightblue" d="M109.9,-133.48C122.42,-129.89 135.92,-126.02 148.84,-122.32"/>
<polygon fill="midnightblue" stroke="midnightblue" points="149.93,-125.65 158.58,-119.53 148,-118.92 149.93,-125.65"/>
</g>
<!-- Node16 -->
<g id="node16" class="node">
<title>Node16</title>
<g id="a_node16"><a xlink:href="../../d0/d85/classURLIndexPrivateData.html#adcee7b7b3395f638ba6fb005107d8bdd" target="_top" xlink:title=" ">
<polygon fill="white" stroke="black" points="312.5,-0.5 312.5,-30.5 463.5,-30.5 463.5,-0.5 312.5,-0.5"/>
<text text-anchor="start" x="320.5" y="-18.5" font-family="Helvetica,sans-Serif" font-size="10.00">URLIndexPrivateData</text>
<text text-anchor="middle" x="388" y="-7.5" font-family="Helvetica,sans-Serif" font-size="10.00">::ScheduleUpdateRecentVisits</text>
</a>
</g>
</g>
<!-- Node1&#45;&gt;Node16 -->
<g id="edge26" class="edge">
<title>Node1&#45;&gt;Node16</title>
<path fill="none" stroke="midnightblue" d="M73.79,-133.4C91.19,-118.03 120.17,-94.53 149,-80.5 197.45,-56.92 255.76,-40.82 302.53,-30.54"/>
<polygon fill="midnightblue" stroke="midnightblue" points="303.29,-33.96 312.33,-28.44 301.82,-27.12 303.29,-33.96"/>
</g>
<!-- Node19 -->
<g id="node19" class="node">
<title>Node19</title>
<g id="a_node19"><a xlink:href="../../d0/d85/classURLIndexPrivateData.html#ad534098a0b9985a9de3f51540e241d98" target="_top" xlink:title=" ">
<polygon fill="white" stroke="black" points="149,-177.5 149,-207.5 275,-207.5 275,-177.5 149,-177.5"/>
<text text-anchor="start" x="157" y="-195.5" font-family="Helvetica,sans-Serif" font-size="10.00">URLIndexPrivateData</text>
<text text-anchor="middle" x="212" y="-184.5" font-family="Helvetica,sans-Serif" font-size="10.00">::RemoveRowFromIndex</text>
</a>
</g>
</g>
<!-- Node1&#45;&gt;Node19 -->
<g id="edge22" class="edge">
<title>Node1&#45;&gt;Node19</title>
<path fill="none" stroke="midnightblue" d="M109.9,-163.52C122.42,-167.11 135.92,-170.98 148.84,-174.68"/>
<polygon fill="midnightblue" stroke="midnightblue" points="148,-178.08 158.58,-177.47 149.93,-171.35 148,-178.08"/>
</g>
<!-- Node20 -->
<g id="node20" class="node">
<title>Node20</title>
<g id="a_node20"><a xlink:href="../../d0/d85/classURLIndexPrivateData.html#a78a1c987ef6417f8fefbb86390c2907e" target="_top" xlink:title=" ">
<polygon fill="white" stroke="black" points="311,-213.5 311,-243.5 465,-243.5 465,-213.5 311,-213.5"/>
<text text-anchor="start" x="319" y="-231.5" font-family="Helvetica,sans-Serif" font-size="10.00">URLIndexPrivateData</text>
<text text-anchor="middle" x="388" y="-220.5" font-family="Helvetica,sans-Serif" font-size="10.00">::RemoveRowWordsFromIndex</text>
</a>
</g>
</g>
<!-- Node1&#45;&gt;Node20 -->
<g id="edge25" class="edge">
<title>Node1&#45;&gt;Node20</title>
<path fill="none" stroke="midnightblue" d="M71.65,-163.63C88.33,-180.3 117.74,-206.23 149,-217.5 197.21,-234.89 254.51,-238.02 300.8,-236.63"/>
<polygon fill="midnightblue" stroke="midnightblue" points="300.95,-240.12 310.81,-236.25 300.68,-233.13 300.95,-240.12"/>
</g>
<!-- Node3 -->
<g id="node3" class="node">
<title>Node3</title>
<g id="a_node3"><a xlink:href="../../d0/d85/classURLIndexPrivateData.html#aee3e3987b38794e92d61041a7898f804" target="_top" xlink:title=" ">
<polygon fill="white" stroke="black" points="507.5,-169.5 507.5,-199.5 620.5,-199.5 620.5,-169.5 507.5,-169.5"/>
<text text-anchor="start" x="515.5" y="-187.5" font-family="Helvetica,sans-Serif" font-size="10.00">URLIndexPrivateData</text>
<text text-anchor="middle" x="564" y="-176.5" font-family="Helvetica,sans-Serif" font-size="10.00">::AddWordToIndex</text>
</a>
</g>
</g>
<!-- Node2&#45;&gt;Node3 -->
<g id="edge2" class="edge">
<title>Node2&#45;&gt;Node3</title>
<path fill="none" stroke="midnightblue" d="M449.37,-170.13C464.83,-172.09 481.53,-174.2 497.24,-176.19"/>
<polygon fill="midnightblue" stroke="midnightblue" points="497.05,-179.69 507.41,-177.47 497.93,-172.74 497.05,-179.69"/>
</g>
<!-- Node6 -->
<g id="node6" class="node">
<title>Node6</title>
<g id="a_node6"><a xlink:href="../../d7/daf/in__memory__url__index__types_8cc.html#a5f9beafdd4e0df78d31248fb69b928fe" target="_top" xlink:title=" ">
<polygon fill="white" stroke="black" points="501,-131 501,-150 627,-150 627,-131 501,-131"/>
<text text-anchor="middle" x="564" y="-138" font-family="Helvetica,sans-Serif" font-size="10.00">String16SetFromString16</text>
</a>
</g>
</g>
<!-- Node2&#45;&gt;Node6 -->
<g id="edge5" class="edge">
<title>Node2&#45;&gt;Node6</title>
<path fill="none" stroke="midnightblue" d="M449.37,-154.87C462.8,-153.17 477.16,-151.35 491,-149.6"/>
<polygon fill="midnightblue" stroke="midnightblue" points="491.48,-153.07 500.97,-148.34 490.61,-146.13 491.48,-153.07"/>
</g>
<!-- Node4 -->
<g id="node4" class="node">
<title>Node4</title>
<g id="a_node4"><a xlink:href="../../d0/d85/classURLIndexPrivateData.html#af7afa3b46a83e1480b74a07e7699f053" target="_top" xlink:title=" ">
<polygon fill="white" stroke="black" points="667.5,-169.5 667.5,-199.5 798.5,-199.5 798.5,-169.5 667.5,-169.5"/>
<text text-anchor="start" x="675.5" y="-187.5" font-family="Helvetica,sans-Serif" font-size="10.00">URLIndexPrivateData</text>
<text text-anchor="middle" x="733" y="-176.5" font-family="Helvetica,sans-Serif" font-size="10.00">::AddNewWordToWordList</text>
</a>
</g>
</g>
<!-- Node3&#45;&gt;Node4 -->
<g id="edge3" class="edge">
<title>Node3&#45;&gt;Node4</title>
<path fill="none" stroke="midnightblue" d="M620.61,-184.5C632.32,-184.5 644.86,-184.5 657.15,-184.5"/>
<polygon fill="midnightblue" stroke="midnightblue" points="657.38,-188 667.38,-184.5 657.38,-181 657.38,-188"/>
</g>
<!-- Node5 -->
<g id="node5" class="node">
<title>Node5</title>
<g id="a_node5"><a xlink:href="../../d7/daf/in__memory__url__index__types_8cc.html#a1bd0123786a8983c09cf3e114aa6f654" target="_top" xlink:title=" ">
<polygon fill="white" stroke="black" points="672,-219 672,-238 794,-238 794,-219 672,-219"/>
<text text-anchor="middle" x="733" y="-226" font-family="Helvetica,sans-Serif" font-size="10.00">Char16SetFromString16</text>
</a>
</g>
</g>
<!-- Node3&#45;&gt;Node5 -->
<g id="edge4" class="edge">
<title>Node3&#45;&gt;Node5</title>
<path fill="none" stroke="midnightblue" d="M620.61,-199.15C641.79,-204.73 665.69,-211.03 685.89,-216.35"/>
<polygon fill="midnightblue" stroke="midnightblue" points="685.23,-219.8 695.79,-218.96 687.01,-213.03 685.23,-219.8"/>
</g>
<!-- Node7 -->
<g id="node7" class="node">
<title>Node7</title>
<g id="a_node7"><a xlink:href="../../d7/daf/in__memory__url__index__types_8cc.html#ac7945538f83c74cad6ec3b7b5183b0b2" target="_top" xlink:title=" ">
<polygon fill="white" stroke="black" points="663,-131 663,-150 803,-150 803,-131 663,-131"/>
<text text-anchor="middle" x="733" y="-138" font-family="Helvetica,sans-Serif" font-size="10.00">String16VectorFromString16</text>
</a>
</g>
</g>
<!-- Node6&#45;&gt;Node7 -->
<g id="edge6" class="edge">
<title>Node6&#45;&gt;Node7</title>
<path fill="none" stroke="midnightblue" d="M627.18,-140.5C635.52,-140.5 644.15,-140.5 652.73,-140.5"/>
<polygon fill="midnightblue" stroke="midnightblue" points="652.74,-144 662.74,-140.5 652.74,-137 652.74,-144"/>
</g>
<!-- Node8 -->
<g id="node8" class="node">
<title>Node8</title>
<g id="a_node8"><a xlink:href="../../d6/dcd/classTailoredWordBreakIterator.html#a2821ad0b98d4c6dacdf2b007ae042cde" target="_top" xlink:title=" ">
<polygon fill="white" stroke="black" points="839,-188.5 839,-218.5 968,-218.5 968,-188.5 839,-188.5"/>
<text text-anchor="start" x="847" y="-206.5" font-family="Helvetica,sans-Serif" font-size="10.00">TailoredWordBreakIterator</text>
<text text-anchor="middle" x="903.5" y="-195.5" font-family="Helvetica,sans-Serif" font-size="10.00">::Advance</text>
</a>
</g>
</g>
<!-- Node7&#45;&gt;Node8 -->
<g id="edge7" class="edge">
<title>Node7&#45;&gt;Node8</title>
<path fill="none" stroke="midnightblue" d="M770.09,-150.03C780.77,-153.1 792.44,-156.7 803,-160.5 822.28,-167.43 843.15,-176.24 860.77,-184.08"/>
<polygon fill="midnightblue" stroke="midnightblue" points="859.64,-187.41 870.2,-188.31 862.51,-181.02 859.64,-187.41"/>
</g>
<!-- Node11 -->
<g id="node11" class="node">
<title>Node11</title>
<g id="a_node11"><a xlink:href="../../d6/dcd/classTailoredWordBreakIterator.html#a198bd2927e6b6e17cd0e6b4fba8756fa" target="_top" xlink:title=" ">
<polygon fill="white" stroke="black" points="1010.5,-144.5 1010.5,-174.5 1139.5,-174.5 1139.5,-144.5 1010.5,-144.5"/>
<text text-anchor="start" x="1018.5" y="-162.5" font-family="Helvetica,sans-Serif" font-size="10.00">TailoredWordBreakIterator</text>
<text text-anchor="middle" x="1075" y="-151.5" font-family="Helvetica,sans-Serif" font-size="10.00">::IsWord</text>
</a>
</g>
</g>
<!-- Node7&#45;&gt;Node11 -->
<g id="edge15" class="edge">
<title>Node7&#45;&gt;Node11</title>
<path fill="none" stroke="midnightblue" d="M803.21,-144.37C860.45,-147.57 941.55,-152.1 1000.05,-155.37"/>
<polygon fill="midnightblue" stroke="midnightblue" points="1000.16,-158.88 1010.34,-155.94 1000.55,-151.89 1000.16,-158.88"/>
</g>
<!-- Node13 -->
<g id="node13" class="node">
<title>Node13</title>
<g id="a_node13"><a xlink:href="../../d6/dcd/classTailoredWordBreakIterator.html#a3ac822a0237ada88c32c0ca5fe6cc18d" target="_top" xlink:title=" ">
<polygon fill="white" stroke="black" points="1010.5,-95.5 1010.5,-125.5 1139.5,-125.5 1139.5,-95.5 1010.5,-95.5"/>
<text text-anchor="start" x="1018.5" y="-113.5" font-family="Helvetica,sans-Serif" font-size="10.00">TailoredWordBreakIterator</text>
<text text-anchor="middle" x="1075" y="-102.5" font-family="Helvetica,sans-Serif" font-size="10.00">::GetString</text>
</a>
</g>
</g>
<!-- Node7&#45;&gt;Node13 -->
<g id="edge13" class="edge">
<title>Node7&#45;&gt;Node13</title>
<path fill="none" stroke="midnightblue" d="M803.21,-134.39C860.45,-129.34 941.55,-122.19 1000.05,-117.02"/>
<polygon fill="midnightblue" stroke="midnightblue" points="1000.68,-120.48 1010.34,-116.12 1000.07,-113.51 1000.68,-120.48"/>
</g>
<!-- Node14 -->
<g id="node14" class="node">
<title>Node14</title>
<g id="a_node14"><a xlink:href="../../d6/dcd/classTailoredWordBreakIterator.html#ad2c08e1c2124a921ac2976e30c39d478" target="_top" xlink:title=" ">
<polygon fill="white" stroke="black" points="839,-62.5 839,-92.5 968,-92.5 968,-62.5 839,-62.5"/>
<text text-anchor="start" x="847" y="-80.5" font-family="Helvetica,sans-Serif" font-size="10.00">TailoredWordBreakIterator</text>
<text text-anchor="middle" x="903.5" y="-69.5" font-family="Helvetica,sans-Serif" font-size="10.00">::prev</text>
</a>
</g>
</g>
<!-- Node7&#45;&gt;Node14 -->
<g id="edge16" class="edge">
<title>Node7&#45;&gt;Node14</title>
<path fill="none" stroke="midnightblue" d="M759.59,-130.93C784.18,-121.74 822.01,-107.6 852.57,-96.17"/>
<polygon fill="midnightblue" stroke="midnightblue" points="854.07,-99.35 862.21,-92.57 851.61,-92.79 854.07,-99.35"/>
</g>
<!-- Node9 -->
<g id="node9" class="node">
<title>Node9</title>
<g id="a_node9"><a xlink:href="../../d6/dcd/classTailoredWordBreakIterator.html#a1b478919417288a574d74b521b52fc08" target="_top" xlink:title=" ">
<polygon fill="white" stroke="black" points="1004,-232.5 1004,-262.5 1146,-262.5 1146,-232.5 1004,-232.5"/>
<text text-anchor="start" x="1012" y="-250.5" font-family="Helvetica,sans-Serif" font-size="10.00">TailoredWordBreakIterator</text>
<text text-anchor="middle" x="1075" y="-239.5" font-family="Helvetica,sans-Serif" font-size="10.00">::AdvanceInUnderscoreWord</text>
</a>
</g>
</g>
<!-- Node8&#45;&gt;Node9 -->
<g id="edge8" class="edge">
<title>Node8&#45;&gt;Node9</title>
<path fill="none" stroke="midnightblue" d="M962.36,-218.52C976.46,-222.18 991.67,-226.13 1006.19,-229.9"/>
<polygon fill="midnightblue" stroke="midnightblue" points="1005.56,-233.35 1016.11,-232.47 1007.32,-226.57 1005.56,-233.35"/>
</g>
<!-- Node10 -->
<g id="node10" class="node">
<title>Node10</title>
<g id="a_node10"><a xlink:href="../../d6/dcd/classTailoredWordBreakIterator.html#aae84d81bdce60da2914d52d30b6c74b4" target="_top" xlink:title=" ">
<polygon fill="white" stroke="black" points="1182,-177.5 1182,-207.5 1311,-207.5 1311,-177.5 1182,-177.5"/>
<text text-anchor="start" x="1190" y="-195.5" font-family="Helvetica,sans-Serif" font-size="10.00">TailoredWordBreakIterator</text>
<text text-anchor="middle" x="1246.5" y="-184.5" font-family="Helvetica,sans-Serif" font-size="10.00">::HasUnderscoreWord</text>
</a>
</g>
</g>
<!-- Node8&#45;&gt;Node10 -->
<g id="edge9" class="edge">
<title>Node8&#45;&gt;Node10</title>
<path fill="none" stroke="midnightblue" d="M968.24,-201.44C1025.91,-199.58 1110.86,-196.84 1171.51,-194.89"/>
<polygon fill="midnightblue" stroke="midnightblue" points="1171.9,-198.38 1181.78,-194.56 1171.68,-191.38 1171.9,-198.38"/>
</g>
<!-- Node8&#45;&gt;Node11 -->
<g id="edge10" class="edge">
<title>Node8&#45;&gt;Node11</title>
<path fill="none" stroke="midnightblue" d="M962.36,-188.48C976.46,-184.82 991.67,-180.87 1006.19,-177.1"/>
<polygon fill="midnightblue" stroke="midnightblue" points="1007.32,-180.43 1016.11,-174.53 1005.56,-173.65 1007.32,-180.43"/>
</g>
<!-- Node11&#45;&gt;Node10 -->
<g id="edge12" class="edge">
<title>Node11&#45;&gt;Node10</title>
<path fill="none" stroke="midnightblue" d="M1139.6,-171.88C1150.17,-173.94 1161.21,-176.09 1172.01,-178.19"/>
<polygon fill="midnightblue" stroke="midnightblue" points="1171.34,-181.63 1181.83,-180.1 1172.68,-174.76 1171.34,-181.63"/>
</g>
<!-- Node12 -->
<g id="node12" class="node">
<title>Node12</title>
<g id="a_node12"><a xlink:href="../../d6/dcd/classTailoredWordBreakIterator.html#a08b402a57411161426e21a435a9a047f" target="_top" xlink:title=" ">
<polygon fill="white" stroke="black" points="1182,-117.5 1182,-147.5 1311,-147.5 1311,-117.5 1182,-117.5"/>
<text text-anchor="start" x="1190" y="-135.5" font-family="Helvetica,sans-Serif" font-size="10.00">TailoredWordBreakIterator</text>
<text text-anchor="middle" x="1246.5" y="-124.5" font-family="Helvetica,sans-Serif" font-size="10.00">::GetStringPiece</text>
</a>
</g>
</g>
<!-- Node11&#45;&gt;Node12 -->
<g id="edge11" class="edge">
<title>Node11&#45;&gt;Node12</title>
<path fill="none" stroke="midnightblue" d="M1139.6,-149.37C1150.06,-147.7 1160.99,-145.96 1171.67,-144.26"/>
<polygon fill="midnightblue" stroke="midnightblue" points="1172.5,-147.67 1181.83,-142.64 1171.4,-140.76 1172.5,-147.67"/>
</g>
<!-- Node13&#45;&gt;Node12 -->
<g id="edge14" class="edge">
<title>Node13&#45;&gt;Node12</title>
<path fill="none" stroke="midnightblue" d="M1139.6,-118.75C1150.06,-120.11 1160.99,-121.53 1171.67,-122.92"/>
<polygon fill="midnightblue" stroke="midnightblue" points="1171.46,-126.42 1181.83,-124.24 1172.36,-119.48 1171.46,-126.42"/>
</g>
<!-- Node15&#45;&gt;Node2 -->
<g id="edge18" class="edge">
<title>Node15&#45;&gt;Node2</title>
<path fill="none" stroke="midnightblue" d="M255.84,-119.66C272.96,-125.64 292.88,-132.5 311,-138.5 316.86,-140.44 322.99,-142.44 329.11,-144.41"/>
<polygon fill="midnightblue" stroke="midnightblue" points="328.1,-147.76 338.69,-147.47 330.23,-141.09 328.1,-147.76"/>
</g>
<!-- Node15&#45;&gt;Node16 -->
<g id="edge19" class="edge">
<title>Node15&#45;&gt;Node16</title>
<path fill="none" stroke="midnightblue" d="M236.68,-89.49C248.29,-82.06 262.44,-72.91 275,-64.5 291.19,-53.66 293.51,-48.09 311,-39.5 314.77,-37.65 318.72,-35.9 322.75,-34.25"/>
<polygon fill="midnightblue" stroke="midnightblue" points="324.17,-37.45 332.25,-30.6 321.66,-30.92 324.17,-37.45"/>
</g>
<!-- Node17 -->
<g id="node17" class="node">
<title>Node17</title>
<g id="a_node17"><a xlink:href="../../d0/d85/classURLIndexPrivateData.html#aa94bca52fbf7d5a7f89651241ddc6e61" target="_top" xlink:title=" ">
<polygon fill="white" stroke="black" points="331.5,-49.5 331.5,-79.5 444.5,-79.5 444.5,-49.5 331.5,-49.5"/>
<text text-anchor="start" x="339.5" y="-67.5" font-family="Helvetica,sans-Serif" font-size="10.00">URLIndexPrivateData</text>
<text text-anchor="middle" x="388" y="-56.5" font-family="Helvetica,sans-Serif" font-size="10.00">::UpdateRecentVisits</text>
</a>
</g>
</g>
<!-- Node15&#45;&gt;Node17 -->
<g id="edge20" class="edge">
<title>Node15&#45;&gt;Node17</title>
<path fill="none" stroke="midnightblue" d="M268.53,-91.73C285.33,-87.87 303.93,-83.6 321.32,-79.6"/>
<polygon fill="midnightblue" stroke="midnightblue" points="322.44,-82.93 331.4,-77.28 320.87,-76.11 322.44,-82.93"/>
</g>
<!-- Node18 -->
<g id="node18" class="node">
<title>Node18</title>
<g id="a_node18"><a xlink:href="../../d0/d85/classURLIndexPrivateData.html#ae1bb0aa23c8be9b4e80ebe0895736746" target="_top" xlink:title=" ">
<polygon fill="white" stroke="black" points="321,-98.5 321,-128.5 455,-128.5 455,-98.5 321,-98.5"/>
<text text-anchor="start" x="329" y="-116.5" font-family="Helvetica,sans-Serif" font-size="10.00">URLIndexPrivateData</text>
<text text-anchor="middle" x="388" y="-105.5" font-family="Helvetica,sans-Serif" font-size="10.00">::URLSchemeIsAllowlisted</text>
</a>
</g>
</g>
<!-- Node15&#45;&gt;Node18 -->
<g id="edge21" class="edge">
<title>Node15&#45;&gt;Node18</title>
<path fill="none" stroke="midnightblue" d="M268.53,-107.37C281.9,-108.06 296.41,-108.81 310.54,-109.55"/>
<polygon fill="midnightblue" stroke="midnightblue" points="310.58,-113.05 320.75,-110.07 310.94,-106.06 310.58,-113.05"/>
</g>
<!-- Node19&#45;&gt;Node20 -->
<g id="edge23" class="edge">
<title>Node19&#45;&gt;Node20</title>
<path fill="none" stroke="midnightblue" d="M275.33,-205.4C284.83,-207.36 294.77,-209.42 304.63,-211.46"/>
<polygon fill="midnightblue" stroke="midnightblue" points="303.94,-214.89 314.44,-213.49 305.36,-208.03 303.94,-214.89"/>
</g>
<!-- Node20&#45;&gt;Node5 -->
<g id="edge24" class="edge">
<title>Node20&#45;&gt;Node5</title>
<path fill="none" stroke="midnightblue" d="M465.12,-228.5C523.86,-228.5 604.49,-228.5 661.72,-228.5"/>
<polygon fill="midnightblue" stroke="midnightblue" points="661.76,-232 671.76,-228.5 661.76,-225 661.76,-232"/>
</g>
</g>
</svg>
