<?xml version="1.0" encoding="UTF-8" standalone="no"?>
<!DOCTYPE svg PUBLIC "-//W3C//DTD SVG 1.1//EN"
 "http://www.w3.org/Graphics/SVG/1.1/DTD/svg11.dtd">
<!-- Generated by graphviz version 2.43.0 (0)
 -->
<!-- Title: ShortcutsBackend::AddOrUpdateShortcut Pages: 1 -->
<!--zoomable 274 -->
<svg id="main" version="1.1" xmlns="http://www.w3.org/2000/svg" xmlns:xlink="http://www.w3.org/1999/xlink" xml:space="preserve" onload="init(evt)">
<style type="text/css"><![CDATA[
.edge:hover path { stroke: red; }
.edge:hover polygon { stroke: red; fill: red; }
]]></style>
<script type="text/javascript"><![CDATA[
var edges = document.getElementsByTagName('g');
if (edges && edges.length) {
  for (var i=0;i<edges.length;i++) {
    if (edges[i].id.substr(0,4)=='edge') {
      edges[i].setAttribute('class','edge');
    }
  }
}
]]></script>
        <defs>
                <circle id="rim" cx="0" cy="0" r="7"/>
                <circle id="rim2" cx="0" cy="0" r="3.5"/>
                <g id="zoomPlus">
                        <use xlink:href="#rim" fill="#404040">
                                <set attributeName="fill" to="#808080" begin="zoomplus.mouseover" end="zoomplus.mouseout"/>
                        </use>
                        <path d="M-4,0h8M0,-4v8" fill="none" stroke="white" stroke-width="1.5" pointer-events="none"/>
                </g>
                <g id="zoomMin">
                        <use xlink:href="#rim" fill="#404040">
                                <set attributeName="fill" to="#808080" begin="zoomminus.mouseover" end="zoomminus.mouseout"/>
                        </use>
                        <path d="M-4,0h8" fill="none" stroke="white" stroke-width="1.5" pointer-events="none"/>
                </g>
                <g id="dirArrow">
                        <path fill="none" stroke="white" stroke-width="1.5" d="M0,-3.0v7 M-2.5,-0.5L0,-3.0L2.5,-0.5"/>
                </g>
               <g id="resetDef">
                       <use xlink:href="#rim2" fill="#404040">
                               <set attributeName="fill" to="#808080" begin="reset.mouseover" end="reset.mouseout"/>
                       </use>
               </g>
        </defs>

<script type="text/javascript">
var viewWidth = 889;
var viewHeight = 274;
var sectionId = 'dynsection-2';
</script>
<script xlink:href="../../svgpan.js"/>
<svg id="graph" class="graph">
<g id="viewport">
<title>ShortcutsBackend::AddOrUpdateShortcut</title>
<polygon fill="white" stroke="transparent" points="-4,4 -4,-270 885,-270 885,4 -4,4"/>
<!-- Node1 -->
<g id="node1" class="node">
<title>Node1</title>
<g id="a_node1"><a xlink:title=" ">
<polygon fill="#bfbfbf" stroke="black" points="0,-88.5 0,-118.5 162,-118.5 162,-88.5 0,-88.5"/>
<text text-anchor="start" x="8" y="-106.5" font-family="Helvetica,sans-Serif" font-size="10.00">ShortcutsBackend::AddOrUpdate</text>
<text text-anchor="middle" x="81" y="-95.5" font-family="Helvetica,sans-Serif" font-size="10.00">Shortcut</text>
</a>
</g>
</g>
<!-- Node2 -->
<g id="node2" class="node">
<title>Node2</title>
<g id="a_node2"><a xlink:href="../../d3/d69/classShortcutsBackend.html#adf80fa23ecdd9a99bb3a49d680b983f7" target="_top" xlink:title=" ">
<polygon fill="white" stroke="black" points="198,-94 198,-113 355,-113 355,-94 198,-94"/>
<text text-anchor="middle" x="276.5" y="-101" font-family="Helvetica,sans-Serif" font-size="10.00">ShortcutsBackend::AddShortcut</text>
</a>
</g>
</g>
<!-- Node1&#45;&gt;Node2 -->
<g id="edge1" class="edge">
<title>Node1&#45;&gt;Node2</title>
<path fill="none" stroke="midnightblue" d="M162.1,-103.5C170.62,-103.5 179.32,-103.5 187.92,-103.5"/>
<polygon fill="midnightblue" stroke="midnightblue" points="187.95,-107 197.95,-103.5 187.95,-100 187.95,-107"/>
</g>
<!-- Node5 -->
<g id="node5" class="node">
<title>Node5</title>
<g id="a_node5"><a xlink:href="../../d3/d69/classShortcutsBackend.html#a9fecdbef1ac80c1163806e92f249bc55" target="_top" xlink:title=" ">
<polygon fill="white" stroke="black" points="206.5,-161.5 206.5,-191.5 346.5,-191.5 346.5,-161.5 206.5,-161.5"/>
<text text-anchor="start" x="214.5" y="-179.5" font-family="Helvetica,sans-Serif" font-size="10.00">ShortcutsBackend::MatchTo</text>
<text text-anchor="middle" x="276.5" y="-168.5" font-family="Helvetica,sans-Serif" font-size="10.00">MatchCore</text>
</a>
</g>
</g>
<!-- Node1&#45;&gt;Node5 -->
<g id="edge4" class="edge">
<title>Node1&#45;&gt;Node5</title>
<path fill="none" stroke="midnightblue" d="M122.09,-118.63C152.19,-129.98 193.58,-145.59 225.78,-157.74"/>
<polygon fill="midnightblue" stroke="midnightblue" points="224.87,-161.14 235.46,-161.39 227.34,-154.59 224.87,-161.14"/>
</g>
<!-- Node13 -->
<g id="node13" class="node">
<title>Node13</title>
<g id="a_node13"><a xlink:href="../../d3/d69/classShortcutsBackend.html#a8ca3ab4fca56543bb445a7be4b675eba" target="_top" xlink:title=" ">
<polygon fill="white" stroke="black" points="209.5,-44.5 209.5,-74.5 343.5,-74.5 343.5,-44.5 209.5,-44.5"/>
<text text-anchor="start" x="217.5" y="-62.5" font-family="Helvetica,sans-Serif" font-size="10.00">ShortcutsBackend::Update</text>
<text text-anchor="middle" x="276.5" y="-51.5" font-family="Helvetica,sans-Serif" font-size="10.00">Shortcut</text>
</a>
</g>
</g>
<!-- Node1&#45;&gt;Node13 -->
<g id="edge12" class="edge">
<title>Node1&#45;&gt;Node13</title>
<path fill="none" stroke="midnightblue" d="M148.05,-88.48C164.62,-84.71 182.52,-80.64 199.53,-76.78"/>
<polygon fill="midnightblue" stroke="midnightblue" points="200.44,-80.16 209.42,-74.53 198.89,-73.33 200.44,-80.16"/>
</g>
<!-- Node3 -->
<g id="node3" class="node">
<title>Node3</title>
<g id="a_node3"><a xlink:href="../../d8/df9/classShortcutsDatabase.html#a4d44b73ff1842b468acc76843a195f51" target="_top" xlink:title=" ">
<polygon fill="white" stroke="black" points="409,-88.5 409,-118.5 516,-118.5 516,-88.5 409,-88.5"/>
<text text-anchor="start" x="417" y="-106.5" font-family="Helvetica,sans-Serif" font-size="10.00">ShortcutsDatabase::</text>
<text text-anchor="middle" x="462.5" y="-95.5" font-family="Helvetica,sans-Serif" font-size="10.00">AddShortcut</text>
</a>
</g>
</g>
<!-- Node2&#45;&gt;Node3 -->
<g id="edge2" class="edge">
<title>Node2&#45;&gt;Node3</title>
<path fill="none" stroke="midnightblue" d="M355.27,-103.5C369.65,-103.5 384.5,-103.5 398.38,-103.5"/>
<polygon fill="midnightblue" stroke="midnightblue" points="398.78,-107 408.78,-103.5 398.78,-100 398.78,-107"/>
</g>
<!-- Node4 -->
<g id="node4" class="node">
<title>Node4</title>
<g id="a_node4"><a xlink:href="../../d3/d69/classShortcutsBackend.html#ae6f9186ab50ebfbb1be28920c5a7a621" target="_top" xlink:title=" ">
<polygon fill="white" stroke="black" points="391,-50 391,-69 534,-69 534,-50 391,-50"/>
<text text-anchor="middle" x="462.5" y="-57" font-family="Helvetica,sans-Serif" font-size="10.00">ShortcutsBackend::initialized</text>
</a>
</g>
</g>
<!-- Node2&#45;&gt;Node4 -->
<g id="edge3" class="edge">
<title>Node2&#45;&gt;Node4</title>
<path fill="none" stroke="midnightblue" d="M317.43,-93.95C345.15,-87.32 382.29,-78.44 411.92,-71.36"/>
<polygon fill="midnightblue" stroke="midnightblue" points="412.74,-74.76 421.65,-69.03 411.11,-67.95 412.74,-74.76"/>
</g>
<!-- Node6 -->
<g id="node6" class="node">
<title>Node6</title>
<g id="a_node6"><a xlink:href="../../d0/ddc/classBaseSearchProvider.html#a0842abe2bc866f08d7962b934f066895" target="_top" xlink:title=" ">
<polygon fill="white" stroke="black" points="397,-137.5 397,-167.5 528,-167.5 528,-137.5 397,-137.5"/>
<text text-anchor="start" x="405" y="-155.5" font-family="Helvetica,sans-Serif" font-size="10.00">BaseSearchProvider</text>
<text text-anchor="middle" x="462.5" y="-144.5" font-family="Helvetica,sans-Serif" font-size="10.00">::CreateSearchSuggestion</text>
</a>
</g>
</g>
<!-- Node5&#45;&gt;Node6 -->
<g id="edge5" class="edge">
<title>Node5&#45;&gt;Node6</title>
<path fill="none" stroke="midnightblue" d="M346.54,-167.5C359.7,-165.78 373.54,-163.97 386.87,-162.23"/>
<polygon fill="midnightblue" stroke="midnightblue" points="387.48,-165.68 396.94,-160.92 386.57,-158.74 387.48,-165.68"/>
</g>
<!-- Node10 -->
<g id="node10" class="node">
<title>Node10</title>
<g id="a_node10"><a xlink:href="../../dc/d8f/structAutocompleteMatch.html#aea073526afc3c6acd1684ad21b6f234c" target="_top" xlink:title=" ">
<polygon fill="white" stroke="black" points="407.5,-235.5 407.5,-265.5 517.5,-265.5 517.5,-235.5 407.5,-235.5"/>
<text text-anchor="start" x="415.5" y="-253.5" font-family="Helvetica,sans-Serif" font-size="10.00">AutocompleteMatch::</text>
<text text-anchor="middle" x="462.5" y="-242.5" font-family="Helvetica,sans-Serif" font-size="10.00">GetTemplateURL</text>
</a>
</g>
</g>
<!-- Node5&#45;&gt;Node10 -->
<g id="edge9" class="edge">
<title>Node5&#45;&gt;Node10</title>
<path fill="none" stroke="midnightblue" d="M309.97,-191.7C332.49,-202.03 363.31,-215.71 391,-226.5 395.77,-228.36 400.75,-230.22 405.77,-232.03"/>
<polygon fill="midnightblue" stroke="midnightblue" points="404.81,-235.4 415.4,-235.45 407.15,-228.81 404.81,-235.4"/>
</g>
<!-- Node12 -->
<g id="node12" class="node">
<title>Node12</title>
<g id="a_node12"><a xlink:href="../../dc/d8f/structAutocompleteMatch.html#aaca5dac30caf1899132db064a3213d9e" target="_top" xlink:title=" ">
<polygon fill="white" stroke="black" points="399,-186.5 399,-216.5 526,-216.5 526,-186.5 399,-186.5"/>
<text text-anchor="start" x="407" y="-204.5" font-family="Helvetica,sans-Serif" font-size="10.00">AutocompleteMatch::</text>
<text text-anchor="middle" x="462.5" y="-193.5" font-family="Helvetica,sans-Serif" font-size="10.00">IsSpecializedSearchType</text>
</a>
</g>
</g>
<!-- Node5&#45;&gt;Node12 -->
<g id="edge11" class="edge">
<title>Node5&#45;&gt;Node12</title>
<path fill="none" stroke="midnightblue" d="M346.54,-185.88C360.32,-187.75 374.84,-189.73 388.75,-191.62"/>
<polygon fill="midnightblue" stroke="midnightblue" points="388.37,-195.1 398.75,-192.97 389.31,-188.16 388.37,-195.1"/>
</g>
<!-- Node7 -->
<g id="node7" class="node">
<title>Node7</title>
<g id="a_node7"><a xlink:href="../../da/d24/classSearchSuggestionParser_1_1Result.html#a0ed89050a7d0dc76b293f67ddde47427" target="_top" xlink:title=" ">
<polygon fill="white" stroke="black" points="582.5,-154 582.5,-195 707.5,-195 707.5,-154 582.5,-154"/>
<text text-anchor="start" x="590.5" y="-183" font-family="Helvetica,sans-Serif" font-size="10.00">SearchSuggestionParser</text>
<text text-anchor="start" x="590.5" y="-172" font-family="Helvetica,sans-Serif" font-size="10.00">::Result::set_received</text>
<text text-anchor="middle" x="645" y="-161" font-family="Helvetica,sans-Serif" font-size="10.00">_after_last_keystroke</text>
</a>
</g>
</g>
<!-- Node6&#45;&gt;Node7 -->
<g id="edge6" class="edge">
<title>Node6&#45;&gt;Node7</title>
<path fill="none" stroke="midnightblue" d="M528.15,-160.38C542.46,-162.12 557.69,-163.98 572.26,-165.76"/>
<polygon fill="midnightblue" stroke="midnightblue" points="571.86,-169.23 582.21,-166.97 572.71,-162.28 571.86,-169.23"/>
</g>
<!-- Node9 -->
<g id="node9" class="node">
<title>Node9</title>
<g id="a_node9"><a xlink:href="../../dd/de9/classAutocompleteProvider.html#afee5fe39a16a2cc459b6baa0d8a1521e" target="_top" xlink:title=" ">
<polygon fill="white" stroke="black" points="588.5,-104.5 588.5,-134.5 701.5,-134.5 701.5,-104.5 588.5,-104.5"/>
<text text-anchor="start" x="596.5" y="-122.5" font-family="Helvetica,sans-Serif" font-size="10.00">AutocompleteProvider</text>
<text text-anchor="middle" x="645" y="-111.5" font-family="Helvetica,sans-Serif" font-size="10.00">::type</text>
</a>
</g>
</g>
<!-- Node6&#45;&gt;Node9 -->
<g id="edge8" class="edge">
<title>Node6&#45;&gt;Node9</title>
<path fill="none" stroke="midnightblue" d="M528.15,-140.68C544.49,-137.69 562.05,-134.48 578.43,-131.49"/>
<polygon fill="midnightblue" stroke="midnightblue" points="579.24,-134.9 588.45,-129.66 577.98,-128.01 579.24,-134.9"/>
</g>
<!-- Node8 -->
<g id="node8" class="node">
<title>Node8</title>
<g id="a_node8"><a xlink:href="../../da/d24/classSearchSuggestionParser_1_1Result.html#ad22dc49110314d33933218f2c70b60e5" target="_top" xlink:title=" ">
<polygon fill="white" stroke="black" points="756,-154 756,-195 881,-195 881,-154 756,-154"/>
<text text-anchor="start" x="764" y="-183" font-family="Helvetica,sans-Serif" font-size="10.00">SearchSuggestionParser</text>
<text text-anchor="start" x="764" y="-172" font-family="Helvetica,sans-Serif" font-size="10.00">::Result::received_after</text>
<text text-anchor="middle" x="818.5" y="-161" font-family="Helvetica,sans-Serif" font-size="10.00">_last_keystroke</text>
</a>
</g>
</g>
<!-- Node7&#45;&gt;Node8 -->
<g id="edge7" class="edge">
<title>Node7&#45;&gt;Node8</title>
<path fill="none" stroke="midnightblue" d="M707.92,-174.5C720.26,-174.5 733.31,-174.5 745.94,-174.5"/>
<polygon fill="midnightblue" stroke="midnightblue" points="745.96,-178 755.96,-174.5 745.96,-171 745.96,-178"/>
</g>
<!-- Node11 -->
<g id="node11" class="node">
<title>Node11</title>
<g id="a_node11"><a xlink:href="../../dc/d8f/structAutocompleteMatch.html#aba08ed5c0c0d17e823d6c86c2f11675a" target="_top" xlink:title=" ">
<polygon fill="white" stroke="black" points="570,-235.5 570,-265.5 720,-265.5 720,-235.5 570,-235.5"/>
<text text-anchor="start" x="578" y="-253.5" font-family="Helvetica,sans-Serif" font-size="10.00">AutocompleteMatch::</text>
<text text-anchor="middle" x="645" y="-242.5" font-family="Helvetica,sans-Serif" font-size="10.00">GetTemplateURLWithKeyword</text>
</a>
</g>
</g>
<!-- Node10&#45;&gt;Node11 -->
<g id="edge10" class="edge">
<title>Node10&#45;&gt;Node11</title>
<path fill="none" stroke="midnightblue" d="M517.66,-250.5C530.86,-250.5 545.3,-250.5 559.54,-250.5"/>
<polygon fill="midnightblue" stroke="midnightblue" points="559.86,-254 569.86,-250.5 559.86,-247 559.86,-254"/>
</g>
<!-- Node13&#45;&gt;Node4 -->
<g id="edge13" class="edge">
<title>Node13&#45;&gt;Node4</title>
<path fill="none" stroke="midnightblue" d="M343.67,-59.5C355.66,-59.5 368.29,-59.5 380.65,-59.5"/>
<polygon fill="midnightblue" stroke="midnightblue" points="380.95,-63 390.95,-59.5 380.95,-56 380.95,-63"/>
</g>
<!-- Node14 -->
<g id="node14" class="node">
<title>Node14</title>
<g id="a_node14"><a xlink:href="../../d8/df9/classShortcutsDatabase.html#a610d7ad6fba97933335eeb6b635fd07a" target="_top" xlink:title=" ">
<polygon fill="white" stroke="black" points="409,-0.5 409,-30.5 516,-30.5 516,-0.5 409,-0.5"/>
<text text-anchor="start" x="417" y="-18.5" font-family="Helvetica,sans-Serif" font-size="10.00">ShortcutsDatabase::</text>
<text text-anchor="middle" x="462.5" y="-7.5" font-family="Helvetica,sans-Serif" font-size="10.00">UpdateShortcut</text>
</a>
</g>
</g>
<!-- Node13&#45;&gt;Node14 -->
<g id="edge14" class="edge">
<title>Node13&#45;&gt;Node14</title>
<path fill="none" stroke="midnightblue" d="M340.31,-44.48C359.19,-39.96 379.91,-35.01 398.79,-30.5"/>
<polygon fill="midnightblue" stroke="midnightblue" points="399.86,-33.84 408.77,-28.11 398.23,-27.03 399.86,-33.84"/>
</g>
</g>
</svg>
        <g id="navigator" transform="translate(0 0)" fill="#404254">
                <rect fill="#f2f5e9" fill-opacity="0.5" stroke="#606060" stroke-width=".5" x="0" y="0" width="60" height="60"/>
                <use id="zoomplus" xlink:href="#zoomPlus" x="17" y="9" onmousedown="handleZoom(evt,'in')"/>
                <use id="zoomminus" xlink:href="#zoomMin" x="42" y="9" onmousedown="handleZoom(evt,'out')"/>
                <use id="reset" xlink:href="#resetDef" x="30" y="36" onmousedown="handleReset()"/>
                <g id="arrowUp" xlink:href="#dirArrow" transform="translate(30 24)" onmousedown="handlePan(0,-1)">
                  <use xlink:href="#rim" fill="#404040">
                        <set attributeName="fill" to="#808080" begin="arrowUp.mouseover" end="arrowUp.mouseout"/>
                  </use>
                  <path fill="none" stroke="white" stroke-width="1.5" d="M0,-3.0v7 M-2.5,-0.5L0,-3.0L2.5,-0.5"/>
                </g>
                <g id="arrowRight" xlink:href="#dirArrow" transform="rotate(90) translate(36 -43)" onmousedown="handlePan(1,0)">
                  <use xlink:href="#rim" fill="#404040">
                        <set attributeName="fill" to="#808080" begin="arrowRight.mouseover" end="arrowRight.mouseout"/>
                  </use>
                  <path fill="none" stroke="white" stroke-width="1.5" d="M0,-3.0v7 M-2.5,-0.5L0,-3.0L2.5,-0.5"/>
                </g>
                <g id="arrowDown" xlink:href="#dirArrow" transform="rotate(180) translate(-30 -48)" onmousedown="handlePan(0,1)">
                  <use xlink:href="#rim" fill="#404040">
                        <set attributeName="fill" to="#808080" begin="arrowDown.mouseover" end="arrowDown.mouseout"/>
                  </use>
                  <path fill="none" stroke="white" stroke-width="1.5" d="M0,-3.0v7 M-2.5,-0.5L0,-3.0L2.5,-0.5"/>
                </g>
                <g id="arrowLeft" xlink:href="#dirArrow" transform="rotate(270) translate(-36 17)" onmousedown="handlePan(-1,0)">
                  <use xlink:href="#rim" fill="#404040">
                        <set attributeName="fill" to="#808080" begin="arrowLeft.mouseover" end="arrowLeft.mouseout"/>
                  </use>
                  <path fill="none" stroke="white" stroke-width="1.5" d="M0,-3.0v7 M-2.5,-0.5L0,-3.0L2.5,-0.5"/>
                </g>
        </g>
        <svg viewBox="0 0 15 15" width="100%" height="30px" preserveAspectRatio="xMaxYMin meet">
         <g id="arrow_out" transform="scale(0.3 0.3)">
          <a xlink:href="classShortcutsBackend_ace8f9af5b80c50ae3334c1ab074fcab2_cgraph_org.svg" target="_base">
           <rect id="button" ry="5" rx="5" y="6" x="6" height="38" width="38"
                fill="#f2f5e9" fill-opacity="0.5" stroke="#606060" stroke-width="1.0"/>
           <path id="arrow"
             d="M 11.500037,31.436501 C 11.940474,20.09759 22.043105,11.32322 32.158766,21.979434 L 37.068811,17.246167 C 37.068811,17.246167 37.088388,32 37.088388,32 L 22.160133,31.978069 C 22.160133,31.978069 26.997745,27.140456 26.997745,27.140456 C 18.528582,18.264221 13.291696,25.230495 11.500037,31.436501 z"
             style="fill:#404040;"/>
          </a>
         </g>
        </svg>
</svg>
