<?xml version="1.0" encoding="UTF-8" standalone="no"?>
<!DOCTYPE svg PUBLIC "-//W3C//DTD SVG 1.1//EN"
 "http://www.w3.org/Graphics/SVG/1.1/DTD/svg11.dtd">
<!-- Generated by graphviz version 2.43.0 (0)
 -->
<!-- Title: ShortcutsBackend::AddShortcut Pages: 1 -->
<svg width="344pt" height="78pt"
 viewBox="0.00 0.00 344.00 77.50" xmlns="http://www.w3.org/2000/svg" xmlns:xlink="http://www.w3.org/1999/xlink">
<g id="graph0" class="graph" transform="scale(1 1) rotate(0) translate(4 73.5)">
<title>ShortcutsBackend::AddShortcut</title>
<polygon fill="white" stroke="transparent" points="-4,4 -4,-73.5 340,-73.5 340,4 -4,4"/>
<!-- Node1 -->
<g id="node1" class="node">
<title>Node1</title>
<g id="a_node1"><a xlink:title=" ">
<polygon fill="#bfbfbf" stroke="black" points="0,-22.5 0,-41.5 157,-41.5 157,-22.5 0,-22.5"/>
<text text-anchor="middle" x="78.5" y="-29.5" font-family="Helvetica,sans-Serif" font-size="10.00">ShortcutsBackend::AddShortcut</text>
</a>
</g>
</g>
<!-- Node2 -->
<g id="node2" class="node">
<title>Node2</title>
<g id="a_node2"><a xlink:href="../../d8/df9/classShortcutsDatabase.html#a4d44b73ff1842b468acc76843a195f51" target="_top" xlink:title=" ">
<polygon fill="white" stroke="black" points="211,-39 211,-69 318,-69 318,-39 211,-39"/>
<text text-anchor="start" x="219" y="-57" font-family="Helvetica,sans-Serif" font-size="10.00">ShortcutsDatabase::</text>
<text text-anchor="middle" x="264.5" y="-46" font-family="Helvetica,sans-Serif" font-size="10.00">AddShortcut</text>
</a>
</g>
</g>
<!-- Node1&#45;&gt;Node2 -->
<g id="edge1" class="edge">
<title>Node1&#45;&gt;Node2</title>
<path fill="none" stroke="midnightblue" d="M157.27,-41.3C171.79,-43.03 186.8,-44.83 200.79,-46.5"/>
<polygon fill="midnightblue" stroke="midnightblue" points="200.44,-49.99 210.78,-47.7 201.27,-43.03 200.44,-49.99"/>
</g>
<!-- Node3 -->
<g id="node3" class="node">
<title>Node3</title>
<g id="a_node3"><a xlink:href="../../d3/d69/classShortcutsBackend.html#ae6f9186ab50ebfbb1be28920c5a7a621" target="_top" xlink:title=" ">
<polygon fill="white" stroke="black" points="193,-0.5 193,-19.5 336,-19.5 336,-0.5 193,-0.5"/>
<text text-anchor="middle" x="264.5" y="-7.5" font-family="Helvetica,sans-Serif" font-size="10.00">ShortcutsBackend::initialized</text>
</a>
</g>
</g>
<!-- Node1&#45;&gt;Node3 -->
<g id="edge2" class="edge">
<title>Node1&#45;&gt;Node3</title>
<path fill="none" stroke="midnightblue" d="M157.27,-22.7C165.63,-21.7 174.16,-20.68 182.57,-19.68"/>
<polygon fill="midnightblue" stroke="midnightblue" points="183.22,-23.12 192.73,-18.46 182.39,-16.17 183.22,-23.12"/>
</g>
</g>
</svg>
