<?xml version="1.0" encoding="UTF-8" standalone="no"?>
<!DOCTYPE svg PUBLIC "-//W3C//DTD SVG 1.1//EN"
 "http://www.w3.org/Graphics/SVG/1.1/DTD/svg11.dtd">
<!-- Generated by graphviz version 2.43.0 (0)
 -->
<!-- Title: ShortcutsBackend::OnURLsDeleted Pages: 1 -->
<svg width="495pt" height="127pt"
 viewBox="0.00 0.00 495.00 127.00" xmlns="http://www.w3.org/2000/svg" xmlns:xlink="http://www.w3.org/1999/xlink">
<g id="graph0" class="graph" transform="scale(1 1) rotate(0) translate(4 123)">
<title>ShortcutsBackend::OnURLsDeleted</title>
<polygon fill="white" stroke="transparent" points="-4,4 -4,-123 491,-123 491,4 -4,4"/>
<!-- Node1 -->
<g id="node1" class="node">
<title>Node1</title>
<g id="a_node1"><a xlink:title=" ">
<polygon fill="#bfbfbf" stroke="black" points="0,-44.5 0,-74.5 141,-74.5 141,-44.5 0,-44.5"/>
<text text-anchor="start" x="8" y="-62.5" font-family="Helvetica,sans-Serif" font-size="10.00">ShortcutsBackend::OnURLs</text>
<text text-anchor="middle" x="70.5" y="-51.5" font-family="Helvetica,sans-Serif" font-size="10.00">Deleted</text>
</a>
</g>
</g>
<!-- Node2 -->
<g id="node2" class="node">
<title>Node2</title>
<g id="a_node2"><a xlink:href="../../d3/d69/classShortcutsBackend.html#a037359b11cf4fc62d5c868bb3ef2d467" target="_top" xlink:title=" ">
<polygon fill="white" stroke="black" points="177,-88.5 177,-118.5 308,-118.5 308,-88.5 177,-88.5"/>
<text text-anchor="start" x="185" y="-106.5" font-family="Helvetica,sans-Serif" font-size="10.00">ShortcutsBackend::Delete</text>
<text text-anchor="middle" x="242.5" y="-95.5" font-family="Helvetica,sans-Serif" font-size="10.00">AllShortcuts</text>
</a>
</g>
</g>
<!-- Node1&#45;&gt;Node2 -->
<g id="edge1" class="edge">
<title>Node1&#45;&gt;Node2</title>
<path fill="none" stroke="midnightblue" d="M129.53,-74.52C143.67,-78.18 158.93,-82.13 173.49,-85.9"/>
<polygon fill="midnightblue" stroke="midnightblue" points="172.89,-89.36 183.44,-88.47 174.64,-82.58 172.89,-89.36"/>
</g>
<!-- Node4 -->
<g id="node4" class="node">
<title>Node4</title>
<g id="a_node4"><a xlink:href="../../d3/d69/classShortcutsBackend.html#ae6f9186ab50ebfbb1be28920c5a7a621" target="_top" xlink:title=" ">
<polygon fill="white" stroke="black" points="344,-50 344,-69 487,-69 487,-50 344,-50"/>
<text text-anchor="middle" x="415.5" y="-57" font-family="Helvetica,sans-Serif" font-size="10.00">ShortcutsBackend::initialized</text>
</a>
</g>
</g>
<!-- Node1&#45;&gt;Node4 -->
<g id="edge7" class="edge">
<title>Node1&#45;&gt;Node4</title>
<path fill="none" stroke="midnightblue" d="M141.32,-59.5C197.04,-59.5 275.15,-59.5 333.59,-59.5"/>
<polygon fill="midnightblue" stroke="midnightblue" points="333.89,-63 343.89,-59.5 333.89,-56 333.89,-63"/>
</g>
<!-- Node5 -->
<g id="node5" class="node">
<title>Node5</title>
<g id="a_node5"><a xlink:href="../../d3/d69/classShortcutsBackend.html#a0efc5c4e4553c4fb1570c40da68f99b2" target="_top" xlink:title=" ">
<polygon fill="white" stroke="black" points="177,-0.5 177,-30.5 308,-30.5 308,-0.5 177,-0.5"/>
<text text-anchor="start" x="185" y="-18.5" font-family="Helvetica,sans-Serif" font-size="10.00">ShortcutsBackend::Delete</text>
<text text-anchor="middle" x="242.5" y="-7.5" font-family="Helvetica,sans-Serif" font-size="10.00">ShortcutsWithIDs</text>
</a>
</g>
</g>
<!-- Node1&#45;&gt;Node5 -->
<g id="edge4" class="edge">
<title>Node1&#45;&gt;Node5</title>
<path fill="none" stroke="midnightblue" d="M129.53,-44.48C143.67,-40.82 158.93,-36.87 173.49,-33.1"/>
<polygon fill="midnightblue" stroke="midnightblue" points="174.64,-36.42 183.44,-30.53 172.89,-29.64 174.64,-36.42"/>
</g>
<!-- Node3 -->
<g id="node3" class="node">
<title>Node3</title>
<g id="a_node3"><a xlink:href="../../d8/df9/classShortcutsDatabase.html#aad73b9ffebddeb0b8502be5845ff3817" target="_top" xlink:title=" ">
<polygon fill="white" stroke="black" points="362,-88.5 362,-118.5 469,-118.5 469,-88.5 362,-88.5"/>
<text text-anchor="start" x="370" y="-106.5" font-family="Helvetica,sans-Serif" font-size="10.00">ShortcutsDatabase::</text>
<text text-anchor="middle" x="415.5" y="-95.5" font-family="Helvetica,sans-Serif" font-size="10.00">DeleteAllShortcuts</text>
</a>
</g>
</g>
<!-- Node2&#45;&gt;Node3 -->
<g id="edge2" class="edge">
<title>Node2&#45;&gt;Node3</title>
<path fill="none" stroke="midnightblue" d="M308.15,-103.5C322.46,-103.5 337.59,-103.5 351.82,-103.5"/>
<polygon fill="midnightblue" stroke="midnightblue" points="352,-107 362,-103.5 352,-100 352,-107"/>
</g>
<!-- Node2&#45;&gt;Node4 -->
<g id="edge3" class="edge">
<title>Node2&#45;&gt;Node4</title>
<path fill="none" stroke="midnightblue" d="M301.87,-88.48C323.31,-82.96 347.28,-76.8 367.59,-71.57"/>
<polygon fill="midnightblue" stroke="midnightblue" points="368.72,-74.89 377.53,-69.01 366.97,-68.11 368.72,-74.89"/>
</g>
<!-- Node5&#45;&gt;Node4 -->
<g id="edge6" class="edge">
<title>Node5&#45;&gt;Node4</title>
<path fill="none" stroke="midnightblue" d="M301.87,-30.52C323.31,-36.04 347.28,-42.2 367.59,-47.43"/>
<polygon fill="midnightblue" stroke="midnightblue" points="366.97,-50.89 377.53,-49.99 368.72,-44.11 366.97,-50.89"/>
</g>
<!-- Node6 -->
<g id="node6" class="node">
<title>Node6</title>
<g id="a_node6"><a xlink:href="../../d8/df9/classShortcutsDatabase.html#a6dddb539c9fa458c78dc14aa2d06a1ab" target="_top" xlink:title=" ">
<polygon fill="white" stroke="black" points="354,-0.5 354,-30.5 477,-30.5 477,-0.5 354,-0.5"/>
<text text-anchor="start" x="362" y="-18.5" font-family="Helvetica,sans-Serif" font-size="10.00">ShortcutsDatabase::</text>
<text text-anchor="middle" x="415.5" y="-7.5" font-family="Helvetica,sans-Serif" font-size="10.00">DeleteShortcutsWithIDs</text>
</a>
</g>
</g>
<!-- Node5&#45;&gt;Node6 -->
<g id="edge5" class="edge">
<title>Node5&#45;&gt;Node6</title>
<path fill="none" stroke="midnightblue" d="M308.15,-15.5C319.78,-15.5 331.96,-15.5 343.75,-15.5"/>
<polygon fill="midnightblue" stroke="midnightblue" points="343.99,-19 353.99,-15.5 343.99,-12 343.99,-19"/>
</g>
</g>
</svg>
