<?xml version="1.0" encoding="UTF-8" standalone="no"?>
<!DOCTYPE svg PUBLIC "-//W3C//DTD SVG 1.1//EN"
 "http://www.w3.org/Graphics/SVG/1.1/DTD/svg11.dtd">
<!-- Generated by graphviz version 2.43.0 (0)
 -->
<!-- Title: ShortcutsBackend::DeleteShortcutsBeginningWithURL Pages: 1 -->
<svg width="496pt" height="61pt"
 viewBox="0.00 0.00 496.00 61.00" xmlns="http://www.w3.org/2000/svg" xmlns:xlink="http://www.w3.org/1999/xlink">
<g id="graph0" class="graph" transform="scale(1 1) rotate(0) translate(4 57)">
<title>ShortcutsBackend::DeleteShortcutsBeginningWithURL</title>
<polygon fill="white" stroke="transparent" points="-4,4 -4,-57 492,-57 492,4 -4,4"/>
<!-- Node1 -->
<g id="node1" class="node">
<title>Node1</title>
<g id="a_node1"><a xlink:title=" ">
<polygon fill="#bfbfbf" stroke="black" points="0,-0.5 0,-30.5 142,-30.5 142,-0.5 0,-0.5"/>
<text text-anchor="start" x="8" y="-18.5" font-family="Helvetica,sans-Serif" font-size="10.00">ShortcutsBackend::Delete</text>
<text text-anchor="middle" x="71" y="-7.5" font-family="Helvetica,sans-Serif" font-size="10.00">ShortcutsBeginningWithURL</text>
</a>
</g>
</g>
<!-- Node2 -->
<g id="node2" class="node">
<title>Node2</title>
<g id="a_node2"><a xlink:href="../../d3/d69/classShortcutsBackend.html#a8fb2b3e69c9f6a6621ce24dfdb9f1a38" target="_top" xlink:title=" ">
<polygon fill="white" stroke="black" points="178,-22.5 178,-52.5 309,-52.5 309,-22.5 178,-22.5"/>
<text text-anchor="start" x="186" y="-40.5" font-family="Helvetica,sans-Serif" font-size="10.00">ShortcutsBackend::Delete</text>
<text text-anchor="middle" x="243.5" y="-29.5" font-family="Helvetica,sans-Serif" font-size="10.00">ShortcutsWithURL</text>
</a>
</g>
</g>
<!-- Node1&#45;&gt;Node2 -->
<g id="edge1" class="edge">
<title>Node1&#45;&gt;Node2</title>
<path fill="none" stroke="midnightblue" d="M142.33,-24.58C150.68,-25.65 159.23,-26.75 167.63,-27.84"/>
<polygon fill="midnightblue" stroke="midnightblue" points="167.43,-31.34 177.8,-29.15 168.33,-24.4 167.43,-31.34"/>
</g>
<!-- Node3 -->
<g id="node3" class="node">
<title>Node3</title>
<g id="a_node3"><a xlink:href="../../d3/d69/classShortcutsBackend.html#ae6f9186ab50ebfbb1be28920c5a7a621" target="_top" xlink:title=" ">
<polygon fill="white" stroke="black" points="345,-6 345,-25 488,-25 488,-6 345,-6"/>
<text text-anchor="middle" x="416.5" y="-13" font-family="Helvetica,sans-Serif" font-size="10.00">ShortcutsBackend::initialized</text>
</a>
</g>
</g>
<!-- Node1&#45;&gt;Node3 -->
<g id="edge3" class="edge">
<title>Node1&#45;&gt;Node3</title>
<path fill="none" stroke="midnightblue" d="M142.13,-13.99C154.1,-13.79 166.4,-13.61 178,-13.5 236.22,-12.95 250.78,-12.95 309,-13.5 317.31,-13.58 325.98,-13.69 334.63,-13.82"/>
<polygon fill="midnightblue" stroke="midnightblue" points="334.7,-17.32 344.75,-13.99 334.81,-10.32 334.7,-17.32"/>
</g>
<!-- Node2&#45;&gt;Node3 -->
<g id="edge2" class="edge">
<title>Node2&#45;&gt;Node3</title>
<path fill="none" stroke="midnightblue" d="M309.15,-29.18C317.51,-28.11 326.15,-26.99 334.73,-25.89"/>
<polygon fill="midnightblue" stroke="midnightblue" points="335.29,-29.35 344.76,-24.6 334.39,-22.41 335.29,-29.35"/>
</g>
</g>
</svg>
