<?xml version="1.0" encoding="UTF-8" standalone="no"?>
<!DOCTYPE svg PUBLIC "-//W3C//DTD SVG 1.1//EN"
 "http://www.w3.org/Graphics/SVG/1.1/DTD/svg11.dtd">
<!-- Generated by graphviz version 2.43.0 (0)
 -->
<!-- Title: OmniboxPedalCustomizeChromeFonts Pages: 1 -->
<svg width="314pt" height="231pt"
 viewBox="0.00 0.00 313.50 231.00" xmlns="http://www.w3.org/2000/svg" xmlns:xlink="http://www.w3.org/1999/xlink">
<g id="graph0" class="graph" transform="scale(1 1) rotate(0) translate(4 227)">
<title>OmniboxPedalCustomizeChromeFonts</title>
<polygon fill="white" stroke="transparent" points="-4,4 -4,-227 309.5,-227 309.5,4 -4,4"/>
<!-- Node1 -->
<g id="node1" class="node">
<title>Node1</title>
<g id="a_node1"><a xlink:title=" ">
<polygon fill="#bfbfbf" stroke="black" points="72,-0.5 72,-30.5 234,-30.5 234,-0.5 72,-0.5"/>
<text text-anchor="start" x="80" y="-18.5" font-family="Helvetica,sans-Serif" font-size="10.00">OmniboxPedalCustomizeChrome</text>
<text text-anchor="middle" x="153" y="-7.5" font-family="Helvetica,sans-Serif" font-size="10.00">Fonts</text>
</a>
</g>
</g>
<!-- Node2 -->
<g id="node2" class="node">
<title>Node2</title>
<g id="a_node2"><a xlink:href="../../d4/de9/classOmniboxPedal.html" target="_top" xlink:title=" ">
<polygon fill="white" stroke="black" points="113,-68.5 113,-87.5 193,-87.5 193,-68.5 113,-68.5"/>
<text text-anchor="middle" x="153" y="-75.5" font-family="Helvetica,sans-Serif" font-size="10.00">OmniboxPedal</text>
</a>
</g>
</g>
<!-- Node2&#45;&gt;Node1 -->
<g id="edge1" class="edge">
<title>Node2&#45;&gt;Node1</title>
<path fill="none" stroke="midnightblue" d="M153,-58.22C153,-49.36 153,-38.96 153,-30.76"/>
<polygon fill="midnightblue" stroke="midnightblue" points="149.5,-58.33 153,-68.33 156.5,-58.33 149.5,-58.33"/>
</g>
<!-- Node3 -->
<g id="node3" class="node">
<title>Node3</title>
<g id="a_node3"><a xlink:href="../../d9/d8f/classOmniboxAction.html" target="_top" xlink:title=" ">
<polygon fill="white" stroke="black" points="111.5,-125.5 111.5,-144.5 194.5,-144.5 194.5,-125.5 111.5,-125.5"/>
<text text-anchor="middle" x="153" y="-132.5" font-family="Helvetica,sans-Serif" font-size="10.00">OmniboxAction</text>
</a>
</g>
</g>
<!-- Node3&#45;&gt;Node2 -->
<g id="edge2" class="edge">
<title>Node3&#45;&gt;Node2</title>
<path fill="none" stroke="midnightblue" d="M153,-115.12C153,-105.82 153,-95.06 153,-87.71"/>
<polygon fill="midnightblue" stroke="midnightblue" points="149.5,-115.41 153,-125.41 156.5,-115.41 149.5,-115.41"/>
</g>
<!-- Node4 -->
<g id="node4" class="node">
<title>Node4</title>
<g id="a_node4"><a xlink:title=" ">
<polygon fill="white" stroke="#bfbfbf" points="0,-192.5 0,-222.5 144,-222.5 144,-192.5 0,-192.5"/>
<text text-anchor="start" x="8" y="-210.5" font-family="Helvetica,sans-Serif" font-size="10.00">base::RefCounted&lt; Omnibox</text>
<text text-anchor="middle" x="72" y="-199.5" font-family="Helvetica,sans-Serif" font-size="10.00">Action &gt;</text>
</a>
</g>
</g>
<!-- Node4&#45;&gt;Node3 -->
<g id="edge3" class="edge">
<title>Node4&#45;&gt;Node3</title>
<path fill="none" stroke="midnightblue" d="M96.12,-185.51C111.68,-171.96 131.13,-155.03 142.78,-144.89"/>
<polygon fill="midnightblue" stroke="midnightblue" points="93.64,-183.03 88.39,-192.23 98.23,-188.31 93.64,-183.03"/>
</g>
<!-- Node5 -->
<g id="node5" class="node">
<title>Node5</title>
<g id="a_node5"><a xlink:href="../../da/df2/structOmniboxAction_1_1LabelStrings.html" target="_top" xlink:title=" ">
<polygon fill="white" stroke="black" points="162.5,-198 162.5,-217 305.5,-217 305.5,-198 162.5,-198"/>
<text text-anchor="middle" x="234" y="-205" font-family="Helvetica,sans-Serif" font-size="10.00">OmniboxAction::LabelStrings</text>
</a>
</g>
</g>
<!-- Node5&#45;&gt;Node3 -->
<g id="edge4" class="edge">
<title>Node5&#45;&gt;Node3</title>
<path fill="none" stroke="#9a32cd" stroke-dasharray="5,2" d="M216.29,-191.08C199.96,-176.87 176.29,-156.27 163.01,-144.72"/>
<polygon fill="#9a32cd" stroke="#9a32cd" points="214.23,-193.93 224.07,-197.86 218.82,-188.65 214.23,-193.93"/>
<text text-anchor="middle" x="215" y="-166" font-family="Helvetica,sans-Serif" font-size="10.00"> strings_</text>
</g>
</g>
</svg>
