<?xml version="1.0" encoding="UTF-8" standalone="no"?>
<!DOCTYPE svg PUBLIC "-//W3C//DTD SVG 1.1//EN"
 "http://www.w3.org/Graphics/SVG/1.1/DTD/svg11.dtd">
<!-- Generated by graphviz version 2.43.0 (0)
 -->
<!-- Title: components/omnibox/browser/actions/omnibox_pedal.h Pages: 1 -->
<svg width="1384pt" height="262pt"
 viewBox="0.00 0.00 1384.00 262.00" xmlns="http://www.w3.org/2000/svg" xmlns:xlink="http://www.w3.org/1999/xlink">
<g id="graph0" class="graph" transform="scale(1 1) rotate(0) translate(4 258)">
<title>components/omnibox/browser/actions/omnibox_pedal.h</title>
<polygon fill="white" stroke="transparent" points="-4,4 -4,-258 1380,-258 1380,4 -4,4"/>
<!-- Node1 -->
<g id="node1" class="node">
<title>Node1</title>
<g id="a_node1"><a xlink:title=" ">
<polygon fill="#bfbfbf" stroke="black" points="572,-212.5 572,-253.5 700,-253.5 700,-212.5 572,-212.5"/>
<text text-anchor="start" x="580" y="-241.5" font-family="Helvetica,sans-Serif" font-size="10.00">components/omnibox</text>
<text text-anchor="start" x="580" y="-230.5" font-family="Helvetica,sans-Serif" font-size="10.00">/browser/actions/omnibox</text>
<text text-anchor="middle" x="636" y="-219.5" font-family="Helvetica,sans-Serif" font-size="10.00">_pedal.h</text>
</a>
</g>
</g>
<!-- Node2 -->
<g id="node2" class="node">
<title>Node2</title>
<g id="a_node2"><a xlink:title=" ">
<polygon fill="white" stroke="#bfbfbf" points="241,-145.5 241,-164.5 319,-164.5 319,-145.5 241,-145.5"/>
<text text-anchor="middle" x="280" y="-152.5" font-family="Helvetica,sans-Serif" font-size="10.00">unordered_set</text>
</a>
</g>
</g>
<!-- Node1&#45;&gt;Node2 -->
<g id="edge1" class="edge">
<title>Node1&#45;&gt;Node2</title>
<path fill="none" stroke="midnightblue" d="M571.95,-224.44C508.99,-216.06 410.61,-200.41 328,-176 321.14,-173.97 313.92,-171.28 307.23,-168.53"/>
<polygon fill="midnightblue" stroke="midnightblue" points="308.47,-165.26 297.9,-164.54 305.71,-171.69 308.47,-165.26"/>
</g>
<!-- Node3 -->
<g id="node3" class="node">
<title>Node3</title>
<g id="a_node3"><a xlink:title=" ">
<polygon fill="white" stroke="#bfbfbf" points="337,-145.5 337,-164.5 381,-164.5 381,-145.5 337,-145.5"/>
<text text-anchor="middle" x="359" y="-152.5" font-family="Helvetica,sans-Serif" font-size="10.00">vector</text>
</a>
</g>
</g>
<!-- Node1&#45;&gt;Node3 -->
<g id="edge2" class="edge">
<title>Node1&#45;&gt;Node3</title>
<path fill="none" stroke="midnightblue" d="M571.94,-223.69C521.16,-215.64 449.14,-200.89 390,-176 386.19,-174.4 382.33,-172.33 378.69,-170.14"/>
<polygon fill="midnightblue" stroke="midnightblue" points="380.53,-167.16 370.24,-164.61 376.7,-173.01 380.53,-167.16"/>
</g>
<!-- Node4 -->
<g id="node4" class="node">
<title>Node4</title>
<g id="a_node4"><a xlink:title=" ">
<polygon fill="white" stroke="#bfbfbf" points="399.5,-145.5 399.5,-164.5 512.5,-164.5 512.5,-145.5 399.5,-145.5"/>
<text text-anchor="middle" x="456" y="-152.5" font-family="Helvetica,sans-Serif" font-size="10.00">base/gtest_prod_util.h</text>
</a>
</g>
</g>
<!-- Node1&#45;&gt;Node4 -->
<g id="edge3" class="edge">
<title>Node1&#45;&gt;Node4</title>
<path fill="none" stroke="midnightblue" d="M589.65,-212.43C556.85,-198.58 513.84,-180.42 485.59,-168.49"/>
<polygon fill="midnightblue" stroke="midnightblue" points="486.83,-165.22 476.25,-164.55 484.11,-171.67 486.83,-165.22"/>
</g>
<!-- Node5 -->
<g id="node5" class="node">
<title>Node5</title>
<g id="a_node5"><a xlink:title=" ">
<polygon fill="white" stroke="#bfbfbf" points="530.5,-145.5 530.5,-164.5 607.5,-164.5 607.5,-145.5 530.5,-145.5"/>
<text text-anchor="middle" x="569" y="-152.5" font-family="Helvetica,sans-Serif" font-size="10.00">base/values.h</text>
</a>
</g>
</g>
<!-- Node1&#45;&gt;Node5 -->
<g id="edge4" class="edge">
<title>Node1&#45;&gt;Node5</title>
<path fill="none" stroke="midnightblue" d="M618.75,-212.43C607.76,-199.97 593.71,-184.03 583.34,-172.27"/>
<polygon fill="midnightblue" stroke="midnightblue" points="585.78,-169.74 576.54,-164.55 580.53,-174.37 585.78,-169.74"/>
</g>
<!-- Node6 -->
<g id="node6" class="node">
<title>Node6</title>
<g id="a_node6"><a xlink:title=" ">
<polygon fill="white" stroke="#bfbfbf" points="0,-67.5 0,-86.5 100,-86.5 100,-67.5 0,-67.5"/>
<text text-anchor="middle" x="50" y="-74.5" font-family="Helvetica,sans-Serif" font-size="10.00">build/build_config.h</text>
</a>
</g>
</g>
<!-- Node1&#45;&gt;Node6 -->
<g id="edge5" class="edge">
<title>Node1&#45;&gt;Node6</title>
<path fill="none" stroke="midnightblue" d="M638.27,-212.46C639.68,-189.89 638.02,-153.4 616,-134 575.78,-98.58 187.97,-106.16 135,-98 120.53,-95.77 104.88,-92.38 91.01,-89.02"/>
<polygon fill="midnightblue" stroke="midnightblue" points="91.81,-85.61 81.26,-86.59 90.12,-92.4 91.81,-85.61"/>
</g>
<!-- Node7 -->
<g id="node7" class="node">
<title>Node7</title>
<g id="a_node7"><a xlink:href="../../de/d5a/omnibox__action_8h.html" target="_top" xlink:title=" ">
<polygon fill="white" stroke="black" points="664,-134.5 664,-175.5 792,-175.5 792,-134.5 664,-134.5"/>
<text text-anchor="start" x="672" y="-163.5" font-family="Helvetica,sans-Serif" font-size="10.00">components/omnibox</text>
<text text-anchor="start" x="672" y="-152.5" font-family="Helvetica,sans-Serif" font-size="10.00">/browser/actions/omnibox</text>
<text text-anchor="middle" x="728" y="-141.5" font-family="Helvetica,sans-Serif" font-size="10.00">_action.h</text>
</a>
</g>
</g>
<!-- Node1&#45;&gt;Node7 -->
<g id="edge6" class="edge">
<title>Node1&#45;&gt;Node7</title>
<path fill="none" stroke="midnightblue" d="M659.69,-212.43C670.85,-203.21 684.32,-192.08 696.34,-182.15"/>
<polygon fill="midnightblue" stroke="midnightblue" points="698.91,-184.57 704.39,-175.51 694.45,-179.18 698.91,-184.57"/>
</g>
<!-- Node13 -->
<g id="node13" class="node">
<title>Node13</title>
<g id="a_node13"><a xlink:title=" ">
<polygon fill="white" stroke="#bfbfbf" points="1194,-62 1194,-92 1304,-92 1304,-62 1194,-62"/>
<text text-anchor="start" x="1202" y="-80" font-family="Helvetica,sans-Serif" font-size="10.00">components/omnibox</text>
<text text-anchor="middle" x="1249" y="-69" font-family="Helvetica,sans-Serif" font-size="10.00">/browser/buildflags.h</text>
</a>
</g>
</g>
<!-- Node1&#45;&gt;Node13 -->
<g id="edge21" class="edge">
<title>Node1&#45;&gt;Node13</title>
<path fill="none" stroke="midnightblue" d="M700.03,-217.45C731.87,-208.48 770.06,-194.99 801,-176 823.77,-162.03 819.82,-145.36 844,-134 981.92,-69.17 1035.76,-128.88 1185,-98 1189.42,-97.09 1193.96,-95.99 1198.49,-94.79"/>
<polygon fill="midnightblue" stroke="midnightblue" points="1199.66,-98.1 1208.35,-92.02 1197.77,-91.36 1199.66,-98.1"/>
</g>
<!-- Node18 -->
<g id="node18" class="node">
<title>Node18</title>
<g id="a_node18"><a xlink:title=" ">
<polygon fill="white" stroke="#bfbfbf" points="1322,-67.5 1322,-86.5 1376,-86.5 1376,-67.5 1322,-67.5"/>
<text text-anchor="middle" x="1349" y="-74.5" font-family="Helvetica,sans-Serif" font-size="10.00">url/gurl.h</text>
</a>
</g>
</g>
<!-- Node1&#45;&gt;Node18 -->
<g id="edge22" class="edge">
<title>Node1&#45;&gt;Node18</title>
<path fill="none" stroke="midnightblue" d="M700.2,-222.85C741.2,-214.94 794.28,-200.74 836,-176 858.44,-162.7 853.4,-145.11 877,-134 1052.92,-51.2 1126.95,-154.48 1313,-98 1317.96,-96.5 1322.99,-94.24 1327.66,-91.78"/>
<polygon fill="midnightblue" stroke="midnightblue" points="1329.69,-94.65 1336.6,-86.62 1326.19,-88.59 1329.69,-94.65"/>
</g>
<!-- Node19 -->
<g id="node19" class="node">
<title>Node19</title>
<g id="a_node19"><a xlink:href="../../d6/d72/omnibox__pedal__concepts_8h.html" target="_top" xlink:title=" ">
<polygon fill="white" stroke="black" points="886,-134.5 886,-175.5 1014,-175.5 1014,-134.5 886,-134.5"/>
<text text-anchor="start" x="894" y="-163.5" font-family="Helvetica,sans-Serif" font-size="10.00">components/omnibox</text>
<text text-anchor="start" x="894" y="-152.5" font-family="Helvetica,sans-Serif" font-size="10.00">/browser/actions/omnibox</text>
<text text-anchor="middle" x="950" y="-141.5" font-family="Helvetica,sans-Serif" font-size="10.00">_pedal_concepts.h</text>
</a>
</g>
</g>
<!-- Node1&#45;&gt;Node19 -->
<g id="edge20" class="edge">
<title>Node1&#45;&gt;Node19</title>
<path fill="none" stroke="midnightblue" d="M700.18,-217.1C747.68,-205.99 813.95,-190.33 872,-176 873.26,-175.69 874.53,-175.37 875.81,-175.06"/>
<polygon fill="midnightblue" stroke="midnightblue" points="876.9,-178.39 885.75,-172.57 875.2,-171.6 876.9,-178.39"/>
</g>
<!-- Node7&#45;&gt;Node6 -->
<g id="edge11" class="edge">
<title>Node7&#45;&gt;Node6</title>
<path fill="none" stroke="midnightblue" d="M663.92,-136.57C659.23,-135.61 654.56,-134.73 650,-134 414.25,-96.19 348.69,-141.91 114,-98 103.53,-96.04 92.37,-92.93 82.35,-89.73"/>
<polygon fill="midnightblue" stroke="midnightblue" points="83.37,-86.39 72.77,-86.56 81.16,-93.03 83.37,-86.39"/>
</g>
<!-- Node8 -->
<g id="node8" class="node">
<title>Node8</title>
<g id="a_node8"><a xlink:title=" ">
<polygon fill="white" stroke="#bfbfbf" points="150.5,-0.5 150.5,-19.5 191.5,-19.5 191.5,-0.5 150.5,-0.5"/>
<text text-anchor="middle" x="171" y="-7.5" font-family="Helvetica,sans-Serif" font-size="10.00">string</text>
</a>
</g>
</g>
<!-- Node7&#45;&gt;Node8 -->
<g id="edge7" class="edge">
<title>Node7&#45;&gt;Node8</title>
<path fill="none" stroke="midnightblue" d="M663.92,-136.6C659.23,-135.62 654.55,-134.74 650,-134 594.69,-125.01 185.18,-139.01 147,-98 129.03,-78.7 145.07,-47.16 158.16,-27.83"/>
<polygon fill="midnightblue" stroke="midnightblue" points="161.04,-29.82 164.02,-19.66 155.35,-25.75 161.04,-29.82"/>
</g>
<!-- Node9 -->
<g id="node9" class="node">
<title>Node9</title>
<g id="a_node9"><a xlink:title=" ">
<polygon fill="white" stroke="#bfbfbf" points="290.5,-67.5 290.5,-86.5 375.5,-86.5 375.5,-67.5 290.5,-67.5"/>
<text text-anchor="middle" x="333" y="-74.5" font-family="Helvetica,sans-Serif" font-size="10.00">base/callback.h</text>
</a>
</g>
</g>
<!-- Node7&#45;&gt;Node9 -->
<g id="edge8" class="edge">
<title>Node7&#45;&gt;Node9</title>
<path fill="none" stroke="midnightblue" d="M663.86,-136.93C659.18,-135.87 654.53,-134.88 650,-134 533.35,-111.2 500.13,-127.53 385,-98 377.31,-96.03 369.21,-93.27 361.75,-90.42"/>
<polygon fill="midnightblue" stroke="midnightblue" points="362.99,-87.15 352.4,-86.7 360.4,-93.65 362.99,-87.15"/>
</g>
<!-- Node10 -->
<g id="node10" class="node">
<title>Node10</title>
<g id="a_node10"><a xlink:title=" ">
<polygon fill="white" stroke="#bfbfbf" points="394,-67.5 394,-86.5 532,-86.5 532,-67.5 394,-67.5"/>
<text text-anchor="middle" x="463" y="-74.5" font-family="Helvetica,sans-Serif" font-size="10.00">base/memory/ref_counted.h</text>
</a>
</g>
</g>
<!-- Node7&#45;&gt;Node10 -->
<g id="edge9" class="edge">
<title>Node7&#45;&gt;Node10</title>
<path fill="none" stroke="midnightblue" d="M663.85,-135.6C613.51,-121.16 545.04,-101.53 502.46,-89.32"/>
<polygon fill="midnightblue" stroke="midnightblue" points="503.31,-85.92 492.74,-86.53 501.38,-92.65 503.31,-85.92"/>
</g>
<!-- Node11 -->
<g id="node11" class="node">
<title>Node11</title>
<g id="a_node11"><a xlink:title=" ">
<polygon fill="white" stroke="#bfbfbf" points="550.5,-67.5 550.5,-86.5 639.5,-86.5 639.5,-67.5 550.5,-67.5"/>
<text text-anchor="middle" x="595" y="-74.5" font-family="Helvetica,sans-Serif" font-size="10.00">base/time/time.h</text>
</a>
</g>
</g>
<!-- Node7&#45;&gt;Node11 -->
<g id="edge10" class="edge">
<title>Node7&#45;&gt;Node11</title>
<path fill="none" stroke="midnightblue" d="M693.75,-134.43C670.26,-121 639.68,-103.53 618.81,-91.61"/>
<polygon fill="midnightblue" stroke="midnightblue" points="620.39,-88.47 609.97,-86.55 616.91,-94.55 620.39,-88.47"/>
</g>
<!-- Node12 -->
<g id="node12" class="node">
<title>Node12</title>
<g id="a_node12"><a xlink:href="../../df/d34/autocomplete__match__type_8h.html" target="_top" xlink:title=" ">
<polygon fill="white" stroke="black" points="156,-56.5 156,-97.5 272,-97.5 272,-56.5 156,-56.5"/>
<text text-anchor="start" x="164" y="-85.5" font-family="Helvetica,sans-Serif" font-size="10.00">components/omnibox</text>
<text text-anchor="start" x="164" y="-74.5" font-family="Helvetica,sans-Serif" font-size="10.00">/browser/autocomplete</text>
<text text-anchor="middle" x="214" y="-63.5" font-family="Helvetica,sans-Serif" font-size="10.00">_match_type.h</text>
</a>
</g>
</g>
<!-- Node7&#45;&gt;Node12 -->
<g id="edge12" class="edge">
<title>Node7&#45;&gt;Node12</title>
<path fill="none" stroke="midnightblue" d="M663.9,-136.73C659.21,-135.72 654.54,-134.8 650,-134 490.88,-106.01 444.5,-128.79 282.14,-98.03"/>
<polygon fill="midnightblue" stroke="midnightblue" points="282.78,-94.59 272.3,-96.12 281.45,-101.46 282.78,-94.59"/>
</g>
<!-- Node7&#45;&gt;Node13 -->
<g id="edge14" class="edge">
<title>Node7&#45;&gt;Node13</title>
<path fill="none" stroke="midnightblue" d="M792.1,-136.72C796.79,-135.71 801.46,-134.79 806,-134 972.68,-104.9 1019.13,-131.42 1185,-98 1189.42,-97.11 1193.97,-96.03 1198.5,-94.84"/>
<polygon fill="midnightblue" stroke="midnightblue" points="1199.67,-98.15 1208.36,-92.09 1197.79,-91.41 1199.67,-98.15"/>
</g>
<!-- Node14 -->
<g id="node14" class="node">
<title>Node14</title>
<g id="a_node14"><a xlink:title=" ">
<polygon fill="white" stroke="#bfbfbf" points="657.5,-62 657.5,-92 798.5,-92 798.5,-62 657.5,-62"/>
<text text-anchor="start" x="665.5" y="-80" font-family="Helvetica,sans-Serif" font-size="10.00">components/search_engines</text>
<text text-anchor="middle" x="728" y="-69" font-family="Helvetica,sans-Serif" font-size="10.00">/template_url.h</text>
</a>
</g>
</g>
<!-- Node7&#45;&gt;Node14 -->
<g id="edge15" class="edge">
<title>Node7&#45;&gt;Node14</title>
<path fill="none" stroke="midnightblue" d="M728,-134.43C728,-124.64 728,-112.69 728,-102.31"/>
<polygon fill="midnightblue" stroke="midnightblue" points="731.5,-102.23 728,-92.23 724.5,-102.23 731.5,-102.23"/>
</g>
<!-- Node15 -->
<g id="node15" class="node">
<title>Node15</title>
<g id="a_node15"><a xlink:title=" ">
<polygon fill="white" stroke="#bfbfbf" points="816.5,-62 816.5,-92 933.5,-92 933.5,-62 816.5,-62"/>
<text text-anchor="start" x="824.5" y="-80" font-family="Helvetica,sans-Serif" font-size="10.00">ui/base/page_transition</text>
<text text-anchor="middle" x="875" y="-69" font-family="Helvetica,sans-Serif" font-size="10.00">_types.h</text>
</a>
</g>
</g>
<!-- Node7&#45;&gt;Node15 -->
<g id="edge16" class="edge">
<title>Node7&#45;&gt;Node15</title>
<path fill="none" stroke="midnightblue" d="M765.86,-134.43C788.19,-122.88 816.31,-108.34 838.41,-96.92"/>
<polygon fill="midnightblue" stroke="midnightblue" points="840.21,-99.93 847.49,-92.23 836.99,-93.71 840.21,-99.93"/>
</g>
<!-- Node16 -->
<g id="node16" class="node">
<title>Node16</title>
<g id="a_node16"><a xlink:title=" ">
<polygon fill="white" stroke="#bfbfbf" points="952,-62 952,-92 1062,-92 1062,-62 952,-62"/>
<text text-anchor="start" x="960" y="-80" font-family="Helvetica,sans-Serif" font-size="10.00">ui/base/window_open</text>
<text text-anchor="middle" x="1007" y="-69" font-family="Helvetica,sans-Serif" font-size="10.00">_disposition.h</text>
</a>
</g>
</g>
<!-- Node7&#45;&gt;Node16 -->
<g id="edge17" class="edge">
<title>Node7&#45;&gt;Node16</title>
<path fill="none" stroke="midnightblue" d="M792.23,-137.44C850.14,-122.48 928.38,-102.19 943,-98 946.35,-97.04 949.79,-96.03 953.25,-95"/>
<polygon fill="midnightblue" stroke="midnightblue" points="954.46,-98.29 963.02,-92.05 952.43,-91.59 954.46,-98.29"/>
</g>
<!-- Node17 -->
<g id="node17" class="node">
<title>Node17</title>
<g id="a_node17"><a xlink:title=" ">
<polygon fill="white" stroke="#bfbfbf" points="1080,-67.5 1080,-86.5 1176,-86.5 1176,-67.5 1080,-67.5"/>
<text text-anchor="middle" x="1128" y="-74.5" font-family="Helvetica,sans-Serif" font-size="10.00">ui/gfx/color_utils.h</text>
</a>
</g>
</g>
<!-- Node7&#45;&gt;Node17 -->
<g id="edge18" class="edge">
<title>Node7&#45;&gt;Node17</title>
<path fill="none" stroke="midnightblue" d="M792.14,-136.93C796.82,-135.87 801.47,-134.88 806,-134 922.65,-111.2 955.44,-125.82 1071,-98 1079.72,-95.9 1088.98,-92.97 1097.44,-90"/>
<polygon fill="midnightblue" stroke="midnightblue" points="1098.73,-93.26 1106.92,-86.54 1096.33,-86.68 1098.73,-93.26"/>
</g>
<!-- Node7&#45;&gt;Node18 -->
<g id="edge19" class="edge">
<title>Node7&#45;&gt;Node18</title>
<path fill="none" stroke="midnightblue" d="M792.26,-141.81C809.06,-138.93 827.17,-136.09 844,-134 1051.46,-108.21 1112.78,-158.15 1313,-98 1317.96,-96.51 1323,-94.26 1327.67,-91.8"/>
<polygon fill="midnightblue" stroke="midnightblue" points="1329.7,-94.67 1336.6,-86.64 1326.19,-88.61 1329.7,-94.67"/>
</g>
<!-- Node12&#45;&gt;Node8 -->
<g id="edge13" class="edge">
<title>Node12&#45;&gt;Node8</title>
<path fill="none" stroke="midnightblue" d="M201.1,-56.5C195.14,-47.49 188.13,-36.89 182.37,-28.19"/>
<polygon fill="midnightblue" stroke="midnightblue" points="185.16,-26.06 176.72,-19.65 179.32,-29.92 185.16,-26.06"/>
</g>
</g>
</svg>
