<?xml version="1.0" encoding="UTF-8" standalone="no"?>
<!DOCTYPE svg PUBLIC "-//W3C//DTD SVG 1.1//EN"
 "http://www.w3.org/Graphics/SVG/1.1/DTD/svg11.dtd">
<!-- Generated by graphviz version 2.43.0 (0)
 -->
<!-- Title: chrome/browser/ui/omnibox/chrome_omnibox_navigation_observer.h Pages: 1 -->
<!--zoomable 284 -->
<svg id="main" version="1.1" xmlns="http://www.w3.org/2000/svg" xmlns:xlink="http://www.w3.org/1999/xlink" xml:space="preserve" onload="init(evt)">
<style type="text/css"><![CDATA[
.edge:hover path { stroke: red; }
.edge:hover polygon { stroke: red; fill: red; }
]]></style>
<script type="text/javascript"><![CDATA[
var edges = document.getElementsByTagName('g');
if (edges && edges.length) {
  for (var i=0;i<edges.length;i++) {
    if (edges[i].id.substr(0,4)=='edge') {
      edges[i].setAttribute('class','edge');
    }
  }
}
]]></script>
        <defs>
                <circle id="rim" cx="0" cy="0" r="7"/>
                <circle id="rim2" cx="0" cy="0" r="3.5"/>
                <g id="zoomPlus">
                        <use xlink:href="#rim" fill="#404040">
                                <set attributeName="fill" to="#808080" begin="zoomplus.mouseover" end="zoomplus.mouseout"/>
                        </use>
                        <path d="M-4,0h8M0,-4v8" fill="none" stroke="white" stroke-width="1.5" pointer-events="none"/>
                </g>
                <g id="zoomMin">
                        <use xlink:href="#rim" fill="#404040">
                                <set attributeName="fill" to="#808080" begin="zoomminus.mouseover" end="zoomminus.mouseout"/>
                        </use>
                        <path d="M-4,0h8" fill="none" stroke="white" stroke-width="1.5" pointer-events="none"/>
                </g>
                <g id="dirArrow">
                        <path fill="none" stroke="white" stroke-width="1.5" d="M0,-3.0v7 M-2.5,-0.5L0,-3.0L2.5,-0.5"/>
                </g>
               <g id="resetDef">
                       <use xlink:href="#rim2" fill="#404040">
                               <set attributeName="fill" to="#808080" begin="reset.mouseover" end="reset.mouseout"/>
                       </use>
               </g>
        </defs>

<script type="text/javascript">
var viewWidth = 2851;
var viewHeight = 284;
var sectionId = 'dynsection-0';
</script>
<script xlink:href="../../svgpan.js"/>
<svg id="graph" class="graph">
<g id="viewport">
<title>chrome/browser/ui/omnibox/chrome_omnibox_navigation_observer.h</title>
<polygon fill="white" stroke="transparent" points="-4,4 -4,-280 2846.5,-280 2846.5,4 -4,4"/>
<!-- Node1 -->
<g id="node1" class="node">
<title>Node1</title>
<g id="a_node1"><a xlink:title=" ">
<polygon fill="#bfbfbf" stroke="black" points="1885,-234.5 1885,-275.5 2028,-275.5 2028,-234.5 1885,-234.5"/>
<text text-anchor="start" x="1893" y="-263.5" font-family="Helvetica,sans-Serif" font-size="10.00">chrome/browser/ui/omnibox</text>
<text text-anchor="start" x="1893" y="-252.5" font-family="Helvetica,sans-Serif" font-size="10.00">/chrome_omnibox_navigation</text>
<text text-anchor="middle" x="1956.5" y="-241.5" font-family="Helvetica,sans-Serif" font-size="10.00">_observer.h</text>
</a>
</g>
</g>
<!-- Node2 -->
<g id="node2" class="node">
<title>Node2</title>
<g id="a_node2"><a xlink:title=" ">
<polygon fill="white" stroke="#bfbfbf" points="230.5,-11.5 230.5,-30.5 282.5,-30.5 282.5,-11.5 230.5,-11.5"/>
<text text-anchor="middle" x="256.5" y="-18.5" font-family="Helvetica,sans-Serif" font-size="10.00">memory</text>
</a>
</g>
</g>
<!-- Node1&#45;&gt;Node2 -->
<g id="edge1" class="edge">
<title>Node1&#45;&gt;Node2</title>
<path fill="none" stroke="midnightblue" d="M1884.87,-249.17C1747.33,-239.82 1436.73,-218.38 1175.5,-198 969.84,-181.96 390.1,-271.87 250.5,-120 230.77,-98.54 240.08,-62.02 248.43,-40.13"/>
<polygon fill="midnightblue" stroke="midnightblue" points="251.75,-41.28 252.33,-30.7 245.28,-38.61 251.75,-41.28"/>
</g>
<!-- Node3 -->
<g id="node3" class="node">
<title>Node3</title>
<g id="a_node3"><a xlink:title=" ">
<polygon fill="white" stroke="#bfbfbf" points="1612,-11.5 1612,-30.5 1653,-30.5 1653,-11.5 1612,-11.5"/>
<text text-anchor="middle" x="1632.5" y="-18.5" font-family="Helvetica,sans-Serif" font-size="10.00">string</text>
</a>
</g>
</g>
<!-- Node1&#45;&gt;Node3 -->
<g id="edge2" class="edge">
<title>Node1&#45;&gt;Node3</title>
<path fill="none" stroke="midnightblue" d="M1884.75,-246.78C1853.19,-239.63 1818.93,-225.55 1799.5,-198 1788.74,-182.74 1786.99,-169.86 1799.5,-156 1851.88,-97.95 2097.12,-178.05 2149.5,-120 2162.01,-106.14 2162.2,-91.68 2149.5,-78 2112.57,-38.24 1713.82,-59.63 1662.5,-42 1658.55,-40.64 1654.62,-38.64 1650.97,-36.41"/>
<polygon fill="midnightblue" stroke="midnightblue" points="1652.84,-33.45 1642.62,-30.66 1648.87,-39.21 1652.84,-33.45"/>
</g>
<!-- Node4 -->
<g id="node4" class="node">
<title>Node4</title>
<g id="a_node4"><a xlink:title=" ">
<polygon fill="white" stroke="#bfbfbf" points="0,-11.5 0,-30.5 113,-30.5 113,-11.5 0,-11.5"/>
<text text-anchor="middle" x="56.5" y="-18.5" font-family="Helvetica,sans-Serif" font-size="10.00">base/gtest_prod_util.h</text>
</a>
</g>
</g>
<!-- Node1&#45;&gt;Node4 -->
<g id="edge3" class="edge">
<title>Node1&#45;&gt;Node4</title>
<path fill="none" stroke="midnightblue" d="M1884.75,-253.06C1569.83,-248.73 322.28,-229.67 245.5,-198 162.97,-163.95 94.48,-76.39 68.12,-39.16"/>
<polygon fill="midnightblue" stroke="midnightblue" points="70.92,-37.06 62.34,-30.84 65.17,-41.05 70.92,-37.06"/>
</g>
<!-- Node5 -->
<g id="node5" class="node">
<title>Node5</title>
<g id="a_node5"><a xlink:title=" ">
<polygon fill="white" stroke="#bfbfbf" points="131,-11.5 131,-30.5 212,-30.5 212,-11.5 131,-11.5"/>
<text text-anchor="middle" x="171.5" y="-18.5" font-family="Helvetica,sans-Serif" font-size="10.00">base/macros.h</text>
</a>
</g>
</g>
<!-- Node1&#45;&gt;Node5 -->
<g id="edge4" class="edge">
<title>Node1&#45;&gt;Node5</title>
<path fill="none" stroke="midnightblue" d="M1884.94,-253.19C1576.59,-249.51 373.64,-232.95 301.5,-198 233.98,-165.29 193.27,-78.29 178.19,-40.24"/>
<polygon fill="midnightblue" stroke="midnightblue" points="181.3,-38.6 174.47,-30.51 174.76,-41.1 181.3,-38.6"/>
</g>
<!-- Node6 -->
<g id="node6" class="node">
<title>Node6</title>
<g id="a_node6"><a xlink:title=" ">
<polygon fill="white" stroke="#bfbfbf" points="1808.5,-167.5 1808.5,-186.5 1946.5,-186.5 1946.5,-167.5 1808.5,-167.5"/>
<text text-anchor="middle" x="1877.5" y="-174.5" font-family="Helvetica,sans-Serif" font-size="10.00">base/memory/ref_counted.h</text>
</a>
</g>
</g>
<!-- Node1&#45;&gt;Node6 -->
<g id="edge5" class="edge">
<title>Node1&#45;&gt;Node6</title>
<path fill="none" stroke="midnightblue" d="M1936.16,-234.43C1922.95,-221.73 1905.99,-205.41 1893.7,-193.59"/>
<polygon fill="midnightblue" stroke="midnightblue" points="1896.02,-190.96 1886.39,-186.55 1891.17,-196.01 1896.02,-190.96"/>
</g>
<!-- Node7 -->
<g id="node7" class="node">
<title>Node7</title>
<g id="a_node7"><a xlink:href="../../dc/d0c/autocomplete__match_8h.html" target="_top" xlink:title=" ">
<polygon fill="white" stroke="black" points="1184.5,-156.5 1184.5,-197.5 1300.5,-197.5 1300.5,-156.5 1184.5,-156.5"/>
<text text-anchor="start" x="1192.5" y="-185.5" font-family="Helvetica,sans-Serif" font-size="10.00">components/omnibox</text>
<text text-anchor="start" x="1192.5" y="-174.5" font-family="Helvetica,sans-Serif" font-size="10.00">/browser/autocomplete</text>
<text text-anchor="middle" x="1242.5" y="-163.5" font-family="Helvetica,sans-Serif" font-size="10.00">_match.h</text>
</a>
</g>
</g>
<!-- Node1&#45;&gt;Node7 -->
<g id="edge6" class="edge">
<title>Node1&#45;&gt;Node7</title>
<path fill="none" stroke="midnightblue" d="M1884.77,-246.36C1746.91,-231.69 1446.63,-199.73 1311.19,-185.31"/>
<polygon fill="midnightblue" stroke="midnightblue" points="1311.26,-181.8 1300.95,-184.22 1310.52,-188.76 1311.26,-181.8"/>
</g>
<!-- Node33 -->
<g id="node33" class="node">
<title>Node33</title>
<g id="a_node33"><a xlink:href="../../de/db6/omnibox__navigation__observer_8h.html" target="_top" xlink:title=" ">
<polygon fill="white" stroke="black" points="1965,-156.5 1965,-197.5 2108,-197.5 2108,-156.5 1965,-156.5"/>
<text text-anchor="start" x="1973" y="-185.5" font-family="Helvetica,sans-Serif" font-size="10.00">components/omnibox</text>
<text text-anchor="start" x="1973" y="-174.5" font-family="Helvetica,sans-Serif" font-size="10.00">/browser/omnibox_navigation</text>
<text text-anchor="middle" x="2036.5" y="-163.5" font-family="Helvetica,sans-Serif" font-size="10.00">_observer.h</text>
</a>
</g>
</g>
<!-- Node1&#45;&gt;Node33 -->
<g id="edge47" class="edge">
<title>Node1&#45;&gt;Node33</title>
<path fill="none" stroke="midnightblue" d="M1977.1,-234.43C1986.71,-225.3 1998.3,-214.29 2008.67,-204.44"/>
<polygon fill="midnightblue" stroke="midnightblue" points="2011.13,-206.93 2015.97,-197.51 2006.31,-201.86 2011.13,-206.93"/>
</g>
<!-- Node34 -->
<g id="node34" class="node">
<title>Node34</title>
<g id="a_node34"><a xlink:title=" ">
<polygon fill="white" stroke="#bfbfbf" points="2126,-162 2126,-192 2243,-192 2243,-162 2126,-162"/>
<text text-anchor="start" x="2134" y="-180" font-family="Helvetica,sans-Serif" font-size="10.00">content/public/browser</text>
<text text-anchor="middle" x="2184.5" y="-169" font-family="Helvetica,sans-Serif" font-size="10.00">/notification_observer.h</text>
</a>
</g>
</g>
<!-- Node1&#45;&gt;Node34 -->
<g id="edge48" class="edge">
<title>Node1&#45;&gt;Node34</title>
<path fill="none" stroke="midnightblue" d="M2015.22,-234.43C2051.52,-222.33 2097.69,-206.94 2132.64,-195.29"/>
<polygon fill="midnightblue" stroke="midnightblue" points="2133.8,-198.59 2142.18,-192.11 2131.59,-191.95 2133.8,-198.59"/>
</g>
<!-- Node35 -->
<g id="node35" class="node">
<title>Node35</title>
<g id="a_node35"><a xlink:title=" ">
<polygon fill="white" stroke="#bfbfbf" points="2261,-162 2261,-192 2376,-192 2376,-162 2261,-162"/>
<text text-anchor="start" x="2269" y="-180" font-family="Helvetica,sans-Serif" font-size="10.00">content/public/browser</text>
<text text-anchor="middle" x="2318.5" y="-169" font-family="Helvetica,sans-Serif" font-size="10.00">/notification_registrar.h</text>
</a>
</g>
</g>
<!-- Node1&#45;&gt;Node35 -->
<g id="edge49" class="edge">
<title>Node1&#45;&gt;Node35</title>
<path fill="none" stroke="midnightblue" d="M2028.13,-242.66C2088.37,-232.6 2176.56,-216.63 2252.5,-198 2256.56,-197.01 2260.73,-195.91 2264.92,-194.76"/>
<polygon fill="midnightblue" stroke="midnightblue" points="2265.99,-198.09 2274.66,-192 2264.08,-191.36 2265.99,-198.09"/>
</g>
<!-- Node36 -->
<g id="node36" class="node">
<title>Node36</title>
<g id="a_node36"><a xlink:title=" ">
<polygon fill="white" stroke="#bfbfbf" points="2394,-162 2394,-192 2509,-192 2509,-162 2394,-162"/>
<text text-anchor="start" x="2402" y="-180" font-family="Helvetica,sans-Serif" font-size="10.00">content/public/browser</text>
<text text-anchor="middle" x="2451.5" y="-169" font-family="Helvetica,sans-Serif" font-size="10.00">/reload_type.h</text>
</a>
</g>
</g>
<!-- Node1&#45;&gt;Node36 -->
<g id="edge50" class="edge">
<title>Node1&#45;&gt;Node36</title>
<path fill="none" stroke="midnightblue" d="M2028.09,-248.28C2113.76,-240.61 2261.22,-224.75 2385.5,-198 2389.9,-197.05 2394.43,-195.95 2398.95,-194.77"/>
<polygon fill="midnightblue" stroke="midnightblue" points="2400.1,-198.08 2408.81,-192.05 2398.24,-191.33 2400.1,-198.08"/>
</g>
<!-- Node37 -->
<g id="node37" class="node">
<title>Node37</title>
<g id="a_node37"><a xlink:title=" ">
<polygon fill="white" stroke="#bfbfbf" points="2527,-162 2527,-192 2658,-192 2658,-162 2527,-162"/>
<text text-anchor="start" x="2535" y="-180" font-family="Helvetica,sans-Serif" font-size="10.00">content/public/browser</text>
<text text-anchor="middle" x="2592.5" y="-169" font-family="Helvetica,sans-Serif" font-size="10.00">/web_contents_observer.h</text>
</a>
</g>
</g>
<!-- Node1&#45;&gt;Node37 -->
<g id="edge51" class="edge">
<title>Node1&#45;&gt;Node37</title>
<path fill="none" stroke="midnightblue" d="M2028,-250.65C2135.28,-244.78 2343.94,-230.06 2518.5,-198 2523.9,-197.01 2529.48,-195.82 2535.04,-194.52"/>
<polygon fill="midnightblue" stroke="midnightblue" points="2536.12,-197.86 2545,-192.08 2534.45,-191.06 2536.12,-197.86"/>
</g>
<!-- Node38 -->
<g id="node38" class="node">
<title>Node38</title>
<g id="a_node38"><a xlink:title=" ">
<polygon fill="white" stroke="#bfbfbf" points="2676.5,-156.5 2676.5,-197.5 2842.5,-197.5 2842.5,-156.5 2676.5,-156.5"/>
<text text-anchor="start" x="2684.5" y="-185.5" font-family="Helvetica,sans-Serif" font-size="10.00">services/network/public</text>
<text text-anchor="start" x="2684.5" y="-174.5" font-family="Helvetica,sans-Serif" font-size="10.00">/mojom/url_response_head.mojom</text>
<text text-anchor="middle" x="2759.5" y="-163.5" font-family="Helvetica,sans-Serif" font-size="10.00">&#45;forward.h</text>
</a>
</g>
</g>
<!-- Node1&#45;&gt;Node38 -->
<g id="edge52" class="edge">
<title>Node1&#45;&gt;Node38</title>
<path fill="none" stroke="midnightblue" d="M2028.01,-251.57C2154.82,-246.57 2427.48,-232.65 2666.43,-198.06"/>
<polygon fill="midnightblue" stroke="midnightblue" points="2666.96,-201.52 2676.35,-196.6 2665.95,-194.59 2666.96,-201.52"/>
</g>
<!-- Node7&#45;&gt;Node2 -->
<g id="edge9" class="edge">
<title>Node7&#45;&gt;Node2</title>
<path fill="none" stroke="midnightblue" d="M1184.19,-174.63C979.82,-169.57 306.49,-150.63 272.5,-120 250.59,-100.26 250.82,-63.13 253.38,-40.67"/>
<polygon fill="midnightblue" stroke="midnightblue" points="256.86,-41.09 254.78,-30.7 249.92,-40.12 256.86,-41.09"/>
</g>
<!-- Node7&#45;&gt;Node3 -->
<g id="edge10" class="edge">
<title>Node7&#45;&gt;Node3</title>
<path fill="none" stroke="midnightblue" d="M1300.87,-172.56C1412.1,-165.41 1645.55,-147.29 1669.5,-120 1690.37,-96.21 1665.77,-59.48 1647.87,-38.39"/>
<polygon fill="midnightblue" stroke="midnightblue" points="1650.25,-35.8 1640.99,-30.64 1645.02,-40.45 1650.25,-35.8"/>
</g>
<!-- Node8 -->
<g id="node8" class="node">
<title>Node8</title>
<g id="a_node8"><a xlink:title=" ">
<polygon fill="white" stroke="#bfbfbf" points="1817.5,-11.5 1817.5,-30.5 1869.5,-30.5 1869.5,-11.5 1817.5,-11.5"/>
<text text-anchor="middle" x="1843.5" y="-18.5" font-family="Helvetica,sans-Serif" font-size="10.00">stddef.h</text>
</a>
</g>
</g>
<!-- Node7&#45;&gt;Node8 -->
<g id="edge7" class="edge">
<title>Node7&#45;&gt;Node8</title>
<path fill="none" stroke="midnightblue" d="M1300.6,-172.23C1404.61,-164.9 1618.22,-147.02 1687.5,-120 1717.49,-108.3 1719.42,-95.4 1746.5,-78 1753.38,-73.58 1793.08,-50.8 1819.51,-35.69"/>
<polygon fill="midnightblue" stroke="midnightblue" points="1821.28,-38.71 1828.23,-30.71 1817.81,-32.63 1821.28,-38.71"/>
</g>
<!-- Node9 -->
<g id="node9" class="node">
<title>Node9</title>
<g id="a_node9"><a xlink:title=" ">
<polygon fill="white" stroke="#bfbfbf" points="486,-89.5 486,-108.5 521,-108.5 521,-89.5 486,-89.5"/>
<text text-anchor="middle" x="503.5" y="-96.5" font-family="Helvetica,sans-Serif" font-size="10.00">map</text>
</a>
</g>
</g>
<!-- Node7&#45;&gt;Node9 -->
<g id="edge8" class="edge">
<title>Node7&#45;&gt;Node9</title>
<path fill="none" stroke="midnightblue" d="M1184.24,-175.53C1036.38,-173.7 649.82,-164.64 530.5,-120 527.22,-118.77 524,-117.02 520.98,-115.06"/>
<polygon fill="midnightblue" stroke="midnightblue" points="522.81,-112.06 512.71,-108.86 518.61,-117.66 522.81,-112.06"/>
</g>
<!-- Node10 -->
<g id="node10" class="node">
<title>Node10</title>
<g id="a_node10"><a xlink:title=" ">
<polygon fill="white" stroke="#bfbfbf" points="539.5,-89.5 539.5,-108.5 579.5,-108.5 579.5,-89.5 539.5,-89.5"/>
<text text-anchor="middle" x="559.5" y="-96.5" font-family="Helvetica,sans-Serif" font-size="10.00">utility</text>
</a>
</g>
</g>
<!-- Node7&#45;&gt;Node10 -->
<g id="edge11" class="edge">
<title>Node7&#45;&gt;Node10</title>
<path fill="none" stroke="midnightblue" d="M1184.27,-174.82C1045.24,-171.41 697.43,-159.1 588.5,-120 584.77,-118.66 581.07,-116.72 577.62,-114.56"/>
<polygon fill="midnightblue" stroke="midnightblue" points="579.43,-111.55 569.25,-108.63 575.38,-117.27 579.43,-111.55"/>
</g>
<!-- Node11 -->
<g id="node11" class="node">
<title>Node11</title>
<g id="a_node11"><a xlink:title=" ">
<polygon fill="white" stroke="#bfbfbf" points="506.5,-11.5 506.5,-30.5 550.5,-30.5 550.5,-11.5 506.5,-11.5"/>
<text text-anchor="middle" x="528.5" y="-18.5" font-family="Helvetica,sans-Serif" font-size="10.00">vector</text>
</a>
</g>
</g>
<!-- Node7&#45;&gt;Node11 -->
<g id="edge12" class="edge">
<title>Node7&#45;&gt;Node11</title>
<path fill="none" stroke="midnightblue" d="M1184.25,-176.19C1013.71,-176.15 524.39,-171.52 476.5,-120 453.27,-95.01 487.08,-57.69 510.12,-37.06"/>
<polygon fill="midnightblue" stroke="midnightblue" points="512.42,-39.7 517.7,-30.51 507.85,-34.4 512.42,-39.7"/>
</g>
<!-- Node12 -->
<g id="node12" class="node">
<title>Node12</title>
<g id="a_node12"><a xlink:title=" ">
<polygon fill="white" stroke="#bfbfbf" points="597.5,-84 597.5,-114 707.5,-114 707.5,-84 597.5,-84"/>
<text text-anchor="start" x="605.5" y="-102" font-family="Helvetica,sans-Serif" font-size="10.00">base/memory/scoped</text>
<text text-anchor="middle" x="652.5" y="-91" font-family="Helvetica,sans-Serif" font-size="10.00">_refptr.h</text>
</a>
</g>
</g>
<!-- Node7&#45;&gt;Node12 -->
<g id="edge13" class="edge">
<title>Node7&#45;&gt;Node12</title>
<path fill="none" stroke="midnightblue" d="M1184.33,-173.55C1086.73,-168.6 884.21,-154.78 716.5,-120 712.08,-119.08 707.54,-117.99 703.01,-116.79"/>
<polygon fill="midnightblue" stroke="midnightblue" points="703.73,-113.35 693.16,-114.02 701.84,-120.09 703.73,-113.35"/>
</g>
<!-- Node13 -->
<g id="node13" class="node">
<title>Node13</title>
<g id="a_node13"><a xlink:title=" ">
<polygon fill="white" stroke="#bfbfbf" points="725.5,-89.5 725.5,-108.5 851.5,-108.5 851.5,-89.5 725.5,-89.5"/>
<text text-anchor="middle" x="788.5" y="-96.5" font-family="Helvetica,sans-Serif" font-size="10.00">base/memory/weak_ptr.h</text>
</a>
</g>
</g>
<!-- Node7&#45;&gt;Node13 -->
<g id="edge14" class="edge">
<title>Node7&#45;&gt;Node13</title>
<path fill="none" stroke="midnightblue" d="M1184.18,-169.76C1108.91,-161.17 974.12,-144.01 860.5,-120 849.13,-117.6 836.9,-114.43 825.81,-111.32"/>
<polygon fill="midnightblue" stroke="midnightblue" points="826.57,-107.9 815.99,-108.51 824.64,-114.63 826.57,-107.9"/>
</g>
<!-- Node14 -->
<g id="node14" class="node">
<title>Node14</title>
<g id="a_node14"><a xlink:title=" ">
<polygon fill="white" stroke="#bfbfbf" points="869.5,-84 869.5,-114 983.5,-114 983.5,-84 869.5,-84"/>
<text text-anchor="start" x="877.5" y="-102" font-family="Helvetica,sans-Serif" font-size="10.00">base/strings/utf_offset</text>
<text text-anchor="middle" x="926.5" y="-91" font-family="Helvetica,sans-Serif" font-size="10.00">_string_conversions.h</text>
</a>
</g>
</g>
<!-- Node7&#45;&gt;Node14 -->
<g id="edge15" class="edge">
<title>Node7&#45;&gt;Node14</title>
<path fill="none" stroke="midnightblue" d="M1184.36,-164.25C1133.51,-153.67 1057.77,-137.18 992.5,-120 988.7,-119 984.79,-117.93 980.86,-116.82"/>
<polygon fill="midnightblue" stroke="midnightblue" points="981.68,-113.41 971.11,-114 979.74,-120.14 981.68,-113.41"/>
</g>
<!-- Node15 -->
<g id="node15" class="node">
<title>Node15</title>
<g id="a_node15"><a xlink:title=" ">
<polygon fill="white" stroke="#bfbfbf" points="1001.5,-89.5 1001.5,-108.5 1101.5,-108.5 1101.5,-89.5 1001.5,-89.5"/>
<text text-anchor="middle" x="1051.5" y="-96.5" font-family="Helvetica,sans-Serif" font-size="10.00">build/build_config.h</text>
</a>
</g>
</g>
<!-- Node7&#45;&gt;Node15 -->
<g id="edge16" class="edge">
<title>Node7&#45;&gt;Node15</title>
<path fill="none" stroke="midnightblue" d="M1193.31,-156.43C1158.36,-142.52 1112.48,-124.26 1082.51,-112.34"/>
<polygon fill="midnightblue" stroke="midnightblue" points="1083.58,-109 1072.99,-108.55 1080.99,-115.5 1083.58,-109"/>
</g>
<!-- Node16 -->
<g id="node16" class="node">
<title>Node16</title>
<g id="a_node16"><a xlink:href="../../df/dab/autocomplete__input_8h.html" target="_top" xlink:title=" ">
<polygon fill="white" stroke="black" points="2196.5,-78.5 2196.5,-119.5 2312.5,-119.5 2312.5,-78.5 2196.5,-78.5"/>
<text text-anchor="start" x="2204.5" y="-107.5" font-family="Helvetica,sans-Serif" font-size="10.00">components/omnibox</text>
<text text-anchor="start" x="2204.5" y="-96.5" font-family="Helvetica,sans-Serif" font-size="10.00">/browser/autocomplete</text>
<text text-anchor="middle" x="2254.5" y="-85.5" font-family="Helvetica,sans-Serif" font-size="10.00">_input.h</text>
</a>
</g>
</g>
<!-- Node7&#45;&gt;Node16 -->
<g id="edge17" class="edge">
<title>Node7&#45;&gt;Node16</title>
<path fill="none" stroke="midnightblue" d="M1300.57,-174.96C1444.76,-171.83 1830.56,-160.06 2149.5,-120 2161.44,-118.5 2174.07,-116.48 2186.27,-114.29"/>
<polygon fill="midnightblue" stroke="midnightblue" points="2187.19,-117.68 2196.39,-112.43 2185.92,-110.8 2187.19,-117.68"/>
</g>
<!-- Node21 -->
<g id="node21" class="node">
<title>Node21</title>
<g id="a_node21"><a xlink:title=" ">
<polygon fill="white" stroke="#bfbfbf" points="2456,-0.5 2456,-41.5 2577,-41.5 2577,-0.5 2456,-0.5"/>
<text text-anchor="start" x="2464" y="-29.5" font-family="Helvetica,sans-Serif" font-size="10.00">third_party/perfetto</text>
<text text-anchor="start" x="2464" y="-18.5" font-family="Helvetica,sans-Serif" font-size="10.00">/include/perfetto/tracing</text>
<text text-anchor="middle" x="2516.5" y="-7.5" font-family="Helvetica,sans-Serif" font-size="10.00">/traced_value_forward.h</text>
</a>
</g>
</g>
<!-- Node7&#45;&gt;Node21 -->
<g id="edge43" class="edge">
<title>Node7&#45;&gt;Node21</title>
<path fill="none" stroke="midnightblue" d="M1300.86,-173.64C1518.37,-164.74 2271.89,-133.13 2321.5,-120 2379.65,-104.61 2440.68,-70.61 2478.65,-47.01"/>
<polygon fill="midnightblue" stroke="midnightblue" points="2480.72,-49.84 2487.32,-41.55 2476.99,-43.91 2480.72,-49.84"/>
</g>
<!-- Node22 -->
<g id="node22" class="node">
<title>Node22</title>
<g id="a_node22"><a xlink:title=" ">
<polygon fill="white" stroke="#bfbfbf" points="434.5,-11.5 434.5,-30.5 488.5,-30.5 488.5,-11.5 434.5,-11.5"/>
<text text-anchor="middle" x="461.5" y="-18.5" font-family="Helvetica,sans-Serif" font-size="10.00">url/gurl.h</text>
</a>
</g>
</g>
<!-- Node7&#45;&gt;Node22 -->
<g id="edge46" class="edge">
<title>Node7&#45;&gt;Node22</title>
<path fill="none" stroke="midnightblue" d="M1184.44,-176.17C1012.56,-176.07 515.24,-171.32 465.5,-120 445.22,-99.08 450.26,-62.35 455.84,-40.29"/>
<polygon fill="midnightblue" stroke="midnightblue" points="459.25,-41.08 458.59,-30.51 452.51,-39.18 459.25,-41.08"/>
</g>
<!-- Node24 -->
<g id="node24" class="node">
<title>Node24</title>
<g id="a_node24"><a xlink:href="../../df/d34/autocomplete__match__type_8h.html" target="_top" xlink:title=" ">
<polygon fill="white" stroke="black" points="1119.5,-78.5 1119.5,-119.5 1235.5,-119.5 1235.5,-78.5 1119.5,-78.5"/>
<text text-anchor="start" x="1127.5" y="-107.5" font-family="Helvetica,sans-Serif" font-size="10.00">components/omnibox</text>
<text text-anchor="start" x="1127.5" y="-96.5" font-family="Helvetica,sans-Serif" font-size="10.00">/browser/autocomplete</text>
<text text-anchor="middle" x="1177.5" y="-85.5" font-family="Helvetica,sans-Serif" font-size="10.00">_match_type.h</text>
</a>
</g>
</g>
<!-- Node7&#45;&gt;Node24 -->
<g id="edge28" class="edge">
<title>Node7&#45;&gt;Node24</title>
<path fill="none" stroke="midnightblue" d="M1225.76,-156.43C1218.18,-147.56 1209.09,-136.93 1200.85,-127.3"/>
<polygon fill="midnightblue" stroke="midnightblue" points="1203.34,-124.83 1194.18,-119.51 1198.02,-129.38 1203.34,-124.83"/>
</g>
<!-- Node25 -->
<g id="node25" class="node">
<title>Node25</title>
<g id="a_node25"><a xlink:title=" ">
<polygon fill="white" stroke="#bfbfbf" points="1253.5,-84 1253.5,-114 1363.5,-114 1363.5,-84 1253.5,-84"/>
<text text-anchor="start" x="1261.5" y="-102" font-family="Helvetica,sans-Serif" font-size="10.00">components/omnibox</text>
<text text-anchor="middle" x="1308.5" y="-91" font-family="Helvetica,sans-Serif" font-size="10.00">/browser/buildflags.h</text>
</a>
</g>
</g>
<!-- Node7&#45;&gt;Node25 -->
<g id="edge30" class="edge">
<title>Node7&#45;&gt;Node25</title>
<path fill="none" stroke="midnightblue" d="M1259.5,-156.43C1268.63,-145.91 1279.91,-132.92 1289.35,-122.05"/>
<polygon fill="midnightblue" stroke="midnightblue" points="1292.23,-124.07 1296.15,-114.23 1286.95,-119.48 1292.23,-124.07"/>
</g>
<!-- Node26 -->
<g id="node26" class="node">
<title>Node26</title>
<g id="a_node26"><a xlink:href="../../dd/d32/suggestion__answer_8h.html" target="_top" xlink:title=" ">
<polygon fill="white" stroke="black" points="281.5,-78.5 281.5,-119.5 391.5,-119.5 391.5,-78.5 281.5,-78.5"/>
<text text-anchor="start" x="289.5" y="-107.5" font-family="Helvetica,sans-Serif" font-size="10.00">components/omnibox</text>
<text text-anchor="start" x="289.5" y="-96.5" font-family="Helvetica,sans-Serif" font-size="10.00">/browser/suggestion</text>
<text text-anchor="middle" x="336.5" y="-85.5" font-family="Helvetica,sans-Serif" font-size="10.00">_answer.h</text>
</a>
</g>
</g>
<!-- Node7&#45;&gt;Node26 -->
<g id="edge31" class="edge">
<title>Node7&#45;&gt;Node26</title>
<path fill="none" stroke="midnightblue" d="M1184.4,-176.39C1047.55,-176.39 694.68,-170.97 405.5,-120 404.22,-119.77 402.93,-119.53 401.64,-119.28"/>
<polygon fill="midnightblue" stroke="midnightblue" points="402.13,-115.81 391.61,-117.11 400.65,-122.65 402.13,-115.81"/>
</g>
<!-- Node28 -->
<g id="node28" class="node">
<title>Node28</title>
<g id="a_node28"><a xlink:title=" ">
<polygon fill="white" stroke="#bfbfbf" points="1381.5,-84 1381.5,-114 1501.5,-114 1501.5,-84 1381.5,-84"/>
<text text-anchor="start" x="1389.5" y="-102" font-family="Helvetica,sans-Serif" font-size="10.00">components/query_tiles</text>
<text text-anchor="middle" x="1441.5" y="-91" font-family="Helvetica,sans-Serif" font-size="10.00">/tile.h</text>
</a>
</g>
</g>
<!-- Node7&#45;&gt;Node28 -->
<g id="edge40" class="edge">
<title>Node7&#45;&gt;Node28</title>
<path fill="none" stroke="midnightblue" d="M1293.75,-156.43C1325.03,-144.48 1364.7,-129.33 1395.06,-117.74"/>
<polygon fill="midnightblue" stroke="midnightblue" points="1396.47,-120.94 1404.56,-114.11 1393.97,-114.4 1396.47,-120.94"/>
</g>
<!-- Node29 -->
<g id="node29" class="node">
<title>Node29</title>
<g id="a_node29"><a xlink:title=" ">
<polygon fill="white" stroke="#bfbfbf" points="1520,-84 1520,-114 1661,-114 1661,-84 1520,-84"/>
<text text-anchor="start" x="1528" y="-102" font-family="Helvetica,sans-Serif" font-size="10.00">components/search_engines</text>
<text text-anchor="middle" x="1590.5" y="-91" font-family="Helvetica,sans-Serif" font-size="10.00">/template_url.h</text>
</a>
</g>
</g>
<!-- Node7&#45;&gt;Node29 -->
<g id="edge41" class="edge">
<title>Node7&#45;&gt;Node29</title>
<path fill="none" stroke="midnightblue" d="M1300.67,-164.53C1355.05,-153.64 1438.46,-136.53 1510.5,-120 1515.43,-118.87 1520.53,-117.67 1525.65,-116.44"/>
<polygon fill="midnightblue" stroke="midnightblue" points="1526.59,-119.81 1535.48,-114.05 1524.94,-113.01 1526.59,-119.81"/>
</g>
<!-- Node30 -->
<g id="node30" class="node">
<title>Node30</title>
<g id="a_node30"><a xlink:title=" ">
<polygon fill="white" stroke="#bfbfbf" points="1755.5,-84 1755.5,-114 1883.5,-114 1883.5,-84 1755.5,-84"/>
<text text-anchor="start" x="1763.5" y="-102" font-family="Helvetica,sans-Serif" font-size="10.00">components/url_formatter</text>
<text text-anchor="middle" x="1819.5" y="-91" font-family="Helvetica,sans-Serif" font-size="10.00">/url_formatter.h</text>
</a>
</g>
</g>
<!-- Node7&#45;&gt;Node30 -->
<g id="edge42" class="edge">
<title>Node7&#45;&gt;Node30</title>
<path fill="none" stroke="midnightblue" d="M1300.51,-172.12C1393.94,-165.29 1583.3,-149.01 1741.5,-120 1747.23,-118.95 1753.15,-117.71 1759.06,-116.38"/>
<polygon fill="midnightblue" stroke="midnightblue" points="1760.02,-119.75 1768.96,-114.05 1758.42,-112.93 1760.02,-119.75"/>
</g>
<!-- Node31 -->
<g id="node31" class="node">
<title>Node31</title>
<g id="a_node31"><a xlink:title=" ">
<polygon fill="white" stroke="#bfbfbf" points="1902,-84 1902,-114 2019,-114 2019,-84 1902,-84"/>
<text text-anchor="start" x="1910" y="-102" font-family="Helvetica,sans-Serif" font-size="10.00">ui/base/page_transition</text>
<text text-anchor="middle" x="1960.5" y="-91" font-family="Helvetica,sans-Serif" font-size="10.00">_types.h</text>
</a>
</g>
</g>
<!-- Node7&#45;&gt;Node31 -->
<g id="edge44" class="edge">
<title>Node7&#45;&gt;Node31</title>
<path fill="none" stroke="midnightblue" d="M1300.85,-174.88C1415.29,-171.81 1676.83,-160.58 1892.5,-120 1897.51,-119.06 1902.68,-117.9 1907.83,-116.61"/>
<polygon fill="midnightblue" stroke="midnightblue" points="1908.88,-119.95 1917.65,-114.01 1907.09,-113.19 1908.88,-119.95"/>
</g>
<!-- Node32 -->
<g id="node32" class="node">
<title>Node32</title>
<g id="a_node32"><a xlink:title=" ">
<polygon fill="white" stroke="#bfbfbf" points="2037,-89.5 2037,-108.5 2140,-108.5 2140,-89.5 2037,-89.5"/>
<text text-anchor="middle" x="2088.5" y="-96.5" font-family="Helvetica,sans-Serif" font-size="10.00">ui/gfx/range/range.h</text>
</a>
</g>
</g>
<!-- Node7&#45;&gt;Node32 -->
<g id="edge45" class="edge">
<title>Node7&#45;&gt;Node32</title>
<path fill="none" stroke="midnightblue" d="M1300.52,-173.71C1457.51,-167.22 1888.15,-147.38 2027.5,-120 2037.3,-118.07 2047.71,-115.05 2057.1,-111.93"/>
<polygon fill="midnightblue" stroke="midnightblue" points="2058.53,-115.14 2066.82,-108.55 2056.23,-108.52 2058.53,-115.14"/>
</g>
<!-- Node16&#45;&gt;Node3 -->
<g id="edge19" class="edge">
<title>Node16&#45;&gt;Node3</title>
<path fill="none" stroke="midnightblue" d="M2196.17,-80.74C2191.57,-79.7 2186.98,-78.77 2182.5,-78 1954.18,-38.8 1881.77,-116.75 1662.5,-42 1658.55,-40.65 1654.62,-38.65 1650.97,-36.42"/>
<polygon fill="midnightblue" stroke="midnightblue" points="1652.84,-33.46 1642.61,-30.68 1648.87,-39.23 1652.84,-33.46"/>
</g>
<!-- Node16&#45;&gt;Node8 -->
<g id="edge18" class="edge">
<title>Node16&#45;&gt;Node8</title>
<path fill="none" stroke="midnightblue" d="M2196.13,-80.98C2191.54,-79.89 2186.96,-78.88 2182.5,-78 2049.01,-51.72 2007.71,-84.61 1878.5,-42 1873.69,-40.41 1868.79,-38.12 1864.25,-35.65"/>
<polygon fill="midnightblue" stroke="midnightblue" points="1865.95,-32.59 1855.56,-30.5 1862.38,-38.61 1865.95,-32.59"/>
</g>
<!-- Node16&#45;&gt;Node11 -->
<g id="edge20" class="edge">
<title>Node16&#45;&gt;Node11</title>
<path fill="none" stroke="midnightblue" d="M2196.43,-85.29C2181.23,-82.42 2164.81,-79.71 2149.5,-78 1825.25,-41.74 759.75,-25.24 560.69,-22.44"/>
<polygon fill="midnightblue" stroke="midnightblue" points="560.64,-18.94 550.59,-22.3 560.54,-25.93 560.64,-18.94"/>
</g>
<!-- Node17 -->
<g id="node17" class="node">
<title>Node17</title>
<g id="a_node17"><a xlink:title=" ">
<polygon fill="white" stroke="#bfbfbf" points="1888,-6 1888,-36 2029,-36 2029,-6 1888,-6"/>
<text text-anchor="start" x="1896" y="-24" font-family="Helvetica,sans-Serif" font-size="10.00">components/search_engines</text>
<text text-anchor="middle" x="1958.5" y="-13" font-family="Helvetica,sans-Serif" font-size="10.00">/omnibox_focus_type.h</text>
</a>
</g>
</g>
<!-- Node16&#45;&gt;Node17 -->
<g id="edge21" class="edge">
<title>Node16&#45;&gt;Node17</title>
<path fill="none" stroke="midnightblue" d="M2196.38,-81.72C2191.69,-80.44 2187.02,-79.19 2182.5,-78 2181.51,-77.74 2090.3,-54.94 2024.59,-38.52"/>
<polygon fill="midnightblue" stroke="midnightblue" points="2025.24,-35.07 2014.69,-36.04 2023.54,-41.86 2025.24,-35.07"/>
</g>
<!-- Node18 -->
<g id="node18" class="node">
<title>Node18</title>
<g id="a_node18"><a xlink:title=" ">
<polygon fill="white" stroke="#bfbfbf" points="1671.5,-6 1671.5,-36 1799.5,-36 1799.5,-6 1671.5,-6"/>
<text text-anchor="start" x="1679.5" y="-24" font-family="Helvetica,sans-Serif" font-size="10.00">third_party/abseil</text>
<text text-anchor="middle" x="1735.5" y="-13" font-family="Helvetica,sans-Serif" font-size="10.00">&#45;cpp/absl/types/optional.h</text>
</a>
</g>
</g>
<!-- Node16&#45;&gt;Node18 -->
<g id="edge22" class="edge">
<title>Node16&#45;&gt;Node18</title>
<path fill="none" stroke="midnightblue" d="M2196.15,-80.87C2191.55,-79.8 2186.96,-78.83 2182.5,-78 2018.31,-47.54 1972.74,-72.17 1808.5,-42 1803.09,-41.01 1797.49,-39.8 1791.92,-38.48"/>
<polygon fill="midnightblue" stroke="midnightblue" points="1792.51,-35.02 1781.96,-36.01 1790.82,-41.82 1792.51,-35.02"/>
</g>
<!-- Node19 -->
<g id="node19" class="node">
<title>Node19</title>
<g id="a_node19"><a xlink:title=" ">
<polygon fill="white" stroke="#bfbfbf" points="2047.5,-6 2047.5,-36 2181.5,-36 2181.5,-6 2047.5,-6"/>
<text text-anchor="start" x="2055.5" y="-24" font-family="Helvetica,sans-Serif" font-size="10.00">third_party/metrics</text>
<text text-anchor="middle" x="2114.5" y="-13" font-family="Helvetica,sans-Serif" font-size="10.00">_proto/omnibox_event.pb.h</text>
</a>
</g>
</g>
<!-- Node16&#45;&gt;Node19 -->
<g id="edge23" class="edge">
<title>Node16&#45;&gt;Node19</title>
<path fill="none" stroke="midnightblue" d="M2218.45,-78.43C2197.27,-66.93 2170.64,-52.47 2149.63,-41.07"/>
<polygon fill="midnightblue" stroke="midnightblue" points="2151.16,-37.92 2140.7,-36.23 2147.82,-44.07 2151.16,-37.92"/>
</g>
<!-- Node20 -->
<g id="node20" class="node">
<title>Node20</title>
<g id="a_node20"><a xlink:title=" ">
<polygon fill="white" stroke="#bfbfbf" points="2199.5,-0.5 2199.5,-41.5 2309.5,-41.5 2309.5,-0.5 2199.5,-0.5"/>
<text text-anchor="start" x="2207.5" y="-29.5" font-family="Helvetica,sans-Serif" font-size="10.00">third_party/metrics</text>
<text text-anchor="start" x="2207.5" y="-18.5" font-family="Helvetica,sans-Serif" font-size="10.00">_proto/omnibox_input</text>
<text text-anchor="middle" x="2254.5" y="-7.5" font-family="Helvetica,sans-Serif" font-size="10.00">_type.pb.h</text>
</a>
</g>
</g>
<!-- Node16&#45;&gt;Node20 -->
<g id="edge24" class="edge">
<title>Node16&#45;&gt;Node20</title>
<path fill="none" stroke="midnightblue" d="M2254.5,-78.43C2254.5,-70.27 2254.5,-60.62 2254.5,-51.63"/>
<polygon fill="midnightblue" stroke="midnightblue" points="2258,-51.51 2254.5,-41.51 2251,-51.51 2258,-51.51"/>
</g>
<!-- Node16&#45;&gt;Node21 -->
<g id="edge25" class="edge">
<title>Node16&#45;&gt;Node21</title>
<path fill="none" stroke="midnightblue" d="M2312.65,-81.13C2352,-69.72 2404.23,-54.57 2445.96,-42.46"/>
<polygon fill="midnightblue" stroke="midnightblue" points="2447.16,-45.76 2455.78,-39.61 2445.21,-39.04 2447.16,-45.76"/>
</g>
<!-- Node16&#45;&gt;Node22 -->
<g id="edge26" class="edge">
<title>Node16&#45;&gt;Node22</title>
<path fill="none" stroke="midnightblue" d="M2196.44,-85.16C2181.24,-82.28 2164.82,-79.61 2149.5,-78 1966.91,-58.76 674.72,-89.99 497.5,-42 492.29,-40.59 487.01,-38.27 482.17,-35.7"/>
<polygon fill="midnightblue" stroke="midnightblue" points="483.91,-32.66 473.52,-30.62 480.37,-38.7 483.91,-32.66"/>
</g>
<!-- Node23 -->
<g id="node23" class="node">
<title>Node23</title>
<g id="a_node23"><a xlink:title=" ">
<polygon fill="white" stroke="#bfbfbf" points="2327.5,-6 2327.5,-36 2437.5,-36 2437.5,-6 2327.5,-6"/>
<text text-anchor="start" x="2335.5" y="-24" font-family="Helvetica,sans-Serif" font-size="10.00">url/third_party/mozilla</text>
<text text-anchor="middle" x="2382.5" y="-13" font-family="Helvetica,sans-Serif" font-size="10.00">/url_parse.h</text>
</a>
</g>
</g>
<!-- Node16&#45;&gt;Node23 -->
<g id="edge27" class="edge">
<title>Node16&#45;&gt;Node23</title>
<path fill="none" stroke="midnightblue" d="M2287.46,-78.43C2306.65,-67.04 2330.74,-52.73 2349.87,-41.38"/>
<polygon fill="midnightblue" stroke="midnightblue" points="2351.73,-44.34 2358.54,-36.23 2348.16,-38.32 2351.73,-44.34"/>
</g>
<!-- Node24&#45;&gt;Node3 -->
<g id="edge29" class="edge">
<title>Node24&#45;&gt;Node3</title>
<path fill="none" stroke="midnightblue" d="M1235.83,-80.04C1238.75,-79.31 1241.65,-78.63 1244.5,-78 1375.78,-49.1 1535.44,-31.46 1601.55,-24.91"/>
<polygon fill="midnightblue" stroke="midnightblue" points="1602.08,-28.37 1611.7,-23.92 1601.4,-21.41 1602.08,-28.37"/>
</g>
<!-- Node26&#45;&gt;Node2 -->
<g id="edge32" class="edge">
<title>Node26&#45;&gt;Node2</title>
<path fill="none" stroke="midnightblue" d="M315.9,-78.43C302.53,-65.73 285.35,-49.41 272.91,-37.59"/>
<polygon fill="midnightblue" stroke="midnightblue" points="275.16,-34.9 265.5,-30.55 270.34,-39.98 275.16,-34.9"/>
</g>
<!-- Node26&#45;&gt;Node3 -->
<g id="edge33" class="edge">
<title>Node26&#45;&gt;Node3</title>
<path fill="none" stroke="midnightblue" d="M391.55,-88.92C417.29,-84.99 448.39,-80.68 476.5,-78 922.02,-35.48 1467.39,-24.56 1601.59,-22.44"/>
<polygon fill="midnightblue" stroke="midnightblue" points="1601.98,-25.93 1611.92,-22.28 1601.87,-18.93 1601.98,-25.93"/>
</g>
<!-- Node26&#45;&gt;Node4 -->
<g id="edge35" class="edge">
<title>Node26&#45;&gt;Node4</title>
<path fill="none" stroke="midnightblue" d="M281.08,-84.27C237.56,-73.32 175.49,-57.33 121.5,-42 112.24,-39.37 102.29,-36.39 93.02,-33.54"/>
<polygon fill="midnightblue" stroke="midnightblue" points="93.89,-30.15 83.3,-30.54 91.82,-36.84 93.89,-30.15"/>
</g>
<!-- Node26&#45;&gt;Node5 -->
<g id="edge36" class="edge">
<title>Node26&#45;&gt;Node5</title>
<path fill="none" stroke="midnightblue" d="M294.01,-78.43C264.21,-64.7 225.21,-46.74 199.31,-34.81"/>
<polygon fill="midnightblue" stroke="midnightblue" points="200.61,-31.56 190.07,-30.55 197.69,-37.91 200.61,-31.56"/>
</g>
<!-- Node26&#45;&gt;Node11 -->
<g id="edge34" class="edge">
<title>Node26&#45;&gt;Node11</title>
<path fill="none" stroke="midnightblue" d="M391.84,-82.34C423.52,-72.5 463.59,-58.54 497.5,-42 500.99,-40.3 504.56,-38.28 507.98,-36.2"/>
<polygon fill="midnightblue" stroke="midnightblue" points="510.02,-39.04 516.52,-30.68 506.23,-33.16 510.02,-39.04"/>
</g>
<!-- Node26&#45;&gt;Node18 -->
<g id="edge38" class="edge">
<title>Node26&#45;&gt;Node18</title>
<path fill="none" stroke="midnightblue" d="M391.53,-88.69C417.26,-84.71 448.37,-80.43 476.5,-78 1001.46,-32.67 1140.29,-119.26 1661.5,-42 1667.63,-41.09 1673.99,-39.85 1680.27,-38.43"/>
<polygon fill="midnightblue" stroke="midnightblue" points="1681.16,-41.81 1690.06,-36.07 1679.52,-35.01 1681.16,-41.81"/>
</g>
<!-- Node26&#45;&gt;Node22 -->
<g id="edge39" class="edge">
<title>Node26&#45;&gt;Node22</title>
<path fill="none" stroke="midnightblue" d="M368.69,-78.43C390.67,-65.06 419.25,-47.69 438.86,-35.77"/>
<polygon fill="midnightblue" stroke="midnightblue" points="440.71,-38.74 447.43,-30.55 437.07,-32.76 440.71,-38.74"/>
</g>
<!-- Node27 -->
<g id="node27" class="node">
<title>Node27</title>
<g id="a_node27"><a xlink:title=" ">
<polygon fill="white" stroke="#bfbfbf" points="300.5,-11.5 300.5,-30.5 416.5,-30.5 416.5,-11.5 300.5,-11.5"/>
<text text-anchor="middle" x="358.5" y="-18.5" font-family="Helvetica,sans-Serif" font-size="10.00">base/memory/ptr_util.h</text>
</a>
</g>
</g>
<!-- Node26&#45;&gt;Node27 -->
<g id="edge37" class="edge">
<title>Node26&#45;&gt;Node27</title>
<path fill="none" stroke="midnightblue" d="M342.17,-78.43C345.56,-66.7 349.85,-51.87 353.18,-40.36"/>
<polygon fill="midnightblue" stroke="midnightblue" points="356.61,-41.13 356.02,-30.55 349.88,-39.18 356.61,-41.13"/>
</g>
</g>
</svg>
        <g id="navigator" transform="translate(0 0)" fill="#404254">
                <rect fill="#f2f5e9" fill-opacity="0.5" stroke="#606060" stroke-width=".5" x="0" y="0" width="60" height="60"/>
                <use id="zoomplus" xlink:href="#zoomPlus" x="17" y="9" onmousedown="handleZoom(evt,'in')"/>
                <use id="zoomminus" xlink:href="#zoomMin" x="42" y="9" onmousedown="handleZoom(evt,'out')"/>
                <use id="reset" xlink:href="#resetDef" x="30" y="36" onmousedown="handleReset()"/>
                <g id="arrowUp" xlink:href="#dirArrow" transform="translate(30 24)" onmousedown="handlePan(0,-1)">
                  <use xlink:href="#rim" fill="#404040">
                        <set attributeName="fill" to="#808080" begin="arrowUp.mouseover" end="arrowUp.mouseout"/>
                  </use>
                  <path fill="none" stroke="white" stroke-width="1.5" d="M0,-3.0v7 M-2.5,-0.5L0,-3.0L2.5,-0.5"/>
                </g>
                <g id="arrowRight" xlink:href="#dirArrow" transform="rotate(90) translate(36 -43)" onmousedown="handlePan(1,0)">
                  <use xlink:href="#rim" fill="#404040">
                        <set attributeName="fill" to="#808080" begin="arrowRight.mouseover" end="arrowRight.mouseout"/>
                  </use>
                  <path fill="none" stroke="white" stroke-width="1.5" d="M0,-3.0v7 M-2.5,-0.5L0,-3.0L2.5,-0.5"/>
                </g>
                <g id="arrowDown" xlink:href="#dirArrow" transform="rotate(180) translate(-30 -48)" onmousedown="handlePan(0,1)">
                  <use xlink:href="#rim" fill="#404040">
                        <set attributeName="fill" to="#808080" begin="arrowDown.mouseover" end="arrowDown.mouseout"/>
                  </use>
                  <path fill="none" stroke="white" stroke-width="1.5" d="M0,-3.0v7 M-2.5,-0.5L0,-3.0L2.5,-0.5"/>
                </g>
                <g id="arrowLeft" xlink:href="#dirArrow" transform="rotate(270) translate(-36 17)" onmousedown="handlePan(-1,0)">
                  <use xlink:href="#rim" fill="#404040">
                        <set attributeName="fill" to="#808080" begin="arrowLeft.mouseover" end="arrowLeft.mouseout"/>
                  </use>
                  <path fill="none" stroke="white" stroke-width="1.5" d="M0,-3.0v7 M-2.5,-0.5L0,-3.0L2.5,-0.5"/>
                </g>
        </g>
        <svg viewBox="0 0 15 15" width="100%" height="30px" preserveAspectRatio="xMaxYMin meet">
         <g id="arrow_out" transform="scale(0.3 0.3)">
          <a xlink:href="chrome__omnibox__navigation__observer_8h__incl_org.svg" target="_base">
           <rect id="button" ry="5" rx="5" y="6" x="6" height="38" width="38"
                fill="#f2f5e9" fill-opacity="0.5" stroke="#606060" stroke-width="1.0"/>
           <path id="arrow"
             d="M 11.500037,31.436501 C 11.940474,20.09759 22.043105,11.32322 32.158766,21.979434 L 37.068811,17.246167 C 37.068811,17.246167 37.088388,32 37.088388,32 L 22.160133,31.978069 C 22.160133,31.978069 26.997745,27.140456 26.997745,27.140456 C 18.528582,18.264221 13.291696,25.230495 11.500037,31.436501 z"
             style="fill:#404040;"/>
          </a>
         </g>
        </svg>
</svg>
