<?xml version="1.0" encoding="UTF-8" standalone="no"?>
<!DOCTYPE svg PUBLIC "-//W3C//DTD SVG 1.1//EN"
 "http://www.w3.org/Graphics/SVG/1.1/DTD/svg11.dtd">
<!-- Generated by graphviz version 2.43.0 (0)
 -->
<!-- Title: chrome/browser/ui/omnibox/chrome_omnibox_navigation_observer.h Pages: 1 -->
<!--zoomable 284 -->
<svg id="main" version="1.1" xmlns="http://www.w3.org/2000/svg" xmlns:xlink="http://www.w3.org/1999/xlink" xml:space="preserve" onload="init(evt)">
<style type="text/css"><![CDATA[
.edge:hover path { stroke: red; }
.edge:hover polygon { stroke: red; fill: red; }
]]></style>
<script type="text/javascript"><![CDATA[
var edges = document.getElementsByTagName('g');
if (edges && edges.length) {
  for (var i=0;i<edges.length;i++) {
    if (edges[i].id.substr(0,4)=='edge') {
      edges[i].setAttribute('class','edge');
    }
  }
}
]]></script>
        <defs>
                <circle id="rim" cx="0" cy="0" r="7"/>
                <circle id="rim2" cx="0" cy="0" r="3.5"/>
                <g id="zoomPlus">
                        <use xlink:href="#rim" fill="#404040">
                                <set attributeName="fill" to="#808080" begin="zoomplus.mouseover" end="zoomplus.mouseout"/>
                        </use>
                        <path d="M-4,0h8M0,-4v8" fill="none" stroke="white" stroke-width="1.5" pointer-events="none"/>
                </g>
                <g id="zoomMin">
                        <use xlink:href="#rim" fill="#404040">
                                <set attributeName="fill" to="#808080" begin="zoomminus.mouseover" end="zoomminus.mouseout"/>
                        </use>
                        <path d="M-4,0h8" fill="none" stroke="white" stroke-width="1.5" pointer-events="none"/>
                </g>
                <g id="dirArrow">
                        <path fill="none" stroke="white" stroke-width="1.5" d="M0,-3.0v7 M-2.5,-0.5L0,-3.0L2.5,-0.5"/>
                </g>
               <g id="resetDef">
                       <use xlink:href="#rim2" fill="#404040">
                               <set attributeName="fill" to="#808080" begin="reset.mouseover" end="reset.mouseout"/>
                       </use>
               </g>
        </defs>

<script type="text/javascript">
var viewWidth = 2779;
var viewHeight = 284;
var sectionId = 'dynsection-0';
</script>
<script xlink:href="../../svgpan.js"/>
<svg id="graph" class="graph">
<g id="viewport">
<title>chrome/browser/ui/omnibox/chrome_omnibox_navigation_observer.h</title>
<polygon fill="white" stroke="transparent" points="-4,4 -4,-280 2774.5,-280 2774.5,4 -4,4"/>
<!-- Node1 -->
<g id="node1" class="node">
<title>Node1</title>
<g id="a_node1"><a xlink:title=" ">
<polygon fill="#bfbfbf" stroke="black" points="1843,-234.5 1843,-275.5 1986,-275.5 1986,-234.5 1843,-234.5"/>
<text text-anchor="start" x="1851" y="-263.5" font-family="Helvetica,sans-Serif" font-size="10.00">chrome/browser/ui/omnibox</text>
<text text-anchor="start" x="1851" y="-252.5" font-family="Helvetica,sans-Serif" font-size="10.00">/chrome_omnibox_navigation</text>
<text text-anchor="middle" x="1914.5" y="-241.5" font-family="Helvetica,sans-Serif" font-size="10.00">_observer.h</text>
</a>
</g>
</g>
<!-- Node2 -->
<g id="node2" class="node">
<title>Node2</title>
<g id="a_node2"><a xlink:title=" ">
<polygon fill="white" stroke="#bfbfbf" points="2089.5,-11.5 2089.5,-30.5 2141.5,-30.5 2141.5,-11.5 2089.5,-11.5"/>
<text text-anchor="middle" x="2115.5" y="-18.5" font-family="Helvetica,sans-Serif" font-size="10.00">memory</text>
</a>
</g>
</g>
<!-- Node1&#45;&gt;Node2 -->
<g id="edge1" class="edge">
<title>Node1&#45;&gt;Node2</title>
<path fill="none" stroke="midnightblue" d="M1898.83,-234.48C1883.56,-212.94 1865.22,-178.38 1884.5,-156 1955.2,-73.96 2054.8,-202.04 2125.5,-120 2144.59,-97.84 2133.71,-61.56 2124.39,-39.9"/>
<polygon fill="midnightblue" stroke="midnightblue" points="2127.45,-38.18 2120.07,-30.58 2121.09,-41.12 2127.45,-38.18"/>
</g>
<!-- Node3 -->
<g id="node3" class="node">
<title>Node3</title>
<g id="a_node3"><a xlink:title=" ">
<polygon fill="white" stroke="#bfbfbf" points="455,-11.5 455,-30.5 496,-30.5 496,-11.5 455,-11.5"/>
<text text-anchor="middle" x="475.5" y="-18.5" font-family="Helvetica,sans-Serif" font-size="10.00">string</text>
</a>
</g>
</g>
<!-- Node1&#45;&gt;Node3 -->
<g id="edge2" class="edge">
<title>Node1&#45;&gt;Node3</title>
<path fill="none" stroke="midnightblue" d="M1842.88,-254.39C1518.63,-255.41 198.7,-251.44 76.5,-120 -0.46,-37.22 33,-94.75 370.5,-42 395.6,-38.08 423.87,-32.63 444.75,-28.41"/>
<polygon fill="midnightblue" stroke="midnightblue" points="445.55,-31.82 454.65,-26.39 444.16,-24.96 445.55,-31.82"/>
</g>
<!-- Node4 -->
<g id="node4" class="node">
<title>Node4</title>
<g id="a_node4"><a xlink:title=" ">
<polygon fill="white" stroke="#bfbfbf" points="0,-11.5 0,-30.5 113,-30.5 113,-11.5 0,-11.5"/>
<text text-anchor="middle" x="56.5" y="-18.5" font-family="Helvetica,sans-Serif" font-size="10.00">base/gtest_prod_util.h</text>
</a>
</g>
</g>
<!-- Node1&#45;&gt;Node4 -->
<g id="edge3" class="edge">
<title>Node1&#45;&gt;Node4</title>
<path fill="none" stroke="midnightblue" d="M1842.86,-253.97C1511.05,-253.55 136.47,-248.74 61.5,-198 15.59,-166.93 14.38,-131.86 27.5,-78 30.87,-64.15 38.31,-49.91 44.81,-39.26"/>
<polygon fill="midnightblue" stroke="midnightblue" points="47.92,-40.9 50.37,-30.59 42.03,-37.12 47.92,-40.9"/>
</g>
<!-- Node5 -->
<g id="node5" class="node">
<title>Node5</title>
<g id="a_node5"><a xlink:title=" ">
<polygon fill="white" stroke="#bfbfbf" points="281,-11.5 281,-30.5 362,-30.5 362,-11.5 281,-11.5"/>
<text text-anchor="middle" x="321.5" y="-18.5" font-family="Helvetica,sans-Serif" font-size="10.00">base/macros.h</text>
</a>
</g>
</g>
<!-- Node1&#45;&gt;Node5 -->
<g id="edge4" class="edge">
<title>Node1&#45;&gt;Node5</title>
<path fill="none" stroke="midnightblue" d="M1842.83,-253.99C1533.47,-253.62 320.79,-248.94 158.5,-198 97.81,-178.95 68.84,-175.91 38.5,-120 29.6,-103.59 26.65,-92.42 38.5,-78 67.29,-42.96 196.96,-29.47 270.38,-24.58"/>
<polygon fill="midnightblue" stroke="midnightblue" points="271.03,-28.04 280.79,-23.92 270.59,-21.06 271.03,-28.04"/>
</g>
<!-- Node6 -->
<g id="node6" class="node">
<title>Node6</title>
<g id="a_node6"><a xlink:title=" ">
<polygon fill="white" stroke="#bfbfbf" points="1698.5,-167.5 1698.5,-186.5 1836.5,-186.5 1836.5,-167.5 1698.5,-167.5"/>
<text text-anchor="middle" x="1767.5" y="-174.5" font-family="Helvetica,sans-Serif" font-size="10.00">base/memory/ref_counted.h</text>
</a>
</g>
</g>
<!-- Node1&#45;&gt;Node6 -->
<g id="edge5" class="edge">
<title>Node1&#45;&gt;Node6</title>
<path fill="none" stroke="midnightblue" d="M1876.64,-234.43C1850.44,-220.88 1816.27,-203.21 1793.19,-191.28"/>
<polygon fill="midnightblue" stroke="midnightblue" points="1794.53,-188.04 1784.04,-186.55 1791.32,-194.25 1794.53,-188.04"/>
</g>
<!-- Node7 -->
<g id="node7" class="node">
<title>Node7</title>
<g id="a_node7"><a xlink:href="../../dc/d0c/autocomplete__match_8h.html" target="_top" xlink:title=" ">
<polygon fill="white" stroke="black" points="1284.5,-156.5 1284.5,-197.5 1400.5,-197.5 1400.5,-156.5 1284.5,-156.5"/>
<text text-anchor="start" x="1292.5" y="-185.5" font-family="Helvetica,sans-Serif" font-size="10.00">components/omnibox</text>
<text text-anchor="start" x="1292.5" y="-174.5" font-family="Helvetica,sans-Serif" font-size="10.00">/browser/autocomplete</text>
<text text-anchor="middle" x="1342.5" y="-163.5" font-family="Helvetica,sans-Serif" font-size="10.00">_match.h</text>
</a>
</g>
</g>
<!-- Node1&#45;&gt;Node7 -->
<g id="edge6" class="edge">
<title>Node1&#45;&gt;Node7</title>
<path fill="none" stroke="midnightblue" d="M1842.92,-244.49C1731.99,-229.75 1519.99,-201.58 1410.98,-187.1"/>
<polygon fill="midnightblue" stroke="midnightblue" points="1411.13,-183.59 1400.75,-185.74 1410.21,-190.53 1411.13,-183.59"/>
</g>
<!-- Node32 -->
<g id="node32" class="node">
<title>Node32</title>
<g id="a_node32"><a xlink:href="../../de/db6/omnibox__navigation__observer_8h.html" target="_top" xlink:title=" ">
<polygon fill="white" stroke="black" points="1893,-156.5 1893,-197.5 2036,-197.5 2036,-156.5 1893,-156.5"/>
<text text-anchor="start" x="1901" y="-185.5" font-family="Helvetica,sans-Serif" font-size="10.00">components/omnibox</text>
<text text-anchor="start" x="1901" y="-174.5" font-family="Helvetica,sans-Serif" font-size="10.00">/browser/omnibox_navigation</text>
<text text-anchor="middle" x="1964.5" y="-163.5" font-family="Helvetica,sans-Serif" font-size="10.00">_observer.h</text>
</a>
</g>
</g>
<!-- Node1&#45;&gt;Node32 -->
<g id="edge45" class="edge">
<title>Node1&#45;&gt;Node32</title>
<path fill="none" stroke="midnightblue" d="M1927.38,-234.43C1933.09,-225.74 1939.92,-215.36 1946.16,-205.88"/>
<polygon fill="midnightblue" stroke="midnightblue" points="1949.1,-207.78 1951.67,-197.51 1943.25,-203.94 1949.1,-207.78"/>
</g>
<!-- Node33 -->
<g id="node33" class="node">
<title>Node33</title>
<g id="a_node33"><a xlink:title=" ">
<polygon fill="white" stroke="#bfbfbf" points="2054,-162 2054,-192 2171,-192 2171,-162 2054,-162"/>
<text text-anchor="start" x="2062" y="-180" font-family="Helvetica,sans-Serif" font-size="10.00">content/public/browser</text>
<text text-anchor="middle" x="2112.5" y="-169" font-family="Helvetica,sans-Serif" font-size="10.00">/notification_observer.h</text>
</a>
</g>
</g>
<!-- Node1&#45;&gt;Node33 -->
<g id="edge46" class="edge">
<title>Node1&#45;&gt;Node33</title>
<path fill="none" stroke="midnightblue" d="M1965.49,-234.43C1996.61,-222.48 2036.08,-207.33 2066.29,-195.74"/>
<polygon fill="midnightblue" stroke="midnightblue" points="2067.67,-198.96 2075.75,-192.11 2065.16,-192.42 2067.67,-198.96"/>
</g>
<!-- Node34 -->
<g id="node34" class="node">
<title>Node34</title>
<g id="a_node34"><a xlink:title=" ">
<polygon fill="white" stroke="#bfbfbf" points="2189,-162 2189,-192 2304,-192 2304,-162 2189,-162"/>
<text text-anchor="start" x="2197" y="-180" font-family="Helvetica,sans-Serif" font-size="10.00">content/public/browser</text>
<text text-anchor="middle" x="2246.5" y="-169" font-family="Helvetica,sans-Serif" font-size="10.00">/notification_registrar.h</text>
</a>
</g>
</g>
<!-- Node1&#45;&gt;Node34 -->
<g id="edge47" class="edge">
<title>Node1&#45;&gt;Node34</title>
<path fill="none" stroke="midnightblue" d="M1986.02,-240.69C2039.79,-230.26 2115.13,-214.75 2180.5,-198 2184.31,-197.02 2188.22,-195.97 2192.15,-194.87"/>
<polygon fill="midnightblue" stroke="midnightblue" points="2193.26,-198.2 2201.91,-192.08 2191.34,-191.47 2193.26,-198.2"/>
</g>
<!-- Node35 -->
<g id="node35" class="node">
<title>Node35</title>
<g id="a_node35"><a xlink:title=" ">
<polygon fill="white" stroke="#bfbfbf" points="2322,-162 2322,-192 2437,-192 2437,-162 2322,-162"/>
<text text-anchor="start" x="2330" y="-180" font-family="Helvetica,sans-Serif" font-size="10.00">content/public/browser</text>
<text text-anchor="middle" x="2379.5" y="-169" font-family="Helvetica,sans-Serif" font-size="10.00">/reload_type.h</text>
</a>
</g>
</g>
<!-- Node1&#45;&gt;Node35 -->
<g id="edge48" class="edge">
<title>Node1&#45;&gt;Node35</title>
<path fill="none" stroke="midnightblue" d="M1986.09,-247.33C2066.4,-239.06 2200.27,-222.94 2313.5,-198 2317.83,-197.05 2322.28,-195.95 2326.74,-194.77"/>
<polygon fill="midnightblue" stroke="midnightblue" points="2327.73,-198.13 2336.44,-192.09 2325.87,-191.38 2327.73,-198.13"/>
</g>
<!-- Node36 -->
<g id="node36" class="node">
<title>Node36</title>
<g id="a_node36"><a xlink:title=" ">
<polygon fill="white" stroke="#bfbfbf" points="2455,-162 2455,-192 2586,-192 2586,-162 2455,-162"/>
<text text-anchor="start" x="2463" y="-180" font-family="Helvetica,sans-Serif" font-size="10.00">content/public/browser</text>
<text text-anchor="middle" x="2520.5" y="-169" font-family="Helvetica,sans-Serif" font-size="10.00">/web_contents_observer.h</text>
</a>
</g>
</g>
<!-- Node1&#45;&gt;Node36 -->
<g id="edge49" class="edge">
<title>Node1&#45;&gt;Node36</title>
<path fill="none" stroke="midnightblue" d="M1986.01,-250.1C2088.64,-243.67 2283.31,-228.44 2446.5,-198 2451.9,-196.99 2457.48,-195.79 2463.04,-194.48"/>
<polygon fill="midnightblue" stroke="midnightblue" points="2464.11,-197.82 2472.99,-192.04 2462.44,-191.03 2464.11,-197.82"/>
</g>
<!-- Node37 -->
<g id="node37" class="node">
<title>Node37</title>
<g id="a_node37"><a xlink:title=" ">
<polygon fill="white" stroke="#bfbfbf" points="2604.5,-156.5 2604.5,-197.5 2770.5,-197.5 2770.5,-156.5 2604.5,-156.5"/>
<text text-anchor="start" x="2612.5" y="-185.5" font-family="Helvetica,sans-Serif" font-size="10.00">services/network/public</text>
<text text-anchor="start" x="2612.5" y="-174.5" font-family="Helvetica,sans-Serif" font-size="10.00">/mojom/url_response_head.mojom</text>
<text text-anchor="middle" x="2687.5" y="-163.5" font-family="Helvetica,sans-Serif" font-size="10.00">&#45;forward.h</text>
</a>
</g>
</g>
<!-- Node1&#45;&gt;Node37 -->
<g id="edge50" class="edge">
<title>Node1&#45;&gt;Node37</title>
<path fill="none" stroke="midnightblue" d="M1986.43,-251.21C2109.22,-245.76 2367.22,-231.33 2594.24,-198.09"/>
<polygon fill="midnightblue" stroke="midnightblue" points="2594.97,-201.52 2604.35,-196.59 2593.94,-194.59 2594.97,-201.52"/>
</g>
<!-- Node7&#45;&gt;Node2 -->
<g id="edge9" class="edge">
<title>Node7&#45;&gt;Node2</title>
<path fill="none" stroke="midnightblue" d="M1400.59,-170.77C1483.98,-162.53 1632.84,-144.86 1680.5,-120 1703.63,-107.93 1698,-89.32 1721.5,-78 1865.98,-8.44 1927.77,-90.85 2080.5,-42 2085.33,-40.46 2090.23,-38.18 2094.77,-35.72"/>
<polygon fill="midnightblue" stroke="midnightblue" points="2096.64,-38.68 2103.45,-30.56 2093.07,-32.66 2096.64,-38.68"/>
</g>
<!-- Node7&#45;&gt;Node3 -->
<g id="edge10" class="edge">
<title>Node7&#45;&gt;Node3</title>
<path fill="none" stroke="midnightblue" d="M1284.39,-176.19C1102.63,-176.23 553.5,-172.02 494.5,-120 472.26,-100.39 471.26,-63.22 473.04,-40.72"/>
<polygon fill="midnightblue" stroke="midnightblue" points="476.53,-41.04 474.1,-30.73 469.57,-40.3 476.53,-41.04"/>
</g>
<!-- Node8 -->
<g id="node8" class="node">
<title>Node8</title>
<g id="a_node8"><a xlink:title=" ">
<polygon fill="white" stroke="#bfbfbf" points="2019.5,-11.5 2019.5,-30.5 2071.5,-30.5 2071.5,-11.5 2019.5,-11.5"/>
<text text-anchor="middle" x="2045.5" y="-18.5" font-family="Helvetica,sans-Serif" font-size="10.00">stddef.h</text>
</a>
</g>
</g>
<!-- Node7&#45;&gt;Node8 -->
<g id="edge7" class="edge">
<title>Node7&#45;&gt;Node8</title>
<path fill="none" stroke="midnightblue" d="M1400.72,-175.19C1464.23,-172.11 1567.25,-160.56 1645.5,-120 1669.22,-107.71 1664.36,-89.44 1688.5,-78 1818.63,-16.34 1873.59,-86.65 2010.5,-42 2015.32,-40.43 2020.21,-38.14 2024.76,-35.68"/>
<polygon fill="midnightblue" stroke="midnightblue" points="2026.63,-38.64 2033.44,-30.53 2023.06,-32.62 2026.63,-38.64"/>
</g>
<!-- Node9 -->
<g id="node9" class="node">
<title>Node9</title>
<g id="a_node9"><a xlink:title=" ">
<polygon fill="white" stroke="#bfbfbf" points="1371,-89.5 1371,-108.5 1406,-108.5 1406,-89.5 1371,-89.5"/>
<text text-anchor="middle" x="1388.5" y="-96.5" font-family="Helvetica,sans-Serif" font-size="10.00">map</text>
</a>
</g>
</g>
<!-- Node7&#45;&gt;Node9 -->
<g id="edge8" class="edge">
<title>Node7&#45;&gt;Node9</title>
<path fill="none" stroke="midnightblue" d="M1354.35,-156.43C1361.67,-144.33 1370.98,-128.95 1378.03,-117.3"/>
<polygon fill="midnightblue" stroke="midnightblue" points="1381.14,-118.92 1383.32,-108.55 1375.15,-115.29 1381.14,-118.92"/>
</g>
<!-- Node10 -->
<g id="node10" class="node">
<title>Node10</title>
<g id="a_node10"><a xlink:title=" ">
<polygon fill="white" stroke="#bfbfbf" points="1596.5,-89.5 1596.5,-108.5 1636.5,-108.5 1636.5,-89.5 1596.5,-89.5"/>
<text text-anchor="middle" x="1616.5" y="-96.5" font-family="Helvetica,sans-Serif" font-size="10.00">utility</text>
</a>
</g>
</g>
<!-- Node7&#45;&gt;Node10 -->
<g id="edge11" class="edge">
<title>Node7&#45;&gt;Node10</title>
<path fill="none" stroke="midnightblue" d="M1400.64,-169.04C1451.55,-161.48 1526.69,-146.74 1587.5,-120 1590.91,-118.5 1594.33,-116.59 1597.57,-114.54"/>
<polygon fill="midnightblue" stroke="midnightblue" points="1599.85,-117.22 1606.06,-108.64 1595.85,-111.47 1599.85,-117.22"/>
</g>
<!-- Node11 -->
<g id="node11" class="node">
<title>Node11</title>
<g id="a_node11"><a xlink:title=" ">
<polygon fill="white" stroke="#bfbfbf" points="1171.5,-11.5 1171.5,-30.5 1215.5,-30.5 1215.5,-11.5 1171.5,-11.5"/>
<text text-anchor="middle" x="1193.5" y="-18.5" font-family="Helvetica,sans-Serif" font-size="10.00">vector</text>
</a>
</g>
</g>
<!-- Node7&#45;&gt;Node11 -->
<g id="edge12" class="edge">
<title>Node7&#45;&gt;Node11</title>
<path fill="none" stroke="midnightblue" d="M1344.03,-156.29C1344.62,-134.59 1342.18,-99.88 1323.5,-78 1293.1,-42.4 1266.43,-62.82 1224.5,-42 1221.03,-40.27 1217.46,-38.25 1214.04,-36.16"/>
<polygon fill="midnightblue" stroke="midnightblue" points="1215.8,-33.12 1205.5,-30.64 1212,-39 1215.8,-33.12"/>
</g>
<!-- Node12 -->
<g id="node12" class="node">
<title>Node12</title>
<g id="a_node12"><a xlink:title=" ">
<polygon fill="white" stroke="#bfbfbf" points="1730.5,-84 1730.5,-114 1840.5,-114 1840.5,-84 1730.5,-84"/>
<text text-anchor="start" x="1738.5" y="-102" font-family="Helvetica,sans-Serif" font-size="10.00">base/memory/scoped</text>
<text text-anchor="middle" x="1785.5" y="-91" font-family="Helvetica,sans-Serif" font-size="10.00">_refptr.h</text>
</a>
</g>
</g>
<!-- Node7&#45;&gt;Node12 -->
<g id="edge13" class="edge">
<title>Node7&#45;&gt;Node12</title>
<path fill="none" stroke="midnightblue" d="M1400.6,-169.74C1474.51,-161.22 1605.86,-144.2 1716.5,-120 1720.94,-119.03 1725.51,-117.93 1730.09,-116.76"/>
<polygon fill="midnightblue" stroke="midnightblue" points="1731.31,-120.06 1740.07,-114.1 1729.5,-113.29 1731.31,-120.06"/>
</g>
<!-- Node13 -->
<g id="node13" class="node">
<title>Node13</title>
<g id="a_node13"><a xlink:title=" ">
<polygon fill="white" stroke="#bfbfbf" points="1858.5,-89.5 1858.5,-108.5 1984.5,-108.5 1984.5,-89.5 1858.5,-89.5"/>
<text text-anchor="middle" x="1921.5" y="-96.5" font-family="Helvetica,sans-Serif" font-size="10.00">base/memory/weak_ptr.h</text>
</a>
</g>
</g>
<!-- Node7&#45;&gt;Node13 -->
<g id="edge14" class="edge">
<title>Node7&#45;&gt;Node13</title>
<path fill="none" stroke="midnightblue" d="M1400.74,-172.62C1495.5,-166.45 1688.63,-151.02 1849.5,-120 1861.11,-117.76 1873.57,-114.58 1884.81,-111.42"/>
<polygon fill="midnightblue" stroke="midnightblue" points="1886.1,-114.69 1894.73,-108.54 1884.15,-107.96 1886.1,-114.69"/>
</g>
<!-- Node14 -->
<g id="node14" class="node">
<title>Node14</title>
<g id="a_node14"><a xlink:title=" ">
<polygon fill="white" stroke="#bfbfbf" points="2002.5,-84 2002.5,-114 2116.5,-114 2116.5,-84 2002.5,-84"/>
<text text-anchor="start" x="2010.5" y="-102" font-family="Helvetica,sans-Serif" font-size="10.00">base/strings/utf_offset</text>
<text text-anchor="middle" x="2059.5" y="-91" font-family="Helvetica,sans-Serif" font-size="10.00">_string_conversions.h</text>
</a>
</g>
</g>
<!-- Node7&#45;&gt;Node14 -->
<g id="edge15" class="edge">
<title>Node7&#45;&gt;Node14</title>
<path fill="none" stroke="midnightblue" d="M1400.62,-172.56C1538.18,-164.16 1880.57,-141.72 1993.5,-120 1998.25,-119.09 2003.14,-117.96 2008.01,-116.72"/>
<polygon fill="midnightblue" stroke="midnightblue" points="2009.2,-120.03 2017.93,-114.03 2007.36,-113.27 2009.2,-120.03"/>
</g>
<!-- Node15 -->
<g id="node15" class="node">
<title>Node15</title>
<g id="a_node15"><a xlink:title=" ">
<polygon fill="white" stroke="#bfbfbf" points="85.5,-89.5 85.5,-108.5 185.5,-108.5 185.5,-89.5 85.5,-89.5"/>
<text text-anchor="middle" x="135.5" y="-96.5" font-family="Helvetica,sans-Serif" font-size="10.00">build/build_config.h</text>
</a>
</g>
</g>
<!-- Node7&#45;&gt;Node15 -->
<g id="edge16" class="edge">
<title>Node7&#45;&gt;Node15</title>
<path fill="none" stroke="midnightblue" d="M1284.45,-175.3C1081.83,-172.51 406.83,-160.35 194.5,-120 184.9,-118.18 174.73,-115.15 165.59,-112"/>
<polygon fill="midnightblue" stroke="midnightblue" points="166.74,-108.69 156.14,-108.57 164.35,-115.27 166.74,-108.69"/>
</g>
<!-- Node16 -->
<g id="node16" class="node">
<title>Node16</title>
<g id="a_node16"><a xlink:href="../../df/dab/autocomplete__input_8h.html" target="_top" xlink:title=" ">
<polygon fill="white" stroke="black" points="1462.5,-78.5 1462.5,-119.5 1578.5,-119.5 1578.5,-78.5 1462.5,-78.5"/>
<text text-anchor="start" x="1470.5" y="-107.5" font-family="Helvetica,sans-Serif" font-size="10.00">components/omnibox</text>
<text text-anchor="start" x="1470.5" y="-96.5" font-family="Helvetica,sans-Serif" font-size="10.00">/browser/autocomplete</text>
<text text-anchor="middle" x="1520.5" y="-85.5" font-family="Helvetica,sans-Serif" font-size="10.00">_input.h</text>
</a>
</g>
</g>
<!-- Node7&#45;&gt;Node16 -->
<g id="edge17" class="edge">
<title>Node7&#45;&gt;Node16</title>
<path fill="none" stroke="midnightblue" d="M1388.34,-156.43C1411.9,-146.37 1440.8,-134.03 1465.55,-123.46"/>
<polygon fill="midnightblue" stroke="midnightblue" points="1466.99,-126.65 1474.82,-119.51 1464.24,-120.21 1466.99,-126.65"/>
</g>
<!-- Node21 -->
<g id="node21" class="node">
<title>Node21</title>
<g id="a_node21"><a xlink:title=" ">
<polygon fill="white" stroke="#bfbfbf" points="1233.5,-11.5 1233.5,-30.5 1287.5,-30.5 1287.5,-11.5 1233.5,-11.5"/>
<text text-anchor="middle" x="1260.5" y="-18.5" font-family="Helvetica,sans-Serif" font-size="10.00">url/gurl.h</text>
</a>
</g>
</g>
<!-- Node7&#45;&gt;Node21 -->
<g id="edge44" class="edge">
<title>Node7&#45;&gt;Node21</title>
<path fill="none" stroke="midnightblue" d="M1380.6,-156.49C1394.21,-147.4 1408.01,-135.18 1415.5,-120 1423.76,-103.26 1426.63,-92.99 1415.5,-78 1382.57,-33.63 1347.38,-63.54 1296.5,-42 1292.08,-40.13 1287.51,-37.87 1283.17,-35.55"/>
<polygon fill="midnightblue" stroke="midnightblue" points="1284.61,-32.34 1274.17,-30.5 1281.18,-38.45 1284.61,-32.34"/>
</g>
<!-- Node23 -->
<g id="node23" class="node">
<title>Node23</title>
<g id="a_node23"><a xlink:href="../../df/d34/autocomplete__match__type_8h.html" target="_top" xlink:title=" ">
<polygon fill="white" stroke="black" points="203.5,-78.5 203.5,-119.5 319.5,-119.5 319.5,-78.5 203.5,-78.5"/>
<text text-anchor="start" x="211.5" y="-107.5" font-family="Helvetica,sans-Serif" font-size="10.00">components/omnibox</text>
<text text-anchor="start" x="211.5" y="-96.5" font-family="Helvetica,sans-Serif" font-size="10.00">/browser/autocomplete</text>
<text text-anchor="middle" x="261.5" y="-85.5" font-family="Helvetica,sans-Serif" font-size="10.00">_match_type.h</text>
</a>
</g>
</g>
<!-- Node7&#45;&gt;Node23 -->
<g id="edge27" class="edge">
<title>Node7&#45;&gt;Node23</title>
<path fill="none" stroke="midnightblue" d="M1284.26,-174.58C1100.48,-169.83 533.49,-152.96 329.78,-119.96"/>
<polygon fill="midnightblue" stroke="midnightblue" points="330.21,-116.48 319.77,-118.27 329.05,-123.39 330.21,-116.48"/>
</g>
<!-- Node24 -->
<g id="node24" class="node">
<title>Node24</title>
<g id="a_node24"><a xlink:title=" ">
<polygon fill="white" stroke="#bfbfbf" points="337.5,-84 337.5,-114 447.5,-114 447.5,-84 337.5,-84"/>
<text text-anchor="start" x="345.5" y="-102" font-family="Helvetica,sans-Serif" font-size="10.00">components/omnibox</text>
<text text-anchor="middle" x="392.5" y="-91" font-family="Helvetica,sans-Serif" font-size="10.00">/browser/buildflags.h</text>
</a>
</g>
</g>
<!-- Node7&#45;&gt;Node24 -->
<g id="edge29" class="edge">
<title>Node7&#45;&gt;Node24</title>
<path fill="none" stroke="midnightblue" d="M1284.26,-176.67C1142.38,-177.36 767.98,-173.49 461.5,-120 456.2,-119.08 450.73,-117.89 445.29,-116.57"/>
<polygon fill="midnightblue" stroke="midnightblue" points="446.15,-113.18 435.59,-114.06 444.4,-119.95 446.15,-113.18"/>
</g>
<!-- Node25 -->
<g id="node25" class="node">
<title>Node25</title>
<g id="a_node25"><a xlink:href="../../dd/d32/suggestion__answer_8h.html" target="_top" xlink:title=" ">
<polygon fill="white" stroke="black" points="1204.5,-78.5 1204.5,-119.5 1314.5,-119.5 1314.5,-78.5 1204.5,-78.5"/>
<text text-anchor="start" x="1212.5" y="-107.5" font-family="Helvetica,sans-Serif" font-size="10.00">components/omnibox</text>
<text text-anchor="start" x="1212.5" y="-96.5" font-family="Helvetica,sans-Serif" font-size="10.00">/browser/suggestion</text>
<text text-anchor="middle" x="1259.5" y="-85.5" font-family="Helvetica,sans-Serif" font-size="10.00">_answer.h</text>
</a>
</g>
</g>
<!-- Node7&#45;&gt;Node25 -->
<g id="edge30" class="edge">
<title>Node7&#45;&gt;Node25</title>
<path fill="none" stroke="midnightblue" d="M1321.13,-156.43C1311.15,-147.3 1299.14,-136.29 1288.37,-126.44"/>
<polygon fill="midnightblue" stroke="midnightblue" points="1290.54,-123.68 1280.8,-119.51 1285.81,-128.84 1290.54,-123.68"/>
</g>
<!-- Node27 -->
<g id="node27" class="node">
<title>Node27</title>
<g id="a_node27"><a xlink:title=" ">
<polygon fill="white" stroke="#bfbfbf" points="503.5,-84 503.5,-114 623.5,-114 623.5,-84 503.5,-84"/>
<text text-anchor="start" x="511.5" y="-102" font-family="Helvetica,sans-Serif" font-size="10.00">components/query_tiles</text>
<text text-anchor="middle" x="563.5" y="-91" font-family="Helvetica,sans-Serif" font-size="10.00">/tile.h</text>
</a>
</g>
</g>
<!-- Node7&#45;&gt;Node27 -->
<g id="edge39" class="edge">
<title>Node7&#45;&gt;Node27</title>
<path fill="none" stroke="midnightblue" d="M1284.1,-175.31C1162.22,-173.03 872.27,-163.09 633.5,-120 628.21,-119.05 622.75,-117.86 617.32,-116.54"/>
<polygon fill="midnightblue" stroke="midnightblue" points="618.18,-113.15 607.62,-114.05 616.44,-119.92 618.18,-113.15"/>
</g>
<!-- Node28 -->
<g id="node28" class="node">
<title>Node28</title>
<g id="a_node28"><a xlink:title=" ">
<polygon fill="white" stroke="#bfbfbf" points="642,-84 642,-114 783,-114 783,-84 642,-84"/>
<text text-anchor="start" x="650" y="-102" font-family="Helvetica,sans-Serif" font-size="10.00">components/search_engines</text>
<text text-anchor="middle" x="712.5" y="-91" font-family="Helvetica,sans-Serif" font-size="10.00">/template_url.h</text>
</a>
</g>
</g>
<!-- Node7&#45;&gt;Node28 -->
<g id="edge40" class="edge">
<title>Node7&#45;&gt;Node28</title>
<path fill="none" stroke="midnightblue" d="M1284.32,-172.83C1183.54,-166.72 970.24,-151.1 792.5,-120 786.39,-118.93 780.06,-117.65 773.76,-116.26"/>
<polygon fill="midnightblue" stroke="midnightblue" points="774.44,-112.83 763.91,-114.01 772.87,-119.65 774.44,-112.83"/>
</g>
<!-- Node29 -->
<g id="node29" class="node">
<title>Node29</title>
<g id="a_node29"><a xlink:title=" ">
<polygon fill="white" stroke="#bfbfbf" points="801.5,-84 801.5,-114 929.5,-114 929.5,-84 801.5,-84"/>
<text text-anchor="start" x="809.5" y="-102" font-family="Helvetica,sans-Serif" font-size="10.00">components/url_formatter</text>
<text text-anchor="middle" x="865.5" y="-91" font-family="Helvetica,sans-Serif" font-size="10.00">/url_formatter.h</text>
</a>
</g>
</g>
<!-- Node7&#45;&gt;Node29 -->
<g id="edge41" class="edge">
<title>Node7&#45;&gt;Node29</title>
<path fill="none" stroke="midnightblue" d="M1284.38,-170.25C1205.71,-161.93 1061.15,-144.79 939.5,-120 934.41,-118.96 929.16,-117.78 923.91,-116.52"/>
<polygon fill="midnightblue" stroke="midnightblue" points="924.4,-113.03 913.85,-114.01 922.71,-119.82 924.4,-113.03"/>
</g>
<!-- Node30 -->
<g id="node30" class="node">
<title>Node30</title>
<g id="a_node30"><a xlink:title=" ">
<polygon fill="white" stroke="#bfbfbf" points="948,-84 948,-114 1065,-114 1065,-84 948,-84"/>
<text text-anchor="start" x="956" y="-102" font-family="Helvetica,sans-Serif" font-size="10.00">ui/base/page_transition</text>
<text text-anchor="middle" x="1006.5" y="-91" font-family="Helvetica,sans-Serif" font-size="10.00">_types.h</text>
</a>
</g>
</g>
<!-- Node7&#45;&gt;Node30 -->
<g id="edge42" class="edge">
<title>Node7&#45;&gt;Node30</title>
<path fill="none" stroke="midnightblue" d="M1284.43,-165.26C1229.94,-154.85 1146.3,-138.03 1074.5,-120 1070.47,-118.99 1066.32,-117.9 1062.16,-116.76"/>
<polygon fill="midnightblue" stroke="midnightblue" points="1063.02,-113.37 1052.45,-114.06 1061.15,-120.11 1063.02,-113.37"/>
</g>
<!-- Node31 -->
<g id="node31" class="node">
<title>Node31</title>
<g id="a_node31"><a xlink:title=" ">
<polygon fill="white" stroke="#bfbfbf" points="1083,-89.5 1083,-108.5 1186,-108.5 1186,-89.5 1083,-89.5"/>
<text text-anchor="middle" x="1134.5" y="-96.5" font-family="Helvetica,sans-Serif" font-size="10.00">ui/gfx/range/range.h</text>
</a>
</g>
</g>
<!-- Node7&#45;&gt;Node31 -->
<g id="edge43" class="edge">
<title>Node7&#45;&gt;Node31</title>
<path fill="none" stroke="midnightblue" d="M1288.93,-156.43C1250.54,-142.4 1200.04,-123.95 1167.42,-112.03"/>
<polygon fill="midnightblue" stroke="midnightblue" points="1168.5,-108.7 1157.91,-108.55 1166.1,-115.27 1168.5,-108.7"/>
</g>
<!-- Node16&#45;&gt;Node3 -->
<g id="edge19" class="edge">
<title>Node16&#45;&gt;Node3</title>
<path fill="none" stroke="midnightblue" d="M1462.4,-85.55C1447.19,-82.67 1430.78,-79.9 1415.5,-78 1059.96,-33.73 624.25,-24.22 506.21,-22.4"/>
<polygon fill="midnightblue" stroke="midnightblue" points="506.15,-18.89 496.1,-22.25 506.04,-25.89 506.15,-18.89"/>
</g>
<!-- Node16&#45;&gt;Node8 -->
<g id="edge18" class="edge">
<title>Node16&#45;&gt;Node8</title>
<path fill="none" stroke="midnightblue" d="M1578.79,-79.83C1581.72,-79.16 1584.64,-78.54 1587.5,-78 1772.87,-42.83 1830.36,-98.12 2010.5,-42 2015.34,-40.49 2020.24,-38.24 2024.79,-35.78"/>
<polygon fill="midnightblue" stroke="midnightblue" points="2026.66,-38.73 2033.47,-30.62 2023.09,-32.72 2026.66,-38.73"/>
</g>
<!-- Node16&#45;&gt;Node11 -->
<g id="edge20" class="edge">
<title>Node16&#45;&gt;Node11</title>
<path fill="none" stroke="midnightblue" d="M1462.46,-86.92C1447.19,-84.02 1430.72,-80.88 1415.5,-78 1330.63,-61.92 1304.73,-74.01 1224.5,-42 1220.6,-40.44 1216.66,-38.37 1212.96,-36.15"/>
<polygon fill="midnightblue" stroke="midnightblue" points="1214.69,-33.1 1204.41,-30.52 1210.84,-38.94 1214.69,-33.1"/>
</g>
<!-- Node17 -->
<g id="node17" class="node">
<title>Node17</title>
<g id="a_node17"><a xlink:title=" ">
<polygon fill="white" stroke="#bfbfbf" points="1860,-6 1860,-36 2001,-36 2001,-6 1860,-6"/>
<text text-anchor="start" x="1868" y="-24" font-family="Helvetica,sans-Serif" font-size="10.00">components/search_engines</text>
<text text-anchor="middle" x="1930.5" y="-13" font-family="Helvetica,sans-Serif" font-size="10.00">/omnibox_focus_type.h</text>
</a>
</g>
</g>
<!-- Node16&#45;&gt;Node17 -->
<g id="edge21" class="edge">
<title>Node16&#45;&gt;Node17</title>
<path fill="none" stroke="midnightblue" d="M1578.83,-80.01C1581.75,-79.29 1584.65,-78.62 1587.5,-78 1702.81,-53.05 1734.66,-64.34 1850.5,-42 1856.17,-40.91 1862.05,-39.66 1867.91,-38.34"/>
<polygon fill="midnightblue" stroke="midnightblue" points="1868.8,-41.72 1877.75,-36.05 1867.22,-34.91 1868.8,-41.72"/>
</g>
<!-- Node18 -->
<g id="node18" class="node">
<title>Node18</title>
<g id="a_node18"><a xlink:title=" ">
<polygon fill="white" stroke="#bfbfbf" points="1305.5,-6 1305.5,-36 1433.5,-36 1433.5,-6 1305.5,-6"/>
<text text-anchor="start" x="1313.5" y="-24" font-family="Helvetica,sans-Serif" font-size="10.00">third_party/abseil</text>
<text text-anchor="middle" x="1369.5" y="-13" font-family="Helvetica,sans-Serif" font-size="10.00">&#45;cpp/absl/types/optional.h</text>
</a>
</g>
</g>
<!-- Node16&#45;&gt;Node18 -->
<g id="edge22" class="edge">
<title>Node16&#45;&gt;Node18</title>
<path fill="none" stroke="midnightblue" d="M1481.61,-78.43C1458.57,-66.83 1429.53,-52.21 1406.78,-40.76"/>
<polygon fill="midnightblue" stroke="midnightblue" points="1408.27,-37.59 1397.76,-36.23 1405.12,-43.85 1408.27,-37.59"/>
</g>
<!-- Node19 -->
<g id="node19" class="node">
<title>Node19</title>
<g id="a_node19"><a xlink:title=" ">
<polygon fill="white" stroke="#bfbfbf" points="1451.5,-6 1451.5,-36 1585.5,-36 1585.5,-6 1451.5,-6"/>
<text text-anchor="start" x="1459.5" y="-24" font-family="Helvetica,sans-Serif" font-size="10.00">third_party/metrics</text>
<text text-anchor="middle" x="1518.5" y="-13" font-family="Helvetica,sans-Serif" font-size="10.00">_proto/omnibox_event.pb.h</text>
</a>
</g>
</g>
<!-- Node16&#45;&gt;Node19 -->
<g id="edge23" class="edge">
<title>Node16&#45;&gt;Node19</title>
<path fill="none" stroke="midnightblue" d="M1519.98,-78.43C1519.73,-68.64 1519.41,-56.69 1519.14,-46.31"/>
<polygon fill="midnightblue" stroke="midnightblue" points="1522.64,-46.13 1518.87,-36.23 1515.64,-46.31 1522.64,-46.13"/>
</g>
<!-- Node20 -->
<g id="node20" class="node">
<title>Node20</title>
<g id="a_node20"><a xlink:title=" ">
<polygon fill="white" stroke="#bfbfbf" points="1603.5,-0.5 1603.5,-41.5 1713.5,-41.5 1713.5,-0.5 1603.5,-0.5"/>
<text text-anchor="start" x="1611.5" y="-29.5" font-family="Helvetica,sans-Serif" font-size="10.00">third_party/metrics</text>
<text text-anchor="start" x="1611.5" y="-18.5" font-family="Helvetica,sans-Serif" font-size="10.00">_proto/omnibox_input</text>
<text text-anchor="middle" x="1658.5" y="-7.5" font-family="Helvetica,sans-Serif" font-size="10.00">_type.pb.h</text>
</a>
</g>
</g>
<!-- Node16&#45;&gt;Node20 -->
<g id="edge24" class="edge">
<title>Node16&#45;&gt;Node20</title>
<path fill="none" stroke="midnightblue" d="M1556.04,-78.43C1573.74,-68.68 1595.33,-56.79 1614.11,-46.44"/>
<polygon fill="midnightblue" stroke="midnightblue" points="1616.01,-49.4 1623.08,-41.51 1612.63,-43.26 1616.01,-49.4"/>
</g>
<!-- Node16&#45;&gt;Node21 -->
<g id="edge25" class="edge">
<title>Node16&#45;&gt;Node21</title>
<path fill="none" stroke="midnightblue" d="M1462.39,-81.65C1457.7,-80.4 1453.02,-79.16 1448.5,-78 1381.26,-60.71 1361.23,-67.09 1296.5,-42 1291.83,-40.19 1287.02,-37.87 1282.49,-35.46"/>
<polygon fill="midnightblue" stroke="midnightblue" points="1284.17,-32.39 1273.75,-30.51 1280.73,-38.48 1284.17,-32.39"/>
</g>
<!-- Node22 -->
<g id="node22" class="node">
<title>Node22</title>
<g id="a_node22"><a xlink:title=" ">
<polygon fill="white" stroke="#bfbfbf" points="1731.5,-6 1731.5,-36 1841.5,-36 1841.5,-6 1731.5,-6"/>
<text text-anchor="start" x="1739.5" y="-24" font-family="Helvetica,sans-Serif" font-size="10.00">url/third_party/mozilla</text>
<text text-anchor="middle" x="1786.5" y="-13" font-family="Helvetica,sans-Serif" font-size="10.00">/url_parse.h</text>
</a>
</g>
</g>
<!-- Node16&#45;&gt;Node22 -->
<g id="edge26" class="edge">
<title>Node16&#45;&gt;Node22</title>
<path fill="none" stroke="midnightblue" d="M1578.57,-80.55C1581.59,-79.68 1584.58,-78.83 1587.5,-78 1647.26,-61.12 1662.85,-59.26 1722.5,-42 1725.84,-41.03 1729.28,-40.02 1732.74,-38.98"/>
<polygon fill="midnightblue" stroke="midnightblue" points="1733.95,-42.27 1742.51,-36.02 1731.92,-35.57 1733.95,-42.27"/>
</g>
<!-- Node23&#45;&gt;Node3 -->
<g id="edge28" class="edge">
<title>Node23&#45;&gt;Node3</title>
<path fill="none" stroke="midnightblue" d="M316.61,-78.43C357.57,-63.88 411.93,-44.58 445.27,-32.74"/>
<polygon fill="midnightblue" stroke="midnightblue" points="446.65,-35.96 454.91,-29.31 444.31,-29.36 446.65,-35.96"/>
</g>
<!-- Node25&#45;&gt;Node2 -->
<g id="edge31" class="edge">
<title>Node25&#45;&gt;Node2</title>
<path fill="none" stroke="midnightblue" d="M1314.6,-85.81C1330.03,-82.8 1346.86,-79.9 1362.5,-78 1521.09,-58.73 1927.17,-86.86 2080.5,-42 2085.45,-40.55 2090.44,-38.28 2095.05,-35.79"/>
<polygon fill="midnightblue" stroke="midnightblue" points="2097.05,-38.67 2103.82,-30.53 2093.45,-32.67 2097.05,-38.67"/>
</g>
<!-- Node25&#45;&gt;Node3 -->
<g id="edge32" class="edge">
<title>Node25&#45;&gt;Node3</title>
<path fill="none" stroke="midnightblue" d="M1204.19,-79.88C1201.27,-79.18 1198.36,-78.55 1195.5,-78 932.09,-27.27 606.06,-22.22 506.07,-21.93"/>
<polygon fill="midnightblue" stroke="midnightblue" points="506.06,-18.43 496.05,-21.92 506.05,-25.43 506.06,-18.43"/>
</g>
<!-- Node25&#45;&gt;Node4 -->
<g id="edge34" class="edge">
<title>Node25&#45;&gt;Node4</title>
<path fill="none" stroke="midnightblue" d="M1204.22,-79.74C1201.29,-79.08 1198.37,-78.49 1195.5,-78 790.51,-8.1 681.59,-69.04 271.5,-42 221.74,-38.72 165.64,-33.45 123.22,-29.14"/>
<polygon fill="midnightblue" stroke="midnightblue" points="123.32,-25.63 113.02,-28.1 122.61,-32.6 123.32,-25.63"/>
</g>
<!-- Node25&#45;&gt;Node5 -->
<g id="edge35" class="edge">
<title>Node25&#45;&gt;Node5</title>
<path fill="none" stroke="midnightblue" d="M1204.21,-79.78C1201.28,-79.11 1198.37,-78.51 1195.5,-78 866.9,-19.76 777.42,-76.62 445.5,-42 421.24,-39.47 394.5,-35.33 372.09,-31.47"/>
<polygon fill="midnightblue" stroke="midnightblue" points="372.57,-28.01 362.12,-29.73 371.36,-34.9 372.57,-28.01"/>
</g>
<!-- Node25&#45;&gt;Node11 -->
<g id="edge33" class="edge">
<title>Node25&#45;&gt;Node11</title>
<path fill="none" stroke="midnightblue" d="M1242.5,-78.43C1231.68,-65.97 1217.84,-50.03 1207.63,-38.27"/>
<polygon fill="midnightblue" stroke="midnightblue" points="1210.13,-35.81 1200.93,-30.55 1204.84,-40.4 1210.13,-35.81"/>
</g>
<!-- Node25&#45;&gt;Node18 -->
<g id="edge37" class="edge">
<title>Node25&#45;&gt;Node18</title>
<path fill="none" stroke="midnightblue" d="M1287.83,-78.43C1303.94,-67.3 1324.08,-53.38 1340.33,-42.15"/>
<polygon fill="midnightblue" stroke="midnightblue" points="1342.67,-44.79 1348.91,-36.23 1338.69,-39.03 1342.67,-44.79"/>
</g>
<!-- Node25&#45;&gt;Node21 -->
<g id="edge38" class="edge">
<title>Node25&#45;&gt;Node21</title>
<path fill="none" stroke="midnightblue" d="M1259.76,-78.43C1259.91,-66.82 1260.1,-52.18 1260.25,-40.72"/>
<polygon fill="midnightblue" stroke="midnightblue" points="1263.76,-40.6 1260.39,-30.55 1256.76,-40.51 1263.76,-40.6"/>
</g>
<!-- Node26 -->
<g id="node26" class="node">
<title>Node26</title>
<g id="a_node26"><a xlink:title=" ">
<polygon fill="white" stroke="#bfbfbf" points="1037.5,-11.5 1037.5,-30.5 1153.5,-30.5 1153.5,-11.5 1037.5,-11.5"/>
<text text-anchor="middle" x="1095.5" y="-18.5" font-family="Helvetica,sans-Serif" font-size="10.00">base/memory/ptr_util.h</text>
</a>
</g>
</g>
<!-- Node25&#45;&gt;Node26 -->
<g id="edge36" class="edge">
<title>Node25&#45;&gt;Node26</title>
<path fill="none" stroke="midnightblue" d="M1217.27,-78.43C1187.64,-64.7 1148.89,-46.74 1123.14,-34.81"/>
<polygon fill="midnightblue" stroke="midnightblue" points="1124.5,-31.58 1113.95,-30.55 1121.56,-37.93 1124.5,-31.58"/>
</g>
</g>
</svg>
        <g id="navigator" transform="translate(0 0)" fill="#404254">
                <rect fill="#f2f5e9" fill-opacity="0.5" stroke="#606060" stroke-width=".5" x="0" y="0" width="60" height="60"/>
                <use id="zoomplus" xlink:href="#zoomPlus" x="17" y="9" onmousedown="handleZoom(evt,'in')"/>
                <use id="zoomminus" xlink:href="#zoomMin" x="42" y="9" onmousedown="handleZoom(evt,'out')"/>
                <use id="reset" xlink:href="#resetDef" x="30" y="36" onmousedown="handleReset()"/>
                <g id="arrowUp" xlink:href="#dirArrow" transform="translate(30 24)" onmousedown="handlePan(0,-1)">
                  <use xlink:href="#rim" fill="#404040">
                        <set attributeName="fill" to="#808080" begin="arrowUp.mouseover" end="arrowUp.mouseout"/>
                  </use>
                  <path fill="none" stroke="white" stroke-width="1.5" d="M0,-3.0v7 M-2.5,-0.5L0,-3.0L2.5,-0.5"/>
                </g>
                <g id="arrowRight" xlink:href="#dirArrow" transform="rotate(90) translate(36 -43)" onmousedown="handlePan(1,0)">
                  <use xlink:href="#rim" fill="#404040">
                        <set attributeName="fill" to="#808080" begin="arrowRight.mouseover" end="arrowRight.mouseout"/>
                  </use>
                  <path fill="none" stroke="white" stroke-width="1.5" d="M0,-3.0v7 M-2.5,-0.5L0,-3.0L2.5,-0.5"/>
                </g>
                <g id="arrowDown" xlink:href="#dirArrow" transform="rotate(180) translate(-30 -48)" onmousedown="handlePan(0,1)">
                  <use xlink:href="#rim" fill="#404040">
                        <set attributeName="fill" to="#808080" begin="arrowDown.mouseover" end="arrowDown.mouseout"/>
                  </use>
                  <path fill="none" stroke="white" stroke-width="1.5" d="M0,-3.0v7 M-2.5,-0.5L0,-3.0L2.5,-0.5"/>
                </g>
                <g id="arrowLeft" xlink:href="#dirArrow" transform="rotate(270) translate(-36 17)" onmousedown="handlePan(-1,0)">
                  <use xlink:href="#rim" fill="#404040">
                        <set attributeName="fill" to="#808080" begin="arrowLeft.mouseover" end="arrowLeft.mouseout"/>
                  </use>
                  <path fill="none" stroke="white" stroke-width="1.5" d="M0,-3.0v7 M-2.5,-0.5L0,-3.0L2.5,-0.5"/>
                </g>
        </g>
        <svg viewBox="0 0 15 15" width="100%" height="30px" preserveAspectRatio="xMaxYMin meet">
         <g id="arrow_out" transform="scale(0.3 0.3)">
          <a xlink:href="chrome__omnibox__navigation__observer_8h__incl_org.svg" target="_base">
           <rect id="button" ry="5" rx="5" y="6" x="6" height="38" width="38"
                fill="#f2f5e9" fill-opacity="0.5" stroke="#606060" stroke-width="1.0"/>
           <path id="arrow"
             d="M 11.500037,31.436501 C 11.940474,20.09759 22.043105,11.32322 32.158766,21.979434 L 37.068811,17.246167 C 37.068811,17.246167 37.088388,32 37.088388,32 L 22.160133,31.978069 C 22.160133,31.978069 26.997745,27.140456 26.997745,27.140456 C 18.528582,18.264221 13.291696,25.230495 11.500037,31.436501 z"
             style="fill:#404040;"/>
          </a>
         </g>
        </svg>
</svg>
