<?xml version="1.0" encoding="UTF-8" standalone="no"?>
<!DOCTYPE svg PUBLIC "-//W3C//DTD SVG 1.1//EN"
 "http://www.w3.org/Graphics/SVG/1.1/DTD/svg11.dtd">
<!-- Generated by graphviz version 2.43.0 (0)
 -->
<!-- Title: KeywordProvider::ExtractKeywordFromInput Pages: 1 -->
<svg width="327pt" height="165pt"
 viewBox="0.00 0.00 327.00 164.50" xmlns="http://www.w3.org/2000/svg" xmlns:xlink="http://www.w3.org/1999/xlink">
<g id="graph0" class="graph" transform="scale(1 1) rotate(0) translate(4 160.5)">
<title>KeywordProvider::ExtractKeywordFromInput</title>
<polygon fill="white" stroke="transparent" points="-4,4 -4,-160.5 323,-160.5 323,4 -4,4"/>
<!-- Node1 -->
<g id="node1" class="node">
<title>Node1</title>
<g id="a_node1"><a xlink:title=" ">
<polygon fill="#bfbfbf" stroke="black" points="0,-55 0,-85 128,-85 128,-55 0,-55"/>
<text text-anchor="start" x="8" y="-73" font-family="Helvetica,sans-Serif" font-size="10.00">KeywordProvider::Extract</text>
<text text-anchor="middle" x="64" y="-62" font-family="Helvetica,sans-Serif" font-size="10.00">KeywordFromInput</text>
</a>
</g>
</g>
<!-- Node2 -->
<g id="node2" class="node">
<title>Node2</title>
<g id="a_node2"><a xlink:href="../../d1/db8/classKeywordProvider.html#a9d6d079666dc798ac0d65109ec67b55d" target="_top" xlink:title=" ">
<polygon fill="white" stroke="black" points="170,-126 170,-156 313,-156 313,-126 170,-126"/>
<text text-anchor="start" x="178" y="-144" font-family="Helvetica,sans-Serif" font-size="10.00">KeywordProvider::CleanUser</text>
<text text-anchor="middle" x="241.5" y="-133" font-family="Helvetica,sans-Serif" font-size="10.00">InputKeyword</text>
</a>
</g>
</g>
<!-- Node1&#45;&gt;Node2 -->
<g id="edge1" class="edge">
<title>Node1&#45;&gt;Node2</title>
<path fill="none" stroke="midnightblue" d="M93.99,-85.07C113.47,-94.88 139.91,-107.56 164,-117 169.02,-118.97 174.28,-120.89 179.58,-122.74"/>
<polygon fill="midnightblue" stroke="midnightblue" points="178.54,-126.08 189.13,-125.97 180.78,-119.45 178.54,-126.08"/>
</g>
<!-- Node3 -->
<g id="node3" class="node">
<title>Node3</title>
<g id="a_node3"><a xlink:href="../../d1/db8/classKeywordProvider.html#a1e195adf7944e951b8f72f4cc1104662" target="_top" xlink:title=" ">
<polygon fill="white" stroke="black" points="164,-77 164,-107 319,-107 319,-77 164,-77"/>
<text text-anchor="start" x="172" y="-95" font-family="Helvetica,sans-Serif" font-size="10.00">KeywordProvider::SplitKeyword</text>
<text text-anchor="middle" x="241.5" y="-84" font-family="Helvetica,sans-Serif" font-size="10.00">FromInput</text>
</a>
</g>
</g>
<!-- Node1&#45;&gt;Node3 -->
<g id="edge2" class="edge">
<title>Node1&#45;&gt;Node3</title>
<path fill="none" stroke="midnightblue" d="M128.36,-77.94C136.62,-78.98 145.19,-80.05 153.74,-81.12"/>
<polygon fill="midnightblue" stroke="midnightblue" points="153.4,-84.61 163.76,-82.38 154.28,-77.66 153.4,-84.61"/>
</g>
<!-- Node4 -->
<g id="node4" class="node">
<title>Node4</title>
<g id="a_node4"><a xlink:href="../../d9/df6/classAutocompleteInput.html#ac055dacf90a052c92e2bfe5c01328a95" target="_top" xlink:title=" ">
<polygon fill="white" stroke="black" points="181,-38.5 181,-57.5 302,-57.5 302,-38.5 181,-38.5"/>
<text text-anchor="middle" x="241.5" y="-45.5" font-family="Helvetica,sans-Serif" font-size="10.00">AutocompleteInput::text</text>
</a>
</g>
</g>
<!-- Node1&#45;&gt;Node4 -->
<g id="edge3" class="edge">
<title>Node1&#45;&gt;Node4</title>
<path fill="none" stroke="midnightblue" d="M128.36,-62.06C142.11,-60.33 156.72,-58.5 170.7,-56.75"/>
<polygon fill="midnightblue" stroke="midnightblue" points="171.26,-60.21 180.75,-55.49 170.39,-53.26 171.26,-60.21"/>
</g>
<!-- Node5 -->
<g id="node5" class="node">
<title>Node5</title>
<g id="a_node5"><a xlink:href="../../d9/df6/classAutocompleteInput.html#a5d6111d5ac18400cdf809820dfab9ab0" target="_top" xlink:title=" ">
<polygon fill="white" stroke="black" points="180,-0.5 180,-19.5 303,-19.5 303,-0.5 180,-0.5"/>
<text text-anchor="middle" x="241.5" y="-7.5" font-family="Helvetica,sans-Serif" font-size="10.00">AutocompleteInput::type</text>
</a>
</g>
</g>
<!-- Node1&#45;&gt;Node5 -->
<g id="edge4" class="edge">
<title>Node1&#45;&gt;Node5</title>
<path fill="none" stroke="midnightblue" d="M97.99,-54.89C117.02,-46.54 141.56,-36.39 164,-29 171.49,-26.53 179.49,-24.21 187.39,-22.1"/>
<polygon fill="midnightblue" stroke="midnightblue" points="188.49,-25.43 197.29,-19.54 186.73,-18.65 188.49,-25.43"/>
</g>
</g>
</svg>
