<?xml version="1.0" encoding="UTF-8" standalone="no"?>
<!DOCTYPE svg PUBLIC "-//W3C//DTD SVG 1.1//EN"
 "http://www.w3.org/Graphics/SVG/1.1/DTD/svg11.dtd">
<!-- Generated by graphviz version 2.43.0 (0)
 -->
<!-- Title: KeywordProvider::GetKeywordForText Pages: 1 -->
<svg width="353pt" height="235pt"
 viewBox="0.00 0.00 353.00 235.00" xmlns="http://www.w3.org/2000/svg" xmlns:xlink="http://www.w3.org/1999/xlink">
<g id="graph0" class="graph" transform="scale(1 1) rotate(0) translate(4 231)">
<title>KeywordProvider::GetKeywordForText</title>
<polygon fill="white" stroke="transparent" points="-4,4 -4,-231 349,-231 349,4 -4,4"/>
<!-- Node1 -->
<g id="node1" class="node">
<title>Node1</title>
<g id="a_node1"><a xlink:title=" ">
<polygon fill="#bfbfbf" stroke="black" points="0,-98.5 0,-128.5 151,-128.5 151,-98.5 0,-98.5"/>
<text text-anchor="start" x="8" y="-116.5" font-family="Helvetica,sans-Serif" font-size="10.00">KeywordProvider::GetKeyword</text>
<text text-anchor="middle" x="75.5" y="-105.5" font-family="Helvetica,sans-Serif" font-size="10.00">ForText</text>
</a>
</g>
</g>
<!-- Node2 -->
<g id="node2" class="node">
<title>Node2</title>
<g id="a_node2"><a xlink:href="../../d1/db8/classKeywordProvider.html#a9d6d079666dc798ac0d65109ec67b55d" target="_top" xlink:title=" ">
<polygon fill="white" stroke="black" points="194.5,-196.5 194.5,-226.5 337.5,-226.5 337.5,-196.5 194.5,-196.5"/>
<text text-anchor="start" x="202.5" y="-214.5" font-family="Helvetica,sans-Serif" font-size="10.00">KeywordProvider::CleanUser</text>
<text text-anchor="middle" x="266" y="-203.5" font-family="Helvetica,sans-Serif" font-size="10.00">InputKeyword</text>
</a>
</g>
</g>
<!-- Node1&#45;&gt;Node2 -->
<g id="edge1" class="edge">
<title>Node1&#45;&gt;Node2</title>
<path fill="none" stroke="midnightblue" d="M95.42,-128.7C116.64,-145.12 152.6,-171.13 187,-187.5 190.99,-189.4 195.17,-191.2 199.43,-192.88"/>
<polygon fill="midnightblue" stroke="midnightblue" points="198.26,-196.18 208.85,-196.4 200.71,-189.62 198.26,-196.18"/>
</g>
<!-- Node3 -->
<g id="node3" class="node">
<title>Node3</title>
<g id="a_node3"><a xlink:href="../../d1/db8/classKeywordProvider.html#ab3acf2aa7823d57b3ae80b15334f2e8b" target="_top" xlink:title=" ">
<polygon fill="white" stroke="black" points="190,-147.5 190,-177.5 342,-177.5 342,-147.5 190,-147.5"/>
<text text-anchor="start" x="198" y="-165.5" font-family="Helvetica,sans-Serif" font-size="10.00">KeywordProvider::GetTemplate</text>
<text text-anchor="middle" x="266" y="-154.5" font-family="Helvetica,sans-Serif" font-size="10.00">URLService</text>
</a>
</g>
</g>
<!-- Node1&#45;&gt;Node3 -->
<g id="edge2" class="edge">
<title>Node1&#45;&gt;Node3</title>
<path fill="none" stroke="midnightblue" d="M134.34,-128.53C154.24,-133.71 176.7,-139.55 197.32,-144.91"/>
<polygon fill="midnightblue" stroke="midnightblue" points="196.71,-148.37 207.27,-147.49 198.47,-141.59 196.71,-148.37"/>
</g>
<!-- Node4 -->
<g id="node4" class="node">
<title>Node4</title>
<g id="a_node4"><a xlink:href="../../d1/d73/namespaceOmniboxFieldTrial.html#afc8cff7bab07c4db9b2836b94ed11f90" target="_top" xlink:title=" ">
<polygon fill="white" stroke="black" points="189,-98.5 189,-128.5 343,-128.5 343,-98.5 189,-98.5"/>
<text text-anchor="start" x="197" y="-116.5" font-family="Helvetica,sans-Serif" font-size="10.00">OmniboxFieldTrial::</text>
<text text-anchor="middle" x="266" y="-105.5" font-family="Helvetica,sans-Serif" font-size="10.00">IsActiveSearchEnginesEnabled</text>
</a>
</g>
</g>
<!-- Node1&#45;&gt;Node4 -->
<g id="edge3" class="edge">
<title>Node1&#45;&gt;Node4</title>
<path fill="none" stroke="midnightblue" d="M151,-113.5C160.14,-113.5 169.55,-113.5 178.85,-113.5"/>
<polygon fill="midnightblue" stroke="midnightblue" points="178.88,-117 188.88,-113.5 178.88,-110 178.88,-117"/>
</g>
<!-- Node5 -->
<g id="node5" class="node">
<title>Node5</title>
<g id="a_node5"><a xlink:href="../../d1/d73/namespaceOmniboxFieldTrial.html#a5946bfcba47abaa751ad85c5fa022f86" target="_top" xlink:title=" ">
<polygon fill="white" stroke="black" points="187,-49.5 187,-79.5 345,-79.5 345,-49.5 187,-49.5"/>
<text text-anchor="start" x="195" y="-67.5" font-family="Helvetica,sans-Serif" font-size="10.00">OmniboxFieldTrial::</text>
<text text-anchor="middle" x="266" y="-56.5" font-family="Helvetica,sans-Serif" font-size="10.00">IsKeywordSearchButtonEnabled</text>
</a>
</g>
</g>
<!-- Node1&#45;&gt;Node5 -->
<g id="edge4" class="edge">
<title>Node1&#45;&gt;Node5</title>
<path fill="none" stroke="midnightblue" d="M134.34,-98.47C154.24,-93.29 176.7,-87.45 197.32,-82.09"/>
<polygon fill="midnightblue" stroke="midnightblue" points="198.47,-85.41 207.27,-79.51 196.71,-78.63 198.47,-85.41"/>
</g>
<!-- Node6 -->
<g id="node6" class="node">
<title>Node6</title>
<g id="a_node6"><a xlink:href="../../d1/db8/classKeywordProvider.html#a1e195adf7944e951b8f72f4cc1104662" target="_top" xlink:title=" ">
<polygon fill="white" stroke="black" points="188.5,-0.5 188.5,-30.5 343.5,-30.5 343.5,-0.5 188.5,-0.5"/>
<text text-anchor="start" x="196.5" y="-18.5" font-family="Helvetica,sans-Serif" font-size="10.00">KeywordProvider::SplitKeyword</text>
<text text-anchor="middle" x="266" y="-7.5" font-family="Helvetica,sans-Serif" font-size="10.00">FromInput</text>
</a>
</g>
</g>
<!-- Node1&#45;&gt;Node6 -->
<g id="edge5" class="edge">
<title>Node1&#45;&gt;Node6</title>
<path fill="none" stroke="midnightblue" d="M95.88,-98.31C117.21,-82.17 153,-56.8 187,-40.5 191.69,-38.25 196.63,-36.14 201.65,-34.16"/>
<polygon fill="midnightblue" stroke="midnightblue" points="203.23,-37.31 211.38,-30.54 200.78,-30.75 203.23,-37.31"/>
</g>
</g>
</svg>
