<?xml version="1.0" encoding="UTF-8" standalone="no"?>
<!DOCTYPE svg PUBLIC "-//W3C//DTD SVG 1.1//EN"
 "http://www.w3.org/Graphics/SVG/1.1/DTD/svg11.dtd">
<!-- Generated by graphviz version 2.43.0 (0)
 -->
<!-- Title: KeywordProvider::GetTemplateURLService Pages: 1 -->
<svg width="2774pt" height="411pt"
 viewBox="0.00 0.00 2774.00 410.50" xmlns="http://www.w3.org/2000/svg" xmlns:xlink="http://www.w3.org/1999/xlink">
<g id="graph0" class="graph" transform="scale(1 1) rotate(0) translate(4 406.5)">
<title>KeywordProvider::GetTemplateURLService</title>
<polygon fill="white" stroke="transparent" points="-4,4 -4,-406.5 2770,-406.5 2770,4 -4,4"/>
<!-- Node1 -->
<g id="node1" class="node">
<title>Node1</title>
<g id="a_node1"><a xlink:title=" ">
<polygon fill="#bfbfbf" stroke="black" points="2614,-72 2614,-102 2766,-102 2766,-72 2614,-72"/>
<text text-anchor="start" x="2622" y="-90" font-family="Helvetica,sans-Serif" font-size="10.00">KeywordProvider::GetTemplate</text>
<text text-anchor="middle" x="2690" y="-79" font-family="Helvetica,sans-Serif" font-size="10.00">URLService</text>
</a>
</g>
</g>
<!-- Node2 -->
<g id="node2" class="node">
<title>Node2</title>
<g id="a_node2"><a xlink:href="../../d1/db8/classKeywordProvider.html#a12db8f734c31e699816617687b72cac9" target="_top" xlink:title=" ">
<polygon fill="white" stroke="black" points="2201,-94 2201,-124 2387,-124 2387,-94 2201,-94"/>
<text text-anchor="start" x="2209" y="-112" font-family="Helvetica,sans-Serif" font-size="10.00">KeywordProvider::CreateAutocomplete</text>
<text text-anchor="middle" x="2294" y="-101" font-family="Helvetica,sans-Serif" font-size="10.00">Match</text>
</a>
</g>
</g>
<!-- Node1&#45;&gt;Node2 -->
<g id="edge1" class="edge">
<title>Node1&#45;&gt;Node2</title>
<path fill="none" stroke="midnightblue" d="M2647.95,-67.88C2627.43,-59.35 2601.92,-50.28 2578,-46 2510.19,-33.88 2490.1,-30.38 2423,-46 2383.68,-55.15 2342.54,-78.19 2317.84,-93.72"/>
<polygon fill="midnightblue" stroke="midnightblue" points="2646.73,-71.16 2657.3,-71.87 2649.48,-64.73 2646.73,-71.16"/>
</g>
<!-- Node3 -->
<g id="node3" class="node">
<title>Node3</title>
<g id="a_node3"><a xlink:href="../../d1/db8/classKeywordProvider.html#ac68b1a52827cb127a581c7f11ca86e5f" target="_top" xlink:title=" ">
<polygon fill="white" stroke="black" points="2000,-94 2000,-124 2165,-124 2165,-94 2000,-94"/>
<text text-anchor="start" x="2008" y="-112" font-family="Helvetica,sans-Serif" font-size="10.00">KeywordProvider::CreateVerbatim</text>
<text text-anchor="middle" x="2082.5" y="-101" font-family="Helvetica,sans-Serif" font-size="10.00">Match</text>
</a>
</g>
</g>
<!-- Node1&#45;&gt;Node3 -->
<g id="edge37" class="edge">
<title>Node1&#45;&gt;Node3</title>
<path fill="none" stroke="midnightblue" d="M2657.71,-66.61C2636.24,-53.89 2606.58,-38.69 2578,-32 2408.59,7.67 2201.64,-61.84 2119.54,-93.99"/>
<polygon fill="midnightblue" stroke="midnightblue" points="2656.01,-69.68 2666.37,-71.88 2659.65,-63.7 2656.01,-69.68"/>
</g>
<!-- Node32 -->
<g id="node32" class="node">
<title>Node32</title>
<g id="a_node32"><a xlink:href="../../d1/db8/classKeywordProvider.html#a4183bbd1acdede7be76ddff870ab7589" target="_top" xlink:title=" ">
<polygon fill="white" stroke="black" points="2023.5,-143.5 2023.5,-162.5 2141.5,-162.5 2141.5,-143.5 2023.5,-143.5"/>
<text text-anchor="middle" x="2082.5" y="-150.5" font-family="Helvetica,sans-Serif" font-size="10.00">KeywordProvider::Start</text>
</a>
</g>
</g>
<!-- Node1&#45;&gt;Node32 -->
<g id="edge43" class="edge">
<title>Node1&#45;&gt;Node32</title>
<path fill="none" stroke="midnightblue" d="M2651.49,-106.44C2630.47,-116.32 2603.44,-127.4 2578,-133 2423.39,-167.03 2235.18,-162.44 2141.82,-157.19"/>
<polygon fill="midnightblue" stroke="midnightblue" points="2653.21,-109.49 2660.7,-102 2650.17,-103.19 2653.21,-109.49"/>
</g>
<!-- Node33 -->
<g id="node33" class="node">
<title>Node33</title>
<g id="a_node33"><a xlink:href="../../d1/db8/classKeywordProvider.html#aeb83a2b21cc92bcadfa8274a888943bc" target="_top" xlink:title=" ">
<polygon fill="white" stroke="black" points="2424.5,-55.5 2424.5,-74.5 2576.5,-74.5 2576.5,-55.5 2424.5,-55.5"/>
<text text-anchor="middle" x="2500.5" y="-62.5" font-family="Helvetica,sans-Serif" font-size="10.00">KeywordProvider::DeleteMatch</text>
</a>
</g>
</g>
<!-- Node1&#45;&gt;Node33 -->
<g id="edge38" class="edge">
<title>Node1&#45;&gt;Node33</title>
<path fill="none" stroke="midnightblue" d="M2603.71,-76.99C2594.7,-75.94 2585.58,-74.87 2576.7,-73.82"/>
<polygon fill="midnightblue" stroke="midnightblue" points="2603.48,-80.49 2613.82,-78.18 2604.29,-73.54 2603.48,-80.49"/>
</g>
<!-- Node34 -->
<g id="node34" class="node">
<title>Node34</title>
<g id="a_node34"><a xlink:href="../../d1/db8/classKeywordProvider.html#a28e9a206e3da3c6a34f2118e2e3a16c6" target="_top" xlink:title=" ">
<polygon fill="white" stroke="black" points="2423,-94 2423,-124 2578,-124 2578,-94 2423,-94"/>
<text text-anchor="start" x="2431" y="-112" font-family="Helvetica,sans-Serif" font-size="10.00">KeywordProvider::FillInURLAnd</text>
<text text-anchor="middle" x="2500.5" y="-101" font-family="Helvetica,sans-Serif" font-size="10.00">Contents</text>
</a>
</g>
</g>
<!-- Node1&#45;&gt;Node34 -->
<g id="edge39" class="edge">
<title>Node1&#45;&gt;Node34</title>
<path fill="none" stroke="midnightblue" d="M2603.85,-96.99C2595.31,-97.99 2586.68,-99.01 2578.23,-100"/>
<polygon fill="midnightblue" stroke="midnightblue" points="2604.29,-100.46 2613.82,-95.82 2603.48,-93.51 2604.29,-100.46"/>
</g>
<!-- Node35 -->
<g id="node35" class="node">
<title>Node35</title>
<g id="a_node35"><a xlink:href="../../d1/db8/classKeywordProvider.html#a170da131a0c72945572f574fbcdc2002" target="_top" xlink:title=" ">
<polygon fill="white" stroke="black" points="2218.5,-182 2218.5,-212 2369.5,-212 2369.5,-182 2218.5,-182"/>
<text text-anchor="start" x="2226.5" y="-200" font-family="Helvetica,sans-Serif" font-size="10.00">KeywordProvider::GetKeyword</text>
<text text-anchor="middle" x="2294" y="-189" font-family="Helvetica,sans-Serif" font-size="10.00">ForText</text>
</a>
</g>
</g>
<!-- Node1&#45;&gt;Node35 -->
<g id="edge41" class="edge">
<title>Node1&#45;&gt;Node35</title>
<path fill="none" stroke="midnightblue" d="M2666.21,-108.98C2645.14,-127.85 2612.04,-153.99 2578,-167 2510.62,-192.75 2428.05,-198.89 2369.53,-199.41"/>
<polygon fill="midnightblue" stroke="midnightblue" points="2668.66,-111.48 2673.67,-102.15 2663.93,-106.32 2668.66,-111.48"/>
</g>
<!-- Node2&#45;&gt;Node3 -->
<g id="edge2" class="edge">
<title>Node2&#45;&gt;Node3</title>
<path fill="none" stroke="midnightblue" d="M2190.76,-109C2182.19,-109 2173.59,-109 2165.2,-109"/>
<polygon fill="midnightblue" stroke="midnightblue" points="2190.81,-112.5 2200.81,-109 2190.81,-105.5 2190.81,-112.5"/>
</g>
<!-- Node2&#45;&gt;Node32 -->
<g id="edge36" class="edge">
<title>Node2&#45;&gt;Node32</title>
<path fill="none" stroke="midnightblue" d="M2211.65,-126.09C2183.5,-132 2152.98,-138.41 2128.79,-143.49"/>
<polygon fill="midnightblue" stroke="midnightblue" points="2212.42,-129.5 2221.49,-124.02 2210.98,-122.65 2212.42,-129.5"/>
</g>
<!-- Node4 -->
<g id="node4" class="node">
<title>Node4</title>
<g id="a_node4"><a xlink:href="../../df/d4d/classAutocompleteController.html#ae5d73904408b770b69e9d511aa47da36" target="_top" xlink:title=" ">
<polygon fill="white" stroke="black" points="1818,-135 1818,-165 1964,-165 1964,-135 1818,-135"/>
<text text-anchor="start" x="1826" y="-153" font-family="Helvetica,sans-Serif" font-size="10.00">AutocompleteController</text>
<text text-anchor="middle" x="1891" y="-142" font-family="Helvetica,sans-Serif" font-size="10.00">::UpdateAssociatedKeywords</text>
</a>
</g>
</g>
<!-- Node3&#45;&gt;Node4 -->
<g id="edge3" class="edge">
<title>Node3&#45;&gt;Node4</title>
<path fill="none" stroke="midnightblue" d="M2001.85,-126.23C1988.44,-129.13 1974.61,-132.13 1961.48,-134.97"/>
<polygon fill="midnightblue" stroke="midnightblue" points="2002.98,-129.57 2012.01,-124.03 2001.5,-122.73 2002.98,-129.57"/>
</g>
<!-- Node5 -->
<g id="node5" class="node">
<title>Node5</title>
<g id="a_node5"><a xlink:href="../../df/d4d/classAutocompleteController.html#a4bd8523f1764eb72920409795b1fb1df" target="_top" xlink:title=" ">
<polygon fill="white" stroke="black" points="1663,-135 1663,-165 1782,-165 1782,-135 1663,-135"/>
<text text-anchor="start" x="1671" y="-153" font-family="Helvetica,sans-Serif" font-size="10.00">AutocompleteController</text>
<text text-anchor="middle" x="1722.5" y="-142" font-family="Helvetica,sans-Serif" font-size="10.00">::UpdateResult</text>
</a>
</g>
</g>
<!-- Node4&#45;&gt;Node5 -->
<g id="edge4" class="edge">
<title>Node4&#45;&gt;Node5</title>
<path fill="none" stroke="midnightblue" d="M1807.8,-150C1799.14,-150 1790.47,-150 1782.15,-150"/>
<polygon fill="midnightblue" stroke="midnightblue" points="1807.94,-153.5 1817.94,-150 1807.94,-146.5 1807.94,-153.5"/>
</g>
<!-- Node6 -->
<g id="node6" class="node">
<title>Node6</title>
<g id="a_node6"><a xlink:href="../../df/d4d/classAutocompleteController.html#ae1f4a40a8daa8c804b265590ff4415be" target="_top" xlink:title=" ">
<polygon fill="white" stroke="black" points="1508,-135 1508,-165 1627,-165 1627,-135 1508,-135"/>
<text text-anchor="start" x="1516" y="-153" font-family="Helvetica,sans-Serif" font-size="10.00">AutocompleteController</text>
<text text-anchor="middle" x="1567.5" y="-142" font-family="Helvetica,sans-Serif" font-size="10.00">::ExpireCopiedEntries</text>
</a>
</g>
</g>
<!-- Node5&#45;&gt;Node6 -->
<g id="edge5" class="edge">
<title>Node5&#45;&gt;Node6</title>
<path fill="none" stroke="midnightblue" d="M1652.51,-150C1644.01,-150 1635.38,-150 1627.06,-150"/>
<polygon fill="midnightblue" stroke="midnightblue" points="1652.78,-153.5 1662.78,-150 1652.78,-146.5 1652.78,-153.5"/>
</g>
<!-- Node22 -->
<g id="node22" class="node">
<title>Node22</title>
<g id="a_node22"><a xlink:href="../../df/d4d/classAutocompleteController.html#a6be8d5d8847f9862da417998c4785989" target="_top" xlink:title=" ">
<polygon fill="white" stroke="black" points="1198,-91 1198,-121 1317,-121 1317,-91 1198,-91"/>
<text text-anchor="start" x="1206" y="-109" font-family="Helvetica,sans-Serif" font-size="10.00">AutocompleteController</text>
<text text-anchor="middle" x="1257.5" y="-98" font-family="Helvetica,sans-Serif" font-size="10.00">::Start</text>
</a>
</g>
</g>
<!-- Node5&#45;&gt;Node22 -->
<g id="edge35" class="edge">
<title>Node5&#45;&gt;Node22</title>
<path fill="none" stroke="midnightblue" d="M1662.68,-132.43C1650.95,-129.5 1638.66,-126.82 1627,-125 1518.61,-108.06 1390.34,-105.28 1317.28,-105.3"/>
<polygon fill="midnightblue" stroke="midnightblue" points="1661.82,-135.82 1672.37,-134.94 1663.57,-129.05 1661.82,-135.82"/>
</g>
<!-- Node31 -->
<g id="node31" class="node">
<title>Node31</title>
<g id="a_node31"><a xlink:href="../../df/d4d/classAutocompleteController.html#a0d07fa1825d1adba7b2491bc682f57c5" target="_top" xlink:title=" ">
<polygon fill="white" stroke="black" points="1508,-184 1508,-214 1627,-214 1627,-184 1508,-184"/>
<text text-anchor="start" x="1516" y="-202" font-family="Helvetica,sans-Serif" font-size="10.00">AutocompleteController</text>
<text text-anchor="middle" x="1567.5" y="-191" font-family="Helvetica,sans-Serif" font-size="10.00">::OnProviderUpdate</text>
</a>
</g>
</g>
<!-- Node5&#45;&gt;Node31 -->
<g id="edge33" class="edge">
<title>Node5&#45;&gt;Node31</title>
<path fill="none" stroke="midnightblue" d="M1664.49,-168.26C1648.35,-173.43 1630.97,-178.99 1615.5,-183.95"/>
<polygon fill="midnightblue" stroke="midnightblue" points="1665.89,-171.48 1674.35,-165.1 1663.76,-164.82 1665.89,-171.48"/>
</g>
<!-- Node7 -->
<g id="node7" class="node">
<title>Node7</title>
<g id="a_node7"><a xlink:href="../../df/d4d/classAutocompleteController.html#a94fe99a16d5617d48084d6bc68b77099" target="_top" xlink:title=" ">
<polygon fill="white" stroke="black" points="1353,-184 1353,-214 1472,-214 1472,-184 1353,-184"/>
<text text-anchor="start" x="1361" y="-202" font-family="Helvetica,sans-Serif" font-size="10.00">AutocompleteController</text>
<text text-anchor="middle" x="1412.5" y="-191" font-family="Helvetica,sans-Serif" font-size="10.00">::DeleteMatch</text>
</a>
</g>
</g>
<!-- Node6&#45;&gt;Node7 -->
<g id="edge6" class="edge">
<title>Node6&#45;&gt;Node7</title>
<path fill="none" stroke="midnightblue" d="M1509.49,-168.26C1493.35,-173.43 1475.97,-178.99 1460.5,-183.95"/>
<polygon fill="midnightblue" stroke="midnightblue" points="1510.89,-171.48 1519.35,-165.1 1508.76,-164.82 1510.89,-171.48"/>
</g>
<!-- Node21 -->
<g id="node21" class="node">
<title>Node21</title>
<g id="a_node21"><a xlink:href="../../df/d4d/classAutocompleteController.html#aeab74bbaa0a7179385e15263d2193cc4" target="_top" xlink:title=" ">
<polygon fill="white" stroke="black" points="1353,-135 1353,-165 1472,-165 1472,-135 1353,-135"/>
<text text-anchor="start" x="1361" y="-153" font-family="Helvetica,sans-Serif" font-size="10.00">AutocompleteController</text>
<text text-anchor="middle" x="1412.5" y="-142" font-family="Helvetica,sans-Serif" font-size="10.00">::StartExpireTimer</text>
</a>
</g>
</g>
<!-- Node6&#45;&gt;Node21 -->
<g id="edge23" class="edge">
<title>Node6&#45;&gt;Node21</title>
<path fill="none" stroke="midnightblue" d="M1497.51,-150C1489.01,-150 1480.38,-150 1472.06,-150"/>
<polygon fill="midnightblue" stroke="midnightblue" points="1497.78,-153.5 1507.78,-150 1497.78,-146.5 1497.78,-153.5"/>
</g>
<!-- Node8 -->
<g id="node8" class="node">
<title>Node8</title>
<g id="a_node8"><a xlink:href="../../d1/db1/classOmniboxPopupModel.html#aa11680c969b457fc53da3446feabf8a8" target="_top" xlink:title=" ">
<polygon fill="white" stroke="black" points="1199.5,-186 1199.5,-216 1315.5,-216 1315.5,-186 1199.5,-186"/>
<text text-anchor="start" x="1207.5" y="-204" font-family="Helvetica,sans-Serif" font-size="10.00">OmniboxPopupModel::</text>
<text text-anchor="middle" x="1257.5" y="-193" font-family="Helvetica,sans-Serif" font-size="10.00">TryDeletingLine</text>
</a>
</g>
</g>
<!-- Node7&#45;&gt;Node8 -->
<g id="edge7" class="edge">
<title>Node7&#45;&gt;Node8</title>
<path fill="none" stroke="midnightblue" d="M1342.64,-199.9C1333.58,-200.02 1324.38,-200.14 1315.55,-200.25"/>
<polygon fill="midnightblue" stroke="midnightblue" points="1342.83,-203.4 1352.78,-199.77 1342.74,-196.4 1342.83,-203.4"/>
</g>
<!-- Node9 -->
<g id="node9" class="node">
<title>Node9</title>
<g id="a_node9"><a xlink:href="../../d0/d94/classOmniboxViewViews.html#a5a64c1e16631c3301fb57307402784dc" target="_top" xlink:title=" ">
<polygon fill="white" stroke="black" points="830.5,-186 830.5,-216 971.5,-216 971.5,-186 830.5,-186"/>
<text text-anchor="start" x="838.5" y="-204" font-family="Helvetica,sans-Serif" font-size="10.00">OmniboxViewViews::Handle</text>
<text text-anchor="middle" x="901" y="-193" font-family="Helvetica,sans-Serif" font-size="10.00">KeyEvent</text>
</a>
</g>
</g>
<!-- Node8&#45;&gt;Node9 -->
<g id="edge8" class="edge">
<title>Node8&#45;&gt;Node9</title>
<path fill="none" stroke="midnightblue" d="M1189.04,-201C1126.79,-201 1034.73,-201 971.76,-201"/>
<polygon fill="midnightblue" stroke="midnightblue" points="1189.15,-204.5 1199.15,-201 1189.15,-197.5 1189.15,-204.5"/>
</g>
<!-- Node10 -->
<g id="node10" class="node">
<title>Node10</title>
<g id="a_node10"><a xlink:href="../../d1/db1/classOmniboxPopupModel.html#acf1ecd019bf8b90655bb4a6c3dd7f8b1" target="_top" xlink:title=" ">
<polygon fill="white" stroke="black" points="1031,-252 1031,-282 1147,-282 1147,-252 1031,-252"/>
<text text-anchor="start" x="1039" y="-270" font-family="Helvetica,sans-Serif" font-size="10.00">OmniboxPopupModel::</text>
<text text-anchor="middle" x="1089" y="-259" font-family="Helvetica,sans-Serif" font-size="10.00">TriggerSelectionAction</text>
</a>
</g>
</g>
<!-- Node8&#45;&gt;Node10 -->
<g id="edge9" class="edge">
<title>Node8&#45;&gt;Node10</title>
<path fill="none" stroke="midnightblue" d="M1208.78,-219.92C1183.15,-230.08 1151.99,-242.43 1128.02,-251.93"/>
<polygon fill="midnightblue" stroke="midnightblue" points="1210.3,-223.08 1218.3,-216.14 1207.72,-216.57 1210.3,-223.08"/>
</g>
<!-- Node10&#45;&gt;Node9 -->
<g id="edge17" class="edge">
<title>Node10&#45;&gt;Node9</title>
<path fill="none" stroke="midnightblue" d="M1035.82,-248.48C1006.98,-238.25 971.61,-225.7 944.47,-216.07"/>
<polygon fill="midnightblue" stroke="midnightblue" points="1034.73,-251.81 1045.33,-251.86 1037.07,-245.22 1034.73,-251.81"/>
</g>
<!-- Node11 -->
<g id="node11" class="node">
<title>Node11</title>
<g id="a_node11"><a xlink:href="../../d3/d4c/classOmniboxResultView.html#a7bd0ac4077f48f8cc13698e19ed36eb6" target="_top" xlink:title=" ">
<polygon fill="white" stroke="black" points="628.5,-225 628.5,-255 740.5,-255 740.5,-225 628.5,-225"/>
<text text-anchor="start" x="636.5" y="-243" font-family="Helvetica,sans-Serif" font-size="10.00">OmniboxResultView::</text>
<text text-anchor="middle" x="684.5" y="-232" font-family="Helvetica,sans-Serif" font-size="10.00">ButtonPressed</text>
</a>
</g>
</g>
<!-- Node10&#45;&gt;Node11 -->
<g id="edge10" class="edge">
<title>Node10&#45;&gt;Node11</title>
<path fill="none" stroke="midnightblue" d="M1020.48,-262.47C941.85,-257.2 813.48,-248.59 740.61,-243.7"/>
<polygon fill="midnightblue" stroke="midnightblue" points="1020.55,-265.98 1030.76,-263.16 1021.02,-259 1020.55,-265.98"/>
</g>
<!-- Node15 -->
<g id="node15" class="node">
<title>Node15</title>
<g id="a_node15"><a xlink:href="../../d3/d0a/classOmniboxSuggestionButtonRowView.html#a35216a3671475e4ee13507b0465d5eb8" target="_top" xlink:title=" ">
<polygon fill="white" stroke="black" points="824.5,-274 824.5,-304 977.5,-304 977.5,-274 824.5,-274"/>
<text text-anchor="start" x="832.5" y="-292" font-family="Helvetica,sans-Serif" font-size="10.00">OmniboxSuggestionButtonRow</text>
<text text-anchor="middle" x="901" y="-281" font-family="Helvetica,sans-Serif" font-size="10.00">View::ButtonPressed</text>
</a>
</g>
</g>
<!-- Node10&#45;&gt;Node15 -->
<g id="edge14" class="edge">
<title>Node10&#45;&gt;Node15</title>
<path fill="none" stroke="midnightblue" d="M1020.92,-274.93C1006.93,-276.59 992.09,-278.34 977.82,-280.03"/>
<polygon fill="midnightblue" stroke="midnightblue" points="1021.41,-278.4 1030.93,-273.75 1020.59,-271.45 1021.41,-278.4"/>
</g>
<!-- Node17 -->
<g id="node17" class="node">
<title>Node17</title>
<g id="a_node17"><a xlink:href="../../d2/dcb/classOmniboxRowView_1_1HeaderView.html#a441ded0bc83346ff1773063183d470f2" target="_top" xlink:title=" ">
<polygon fill="white" stroke="black" points="822.5,-323 822.5,-353 979.5,-353 979.5,-323 822.5,-323"/>
<text text-anchor="start" x="830.5" y="-341" font-family="Helvetica,sans-Serif" font-size="10.00">OmniboxRowView::HeaderView</text>
<text text-anchor="middle" x="901" y="-330" font-family="Helvetica,sans-Serif" font-size="10.00">::HeaderToggleButtonPressed</text>
</a>
</g>
</g>
<!-- Node10&#45;&gt;Node17 -->
<g id="edge18" class="edge">
<title>Node10&#45;&gt;Node17</title>
<path fill="none" stroke="midnightblue" d="M1046.67,-286.28C1026.73,-295.25 1002.35,-305.73 980,-314 971.63,-317.1 962.65,-320.13 953.88,-322.93"/>
<polygon fill="midnightblue" stroke="midnightblue" points="1048.11,-289.47 1055.78,-282.15 1045.22,-283.09 1048.11,-289.47"/>
</g>
<!-- Node20 -->
<g id="node20" class="node">
<title>Node20</title>
<g id="a_node20"><a xlink:href="../../d2/dcb/classOmniboxRowView_1_1HeaderView.html#af9e1207af3e2688cdccfd7b8c1267a3c" target="_top" xlink:title=" ">
<polygon fill="white" stroke="black" points="822.5,-372 822.5,-402 979.5,-402 979.5,-372 822.5,-372"/>
<text text-anchor="start" x="830.5" y="-390" font-family="Helvetica,sans-Serif" font-size="10.00">OmniboxRowView::HeaderView</text>
<text text-anchor="middle" x="901" y="-379" font-family="Helvetica,sans-Serif" font-size="10.00">::OnMouseReleased</text>
</a>
</g>
</g>
<!-- Node10&#45;&gt;Node20 -->
<g id="edge22" class="edge">
<title>Node10&#45;&gt;Node20</title>
<path fill="none" stroke="midnightblue" d="M1068.03,-289.67C1047.81,-311.33 1014.66,-343.5 980,-363 973.95,-366.4 967.36,-369.39 960.65,-371.98"/>
<polygon fill="midnightblue" stroke="midnightblue" points="1070.69,-291.94 1074.87,-282.21 1065.53,-287.21 1070.69,-291.94"/>
</g>
<!-- Node12 -->
<g id="node12" class="node">
<title>Node12</title>
<g id="a_node12"><a xlink:href="../../d3/d4c/classOmniboxResultView.html#a632535684d6941455e8979815a978a44" target="_top" xlink:title=" ">
<polygon fill="white" stroke="black" points="410.5,-274 410.5,-304 522.5,-304 522.5,-274 410.5,-274"/>
<text text-anchor="start" x="418.5" y="-292" font-family="Helvetica,sans-Serif" font-size="10.00">OmniboxResultView::</text>
<text text-anchor="middle" x="466.5" y="-281" font-family="Helvetica,sans-Serif" font-size="10.00">OmniboxResultView</text>
</a>
</g>
</g>
<!-- Node11&#45;&gt;Node12 -->
<g id="edge11" class="edge">
<title>Node11&#45;&gt;Node12</title>
<path fill="none" stroke="midnightblue" d="M618.33,-254.78C587.86,-261.7 551.97,-269.84 522.84,-276.45"/>
<polygon fill="midnightblue" stroke="midnightblue" points="619.46,-258.12 628.44,-252.49 617.91,-251.29 619.46,-258.12"/>
</g>
<!-- Node13 -->
<g id="node13" class="node">
<title>Node13</title>
<g id="a_node13"><a xlink:href="../../d7/d88/classOmniboxPopupContentsView.html#aa8f47263f229af6a469c3bf964b81162" target="_top" xlink:title=" ">
<polygon fill="white" stroke="black" points="193,-296 193,-326 338,-326 338,-296 193,-296"/>
<text text-anchor="start" x="201" y="-314" font-family="Helvetica,sans-Serif" font-size="10.00">OmniboxPopupContentsView</text>
<text text-anchor="middle" x="265.5" y="-303" font-family="Helvetica,sans-Serif" font-size="10.00">::UpdatePopupAppearance</text>
</a>
</g>
</g>
<!-- Node12&#45;&gt;Node13 -->
<g id="edge12" class="edge">
<title>Node12&#45;&gt;Node13</title>
<path fill="none" stroke="midnightblue" d="M400.17,-296.22C380.33,-298.42 358.44,-300.84 338.21,-303.07"/>
<polygon fill="midnightblue" stroke="midnightblue" points="400.78,-299.68 410.33,-295.1 400.01,-292.72 400.78,-299.68"/>
</g>
<!-- Node14 -->
<g id="node14" class="node">
<title>Node14</title>
<g id="a_node14"><a xlink:href="../../d7/d88/classOmniboxPopupContentsView.html#a0e658101bc19acb66f6e0915fd6c2fe3" target="_top" xlink:title=" ">
<polygon fill="white" stroke="black" points="0,-296 0,-326 145,-326 145,-296 0,-296"/>
<text text-anchor="start" x="8" y="-314" font-family="Helvetica,sans-Serif" font-size="10.00">OmniboxPopupContentsView</text>
<text text-anchor="middle" x="72.5" y="-303" font-family="Helvetica,sans-Serif" font-size="10.00">::OnWidgetBoundsChanged</text>
</a>
</g>
</g>
<!-- Node13&#45;&gt;Node14 -->
<g id="edge13" class="edge">
<title>Node13&#45;&gt;Node14</title>
<path fill="none" stroke="midnightblue" d="M182.51,-311C170.12,-311 157.41,-311 145.25,-311"/>
<polygon fill="midnightblue" stroke="midnightblue" points="182.84,-314.5 192.84,-311 182.84,-307.5 182.84,-314.5"/>
</g>
<!-- Node16 -->
<g id="node16" class="node">
<title>Node16</title>
<g id="a_node16"><a xlink:href="../../d3/d0a/classOmniboxSuggestionButtonRowView.html#a7272410c3b801796d1c9cbeb37f9b3e7" target="_top" xlink:title=" ">
<polygon fill="white" stroke="black" points="583,-274 583,-304 786,-304 786,-274 583,-274"/>
<text text-anchor="start" x="591" y="-292" font-family="Helvetica,sans-Serif" font-size="10.00">OmniboxSuggestionButtonRow</text>
<text text-anchor="middle" x="684.5" y="-281" font-family="Helvetica,sans-Serif" font-size="10.00">View::OmniboxSuggestionButtonRowView</text>
</a>
</g>
</g>
<!-- Node15&#45;&gt;Node16 -->
<g id="edge15" class="edge">
<title>Node15&#45;&gt;Node16</title>
<path fill="none" stroke="midnightblue" d="M814.16,-289C805.02,-289 795.66,-289 786.37,-289"/>
<polygon fill="midnightblue" stroke="midnightblue" points="814.38,-292.5 824.38,-289 814.38,-285.5 814.38,-292.5"/>
</g>
<!-- Node16&#45;&gt;Node12 -->
<g id="edge16" class="edge">
<title>Node16&#45;&gt;Node12</title>
<path fill="none" stroke="midnightblue" d="M572.58,-289C555.27,-289 538.05,-289 522.72,-289"/>
<polygon fill="midnightblue" stroke="midnightblue" points="572.77,-292.5 582.77,-289 572.77,-285.5 572.77,-292.5"/>
</g>
<!-- Node18 -->
<g id="node18" class="node">
<title>Node18</title>
<g id="a_node18"><a xlink:href="../../d2/dcb/classOmniboxRowView_1_1HeaderView.html#ad1abf8339bf99de0b39a9bb43111ba93" target="_top" xlink:title=" ">
<polygon fill="white" stroke="black" points="606,-323 606,-353 763,-353 763,-323 606,-323"/>
<text text-anchor="start" x="614" y="-341" font-family="Helvetica,sans-Serif" font-size="10.00">OmniboxRowView::HeaderView</text>
<text text-anchor="middle" x="684.5" y="-330" font-family="Helvetica,sans-Serif" font-size="10.00">::HeaderView</text>
</a>
</g>
</g>
<!-- Node17&#45;&gt;Node18 -->
<g id="edge19" class="edge">
<title>Node17&#45;&gt;Node18</title>
<path fill="none" stroke="midnightblue" d="M811.8,-338C795.73,-338 779.08,-338 763.34,-338"/>
<polygon fill="midnightblue" stroke="midnightblue" points="812.26,-341.5 822.26,-338 812.26,-334.5 812.26,-341.5"/>
</g>
<!-- Node19 -->
<g id="node19" class="node">
<title>Node19</title>
<g id="a_node19"><a xlink:href="../../da/da2/classOmniboxRowView.html#a6add650851301372ee9b8a6671cfa28c" target="_top" xlink:title=" ">
<polygon fill="white" stroke="black" points="386.5,-325.5 386.5,-344.5 546.5,-344.5 546.5,-325.5 386.5,-325.5"/>
<text text-anchor="middle" x="466.5" y="-332.5" font-family="Helvetica,sans-Serif" font-size="10.00">OmniboxRowView::ShowHeader</text>
</a>
</g>
</g>
<!-- Node18&#45;&gt;Node19 -->
<g id="edge20" class="edge">
<title>Node18&#45;&gt;Node19</title>
<path fill="none" stroke="midnightblue" d="M595.8,-336.78C579.54,-336.56 562.65,-336.32 546.67,-336.1"/>
<polygon fill="midnightblue" stroke="midnightblue" points="595.78,-340.28 605.82,-336.92 595.87,-333.28 595.78,-340.28"/>
</g>
<!-- Node19&#45;&gt;Node13 -->
<g id="edge21" class="edge">
<title>Node19&#45;&gt;Node13</title>
<path fill="none" stroke="midnightblue" d="M376.39,-324.25C363.62,-322.71 350.61,-321.14 338.24,-319.65"/>
<polygon fill="midnightblue" stroke="midnightblue" points="376.22,-327.76 386.56,-325.48 377.06,-320.81 376.22,-327.76"/>
</g>
<!-- Node21&#45;&gt;Node22 -->
<g id="edge24" class="edge">
<title>Node21&#45;&gt;Node22</title>
<path fill="none" stroke="midnightblue" d="M1349.56,-132.19C1336.69,-128.48 1323.24,-124.62 1310.75,-121.03"/>
<polygon fill="midnightblue" stroke="midnightblue" points="1348.7,-135.58 1359.27,-134.98 1350.63,-128.85 1348.7,-135.58"/>
</g>
<!-- Node23 -->
<g id="node23" class="node">
<title>Node23</title>
<g id="a_node23"><a xlink:href="../../d0/d22/classOmniboxEditModel.html#a47216ae17e9b4c06e3a827008d04a744" target="_top" xlink:title=" ">
<polygon fill="white" stroke="black" points="1016,-88 1016,-118 1162,-118 1162,-88 1016,-88"/>
<text text-anchor="start" x="1024" y="-106" font-family="Helvetica,sans-Serif" font-size="10.00">OmniboxEditModel::StartZero</text>
<text text-anchor="middle" x="1089" y="-95" font-family="Helvetica,sans-Serif" font-size="10.00">SuggestRequest</text>
</a>
</g>
</g>
<!-- Node22&#45;&gt;Node23 -->
<g id="edge25" class="edge">
<title>Node22&#45;&gt;Node23</title>
<path fill="none" stroke="midnightblue" d="M1187.66,-104.76C1179.25,-104.61 1170.64,-104.45 1162.18,-104.3"/>
<polygon fill="midnightblue" stroke="midnightblue" points="1187.74,-108.26 1197.8,-104.94 1187.86,-101.26 1187.74,-108.26"/>
</g>
<!-- Node24 -->
<g id="node24" class="node">
<title>Node24</title>
<g id="a_node24"><a xlink:href="../../d0/d94/classOmniboxViewViews.html#a16e7321918d0a4985e618a5249a32881" target="_top" xlink:title=" ">
<polygon fill="white" stroke="black" points="822,-88 822,-118 980,-118 980,-88 822,-88"/>
<text text-anchor="start" x="830" y="-106" font-family="Helvetica,sans-Serif" font-size="10.00">OmniboxViewViews::OnGesture</text>
<text text-anchor="middle" x="901" y="-95" font-family="Helvetica,sans-Serif" font-size="10.00">Event</text>
</a>
</g>
</g>
<!-- Node23&#45;&gt;Node24 -->
<g id="edge26" class="edge">
<title>Node23&#45;&gt;Node24</title>
<path fill="none" stroke="midnightblue" d="M1005.63,-103C997.21,-103 988.68,-103 980.3,-103"/>
<polygon fill="midnightblue" stroke="midnightblue" points="1005.82,-106.5 1015.82,-103 1005.82,-99.5 1005.82,-106.5"/>
</g>
<!-- Node25 -->
<g id="node25" class="node">
<title>Node25</title>
<g id="a_node25"><a xlink:href="../../d0/d94/classOmniboxViewViews.html#a9fc21bac19f3a666e10eabc84b72c745" target="_top" xlink:title=" ">
<polygon fill="white" stroke="black" points="825,-39 825,-69 977,-69 977,-39 825,-39"/>
<text text-anchor="start" x="833" y="-57" font-family="Helvetica,sans-Serif" font-size="10.00">OmniboxViewViews::OnMouse</text>
<text text-anchor="middle" x="901" y="-46" font-family="Helvetica,sans-Serif" font-size="10.00">Pressed</text>
</a>
</g>
</g>
<!-- Node23&#45;&gt;Node25 -->
<g id="edge27" class="edge">
<title>Node23&#45;&gt;Node25</title>
<path fill="none" stroke="midnightblue" d="M1021.1,-85.38C1000.76,-80.02 978.59,-74.18 958.96,-69.01"/>
<polygon fill="midnightblue" stroke="midnightblue" points="1020.37,-88.8 1030.93,-87.97 1022.15,-82.03 1020.37,-88.8"/>
</g>
<!-- Node26 -->
<g id="node26" class="node">
<title>Node26</title>
<g id="a_node26"><a xlink:href="../../d0/d94/classOmniboxViewViews.html#ae9d72f709ba57cd59d22d6fbef32dd1c" target="_top" xlink:title=" ">
<polygon fill="white" stroke="black" points="825,-0.5 825,-19.5 977,-19.5 977,-0.5 825,-0.5"/>
<text text-anchor="middle" x="901" y="-7.5" font-family="Helvetica,sans-Serif" font-size="10.00">OmniboxViewViews::SetFocus</text>
</a>
</g>
</g>
<!-- Node23&#45;&gt;Node26 -->
<g id="edge28" class="edge">
<title>Node23&#45;&gt;Node26</title>
<path fill="none" stroke="midnightblue" d="M1062.43,-81.51C1041.5,-64.93 1010.46,-42.6 980,-29 971.47,-25.19 962.07,-22.08 952.82,-19.55"/>
<polygon fill="midnightblue" stroke="midnightblue" points="1060.5,-84.45 1070.48,-88 1064.89,-79 1060.5,-84.45"/>
</g>
<!-- Node27 -->
<g id="node27" class="node">
<title>Node27</title>
<g id="a_node27"><a xlink:href="../../d0/d22/classOmniboxEditModel.html#a8fd45b4cc033ef4a4c36d313a279ee33" target="_top" xlink:title=" ">
<polygon fill="white" stroke="black" points="832.5,-137 832.5,-167 969.5,-167 969.5,-137 832.5,-137"/>
<text text-anchor="start" x="840.5" y="-155" font-family="Helvetica,sans-Serif" font-size="10.00">OmniboxEditModel::Update</text>
<text text-anchor="middle" x="901" y="-144" font-family="Helvetica,sans-Serif" font-size="10.00">Input</text>
</a>
</g>
</g>
<!-- Node23&#45;&gt;Node27 -->
<g id="edge29" class="edge">
<title>Node23&#45;&gt;Node27</title>
<path fill="none" stroke="midnightblue" d="M1021.1,-120.62C1000.76,-125.98 978.59,-131.82 958.96,-136.99"/>
<polygon fill="midnightblue" stroke="midnightblue" points="1022.15,-123.97 1030.93,-118.03 1020.37,-117.2 1022.15,-123.97"/>
</g>
<!-- Node28 -->
<g id="node28" class="node">
<title>Node28</title>
<g id="a_node28"><a xlink:href="../../d0/d94/classOmniboxViewViews.html#aa74a64e459c128dff566e7392751a67f" target="_top" xlink:title=" ">
<polygon fill="white" stroke="black" points="613.5,-137 613.5,-167 755.5,-167 755.5,-137 613.5,-137"/>
<text text-anchor="start" x="621.5" y="-155" font-family="Helvetica,sans-Serif" font-size="10.00">OmniboxViewViews::Update</text>
<text text-anchor="middle" x="684.5" y="-144" font-family="Helvetica,sans-Serif" font-size="10.00">Popup</text>
</a>
</g>
</g>
<!-- Node27&#45;&gt;Node28 -->
<g id="edge30" class="edge">
<title>Node27&#45;&gt;Node28</title>
<path fill="none" stroke="midnightblue" d="M822.24,-152C800.49,-152 776.98,-152 755.69,-152"/>
<polygon fill="midnightblue" stroke="midnightblue" points="822.43,-155.5 832.43,-152 822.43,-148.5 822.43,-155.5"/>
</g>
<!-- Node29 -->
<g id="node29" class="node">
<title>Node29</title>
<g id="a_node29"><a xlink:href="../../d0/d94/classOmniboxViewViews.html#a2b71803c688c8d3db0ddfe1a6c561208" target="_top" xlink:title=" ">
<polygon fill="white" stroke="black" points="386,-137 386,-167 547,-167 547,-137 386,-137"/>
<text text-anchor="start" x="394" y="-155" font-family="Helvetica,sans-Serif" font-size="10.00">OmniboxViewViews::SetWindow</text>
<text text-anchor="middle" x="466.5" y="-144" font-family="Helvetica,sans-Serif" font-size="10.00">TextAndCaretPos</text>
</a>
</g>
</g>
<!-- Node28&#45;&gt;Node29 -->
<g id="edge31" class="edge">
<title>Node28&#45;&gt;Node29</title>
<path fill="none" stroke="midnightblue" d="M603.29,-152C584.91,-152 565.37,-152 547.02,-152"/>
<polygon fill="midnightblue" stroke="midnightblue" points="603.37,-155.5 613.37,-152 603.37,-148.5 603.37,-155.5"/>
</g>
<!-- Node30 -->
<g id="node30" class="node">
<title>Node30</title>
<g id="a_node30"><a xlink:href="../../d0/d94/classOmniboxViewViews.html#acce156344df7256bce712db64896eaf6" target="_top" xlink:title=" ">
<polygon fill="white" stroke="black" points="181,-137 181,-167 350,-167 350,-137 181,-137"/>
<text text-anchor="start" x="189" y="-155" font-family="Helvetica,sans-Serif" font-size="10.00">OmniboxViewViews::OnTemporary</text>
<text text-anchor="middle" x="265.5" y="-144" font-family="Helvetica,sans-Serif" font-size="10.00">TextMaybeChanged</text>
</a>
</g>
</g>
<!-- Node29&#45;&gt;Node30 -->
<g id="edge32" class="edge">
<title>Node29&#45;&gt;Node30</title>
<path fill="none" stroke="midnightblue" d="M375.96,-152C367.36,-152 358.66,-152 350.12,-152"/>
<polygon fill="midnightblue" stroke="midnightblue" points="375.99,-155.5 385.99,-152 375.99,-148.5 375.99,-155.5"/>
</g>
<!-- Node31&#45;&gt;Node7 -->
<g id="edge34" class="edge">
<title>Node31&#45;&gt;Node7</title>
<path fill="none" stroke="midnightblue" d="M1497.51,-199C1489.01,-199 1480.38,-199 1472.06,-199"/>
<polygon fill="midnightblue" stroke="midnightblue" points="1497.78,-202.5 1507.78,-199 1497.78,-195.5 1497.78,-202.5"/>
</g>
<!-- Node34&#45;&gt;Node2 -->
<g id="edge40" class="edge">
<title>Node34&#45;&gt;Node2</title>
<path fill="none" stroke="midnightblue" d="M2412.64,-109C2404.27,-109 2395.76,-109 2387.34,-109"/>
<polygon fill="midnightblue" stroke="midnightblue" points="2412.77,-112.5 2422.77,-109 2412.77,-105.5 2412.77,-112.5"/>
</g>
<!-- Node35&#45;&gt;Node4 -->
<g id="edge42" class="edge">
<title>Node35&#45;&gt;Node4</title>
<path fill="none" stroke="midnightblue" d="M2208.04,-192.36C2149.39,-188.52 2069.72,-182.04 2000,-172 1986.93,-170.12 1973.06,-167.65 1959.77,-165.05"/>
<polygon fill="midnightblue" stroke="midnightblue" points="2208.16,-195.88 2218.37,-193.02 2208.61,-188.89 2208.16,-195.88"/>
</g>
</g>
</svg>
