<?xml version="1.0" encoding="UTF-8" standalone="no"?>
<!DOCTYPE svg PUBLIC "-//W3C//DTD SVG 1.1//EN"
 "http://www.w3.org/Graphics/SVG/1.1/DTD/svg11.dtd">
<!-- Generated by graphviz version 2.43.0 (0)
 -->
<!-- Title: ZeroSuggestVerbatimMatchProvider::Start Pages: 1 -->
<svg width="1204pt" height="975pt"
 viewBox="0.00 0.00 1204.00 975.45" xmlns="http://www.w3.org/2000/svg" xmlns:xlink="http://www.w3.org/1999/xlink">
<g id="graph0" class="graph" transform="scale(1 1) rotate(0) translate(4 971.45)">
<title>ZeroSuggestVerbatimMatchProvider::Start</title>
<polygon fill="white" stroke="transparent" points="-4,4 -4,-971.45 1200,-971.45 1200,4 -4,4"/>
<!-- Node1 -->
<g id="node1" class="node">
<title>Node1</title>
<g id="a_node1"><a xlink:title=" ">
<polygon fill="#bfbfbf" stroke="black" points="0,-257.5 0,-287.5 138,-287.5 138,-257.5 0,-257.5"/>
<text text-anchor="start" x="8" y="-275.5" font-family="Helvetica,sans-Serif" font-size="10.00">ZeroSuggestVerbatimMatch</text>
<text text-anchor="middle" x="69" y="-264.5" font-family="Helvetica,sans-Serif" font-size="10.00">Provider::Start</text>
</a>
</g>
</g>
<!-- Node2 -->
<g id="node2" class="node">
<title>Node2</title>
<g id="a_node2"><a xlink:href="../../d9/df6/classAutocompleteInput.html#ade8235d079a10a9ed0afb2b40771cd4d" target="_top" xlink:title=" ">
<polygon fill="white" stroke="black" points="399,-928.5 399,-958.5 534,-958.5 534,-928.5 399,-928.5"/>
<text text-anchor="start" x="407" y="-946.5" font-family="Helvetica,sans-Serif" font-size="10.00">AutocompleteInput::</text>
<text text-anchor="middle" x="466.5" y="-935.5" font-family="Helvetica,sans-Serif" font-size="10.00">current_page_classification</text>
</a>
</g>
</g>
<!-- Node1&#45;&gt;Node2 -->
<g id="edge1" class="edge">
<title>Node1&#45;&gt;Node2</title>
<path fill="none" stroke="midnightblue" d="M71.22,-287.53C77.76,-364.68 110.65,-715.93 174,-801.5 225.8,-871.47 321.39,-908.72 388.96,-927.25"/>
<polygon fill="midnightblue" stroke="midnightblue" points="388.15,-930.66 398.72,-929.85 389.96,-923.9 388.15,-930.66"/>
</g>
<!-- Node3 -->
<g id="node3" class="node">
<title>Node3</title>
<g id="a_node3"><a xlink:href="../../d9/df6/classAutocompleteInput.html#a7472629d9340a2e0362e0b11c23ffff9" target="_top" xlink:title=" ">
<polygon fill="white" stroke="black" points="214.5,-355.5 214.5,-385.5 318.5,-385.5 318.5,-355.5 214.5,-355.5"/>
<text text-anchor="start" x="222.5" y="-373.5" font-family="Helvetica,sans-Serif" font-size="10.00">AutocompleteInput::</text>
<text text-anchor="middle" x="266.5" y="-362.5" font-family="Helvetica,sans-Serif" font-size="10.00">current_title</text>
</a>
</g>
</g>
<!-- Node1&#45;&gt;Node3 -->
<g id="edge2" class="edge">
<title>Node1&#45;&gt;Node3</title>
<path fill="none" stroke="midnightblue" d="M87.17,-287.73C106.84,-304.43 140.68,-330.92 174,-346.5 183.58,-350.98 194.14,-354.73 204.56,-357.82"/>
<polygon fill="midnightblue" stroke="midnightblue" points="203.92,-361.28 214.49,-360.6 205.8,-354.53 203.92,-361.28"/>
</g>
<!-- Node4 -->
<g id="node4" class="node">
<title>Node4</title>
<g id="a_node4"><a xlink:href="../../d9/df6/classAutocompleteInput.html#a2a4e4b5e31c7e0faffbc67f8b916e081" target="_top" xlink:title=" ">
<polygon fill="white" stroke="black" points="214.5,-306.5 214.5,-336.5 318.5,-336.5 318.5,-306.5 214.5,-306.5"/>
<text text-anchor="start" x="222.5" y="-324.5" font-family="Helvetica,sans-Serif" font-size="10.00">AutocompleteInput::</text>
<text text-anchor="middle" x="266.5" y="-313.5" font-family="Helvetica,sans-Serif" font-size="10.00">current_url</text>
</a>
</g>
</g>
<!-- Node1&#45;&gt;Node4 -->
<g id="edge3" class="edge">
<title>Node1&#45;&gt;Node4</title>
<path fill="none" stroke="midnightblue" d="M129.99,-287.53C153.56,-293.44 180.59,-300.22 204.28,-306.16"/>
<polygon fill="midnightblue" stroke="midnightblue" points="203.66,-309.61 214.21,-308.64 205.36,-302.82 203.66,-309.61"/>
</g>
<!-- Node5 -->
<g id="node5" class="node">
<title>Node5</title>
<g id="a_node5"><a xlink:href="../../d9/df6/classAutocompleteInput.html#aeb6496196b190a0e9602de746af5399b" target="_top" xlink:title=" ">
<polygon fill="white" stroke="black" points="214.5,-257.5 214.5,-287.5 318.5,-287.5 318.5,-257.5 214.5,-257.5"/>
<text text-anchor="start" x="222.5" y="-275.5" font-family="Helvetica,sans-Serif" font-size="10.00">AutocompleteInput::</text>
<text text-anchor="middle" x="266.5" y="-264.5" font-family="Helvetica,sans-Serif" font-size="10.00">focus_type</text>
</a>
</g>
</g>
<!-- Node1&#45;&gt;Node5 -->
<g id="edge4" class="edge">
<title>Node1&#45;&gt;Node5</title>
<path fill="none" stroke="midnightblue" d="M138.1,-272.5C159.6,-272.5 183.21,-272.5 204.2,-272.5"/>
<polygon fill="midnightblue" stroke="midnightblue" points="204.28,-276 214.28,-272.5 204.28,-269 204.28,-276"/>
</g>
<!-- Node6 -->
<g id="node6" class="node">
<title>Node6</title>
<g id="a_node6"><a xlink:href="../../d5/dc7/classAutocompleteProviderClient.html#a6395e3944b3ef32a09f2db1c57441b22" target="_top" xlink:title=" ">
<polygon fill="white" stroke="black" points="174,-197 174,-238 359,-238 359,-197 174,-197"/>
<text text-anchor="start" x="182" y="-226" font-family="Helvetica,sans-Serif" font-size="10.00">AutocompleteProviderClient</text>
<text text-anchor="start" x="182" y="-215" font-family="Helvetica,sans-Serif" font-size="10.00">::GetEmbedderRepresentationOfAbout</text>
<text text-anchor="middle" x="266.5" y="-204" font-family="Helvetica,sans-Serif" font-size="10.00">Scheme</text>
</a>
</g>
</g>
<!-- Node1&#45;&gt;Node6 -->
<g id="edge5" class="edge">
<title>Node1&#45;&gt;Node6</title>
<path fill="none" stroke="midnightblue" d="M123.42,-257.47C141.69,-252.33 162.57,-246.46 182.6,-240.82"/>
<polygon fill="midnightblue" stroke="midnightblue" points="183.68,-244.16 192.36,-238.08 181.78,-237.42 183.68,-244.16"/>
</g>
<!-- Node7 -->
<g id="node7" class="node">
<title>Node7</title>
<g id="a_node7"><a xlink:href="../../dc/d8f/structAutocompleteMatch.html#a5de0e3d76399ddeb5758b97a0c9d815f" target="_top" xlink:title=" ">
<polygon fill="white" stroke="black" points="211.5,-147.5 211.5,-177.5 321.5,-177.5 321.5,-147.5 211.5,-147.5"/>
<text text-anchor="start" x="219.5" y="-165.5" font-family="Helvetica,sans-Serif" font-size="10.00">AutocompleteMatch::</text>
<text text-anchor="middle" x="266.5" y="-154.5" font-family="Helvetica,sans-Serif" font-size="10.00">GetFormatTypes</text>
</a>
</g>
</g>
<!-- Node1&#45;&gt;Node7 -->
<g id="edge6" class="edge">
<title>Node1&#45;&gt;Node7</title>
<path fill="none" stroke="midnightblue" d="M84.4,-257.32C103.25,-238.3 138.14,-205.98 174,-187.5 182.58,-183.08 192.03,-179.37 201.5,-176.28"/>
<polygon fill="midnightblue" stroke="midnightblue" points="202.8,-179.54 211.35,-173.28 200.76,-172.85 202.8,-179.54"/>
</g>
<!-- Node8 -->
<g id="node8" class="node">
<title>Node8</title>
<g id="a_node8"><a xlink:href="../../d9/df6/classAutocompleteInput.html#a0cff3926bdc8c401fac9aca50e4fcadd" target="_top" xlink:title=" ">
<polygon fill="white" stroke="black" points="186,-98.5 186,-128.5 347,-128.5 347,-98.5 186,-98.5"/>
<text text-anchor="start" x="194" y="-116.5" font-family="Helvetica,sans-Serif" font-size="10.00">AutocompleteInput::</text>
<text text-anchor="middle" x="266.5" y="-105.5" font-family="Helvetica,sans-Serif" font-size="10.00">set_allow_exact_keyword_match</text>
</a>
</g>
</g>
<!-- Node1&#45;&gt;Node8 -->
<g id="edge7" class="edge">
<title>Node1&#45;&gt;Node8</title>
<path fill="none" stroke="midnightblue" d="M77.43,-257.45C91.99,-229.57 126.98,-169.9 174,-138.5 176.97,-136.52 180.08,-134.7 183.31,-133.01"/>
<polygon fill="midnightblue" stroke="midnightblue" points="185.06,-136.06 192.64,-128.65 182.1,-129.72 185.06,-136.06"/>
</g>
<!-- Node10 -->
<g id="node10" class="node">
<title>Node10</title>
<g id="a_node10"><a xlink:href="../../d9/df6/classAutocompleteInput.html#aadd53ab27aab046e98324f8201c276bd" target="_top" xlink:title=" ">
<polygon fill="white" stroke="black" points="187,-49.5 187,-79.5 346,-79.5 346,-49.5 187,-49.5"/>
<text text-anchor="start" x="195" y="-67.5" font-family="Helvetica,sans-Serif" font-size="10.00">AutocompleteInput::</text>
<text text-anchor="middle" x="266.5" y="-56.5" font-family="Helvetica,sans-Serif" font-size="10.00">set_prevent_inline_autocomplete</text>
</a>
</g>
</g>
<!-- Node1&#45;&gt;Node10 -->
<g id="edge9" class="edge">
<title>Node1&#45;&gt;Node10</title>
<path fill="none" stroke="midnightblue" d="M74.09,-257.43C84.48,-222.15 115.28,-133.74 174,-88.5 175.8,-87.12 177.67,-85.81 179.6,-84.58"/>
<polygon fill="midnightblue" stroke="midnightblue" points="181.38,-87.59 188.39,-79.65 177.96,-81.49 181.38,-87.59"/>
</g>
<!-- Node12 -->
<g id="node12" class="node">
<title>Node12</title>
<g id="a_node12"><a xlink:href="../../da/d25/classZeroSuggestVerbatimMatchProvider.html#a26755614cd12085e0da0852b34df7b9d" target="_top" xlink:title=" ">
<polygon fill="white" stroke="black" points="197.5,-0.5 197.5,-30.5 335.5,-30.5 335.5,-0.5 197.5,-0.5"/>
<text text-anchor="start" x="205.5" y="-18.5" font-family="Helvetica,sans-Serif" font-size="10.00">ZeroSuggestVerbatimMatch</text>
<text text-anchor="middle" x="266.5" y="-7.5" font-family="Helvetica,sans-Serif" font-size="10.00">Provider::Stop</text>
</a>
</g>
</g>
<!-- Node1&#45;&gt;Node12 -->
<g id="edge11" class="edge">
<title>Node1&#45;&gt;Node12</title>
<path fill="none" stroke="midnightblue" d="M72.19,-257.29C79,-215.67 103.75,-99.12 174,-39.5 178.23,-35.91 182.93,-32.86 187.91,-30.25"/>
<polygon fill="midnightblue" stroke="midnightblue" points="189.49,-33.37 197.13,-26.03 186.58,-27.01 189.49,-33.37"/>
</g>
<!-- Node13 -->
<g id="node13" class="node">
<title>Node13</title>
<g id="a_node13"><a xlink:href="../../d9/df6/classAutocompleteInput.html#a5d6111d5ac18400cdf809820dfab9ab0" target="_top" xlink:title=" ">
<polygon fill="white" stroke="black" points="917.5,-588 917.5,-607 1040.5,-607 1040.5,-588 917.5,-588"/>
<text text-anchor="middle" x="979" y="-595" font-family="Helvetica,sans-Serif" font-size="10.00">AutocompleteInput::type</text>
</a>
</g>
</g>
<!-- Node1&#45;&gt;Node13 -->
<g id="edge12" class="edge">
<title>Node1&#45;&gt;Node13</title>
<path fill="none" stroke="midnightblue" d="M77.49,-287.61C91.89,-314.82 126.31,-371.45 174,-395.5 289.93,-453.95 335.67,-414.5 465.5,-414.5 465.5,-414.5 465.5,-414.5 651,-414.5 749.31,-414.5 782.21,-415.08 866,-466.5 912.97,-495.32 950.33,-550.48 967.59,-579.16"/>
<polygon fill="midnightblue" stroke="midnightblue" points="964.58,-580.94 972.66,-587.79 970.62,-577.4 964.58,-580.94"/>
</g>
<!-- Node14 -->
<g id="node14" class="node">
<title>Node14</title>
<g id="a_node14"><a xlink:href="../../d5/d36/verbatim__match_8cc.html#abe0d653bed223eab6bf348ed99e3466c" target="_top" xlink:title=" ">
<polygon fill="white" stroke="black" points="208,-773 208,-792 325,-792 325,-773 208,-773"/>
<text text-anchor="middle" x="266.5" y="-780" font-family="Helvetica,sans-Serif" font-size="10.00">VerbatimMatchForURL</text>
</a>
</g>
</g>
<!-- Node1&#45;&gt;Node14 -->
<g id="edge13" class="edge">
<title>Node1&#45;&gt;Node14</title>
<path fill="none" stroke="midnightblue" d="M75.85,-287.76C104.15,-361.6 226.77,-681.47 258.16,-763.35"/>
<polygon fill="midnightblue" stroke="midnightblue" points="254.9,-764.62 261.75,-772.71 261.43,-762.12 254.9,-764.62"/>
</g>
<!-- Node9 -->
<g id="node9" class="node">
<title>Node9</title>
<g id="a_node9"><a xlink:href="../../d9/df6/classAutocompleteInput.html#a34ef2192525dcd14d249a8f74004cae9" target="_top" xlink:title=" ">
<polygon fill="white" stroke="black" points="395,-98.5 395,-128.5 538,-128.5 538,-98.5 395,-98.5"/>
<text text-anchor="start" x="403" y="-116.5" font-family="Helvetica,sans-Serif" font-size="10.00">AutocompleteInput::</text>
<text text-anchor="middle" x="466.5" y="-105.5" font-family="Helvetica,sans-Serif" font-size="10.00">allow_exact_keyword_match</text>
</a>
</g>
</g>
<!-- Node8&#45;&gt;Node9 -->
<g id="edge8" class="edge">
<title>Node8&#45;&gt;Node9</title>
<path fill="none" stroke="midnightblue" d="M347.18,-113.5C359.52,-113.5 372.28,-113.5 384.64,-113.5"/>
<polygon fill="midnightblue" stroke="midnightblue" points="384.92,-117 394.92,-113.5 384.92,-110 384.92,-117"/>
</g>
<!-- Node11 -->
<g id="node11" class="node">
<title>Node11</title>
<g id="a_node11"><a xlink:href="../../d9/df6/classAutocompleteInput.html#ac81e31d82e4da3a4b8ea3c37bb575dcc" target="_top" xlink:title=" ">
<polygon fill="white" stroke="black" points="396.5,-49.5 396.5,-79.5 536.5,-79.5 536.5,-49.5 396.5,-49.5"/>
<text text-anchor="start" x="404.5" y="-67.5" font-family="Helvetica,sans-Serif" font-size="10.00">AutocompleteInput::</text>
<text text-anchor="middle" x="466.5" y="-56.5" font-family="Helvetica,sans-Serif" font-size="10.00">prevent_inline_autocomplete</text>
</a>
</g>
</g>
<!-- Node10&#45;&gt;Node11 -->
<g id="edge10" class="edge">
<title>Node10&#45;&gt;Node11</title>
<path fill="none" stroke="midnightblue" d="M346.04,-64.5C359.29,-64.5 373.05,-64.5 386.32,-64.5"/>
<polygon fill="midnightblue" stroke="midnightblue" points="386.35,-68 396.35,-64.5 386.35,-61 386.35,-68"/>
</g>
<!-- Node14&#45;&gt;Node2 -->
<g id="edge15" class="edge">
<title>Node14&#45;&gt;Node2</title>
<path fill="none" stroke="midnightblue" d="M274.01,-792.33C290.97,-817.22 339.09,-883.29 395,-919.5 397.44,-921.08 400,-922.57 402.63,-923.97"/>
<polygon fill="midnightblue" stroke="midnightblue" points="401.29,-927.21 411.82,-928.4 404.33,-920.9 401.29,-927.21"/>
</g>
<!-- Node15 -->
<g id="node15" class="node">
<title>Node15</title>
<g id="a_node15"><a xlink:href="../../d5/dc7/classAutocompleteProviderClient.html#a8888c1d0f46749ebb53fc8b2c1ddf3ee" target="_top" xlink:title=" ">
<polygon fill="white" stroke="black" points="397.5,-879.5 397.5,-909.5 535.5,-909.5 535.5,-879.5 397.5,-879.5"/>
<text text-anchor="start" x="405.5" y="-897.5" font-family="Helvetica,sans-Serif" font-size="10.00">AutocompleteProviderClient</text>
<text text-anchor="middle" x="466.5" y="-886.5" font-family="Helvetica,sans-Serif" font-size="10.00">::Classify</text>
</a>
</g>
</g>
<!-- Node14&#45;&gt;Node15 -->
<g id="edge14" class="edge">
<title>Node14&#45;&gt;Node15</title>
<path fill="none" stroke="midnightblue" d="M280.82,-792.14C303.52,-808.33 351.51,-841.47 395,-864.5 402.19,-868.31 409.96,-872 417.64,-875.43"/>
<polygon fill="midnightblue" stroke="midnightblue" points="416.33,-878.68 426.9,-879.46 419.13,-872.26 416.33,-878.68"/>
</g>
<!-- Node16 -->
<g id="node16" class="node">
<title>Node16</title>
<g id="a_node16"><a xlink:href="../../d9/df6/classAutocompleteInput.html#a62c7e3f246976745ef4ac1c7cd72faaa" target="_top" xlink:title=" ">
<polygon fill="white" stroke="black" points="762,-475.5 762,-505.5 866,-505.5 866,-475.5 762,-475.5"/>
<text text-anchor="start" x="770" y="-493.5" font-family="Helvetica,sans-Serif" font-size="10.00">AutocompleteInput::</text>
<text text-anchor="middle" x="814" y="-482.5" font-family="Helvetica,sans-Serif" font-size="10.00">HasHTTPScheme</text>
</a>
</g>
</g>
<!-- Node14&#45;&gt;Node16 -->
<g id="edge16" class="edge">
<title>Node14&#45;&gt;Node16</title>
<path fill="none" stroke="midnightblue" d="M272.98,-772.85C299.18,-727.86 416.86,-538.11 574,-472.5 633.58,-447.62 708.73,-459.51 758.69,-472.74"/>
<polygon fill="midnightblue" stroke="midnightblue" points="757.77,-476.12 768.34,-475.39 759.62,-469.37 757.77,-476.12"/>
</g>
<!-- Node17 -->
<g id="node17" class="node">
<title>Node17</title>
<g id="a_node17"><a xlink:href="../../d9/df6/classAutocompleteInput.html#ac055dacf90a052c92e2bfe5c01328a95" target="_top" xlink:title=" ">
<polygon fill="white" stroke="black" points="918.5,-910 918.5,-929 1039.5,-929 1039.5,-910 918.5,-910"/>
<text text-anchor="middle" x="979" y="-917" font-family="Helvetica,sans-Serif" font-size="10.00">AutocompleteInput::text</text>
</a>
</g>
</g>
<!-- Node14&#45;&gt;Node17 -->
<g id="edge17" class="edge">
<title>Node14&#45;&gt;Node17</title>
<path fill="none" stroke="midnightblue" d="M325.04,-789.91C336.4,-791.93 348.15,-794.44 359,-797.5 441.69,-820.82 472.78,-814.57 538,-870.5 561.61,-890.74 546.94,-915.18 574,-930.5 693.55,-998.19 866.54,-955.9 941.31,-932.27"/>
<polygon fill="midnightblue" stroke="midnightblue" points="942.75,-935.48 951.19,-929.07 940.6,-928.82 942.75,-935.48"/>
</g>
<!-- Node18 -->
<g id="node18" class="node">
<title>Node18</title>
<g id="a_node18"><a xlink:href="../../d5/d36/verbatim__match_8cc.html#ac196726f5b4ce701f803ee7c44a7fa13" target="_top" xlink:title=" ">
<polygon fill="white" stroke="black" points="407,-705 407,-724 526,-724 526,-705 407,-705"/>
<text text-anchor="middle" x="466.5" y="-712" font-family="Helvetica,sans-Serif" font-size="10.00">VerbatimMatchForInput</text>
</a>
</g>
</g>
<!-- Node14&#45;&gt;Node18 -->
<g id="edge18" class="edge">
<title>Node14&#45;&gt;Node18</title>
<path fill="none" stroke="midnightblue" d="M295.45,-772.9C330.09,-761 389.26,-740.68 427.87,-727.42"/>
<polygon fill="midnightblue" stroke="midnightblue" points="429.37,-730.61 437.69,-724.05 427.1,-723.99 429.37,-730.61"/>
</g>
<!-- Node18&#45;&gt;Node13 -->
<g id="edge40" class="edge">
<title>Node18&#45;&gt;Node13</title>
<path fill="none" stroke="midnightblue" d="M521.21,-724.02C602.81,-735.47 759.74,-745.42 866,-676.5 891.77,-659.78 877.36,-635.85 902,-617.5 905.17,-615.14 908.6,-613.05 912.18,-611.22"/>
<polygon fill="midnightblue" stroke="midnightblue" points="913.65,-614.4 921.36,-607.14 910.8,-608 913.65,-614.4"/>
</g>
<!-- Node18&#45;&gt;Node16 -->
<g id="edge34" class="edge">
<title>Node18&#45;&gt;Node16</title>
<path fill="none" stroke="midnightblue" d="M469.2,-704.56C475.62,-670.4 501.8,-557.37 574,-509.5 626.36,-474.78 700.06,-474.4 751.74,-479.93"/>
<polygon fill="midnightblue" stroke="midnightblue" points="751.42,-483.42 761.76,-481.11 752.24,-476.47 751.42,-483.42"/>
</g>
<!-- Node18&#45;&gt;Node17 -->
<g id="edge36" class="edge">
<title>Node18&#45;&gt;Node17</title>
<path fill="none" stroke="midnightblue" d="M477.49,-724.06C495.39,-740.64 534.72,-774.78 574,-793.5 636.96,-823.5 659.2,-812.44 726,-832.5 804.38,-856.04 894.71,-888.57 943.08,-906.44"/>
<polygon fill="midnightblue" stroke="midnightblue" points="941.87,-909.72 952.47,-909.91 944.31,-903.16 941.87,-909.72"/>
</g>
<!-- Node19 -->
<g id="node19" class="node">
<title>Node19</title>
<g id="a_node19"><a xlink:href="../../d9/df6/classAutocompleteInput.html#a698290b314c49fcc2c4490b9e32e728a" target="_top" xlink:title=" ">
<polygon fill="white" stroke="black" points="591.5,-557 591.5,-598 708.5,-598 708.5,-557 591.5,-557"/>
<text text-anchor="start" x="599.5" y="-586" font-family="Helvetica,sans-Serif" font-size="10.00">AutocompleteInput::</text>
<text text-anchor="start" x="599.5" y="-575" font-family="Helvetica,sans-Serif" font-size="10.00">added_default_scheme</text>
<text text-anchor="middle" x="650" y="-564" font-family="Helvetica,sans-Serif" font-size="10.00">_to_typed_url</text>
</a>
</g>
</g>
<!-- Node18&#45;&gt;Node19 -->
<g id="edge19" class="edge">
<title>Node18&#45;&gt;Node19</title>
<path fill="none" stroke="midnightblue" d="M475.05,-704.74C491.22,-684.4 531.23,-636.99 574,-608.5 577.05,-606.47 580.26,-604.53 583.56,-602.68"/>
<polygon fill="midnightblue" stroke="midnightblue" points="585.23,-605.76 592.46,-598.02 581.98,-599.56 585.23,-605.76"/>
</g>
<!-- Node20 -->
<g id="node20" class="node">
<title>Node20</title>
<g id="a_node20"><a xlink:href="../../dc/db8/autocomplete__match__classification_8cc.html#a24f64d2639070ff605d2c295d6c4b328" target="_top" xlink:title=" ">
<polygon fill="white" stroke="black" points="594,-519 594,-538 706,-538 706,-519 594,-519"/>
<text text-anchor="middle" x="650" y="-526" font-family="Helvetica,sans-Serif" font-size="10.00">ClassifyTermMatches</text>
</a>
</g>
</g>
<!-- Node18&#45;&gt;Node20 -->
<g id="edge20" class="edge">
<title>Node18&#45;&gt;Node20</title>
<path fill="none" stroke="midnightblue" d="M470.76,-704.77C480.97,-675.89 515.19,-589.99 574,-547.5 577.27,-545.13 580.82,-543.06 584.51,-541.25"/>
<polygon fill="midnightblue" stroke="midnightblue" points="586.13,-544.37 593.97,-537.25 583.4,-537.92 586.13,-544.37"/>
</g>
<!-- Node21 -->
<g id="node21" class="node">
<title>Node21</title>
<g id="a_node21"><a xlink:href="../../d9/df6/classAutocompleteInput.html#a71cbe5d008493b29bf38ab67d34268a6" target="_top" xlink:title=" ">
<polygon fill="white" stroke="black" points="574,-743 574,-784 726,-784 726,-743 574,-743"/>
<text text-anchor="start" x="582" y="-772" font-family="Helvetica,sans-Serif" font-size="10.00">AutocompleteInput::</text>
<text text-anchor="start" x="582" y="-761" font-family="Helvetica,sans-Serif" font-size="10.00">FormattedStringWithEquivalent</text>
<text text-anchor="middle" x="650" y="-750" font-family="Helvetica,sans-Serif" font-size="10.00">Meaning</text>
</a>
</g>
</g>
<!-- Node18&#45;&gt;Node21 -->
<g id="edge21" class="edge">
<title>Node18&#45;&gt;Node21</title>
<path fill="none" stroke="midnightblue" d="M502.93,-724.06C520.46,-728.8 542.45,-734.73 564.01,-740.55"/>
<polygon fill="midnightblue" stroke="midnightblue" points="563.3,-743.99 573.86,-743.22 565.12,-737.23 563.3,-743.99"/>
</g>
<!-- Node29 -->
<g id="node29" class="node">
<title>Node29</title>
<g id="a_node29"><a xlink:href="../../d5/dc7/classAutocompleteProviderClient.html#aeb7ca420d3164ab0a85826fe7eb8007a" target="_top" xlink:title=" ">
<polygon fill="white" stroke="black" points="581,-890.5 581,-920.5 719,-920.5 719,-890.5 581,-890.5"/>
<text text-anchor="start" x="589" y="-908.5" font-family="Helvetica,sans-Serif" font-size="10.00">AutocompleteProviderClient</text>
<text text-anchor="middle" x="650" y="-897.5" font-family="Helvetica,sans-Serif" font-size="10.00">::GetSchemeClassifier</text>
</a>
</g>
</g>
<!-- Node18&#45;&gt;Node29 -->
<g id="edge32" class="edge">
<title>Node18&#45;&gt;Node29</title>
<path fill="none" stroke="midnightblue" d="M473.13,-724.15C492.97,-758.04 559.22,-870.12 574,-881.5 575.8,-882.89 577.69,-884.2 579.64,-885.44"/>
<polygon fill="midnightblue" stroke="midnightblue" points="578.11,-888.59 588.55,-890.39 581.51,-882.47 578.11,-888.59"/>
</g>
<!-- Node30 -->
<g id="node30" class="node">
<title>Node30</title>
<g id="a_node30"><a xlink:href="../../d5/dc7/classAutocompleteProviderClient.html#adba197163b53e433c2114b677ae4e412" target="_top" xlink:title=" ">
<polygon fill="white" stroke="black" points="581,-841.5 581,-871.5 719,-871.5 719,-841.5 581,-841.5"/>
<text text-anchor="start" x="589" y="-859.5" font-family="Helvetica,sans-Serif" font-size="10.00">AutocompleteProviderClient</text>
<text text-anchor="middle" x="650" y="-848.5" font-family="Helvetica,sans-Serif" font-size="10.00">::GetTemplateURLService</text>
</a>
</g>
</g>
<!-- Node18&#45;&gt;Node30 -->
<g id="edge33" class="edge">
<title>Node18&#45;&gt;Node30</title>
<path fill="none" stroke="midnightblue" d="M474.41,-724.23C489.96,-745.48 529.8,-796.55 574,-826.5 579.91,-830.5 586.43,-834.1 593.09,-837.29"/>
<polygon fill="midnightblue" stroke="midnightblue" points="591.65,-840.48 602.2,-841.4 594.52,-834.1 591.65,-840.48"/>
</g>
<!-- Node31 -->
<g id="node31" class="node">
<title>Node31</title>
<g id="a_node31"><a xlink:href="../../d9/df6/classAutocompleteInput.html#ab8ce6e631e733fd45c605a2a49dac8ba" target="_top" xlink:title=" ">
<polygon fill="white" stroke="black" points="762,-636.5 762,-666.5 866,-666.5 866,-636.5 762,-636.5"/>
<text text-anchor="start" x="770" y="-654.5" font-family="Helvetica,sans-Serif" font-size="10.00">AutocompleteInput::</text>
<text text-anchor="middle" x="814" y="-643.5" font-family="Helvetica,sans-Serif" font-size="10.00">HasHTTPSScheme</text>
</a>
</g>
</g>
<!-- Node18&#45;&gt;Node31 -->
<g id="edge35" class="edge">
<title>Node18&#45;&gt;Node31</title>
<path fill="none" stroke="midnightblue" d="M519.97,-704.93C582.15,-693.59 685.6,-674.73 751.49,-662.72"/>
<polygon fill="midnightblue" stroke="midnightblue" points="752.52,-666.09 761.73,-660.85 751.26,-659.2 752.52,-666.09"/>
</g>
<!-- Node32 -->
<g id="node32" class="node">
<title>Node32</title>
<g id="a_node32"><a xlink:href="../../dd/de9/classAutocompleteProvider.html#af9ab1cdf51a24eb678de051dec12ab3c" target="_top" xlink:title=" ">
<polygon fill="white" stroke="black" points="593.5,-617.5 593.5,-647.5 706.5,-647.5 706.5,-617.5 593.5,-617.5"/>
<text text-anchor="start" x="601.5" y="-635.5" font-family="Helvetica,sans-Serif" font-size="10.00">AutocompleteProvider</text>
<text text-anchor="middle" x="650" y="-624.5" font-family="Helvetica,sans-Serif" font-size="10.00">::TrimSchemePrefix</text>
</a>
</g>
</g>
<!-- Node18&#45;&gt;Node32 -->
<g id="edge37" class="edge">
<title>Node18&#45;&gt;Node32</title>
<path fill="none" stroke="midnightblue" d="M486.16,-704.87C507.27,-694.1 542.78,-676.35 574,-662.5 582.47,-658.74 591.57,-654.93 600.4,-651.33"/>
<polygon fill="midnightblue" stroke="midnightblue" points="601.88,-654.51 609.85,-647.53 599.26,-648.02 601.88,-654.51"/>
</g>
<!-- Node22 -->
<g id="node22" class="node">
<title>Node22</title>
<g id="a_node22"><a xlink:href="../../d9/df6/classAutocompleteInput.html#a5e4baa54984f463b174191f60f0038aa" target="_top" xlink:title=" ">
<polygon fill="white" stroke="black" points="762,-748.5 762,-778.5 866,-778.5 866,-748.5 762,-748.5"/>
<text text-anchor="start" x="770" y="-766.5" font-family="Helvetica,sans-Serif" font-size="10.00">AutocompleteInput::</text>
<text text-anchor="middle" x="814" y="-755.5" font-family="Helvetica,sans-Serif" font-size="10.00">Parse</text>
</a>
</g>
</g>
<!-- Node21&#45;&gt;Node22 -->
<g id="edge22" class="edge">
<title>Node21&#45;&gt;Node22</title>
<path fill="none" stroke="midnightblue" d="M726.31,-763.5C734.89,-763.5 743.55,-763.5 751.91,-763.5"/>
<polygon fill="midnightblue" stroke="midnightblue" points="751.93,-767 761.93,-763.5 751.93,-760 751.93,-767"/>
</g>
<!-- Node22&#45;&gt;Node13 -->
<g id="edge31" class="edge">
<title>Node22&#45;&gt;Node13</title>
<path fill="none" stroke="midnightblue" d="M843.96,-748.38C852.02,-743.02 860.15,-736.33 866,-728.5 897.03,-686.95 864.31,-653.13 902,-617.5 904.14,-615.48 906.45,-613.66 908.91,-612.01"/>
<polygon fill="midnightblue" stroke="midnightblue" points="910.68,-615.03 917.69,-607.09 907.25,-608.93 910.68,-615.03"/>
</g>
<!-- Node22&#45;&gt;Node17 -->
<g id="edge30" class="edge">
<title>Node22&#45;&gt;Node17</title>
<path fill="none" stroke="midnightblue" d="M843.49,-778.6C851.63,-784 859.92,-790.71 866,-798.5 894.28,-834.76 868.69,-863.8 902,-895.5 906.24,-899.53 911.15,-902.89 916.4,-905.68"/>
<polygon fill="midnightblue" stroke="midnightblue" points="914.93,-908.86 925.48,-909.87 917.86,-902.5 914.93,-908.86"/>
</g>
<!-- Node23 -->
<g id="node23" class="node">
<title>Node23</title>
<g id="a_node23"><a xlink:href="../../d9/df6/classAutocompleteInput.html#a419d05e14c86f18c137fbb4057fedb04" target="_top" xlink:title=" ">
<polygon fill="white" stroke="black" points="927,-724.5 927,-754.5 1031,-754.5 1031,-724.5 927,-724.5"/>
<text text-anchor="start" x="935" y="-742.5" font-family="Helvetica,sans-Serif" font-size="10.00">AutocompleteInput::</text>
<text text-anchor="middle" x="979" y="-731.5" font-family="Helvetica,sans-Serif" font-size="10.00">canonicalized_url</text>
</a>
</g>
</g>
<!-- Node22&#45;&gt;Node23 -->
<g id="edge23" class="edge">
<title>Node22&#45;&gt;Node23</title>
<path fill="none" stroke="midnightblue" d="M866.13,-755.97C882.13,-753.62 899.96,-750.99 916.6,-748.54"/>
<polygon fill="midnightblue" stroke="midnightblue" points="917.39,-751.96 926.77,-747.04 916.37,-745.04 917.39,-751.96"/>
</g>
<!-- Node24 -->
<g id="node24" class="node">
<title>Node24</title>
<g id="a_node24"><a xlink:href="../../d9/df6/classAutocompleteInput.html#a4390207a7b741fc348525b430c3c3e27" target="_top" xlink:title=" ">
<polygon fill="white" stroke="black" points="927,-675.5 927,-705.5 1031,-705.5 1031,-675.5 927,-675.5"/>
<text text-anchor="start" x="935" y="-693.5" font-family="Helvetica,sans-Serif" font-size="10.00">AutocompleteInput::</text>
<text text-anchor="middle" x="979" y="-682.5" font-family="Helvetica,sans-Serif" font-size="10.00">desired_tld</text>
</a>
</g>
</g>
<!-- Node22&#45;&gt;Node24 -->
<g id="edge24" class="edge">
<title>Node22&#45;&gt;Node24</title>
<path fill="none" stroke="midnightblue" d="M839.5,-748.37C856.6,-738.22 880.18,-725.01 902,-715.5 907.09,-713.28 912.45,-711.14 917.86,-709.12"/>
<polygon fill="midnightblue" stroke="midnightblue" points="919.41,-712.28 927.63,-705.6 917.03,-705.7 919.41,-712.28"/>
</g>
<!-- Node25 -->
<g id="node25" class="node">
<title>Node25</title>
<g id="a_node25"><a xlink:href="../../db/df5/classAutocompleteSchemeClassifier.html#af5c27290677874e2772b285dda84fbf5" target="_top" xlink:title=" ">
<polygon fill="white" stroke="black" points="902,-626.5 902,-656.5 1056,-656.5 1056,-626.5 902,-626.5"/>
<text text-anchor="start" x="910" y="-644.5" font-family="Helvetica,sans-Serif" font-size="10.00">AutocompleteSchemeClassifier</text>
<text text-anchor="middle" x="979" y="-633.5" font-family="Helvetica,sans-Serif" font-size="10.00">::GetInputTypeForScheme</text>
</a>
</g>
</g>
<!-- Node22&#45;&gt;Node25 -->
<g id="edge25" class="edge">
<title>Node22&#45;&gt;Node25</title>
<path fill="none" stroke="midnightblue" d="M841.65,-748.43C850.07,-742.87 858.99,-736.06 866,-728.5 887.67,-705.14 877.25,-686.57 902,-666.5 904.08,-664.82 906.27,-663.24 908.55,-661.78"/>
<polygon fill="midnightblue" stroke="midnightblue" points="910.73,-664.57 917.73,-656.62 907.3,-658.47 910.73,-664.57"/>
</g>
<!-- Node26 -->
<g id="node26" class="node">
<title>Node26</title>
<g id="a_node26"><a xlink:href="../../d9/df6/classAutocompleteInput.html#aafe7f25c093a4b15b084ee4ab7f49f1f" target="_top" xlink:title=" ">
<polygon fill="white" stroke="black" points="913,-822.5 913,-852.5 1045,-852.5 1045,-822.5 913,-822.5"/>
<text text-anchor="start" x="921" y="-840.5" font-family="Helvetica,sans-Serif" font-size="10.00">AutocompleteInput::</text>
<text text-anchor="middle" x="979" y="-829.5" font-family="Helvetica,sans-Serif" font-size="10.00">NumNonHostComponents</text>
</a>
</g>
</g>
<!-- Node22&#45;&gt;Node26 -->
<g id="edge26" class="edge">
<title>Node22&#45;&gt;Node26</title>
<path fill="none" stroke="midnightblue" d="M838.28,-778.73C855.4,-789.46 879.51,-803.62 902,-813.5 906.36,-815.42 910.93,-817.25 915.56,-818.99"/>
<polygon fill="midnightblue" stroke="midnightblue" points="914.53,-822.34 925.12,-822.43 916.9,-815.75 914.53,-822.34"/>
</g>
<!-- Node27 -->
<g id="node27" class="node">
<title>Node27</title>
<g id="a_node27"><a xlink:href="../../d9/df6/classAutocompleteInput.html#a3ac662d726d6c8788dbcc199397e8ba5" target="_top" xlink:title=" ">
<polygon fill="white" stroke="black" points="1092,-844.5 1092,-874.5 1196,-874.5 1196,-844.5 1092,-844.5"/>
<text text-anchor="start" x="1100" y="-862.5" font-family="Helvetica,sans-Serif" font-size="10.00">AutocompleteInput::</text>
<text text-anchor="middle" x="1144" y="-851.5" font-family="Helvetica,sans-Serif" font-size="10.00">parts</text>
</a>
</g>
</g>
<!-- Node22&#45;&gt;Node27 -->
<g id="edge28" class="edge">
<title>Node22&#45;&gt;Node27</title>
<path fill="none" stroke="midnightblue" d="M841.71,-778.51C850.13,-784.07 859.04,-790.89 866,-798.5 888.03,-822.58 873.83,-846.02 902,-862.5 956.35,-894.29 1030.07,-887.67 1081.61,-876.81"/>
<polygon fill="midnightblue" stroke="midnightblue" points="1082.61,-880.18 1091.61,-874.6 1081.09,-873.34 1082.61,-880.18"/>
</g>
<!-- Node28 -->
<g id="node28" class="node">
<title>Node28</title>
<g id="a_node28"><a xlink:href="../../d9/df6/classAutocompleteInput.html#a9f88d669e8aa433c507320111a7b38a8" target="_top" xlink:title=" ">
<polygon fill="white" stroke="black" points="927,-773.5 927,-803.5 1031,-803.5 1031,-773.5 927,-773.5"/>
<text text-anchor="start" x="935" y="-791.5" font-family="Helvetica,sans-Serif" font-size="10.00">AutocompleteInput::</text>
<text text-anchor="middle" x="979" y="-780.5" font-family="Helvetica,sans-Serif" font-size="10.00">scheme</text>
</a>
</g>
</g>
<!-- Node22&#45;&gt;Node28 -->
<g id="edge29" class="edge">
<title>Node22&#45;&gt;Node28</title>
<path fill="none" stroke="midnightblue" d="M866.13,-771.34C882.13,-773.8 899.96,-776.53 916.6,-779.08"/>
<polygon fill="midnightblue" stroke="midnightblue" points="916.36,-782.59 926.77,-780.64 917.42,-775.67 916.36,-782.59"/>
</g>
<!-- Node26&#45;&gt;Node27 -->
<g id="edge27" class="edge">
<title>Node26&#45;&gt;Node27</title>
<path fill="none" stroke="midnightblue" d="M1045.36,-846.32C1057.35,-847.94 1069.82,-849.62 1081.69,-851.22"/>
<polygon fill="midnightblue" stroke="midnightblue" points="1081.55,-854.74 1091.93,-852.61 1082.49,-847.8 1081.55,-854.74"/>
</g>
<!-- Node32&#45;&gt;Node16 -->
<g id="edge38" class="edge">
<title>Node32&#45;&gt;Node16</title>
<path fill="none" stroke="midnightblue" d="M706.57,-618.32C713.44,-615.34 720.11,-611.77 726,-607.5 759.97,-582.91 786.4,-541.15 800.83,-514.74"/>
<polygon fill="midnightblue" stroke="midnightblue" points="804,-516.24 805.6,-505.77 797.82,-512.96 804,-516.24"/>
</g>
<!-- Node32&#45;&gt;Node31 -->
<g id="edge39" class="edge">
<title>Node32&#45;&gt;Node31</title>
<path fill="none" stroke="midnightblue" d="M706.75,-639.04C721.25,-640.74 736.95,-642.58 751.72,-644.31"/>
<polygon fill="midnightblue" stroke="midnightblue" points="751.43,-647.8 761.77,-645.49 752.25,-640.85 751.43,-647.8"/>
</g>
</g>
</svg>
