<?xml version="1.0" encoding="UTF-8" standalone="no"?>
<!DOCTYPE svg PUBLIC "-//W3C//DTD SVG 1.1//EN"
 "http://www.w3.org/Graphics/SVG/1.1/DTD/svg11.dtd">
<!-- Generated by graphviz version 2.43.0 (0)
 -->
<!-- Title: components/omnibox/browser/verbatim_match.h Pages: 1 -->
<!--zoomable 195 -->
<svg id="main" version="1.1" xmlns="http://www.w3.org/2000/svg" xmlns:xlink="http://www.w3.org/1999/xlink" xml:space="preserve" onload="init(evt)">
<style type="text/css"><![CDATA[
.edge:hover path { stroke: red; }
.edge:hover polygon { stroke: red; fill: red; }
]]></style>
<script type="text/javascript"><![CDATA[
var edges = document.getElementsByTagName('g');
if (edges && edges.length) {
  for (var i=0;i<edges.length;i++) {
    if (edges[i].id.substr(0,4)=='edge') {
      edges[i].setAttribute('class','edge');
    }
  }
}
]]></script>
        <defs>
                <circle id="rim" cx="0" cy="0" r="7"/>
                <circle id="rim2" cx="0" cy="0" r="3.5"/>
                <g id="zoomPlus">
                        <use xlink:href="#rim" fill="#404040">
                                <set attributeName="fill" to="#808080" begin="zoomplus.mouseover" end="zoomplus.mouseout"/>
                        </use>
                        <path d="M-4,0h8M0,-4v8" fill="none" stroke="white" stroke-width="1.5" pointer-events="none"/>
                </g>
                <g id="zoomMin">
                        <use xlink:href="#rim" fill="#404040">
                                <set attributeName="fill" to="#808080" begin="zoomminus.mouseover" end="zoomminus.mouseout"/>
                        </use>
                        <path d="M-4,0h8" fill="none" stroke="white" stroke-width="1.5" pointer-events="none"/>
                </g>
                <g id="dirArrow">
                        <path fill="none" stroke="white" stroke-width="1.5" d="M0,-3.0v7 M-2.5,-0.5L0,-3.0L2.5,-0.5"/>
                </g>
               <g id="resetDef">
                       <use xlink:href="#rim2" fill="#404040">
                               <set attributeName="fill" to="#808080" begin="reset.mouseover" end="reset.mouseout"/>
                       </use>
               </g>
        </defs>

<script type="text/javascript">
var viewWidth = 968;
var viewHeight = 195;
var sectionId = 'dynsection-0';
</script>
<script xlink:href="../../svgpan.js"/>
<svg id="graph" class="graph">
<g id="viewport">
<title>components/omnibox/browser/verbatim_match.h</title>
<polygon fill="white" stroke="transparent" points="-4,4 -4,-191 963.5,-191 963.5,4 -4,4"/>
<!-- Node1 -->
<g id="node1" class="node">
<title>Node1</title>
<g id="a_node1"><a xlink:title=" ">
<polygon fill="#bfbfbf" stroke="black" points="348,-156.5 348,-186.5 483,-186.5 483,-156.5 348,-156.5"/>
<text text-anchor="start" x="356" y="-174.5" font-family="Helvetica,sans-Serif" font-size="10.00">components/omnibox</text>
<text text-anchor="middle" x="415.5" y="-163.5" font-family="Helvetica,sans-Serif" font-size="10.00">/browser/verbatim_match.h</text>
</a>
</g>
</g>
<!-- Node2 -->
<g id="node2" class="node">
<title>Node2</title>
<g id="a_node2"><a xlink:title=" ">
<polygon fill="white" stroke="#bfbfbf" points="0,-11.5 0,-30.5 41,-30.5 41,-11.5 0,-11.5"/>
<text text-anchor="middle" x="20.5" y="-18.5" font-family="Helvetica,sans-Serif" font-size="10.00">string</text>
</a>
</g>
</g>
<!-- Node1&#45;&gt;Node2 -->
<g id="edge1" class="edge">
<title>Node1&#45;&gt;Node2</title>
<path fill="none" stroke="midnightblue" d="M362.76,-156.44C290.26,-136.11 156.73,-95.06 50.5,-42 47.21,-40.36 43.85,-38.41 40.62,-36.39"/>
<polygon fill="midnightblue" stroke="midnightblue" points="42.32,-33.32 32.06,-30.69 38.44,-39.15 42.32,-33.32"/>
</g>
<!-- Node3 -->
<g id="node3" class="node">
<title>Node3</title>
<g id="a_node3"><a xlink:href="../../df/dab/autocomplete__input_8h.html" target="_top" xlink:title=" ">
<polygon fill="white" stroke="black" points="357.5,-78.5 357.5,-119.5 473.5,-119.5 473.5,-78.5 357.5,-78.5"/>
<text text-anchor="start" x="365.5" y="-107.5" font-family="Helvetica,sans-Serif" font-size="10.00">components/omnibox</text>
<text text-anchor="start" x="365.5" y="-96.5" font-family="Helvetica,sans-Serif" font-size="10.00">/browser/autocomplete</text>
<text text-anchor="middle" x="415.5" y="-85.5" font-family="Helvetica,sans-Serif" font-size="10.00">_input.h</text>
</a>
</g>
</g>
<!-- Node1&#45;&gt;Node3 -->
<g id="edge2" class="edge">
<title>Node1&#45;&gt;Node3</title>
<path fill="none" stroke="midnightblue" d="M415.5,-156.23C415.5,-148.57 415.5,-138.84 415.5,-129.63"/>
<polygon fill="midnightblue" stroke="midnightblue" points="419,-129.59 415.5,-119.59 412,-129.59 419,-129.59"/>
</g>
<!-- Node10 -->
<g id="node10" class="node">
<title>Node10</title>
<g id="a_node10"><a xlink:title=" ">
<polygon fill="white" stroke="#bfbfbf" points="905.5,-11.5 905.5,-30.5 959.5,-30.5 959.5,-11.5 905.5,-11.5"/>
<text text-anchor="middle" x="932.5" y="-18.5" font-family="Helvetica,sans-Serif" font-size="10.00">url/gurl.h</text>
</a>
</g>
</g>
<!-- Node1&#45;&gt;Node10 -->
<g id="edge12" class="edge">
<title>Node1&#45;&gt;Node10</title>
<path fill="none" stroke="midnightblue" d="M483.32,-157.88C578.02,-139.03 754.25,-99.49 896.5,-42 900.95,-40.2 905.53,-37.98 909.88,-35.67"/>
<polygon fill="midnightblue" stroke="midnightblue" points="911.87,-38.56 918.88,-30.61 908.44,-32.46 911.87,-38.56"/>
</g>
<!-- Node3&#45;&gt;Node2 -->
<g id="edge4" class="edge">
<title>Node3&#45;&gt;Node2</title>
<path fill="none" stroke="midnightblue" d="M357.45,-92.19C269.1,-82.82 105.34,-63.28 50.5,-42 46.67,-40.51 42.83,-38.48 39.24,-36.27"/>
<polygon fill="midnightblue" stroke="midnightblue" points="41.21,-33.37 30.98,-30.64 37.27,-39.16 41.21,-33.37"/>
</g>
<!-- Node4 -->
<g id="node4" class="node">
<title>Node4</title>
<g id="a_node4"><a xlink:title=" ">
<polygon fill="white" stroke="#bfbfbf" points="59.5,-11.5 59.5,-30.5 111.5,-30.5 111.5,-11.5 59.5,-11.5"/>
<text text-anchor="middle" x="85.5" y="-18.5" font-family="Helvetica,sans-Serif" font-size="10.00">stddef.h</text>
</a>
</g>
</g>
<!-- Node3&#45;&gt;Node4 -->
<g id="edge3" class="edge">
<title>Node3&#45;&gt;Node4</title>
<path fill="none" stroke="midnightblue" d="M357.44,-92.71C296.82,-85.89 199.73,-71.23 120.5,-42 116.02,-40.35 111.44,-38.16 107.14,-35.83"/>
<polygon fill="midnightblue" stroke="midnightblue" points="108.7,-32.69 98.29,-30.68 105.17,-38.73 108.7,-32.69"/>
</g>
<!-- Node5 -->
<g id="node5" class="node">
<title>Node5</title>
<g id="a_node5"><a xlink:title=" ">
<polygon fill="white" stroke="#bfbfbf" points="129.5,-11.5 129.5,-30.5 173.5,-30.5 173.5,-11.5 129.5,-11.5"/>
<text text-anchor="middle" x="151.5" y="-18.5" font-family="Helvetica,sans-Serif" font-size="10.00">vector</text>
</a>
</g>
</g>
<!-- Node3&#45;&gt;Node5 -->
<g id="edge5" class="edge">
<title>Node3&#45;&gt;Node5</title>
<path fill="none" stroke="midnightblue" d="M357.28,-89.61C309.07,-81.36 239.49,-66.39 182.5,-42 178.7,-40.37 174.85,-38.3 171.21,-36.1"/>
<polygon fill="midnightblue" stroke="midnightblue" points="173.04,-33.12 162.76,-30.58 169.21,-38.98 173.04,-33.12"/>
</g>
<!-- Node6 -->
<g id="node6" class="node">
<title>Node6</title>
<g id="a_node6"><a xlink:title=" ">
<polygon fill="white" stroke="#bfbfbf" points="192,-6 192,-36 333,-36 333,-6 192,-6"/>
<text text-anchor="start" x="200" y="-24" font-family="Helvetica,sans-Serif" font-size="10.00">components/search_engines</text>
<text text-anchor="middle" x="262.5" y="-13" font-family="Helvetica,sans-Serif" font-size="10.00">/omnibox_focus_type.h</text>
</a>
</g>
</g>
<!-- Node3&#45;&gt;Node6 -->
<g id="edge6" class="edge">
<title>Node3&#45;&gt;Node6</title>
<path fill="none" stroke="midnightblue" d="M376.1,-78.43C352.75,-66.83 323.33,-52.21 300.27,-40.76"/>
<polygon fill="midnightblue" stroke="midnightblue" points="301.65,-37.54 291.14,-36.23 298.54,-43.81 301.65,-37.54"/>
</g>
<!-- Node7 -->
<g id="node7" class="node">
<title>Node7</title>
<g id="a_node7"><a xlink:title=" ">
<polygon fill="white" stroke="#bfbfbf" points="351.5,-6 351.5,-36 479.5,-36 479.5,-6 351.5,-6"/>
<text text-anchor="start" x="359.5" y="-24" font-family="Helvetica,sans-Serif" font-size="10.00">third_party/abseil</text>
<text text-anchor="middle" x="415.5" y="-13" font-family="Helvetica,sans-Serif" font-size="10.00">&#45;cpp/absl/types/optional.h</text>
</a>
</g>
</g>
<!-- Node3&#45;&gt;Node7 -->
<g id="edge7" class="edge">
<title>Node3&#45;&gt;Node7</title>
<path fill="none" stroke="midnightblue" d="M415.5,-78.43C415.5,-68.64 415.5,-56.69 415.5,-46.31"/>
<polygon fill="midnightblue" stroke="midnightblue" points="419,-46.23 415.5,-36.23 412,-46.23 419,-46.23"/>
</g>
<!-- Node8 -->
<g id="node8" class="node">
<title>Node8</title>
<g id="a_node8"><a xlink:title=" ">
<polygon fill="white" stroke="#bfbfbf" points="497.5,-6 497.5,-36 631.5,-36 631.5,-6 497.5,-6"/>
<text text-anchor="start" x="505.5" y="-24" font-family="Helvetica,sans-Serif" font-size="10.00">third_party/metrics</text>
<text text-anchor="middle" x="564.5" y="-13" font-family="Helvetica,sans-Serif" font-size="10.00">_proto/omnibox_event.pb.h</text>
</a>
</g>
</g>
<!-- Node3&#45;&gt;Node8 -->
<g id="edge8" class="edge">
<title>Node3&#45;&gt;Node8</title>
<path fill="none" stroke="midnightblue" d="M453.87,-78.43C476.51,-66.88 505.01,-52.34 527.42,-40.92"/>
<polygon fill="midnightblue" stroke="midnightblue" points="529.29,-43.89 536.61,-36.23 526.11,-37.65 529.29,-43.89"/>
</g>
<!-- Node9 -->
<g id="node9" class="node">
<title>Node9</title>
<g id="a_node9"><a xlink:title=" ">
<polygon fill="white" stroke="#bfbfbf" points="649.5,-0.5 649.5,-41.5 759.5,-41.5 759.5,-0.5 649.5,-0.5"/>
<text text-anchor="start" x="657.5" y="-29.5" font-family="Helvetica,sans-Serif" font-size="10.00">third_party/metrics</text>
<text text-anchor="start" x="657.5" y="-18.5" font-family="Helvetica,sans-Serif" font-size="10.00">_proto/omnibox_input</text>
<text text-anchor="middle" x="704.5" y="-7.5" font-family="Helvetica,sans-Serif" font-size="10.00">_type.pb.h</text>
</a>
</g>
</g>
<!-- Node3&#45;&gt;Node9 -->
<g id="edge9" class="edge">
<title>Node3&#45;&gt;Node9</title>
<path fill="none" stroke="midnightblue" d="M473.55,-84.55C516.82,-74.29 577.56,-59.42 639.46,-42.22"/>
<polygon fill="midnightblue" stroke="midnightblue" points="640.71,-45.51 649.4,-39.44 638.83,-38.77 640.71,-45.51"/>
</g>
<!-- Node3&#45;&gt;Node10 -->
<g id="edge10" class="edge">
<title>Node3&#45;&gt;Node10</title>
<path fill="none" stroke="midnightblue" d="M473.67,-94.07C583.89,-86.17 819.08,-66.93 896.5,-42 901.43,-40.41 906.45,-38.12 911.12,-35.65"/>
<polygon fill="midnightblue" stroke="midnightblue" points="913.14,-38.53 920.06,-30.51 909.65,-32.46 913.14,-38.53"/>
</g>
<!-- Node11 -->
<g id="node11" class="node">
<title>Node11</title>
<g id="a_node11"><a xlink:title=" ">
<polygon fill="white" stroke="#bfbfbf" points="777.5,-6 777.5,-36 887.5,-36 887.5,-6 777.5,-6"/>
<text text-anchor="start" x="785.5" y="-24" font-family="Helvetica,sans-Serif" font-size="10.00">url/third_party/mozilla</text>
<text text-anchor="middle" x="832.5" y="-13" font-family="Helvetica,sans-Serif" font-size="10.00">/url_parse.h</text>
</a>
</g>
</g>
<!-- Node3&#45;&gt;Node11 -->
<g id="edge11" class="edge">
<title>Node3&#45;&gt;Node11</title>
<path fill="none" stroke="midnightblue" d="M473.78,-91.39C544.19,-82.81 665.94,-66.02 768.5,-42 772.58,-41.04 776.78,-39.96 780.98,-38.81"/>
<polygon fill="midnightblue" stroke="midnightblue" points="782.09,-42.13 790.74,-36.01 780.16,-35.4 782.09,-42.13"/>
</g>
</g>
</svg>
        <g id="navigator" transform="translate(0 0)" fill="#404254">
                <rect fill="#f2f5e9" fill-opacity="0.5" stroke="#606060" stroke-width=".5" x="0" y="0" width="60" height="60"/>
                <use id="zoomplus" xlink:href="#zoomPlus" x="17" y="9" onmousedown="handleZoom(evt,'in')"/>
                <use id="zoomminus" xlink:href="#zoomMin" x="42" y="9" onmousedown="handleZoom(evt,'out')"/>
                <use id="reset" xlink:href="#resetDef" x="30" y="36" onmousedown="handleReset()"/>
                <g id="arrowUp" xlink:href="#dirArrow" transform="translate(30 24)" onmousedown="handlePan(0,-1)">
                  <use xlink:href="#rim" fill="#404040">
                        <set attributeName="fill" to="#808080" begin="arrowUp.mouseover" end="arrowUp.mouseout"/>
                  </use>
                  <path fill="none" stroke="white" stroke-width="1.5" d="M0,-3.0v7 M-2.5,-0.5L0,-3.0L2.5,-0.5"/>
                </g>
                <g id="arrowRight" xlink:href="#dirArrow" transform="rotate(90) translate(36 -43)" onmousedown="handlePan(1,0)">
                  <use xlink:href="#rim" fill="#404040">
                        <set attributeName="fill" to="#808080" begin="arrowRight.mouseover" end="arrowRight.mouseout"/>
                  </use>
                  <path fill="none" stroke="white" stroke-width="1.5" d="M0,-3.0v7 M-2.5,-0.5L0,-3.0L2.5,-0.5"/>
                </g>
                <g id="arrowDown" xlink:href="#dirArrow" transform="rotate(180) translate(-30 -48)" onmousedown="handlePan(0,1)">
                  <use xlink:href="#rim" fill="#404040">
                        <set attributeName="fill" to="#808080" begin="arrowDown.mouseover" end="arrowDown.mouseout"/>
                  </use>
                  <path fill="none" stroke="white" stroke-width="1.5" d="M0,-3.0v7 M-2.5,-0.5L0,-3.0L2.5,-0.5"/>
                </g>
                <g id="arrowLeft" xlink:href="#dirArrow" transform="rotate(270) translate(-36 17)" onmousedown="handlePan(-1,0)">
                  <use xlink:href="#rim" fill="#404040">
                        <set attributeName="fill" to="#808080" begin="arrowLeft.mouseover" end="arrowLeft.mouseout"/>
                  </use>
                  <path fill="none" stroke="white" stroke-width="1.5" d="M0,-3.0v7 M-2.5,-0.5L0,-3.0L2.5,-0.5"/>
                </g>
        </g>
        <svg viewBox="0 0 15 15" width="100%" height="30px" preserveAspectRatio="xMaxYMin meet">
         <g id="arrow_out" transform="scale(0.3 0.3)">
          <a xlink:href="verbatim__match_8h__incl_org.svg" target="_base">
           <rect id="button" ry="5" rx="5" y="6" x="6" height="38" width="38"
                fill="#f2f5e9" fill-opacity="0.5" stroke="#606060" stroke-width="1.0"/>
           <path id="arrow"
             d="M 11.500037,31.436501 C 11.940474,20.09759 22.043105,11.32322 32.158766,21.979434 L 37.068811,17.246167 C 37.068811,17.246167 37.088388,32 37.088388,32 L 22.160133,31.978069 C 22.160133,31.978069 26.997745,27.140456 26.997745,27.140456 C 18.528582,18.264221 13.291696,25.230495 11.500037,31.436501 z"
             style="fill:#404040;"/>
          </a>
         </g>
        </svg>
</svg>
