<?xml version="1.0" encoding="UTF-8" standalone="no"?>
<!DOCTYPE svg PUBLIC "-//W3C//DTD SVG 1.1//EN"
 "http://www.w3.org/Graphics/SVG/1.1/DTD/svg11.dtd">
<!-- Generated by graphviz version 2.43.0 (0)
 -->
<!-- Title: components/omnibox/browser/verbatim_match.h Pages: 1 -->
<svg width="1108pt" height="195pt"
 viewBox="0.00 0.00 1107.50 195.00" xmlns="http://www.w3.org/2000/svg" xmlns:xlink="http://www.w3.org/1999/xlink">
<g id="graph0" class="graph" transform="scale(1 1) rotate(0) translate(4 191)">
<title>components/omnibox/browser/verbatim_match.h</title>
<polygon fill="white" stroke="transparent" points="-4,4 -4,-191 1103.5,-191 1103.5,4 -4,4"/>
<!-- Node1 -->
<g id="node1" class="node">
<title>Node1</title>
<g id="a_node1"><a xlink:title=" ">
<polygon fill="#bfbfbf" stroke="black" points="422,-156.5 422,-186.5 557,-186.5 557,-156.5 422,-156.5"/>
<text text-anchor="start" x="430" y="-174.5" font-family="Helvetica,sans-Serif" font-size="10.00">components/omnibox</text>
<text text-anchor="middle" x="489.5" y="-163.5" font-family="Helvetica,sans-Serif" font-size="10.00">/browser/verbatim_match.h</text>
</a>
</g>
</g>
<!-- Node2 -->
<g id="node2" class="node">
<title>Node2</title>
<g id="a_node2"><a xlink:title=" ">
<polygon fill="white" stroke="#bfbfbf" points="0,-11.5 0,-30.5 41,-30.5 41,-11.5 0,-11.5"/>
<text text-anchor="middle" x="20.5" y="-18.5" font-family="Helvetica,sans-Serif" font-size="10.00">string</text>
</a>
</g>
</g>
<!-- Node1&#45;&gt;Node2 -->
<g id="edge1" class="edge">
<title>Node1&#45;&gt;Node2</title>
<path fill="none" stroke="midnightblue" d="M421.78,-157.37C333.53,-138.78 175.73,-100.4 50.5,-42 47,-40.37 43.45,-38.37 40.08,-36.26"/>
<polygon fill="midnightblue" stroke="midnightblue" points="41.95,-33.31 31.7,-30.65 38.06,-39.12 41.95,-33.31"/>
</g>
<!-- Node3 -->
<g id="node3" class="node">
<title>Node3</title>
<g id="a_node3"><a xlink:href="../../df/dab/autocomplete__input_8h.html" target="_top" xlink:title=" ">
<polygon fill="white" stroke="black" points="431.5,-78.5 431.5,-119.5 547.5,-119.5 547.5,-78.5 431.5,-78.5"/>
<text text-anchor="start" x="439.5" y="-107.5" font-family="Helvetica,sans-Serif" font-size="10.00">components/omnibox</text>
<text text-anchor="start" x="439.5" y="-96.5" font-family="Helvetica,sans-Serif" font-size="10.00">/browser/autocomplete</text>
<text text-anchor="middle" x="489.5" y="-85.5" font-family="Helvetica,sans-Serif" font-size="10.00">_input.h</text>
</a>
</g>
</g>
<!-- Node1&#45;&gt;Node3 -->
<g id="edge2" class="edge">
<title>Node1&#45;&gt;Node3</title>
<path fill="none" stroke="midnightblue" d="M489.5,-156.23C489.5,-148.57 489.5,-138.84 489.5,-129.63"/>
<polygon fill="midnightblue" stroke="midnightblue" points="493,-129.59 489.5,-119.59 486,-129.59 493,-129.59"/>
</g>
<!-- Node11 -->
<g id="node11" class="node">
<title>Node11</title>
<g id="a_node11"><a xlink:title=" ">
<polygon fill="white" stroke="#bfbfbf" points="1045.5,-11.5 1045.5,-30.5 1099.5,-30.5 1099.5,-11.5 1045.5,-11.5"/>
<text text-anchor="middle" x="1072.5" y="-18.5" font-family="Helvetica,sans-Serif" font-size="10.00">url/gurl.h</text>
</a>
</g>
</g>
<!-- Node1&#45;&gt;Node11 -->
<g id="edge13" class="edge">
<title>Node1&#45;&gt;Node11</title>
<path fill="none" stroke="midnightblue" d="M557.38,-160.75C662.59,-144.27 870.22,-106.29 1036.5,-42 1041.17,-40.19 1045.98,-37.88 1050.51,-35.47"/>
<polygon fill="midnightblue" stroke="midnightblue" points="1052.28,-38.49 1059.25,-30.52 1048.83,-32.4 1052.28,-38.49"/>
</g>
<!-- Node3&#45;&gt;Node2 -->
<g id="edge4" class="edge">
<title>Node3&#45;&gt;Node2</title>
<path fill="none" stroke="midnightblue" d="M431.3,-92.08C320.12,-80.54 85.45,-55.05 50.5,-42 46.59,-40.54 42.68,-38.48 39.03,-36.24"/>
<polygon fill="midnightblue" stroke="midnightblue" points="40.9,-33.27 30.67,-30.51 36.94,-39.05 40.9,-33.27"/>
</g>
<!-- Node4 -->
<g id="node4" class="node">
<title>Node4</title>
<g id="a_node4"><a xlink:title=" ">
<polygon fill="white" stroke="#bfbfbf" points="59.5,-11.5 59.5,-30.5 111.5,-30.5 111.5,-11.5 59.5,-11.5"/>
<text text-anchor="middle" x="85.5" y="-18.5" font-family="Helvetica,sans-Serif" font-size="10.00">stddef.h</text>
</a>
</g>
</g>
<!-- Node3&#45;&gt;Node4 -->
<g id="edge3" class="edge">
<title>Node3&#45;&gt;Node4</title>
<path fill="none" stroke="midnightblue" d="M431.35,-95.76C357.29,-91.43 226.22,-78.79 120.5,-42 115.91,-40.4 111.24,-38.2 106.87,-35.85"/>
<polygon fill="midnightblue" stroke="midnightblue" points="108.32,-32.64 97.92,-30.6 104.78,-38.68 108.32,-32.64"/>
</g>
<!-- Node5 -->
<g id="node5" class="node">
<title>Node5</title>
<g id="a_node5"><a xlink:title=" ">
<polygon fill="white" stroke="#bfbfbf" points="129.5,-11.5 129.5,-30.5 173.5,-30.5 173.5,-11.5 129.5,-11.5"/>
<text text-anchor="middle" x="151.5" y="-18.5" font-family="Helvetica,sans-Serif" font-size="10.00">vector</text>
</a>
</g>
</g>
<!-- Node3&#45;&gt;Node5 -->
<g id="edge5" class="edge">
<title>Node3&#45;&gt;Node5</title>
<path fill="none" stroke="midnightblue" d="M431.35,-94.19C368.19,-88.52 265.25,-74.73 182.5,-42 178.59,-40.45 174.65,-38.39 170.95,-36.17"/>
<polygon fill="midnightblue" stroke="midnightblue" points="172.68,-33.11 162.4,-30.54 168.83,-38.96 172.68,-33.11"/>
</g>
<!-- Node6 -->
<g id="node6" class="node">
<title>Node6</title>
<g id="a_node6"><a xlink:title=" ">
<polygon fill="white" stroke="#bfbfbf" points="192,-6 192,-36 333,-36 333,-6 192,-6"/>
<text text-anchor="start" x="200" y="-24" font-family="Helvetica,sans-Serif" font-size="10.00">components/search_engines</text>
<text text-anchor="middle" x="262.5" y="-13" font-family="Helvetica,sans-Serif" font-size="10.00">/omnibox_focus_type.h</text>
</a>
</g>
</g>
<!-- Node3&#45;&gt;Node6 -->
<g id="edge6" class="edge">
<title>Node3&#45;&gt;Node6</title>
<path fill="none" stroke="midnightblue" d="M431.34,-78.53C395.07,-66.39 348.84,-50.91 313.92,-39.22"/>
<polygon fill="midnightblue" stroke="midnightblue" points="314.98,-35.88 304.39,-36.02 312.76,-42.52 314.98,-35.88"/>
</g>
<!-- Node7 -->
<g id="node7" class="node">
<title>Node7</title>
<g id="a_node7"><a xlink:title=" ">
<polygon fill="white" stroke="#bfbfbf" points="351.5,-6 351.5,-36 479.5,-36 479.5,-6 351.5,-6"/>
<text text-anchor="start" x="359.5" y="-24" font-family="Helvetica,sans-Serif" font-size="10.00">third_party/abseil</text>
<text text-anchor="middle" x="415.5" y="-13" font-family="Helvetica,sans-Serif" font-size="10.00">&#45;cpp/absl/types/optional.h</text>
</a>
</g>
</g>
<!-- Node3&#45;&gt;Node7 -->
<g id="edge7" class="edge">
<title>Node3&#45;&gt;Node7</title>
<path fill="none" stroke="midnightblue" d="M470.44,-78.43C460,-67.71 447.05,-54.41 436.35,-43.41"/>
<polygon fill="midnightblue" stroke="midnightblue" points="438.83,-40.95 429.35,-36.23 433.82,-45.83 438.83,-40.95"/>
</g>
<!-- Node8 -->
<g id="node8" class="node">
<title>Node8</title>
<g id="a_node8"><a xlink:title=" ">
<polygon fill="white" stroke="#bfbfbf" points="497.5,-6 497.5,-36 631.5,-36 631.5,-6 497.5,-6"/>
<text text-anchor="start" x="505.5" y="-24" font-family="Helvetica,sans-Serif" font-size="10.00">third_party/metrics</text>
<text text-anchor="middle" x="564.5" y="-13" font-family="Helvetica,sans-Serif" font-size="10.00">_proto/omnibox_event.pb.h</text>
</a>
</g>
</g>
<!-- Node3&#45;&gt;Node8 -->
<g id="edge8" class="edge">
<title>Node3&#45;&gt;Node8</title>
<path fill="none" stroke="midnightblue" d="M508.81,-78.43C519.39,-67.71 532.52,-54.41 543.37,-43.41"/>
<polygon fill="midnightblue" stroke="midnightblue" points="545.93,-45.8 550.46,-36.23 540.95,-40.88 545.93,-45.8"/>
</g>
<!-- Node9 -->
<g id="node9" class="node">
<title>Node9</title>
<g id="a_node9"><a xlink:title=" ">
<polygon fill="white" stroke="#bfbfbf" points="649.5,-0.5 649.5,-41.5 759.5,-41.5 759.5,-0.5 649.5,-0.5"/>
<text text-anchor="start" x="657.5" y="-29.5" font-family="Helvetica,sans-Serif" font-size="10.00">third_party/metrics</text>
<text text-anchor="start" x="657.5" y="-18.5" font-family="Helvetica,sans-Serif" font-size="10.00">_proto/omnibox_input</text>
<text text-anchor="middle" x="704.5" y="-7.5" font-family="Helvetica,sans-Serif" font-size="10.00">_type.pb.h</text>
</a>
</g>
</g>
<!-- Node3&#45;&gt;Node9 -->
<g id="edge9" class="edge">
<title>Node3&#45;&gt;Node9</title>
<path fill="none" stroke="midnightblue" d="M544.87,-78.43C573.83,-68.19 609.46,-55.59 639.7,-44.9"/>
<polygon fill="midnightblue" stroke="midnightblue" points="641.06,-48.14 649.32,-41.51 638.72,-41.54 641.06,-48.14"/>
</g>
<!-- Node10 -->
<g id="node10" class="node">
<title>Node10</title>
<g id="a_node10"><a xlink:title=" ">
<polygon fill="white" stroke="#bfbfbf" points="778,-0.5 778,-41.5 899,-41.5 899,-0.5 778,-0.5"/>
<text text-anchor="start" x="786" y="-29.5" font-family="Helvetica,sans-Serif" font-size="10.00">third_party/perfetto</text>
<text text-anchor="start" x="786" y="-18.5" font-family="Helvetica,sans-Serif" font-size="10.00">/include/perfetto/tracing</text>
<text text-anchor="middle" x="838.5" y="-7.5" font-family="Helvetica,sans-Serif" font-size="10.00">/traced_value_forward.h</text>
</a>
</g>
</g>
<!-- Node3&#45;&gt;Node10 -->
<g id="edge10" class="edge">
<title>Node3&#45;&gt;Node10</title>
<path fill="none" stroke="midnightblue" d="M547.51,-87.76C601.99,-77.83 685.95,-61.7 768.12,-42"/>
<polygon fill="midnightblue" stroke="midnightblue" points="768.98,-45.4 777.87,-39.64 767.33,-38.59 768.98,-45.4"/>
</g>
<!-- Node3&#45;&gt;Node11 -->
<g id="edge11" class="edge">
<title>Node3&#45;&gt;Node11</title>
<path fill="none" stroke="midnightblue" d="M547.59,-95.02C669.13,-88.3 946.46,-70.3 1036.5,-42 1041.44,-40.45 1046.47,-38.17 1051.14,-35.71"/>
<polygon fill="midnightblue" stroke="midnightblue" points="1053.16,-38.58 1060.08,-30.55 1049.66,-32.52 1053.16,-38.58"/>
</g>
<!-- Node12 -->
<g id="node12" class="node">
<title>Node12</title>
<g id="a_node12"><a xlink:title=" ">
<polygon fill="white" stroke="#bfbfbf" points="917.5,-6 917.5,-36 1027.5,-36 1027.5,-6 917.5,-6"/>
<text text-anchor="start" x="925.5" y="-24" font-family="Helvetica,sans-Serif" font-size="10.00">url/third_party/mozilla</text>
<text text-anchor="middle" x="972.5" y="-13" font-family="Helvetica,sans-Serif" font-size="10.00">/url_parse.h</text>
</a>
</g>
</g>
<!-- Node3&#45;&gt;Node12 -->
<g id="edge12" class="edge">
<title>Node3&#45;&gt;Node12</title>
<path fill="none" stroke="midnightblue" d="M547.65,-93.38C629.07,-86.19 781.31,-70.16 908.5,-42 912.66,-41.08 916.93,-40.01 921.2,-38.86"/>
<polygon fill="midnightblue" stroke="midnightblue" points="922.45,-42.15 931.12,-36.06 920.54,-35.41 922.45,-42.15"/>
</g>
</g>
</svg>
