<?xml version="1.0" encoding="UTF-8" standalone="no"?>
<!DOCTYPE svg PUBLIC "-//W3C//DTD SVG 1.1//EN"
 "http://www.w3.org/Graphics/SVG/1.1/DTD/svg11.dtd">
<!-- Generated by graphviz version 2.43.0 (0)
 -->
<!-- Title: OmniboxPedal::EstimateMemoryUsage Pages: 1 -->
<svg width="524pt" height="61pt"
 viewBox="0.00 0.00 524.00 61.00" xmlns="http://www.w3.org/2000/svg" xmlns:xlink="http://www.w3.org/1999/xlink">
<g id="graph0" class="graph" transform="scale(1 1) rotate(0) translate(4 57)">
<title>OmniboxPedal::EstimateMemoryUsage</title>
<polygon fill="white" stroke="transparent" points="-4,4 -4,-57 520,-57 520,4 -4,4"/>
<!-- Node1 -->
<g id="node1" class="node">
<title>Node1</title>
<g id="a_node1"><a xlink:title=" ">
<polygon fill="#bfbfbf" stroke="black" points="0,-0.5 0,-30.5 161,-30.5 161,-0.5 0,-0.5"/>
<text text-anchor="start" x="8" y="-18.5" font-family="Helvetica,sans-Serif" font-size="10.00">OmniboxPedal::EstimateMemory</text>
<text text-anchor="middle" x="80.5" y="-7.5" font-family="Helvetica,sans-Serif" font-size="10.00">Usage</text>
</a>
</g>
</g>
<!-- Node2 -->
<g id="node2" class="node">
<title>Node2</title>
<g id="a_node2"><a xlink:href="../../d9/d8f/classOmniboxAction.html#a985888c8ce73d277aff32dd65211fcf2" target="_top" xlink:title=" ">
<polygon fill="white" stroke="black" points="197,-22.5 197,-52.5 361,-52.5 361,-22.5 197,-22.5"/>
<text text-anchor="start" x="205" y="-40.5" font-family="Helvetica,sans-Serif" font-size="10.00">OmniboxAction::EstimateMemory</text>
<text text-anchor="middle" x="279" y="-29.5" font-family="Helvetica,sans-Serif" font-size="10.00">Usage</text>
</a>
</g>
</g>
<!-- Node1&#45;&gt;Node2 -->
<g id="edge1" class="edge">
<title>Node1&#45;&gt;Node2</title>
<path fill="none" stroke="midnightblue" d="M161.14,-24.42C169.63,-25.37 178.31,-26.34 186.91,-27.3"/>
<polygon fill="midnightblue" stroke="midnightblue" points="186.64,-30.79 196.97,-28.43 187.42,-23.84 186.64,-30.79"/>
</g>
<!-- Node3 -->
<g id="node3" class="node">
<title>Node3</title>
<g id="a_node3"><a xlink:href="../../df/dd9/namespacebase_1_1trace__event.html#a6ce8ababd9f2b98ee425139f6bd388c5" target="_top" xlink:title=" ">
<polygon fill="white" stroke="black" points="397,-0.5 397,-30.5 516,-30.5 516,-0.5 397,-0.5"/>
<text text-anchor="start" x="405" y="-18.5" font-family="Helvetica,sans-Serif" font-size="10.00">base::trace_event::</text>
<text text-anchor="middle" x="456.5" y="-7.5" font-family="Helvetica,sans-Serif" font-size="10.00">EstimateMemoryUsage</text>
</a>
</g>
</g>
<!-- Node1&#45;&gt;Node3 -->
<g id="edge3" class="edge">
<title>Node1&#45;&gt;Node3</title>
<path fill="none" stroke="midnightblue" d="M161.03,-13.94C173.08,-13.76 185.37,-13.6 197,-13.5 269.89,-12.87 288.12,-12.73 361,-13.5 369.31,-13.59 378.04,-13.72 386.69,-13.87"/>
<polygon fill="midnightblue" stroke="midnightblue" points="386.71,-17.37 396.78,-14.06 386.84,-10.38 386.71,-17.37"/>
</g>
<!-- Node2&#45;&gt;Node3 -->
<g id="edge2" class="edge">
<title>Node2&#45;&gt;Node3</title>
<path fill="none" stroke="midnightblue" d="M361.07,-27.34C369.63,-26.26 378.27,-25.18 386.67,-24.13"/>
<polygon fill="midnightblue" stroke="midnightblue" points="387.28,-27.58 396.77,-22.86 386.41,-20.63 387.28,-27.58"/>
</g>
</g>
</svg>
