<?xml version="1.0" encoding="UTF-8" standalone="no"?>
<!DOCTYPE svg PUBLIC "-//W3C//DTD SVG 1.1//EN"
 "http://www.w3.org/Graphics/SVG/1.1/DTD/svg11.dtd">
<!-- Generated by graphviz version 2.43.0 (0)
 -->
<!-- Title: OmniboxPedal::id Pages: 1 -->
<svg width="2908pt" height="453pt"
 viewBox="0.00 0.00 2908.00 453.00" xmlns="http://www.w3.org/2000/svg" xmlns:xlink="http://www.w3.org/1999/xlink">
<g id="graph0" class="graph" transform="scale(1 1) rotate(0) translate(4 449)">
<title>OmniboxPedal::id</title>
<polygon fill="white" stroke="transparent" points="-4,4 -4,-449 2904,-449 2904,4 -4,4"/>
<!-- Node1 -->
<g id="node1" class="node">
<title>Node1</title>
<g id="a_node1"><a xlink:title=" ">
<polygon fill="#bfbfbf" stroke="black" points="2806,-74 2806,-93 2900,-93 2900,-74 2806,-74"/>
<text text-anchor="middle" x="2853" y="-81" font-family="Helvetica,sans-Serif" font-size="10.00">OmniboxPedal::id</text>
</a>
</g>
</g>
<!-- Node2 -->
<g id="node2" class="node">
<title>Node2</title>
<g id="a_node2"><a xlink:href="../../d5/de6/classOmniboxPedal_1_1TokenSequence.html#a16976cda1ce1c50d3ba007d20c428b92" target="_top" xlink:title=" ">
<polygon fill="white" stroke="black" points="2591,-137 2591,-156 2770,-156 2770,-137 2591,-137"/>
<text text-anchor="middle" x="2680.5" y="-144" font-family="Helvetica,sans-Serif" font-size="10.00">OmniboxPedal::TokenSequence::Add</text>
</a>
</g>
</g>
<!-- Node1&#45;&gt;Node2 -->
<g id="edge1" class="edge">
<title>Node1&#45;&gt;Node2</title>
<path fill="none" stroke="midnightblue" d="M2824.34,-97.66C2808.65,-105.34 2788.52,-114.64 2770,-121.5 2753.98,-127.43 2735.89,-132.77 2720.26,-136.98"/>
<polygon fill="midnightblue" stroke="midnightblue" points="2826.07,-100.7 2833.47,-93.12 2822.96,-94.43 2826.07,-100.7"/>
</g>
<!-- Node40 -->
<g id="node40" class="node">
<title>Node40</title>
<g id="a_node40"><a xlink:href="../../d4/de9/classOmniboxPedal.html#a4ae11f1316374dfb06ec993d2fbd9435" target="_top" xlink:title=" ">
<polygon fill="white" stroke="black" points="2624,-93 2624,-112 2737,-112 2737,-93 2624,-93"/>
<text text-anchor="middle" x="2680.5" y="-100" font-family="Helvetica,sans-Serif" font-size="10.00">OmniboxPedal::GetID</text>
</a>
</g>
</g>
<!-- Node1&#45;&gt;Node40 -->
<g id="edge45" class="edge">
<title>Node1&#45;&gt;Node40</title>
<path fill="none" stroke="midnightblue" d="M2795.91,-89.75C2777.01,-91.86 2755.94,-94.2 2737.09,-96.31"/>
<polygon fill="midnightblue" stroke="midnightblue" points="2796.31,-93.23 2805.86,-88.64 2795.53,-86.27 2796.31,-93.23"/>
</g>
<!-- Node41 -->
<g id="node41" class="node">
<title>Node41</title>
<g id="a_node41"><a xlink:href="../../d4/de9/classOmniboxPedal.html#ad34b48d151e84a140c584a32ea392bae" target="_top" xlink:title=" ">
<polygon fill="white" stroke="black" points="2609,-55 2609,-74 2752,-74 2752,-55 2609,-55"/>
<text text-anchor="middle" x="2680.5" y="-62" font-family="Helvetica,sans-Serif" font-size="10.00">OmniboxPedal::GetMetricsId</text>
</a>
</g>
</g>
<!-- Node1&#45;&gt;Node41 -->
<g id="edge46" class="edge">
<title>Node1&#45;&gt;Node41</title>
<path fill="none" stroke="midnightblue" d="M2795.89,-77.25C2781.87,-75.69 2766.66,-73.99 2752.04,-72.36"/>
<polygon fill="midnightblue" stroke="midnightblue" points="2795.53,-80.73 2805.86,-78.36 2796.31,-73.77 2795.53,-80.73"/>
</g>
<!-- Node44 -->
<g id="node44" class="node">
<title>Node44</title>
<g id="a_node44"><a xlink:href="../../da/de7/classOmniboxPedalClearBrowsingData.html#ab8cd18c329fd3255e7a23fd243587a25" target="_top" xlink:title=" ">
<polygon fill="white" stroke="black" points="2608.5,-5.5 2608.5,-35.5 2752.5,-35.5 2752.5,-5.5 2608.5,-5.5"/>
<text text-anchor="start" x="2616.5" y="-23.5" font-family="Helvetica,sans-Serif" font-size="10.00">OmniboxPedalClearBrowsing</text>
<text text-anchor="middle" x="2680.5" y="-12.5" font-family="Helvetica,sans-Serif" font-size="10.00">Data::GetMetricsId</text>
</a>
</g>
</g>
<!-- Node1&#45;&gt;Node44 -->
<g id="edge49" class="edge">
<title>Node1&#45;&gt;Node44</title>
<path fill="none" stroke="midnightblue" d="M2824.34,-69.34C2808.65,-61.66 2788.52,-52.36 2770,-45.5 2760.42,-41.95 2750.1,-38.62 2740,-35.61"/>
<polygon fill="midnightblue" stroke="midnightblue" points="2822.96,-72.57 2833.47,-73.88 2826.07,-66.3 2822.96,-72.57"/>
</g>
<!-- Node3 -->
<g id="node3" class="node">
<title>Node3</title>
<g id="a_node3"><a xlink:href="../../d6/dea/classOmniboxPedalProvider.html#a8eb768572bd7fcfb3af89d31ea6e423b" target="_top" xlink:title=" ">
<polygon fill="white" stroke="black" points="2227,-78.5 2227,-108.5 2362,-108.5 2362,-78.5 2227,-78.5"/>
<text text-anchor="start" x="2235" y="-96.5" font-family="Helvetica,sans-Serif" font-size="10.00">OmniboxPedalProvider</text>
<text text-anchor="middle" x="2294.5" y="-85.5" font-family="Helvetica,sans-Serif" font-size="10.00">::LoadSynonymGroupValue</text>
</a>
</g>
</g>
<!-- Node2&#45;&gt;Node3 -->
<g id="edge2" class="edge">
<title>Node2&#45;&gt;Node3</title>
<path fill="none" stroke="midnightblue" d="M2604.54,-135.54C2588.22,-133.19 2571.03,-130.74 2555,-128.5 2489.49,-119.35 2414.62,-109.29 2362.19,-102.32"/>
<polygon fill="midnightblue" stroke="midnightblue" points="2604.18,-139.03 2614.58,-136.99 2605.18,-132.1 2604.18,-139.03"/>
</g>
<!-- Node7 -->
<g id="node7" class="node">
<title>Node7</title>
<g id="a_node7"><a xlink:href="../../d6/dea/classOmniboxPedalProvider.html#aadf4c378aa04749abe0178d33d6f356b" target="_top" xlink:title=" ">
<polygon fill="white" stroke="black" points="2419,-205.5 2419,-235.5 2535,-235.5 2535,-205.5 2419,-205.5"/>
<text text-anchor="start" x="2427" y="-223.5" font-family="Helvetica,sans-Serif" font-size="10.00">OmniboxPedalProvider</text>
<text text-anchor="middle" x="2477" y="-212.5" font-family="Helvetica,sans-Serif" font-size="10.00">::Tokenize</text>
</a>
</g>
</g>
<!-- Node2&#45;&gt;Node7 -->
<g id="edge6" class="edge">
<title>Node2&#45;&gt;Node7</title>
<path fill="none" stroke="midnightblue" d="M2643.8,-159.61C2608.92,-172.42 2555.86,-191.91 2519.2,-205.37"/>
<polygon fill="midnightblue" stroke="midnightblue" points="2645.39,-162.76 2653.57,-156.02 2642.98,-156.18 2645.39,-162.76"/>
</g>
<!-- Node38 -->
<g id="node38" class="node">
<title>Node38</title>
<g id="a_node38"><a xlink:href="../../d6/dea/classOmniboxPedalProvider.html#a5861d9f977203ab9939aac1fcc63b2f3" target="_top" xlink:title=" ">
<polygon fill="white" stroke="black" points="2399,-137.5 2399,-167.5 2555,-167.5 2555,-137.5 2399,-137.5"/>
<text text-anchor="start" x="2407" y="-155.5" font-family="Helvetica,sans-Serif" font-size="10.00">OmniboxPedalProvider</text>
<text text-anchor="middle" x="2477" y="-144.5" font-family="Helvetica,sans-Serif" font-size="10.00">::TokenizeAndExpandDictionary</text>
</a>
</g>
</g>
<!-- Node2&#45;&gt;Node38 -->
<g id="edge41" class="edge">
<title>Node2&#45;&gt;Node38</title>
<path fill="none" stroke="midnightblue" d="M2580.72,-149.44C2572.09,-149.7 2563.44,-149.96 2555.03,-150.21"/>
<polygon fill="midnightblue" stroke="midnightblue" points="2580.93,-152.94 2590.83,-149.14 2580.73,-145.94 2580.93,-152.94"/>
</g>
<!-- Node4 -->
<g id="node4" class="node">
<title>Node4</title>
<g id="a_node4"><a xlink:href="../../d6/dea/classOmniboxPedalProvider.html#a0bd5fe3f161da3546849e4faa484ab3c" target="_top" xlink:title=" ">
<polygon fill="white" stroke="black" points="2071,-127.5 2071,-157.5 2187,-157.5 2187,-127.5 2071,-127.5"/>
<text text-anchor="start" x="2079" y="-145.5" font-family="Helvetica,sans-Serif" font-size="10.00">OmniboxPedalProvider</text>
<text text-anchor="middle" x="2129" y="-134.5" font-family="Helvetica,sans-Serif" font-size="10.00">::LoadPedalConcepts</text>
</a>
</g>
</g>
<!-- Node3&#45;&gt;Node4 -->
<g id="edge3" class="edge">
<title>Node3&#45;&gt;Node4</title>
<path fill="none" stroke="midnightblue" d="M2233.06,-111.61C2215.68,-116.82 2196.92,-122.45 2180.22,-127.45"/>
<polygon fill="midnightblue" stroke="midnightblue" points="2234.54,-114.82 2243.11,-108.6 2232.53,-108.12 2234.54,-114.82"/>
</g>
<!-- Node5 -->
<g id="node5" class="node">
<title>Node5</title>
<g id="a_node5"><a xlink:href="../../d6/dea/classOmniboxPedalProvider.html#aac587d07bb182c56eefe728e7654c1ec" target="_top" xlink:title=" ">
<polygon fill="white" stroke="black" points="1906.5,-127.5 1906.5,-157.5 2028.5,-157.5 2028.5,-127.5 1906.5,-127.5"/>
<text text-anchor="start" x="1914.5" y="-145.5" font-family="Helvetica,sans-Serif" font-size="10.00">OmniboxPedalProvider</text>
<text text-anchor="middle" x="1967.5" y="-134.5" font-family="Helvetica,sans-Serif" font-size="10.00">::OmniboxPedalProvider</text>
</a>
</g>
</g>
<!-- Node4&#45;&gt;Node5 -->
<g id="edge4" class="edge">
<title>Node4&#45;&gt;Node5</title>
<path fill="none" stroke="midnightblue" d="M2060.79,-142.5C2050.15,-142.5 2039.2,-142.5 2028.74,-142.5"/>
<polygon fill="midnightblue" stroke="midnightblue" points="2060.87,-146 2070.87,-142.5 2060.87,-139 2060.87,-146"/>
</g>
<!-- Node6 -->
<g id="node6" class="node">
<title>Node6</title>
<g id="a_node6"><a xlink:href="../../d5/dfc/classMockAutocompleteProviderClient.html#adbd27317c195d16980fdfd8722952006" target="_top" xlink:title=" ">
<polygon fill="white" stroke="black" points="1699,-122 1699,-163 1867,-163 1867,-122 1699,-122"/>
<text text-anchor="start" x="1707" y="-151" font-family="Helvetica,sans-Serif" font-size="10.00">MockAutocompleteProvider</text>
<text text-anchor="start" x="1707" y="-140" font-family="Helvetica,sans-Serif" font-size="10.00">Client::MockAutocompleteProvider</text>
<text text-anchor="middle" x="1783" y="-129" font-family="Helvetica,sans-Serif" font-size="10.00">Client</text>
</a>
</g>
</g>
<!-- Node5&#45;&gt;Node6 -->
<g id="edge5" class="edge">
<title>Node5&#45;&gt;Node6</title>
<path fill="none" stroke="midnightblue" d="M1896.3,-142.5C1886.78,-142.5 1876.93,-142.5 1867.21,-142.5"/>
<polygon fill="midnightblue" stroke="midnightblue" points="1896.49,-146 1906.49,-142.5 1896.49,-139 1896.49,-146"/>
</g>
<!-- Node8 -->
<g id="node8" class="node">
<title>Node8</title>
<g id="a_node8"><a xlink:href="../../d6/dea/classOmniboxPedalProvider.html#a733ee803093783d0394e50aff09819e8" target="_top" xlink:title=" ">
<polygon fill="white" stroke="black" points="2236.5,-215.5 2236.5,-245.5 2352.5,-245.5 2352.5,-215.5 2236.5,-215.5"/>
<text text-anchor="start" x="2244.5" y="-233.5" font-family="Helvetica,sans-Serif" font-size="10.00">OmniboxPedalProvider</text>
<text text-anchor="middle" x="2294.5" y="-222.5" font-family="Helvetica,sans-Serif" font-size="10.00">::FindPedalMatch</text>
</a>
</g>
</g>
<!-- Node7&#45;&gt;Node8 -->
<g id="edge7" class="edge">
<title>Node7&#45;&gt;Node8</title>
<path fill="none" stroke="midnightblue" d="M2408.78,-224.22C2390.29,-225.25 2370.41,-226.35 2352.55,-227.34"/>
<polygon fill="midnightblue" stroke="midnightblue" points="2409.1,-227.71 2418.89,-223.66 2408.71,-220.72 2409.1,-227.71"/>
</g>
<!-- Node9 -->
<g id="node9" class="node">
<title>Node9</title>
<g id="a_node9"><a xlink:href="../../d6/dea/classOmniboxPedalProvider.html#a39a4fa25c20669c7ca3f0b91a7f9029e" target="_top" xlink:title=" ">
<polygon fill="white" stroke="black" points="2068,-215.5 2068,-245.5 2190,-245.5 2190,-215.5 2068,-215.5"/>
<text text-anchor="start" x="2076" y="-233.5" font-family="Helvetica,sans-Serif" font-size="10.00">OmniboxPedalProvider</text>
<text text-anchor="middle" x="2129" y="-222.5" font-family="Helvetica,sans-Serif" font-size="10.00">::FindReadyPedalMatch</text>
</a>
</g>
</g>
<!-- Node8&#45;&gt;Node9 -->
<g id="edge8" class="edge">
<title>Node8&#45;&gt;Node9</title>
<path fill="none" stroke="midnightblue" d="M2226.02,-230.5C2214.15,-230.5 2201.86,-230.5 2190.21,-230.5"/>
<polygon fill="midnightblue" stroke="midnightblue" points="2226.32,-234 2236.32,-230.5 2226.32,-227 2226.32,-234"/>
</g>
<!-- Node10 -->
<g id="node10" class="node">
<title>Node10</title>
<g id="a_node10"><a xlink:href="../../d3/d03/classAutocompleteResult.html#a859e254b656aae5c4f55dfd923e3e75a" target="_top" xlink:title=" ">
<polygon fill="white" stroke="black" points="1903,-215.5 1903,-245.5 2032,-245.5 2032,-215.5 1903,-215.5"/>
<text text-anchor="start" x="1911" y="-233.5" font-family="Helvetica,sans-Serif" font-size="10.00">AutocompleteResult</text>
<text text-anchor="middle" x="1967.5" y="-222.5" font-family="Helvetica,sans-Serif" font-size="10.00">::AttachPedalsToMatches</text>
</a>
</g>
</g>
<!-- Node9&#45;&gt;Node10 -->
<g id="edge9" class="edge">
<title>Node9&#45;&gt;Node10</title>
<path fill="none" stroke="midnightblue" d="M2057.48,-230.5C2049.02,-230.5 2040.43,-230.5 2032.08,-230.5"/>
<polygon fill="midnightblue" stroke="midnightblue" points="2057.7,-234 2067.7,-230.5 2057.7,-227 2057.7,-234"/>
</g>
<!-- Node11 -->
<g id="node11" class="node">
<title>Node11</title>
<g id="a_node11"><a xlink:href="../../df/d4d/classAutocompleteController.html#a4bd8523f1764eb72920409795b1fb1df" target="_top" xlink:title=" ">
<polygon fill="white" stroke="black" points="1723.5,-215.5 1723.5,-245.5 1842.5,-245.5 1842.5,-215.5 1723.5,-215.5"/>
<text text-anchor="start" x="1731.5" y="-233.5" font-family="Helvetica,sans-Serif" font-size="10.00">AutocompleteController</text>
<text text-anchor="middle" x="1783" y="-222.5" font-family="Helvetica,sans-Serif" font-size="10.00">::UpdateResult</text>
</a>
</g>
</g>
<!-- Node10&#45;&gt;Node11 -->
<g id="edge10" class="edge">
<title>Node10&#45;&gt;Node11</title>
<path fill="none" stroke="midnightblue" d="M1892.7,-230.5C1876.08,-230.5 1858.66,-230.5 1842.76,-230.5"/>
<polygon fill="midnightblue" stroke="midnightblue" points="1892.93,-234 1902.93,-230.5 1892.93,-227 1892.93,-234"/>
</g>
<!-- Node12 -->
<g id="node12" class="node">
<title>Node12</title>
<g id="a_node12"><a xlink:href="../../df/d4d/classAutocompleteController.html#ae1f4a40a8daa8c804b265590ff4415be" target="_top" xlink:title=" ">
<polygon fill="white" stroke="black" points="1544,-215.5 1544,-245.5 1663,-245.5 1663,-215.5 1544,-215.5"/>
<text text-anchor="start" x="1552" y="-233.5" font-family="Helvetica,sans-Serif" font-size="10.00">AutocompleteController</text>
<text text-anchor="middle" x="1603.5" y="-222.5" font-family="Helvetica,sans-Serif" font-size="10.00">::ExpireCopiedEntries</text>
</a>
</g>
</g>
<!-- Node11&#45;&gt;Node12 -->
<g id="edge11" class="edge">
<title>Node11&#45;&gt;Node12</title>
<path fill="none" stroke="midnightblue" d="M1713.22,-230.5C1696.65,-230.5 1679.1,-230.5 1663.05,-230.5"/>
<polygon fill="midnightblue" stroke="midnightblue" points="1713.39,-234 1723.39,-230.5 1713.39,-227 1713.39,-234"/>
</g>
<!-- Node28 -->
<g id="node28" class="node">
<title>Node28</title>
<g id="a_node28"><a xlink:href="../../df/d4d/classAutocompleteController.html#a6be8d5d8847f9862da417998c4785989" target="_top" xlink:title=" ">
<polygon fill="white" stroke="black" points="1216,-171.5 1216,-201.5 1335,-201.5 1335,-171.5 1216,-171.5"/>
<text text-anchor="start" x="1224" y="-189.5" font-family="Helvetica,sans-Serif" font-size="10.00">AutocompleteController</text>
<text text-anchor="middle" x="1275.5" y="-178.5" font-family="Helvetica,sans-Serif" font-size="10.00">::Start</text>
</a>
</g>
</g>
<!-- Node11&#45;&gt;Node28 -->
<g id="edge40" class="edge">
<title>Node11&#45;&gt;Node28</title>
<path fill="none" stroke="midnightblue" d="M1713.23,-214.84C1696.84,-211.61 1679.36,-208.56 1663,-206.5 1547.34,-191.92 1410.92,-187.92 1335.01,-186.85"/>
<polygon fill="midnightblue" stroke="midnightblue" points="1712.77,-218.32 1723.27,-216.87 1714.16,-211.46 1712.77,-218.32"/>
</g>
<!-- Node37 -->
<g id="node37" class="node">
<title>Node37</title>
<g id="a_node37"><a xlink:href="../../df/d4d/classAutocompleteController.html#a0d07fa1825d1adba7b2491bc682f57c5" target="_top" xlink:title=" ">
<polygon fill="white" stroke="black" points="1544,-264.5 1544,-294.5 1663,-294.5 1663,-264.5 1544,-264.5"/>
<text text-anchor="start" x="1552" y="-282.5" font-family="Helvetica,sans-Serif" font-size="10.00">AutocompleteController</text>
<text text-anchor="middle" x="1603.5" y="-271.5" font-family="Helvetica,sans-Serif" font-size="10.00">::OnProviderUpdate</text>
</a>
</g>
</g>
<!-- Node11&#45;&gt;Node37 -->
<g id="edge38" class="edge">
<title>Node11&#45;&gt;Node37</title>
<path fill="none" stroke="midnightblue" d="M1717.44,-248.32C1698.28,-253.61 1677.48,-259.35 1659.02,-264.45"/>
<polygon fill="midnightblue" stroke="midnightblue" points="1718.59,-251.64 1727.3,-245.6 1716.72,-244.89 1718.59,-251.64"/>
</g>
<!-- Node13 -->
<g id="node13" class="node">
<title>Node13</title>
<g id="a_node13"><a xlink:href="../../df/d4d/classAutocompleteController.html#a94fe99a16d5617d48084d6bc68b77099" target="_top" xlink:title=" ">
<polygon fill="white" stroke="black" points="1389,-264.5 1389,-294.5 1508,-294.5 1508,-264.5 1389,-264.5"/>
<text text-anchor="start" x="1397" y="-282.5" font-family="Helvetica,sans-Serif" font-size="10.00">AutocompleteController</text>
<text text-anchor="middle" x="1448.5" y="-271.5" font-family="Helvetica,sans-Serif" font-size="10.00">::DeleteMatch</text>
</a>
</g>
</g>
<!-- Node12&#45;&gt;Node13 -->
<g id="edge12" class="edge">
<title>Node12&#45;&gt;Node13</title>
<path fill="none" stroke="midnightblue" d="M1545.49,-248.76C1529.35,-253.93 1511.97,-259.49 1496.5,-264.45"/>
<polygon fill="midnightblue" stroke="midnightblue" points="1546.89,-251.98 1555.35,-245.6 1544.76,-245.32 1546.89,-251.98"/>
</g>
<!-- Node27 -->
<g id="node27" class="node">
<title>Node27</title>
<g id="a_node27"><a xlink:href="../../df/d4d/classAutocompleteController.html#aeab74bbaa0a7179385e15263d2193cc4" target="_top" xlink:title=" ">
<polygon fill="white" stroke="black" points="1389,-215.5 1389,-245.5 1508,-245.5 1508,-215.5 1389,-215.5"/>
<text text-anchor="start" x="1397" y="-233.5" font-family="Helvetica,sans-Serif" font-size="10.00">AutocompleteController</text>
<text text-anchor="middle" x="1448.5" y="-222.5" font-family="Helvetica,sans-Serif" font-size="10.00">::StartExpireTimer</text>
</a>
</g>
</g>
<!-- Node12&#45;&gt;Node27 -->
<g id="edge28" class="edge">
<title>Node12&#45;&gt;Node27</title>
<path fill="none" stroke="midnightblue" d="M1533.51,-230.5C1525.01,-230.5 1516.38,-230.5 1508.06,-230.5"/>
<polygon fill="midnightblue" stroke="midnightblue" points="1533.78,-234 1543.78,-230.5 1533.78,-227 1533.78,-234"/>
</g>
<!-- Node14 -->
<g id="node14" class="node">
<title>Node14</title>
<g id="a_node14"><a xlink:href="../../d0/d22/classOmniboxEditModel.html#a403c203952e105194bf2746aff5027dc" target="_top" xlink:title=" ">
<polygon fill="white" stroke="black" points="1198,-265.5 1198,-295.5 1353,-295.5 1353,-265.5 1198,-265.5"/>
<text text-anchor="start" x="1206" y="-283.5" font-family="Helvetica,sans-Serif" font-size="10.00">OmniboxEditModel::TryDeleting</text>
<text text-anchor="middle" x="1275.5" y="-272.5" font-family="Helvetica,sans-Serif" font-size="10.00">PopupLine</text>
</a>
</g>
</g>
<!-- Node13&#45;&gt;Node14 -->
<g id="edge13" class="edge">
<title>Node13&#45;&gt;Node14</title>
<path fill="none" stroke="midnightblue" d="M1378.61,-279.9C1370.27,-279.95 1361.72,-280 1353.27,-280.05"/>
<polygon fill="midnightblue" stroke="midnightblue" points="1378.67,-283.4 1388.65,-279.84 1378.63,-276.4 1378.67,-283.4"/>
</g>
<!-- Node15 -->
<g id="node15" class="node">
<title>Node15</title>
<g id="a_node15"><a xlink:href="../../d0/d94/classOmniboxViewViews.html#a5a64c1e16631c3301fb57307402784dc" target="_top" xlink:title=" ">
<polygon fill="white" stroke="black" points="1018.5,-265.5 1018.5,-295.5 1159.5,-295.5 1159.5,-265.5 1018.5,-265.5"/>
<text text-anchor="start" x="1026.5" y="-283.5" font-family="Helvetica,sans-Serif" font-size="10.00">OmniboxViewViews::Handle</text>
<text text-anchor="middle" x="1089" y="-272.5" font-family="Helvetica,sans-Serif" font-size="10.00">KeyEvent</text>
</a>
</g>
</g>
<!-- Node14&#45;&gt;Node15 -->
<g id="edge14" class="edge">
<title>Node14&#45;&gt;Node15</title>
<path fill="none" stroke="midnightblue" d="M1187.69,-280.5C1178.28,-280.5 1168.79,-280.5 1159.62,-280.5"/>
<polygon fill="midnightblue" stroke="midnightblue" points="1187.86,-284 1197.86,-280.5 1187.86,-277 1187.86,-284"/>
</g>
<!-- Node16 -->
<g id="node16" class="node">
<title>Node16</title>
<g id="a_node16"><a xlink:href="../../d0/d22/classOmniboxEditModel.html#aeef542747913fd1ebe0edc5a9714095c" target="_top" xlink:title=" ">
<polygon fill="white" stroke="black" points="1021.5,-316.5 1021.5,-346.5 1156.5,-346.5 1156.5,-316.5 1021.5,-316.5"/>
<text text-anchor="start" x="1029.5" y="-334.5" font-family="Helvetica,sans-Serif" font-size="10.00">OmniboxEditModel::Trigger</text>
<text text-anchor="middle" x="1089" y="-323.5" font-family="Helvetica,sans-Serif" font-size="10.00">PopupSelectionAction</text>
</a>
</g>
</g>
<!-- Node14&#45;&gt;Node16 -->
<g id="edge15" class="edge">
<title>Node14&#45;&gt;Node16</title>
<path fill="none" stroke="midnightblue" d="M1210.41,-298.21C1188.85,-304.17 1165.02,-310.76 1144.29,-316.49"/>
<polygon fill="midnightblue" stroke="midnightblue" points="1211.44,-301.56 1220.14,-295.53 1209.57,-294.82 1211.44,-301.56"/>
</g>
<!-- Node17 -->
<g id="node17" class="node">
<title>Node17</title>
<g id="a_node17"><a xlink:href="../../d3/d4c/classOmniboxResultView.html#adea3835a2f2809073b71b101cfecc957" target="_top" xlink:title=" ">
<polygon fill="white" stroke="black" points="628.5,-414.5 628.5,-444.5 740.5,-444.5 740.5,-414.5 628.5,-414.5"/>
<text text-anchor="start" x="636.5" y="-432.5" font-family="Helvetica,sans-Serif" font-size="10.00">OmniboxResultView::</text>
<text text-anchor="middle" x="684.5" y="-421.5" font-family="Helvetica,sans-Serif" font-size="10.00">ButtonPressed</text>
</a>
</g>
</g>
<!-- Node16&#45;&gt;Node17 -->
<g id="edge16" class="edge">
<title>Node16&#45;&gt;Node17</title>
<path fill="none" stroke="midnightblue" d="M1064.34,-353.16C1043.72,-370.63 1012.15,-394.09 980,-405.5 900.35,-433.76 801.25,-435.59 740.72,-433.3"/>
<polygon fill="midnightblue" stroke="midnightblue" points="1066.69,-355.76 1071.95,-346.57 1062.1,-350.47 1066.69,-355.76"/>
</g>
<!-- Node21 -->
<g id="node21" class="node">
<title>Node21</title>
<g id="a_node21"><a xlink:href="../../d3/d0a/classOmniboxSuggestionButtonRowView.html#a7914dd2f389c98c28906ce05bacf84e5" target="_top" xlink:title=" ">
<polygon fill="white" stroke="black" points="824.5,-365.5 824.5,-395.5 977.5,-395.5 977.5,-365.5 824.5,-365.5"/>
<text text-anchor="start" x="832.5" y="-383.5" font-family="Helvetica,sans-Serif" font-size="10.00">OmniboxSuggestionButtonRow</text>
<text text-anchor="middle" x="901" y="-372.5" font-family="Helvetica,sans-Serif" font-size="10.00">View::ButtonPressed</text>
</a>
</g>
</g>
<!-- Node16&#45;&gt;Node21 -->
<g id="edge20" class="edge">
<title>Node16&#45;&gt;Node21</title>
<path fill="none" stroke="midnightblue" d="M1021.1,-349.12C1000.76,-354.48 978.59,-360.32 958.96,-365.49"/>
<polygon fill="midnightblue" stroke="midnightblue" points="1022.15,-352.47 1030.93,-346.53 1020.37,-345.7 1022.15,-352.47"/>
</g>
<!-- Node23 -->
<g id="node23" class="node">
<title>Node23</title>
<g id="a_node23"><a xlink:href="../../d2/dcb/classOmniboxRowView_1_1HeaderView.html#a441ded0bc83346ff1773063183d470f2" target="_top" xlink:title=" ">
<polygon fill="white" stroke="black" points="822.5,-316.5 822.5,-346.5 979.5,-346.5 979.5,-316.5 822.5,-316.5"/>
<text text-anchor="start" x="830.5" y="-334.5" font-family="Helvetica,sans-Serif" font-size="10.00">OmniboxRowView::HeaderView</text>
<text text-anchor="middle" x="901" y="-323.5" font-family="Helvetica,sans-Serif" font-size="10.00">::HeaderToggleButtonPressed</text>
</a>
</g>
</g>
<!-- Node16&#45;&gt;Node23 -->
<g id="edge23" class="edge">
<title>Node16&#45;&gt;Node23</title>
<path fill="none" stroke="midnightblue" d="M1011.08,-331.5C1000.67,-331.5 989.99,-331.5 979.57,-331.5"/>
<polygon fill="midnightblue" stroke="midnightblue" points="1011.38,-335 1021.38,-331.5 1011.38,-328 1011.38,-335"/>
</g>
<!-- Node26 -->
<g id="node26" class="node">
<title>Node26</title>
<g id="a_node26"><a xlink:href="../../d2/dcb/classOmniboxRowView_1_1HeaderView.html#af9e1207af3e2688cdccfd7b8c1267a3c" target="_top" xlink:title=" ">
<polygon fill="white" stroke="black" points="822.5,-267.5 822.5,-297.5 979.5,-297.5 979.5,-267.5 822.5,-267.5"/>
<text text-anchor="start" x="830.5" y="-285.5" font-family="Helvetica,sans-Serif" font-size="10.00">OmniboxRowView::HeaderView</text>
<text text-anchor="middle" x="901" y="-274.5" font-family="Helvetica,sans-Serif" font-size="10.00">::OnMouseReleased</text>
</a>
</g>
</g>
<!-- Node16&#45;&gt;Node26 -->
<g id="edge27" class="edge">
<title>Node16&#45;&gt;Node26</title>
<path fill="none" stroke="midnightblue" d="M1021.1,-313.88C1000.76,-308.52 978.59,-302.68 958.96,-297.51"/>
<polygon fill="midnightblue" stroke="midnightblue" points="1020.37,-317.3 1030.93,-316.47 1022.15,-310.53 1020.37,-317.3"/>
</g>
<!-- Node18 -->
<g id="node18" class="node">
<title>Node18</title>
<g id="a_node18"><a xlink:href="../../d3/d4c/classOmniboxResultView.html#a6768271ee0b1e6baa07eb56bbb74882d" target="_top" xlink:title=" ">
<polygon fill="white" stroke="black" points="410.5,-365.5 410.5,-395.5 522.5,-395.5 522.5,-365.5 410.5,-365.5"/>
<text text-anchor="start" x="418.5" y="-383.5" font-family="Helvetica,sans-Serif" font-size="10.00">OmniboxResultView::</text>
<text text-anchor="middle" x="466.5" y="-372.5" font-family="Helvetica,sans-Serif" font-size="10.00">OmniboxResultView</text>
</a>
</g>
</g>
<!-- Node17&#45;&gt;Node18 -->
<g id="edge17" class="edge">
<title>Node17&#45;&gt;Node18</title>
<path fill="none" stroke="midnightblue" d="M618.33,-414.72C587.86,-407.8 551.97,-399.66 522.84,-393.05"/>
<polygon fill="midnightblue" stroke="midnightblue" points="617.91,-418.21 628.44,-417.01 619.46,-411.38 617.91,-418.21"/>
</g>
<!-- Node19 -->
<g id="node19" class="node">
<title>Node19</title>
<g id="a_node19"><a xlink:href="../../d7/d88/classOmniboxPopupContentsView.html#aa8f47263f229af6a469c3bf964b81162" target="_top" xlink:title=" ">
<polygon fill="white" stroke="black" points="193,-342.5 193,-372.5 338,-372.5 338,-342.5 193,-342.5"/>
<text text-anchor="start" x="201" y="-360.5" font-family="Helvetica,sans-Serif" font-size="10.00">OmniboxPopupContentsView</text>
<text text-anchor="middle" x="265.5" y="-349.5" font-family="Helvetica,sans-Serif" font-size="10.00">::UpdatePopupAppearance</text>
</a>
</g>
</g>
<!-- Node18&#45;&gt;Node19 -->
<g id="edge18" class="edge">
<title>Node18&#45;&gt;Node19</title>
<path fill="none" stroke="midnightblue" d="M400.17,-372.95C380.33,-370.66 358.44,-368.13 338.21,-365.79"/>
<polygon fill="midnightblue" stroke="midnightblue" points="400,-376.45 410.33,-374.12 400.8,-369.5 400,-376.45"/>
</g>
<!-- Node20 -->
<g id="node20" class="node">
<title>Node20</title>
<g id="a_node20"><a xlink:href="../../d7/d88/classOmniboxPopupContentsView.html#a0e658101bc19acb66f6e0915fd6c2fe3" target="_top" xlink:title=" ">
<polygon fill="white" stroke="black" points="0,-342.5 0,-372.5 145,-372.5 145,-342.5 0,-342.5"/>
<text text-anchor="start" x="8" y="-360.5" font-family="Helvetica,sans-Serif" font-size="10.00">OmniboxPopupContentsView</text>
<text text-anchor="middle" x="72.5" y="-349.5" font-family="Helvetica,sans-Serif" font-size="10.00">::OnWidgetBoundsChanged</text>
</a>
</g>
</g>
<!-- Node19&#45;&gt;Node20 -->
<g id="edge19" class="edge">
<title>Node19&#45;&gt;Node20</title>
<path fill="none" stroke="midnightblue" d="M182.51,-357.5C170.12,-357.5 157.41,-357.5 145.25,-357.5"/>
<polygon fill="midnightblue" stroke="midnightblue" points="182.84,-361 192.84,-357.5 182.84,-354 182.84,-361"/>
</g>
<!-- Node22 -->
<g id="node22" class="node">
<title>Node22</title>
<g id="a_node22"><a xlink:href="../../d3/d0a/classOmniboxSuggestionButtonRowView.html#a75ca5fb3af853ffc8c5ed29380d2e72a" target="_top" xlink:title=" ">
<polygon fill="white" stroke="black" points="583,-365.5 583,-395.5 786,-395.5 786,-365.5 583,-365.5"/>
<text text-anchor="start" x="591" y="-383.5" font-family="Helvetica,sans-Serif" font-size="10.00">OmniboxSuggestionButtonRow</text>
<text text-anchor="middle" x="684.5" y="-372.5" font-family="Helvetica,sans-Serif" font-size="10.00">View::OmniboxSuggestionButtonRowView</text>
</a>
</g>
</g>
<!-- Node21&#45;&gt;Node22 -->
<g id="edge21" class="edge">
<title>Node21&#45;&gt;Node22</title>
<path fill="none" stroke="midnightblue" d="M814.16,-380.5C805.02,-380.5 795.66,-380.5 786.37,-380.5"/>
<polygon fill="midnightblue" stroke="midnightblue" points="814.38,-384 824.38,-380.5 814.38,-377 814.38,-384"/>
</g>
<!-- Node22&#45;&gt;Node18 -->
<g id="edge22" class="edge">
<title>Node22&#45;&gt;Node18</title>
<path fill="none" stroke="midnightblue" d="M572.58,-380.5C555.27,-380.5 538.05,-380.5 522.72,-380.5"/>
<polygon fill="midnightblue" stroke="midnightblue" points="572.77,-384 582.77,-380.5 572.77,-377 572.77,-384"/>
</g>
<!-- Node24 -->
<g id="node24" class="node">
<title>Node24</title>
<g id="a_node24"><a xlink:href="../../d2/dcb/classOmniboxRowView_1_1HeaderView.html#ad1abf8339bf99de0b39a9bb43111ba93" target="_top" xlink:title=" ">
<polygon fill="white" stroke="black" points="606,-316.5 606,-346.5 763,-346.5 763,-316.5 606,-316.5"/>
<text text-anchor="start" x="614" y="-334.5" font-family="Helvetica,sans-Serif" font-size="10.00">OmniboxRowView::HeaderView</text>
<text text-anchor="middle" x="684.5" y="-323.5" font-family="Helvetica,sans-Serif" font-size="10.00">::HeaderView</text>
</a>
</g>
</g>
<!-- Node23&#45;&gt;Node24 -->
<g id="edge24" class="edge">
<title>Node23&#45;&gt;Node24</title>
<path fill="none" stroke="midnightblue" d="M811.8,-331.5C795.73,-331.5 779.08,-331.5 763.34,-331.5"/>
<polygon fill="midnightblue" stroke="midnightblue" points="812.26,-335 822.26,-331.5 812.26,-328 812.26,-335"/>
</g>
<!-- Node25 -->
<g id="node25" class="node">
<title>Node25</title>
<g id="a_node25"><a xlink:href="../../da/da2/classOmniboxRowView.html#a6add650851301372ee9b8a6671cfa28c" target="_top" xlink:title=" ">
<polygon fill="white" stroke="black" points="386.5,-324 386.5,-343 546.5,-343 546.5,-324 386.5,-324"/>
<text text-anchor="middle" x="466.5" y="-331" font-family="Helvetica,sans-Serif" font-size="10.00">OmniboxRowView::ShowHeader</text>
</a>
</g>
</g>
<!-- Node24&#45;&gt;Node25 -->
<g id="edge25" class="edge">
<title>Node24&#45;&gt;Node25</title>
<path fill="none" stroke="midnightblue" d="M595.8,-332.31C579.54,-332.46 562.65,-332.62 546.67,-332.77"/>
<polygon fill="midnightblue" stroke="midnightblue" points="595.86,-335.81 605.82,-332.22 595.79,-328.81 595.86,-335.81"/>
</g>
<!-- Node25&#45;&gt;Node19 -->
<g id="edge26" class="edge">
<title>Node25&#45;&gt;Node19</title>
<path fill="none" stroke="midnightblue" d="M376.39,-344.25C363.62,-345.79 350.61,-347.36 338.24,-348.85"/>
<polygon fill="midnightblue" stroke="midnightblue" points="377.06,-347.69 386.56,-343.02 376.22,-340.74 377.06,-347.69"/>
</g>
<!-- Node27&#45;&gt;Node28 -->
<g id="edge29" class="edge">
<title>Node27&#45;&gt;Node28</title>
<path fill="none" stroke="midnightblue" d="M1379.12,-212.91C1364.47,-209.14 1349.13,-205.19 1334.9,-201.53"/>
<polygon fill="midnightblue" stroke="midnightblue" points="1378.57,-216.38 1389.13,-215.48 1380.32,-209.6 1378.57,-216.38"/>
</g>
<!-- Node29 -->
<g id="node29" class="node">
<title>Node29</title>
<g id="a_node29"><a xlink:href="../../d0/d22/classOmniboxEditModel.html#a47216ae17e9b4c06e3a827008d04a744" target="_top" xlink:title=" ">
<polygon fill="white" stroke="black" points="1016,-169.5 1016,-199.5 1162,-199.5 1162,-169.5 1016,-169.5"/>
<text text-anchor="start" x="1024" y="-187.5" font-family="Helvetica,sans-Serif" font-size="10.00">OmniboxEditModel::StartZero</text>
<text text-anchor="middle" x="1089" y="-176.5" font-family="Helvetica,sans-Serif" font-size="10.00">SuggestRequest</text>
</a>
</g>
</g>
<!-- Node28&#45;&gt;Node29 -->
<g id="edge30" class="edge">
<title>Node28&#45;&gt;Node29</title>
<path fill="none" stroke="midnightblue" d="M1205.67,-185.75C1191.44,-185.6 1176.42,-185.44 1162.08,-185.28"/>
<polygon fill="midnightblue" stroke="midnightblue" points="1205.83,-189.26 1215.87,-185.86 1205.91,-182.26 1205.83,-189.26"/>
</g>
<!-- Node30 -->
<g id="node30" class="node">
<title>Node30</title>
<g id="a_node30"><a xlink:href="../../d0/d94/classOmniboxViewViews.html#a16e7321918d0a4985e618a5249a32881" target="_top" xlink:title=" ">
<polygon fill="white" stroke="black" points="822,-218.5 822,-248.5 980,-248.5 980,-218.5 822,-218.5"/>
<text text-anchor="start" x="830" y="-236.5" font-family="Helvetica,sans-Serif" font-size="10.00">OmniboxViewViews::OnGesture</text>
<text text-anchor="middle" x="901" y="-225.5" font-family="Helvetica,sans-Serif" font-size="10.00">Event</text>
</a>
</g>
</g>
<!-- Node29&#45;&gt;Node30 -->
<g id="edge31" class="edge">
<title>Node29&#45;&gt;Node30</title>
<path fill="none" stroke="midnightblue" d="M1021.1,-202.12C1000.76,-207.48 978.59,-213.32 958.96,-218.49"/>
<polygon fill="midnightblue" stroke="midnightblue" points="1022.15,-205.47 1030.93,-199.53 1020.37,-198.7 1022.15,-205.47"/>
</g>
<!-- Node31 -->
<g id="node31" class="node">
<title>Node31</title>
<g id="a_node31"><a xlink:href="../../d0/d94/classOmniboxViewViews.html#a9fc21bac19f3a666e10eabc84b72c745" target="_top" xlink:title=" ">
<polygon fill="white" stroke="black" points="825,-169.5 825,-199.5 977,-199.5 977,-169.5 825,-169.5"/>
<text text-anchor="start" x="833" y="-187.5" font-family="Helvetica,sans-Serif" font-size="10.00">OmniboxViewViews::OnMouse</text>
<text text-anchor="middle" x="901" y="-176.5" font-family="Helvetica,sans-Serif" font-size="10.00">Pressed</text>
</a>
</g>
</g>
<!-- Node29&#45;&gt;Node31 -->
<g id="edge32" class="edge">
<title>Node29&#45;&gt;Node31</title>
<path fill="none" stroke="midnightblue" d="M1005.63,-184.5C996.18,-184.5 986.57,-184.5 977.21,-184.5"/>
<polygon fill="midnightblue" stroke="midnightblue" points="1005.82,-188 1015.82,-184.5 1005.82,-181 1005.82,-188"/>
</g>
<!-- Node32 -->
<g id="node32" class="node">
<title>Node32</title>
<g id="a_node32"><a xlink:href="../../d0/d94/classOmniboxViewViews.html#ae9d72f709ba57cd59d22d6fbef32dd1c" target="_top" xlink:title=" ">
<polygon fill="white" stroke="black" points="825,-131 825,-150 977,-150 977,-131 825,-131"/>
<text text-anchor="middle" x="901" y="-138" font-family="Helvetica,sans-Serif" font-size="10.00">OmniboxViewViews::SetFocus</text>
</a>
</g>
</g>
<!-- Node29&#45;&gt;Node32 -->
<g id="edge33" class="edge">
<title>Node29&#45;&gt;Node32</title>
<path fill="none" stroke="midnightblue" d="M1014.46,-167.1C989.84,-161.28 963.31,-155 942.21,-150.01"/>
<polygon fill="midnightblue" stroke="midnightblue" points="1013.97,-170.58 1024.51,-169.48 1015.58,-163.77 1013.97,-170.58"/>
</g>
<!-- Node33 -->
<g id="node33" class="node">
<title>Node33</title>
<g id="a_node33"><a xlink:href="../../d0/d22/classOmniboxEditModel.html#a8fd45b4cc033ef4a4c36d313a279ee33" target="_top" xlink:title=" ">
<polygon fill="white" stroke="black" points="832.5,-81.5 832.5,-111.5 969.5,-111.5 969.5,-81.5 832.5,-81.5"/>
<text text-anchor="start" x="840.5" y="-99.5" font-family="Helvetica,sans-Serif" font-size="10.00">OmniboxEditModel::Update</text>
<text text-anchor="middle" x="901" y="-88.5" font-family="Helvetica,sans-Serif" font-size="10.00">Input</text>
</a>
</g>
</g>
<!-- Node29&#45;&gt;Node33 -->
<g id="edge34" class="edge">
<title>Node29&#45;&gt;Node33</title>
<path fill="none" stroke="midnightblue" d="M1057.06,-164.02C1035.97,-150.67 1007.07,-133.56 980,-121.5 971.95,-117.91 963.22,-114.6 954.62,-111.63"/>
<polygon fill="midnightblue" stroke="midnightblue" points="1055.29,-167.03 1065.6,-169.48 1059.06,-161.14 1055.29,-167.03"/>
</g>
<!-- Node34 -->
<g id="node34" class="node">
<title>Node34</title>
<g id="a_node34"><a xlink:href="../../d0/d94/classOmniboxViewViews.html#aa74a64e459c128dff566e7392751a67f" target="_top" xlink:title=" ">
<polygon fill="white" stroke="black" points="613.5,-81.5 613.5,-111.5 755.5,-111.5 755.5,-81.5 613.5,-81.5"/>
<text text-anchor="start" x="621.5" y="-99.5" font-family="Helvetica,sans-Serif" font-size="10.00">OmniboxViewViews::Update</text>
<text text-anchor="middle" x="684.5" y="-88.5" font-family="Helvetica,sans-Serif" font-size="10.00">Popup</text>
</a>
</g>
</g>
<!-- Node33&#45;&gt;Node34 -->
<g id="edge35" class="edge">
<title>Node33&#45;&gt;Node34</title>
<path fill="none" stroke="midnightblue" d="M822.24,-96.5C800.49,-96.5 776.98,-96.5 755.69,-96.5"/>
<polygon fill="midnightblue" stroke="midnightblue" points="822.43,-100 832.43,-96.5 822.43,-93 822.43,-100"/>
</g>
<!-- Node35 -->
<g id="node35" class="node">
<title>Node35</title>
<g id="a_node35"><a xlink:href="../../d0/d94/classOmniboxViewViews.html#a2b71803c688c8d3db0ddfe1a6c561208" target="_top" xlink:title=" ">
<polygon fill="white" stroke="black" points="386,-81.5 386,-111.5 547,-111.5 547,-81.5 386,-81.5"/>
<text text-anchor="start" x="394" y="-99.5" font-family="Helvetica,sans-Serif" font-size="10.00">OmniboxViewViews::SetWindow</text>
<text text-anchor="middle" x="466.5" y="-88.5" font-family="Helvetica,sans-Serif" font-size="10.00">TextAndCaretPos</text>
</a>
</g>
</g>
<!-- Node34&#45;&gt;Node35 -->
<g id="edge36" class="edge">
<title>Node34&#45;&gt;Node35</title>
<path fill="none" stroke="midnightblue" d="M603.29,-96.5C584.91,-96.5 565.37,-96.5 547.02,-96.5"/>
<polygon fill="midnightblue" stroke="midnightblue" points="603.37,-100 613.37,-96.5 603.37,-93 603.37,-100"/>
</g>
<!-- Node36 -->
<g id="node36" class="node">
<title>Node36</title>
<g id="a_node36"><a xlink:href="../../d0/d94/classOmniboxViewViews.html#acce156344df7256bce712db64896eaf6" target="_top" xlink:title=" ">
<polygon fill="white" stroke="black" points="181,-81.5 181,-111.5 350,-111.5 350,-81.5 181,-81.5"/>
<text text-anchor="start" x="189" y="-99.5" font-family="Helvetica,sans-Serif" font-size="10.00">OmniboxViewViews::OnTemporary</text>
<text text-anchor="middle" x="265.5" y="-88.5" font-family="Helvetica,sans-Serif" font-size="10.00">TextMaybeChanged</text>
</a>
</g>
</g>
<!-- Node35&#45;&gt;Node36 -->
<g id="edge37" class="edge">
<title>Node35&#45;&gt;Node36</title>
<path fill="none" stroke="midnightblue" d="M375.96,-96.5C367.36,-96.5 358.66,-96.5 350.12,-96.5"/>
<polygon fill="midnightblue" stroke="midnightblue" points="375.99,-100 385.99,-96.5 375.99,-93 375.99,-100"/>
</g>
<!-- Node37&#45;&gt;Node13 -->
<g id="edge39" class="edge">
<title>Node37&#45;&gt;Node13</title>
<path fill="none" stroke="midnightblue" d="M1533.51,-279.5C1525.01,-279.5 1516.38,-279.5 1508.06,-279.5"/>
<polygon fill="midnightblue" stroke="midnightblue" points="1533.78,-283 1543.78,-279.5 1533.78,-276 1533.78,-283"/>
</g>
<!-- Node38&#45;&gt;Node4 -->
<g id="edge42" class="edge">
<title>Node38&#45;&gt;Node4</title>
<path fill="none" stroke="midnightblue" d="M2388.8,-165.7C2340.65,-171 2279.85,-174.4 2226,-167.5 2210.11,-165.47 2193.1,-161.61 2177.87,-157.52"/>
<polygon fill="midnightblue" stroke="midnightblue" points="2389.34,-169.17 2398.88,-164.55 2388.55,-162.21 2389.34,-169.17"/>
</g>
<!-- Node39 -->
<g id="node39" class="node">
<title>Node39</title>
<g id="a_node39"><a xlink:href="../../d6/dea/classOmniboxPedalProvider.html#a7be77a55ea5e7c489e501e616726a9fd" target="_top" xlink:title=" ">
<polygon fill="white" stroke="black" points="2226,-127.5 2226,-157.5 2363,-157.5 2363,-127.5 2226,-127.5"/>
<text text-anchor="start" x="2234" y="-145.5" font-family="Helvetica,sans-Serif" font-size="10.00">OmniboxPedalProvider</text>
<text text-anchor="middle" x="2294.5" y="-134.5" font-family="Helvetica,sans-Serif" font-size="10.00">::LoadSynonymGroupString</text>
</a>
</g>
</g>
<!-- Node38&#45;&gt;Node39 -->
<g id="edge43" class="edge">
<title>Node38&#45;&gt;Node39</title>
<path fill="none" stroke="midnightblue" d="M2388.85,-147.67C2380.23,-147.19 2371.58,-146.71 2363.2,-146.25"/>
<polygon fill="midnightblue" stroke="midnightblue" points="2388.75,-151.17 2398.93,-148.23 2389.14,-144.18 2388.75,-151.17"/>
</g>
<!-- Node39&#45;&gt;Node4 -->
<g id="edge44" class="edge">
<title>Node39&#45;&gt;Node4</title>
<path fill="none" stroke="midnightblue" d="M2215.3,-142.5C2205.78,-142.5 2196.19,-142.5 2187.06,-142.5"/>
<polygon fill="midnightblue" stroke="midnightblue" points="2215.58,-146 2225.58,-142.5 2215.58,-139 2215.58,-146"/>
</g>
<!-- Node42 -->
<g id="node42" class="node">
<title>Node42</title>
<g id="a_node42"><a xlink:href="../../d4/de9/classOmniboxPedal.html#a48d7630a74dce0a5cdaf9caac53163df" target="_top" xlink:title=" ">
<polygon fill="white" stroke="black" points="2404,-0.5 2404,-30.5 2550,-30.5 2550,-0.5 2404,-0.5"/>
<text text-anchor="start" x="2412" y="-18.5" font-family="Helvetica,sans-Serif" font-size="10.00">OmniboxPedal::RecordAction</text>
<text text-anchor="middle" x="2477" y="-7.5" font-family="Helvetica,sans-Serif" font-size="10.00">Executed</text>
</a>
</g>
</g>
<!-- Node41&#45;&gt;Node42 -->
<g id="edge47" class="edge">
<title>Node41&#45;&gt;Node42</title>
<path fill="none" stroke="midnightblue" d="M2622.96,-52.79C2612.32,-50.46 2601.31,-47.97 2591,-45.5 2571.85,-40.91 2550.99,-35.49 2532.47,-30.53"/>
<polygon fill="midnightblue" stroke="midnightblue" points="2622.5,-56.27 2633.01,-54.96 2623.98,-49.42 2622.5,-56.27"/>
</g>
<!-- Node43 -->
<g id="node43" class="node">
<title>Node43</title>
<g id="a_node43"><a xlink:href="../../d4/de9/classOmniboxPedal.html#a5bbbfbc634c994290c2722d95bb572a6" target="_top" xlink:title=" ">
<polygon fill="white" stroke="black" points="2404,-49.5 2404,-79.5 2550,-79.5 2550,-49.5 2404,-49.5"/>
<text text-anchor="start" x="2412" y="-67.5" font-family="Helvetica,sans-Serif" font-size="10.00">OmniboxPedal::RecordAction</text>
<text text-anchor="middle" x="2477" y="-56.5" font-family="Helvetica,sans-Serif" font-size="10.00">Shown</text>
</a>
</g>
</g>
<!-- Node41&#45;&gt;Node43 -->
<g id="edge48" class="edge">
<title>Node41&#45;&gt;Node43</title>
<path fill="none" stroke="midnightblue" d="M2598.4,-64.5C2582.49,-64.5 2565.89,-64.5 2550.29,-64.5"/>
<polygon fill="midnightblue" stroke="midnightblue" points="2598.74,-68 2608.74,-64.5 2598.74,-61 2598.74,-68"/>
</g>
</g>
</svg>
