<?xml version="1.0" encoding="UTF-8" standalone="no"?>
<!DOCTYPE svg PUBLIC "-//W3C//DTD SVG 1.1//EN"
 "http://www.w3.org/Graphics/SVG/1.1/DTD/svg11.dtd">
<!-- Generated by graphviz version 2.43.0 (0)
 -->
<!-- Title: OmniboxSuggestionRowButton Pages: 1 -->
<!--zoomable 432 -->
<svg id="main" version="1.1" xmlns="http://www.w3.org/2000/svg" xmlns:xlink="http://www.w3.org/1999/xlink" xml:space="preserve" onload="init(evt)">
<style type="text/css"><![CDATA[
.edge:hover path { stroke: red; }
.edge:hover polygon { stroke: red; fill: red; }
]]></style>
<script type="text/javascript"><![CDATA[
var edges = document.getElementsByTagName('g');
if (edges && edges.length) {
  for (var i=0;i<edges.length;i++) {
    if (edges[i].id.substr(0,4)=='edge') {
      edges[i].setAttribute('class','edge');
    }
  }
}
]]></script>
        <defs>
                <circle id="rim" cx="0" cy="0" r="7"/>
                <circle id="rim2" cx="0" cy="0" r="3.5"/>
                <g id="zoomPlus">
                        <use xlink:href="#rim" fill="#404040">
                                <set attributeName="fill" to="#808080" begin="zoomplus.mouseover" end="zoomplus.mouseout"/>
                        </use>
                        <path d="M-4,0h8M0,-4v8" fill="none" stroke="white" stroke-width="1.5" pointer-events="none"/>
                </g>
                <g id="zoomMin">
                        <use xlink:href="#rim" fill="#404040">
                                <set attributeName="fill" to="#808080" begin="zoomminus.mouseover" end="zoomminus.mouseout"/>
                        </use>
                        <path d="M-4,0h8" fill="none" stroke="white" stroke-width="1.5" pointer-events="none"/>
                </g>
                <g id="dirArrow">
                        <path fill="none" stroke="white" stroke-width="1.5" d="M0,-3.0v7 M-2.5,-0.5L0,-3.0L2.5,-0.5"/>
                </g>
               <g id="resetDef">
                       <use xlink:href="#rim2" fill="#404040">
                               <set attributeName="fill" to="#808080" begin="reset.mouseover" end="reset.mouseout"/>
                       </use>
               </g>
        </defs>

<script type="text/javascript">
var viewWidth = 1340;
var viewHeight = 432;
var sectionId = 'dynsection-1';
</script>
<script xlink:href="../../svgpan.js"/>
<svg id="graph" class="graph">
<g id="viewport">
<title>OmniboxSuggestionRowButton</title>
<polygon fill="white" stroke="transparent" points="-4,4 -4,-428 1336,-428 1336,4 -4,4"/>
<!-- Node1 -->
<g id="node1" class="node">
<title>Node1</title>
<g id="a_node1"><a xlink:title=" ">
<polygon fill="#bfbfbf" stroke="black" points="1179,-181.5 1179,-200.5 1332,-200.5 1332,-181.5 1179,-181.5"/>
<text text-anchor="middle" x="1255.5" y="-188.5" font-family="Helvetica,sans-Serif" font-size="10.00">OmniboxSuggestionRowButton</text>
</a>
</g>
</g>
<!-- Node2 -->
<g id="node2" class="node">
<title>Node2</title>
<g id="a_node2"><a xlink:title=" ">
<polygon fill="white" stroke="#bfbfbf" points="913,-219.5 913,-238.5 1022,-238.5 1022,-219.5 913,-219.5"/>
<text text-anchor="middle" x="967.5" y="-226.5" font-family="Helvetica,sans-Serif" font-size="10.00">views::MdTextButton</text>
</a>
</g>
</g>
<!-- Node2&#45;&gt;Node1 -->
<g id="edge1" class="edge">
<title>Node2&#45;&gt;Node1</title>
<path fill="none" stroke="midnightblue" d="M1032.38,-222.02C1069.89,-217.76 1118.19,-211.99 1161,-206 1172.72,-204.36 1185.25,-202.46 1197.2,-200.57"/>
<polygon fill="midnightblue" stroke="midnightblue" points="1031.64,-218.58 1022.1,-223.18 1032.43,-225.54 1031.64,-218.58"/>
</g>
<!-- Node3 -->
<g id="node3" class="node">
<title>Node3</title>
<g id="a_node3"><a xlink:href="../../d7/d88/classOmniboxPopupContentsView.html" target="_top" xlink:title=" ">
<polygon fill="white" stroke="black" points="895,-181.5 895,-200.5 1040,-200.5 1040,-181.5 895,-181.5"/>
<text text-anchor="middle" x="967.5" y="-188.5" font-family="Helvetica,sans-Serif" font-size="10.00">OmniboxPopupContentsView</text>
</a>
</g>
</g>
<!-- Node3&#45;&gt;Node1 -->
<g id="edge2" class="edge">
<title>Node3&#45;&gt;Node1</title>
<path fill="none" stroke="#9a32cd" stroke-dasharray="5,2" d="M1050.4,-191C1090.86,-191 1139.35,-191 1178.92,-191"/>
<polygon fill="#9a32cd" stroke="#9a32cd" points="1050.3,-187.5 1040.3,-191 1050.3,-194.5 1050.3,-187.5"/>
<text text-anchor="middle" x="1109.5" y="-194" font-family="Helvetica,sans-Serif" font-size="10.00"> popup_contents_view_</text>
</g>
<!-- Node4 -->
<g id="node4" class="node">
<title>Node4</title>
<g id="a_node4"><a xlink:title=" ">
<polygon fill="white" stroke="#bfbfbf" points="685.5,-143.5 685.5,-162.5 755.5,-162.5 755.5,-143.5 685.5,-143.5"/>
<text text-anchor="middle" x="720.5" y="-150.5" font-family="Helvetica,sans-Serif" font-size="10.00">views::View</text>
</a>
</g>
</g>
<!-- Node4&#45;&gt;Node3 -->
<g id="edge3" class="edge">
<title>Node4&#45;&gt;Node3</title>
<path fill="none" stroke="midnightblue" d="M765.87,-159.82C796.98,-164.61 839.53,-171.18 877,-177 886.32,-178.45 896.19,-179.99 905.84,-181.49"/>
<polygon fill="midnightblue" stroke="midnightblue" points="766.2,-156.33 755.78,-158.27 765.13,-163.25 766.2,-156.33"/>
</g>
<!-- Node5 -->
<g id="node5" class="node">
<title>Node5</title>
<g id="a_node5"><a xlink:href="../../db/de1/classOmniboxPopupView.html" target="_top" xlink:title=" ">
<polygon fill="white" stroke="black" points="392,-171.5 392,-190.5 497,-190.5 497,-171.5 392,-171.5"/>
<text text-anchor="middle" x="444.5" y="-178.5" font-family="Helvetica,sans-Serif" font-size="10.00">OmniboxPopupView</text>
</a>
</g>
</g>
<!-- Node5&#45;&gt;Node3 -->
<g id="edge4" class="edge">
<title>Node5&#45;&gt;Node3</title>
<path fill="none" stroke="midnightblue" d="M507.6,-182.19C604.67,-184.06 791.84,-187.65 894.61,-189.62"/>
<polygon fill="midnightblue" stroke="midnightblue" points="507.43,-178.69 497.36,-182 507.29,-185.69 507.43,-178.69"/>
</g>
<!-- Node17 -->
<g id="node17" class="node">
<title>Node17</title>
<g id="a_node17"><a xlink:href="../../d0/d22/classOmniboxEditModel.html" target="_top" xlink:title=" ">
<polygon fill="white" stroke="black" points="671,-105.5 671,-124.5 770,-124.5 770,-105.5 671,-105.5"/>
<text text-anchor="middle" x="720.5" y="-112.5" font-family="Helvetica,sans-Serif" font-size="10.00">OmniboxEditModel</text>
</a>
</g>
</g>
<!-- Node5&#45;&gt;Node17 -->
<g id="edge19" class="edge">
<title>Node5&#45;&gt;Node17</title>
<path fill="none" stroke="#9a32cd" stroke-dasharray="5,2" d="M507.31,-170.43C553.24,-162.24 611.79,-150.97 635,-143 643.46,-140.1 644.66,-137.24 653,-134 662.06,-130.47 672.05,-127.28 681.47,-124.55"/>
<polygon fill="#9a32cd" stroke="#9a32cd" points="506.66,-166.99 497.42,-172.18 507.88,-173.89 506.66,-166.99"/>
<text text-anchor="middle" x="586" y="-167" font-family="Helvetica,sans-Serif" font-size="10.00"> popup_view_</text>
</g>
<!-- Node6 -->
<g id="node6" class="node">
<title>Node6</title>
<g id="a_node6"><a xlink:title=" ">
<polygon fill="white" stroke="#bfbfbf" points="661,-341.5 661,-360.5 780,-360.5 780,-341.5 661,-341.5"/>
<text text-anchor="middle" x="720.5" y="-348.5" font-family="Helvetica,sans-Serif" font-size="10.00">views::WidgetObserver</text>
</a>
</g>
</g>
<!-- Node6&#45;&gt;Node3 -->
<g id="edge5" class="edge">
<title>Node6&#45;&gt;Node3</title>
<path fill="none" stroke="midnightblue" d="M790.52,-348.96C821.1,-344.43 855.05,-333.77 877,-310 907.63,-276.82 864.4,-243.21 895,-210 898.48,-206.22 902.62,-203.16 907.13,-200.68"/>
<polygon fill="midnightblue" stroke="midnightblue" points="789.77,-345.53 780.3,-350.28 790.66,-352.47 789.77,-345.53"/>
</g>
<!-- Node7 -->
<g id="node7" class="node">
<title>Node7</title>
<g id="a_node7"><a xlink:href="../../d0/d53/classWebUIOmniboxPopupView.html" target="_top" xlink:title=" ">
<polygon fill="white" stroke="black" points="653,-303.5 653,-322.5 788,-322.5 788,-303.5 653,-303.5"/>
<text text-anchor="middle" x="720.5" y="-310.5" font-family="Helvetica,sans-Serif" font-size="10.00">WebUIOmniboxPopupView</text>
</a>
</g>
</g>
<!-- Node7&#45;&gt;Node3 -->
<g id="edge6" class="edge">
<title>Node7&#45;&gt;Node3</title>
<path fill="none" stroke="#9a32cd" stroke-dasharray="5,2" d="M791.85,-300.77C821.55,-292.37 854.4,-278.34 877,-255 891.98,-239.52 878.88,-224.28 895,-210 899.33,-206.17 904.34,-203.09 909.67,-200.63"/>
<polygon fill="#9a32cd" stroke="#9a32cd" points="790.69,-297.46 781.92,-303.41 792.48,-304.22 790.69,-297.46"/>
<text text-anchor="middle" x="841.5" y="-298" font-family="Helvetica,sans-Serif" font-size="10.00"> webui_view_</text>
</g>
<!-- Node8 -->
<g id="node8" class="node">
<title>Node8</title>
<g id="a_node8"><a xlink:title=" ">
<polygon fill="white" stroke="#bfbfbf" points="400,-404.5 400,-423.5 489,-423.5 489,-404.5 400,-404.5"/>
<text text-anchor="middle" x="444.5" y="-411.5" font-family="Helvetica,sans-Serif" font-size="10.00">views::WebView</text>
</a>
</g>
</g>
<!-- Node8&#45;&gt;Node7 -->
<g id="edge7" class="edge">
<title>Node8&#45;&gt;Node7</title>
<path fill="none" stroke="midnightblue" d="M499.09,-421.7C540.8,-424.59 597.68,-421.3 635,-390 655.68,-372.65 633.7,-350.87 653,-332 656.95,-328.14 661.63,-325.05 666.64,-322.59"/>
<polygon fill="midnightblue" stroke="midnightblue" points="499.36,-418.21 489.1,-420.87 498.78,-425.18 499.36,-418.21"/>
</g>
<!-- Node9 -->
<g id="node9" class="node">
<title>Node9</title>
<g id="a_node9"><a xlink:href="../../d0/d94/classOmniboxViewViews.html" target="_top" xlink:title=" ">
<polygon fill="white" stroke="black" points="668.5,-265.5 668.5,-284.5 772.5,-284.5 772.5,-265.5 668.5,-265.5"/>
<text text-anchor="middle" x="720.5" y="-272.5" font-family="Helvetica,sans-Serif" font-size="10.00">OmniboxViewViews</text>
</a>
</g>
</g>
<!-- Node9&#45;&gt;Node3 -->
<g id="edge8" class="edge">
<title>Node9&#45;&gt;Node3</title>
<path fill="none" stroke="#9a32cd" stroke-dasharray="5,2" d="M754.42,-261.56C789.06,-247.67 845.36,-225.85 895,-210 905.52,-206.64 917.04,-203.39 927.71,-200.56"/>
<polygon fill="#9a32cd" stroke="#9a32cd" points="752.78,-258.44 744.82,-265.43 755.4,-264.94 752.78,-258.44"/>
<text text-anchor="middle" x="841.5" y="-243" font-family="Helvetica,sans-Serif" font-size="10.00"> omnibox_view_</text>
</g>
<!-- Node10 -->
<g id="node10" class="node">
<title>Node10</title>
<g id="a_node10"><a xlink:href="../../d9/d1e/classOmniboxView.html" target="_top" xlink:title=" ">
<polygon fill="white" stroke="black" points="406,-214.5 406,-233.5 483,-233.5 483,-214.5 406,-214.5"/>
<text text-anchor="middle" x="444.5" y="-221.5" font-family="Helvetica,sans-Serif" font-size="10.00">OmniboxView</text>
</a>
</g>
</g>
<!-- Node10&#45;&gt;Node9 -->
<g id="edge9" class="edge">
<title>Node10&#45;&gt;Node9</title>
<path fill="none" stroke="midnightblue" d="M493.05,-232.85C542.06,-241.97 618.2,-256.15 668.45,-265.5"/>
<polygon fill="midnightblue" stroke="midnightblue" points="493.5,-229.37 483.02,-230.98 492.21,-236.26 493.5,-229.37"/>
</g>
<!-- Node10&#45;&gt;Node17 -->
<g id="edge20" class="edge">
<title>Node10&#45;&gt;Node17</title>
<path fill="none" stroke="#9a32cd" stroke-dasharray="5,2" d="M493.41,-224.44C535.4,-222.33 595.7,-212.9 635,-179 651.31,-164.93 637.01,-148.43 653,-134 658.17,-129.33 664.41,-125.81 670.97,-123.14"/>
<polygon fill="#9a32cd" stroke="#9a32cd" points="493.02,-220.95 483.16,-224.83 493.28,-227.95 493.02,-220.95"/>
<text text-anchor="middle" x="586" y="-222" font-family="Helvetica,sans-Serif" font-size="10.00"> view_</text>
</g>
<!-- Node11 -->
<g id="node11" class="node">
<title>Node11</title>
<g id="a_node11"><a xlink:href="../../dc/d81/classOmniboxEditController.html" target="_top" xlink:title=" ">
<polygon fill="white" stroke="black" points="170,-104.5 170,-123.5 285,-123.5 285,-104.5 170,-104.5"/>
<text text-anchor="middle" x="227.5" y="-111.5" font-family="Helvetica,sans-Serif" font-size="10.00">OmniboxEditController</text>
</a>
</g>
</g>
<!-- Node11&#45;&gt;Node10 -->
<g id="edge10" class="edge">
<title>Node11&#45;&gt;Node10</title>
<path fill="none" stroke="#9a32cd" stroke-dasharray="5,2" d="M250.31,-129.45C277.37,-148.1 325.41,-179.5 370,-200 382.32,-205.66 396.36,-210.59 408.84,-214.49"/>
<polygon fill="#9a32cd" stroke="#9a32cd" points="252.18,-126.49 241.97,-123.65 248.18,-132.24 252.18,-126.49"/>
<text text-anchor="middle" x="327.5" y="-193" font-family="Helvetica,sans-Serif" font-size="10.00"> controller_</text>
</g>
<!-- Node11&#45;&gt;Node17 -->
<g id="edge17" class="edge">
<title>Node11&#45;&gt;Node17</title>
<path fill="none" stroke="#9a32cd" stroke-dasharray="5,2" d="M295.51,-110.01C319.05,-108.78 345.69,-107.6 370,-107 436.2,-105.36 452.79,-105.68 519,-107 570.9,-108.03 630.3,-110.58 670.9,-112.52"/>
<polygon fill="#9a32cd" stroke="#9a32cd" points="295.08,-106.52 285.28,-110.55 295.45,-113.51 295.08,-106.52"/>
<text text-anchor="middle" x="444.5" y="-110" font-family="Helvetica,sans-Serif" font-size="10.00"> controller_</text>
</g>
<!-- Node12 -->
<g id="node12" class="node">
<title>Node12</title>
<g id="a_node12"><a xlink:title=" ">
<polygon fill="white" stroke="#bfbfbf" points="0,-99 0,-129 133,-129 133,-99 0,-99"/>
<text text-anchor="start" x="8" y="-117" font-family="Helvetica,sans-Serif" font-size="10.00">base::SupportsWeakPtr</text>
<text text-anchor="middle" x="66.5" y="-106" font-family="Helvetica,sans-Serif" font-size="10.00">&lt; OmniboxEditController &gt;</text>
</a>
</g>
</g>
<!-- Node12&#45;&gt;Node11 -->
<g id="edge11" class="edge">
<title>Node12&#45;&gt;Node11</title>
<path fill="none" stroke="midnightblue" d="M143.2,-114C152.2,-114 161.27,-114 169.94,-114"/>
<polygon fill="midnightblue" stroke="midnightblue" points="143.09,-110.5 133.09,-114 143.09,-117.5 143.09,-110.5"/>
</g>
<!-- Node13 -->
<g id="node13" class="node">
<title>Node13</title>
<g id="a_node13"><a xlink:title=" ">
<polygon fill="white" stroke="#bfbfbf" points="402,-290.5 402,-309.5 487,-309.5 487,-290.5 402,-290.5"/>
<text text-anchor="middle" x="444.5" y="-297.5" font-family="Helvetica,sans-Serif" font-size="10.00">views::Textfield</text>
</a>
</g>
</g>
<!-- Node13&#45;&gt;Node9 -->
<g id="edge12" class="edge">
<title>Node13&#45;&gt;Node9</title>
<path fill="none" stroke="midnightblue" d="M497.18,-295.28C546.15,-290.82 619.27,-284.15 668.13,-279.69"/>
<polygon fill="midnightblue" stroke="midnightblue" points="496.76,-291.81 487.11,-296.2 497.39,-298.78 496.76,-291.81"/>
</g>
<!-- Node14 -->
<g id="node14" class="node">
<title>Node14</title>
<g id="a_node14"><a xlink:title=" ">
<polygon fill="white" stroke="#bfbfbf" points="381,-252.5 381,-271.5 508,-271.5 508,-252.5 381,-252.5"/>
<text text-anchor="middle" x="444.5" y="-259.5" font-family="Helvetica,sans-Serif" font-size="10.00">views::TextfieldController</text>
</a>
</g>
</g>
<!-- Node14&#45;&gt;Node9 -->
<g id="edge13" class="edge">
<title>Node14&#45;&gt;Node9</title>
<path fill="none" stroke="midnightblue" d="M518.2,-265.45C565.48,-267.69 625.98,-270.56 668.26,-272.57"/>
<polygon fill="midnightblue" stroke="midnightblue" points="518.17,-261.94 508.02,-264.97 517.84,-268.94 518.17,-261.94"/>
</g>
<!-- Node15 -->
<g id="node15" class="node">
<title>Node15</title>
<g id="a_node15"><a xlink:title=" ">
<polygon fill="white" stroke="#bfbfbf" points="384.5,-366.5 384.5,-385.5 504.5,-385.5 504.5,-366.5 384.5,-366.5"/>
<text text-anchor="middle" x="444.5" y="-373.5" font-family="Helvetica,sans-Serif" font-size="10.00">ui::CompositorObserver</text>
</a>
</g>
</g>
<!-- Node15&#45;&gt;Node9 -->
<g id="edge14" class="edge">
<title>Node15&#45;&gt;Node9</title>
<path fill="none" stroke="midnightblue" d="M492.34,-363.95C501.2,-361.66 510.39,-359.26 519,-357 570.61,-343.43 592.83,-358.71 635,-326 647.89,-316 640.19,-304.11 653,-294 657.9,-290.13 663.55,-287.05 669.45,-284.6"/>
<polygon fill="midnightblue" stroke="midnightblue" points="491.33,-360.6 482.53,-366.49 493.09,-367.37 491.33,-360.6"/>
</g>
<!-- Node16 -->
<g id="node16" class="node">
<title>Node16</title>
<g id="a_node16"><a xlink:title=" ">
<polygon fill="white" stroke="#bfbfbf" points="370,-328.5 370,-347.5 519,-347.5 519,-328.5 370,-328.5"/>
<text text-anchor="middle" x="444.5" y="-335.5" font-family="Helvetica,sans-Serif" font-size="10.00">TemplateURLServiceObserver</text>
</a>
</g>
</g>
<!-- Node16&#45;&gt;Node9 -->
<g id="edge15" class="edge">
<title>Node16&#45;&gt;Node9</title>
<path fill="none" stroke="midnightblue" d="M519.57,-326.69C554.87,-320.5 597.49,-311.86 635,-301 643.24,-298.61 644.86,-296.74 653,-294 662.9,-290.67 673.75,-287.41 683.77,-284.55"/>
<polygon fill="midnightblue" stroke="midnightblue" points="518.6,-323.3 509.34,-328.45 519.79,-330.2 518.6,-323.3"/>
</g>
<!-- Node17&#45;&gt;Node3 -->
<g id="edge16" class="edge">
<title>Node17&#45;&gt;Node3</title>
<path fill="none" stroke="#9a32cd" stroke-dasharray="5,2" d="M780.27,-125.81C809.69,-131.93 845.63,-140.47 877,-151 902.33,-159.5 930.25,-172.62 948.06,-181.5"/>
<polygon fill="#9a32cd" stroke="#9a32cd" points="780.65,-122.32 770.15,-123.75 779.25,-129.18 780.65,-122.32"/>
<text text-anchor="middle" x="841.5" y="-154" font-family="Helvetica,sans-Serif" font-size="10.00"> edit_model_</text>
</g>
<!-- Node18 -->
<g id="node18" class="node">
<title>Node18</title>
<g id="a_node18"><a xlink:href="../../d5/d39/structSplitAutocompletion.html" target="_top" xlink:title=" ">
<polygon fill="white" stroke="black" points="392.5,-42.5 392.5,-61.5 496.5,-61.5 496.5,-42.5 392.5,-42.5"/>
<text text-anchor="middle" x="444.5" y="-49.5" font-family="Helvetica,sans-Serif" font-size="10.00">SplitAutocompletion</text>
</a>
</g>
</g>
<!-- Node18&#45;&gt;Node17 -->
<g id="edge18" class="edge">
<title>Node18&#45;&gt;Node17</title>
<path fill="none" stroke="#9a32cd" stroke-dasharray="5,2" d="M507.02,-53.38C544.63,-55.55 593.34,-60.76 635,-73 660.62,-80.53 687.87,-95.5 704.29,-105.38"/>
<polygon fill="#9a32cd" stroke="#9a32cd" points="506.89,-49.87 496.72,-52.84 506.53,-56.86 506.89,-49.87"/>
<text text-anchor="middle" x="586" y="-76" font-family="Helvetica,sans-Serif" font-size="10.00"> split_autocompletion_</text>
</g>
<!-- Node19 -->
<g id="node19" class="node">
<title>Node19</title>
<g id="a_node19"><a xlink:href="../../d9/df6/classAutocompleteInput.html" target="_top" xlink:title=" ">
<polygon fill="white" stroke="black" points="395.5,-127.5 395.5,-146.5 493.5,-146.5 493.5,-127.5 395.5,-127.5"/>
<text text-anchor="middle" x="444.5" y="-134.5" font-family="Helvetica,sans-Serif" font-size="10.00">AutocompleteInput</text>
</a>
</g>
</g>
<!-- Node19&#45;&gt;Node17 -->
<g id="edge21" class="edge">
<title>Node19&#45;&gt;Node17</title>
<path fill="none" stroke="#9a32cd" stroke-dasharray="5,2" d="M503.8,-132.32C553.41,-128.34 623.87,-122.68 670.59,-118.93"/>
<polygon fill="#9a32cd" stroke="#9a32cd" points="503.23,-128.85 493.54,-133.14 503.79,-135.83 503.23,-128.85"/>
<text text-anchor="middle" x="586" y="-132" font-family="Helvetica,sans-Serif" font-size="10.00"> input_</text>
</g>
<!-- Node20 -->
<g id="node20" class="node">
<title>Node20</title>
<g id="a_node20"><a xlink:href="../../de/dfc/structOmniboxPopupSelection.html" target="_top" xlink:title=" ">
<polygon fill="white" stroke="black" points="382.5,-0.5 382.5,-19.5 506.5,-19.5 506.5,-0.5 382.5,-0.5"/>
<text text-anchor="middle" x="444.5" y="-7.5" font-family="Helvetica,sans-Serif" font-size="10.00">OmniboxPopupSelection</text>
</a>
</g>
</g>
<!-- Node20&#45;&gt;Node1 -->
<g id="edge23" class="edge">
<title>Node20&#45;&gt;Node1</title>
<path fill="none" stroke="#9a32cd" stroke-dasharray="5,2" d="M517.18,-9.64C552.8,-10.42 596.37,-12.8 635,-19 870.3,-56.76 1144.01,-151.17 1228.4,-181.47"/>
<polygon fill="#9a32cd" stroke="#9a32cd" points="516.94,-6.14 506.88,-9.46 516.81,-13.14 516.94,-6.14"/>
<text text-anchor="middle" x="841.5" y="-74" font-family="Helvetica,sans-Serif" font-size="10.00"> selection_</text>
</g>
<!-- Node20&#45;&gt;Node17 -->
<g id="edge22" class="edge">
<title>Node20&#45;&gt;Node17</title>
<path fill="none" stroke="#9a32cd" stroke-dasharray="5,2" d="M516.76,-17.54C561.43,-23.05 614.33,-31.25 635,-41 668.16,-56.64 698.19,-89.22 711.8,-105.42"/>
<polygon fill="#9a32cd" stroke="#9a32cd" points="517.13,-14.06 506.78,-16.33 516.29,-21.01 517.13,-14.06"/>
<text text-anchor="middle" x="586" y="-44" font-family="Helvetica,sans-Serif" font-size="10.00"> popup_selection_</text>
</g>
</g>
</svg>
        <g id="navigator" transform="translate(0 0)" fill="#404254">
                <rect fill="#f2f5e9" fill-opacity="0.5" stroke="#606060" stroke-width=".5" x="0" y="0" width="60" height="60"/>
                <use id="zoomplus" xlink:href="#zoomPlus" x="17" y="9" onmousedown="handleZoom(evt,'in')"/>
                <use id="zoomminus" xlink:href="#zoomMin" x="42" y="9" onmousedown="handleZoom(evt,'out')"/>
                <use id="reset" xlink:href="#resetDef" x="30" y="36" onmousedown="handleReset()"/>
                <g id="arrowUp" xlink:href="#dirArrow" transform="translate(30 24)" onmousedown="handlePan(0,-1)">
                  <use xlink:href="#rim" fill="#404040">
                        <set attributeName="fill" to="#808080" begin="arrowUp.mouseover" end="arrowUp.mouseout"/>
                  </use>
                  <path fill="none" stroke="white" stroke-width="1.5" d="M0,-3.0v7 M-2.5,-0.5L0,-3.0L2.5,-0.5"/>
                </g>
                <g id="arrowRight" xlink:href="#dirArrow" transform="rotate(90) translate(36 -43)" onmousedown="handlePan(1,0)">
                  <use xlink:href="#rim" fill="#404040">
                        <set attributeName="fill" to="#808080" begin="arrowRight.mouseover" end="arrowRight.mouseout"/>
                  </use>
                  <path fill="none" stroke="white" stroke-width="1.5" d="M0,-3.0v7 M-2.5,-0.5L0,-3.0L2.5,-0.5"/>
                </g>
                <g id="arrowDown" xlink:href="#dirArrow" transform="rotate(180) translate(-30 -48)" onmousedown="handlePan(0,1)">
                  <use xlink:href="#rim" fill="#404040">
                        <set attributeName="fill" to="#808080" begin="arrowDown.mouseover" end="arrowDown.mouseout"/>
                  </use>
                  <path fill="none" stroke="white" stroke-width="1.5" d="M0,-3.0v7 M-2.5,-0.5L0,-3.0L2.5,-0.5"/>
                </g>
                <g id="arrowLeft" xlink:href="#dirArrow" transform="rotate(270) translate(-36 17)" onmousedown="handlePan(-1,0)">
                  <use xlink:href="#rim" fill="#404040">
                        <set attributeName="fill" to="#808080" begin="arrowLeft.mouseover" end="arrowLeft.mouseout"/>
                  </use>
                  <path fill="none" stroke="white" stroke-width="1.5" d="M0,-3.0v7 M-2.5,-0.5L0,-3.0L2.5,-0.5"/>
                </g>
        </g>
        <svg viewBox="0 0 15 15" width="100%" height="30px" preserveAspectRatio="xMaxYMin meet">
         <g id="arrow_out" transform="scale(0.3 0.3)">
          <a xlink:href="classOmniboxSuggestionRowButton__coll__graph_org.svg" target="_base">
           <rect id="button" ry="5" rx="5" y="6" x="6" height="38" width="38"
                fill="#f2f5e9" fill-opacity="0.5" stroke="#606060" stroke-width="1.0"/>
           <path id="arrow"
             d="M 11.500037,31.436501 C 11.940474,20.09759 22.043105,11.32322 32.158766,21.979434 L 37.068811,17.246167 C 37.068811,17.246167 37.088388,32 37.088388,32 L 22.160133,31.978069 C 22.160133,31.978069 26.997745,27.140456 26.997745,27.140456 C 18.528582,18.264221 13.291696,25.230495 11.500037,31.436501 z"
             style="fill:#404040;"/>
          </a>
         </g>
        </svg>
</svg>
