<?xml version="1.0" encoding="UTF-8" standalone="no"?>
<!DOCTYPE svg PUBLIC "-//W3C//DTD SVG 1.1//EN"
 "http://www.w3.org/Graphics/SVG/1.1/DTD/svg11.dtd">
<!-- Generated by graphviz version 2.43.0 (0)
 -->
<!-- Title: components/omnibox/browser/omnibox_log.h Pages: 1 -->
<svg width="3067pt" height="351pt"
 viewBox="0.00 0.00 3066.50 351.00" xmlns="http://www.w3.org/2000/svg" xmlns:xlink="http://www.w3.org/1999/xlink">
<g id="graph0" class="graph" transform="scale(1 1) rotate(0) translate(4 347)">
<title>components/omnibox/browser/omnibox_log.h</title>
<polygon fill="white" stroke="transparent" points="-4,4 -4,-347 3062.5,-347 3062.5,4 -4,4"/>
<!-- Node1 -->
<g id="node1" class="node">
<title>Node1</title>
<g id="a_node1"><a xlink:title=" ">
<polygon fill="#bfbfbf" stroke="black" points="2536.5,-312.5 2536.5,-342.5 2656.5,-342.5 2656.5,-312.5 2536.5,-312.5"/>
<text text-anchor="start" x="2544.5" y="-330.5" font-family="Helvetica,sans-Serif" font-size="10.00">components/omnibox</text>
<text text-anchor="middle" x="2596.5" y="-319.5" font-family="Helvetica,sans-Serif" font-size="10.00">/browser/omnibox_log.h</text>
</a>
</g>
</g>
<!-- Node2 -->
<g id="node2" class="node">
<title>Node2</title>
<g id="a_node2"><a xlink:title=" ">
<polygon fill="white" stroke="#bfbfbf" points="2046.5,-11.5 2046.5,-30.5 2098.5,-30.5 2098.5,-11.5 2046.5,-11.5"/>
<text text-anchor="middle" x="2072.5" y="-18.5" font-family="Helvetica,sans-Serif" font-size="10.00">stddef.h</text>
</a>
</g>
</g>
<!-- Node1&#45;&gt;Node2 -->
<g id="edge1" class="edge">
<title>Node1&#45;&gt;Node2</title>
<path fill="none" stroke="midnightblue" d="M2536.18,-326.18C2422.72,-324.62 2182.59,-316.47 2111.5,-276 2060.02,-246.69 2021.45,-205.82 2053.5,-156 2074.37,-123.55 2111.63,-152.45 2132.5,-120 2142.6,-104.3 2139.94,-95.12 2132.5,-78 2124.95,-60.63 2109.07,-46.21 2095.55,-36.35"/>
<polygon fill="midnightblue" stroke="midnightblue" points="2097.33,-33.33 2087.11,-30.54 2093.36,-39.09 2097.33,-33.33"/>
</g>
<!-- Node3 -->
<g id="node3" class="node">
<title>Node3</title>
<g id="a_node3"><a xlink:title=" ">
<polygon fill="white" stroke="#bfbfbf" points="582,-11.5 582,-30.5 623,-30.5 623,-11.5 582,-11.5"/>
<text text-anchor="middle" x="602.5" y="-18.5" font-family="Helvetica,sans-Serif" font-size="10.00">string</text>
</a>
</g>
</g>
<!-- Node1&#45;&gt;Node3 -->
<g id="edge2" class="edge">
<title>Node1&#45;&gt;Node3</title>
<path fill="none" stroke="midnightblue" d="M2536.29,-325.18C2211.39,-317.76 674.93,-278.59 480.5,-198 419.4,-172.68 350.57,-129.15 392.5,-78 444.22,-14.91 497.13,-73.22 572.5,-42 576.3,-40.43 580.12,-38.35 583.7,-36.12"/>
<polygon fill="midnightblue" stroke="midnightblue" points="585.67,-39.02 591.97,-30.5 581.73,-33.23 585.67,-39.02"/>
</g>
<!-- Node4 -->
<g id="node4" class="node">
<title>Node4</title>
<g id="a_node4"><a xlink:title=" ">
<polygon fill="white" stroke="#bfbfbf" points="2121,-245.5 2121,-264.5 2210,-264.5 2210,-245.5 2121,-245.5"/>
<text text-anchor="middle" x="2165.5" y="-252.5" font-family="Helvetica,sans-Serif" font-size="10.00">base/time/time.h</text>
</a>
</g>
</g>
<!-- Node1&#45;&gt;Node4 -->
<g id="edge3" class="edge">
<title>Node1&#45;&gt;Node4</title>
<path fill="none" stroke="midnightblue" d="M2536.45,-322.72C2461.22,-317.02 2328.77,-303.78 2218.5,-276 2210.52,-273.99 2202.1,-271.16 2194.37,-268.25"/>
<polygon fill="midnightblue" stroke="midnightblue" points="2195.63,-264.99 2185.04,-264.6 2193.07,-271.51 2195.63,-264.99"/>
</g>
<!-- Node5 -->
<g id="node5" class="node">
<title>Node5</title>
<g id="a_node5"><a xlink:href="../../de/d0e/autocomplete__provider_8h.html" target="_top" xlink:title=" ">
<polygon fill="white" stroke="black" points="2227.5,-234.5 2227.5,-275.5 2343.5,-275.5 2343.5,-234.5 2227.5,-234.5"/>
<text text-anchor="start" x="2235.5" y="-263.5" font-family="Helvetica,sans-Serif" font-size="10.00">components/omnibox</text>
<text text-anchor="start" x="2235.5" y="-252.5" font-family="Helvetica,sans-Serif" font-size="10.00">/browser/autocomplete</text>
<text text-anchor="middle" x="2285.5" y="-241.5" font-family="Helvetica,sans-Serif" font-size="10.00">_provider.h</text>
</a>
</g>
</g>
<!-- Node1&#45;&gt;Node5 -->
<g id="edge4" class="edge">
<title>Node1&#45;&gt;Node5</title>
<path fill="none" stroke="midnightblue" d="M2536.17,-312.82C2483.79,-300.95 2407.99,-283.77 2353.48,-271.41"/>
<polygon fill="midnightblue" stroke="midnightblue" points="2354.09,-267.96 2343.56,-269.16 2352.54,-274.79 2354.09,-267.96"/>
</g>
<!-- Node20 -->
<g id="node20" class="node">
<title>Node20</title>
<g id="a_node20"><a xlink:title=" ">
<polygon fill="white" stroke="#bfbfbf" points="2646.5,-6 2646.5,-36 2780.5,-36 2780.5,-6 2646.5,-6"/>
<text text-anchor="start" x="2654.5" y="-24" font-family="Helvetica,sans-Serif" font-size="10.00">third_party/metrics</text>
<text text-anchor="middle" x="2713.5" y="-13" font-family="Helvetica,sans-Serif" font-size="10.00">_proto/omnibox_event.pb.h</text>
</a>
</g>
</g>
<!-- Node1&#45;&gt;Node20 -->
<g id="edge64" class="edge">
<title>Node1&#45;&gt;Node20</title>
<path fill="none" stroke="midnightblue" d="M2601.99,-312.22C2620.56,-263.87 2681.23,-105.98 2704.4,-45.69"/>
<polygon fill="midnightblue" stroke="midnightblue" points="2707.71,-46.84 2708.03,-36.25 2701.17,-44.33 2707.71,-46.84"/>
</g>
<!-- Node21 -->
<g id="node21" class="node">
<title>Node21</title>
<g id="a_node21"><a xlink:title=" ">
<polygon fill="white" stroke="#bfbfbf" points="2518.5,-0.5 2518.5,-41.5 2628.5,-41.5 2628.5,-0.5 2518.5,-0.5"/>
<text text-anchor="start" x="2526.5" y="-29.5" font-family="Helvetica,sans-Serif" font-size="10.00">third_party/metrics</text>
<text text-anchor="start" x="2526.5" y="-18.5" font-family="Helvetica,sans-Serif" font-size="10.00">_proto/omnibox_input</text>
<text text-anchor="middle" x="2573.5" y="-7.5" font-family="Helvetica,sans-Serif" font-size="10.00">_type.pb.h</text>
</a>
</g>
</g>
<!-- Node1&#45;&gt;Node21 -->
<g id="edge65" class="edge">
<title>Node1&#45;&gt;Node21</title>
<path fill="none" stroke="midnightblue" d="M2595.42,-312.22C2591.89,-265.43 2580.6,-116.03 2575.75,-51.81"/>
<polygon fill="midnightblue" stroke="midnightblue" points="2579.22,-51.26 2574.98,-41.55 2572.24,-51.79 2579.22,-51.26"/>
</g>
<!-- Node38 -->
<g id="node38" class="node">
<title>Node38</title>
<g id="a_node38"><a xlink:href="../../d5/d02/omnibox__triggered__feature__service_8h.html" target="_top" xlink:title=" ">
<polygon fill="white" stroke="black" points="2663,-234.5 2663,-275.5 2800,-275.5 2800,-234.5 2663,-234.5"/>
<text text-anchor="start" x="2671" y="-263.5" font-family="Helvetica,sans-Serif" font-size="10.00">components/omnibox</text>
<text text-anchor="start" x="2671" y="-252.5" font-family="Helvetica,sans-Serif" font-size="10.00">/browser/omnibox_triggered</text>
<text text-anchor="middle" x="2731.5" y="-241.5" font-family="Helvetica,sans-Serif" font-size="10.00">_feature_service.h</text>
</a>
</g>
</g>
<!-- Node1&#45;&gt;Node38 -->
<g id="edge61" class="edge">
<title>Node1&#45;&gt;Node38</title>
<path fill="none" stroke="midnightblue" d="M2623.49,-312.4C2641.12,-303.2 2664.6,-290.94 2685.16,-280.2"/>
<polygon fill="midnightblue" stroke="midnightblue" points="2686.83,-283.28 2694.07,-275.55 2683.59,-277.07 2686.83,-283.28"/>
</g>
<!-- Node40 -->
<g id="node40" class="node">
<title>Node40</title>
<g id="a_node40"><a xlink:title=" ">
<polygon fill="white" stroke="#bfbfbf" points="2818.5,-240 2818.5,-270 2930.5,-270 2930.5,-240 2818.5,-240"/>
<text text-anchor="start" x="2826.5" y="-258" font-family="Helvetica,sans-Serif" font-size="10.00">components/sessions</text>
<text text-anchor="middle" x="2874.5" y="-247" font-family="Helvetica,sans-Serif" font-size="10.00">/core/session_id.h</text>
</a>
</g>
</g>
<!-- Node1&#45;&gt;Node40 -->
<g id="edge63" class="edge">
<title>Node1&#45;&gt;Node40</title>
<path fill="none" stroke="midnightblue" d="M2656.9,-313.29C2699.69,-303.66 2758.34,-289.92 2809.5,-276 2813.07,-275.03 2816.74,-273.99 2820.43,-272.93"/>
<polygon fill="midnightblue" stroke="midnightblue" points="2821.6,-276.23 2830.21,-270.05 2819.63,-269.52 2821.6,-276.23"/>
</g>
<!-- Node41 -->
<g id="node41" class="node">
<title>Node41</title>
<g id="a_node41"><a xlink:title=" ">
<polygon fill="white" stroke="#bfbfbf" points="2948.5,-240 2948.5,-270 3058.5,-270 3058.5,-240 2948.5,-240"/>
<text text-anchor="start" x="2956.5" y="-258" font-family="Helvetica,sans-Serif" font-size="10.00">ui/base/window_open</text>
<text text-anchor="middle" x="3003.5" y="-247" font-family="Helvetica,sans-Serif" font-size="10.00">_disposition.h</text>
</a>
</g>
</g>
<!-- Node1&#45;&gt;Node41 -->
<g id="edge66" class="edge">
<title>Node1&#45;&gt;Node41</title>
<path fill="none" stroke="midnightblue" d="M2656.51,-320.55C2725.4,-313.05 2841.5,-298.38 2939.5,-276 2943.59,-275.07 2947.79,-274 2951.99,-272.86"/>
<polygon fill="midnightblue" stroke="midnightblue" points="2953.1,-276.18 2961.76,-270.08 2951.18,-269.45 2953.1,-276.18"/>
</g>
<!-- Node5&#45;&gt;Node2 -->
<g id="edge5" class="edge">
<title>Node5&#45;&gt;Node2</title>
<path fill="none" stroke="midnightblue" d="M2291.95,-234.38C2302.32,-198.7 2317.98,-122.77 2280.5,-78 2230.09,-17.78 2180.94,-69.82 2107.5,-42 2103.04,-40.31 2098.46,-38.1 2094.16,-35.77"/>
<polygon fill="midnightblue" stroke="midnightblue" points="2095.72,-32.62 2085.31,-30.62 2092.2,-38.67 2095.72,-32.62"/>
</g>
<!-- Node5&#45;&gt;Node3 -->
<g id="edge7" class="edge">
<title>Node5&#45;&gt;Node3</title>
<path fill="none" stroke="midnightblue" d="M2227.24,-235.67C2224.3,-235.04 2221.37,-234.48 2218.5,-234 2019.37,-201.03 541.68,-268.98 405.5,-120 392.91,-106.22 393.77,-92.52 405.5,-78 453.2,-18.92 502.57,-71.58 572.5,-42 576.11,-40.47 579.76,-38.49 583.2,-36.37"/>
<polygon fill="midnightblue" stroke="midnightblue" points="585.34,-39.15 591.68,-30.66 581.43,-33.35 585.34,-39.15"/>
</g>
<!-- Node6 -->
<g id="node6" class="node">
<title>Node6</title>
<g id="a_node6"><a xlink:title=" ">
<polygon fill="white" stroke="#bfbfbf" points="2465,-11.5 2465,-30.5 2500,-30.5 2500,-11.5 2465,-11.5"/>
<text text-anchor="middle" x="2482.5" y="-18.5" font-family="Helvetica,sans-Serif" font-size="10.00">map</text>
</a>
</g>
</g>
<!-- Node5&#45;&gt;Node6 -->
<g id="edge6" class="edge">
<title>Node5&#45;&gt;Node6</title>
<path fill="none" stroke="midnightblue" d="M2341.55,-234.33C2389.98,-214 2456.85,-177.11 2487.5,-120 2500.95,-94.93 2494.73,-60.87 2488.77,-40.21"/>
<polygon fill="midnightblue" stroke="midnightblue" points="2492.05,-38.98 2485.7,-30.5 2485.38,-41.09 2492.05,-38.98"/>
</g>
<!-- Node7 -->
<g id="node7" class="node">
<title>Node7</title>
<g id="a_node7"><a xlink:title=" ">
<polygon fill="white" stroke="#bfbfbf" points="2198.5,-89.5 2198.5,-108.5 2238.5,-108.5 2238.5,-89.5 2198.5,-89.5"/>
<text text-anchor="middle" x="2218.5" y="-96.5" font-family="Helvetica,sans-Serif" font-size="10.00">utility</text>
</a>
</g>
</g>
<!-- Node5&#45;&gt;Node7 -->
<g id="edge8" class="edge">
<title>Node5&#45;&gt;Node7</title>
<path fill="none" stroke="midnightblue" d="M2272.59,-234.3C2266.05,-223.8 2258.28,-210.5 2252.5,-198 2240.06,-171.11 2229.57,-138.3 2223.66,-118.29"/>
<polygon fill="midnightblue" stroke="midnightblue" points="2227,-117.25 2220.86,-108.61 2220.27,-119.19 2227,-117.25"/>
</g>
<!-- Node8 -->
<g id="node8" class="node">
<title>Node8</title>
<g id="a_node8"><a xlink:title=" ">
<polygon fill="white" stroke="#bfbfbf" points="1984.5,-11.5 1984.5,-30.5 2028.5,-30.5 2028.5,-11.5 1984.5,-11.5"/>
<text text-anchor="middle" x="2006.5" y="-18.5" font-family="Helvetica,sans-Serif" font-size="10.00">vector</text>
</a>
</g>
</g>
<!-- Node5&#45;&gt;Node8 -->
<g id="edge9" class="edge">
<title>Node5&#45;&gt;Node8</title>
<path fill="none" stroke="midnightblue" d="M2287.69,-234.29C2290.54,-197.76 2290.84,-119.52 2247.5,-78 2179.12,-12.49 2125.74,-76.36 2037.5,-42 2033.58,-40.47 2029.64,-38.42 2025.94,-36.2"/>
<polygon fill="midnightblue" stroke="midnightblue" points="2027.66,-33.15 2017.39,-30.57 2023.82,-39 2027.66,-33.15"/>
</g>
<!-- Node9 -->
<g id="node9" class="node">
<title>Node9</title>
<g id="a_node9"><a xlink:title=" ">
<polygon fill="white" stroke="#bfbfbf" points="0,-11.5 0,-30.5 113,-30.5 113,-11.5 0,-11.5"/>
<text text-anchor="middle" x="56.5" y="-18.5" font-family="Helvetica,sans-Serif" font-size="10.00">base/gtest_prod_util.h</text>
</a>
</g>
</g>
<!-- Node5&#45;&gt;Node9 -->
<g id="edge10" class="edge">
<title>Node5&#45;&gt;Node9</title>
<path fill="none" stroke="midnightblue" d="M2227.25,-235.61C2224.31,-234.99 2221.38,-234.45 2218.5,-234 1836.85,-174.21 863.69,-246.96 480.5,-198 331.87,-179.01 282.94,-193.75 152.5,-120 116.22,-99.49 84.68,-61.22 68.35,-39.06"/>
<polygon fill="midnightblue" stroke="midnightblue" points="70.99,-36.74 62.32,-30.65 65.3,-40.82 70.99,-36.74"/>
</g>
<!-- Node10 -->
<g id="node10" class="node">
<title>Node10</title>
<g id="a_node10"><a xlink:title=" ">
<polygon fill="white" stroke="#bfbfbf" points="2062.5,-167.5 2062.5,-186.5 2200.5,-186.5 2200.5,-167.5 2062.5,-167.5"/>
<text text-anchor="middle" x="2131.5" y="-174.5" font-family="Helvetica,sans-Serif" font-size="10.00">base/memory/ref_counted.h</text>
</a>
</g>
</g>
<!-- Node5&#45;&gt;Node10 -->
<g id="edge11" class="edge">
<title>Node5&#45;&gt;Node10</title>
<path fill="none" stroke="midnightblue" d="M2245.84,-234.43C2218.27,-220.82 2182.27,-203.06 2158.1,-191.12"/>
<polygon fill="midnightblue" stroke="midnightblue" points="2159.35,-187.84 2148.83,-186.55 2156.25,-194.12 2159.35,-187.84"/>
</g>
<!-- Node11 -->
<g id="node11" class="node">
<title>Node11</title>
<g id="a_node11"><a xlink:href="../../dc/d0c/autocomplete__match_8h.html" target="_top" xlink:title=" ">
<polygon fill="white" stroke="black" points="1281.5,-156.5 1281.5,-197.5 1397.5,-197.5 1397.5,-156.5 1281.5,-156.5"/>
<text text-anchor="start" x="1289.5" y="-185.5" font-family="Helvetica,sans-Serif" font-size="10.00">components/omnibox</text>
<text text-anchor="start" x="1289.5" y="-174.5" font-family="Helvetica,sans-Serif" font-size="10.00">/browser/autocomplete</text>
<text text-anchor="middle" x="1339.5" y="-163.5" font-family="Helvetica,sans-Serif" font-size="10.00">_match.h</text>
</a>
</g>
</g>
<!-- Node5&#45;&gt;Node11 -->
<g id="edge12" class="edge">
<title>Node5&#45;&gt;Node11</title>
<path fill="none" stroke="midnightblue" d="M2227.22,-235.76C2224.29,-235.1 2221.37,-234.51 2218.5,-234 1920.09,-180.67 1556.74,-176.35 1407.97,-177.12"/>
<polygon fill="midnightblue" stroke="midnightblue" points="1407.61,-173.62 1397.63,-177.18 1407.66,-180.62 1407.61,-173.62"/>
</g>
<!-- Node5&#45;&gt;Node20 -->
<g id="edge60" class="edge">
<title>Node5&#45;&gt;Node20</title>
<path fill="none" stroke="midnightblue" d="M2343.64,-238.92C2376.29,-229.35 2417.22,-215.47 2451.5,-198 2533.57,-156.16 2543.43,-128.46 2620.5,-78 2639.97,-65.25 2662.29,-51.77 2680.19,-41.23"/>
<polygon fill="midnightblue" stroke="midnightblue" points="2682.25,-44.09 2689.1,-36.01 2678.71,-38.05 2682.25,-44.09"/>
</g>
<!-- Node34 -->
<g id="node34" class="node">
<title>Node34</title>
<g id="a_node34"><a xlink:href="../../d5/d60/in__memory__url__index__types_8h.html" target="_top" xlink:title=" ">
<polygon fill="white" stroke="black" points="2333,-78.5 2333,-119.5 2454,-119.5 2454,-78.5 2333,-78.5"/>
<text text-anchor="start" x="2341" y="-107.5" font-family="Helvetica,sans-Serif" font-size="10.00">components/omnibox</text>
<text text-anchor="start" x="2341" y="-96.5" font-family="Helvetica,sans-Serif" font-size="10.00">/browser/in_memory_url</text>
<text text-anchor="middle" x="2393.5" y="-85.5" font-family="Helvetica,sans-Serif" font-size="10.00">_index_types.h</text>
</a>
</g>
</g>
<!-- Node5&#45;&gt;Node34 -->
<g id="edge51" class="edge">
<title>Node5&#45;&gt;Node34</title>
<path fill="none" stroke="midnightblue" d="M2299.18,-234.5C2317.98,-207.68 2351.94,-159.26 2373.57,-128.41"/>
<polygon fill="midnightblue" stroke="midnightblue" points="2376.72,-130.03 2379.59,-119.83 2370.98,-126.01 2376.72,-130.03"/>
</g>
<!-- Node11&#45;&gt;Node2 -->
<g id="edge13" class="edge">
<title>Node11&#45;&gt;Node2</title>
<path fill="none" stroke="midnightblue" d="M1397.76,-174.02C1506.14,-169.51 1734.06,-155.95 1803.5,-120 1825.85,-108.43 1819.51,-90.26 1841.5,-78 1918.86,-34.88 1954.31,-72.4 2037.5,-42 2041.98,-40.36 2046.56,-38.18 2050.87,-35.85"/>
<polygon fill="midnightblue" stroke="midnightblue" points="2052.84,-38.76 2059.72,-30.7 2049.31,-32.71 2052.84,-38.76"/>
</g>
<!-- Node11&#45;&gt;Node3 -->
<g id="edge16" class="edge">
<title>Node11&#45;&gt;Node3</title>
<path fill="none" stroke="midnightblue" d="M1281.24,-174.63C1083.44,-169.71 448.14,-151.5 418.5,-120 405.71,-106.41 406.9,-92.62 418.5,-78 462.18,-22.93 508,-69.94 572.5,-42 576.1,-40.44 579.74,-38.44 583.18,-36.32"/>
<polygon fill="midnightblue" stroke="midnightblue" points="585.32,-39.1 591.65,-30.61 581.4,-33.29 585.32,-39.1"/>
</g>
<!-- Node11&#45;&gt;Node6 -->
<g id="edge14" class="edge">
<title>Node11&#45;&gt;Node6</title>
<path fill="none" stroke="midnightblue" d="M1397.5,-174.07C1624.63,-166.37 2442.1,-137.52 2462.5,-120 2485.04,-100.64 2486.38,-63.39 2484.8,-40.8"/>
<polygon fill="midnightblue" stroke="midnightblue" points="2488.27,-40.39 2483.83,-30.77 2481.31,-41.06 2488.27,-40.39"/>
</g>
<!-- Node11&#45;&gt;Node7 -->
<g id="edge17" class="edge">
<title>Node11&#45;&gt;Node7</title>
<path fill="none" stroke="midnightblue" d="M1397.71,-175.97C1531.15,-175.02 1868.98,-167.67 2146.5,-120 2160.52,-117.59 2175.75,-113.58 2188.57,-109.77"/>
<polygon fill="midnightblue" stroke="midnightblue" points="2189.73,-113.08 2198.27,-106.8 2187.68,-106.38 2189.73,-113.08"/>
</g>
<!-- Node11&#45;&gt;Node8 -->
<g id="edge18" class="edge">
<title>Node11&#45;&gt;Node8</title>
<path fill="none" stroke="midnightblue" d="M1397.74,-176.24C1569.5,-176.35 2065.04,-172.1 2113.5,-120 2126.21,-106.33 2123.48,-93.77 2113.5,-78 2093.51,-46.42 2070.16,-60.17 2037.5,-42 2034.17,-40.15 2030.71,-38.08 2027.37,-35.99"/>
<polygon fill="midnightblue" stroke="midnightblue" points="2029.24,-33.03 2018.94,-30.56 2025.45,-38.91 2029.24,-33.03"/>
</g>
<!-- Node12 -->
<g id="node12" class="node">
<title>Node12</title>
<g id="a_node12"><a xlink:title=" ">
<polygon fill="white" stroke="#bfbfbf" points="131.5,-11.5 131.5,-30.5 183.5,-30.5 183.5,-11.5 131.5,-11.5"/>
<text text-anchor="middle" x="157.5" y="-18.5" font-family="Helvetica,sans-Serif" font-size="10.00">memory</text>
</a>
</g>
</g>
<!-- Node11&#45;&gt;Node12 -->
<g id="edge15" class="edge">
<title>Node11&#45;&gt;Node12</title>
<path fill="none" stroke="midnightblue" d="M1281.43,-175.18C1051.94,-171.68 218.64,-156.49 176.5,-120 154.08,-100.59 153.14,-63.35 154.99,-40.78"/>
<polygon fill="midnightblue" stroke="midnightblue" points="158.48,-41.08 156.07,-30.76 151.52,-40.33 158.48,-41.08"/>
</g>
<!-- Node13 -->
<g id="node13" class="node">
<title>Node13</title>
<g id="a_node13"><a xlink:title=" ">
<polygon fill="white" stroke="#bfbfbf" points="1850.5,-84 1850.5,-114 1960.5,-114 1960.5,-84 1850.5,-84"/>
<text text-anchor="start" x="1858.5" y="-102" font-family="Helvetica,sans-Serif" font-size="10.00">base/memory/scoped</text>
<text text-anchor="middle" x="1905.5" y="-91" font-family="Helvetica,sans-Serif" font-size="10.00">_refptr.h</text>
</a>
</g>
</g>
<!-- Node11&#45;&gt;Node13 -->
<g id="edge19" class="edge">
<title>Node11&#45;&gt;Node13</title>
<path fill="none" stroke="midnightblue" d="M1397.77,-172.65C1491.11,-166.58 1679.61,-151.34 1836.5,-120 1841.42,-119.02 1846.5,-117.85 1851.56,-116.58"/>
<polygon fill="midnightblue" stroke="midnightblue" points="1852.45,-119.96 1861.23,-114.03 1850.67,-113.19 1852.45,-119.96"/>
</g>
<!-- Node14 -->
<g id="node14" class="node">
<title>Node14</title>
<g id="a_node14"><a xlink:title=" ">
<polygon fill="white" stroke="#bfbfbf" points="1978.5,-89.5 1978.5,-108.5 2104.5,-108.5 2104.5,-89.5 1978.5,-89.5"/>
<text text-anchor="middle" x="2041.5" y="-96.5" font-family="Helvetica,sans-Serif" font-size="10.00">base/memory/weak_ptr.h</text>
</a>
</g>
</g>
<!-- Node11&#45;&gt;Node14 -->
<g id="edge20" class="edge">
<title>Node11&#45;&gt;Node14</title>
<path fill="none" stroke="midnightblue" d="M1397.73,-174.37C1509.45,-170.45 1761.26,-157.85 1969.5,-120 1981.35,-117.85 1994.07,-114.63 2005.47,-111.39"/>
<polygon fill="midnightblue" stroke="midnightblue" points="2006.48,-114.75 2015.1,-108.58 2004.52,-108.03 2006.48,-114.75"/>
</g>
<!-- Node15 -->
<g id="node15" class="node">
<title>Node15</title>
<g id="a_node15"><a xlink:title=" ">
<polygon fill="white" stroke="#bfbfbf" points="427.5,-84 427.5,-114 541.5,-114 541.5,-84 427.5,-84"/>
<text text-anchor="start" x="435.5" y="-102" font-family="Helvetica,sans-Serif" font-size="10.00">base/strings/utf_offset</text>
<text text-anchor="middle" x="484.5" y="-91" font-family="Helvetica,sans-Serif" font-size="10.00">_string_conversions.h</text>
</a>
</g>
</g>
<!-- Node11&#45;&gt;Node15 -->
<g id="edge21" class="edge">
<title>Node11&#45;&gt;Node15</title>
<path fill="none" stroke="midnightblue" d="M1281.03,-176.29C1149.41,-175.98 820.25,-169.8 550.5,-120 545.55,-119.09 540.44,-117.93 535.37,-116.64"/>
<polygon fill="midnightblue" stroke="midnightblue" points="536.26,-113.26 525.7,-114.02 534.43,-120.02 536.26,-113.26"/>
</g>
<!-- Node16 -->
<g id="node16" class="node">
<title>Node16</title>
<g id="a_node16"><a xlink:title=" ">
<polygon fill="white" stroke="#bfbfbf" points="559.5,-89.5 559.5,-108.5 659.5,-108.5 659.5,-89.5 559.5,-89.5"/>
<text text-anchor="middle" x="609.5" y="-96.5" font-family="Helvetica,sans-Serif" font-size="10.00">build/build_config.h</text>
</a>
</g>
</g>
<!-- Node11&#45;&gt;Node16 -->
<g id="edge22" class="edge">
<title>Node11&#45;&gt;Node16</title>
<path fill="none" stroke="midnightblue" d="M1281.38,-175.88C1164.18,-174.61 891.68,-166.41 668.5,-120 659.19,-118.06 649.32,-115.1 640.37,-112.04"/>
<polygon fill="midnightblue" stroke="midnightblue" points="641.32,-108.67 630.73,-108.6 638.97,-115.26 641.32,-108.67"/>
</g>
<!-- Node17 -->
<g id="node17" class="node">
<title>Node17</title>
<g id="a_node17"><a xlink:href="../../df/dab/autocomplete__input_8h.html" target="_top" xlink:title=" ">
<polygon fill="white" stroke="black" points="1678.5,-78.5 1678.5,-119.5 1794.5,-119.5 1794.5,-78.5 1678.5,-78.5"/>
<text text-anchor="start" x="1686.5" y="-107.5" font-family="Helvetica,sans-Serif" font-size="10.00">components/omnibox</text>
<text text-anchor="start" x="1686.5" y="-96.5" font-family="Helvetica,sans-Serif" font-size="10.00">/browser/autocomplete</text>
<text text-anchor="middle" x="1736.5" y="-85.5" font-family="Helvetica,sans-Serif" font-size="10.00">_input.h</text>
</a>
</g>
</g>
<!-- Node11&#45;&gt;Node17 -->
<g id="edge23" class="edge">
<title>Node11&#45;&gt;Node17</title>
<path fill="none" stroke="midnightblue" d="M1397.56,-168.22C1463.61,-158.89 1574.51,-141.74 1668.5,-120 1668.6,-119.98 1668.7,-119.95 1668.8,-119.93"/>
<polygon fill="midnightblue" stroke="midnightblue" points="1669.5,-123.36 1678.38,-117.58 1667.83,-116.56 1669.5,-123.36"/>
</g>
<!-- Node22 -->
<g id="node22" class="node">
<title>Node22</title>
<g id="a_node22"><a xlink:title=" ">
<polygon fill="white" stroke="#bfbfbf" points="1122.5,-11.5 1122.5,-30.5 1176.5,-30.5 1176.5,-11.5 1122.5,-11.5"/>
<text text-anchor="middle" x="1149.5" y="-18.5" font-family="Helvetica,sans-Serif" font-size="10.00">url/gurl.h</text>
</a>
</g>
</g>
<!-- Node11&#45;&gt;Node22 -->
<g id="edge50" class="edge">
<title>Node11&#45;&gt;Node22</title>
<path fill="none" stroke="midnightblue" d="M1281.07,-173.74C1155.62,-168.28 869.44,-152.37 840.5,-120 762.6,-32.87 1014.46,-22.61 1112.31,-21.84"/>
<polygon fill="midnightblue" stroke="midnightblue" points="1112.38,-25.34 1122.37,-21.79 1112.35,-18.34 1112.38,-25.34"/>
</g>
<!-- Node24 -->
<g id="node24" class="node">
<title>Node24</title>
<g id="a_node24"><a xlink:href="../../df/d34/autocomplete__match__type_8h.html" target="_top" xlink:title=" ">
<polygon fill="white" stroke="black" points="677.5,-78.5 677.5,-119.5 793.5,-119.5 793.5,-78.5 677.5,-78.5"/>
<text text-anchor="start" x="685.5" y="-107.5" font-family="Helvetica,sans-Serif" font-size="10.00">components/omnibox</text>
<text text-anchor="start" x="685.5" y="-96.5" font-family="Helvetica,sans-Serif" font-size="10.00">/browser/autocomplete</text>
<text text-anchor="middle" x="735.5" y="-85.5" font-family="Helvetica,sans-Serif" font-size="10.00">_match_type.h</text>
</a>
</g>
</g>
<!-- Node11&#45;&gt;Node24 -->
<g id="edge33" class="edge">
<title>Node11&#45;&gt;Node24</title>
<path fill="none" stroke="midnightblue" d="M1281.18,-173.04C1182.79,-167.33 977.88,-152.4 807.5,-120 806.25,-119.76 804.98,-119.51 803.71,-119.25"/>
<polygon fill="midnightblue" stroke="midnightblue" points="804.38,-115.81 793.86,-117.08 802.87,-122.65 804.38,-115.81"/>
</g>
<!-- Node25 -->
<g id="node25" class="node">
<title>Node25</title>
<g id="a_node25"><a xlink:title=" ">
<polygon fill="white" stroke="#bfbfbf" points="849.5,-84 849.5,-114 959.5,-114 959.5,-84 849.5,-84"/>
<text text-anchor="start" x="857.5" y="-102" font-family="Helvetica,sans-Serif" font-size="10.00">components/omnibox</text>
<text text-anchor="middle" x="904.5" y="-91" font-family="Helvetica,sans-Serif" font-size="10.00">/browser/buildflags.h</text>
</a>
</g>
</g>
<!-- Node11&#45;&gt;Node25 -->
<g id="edge35" class="edge">
<title>Node11&#45;&gt;Node25</title>
<path fill="none" stroke="midnightblue" d="M1281.47,-170.03C1208,-161.83 1077.84,-145.18 968.5,-120 964.42,-119.06 960.22,-117.99 956.01,-116.84"/>
<polygon fill="midnightblue" stroke="midnightblue" points="956.83,-113.43 946.25,-114.05 954.9,-120.16 956.83,-113.43"/>
</g>
<!-- Node26 -->
<g id="node26" class="node">
<title>Node26</title>
<g id="a_node26"><a xlink:href="../../dd/d32/suggestion__answer_8h.html" target="_top" xlink:title=" ">
<polygon fill="white" stroke="black" points="185.5,-78.5 185.5,-119.5 295.5,-119.5 295.5,-78.5 185.5,-78.5"/>
<text text-anchor="start" x="193.5" y="-107.5" font-family="Helvetica,sans-Serif" font-size="10.00">components/omnibox</text>
<text text-anchor="start" x="193.5" y="-96.5" font-family="Helvetica,sans-Serif" font-size="10.00">/browser/suggestion</text>
<text text-anchor="middle" x="240.5" y="-85.5" font-family="Helvetica,sans-Serif" font-size="10.00">_answer.h</text>
</a>
</g>
</g>
<!-- Node11&#45;&gt;Node26 -->
<g id="edge36" class="edge">
<title>Node11&#45;&gt;Node26</title>
<path fill="none" stroke="midnightblue" d="M1281.3,-174.17C1132.12,-169.15 723.99,-153.23 385.5,-120 359.38,-117.44 330.74,-113.69 305.86,-110.12"/>
<polygon fill="midnightblue" stroke="midnightblue" points="306.21,-106.64 295.81,-108.67 305.2,-113.57 306.21,-106.64"/>
</g>
<!-- Node29 -->
<g id="node29" class="node">
<title>Node29</title>
<g id="a_node29"><a xlink:title=" ">
<polygon fill="white" stroke="#bfbfbf" points="977.5,-84 977.5,-114 1097.5,-114 1097.5,-84 977.5,-84"/>
<text text-anchor="start" x="985.5" y="-102" font-family="Helvetica,sans-Serif" font-size="10.00">components/query_tiles</text>
<text text-anchor="middle" x="1037.5" y="-91" font-family="Helvetica,sans-Serif" font-size="10.00">/tile.h</text>
</a>
</g>
</g>
<!-- Node11&#45;&gt;Node29 -->
<g id="edge45" class="edge">
<title>Node11&#45;&gt;Node29</title>
<path fill="none" stroke="midnightblue" d="M1281.38,-162.82C1234.13,-151.91 1165.82,-135.72 1106.5,-120 1102.68,-118.99 1098.74,-117.92 1094.78,-116.82"/>
<polygon fill="midnightblue" stroke="midnightblue" points="1095.5,-113.39 1084.93,-114.06 1093.61,-120.13 1095.5,-113.39"/>
</g>
<!-- Node30 -->
<g id="node30" class="node">
<title>Node30</title>
<g id="a_node30"><a xlink:title=" ">
<polygon fill="white" stroke="#bfbfbf" points="1116,-84 1116,-114 1257,-114 1257,-84 1116,-84"/>
<text text-anchor="start" x="1124" y="-102" font-family="Helvetica,sans-Serif" font-size="10.00">components/search_engines</text>
<text text-anchor="middle" x="1186.5" y="-91" font-family="Helvetica,sans-Serif" font-size="10.00">/template_url.h</text>
</a>
</g>
</g>
<!-- Node11&#45;&gt;Node30 -->
<g id="edge46" class="edge">
<title>Node11&#45;&gt;Node30</title>
<path fill="none" stroke="midnightblue" d="M1300.1,-156.43C1276.75,-144.83 1247.33,-130.21 1224.27,-118.76"/>
<polygon fill="midnightblue" stroke="midnightblue" points="1225.65,-115.54 1215.14,-114.23 1222.54,-121.81 1225.65,-115.54"/>
</g>
<!-- Node31 -->
<g id="node31" class="node">
<title>Node31</title>
<g id="a_node31"><a xlink:title=" ">
<polygon fill="white" stroke="#bfbfbf" points="1275.5,-84 1275.5,-114 1403.5,-114 1403.5,-84 1275.5,-84"/>
<text text-anchor="start" x="1283.5" y="-102" font-family="Helvetica,sans-Serif" font-size="10.00">components/url_formatter</text>
<text text-anchor="middle" x="1339.5" y="-91" font-family="Helvetica,sans-Serif" font-size="10.00">/url_formatter.h</text>
</a>
</g>
</g>
<!-- Node11&#45;&gt;Node31 -->
<g id="edge47" class="edge">
<title>Node11&#45;&gt;Node31</title>
<path fill="none" stroke="midnightblue" d="M1339.5,-156.43C1339.5,-146.64 1339.5,-134.69 1339.5,-124.31"/>
<polygon fill="midnightblue" stroke="midnightblue" points="1343,-124.23 1339.5,-114.23 1336,-124.23 1343,-124.23"/>
</g>
<!-- Node32 -->
<g id="node32" class="node">
<title>Node32</title>
<g id="a_node32"><a xlink:title=" ">
<polygon fill="white" stroke="#bfbfbf" points="1422,-84 1422,-114 1539,-114 1539,-84 1422,-84"/>
<text text-anchor="start" x="1430" y="-102" font-family="Helvetica,sans-Serif" font-size="10.00">ui/base/page_transition</text>
<text text-anchor="middle" x="1480.5" y="-91" font-family="Helvetica,sans-Serif" font-size="10.00">_types.h</text>
</a>
</g>
</g>
<!-- Node11&#45;&gt;Node32 -->
<g id="edge48" class="edge">
<title>Node11&#45;&gt;Node32</title>
<path fill="none" stroke="midnightblue" d="M1375.81,-156.43C1397.13,-144.93 1423.96,-130.47 1445.12,-119.07"/>
<polygon fill="midnightblue" stroke="midnightblue" points="1446.97,-122.05 1454.11,-114.23 1443.64,-115.89 1446.97,-122.05"/>
</g>
<!-- Node33 -->
<g id="node33" class="node">
<title>Node33</title>
<g id="a_node33"><a xlink:title=" ">
<polygon fill="white" stroke="#bfbfbf" points="1557,-89.5 1557,-108.5 1660,-108.5 1660,-89.5 1557,-89.5"/>
<text text-anchor="middle" x="1608.5" y="-96.5" font-family="Helvetica,sans-Serif" font-size="10.00">ui/gfx/range/range.h</text>
</a>
</g>
</g>
<!-- Node11&#45;&gt;Node33 -->
<g id="edge49" class="edge">
<title>Node11&#45;&gt;Node33</title>
<path fill="none" stroke="midnightblue" d="M1397.57,-161.26C1439.41,-150.42 1497.15,-135.02 1547.5,-120 1556.02,-117.46 1565.15,-114.56 1573.69,-111.77"/>
<polygon fill="midnightblue" stroke="midnightblue" points="1574.97,-115.03 1583.37,-108.58 1572.78,-108.39 1574.97,-115.03"/>
</g>
<!-- Node17&#45;&gt;Node2 -->
<g id="edge24" class="edge">
<title>Node17&#45;&gt;Node2</title>
<path fill="none" stroke="midnightblue" d="M1794.52,-81.27C1799.23,-80.1 1803.94,-78.99 1808.5,-78 1909.19,-56.18 1940.29,-76.12 2037.5,-42 2042.08,-40.39 2046.75,-38.19 2051.12,-35.83"/>
<polygon fill="midnightblue" stroke="midnightblue" points="2053.21,-38.66 2060.07,-30.58 2049.67,-32.62 2053.21,-38.66"/>
</g>
<!-- Node17&#45;&gt;Node3 -->
<g id="edge25" class="edge">
<title>Node17&#45;&gt;Node3</title>
<path fill="none" stroke="midnightblue" d="M1678.47,-79.96C1675.12,-79.22 1671.78,-78.56 1668.5,-78 1564.26,-60.18 798.44,-29.62 633.68,-23.2"/>
<polygon fill="midnightblue" stroke="midnightblue" points="633.41,-19.69 623.29,-22.8 633.14,-26.68 633.41,-19.69"/>
</g>
<!-- Node17&#45;&gt;Node8 -->
<g id="edge26" class="edge">
<title>Node17&#45;&gt;Node8</title>
<path fill="none" stroke="midnightblue" d="M1794.75,-81.6C1849.84,-66.1 1930.45,-43.41 1974.62,-30.97"/>
<polygon fill="midnightblue" stroke="midnightblue" points="1975.58,-34.34 1984.26,-28.26 1973.68,-27.6 1975.58,-34.34"/>
</g>
<!-- Node18 -->
<g id="node18" class="node">
<title>Node18</title>
<g id="a_node18"><a xlink:title=" ">
<polygon fill="white" stroke="#bfbfbf" points="1594,-6 1594,-36 1735,-36 1735,-6 1594,-6"/>
<text text-anchor="start" x="1602" y="-24" font-family="Helvetica,sans-Serif" font-size="10.00">components/search_engines</text>
<text text-anchor="middle" x="1664.5" y="-13" font-family="Helvetica,sans-Serif" font-size="10.00">/omnibox_focus_type.h</text>
</a>
</g>
</g>
<!-- Node17&#45;&gt;Node18 -->
<g id="edge27" class="edge">
<title>Node17&#45;&gt;Node18</title>
<path fill="none" stroke="midnightblue" d="M1717.96,-78.43C1707.9,-67.81 1695.44,-54.66 1685.08,-43.73"/>
<polygon fill="midnightblue" stroke="midnightblue" points="1687.39,-41.08 1677.98,-36.23 1682.31,-45.89 1687.39,-41.08"/>
</g>
<!-- Node19 -->
<g id="node19" class="node">
<title>Node19</title>
<g id="a_node19"><a xlink:title=" ">
<polygon fill="white" stroke="#bfbfbf" points="435.5,-6 435.5,-36 563.5,-36 563.5,-6 435.5,-6"/>
<text text-anchor="start" x="443.5" y="-24" font-family="Helvetica,sans-Serif" font-size="10.00">third_party/abseil</text>
<text text-anchor="middle" x="499.5" y="-13" font-family="Helvetica,sans-Serif" font-size="10.00">&#45;cpp/absl/types/optional.h</text>
</a>
</g>
</g>
<!-- Node17&#45;&gt;Node19 -->
<g id="edge28" class="edge">
<title>Node17&#45;&gt;Node19</title>
<path fill="none" stroke="midnightblue" d="M1678.48,-79.89C1675.13,-79.17 1671.78,-78.53 1668.5,-78 1187.31,-0.62 1054.39,-114.89 572.5,-42 566.59,-41.11 560.48,-39.9 554.42,-38.52"/>
<polygon fill="midnightblue" stroke="midnightblue" points="554.86,-35.02 544.32,-36.05 553.2,-41.82 554.86,-35.02"/>
</g>
<!-- Node17&#45;&gt;Node20 -->
<g id="edge29" class="edge">
<title>Node17&#45;&gt;Node20</title>
<path fill="none" stroke="midnightblue" d="M1794.59,-85.4C1809.79,-82.53 1826.2,-79.79 1841.5,-78 2193.23,-36.76 2287.4,-95.36 2637.5,-42 2643.7,-41.06 2650.12,-39.81 2656.48,-38.39"/>
<polygon fill="midnightblue" stroke="midnightblue" points="2657.46,-41.76 2666.39,-36.05 2655.86,-34.94 2657.46,-41.76"/>
</g>
<!-- Node17&#45;&gt;Node21 -->
<g id="edge30" class="edge">
<title>Node17&#45;&gt;Node21</title>
<path fill="none" stroke="midnightblue" d="M1794.6,-85.49C1809.8,-82.62 1826.21,-79.86 1841.5,-78 2136.2,-42.14 2216.22,-94.04 2508.5,-42 2508.6,-41.98 2508.7,-41.96 2508.81,-41.95"/>
<polygon fill="midnightblue" stroke="midnightblue" points="2509.33,-45.41 2518.41,-39.96 2507.91,-38.56 2509.33,-45.41"/>
</g>
<!-- Node17&#45;&gt;Node22 -->
<g id="edge31" class="edge">
<title>Node17&#45;&gt;Node22</title>
<path fill="none" stroke="midnightblue" d="M1678.43,-80.18C1675.09,-79.38 1671.76,-78.65 1668.5,-78 1490.18,-42.45 1272.59,-28.23 1186.81,-23.74"/>
<polygon fill="midnightblue" stroke="midnightblue" points="1186.94,-20.24 1176.77,-23.23 1186.58,-27.23 1186.94,-20.24"/>
</g>
<!-- Node23 -->
<g id="node23" class="node">
<title>Node23</title>
<g id="a_node23"><a xlink:title=" ">
<polygon fill="white" stroke="#bfbfbf" points="1753.5,-6 1753.5,-36 1863.5,-36 1863.5,-6 1753.5,-6"/>
<text text-anchor="start" x="1761.5" y="-24" font-family="Helvetica,sans-Serif" font-size="10.00">url/third_party/mozilla</text>
<text text-anchor="middle" x="1808.5" y="-13" font-family="Helvetica,sans-Serif" font-size="10.00">/url_parse.h</text>
</a>
</g>
</g>
<!-- Node17&#45;&gt;Node23 -->
<g id="edge32" class="edge">
<title>Node17&#45;&gt;Node23</title>
<path fill="none" stroke="midnightblue" d="M1755.04,-78.43C1765.1,-67.81 1777.56,-54.66 1787.92,-43.73"/>
<polygon fill="midnightblue" stroke="midnightblue" points="1790.69,-45.89 1795.02,-36.23 1785.61,-41.08 1790.69,-45.89"/>
</g>
<!-- Node24&#45;&gt;Node3 -->
<g id="edge34" class="edge">
<title>Node24&#45;&gt;Node3</title>
<path fill="none" stroke="midnightblue" d="M701.25,-78.43C677.76,-65 647.18,-47.53 626.31,-35.61"/>
<polygon fill="midnightblue" stroke="midnightblue" points="627.89,-32.47 617.47,-30.55 624.41,-38.55 627.89,-32.47"/>
</g>
<!-- Node26&#45;&gt;Node3 -->
<g id="edge38" class="edge">
<title>Node26&#45;&gt;Node3</title>
<path fill="none" stroke="midnightblue" d="M295.68,-81.24C300.34,-80.06 304.99,-78.96 309.5,-78 424.91,-53.51 462.17,-83.78 572.5,-42 576.34,-40.55 580.19,-38.52 583.78,-36.32"/>
<polygon fill="midnightblue" stroke="midnightblue" points="585.75,-39.21 592.04,-30.68 581.81,-33.42 585.75,-39.21"/>
</g>
<!-- Node26&#45;&gt;Node8 -->
<g id="edge39" class="edge">
<title>Node26&#45;&gt;Node8</title>
<path fill="none" stroke="midnightblue" d="M295.71,-90.54C330.8,-86.11 377.24,-80.82 418.5,-78 1063.41,-33.87 1228.49,-97.82 1872.5,-42 1907.46,-38.97 1947.19,-32.68 1974.25,-27.96"/>
<polygon fill="midnightblue" stroke="midnightblue" points="1975.08,-31.36 1984.31,-26.17 1973.85,-24.47 1975.08,-31.36"/>
</g>
<!-- Node26&#45;&gt;Node9 -->
<g id="edge40" class="edge">
<title>Node26&#45;&gt;Node9</title>
<path fill="none" stroke="midnightblue" d="M193.12,-78.43C159.59,-64.58 115.63,-46.42 86.75,-34.49"/>
<polygon fill="midnightblue" stroke="midnightblue" points="87.78,-31.13 77.2,-30.55 85.11,-37.6 87.78,-31.13"/>
</g>
<!-- Node26&#45;&gt;Node12 -->
<g id="edge37" class="edge">
<title>Node26&#45;&gt;Node12</title>
<path fill="none" stroke="midnightblue" d="M219.13,-78.43C205.26,-65.73 187.43,-49.41 174.52,-37.59"/>
<polygon fill="midnightblue" stroke="midnightblue" points="176.58,-34.72 166.84,-30.55 171.85,-39.89 176.58,-34.72"/>
</g>
<!-- Node26&#45;&gt;Node19 -->
<g id="edge43" class="edge">
<title>Node26&#45;&gt;Node19</title>
<path fill="none" stroke="midnightblue" d="M295.74,-81.79C338.84,-69.14 398.5,-51.64 442.13,-38.84"/>
<polygon fill="midnightblue" stroke="midnightblue" points="443.13,-42.19 451.74,-36.02 441.16,-35.47 443.13,-42.19"/>
</g>
<!-- Node26&#45;&gt;Node22 -->
<g id="edge44" class="edge">
<title>Node26&#45;&gt;Node22</title>
<path fill="none" stroke="midnightblue" d="M295.77,-91.28C330.89,-87.14 377.32,-81.89 418.5,-78 684,-52.92 1004.57,-31.38 1112.22,-24.39"/>
<polygon fill="midnightblue" stroke="midnightblue" points="1112.5,-27.88 1122.25,-23.74 1112.05,-20.89 1112.5,-27.88"/>
</g>
<!-- Node27 -->
<g id="node27" class="node">
<title>Node27</title>
<g id="a_node27"><a xlink:title=" ">
<polygon fill="white" stroke="#bfbfbf" points="336,-11.5 336,-30.5 417,-30.5 417,-11.5 336,-11.5"/>
<text text-anchor="middle" x="376.5" y="-18.5" font-family="Helvetica,sans-Serif" font-size="10.00">base/macros.h</text>
</a>
</g>
</g>
<!-- Node26&#45;&gt;Node27 -->
<g id="edge41" class="edge">
<title>Node26&#45;&gt;Node27</title>
<path fill="none" stroke="midnightblue" d="M275.52,-78.43C299.66,-64.94 331.1,-47.37 352.44,-35.44"/>
<polygon fill="midnightblue" stroke="midnightblue" points="354.17,-38.49 361.2,-30.55 350.76,-32.37 354.17,-38.49"/>
</g>
<!-- Node28 -->
<g id="node28" class="node">
<title>Node28</title>
<g id="a_node28"><a xlink:title=" ">
<polygon fill="white" stroke="#bfbfbf" points="201.5,-11.5 201.5,-30.5 317.5,-30.5 317.5,-11.5 201.5,-11.5"/>
<text text-anchor="middle" x="259.5" y="-18.5" font-family="Helvetica,sans-Serif" font-size="10.00">base/memory/ptr_util.h</text>
</a>
</g>
</g>
<!-- Node26&#45;&gt;Node28 -->
<g id="edge42" class="edge">
<title>Node26&#45;&gt;Node28</title>
<path fill="none" stroke="midnightblue" d="M245.39,-78.43C248.33,-66.7 252.03,-51.87 254.91,-40.36"/>
<polygon fill="midnightblue" stroke="midnightblue" points="258.33,-41.1 257.36,-30.55 251.54,-39.4 258.33,-41.1"/>
</g>
<!-- Node34&#45;&gt;Node2 -->
<g id="edge52" class="edge">
<title>Node34&#45;&gt;Node2</title>
<path fill="none" stroke="midnightblue" d="M2332.63,-81.27C2327.86,-80.11 2323.11,-79.01 2318.5,-78 2225.55,-57.72 2197.06,-74.09 2107.5,-42 2102.93,-40.36 2098.27,-38.14 2093.89,-35.78"/>
<polygon fill="midnightblue" stroke="midnightblue" points="2095.34,-32.57 2084.94,-30.54 2091.81,-38.61 2095.34,-32.57"/>
</g>
<!-- Node34&#45;&gt;Node3 -->
<g id="edge54" class="edge">
<title>Node34&#45;&gt;Node3</title>
<path fill="none" stroke="midnightblue" d="M2332.92,-88.26C2306.72,-84.42 2275.67,-80.37 2247.5,-78 1745.02,-35.72 1617.44,-59.86 1113.5,-42 931.73,-35.56 713.64,-26.62 633.76,-23.3"/>
<polygon fill="midnightblue" stroke="midnightblue" points="633.56,-19.79 623.43,-22.87 633.27,-26.79 633.56,-19.79"/>
</g>
<!-- Node34&#45;&gt;Node6 -->
<g id="edge53" class="edge">
<title>Node34&#45;&gt;Node6</title>
<path fill="none" stroke="midnightblue" d="M2416.42,-78.43C2431.43,-65.61 2450.77,-49.09 2464.64,-37.25"/>
<polygon fill="midnightblue" stroke="midnightblue" points="2467.15,-39.71 2472.49,-30.55 2462.61,-34.38 2467.15,-39.71"/>
</g>
<!-- Node34&#45;&gt;Node8 -->
<g id="edge56" class="edge">
<title>Node34&#45;&gt;Node8</title>
<path fill="none" stroke="midnightblue" d="M2332.86,-86.94C2315.93,-83.94 2297.51,-80.76 2280.5,-78 2172.74,-60.48 2139.68,-80.46 2037.5,-42 2033.57,-40.52 2029.61,-38.48 2025.91,-36.27"/>
<polygon fill="midnightblue" stroke="midnightblue" points="2027.64,-33.22 2017.36,-30.64 2023.79,-39.07 2027.64,-33.22"/>
</g>
<!-- Node34&#45;&gt;Node22 -->
<g id="edge59" class="edge">
<title>Node34&#45;&gt;Node22</title>
<path fill="none" stroke="midnightblue" d="M2332.9,-88.52C2306.7,-84.73 2275.65,-80.64 2247.5,-78 2140.13,-67.93 1366.61,-32 1186.78,-23.71"/>
<polygon fill="midnightblue" stroke="midnightblue" points="1186.9,-20.21 1176.75,-23.25 1186.58,-27.21 1186.9,-20.21"/>
</g>
<!-- Node35 -->
<g id="node35" class="node">
<title>Node35</title>
<g id="a_node35"><a xlink:title=" ">
<polygon fill="white" stroke="#bfbfbf" points="2117,-11.5 2117,-30.5 2200,-30.5 2200,-11.5 2117,-11.5"/>
<text text-anchor="middle" x="2158.5" y="-18.5" font-family="Helvetica,sans-Serif" font-size="10.00">unordered_map</text>
</a>
</g>
</g>
<!-- Node34&#45;&gt;Node35 -->
<g id="edge55" class="edge">
<title>Node34&#45;&gt;Node35</title>
<path fill="none" stroke="midnightblue" d="M2332.62,-80.77C2296.59,-70.25 2250.19,-56.14 2209.5,-42 2202.74,-39.65 2195.55,-36.95 2188.76,-34.32"/>
<polygon fill="midnightblue" stroke="midnightblue" points="2189.79,-30.96 2179.21,-30.55 2187.22,-37.47 2189.79,-30.96"/>
</g>
<!-- Node36 -->
<g id="node36" class="node">
<title>Node36</title>
<g id="a_node36"><a xlink:title=" ">
<polygon fill="white" stroke="#bfbfbf" points="2218.5,-6 2218.5,-36 2320.5,-36 2320.5,-6 2218.5,-6"/>
<text text-anchor="start" x="2226.5" y="-24" font-family="Helvetica,sans-Serif" font-size="10.00">base/containers/flat</text>
<text text-anchor="middle" x="2269.5" y="-13" font-family="Helvetica,sans-Serif" font-size="10.00">_set.h</text>
</a>
</g>
</g>
<!-- Node34&#45;&gt;Node36 -->
<g id="edge57" class="edge">
<title>Node34&#45;&gt;Node36</title>
<path fill="none" stroke="midnightblue" d="M2361.57,-78.43C2343.07,-67.09 2319.85,-52.86 2301.37,-41.53"/>
<polygon fill="midnightblue" stroke="midnightblue" points="2303.06,-38.47 2292.71,-36.23 2299.41,-44.44 2303.06,-38.47"/>
</g>
<!-- Node37 -->
<g id="node37" class="node">
<title>Node37</title>
<g id="a_node37"><a xlink:title=" ">
<polygon fill="white" stroke="#bfbfbf" points="2338.5,-0.5 2338.5,-41.5 2446.5,-41.5 2446.5,-0.5 2338.5,-0.5"/>
<text text-anchor="start" x="2346.5" y="-29.5" font-family="Helvetica,sans-Serif" font-size="10.00">components/history</text>
<text text-anchor="start" x="2346.5" y="-18.5" font-family="Helvetica,sans-Serif" font-size="10.00">/core/browser/history</text>
<text text-anchor="middle" x="2392.5" y="-7.5" font-family="Helvetica,sans-Serif" font-size="10.00">_types.h</text>
</a>
</g>
</g>
<!-- Node34&#45;&gt;Node37 -->
<g id="edge58" class="edge">
<title>Node34&#45;&gt;Node37</title>
<path fill="none" stroke="midnightblue" d="M2393.24,-78.43C2393.14,-70.27 2393.01,-60.62 2392.89,-51.63"/>
<polygon fill="midnightblue" stroke="midnightblue" points="2396.39,-51.46 2392.76,-41.51 2389.39,-51.55 2396.39,-51.46"/>
</g>
<!-- Node39 -->
<g id="node39" class="node">
<title>Node39</title>
<g id="a_node39"><a xlink:title=" ">
<polygon fill="white" stroke="#bfbfbf" points="2716.5,-167.5 2716.5,-186.5 2746.5,-186.5 2746.5,-167.5 2716.5,-167.5"/>
<text text-anchor="middle" x="2731.5" y="-174.5" font-family="Helvetica,sans-Serif" font-size="10.00">set</text>
</a>
</g>
</g>
<!-- Node38&#45;&gt;Node39 -->
<g id="edge62" class="edge">
<title>Node38&#45;&gt;Node39</title>
<path fill="none" stroke="midnightblue" d="M2731.5,-234.43C2731.5,-222.82 2731.5,-208.18 2731.5,-196.72"/>
<polygon fill="midnightblue" stroke="midnightblue" points="2735,-196.55 2731.5,-186.55 2728,-196.55 2735,-196.55"/>
</g>
</g>
</svg>
