<?xml version="1.0" encoding="UTF-8" standalone="no"?>
<!DOCTYPE svg PUBLIC "-//W3C//DTD SVG 1.1//EN"
 "http://www.w3.org/Graphics/SVG/1.1/DTD/svg11.dtd">
<!-- Generated by graphviz version 2.43.0 (0)
 -->
<!-- Title: components/omnibox/browser/autocomplete_result.h Pages: 1 -->
<svg width="2972pt" height="596pt"
 viewBox="0.00 0.00 2971.67 596.00" xmlns="http://www.w3.org/2000/svg" xmlns:xlink="http://www.w3.org/1999/xlink">
<g id="graph0" class="graph" transform="scale(1 1) rotate(0) translate(4 592)">
<title>components/omnibox/browser/autocomplete_result.h</title>
<polygon fill="white" stroke="transparent" points="-4,4 -4,-592 2967.67,-592 2967.67,4 -4,4"/>
<!-- Node1 -->
<g id="node1" class="node">
<title>Node1</title>
<g id="a_node1"><a xlink:title=" ">
<polygon fill="#bfbfbf" stroke="black" points="1805.17,-546.5 1805.17,-587.5 1921.17,-587.5 1921.17,-546.5 1805.17,-546.5"/>
<text text-anchor="start" x="1813.17" y="-575.5" font-family="Helvetica,sans-Serif" font-size="10.00">components/omnibox</text>
<text text-anchor="start" x="1813.17" y="-564.5" font-family="Helvetica,sans-Serif" font-size="10.00">/browser/autocomplete</text>
<text text-anchor="middle" x="1863.17" y="-553.5" font-family="Helvetica,sans-Serif" font-size="10.00">_result.h</text>
</a>
</g>
</g>
<!-- Node2 -->
<g id="node2" class="node">
<title>Node2</title>
<g id="a_node2"><a xlink:href="../../d0/d58/chrome__omnibox__client_8cc.html" target="_top" xlink:title=" ">
<polygon fill="white" stroke="black" points="1311.67,-318 1311.67,-348 1448.67,-348 1448.67,-318 1311.67,-318"/>
<text text-anchor="start" x="1319.67" y="-336" font-family="Helvetica,sans-Serif" font-size="10.00">chrome/browser/ui/omnibox</text>
<text text-anchor="middle" x="1380.17" y="-325" font-family="Helvetica,sans-Serif" font-size="10.00">/chrome_omnibox_client.cc</text>
</a>
</g>
</g>
<!-- Node1&#45;&gt;Node2 -->
<g id="edge1" class="edge">
<title>Node1&#45;&gt;Node2</title>
<path fill="none" stroke="midnightblue" d="M1794.84,-563.54C1661.8,-558.04 1378.41,-542.6 1349.17,-510 1307.53,-463.58 1350.39,-381.55 1370.72,-348.45"/>
<polygon fill="midnightblue" stroke="midnightblue" points="1794.79,-567.04 1804.92,-563.95 1795.07,-560.05 1794.79,-567.04"/>
</g>
<!-- Node3 -->
<g id="node3" class="node">
<title>Node3</title>
<g id="a_node3"><a xlink:href="../../d2/d1a/history__clusters__action_8cc.html" target="_top" xlink:title=" ">
<polygon fill="white" stroke="black" points="822.67,-468.5 822.67,-509.5 943.67,-509.5 943.67,-468.5 822.67,-468.5"/>
<text text-anchor="start" x="830.67" y="-497.5" font-family="Helvetica,sans-Serif" font-size="10.00">components/omnibox</text>
<text text-anchor="start" x="830.67" y="-486.5" font-family="Helvetica,sans-Serif" font-size="10.00">/browser/actions/history</text>
<text text-anchor="middle" x="883.17" y="-475.5" font-family="Helvetica,sans-Serif" font-size="10.00">_clusters_action.cc</text>
</a>
</g>
</g>
<!-- Node1&#45;&gt;Node3 -->
<g id="edge2" class="edge">
<title>Node1&#45;&gt;Node3</title>
<path fill="none" stroke="midnightblue" d="M1794.77,-566.82C1642.42,-567.57 1264.08,-563.33 953.17,-510 950.05,-509.47 946.88,-508.85 943.69,-508.16"/>
<polygon fill="midnightblue" stroke="midnightblue" points="1794.93,-570.32 1804.91,-566.77 1794.89,-563.32 1794.93,-570.32"/>
</g>
<!-- Node4 -->
<g id="node4" class="node">
<title>Node4</title>
<g id="a_node4"><a xlink:href="../../d0/dca/autocomplete__controller_8h.html" target="_top" xlink:title=" ">
<polygon fill="white" stroke="black" points="962.17,-468.5 962.17,-509.5 1078.17,-509.5 1078.17,-468.5 962.17,-468.5"/>
<text text-anchor="start" x="970.17" y="-497.5" font-family="Helvetica,sans-Serif" font-size="10.00">components/omnibox</text>
<text text-anchor="start" x="970.17" y="-486.5" font-family="Helvetica,sans-Serif" font-size="10.00">/browser/autocomplete</text>
<text text-anchor="middle" x="1020.17" y="-475.5" font-family="Helvetica,sans-Serif" font-size="10.00">_controller.h</text>
</a>
</g>
</g>
<!-- Node1&#45;&gt;Node4 -->
<g id="edge3" class="edge">
<title>Node1&#45;&gt;Node4</title>
<path fill="none" stroke="midnightblue" d="M1794.58,-559.82C1632.66,-545.22 1228.94,-508.82 1078.17,-495.23"/>
<polygon fill="midnightblue" stroke="midnightblue" points="1794.62,-563.33 1804.89,-560.75 1795.25,-556.36 1794.62,-563.33"/>
</g>
<!-- Node11 -->
<g id="node11" class="node">
<title>Node11</title>
<g id="a_node11"><a xlink:href="../../d2/d1a/omnibox__popup__model_8h.html" target="_top" xlink:title=" ">
<polygon fill="white" stroke="black" points="647.67,-234.5 647.67,-275.5 772.67,-275.5 772.67,-234.5 647.67,-234.5"/>
<text text-anchor="start" x="655.67" y="-263.5" font-family="Helvetica,sans-Serif" font-size="10.00">components/omnibox</text>
<text text-anchor="start" x="655.67" y="-252.5" font-family="Helvetica,sans-Serif" font-size="10.00">/browser/omnibox_popup</text>
<text text-anchor="middle" x="710.17" y="-241.5" font-family="Helvetica,sans-Serif" font-size="10.00">_model.h</text>
</a>
</g>
</g>
<!-- Node1&#45;&gt;Node11 -->
<g id="edge55" class="edge">
<title>Node1&#45;&gt;Node11</title>
<path fill="none" stroke="midnightblue" d="M1794.79,-565.73C1592.62,-564.4 1000.13,-556.54 813.17,-510 733.28,-490.11 689.46,-501.39 645.17,-432 612.22,-380.38 662.72,-309.66 691.87,-275.73"/>
<polygon fill="midnightblue" stroke="midnightblue" points="1794.96,-569.23 1804.98,-565.79 1795,-562.23 1794.96,-569.23"/>
</g>
<!-- Node28 -->
<g id="node28" class="node">
<title>Node28</title>
<g id="a_node28"><a xlink:href="../../d6/d09/autocomplete__result_8cc.html" target="_top" xlink:title=" ">
<polygon fill="white" stroke="black" points="1358.17,-468.5 1358.17,-509.5 1474.17,-509.5 1474.17,-468.5 1358.17,-468.5"/>
<text text-anchor="start" x="1366.17" y="-497.5" font-family="Helvetica,sans-Serif" font-size="10.00">components/omnibox</text>
<text text-anchor="start" x="1366.17" y="-486.5" font-family="Helvetica,sans-Serif" font-size="10.00">/browser/autocomplete</text>
<text text-anchor="middle" x="1416.17" y="-475.5" font-family="Helvetica,sans-Serif" font-size="10.00">_result.cc</text>
</a>
</g>
</g>
<!-- Node1&#45;&gt;Node28 -->
<g id="edge46" class="edge">
<title>Node1&#45;&gt;Node28</title>
<path fill="none" stroke="midnightblue" d="M1795.09,-558.96C1718.64,-550.36 1591.11,-533.93 1483.17,-510 1480.32,-509.37 1477.42,-508.68 1474.5,-507.95"/>
<polygon fill="midnightblue" stroke="midnightblue" points="1794.75,-562.44 1805.08,-560.07 1795.53,-555.48 1794.75,-562.44"/>
</g>
<!-- Node29 -->
<g id="node29" class="node">
<title>Node29</title>
<g id="a_node29"><a xlink:href="../../dc/db8/autocomplete__result__android_8cc.html" target="_top" xlink:title=" ">
<polygon fill="white" stroke="black" points="1492.17,-468.5 1492.17,-509.5 1608.17,-509.5 1608.17,-468.5 1492.17,-468.5"/>
<text text-anchor="start" x="1500.17" y="-497.5" font-family="Helvetica,sans-Serif" font-size="10.00">components/omnibox</text>
<text text-anchor="start" x="1500.17" y="-486.5" font-family="Helvetica,sans-Serif" font-size="10.00">/browser/autocomplete</text>
<text text-anchor="middle" x="1550.17" y="-475.5" font-family="Helvetica,sans-Serif" font-size="10.00">_result_android.cc</text>
</a>
</g>
</g>
<!-- Node1&#45;&gt;Node29 -->
<g id="edge47" class="edge">
<title>Node1&#45;&gt;Node29</title>
<path fill="none" stroke="midnightblue" d="M1794.79,-551.71C1745.26,-541.05 1676.81,-525.67 1617.17,-510 1614.23,-509.23 1611.23,-508.42 1608.21,-507.58"/>
<polygon fill="midnightblue" stroke="midnightblue" points="1794.24,-555.17 1804.75,-553.84 1795.7,-548.32 1794.24,-555.17"/>
</g>
<!-- Node30 -->
<g id="node30" class="node">
<title>Node30</title>
<g id="a_node30"><a xlink:href="../../d1/dc2/bookmark__provider_8cc.html" target="_top" xlink:title=" ">
<polygon fill="white" stroke="black" points="1626.17,-474 1626.17,-504 1778.17,-504 1778.17,-474 1626.17,-474"/>
<text text-anchor="start" x="1634.17" y="-492" font-family="Helvetica,sans-Serif" font-size="10.00">components/omnibox</text>
<text text-anchor="middle" x="1702.17" y="-481" font-family="Helvetica,sans-Serif" font-size="10.00">/browser/bookmark_provider.cc</text>
</a>
</g>
</g>
<!-- Node1&#45;&gt;Node30 -->
<g id="edge48" class="edge">
<title>Node1&#45;&gt;Node30</title>
<path fill="none" stroke="midnightblue" d="M1812.58,-542.12C1786.11,-529.63 1754.62,-514.76 1732.05,-504.11"/>
<polygon fill="midnightblue" stroke="midnightblue" points="1811.17,-545.32 1821.71,-546.43 1814.16,-538.99 1811.17,-545.32"/>
</g>
<!-- Node31 -->
<g id="node31" class="node">
<title>Node31</title>
<g id="a_node31"><a xlink:href="../../dd/dcc/favicon__cache_8cc.html" target="_top" xlink:title=" ">
<polygon fill="white" stroke="black" points="1796.17,-474 1796.17,-504 1930.17,-504 1930.17,-474 1796.17,-474"/>
<text text-anchor="start" x="1804.17" y="-492" font-family="Helvetica,sans-Serif" font-size="10.00">components/omnibox</text>
<text text-anchor="middle" x="1863.17" y="-481" font-family="Helvetica,sans-Serif" font-size="10.00">/browser/favicon_cache.cc</text>
</a>
</g>
</g>
<!-- Node1&#45;&gt;Node31 -->
<g id="edge49" class="edge">
<title>Node1&#45;&gt;Node31</title>
<path fill="none" stroke="midnightblue" d="M1863.17,-536.28C1863.17,-525.25 1863.17,-513.25 1863.17,-504.23"/>
<polygon fill="midnightblue" stroke="midnightblue" points="1859.67,-536.43 1863.17,-546.43 1866.67,-536.43 1859.67,-536.43"/>
</g>
<!-- Node32 -->
<g id="node32" class="node">
<title>Node32</title>
<g id="a_node32"><a xlink:href="../../dc/d09/history__quick__provider_8cc.html" target="_top" xlink:title=" ">
<polygon fill="white" stroke="black" points="1948.67,-468.5 1948.67,-509.5 2063.67,-509.5 2063.67,-468.5 1948.67,-468.5"/>
<text text-anchor="start" x="1956.67" y="-497.5" font-family="Helvetica,sans-Serif" font-size="10.00">components/omnibox</text>
<text text-anchor="start" x="1956.67" y="-486.5" font-family="Helvetica,sans-Serif" font-size="10.00">/browser/history_quick</text>
<text text-anchor="middle" x="2006.17" y="-475.5" font-family="Helvetica,sans-Serif" font-size="10.00">_provider.cc</text>
</a>
</g>
</g>
<!-- Node1&#45;&gt;Node32 -->
<g id="edge50" class="edge">
<title>Node1&#45;&gt;Node32</title>
<path fill="none" stroke="midnightblue" d="M1909.03,-541.63C1928.57,-531.24 1951.05,-519.29 1969.47,-509.51"/>
<polygon fill="midnightblue" stroke="midnightblue" points="1907.18,-538.64 1899.99,-546.43 1910.47,-544.83 1907.18,-538.64"/>
</g>
<!-- Node33 -->
<g id="node33" class="node">
<title>Node33</title>
<g id="a_node33"><a xlink:href="../../d0/df9/history__url__provider_8cc.html" target="_top" xlink:title=" ">
<polygon fill="white" stroke="black" points="2082.17,-468.5 2082.17,-509.5 2192.17,-509.5 2192.17,-468.5 2082.17,-468.5"/>
<text text-anchor="start" x="2090.17" y="-497.5" font-family="Helvetica,sans-Serif" font-size="10.00">components/omnibox</text>
<text text-anchor="start" x="2090.17" y="-486.5" font-family="Helvetica,sans-Serif" font-size="10.00">/browser/history_url</text>
<text text-anchor="middle" x="2137.17" y="-475.5" font-family="Helvetica,sans-Serif" font-size="10.00">_provider.cc</text>
</a>
</g>
</g>
<!-- Node1&#45;&gt;Node33 -->
<g id="edge51" class="edge">
<title>Node1&#45;&gt;Node33</title>
<path fill="none" stroke="midnightblue" d="M1931.22,-548.63C1972.42,-537.92 2025.95,-523.67 2073.17,-510 2076.07,-509.16 2079.05,-508.28 2082.05,-507.39"/>
<polygon fill="midnightblue" stroke="midnightblue" points="1930.09,-545.31 1921.29,-551.21 1931.85,-552.08 1930.09,-545.31"/>
</g>
<!-- Node34 -->
<g id="node34" class="node">
<title>Node34</title>
<g id="a_node34"><a xlink:href="../../d2/dbf/local__history__zero__suggest__provider_8cc.html" target="_top" xlink:title=" ">
<polygon fill="white" stroke="black" points="2210.67,-468.5 2210.67,-509.5 2343.67,-509.5 2343.67,-468.5 2210.67,-468.5"/>
<text text-anchor="start" x="2218.67" y="-497.5" font-family="Helvetica,sans-Serif" font-size="10.00">components/omnibox</text>
<text text-anchor="start" x="2218.67" y="-486.5" font-family="Helvetica,sans-Serif" font-size="10.00">/browser/local_history</text>
<text text-anchor="middle" x="2277.17" y="-475.5" font-family="Helvetica,sans-Serif" font-size="10.00">_zero_suggest_provider.cc</text>
</a>
</g>
</g>
<!-- Node1&#45;&gt;Node34 -->
<g id="edge52" class="edge">
<title>Node1&#45;&gt;Node34</title>
<path fill="none" stroke="midnightblue" d="M1931.42,-556.6C1999.94,-546.71 2108.36,-529.85 2201.17,-510 2204.24,-509.34 2207.37,-508.64 2210.52,-507.91"/>
<polygon fill="midnightblue" stroke="midnightblue" points="1930.59,-553.18 1921.19,-558.07 1931.58,-560.11 1930.59,-553.18"/>
</g>
<!-- Node35 -->
<g id="node35" class="node">
<title>Node35</title>
<g id="a_node35"><a xlink:href="../../d4/dd5/omnibox__log_8cc.html" target="_top" xlink:title=" ">
<polygon fill="white" stroke="black" points="2361.67,-474 2361.67,-504 2486.67,-504 2486.67,-474 2361.67,-474"/>
<text text-anchor="start" x="2369.67" y="-492" font-family="Helvetica,sans-Serif" font-size="10.00">components/omnibox</text>
<text text-anchor="middle" x="2424.17" y="-481" font-family="Helvetica,sans-Serif" font-size="10.00">/browser/omnibox_log.cc</text>
</a>
</g>
</g>
<!-- Node1&#45;&gt;Node35 -->
<g id="edge53" class="edge">
<title>Node1&#45;&gt;Node35</title>
<path fill="none" stroke="midnightblue" d="M1931.4,-561.68C2026.57,-554.87 2204.22,-539.29 2353.17,-510 2361.46,-508.37 2370.2,-506.25 2378.6,-504"/>
<polygon fill="midnightblue" stroke="midnightblue" points="1931.07,-558.2 1921.34,-562.39 1931.56,-565.18 1931.07,-558.2"/>
</g>
<!-- Node36 -->
<g id="node36" class="node">
<title>Node36</title>
<g id="a_node36"><a xlink:href="../../d3/d06/omnibox__metrics__provider_8cc.html" target="_top" xlink:title=" ">
<polygon fill="white" stroke="black" points="2504.67,-468.5 2504.67,-509.5 2635.67,-509.5 2635.67,-468.5 2504.67,-468.5"/>
<text text-anchor="start" x="2512.67" y="-497.5" font-family="Helvetica,sans-Serif" font-size="10.00">components/omnibox</text>
<text text-anchor="start" x="2512.67" y="-486.5" font-family="Helvetica,sans-Serif" font-size="10.00">/browser/omnibox_metrics</text>
<text text-anchor="middle" x="2570.17" y="-475.5" font-family="Helvetica,sans-Serif" font-size="10.00">_provider.cc</text>
</a>
</g>
</g>
<!-- Node1&#45;&gt;Node36 -->
<g id="edge54" class="edge">
<title>Node1&#45;&gt;Node36</title>
<path fill="none" stroke="midnightblue" d="M1931.42,-563.89C2048.01,-559.41 2292.67,-546.21 2496.17,-510 2498.92,-509.51 2501.72,-508.97 2504.53,-508.38"/>
<polygon fill="midnightblue" stroke="midnightblue" points="1931.08,-560.4 1921.22,-564.27 1931.34,-567.4 1931.08,-560.4"/>
</g>
<!-- Node37 -->
<g id="node37" class="node">
<title>Node37</title>
<g id="a_node37"><a xlink:href="../../da/d9f/search__provider_8cc.html" target="_top" xlink:title=" ">
<polygon fill="white" stroke="black" points="2653.67,-474 2653.67,-504 2792.67,-504 2792.67,-474 2653.67,-474"/>
<text text-anchor="start" x="2661.67" y="-492" font-family="Helvetica,sans-Serif" font-size="10.00">components/omnibox</text>
<text text-anchor="middle" x="2723.17" y="-481" font-family="Helvetica,sans-Serif" font-size="10.00">/browser/search_provider.cc</text>
</a>
</g>
</g>
<!-- Node1&#45;&gt;Node37 -->
<g id="edge56" class="edge">
<title>Node1&#45;&gt;Node37</title>
<path fill="none" stroke="midnightblue" d="M1931.77,-565.21C2068.43,-562.74 2383.95,-552.49 2645.17,-510 2654.55,-508.47 2664.45,-506.35 2673.93,-504.05"/>
<polygon fill="midnightblue" stroke="midnightblue" points="1931.4,-561.72 1921.46,-565.39 1931.52,-568.72 1931.4,-561.72"/>
</g>
<!-- Node38 -->
<g id="node38" class="node">
<title>Node38</title>
<g id="a_node38"><a xlink:href="../../da/dce/shortcuts__backend_8cc.html" target="_top" xlink:title=" ">
<polygon fill="white" stroke="black" points="2810.67,-474 2810.67,-504 2963.67,-504 2963.67,-474 2810.67,-474"/>
<text text-anchor="start" x="2818.67" y="-492" font-family="Helvetica,sans-Serif" font-size="10.00">components/omnibox</text>
<text text-anchor="middle" x="2887.17" y="-481" font-family="Helvetica,sans-Serif" font-size="10.00">/browser/shortcuts_backend.cc</text>
</a>
</g>
</g>
<!-- Node1&#45;&gt;Node38 -->
<g id="edge57" class="edge">
<title>Node1&#45;&gt;Node38</title>
<path fill="none" stroke="midnightblue" d="M1931.56,-565.93C2087.07,-564.89 2478.74,-557.34 2802.17,-510 2812.37,-508.51 2823.15,-506.4 2833.48,-504.1"/>
<polygon fill="midnightblue" stroke="midnightblue" points="1931.2,-562.43 1921.22,-565.99 1931.24,-569.43 1931.2,-562.43"/>
</g>
<!-- Node5 -->
<g id="node5" class="node">
<title>Node5</title>
<g id="a_node5"><a xlink:href="../../d6/de8/autocomplete__classifier_8cc.html" target="_top" xlink:title=" ">
<polygon fill="white" stroke="black" points="654.17,-390.5 654.17,-431.5 770.17,-431.5 770.17,-390.5 654.17,-390.5"/>
<text text-anchor="start" x="662.17" y="-419.5" font-family="Helvetica,sans-Serif" font-size="10.00">components/omnibox</text>
<text text-anchor="start" x="662.17" y="-408.5" font-family="Helvetica,sans-Serif" font-size="10.00">/browser/autocomplete</text>
<text text-anchor="middle" x="712.17" y="-397.5" font-family="Helvetica,sans-Serif" font-size="10.00">_classifier.cc</text>
</a>
</g>
</g>
<!-- Node4&#45;&gt;Node5 -->
<g id="edge4" class="edge">
<title>Node4&#45;&gt;Node5</title>
<path fill="none" stroke="midnightblue" d="M952.47,-468.08C952.37,-468.05 952.27,-468.03 952.17,-468 875.99,-448.9 855.31,-451.25 779.17,-432 776.22,-431.26 773.22,-430.47 770.19,-429.65"/>
<polygon fill="midnightblue" stroke="midnightblue" points="951.45,-471.43 962.01,-470.56 953.22,-464.65 951.45,-471.43"/>
</g>
<!-- Node6 -->
<g id="node6" class="node">
<title>Node6</title>
<g id="a_node6"><a xlink:href="../../d8/d40/autocomplete__controller_8cc.html" target="_top" xlink:title=" ">
<polygon fill="white" stroke="black" points="788.17,-390.5 788.17,-431.5 904.17,-431.5 904.17,-390.5 788.17,-390.5"/>
<text text-anchor="start" x="796.17" y="-419.5" font-family="Helvetica,sans-Serif" font-size="10.00">components/omnibox</text>
<text text-anchor="start" x="796.17" y="-408.5" font-family="Helvetica,sans-Serif" font-size="10.00">/browser/autocomplete</text>
<text text-anchor="middle" x="846.17" y="-397.5" font-family="Helvetica,sans-Serif" font-size="10.00">_controller.cc</text>
</a>
</g>
</g>
<!-- Node4&#45;&gt;Node6 -->
<g id="edge5" class="edge">
<title>Node4&#45;&gt;Node6</title>
<path fill="none" stroke="midnightblue" d="M965.97,-464.33C941.83,-453.78 913.74,-441.51 890.82,-431.51"/>
<polygon fill="midnightblue" stroke="midnightblue" points="964.79,-467.63 975.36,-468.43 967.59,-461.22 964.79,-467.63"/>
</g>
<!-- Node7 -->
<g id="node7" class="node">
<title>Node7</title>
<g id="a_node7"><a xlink:href="../../d4/dcc/omnibox__controller_8h.html" target="_top" xlink:title=" ">
<polygon fill="white" stroke="black" points="998.17,-396 998.17,-426 1144.17,-426 1144.17,-396 998.17,-396"/>
<text text-anchor="start" x="1006.17" y="-414" font-family="Helvetica,sans-Serif" font-size="10.00">components/omnibox</text>
<text text-anchor="middle" x="1071.17" y="-403" font-family="Helvetica,sans-Serif" font-size="10.00">/browser/omnibox_controller.h</text>
</a>
</g>
</g>
<!-- Node4&#45;&gt;Node7 -->
<g id="edge6" class="edge">
<title>Node4&#45;&gt;Node7</title>
<path fill="none" stroke="midnightblue" d="M1038.97,-459.98C1046.67,-448.5 1055.26,-435.71 1061.62,-426.23"/>
<polygon fill="midnightblue" stroke="midnightblue" points="1035.97,-458.17 1033.3,-468.43 1041.78,-462.07 1035.97,-458.17"/>
</g>
<!-- Node9 -->
<g id="node9" class="node">
<title>Node9</title>
<g id="a_node9"><a xlink:href="../../d9/d1b/omnibox__edit__model_8h.html" target="_top" xlink:title=" ">
<polygon fill="white" stroke="black" points="943.67,-312.5 943.67,-353.5 1058.67,-353.5 1058.67,-312.5 943.67,-312.5"/>
<text text-anchor="start" x="951.67" y="-341.5" font-family="Helvetica,sans-Serif" font-size="10.00">components/omnibox</text>
<text text-anchor="start" x="951.67" y="-330.5" font-family="Helvetica,sans-Serif" font-size="10.00">/browser/omnibox_edit</text>
<text text-anchor="middle" x="1001.17" y="-319.5" font-family="Helvetica,sans-Serif" font-size="10.00">_model.h</text>
</a>
</g>
</g>
<!-- Node4&#45;&gt;Node9 -->
<g id="edge44" class="edge">
<title>Node4&#45;&gt;Node9</title>
<path fill="none" stroke="midnightblue" d="M1000.82,-459.57C996.05,-451.07 991.62,-441.48 989.17,-432 982.31,-405.45 988.71,-373.8 994.48,-353.81"/>
<polygon fill="midnightblue" stroke="midnightblue" points="997.91,-461.52 1006.04,-468.31 1003.91,-457.93 997.91,-461.52"/>
</g>
<!-- Node4&#45;&gt;Node11 -->
<g id="edge45" class="edge">
<title>Node4&#45;&gt;Node11</title>
<path fill="none" stroke="midnightblue" d="M993.19,-461.07C972.17,-440.64 941.82,-412.35 913.17,-390 856.06,-345.45 784.36,-300.45 743.25,-275.6"/>
<polygon fill="midnightblue" stroke="midnightblue" points="990.9,-463.73 1000.5,-468.22 995.8,-458.72 990.9,-463.73"/>
</g>
<!-- Node26 -->
<g id="node26" class="node">
<title>Node26</title>
<g id="a_node26"><a xlink:href="../../d8/d49/omnibox__controller__emitter_8h.html" target="_top" xlink:title=" ">
<polygon fill="white" stroke="black" points="1162.67,-390.5 1162.67,-431.5 1301.67,-431.5 1301.67,-390.5 1162.67,-390.5"/>
<text text-anchor="start" x="1170.67" y="-419.5" font-family="Helvetica,sans-Serif" font-size="10.00">components/omnibox</text>
<text text-anchor="start" x="1170.67" y="-408.5" font-family="Helvetica,sans-Serif" font-size="10.00">/browser/omnibox_controller</text>
<text text-anchor="middle" x="1232.17" y="-397.5" font-family="Helvetica,sans-Serif" font-size="10.00">_emitter.h</text>
</a>
</g>
</g>
<!-- Node4&#45;&gt;Node26 -->
<g id="edge40" class="edge">
<title>Node4&#45;&gt;Node26</title>
<path fill="none" stroke="midnightblue" d="M1084.25,-465.03C1114.1,-454.33 1149.22,-441.73 1177.76,-431.51"/>
<polygon fill="midnightblue" stroke="midnightblue" points="1082.99,-461.76 1074.76,-468.43 1085.36,-468.35 1082.99,-461.76"/>
</g>
<!-- Node8 -->
<g id="node8" class="node">
<title>Node8</title>
<g id="a_node8"><a xlink:href="../../dd/d1e/omnibox__controller_8cc.html" target="_top" xlink:title=" ">
<polygon fill="white" stroke="black" points="1039.17,-162 1039.17,-192 1191.17,-192 1191.17,-162 1039.17,-162"/>
<text text-anchor="start" x="1047.17" y="-180" font-family="Helvetica,sans-Serif" font-size="10.00">components/omnibox</text>
<text text-anchor="middle" x="1115.17" y="-169" font-family="Helvetica,sans-Serif" font-size="10.00">/browser/omnibox_controller.cc</text>
</a>
</g>
</g>
<!-- Node7&#45;&gt;Node8 -->
<g id="edge7" class="edge">
<title>Node7&#45;&gt;Node8</title>
<path fill="none" stroke="midnightblue" d="M1075.72,-385.98C1084.85,-337.85 1105.13,-230.91 1112.46,-192.27"/>
<polygon fill="midnightblue" stroke="midnightblue" points="1072.28,-385.36 1073.85,-395.84 1079.16,-386.66 1072.28,-385.36"/>
</g>
<!-- Node7&#45;&gt;Node9 -->
<g id="edge8" class="edge">
<title>Node7&#45;&gt;Node9</title>
<path fill="none" stroke="midnightblue" d="M1051.12,-388.23C1041.09,-377.34 1029.04,-364.26 1019.29,-353.68"/>
<polygon fill="midnightblue" stroke="midnightblue" points="1048.65,-390.72 1058,-395.7 1053.8,-385.98 1048.65,-390.72"/>
</g>
<!-- Node9&#45;&gt;Node8 -->
<g id="edge9" class="edge">
<title>Node9&#45;&gt;Node8</title>
<path fill="none" stroke="midnightblue" d="M1021.46,-304.23C1035.85,-284.58 1055.63,-257.63 1073.17,-234 1083.74,-219.75 1095.92,-203.54 1104.43,-192.24"/>
<polygon fill="midnightblue" stroke="midnightblue" points="1018.53,-302.3 1015.45,-312.43 1024.18,-306.43 1018.53,-302.3"/>
</g>
<!-- Node10 -->
<g id="node10" class="node">
<title>Node10</title>
<g id="a_node10"><a xlink:href="../../d7/df6/omnibox__edit__model_8cc.html" target="_top" xlink:title=" ">
<polygon fill="white" stroke="black" points="867.67,-156.5 867.67,-197.5 982.67,-197.5 982.67,-156.5 867.67,-156.5"/>
<text text-anchor="start" x="875.67" y="-185.5" font-family="Helvetica,sans-Serif" font-size="10.00">components/omnibox</text>
<text text-anchor="start" x="875.67" y="-174.5" font-family="Helvetica,sans-Serif" font-size="10.00">/browser/omnibox_edit</text>
<text text-anchor="middle" x="925.17" y="-163.5" font-family="Helvetica,sans-Serif" font-size="10.00">_model.cc</text>
</a>
</g>
</g>
<!-- Node9&#45;&gt;Node10 -->
<g id="edge10" class="edge">
<title>Node9&#45;&gt;Node10</title>
<path fill="none" stroke="midnightblue" d="M933.81,-312.26C893.1,-299.65 847.96,-284.18 842.17,-276 831.38,-260.77 833.4,-250.48 842.17,-234 850.41,-218.5 865.07,-206.51 879.79,-197.68"/>
<polygon fill="midnightblue" stroke="midnightblue" points="932.9,-315.64 943.49,-315.23 934.96,-308.95 932.9,-315.64"/>
</g>
<!-- Node9&#45;&gt;Node11 -->
<g id="edge11" class="edge">
<title>Node9&#45;&gt;Node11</title>
<path fill="none" stroke="midnightblue" d="M933.56,-313.18C932.08,-312.78 930.62,-312.39 929.17,-312 876.65,-297.99 816.86,-282.75 773.03,-271.71"/>
<polygon fill="midnightblue" stroke="midnightblue" points="932.86,-316.61 943.43,-315.85 934.69,-309.86 932.86,-316.61"/>
</g>
<!-- Node18 -->
<g id="node18" class="node">
<title>Node18</title>
<g id="a_node18"><a xlink:href="../../de/d2f/omnibox__suggestion__button__row__view_8cc.html" target="_top" xlink:title=" ">
<polygon fill="white" stroke="black" points="292.67,-78.5 292.67,-119.5 441.67,-119.5 441.67,-78.5 292.67,-78.5"/>
<text text-anchor="start" x="300.67" y="-107.5" font-family="Helvetica,sans-Serif" font-size="10.00">chrome/browser/ui/views</text>
<text text-anchor="start" x="300.67" y="-96.5" font-family="Helvetica,sans-Serif" font-size="10.00">/omnibox/omnibox_suggestion</text>
<text text-anchor="middle" x="367.17" y="-85.5" font-family="Helvetica,sans-Serif" font-size="10.00">_button_row_view.cc</text>
</a>
</g>
</g>
<!-- Node9&#45;&gt;Node18 -->
<g id="edge38" class="edge">
<title>Node9&#45;&gt;Node18</title>
<path fill="none" stroke="midnightblue" d="M933.28,-327.92C719.42,-314.39 70.21,-267.84 9.17,-198 -3.12,-183.94 -2.97,-170.18 9.17,-156 44.85,-114.3 198.23,-103.43 292.27,-100.73"/>
<polygon fill="midnightblue" stroke="midnightblue" points="933.23,-331.43 943.43,-328.56 933.67,-324.44 933.23,-331.43"/>
</g>
<!-- Node19 -->
<g id="node19" class="node">
<title>Node19</title>
<g id="a_node19"><a xlink:href="../../d8/d7a/omnibox__view__views_8cc.html" target="_top" xlink:title=" ">
<polygon fill="white" stroke="black" points="900.67,-78.5 900.67,-119.5 1025.67,-119.5 1025.67,-78.5 900.67,-78.5"/>
<text text-anchor="start" x="908.67" y="-107.5" font-family="Helvetica,sans-Serif" font-size="10.00">chrome/browser/ui/views</text>
<text text-anchor="start" x="908.67" y="-96.5" font-family="Helvetica,sans-Serif" font-size="10.00">/omnibox/omnibox_view</text>
<text text-anchor="middle" x="963.17" y="-85.5" font-family="Helvetica,sans-Serif" font-size="10.00">_views.cc</text>
</a>
</g>
</g>
<!-- Node9&#45;&gt;Node19 -->
<g id="edge39" class="edge">
<title>Node9&#45;&gt;Node19</title>
<path fill="none" stroke="midnightblue" d="M1003.1,-302.16C1004.57,-266.68 1004.48,-205.99 991.17,-156 987.78,-143.29 981.34,-130.08 975.49,-119.69"/>
<polygon fill="midnightblue" stroke="midnightblue" points="999.59,-302.17 1002.6,-312.32 1006.58,-302.51 999.59,-302.17"/>
</g>
<!-- Node25 -->
<g id="node25" class="node">
<title>Node25</title>
<g id="a_node25"><a xlink:href="../../d0/d6c/omnibox__view_8cc.html" target="_top" xlink:title=" ">
<polygon fill="white" stroke="black" points="851.67,-240 851.67,-270 982.67,-270 982.67,-240 851.67,-240"/>
<text text-anchor="start" x="859.67" y="-258" font-family="Helvetica,sans-Serif" font-size="10.00">components/omnibox</text>
<text text-anchor="middle" x="917.17" y="-247" font-family="Helvetica,sans-Serif" font-size="10.00">/browser/omnibox_view.cc</text>
</a>
</g>
</g>
<!-- Node9&#45;&gt;Node25 -->
<g id="edge37" class="edge">
<title>Node9&#45;&gt;Node25</title>
<path fill="none" stroke="midnightblue" d="M972.05,-305.66C958.9,-293.76 943.89,-280.18 932.89,-270.23"/>
<polygon fill="midnightblue" stroke="midnightblue" points="969.77,-308.31 979.53,-312.43 974.47,-303.12 969.77,-308.31"/>
</g>
<!-- Node11&#45;&gt;Node8 -->
<g id="edge13" class="edge">
<title>Node11&#45;&gt;Node8</title>
<path fill="none" stroke="midnightblue" d="M783.01,-240.33C855.77,-226.68 967.07,-205.79 1040.48,-192.02"/>
<polygon fill="midnightblue" stroke="midnightblue" points="782.19,-236.92 773,-242.21 783.48,-243.8 782.19,-236.92"/>
</g>
<!-- Node11&#45;&gt;Node10 -->
<g id="edge14" class="edge">
<title>Node11&#45;&gt;Node10</title>
<path fill="none" stroke="midnightblue" d="M775.16,-231.03C805.42,-220.33 841.05,-207.73 869.99,-197.51"/>
<polygon fill="midnightblue" stroke="midnightblue" points="773.8,-227.8 765.53,-234.43 776.13,-234.4 773.8,-227.8"/>
</g>
<!-- Node12 -->
<g id="node12" class="node">
<title>Node12</title>
<g id="a_node12"><a xlink:href="../../df/d95/autocomplete__match__type_8cc.html" target="_top" xlink:title=" ">
<polygon fill="white" stroke="black" points="18.17,-156.5 18.17,-197.5 134.17,-197.5 134.17,-156.5 18.17,-156.5"/>
<text text-anchor="start" x="26.17" y="-185.5" font-family="Helvetica,sans-Serif" font-size="10.00">components/omnibox</text>
<text text-anchor="start" x="26.17" y="-174.5" font-family="Helvetica,sans-Serif" font-size="10.00">/browser/autocomplete</text>
<text text-anchor="middle" x="76.17" y="-163.5" font-family="Helvetica,sans-Serif" font-size="10.00">_match_type.cc</text>
</a>
</g>
</g>
<!-- Node11&#45;&gt;Node12 -->
<g id="edge12" class="edge">
<title>Node11&#45;&gt;Node12</title>
<path fill="none" stroke="midnightblue" d="M637.33,-251.27C528.77,-246.2 318.52,-232.5 143.17,-198 140.31,-197.44 137.4,-196.8 134.47,-196.12"/>
<polygon fill="midnightblue" stroke="midnightblue" points="637.36,-254.77 647.51,-251.73 637.68,-247.78 637.36,-254.77"/>
</g>
<!-- Node13 -->
<g id="node13" class="node">
<title>Node13</title>
<g id="a_node13"><a xlink:href="../../d3/de0/omnibox__popup__model_8cc.html" target="_top" xlink:title=" ">
<polygon fill="white" stroke="black" points="152.67,-156.5 152.67,-197.5 277.67,-197.5 277.67,-156.5 152.67,-156.5"/>
<text text-anchor="start" x="160.67" y="-185.5" font-family="Helvetica,sans-Serif" font-size="10.00">components/omnibox</text>
<text text-anchor="start" x="160.67" y="-174.5" font-family="Helvetica,sans-Serif" font-size="10.00">/browser/omnibox_popup</text>
<text text-anchor="middle" x="215.17" y="-163.5" font-family="Helvetica,sans-Serif" font-size="10.00">_model.cc</text>
</a>
</g>
</g>
<!-- Node11&#45;&gt;Node13 -->
<g id="edge15" class="edge">
<title>Node11&#45;&gt;Node13</title>
<path fill="none" stroke="midnightblue" d="M637.29,-246.94C553.53,-238.2 412.18,-221.54 292.17,-198 287.56,-197.1 282.82,-196.08 278.06,-195"/>
<polygon fill="midnightblue" stroke="midnightblue" points="637.15,-250.44 647.46,-247.99 637.87,-243.48 637.15,-250.44"/>
</g>
<!-- Node14 -->
<g id="node14" class="node">
<title>Node14</title>
<g id="a_node14"><a xlink:href="../../d4/d25/omnibox__popup__contents__view_8h.html" target="_top" xlink:title=" ">
<polygon fill="white" stroke="black" points="501.17,-156.5 501.17,-197.5 629.17,-197.5 629.17,-156.5 501.17,-156.5"/>
<text text-anchor="start" x="509.17" y="-185.5" font-family="Helvetica,sans-Serif" font-size="10.00">chrome/browser/ui/views</text>
<text text-anchor="start" x="509.17" y="-174.5" font-family="Helvetica,sans-Serif" font-size="10.00">/omnibox/omnibox_popup</text>
<text text-anchor="middle" x="565.17" y="-163.5" font-family="Helvetica,sans-Serif" font-size="10.00">_contents_view.h</text>
</a>
</g>
</g>
<!-- Node11&#45;&gt;Node14 -->
<g id="edge16" class="edge">
<title>Node11&#45;&gt;Node14</title>
<path fill="none" stroke="midnightblue" d="M663.93,-229.77C644.06,-219.35 621.14,-207.34 602.38,-197.51"/>
<polygon fill="midnightblue" stroke="midnightblue" points="662.34,-232.89 672.83,-234.43 665.59,-226.69 662.34,-232.89"/>
</g>
<!-- Node17 -->
<g id="node17" class="node">
<title>Node17</title>
<g id="a_node17"><a xlink:href="../../d3/d3f/omnibox__result__view_8cc.html" target="_top" xlink:title=" ">
<polygon fill="white" stroke="black" points="444.67,-0.5 444.67,-41.5 569.67,-41.5 569.67,-0.5 444.67,-0.5"/>
<text text-anchor="start" x="452.67" y="-29.5" font-family="Helvetica,sans-Serif" font-size="10.00">chrome/browser/ui/views</text>
<text text-anchor="start" x="452.67" y="-18.5" font-family="Helvetica,sans-Serif" font-size="10.00">/omnibox/omnibox_result</text>
<text text-anchor="middle" x="507.17" y="-7.5" font-family="Helvetica,sans-Serif" font-size="10.00">_view.cc</text>
</a>
</g>
</g>
<!-- Node11&#45;&gt;Node17 -->
<g id="edge22" class="edge">
<title>Node11&#45;&gt;Node17</title>
<path fill="none" stroke="midnightblue" d="M637.33,-251.22C539.77,-246.2 373.23,-232.69 324.17,-198 301.16,-181.73 265.82,-100.21 283.17,-78 302.9,-52.72 385.47,-37.17 444.62,-29.06"/>
<polygon fill="midnightblue" stroke="midnightblue" points="637.26,-254.72 647.42,-251.72 637.61,-247.73 637.26,-254.72"/>
</g>
<!-- Node11&#45;&gt;Node19 -->
<g id="edge36" class="edge">
<title>Node11&#45;&gt;Node19</title>
<path fill="none" stroke="midnightblue" d="M744.24,-228.18C756.12,-218.9 769.42,-208.2 781.17,-198 801.58,-180.28 802.46,-170.68 825.17,-156 848.4,-140.98 876.32,-128.73 900.95,-119.57"/>
<polygon fill="midnightblue" stroke="midnightblue" points="742.03,-225.46 736.27,-234.35 746.32,-230.99 742.03,-225.46"/>
</g>
<!-- Node20 -->
<g id="node20" class="node">
<title>Node20</title>
<g id="a_node20"><a xlink:href="../../dd/d82/omnibox__result__view_8h.html" target="_top" xlink:title=" ">
<polygon fill="white" stroke="black" points="647.67,-156.5 647.67,-197.5 772.67,-197.5 772.67,-156.5 647.67,-156.5"/>
<text text-anchor="start" x="655.67" y="-185.5" font-family="Helvetica,sans-Serif" font-size="10.00">chrome/browser/ui/views</text>
<text text-anchor="start" x="655.67" y="-174.5" font-family="Helvetica,sans-Serif" font-size="10.00">/omnibox/omnibox_result</text>
<text text-anchor="middle" x="710.17" y="-163.5" font-family="Helvetica,sans-Serif" font-size="10.00">_view.h</text>
</a>
</g>
</g>
<!-- Node11&#45;&gt;Node20 -->
<g id="edge23" class="edge">
<title>Node11&#45;&gt;Node20</title>
<path fill="none" stroke="midnightblue" d="M710.17,-224.3C710.17,-215.3 710.17,-205.65 710.17,-197.51"/>
<polygon fill="midnightblue" stroke="midnightblue" points="706.67,-224.43 710.17,-234.43 713.67,-224.43 706.67,-224.43"/>
</g>
<!-- Node21 -->
<g id="node21" class="node">
<title>Node21</title>
<g id="a_node21"><a xlink:href="../../dc/dce/omnibox__row__view_8cc.html" target="_top" xlink:title=" ">
<polygon fill="white" stroke="black" points="1043.67,-84 1043.67,-114 1198.67,-114 1198.67,-84 1043.67,-84"/>
<text text-anchor="start" x="1051.67" y="-102" font-family="Helvetica,sans-Serif" font-size="10.00">chrome/browser/ui/views</text>
<text text-anchor="middle" x="1121.17" y="-91" font-family="Helvetica,sans-Serif" font-size="10.00">/omnibox/omnibox_row_view.cc</text>
</a>
</g>
</g>
<!-- Node11&#45;&gt;Node21 -->
<g id="edge32" class="edge">
<title>Node11&#45;&gt;Node21</title>
<path fill="none" stroke="midnightblue" d="M764.03,-229.98C781.68,-221.04 800.91,-210.1 817.17,-198 838.09,-182.43 835.27,-168.5 858.17,-156 928.25,-117.75 956.14,-136.95 1034.17,-120 1042.8,-118.13 1051.9,-116.09 1060.83,-114.07"/>
<polygon fill="midnightblue" stroke="midnightblue" points="762.38,-226.89 754.97,-234.47 765.49,-233.17 762.38,-226.89"/>
</g>
<!-- Node24 -->
<g id="node24" class="node">
<title>Node24</title>
<g id="a_node24"><a xlink:href="../../d6/de9/omnibox__suggestion__button__row__view_8h.html" target="_top" xlink:title=" ">
<polygon fill="white" stroke="black" points="333.67,-156.5 333.67,-197.5 482.67,-197.5 482.67,-156.5 333.67,-156.5"/>
<text text-anchor="start" x="341.67" y="-185.5" font-family="Helvetica,sans-Serif" font-size="10.00">chrome/browser/ui/views</text>
<text text-anchor="start" x="341.67" y="-174.5" font-family="Helvetica,sans-Serif" font-size="10.00">/omnibox/omnibox_suggestion</text>
<text text-anchor="middle" x="408.17" y="-163.5" font-family="Helvetica,sans-Serif" font-size="10.00">_button_row_view.h</text>
</a>
</g>
</g>
<!-- Node11&#45;&gt;Node24 -->
<g id="edge33" class="edge">
<title>Node11&#45;&gt;Node24</title>
<path fill="none" stroke="midnightblue" d="M637.83,-235.8C591.02,-224.02 530.22,-208.72 482.94,-196.82"/>
<polygon fill="midnightblue" stroke="midnightblue" points="637.04,-239.21 647.59,-238.25 638.75,-232.42 637.04,-239.21"/>
</g>
<!-- Node15 -->
<g id="node15" class="node">
<title>Node15</title>
<g id="a_node15"><a xlink:href="../../d8/df8/omnibox__match__cell__view_8cc.html" target="_top" xlink:title=" ">
<polygon fill="white" stroke="black" points="600.17,-0.5 600.17,-41.5 728.17,-41.5 728.17,-0.5 600.17,-0.5"/>
<text text-anchor="start" x="608.17" y="-29.5" font-family="Helvetica,sans-Serif" font-size="10.00">chrome/browser/ui/views</text>
<text text-anchor="start" x="608.17" y="-18.5" font-family="Helvetica,sans-Serif" font-size="10.00">/omnibox/omnibox_match</text>
<text text-anchor="middle" x="664.17" y="-7.5" font-family="Helvetica,sans-Serif" font-size="10.00">_cell_view.cc</text>
</a>
</g>
</g>
<!-- Node14&#45;&gt;Node15 -->
<g id="edge17" class="edge">
<title>Node14&#45;&gt;Node15</title>
<path fill="none" stroke="midnightblue" d="M557.34,-146.66C553.56,-126.05 552.1,-98.59 564.17,-78 573.63,-61.86 589.62,-50.03 606.08,-41.51"/>
<polygon fill="midnightblue" stroke="midnightblue" points="553.92,-147.39 559.41,-156.45 560.77,-145.95 553.92,-147.39"/>
</g>
<!-- Node16 -->
<g id="node16" class="node">
<title>Node16</title>
<g id="a_node16"><a xlink:href="../../d8/d69/omnibox__popup__contents__view_8cc.html" target="_top" xlink:title=" ">
<polygon fill="white" stroke="black" points="573.17,-78.5 573.17,-119.5 701.17,-119.5 701.17,-78.5 573.17,-78.5"/>
<text text-anchor="start" x="581.17" y="-107.5" font-family="Helvetica,sans-Serif" font-size="10.00">chrome/browser/ui/views</text>
<text text-anchor="start" x="581.17" y="-96.5" font-family="Helvetica,sans-Serif" font-size="10.00">/omnibox/omnibox_popup</text>
<text text-anchor="middle" x="637.17" y="-85.5" font-family="Helvetica,sans-Serif" font-size="10.00">_contents_view.cc</text>
</a>
</g>
</g>
<!-- Node14&#45;&gt;Node16 -->
<g id="edge18" class="edge">
<title>Node14&#45;&gt;Node16</title>
<path fill="none" stroke="midnightblue" d="M590.83,-148.92C600.03,-139.2 610.21,-128.45 618.69,-119.51"/>
<polygon fill="midnightblue" stroke="midnightblue" points="588.05,-146.76 583.71,-156.43 593.13,-151.58 588.05,-146.76"/>
</g>
<!-- Node14&#45;&gt;Node17 -->
<g id="edge19" class="edge">
<title>Node14&#45;&gt;Node17</title>
<path fill="none" stroke="midnightblue" d="M545.73,-147.77C540.43,-139.14 535.08,-129.44 531.17,-120 520.37,-93.95 513.66,-61.9 510.17,-41.71"/>
<polygon fill="midnightblue" stroke="midnightblue" points="542.85,-149.76 551.17,-156.31 548.75,-146 542.85,-149.76"/>
</g>
<!-- Node14&#45;&gt;Node18 -->
<g id="edge20" class="edge">
<title>Node14&#45;&gt;Node18</title>
<path fill="none" stroke="midnightblue" d="M504.59,-152.75C476.87,-142.11 444.4,-129.65 417.98,-119.51"/>
<polygon fill="midnightblue" stroke="midnightblue" points="503.59,-156.11 514.18,-156.43 506.1,-149.58 503.59,-156.11"/>
</g>
<!-- Node14&#45;&gt;Node19 -->
<g id="edge21" class="edge">
<title>Node14&#45;&gt;Node19</title>
<path fill="none" stroke="midnightblue" d="M639.52,-155.85C751.18,-133.51 783.14,-142.59 891.17,-120 894.21,-119.36 897.32,-118.67 900.46,-117.94"/>
<polygon fill="midnightblue" stroke="midnightblue" points="638.64,-152.46 629.55,-157.89 640.04,-159.32 638.64,-152.46"/>
</g>
<!-- Node20&#45;&gt;Node16 -->
<g id="edge24" class="edge">
<title>Node20&#45;&gt;Node16</title>
<path fill="none" stroke="midnightblue" d="M684.43,-149.2C675.03,-139.42 664.58,-128.54 655.9,-119.51"/>
<polygon fill="midnightblue" stroke="midnightblue" points="681.92,-151.64 691.37,-156.43 686.96,-146.79 681.92,-151.64"/>
</g>
<!-- Node20&#45;&gt;Node17 -->
<g id="edge25" class="edge">
<title>Node20&#45;&gt;Node17</title>
<path fill="none" stroke="midnightblue" d="M718.89,-146.35C723.21,-125.19 724.78,-97.19 710.17,-78 705.74,-72.19 627.79,-51.83 569.8,-37.33"/>
<polygon fill="midnightblue" stroke="midnightblue" points="715.48,-145.59 716.61,-156.12 722.29,-147.18 715.48,-145.59"/>
</g>
<!-- Node20&#45;&gt;Node19 -->
<g id="edge31" class="edge">
<title>Node20&#45;&gt;Node19</title>
<path fill="none" stroke="midnightblue" d="M782.49,-154.27C819.74,-143.08 864.71,-129.58 900.47,-118.83"/>
<polygon fill="midnightblue" stroke="midnightblue" points="781.28,-150.98 772.71,-157.21 783.29,-157.69 781.28,-150.98"/>
</g>
<!-- Node20&#45;&gt;Node21 -->
<g id="edge26" class="edge">
<title>Node20&#45;&gt;Node21</title>
<path fill="none" stroke="midnightblue" d="M782.92,-163.33C796.94,-160.89 811.51,-158.36 825.17,-156 918.04,-139.92 941.76,-138.57 1034.17,-120 1043.13,-118.2 1052.59,-116.17 1061.83,-114.1"/>
<polygon fill="midnightblue" stroke="midnightblue" points="782.09,-159.92 772.83,-165.08 783.28,-166.82 782.09,-159.92"/>
</g>
<!-- Node22 -->
<g id="node22" class="node">
<title>Node22</title>
<g id="a_node22"><a xlink:href="../../db/d83/omnibox__text__view_8h.html" target="_top" xlink:title=" ">
<polygon fill="white" stroke="black" points="757.67,-78.5 757.67,-119.5 882.67,-119.5 882.67,-78.5 757.67,-78.5"/>
<text text-anchor="start" x="765.67" y="-107.5" font-family="Helvetica,sans-Serif" font-size="10.00">chrome/browser/ui/views</text>
<text text-anchor="start" x="765.67" y="-96.5" font-family="Helvetica,sans-Serif" font-size="10.00">/omnibox/omnibox_text</text>
<text text-anchor="middle" x="820.17" y="-85.5" font-family="Helvetica,sans-Serif" font-size="10.00">_view.h</text>
</a>
</g>
</g>
<!-- Node20&#45;&gt;Node22 -->
<g id="edge27" class="edge">
<title>Node20&#45;&gt;Node22</title>
<path fill="none" stroke="midnightblue" d="M746.88,-150.64C761.57,-140.49 778.22,-128.98 791.94,-119.51"/>
<polygon fill="midnightblue" stroke="midnightblue" points="744.73,-147.86 738.49,-156.43 748.71,-153.62 744.73,-147.86"/>
</g>
<!-- Node22&#45;&gt;Node15 -->
<g id="edge28" class="edge">
<title>Node22&#45;&gt;Node15</title>
<path fill="none" stroke="midnightblue" d="M770.72,-73.91C749.27,-63.46 724.47,-51.38 704.2,-41.51"/>
<polygon fill="midnightblue" stroke="midnightblue" points="769.47,-77.19 779.99,-78.43 772.54,-70.9 769.47,-77.19"/>
</g>
<!-- Node22&#45;&gt;Node17 -->
<g id="edge29" class="edge">
<title>Node22&#45;&gt;Node17</title>
<path fill="none" stroke="midnightblue" d="M747.61,-79.11C746.11,-78.73 744.63,-78.36 743.17,-78 675.79,-61.27 658.71,-58.04 591.17,-42 584.31,-40.37 577.14,-38.67 570.01,-36.97"/>
<polygon fill="midnightblue" stroke="midnightblue" points="747.03,-82.57 757.58,-81.62 748.74,-75.78 747.03,-82.57"/>
</g>
<!-- Node23 -->
<g id="node23" class="node">
<title>Node23</title>
<g id="a_node23"><a xlink:href="../../d7/d7d/omnibox__text__view_8cc.html" target="_top" xlink:title=" ">
<polygon fill="white" stroke="black" points="757.67,-0.5 757.67,-41.5 882.67,-41.5 882.67,-0.5 757.67,-0.5"/>
<text text-anchor="start" x="765.67" y="-29.5" font-family="Helvetica,sans-Serif" font-size="10.00">chrome/browser/ui/views</text>
<text text-anchor="start" x="765.67" y="-18.5" font-family="Helvetica,sans-Serif" font-size="10.00">/omnibox/omnibox_text</text>
<text text-anchor="middle" x="820.17" y="-7.5" font-family="Helvetica,sans-Serif" font-size="10.00">_view.cc</text>
</a>
</g>
</g>
<!-- Node22&#45;&gt;Node23 -->
<g id="edge30" class="edge">
<title>Node22&#45;&gt;Node23</title>
<path fill="none" stroke="midnightblue" d="M820.17,-68.3C820.17,-59.3 820.17,-49.65 820.17,-41.51"/>
<polygon fill="midnightblue" stroke="midnightblue" points="816.67,-68.43 820.17,-78.43 823.67,-68.43 816.67,-68.43"/>
</g>
<!-- Node24&#45;&gt;Node17 -->
<g id="edge34" class="edge">
<title>Node24&#45;&gt;Node17</title>
<path fill="none" stroke="midnightblue" d="M429.93,-148.32C436.64,-139.43 443.91,-129.44 450.17,-120 467.67,-93.58 485.7,-61.63 496.68,-41.56"/>
<polygon fill="midnightblue" stroke="midnightblue" points="427.01,-146.38 423.71,-156.45 432.57,-150.63 427.01,-146.38"/>
</g>
<!-- Node24&#45;&gt;Node18 -->
<g id="edge35" class="edge">
<title>Node24&#45;&gt;Node18</title>
<path fill="none" stroke="midnightblue" d="M392.77,-147.47C387.74,-138.14 382.28,-128.01 377.69,-119.51"/>
<polygon fill="midnightblue" stroke="midnightblue" points="389.78,-149.29 397.61,-156.43 395.94,-145.97 389.78,-149.29"/>
</g>
<!-- Node26&#45;&gt;Node2 -->
<g id="edge41" class="edge">
<title>Node26&#45;&gt;Node2</title>
<path fill="none" stroke="midnightblue" d="M1279.28,-385.81C1303.39,-373.43 1331.91,-358.78 1352.46,-348.23"/>
<polygon fill="midnightblue" stroke="midnightblue" points="1277.58,-382.75 1270.28,-390.43 1280.78,-388.97 1277.58,-382.75"/>
</g>
<!-- Node26&#45;&gt;Node8 -->
<g id="edge42" class="edge">
<title>Node26&#45;&gt;Node8</title>
<path fill="none" stroke="midnightblue" d="M1252.3,-381.81C1263.9,-361.9 1274.34,-334.83 1264.17,-312 1239.03,-255.59 1177.12,-212.99 1141.52,-192.16"/>
<polygon fill="midnightblue" stroke="midnightblue" points="1249.26,-380.06 1246.96,-390.4 1255.21,-383.75 1249.26,-380.06"/>
</g>
<!-- Node27 -->
<g id="node27" class="node">
<title>Node27</title>
<g id="a_node27"><a xlink:href="../../d3/d0e/omnibox__controller__emitter_8cc.html" target="_top" xlink:title=" ">
<polygon fill="white" stroke="black" points="1115.67,-312.5 1115.67,-353.5 1254.67,-353.5 1254.67,-312.5 1115.67,-312.5"/>
<text text-anchor="start" x="1123.67" y="-341.5" font-family="Helvetica,sans-Serif" font-size="10.00">components/omnibox</text>
<text text-anchor="start" x="1123.67" y="-330.5" font-family="Helvetica,sans-Serif" font-size="10.00">/browser/omnibox_controller</text>
<text text-anchor="middle" x="1185.17" y="-319.5" font-family="Helvetica,sans-Serif" font-size="10.00">_emitter.cc</text>
</a>
</g>
</g>
<!-- Node26&#45;&gt;Node27 -->
<g id="edge43" class="edge">
<title>Node26&#45;&gt;Node27</title>
<path fill="none" stroke="midnightblue" d="M1214.7,-381.76C1208.89,-372.35 1202.54,-362.1 1197.23,-353.51"/>
<polygon fill="midnightblue" stroke="midnightblue" points="1211.83,-383.76 1220.06,-390.43 1217.78,-380.08 1211.83,-383.76"/>
</g>
</g>
</svg>
