<?xml version="1.0" encoding="UTF-8" standalone="no"?>
<!DOCTYPE svg PUBLIC "-//W3C//DTD SVG 1.1//EN"
 "http://www.w3.org/Graphics/SVG/1.1/DTD/svg11.dtd">
<!-- Generated by graphviz version 2.43.0 (0)
 -->
<!-- Title: AutocompleteInput::Parse Pages: 1 -->
<svg width="442pt" height="351pt"
 viewBox="0.00 0.00 442.00 350.50" xmlns="http://www.w3.org/2000/svg" xmlns:xlink="http://www.w3.org/1999/xlink">
<g id="graph0" class="graph" transform="scale(1 1) rotate(0) translate(4 346.5)">
<title>AutocompleteInput::Parse</title>
<polygon fill="white" stroke="transparent" points="-4,4 -4,-346.5 438,-346.5 438,4 -4,4"/>
<!-- Node1 -->
<g id="node1" class="node">
<title>Node1</title>
<g id="a_node1"><a xlink:title=" ">
<polygon fill="#bfbfbf" stroke="black" points="0,-143 0,-173 104,-173 104,-143 0,-143"/>
<text text-anchor="start" x="8" y="-161" font-family="Helvetica,sans-Serif" font-size="10.00">AutocompleteInput::</text>
<text text-anchor="middle" x="52" y="-150" font-family="Helvetica,sans-Serif" font-size="10.00">Parse</text>
</a>
</g>
</g>
<!-- Node2 -->
<g id="node2" class="node">
<title>Node2</title>
<g id="a_node2"><a xlink:href="../../d9/df6/classAutocompleteInput.html#a419d05e14c86f18c137fbb4057fedb04" target="_top" xlink:title=" ">
<polygon fill="white" stroke="black" points="165,-312 165,-342 269,-342 269,-312 165,-312"/>
<text text-anchor="start" x="173" y="-330" font-family="Helvetica,sans-Serif" font-size="10.00">AutocompleteInput::</text>
<text text-anchor="middle" x="217" y="-319" font-family="Helvetica,sans-Serif" font-size="10.00">canonicalized_url</text>
</a>
</g>
</g>
<!-- Node1&#45;&gt;Node2 -->
<g id="edge1" class="edge">
<title>Node1&#45;&gt;Node2</title>
<path fill="none" stroke="midnightblue" d="M57.97,-173.19C68.38,-202.64 95.29,-267.72 140,-303 144.66,-306.68 149.9,-309.8 155.38,-312.44"/>
<polygon fill="midnightblue" stroke="midnightblue" points="154.22,-315.75 164.79,-316.46 156.97,-309.32 154.22,-315.75"/>
</g>
<!-- Node3 -->
<g id="node3" class="node">
<title>Node3</title>
<g id="a_node3"><a xlink:href="../../d9/df6/classAutocompleteInput.html#a4390207a7b741fc348525b430c3c3e27" target="_top" xlink:title=" ">
<polygon fill="white" stroke="black" points="165,-263 165,-293 269,-293 269,-263 165,-263"/>
<text text-anchor="start" x="173" y="-281" font-family="Helvetica,sans-Serif" font-size="10.00">AutocompleteInput::</text>
<text text-anchor="middle" x="217" y="-270" font-family="Helvetica,sans-Serif" font-size="10.00">desired_tld</text>
</a>
</g>
</g>
<!-- Node1&#45;&gt;Node3 -->
<g id="edge2" class="edge">
<title>Node1&#45;&gt;Node3</title>
<path fill="none" stroke="midnightblue" d="M62.92,-173.29C77.4,-194.42 106.3,-232.39 140,-254 144.73,-257.03 149.88,-259.71 155.18,-262.06"/>
<polygon fill="midnightblue" stroke="midnightblue" points="154.27,-265.47 164.85,-265.96 156.89,-258.98 154.27,-265.47"/>
</g>
<!-- Node4 -->
<g id="node4" class="node">
<title>Node4</title>
<g id="a_node4"><a xlink:href="../../db/df5/classAutocompleteSchemeClassifier.html#af5c27290677874e2772b285dda84fbf5" target="_top" xlink:title=" ">
<polygon fill="white" stroke="black" points="140,-214 140,-244 294,-244 294,-214 140,-214"/>
<text text-anchor="start" x="148" y="-232" font-family="Helvetica,sans-Serif" font-size="10.00">AutocompleteSchemeClassifier</text>
<text text-anchor="middle" x="217" y="-221" font-family="Helvetica,sans-Serif" font-size="10.00">::GetInputTypeForScheme</text>
</a>
</g>
</g>
<!-- Node1&#45;&gt;Node4 -->
<g id="edge3" class="edge">
<title>Node1&#45;&gt;Node4</title>
<path fill="none" stroke="midnightblue" d="M77.88,-173.08C94.95,-183.01 118.34,-195.83 140,-205 144.46,-206.89 149.13,-208.71 153.86,-210.45"/>
<polygon fill="midnightblue" stroke="midnightblue" points="153.01,-213.86 163.6,-213.89 155.34,-207.26 153.01,-213.86"/>
</g>
<!-- Node5 -->
<g id="node5" class="node">
<title>Node5</title>
<g id="a_node5"><a xlink:href="../../d9/df6/classAutocompleteInput.html#aafe7f25c093a4b15b084ee4ab7f49f1f" target="_top" xlink:title=" ">
<polygon fill="white" stroke="black" points="151,-165 151,-195 283,-195 283,-165 151,-165"/>
<text text-anchor="start" x="159" y="-183" font-family="Helvetica,sans-Serif" font-size="10.00">AutocompleteInput::</text>
<text text-anchor="middle" x="217" y="-172" font-family="Helvetica,sans-Serif" font-size="10.00">NumNonHostComponents</text>
</a>
</g>
</g>
<!-- Node1&#45;&gt;Node5 -->
<g id="edge4" class="edge">
<title>Node1&#45;&gt;Node5</title>
<path fill="none" stroke="midnightblue" d="M104.13,-164.9C115.84,-166.48 128.53,-168.19 141.02,-169.88"/>
<polygon fill="midnightblue" stroke="midnightblue" points="140.58,-173.35 150.96,-171.22 141.52,-166.42 140.58,-173.35"/>
</g>
<!-- Node6 -->
<g id="node6" class="node">
<title>Node6</title>
<g id="a_node6"><a xlink:href="../../d9/df6/classAutocompleteInput.html#a3ac662d726d6c8788dbcc199397e8ba5" target="_top" xlink:title=" ">
<polygon fill="white" stroke="black" points="330,-143 330,-173 434,-173 434,-143 330,-143"/>
<text text-anchor="start" x="338" y="-161" font-family="Helvetica,sans-Serif" font-size="10.00">AutocompleteInput::</text>
<text text-anchor="middle" x="382" y="-150" font-family="Helvetica,sans-Serif" font-size="10.00">parts</text>
</a>
</g>
</g>
<!-- Node1&#45;&gt;Node6 -->
<g id="edge6" class="edge">
<title>Node1&#45;&gt;Node6</title>
<path fill="none" stroke="midnightblue" d="M104.06,-156.63C115.86,-156.37 128.37,-156.13 140,-156 208.44,-155.21 225.56,-155.21 294,-156 302.36,-156.1 311.17,-156.24 319.85,-156.42"/>
<polygon fill="midnightblue" stroke="midnightblue" points="319.87,-159.92 329.94,-156.63 320.02,-152.92 319.87,-159.92"/>
</g>
<!-- Node7 -->
<g id="node7" class="node">
<title>Node7</title>
<g id="a_node7"><a xlink:href="../../d9/df6/classAutocompleteInput.html#a9f88d669e8aa433c507320111a7b38a8" target="_top" xlink:title=" ">
<polygon fill="white" stroke="black" points="165,-77 165,-107 269,-107 269,-77 165,-77"/>
<text text-anchor="start" x="173" y="-95" font-family="Helvetica,sans-Serif" font-size="10.00">AutocompleteInput::</text>
<text text-anchor="middle" x="217" y="-84" font-family="Helvetica,sans-Serif" font-size="10.00">scheme</text>
</a>
</g>
</g>
<!-- Node1&#45;&gt;Node7 -->
<g id="edge7" class="edge">
<title>Node1&#45;&gt;Node7</title>
<path fill="none" stroke="midnightblue" d="M88.92,-142.98C104.59,-136.47 123.18,-128.8 140,-122 148.98,-118.37 158.58,-114.54 167.82,-110.88"/>
<polygon fill="midnightblue" stroke="midnightblue" points="169.27,-114.07 177.29,-107.14 166.7,-107.56 169.27,-114.07"/>
</g>
<!-- Node8 -->
<g id="node8" class="node">
<title>Node8</title>
<g id="a_node8"><a xlink:href="../../d9/df6/classAutocompleteInput.html#ac055dacf90a052c92e2bfe5c01328a95" target="_top" xlink:title=" ">
<polygon fill="white" stroke="black" points="156.5,-38.5 156.5,-57.5 277.5,-57.5 277.5,-38.5 156.5,-38.5"/>
<text text-anchor="middle" x="217" y="-45.5" font-family="Helvetica,sans-Serif" font-size="10.00">AutocompleteInput::text</text>
</a>
</g>
</g>
<!-- Node1&#45;&gt;Node8 -->
<g id="edge8" class="edge">
<title>Node1&#45;&gt;Node8</title>
<path fill="none" stroke="midnightblue" d="M63.51,-142.79C78.25,-122.62 107,-87.33 140,-68 144.52,-65.35 149.39,-63.05 154.41,-61.05"/>
<polygon fill="midnightblue" stroke="midnightblue" points="155.95,-64.21 164.19,-57.56 153.6,-57.62 155.95,-64.21"/>
</g>
<!-- Node9 -->
<g id="node9" class="node">
<title>Node9</title>
<g id="a_node9"><a xlink:href="../../d9/df6/classAutocompleteInput.html#a5d6111d5ac18400cdf809820dfab9ab0" target="_top" xlink:title=" ">
<polygon fill="white" stroke="black" points="155.5,-0.5 155.5,-19.5 278.5,-19.5 278.5,-0.5 155.5,-0.5"/>
<text text-anchor="middle" x="217" y="-7.5" font-family="Helvetica,sans-Serif" font-size="10.00">AutocompleteInput::type</text>
</a>
</g>
</g>
<!-- Node1&#45;&gt;Node9 -->
<g id="edge9" class="edge">
<title>Node1&#45;&gt;Node9</title>
<path fill="none" stroke="midnightblue" d="M58.98,-142.57C70.4,-115.25 97.97,-58.45 140,-29 142.87,-26.99 145.94,-25.19 149.12,-23.58"/>
<polygon fill="midnightblue" stroke="midnightblue" points="150.62,-26.74 158.38,-19.53 147.82,-20.33 150.62,-26.74"/>
</g>
<!-- Node5&#45;&gt;Node6 -->
<g id="edge5" class="edge">
<title>Node5&#45;&gt;Node6</title>
<path fill="none" stroke="midnightblue" d="M283.36,-171.18C295.35,-169.56 307.82,-167.88 319.69,-166.28"/>
<polygon fill="midnightblue" stroke="midnightblue" points="320.49,-169.7 329.93,-164.89 319.55,-162.76 320.49,-169.7"/>
</g>
</g>
</svg>
