<?xml version="1.0" encoding="UTF-8" standalone="no"?>
<!DOCTYPE svg PUBLIC "-//W3C//DTD SVG 1.1//EN"
 "http://www.w3.org/Graphics/SVG/1.1/DTD/svg11.dtd">
<!-- Generated by graphviz version 2.43.0 (0)
 -->
<!-- Title: AutocompleteInput::ParseForEmphasizeComponents Pages: 1 -->
<svg width="639pt" height="366pt"
 viewBox="0.00 0.00 639.00 366.13" xmlns="http://www.w3.org/2000/svg" xmlns:xlink="http://www.w3.org/1999/xlink">
<g id="graph0" class="graph" transform="scale(1 1) rotate(0) translate(4 362.13)">
<title>AutocompleteInput::ParseForEmphasizeComponents</title>
<polygon fill="white" stroke="transparent" points="-4,4 -4,-362.13 635,-362.13 635,4 -4,4"/>
<!-- Node1 -->
<g id="node1" class="node">
<title>Node1</title>
<g id="a_node1"><a xlink:title=" ">
<polygon fill="#bfbfbf" stroke="black" points="0,-112 0,-142 161,-142 161,-112 0,-112"/>
<text text-anchor="start" x="8" y="-130" font-family="Helvetica,sans-Serif" font-size="10.00">AutocompleteInput::</text>
<text text-anchor="middle" x="80.5" y="-119" font-family="Helvetica,sans-Serif" font-size="10.00">ParseForEmphasizeComponents</text>
</a>
</g>
</g>
<!-- Node2 -->
<g id="node2" class="node">
<title>Node2</title>
<g id="a_node2"><a xlink:href="../../d9/df6/classAutocompleteInput.html#a5e4baa54984f463b174191f60f0038aa" target="_top" xlink:title=" ">
<polygon fill="white" stroke="black" points="197,-137 197,-167 301,-167 301,-137 197,-137"/>
<text text-anchor="start" x="205" y="-155" font-family="Helvetica,sans-Serif" font-size="10.00">AutocompleteInput::</text>
<text text-anchor="middle" x="249" y="-144" font-family="Helvetica,sans-Serif" font-size="10.00">Parse</text>
</a>
</g>
</g>
<!-- Node1&#45;&gt;Node2 -->
<g id="edge1" class="edge">
<title>Node1&#45;&gt;Node2</title>
<path fill="none" stroke="midnightblue" d="M161.34,-138.99C169.88,-140.27 178.47,-141.56 186.75,-142.8"/>
<polygon fill="midnightblue" stroke="midnightblue" points="186.26,-146.27 196.67,-144.29 187.3,-139.35 186.26,-146.27"/>
</g>
<!-- Node7 -->
<g id="node7" class="node">
<title>Node7</title>
<g id="a_node7"><a xlink:href="../../d9/df6/classAutocompleteInput.html#a3ac662d726d6c8788dbcc199397e8ba5" target="_top" xlink:title=" ">
<polygon fill="white" stroke="black" points="527,-318 527,-348 631,-348 631,-318 527,-318"/>
<text text-anchor="start" x="535" y="-336" font-family="Helvetica,sans-Serif" font-size="10.00">AutocompleteInput::</text>
<text text-anchor="middle" x="579" y="-325" font-family="Helvetica,sans-Serif" font-size="10.00">parts</text>
</a>
</g>
</g>
<!-- Node1&#45;&gt;Node7 -->
<g id="edge11" class="edge">
<title>Node1&#45;&gt;Node7</title>
<path fill="none" stroke="midnightblue" d="M92.63,-142.02C124.78,-183.97 222.83,-302.06 337,-344 395.3,-365.42 466.92,-358.33 516.87,-348.58"/>
<polygon fill="midnightblue" stroke="midnightblue" points="517.77,-351.97 526.87,-346.53 516.37,-345.11 517.77,-351.97"/>
</g>
<!-- Node8 -->
<g id="node8" class="node">
<title>Node8</title>
<g id="a_node8"><a xlink:href="../../d9/df6/classAutocompleteInput.html#a9f88d669e8aa433c507320111a7b38a8" target="_top" xlink:title=" ">
<polygon fill="white" stroke="black" points="362,-39 362,-69 466,-69 466,-39 362,-39"/>
<text text-anchor="start" x="370" y="-57" font-family="Helvetica,sans-Serif" font-size="10.00">AutocompleteInput::</text>
<text text-anchor="middle" x="414" y="-46" font-family="Helvetica,sans-Serif" font-size="10.00">scheme</text>
</a>
</g>
</g>
<!-- Node1&#45;&gt;Node8 -->
<g id="edge12" class="edge">
<title>Node1&#45;&gt;Node8</title>
<path fill="none" stroke="midnightblue" d="M149.79,-111.96C209.24,-98.87 294.63,-80.07 351.87,-67.46"/>
<polygon fill="midnightblue" stroke="midnightblue" points="352.85,-70.83 361.87,-65.26 351.35,-63.99 352.85,-70.83"/>
</g>
<!-- Node9 -->
<g id="node9" class="node">
<title>Node9</title>
<g id="a_node9"><a xlink:href="../../d9/df6/classAutocompleteInput.html#ac055dacf90a052c92e2bfe5c01328a95" target="_top" xlink:title=" ">
<polygon fill="white" stroke="black" points="353.5,-0.5 353.5,-19.5 474.5,-19.5 474.5,-0.5 353.5,-0.5"/>
<text text-anchor="middle" x="414" y="-7.5" font-family="Helvetica,sans-Serif" font-size="10.00">AutocompleteInput::text</text>
</a>
</g>
</g>
<!-- Node1&#45;&gt;Node9 -->
<g id="edge13" class="edge">
<title>Node1&#45;&gt;Node9</title>
<path fill="none" stroke="midnightblue" d="M112.49,-111.97C135.54,-101.06 167.89,-86.3 197,-75 258.06,-51.3 274.08,-47.18 337,-29 345.26,-26.61 354.08,-24.25 362.68,-22.03"/>
<polygon fill="midnightblue" stroke="midnightblue" points="363.79,-25.36 372.62,-19.52 362.07,-18.58 363.79,-25.36"/>
</g>
<!-- Node3 -->
<g id="node3" class="node">
<title>Node3</title>
<g id="a_node3"><a xlink:href="../../d9/df6/classAutocompleteInput.html#a419d05e14c86f18c137fbb4057fedb04" target="_top" xlink:title=" ">
<polygon fill="white" stroke="black" points="362,-186 362,-216 466,-216 466,-186 362,-186"/>
<text text-anchor="start" x="370" y="-204" font-family="Helvetica,sans-Serif" font-size="10.00">AutocompleteInput::</text>
<text text-anchor="middle" x="414" y="-193" font-family="Helvetica,sans-Serif" font-size="10.00">canonicalized_url</text>
</a>
</g>
</g>
<!-- Node2&#45;&gt;Node3 -->
<g id="edge2" class="edge">
<title>Node2&#45;&gt;Node3</title>
<path fill="none" stroke="midnightblue" d="M300.24,-167.1C316.89,-172.11 335.6,-177.73 352.92,-182.94"/>
<polygon fill="midnightblue" stroke="midnightblue" points="352.35,-186.42 362.93,-185.95 354.36,-179.72 352.35,-186.42"/>
</g>
<!-- Node4 -->
<g id="node4" class="node">
<title>Node4</title>
<g id="a_node4"><a xlink:href="../../d9/df6/classAutocompleteInput.html#a4390207a7b741fc348525b430c3c3e27" target="_top" xlink:title=" ">
<polygon fill="white" stroke="black" points="362,-137 362,-167 466,-167 466,-137 362,-137"/>
<text text-anchor="start" x="370" y="-155" font-family="Helvetica,sans-Serif" font-size="10.00">AutocompleteInput::</text>
<text text-anchor="middle" x="414" y="-144" font-family="Helvetica,sans-Serif" font-size="10.00">desired_tld</text>
</a>
</g>
</g>
<!-- Node2&#45;&gt;Node4 -->
<g id="edge3" class="edge">
<title>Node2&#45;&gt;Node4</title>
<path fill="none" stroke="midnightblue" d="M301.13,-152C317.13,-152 334.96,-152 351.6,-152"/>
<polygon fill="midnightblue" stroke="midnightblue" points="351.77,-155.5 361.77,-152 351.77,-148.5 351.77,-155.5"/>
</g>
<!-- Node5 -->
<g id="node5" class="node">
<title>Node5</title>
<g id="a_node5"><a xlink:href="../../db/df5/classAutocompleteSchemeClassifier.html#af5c27290677874e2772b285dda84fbf5" target="_top" xlink:title=" ">
<polygon fill="white" stroke="black" points="337,-88 337,-118 491,-118 491,-88 337,-88"/>
<text text-anchor="start" x="345" y="-106" font-family="Helvetica,sans-Serif" font-size="10.00">AutocompleteSchemeClassifier</text>
<text text-anchor="middle" x="414" y="-95" font-family="Helvetica,sans-Serif" font-size="10.00">::GetInputTypeForScheme</text>
</a>
</g>
</g>
<!-- Node2&#45;&gt;Node5 -->
<g id="edge4" class="edge">
<title>Node2&#45;&gt;Node5</title>
<path fill="none" stroke="midnightblue" d="M300.24,-136.9C316.89,-131.89 335.6,-126.27 352.92,-121.06"/>
<polygon fill="midnightblue" stroke="midnightblue" points="354.36,-124.28 362.93,-118.05 352.35,-117.58 354.36,-124.28"/>
</g>
<!-- Node6 -->
<g id="node6" class="node">
<title>Node6</title>
<g id="a_node6"><a xlink:href="../../d9/df6/classAutocompleteInput.html#aafe7f25c093a4b15b084ee4ab7f49f1f" target="_top" xlink:title=" ">
<polygon fill="white" stroke="black" points="348,-274 348,-304 480,-304 480,-274 348,-274"/>
<text text-anchor="start" x="356" y="-292" font-family="Helvetica,sans-Serif" font-size="10.00">AutocompleteInput::</text>
<text text-anchor="middle" x="414" y="-281" font-family="Helvetica,sans-Serif" font-size="10.00">NumNonHostComponents</text>
</a>
</g>
</g>
<!-- Node2&#45;&gt;Node6 -->
<g id="edge5" class="edge">
<title>Node2&#45;&gt;Node6</title>
<path fill="none" stroke="midnightblue" d="M257.77,-167.01C270.92,-190.95 299.77,-237.75 337,-264 339.72,-265.92 342.61,-267.7 345.59,-269.35"/>
<polygon fill="midnightblue" stroke="midnightblue" points="344.29,-272.61 354.81,-273.92 347.4,-266.34 344.29,-272.61"/>
</g>
<!-- Node2&#45;&gt;Node7 -->
<g id="edge7" class="edge">
<title>Node2&#45;&gt;Node7</title>
<path fill="none" stroke="midnightblue" d="M253.05,-167.1C260.62,-200.25 283.67,-279.19 337,-314 390.21,-348.73 464.78,-349.03 516.83,-343.47"/>
<polygon fill="midnightblue" stroke="midnightblue" points="517.4,-346.93 526.93,-342.29 516.59,-339.98 517.4,-346.93"/>
</g>
<!-- Node2&#45;&gt;Node8 -->
<g id="edge8" class="edge">
<title>Node2&#45;&gt;Node8</title>
<path fill="none" stroke="midnightblue" d="M264.39,-136.88C280.65,-120.58 308.57,-94.82 337,-79 341.85,-76.3 347.05,-73.83 352.35,-71.59"/>
<polygon fill="midnightblue" stroke="midnightblue" points="353.96,-74.72 361.98,-67.8 351.4,-68.2 353.96,-74.72"/>
</g>
<!-- Node2&#45;&gt;Node9 -->
<g id="edge9" class="edge">
<title>Node2&#45;&gt;Node9</title>
<path fill="none" stroke="midnightblue" d="M256.37,-136.87C268.22,-110.65 296.2,-56.92 337,-29 339.95,-26.98 343.1,-25.18 346.37,-23.56"/>
<polygon fill="midnightblue" stroke="midnightblue" points="348.04,-26.65 355.86,-19.5 345.29,-20.22 348.04,-26.65"/>
</g>
<!-- Node10 -->
<g id="node10" class="node">
<title>Node10</title>
<g id="a_node10"><a xlink:href="../../d9/df6/classAutocompleteInput.html#a5d6111d5ac18400cdf809820dfab9ab0" target="_top" xlink:title=" ">
<polygon fill="white" stroke="black" points="352.5,-235.5 352.5,-254.5 475.5,-254.5 475.5,-235.5 352.5,-235.5"/>
<text text-anchor="middle" x="414" y="-242.5" font-family="Helvetica,sans-Serif" font-size="10.00">AutocompleteInput::type</text>
</a>
</g>
</g>
<!-- Node2&#45;&gt;Node10 -->
<g id="edge10" class="edge">
<title>Node2&#45;&gt;Node10</title>
<path fill="none" stroke="midnightblue" d="M263.56,-167.12C279.5,-183.98 307.55,-210.86 337,-226 341.57,-228.35 346.45,-230.42 351.44,-232.24"/>
<polygon fill="midnightblue" stroke="midnightblue" points="350.54,-235.63 361.13,-235.45 352.74,-228.98 350.54,-235.63"/>
</g>
<!-- Node6&#45;&gt;Node7 -->
<g id="edge6" class="edge">
<title>Node6&#45;&gt;Node7</title>
<path fill="none" stroke="midnightblue" d="M470.64,-304.02C485.62,-308.06 501.9,-312.46 517.15,-316.57"/>
<polygon fill="midnightblue" stroke="midnightblue" points="516.43,-320 526.99,-319.23 518.25,-313.25 516.43,-320"/>
</g>
</g>
</svg>
