<?xml version="1.0" encoding="UTF-8" standalone="no"?>
<!DOCTYPE svg PUBLIC "-//W3C//DTD SVG 1.1//EN"
 "http://www.w3.org/Graphics/SVG/1.1/DTD/svg11.dtd">
<!-- Generated by graphviz version 2.43.0 (0)
 -->
<!-- Title: components/omnibox/browser/on_device_model_update_listener.cc Pages: 1 -->
<svg width="935pt" height="195pt"
 viewBox="0.00 0.00 935.00 195.00" xmlns="http://www.w3.org/2000/svg" xmlns:xlink="http://www.w3.org/1999/xlink">
<g id="graph0" class="graph" transform="scale(1 1) rotate(0) translate(4 191)">
<title>components/omnibox/browser/on_device_model_update_listener.cc</title>
<polygon fill="white" stroke="transparent" points="-4,4 -4,-191 931,-191 931,4 -4,4"/>
<!-- Node1 -->
<g id="node1" class="node">
<title>Node1</title>
<g id="a_node1"><a xlink:title=" ">
<polygon fill="#bfbfbf" stroke="black" points="480.5,-145.5 480.5,-186.5 613.5,-186.5 613.5,-145.5 480.5,-145.5"/>
<text text-anchor="start" x="488.5" y="-174.5" font-family="Helvetica,sans-Serif" font-size="10.00">components/omnibox</text>
<text text-anchor="start" x="488.5" y="-163.5" font-family="Helvetica,sans-Serif" font-size="10.00">/browser/on_device_model</text>
<text text-anchor="middle" x="547" y="-152.5" font-family="Helvetica,sans-Serif" font-size="10.00">_update_listener.cc</text>
</a>
</g>
</g>
<!-- Node2 -->
<g id="node2" class="node">
<title>Node2</title>
<g id="a_node2"><a xlink:href="../../d2/df5/on__device__model__update__listener_8h.html" target="_top" xlink:title=" ">
<polygon fill="white" stroke="black" points="119.5,-67.5 119.5,-108.5 252.5,-108.5 252.5,-67.5 119.5,-67.5"/>
<text text-anchor="start" x="127.5" y="-96.5" font-family="Helvetica,sans-Serif" font-size="10.00">components/omnibox</text>
<text text-anchor="start" x="127.5" y="-85.5" font-family="Helvetica,sans-Serif" font-size="10.00">/browser/on_device_model</text>
<text text-anchor="middle" x="186" y="-74.5" font-family="Helvetica,sans-Serif" font-size="10.00">_update_listener.h</text>
</a>
</g>
</g>
<!-- Node1&#45;&gt;Node2 -->
<g id="edge1" class="edge">
<title>Node1&#45;&gt;Node2</title>
<path fill="none" stroke="midnightblue" d="M480.24,-153.12C424.58,-142.93 343.01,-127.34 262.48,-109.04"/>
<polygon fill="midnightblue" stroke="midnightblue" points="263.2,-105.62 252.67,-106.8 261.64,-112.44 263.2,-105.62"/>
</g>
<!-- Node7 -->
<g id="node7" class="node">
<title>Node7</title>
<g id="a_node7"><a xlink:title=" ">
<polygon fill="white" stroke="#bfbfbf" points="271,-78.5 271,-97.5 407,-97.5 407,-78.5 271,-78.5"/>
<text text-anchor="middle" x="339" y="-85.5" font-family="Helvetica,sans-Serif" font-size="10.00">base/files/file_enumerator.h</text>
</a>
</g>
</g>
<!-- Node1&#45;&gt;Node7 -->
<g id="edge6" class="edge">
<title>Node1&#45;&gt;Node7</title>
<path fill="none" stroke="midnightblue" d="M493.43,-145.43C455.04,-131.4 404.54,-112.95 371.92,-101.03"/>
<polygon fill="midnightblue" stroke="midnightblue" points="373,-97.7 362.41,-97.55 370.6,-104.27 373,-97.7"/>
</g>
<!-- Node8 -->
<g id="node8" class="node">
<title>Node8</title>
<g id="a_node8"><a xlink:title=" ">
<polygon fill="white" stroke="#bfbfbf" points="425.5,-73 425.5,-103 538.5,-103 538.5,-73 425.5,-73"/>
<text text-anchor="start" x="433.5" y="-91" font-family="Helvetica,sans-Serif" font-size="10.00">base/strings/utf_string</text>
<text text-anchor="middle" x="482" y="-80" font-family="Helvetica,sans-Serif" font-size="10.00">_conversions.h</text>
</a>
</g>
</g>
<!-- Node1&#45;&gt;Node8 -->
<g id="edge7" class="edge">
<title>Node1&#45;&gt;Node8</title>
<path fill="none" stroke="midnightblue" d="M530.26,-145.43C521.27,-134.91 510.15,-121.92 500.86,-111.05"/>
<polygon fill="midnightblue" stroke="midnightblue" points="503.33,-108.55 494.17,-103.23 498.01,-113.1 503.33,-108.55"/>
</g>
<!-- Node9 -->
<g id="node9" class="node">
<title>Node9</title>
<g id="a_node9"><a xlink:title=" ">
<polygon fill="white" stroke="#bfbfbf" points="556.5,-78.5 556.5,-97.5 669.5,-97.5 669.5,-78.5 556.5,-78.5"/>
<text text-anchor="middle" x="613" y="-85.5" font-family="Helvetica,sans-Serif" font-size="10.00">base/task/post_task.h</text>
</a>
</g>
</g>
<!-- Node1&#45;&gt;Node9 -->
<g id="edge8" class="edge">
<title>Node1&#45;&gt;Node9</title>
<path fill="none" stroke="midnightblue" d="M564,-145.43C574.82,-132.97 588.66,-117.03 598.87,-105.27"/>
<polygon fill="midnightblue" stroke="midnightblue" points="601.66,-107.4 605.57,-97.55 596.37,-102.81 601.66,-107.4"/>
</g>
<!-- Node10 -->
<g id="node10" class="node">
<title>Node10</title>
<g id="a_node10"><a xlink:title=" ">
<polygon fill="white" stroke="#bfbfbf" points="687.5,-78.5 687.5,-97.5 808.5,-97.5 808.5,-78.5 687.5,-78.5"/>
<text text-anchor="middle" x="748" y="-85.5" font-family="Helvetica,sans-Serif" font-size="10.00">base/task/thread_pool.h</text>
</a>
</g>
</g>
<!-- Node1&#45;&gt;Node10 -->
<g id="edge9" class="edge">
<title>Node1&#45;&gt;Node10</title>
<path fill="none" stroke="midnightblue" d="M598.76,-145.43C635.71,-131.46 684.25,-113.11 715.78,-101.18"/>
<polygon fill="midnightblue" stroke="midnightblue" points="717.27,-104.36 725.38,-97.55 714.79,-97.82 717.27,-104.36"/>
</g>
<!-- Node11 -->
<g id="node11" class="node">
<title>Node11</title>
<g id="a_node11"><a xlink:title=" ">
<polygon fill="white" stroke="#bfbfbf" points="827,-78.5 827,-97.5 927,-97.5 927,-78.5 827,-78.5"/>
<text text-anchor="middle" x="877" y="-85.5" font-family="Helvetica,sans-Serif" font-size="10.00">build/build_config.h</text>
</a>
</g>
</g>
<!-- Node1&#45;&gt;Node11 -->
<g id="edge10" class="edge">
<title>Node1&#45;&gt;Node11</title>
<path fill="none" stroke="midnightblue" d="M613.53,-153.62C668.72,-143.61 749.04,-127.74 818,-109 826.63,-106.66 835.83,-103.74 844.35,-100.87"/>
<polygon fill="midnightblue" stroke="midnightblue" points="845.64,-104.12 853.94,-97.55 843.35,-97.51 845.64,-104.12"/>
</g>
<!-- Node3 -->
<g id="node3" class="node">
<title>Node3</title>
<g id="a_node3"><a xlink:title=" ">
<polygon fill="white" stroke="#bfbfbf" points="0,-6 0,-25 52,-25 52,-6 0,-6"/>
<text text-anchor="middle" x="26" y="-13" font-family="Helvetica,sans-Serif" font-size="10.00">memory</text>
</a>
</g>
</g>
<!-- Node2&#45;&gt;Node3 -->
<g id="edge2" class="edge">
<title>Node2&#45;&gt;Node3</title>
<path fill="none" stroke="midnightblue" d="M141.43,-67.36C113.8,-55.19 79.1,-39.9 55,-29.28"/>
<polygon fill="midnightblue" stroke="midnightblue" points="56.25,-26 45.68,-25.17 53.42,-32.41 56.25,-26"/>
</g>
<!-- Node4 -->
<g id="node4" class="node">
<title>Node4</title>
<g id="a_node4"><a xlink:title=" ">
<polygon fill="white" stroke="#bfbfbf" points="70.5,-6 70.5,-25 177.5,-25 177.5,-6 70.5,-6"/>
<text text-anchor="middle" x="124" y="-13" font-family="Helvetica,sans-Serif" font-size="10.00">base/files/file_path.h</text>
</a>
</g>
</g>
<!-- Node2&#45;&gt;Node4 -->
<g id="edge3" class="edge">
<title>Node2&#45;&gt;Node4</title>
<path fill="none" stroke="midnightblue" d="M168.73,-67.36C159.21,-56.54 147.53,-43.26 138.49,-32.98"/>
<polygon fill="midnightblue" stroke="midnightblue" points="140.86,-30.37 131.63,-25.17 135.6,-34.99 140.86,-30.37"/>
</g>
<!-- Node5 -->
<g id="node5" class="node">
<title>Node5</title>
<g id="a_node5"><a xlink:title=" ">
<polygon fill="white" stroke="#bfbfbf" points="195.5,-6 195.5,-25 302.5,-25 302.5,-6 195.5,-6"/>
<text text-anchor="middle" x="249" y="-13" font-family="Helvetica,sans-Serif" font-size="10.00">base/no_destructor.h</text>
</a>
</g>
</g>
<!-- Node2&#45;&gt;Node5 -->
<g id="edge4" class="edge">
<title>Node2&#45;&gt;Node5</title>
<path fill="none" stroke="midnightblue" d="M203.55,-67.36C213.32,-56.43 225.33,-42.99 234.55,-32.67"/>
<polygon fill="midnightblue" stroke="midnightblue" points="237.2,-34.96 241.25,-25.17 231.98,-30.3 237.2,-34.96"/>
</g>
<!-- Node6 -->
<g id="node6" class="node">
<title>Node6</title>
<g id="a_node6"><a xlink:title=" ">
<polygon fill="white" stroke="#bfbfbf" points="321,-0.5 321,-30.5 431,-30.5 431,-0.5 321,-0.5"/>
<text text-anchor="start" x="329" y="-18.5" font-family="Helvetica,sans-Serif" font-size="10.00">base/threading/thread</text>
<text text-anchor="middle" x="376" y="-7.5" font-family="Helvetica,sans-Serif" font-size="10.00">_checker.h</text>
</a>
</g>
</g>
<!-- Node2&#45;&gt;Node6 -->
<g id="edge5" class="edge">
<title>Node2&#45;&gt;Node6</title>
<path fill="none" stroke="midnightblue" d="M238.67,-67.46C266.75,-57.04 301.01,-44.32 328.3,-34.2"/>
<polygon fill="midnightblue" stroke="midnightblue" points="329.85,-37.36 338.01,-30.6 327.42,-30.79 329.85,-37.36"/>
</g>
</g>
</svg>
