<?xml version="1.0" encoding="UTF-8" standalone="no"?>
<!DOCTYPE svg PUBLIC "-//W3C//DTD SVG 1.1//EN"
 "http://www.w3.org/Graphics/SVG/1.1/DTD/svg11.dtd">
<!-- Generated by graphviz version 2.43.0 (0)
 -->
<!-- Title: OmniboxView Pages: 1 -->
<svg width="141pt" height="163pt"
 viewBox="0.00 0.00 141.00 163.00" xmlns="http://www.w3.org/2000/svg" xmlns:xlink="http://www.w3.org/1999/xlink">
<g id="graph0" class="graph" transform="scale(1 1) rotate(0) translate(4 159)">
<title>OmniboxView</title>
<polygon fill="white" stroke="transparent" points="-4,4 -4,-159 137,-159 137,4 -4,4"/>
<!-- Node1 -->
<g id="node1" class="node">
<title>Node1</title>
<g id="a_node1"><a xlink:title=" ">
<polygon fill="#bfbfbf" stroke="black" points="28,-0.5 28,-19.5 105,-19.5 105,-0.5 28,-0.5"/>
<text text-anchor="middle" x="66.5" y="-7.5" font-family="Helvetica,sans-Serif" font-size="10.00">OmniboxView</text>
</a>
</g>
</g>
<!-- Node2 -->
<g id="node2" class="node">
<title>Node2</title>
<g id="a_node2"><a xlink:href="../../dc/d81/classOmniboxEditController.html" target="_top" xlink:title=" ">
<polygon fill="white" stroke="black" points="9,-67.5 9,-86.5 124,-86.5 124,-67.5 9,-67.5"/>
<text text-anchor="middle" x="66.5" y="-74.5" font-family="Helvetica,sans-Serif" font-size="10.00">OmniboxEditController</text>
</a>
</g>
</g>
<!-- Node2&#45;&gt;Node1 -->
<g id="edge1" class="edge">
<title>Node2&#45;&gt;Node1</title>
<path fill="none" stroke="#9a32cd" stroke-dasharray="5,2" d="M66.5,-57.04C66.5,-44.67 66.5,-29.12 66.5,-19.63"/>
<polygon fill="#9a32cd" stroke="#9a32cd" points="63,-57.23 66.5,-67.23 70,-57.23 63,-57.23"/>
<text text-anchor="middle" x="91" y="-41" font-family="Helvetica,sans-Serif" font-size="10.00"> controller_</text>
</g>
<!-- Node3 -->
<g id="node3" class="node">
<title>Node3</title>
<g id="a_node3"><a xlink:title=" ">
<polygon fill="white" stroke="#bfbfbf" points="0,-124.5 0,-154.5 133,-154.5 133,-124.5 0,-124.5"/>
<text text-anchor="start" x="8" y="-142.5" font-family="Helvetica,sans-Serif" font-size="10.00">base::SupportsWeakPtr</text>
<text text-anchor="middle" x="66.5" y="-131.5" font-family="Helvetica,sans-Serif" font-size="10.00">&lt; OmniboxEditController &gt;</text>
</a>
</g>
</g>
<!-- Node3&#45;&gt;Node2 -->
<g id="edge2" class="edge">
<title>Node3&#45;&gt;Node2</title>
<path fill="none" stroke="midnightblue" d="M66.5,-114.35C66.5,-104.51 66.5,-93.78 66.5,-86.54"/>
<polygon fill="midnightblue" stroke="midnightblue" points="63,-114.47 66.5,-124.47 70,-114.47 63,-114.47"/>
</g>
</g>
</svg>
