<?xml version="1.0" encoding="UTF-8" standalone="no"?>
<!DOCTYPE svg PUBLIC "-//W3C//DTD SVG 1.1//EN"
 "http://www.w3.org/Graphics/SVG/1.1/DTD/svg11.dtd">
<!-- Generated by graphviz version 2.43.0 (0)
 -->
<!-- Title: components/omnibox/browser/omnibox_view.h Pages: 1 -->
<svg width="1384pt" height="429pt"
 viewBox="0.00 0.00 1383.82 429.00" xmlns="http://www.w3.org/2000/svg" xmlns:xlink="http://www.w3.org/1999/xlink">
<g id="graph0" class="graph" transform="scale(1 1) rotate(0) translate(4 425)">
<title>components/omnibox/browser/omnibox_view.h</title>
<polygon fill="white" stroke="transparent" points="-4,4 -4,-425 1379.82,-425 1379.82,4 -4,4"/>
<!-- Node1 -->
<g id="node1" class="node">
<title>Node1</title>
<g id="a_node1"><a xlink:title=" ">
<polygon fill="#bfbfbf" stroke="black" points="609.5,-390.5 609.5,-420.5 735.5,-420.5 735.5,-390.5 609.5,-390.5"/>
<text text-anchor="start" x="617.5" y="-408.5" font-family="Helvetica,sans-Serif" font-size="10.00">components/omnibox</text>
<text text-anchor="middle" x="672.5" y="-397.5" font-family="Helvetica,sans-Serif" font-size="10.00">/browser/omnibox_view.h</text>
</a>
</g>
</g>
<!-- Node2 -->
<g id="node2" class="node">
<title>Node2</title>
<g id="a_node2"><a xlink:href="../../d1/d5e/clipboard__utils_8cc.html" target="_top" xlink:title=" ">
<polygon fill="white" stroke="black" points="185,-318 185,-348 322,-348 322,-318 185,-318"/>
<text text-anchor="start" x="193" y="-336" font-family="Helvetica,sans-Serif" font-size="10.00">chrome/browser/ui/omnibox</text>
<text text-anchor="middle" x="253.5" y="-325" font-family="Helvetica,sans-Serif" font-size="10.00">/clipboard_utils.cc</text>
</a>
</g>
</g>
<!-- Node1&#45;&gt;Node2 -->
<g id="edge1" class="edge">
<title>Node1&#45;&gt;Node2</title>
<path fill="none" stroke="midnightblue" d="M599.45,-396.02C529.94,-387.41 422.58,-372.7 330.5,-354 321.97,-352.27 312.98,-350.18 304.27,-348.01"/>
<polygon fill="midnightblue" stroke="midnightblue" points="599.08,-399.5 609.43,-397.25 599.93,-392.56 599.08,-399.5"/>
</g>
<!-- Node3 -->
<g id="node3" class="node">
<title>Node3</title>
<g id="a_node3"><a xlink:href="../../d5/db6/omnibox__tab__helper_8cc.html" target="_top" xlink:title=" ">
<polygon fill="white" stroke="black" points="340,-318 340,-348 477,-348 477,-318 340,-318"/>
<text text-anchor="start" x="348" y="-336" font-family="Helvetica,sans-Serif" font-size="10.00">chrome/browser/ui/omnibox</text>
<text text-anchor="middle" x="408.5" y="-325" font-family="Helvetica,sans-Serif" font-size="10.00">/omnibox_tab_helper.cc</text>
</a>
</g>
</g>
<!-- Node1&#45;&gt;Node3 -->
<g id="edge2" class="edge">
<title>Node1&#45;&gt;Node3</title>
<path fill="none" stroke="midnightblue" d="M610.31,-387.89C565.01,-375.79 504.29,-359.58 461.33,-348.11"/>
<polygon fill="midnightblue" stroke="midnightblue" points="609.46,-391.29 620.03,-390.49 611.27,-384.53 609.46,-391.29"/>
</g>
<!-- Node4 -->
<g id="node4" class="node">
<title>Node4</title>
<g id="a_node4"><a xlink:href="../../d7/df6/omnibox__edit__model_8cc.html" target="_top" xlink:title=" ">
<polygon fill="white" stroke="black" points="0,-156.5 0,-197.5 115,-197.5 115,-156.5 0,-156.5"/>
<text text-anchor="start" x="8" y="-185.5" font-family="Helvetica,sans-Serif" font-size="10.00">components/omnibox</text>
<text text-anchor="start" x="8" y="-174.5" font-family="Helvetica,sans-Serif" font-size="10.00">/browser/omnibox_edit</text>
<text text-anchor="middle" x="57.5" y="-163.5" font-family="Helvetica,sans-Serif" font-size="10.00">_model.cc</text>
</a>
</g>
</g>
<!-- Node1&#45;&gt;Node4 -->
<g id="edge3" class="edge">
<title>Node1&#45;&gt;Node4</title>
<path fill="none" stroke="midnightblue" d="M638.52,-385.68C601.6,-365.71 540.51,-334.06 485.5,-312 450.54,-297.98 223.9,-228.6 115.32,-195.55"/>
<polygon fill="midnightblue" stroke="midnightblue" points="636.91,-388.79 647.37,-390.49 640.25,-382.64 636.91,-388.79"/>
</g>
<!-- Node5 -->
<g id="node5" class="node">
<title>Node5</title>
<g id="a_node5"><a xlink:href="../../d9/d1b/omnibox__edit__model_8h.html" target="_top" xlink:title=" ">
<polygon fill="white" stroke="black" points="615,-312.5 615,-353.5 730,-353.5 730,-312.5 615,-312.5"/>
<text text-anchor="start" x="623" y="-341.5" font-family="Helvetica,sans-Serif" font-size="10.00">components/omnibox</text>
<text text-anchor="start" x="623" y="-330.5" font-family="Helvetica,sans-Serif" font-size="10.00">/browser/omnibox_edit</text>
<text text-anchor="middle" x="672.5" y="-319.5" font-family="Helvetica,sans-Serif" font-size="10.00">_model.h</text>
</a>
</g>
</g>
<!-- Node1&#45;&gt;Node5 -->
<g id="edge4" class="edge">
<title>Node1&#45;&gt;Node5</title>
<path fill="none" stroke="midnightblue" d="M672.5,-379.98C672.5,-371.35 672.5,-361.76 672.5,-353.59"/>
<polygon fill="midnightblue" stroke="midnightblue" points="669,-380.23 672.5,-390.23 676,-380.23 669,-380.23"/>
</g>
<!-- Node21 -->
<g id="node21" class="node">
<title>Node21</title>
<g id="a_node21"><a xlink:href="../../d0/d6c/omnibox__view_8cc.html" target="_top" xlink:title=" ">
<polygon fill="white" stroke="black" points="1082,-240 1082,-270 1213,-270 1213,-240 1082,-240"/>
<text text-anchor="start" x="1090" y="-258" font-family="Helvetica,sans-Serif" font-size="10.00">components/omnibox</text>
<text text-anchor="middle" x="1147.5" y="-247" font-family="Helvetica,sans-Serif" font-size="10.00">/browser/omnibox_view.cc</text>
</a>
</g>
</g>
<!-- Node1&#45;&gt;Node21 -->
<g id="edge36" class="edge">
<title>Node1&#45;&gt;Node21</title>
<path fill="none" stroke="midnightblue" d="M701.6,-384.3C713.71,-375.46 727.67,-364.68 739.5,-354 758.41,-336.93 755.83,-323.61 778.5,-312 893.72,-253.01 940.26,-299.74 1067.5,-276 1076.51,-274.32 1086.01,-272.23 1095.2,-270.04"/>
<polygon fill="midnightblue" stroke="midnightblue" points="699.24,-381.68 693.17,-390.36 703.33,-387.36 699.24,-381.68"/>
</g>
<!-- Node22 -->
<g id="node22" class="node">
<title>Node22</title>
<g id="a_node22"><a xlink:href="../../da/d83/omnibox__view__fuzzer_8cc.html" target="_top" xlink:title=" ">
<polygon fill="white" stroke="black" points="787,-312.5 787,-353.5 906,-353.5 906,-312.5 787,-312.5"/>
<text text-anchor="start" x="795" y="-341.5" font-family="Helvetica,sans-Serif" font-size="10.00">components/omnibox</text>
<text text-anchor="start" x="795" y="-330.5" font-family="Helvetica,sans-Serif" font-size="10.00">/browser/omnibox_view</text>
<text text-anchor="middle" x="846.5" y="-319.5" font-family="Helvetica,sans-Serif" font-size="10.00">_fuzzer.cc</text>
</a>
</g>
</g>
<!-- Node1&#45;&gt;Node22 -->
<g id="edge37" class="edge">
<title>Node1&#45;&gt;Node22</title>
<path fill="none" stroke="midnightblue" d="M716.84,-386.53C741.72,-376.45 772.78,-363.87 798.26,-353.55"/>
<polygon fill="midnightblue" stroke="midnightblue" points="715.25,-383.4 707.29,-390.4 717.88,-389.89 715.25,-383.4"/>
</g>
<!-- Node23 -->
<g id="node23" class="node">
<title>Node23</title>
<g id="a_node23"><a xlink:href="../../db/db7/omnibox__view__views_8h.html" target="_top" xlink:title=" ">
<polygon fill="white" stroke="black" points="1044,-156.5 1044,-197.5 1169,-197.5 1169,-156.5 1044,-156.5"/>
<text text-anchor="start" x="1052" y="-185.5" font-family="Helvetica,sans-Serif" font-size="10.00">chrome/browser/ui/views</text>
<text text-anchor="start" x="1052" y="-174.5" font-family="Helvetica,sans-Serif" font-size="10.00">/omnibox/omnibox_view</text>
<text text-anchor="middle" x="1106.5" y="-163.5" font-family="Helvetica,sans-Serif" font-size="10.00">_views.h</text>
</a>
</g>
</g>
<!-- Node1&#45;&gt;Node23 -->
<g id="edge38" class="edge">
<title>Node1&#45;&gt;Node23</title>
<path fill="none" stroke="midnightblue" d="M746.05,-398.5C882.1,-385.7 1164.49,-350.59 1222.5,-276 1233.96,-261.26 1232.42,-249.81 1222.5,-234 1215.04,-222.11 1187.02,-208.42 1160.38,-197.55"/>
<polygon fill="midnightblue" stroke="midnightblue" points="745.36,-395.05 735.72,-399.46 746,-402.02 745.36,-395.05"/>
</g>
<!-- Node5&#45;&gt;Node4 -->
<g id="edge6" class="edge">
<title>Node5&#45;&gt;Node4</title>
<path fill="none" stroke="midnightblue" d="M612.74,-308.2C594.17,-299.44 574.21,-288.55 557.5,-276 537.37,-260.88 542.02,-245.25 519.5,-234 440.64,-194.62 211.05,-214.69 124.5,-198 121.4,-197.4 118.24,-196.72 115.06,-195.98"/>
<polygon fill="midnightblue" stroke="midnightblue" points="611.46,-311.46 622.01,-312.45 614.38,-305.1 611.46,-311.46"/>
</g>
<!-- Node6 -->
<g id="node6" class="node">
<title>Node6</title>
<g id="a_node6"><a xlink:href="../../dd/d1e/omnibox__controller_8cc.html" target="_top" xlink:title=" ">
<polygon fill="white" stroke="black" points="133.5,-162 133.5,-192 285.5,-192 285.5,-162 133.5,-162"/>
<text text-anchor="start" x="141.5" y="-180" font-family="Helvetica,sans-Serif" font-size="10.00">components/omnibox</text>
<text text-anchor="middle" x="209.5" y="-169" font-family="Helvetica,sans-Serif" font-size="10.00">/browser/omnibox_controller.cc</text>
</a>
</g>
</g>
<!-- Node5&#45;&gt;Node6 -->
<g id="edge5" class="edge">
<title>Node5&#45;&gt;Node6</title>
<path fill="none" stroke="midnightblue" d="M638.43,-306.18C626.55,-296.9 613.25,-286.2 601.5,-276 581.09,-258.28 581.86,-245.72 557.5,-234 449.99,-182.29 408.72,-220.16 291.5,-198 282.43,-196.28 272.86,-194.2 263.58,-192.04"/>
<polygon fill="midnightblue" stroke="midnightblue" points="636.35,-308.99 646.39,-312.35 640.63,-303.46 636.35,-308.99"/>
</g>
<!-- Node7 -->
<g id="node7" class="node">
<title>Node7</title>
<g id="a_node7"><a xlink:href="../../d2/d1a/omnibox__popup__model_8h.html" target="_top" xlink:title=" ">
<polygon fill="white" stroke="black" points="610,-234.5 610,-275.5 735,-275.5 735,-234.5 610,-234.5"/>
<text text-anchor="start" x="618" y="-263.5" font-family="Helvetica,sans-Serif" font-size="10.00">components/omnibox</text>
<text text-anchor="start" x="618" y="-252.5" font-family="Helvetica,sans-Serif" font-size="10.00">/browser/omnibox_popup</text>
<text text-anchor="middle" x="672.5" y="-241.5" font-family="Helvetica,sans-Serif" font-size="10.00">_model.h</text>
</a>
</g>
</g>
<!-- Node5&#45;&gt;Node7 -->
<g id="edge7" class="edge">
<title>Node5&#45;&gt;Node7</title>
<path fill="none" stroke="midnightblue" d="M672.5,-302.3C672.5,-293.3 672.5,-283.65 672.5,-275.51"/>
<polygon fill="midnightblue" stroke="midnightblue" points="669,-302.43 672.5,-312.43 676,-302.43 669,-302.43"/>
</g>
<!-- Node14 -->
<g id="node14" class="node">
<title>Node14</title>
<g id="a_node14"><a xlink:href="../../de/d2f/omnibox__suggestion__button__row__view_8cc.html" target="_top" xlink:title=" ">
<polygon fill="white" stroke="black" points="1177,-78.5 1177,-119.5 1326,-119.5 1326,-78.5 1177,-78.5"/>
<text text-anchor="start" x="1185" y="-107.5" font-family="Helvetica,sans-Serif" font-size="10.00">chrome/browser/ui/views</text>
<text text-anchor="start" x="1185" y="-96.5" font-family="Helvetica,sans-Serif" font-size="10.00">/omnibox/omnibox_suggestion</text>
<text text-anchor="middle" x="1251.5" y="-85.5" font-family="Helvetica,sans-Serif" font-size="10.00">_button_row_view.cc</text>
</a>
</g>
</g>
<!-- Node5&#45;&gt;Node14 -->
<g id="edge34" class="edge">
<title>Node5&#45;&gt;Node14</title>
<path fill="none" stroke="midnightblue" d="M740.18,-310.86C803.69,-294.67 1037.91,-240.65 1073.5,-234 1128.89,-223.66 1287.59,-240.58 1324.5,-198 1336.73,-183.89 1332.76,-172.74 1324.5,-156 1317.01,-140.82 1303.21,-128.6 1289.6,-119.51"/>
<polygon fill="midnightblue" stroke="midnightblue" points="738.91,-307.58 730.12,-313.5 740.68,-314.35 738.91,-307.58"/>
</g>
<!-- Node15 -->
<g id="node15" class="node">
<title>Node15</title>
<g id="a_node15"><a xlink:href="../../d8/d7a/omnibox__view__views_8cc.html" target="_top" xlink:title=" ">
<polygon fill="white" stroke="black" points="887,-78.5 887,-119.5 1012,-119.5 1012,-78.5 887,-78.5"/>
<text text-anchor="start" x="895" y="-107.5" font-family="Helvetica,sans-Serif" font-size="10.00">chrome/browser/ui/views</text>
<text text-anchor="start" x="895" y="-96.5" font-family="Helvetica,sans-Serif" font-size="10.00">/omnibox/omnibox_view</text>
<text text-anchor="middle" x="949.5" y="-85.5" font-family="Helvetica,sans-Serif" font-size="10.00">_views.cc</text>
</a>
</g>
</g>
<!-- Node5&#45;&gt;Node15 -->
<g id="edge35" class="edge">
<title>Node5&#45;&gt;Node15</title>
<path fill="none" stroke="midnightblue" d="M734.7,-308.86C819.71,-276.61 963.34,-219.68 977.5,-198 993.27,-173.85 977.61,-140.72 964.14,-119.84"/>
<polygon fill="midnightblue" stroke="midnightblue" points="733.26,-305.66 725.14,-312.47 735.74,-312.21 733.26,-305.66"/>
</g>
<!-- Node5&#45;&gt;Node21 -->
<g id="edge33" class="edge">
<title>Node5&#45;&gt;Node21</title>
<path fill="none" stroke="midnightblue" d="M740.04,-312.9C741.54,-312.58 743.03,-312.28 744.5,-312 886.32,-284.58 925.34,-301.57 1067.5,-276 1076.66,-274.35 1086.32,-272.25 1095.65,-270.04"/>
<polygon fill="midnightblue" stroke="midnightblue" points="739.07,-309.53 730.08,-315.13 740.6,-316.36 739.07,-309.53"/>
</g>
<!-- Node7&#45;&gt;Node4 -->
<g id="edge10" class="edge">
<title>Node7&#45;&gt;Node4</title>
<path fill="none" stroke="midnightblue" d="M599.89,-240.36C585.86,-238.01 571.25,-235.76 557.5,-234 365.96,-209.43 314.26,-233.81 124.5,-198 121.4,-197.41 118.24,-196.74 115.06,-196.01"/>
<polygon fill="midnightblue" stroke="midnightblue" points="599.54,-243.85 609.98,-242.08 600.72,-236.95 599.54,-243.85"/>
</g>
<!-- Node7&#45;&gt;Node6 -->
<g id="edge9" class="edge">
<title>Node7&#45;&gt;Node6</title>
<path fill="none" stroke="midnightblue" d="M599.42,-234.77C598.11,-234.5 596.8,-234.25 595.5,-234 465.3,-209.29 430.12,-220.4 299.5,-198 289.56,-196.3 279.06,-194.22 268.88,-192.06"/>
<polygon fill="midnightblue" stroke="midnightblue" points="599.11,-238.28 609.62,-236.94 600.57,-231.43 599.11,-238.28"/>
</g>
<!-- Node8 -->
<g id="node8" class="node">
<title>Node8</title>
<g id="a_node8"><a xlink:href="../../df/d95/autocomplete__match__type_8cc.html" target="_top" xlink:title=" ">
<polygon fill="white" stroke="black" points="689.5,-156.5 689.5,-197.5 805.5,-197.5 805.5,-156.5 689.5,-156.5"/>
<text text-anchor="start" x="697.5" y="-185.5" font-family="Helvetica,sans-Serif" font-size="10.00">components/omnibox</text>
<text text-anchor="start" x="697.5" y="-174.5" font-family="Helvetica,sans-Serif" font-size="10.00">/browser/autocomplete</text>
<text text-anchor="middle" x="747.5" y="-163.5" font-family="Helvetica,sans-Serif" font-size="10.00">_match_type.cc</text>
</a>
</g>
</g>
<!-- Node7&#45;&gt;Node8 -->
<g id="edge8" class="edge">
<title>Node7&#45;&gt;Node8</title>
<path fill="none" stroke="midnightblue" d="M698.94,-227.2C708.6,-217.42 719.34,-206.54 728.25,-197.51"/>
<polygon fill="midnightblue" stroke="midnightblue" points="696.35,-224.85 691.81,-234.43 701.33,-229.77 696.35,-224.85"/>
</g>
<!-- Node9 -->
<g id="node9" class="node">
<title>Node9</title>
<g id="a_node9"><a xlink:href="../../d3/de0/omnibox__popup__model_8cc.html" target="_top" xlink:title=" ">
<polygon fill="white" stroke="black" points="824,-156.5 824,-197.5 949,-197.5 949,-156.5 824,-156.5"/>
<text text-anchor="start" x="832" y="-185.5" font-family="Helvetica,sans-Serif" font-size="10.00">components/omnibox</text>
<text text-anchor="start" x="832" y="-174.5" font-family="Helvetica,sans-Serif" font-size="10.00">/browser/omnibox_popup</text>
<text text-anchor="middle" x="886.5" y="-163.5" font-family="Helvetica,sans-Serif" font-size="10.00">_model.cc</text>
</a>
</g>
</g>
<!-- Node7&#45;&gt;Node9 -->
<g id="edge11" class="edge">
<title>Node7&#45;&gt;Node9</title>
<path fill="none" stroke="midnightblue" d="M737.19,-231.03C767.31,-220.33 802.77,-207.73 831.58,-197.51"/>
<polygon fill="midnightblue" stroke="midnightblue" points="735.86,-227.78 727.61,-234.43 738.21,-234.38 735.86,-227.78"/>
</g>
<!-- Node10 -->
<g id="node10" class="node">
<title>Node10</title>
<g id="a_node10"><a xlink:href="../../d4/d25/omnibox__popup__contents__view_8h.html" target="_top" xlink:title=" ">
<polygon fill="white" stroke="black" points="1187.5,-156.5 1187.5,-197.5 1315.5,-197.5 1315.5,-156.5 1187.5,-156.5"/>
<text text-anchor="start" x="1195.5" y="-185.5" font-family="Helvetica,sans-Serif" font-size="10.00">chrome/browser/ui/views</text>
<text text-anchor="start" x="1195.5" y="-174.5" font-family="Helvetica,sans-Serif" font-size="10.00">/omnibox/omnibox_popup</text>
<text text-anchor="middle" x="1251.5" y="-163.5" font-family="Helvetica,sans-Serif" font-size="10.00">_contents_view.h</text>
</a>
</g>
</g>
<!-- Node7&#45;&gt;Node10 -->
<g id="edge12" class="edge">
<title>Node7&#45;&gt;Node10</title>
<path fill="none" stroke="midnightblue" d="M745.47,-249.54C844.3,-242.68 1025.9,-227.16 1178.5,-198 1181.34,-197.46 1184.23,-196.86 1187.14,-196.22"/>
<polygon fill="midnightblue" stroke="midnightblue" points="745.03,-246.06 735.29,-250.24 745.51,-253.05 745.03,-246.06"/>
</g>
<!-- Node13 -->
<g id="node13" class="node">
<title>Node13</title>
<g id="a_node13"><a xlink:href="../../d3/d3f/omnibox__result__view_8cc.html" target="_top" xlink:title=" ">
<polygon fill="white" stroke="black" points="516,-0.5 516,-41.5 641,-41.5 641,-0.5 516,-0.5"/>
<text text-anchor="start" x="524" y="-29.5" font-family="Helvetica,sans-Serif" font-size="10.00">chrome/browser/ui/views</text>
<text text-anchor="start" x="524" y="-18.5" font-family="Helvetica,sans-Serif" font-size="10.00">/omnibox/omnibox_result</text>
<text text-anchor="middle" x="578.5" y="-7.5" font-family="Helvetica,sans-Serif" font-size="10.00">_view.cc</text>
</a>
</g>
</g>
<!-- Node7&#45;&gt;Node13 -->
<g id="edge18" class="edge">
<title>Node7&#45;&gt;Node13</title>
<path fill="none" stroke="midnightblue" d="M599.67,-232.55C560.48,-220.28 519.03,-205.82 513.5,-198 502.71,-182.77 507.76,-173.76 513.5,-156 519.57,-137.22 530,-137.3 539.5,-120 553.69,-94.16 565.46,-62.06 572.24,-41.79"/>
<polygon fill="midnightblue" stroke="midnightblue" points="598.97,-236 609.56,-235.62 601.05,-229.32 598.97,-236"/>
</g>
<!-- Node7&#45;&gt;Node15 -->
<g id="edge32" class="edge">
<title>Node7&#45;&gt;Node15</title>
<path fill="none" stroke="midnightblue" d="M745.51,-249.99C821.16,-244.13 932.01,-230.18 958.5,-198 976.53,-176.1 967.39,-141.4 958.74,-119.7"/>
<polygon fill="midnightblue" stroke="midnightblue" points="744.79,-246.54 735.08,-250.77 745.31,-253.52 744.79,-246.54"/>
</g>
<!-- Node16 -->
<g id="node16" class="node">
<title>Node16</title>
<g id="a_node16"><a xlink:href="../../dd/d82/omnibox__result__view_8h.html" target="_top" xlink:title=" ">
<polygon fill="white" stroke="black" points="342,-156.5 342,-197.5 467,-197.5 467,-156.5 342,-156.5"/>
<text text-anchor="start" x="350" y="-185.5" font-family="Helvetica,sans-Serif" font-size="10.00">chrome/browser/ui/views</text>
<text text-anchor="start" x="350" y="-174.5" font-family="Helvetica,sans-Serif" font-size="10.00">/omnibox/omnibox_result</text>
<text text-anchor="middle" x="404.5" y="-163.5" font-family="Helvetica,sans-Serif" font-size="10.00">_view.h</text>
</a>
</g>
</g>
<!-- Node7&#45;&gt;Node16 -->
<g id="edge19" class="edge">
<title>Node7&#45;&gt;Node16</title>
<path fill="none" stroke="midnightblue" d="M599.91,-233.41C558.49,-221.67 507.09,-207.09 467.4,-195.84"/>
<polygon fill="midnightblue" stroke="midnightblue" points="599.09,-236.82 609.67,-236.18 601,-230.09 599.09,-236.82"/>
</g>
<!-- Node17 -->
<g id="node17" class="node">
<title>Node17</title>
<g id="a_node17"><a xlink:href="../../dc/dce/omnibox__row__view_8cc.html" target="_top" xlink:title=" ">
<polygon fill="white" stroke="black" points="194,-84 194,-114 349,-114 349,-84 194,-84"/>
<text text-anchor="start" x="202" y="-102" font-family="Helvetica,sans-Serif" font-size="10.00">chrome/browser/ui/views</text>
<text text-anchor="middle" x="271.5" y="-91" font-family="Helvetica,sans-Serif" font-size="10.00">/omnibox/omnibox_row_view.cc</text>
</a>
</g>
</g>
<!-- Node7&#45;&gt;Node17 -->
<g id="edge28" class="edge">
<title>Node7&#45;&gt;Node17</title>
<path fill="none" stroke="midnightblue" d="M599.42,-234.79C598.1,-234.52 596.8,-234.26 595.5,-234 479.76,-211.13 431.5,-262.16 332.5,-198 301.56,-177.95 283.58,-136.09 275.92,-114.14"/>
<polygon fill="midnightblue" stroke="midnightblue" points="599.09,-238.3 609.61,-237.02 600.58,-231.47 599.09,-238.3"/>
</g>
<!-- Node20 -->
<g id="node20" class="node">
<title>Node20</title>
<g id="a_node20"><a xlink:href="../../d6/de9/omnibox__suggestion__button__row__view_8h.html" target="_top" xlink:title=" ">
<polygon fill="white" stroke="black" points="523,-156.5 523,-197.5 672,-197.5 672,-156.5 523,-156.5"/>
<text text-anchor="start" x="531" y="-185.5" font-family="Helvetica,sans-Serif" font-size="10.00">chrome/browser/ui/views</text>
<text text-anchor="start" x="531" y="-174.5" font-family="Helvetica,sans-Serif" font-size="10.00">/omnibox/omnibox_suggestion</text>
<text text-anchor="middle" x="597.5" y="-163.5" font-family="Helvetica,sans-Serif" font-size="10.00">_button_row_view.h</text>
</a>
</g>
</g>
<!-- Node7&#45;&gt;Node20 -->
<g id="edge29" class="edge">
<title>Node7&#45;&gt;Node20</title>
<path fill="none" stroke="midnightblue" d="M646.06,-227.2C636.4,-217.42 625.66,-206.54 616.75,-197.51"/>
<polygon fill="midnightblue" stroke="midnightblue" points="643.67,-229.77 653.19,-234.43 648.65,-224.85 643.67,-229.77"/>
</g>
<!-- Node11 -->
<g id="node11" class="node">
<title>Node11</title>
<g id="a_node11"><a xlink:href="../../d8/df8/omnibox__match__cell__view_8cc.html" target="_top" xlink:title=" ">
<polygon fill="white" stroke="black" points="1002.5,-0.5 1002.5,-41.5 1130.5,-41.5 1130.5,-0.5 1002.5,-0.5"/>
<text text-anchor="start" x="1010.5" y="-29.5" font-family="Helvetica,sans-Serif" font-size="10.00">chrome/browser/ui/views</text>
<text text-anchor="start" x="1010.5" y="-18.5" font-family="Helvetica,sans-Serif" font-size="10.00">/omnibox/omnibox_match</text>
<text text-anchor="middle" x="1066.5" y="-7.5" font-family="Helvetica,sans-Serif" font-size="10.00">_cell_view.cc</text>
</a>
</g>
</g>
<!-- Node10&#45;&gt;Node11 -->
<g id="edge13" class="edge">
<title>Node10&#45;&gt;Node11</title>
<path fill="none" stroke="midnightblue" d="M1324.99,-155.54C1341.77,-147.28 1357.57,-135.82 1367.5,-120 1377.42,-104.19 1379.43,-92.36 1367.5,-78 1337.98,-42.49 1209.88,-29.38 1130.61,-24.63"/>
<polygon fill="midnightblue" stroke="midnightblue" points="1323.25,-152.48 1315.59,-159.81 1326.15,-158.86 1323.25,-152.48"/>
</g>
<!-- Node12 -->
<g id="node12" class="node">
<title>Node12</title>
<g id="a_node12"><a xlink:href="../../d8/d69/omnibox__popup__contents__view_8cc.html" target="_top" xlink:title=" ">
<polygon fill="white" stroke="black" points="1030.5,-78.5 1030.5,-119.5 1158.5,-119.5 1158.5,-78.5 1030.5,-78.5"/>
<text text-anchor="start" x="1038.5" y="-107.5" font-family="Helvetica,sans-Serif" font-size="10.00">chrome/browser/ui/views</text>
<text text-anchor="start" x="1038.5" y="-96.5" font-family="Helvetica,sans-Serif" font-size="10.00">/omnibox/omnibox_popup</text>
<text text-anchor="middle" x="1094.5" y="-85.5" font-family="Helvetica,sans-Serif" font-size="10.00">_contents_view.cc</text>
</a>
</g>
</g>
<!-- Node10&#45;&gt;Node12 -->
<g id="edge14" class="edge">
<title>Node10&#45;&gt;Node12</title>
<path fill="none" stroke="midnightblue" d="M1202.02,-152.05C1180.37,-141.57 1155.28,-129.42 1134.79,-119.51"/>
<polygon fill="midnightblue" stroke="midnightblue" points="1200.54,-155.22 1211.07,-156.43 1203.59,-148.92 1200.54,-155.22"/>
</g>
<!-- Node10&#45;&gt;Node13 -->
<g id="edge15" class="edge">
<title>Node10&#45;&gt;Node13</title>
<path fill="none" stroke="midnightblue" d="M1306.08,-150.9C1317.86,-142.79 1328.78,-132.56 1335.5,-120 1344.31,-103.54 1348.2,-91.68 1335.5,-78 1323.72,-65.31 820.68,-35.69 641.26,-25.51"/>
<polygon fill="midnightblue" stroke="midnightblue" points="1303.95,-148.11 1297.41,-156.44 1307.72,-154.01 1303.95,-148.11"/>
</g>
<!-- Node10&#45;&gt;Node14 -->
<g id="edge16" class="edge">
<title>Node10&#45;&gt;Node14</title>
<path fill="none" stroke="midnightblue" d="M1251.5,-146.3C1251.5,-137.3 1251.5,-127.65 1251.5,-119.51"/>
<polygon fill="midnightblue" stroke="midnightblue" points="1248,-146.43 1251.5,-156.43 1255,-146.43 1248,-146.43"/>
</g>
<!-- Node10&#45;&gt;Node15 -->
<g id="edge17" class="edge">
<title>Node10&#45;&gt;Node15</title>
<path fill="none" stroke="midnightblue" d="M1177.67,-155.84C1107.42,-138.43 1087.91,-136.83 1021.5,-120 1018.48,-119.24 1015.4,-118.44 1012.28,-117.62"/>
<polygon fill="midnightblue" stroke="midnightblue" points="1176.9,-159.26 1187.45,-158.29 1178.59,-152.47 1176.9,-159.26"/>
</g>
<!-- Node16&#45;&gt;Node12 -->
<g id="edge20" class="edge">
<title>Node16&#45;&gt;Node12</title>
<path fill="none" stroke="midnightblue" d="M477.19,-161.51C489.28,-159.43 501.72,-157.49 513.5,-156 738.05,-127.53 798.38,-158.09 1021.5,-120 1024.35,-119.51 1027.25,-118.96 1030.17,-118.36"/>
<polygon fill="midnightblue" stroke="midnightblue" points="476.38,-158.1 467.14,-163.28 477.6,-164.99 476.38,-158.1"/>
</g>
<!-- Node16&#45;&gt;Node13 -->
<g id="edge21" class="edge">
<title>Node16&#45;&gt;Node13</title>
<path fill="none" stroke="midnightblue" d="M392.56,-146.52C386.12,-125.44 382.12,-97.47 396.5,-78 400.26,-72.91 464.74,-53.84 515.9,-39.36"/>
<polygon fill="midnightblue" stroke="midnightblue" points="389.33,-147.89 395.84,-156.24 395.96,-145.65 389.33,-147.89"/>
</g>
<!-- Node16&#45;&gt;Node15 -->
<g id="edge27" class="edge">
<title>Node16&#45;&gt;Node15</title>
<path fill="none" stroke="midnightblue" d="M477.28,-162.09C489.36,-159.94 501.77,-157.83 513.5,-156 646.03,-135.35 802.08,-116.66 886.9,-106.97"/>
<polygon fill="midnightblue" stroke="midnightblue" points="476.45,-158.68 467.23,-163.89 477.69,-165.57 476.45,-158.68"/>
</g>
<!-- Node16&#45;&gt;Node17 -->
<g id="edge22" class="edge">
<title>Node16&#45;&gt;Node17</title>
<path fill="none" stroke="midnightblue" d="M361.3,-151.31C339.82,-139.04 314.62,-124.64 296.39,-114.23"/>
<polygon fill="midnightblue" stroke="midnightblue" points="359.83,-154.51 370.25,-156.43 363.3,-148.43 359.83,-154.51"/>
</g>
<!-- Node18 -->
<g id="node18" class="node">
<title>Node18</title>
<g id="a_node18"><a xlink:href="../../db/d83/omnibox__text__view_8h.html" target="_top" xlink:title=" ">
<polygon fill="white" stroke="black" points="406,-78.5 406,-119.5 531,-119.5 531,-78.5 406,-78.5"/>
<text text-anchor="start" x="414" y="-107.5" font-family="Helvetica,sans-Serif" font-size="10.00">chrome/browser/ui/views</text>
<text text-anchor="start" x="414" y="-96.5" font-family="Helvetica,sans-Serif" font-size="10.00">/omnibox/omnibox_text</text>
<text text-anchor="middle" x="468.5" y="-85.5" font-family="Helvetica,sans-Serif" font-size="10.00">_view.h</text>
</a>
</g>
</g>
<!-- Node16&#45;&gt;Node18 -->
<g id="edge23" class="edge">
<title>Node16&#45;&gt;Node18</title>
<path fill="none" stroke="midnightblue" d="M427.55,-148.63C435.67,-138.99 444.62,-128.36 452.07,-119.51"/>
<polygon fill="midnightblue" stroke="midnightblue" points="424.75,-146.52 420.98,-156.43 430.1,-151.03 424.75,-146.52"/>
</g>
<!-- Node18&#45;&gt;Node11 -->
<g id="edge24" class="edge">
<title>Node18&#45;&gt;Node11</title>
<path fill="none" stroke="midnightblue" d="M541.09,-88.77C658.91,-73.8 889.87,-44.45 1002.15,-30.18"/>
<polygon fill="midnightblue" stroke="midnightblue" points="540.56,-85.31 531.08,-90.05 541.45,-92.26 540.56,-85.31"/>
</g>
<!-- Node18&#45;&gt;Node13 -->
<g id="edge25" class="edge">
<title>Node18&#45;&gt;Node13</title>
<path fill="none" stroke="midnightblue" d="M505.21,-72.64C519.9,-62.49 536.55,-50.98 550.27,-41.51"/>
<polygon fill="midnightblue" stroke="midnightblue" points="503.07,-69.86 496.83,-78.43 507.04,-75.62 503.07,-69.86"/>
</g>
<!-- Node19 -->
<g id="node19" class="node">
<title>Node19</title>
<g id="a_node19"><a xlink:href="../../d7/d7d/omnibox__text__view_8cc.html" target="_top" xlink:title=" ">
<polygon fill="white" stroke="black" points="373,-0.5 373,-41.5 498,-41.5 498,-0.5 373,-0.5"/>
<text text-anchor="start" x="381" y="-29.5" font-family="Helvetica,sans-Serif" font-size="10.00">chrome/browser/ui/views</text>
<text text-anchor="start" x="381" y="-18.5" font-family="Helvetica,sans-Serif" font-size="10.00">/omnibox/omnibox_text</text>
<text text-anchor="middle" x="435.5" y="-7.5" font-family="Helvetica,sans-Serif" font-size="10.00">_view.cc</text>
</a>
</g>
</g>
<!-- Node18&#45;&gt;Node19 -->
<g id="edge26" class="edge">
<title>Node18&#45;&gt;Node19</title>
<path fill="none" stroke="midnightblue" d="M455.98,-69.17C451.97,-59.93 447.62,-49.92 443.97,-41.51"/>
<polygon fill="midnightblue" stroke="midnightblue" points="452.81,-70.65 460,-78.43 459.23,-67.86 452.81,-70.65"/>
</g>
<!-- Node20&#45;&gt;Node13 -->
<g id="edge30" class="edge">
<title>Node20&#45;&gt;Node13</title>
<path fill="none" stroke="midnightblue" d="M593.84,-146.36C590.05,-115.61 584.22,-68.36 580.95,-41.83"/>
<polygon fill="midnightblue" stroke="midnightblue" points="590.4,-147 595.09,-156.5 597.34,-146.14 590.4,-147"/>
</g>
<!-- Node20&#45;&gt;Node14 -->
<g id="edge31" class="edge">
<title>Node20&#45;&gt;Node14</title>
<path fill="none" stroke="midnightblue" d="M682.05,-155.89C896.72,-123.38 956.27,-152.74 1167.5,-120 1170.61,-119.52 1173.78,-118.98 1176.97,-118.4"/>
<polygon fill="midnightblue" stroke="midnightblue" points="681.39,-152.45 672.04,-157.43 682.46,-159.37 681.39,-152.45"/>
</g>
<!-- Node23&#45;&gt;Node12 -->
<g id="edge39" class="edge">
<title>Node23&#45;&gt;Node12</title>
<path fill="none" stroke="midnightblue" d="M1101.81,-146.3C1100.39,-137.3 1098.87,-127.65 1097.58,-119.51"/>
<polygon fill="midnightblue" stroke="midnightblue" points="1098.39,-147.1 1103.41,-156.43 1105.31,-146 1098.39,-147.1"/>
</g>
<!-- Node23&#45;&gt;Node15 -->
<g id="edge40" class="edge">
<title>Node23&#45;&gt;Node15</title>
<path fill="none" stroke="midnightblue" d="M1057.02,-152.05C1035.37,-141.57 1010.28,-129.42 989.79,-119.51"/>
<polygon fill="midnightblue" stroke="midnightblue" points="1055.54,-155.22 1066.07,-156.43 1058.59,-148.92 1055.54,-155.22"/>
</g>
</g>
</svg>
