<?xml version="1.0" encoding="UTF-8" standalone="no"?>
<!DOCTYPE svg PUBLIC "-//W3C//DTD SVG 1.1//EN"
 "http://www.w3.org/Graphics/SVG/1.1/DTD/svg11.dtd">
<!-- Generated by graphviz version 2.43.0 (0)
 -->
<!-- Title: chrome/browser/ui/views Pages: 1 -->
<svg width="182pt" height="231pt"
 viewBox="0.00 0.00 182.00 231.00" xmlns="http://www.w3.org/2000/svg" xmlns:xlink="http://www.w3.org/1999/xlink">
<g id="graph0" class="graph" transform="scale(1 1) rotate(0) translate(4 227)">
<title>chrome/browser/ui/views</title>
<polygon fill="white" stroke="transparent" points="-4,4 -4,-227 178,-227 178,4 -4,4"/>
<g id="clust1" class="cluster">
<title>clusterdir_59563482afd861b8737d15ac64606e95</title>
<g id="a_clust1"><a xlink:href="dir_59563482afd861b8737d15ac64606e95.html" target="_top" xlink:title="ui">
<polygon fill="#ddddee" stroke="black" points="8,-64 8,-215 166,-215 166,-64 8,-64"/>
<text text-anchor="middle" x="87" y="-203" font-family="Helvetica,sans-Serif" font-size="10.00">ui</text>
</a>
</g>
</g>
<g id="clust2" class="cluster">
<title>clusterdir_1ef1ecc22401ff7c4d826dfca3ecf86e</title>
<g id="a_clust2"><a xlink:href="dir_1ef1ecc22401ff7c4d826dfca3ecf86e.html" target="_top">
<polygon fill="#eeeeff" stroke="black" points="16,-136 16,-188 158,-188 158,-136 16,-136"/>
</a>
</g>
</g>
<!-- dir_718d7c98817b8b8bf4c17e63a802ab62 -->
<g id="node1" class="node">
<title>dir_718d7c98817b8b8bf4c17e63a802ab62</title>
<g id="a_node1"><a xlink:href="dir_718d7c98817b8b8bf4c17e63a802ab62.html" target="_top" xlink:title="omnibox">
<polygon fill="none" stroke="black" points="74,-108 20,-108 20,-72 74,-72 74,-108"/>
<text text-anchor="middle" x="47" y="-87.5" font-family="Helvetica,sans-Serif" font-size="10.00">omnibox</text>
</a>
</g>
</g>
<!-- dir_409f97388efe006bc3438b95e9edef48 -->
<g id="node4" class="node">
<title>dir_409f97388efe006bc3438b95e9edef48</title>
<g id="a_node4"><a xlink:href="dir_409f97388efe006bc3438b95e9edef48.html" target="_top" xlink:title="components">
<polygon fill="white" stroke="red" points="109,-36 39,-36 39,0 109,0 109,-36"/>
<text text-anchor="middle" x="74" y="-15.5" font-family="Helvetica,sans-Serif" font-size="10.00">components</text>
</a>
</g>
</g>
<!-- dir_718d7c98817b8b8bf4c17e63a802ab62&#45;&gt;dir_409f97388efe006bc3438b95e9edef48 -->
<g id="edge1" class="edge">
<title>dir_718d7c98817b8b8bf4c17e63a802ab62&#45;&gt;dir_409f97388efe006bc3438b95e9edef48</title>
<path fill="none" stroke="black" d="M53.67,-71.7C56.71,-63.81 60.38,-54.3 63.76,-45.55"/>
<polygon fill="black" stroke="black" points="67.07,-46.69 67.4,-36.1 60.54,-44.17 67.07,-46.69"/>
<g id="a_edge1&#45;headlabel"><a xlink:href="dir_000003_000006.html" target="_top" xlink:title="19">
<text text-anchor="middle" x="68.42" y="-48.57" font-family="Helvetica,sans-Serif" font-size="10.00">19</text>
</a>
</g>
</g>
<!-- dir_1ef1ecc22401ff7c4d826dfca3ecf86e -->
<g id="node2" class="node">
<title>dir_1ef1ecc22401ff7c4d826dfca3ecf86e</title>
<text text-anchor="middle" x="123" y="-159.5" font-family="Helvetica,sans-Serif" font-size="10.00">views</text>
</g>
<!-- dir_7038ab18d9c3b257082aac06dd691615 -->
<g id="node3" class="node">
<title>dir_7038ab18d9c3b257082aac06dd691615</title>
<g id="a_node3"><a xlink:href="dir_7038ab18d9c3b257082aac06dd691615.html" target="_top" xlink:title="omnibox">
<polygon fill="white" stroke="black" points="78,-180 24,-180 24,-144 78,-144 78,-180"/>
<text text-anchor="middle" x="51" y="-159.5" font-family="Helvetica,sans-Serif" font-size="10.00">omnibox</text>
</a>
</g>
</g>
<!-- dir_7038ab18d9c3b257082aac06dd691615&#45;&gt;dir_718d7c98817b8b8bf4c17e63a802ab62 -->
<g id="edge3" class="edge">
<title>dir_7038ab18d9c3b257082aac06dd691615&#45;&gt;dir_718d7c98817b8b8bf4c17e63a802ab62</title>
<path fill="none" stroke="black" d="M50.01,-143.7C49.57,-135.98 49.04,-126.71 48.55,-118.11"/>
<polygon fill="black" stroke="black" points="52.04,-117.89 47.98,-108.1 45.05,-118.29 52.04,-117.89"/>
<g id="a_edge3&#45;headlabel"><a xlink:href="dir_000005_000003.html" target="_top" xlink:title="8">
<text text-anchor="middle" x="55.08" y="-118.82" font-family="Helvetica,sans-Serif" font-size="10.00">8</text>
</a>
</g>
</g>
<!-- dir_7038ab18d9c3b257082aac06dd691615&#45;&gt;dir_409f97388efe006bc3438b95e9edef48 -->
<g id="edge2" class="edge">
<title>dir_7038ab18d9c3b257082aac06dd691615&#45;&gt;dir_409f97388efe006bc3438b95e9edef48</title>
<path fill="none" stroke="black" d="M67.04,-143.85C75.01,-134.12 83.83,-121.27 88,-108 94.42,-87.57 89.97,-63.54 84.44,-45.6"/>
<polygon fill="black" stroke="black" points="87.74,-44.43 81.23,-36.07 81.11,-46.67 87.74,-44.43"/>
<g id="a_edge2&#45;headlabel"><a xlink:href="dir_000005_000006.html" target="_top" xlink:title="34">
<text text-anchor="middle" x="91.58" y="-44.43" font-family="Helvetica,sans-Serif" font-size="10.00">34</text>
</a>
</g>
</g>
</g>
</svg>
