<?xml version="1.0" encoding="UTF-8" standalone="no"?>
<!DOCTYPE svg PUBLIC "-//W3C//DTD SVG 1.1//EN"
 "http://www.w3.org/Graphics/SVG/1.1/DTD/svg11.dtd">
<!-- Generated by graphviz version 2.43.0 (0)
 -->
<!-- Title: chrome Pages: 1 -->
<svg width="166pt" height="132pt"
 viewBox="0.00 0.00 166.00 132.00" xmlns="http://www.w3.org/2000/svg" xmlns:xlink="http://www.w3.org/1999/xlink">
<g id="graph0" class="graph" transform="scale(1 1) rotate(0) translate(4 128)">
<title>chrome</title>
<polygon fill="white" stroke="transparent" points="-4,4 -4,-128 162,-128 162,4 -4,4"/>
<g id="clust1" class="cluster">
<title>clusterdir_d4fb44c01774bf5796fe3a56c335b940</title>
<g id="a_clust1"><a xlink:href="dir_d4fb44c01774bf5796fe3a56c335b940.html" target="_top">
<polygon fill="#eeeeff" stroke="black" points="8,-64 8,-116 150,-116 150,-64 8,-64"/>
</a>
</g>
</g>
<!-- dir_d4fb44c01774bf5796fe3a56c335b940 -->
<g id="node1" class="node">
<title>dir_d4fb44c01774bf5796fe3a56c335b940</title>
<text text-anchor="middle" x="115" y="-87.5" font-family="Helvetica,sans-Serif" font-size="10.00">chrome</text>
</g>
<!-- dir_57846e69b15567d0ed91ccd70daee9bf -->
<g id="node2" class="node">
<title>dir_57846e69b15567d0ed91ccd70daee9bf</title>
<g id="a_node2"><a xlink:href="dir_57846e69b15567d0ed91ccd70daee9bf.html" target="_top" xlink:title="browser">
<polygon fill="white" stroke="red" points="70,-108 16,-108 16,-72 70,-72 70,-108"/>
<text text-anchor="middle" x="43" y="-87.5" font-family="Helvetica,sans-Serif" font-size="10.00">browser</text>
</a>
</g>
</g>
<!-- dir_409f97388efe006bc3438b95e9edef48 -->
<g id="node3" class="node">
<title>dir_409f97388efe006bc3438b95e9edef48</title>
<g id="a_node3"><a xlink:href="dir_409f97388efe006bc3438b95e9edef48.html" target="_top" xlink:title="components">
<polygon fill="white" stroke="red" points="78,-36 8,-36 8,0 78,0 78,-36"/>
<text text-anchor="middle" x="43" y="-15.5" font-family="Helvetica,sans-Serif" font-size="10.00">components</text>
</a>
</g>
</g>
<!-- dir_57846e69b15567d0ed91ccd70daee9bf&#45;&gt;dir_409f97388efe006bc3438b95e9edef48 -->
<g id="edge1" class="edge">
<title>dir_57846e69b15567d0ed91ccd70daee9bf&#45;&gt;dir_409f97388efe006bc3438b95e9edef48</title>
<path fill="none" stroke="black" d="M43,-71.7C43,-63.98 43,-54.71 43,-46.11"/>
<polygon fill="black" stroke="black" points="46.5,-46.1 43,-36.1 39.5,-46.1 46.5,-46.1"/>
<g id="a_edge1&#45;headlabel"><a xlink:href="dir_000001_000006.html" target="_top" xlink:title="50">
<text text-anchor="middle" x="49.34" y="-47.2" font-family="Helvetica,sans-Serif" font-size="10.00">50</text>
</a>
</g>
</g>
</g>
</svg>
