<?xml version="1.0" encoding="UTF-8" standalone="no"?>
<!DOCTYPE svg PUBLIC "-//W3C//DTD SVG 1.1//EN"
 "http://www.w3.org/Graphics/SVG/1.1/DTD/svg11.dtd">
<!-- Generated by graphviz version 2.43.0 (0)
 -->
<!-- Title: Graphical Class Hierarchy Pages: 1 -->
<svg width="906pt" height="1284pt"
 viewBox="0.00 0.00 906.00 1283.50" xmlns="http://www.w3.org/2000/svg" xmlns:xlink="http://www.w3.org/1999/xlink">
<g id="graph0" class="graph" transform="scale(1 1) rotate(0) translate(4 1279.5)">
<title>Graphical Class Hierarchy</title>
<polygon fill="white" stroke="transparent" points="-4,4 -4,-1279.5 902,-1279.5 902,4 -4,4"/>
<!-- Node90 -->
<g id="node1" class="node">
<title>Node90</title>
<g id="a_node1"><a xlink:title=" ">
<polygon fill="white" stroke="#bfbfbf" points="29,-480.5 29,-499.5 125,-499.5 125,-480.5 29,-480.5"/>
<text text-anchor="middle" x="77" y="-487.5" font-family="Helvetica,sans-Serif" font-size="10.00">base::RefCounted</text>
</a>
</g>
</g>
<!-- Node0 -->
<g id="node2" class="node">
<title>Node0</title>
<g id="a_node2"><a xlink:href="d3/da9/classChromeOmniboxNavigationObserver.html" target="_top" xlink:title=" ">
<polygon fill="white" stroke="black" points="190,-518.5 190,-537.5 366,-537.5 366,-518.5 190,-518.5"/>
<text text-anchor="middle" x="278" y="-525.5" font-family="Helvetica,sans-Serif" font-size="10.00">ChromeOmniboxNavigationObserver</text>
</a>
</g>
</g>
<!-- Node90&#45;&gt;Node0 -->
<g id="edge1" class="edge">
<title>Node90&#45;&gt;Node0</title>
<path fill="none" stroke="midnightblue" d="M135.16,-500.91C164.18,-506.46 199.12,-513.13 227.05,-518.46"/>
<polygon fill="midnightblue" stroke="midnightblue" points="135.64,-497.44 125.16,-499.01 134.33,-504.32 135.64,-497.44"/>
</g>
<!-- Node92 -->
<g id="node3" class="node">
<title>Node92</title>
<g id="a_node3"><a xlink:href="d9/d8f/classOmniboxAction.html" target="_top" xlink:title=" ">
<polygon fill="white" stroke="black" points="236.5,-480.5 236.5,-499.5 319.5,-499.5 319.5,-480.5 236.5,-480.5"/>
<text text-anchor="middle" x="278" y="-487.5" font-family="Helvetica,sans-Serif" font-size="10.00">OmniboxAction</text>
</a>
</g>
</g>
<!-- Node90&#45;&gt;Node92 -->
<g id="edge2" class="edge">
<title>Node90&#45;&gt;Node92</title>
<path fill="none" stroke="midnightblue" d="M135.36,-490C167.63,-490 207.15,-490 236.24,-490"/>
<polygon fill="midnightblue" stroke="midnightblue" points="135.16,-486.5 125.16,-490 135.16,-493.5 135.16,-486.5"/>
</g>
<!-- Node93 -->
<g id="node4" class="node">
<title>Node93</title>
<g id="a_node4"><a xlink:href="d4/de9/classOmniboxPedal.html" target="_top" xlink:title=" ">
<polygon fill="white" stroke="black" points="402,-480.5 402,-499.5 482,-499.5 482,-480.5 402,-480.5"/>
<text text-anchor="middle" x="442" y="-487.5" font-family="Helvetica,sans-Serif" font-size="10.00">OmniboxPedal</text>
</a>
</g>
</g>
<!-- Node92&#45;&gt;Node93 -->
<g id="edge3" class="edge">
<title>Node92&#45;&gt;Node93</title>
<path fill="none" stroke="midnightblue" d="M329.91,-490C353.13,-490 380.2,-490 401.81,-490"/>
<polygon fill="midnightblue" stroke="midnightblue" points="329.88,-486.5 319.88,-490 329.88,-493.5 329.88,-486.5"/>
</g>
<!-- Node94 -->
<g id="node5" class="node">
<title>Node94</title>
<g id="a_node5"><a xlink:href="d8/d15/classOmniboxPedalAuthRequired.html" target="_top" xlink:title=" ">
<polygon fill="white" stroke="black" points="538.5,-1026.5 538.5,-1045.5 678.5,-1045.5 678.5,-1026.5 538.5,-1026.5"/>
<text text-anchor="middle" x="608.5" y="-1033.5" font-family="Helvetica,sans-Serif" font-size="10.00">OmniboxPedalAuthRequired</text>
</a>
</g>
</g>
<!-- Node93&#45;&gt;Node94 -->
<g id="edge4" class="edge">
<title>Node93&#45;&gt;Node94</title>
<path fill="none" stroke="midnightblue" d="M442.91,-509.71C442.93,-596.26 447.5,-941.55 518,-1017 523.64,-1023.04 530.68,-1027.4 538.32,-1030.53"/>
<polygon fill="midnightblue" stroke="midnightblue" points="446.41,-509.68 442.93,-499.67 439.41,-509.66 446.41,-509.68"/>
</g>
<!-- Node106 -->
<g id="node17" class="node">
<title>Node106</title>
<g id="a_node17"><a xlink:href="da/de7/classOmniboxPedalClearBrowsingData.html" target="_top" xlink:title=" ">
<polygon fill="white" stroke="black" points="526,-988.5 526,-1007.5 691,-1007.5 691,-988.5 526,-988.5"/>
<text text-anchor="middle" x="608.5" y="-995.5" font-family="Helvetica,sans-Serif" font-size="10.00">OmniboxPedalClearBrowsingData</text>
</a>
</g>
</g>
<!-- Node93&#45;&gt;Node106 -->
<g id="edge16" class="edge">
<title>Node93&#45;&gt;Node106</title>
<path fill="none" stroke="midnightblue" d="M443.15,-509.86C444.21,-592.7 452.52,-909.68 518,-979 521.49,-982.7 525.51,-985.76 529.86,-988.3"/>
<polygon fill="midnightblue" stroke="midnightblue" points="446.65,-509.73 443.05,-499.77 439.65,-509.81 446.65,-509.73"/>
</g>
<!-- Node107 -->
<g id="node18" class="node">
<title>Node107</title>
<g id="a_node18"><a xlink:href="d3/d89/classOmniboxPedalCloseIncognitoWindows.html" target="_top" xlink:title=" ">
<polygon fill="white" stroke="black" points="535.5,-939 535.5,-969 681.5,-969 681.5,-939 535.5,-939"/>
<text text-anchor="start" x="543.5" y="-957" font-family="Helvetica,sans-Serif" font-size="10.00">OmniboxPedalCloseIncognito</text>
<text text-anchor="middle" x="608.5" y="-946" font-family="Helvetica,sans-Serif" font-size="10.00">Windows</text>
</a>
</g>
</g>
<!-- Node93&#45;&gt;Node107 -->
<g id="edge17" class="edge">
<title>Node93&#45;&gt;Node107</title>
<path fill="none" stroke="midnightblue" d="M443.64,-510.21C446.5,-588.04 460.67,-867.07 518,-930 522.87,-935.35 528.8,-939.56 535.26,-942.87"/>
<polygon fill="midnightblue" stroke="midnightblue" points="447.12,-509.75 443.28,-499.88 440.13,-509.99 447.12,-509.75"/>
</g>
<!-- Node108 -->
<g id="node19" class="node">
<title>Node108</title>
<g id="a_node19"><a xlink:href="d6/d70/classOmniboxPedalCustomizeChromeFonts.html" target="_top" xlink:title=" ">
<polygon fill="white" stroke="black" points="527.5,-890 527.5,-920 689.5,-920 689.5,-890 527.5,-890"/>
<text text-anchor="start" x="535.5" y="-908" font-family="Helvetica,sans-Serif" font-size="10.00">OmniboxPedalCustomizeChrome</text>
<text text-anchor="middle" x="608.5" y="-897" font-family="Helvetica,sans-Serif" font-size="10.00">Fonts</text>
</a>
</g>
</g>
<!-- Node93&#45;&gt;Node108 -->
<g id="edge18" class="edge">
<title>Node93&#45;&gt;Node108</title>
<path fill="none" stroke="midnightblue" d="M444.11,-510.24C448.48,-582.44 466.83,-825.98 518,-881 521.18,-884.42 524.78,-887.37 528.68,-889.91"/>
<polygon fill="midnightblue" stroke="midnightblue" points="447.58,-509.62 443.51,-499.83 440.59,-510.02 447.58,-509.62"/>
</g>
<!-- Node109 -->
<g id="node20" class="node">
<title>Node109</title>
<g id="a_node20"><a xlink:href="d5/dd4/classOmniboxPedalCustomizeSearchEngines.html" target="_top" xlink:title=" ">
<polygon fill="white" stroke="black" points="529.5,-841 529.5,-871 687.5,-871 687.5,-841 529.5,-841"/>
<text text-anchor="start" x="537.5" y="-859" font-family="Helvetica,sans-Serif" font-size="10.00">OmniboxPedalCustomizeSearch</text>
<text text-anchor="middle" x="608.5" y="-848" font-family="Helvetica,sans-Serif" font-size="10.00">Engines</text>
</a>
</g>
</g>
<!-- Node93&#45;&gt;Node109 -->
<g id="edge19" class="edge">
<title>Node93&#45;&gt;Node109</title>
<path fill="none" stroke="midnightblue" d="M444.7,-509.72C450.74,-575.15 473.21,-783.63 518,-831 521.66,-834.87 525.86,-838.15 530.41,-840.94"/>
<polygon fill="midnightblue" stroke="midnightblue" points="448.17,-509.19 443.79,-499.54 441.2,-509.82 448.17,-509.19"/>
</g>
<!-- Node110 -->
<g id="node21" class="node">
<title>Node110</title>
<g id="a_node21"><a xlink:href="d3/d20/classOmniboxPedalLaunchIncognito.html" target="_top" xlink:title=" ">
<polygon fill="white" stroke="black" points="532.5,-802.5 532.5,-821.5 684.5,-821.5 684.5,-802.5 532.5,-802.5"/>
<text text-anchor="middle" x="608.5" y="-809.5" font-family="Helvetica,sans-Serif" font-size="10.00">OmniboxPedalLaunchIncognito</text>
</a>
</g>
</g>
<!-- Node93&#45;&gt;Node110 -->
<g id="edge20" class="edge">
<title>Node93&#45;&gt;Node110</title>
<path fill="none" stroke="midnightblue" d="M445.19,-509.96C452.3,-570.94 476.65,-753.01 518,-793 522.22,-797.09 527.1,-800.39 532.34,-803.05"/>
<polygon fill="midnightblue" stroke="midnightblue" points="448.64,-509.3 444.03,-499.75 441.69,-510.09 448.64,-509.3"/>
</g>
<!-- Node111 -->
<g id="node22" class="node">
<title>Node111</title>
<g id="a_node22"><a xlink:href="d7/d00/classOmniboxPedalManageAddresses.html" target="_top" xlink:title=" ">
<polygon fill="white" stroke="black" points="528,-764.5 528,-783.5 689,-783.5 689,-764.5 528,-764.5"/>
<text text-anchor="middle" x="608.5" y="-771.5" font-family="Helvetica,sans-Serif" font-size="10.00">OmniboxPedalManageAddresses</text>
</a>
</g>
</g>
<!-- Node93&#45;&gt;Node111 -->
<g id="edge21" class="edge">
<title>Node93&#45;&gt;Node111</title>
<path fill="none" stroke="midnightblue" d="M442.28,-509.89C441.66,-559.07 447.29,-687.21 518,-754 522.51,-758.26 527.73,-761.69 533.33,-764.44"/>
<polygon fill="midnightblue" stroke="midnightblue" points="445.79,-509.74 442.52,-499.66 438.79,-509.58 445.79,-509.74"/>
</g>
<!-- Node112 -->
<g id="node23" class="node">
<title>Node112</title>
<g id="a_node23"><a xlink:href="dc/d9f/classOmniboxPedalManageChromeAccessibility.html" target="_top" xlink:title=" ">
<polygon fill="white" stroke="black" points="534,-715 534,-745 683,-745 683,-715 534,-715"/>
<text text-anchor="start" x="542" y="-733" font-family="Helvetica,sans-Serif" font-size="10.00">OmniboxPedalManageChrome</text>
<text text-anchor="middle" x="608.5" y="-722" font-family="Helvetica,sans-Serif" font-size="10.00">Accessibility</text>
</a>
</g>
</g>
<!-- Node93&#45;&gt;Node112 -->
<g id="edge22" class="edge">
<title>Node93&#45;&gt;Node112</title>
<path fill="none" stroke="midnightblue" d="M444.02,-509.95C447.29,-552.25 460.97,-651.47 518,-705 522.71,-709.42 528.12,-713.06 533.92,-716.07"/>
<polygon fill="midnightblue" stroke="midnightblue" points="447.51,-509.58 443.36,-499.83 440.52,-510.03 447.51,-509.58"/>
</g>
<!-- Node113 -->
<g id="node24" class="node">
<title>Node113</title>
<g id="a_node24"><a xlink:href="df/db0/classOmniboxPedalManageChromeDownloads.html" target="_top" xlink:title=" ">
<polygon fill="white" stroke="black" points="534,-666 534,-696 683,-696 683,-666 534,-666"/>
<text text-anchor="start" x="542" y="-684" font-family="Helvetica,sans-Serif" font-size="10.00">OmniboxPedalManageChrome</text>
<text text-anchor="middle" x="608.5" y="-673" font-family="Helvetica,sans-Serif" font-size="10.00">Downloads</text>
</a>
</g>
</g>
<!-- Node93&#45;&gt;Node113 -->
<g id="edge23" class="edge">
<title>Node93&#45;&gt;Node113</title>
<path fill="none" stroke="midnightblue" d="M446.25,-509.39C453.1,-544.08 472.32,-616.78 518,-656 522.77,-660.1 528.17,-663.53 533.89,-666.4"/>
<polygon fill="midnightblue" stroke="midnightblue" points="449.69,-508.76 444.44,-499.56 442.81,-510.02 449.69,-508.76"/>
</g>
<!-- Node114 -->
<g id="node25" class="node">
<title>Node114</title>
<g id="a_node25"><a xlink:href="da/d02/classOmniboxPedalManageChromeOSAccessibility.html" target="_top" xlink:title=" ">
<polygon fill="white" stroke="black" points="534,-617 534,-647 683,-647 683,-617 534,-617"/>
<text text-anchor="start" x="542" y="-635" font-family="Helvetica,sans-Serif" font-size="10.00">OmniboxPedalManageChrome</text>
<text text-anchor="middle" x="608.5" y="-624" font-family="Helvetica,sans-Serif" font-size="10.00">OSAccessibility</text>
</a>
</g>
</g>
<!-- Node93&#45;&gt;Node114 -->
<g id="edge24" class="edge">
<title>Node93&#45;&gt;Node114</title>
<path fill="none" stroke="midnightblue" d="M450.11,-509.06C460.81,-535.12 483.55,-581.54 518,-607 523.19,-610.84 528.94,-614.08 534.96,-616.83"/>
<polygon fill="midnightblue" stroke="midnightblue" points="453.29,-507.58 446.37,-499.55 446.77,-510.14 453.29,-507.58"/>
</g>
<!-- Node115 -->
<g id="node26" class="node">
<title>Node115</title>
<g id="a_node26"><a xlink:href="d5/d54/classOmniboxPedalManageChromeSettings.html" target="_top" xlink:title=" ">
<polygon fill="white" stroke="black" points="534,-568 534,-598 683,-598 683,-568 534,-568"/>
<text text-anchor="start" x="542" y="-586" font-family="Helvetica,sans-Serif" font-size="10.00">OmniboxPedalManageChrome</text>
<text text-anchor="middle" x="608.5" y="-575" font-family="Helvetica,sans-Serif" font-size="10.00">Settings</text>
</a>
</g>
</g>
<!-- Node93&#45;&gt;Node115 -->
<g id="edge25" class="edge">
<title>Node93&#45;&gt;Node115</title>
<path fill="none" stroke="midnightblue" d="M458.07,-507.68C472.1,-523.09 494.37,-544.96 518,-558 524.92,-561.82 532.47,-565.09 540.16,-567.89"/>
<polygon fill="midnightblue" stroke="midnightblue" points="460.41,-505.05 451.16,-499.89 455.17,-509.69 460.41,-505.05"/>
</g>
<!-- Node116 -->
<g id="node27" class="node">
<title>Node116</title>
<g id="a_node27"><a xlink:href="d6/dfe/classOmniboxPedalManageChromeThemes.html" target="_top" xlink:title=" ">
<polygon fill="white" stroke="black" points="534,-519 534,-549 683,-549 683,-519 534,-519"/>
<text text-anchor="start" x="542" y="-537" font-family="Helvetica,sans-Serif" font-size="10.00">OmniboxPedalManageChrome</text>
<text text-anchor="middle" x="608.5" y="-526" font-family="Helvetica,sans-Serif" font-size="10.00">Themes</text>
</a>
</g>
</g>
<!-- Node93&#45;&gt;Node116 -->
<g id="edge26" class="edge">
<title>Node93&#45;&gt;Node116</title>
<path fill="none" stroke="midnightblue" d="M488.49,-502.17C507.89,-507.36 530.73,-513.46 551.18,-518.93"/>
<polygon fill="midnightblue" stroke="midnightblue" points="489.26,-498.75 478.69,-499.55 487.45,-505.51 489.26,-498.75"/>
</g>
<!-- Node117 -->
<g id="node28" class="node">
<title>Node117</title>
<g id="a_node28"><a xlink:href="de/d30/classOmniboxPedalManageCookies.html" target="_top" xlink:title=" ">
<polygon fill="white" stroke="black" points="533,-480.5 533,-499.5 684,-499.5 684,-480.5 533,-480.5"/>
<text text-anchor="middle" x="608.5" y="-487.5" font-family="Helvetica,sans-Serif" font-size="10.00">OmniboxPedalManageCookies</text>
</a>
</g>
</g>
<!-- Node93&#45;&gt;Node117 -->
<g id="edge27" class="edge">
<title>Node93&#45;&gt;Node117</title>
<path fill="none" stroke="midnightblue" d="M492.74,-490C505.43,-490 519.35,-490 532.98,-490"/>
<polygon fill="midnightblue" stroke="midnightblue" points="492.4,-486.5 482.4,-490 492.4,-493.5 492.4,-486.5"/>
</g>
<!-- Node118 -->
<g id="node29" class="node">
<title>Node118</title>
<g id="a_node29"><a xlink:href="dd/d96/classOmniboxPedalManagePasswords.html" target="_top" xlink:title=" ">
<polygon fill="white" stroke="black" points="526.5,-442.5 526.5,-461.5 690.5,-461.5 690.5,-442.5 526.5,-442.5"/>
<text text-anchor="middle" x="608.5" y="-449.5" font-family="Helvetica,sans-Serif" font-size="10.00">OmniboxPedalManagePasswords</text>
</a>
</g>
</g>
<!-- Node93&#45;&gt;Node118 -->
<g id="edge28" class="edge">
<title>Node93&#45;&gt;Node118</title>
<path fill="none" stroke="midnightblue" d="M489.54,-477.91C498.95,-475.55 508.78,-473.15 518,-471 531.92,-467.76 547.12,-464.45 560.97,-461.52"/>
<polygon fill="midnightblue" stroke="midnightblue" points="488.39,-474.59 479.55,-480.44 490.1,-481.38 488.39,-474.59"/>
</g>
<!-- Node119 -->
<g id="node30" class="node">
<title>Node119</title>
<g id="a_node30"><a xlink:href="d2/dbb/classOmniboxPedalManageSecuritySettings.html" target="_top" xlink:title=" ">
<polygon fill="white" stroke="black" points="533,-393 533,-423 684,-423 684,-393 533,-393"/>
<text text-anchor="start" x="541" y="-411" font-family="Helvetica,sans-Serif" font-size="10.00">OmniboxPedalManageSecurity</text>
<text text-anchor="middle" x="608.5" y="-400" font-family="Helvetica,sans-Serif" font-size="10.00">Settings</text>
</a>
</g>
</g>
<!-- Node93&#45;&gt;Node119 -->
<g id="edge29" class="edge">
<title>Node93&#45;&gt;Node119</title>
<path fill="none" stroke="midnightblue" d="M460.96,-473.21C475.39,-460.54 496.7,-443.58 518,-433 525.66,-429.2 533.98,-425.89 542.36,-423.05"/>
<polygon fill="midnightblue" stroke="midnightblue" points="458.4,-470.81 453.31,-480.1 463.09,-476.01 458.4,-470.81"/>
</g>
<!-- Node120 -->
<g id="node31" class="node">
<title>Node120</title>
<g id="a_node31"><a xlink:href="dc/d11/classOmniboxPedalManageSiteSettings.html" target="_top" xlink:title=" ">
<polygon fill="white" stroke="black" points="524.5,-354.5 524.5,-373.5 692.5,-373.5 692.5,-354.5 524.5,-354.5"/>
<text text-anchor="middle" x="608.5" y="-361.5" font-family="Helvetica,sans-Serif" font-size="10.00">OmniboxPedalManageSiteSettings</text>
</a>
</g>
</g>
<!-- Node93&#45;&gt;Node120 -->
<g id="edge30" class="edge">
<title>Node93&#45;&gt;Node120</title>
<path fill="none" stroke="midnightblue" d="M450.83,-471.22C462,-446.86 484.89,-404.9 518,-383 523.83,-379.14 530.3,-376.05 537.02,-373.58"/>
<polygon fill="midnightblue" stroke="midnightblue" points="447.58,-469.91 446.76,-480.47 453.99,-472.72 447.58,-469.91"/>
</g>
<!-- Node121 -->
<g id="node32" class="node">
<title>Node121</title>
<g id="a_node32"><a xlink:href="d9/d42/classOmniboxPedalManageSync.html" target="_top" xlink:title=" ">
<polygon fill="white" stroke="black" points="540,-316.5 540,-335.5 677,-335.5 677,-316.5 540,-316.5"/>
<text text-anchor="middle" x="608.5" y="-323.5" font-family="Helvetica,sans-Serif" font-size="10.00">OmniboxPedalManageSync</text>
</a>
</g>
</g>
<!-- Node93&#45;&gt;Node121 -->
<g id="edge31" class="edge">
<title>Node93&#45;&gt;Node121</title>
<path fill="none" stroke="midnightblue" d="M447.34,-470.6C455.47,-439.06 476.06,-376.97 518,-345 524.44,-340.09 531.87,-336.38 539.64,-333.59"/>
<polygon fill="midnightblue" stroke="midnightblue" points="443.93,-469.85 444.98,-480.39 450.73,-471.49 443.93,-469.85"/>
</g>
<!-- Node122 -->
<g id="node33" class="node">
<title>Node122</title>
<g id="a_node33"><a xlink:href="de/d51/classOmniboxPedalPlayChromeDinoGame.html" target="_top" xlink:title=" ">
<polygon fill="white" stroke="black" points="518,-278.5 518,-297.5 699,-297.5 699,-278.5 518,-278.5"/>
<text text-anchor="middle" x="608.5" y="-285.5" font-family="Helvetica,sans-Serif" font-size="10.00">OmniboxPedalPlayChromeDinoGame</text>
</a>
</g>
</g>
<!-- Node93&#45;&gt;Node122 -->
<g id="edge32" class="edge">
<title>Node93&#45;&gt;Node122</title>
<path fill="none" stroke="midnightblue" d="M445.15,-469.94C450.33,-431.94 467.12,-349.47 518,-307 522.51,-303.23 527.59,-300.16 532.97,-297.66"/>
<polygon fill="midnightblue" stroke="midnightblue" points="441.63,-469.86 443.88,-480.21 448.58,-470.71 441.63,-469.86"/>
</g>
<!-- Node123 -->
<g id="node34" class="node">
<title>Node123</title>
<g id="a_node34"><a xlink:href="d9/d43/classOmniboxPedalRunChromeSafetyCheck.html" target="_top" xlink:title=" ">
<polygon fill="white" stroke="black" points="528,-229 528,-259 689,-259 689,-229 528,-229"/>
<text text-anchor="start" x="536" y="-247" font-family="Helvetica,sans-Serif" font-size="10.00">OmniboxPedalRunChromeSafety</text>
<text text-anchor="middle" x="608.5" y="-236" font-family="Helvetica,sans-Serif" font-size="10.00">Check</text>
</a>
</g>
</g>
<!-- Node93&#45;&gt;Node123 -->
<g id="edge33" class="edge">
<title>Node93&#45;&gt;Node123</title>
<path fill="none" stroke="midnightblue" d="M443.78,-470.38C446.58,-427.43 459.39,-324.49 518,-269 522.1,-265.12 526.75,-261.83 531.73,-259.05"/>
<polygon fill="midnightblue" stroke="midnightblue" points="440.29,-470.21 443.25,-480.38 447.28,-470.59 440.29,-470.21"/>
</g>
<!-- Node124 -->
<g id="node35" class="node">
<title>Node124</title>
<g id="a_node35"><a xlink:href="d5/dcc/classOmniboxPedalSeeChromeTips.html" target="_top" xlink:title=" ">
<polygon fill="white" stroke="black" points="533,-190.5 533,-209.5 684,-209.5 684,-190.5 533,-190.5"/>
<text text-anchor="middle" x="608.5" y="-197.5" font-family="Helvetica,sans-Serif" font-size="10.00">OmniboxPedalSeeChromeTips</text>
</a>
</g>
</g>
<!-- Node93&#45;&gt;Node124 -->
<g id="edge34" class="edge">
<title>Node93&#45;&gt;Node124</title>
<path fill="none" stroke="midnightblue" d="M445.77,-470.32C454.11,-414.03 480.66,-254.13 518,-219 522.4,-214.86 527.46,-211.54 532.89,-208.87"/>
<polygon fill="midnightblue" stroke="midnightblue" points="442.28,-470.01 444.31,-480.41 449.21,-471.01 442.28,-470.01"/>
</g>
<!-- Node125 -->
<g id="node36" class="node">
<title>Node125</title>
<g id="a_node36"><a xlink:href="da/d1e/classOmniboxPedalShareThisPage.html" target="_top" xlink:title=" ">
<polygon fill="white" stroke="black" points="535,-152.5 535,-171.5 682,-171.5 682,-152.5 535,-152.5"/>
<text text-anchor="middle" x="608.5" y="-159.5" font-family="Helvetica,sans-Serif" font-size="10.00">OmniboxPedalShareThisPage</text>
</a>
</g>
</g>
<!-- Node93&#45;&gt;Node125 -->
<g id="edge35" class="edge">
<title>Node93&#45;&gt;Node125</title>
<path fill="none" stroke="midnightblue" d="M445.09,-470.06C451.96,-408.3 475.87,-221.93 518,-181 522.9,-176.24 528.68,-172.54 534.9,-169.69"/>
<polygon fill="midnightblue" stroke="midnightblue" points="441.57,-470.05 443.97,-480.37 448.53,-470.81 441.57,-470.05"/>
</g>
<!-- Node126 -->
<g id="node37" class="node">
<title>Node126</title>
<g id="a_node37"><a xlink:href="df/df9/classOmniboxPedalTranslate.html" target="_top" xlink:title=" ">
<polygon fill="white" stroke="black" points="548,-114.5 548,-133.5 669,-133.5 669,-114.5 548,-114.5"/>
<text text-anchor="middle" x="608.5" y="-121.5" font-family="Helvetica,sans-Serif" font-size="10.00">OmniboxPedalTranslate</text>
</a>
</g>
</g>
<!-- Node93&#45;&gt;Node126 -->
<g id="edge36" class="edge">
<title>Node93&#45;&gt;Node126</title>
<path fill="none" stroke="midnightblue" d="M444.5,-470.24C449.96,-403.78 470.95,-189.88 518,-143 526.1,-134.93 536.73,-129.89 547.81,-126.83"/>
<polygon fill="midnightblue" stroke="midnightblue" points="441.01,-469.99 443.71,-480.23 447.99,-470.54 441.01,-469.99"/>
</g>
<!-- Node127 -->
<g id="node38" class="node">
<title>Node127</title>
<g id="a_node38"><a xlink:href="de/d59/classOmniboxPedalUpdateChrome.html" target="_top" xlink:title=" ">
<polygon fill="white" stroke="black" points="535.5,-76.5 535.5,-95.5 681.5,-95.5 681.5,-76.5 535.5,-76.5"/>
<text text-anchor="middle" x="608.5" y="-83.5" font-family="Helvetica,sans-Serif" font-size="10.00">OmniboxPedalUpdateChrome</text>
</a>
</g>
</g>
<!-- Node93&#45;&gt;Node127 -->
<g id="edge37" class="edge">
<title>Node93&#45;&gt;Node127</title>
<path fill="none" stroke="midnightblue" d="M444.06,-469.98C448.26,-398.56 466.1,-157.78 518,-105 522.9,-100.02 528.76,-96.18 535.1,-93.26"/>
<polygon fill="midnightblue" stroke="midnightblue" points="440.55,-470.09 443.48,-480.27 447.54,-470.48 440.55,-470.09"/>
</g>
<!-- Node128 -->
<g id="node39" class="node">
<title>Node128</title>
<g id="a_node39"><a xlink:href="dd/dcf/classOmniboxPedalUpdateCreditCard.html" target="_top" xlink:title=" ">
<polygon fill="white" stroke="black" points="529,-38.5 529,-57.5 688,-57.5 688,-38.5 529,-38.5"/>
<text text-anchor="middle" x="608.5" y="-45.5" font-family="Helvetica,sans-Serif" font-size="10.00">OmniboxPedalUpdateCreditCard</text>
</a>
</g>
</g>
<!-- Node93&#45;&gt;Node128 -->
<g id="edge38" class="edge">
<title>Node93&#45;&gt;Node128</title>
<path fill="none" stroke="midnightblue" d="M443.68,-470.01C446.67,-394.19 461.16,-125.79 518,-67 521.64,-63.23 525.84,-60.12 530.37,-57.56"/>
<polygon fill="midnightblue" stroke="midnightblue" points="440.16,-470.34 443.29,-480.46 447.16,-470.59 440.16,-470.34"/>
</g>
<!-- Node129 -->
<g id="node40" class="node">
<title>Node129</title>
<g id="a_node40"><a xlink:href="db/d8c/classOmniboxPedalViewChromeHistory.html" target="_top" xlink:title=" ">
<polygon fill="white" stroke="black" points="524.5,-0.5 524.5,-19.5 692.5,-19.5 692.5,-0.5 524.5,-0.5"/>
<text text-anchor="middle" x="608.5" y="-7.5" font-family="Helvetica,sans-Serif" font-size="10.00">OmniboxPedalViewChromeHistory</text>
</a>
</g>
</g>
<!-- Node93&#45;&gt;Node129 -->
<g id="edge39" class="edge">
<title>Node93&#45;&gt;Node129</title>
<path fill="none" stroke="midnightblue" d="M443.35,-470.28C445.19,-390.63 456.14,-93.89 518,-29 521.51,-25.32 525.54,-22.26 529.9,-19.73"/>
<polygon fill="midnightblue" stroke="midnightblue" points="439.85,-470.33 443.14,-480.4 446.85,-470.47 439.85,-470.33"/>
</g>
<!-- Node95 -->
<g id="node6" class="node">
<title>Node95</title>
<g id="a_node6"><a xlink:href="db/d52/classOmniboxPedalChangeGooglePassword.html" target="_top" xlink:title=" ">
<polygon fill="white" stroke="black" points="744,-1245 744,-1275 889,-1275 889,-1245 744,-1245"/>
<text text-anchor="start" x="752" y="-1263" font-family="Helvetica,sans-Serif" font-size="10.00">OmniboxPedalChangeGoogle</text>
<text text-anchor="middle" x="816.5" y="-1252" font-family="Helvetica,sans-Serif" font-size="10.00">Password</text>
</a>
</g>
</g>
<!-- Node94&#45;&gt;Node95 -->
<g id="edge5" class="edge">
<title>Node94&#45;&gt;Node95</title>
<path fill="none" stroke="midnightblue" d="M616.19,-1055.22C631.07,-1095.09 670.73,-1187.14 735,-1236 739.53,-1239.44 744.54,-1242.39 749.8,-1244.92"/>
<polygon fill="midnightblue" stroke="midnightblue" points="619.42,-1053.85 612.73,-1045.64 612.84,-1056.24 619.42,-1053.85"/>
</g>
<!-- Node96 -->
<g id="node7" class="node">
<title>Node96</title>
<g id="a_node7"><a xlink:href="dc/dfb/classOmniboxPedalCreateGoogleCalendarEvent.html" target="_top" xlink:title=" ">
<polygon fill="white" stroke="black" points="746.5,-1196 746.5,-1226 886.5,-1226 886.5,-1196 746.5,-1196"/>
<text text-anchor="start" x="754.5" y="-1214" font-family="Helvetica,sans-Serif" font-size="10.00">OmniboxPedalCreateGoogle</text>
<text text-anchor="middle" x="816.5" y="-1203" font-family="Helvetica,sans-Serif" font-size="10.00">CalendarEvent</text>
</a>
</g>
</g>
<!-- Node94&#45;&gt;Node96 -->
<g id="edge6" class="edge">
<title>Node94&#45;&gt;Node96</title>
<path fill="none" stroke="midnightblue" d="M619.96,-1054.39C638.87,-1085.96 681.73,-1150.52 735,-1186 740.72,-1189.81 747.06,-1193.07 753.59,-1195.84"/>
<polygon fill="midnightblue" stroke="midnightblue" points="622.96,-1052.57 614.88,-1045.71 616.92,-1056.11 622.96,-1052.57"/>
</g>
<!-- Node97 -->
<g id="node8" class="node">
<title>Node97</title>
<g id="a_node8"><a xlink:href="df/dae/classOmniboxPedalCreateGoogleDoc.html" target="_top" xlink:title=" ">
<polygon fill="white" stroke="black" points="737.5,-1157.5 737.5,-1176.5 895.5,-1176.5 895.5,-1157.5 737.5,-1157.5"/>
<text text-anchor="middle" x="816.5" y="-1164.5" font-family="Helvetica,sans-Serif" font-size="10.00">OmniboxPedalCreateGoogleDoc</text>
</a>
</g>
</g>
<!-- Node94&#45;&gt;Node97 -->
<g id="edge7" class="edge">
<title>Node94&#45;&gt;Node97</title>
<path fill="none" stroke="midnightblue" d="M623.86,-1053.41C645.37,-1078.31 688.43,-1123.74 735,-1148 742.39,-1151.85 750.56,-1154.93 758.78,-1157.39"/>
<polygon fill="midnightblue" stroke="midnightblue" points="626.32,-1050.9 617.18,-1045.53 620.98,-1055.42 626.32,-1050.9"/>
</g>
<!-- Node98 -->
<g id="node9" class="node">
<title>Node98</title>
<g id="a_node9"><a xlink:href="d5/d58/classOmniboxPedalCreateGoogleForm.html" target="_top" xlink:title=" ">
<polygon fill="white" stroke="black" points="735,-1119.5 735,-1138.5 898,-1138.5 898,-1119.5 735,-1119.5"/>
<text text-anchor="middle" x="816.5" y="-1126.5" font-family="Helvetica,sans-Serif" font-size="10.00">OmniboxPedalCreateGoogleForm</text>
</a>
</g>
</g>
<!-- Node94&#45;&gt;Node98 -->
<g id="edge8" class="edge">
<title>Node94&#45;&gt;Node98</title>
<path fill="none" stroke="midnightblue" d="M631.15,-1051.52C655.37,-1068.21 696.29,-1094.44 735,-1110 744.33,-1113.75 754.57,-1116.87 764.53,-1119.42"/>
<polygon fill="midnightblue" stroke="midnightblue" points="632.93,-1048.5 622.73,-1045.64 628.92,-1054.23 632.93,-1048.5"/>
</g>
<!-- Node99 -->
<g id="node10" class="node">
<title>Node99</title>
<g id="a_node10"><a xlink:href="d7/d95/classOmniboxPedalCreateGoogleKeepNote.html" target="_top" xlink:title=" ">
<polygon fill="white" stroke="black" points="746.5,-1070 746.5,-1100 886.5,-1100 886.5,-1070 746.5,-1070"/>
<text text-anchor="start" x="754.5" y="-1088" font-family="Helvetica,sans-Serif" font-size="10.00">OmniboxPedalCreateGoogle</text>
<text text-anchor="middle" x="816.5" y="-1077" font-family="Helvetica,sans-Serif" font-size="10.00">KeepNote</text>
</a>
</g>
</g>
<!-- Node94&#45;&gt;Node99 -->
<g id="edge9" class="edge">
<title>Node94&#45;&gt;Node99</title>
<path fill="none" stroke="midnightblue" d="M659.64,-1047.93C687.54,-1054.56 722.53,-1062.89 752.28,-1069.96"/>
<polygon fill="midnightblue" stroke="midnightblue" points="660.25,-1044.47 649.71,-1045.56 658.63,-1051.28 660.25,-1044.47"/>
</g>
<!-- Node100 -->
<g id="node11" class="node">
<title>Node100</title>
<g id="a_node11"><a xlink:href="de/d74/classOmniboxPedalCreateGoogleSheet.html" target="_top" xlink:title=" ">
<polygon fill="white" stroke="black" points="746.5,-1021 746.5,-1051 886.5,-1051 886.5,-1021 746.5,-1021"/>
<text text-anchor="start" x="754.5" y="-1039" font-family="Helvetica,sans-Serif" font-size="10.00">OmniboxPedalCreateGoogle</text>
<text text-anchor="middle" x="816.5" y="-1028" font-family="Helvetica,sans-Serif" font-size="10.00">Sheet</text>
</a>
</g>
</g>
<!-- Node94&#45;&gt;Node100 -->
<g id="edge10" class="edge">
<title>Node94&#45;&gt;Node100</title>
<path fill="none" stroke="midnightblue" d="M688.75,-1036C707.67,-1036 727.73,-1036 746.16,-1036"/>
<polygon fill="midnightblue" stroke="midnightblue" points="688.67,-1032.5 678.67,-1036 688.67,-1039.5 688.67,-1032.5"/>
</g>
<!-- Node101 -->
<g id="node12" class="node">
<title>Node101</title>
<g id="a_node12"><a xlink:href="dc/dac/classOmniboxPedalCreateGoogleSite.html" target="_top" xlink:title=" ">
<polygon fill="white" stroke="black" points="737.5,-982.5 737.5,-1001.5 895.5,-1001.5 895.5,-982.5 737.5,-982.5"/>
<text text-anchor="middle" x="816.5" y="-989.5" font-family="Helvetica,sans-Serif" font-size="10.00">OmniboxPedalCreateGoogleSite</text>
</a>
</g>
</g>
<!-- Node94&#45;&gt;Node101 -->
<g id="edge11" class="edge">
<title>Node94&#45;&gt;Node101</title>
<path fill="none" stroke="midnightblue" d="M664.44,-1024.36C675.87,-1021.93 687.83,-1019.38 699,-1017 722.87,-1011.9 749.49,-1006.2 771.25,-1001.52"/>
<polygon fill="midnightblue" stroke="midnightblue" points="663.63,-1020.95 654.58,-1026.45 665.08,-1027.8 663.63,-1020.95"/>
</g>
<!-- Node102 -->
<g id="node13" class="node">
<title>Node102</title>
<g id="a_node13"><a xlink:href="d9/d61/classOmniboxPedalCreateGoogleSlide.html" target="_top" xlink:title=" ">
<polygon fill="white" stroke="black" points="746.5,-933 746.5,-963 886.5,-963 886.5,-933 746.5,-933"/>
<text text-anchor="start" x="754.5" y="-951" font-family="Helvetica,sans-Serif" font-size="10.00">OmniboxPedalCreateGoogle</text>
<text text-anchor="middle" x="816.5" y="-940" font-family="Helvetica,sans-Serif" font-size="10.00">Slide</text>
</a>
</g>
</g>
<!-- Node94&#45;&gt;Node102 -->
<g id="edge12" class="edge">
<title>Node94&#45;&gt;Node102</title>
<path fill="none" stroke="midnightblue" d="M687.68,-1022.84C691.61,-1021.12 695.41,-1019.18 699,-1017 720.58,-1003.86 714.05,-987.12 735,-973 740.7,-969.16 747.03,-965.88 753.55,-963.09"/>
<polygon fill="midnightblue" stroke="midnightblue" points="686.38,-1019.59 678.31,-1026.45 688.9,-1026.12 686.38,-1019.59"/>
</g>
<!-- Node103 -->
<g id="node14" class="node">
<title>Node103</title>
<g id="a_node14"><a xlink:href="d8/d7e/classOmniboxPedalFindMyPhone.html" target="_top" xlink:title=" ">
<polygon fill="white" stroke="black" points="746.5,-894.5 746.5,-913.5 886.5,-913.5 886.5,-894.5 746.5,-894.5"/>
<text text-anchor="middle" x="816.5" y="-901.5" font-family="Helvetica,sans-Serif" font-size="10.00">OmniboxPedalFindMyPhone</text>
</a>
</g>
</g>
<!-- Node94&#45;&gt;Node103 -->
<g id="edge13" class="edge">
<title>Node94&#45;&gt;Node103</title>
<path fill="none" stroke="midnightblue" d="M688.15,-1024.39C692.01,-1022.29 695.67,-1019.84 699,-1017 732.75,-988.27 701.75,-953.31 735,-924 739.86,-919.71 745.5,-916.32 751.49,-913.63"/>
<polygon fill="midnightblue" stroke="midnightblue" points="686.4,-1021.34 678.79,-1028.72 689.34,-1027.7 686.4,-1021.34"/>
</g>
<!-- Node104 -->
<g id="node15" class="node">
<title>Node104</title>
<g id="a_node15"><a xlink:href="d3/d48/classOmniboxPedalManageGoogleAccount.html" target="_top" xlink:title=" ">
<polygon fill="white" stroke="black" points="743.5,-845 743.5,-875 889.5,-875 889.5,-845 743.5,-845"/>
<text text-anchor="start" x="751.5" y="-863" font-family="Helvetica,sans-Serif" font-size="10.00">OmniboxPedalManageGoogle</text>
<text text-anchor="middle" x="816.5" y="-852" font-family="Helvetica,sans-Serif" font-size="10.00">Account</text>
</a>
</g>
</g>
<!-- Node94&#45;&gt;Node104 -->
<g id="edge14" class="edge">
<title>Node94&#45;&gt;Node104</title>
<path fill="none" stroke="midnightblue" d="M687.95,-1025.12C691.94,-1022.84 695.66,-1020.15 699,-1017 743.21,-975.25 692.76,-928.74 735,-885 738.76,-881.11 743.12,-877.81 747.82,-875.03"/>
<polygon fill="midnightblue" stroke="midnightblue" points="686.37,-1021.99 678.87,-1029.49 689.4,-1028.3 686.37,-1021.99"/>
</g>
<!-- Node105 -->
<g id="node16" class="node">
<title>Node105</title>
<g id="a_node16"><a xlink:href="de/d98/classOmniboxPedalManageGooglePrivacy.html" target="_top" xlink:title=" ">
<polygon fill="white" stroke="black" points="743.5,-796 743.5,-826 889.5,-826 889.5,-796 743.5,-796"/>
<text text-anchor="start" x="751.5" y="-814" font-family="Helvetica,sans-Serif" font-size="10.00">OmniboxPedalManageGoogle</text>
<text text-anchor="middle" x="816.5" y="-803" font-family="Helvetica,sans-Serif" font-size="10.00">Privacy</text>
</a>
</g>
</g>
<!-- Node94&#45;&gt;Node105 -->
<g id="edge15" class="edge">
<title>Node94&#45;&gt;Node105</title>
<path fill="none" stroke="midnightblue" d="M687.99,-1025.53C691.99,-1023.15 695.71,-1020.33 699,-1017 756.9,-958.29 679.51,-895.99 735,-835 738.14,-831.55 741.75,-828.58 745.67,-826.04"/>
<polygon fill="midnightblue" stroke="midnightblue" points="686.23,-1022.49 678.82,-1030.06 689.33,-1028.77 686.23,-1022.49"/>
</g>
<!-- Node199 -->
<g id="node41" class="node">
<title>Node199</title>
<g id="a_node41"><a xlink:title=" ">
<polygon fill="white" stroke="#bfbfbf" points="0,-518.5 0,-537.5 154,-537.5 154,-518.5 0,-518.5"/>
<text text-anchor="middle" x="77" y="-525.5" font-family="Helvetica,sans-Serif" font-size="10.00">content::WebContentsObserver</text>
</a>
</g>
</g>
<!-- Node199&#45;&gt;Node0 -->
<g id="edge40" class="edge">
<title>Node199&#45;&gt;Node0</title>
<path fill="none" stroke="midnightblue" d="M164.36,-528C172.86,-528 181.48,-528 189.98,-528"/>
<polygon fill="midnightblue" stroke="midnightblue" points="164.09,-524.5 154.09,-528 164.09,-531.5 164.09,-524.5"/>
</g>
</g>
</svg>
