<?xml version="1.0" encoding="UTF-8" standalone="no"?>
<!DOCTYPE svg PUBLIC "-//W3C//DTD SVG 1.1//EN"
 "http://www.w3.org/Graphics/SVG/1.1/DTD/svg11.dtd">
<!-- Generated by graphviz version 2.43.0 (0)
 -->
<!-- Title: Graphical Class Hierarchy Pages: 1 -->
<svg width="374pt" height="104pt"
 viewBox="0.00 0.00 374.00 104.00" xmlns="http://www.w3.org/2000/svg" xmlns:xlink="http://www.w3.org/1999/xlink">
<g id="graph0" class="graph" transform="scale(1 1) rotate(0) translate(4 100)">
<title>Graphical Class Hierarchy</title>
<polygon fill="white" stroke="transparent" points="-4,4 -4,-100 370,-100 370,4 -4,4"/>
<!-- Node73 -->
<g id="node1" class="node">
<title>Node73</title>
<g id="a_node1"><a xlink:title=" ">
<polygon fill="white" stroke="#bfbfbf" points="5,-76.5 5,-95.5 149,-95.5 149,-76.5 5,-76.5"/>
<text text-anchor="middle" x="77" y="-83.5" font-family="Helvetica,sans-Serif" font-size="10.00">content::NotificationObserver</text>
</a>
</g>
</g>
<!-- Node0 -->
<g id="node2" class="node">
<title>Node0</title>
<g id="a_node2"><a xlink:href="d3/da9/classChromeOmniboxNavigationObserver.html" target="_top" xlink:title=" ">
<polygon fill="white" stroke="black" points="190,-38.5 190,-57.5 366,-57.5 366,-38.5 190,-38.5"/>
<text text-anchor="middle" x="278" y="-45.5" font-family="Helvetica,sans-Serif" font-size="10.00">ChromeOmniboxNavigationObserver</text>
</a>
</g>
</g>
<!-- Node73&#45;&gt;Node0 -->
<g id="edge1" class="edge">
<title>Node73&#45;&gt;Node0</title>
<path fill="none" stroke="midnightblue" d="M137.79,-74.58C166.27,-69.14 199.93,-62.72 227.02,-57.54"/>
<polygon fill="midnightblue" stroke="midnightblue" points="137.13,-71.15 127.96,-76.46 138.44,-78.02 137.13,-71.15"/>
</g>
<!-- Node82 -->
<g id="node3" class="node">
<title>Node82</title>
<g id="a_node3"><a xlink:href="dd/d8b/classOmniboxNavigationObserver.html" target="_top" xlink:title=" ">
<polygon fill="white" stroke="black" points="6,-38.5 6,-57.5 148,-57.5 148,-38.5 6,-38.5"/>
<text text-anchor="middle" x="77" y="-45.5" font-family="Helvetica,sans-Serif" font-size="10.00">OmniboxNavigationObserver</text>
</a>
</g>
</g>
<!-- Node82&#45;&gt;Node0 -->
<g id="edge2" class="edge">
<title>Node82&#45;&gt;Node0</title>
<path fill="none" stroke="midnightblue" d="M158.36,-48C168.67,-48 179.27,-48 189.69,-48"/>
<polygon fill="midnightblue" stroke="midnightblue" points="158.16,-44.5 148.16,-48 158.16,-51.5 158.16,-44.5"/>
</g>
<!-- Node200 -->
<g id="node4" class="node">
<title>Node200</title>
<g id="a_node4"><a xlink:title=" ">
<polygon fill="white" stroke="#bfbfbf" points="0,-0.5 0,-19.5 154,-19.5 154,-0.5 0,-0.5"/>
<text text-anchor="middle" x="77" y="-7.5" font-family="Helvetica,sans-Serif" font-size="10.00">content::WebContentsObserver</text>
</a>
</g>
</g>
<!-- Node200&#45;&gt;Node0 -->
<g id="edge3" class="edge">
<title>Node200&#45;&gt;Node0</title>
<path fill="none" stroke="midnightblue" d="M137.79,-21.42C166.27,-26.86 199.93,-33.28 227.02,-38.46"/>
<polygon fill="midnightblue" stroke="midnightblue" points="138.44,-17.98 127.96,-19.54 137.13,-24.85 138.44,-17.98"/>
</g>
</g>
</svg>
