<?xml version="1.0" encoding="UTF-8" standalone="no"?>
<!DOCTYPE svg PUBLIC "-//W3C//DTD SVG 1.1//EN"
 "http://www.w3.org/Graphics/SVG/1.1/DTD/svg11.dtd">
<!-- Generated by graphviz version 2.43.0 (0)
 -->
<!-- Title: Graphical Class Hierarchy Pages: 1 -->
<svg width="692pt" height="470pt"
 viewBox="0.00 0.00 692.00 469.50" xmlns="http://www.w3.org/2000/svg" xmlns:xlink="http://www.w3.org/1999/xlink">
<g id="graph0" class="graph" transform="scale(1 1) rotate(0) translate(4 465.5)">
<title>Graphical Class Hierarchy</title>
<polygon fill="white" stroke="transparent" points="-4,4 -4,-465.5 688,-465.5 688,4 -4,4"/>
<!-- Node0 -->
<g id="node1" class="node">
<title>Node0</title>
<g id="a_node1"><a xlink:href="dc/dce/classAutocompleteProviderListener.html" target="_top" xlink:title=" ">
<polygon fill="white" stroke="black" points="162.5,-442 162.5,-461 309.5,-461 309.5,-442 162.5,-442"/>
<text text-anchor="middle" x="236" y="-449" font-family="Helvetica,sans-Serif" font-size="10.00">AutocompleteProviderListener</text>
</a>
</g>
</g>
<!-- Node1 -->
<g id="node2" class="node">
<title>Node1</title>
<g id="a_node2"><a xlink:href="df/d4d/classAutocompleteController.html" target="_top" xlink:title=" ">
<polygon fill="white" stroke="black" points="365,-420 365,-439 484,-439 484,-420 365,-420"/>
<text text-anchor="middle" x="424.5" y="-427" font-family="Helvetica,sans-Serif" font-size="10.00">AutocompleteController</text>
</a>
</g>
</g>
<!-- Node0&#45;&gt;Node1 -->
<g id="edge1" class="edge">
<title>Node0&#45;&gt;Node1</title>
<path fill="none" stroke="midnightblue" d="M319.6,-441.76C334.87,-439.96 350.52,-438.11 364.89,-436.41"/>
<polygon fill="midnightblue" stroke="midnightblue" points="319.16,-438.28 309.64,-442.93 319.98,-445.24 319.16,-438.28"/>
</g>
<!-- Node18 -->
<g id="node3" class="node">
<title>Node18</title>
<g id="a_node3"><a xlink:title=" ">
<polygon fill="white" stroke="#bfbfbf" points="0,-129 0,-148 122,-148 122,-129 0,-129"/>
<text text-anchor="middle" x="61" y="-136" font-family="Helvetica,sans-Serif" font-size="10.00">base::CheckedObserver</text>
</a>
</g>
</g>
<!-- Node19 -->
<g id="node4" class="node">
<title>Node19</title>
<g id="a_node4"><a xlink:href="d2/d30/classAutocompleteController_1_1Observer.html" target="_top" xlink:title=" ">
<polygon fill="white" stroke="black" points="176.5,-101.5 176.5,-131.5 295.5,-131.5 295.5,-101.5 176.5,-101.5"/>
<text text-anchor="start" x="184.5" y="-119.5" font-family="Helvetica,sans-Serif" font-size="10.00">AutocompleteController</text>
<text text-anchor="middle" x="236" y="-108.5" font-family="Helvetica,sans-Serif" font-size="10.00">::Observer</text>
</a>
</g>
</g>
<!-- Node18&#45;&gt;Node19 -->
<g id="edge2" class="edge">
<title>Node18&#45;&gt;Node19</title>
<path fill="none" stroke="midnightblue" d="M132.05,-129.59C146.72,-127.73 162.05,-125.78 176.25,-123.97"/>
<polygon fill="midnightblue" stroke="midnightblue" points="131.5,-126.13 122.02,-130.87 132.38,-133.08 131.5,-126.13"/>
</g>
<!-- Node22 -->
<g id="node7" class="node">
<title>Node22</title>
<g id="a_node7"><a xlink:href="d2/d31/classOmniboxTabHelper_1_1Observer.html" target="_top" xlink:title=" ">
<polygon fill="white" stroke="black" points="163,-151 163,-170 309,-170 309,-151 163,-151"/>
<text text-anchor="middle" x="236" y="-158" font-family="Helvetica,sans-Serif" font-size="10.00">OmniboxTabHelper::Observer</text>
</a>
</g>
</g>
<!-- Node18&#45;&gt;Node22 -->
<g id="edge5" class="edge">
<title>Node18&#45;&gt;Node22</title>
<path fill="none" stroke="midnightblue" d="M132.05,-147.41C142.21,-148.7 152.68,-150.03 162.87,-151.33"/>
<polygon fill="midnightblue" stroke="midnightblue" points="132.38,-143.92 122.02,-146.13 131.5,-150.87 132.38,-143.92"/>
</g>
<!-- Node20 -->
<g id="node5" class="node">
<title>Node20</title>
<g id="a_node5"><a xlink:href="d5/d13/classOmniboxController.html" target="_top" xlink:title=" ">
<polygon fill="white" stroke="black" points="375.5,-88 375.5,-107 473.5,-107 473.5,-88 375.5,-88"/>
<text text-anchor="middle" x="424.5" y="-95" font-family="Helvetica,sans-Serif" font-size="10.00">OmniboxController</text>
</a>
</g>
</g>
<!-- Node19&#45;&gt;Node20 -->
<g id="edge3" class="edge">
<title>Node19&#45;&gt;Node20</title>
<path fill="none" stroke="midnightblue" d="M305.84,-109.49C328.94,-107.13 354.18,-104.56 375.34,-102.41"/>
<polygon fill="midnightblue" stroke="midnightblue" points="305.35,-106.02 295.75,-110.51 306.06,-112.98 305.35,-106.02"/>
</g>
<!-- Node21 -->
<g id="node6" class="node">
<title>Node21</title>
<g id="a_node6"><a xlink:href="dd/d1c/classOmniboxControllerEmitter.html" target="_top" xlink:title=" ">
<polygon fill="white" stroke="black" points="360,-126 360,-145 489,-145 489,-126 360,-126"/>
<text text-anchor="middle" x="424.5" y="-133" font-family="Helvetica,sans-Serif" font-size="10.00">OmniboxControllerEmitter</text>
</a>
</g>
</g>
<!-- Node19&#45;&gt;Node21 -->
<g id="edge4" class="edge">
<title>Node19&#45;&gt;Node21</title>
<path fill="none" stroke="midnightblue" d="M305.98,-123.53C323.62,-125.32 342.51,-127.25 359.87,-129.02"/>
<polygon fill="midnightblue" stroke="midnightblue" points="306.06,-120.02 295.75,-122.49 305.35,-126.98 306.06,-120.02"/>
</g>
<!-- Node42 -->
<g id="node8" class="node">
<title>Node42</title>
<g id="a_node8"><a xlink:title=" ">
<polygon fill="white" stroke="#bfbfbf" points="158,-316 158,-335 314,-335 314,-316 158,-316"/>
<text text-anchor="middle" x="236" y="-323" font-family="Helvetica,sans-Serif" font-size="10.00">history::HistoryServiceObserver</text>
</a>
</g>
</g>
<!-- Node43 -->
<g id="node9" class="node">
<title>Node43</title>
<g id="a_node9"><a xlink:href="da/db7/classFaviconCache.html" target="_top" xlink:title=" ">
<polygon fill="white" stroke="black" points="384.5,-316 384.5,-335 464.5,-335 464.5,-316 384.5,-316"/>
<text text-anchor="middle" x="424.5" y="-323" font-family="Helvetica,sans-Serif" font-size="10.00">FaviconCache</text>
</a>
</g>
</g>
<!-- Node42&#45;&gt;Node43 -->
<g id="edge6" class="edge">
<title>Node42&#45;&gt;Node43</title>
<path fill="none" stroke="midnightblue" d="M324.46,-325.5C345.46,-325.5 366.85,-325.5 384.35,-325.5"/>
<polygon fill="midnightblue" stroke="midnightblue" points="324.2,-322 314.2,-325.5 324.2,-329 324.2,-322"/>
</g>
<!-- Node44 -->
<g id="node10" class="node">
<title>Node44</title>
<g id="a_node10"><a xlink:href="dd/d7d/classInMemoryURLIndex.html" target="_top" xlink:title=" ">
<polygon fill="white" stroke="black" points="372.5,-278 372.5,-297 476.5,-297 476.5,-278 372.5,-278"/>
<text text-anchor="middle" x="424.5" y="-285" font-family="Helvetica,sans-Serif" font-size="10.00">InMemoryURLIndex</text>
</a>
</g>
</g>
<!-- Node42&#45;&gt;Node44 -->
<g id="edge7" class="edge">
<title>Node42&#45;&gt;Node44</title>
<path fill="none" stroke="midnightblue" d="M293.98,-313.89C320.5,-308.49 351.67,-302.14 376.78,-297.02"/>
<polygon fill="midnightblue" stroke="midnightblue" points="293.16,-310.48 284.06,-315.91 294.56,-317.34 293.16,-310.48"/>
</g>
<!-- Node45 -->
<g id="node11" class="node">
<title>Node45</title>
<g id="a_node11"><a xlink:href="d3/d69/classShortcutsBackend.html" target="_top" xlink:title=" ">
<polygon fill="white" stroke="black" points="376,-354 376,-373 473,-373 473,-354 376,-354"/>
<text text-anchor="middle" x="424.5" y="-361" font-family="Helvetica,sans-Serif" font-size="10.00">ShortcutsBackend</text>
</a>
</g>
</g>
<!-- Node42&#45;&gt;Node45 -->
<g id="edge8" class="edge">
<title>Node42&#45;&gt;Node45</title>
<path fill="none" stroke="midnightblue" d="M293.98,-337.11C320.5,-342.51 351.67,-348.86 376.78,-353.98"/>
<polygon fill="midnightblue" stroke="midnightblue" points="294.56,-333.66 284.06,-335.09 293.16,-340.52 294.56,-333.66"/>
</g>
<!-- Node52 -->
<g id="node12" class="node">
<title>Node52</title>
<g id="a_node12"><a xlink:title=" ">
<polygon fill="white" stroke="#bfbfbf" points="197.5,-202 197.5,-221 274.5,-221 274.5,-202 197.5,-202"/>
<text text-anchor="middle" x="236" y="-209" font-family="Helvetica,sans-Serif" font-size="10.00">KeyedService</text>
</a>
</g>
</g>
<!-- Node52&#45;&gt;Node21 -->
<g id="edge12" class="edge">
<title>Node52&#45;&gt;Node21</title>
<path fill="none" stroke="midnightblue" d="M273.62,-198.14C286.65,-192.9 301.25,-186.47 314,-179.5 331.09,-170.15 332.29,-162.62 350,-154.5 358.27,-150.71 367.42,-147.58 376.37,-145.03"/>
<polygon fill="midnightblue" stroke="midnightblue" points="272.06,-194.99 264.02,-201.9 274.61,-201.51 272.06,-194.99"/>
</g>
<!-- Node52&#45;&gt;Node44 -->
<g id="edge11" class="edge">
<title>Node52&#45;&gt;Node44</title>
<path fill="none" stroke="midnightblue" d="M262.21,-226.19C284.66,-238.79 318.69,-256.71 350,-268.5 359.62,-272.12 370.2,-275.3 380.27,-277.97"/>
<polygon fill="midnightblue" stroke="midnightblue" points="263.76,-223.05 253.34,-221.15 260.31,-229.13 263.76,-223.05"/>
</g>
<!-- Node53 -->
<g id="node13" class="node">
<title>Node53</title>
<g id="a_node13"><a xlink:href="d3/dd0/classAutocompleteClassifier.html" target="_top" xlink:title=" ">
<polygon fill="white" stroke="black" points="365.5,-240 365.5,-259 483.5,-259 483.5,-240 365.5,-240"/>
<text text-anchor="middle" x="424.5" y="-247" font-family="Helvetica,sans-Serif" font-size="10.00">AutocompleteClassifier</text>
</a>
</g>
</g>
<!-- Node52&#45;&gt;Node53 -->
<g id="edge9" class="edge">
<title>Node52&#45;&gt;Node53</title>
<path fill="none" stroke="midnightblue" d="M284.77,-221.23C312.96,-226.98 348.49,-234.22 376.54,-239.93"/>
<polygon fill="midnightblue" stroke="midnightblue" points="285.24,-217.76 274.74,-219.19 283.84,-224.62 285.24,-217.76"/>
</g>
<!-- Node54 -->
<g id="node14" class="node">
<title>Node54</title>
<g id="a_node14"><a xlink:href="d3/d19/classDocumentSuggestionsService.html" target="_top" xlink:title=" ">
<polygon fill="white" stroke="black" points="350,-202 350,-221 499,-221 499,-202 350,-202"/>
<text text-anchor="middle" x="424.5" y="-209" font-family="Helvetica,sans-Serif" font-size="10.00">DocumentSuggestionsService</text>
</a>
</g>
</g>
<!-- Node52&#45;&gt;Node54 -->
<g id="edge10" class="edge">
<title>Node52&#45;&gt;Node54</title>
<path fill="none" stroke="midnightblue" d="M284.75,-211.5C304.57,-211.5 328.03,-211.5 349.96,-211.5"/>
<polygon fill="midnightblue" stroke="midnightblue" points="284.74,-208 274.74,-211.5 284.74,-215 284.74,-208"/>
</g>
<!-- Node55 -->
<g id="node15" class="node">
<title>Node55</title>
<g id="a_node15"><a xlink:href="d2/de7/classRemoteSuggestionsService.html" target="_top" xlink:title=" ">
<polygon fill="white" stroke="black" points="355.5,-164 355.5,-183 493.5,-183 493.5,-164 355.5,-164"/>
<text text-anchor="middle" x="424.5" y="-171" font-family="Helvetica,sans-Serif" font-size="10.00">RemoteSuggestionsService</text>
</a>
</g>
</g>
<!-- Node52&#45;&gt;Node55 -->
<g id="edge13" class="edge">
<title>Node52&#45;&gt;Node55</title>
<path fill="none" stroke="midnightblue" d="M284.77,-201.77C312.96,-196.02 348.49,-188.78 376.54,-183.07"/>
<polygon fill="midnightblue" stroke="midnightblue" points="283.84,-198.38 274.74,-203.81 285.24,-205.24 283.84,-198.38"/>
</g>
<!-- Node65 -->
<g id="node16" class="node">
<title>Node65</title>
<g id="a_node16"><a xlink:title=" ">
<polygon fill="white" stroke="#bfbfbf" points="179,-392.5 179,-422.5 293,-422.5 293,-392.5 179,-392.5"/>
<text text-anchor="start" x="187" y="-410.5" font-family="Helvetica,sans-Serif" font-size="10.00">base::trace_event::</text>
<text text-anchor="middle" x="236" y="-399.5" font-family="Helvetica,sans-Serif" font-size="10.00">MemoryDumpProvider</text>
</a>
</g>
</g>
<!-- Node65&#45;&gt;Node1 -->
<g id="edge14" class="edge">
<title>Node65&#45;&gt;Node1</title>
<path fill="none" stroke="midnightblue" d="M303.22,-415.31C323.32,-417.68 345.25,-420.27 364.82,-422.58"/>
<polygon fill="midnightblue" stroke="midnightblue" points="303.55,-411.83 293.21,-414.13 302.73,-418.78 303.55,-411.83"/>
</g>
<!-- Node65&#45;&gt;Node44 -->
<g id="edge15" class="edge">
<title>Node65&#45;&gt;Node44</title>
<path fill="none" stroke="midnightblue" d="M302.58,-390.6C306.66,-388.24 310.52,-385.56 314,-382.5 342.07,-357.82 321.19,-330.31 350,-306.5 356.5,-301.13 364.35,-297.25 372.46,-294.46"/>
<polygon fill="midnightblue" stroke="midnightblue" points="300.7,-387.63 293.34,-395.26 303.85,-393.88 300.7,-387.63"/>
</g>
<!-- Node130 -->
<g id="node17" class="node">
<title>Node130</title>
<g id="a_node17"><a xlink:title=" ">
<polygon fill="white" stroke="#bfbfbf" points="172,-354 172,-373 300,-373 300,-354 172,-354"/>
<text text-anchor="middle" x="236" y="-361" font-family="Helvetica,sans-Serif" font-size="10.00">RefcountedKeyedService</text>
</a>
</g>
</g>
<!-- Node130&#45;&gt;Node45 -->
<g id="edge16" class="edge">
<title>Node130&#45;&gt;Node45</title>
<path fill="none" stroke="midnightblue" d="M310.14,-363.5C332.19,-363.5 355.81,-363.5 375.76,-363.5"/>
<polygon fill="midnightblue" stroke="midnightblue" points="310.14,-360 300.14,-363.5 310.14,-367 310.14,-360"/>
</g>
<!-- Node175 -->
<g id="node18" class="node">
<title>Node175</title>
<g id="a_node18"><a xlink:title=" ">
<polygon fill="white" stroke="#bfbfbf" points="176,-50 176,-69 296,-69 296,-50 176,-50"/>
<text text-anchor="middle" x="236" y="-57" font-family="Helvetica,sans-Serif" font-size="10.00">base::SupportsWeakPtr</text>
</a>
</g>
</g>
<!-- Node175&#45;&gt;Node44 -->
<g id="edge17" class="edge">
<title>Node175&#45;&gt;Node44</title>
<path fill="none" stroke="midnightblue" d="M288,-73.12C297.83,-77.84 307.18,-84.13 314,-92.5 364.44,-154.39 295.01,-210.62 350,-268.5 356.08,-274.9 364.02,-279.25 372.41,-282.19"/>
<polygon fill="midnightblue" stroke="midnightblue" points="289.07,-69.77 278.5,-69.07 286.32,-76.21 289.07,-69.77"/>
</g>
<!-- Node176 -->
<g id="node19" class="node">
<title>Node176</title>
<g id="a_node19"><a xlink:href="dc/d81/classOmniboxEditController.html" target="_top" xlink:title=" ">
<polygon fill="white" stroke="black" points="367,-50 367,-69 482,-69 482,-50 367,-50"/>
<text text-anchor="middle" x="424.5" y="-57" font-family="Helvetica,sans-Serif" font-size="10.00">OmniboxEditController</text>
</a>
</g>
</g>
<!-- Node175&#45;&gt;Node176 -->
<g id="edge18" class="edge">
<title>Node175&#45;&gt;Node176</title>
<path fill="none" stroke="midnightblue" d="M306.27,-59.5C326.2,-59.5 347.71,-59.5 366.78,-59.5"/>
<polygon fill="midnightblue" stroke="midnightblue" points="306.01,-56 296.01,-59.5 306.01,-63 306.01,-56"/>
</g>
<!-- Node178 -->
<g id="node21" class="node">
<title>Node178</title>
<g id="a_node21"><a xlink:href="d5/dd7/classOmniboxPopupContentsView_1_1AutocompletePopupWidget.html" target="_top" xlink:title=" ">
<polygon fill="white" stroke="black" points="352,-0.5 352,-30.5 497,-30.5 497,-0.5 352,-0.5"/>
<text text-anchor="start" x="360" y="-18.5" font-family="Helvetica,sans-Serif" font-size="10.00">OmniboxPopupContentsView</text>
<text text-anchor="middle" x="424.5" y="-7.5" font-family="Helvetica,sans-Serif" font-size="10.00">::AutocompletePopupWidget</text>
</a>
</g>
</g>
<!-- Node175&#45;&gt;Node178 -->
<g id="edge20" class="edge">
<title>Node175&#45;&gt;Node178</title>
<path fill="none" stroke="midnightblue" d="M287.37,-47.62C309.62,-42.37 336.03,-36.14 359.64,-30.57"/>
<polygon fill="midnightblue" stroke="midnightblue" points="286.4,-44.25 277.47,-49.95 288,-51.06 286.4,-44.25"/>
</g>
<!-- Node177 -->
<g id="node20" class="node">
<title>Node177</title>
<g id="a_node20"><a xlink:href="d4/d38/classChromeOmniboxEditController.html" target="_top" xlink:title=" ">
<polygon fill="white" stroke="black" points="535,-50 535,-69 684,-69 684,-50 535,-50"/>
<text text-anchor="middle" x="609.5" y="-57" font-family="Helvetica,sans-Serif" font-size="10.00">ChromeOmniboxEditController</text>
</a>
</g>
</g>
<!-- Node176&#45;&gt;Node177 -->
<g id="edge19" class="edge">
<title>Node176&#45;&gt;Node177</title>
<path fill="none" stroke="midnightblue" d="M492.7,-59.5C506.4,-59.5 520.88,-59.5 534.79,-59.5"/>
<polygon fill="midnightblue" stroke="midnightblue" points="492.4,-56 482.4,-59.5 492.4,-63 492.4,-56"/>
</g>
<!-- Node186 -->
<g id="node22" class="node">
<title>Node186</title>
<g id="a_node22"><a xlink:title=" ">
<polygon fill="white" stroke="#bfbfbf" points="179.5,-6 179.5,-25 292.5,-25 292.5,-6 179.5,-6"/>
<text text-anchor="middle" x="236" y="-13" font-family="Helvetica,sans-Serif" font-size="10.00">ThemeCopyingWidget</text>
</a>
</g>
</g>
<!-- Node186&#45;&gt;Node178 -->
<g id="edge21" class="edge">
<title>Node186&#45;&gt;Node178</title>
<path fill="none" stroke="midnightblue" d="M302.92,-15.5C318.76,-15.5 335.75,-15.5 351.83,-15.5"/>
<polygon fill="midnightblue" stroke="midnightblue" points="302.7,-12 292.7,-15.5 302.7,-19 302.7,-12"/>
</g>
</g>
</svg>
