<?xml version="1.0" encoding="UTF-8" standalone="no"?>
<!DOCTYPE svg PUBLIC "-//W3C//DTD SVG 1.1//EN"
 "http://www.w3.org/Graphics/SVG/1.1/DTD/svg11.dtd">
<!-- Generated by graphviz version 2.43.0 (0)
 -->
<!-- Title: Graphical Class Hierarchy Pages: 1 -->
<svg width="350pt" height="344pt"
 viewBox="0.00 0.00 350.00 343.50" xmlns="http://www.w3.org/2000/svg" xmlns:xlink="http://www.w3.org/1999/xlink">
<g id="graph0" class="graph" transform="scale(1 1) rotate(0) translate(4 339.5)">
<title>Graphical Class Hierarchy</title>
<polygon fill="white" stroke="transparent" points="-4,4 -4,-339.5 346,-339.5 346,4 -4,4"/>
<!-- Node2 -->
<g id="node1" class="node">
<title>Node2</title>
<g id="a_node1"><a xlink:title=" ">
<polygon fill="white" stroke="#bfbfbf" points="0,-305 0,-335 131,-335 131,-305 0,-305"/>
<text text-anchor="start" x="8" y="-323" font-family="Helvetica,sans-Serif" font-size="10.00">views::AnimationDelegate</text>
<text text-anchor="middle" x="65.5" y="-312" font-family="Helvetica,sans-Serif" font-size="10.00">Views</text>
</a>
</g>
</g>
<!-- Node0 -->
<g id="node2" class="node">
<title>Node0</title>
<g id="a_node2"><a xlink:href="d3/d4c/classOmniboxResultView.html" target="_top" xlink:title=" ">
<polygon fill="white" stroke="black" points="201.5,-307.5 201.5,-326.5 307.5,-326.5 307.5,-307.5 201.5,-307.5"/>
<text text-anchor="middle" x="254.5" y="-314.5" font-family="Helvetica,sans-Serif" font-size="10.00">OmniboxResultView</text>
</a>
</g>
</g>
<!-- Node2&#45;&gt;Node0 -->
<g id="edge1" class="edge">
<title>Node2&#45;&gt;Node0</title>
<path fill="none" stroke="midnightblue" d="M141.19,-318.8C161.31,-318.48 182.64,-318.14 201.25,-317.84"/>
<polygon fill="midnightblue" stroke="midnightblue" points="141.06,-315.3 131.12,-318.96 141.17,-322.3 141.06,-315.3"/>
</g>
<!-- Node85 -->
<g id="node3" class="node">
<title>Node85</title>
<g id="a_node3"><a xlink:href="db/de1/classOmniboxPopupView.html" target="_top" xlink:title=" ">
<polygon fill="white" stroke="black" points="13,-266.5 13,-285.5 118,-285.5 118,-266.5 13,-266.5"/>
<text text-anchor="middle" x="65.5" y="-273.5" font-family="Helvetica,sans-Serif" font-size="10.00">OmniboxPopupView</text>
</a>
</g>
</g>
<!-- Node86 -->
<g id="node4" class="node">
<title>Node86</title>
<g id="a_node4"><a xlink:href="d7/d88/classOmniboxPopupContentsView.html" target="_top" xlink:title=" ">
<polygon fill="white" stroke="black" points="182,-266.5 182,-285.5 327,-285.5 327,-266.5 182,-266.5"/>
<text text-anchor="middle" x="254.5" y="-273.5" font-family="Helvetica,sans-Serif" font-size="10.00">OmniboxPopupContentsView</text>
</a>
</g>
</g>
<!-- Node85&#45;&gt;Node86 -->
<g id="edge2" class="edge">
<title>Node85&#45;&gt;Node86</title>
<path fill="none" stroke="midnightblue" d="M128.49,-276C145.56,-276 164.21,-276 181.78,-276"/>
<polygon fill="midnightblue" stroke="midnightblue" points="128.09,-272.5 118.09,-276 128.09,-279.5 128.09,-272.5"/>
</g>
<!-- Node191 -->
<g id="node5" class="node">
<title>Node191</title>
<g id="a_node5"><a xlink:title=" ">
<polygon fill="white" stroke="#bfbfbf" points="30.5,-152.5 30.5,-171.5 100.5,-171.5 100.5,-152.5 30.5,-152.5"/>
<text text-anchor="middle" x="65.5" y="-159.5" font-family="Helvetica,sans-Serif" font-size="10.00">views::View</text>
</a>
</g>
</g>
<!-- Node191&#45;&gt;Node0 -->
<g id="edge6" class="edge">
<title>Node191&#45;&gt;Node0</title>
<path fill="none" stroke="midnightblue" d="M88.62,-177.86C102.14,-188.37 119.07,-203.13 131,-219 153.46,-248.87 138.14,-271.25 167,-295 176.69,-302.98 188.91,-308.11 201.08,-311.4"/>
<polygon fill="midnightblue" stroke="midnightblue" points="90.41,-174.82 80.32,-171.59 86.19,-180.4 90.41,-174.82"/>
</g>
<!-- Node191&#45;&gt;Node86 -->
<g id="edge4" class="edge">
<title>Node191&#45;&gt;Node86</title>
<path fill="none" stroke="midnightblue" d="M86.05,-178.48C99.05,-189.64 116.36,-204.86 131,-219 147.73,-235.16 146.75,-245.56 167,-257 173.83,-260.86 181.37,-263.93 189.06,-266.38"/>
<polygon fill="midnightblue" stroke="midnightblue" points="88.08,-175.61 78.19,-171.79 83.54,-180.94 88.08,-175.61"/>
</g>
<!-- Node192 -->
<g id="node6" class="node">
<title>Node192</title>
<g id="a_node6"><a xlink:href="d2/d0b/classOmniboxMatchCellView.html" target="_top" xlink:title=" ">
<polygon fill="white" stroke="black" points="193.5,-0.5 193.5,-19.5 315.5,-19.5 315.5,-0.5 193.5,-0.5"/>
<text text-anchor="middle" x="254.5" y="-7.5" font-family="Helvetica,sans-Serif" font-size="10.00">OmniboxMatchCellView</text>
</a>
</g>
</g>
<!-- Node191&#45;&gt;Node192 -->
<g id="edge3" class="edge">
<title>Node191&#45;&gt;Node192</title>
<path fill="none" stroke="midnightblue" d="M75.17,-143.31C89.77,-114.04 122.1,-57.78 167,-29 174.9,-23.94 183.94,-20.21 193.14,-17.47"/>
<polygon fill="midnightblue" stroke="midnightblue" points="71.96,-141.92 70.76,-152.44 78.26,-144.96 71.96,-141.92"/>
</g>
<!-- Node193 -->
<g id="node7" class="node">
<title>Node193</title>
<g id="a_node7"><a xlink:href="dd/dc5/classOmniboxResultSelectionIndicator.html" target="_top" xlink:title=" ">
<polygon fill="white" stroke="black" points="173.5,-228.5 173.5,-247.5 335.5,-247.5 335.5,-228.5 173.5,-228.5"/>
<text text-anchor="middle" x="254.5" y="-235.5" font-family="Helvetica,sans-Serif" font-size="10.00">OmniboxResultSelectionIndicator</text>
</a>
</g>
</g>
<!-- Node191&#45;&gt;Node193 -->
<g id="edge5" class="edge">
<title>Node191&#45;&gt;Node193</title>
<path fill="none" stroke="midnightblue" d="M88.71,-177.19C108.46,-190.05 138.54,-208.09 167,-219 176.91,-222.8 187.76,-225.93 198.32,-228.48"/>
<polygon fill="midnightblue" stroke="midnightblue" points="90.42,-174.12 80.15,-171.52 86.55,-179.96 90.42,-174.12"/>
</g>
<!-- Node194 -->
<g id="node8" class="node">
<title>Node194</title>
<g id="a_node8"><a xlink:href="da/da2/classOmniboxRowView.html" target="_top" xlink:title=" ">
<polygon fill="white" stroke="black" points="205.5,-190.5 205.5,-209.5 303.5,-209.5 303.5,-190.5 205.5,-190.5"/>
<text text-anchor="middle" x="254.5" y="-197.5" font-family="Helvetica,sans-Serif" font-size="10.00">OmniboxRowView</text>
</a>
</g>
</g>
<!-- Node191&#45;&gt;Node194 -->
<g id="edge7" class="edge">
<title>Node191&#45;&gt;Node194</title>
<path fill="none" stroke="midnightblue" d="M110.63,-170.97C139.55,-176.84 177.31,-184.52 206.74,-190.5"/>
<polygon fill="midnightblue" stroke="midnightblue" points="111.3,-167.53 100.8,-168.97 109.9,-174.39 111.3,-167.53"/>
</g>
<!-- Node195 -->
<g id="node9" class="node">
<title>Node195</title>
<g id="a_node9"><a xlink:href="d2/dcb/classOmniboxRowView_1_1HeaderView.html" target="_top" xlink:title=" ">
<polygon fill="white" stroke="black" points="176,-152.5 176,-171.5 333,-171.5 333,-152.5 176,-152.5"/>
<text text-anchor="middle" x="254.5" y="-159.5" font-family="Helvetica,sans-Serif" font-size="10.00">OmniboxRowView::HeaderView</text>
</a>
</g>
</g>
<!-- Node191&#45;&gt;Node195 -->
<g id="edge8" class="edge">
<title>Node191&#45;&gt;Node195</title>
<path fill="none" stroke="midnightblue" d="M110.88,-162C130.35,-162 153.79,-162 175.99,-162"/>
<polygon fill="midnightblue" stroke="midnightblue" points="110.8,-158.5 100.8,-162 110.8,-165.5 110.8,-158.5"/>
</g>
<!-- Node196 -->
<g id="node10" class="node">
<title>Node196</title>
<g id="a_node10"><a xlink:href="d3/d0a/classOmniboxSuggestionButtonRowView.html" target="_top" xlink:title=" ">
<polygon fill="white" stroke="black" points="167,-114.5 167,-133.5 342,-133.5 342,-114.5 167,-114.5"/>
<text text-anchor="middle" x="254.5" y="-121.5" font-family="Helvetica,sans-Serif" font-size="10.00">OmniboxSuggestionButtonRowView</text>
</a>
</g>
</g>
<!-- Node191&#45;&gt;Node196 -->
<g id="edge9" class="edge">
<title>Node191&#45;&gt;Node196</title>
<path fill="none" stroke="midnightblue" d="M110.63,-153.03C139.55,-147.16 177.31,-139.48 206.74,-133.5"/>
<polygon fill="midnightblue" stroke="midnightblue" points="109.9,-149.61 100.8,-155.03 111.3,-156.47 109.9,-149.61"/>
</g>
<!-- Node197 -->
<g id="node11" class="node">
<title>Node197</title>
<g id="a_node11"><a xlink:href="df/d61/classOmniboxTextView.html" target="_top" xlink:title=" ">
<polygon fill="white" stroke="black" points="206.5,-76.5 206.5,-95.5 302.5,-95.5 302.5,-76.5 206.5,-76.5"/>
<text text-anchor="middle" x="254.5" y="-83.5" font-family="Helvetica,sans-Serif" font-size="10.00">OmniboxTextView</text>
</a>
</g>
</g>
<!-- Node191&#45;&gt;Node197 -->
<g id="edge10" class="edge">
<title>Node191&#45;&gt;Node197</title>
<path fill="none" stroke="midnightblue" d="M88.71,-146.81C108.46,-133.95 138.54,-115.91 167,-105 179.35,-100.27 193.16,-96.57 206.06,-93.75"/>
<polygon fill="midnightblue" stroke="midnightblue" points="86.55,-144.04 80.15,-152.48 90.42,-149.88 86.55,-144.04"/>
</g>
<!-- Node198 -->
<g id="node12" class="node">
<title>Node198</title>
<g id="a_node12"><a xlink:href="d5/d4e/classRoundedOmniboxResultsFrame.html" target="_top" xlink:title=" ">
<polygon fill="white" stroke="black" points="176.5,-38.5 176.5,-57.5 332.5,-57.5 332.5,-38.5 176.5,-38.5"/>
<text text-anchor="middle" x="254.5" y="-45.5" font-family="Helvetica,sans-Serif" font-size="10.00">RoundedOmniboxResultsFrame</text>
</a>
</g>
</g>
<!-- Node191&#45;&gt;Node198 -->
<g id="edge11" class="edge">
<title>Node191&#45;&gt;Node198</title>
<path fill="none" stroke="midnightblue" d="M79.99,-144.37C97.58,-122.67 130.44,-86.35 167,-67 174.34,-63.12 182.43,-60.03 190.63,-57.57"/>
<polygon fill="midnightblue" stroke="midnightblue" points="77.08,-142.4 73.62,-152.42 82.57,-146.75 77.08,-142.4"/>
</g>
<!-- Node205 -->
<g id="node13" class="node">
<title>Node205</title>
<g id="a_node13"><a xlink:title=" ">
<polygon fill="white" stroke="#bfbfbf" points="6,-228.5 6,-247.5 125,-247.5 125,-228.5 6,-228.5"/>
<text text-anchor="middle" x="65.5" y="-235.5" font-family="Helvetica,sans-Serif" font-size="10.00">views::WidgetObserver</text>
</a>
</g>
</g>
<!-- Node205&#45;&gt;Node86 -->
<g id="edge12" class="edge">
<title>Node205&#45;&gt;Node86</title>
<path fill="none" stroke="midnightblue" d="M123.63,-249.61C150.23,-255.01 181.47,-261.36 206.65,-266.48"/>
<polygon fill="midnightblue" stroke="midnightblue" points="124.18,-246.15 113.69,-247.59 122.79,-253.01 124.18,-246.15"/>
</g>
</g>
</svg>
