<?xml version="1.0" encoding="UTF-8" standalone="no"?>
<!DOCTYPE svg PUBLIC "-//W3C//DTD SVG 1.1//EN"
 "http://www.w3.org/Graphics/SVG/1.1/DTD/svg11.dtd">
<!-- Generated by graphviz version 2.43.0 (0)
 -->
<!-- Title: Graphical Class Hierarchy Pages: 1 -->
<svg width="507pt" height="457pt"
 viewBox="0.00 0.00 507.00 457.00" xmlns="http://www.w3.org/2000/svg" xmlns:xlink="http://www.w3.org/1999/xlink">
<g id="graph0" class="graph" transform="scale(1 1) rotate(0) translate(4 453)">
<title>Graphical Class Hierarchy</title>
<polygon fill="white" stroke="transparent" points="-4,4 -4,-453 503,-453 503,4 -4,4"/>
<!-- Node0 -->
<g id="node1" class="node">
<title>Node0</title>
<g id="a_node1"><a xlink:href="dc/dce/classAutocompleteProviderListener.html" target="_top" xlink:title=" ">
<polygon fill="white" stroke="black" points="162.5,-429.5 162.5,-448.5 309.5,-448.5 309.5,-429.5 162.5,-429.5"/>
<text text-anchor="middle" x="236" y="-436.5" font-family="Helvetica,sans-Serif" font-size="10.00">AutocompleteProviderListener</text>
</a>
</g>
</g>
<!-- Node1 -->
<g id="node2" class="node">
<title>Node1</title>
<g id="a_node2"><a xlink:href="df/d4d/classAutocompleteController.html" target="_top" xlink:title=" ">
<polygon fill="white" stroke="black" points="365,-407.5 365,-426.5 484,-426.5 484,-407.5 365,-407.5"/>
<text text-anchor="middle" x="424.5" y="-414.5" font-family="Helvetica,sans-Serif" font-size="10.00">AutocompleteController</text>
</a>
</g>
</g>
<!-- Node0&#45;&gt;Node1 -->
<g id="edge1" class="edge">
<title>Node0&#45;&gt;Node1</title>
<path fill="none" stroke="midnightblue" d="M319.6,-429.26C334.87,-427.46 350.52,-425.61 364.89,-423.91"/>
<polygon fill="midnightblue" stroke="midnightblue" points="319.16,-425.78 309.64,-430.43 319.98,-432.74 319.16,-425.78"/>
</g>
<!-- Node18 -->
<g id="node3" class="node">
<title>Node18</title>
<g id="a_node3"><a xlink:title=" ">
<polygon fill="white" stroke="#bfbfbf" points="0,-22.5 0,-41.5 122,-41.5 122,-22.5 0,-22.5"/>
<text text-anchor="middle" x="61" y="-29.5" font-family="Helvetica,sans-Serif" font-size="10.00">base::CheckedObserver</text>
</a>
</g>
</g>
<!-- Node19 -->
<g id="node4" class="node">
<title>Node19</title>
<g id="a_node4"><a xlink:href="d2/d30/classAutocompleteController_1_1Observer.html" target="_top" xlink:title=" ">
<polygon fill="white" stroke="black" points="176.5,-39 176.5,-69 295.5,-69 295.5,-39 176.5,-39"/>
<text text-anchor="start" x="184.5" y="-57" font-family="Helvetica,sans-Serif" font-size="10.00">AutocompleteController</text>
<text text-anchor="middle" x="236" y="-46" font-family="Helvetica,sans-Serif" font-size="10.00">::Observer</text>
</a>
</g>
</g>
<!-- Node18&#45;&gt;Node19 -->
<g id="edge2" class="edge">
<title>Node18&#45;&gt;Node19</title>
<path fill="none" stroke="midnightblue" d="M132.05,-40.91C146.72,-42.77 162.05,-44.72 176.25,-46.53"/>
<polygon fill="midnightblue" stroke="midnightblue" points="132.38,-37.42 122.02,-39.63 131.5,-44.37 132.38,-37.42"/>
</g>
<!-- Node22 -->
<g id="node7" class="node">
<title>Node22</title>
<g id="a_node7"><a xlink:href="d2/d31/classOmniboxTabHelper_1_1Observer.html" target="_top" xlink:title=" ">
<polygon fill="white" stroke="black" points="163,-0.5 163,-19.5 309,-19.5 309,-0.5 163,-0.5"/>
<text text-anchor="middle" x="236" y="-7.5" font-family="Helvetica,sans-Serif" font-size="10.00">OmniboxTabHelper::Observer</text>
</a>
</g>
</g>
<!-- Node18&#45;&gt;Node22 -->
<g id="edge5" class="edge">
<title>Node18&#45;&gt;Node22</title>
<path fill="none" stroke="midnightblue" d="M132.05,-23.09C142.21,-21.8 152.68,-20.47 162.87,-19.17"/>
<polygon fill="midnightblue" stroke="midnightblue" points="131.5,-19.63 122.02,-24.37 132.38,-26.58 131.5,-19.63"/>
</g>
<!-- Node20 -->
<g id="node5" class="node">
<title>Node20</title>
<g id="a_node5"><a xlink:href="d5/d13/classOmniboxController.html" target="_top" xlink:title=" ">
<polygon fill="white" stroke="black" points="375.5,-25.5 375.5,-44.5 473.5,-44.5 473.5,-25.5 375.5,-25.5"/>
<text text-anchor="middle" x="424.5" y="-32.5" font-family="Helvetica,sans-Serif" font-size="10.00">OmniboxController</text>
</a>
</g>
</g>
<!-- Node19&#45;&gt;Node20 -->
<g id="edge3" class="edge">
<title>Node19&#45;&gt;Node20</title>
<path fill="none" stroke="midnightblue" d="M305.84,-46.99C328.94,-44.63 354.18,-42.06 375.34,-39.91"/>
<polygon fill="midnightblue" stroke="midnightblue" points="305.35,-43.52 295.75,-48.01 306.06,-50.48 305.35,-43.52"/>
</g>
<!-- Node21 -->
<g id="node6" class="node">
<title>Node21</title>
<g id="a_node6"><a xlink:href="dd/d1c/classOmniboxControllerEmitter.html" target="_top" xlink:title=" ">
<polygon fill="white" stroke="black" points="360,-63.5 360,-82.5 489,-82.5 489,-63.5 360,-63.5"/>
<text text-anchor="middle" x="424.5" y="-70.5" font-family="Helvetica,sans-Serif" font-size="10.00">OmniboxControllerEmitter</text>
</a>
</g>
</g>
<!-- Node19&#45;&gt;Node21 -->
<g id="edge4" class="edge">
<title>Node19&#45;&gt;Node21</title>
<path fill="none" stroke="midnightblue" d="M305.98,-61.03C323.62,-62.82 342.51,-64.75 359.87,-66.52"/>
<polygon fill="midnightblue" stroke="midnightblue" points="306.06,-57.52 295.75,-59.99 305.35,-64.48 306.06,-57.52"/>
</g>
<!-- Node43 -->
<g id="node8" class="node">
<title>Node43</title>
<g id="a_node8"><a xlink:title=" ">
<polygon fill="white" stroke="#bfbfbf" points="158,-303.5 158,-322.5 314,-322.5 314,-303.5 158,-303.5"/>
<text text-anchor="middle" x="236" y="-310.5" font-family="Helvetica,sans-Serif" font-size="10.00">history::HistoryServiceObserver</text>
</a>
</g>
</g>
<!-- Node44 -->
<g id="node9" class="node">
<title>Node44</title>
<g id="a_node9"><a xlink:href="da/db7/classFaviconCache.html" target="_top" xlink:title=" ">
<polygon fill="white" stroke="black" points="384.5,-303.5 384.5,-322.5 464.5,-322.5 464.5,-303.5 384.5,-303.5"/>
<text text-anchor="middle" x="424.5" y="-310.5" font-family="Helvetica,sans-Serif" font-size="10.00">FaviconCache</text>
</a>
</g>
</g>
<!-- Node43&#45;&gt;Node44 -->
<g id="edge6" class="edge">
<title>Node43&#45;&gt;Node44</title>
<path fill="none" stroke="midnightblue" d="M324.46,-313C345.46,-313 366.85,-313 384.35,-313"/>
<polygon fill="midnightblue" stroke="midnightblue" points="324.2,-309.5 314.2,-313 324.2,-316.5 324.2,-309.5"/>
</g>
<!-- Node45 -->
<g id="node10" class="node">
<title>Node45</title>
<g id="a_node10"><a xlink:href="dd/d7d/classInMemoryURLIndex.html" target="_top" xlink:title=" ">
<polygon fill="white" stroke="black" points="372.5,-265.5 372.5,-284.5 476.5,-284.5 476.5,-265.5 372.5,-265.5"/>
<text text-anchor="middle" x="424.5" y="-272.5" font-family="Helvetica,sans-Serif" font-size="10.00">InMemoryURLIndex</text>
</a>
</g>
</g>
<!-- Node43&#45;&gt;Node45 -->
<g id="edge7" class="edge">
<title>Node43&#45;&gt;Node45</title>
<path fill="none" stroke="midnightblue" d="M293.98,-301.39C320.5,-295.99 351.67,-289.64 376.78,-284.52"/>
<polygon fill="midnightblue" stroke="midnightblue" points="293.16,-297.98 284.06,-303.41 294.56,-304.84 293.16,-297.98"/>
</g>
<!-- Node46 -->
<g id="node11" class="node">
<title>Node46</title>
<g id="a_node11"><a xlink:href="d3/d69/classShortcutsBackend.html" target="_top" xlink:title=" ">
<polygon fill="white" stroke="black" points="376,-341.5 376,-360.5 473,-360.5 473,-341.5 376,-341.5"/>
<text text-anchor="middle" x="424.5" y="-348.5" font-family="Helvetica,sans-Serif" font-size="10.00">ShortcutsBackend</text>
</a>
</g>
</g>
<!-- Node43&#45;&gt;Node46 -->
<g id="edge8" class="edge">
<title>Node43&#45;&gt;Node46</title>
<path fill="none" stroke="midnightblue" d="M293.98,-324.61C320.5,-330.01 351.67,-336.36 376.78,-341.48"/>
<polygon fill="midnightblue" stroke="midnightblue" points="294.56,-321.16 284.06,-322.59 293.16,-328.02 294.56,-321.16"/>
</g>
<!-- Node53 -->
<g id="node12" class="node">
<title>Node53</title>
<g id="a_node12"><a xlink:title=" ">
<polygon fill="white" stroke="#bfbfbf" points="197.5,-139.5 197.5,-158.5 274.5,-158.5 274.5,-139.5 197.5,-139.5"/>
<text text-anchor="middle" x="236" y="-146.5" font-family="Helvetica,sans-Serif" font-size="10.00">KeyedService</text>
</a>
</g>
</g>
<!-- Node53&#45;&gt;Node21 -->
<g id="edge12" class="edge">
<title>Node53&#45;&gt;Node21</title>
<path fill="none" stroke="midnightblue" d="M262.21,-134.31C284.66,-121.71 318.69,-103.79 350,-92 359.62,-88.38 370.2,-85.2 380.27,-82.53"/>
<polygon fill="midnightblue" stroke="midnightblue" points="260.31,-131.37 253.34,-139.35 263.76,-137.45 260.31,-131.37"/>
</g>
<!-- Node53&#45;&gt;Node45 -->
<g id="edge11" class="edge">
<title>Node53&#45;&gt;Node45</title>
<path fill="none" stroke="midnightblue" d="M258.35,-164.73C274.33,-176.9 296.38,-194.58 314,-212 331.72,-229.52 329.01,-241.56 350,-255 356.79,-259.35 364.52,-262.76 372.35,-265.44"/>
<polygon fill="midnightblue" stroke="midnightblue" points="260.26,-161.78 250.16,-158.56 256.05,-167.37 260.26,-161.78"/>
</g>
<!-- Node54 -->
<g id="node13" class="node">
<title>Node54</title>
<g id="a_node13"><a xlink:href="d3/dd0/classAutocompleteClassifier.html" target="_top" xlink:title=" ">
<polygon fill="white" stroke="black" points="365.5,-139.5 365.5,-158.5 483.5,-158.5 483.5,-139.5 365.5,-139.5"/>
<text text-anchor="middle" x="424.5" y="-146.5" font-family="Helvetica,sans-Serif" font-size="10.00">AutocompleteClassifier</text>
</a>
</g>
</g>
<!-- Node53&#45;&gt;Node54 -->
<g id="edge9" class="edge">
<title>Node53&#45;&gt;Node54</title>
<path fill="none" stroke="midnightblue" d="M284.88,-149C309.38,-149 339.4,-149 365.24,-149"/>
<polygon fill="midnightblue" stroke="midnightblue" points="284.74,-145.5 274.74,-149 284.74,-152.5 284.74,-145.5"/>
</g>
<!-- Node55 -->
<g id="node14" class="node">
<title>Node55</title>
<g id="a_node14"><a xlink:href="d3/d19/classDocumentSuggestionsService.html" target="_top" xlink:title=" ">
<polygon fill="white" stroke="black" points="350,-101.5 350,-120.5 499,-120.5 499,-101.5 350,-101.5"/>
<text text-anchor="middle" x="424.5" y="-108.5" font-family="Helvetica,sans-Serif" font-size="10.00">DocumentSuggestionsService</text>
</a>
</g>
</g>
<!-- Node53&#45;&gt;Node55 -->
<g id="edge10" class="edge">
<title>Node53&#45;&gt;Node55</title>
<path fill="none" stroke="midnightblue" d="M284.77,-139.27C312.96,-133.52 348.49,-126.28 376.54,-120.57"/>
<polygon fill="midnightblue" stroke="midnightblue" points="283.84,-135.88 274.74,-141.31 285.24,-142.74 283.84,-135.88"/>
</g>
<!-- Node56 -->
<g id="node15" class="node">
<title>Node56</title>
<g id="a_node15"><a xlink:href="d2/de7/classRemoteSuggestionsService.html" target="_top" xlink:title=" ">
<polygon fill="white" stroke="black" points="355.5,-177.5 355.5,-196.5 493.5,-196.5 493.5,-177.5 355.5,-177.5"/>
<text text-anchor="middle" x="424.5" y="-184.5" font-family="Helvetica,sans-Serif" font-size="10.00">RemoteSuggestionsService</text>
</a>
</g>
</g>
<!-- Node53&#45;&gt;Node56 -->
<g id="edge13" class="edge">
<title>Node53&#45;&gt;Node56</title>
<path fill="none" stroke="midnightblue" d="M284.77,-158.73C312.96,-164.48 348.49,-171.72 376.54,-177.43"/>
<polygon fill="midnightblue" stroke="midnightblue" points="285.24,-155.26 274.74,-156.69 283.84,-162.12 285.24,-155.26"/>
</g>
<!-- Node66 -->
<g id="node16" class="node">
<title>Node66</title>
<g id="a_node16"><a xlink:title=" ">
<polygon fill="white" stroke="#bfbfbf" points="179,-380 179,-410 293,-410 293,-380 179,-380"/>
<text text-anchor="start" x="187" y="-398" font-family="Helvetica,sans-Serif" font-size="10.00">base::trace_event::</text>
<text text-anchor="middle" x="236" y="-387" font-family="Helvetica,sans-Serif" font-size="10.00">MemoryDumpProvider</text>
</a>
</g>
</g>
<!-- Node66&#45;&gt;Node1 -->
<g id="edge14" class="edge">
<title>Node66&#45;&gt;Node1</title>
<path fill="none" stroke="midnightblue" d="M303.22,-402.81C323.32,-405.18 345.25,-407.77 364.82,-410.08"/>
<polygon fill="midnightblue" stroke="midnightblue" points="303.55,-399.33 293.21,-401.63 302.73,-406.28 303.55,-399.33"/>
</g>
<!-- Node66&#45;&gt;Node45 -->
<g id="edge15" class="edge">
<title>Node66&#45;&gt;Node45</title>
<path fill="none" stroke="midnightblue" d="M302.58,-378.1C306.66,-375.74 310.52,-373.06 314,-370 342.07,-345.32 321.19,-317.81 350,-294 356.5,-288.63 364.35,-284.75 372.46,-281.96"/>
<polygon fill="midnightblue" stroke="midnightblue" points="300.7,-375.13 293.34,-382.76 303.85,-381.38 300.7,-375.13"/>
</g>
<!-- Node132 -->
<g id="node17" class="node">
<title>Node132</title>
<g id="a_node17"><a xlink:title=" ">
<polygon fill="white" stroke="#bfbfbf" points="172,-341.5 172,-360.5 300,-360.5 300,-341.5 172,-341.5"/>
<text text-anchor="middle" x="236" y="-348.5" font-family="Helvetica,sans-Serif" font-size="10.00">RefcountedKeyedService</text>
</a>
</g>
</g>
<!-- Node132&#45;&gt;Node46 -->
<g id="edge16" class="edge">
<title>Node132&#45;&gt;Node46</title>
<path fill="none" stroke="midnightblue" d="M310.14,-351C332.19,-351 355.81,-351 375.76,-351"/>
<polygon fill="midnightblue" stroke="midnightblue" points="310.14,-347.5 300.14,-351 310.14,-354.5 310.14,-347.5"/>
</g>
<!-- Node178 -->
<g id="node18" class="node">
<title>Node178</title>
<g id="a_node18"><a xlink:title=" ">
<polygon fill="white" stroke="#bfbfbf" points="176,-262.5 176,-281.5 296,-281.5 296,-262.5 176,-262.5"/>
<text text-anchor="middle" x="236" y="-269.5" font-family="Helvetica,sans-Serif" font-size="10.00">base::SupportsWeakPtr</text>
</a>
</g>
</g>
<!-- Node178&#45;&gt;Node45 -->
<g id="edge17" class="edge">
<title>Node178&#45;&gt;Node45</title>
<path fill="none" stroke="midnightblue" d="M306.26,-273.11C328.19,-273.47 352.01,-273.85 372.41,-274.18"/>
<polygon fill="midnightblue" stroke="midnightblue" points="306.06,-269.61 296.01,-272.95 305.95,-276.61 306.06,-269.61"/>
</g>
<!-- Node179 -->
<g id="node19" class="node">
<title>Node179</title>
<g id="a_node19"><a xlink:href="d5/dd7/classOmniboxPopupContentsView_1_1AutocompletePopupWidget.html" target="_top" xlink:title=" ">
<polygon fill="white" stroke="black" points="352,-216 352,-246 497,-246 497,-216 352,-216"/>
<text text-anchor="start" x="360" y="-234" font-family="Helvetica,sans-Serif" font-size="10.00">OmniboxPopupContentsView</text>
<text text-anchor="middle" x="424.5" y="-223" font-family="Helvetica,sans-Serif" font-size="10.00">::AutocompletePopupWidget</text>
</a>
</g>
</g>
<!-- Node178&#45;&gt;Node179 -->
<g id="edge18" class="edge">
<title>Node178&#45;&gt;Node179</title>
<path fill="none" stroke="midnightblue" d="M290.18,-260.31C310.32,-255.88 333.55,-250.77 354.91,-246.08"/>
<polygon fill="midnightblue" stroke="midnightblue" points="289.27,-256.93 280.26,-262.49 290.77,-263.76 289.27,-256.93"/>
</g>
<!-- Node187 -->
<g id="node20" class="node">
<title>Node187</title>
<g id="a_node20"><a xlink:title=" ">
<polygon fill="white" stroke="#bfbfbf" points="179.5,-221.5 179.5,-240.5 292.5,-240.5 292.5,-221.5 179.5,-221.5"/>
<text text-anchor="middle" x="236" y="-228.5" font-family="Helvetica,sans-Serif" font-size="10.00">ThemeCopyingWidget</text>
</a>
</g>
</g>
<!-- Node187&#45;&gt;Node179 -->
<g id="edge19" class="edge">
<title>Node187&#45;&gt;Node179</title>
<path fill="none" stroke="midnightblue" d="M302.92,-231C318.76,-231 335.75,-231 351.83,-231"/>
<polygon fill="midnightblue" stroke="midnightblue" points="302.7,-227.5 292.7,-231 302.7,-234.5 302.7,-227.5"/>
</g>
</g>
</svg>
