<?xml version="1.0" encoding="UTF-8" standalone="no"?>
<!DOCTYPE svg PUBLIC "-//W3C//DTD SVG 1.1//EN"
 "http://www.w3.org/Graphics/SVG/1.1/DTD/svg11.dtd">
<!-- Generated by graphviz version 2.43.0 (0)
 -->
<!-- Title: OmniboxRowView::HeaderView::OnPrefChanged Pages: 1 -->
<svg width="725pt" height="137pt"
 viewBox="0.00 0.00 725.00 137.00" xmlns="http://www.w3.org/2000/svg" xmlns:xlink="http://www.w3.org/1999/xlink">
<g id="graph0" class="graph" transform="scale(1 1) rotate(0) translate(4 133)">
<title>OmniboxRowView::HeaderView::OnPrefChanged</title>
<polygon fill="white" stroke="transparent" points="-4,4 -4,-133 721,-133 721,4 -4,4"/>
<!-- Node1 -->
<g id="node1" class="node">
<title>Node1</title>
<g id="a_node1"><a xlink:title=" ">
<polygon fill="#bfbfbf" stroke="black" points="0,-73.5 0,-103.5 157,-103.5 157,-73.5 0,-73.5"/>
<text text-anchor="start" x="8" y="-91.5" font-family="Helvetica,sans-Serif" font-size="10.00">OmniboxRowView::HeaderView</text>
<text text-anchor="middle" x="78.5" y="-80.5" font-family="Helvetica,sans-Serif" font-size="10.00">::OnPrefChanged</text>
</a>
</g>
</g>
<!-- Node2 -->
<g id="node2" class="node">
<title>Node2</title>
<g id="a_node2"><a xlink:href="../../d3/d03/classAutocompleteResult.html#a1353d4a449288df34f1d6dd3eff73298" target="_top" xlink:title=" ">
<polygon fill="white" stroke="black" points="193,-98.5 193,-128.5 338,-128.5 338,-98.5 193,-98.5"/>
<text text-anchor="start" x="201" y="-116.5" font-family="Helvetica,sans-Serif" font-size="10.00">AutocompleteResult</text>
<text text-anchor="middle" x="265.5" y="-105.5" font-family="Helvetica,sans-Serif" font-size="10.00">::IsSuggestionGroupIdHidden</text>
</a>
</g>
</g>
<!-- Node1&#45;&gt;Node2 -->
<g id="edge1" class="edge">
<title>Node1&#45;&gt;Node2</title>
<path fill="none" stroke="midnightblue" d="M157.15,-98.99C165.68,-100.15 174.38,-101.32 182.96,-102.48"/>
<polygon fill="midnightblue" stroke="midnightblue" points="182.57,-105.96 192.95,-103.83 183.5,-99.02 182.57,-105.96"/>
</g>
<!-- Node4 -->
<g id="node4" class="node">
<title>Node4</title>
<g id="a_node4"><a xlink:href="../../d1/db1/classOmniboxPopupModel.html#a819a99147bf9bc6ad4f7096218a388b0" target="_top" xlink:title=" ">
<polygon fill="white" stroke="black" points="207.5,-49.5 207.5,-79.5 323.5,-79.5 323.5,-49.5 207.5,-49.5"/>
<text text-anchor="start" x="215.5" y="-67.5" font-family="Helvetica,sans-Serif" font-size="10.00">OmniboxPopupModel::</text>
<text text-anchor="middle" x="265.5" y="-56.5" font-family="Helvetica,sans-Serif" font-size="10.00">result</text>
</a>
</g>
</g>
<!-- Node1&#45;&gt;Node4 -->
<g id="edge3" class="edge">
<title>Node1&#45;&gt;Node4</title>
<path fill="none" stroke="midnightblue" d="M157.15,-78.43C170.42,-76.71 184.1,-74.93 197.07,-73.25"/>
<polygon fill="midnightblue" stroke="midnightblue" points="197.83,-76.68 207.3,-71.92 196.93,-69.74 197.83,-76.68"/>
</g>
<!-- Node3 -->
<g id="node3" class="node">
<title>Node3</title>
<g id="a_node3"><a xlink:href="../../d4/d19/namespaceomnibox.html#a416efcfe9398c882ad7a7c97b42578e1" target="_top" xlink:title=" ">
<polygon fill="white" stroke="black" points="374,-98.5 374,-128.5 517,-128.5 517,-98.5 374,-98.5"/>
<text text-anchor="start" x="382" y="-116.5" font-family="Helvetica,sans-Serif" font-size="10.00">omnibox::GetUserPreference</text>
<text text-anchor="middle" x="445.5" y="-105.5" font-family="Helvetica,sans-Serif" font-size="10.00">ForSuggestionGroupVisibility</text>
</a>
</g>
</g>
<!-- Node2&#45;&gt;Node3 -->
<g id="edge2" class="edge">
<title>Node2&#45;&gt;Node3</title>
<path fill="none" stroke="midnightblue" d="M338.13,-113.5C346.6,-113.5 355.29,-113.5 363.88,-113.5"/>
<polygon fill="midnightblue" stroke="midnightblue" points="363.89,-117 373.89,-113.5 363.89,-110 363.89,-117"/>
</g>
<!-- Node5 -->
<g id="node5" class="node">
<title>Node5</title>
<g id="a_node5"><a xlink:href="../../d1/db1/classOmniboxPopupModel.html#a15465ac89016d4717442d3be4e43f3ae" target="_top" xlink:title=" ">
<polygon fill="white" stroke="black" points="385.5,-49.5 385.5,-79.5 505.5,-79.5 505.5,-49.5 385.5,-49.5"/>
<text text-anchor="start" x="393.5" y="-67.5" font-family="Helvetica,sans-Serif" font-size="10.00">OmniboxPopupModel::</text>
<text text-anchor="middle" x="445.5" y="-56.5" font-family="Helvetica,sans-Serif" font-size="10.00">autocomplete_controller</text>
</a>
</g>
</g>
<!-- Node4&#45;&gt;Node5 -->
<g id="edge4" class="edge">
<title>Node4&#45;&gt;Node5</title>
<path fill="none" stroke="midnightblue" d="M323.8,-64.5C340.13,-64.5 358.09,-64.5 375.06,-64.5"/>
<polygon fill="midnightblue" stroke="midnightblue" points="375.47,-68 385.47,-64.5 375.47,-61 375.47,-68"/>
</g>
<!-- Node7 -->
<g id="node7" class="node">
<title>Node7</title>
<g id="a_node7"><a xlink:href="../../df/d4d/classAutocompleteController.html#a4aad481d8777819a1acec95affee80b2" target="_top" xlink:title=" ">
<polygon fill="white" stroke="black" points="386,-0.5 386,-30.5 505,-30.5 505,-0.5 386,-0.5"/>
<text text-anchor="start" x="394" y="-18.5" font-family="Helvetica,sans-Serif" font-size="10.00">AutocompleteController</text>
<text text-anchor="middle" x="445.5" y="-7.5" font-family="Helvetica,sans-Serif" font-size="10.00">::result</text>
</a>
</g>
</g>
<!-- Node4&#45;&gt;Node7 -->
<g id="edge6" class="edge">
<title>Node4&#45;&gt;Node7</title>
<path fill="none" stroke="midnightblue" d="M321.36,-49.4C339.89,-44.3 360.74,-38.56 379.95,-33.27"/>
<polygon fill="midnightblue" stroke="midnightblue" points="381.11,-36.58 389.82,-30.55 379.25,-29.83 381.11,-36.58"/>
</g>
<!-- Node6 -->
<g id="node6" class="node">
<title>Node6</title>
<g id="a_node6"><a xlink:href="../../d0/d22/classOmniboxEditModel.html#a8c8a925ee670cdc9bd5c0ad8b07fa1a0" target="_top" xlink:title=" ">
<polygon fill="white" stroke="black" points="553,-49.5 553,-79.5 717,-79.5 717,-49.5 553,-49.5"/>
<text text-anchor="start" x="561" y="-67.5" font-family="Helvetica,sans-Serif" font-size="10.00">OmniboxEditModel::autocomplete</text>
<text text-anchor="middle" x="635" y="-56.5" font-family="Helvetica,sans-Serif" font-size="10.00">_controller</text>
</a>
</g>
</g>
<!-- Node5&#45;&gt;Node6 -->
<g id="edge5" class="edge">
<title>Node5&#45;&gt;Node6</title>
<path fill="none" stroke="midnightblue" d="M505.57,-64.5C517.43,-64.5 530.15,-64.5 542.8,-64.5"/>
<polygon fill="midnightblue" stroke="midnightblue" points="542.92,-68 552.92,-64.5 542.92,-61 542.92,-68"/>
</g>
</g>
</svg>
