<?xml version="1.0" encoding="UTF-8" standalone="no"?>
<!DOCTYPE svg PUBLIC "-//W3C//DTD SVG 1.1//EN"
 "http://www.w3.org/Graphics/SVG/1.1/DTD/svg11.dtd">
<!-- Generated by graphviz version 2.43.0 (0)
 -->
<!-- Title: OmniboxRowView::HeaderView::GetHeaderSelection Pages: 1 -->
<svg width="1109pt" height="264pt"
 viewBox="0.00 0.00 1109.00 264.00" xmlns="http://www.w3.org/2000/svg" xmlns:xlink="http://www.w3.org/1999/xlink">
<g id="graph0" class="graph" transform="scale(1 1) rotate(0) translate(4 260)">
<title>OmniboxRowView::HeaderView::GetHeaderSelection</title>
<polygon fill="white" stroke="transparent" points="-4,4 -4,-260 1105,-260 1105,4 -4,4"/>
<!-- Node1 -->
<g id="node1" class="node">
<title>Node1</title>
<g id="a_node1"><a xlink:title=" ">
<polygon fill="#bfbfbf" stroke="black" points="944,-159.5 944,-189.5 1101,-189.5 1101,-159.5 944,-159.5"/>
<text text-anchor="start" x="952" y="-177.5" font-family="Helvetica,sans-Serif" font-size="10.00">OmniboxRowView::HeaderView</text>
<text text-anchor="middle" x="1022.5" y="-166.5" font-family="Helvetica,sans-Serif" font-size="10.00">::GetHeaderSelection</text>
</a>
</g>
</g>
<!-- Node2 -->
<g id="node2" class="node">
<title>Node2</title>
<g id="a_node2"><a xlink:href="../../d2/dcb/classOmniboxRowView_1_1HeaderView.html#a441ded0bc83346ff1773063183d470f2" target="_top" xlink:title=" ">
<polygon fill="white" stroke="black" points="751,-225.5 751,-255.5 908,-255.5 908,-225.5 751,-225.5"/>
<text text-anchor="start" x="759" y="-243.5" font-family="Helvetica,sans-Serif" font-size="10.00">OmniboxRowView::HeaderView</text>
<text text-anchor="middle" x="829.5" y="-232.5" font-family="Helvetica,sans-Serif" font-size="10.00">::HeaderToggleButtonPressed</text>
</a>
</g>
</g>
<!-- Node1&#45;&gt;Node2 -->
<g id="edge1" class="edge">
<title>Node1&#45;&gt;Node2</title>
<path fill="none" stroke="midnightblue" d="M967.92,-193.02C938.3,-203.25 901.98,-215.8 874.12,-225.43"/>
<polygon fill="midnightblue" stroke="midnightblue" points="969.37,-196.22 977.68,-189.64 967.09,-189.6 969.37,-196.22"/>
</g>
<!-- Node3 -->
<g id="node3" class="node">
<title>Node3</title>
<g id="a_node3"><a xlink:href="../../d2/dcb/classOmniboxRowView_1_1HeaderView.html#ad1abf8339bf99de0b39a9bb43111ba93" target="_top" xlink:title=" ">
<polygon fill="white" stroke="black" points="558,-215.5 558,-245.5 715,-245.5 715,-215.5 558,-215.5"/>
<text text-anchor="start" x="566" y="-233.5" font-family="Helvetica,sans-Serif" font-size="10.00">OmniboxRowView::HeaderView</text>
<text text-anchor="middle" x="636.5" y="-222.5" font-family="Helvetica,sans-Serif" font-size="10.00">::HeaderView</text>
</a>
</g>
</g>
<!-- Node1&#45;&gt;Node3 -->
<g id="edge6" class="edge">
<title>Node1&#45;&gt;Node3</title>
<path fill="none" stroke="midnightblue" d="M933.83,-187.28C867.91,-196.9 778.43,-209.95 715.09,-219.18"/>
<polygon fill="midnightblue" stroke="midnightblue" points="934.4,-190.74 943.79,-185.83 933.39,-183.81 934.4,-190.74"/>
</g>
<!-- Node7 -->
<g id="node7" class="node">
<title>Node7</title>
<g id="a_node7"><a xlink:href="../../d2/dcb/classOmniboxRowView_1_1HeaderView.html#af9e1207af3e2688cdccfd7b8c1267a3c" target="_top" xlink:title=" ">
<polygon fill="white" stroke="black" points="751,-137.5 751,-167.5 908,-167.5 908,-137.5 751,-137.5"/>
<text text-anchor="start" x="759" y="-155.5" font-family="Helvetica,sans-Serif" font-size="10.00">OmniboxRowView::HeaderView</text>
<text text-anchor="middle" x="829.5" y="-144.5" font-family="Helvetica,sans-Serif" font-size="10.00">::OnMouseReleased</text>
</a>
</g>
</g>
<!-- Node1&#45;&gt;Node7 -->
<g id="edge7" class="edge">
<title>Node1&#45;&gt;Node7</title>
<path fill="none" stroke="midnightblue" d="M933.81,-164.4C925.24,-163.41 916.58,-162.41 908.12,-161.44"/>
<polygon fill="midnightblue" stroke="midnightblue" points="933.48,-167.88 943.81,-165.55 934.28,-160.93 933.48,-167.88"/>
</g>
<!-- Node8 -->
<g id="node8" class="node">
<title>Node8</title>
<g id="a_node8"><a xlink:href="../../d2/dcb/classOmniboxRowView_1_1HeaderView.html#ab6d18bf471150c8a9c74ab873a29c16d" target="_top" xlink:title=" ">
<polygon fill="white" stroke="black" points="751,-88.5 751,-118.5 908,-118.5 908,-88.5 751,-88.5"/>
<text text-anchor="start" x="759" y="-106.5" font-family="Helvetica,sans-Serif" font-size="10.00">OmniboxRowView::HeaderView</text>
<text text-anchor="middle" x="829.5" y="-95.5" font-family="Helvetica,sans-Serif" font-size="10.00">::UpdateUI</text>
</a>
</g>
</g>
<!-- Node1&#45;&gt;Node8 -->
<g id="edge8" class="edge">
<title>Node1&#45;&gt;Node8</title>
<path fill="none" stroke="midnightblue" d="M977,-155.59C956.18,-146.96 930.96,-136.84 908,-128.5 898.7,-125.12 888.69,-121.72 879.06,-118.56"/>
<polygon fill="midnightblue" stroke="midnightblue" points="975.65,-158.82 986.23,-159.43 978.34,-152.36 975.65,-158.82"/>
</g>
<!-- Node2&#45;&gt;Node3 -->
<g id="edge2" class="edge">
<title>Node2&#45;&gt;Node3</title>
<path fill="none" stroke="midnightblue" d="M740.81,-235.91C732.24,-235.46 723.58,-235.01 715.12,-234.56"/>
<polygon fill="midnightblue" stroke="midnightblue" points="740.64,-239.4 750.81,-236.43 741.01,-232.41 740.64,-239.4"/>
</g>
<!-- Node4 -->
<g id="node4" class="node">
<title>Node4</title>
<g id="a_node4"><a xlink:href="../../da/da2/classOmniboxRowView.html#a6add650851301372ee9b8a6671cfa28c" target="_top" xlink:title=" ">
<polygon fill="white" stroke="black" points="362,-221 362,-240 522,-240 522,-221 362,-221"/>
<text text-anchor="middle" x="442" y="-228" font-family="Helvetica,sans-Serif" font-size="10.00">OmniboxRowView::ShowHeader</text>
</a>
</g>
</g>
<!-- Node3&#45;&gt;Node4 -->
<g id="edge3" class="edge">
<title>Node3&#45;&gt;Node4</title>
<path fill="none" stroke="midnightblue" d="M547.55,-230.5C539.12,-230.5 530.62,-230.5 522.29,-230.5"/>
<polygon fill="midnightblue" stroke="midnightblue" points="547.76,-234 557.76,-230.5 547.76,-227 547.76,-234"/>
</g>
<!-- Node5 -->
<g id="node5" class="node">
<title>Node5</title>
<g id="a_node5"><a xlink:href="../../d7/d88/classOmniboxPopupContentsView.html#aa8f47263f229af6a469c3bf964b81162" target="_top" xlink:title=" ">
<polygon fill="white" stroke="black" points="181,-215.5 181,-245.5 326,-245.5 326,-215.5 181,-215.5"/>
<text text-anchor="start" x="189" y="-233.5" font-family="Helvetica,sans-Serif" font-size="10.00">OmniboxPopupContentsView</text>
<text text-anchor="middle" x="253.5" y="-222.5" font-family="Helvetica,sans-Serif" font-size="10.00">::UpdatePopupAppearance</text>
</a>
</g>
</g>
<!-- Node4&#45;&gt;Node5 -->
<g id="edge4" class="edge">
<title>Node4&#45;&gt;Node5</title>
<path fill="none" stroke="midnightblue" d="M351.8,-230.5C343.15,-230.5 334.46,-230.5 326.02,-230.5"/>
<polygon fill="midnightblue" stroke="midnightblue" points="351.91,-234 361.91,-230.5 351.91,-227 351.91,-234"/>
</g>
<!-- Node6 -->
<g id="node6" class="node">
<title>Node6</title>
<g id="a_node6"><a xlink:href="../../d7/d88/classOmniboxPopupContentsView.html#a0e658101bc19acb66f6e0915fd6c2fe3" target="_top" xlink:title=" ">
<polygon fill="white" stroke="black" points="0,-215.5 0,-245.5 145,-245.5 145,-215.5 0,-215.5"/>
<text text-anchor="start" x="8" y="-233.5" font-family="Helvetica,sans-Serif" font-size="10.00">OmniboxPopupContentsView</text>
<text text-anchor="middle" x="72.5" y="-222.5" font-family="Helvetica,sans-Serif" font-size="10.00">::OnWidgetBoundsChanged</text>
</a>
</g>
</g>
<!-- Node5&#45;&gt;Node6 -->
<g id="edge5" class="edge">
<title>Node5&#45;&gt;Node6</title>
<path fill="none" stroke="midnightblue" d="M170.96,-230.5C162.36,-230.5 153.67,-230.5 145.2,-230.5"/>
<polygon fill="midnightblue" stroke="midnightblue" points="170.98,-234 180.98,-230.5 170.98,-227 170.98,-234"/>
</g>
<!-- Node9 -->
<g id="node9" class="node">
<title>Node9</title>
<g id="a_node9"><a xlink:href="../../d2/dcb/classOmniboxRowView_1_1HeaderView.html#ad3c777f5018ca5fc7d3fcf6a865327a9" target="_top" xlink:title=" ">
<polygon fill="white" stroke="black" points="558,-147.5 558,-177.5 715,-177.5 715,-147.5 558,-147.5"/>
<text text-anchor="start" x="566" y="-165.5" font-family="Helvetica,sans-Serif" font-size="10.00">OmniboxRowView::HeaderView</text>
<text text-anchor="middle" x="636.5" y="-154.5" font-family="Helvetica,sans-Serif" font-size="10.00">::OnMouseEntered</text>
</a>
</g>
</g>
<!-- Node8&#45;&gt;Node9 -->
<g id="edge9" class="edge">
<title>Node8&#45;&gt;Node9</title>
<path fill="none" stroke="midnightblue" d="M770.13,-121.53C743.23,-129.84 711.68,-139.59 686.1,-147.49"/>
<polygon fill="midnightblue" stroke="midnightblue" points="771.29,-124.84 779.81,-118.54 769.22,-118.15 771.29,-124.84"/>
</g>
<!-- Node10 -->
<g id="node10" class="node">
<title>Node10</title>
<g id="a_node10"><a xlink:href="../../d2/dcb/classOmniboxRowView_1_1HeaderView.html#a8beacc5825b13651fdd30d40661172d3" target="_top" xlink:title=" ">
<polygon fill="white" stroke="black" points="558,-98.5 558,-128.5 715,-128.5 715,-98.5 558,-98.5"/>
<text text-anchor="start" x="566" y="-116.5" font-family="Helvetica,sans-Serif" font-size="10.00">OmniboxRowView::HeaderView</text>
<text text-anchor="middle" x="636.5" y="-105.5" font-family="Helvetica,sans-Serif" font-size="10.00">::OnMouseExited</text>
</a>
</g>
</g>
<!-- Node8&#45;&gt;Node10 -->
<g id="edge10" class="edge">
<title>Node8&#45;&gt;Node10</title>
<path fill="none" stroke="midnightblue" d="M740.81,-108.09C732.24,-108.54 723.58,-108.99 715.12,-109.44"/>
<polygon fill="midnightblue" stroke="midnightblue" points="741.01,-111.59 750.81,-107.57 740.64,-104.6 741.01,-111.59"/>
</g>
<!-- Node11 -->
<g id="node11" class="node">
<title>Node11</title>
<g id="a_node11"><a xlink:href="../../da/da2/classOmniboxRowView.html#a2b9d0b0fce1926c058199484af89949d" target="_top" xlink:title=" ">
<polygon fill="white" stroke="black" points="558,-49.5 558,-79.5 715,-79.5 715,-49.5 558,-49.5"/>
<text text-anchor="start" x="566" y="-67.5" font-family="Helvetica,sans-Serif" font-size="10.00">OmniboxRowView::OnSelection</text>
<text text-anchor="middle" x="636.5" y="-56.5" font-family="Helvetica,sans-Serif" font-size="10.00">StateChanged</text>
</a>
</g>
</g>
<!-- Node8&#45;&gt;Node11 -->
<g id="edge11" class="edge">
<title>Node8&#45;&gt;Node11</title>
<path fill="none" stroke="midnightblue" d="M745.05,-86.46C733.72,-84.15 722.17,-81.79 711.03,-79.51"/>
<polygon fill="midnightblue" stroke="midnightblue" points="744.43,-89.91 754.93,-88.48 745.83,-83.05 744.43,-89.91"/>
</g>
<!-- Node12 -->
<g id="node12" class="node">
<title>Node12</title>
<g id="a_node12"><a xlink:href="../../d2/dcb/classOmniboxRowView_1_1HeaderView.html#a4c23f6b5994a871bf9afea13824aaca7" target="_top" xlink:title=" ">
<polygon fill="white" stroke="black" points="558,-0.5 558,-30.5 715,-30.5 715,-0.5 558,-0.5"/>
<text text-anchor="start" x="566" y="-18.5" font-family="Helvetica,sans-Serif" font-size="10.00">OmniboxRowView::HeaderView</text>
<text text-anchor="middle" x="636.5" y="-7.5" font-family="Helvetica,sans-Serif" font-size="10.00">::OnThemeChanged</text>
</a>
</g>
</g>
<!-- Node8&#45;&gt;Node12 -->
<g id="edge12" class="edge">
<title>Node8&#45;&gt;Node12</title>
<path fill="none" stroke="midnightblue" d="M796.65,-83.11C774.41,-69.48 743.67,-51.85 715,-39.5 707.5,-36.27 699.42,-33.27 691.4,-30.56"/>
<polygon fill="midnightblue" stroke="midnightblue" points="795,-86.2 805.34,-88.49 798.68,-80.25 795,-86.2"/>
</g>
</g>
</svg>
