<?xml version="1.0" encoding="UTF-8" standalone="no"?>
<!DOCTYPE svg PUBLIC "-//W3C//DTD SVG 1.1//EN"
 "http://www.w3.org/Graphics/SVG/1.1/DTD/svg11.dtd">
<!-- Generated by graphviz version 2.43.0 (0)
 -->
<!-- Title: OmniboxViewViews::OnWriteDragData Pages: 1 -->
<svg width="1325pt" height="932pt"
 viewBox="0.00 0.00 1325.00 932.00" xmlns="http://www.w3.org/2000/svg" xmlns:xlink="http://www.w3.org/1999/xlink">
<g id="graph0" class="graph" transform="scale(1 1) rotate(0) translate(4 928)">
<title>OmniboxViewViews::OnWriteDragData</title>
<polygon fill="white" stroke="transparent" points="-4,4 -4,-928 1321,-928 1321,4 -4,4"/>
<!-- Node1 -->
<g id="node1" class="node">
<title>Node1</title>
<g id="a_node1"><a xlink:title=" ">
<polygon fill="#bfbfbf" stroke="black" points="0,-71 0,-101 146,-101 146,-71 0,-71"/>
<text text-anchor="start" x="8" y="-89" font-family="Helvetica,sans-Serif" font-size="10.00">OmniboxViewViews::OnWrite</text>
<text text-anchor="middle" x="73" y="-78" font-family="Helvetica,sans-Serif" font-size="10.00">DragData</text>
</a>
</g>
</g>
<!-- Node2 -->
<g id="node2" class="node">
<title>Node2</title>
<g id="a_node2"><a xlink:href="../../d0/d22/classOmniboxEditModel.html#ab45b2ea3b6c02339e39daa03ae72ed83" target="_top" xlink:title=" ">
<polygon fill="white" stroke="black" points="194.5,-185 194.5,-215 327.5,-215 327.5,-185 194.5,-185"/>
<text text-anchor="start" x="202.5" y="-203" font-family="Helvetica,sans-Serif" font-size="10.00">OmniboxEditModel::Adjust</text>
<text text-anchor="middle" x="261" y="-192" font-family="Helvetica,sans-Serif" font-size="10.00">TextForCopy</text>
</a>
</g>
</g>
<!-- Node1&#45;&gt;Node2 -->
<g id="edge1" class="edge">
<title>Node1&#45;&gt;Node2</title>
<path fill="none" stroke="midnightblue" d="M98.7,-101.14C131.59,-121.29 189.87,-157.02 226.64,-179.55"/>
<polygon fill="midnightblue" stroke="midnightblue" points="225.14,-182.74 235.49,-184.98 228.8,-176.77 225.14,-182.74"/>
</g>
<!-- Node34 -->
<g id="node34" class="node">
<title>Node34</title>
<g id="a_node34"><a xlink:href="../../d0/d22/classOmniboxEditModel.html#a6b7591387fdf2f145d0d0d8fd212a776" target="_top" xlink:title=" ">
<polygon fill="white" stroke="black" points="190,-508 190,-538 332,-538 332,-508 190,-508"/>
<text text-anchor="start" x="198" y="-526" font-family="Helvetica,sans-Serif" font-size="10.00">OmniboxEditModel::GetData</text>
<text text-anchor="middle" x="261" y="-515" font-family="Helvetica,sans-Serif" font-size="10.00">ForURLExport</text>
</a>
</g>
</g>
<!-- Node1&#45;&gt;Node34 -->
<g id="edge42" class="edge">
<title>Node1&#45;&gt;Node34</title>
<path fill="none" stroke="midnightblue" d="M80.4,-101.04C107.79,-165.38 215.21,-417.76 249.45,-498.22"/>
<polygon fill="midnightblue" stroke="midnightblue" points="246.3,-499.74 253.43,-507.57 252.74,-497 246.3,-499.74"/>
</g>
<!-- Node35 -->
<g id="node35" class="node">
<title>Node35</title>
<g id="a_node35"><a xlink:href="../../d0/d94/classOmniboxViewViews.html#a694c20c02136968faf5e0d7bde503897" target="_top" xlink:title=" ">
<polygon fill="white" stroke="black" points="376,-38.5 376,-57.5 559,-57.5 559,-38.5 376,-38.5"/>
<text text-anchor="middle" x="467.5" y="-45.5" font-family="Helvetica,sans-Serif" font-size="10.00">OmniboxViewViews::GetSelectedText</text>
</a>
</g>
</g>
<!-- Node1&#45;&gt;Node35 -->
<g id="edge44" class="edge">
<title>Node1&#45;&gt;Node35</title>
<path fill="none" stroke="midnightblue" d="M146.11,-82.37C199.7,-79.3 274.54,-74.24 340,-67 359.37,-64.86 380.31,-61.95 399.49,-59.06"/>
<polygon fill="midnightblue" stroke="midnightblue" points="400.28,-62.48 409.63,-57.5 399.22,-55.56 400.28,-62.48"/>
</g>
<!-- Node36 -->
<g id="node36" class="node">
<title>Node36</title>
<g id="a_node36"><a xlink:href="../../d0/d94/classOmniboxViewViews.html#abb6135452198718c79e3599bbf658e62" target="_top" xlink:title=" ">
<polygon fill="white" stroke="black" points="182,-38.5 182,-57.5 340,-57.5 340,-38.5 182,-38.5"/>
<text text-anchor="middle" x="261" y="-45.5" font-family="Helvetica,sans-Serif" font-size="10.00">OmniboxViewViews::IsSelectAll</text>
</a>
</g>
</g>
<!-- Node1&#45;&gt;Node36 -->
<g id="edge45" class="edge">
<title>Node1&#45;&gt;Node36</title>
<path fill="none" stroke="midnightblue" d="M146.18,-71.25C165.13,-67.38 185.3,-63.26 203.31,-59.58"/>
<polygon fill="midnightblue" stroke="midnightblue" points="204.26,-62.96 213.36,-57.53 202.86,-56.1 204.26,-62.96"/>
</g>
<!-- Node38 -->
<g id="node38" class="node">
<title>Node38</title>
<g id="a_node38"><a xlink:href="../../d9/d1e/classOmniboxView.html#aac25a41924b28863d31120527936dc6d" target="_top" xlink:title=" ">
<polygon fill="white" stroke="black" points="206,-0.5 206,-19.5 316,-19.5 316,-0.5 206,-0.5"/>
<text text-anchor="middle" x="261" y="-7.5" font-family="Helvetica,sans-Serif" font-size="10.00">OmniboxView::model</text>
</a>
</g>
</g>
<!-- Node1&#45;&gt;Node38 -->
<g id="edge48" class="edge">
<title>Node1&#45;&gt;Node38</title>
<path fill="none" stroke="midnightblue" d="M98.49,-70.83C119.87,-58.14 152.06,-40.35 182,-29 188.72,-26.45 195.9,-24.16 203.08,-22.13"/>
<polygon fill="midnightblue" stroke="midnightblue" points="204.07,-25.48 212.82,-19.51 202.25,-18.72 204.07,-25.48"/>
</g>
<!-- Node3 -->
<g id="node3" class="node">
<title>Node3</title>
<g id="a_node3"><a xlink:href="../../d0/d22/classOmniboxEditModel.html#ad4c23db832a06ca44fb769a87cebd6e9" target="_top" xlink:title=" ">
<polygon fill="white" stroke="black" points="983.5,-114.5 983.5,-133.5 1128.5,-133.5 1128.5,-114.5 983.5,-114.5"/>
<text text-anchor="middle" x="1056" y="-121.5" font-family="Helvetica,sans-Serif" font-size="10.00">OmniboxEditModel::controller</text>
</a>
</g>
</g>
<!-- Node2&#45;&gt;Node3 -->
<g id="edge2" class="edge">
<title>Node2&#45;&gt;Node3</title>
<path fill="none" stroke="midnightblue" d="M284.84,-184.81C307.06,-170.98 342.3,-151.45 376,-143 585.93,-90.33 843.84,-103.42 973.04,-115.04"/>
<polygon fill="midnightblue" stroke="midnightblue" points="972.97,-118.55 983.25,-115.98 973.61,-111.58 972.97,-118.55"/>
</g>
<!-- Node4 -->
<g id="node4" class="node">
<title>Node4</title>
<g id="a_node4"><a xlink:href="../../d0/d22/classOmniboxEditModel.html#a8fcc92f2543e50522f9e297ef4988e90" target="_top" xlink:title=" ">
<polygon fill="white" stroke="black" points="399,-782 399,-812 536,-812 536,-782 399,-782"/>
<text text-anchor="start" x="407" y="-800" font-family="Helvetica,sans-Serif" font-size="10.00">OmniboxEditModel::Current</text>
<text text-anchor="middle" x="467.5" y="-789" font-family="Helvetica,sans-Serif" font-size="10.00">Match</text>
</a>
</g>
</g>
<!-- Node2&#45;&gt;Node4 -->
<g id="edge3" class="edge">
<title>Node2&#45;&gt;Node4</title>
<path fill="none" stroke="midnightblue" d="M266.64,-215.1C279.88,-258.7 318.29,-388.73 340,-499 351.61,-557.96 337.65,-720.74 376,-767 379.92,-771.74 384.62,-775.73 389.77,-779.09"/>
<polygon fill="midnightblue" stroke="midnightblue" points="388.39,-782.34 398.83,-784.19 391.83,-776.23 388.39,-782.34"/>
</g>
<!-- Node9 -->
<g id="node9" class="node">
<title>Node9</title>
<g id="a_node9"><a xlink:href="../../dc/d8f/structAutocompleteMatch.html#a2995f802114ff701b5d6e037fb3019b3" target="_top" xlink:title=" ">
<polygon fill="white" stroke="black" points="1001,-708 1001,-738 1111,-738 1111,-708 1001,-708"/>
<text text-anchor="start" x="1009" y="-726" font-family="Helvetica,sans-Serif" font-size="10.00">AutocompleteMatch::</text>
<text text-anchor="middle" x="1056" y="-715" font-family="Helvetica,sans-Serif" font-size="10.00">IsSearchType</text>
</a>
</g>
</g>
<!-- Node2&#45;&gt;Node9 -->
<g id="edge40" class="edge">
<title>Node2&#45;&gt;Node9</title>
<path fill="none" stroke="midnightblue" d="M270.02,-215.09C310.65,-289.64 502.25,-619.71 768,-734 840.21,-765.05 932.3,-753.69 992.42,-740.38"/>
<polygon fill="midnightblue" stroke="midnightblue" points="993.56,-743.71 1002.52,-738.06 991.99,-736.89 993.56,-743.71"/>
</g>
<!-- Node16 -->
<g id="node16" class="node">
<title>Node16</title>
<g id="a_node16"><a xlink:href="../../d0/d22/classOmniboxEditModel.html#a95286d7e003516065267f306a6cb1965" target="_top" xlink:title=" ">
<polygon fill="white" stroke="black" points="781.5,-153 781.5,-183 924.5,-183 924.5,-153 781.5,-153"/>
<text text-anchor="start" x="789.5" y="-171" font-family="Helvetica,sans-Serif" font-size="10.00">OmniboxEditModel::GetPage</text>
<text text-anchor="middle" x="853" y="-160" font-family="Helvetica,sans-Serif" font-size="10.00">Classification</text>
</a>
</g>
</g>
<!-- Node2&#45;&gt;Node16 -->
<g id="edge37" class="edge">
<title>Node2&#45;&gt;Node16</title>
<path fill="none" stroke="midnightblue" d="M327.68,-196.44C436.4,-190.54 653.43,-178.77 771.31,-172.38"/>
<polygon fill="midnightblue" stroke="midnightblue" points="771.56,-175.87 781.36,-171.83 771.18,-168.88 771.56,-175.87"/>
</g>
<!-- Node17 -->
<g id="node17" class="node">
<title>Node17</title>
<g id="a_node17"><a xlink:href="../../dc/d81/classOmniboxEditController.html#af0496738d6b2b60045f04a52c8b015cb" target="_top" xlink:title=" ">
<polygon fill="white" stroke="black" points="998,-65 998,-95 1114,-95 1114,-65 998,-65"/>
<text text-anchor="start" x="1006" y="-83" font-family="Helvetica,sans-Serif" font-size="10.00">OmniboxEditController</text>
<text text-anchor="middle" x="1056" y="-72" font-family="Helvetica,sans-Serif" font-size="10.00">::GetLocationBarModel</text>
</a>
</g>
</g>
<!-- Node2&#45;&gt;Node17 -->
<g id="edge36" class="edge">
<title>Node2&#45;&gt;Node17</title>
<path fill="none" stroke="midnightblue" d="M274.89,-184.93C294.29,-163.48 333.31,-124.98 376,-109 486.47,-67.65 838.6,-73.2 987.5,-77.61"/>
<polygon fill="midnightblue" stroke="midnightblue" points="987.76,-81.12 997.86,-77.93 987.97,-74.13 987.76,-81.12"/>
</g>
<!-- Node20 -->
<g id="node20" class="node">
<title>Node20</title>
<g id="a_node20"><a xlink:href="../../d0/d22/classOmniboxEditModel.html#a0a13d5acf2a89532b46249c91cecb04b" target="_top" xlink:title=" ">
<polygon fill="white" stroke="black" points="999.5,-530 999.5,-560 1112.5,-560 1112.5,-530 999.5,-530"/>
<text text-anchor="start" x="1007.5" y="-548" font-family="Helvetica,sans-Serif" font-size="10.00">OmniboxEditModel::is</text>
<text text-anchor="middle" x="1056" y="-537" font-family="Helvetica,sans-Serif" font-size="10.00">_keyword_selected</text>
</a>
</g>
</g>
<!-- Node2&#45;&gt;Node20 -->
<g id="edge39" class="edge">
<title>Node2&#45;&gt;Node20</title>
<path fill="none" stroke="midnightblue" d="M298.62,-215.09C381.24,-248.74 588.93,-331.12 768,-384 842.34,-405.95 874.2,-378.96 938,-423 961.74,-439.39 954.76,-455.51 974,-477 989.54,-494.36 1009.57,-511.21 1025.83,-523.8"/>
<polygon fill="midnightblue" stroke="midnightblue" points="1023.86,-526.7 1033.94,-529.97 1028.1,-521.13 1023.86,-526.7"/>
</g>
<!-- Node24 -->
<g id="node24" class="node">
<title>Node24</title>
<g id="a_node24"><a xlink:href="../../d0/d22/classOmniboxEditModel.html#a67fe900511cae558a9585411c98b36c6" target="_top" xlink:title=" ">
<polygon fill="white" stroke="black" points="771,-218.5 771,-237.5 935,-237.5 935,-218.5 771,-218.5"/>
<text text-anchor="middle" x="853" y="-225.5" font-family="Helvetica,sans-Serif" font-size="10.00">OmniboxEditModel::PopupIsOpen</text>
</a>
</g>
</g>
<!-- Node2&#45;&gt;Node24 -->
<g id="edge41" class="edge">
<title>Node2&#45;&gt;Node24</title>
<path fill="none" stroke="midnightblue" d="M327.6,-209.11C343.42,-211.02 360.29,-212.81 376,-214 509.43,-224.13 664.41,-227.05 760.35,-227.82"/>
<polygon fill="midnightblue" stroke="midnightblue" points="760.58,-231.33 770.6,-227.9 760.63,-224.33 760.58,-231.33"/>
</g>
<!-- Node33 -->
<g id="node33" class="node">
<title>Node33</title>
<g id="a_node33"><a xlink:href="../../d1/d62/classLocationBarModel.html#a59dbb65d6241277baa8006d6bb3e3e3a" target="_top" xlink:title=" ">
<polygon fill="white" stroke="black" points="399,-152.5 399,-171.5 536,-171.5 536,-152.5 399,-152.5"/>
<text text-anchor="middle" x="467.5" y="-159.5" font-family="Helvetica,sans-Serif" font-size="10.00">LocationBarModel::GetURL</text>
</a>
</g>
</g>
<!-- Node2&#45;&gt;Node33 -->
<g id="edge38" class="edge">
<title>Node2&#45;&gt;Node33</title>
<path fill="none" stroke="midnightblue" d="M327.55,-187.82C352.5,-183.18 380.81,-177.92 405.34,-173.36"/>
<polygon fill="midnightblue" stroke="midnightblue" points="406.05,-176.79 415.25,-171.52 404.77,-169.91 406.05,-176.79"/>
</g>
<!-- Node5 -->
<g id="node5" class="node">
<title>Node5</title>
<g id="a_node5"><a xlink:href="../../d3/d03/classAutocompleteResult.html#af09ffe15397e43cf992488963187189b" target="_top" xlink:title=" ">
<polygon fill="white" stroke="black" points="787,-782 787,-812 919,-812 919,-782 787,-782"/>
<text text-anchor="start" x="795" y="-800" font-family="Helvetica,sans-Serif" font-size="10.00">AutocompleteResult</text>
<text text-anchor="middle" x="853" y="-789" font-family="Helvetica,sans-Serif" font-size="10.00">::ComputeAlternateNavUrl</text>
</a>
</g>
</g>
<!-- Node4&#45;&gt;Node5 -->
<g id="edge4" class="edge">
<title>Node4&#45;&gt;Node5</title>
<path fill="none" stroke="midnightblue" d="M536.18,-797C603.61,-797 706.91,-797 776.85,-797"/>
<polygon fill="midnightblue" stroke="midnightblue" points="776.92,-800.5 786.92,-797 776.92,-793.5 776.92,-800.5"/>
</g>
<!-- Node12 -->
<g id="node12" class="node">
<title>Node12</title>
<g id="a_node12"><a xlink:href="../../d0/d22/classOmniboxEditModel.html#a5265a894f111d9204716d40e142e2645" target="_top" xlink:title=" ">
<polygon fill="white" stroke="black" points="595,-505 595,-535 732,-535 732,-505 595,-505"/>
<text text-anchor="start" x="603" y="-523" font-family="Helvetica,sans-Serif" font-size="10.00">OmniboxEditModel::GetInfo</text>
<text text-anchor="middle" x="663.5" y="-512" font-family="Helvetica,sans-Serif" font-size="10.00">ForCurrentText</text>
</a>
</g>
</g>
<!-- Node4&#45;&gt;Node12 -->
<g id="edge11" class="edge">
<title>Node4&#45;&gt;Node12</title>
<path fill="none" stroke="midnightblue" d="M479.21,-781.71C511.34,-735.84 607.1,-599.11 645.9,-543.71"/>
<polygon fill="midnightblue" stroke="midnightblue" points="648.96,-545.44 651.83,-535.24 643.22,-541.42 648.96,-545.44"/>
</g>
<!-- Node6 -->
<g id="node6" class="node">
<title>Node6</title>
<g id="a_node6"><a xlink:href="../../d9/df6/classAutocompleteInput.html#a419d05e14c86f18c137fbb4057fedb04" target="_top" xlink:title=" ">
<polygon fill="white" stroke="black" points="1004,-855 1004,-885 1108,-885 1108,-855 1004,-855"/>
<text text-anchor="start" x="1012" y="-873" font-family="Helvetica,sans-Serif" font-size="10.00">AutocompleteInput::</text>
<text text-anchor="middle" x="1056" y="-862" font-family="Helvetica,sans-Serif" font-size="10.00">canonicalized_url</text>
</a>
</g>
</g>
<!-- Node5&#45;&gt;Node6 -->
<g id="edge5" class="edge">
<title>Node5&#45;&gt;Node6</title>
<path fill="none" stroke="midnightblue" d="M888.31,-812.07C912.12,-822.27 944.7,-835.71 974,-846 980.42,-848.25 987.16,-850.48 993.91,-852.61"/>
<polygon fill="midnightblue" stroke="midnightblue" points="993.18,-856.05 1003.77,-855.66 995.25,-849.36 993.18,-856.05"/>
</g>
<!-- Node7 -->
<g id="node7" class="node">
<title>Node7</title>
<g id="a_node7"><a xlink:href="../../d4/d19/namespaceomnibox.html#acabb493ed3d3ef334b91f977a3f954ef" target="_top" xlink:title=" ">
<polygon fill="white" stroke="black" points="993,-806 993,-836 1119,-836 1119,-806 993,-806"/>
<text text-anchor="start" x="1001" y="-824" font-family="Helvetica,sans-Serif" font-size="10.00">omnibox::GetInterception</text>
<text text-anchor="middle" x="1056" y="-813" font-family="Helvetica,sans-Serif" font-size="10.00">ChecksBehavior</text>
</a>
</g>
</g>
<!-- Node5&#45;&gt;Node7 -->
<g id="edge6" class="edge">
<title>Node5&#45;&gt;Node7</title>
<path fill="none" stroke="midnightblue" d="M919.26,-804.79C939.55,-807.22 962.04,-809.9 982.78,-812.38"/>
<polygon fill="midnightblue" stroke="midnightblue" points="982.46,-815.86 992.8,-813.57 983.29,-808.91 982.46,-815.86"/>
</g>
<!-- Node8 -->
<g id="node8" class="node">
<title>Node8</title>
<g id="a_node8"><a xlink:href="../../d5/dc7/classAutocompleteProviderClient.html#a39fb65fe5ac8de4439f41335bde2a3f5" target="_top" xlink:title=" ">
<polygon fill="white" stroke="black" points="987,-757 987,-787 1125,-787 1125,-757 987,-757"/>
<text text-anchor="start" x="995" y="-775" font-family="Helvetica,sans-Serif" font-size="10.00">AutocompleteProviderClient</text>
<text text-anchor="middle" x="1056" y="-764" font-family="Helvetica,sans-Serif" font-size="10.00">::GetLocalState</text>
</a>
</g>
</g>
<!-- Node5&#45;&gt;Node8 -->
<g id="edge7" class="edge">
<title>Node5&#45;&gt;Node8</title>
<path fill="none" stroke="midnightblue" d="M919.26,-788.88C937.62,-786.6 957.79,-784.09 976.82,-781.72"/>
<polygon fill="midnightblue" stroke="midnightblue" points="977.47,-785.17 986.96,-780.46 976.6,-778.22 977.47,-785.17"/>
</g>
<!-- Node5&#45;&gt;Node9 -->
<g id="edge8" class="edge">
<title>Node5&#45;&gt;Node9</title>
<path fill="none" stroke="midnightblue" d="M899.8,-781.97C912.33,-777.51 925.81,-772.36 938,-767 954.56,-759.72 957.28,-754.92 974,-748 979.71,-745.64 985.73,-743.37 991.8,-741.25"/>
<polygon fill="midnightblue" stroke="midnightblue" points="992.99,-744.54 1001.34,-738.01 990.75,-737.91 992.99,-744.54"/>
</g>
<!-- Node11 -->
<g id="node11" class="node">
<title>Node11</title>
<g id="a_node11"><a xlink:href="../../d9/df6/classAutocompleteInput.html#a5d6111d5ac18400cdf809820dfab9ab0" target="_top" xlink:title=" ">
<polygon fill="white" stroke="black" points="994.5,-904.5 994.5,-923.5 1117.5,-923.5 1117.5,-904.5 994.5,-904.5"/>
<text text-anchor="middle" x="1056" y="-911.5" font-family="Helvetica,sans-Serif" font-size="10.00">AutocompleteInput::type</text>
</a>
</g>
</g>
<!-- Node5&#45;&gt;Node11 -->
<g id="edge10" class="edge">
<title>Node5&#45;&gt;Node11</title>
<path fill="none" stroke="midnightblue" d="M867.96,-812.13C888.88,-833.85 930.57,-873.61 974,-895 978.94,-897.43 984.21,-899.56 989.59,-901.43"/>
<polygon fill="midnightblue" stroke="midnightblue" points="988.77,-904.84 999.36,-904.5 990.87,-898.16 988.77,-904.84"/>
</g>
<!-- Node10 -->
<g id="node10" class="node">
<title>Node10</title>
<g id="a_node10"><a xlink:href="../../dc/d8f/structAutocompleteMatch.html#aaca5dac30caf1899132db064a3213d9e" target="_top" xlink:title=" ">
<polygon fill="white" stroke="black" points="1182,-708 1182,-738 1309,-738 1309,-708 1182,-708"/>
<text text-anchor="start" x="1190" y="-726" font-family="Helvetica,sans-Serif" font-size="10.00">AutocompleteMatch::</text>
<text text-anchor="middle" x="1245.5" y="-715" font-family="Helvetica,sans-Serif" font-size="10.00">IsSpecializedSearchType</text>
</a>
</g>
</g>
<!-- Node9&#45;&gt;Node10 -->
<g id="edge9" class="edge">
<title>Node9&#45;&gt;Node10</title>
<path fill="none" stroke="midnightblue" d="M1111.23,-723C1130.11,-723 1151.6,-723 1171.73,-723"/>
<polygon fill="midnightblue" stroke="midnightblue" points="1171.8,-726.5 1181.8,-723 1171.8,-719.5 1171.8,-726.5"/>
</g>
<!-- Node12&#45;&gt;Node5 -->
<g id="edge12" class="edge">
<title>Node12&#45;&gt;Node5</title>
<path fill="none" stroke="midnightblue" d="M669.04,-535.13C680.7,-572.18 714.61,-669.17 768,-734 781.59,-750.5 800.36,-765.11 816.71,-776.09"/>
<polygon fill="midnightblue" stroke="midnightblue" points="815.2,-779.29 825.49,-781.81 819.02,-773.42 815.2,-779.29"/>
</g>
<!-- Node13 -->
<g id="node13" class="node">
<title>Node13</title>
<g id="a_node13"><a xlink:href="../../d3/d03/classAutocompleteResult.html#a41fc37ec73816fce3ea244e3401aac5b" target="_top" xlink:title=" ">
<polygon fill="white" stroke="black" points="800.5,-295 800.5,-325 905.5,-325 905.5,-295 800.5,-295"/>
<text text-anchor="start" x="808.5" y="-313" font-family="Helvetica,sans-Serif" font-size="10.00">AutocompleteResult</text>
<text text-anchor="middle" x="853" y="-302" font-family="Helvetica,sans-Serif" font-size="10.00">::default_match</text>
</a>
</g>
</g>
<!-- Node12&#45;&gt;Node13 -->
<g id="edge13" class="edge">
<title>Node12&#45;&gt;Node13</title>
<path fill="none" stroke="midnightblue" d="M668.63,-504.98C679.07,-469.78 709.96,-381.46 768,-335 774.66,-329.67 782.43,-325.47 790.51,-322.17"/>
<polygon fill="midnightblue" stroke="midnightblue" points="791.88,-325.4 800.08,-318.7 789.49,-318.82 791.88,-325.4"/>
</g>
<!-- Node12&#45;&gt;Node16 -->
<g id="edge16" class="edge">
<title>Node12&#45;&gt;Node16</title>
<path fill="none" stroke="midnightblue" d="M665.49,-504.69C669.44,-455.66 687.98,-300.42 768,-209 775.61,-200.31 785.47,-193.28 795.76,-187.67"/>
<polygon fill="midnightblue" stroke="midnightblue" points="797.5,-190.71 804.85,-183.09 794.35,-184.46 797.5,-190.71"/>
</g>
<!-- Node19 -->
<g id="node19" class="node">
<title>Node19</title>
<g id="a_node19"><a xlink:href="../../d9/d1e/classOmniboxView.html#a3dff0d042c74b0e8cb080e6bac15c8f9" target="_top" xlink:title=" ">
<polygon fill="white" stroke="black" points="794,-705.5 794,-724.5 912,-724.5 912,-705.5 794,-705.5"/>
<text text-anchor="middle" x="853" y="-712.5" font-family="Helvetica,sans-Serif" font-size="10.00">OmniboxView::GetText</text>
</a>
</g>
</g>
<!-- Node12&#45;&gt;Node19 -->
<g id="edge20" class="edge">
<title>Node12&#45;&gt;Node19</title>
<path fill="none" stroke="midnightblue" d="M668.81,-535.06C679.47,-569.44 710.46,-653.98 768,-696 772.87,-699.56 778.3,-702.47 783.98,-704.84"/>
<polygon fill="midnightblue" stroke="midnightblue" points="783.13,-708.26 793.73,-708.36 785.51,-701.67 783.13,-708.26"/>
</g>
<!-- Node12&#45;&gt;Node20 -->
<g id="edge21" class="edge">
<title>Node12&#45;&gt;Node20</title>
<path fill="none" stroke="midnightblue" d="M688.03,-535.18C708.3,-547.3 738.82,-563.32 768,-570 842.66,-587.09 930.7,-574.79 989.39,-562.14"/>
<polygon fill="midnightblue" stroke="midnightblue" points="990.27,-565.53 999.28,-559.95 988.76,-558.7 990.27,-565.53"/>
</g>
<!-- Node21 -->
<g id="node21" class="node">
<title>Node21</title>
<g id="a_node21"><a xlink:href="../../d3/d03/classAutocompleteResult.html#a1532251921e2112a24e3a52ec7ee4535" target="_top" xlink:title=" ">
<polygon fill="white" stroke="black" points="800.5,-656 800.5,-686 905.5,-686 905.5,-656 800.5,-656"/>
<text text-anchor="start" x="808.5" y="-674" font-family="Helvetica,sans-Serif" font-size="10.00">AutocompleteResult</text>
<text text-anchor="middle" x="853" y="-663" font-family="Helvetica,sans-Serif" font-size="10.00">::match_at</text>
</a>
</g>
</g>
<!-- Node12&#45;&gt;Node21 -->
<g id="edge22" class="edge">
<title>Node12&#45;&gt;Node21</title>
<path fill="none" stroke="midnightblue" d="M672.9,-535.29C688.26,-561.83 723.43,-616.4 768,-646 774.85,-650.55 782.55,-654.29 790.43,-657.36"/>
<polygon fill="midnightblue" stroke="midnightblue" points="789.51,-660.75 800.1,-660.79 791.85,-654.15 789.51,-660.75"/>
</g>
<!-- Node22 -->
<g id="node22" class="node">
<title>Node22</title>
<g id="a_node22"><a xlink:href="../../d0/d22/classOmniboxEditModel.html#a1599022fe3ededfff77ed2dc41ceb73a" target="_top" xlink:title=" ">
<polygon fill="white" stroke="black" points="768,-530 768,-560 938,-560 938,-530 768,-530"/>
<text text-anchor="start" x="776" y="-548" font-family="Helvetica,sans-Serif" font-size="10.00">OmniboxEditModel::MaybePrepend</text>
<text text-anchor="middle" x="853" y="-537" font-family="Helvetica,sans-Serif" font-size="10.00">Keyword</text>
</a>
</g>
</g>
<!-- Node12&#45;&gt;Node22 -->
<g id="edge23" class="edge">
<title>Node12&#45;&gt;Node22</title>
<path fill="none" stroke="midnightblue" d="M732.19,-529.03C740.49,-530.13 749.07,-531.28 757.67,-532.42"/>
<polygon fill="midnightblue" stroke="midnightblue" points="757.37,-535.91 767.75,-533.77 758.3,-528.98 757.37,-535.91"/>
</g>
<!-- Node23 -->
<g id="node23" class="node">
<title>Node23</title>
<g id="a_node23"><a xlink:href="../../d0/d22/classOmniboxEditModel.html#a254f9536adb46b9e885d10b3d5bfe4c9" target="_top" xlink:title=" ">
<polygon fill="white" stroke="black" points="990.5,-251 990.5,-281 1121.5,-281 1121.5,-251 990.5,-251"/>
<text text-anchor="start" x="998.5" y="-269" font-family="Helvetica,sans-Serif" font-size="10.00">OmniboxEditModel::popup</text>
<text text-anchor="middle" x="1056" y="-258" font-family="Helvetica,sans-Serif" font-size="10.00">_model</text>
</a>
</g>
</g>
<!-- Node12&#45;&gt;Node23 -->
<g id="edge25" class="edge">
<title>Node12&#45;&gt;Node23</title>
<path fill="none" stroke="midnightblue" d="M665.96,-504.94C671.01,-462.13 691.83,-339.46 768,-286 829.48,-242.85 917.76,-243.49 980.14,-251.37"/>
<polygon fill="midnightblue" stroke="midnightblue" points="979.93,-254.87 990.31,-252.75 980.87,-247.94 979.93,-254.87"/>
</g>
<!-- Node12&#45;&gt;Node24 -->
<g id="edge26" class="edge">
<title>Node12&#45;&gt;Node24</title>
<path fill="none" stroke="midnightblue" d="M665.74,-504.97C670.28,-459.66 690.12,-323.15 768,-252 772.45,-247.94 777.54,-244.56 782.96,-241.75"/>
<polygon fill="midnightblue" stroke="midnightblue" points="784.66,-244.82 792.36,-237.53 781.8,-238.43 784.66,-244.82"/>
</g>
<!-- Node27 -->
<g id="node27" class="node">
<title>Node27</title>
<g id="a_node27"><a xlink:href="../../d0/d22/classOmniboxEditModel.html#a34c6312cf87698170164370251851aea" target="_top" xlink:title=" ">
<polygon fill="white" stroke="black" points="788.5,-344 788.5,-374 917.5,-374 917.5,-344 788.5,-344"/>
<text text-anchor="start" x="796.5" y="-362" font-family="Helvetica,sans-Serif" font-size="10.00">OmniboxEditModel::query</text>
<text text-anchor="middle" x="853" y="-351" font-family="Helvetica,sans-Serif" font-size="10.00">_in_progress</text>
</a>
</g>
</g>
<!-- Node12&#45;&gt;Node27 -->
<g id="edge30" class="edge">
<title>Node12&#45;&gt;Node27</title>
<path fill="none" stroke="midnightblue" d="M679.83,-504.7C699.64,-485.14 735.47,-450.51 768,-423 785.64,-408.08 806.27,-392.34 822.67,-380.2"/>
<polygon fill="midnightblue" stroke="midnightblue" points="824.84,-382.95 830.83,-374.21 820.7,-377.31 824.84,-382.95"/>
</g>
<!-- Node30 -->
<g id="node30" class="node">
<title>Node30</title>
<g id="a_node30"><a xlink:href="../../d0/d22/classOmniboxEditModel.html#ad945a332660c6122dc25b93c1eee76d8" target="_top" xlink:title=" ">
<polygon fill="white" stroke="black" points="788.5,-617.5 788.5,-636.5 917.5,-636.5 917.5,-617.5 788.5,-617.5"/>
<text text-anchor="middle" x="853" y="-624.5" font-family="Helvetica,sans-Serif" font-size="10.00">OmniboxEditModel::result</text>
</a>
</g>
</g>
<!-- Node12&#45;&gt;Node30 -->
<g id="edge33" class="edge">
<title>Node12&#45;&gt;Node30</title>
<path fill="none" stroke="midnightblue" d="M679.25,-535.07C698.18,-553.59 732.81,-584.81 768,-603 776.89,-607.6 786.78,-611.42 796.57,-614.56"/>
<polygon fill="midnightblue" stroke="midnightblue" points="795.69,-617.95 806.27,-617.48 797.7,-611.25 795.69,-617.95"/>
</g>
<!-- Node31 -->
<g id="node31" class="node">
<title>Node31</title>
<g id="a_node31"><a xlink:href="../../d1/db1/classOmniboxPopupModel.html#a89f2d7464b757a9707bb7df522a2fea5" target="_top" xlink:title=" ">
<polygon fill="white" stroke="black" points="795,-481 795,-511 911,-511 911,-481 795,-481"/>
<text text-anchor="start" x="803" y="-499" font-family="Helvetica,sans-Serif" font-size="10.00">OmniboxPopupModel::</text>
<text text-anchor="middle" x="853" y="-488" font-family="Helvetica,sans-Serif" font-size="10.00">selected_line_state</text>
</a>
</g>
</g>
<!-- Node12&#45;&gt;Node31 -->
<g id="edge34" class="edge">
<title>Node12&#45;&gt;Node31</title>
<path fill="none" stroke="midnightblue" d="M732.19,-511.34C749.38,-509.14 767.83,-506.77 784.99,-504.58"/>
<polygon fill="midnightblue" stroke="midnightblue" points="785.44,-508.05 794.92,-503.31 784.55,-501.1 785.44,-508.05"/>
</g>
<!-- Node32 -->
<g id="node32" class="node">
<title>Node32</title>
<g id="a_node32"><a xlink:href="../../d0/d22/classOmniboxEditModel.html#aa6151d568130ae55c72d762fb62bd87c" target="_top" xlink:title=" ">
<polygon fill="white" stroke="black" points="791,-432 791,-462 915,-462 915,-432 791,-432"/>
<text text-anchor="start" x="799" y="-450" font-family="Helvetica,sans-Serif" font-size="10.00">OmniboxEditModel::user</text>
<text text-anchor="middle" x="853" y="-439" font-family="Helvetica,sans-Serif" font-size="10.00">_input_in_progress</text>
</a>
</g>
</g>
<!-- Node12&#45;&gt;Node32 -->
<g id="edge35" class="edge">
<title>Node12&#45;&gt;Node32</title>
<path fill="none" stroke="midnightblue" d="M693.9,-504.97C714.36,-494.87 742.44,-481.67 768,-472 774.21,-469.65 780.75,-467.37 787.33,-465.21"/>
<polygon fill="midnightblue" stroke="midnightblue" points="788.48,-468.52 796.94,-462.14 786.35,-461.85 788.48,-468.52"/>
</g>
<!-- Node14 -->
<g id="node14" class="node">
<title>Node14</title>
<g id="a_node14"><a xlink:href="../../d3/d03/classAutocompleteResult.html#a4246a4276fdd2b4f5560cd45fa527d28" target="_top" xlink:title=" ">
<polygon fill="white" stroke="black" points="1003.5,-339 1003.5,-369 1108.5,-369 1108.5,-339 1003.5,-339"/>
<text text-anchor="start" x="1011.5" y="-357" font-family="Helvetica,sans-Serif" font-size="10.00">AutocompleteResult</text>
<text text-anchor="middle" x="1056" y="-346" font-family="Helvetica,sans-Serif" font-size="10.00">::begin</text>
</a>
</g>
</g>
<!-- Node13&#45;&gt;Node14 -->
<g id="edge14" class="edge">
<title>Node13&#45;&gt;Node14</title>
<path fill="none" stroke="midnightblue" d="M905.5,-321.27C932.23,-327.12 965.08,-334.32 993.17,-340.46"/>
<polygon fill="midnightblue" stroke="midnightblue" points="992.77,-343.96 1003.28,-342.68 994.26,-337.12 992.77,-343.96"/>
</g>
<!-- Node15 -->
<g id="node15" class="node">
<title>Node15</title>
<g id="a_node15"><a xlink:href="../../d3/d03/classAutocompleteResult.html#a5545641c5c0d9473bccf85e267f44b58" target="_top" xlink:title=" ">
<polygon fill="white" stroke="black" points="992.5,-300.5 992.5,-319.5 1119.5,-319.5 1119.5,-300.5 992.5,-300.5"/>
<text text-anchor="middle" x="1056" y="-307.5" font-family="Helvetica,sans-Serif" font-size="10.00">AutocompleteResult::end</text>
</a>
</g>
</g>
<!-- Node13&#45;&gt;Node15 -->
<g id="edge15" class="edge">
<title>Node13&#45;&gt;Node15</title>
<path fill="none" stroke="midnightblue" d="M905.5,-310C928.71,-310 956.53,-310 981.84,-310"/>
<polygon fill="midnightblue" stroke="midnightblue" points="982.15,-313.5 992.15,-310 982.15,-306.5 982.15,-313.5"/>
</g>
<!-- Node16&#45;&gt;Node3 -->
<g id="edge17" class="edge">
<title>Node16&#45;&gt;Node3</title>
<path fill="none" stroke="midnightblue" d="M922.61,-152.98C948.38,-147.34 977.28,-141.01 1001.48,-135.72"/>
<polygon fill="midnightblue" stroke="midnightblue" points="1002.53,-139.07 1011.55,-133.51 1001.03,-132.23 1002.53,-139.07"/>
</g>
<!-- Node16&#45;&gt;Node17 -->
<g id="edge18" class="edge">
<title>Node16&#45;&gt;Node17</title>
<path fill="none" stroke="midnightblue" d="M879.55,-152.82C903.41,-139.07 940.29,-118.91 974,-105 979.71,-102.64 985.73,-100.38 991.8,-98.26"/>
<polygon fill="midnightblue" stroke="midnightblue" points="993,-101.55 1001.35,-95.03 990.75,-94.92 993,-101.55"/>
</g>
<!-- Node18 -->
<g id="node18" class="node">
<title>Node18</title>
<g id="a_node18"><a xlink:href="../../d1/d62/classLocationBarModel.html#a5fa3590a5fd5c3db742dd05adb55cc8a" target="_top" xlink:title=" ">
<polygon fill="white" stroke="black" points="986.5,-153 986.5,-183 1125.5,-183 1125.5,-153 986.5,-153"/>
<text text-anchor="start" x="994.5" y="-171" font-family="Helvetica,sans-Serif" font-size="10.00">LocationBarModel::GetPage</text>
<text text-anchor="middle" x="1056" y="-160" font-family="Helvetica,sans-Serif" font-size="10.00">Classification</text>
</a>
</g>
</g>
<!-- Node16&#45;&gt;Node18 -->
<g id="edge19" class="edge">
<title>Node16&#45;&gt;Node18</title>
<path fill="none" stroke="midnightblue" d="M924.58,-168C941.16,-168 958.94,-168 975.87,-168"/>
<polygon fill="midnightblue" stroke="midnightblue" points="976.28,-171.5 986.28,-168 976.28,-164.5 976.28,-171.5"/>
</g>
<!-- Node22&#45;&gt;Node20 -->
<g id="edge24" class="edge">
<title>Node22&#45;&gt;Node20</title>
<path fill="none" stroke="midnightblue" d="M938.08,-545C955.02,-545 972.6,-545 988.83,-545"/>
<polygon fill="midnightblue" stroke="midnightblue" points="989.28,-548.5 999.28,-545 989.28,-541.5 989.28,-548.5"/>
</g>
<!-- Node24&#45;&gt;Node23 -->
<g id="edge29" class="edge">
<title>Node24&#45;&gt;Node23</title>
<path fill="none" stroke="midnightblue" d="M904.46,-237.54C927.46,-241.89 955.15,-247.12 980.47,-251.91"/>
<polygon fill="midnightblue" stroke="midnightblue" points="979.94,-255.37 990.42,-253.79 981.24,-248.49 979.94,-255.37"/>
</g>
<!-- Node25 -->
<g id="node25" class="node">
<title>Node25</title>
<g id="a_node25"><a xlink:href="../../d1/db1/classOmniboxPopupModel.html#a64f0ed404470d2689d4774bac54d54fc" target="_top" xlink:title=" ">
<polygon fill="white" stroke="black" points="998,-202 998,-232 1114,-232 1114,-202 998,-202"/>
<text text-anchor="start" x="1006" y="-220" font-family="Helvetica,sans-Serif" font-size="10.00">OmniboxPopupModel::</text>
<text text-anchor="middle" x="1056" y="-209" font-family="Helvetica,sans-Serif" font-size="10.00">IsOpen</text>
</a>
</g>
</g>
<!-- Node24&#45;&gt;Node25 -->
<g id="edge27" class="edge">
<title>Node24&#45;&gt;Node25</title>
<path fill="none" stroke="midnightblue" d="M935.18,-223.56C952.59,-222.6 970.81,-221.61 987.63,-220.69"/>
<polygon fill="midnightblue" stroke="midnightblue" points="988.11,-224.17 997.91,-220.12 987.73,-217.18 988.11,-224.17"/>
</g>
<!-- Node26 -->
<g id="node26" class="node">
<title>Node26</title>
<g id="a_node26"><a xlink:href="../../db/de1/classOmniboxPopupView.html#ab590e106e3a2f53bfa45712f529cf106" target="_top" xlink:title=" ">
<polygon fill="white" stroke="black" points="1174,-207.5 1174,-226.5 1317,-226.5 1317,-207.5 1174,-207.5"/>
<text text-anchor="middle" x="1245.5" y="-214.5" font-family="Helvetica,sans-Serif" font-size="10.00">OmniboxPopupView::IsOpen</text>
</a>
</g>
</g>
<!-- Node25&#45;&gt;Node26 -->
<g id="edge28" class="edge">
<title>Node25&#45;&gt;Node26</title>
<path fill="none" stroke="midnightblue" d="M1114.02,-217C1129.63,-217 1146.86,-217 1163.54,-217"/>
<polygon fill="midnightblue" stroke="midnightblue" points="1163.84,-220.5 1173.84,-217 1163.84,-213.5 1163.84,-220.5"/>
</g>
<!-- Node28 -->
<g id="node28" class="node">
<title>Node28</title>
<g id="a_node28"><a xlink:href="../../d0/d22/classOmniboxEditModel.html#a8c8a925ee670cdc9bd5c0ad8b07fa1a0" target="_top" xlink:title=" ">
<polygon fill="white" stroke="black" points="974,-388 974,-418 1138,-418 1138,-388 974,-388"/>
<text text-anchor="start" x="982" y="-406" font-family="Helvetica,sans-Serif" font-size="10.00">OmniboxEditModel::autocomplete</text>
<text text-anchor="middle" x="1056" y="-395" font-family="Helvetica,sans-Serif" font-size="10.00">_controller</text>
</a>
</g>
</g>
<!-- Node27&#45;&gt;Node28 -->
<g id="edge31" class="edge">
<title>Node27&#45;&gt;Node28</title>
<path fill="none" stroke="midnightblue" d="M917.6,-372.92C936.29,-377.01 956.96,-381.54 976.47,-385.81"/>
<polygon fill="midnightblue" stroke="midnightblue" points="975.73,-389.23 986.25,-387.95 977.23,-382.39 975.73,-389.23"/>
</g>
<!-- Node29 -->
<g id="node29" class="node">
<title>Node29</title>
<g id="a_node29"><a xlink:href="../../df/d4d/classAutocompleteController.html#a0b6b9a27089bca29c9f9f557955d7ecf" target="_top" xlink:title=" ">
<polygon fill="white" stroke="black" points="996.5,-437 996.5,-467 1115.5,-467 1115.5,-437 996.5,-437"/>
<text text-anchor="start" x="1004.5" y="-455" font-family="Helvetica,sans-Serif" font-size="10.00">AutocompleteController</text>
<text text-anchor="middle" x="1056" y="-444" font-family="Helvetica,sans-Serif" font-size="10.00">::done</text>
</a>
</g>
</g>
<!-- Node27&#45;&gt;Node29 -->
<g id="edge32" class="edge">
<title>Node27&#45;&gt;Node29</title>
<path fill="none" stroke="midnightblue" d="M908.27,-374.03C918.58,-378.07 928.96,-383.02 938,-389 957.68,-402.01 953.97,-415.54 974,-428 978.07,-430.53 982.41,-432.81 986.9,-434.85"/>
<polygon fill="midnightblue" stroke="midnightblue" points="985.7,-438.14 996.28,-438.73 988.37,-431.67 985.7,-438.14"/>
</g>
<!-- Node34&#45;&gt;Node4 -->
<g id="edge43" class="edge">
<title>Node34&#45;&gt;Node4</title>
<path fill="none" stroke="midnightblue" d="M264.73,-538.09C273.2,-580.52 302.98,-702.06 376,-767 380.44,-770.95 385.41,-774.38 390.68,-777.36"/>
<polygon fill="midnightblue" stroke="midnightblue" points="389.28,-780.57 399.78,-781.96 392.43,-774.32 389.28,-780.57"/>
</g>
<!-- Node36&#45;&gt;Node35 -->
<g id="edge46" class="edge">
<title>Node36&#45;&gt;Node35</title>
<path fill="none" stroke="midnightblue" d="M340.19,-48C348.54,-48 357.11,-48 365.67,-48"/>
<polygon fill="midnightblue" stroke="midnightblue" points="365.7,-51.5 375.7,-48 365.7,-44.5 365.7,-51.5"/>
</g>
<!-- Node37 -->
<g id="node37" class="node">
<title>Node37</title>
<g id="a_node37"><a xlink:href="../../d0/d94/classOmniboxViewViews.html#a9747120bf031c14860eaa85c4a1fdb76" target="_top" xlink:title=" ">
<polygon fill="white" stroke="black" points="395,-0.5 395,-19.5 540,-19.5 540,-0.5 395,-0.5"/>
<text text-anchor="middle" x="467.5" y="-7.5" font-family="Helvetica,sans-Serif" font-size="10.00">OmniboxViewViews::GetText</text>
</a>
</g>
</g>
<!-- Node36&#45;&gt;Node37 -->
<g id="edge47" class="edge">
<title>Node36&#45;&gt;Node37</title>
<path fill="none" stroke="midnightblue" d="M313.34,-38.46C341.17,-33.29 375.77,-26.86 405.03,-21.42"/>
<polygon fill="midnightblue" stroke="midnightblue" points="405.95,-24.81 415.14,-19.54 404.67,-17.93 405.95,-24.81"/>
</g>
</g>
</svg>
