<?xml version="1.0" encoding="UTF-8" standalone="no"?>
<!DOCTYPE svg PUBLIC "-//W3C//DTD SVG 1.1//EN"
 "http://www.w3.org/Graphics/SVG/1.1/DTD/svg11.dtd">
<!-- Generated by graphviz version 2.43.0 (0)
 -->
<!-- Title: OmniboxViewViews::PerformDrop Pages: 1 -->
<svg width="354pt" height="78pt"
 viewBox="0.00 0.00 354.00 77.50" xmlns="http://www.w3.org/2000/svg" xmlns:xlink="http://www.w3.org/1999/xlink">
<g id="graph0" class="graph" transform="scale(1 1) rotate(0) translate(4 73.5)">
<title>OmniboxViewViews::PerformDrop</title>
<polygon fill="white" stroke="transparent" points="-4,4 -4,-73.5 350,-73.5 350,4 -4,4"/>
<!-- Node1 -->
<g id="node1" class="node">
<title>Node1</title>
<g id="a_node1"><a xlink:title=" ">
<polygon fill="#bfbfbf" stroke="black" points="180,-22.5 180,-41.5 346,-41.5 346,-22.5 180,-22.5"/>
<text text-anchor="middle" x="263" y="-29.5" font-family="Helvetica,sans-Serif" font-size="10.00">OmniboxViewViews::PerformDrop</text>
</a>
</g>
</g>
<!-- Node2 -->
<g id="node2" class="node">
<title>Node2</title>
<g id="a_node2"><a xlink:href="../../d0/d94/classOmniboxViewViews.html#a87782fc4f0196aa844bf101f6f350a99" target="_top" xlink:title=" ">
<polygon fill="white" stroke="black" points="2,-39 2,-69 142,-69 142,-39 2,-39"/>
<text text-anchor="start" x="10" y="-57" font-family="Helvetica,sans-Serif" font-size="10.00">OmniboxViewViews::Create</text>
<text text-anchor="middle" x="72" y="-46" font-family="Helvetica,sans-Serif" font-size="10.00">DropCallback</text>
</a>
</g>
</g>
<!-- Node1&#45;&gt;Node2 -->
<g id="edge1" class="edge">
<title>Node1&#45;&gt;Node2</title>
<path fill="none" stroke="midnightblue" d="M170.06,-42.7C160.68,-43.79 151.27,-44.89 142.19,-45.95"/>
<polygon fill="midnightblue" stroke="midnightblue" points="170.67,-46.15 180.2,-41.52 169.86,-39.2 170.67,-46.15"/>
</g>
<!-- Node3 -->
<g id="node3" class="node">
<title>Node3</title>
<g id="a_node3"><a xlink:href="../../d0/d94/classOmniboxViewViews.html#aaedb3612ac83dde33bb4792043a44186" target="_top" xlink:title=" ">
<polygon fill="white" stroke="black" points="0,-0.5 0,-19.5 144,-19.5 144,-0.5 0,-0.5"/>
<text text-anchor="middle" x="72" y="-7.5" font-family="Helvetica,sans-Serif" font-size="10.00">OmniboxViewViews::OnDrop</text>
</a>
</g>
</g>
<!-- Node1&#45;&gt;Node3 -->
<g id="edge2" class="edge">
<title>Node1&#45;&gt;Node3</title>
<path fill="none" stroke="midnightblue" d="M170.05,-21.3C161.38,-20.29 152.68,-19.27 144.24,-18.29"/>
<polygon fill="midnightblue" stroke="midnightblue" points="169.86,-24.8 180.2,-22.48 170.67,-17.85 169.86,-24.8"/>
</g>
</g>
</svg>
