<?xml version="1.0" encoding="UTF-8" standalone="no"?>
<!DOCTYPE svg PUBLIC "-//W3C//DTD SVG 1.1//EN"
 "http://www.w3.org/Graphics/SVG/1.1/DTD/svg11.dtd">
<!-- Generated by graphviz version 2.43.0 (0)
 -->
<!-- Title: OmniboxViewViews::OnBlur Pages: 1 -->
<svg width="1018pt" height="290pt"
 viewBox="0.00 0.00 1018.00 290.00" xmlns="http://www.w3.org/2000/svg" xmlns:xlink="http://www.w3.org/1999/xlink">
<g id="graph0" class="graph" transform="scale(1 1) rotate(0) translate(4 286)">
<title>OmniboxViewViews::OnBlur</title>
<polygon fill="white" stroke="transparent" points="-4,4 -4,-286 1014,-286 1014,4 -4,4"/>
<!-- Node1 -->
<g id="node1" class="node">
<title>Node1</title>
<g id="a_node1"><a xlink:title=" ">
<polygon fill="#bfbfbf" stroke="black" points="0,-137 0,-156 140,-156 140,-137 0,-137"/>
<text text-anchor="middle" x="70" y="-144" font-family="Helvetica,sans-Serif" font-size="10.00">OmniboxViewViews::OnBlur</text>
</a>
</g>
</g>
<!-- Node2 -->
<g id="node2" class="node">
<title>Node2</title>
<g id="a_node2"><a xlink:href="../../d0/d94/classOmniboxViewViews.html#ac3c6d49105812249ed0254bba7ba2c88" target="_top" xlink:title=" ">
<polygon fill="white" stroke="black" points="176,-251.5 176,-281.5 365,-281.5 365,-251.5 176,-251.5"/>
<text text-anchor="start" x="184" y="-269.5" font-family="Helvetica,sans-Serif" font-size="10.00">OmniboxViewViews::ClearAccessibility</text>
<text text-anchor="middle" x="270.5" y="-258.5" font-family="Helvetica,sans-Serif" font-size="10.00">Label</text>
</a>
</g>
</g>
<!-- Node1&#45;&gt;Node2 -->
<g id="edge1" class="edge">
<title>Node1&#45;&gt;Node2</title>
<path fill="none" stroke="midnightblue" d="M79.6,-156.06C96.41,-174.22 135.55,-213.9 176,-236.5 183.68,-240.79 192.06,-244.57 200.54,-247.87"/>
<polygon fill="midnightblue" stroke="midnightblue" points="199.55,-251.23 210.14,-251.39 201.96,-244.66 199.55,-251.23"/>
</g>
<!-- Node3 -->
<g id="node3" class="node">
<title>Node3</title>
<g id="a_node3"><a xlink:href="../../d9/d1e/classOmniboxView.html#ac3ddb78512aba4b8a69b2b7e2b8caeb7" target="_top" xlink:title=" ">
<polygon fill="white" stroke="black" points="607.5,-207.5 607.5,-237.5 755.5,-237.5 755.5,-207.5 607.5,-207.5"/>
<text text-anchor="start" x="615.5" y="-225.5" font-family="Helvetica,sans-Serif" font-size="10.00">OmniboxView::CloseOmnibox</text>
<text text-anchor="middle" x="681.5" y="-214.5" font-family="Helvetica,sans-Serif" font-size="10.00">Popup</text>
</a>
</g>
</g>
<!-- Node1&#45;&gt;Node3 -->
<g id="edge2" class="edge">
<title>Node1&#45;&gt;Node3</title>
<path fill="none" stroke="midnightblue" d="M84.06,-156.2C103.12,-169.73 140.19,-193.69 176,-203.5 319.84,-242.92 495.35,-238.33 596.88,-230.82"/>
<polygon fill="midnightblue" stroke="midnightblue" points="597.37,-234.29 607.08,-230.04 596.84,-227.31 597.37,-234.29"/>
</g>
<!-- Node4 -->
<g id="node4" class="node">
<title>Node4</title>
<g id="a_node4"><a xlink:href="../../d0/d94/classOmniboxViewViews.html#a9747120bf031c14860eaa85c4a1fdb76" target="_top" xlink:title=" ">
<polygon fill="white" stroke="black" points="198,-137 198,-156 343,-156 343,-137 198,-137"/>
<text text-anchor="middle" x="270.5" y="-144" font-family="Helvetica,sans-Serif" font-size="10.00">OmniboxViewViews::GetText</text>
</a>
</g>
</g>
<!-- Node1&#45;&gt;Node4 -->
<g id="edge3" class="edge">
<title>Node1&#45;&gt;Node4</title>
<path fill="none" stroke="midnightblue" d="M140.15,-146.5C155.47,-146.5 171.86,-146.5 187.64,-146.5"/>
<polygon fill="midnightblue" stroke="midnightblue" points="187.91,-150 197.91,-146.5 187.91,-143 187.91,-150"/>
</g>
<!-- Node5 -->
<g id="node5" class="node">
<title>Node5</title>
<g id="a_node5"><a xlink:href="../../d9/d1e/classOmniboxView.html#aac25a41924b28863d31120527936dc6d" target="_top" xlink:title=" ">
<polygon fill="white" stroke="black" points="215.5,-99 215.5,-118 325.5,-118 325.5,-99 215.5,-99"/>
<text text-anchor="middle" x="270.5" y="-106" font-family="Helvetica,sans-Serif" font-size="10.00">OmniboxView::model</text>
</a>
</g>
</g>
<!-- Node1&#45;&gt;Node5 -->
<g id="edge4" class="edge">
<title>Node1&#45;&gt;Node5</title>
<path fill="none" stroke="midnightblue" d="M120.83,-136.96C147.73,-131.81 181.14,-125.42 209.46,-119.99"/>
<polygon fill="midnightblue" stroke="midnightblue" points="210.48,-123.36 219.65,-118.04 209.17,-116.49 210.48,-123.36"/>
</g>
<!-- Node6 -->
<g id="node6" class="node">
<title>Node6</title>
<g id="a_node6"><a xlink:href="../../d0/d22/classOmniboxEditModel.html#ac66fd48c7e5358a61b9dd3e494a711d5" target="_top" xlink:title=" ">
<polygon fill="white" stroke="black" points="205,-49.5 205,-79.5 336,-79.5 336,-49.5 205,-49.5"/>
<text text-anchor="start" x="213" y="-67.5" font-family="Helvetica,sans-Serif" font-size="10.00">OmniboxEditModel::OnKill</text>
<text text-anchor="middle" x="270.5" y="-56.5" font-family="Helvetica,sans-Serif" font-size="10.00">Focus</text>
</a>
</g>
</g>
<!-- Node1&#45;&gt;Node6 -->
<g id="edge5" class="edge">
<title>Node1&#45;&gt;Node6</title>
<path fill="none" stroke="midnightblue" d="M86.1,-136.82C106.02,-124.39 142.47,-102.86 176,-89.5 182.19,-87.03 188.7,-84.73 195.29,-82.6"/>
<polygon fill="midnightblue" stroke="midnightblue" points="196.45,-85.91 204.97,-79.61 194.38,-79.22 196.45,-85.91"/>
</g>
<!-- Node11 -->
<g id="node11" class="node">
<title>Node11</title>
<g id="a_node11"><a xlink:href="../../d0/d22/classOmniboxEditModel.html#a690ffac2dc263fec61dc16b18b0e3cde" target="_top" xlink:title=" ">
<polygon fill="white" stroke="black" points="203.5,-0.5 203.5,-30.5 337.5,-30.5 337.5,-0.5 203.5,-0.5"/>
<text text-anchor="start" x="211.5" y="-18.5" font-family="Helvetica,sans-Serif" font-size="10.00">OmniboxEditModel::OnWill</text>
<text text-anchor="middle" x="270.5" y="-7.5" font-family="Helvetica,sans-Serif" font-size="10.00">KillFocus</text>
</a>
</g>
</g>
<!-- Node1&#45;&gt;Node11 -->
<g id="edge10" class="edge">
<title>Node1&#45;&gt;Node11</title>
<path fill="none" stroke="midnightblue" d="M77.63,-136.8C92.57,-115.68 131.13,-65.37 176,-39.5 181.53,-36.31 187.48,-33.54 193.6,-31.14"/>
<polygon fill="midnightblue" stroke="midnightblue" points="195.1,-34.32 203.34,-27.65 192.74,-27.73 195.1,-34.32"/>
</g>
<!-- Node12 -->
<g id="node12" class="node">
<title>Node12</title>
<g id="a_node12"><a xlink:href="../../d0/d94/classOmniboxViewViews.html#ab6a54ac38f2deb636bf333ab39181422" target="_top" xlink:title=" ">
<polygon fill="white" stroke="black" points="195,-175 195,-194 346,-194 346,-175 195,-175"/>
<text text-anchor="middle" x="270.5" y="-182" font-family="Helvetica,sans-Serif" font-size="10.00">OmniboxViewViews::RevertAll</text>
</a>
</g>
</g>
<!-- Node1&#45;&gt;Node12 -->
<g id="edge11" class="edge">
<title>Node1&#45;&gt;Node12</title>
<path fill="none" stroke="midnightblue" d="M120.83,-156.04C147.73,-161.19 181.14,-167.58 209.46,-173.01"/>
<polygon fill="midnightblue" stroke="midnightblue" points="209.17,-176.51 219.65,-174.96 210.48,-169.64 209.17,-176.51"/>
</g>
<!-- Node7 -->
<g id="node7" class="node">
<title>Node7</title>
<g id="a_node7"><a xlink:href="../../d9/d1e/classOmniboxView.html#a757354a766b9de3c285f21a2a456ba48" target="_top" xlink:title=" ">
<polygon fill="white" stroke="black" points="401,-77 401,-96 561,-96 561,-77 401,-77"/>
<text text-anchor="middle" x="481" y="-84" font-family="Helvetica,sans-Serif" font-size="10.00">OmniboxView::HideImeIfNeeded</text>
</a>
</g>
</g>
<!-- Node6&#45;&gt;Node7 -->
<g id="edge6" class="edge">
<title>Node6&#45;&gt;Node7</title>
<path fill="none" stroke="midnightblue" d="M336.04,-71.31C353.3,-73.13 372.26,-75.13 390.6,-77.07"/>
<polygon fill="midnightblue" stroke="midnightblue" points="390.39,-80.56 400.71,-78.13 391.13,-73.6 390.39,-80.56"/>
</g>
<!-- Node8 -->
<g id="node8" class="node">
<title>Node8</title>
<g id="a_node8"><a xlink:href="../../d0/d22/classOmniboxEditModel.html#a7305586191b3f1b972616914def2fd74" target="_top" xlink:title=" ">
<polygon fill="white" stroke="black" points="407.5,-27.5 407.5,-57.5 554.5,-57.5 554.5,-27.5 407.5,-27.5"/>
<text text-anchor="start" x="415.5" y="-45.5" font-family="Helvetica,sans-Serif" font-size="10.00">OmniboxEditModel::SetFocus</text>
<text text-anchor="middle" x="481" y="-34.5" font-family="Helvetica,sans-Serif" font-size="10.00">State</text>
</a>
</g>
</g>
<!-- Node6&#45;&gt;Node8 -->
<g id="edge7" class="edge">
<title>Node6&#45;&gt;Node8</title>
<path fill="none" stroke="midnightblue" d="M336.04,-57.69C355.38,-55.65 376.86,-53.38 397.2,-51.24"/>
<polygon fill="midnightblue" stroke="midnightblue" points="397.82,-54.69 407.4,-50.16 397.09,-47.73 397.82,-54.69"/>
</g>
<!-- Node9 -->
<g id="node9" class="node">
<title>Node9</title>
<g id="a_node9"><a xlink:href="../../d9/d1e/classOmniboxView.html#a581ba04d09607de42785148595595626" target="_top" xlink:title=" ">
<polygon fill="white" stroke="black" points="597,-55 597,-74 766,-74 766,-55 597,-55"/>
<text text-anchor="middle" x="681.5" y="-62" font-family="Helvetica,sans-Serif" font-size="10.00">OmniboxView::ApplyCaretVisibility</text>
</a>
</g>
</g>
<!-- Node8&#45;&gt;Node9 -->
<g id="edge8" class="edge">
<title>Node8&#45;&gt;Node9</title>
<path fill="none" stroke="midnightblue" d="M554.51,-50.54C564.91,-51.69 575.74,-52.89 586.49,-54.08"/>
<polygon fill="midnightblue" stroke="midnightblue" points="586.43,-57.6 596.76,-55.22 587.2,-50.64 586.43,-57.6"/>
</g>
<!-- Node10 -->
<g id="node10" class="node">
<title>Node10</title>
<g id="a_node10"><a xlink:href="../../d0/d22/classOmniboxEditModel.html#a1abe23a3b5db8440ddfdea65d628e006" target="_top" xlink:title=" ">
<polygon fill="white" stroke="black" points="625,-5.5 625,-35.5 738,-35.5 738,-5.5 625,-5.5"/>
<text text-anchor="start" x="633" y="-23.5" font-family="Helvetica,sans-Serif" font-size="10.00">OmniboxEditModel::is</text>
<text text-anchor="middle" x="681.5" y="-12.5" font-family="Helvetica,sans-Serif" font-size="10.00">_caret_visible</text>
</a>
</g>
</g>
<!-- Node8&#45;&gt;Node10 -->
<g id="edge9" class="edge">
<title>Node8&#45;&gt;Node10</title>
<path fill="none" stroke="midnightblue" d="M554.51,-34.46C574.31,-32.27 595.65,-29.9 615.04,-27.76"/>
<polygon fill="midnightblue" stroke="midnightblue" points="615.43,-31.23 624.98,-26.65 614.66,-24.28 615.43,-31.23"/>
</g>
<!-- Node13 -->
<g id="node13" class="node">
<title>Node13</title>
<g id="a_node13"><a xlink:href="../../d9/d1e/classOmniboxView.html#a405dec91c8bd106dec923394899defa8" target="_top" xlink:title=" ">
<polygon fill="white" stroke="black" points="419,-175 419,-194 543,-194 543,-175 419,-175"/>
<text text-anchor="middle" x="481" y="-182" font-family="Helvetica,sans-Serif" font-size="10.00">OmniboxView::RevertAll</text>
</a>
</g>
</g>
<!-- Node12&#45;&gt;Node13 -->
<g id="edge12" class="edge">
<title>Node12&#45;&gt;Node13</title>
<path fill="none" stroke="midnightblue" d="M346.18,-184.5C366.58,-184.5 388.61,-184.5 408.81,-184.5"/>
<polygon fill="midnightblue" stroke="midnightblue" points="408.87,-188 418.87,-184.5 408.87,-181 408.87,-188"/>
</g>
<!-- Node13&#45;&gt;Node3 -->
<g id="edge13" class="edge">
<title>Node13&#45;&gt;Node3</title>
<path fill="none" stroke="midnightblue" d="M531.83,-194.04C551.74,-197.85 575.21,-202.34 597.55,-206.62"/>
<polygon fill="midnightblue" stroke="midnightblue" points="596.89,-210.06 607.37,-208.5 598.21,-203.18 596.89,-210.06"/>
</g>
<!-- Node14 -->
<g id="node14" class="node">
<title>Node14</title>
<g id="a_node14"><a xlink:href="../../d9/d1e/classOmniboxView.html#a601602b62f2b2f84d28660988c6b8959" target="_top" xlink:title=" ">
<polygon fill="white" stroke="black" points="611,-169 611,-188 752,-188 752,-169 611,-169"/>
<text text-anchor="middle" x="681.5" y="-176" font-family="Helvetica,sans-Serif" font-size="10.00">OmniboxView::TextChanged</text>
</a>
</g>
</g>
<!-- Node13&#45;&gt;Node14 -->
<g id="edge14" class="edge">
<title>Node13&#45;&gt;Node14</title>
<path fill="none" stroke="midnightblue" d="M543.18,-182.65C561.33,-182.1 581.49,-181.49 600.64,-180.91"/>
<polygon fill="midnightblue" stroke="midnightblue" points="600.96,-184.41 610.85,-180.61 600.75,-177.41 600.96,-184.41"/>
</g>
<!-- Node15 -->
<g id="node15" class="node">
<title>Node15</title>
<g id="a_node15"><a xlink:href="../../d9/d1e/classOmniboxView.html#a366f0727cd437ca6ad9bc44956fb5115" target="_top" xlink:title=" ">
<polygon fill="white" stroke="black" points="802,-169 802,-188 1010,-188 1010,-169 802,-169"/>
<text text-anchor="middle" x="906" y="-176" font-family="Helvetica,sans-Serif" font-size="10.00">OmniboxView::EmphasizeURLComponents</text>
</a>
</g>
</g>
<!-- Node14&#45;&gt;Node15 -->
<g id="edge15" class="edge">
<title>Node14&#45;&gt;Node15</title>
<path fill="none" stroke="midnightblue" d="M752.29,-178.5C764.78,-178.5 778.09,-178.5 791.44,-178.5"/>
<polygon fill="midnightblue" stroke="midnightblue" points="791.64,-182 801.64,-178.5 791.64,-175 791.64,-182"/>
</g>
</g>
</svg>
