<?xml version="1.0" encoding="UTF-8" standalone="no"?>
<!DOCTYPE svg PUBLIC "-//W3C//DTD SVG 1.1//EN"
 "http://www.w3.org/Graphics/SVG/1.1/DTD/svg11.dtd">
<!-- Generated by graphviz version 2.43.0 (0)
 -->
<!-- Title: OmniboxViewViews::ShouldShowPlaceholderText Pages: 1 -->
<svg width="297pt" height="127pt"
 viewBox="0.00 0.00 297.00 126.50" xmlns="http://www.w3.org/2000/svg" xmlns:xlink="http://www.w3.org/1999/xlink">
<g id="graph0" class="graph" transform="scale(1 1) rotate(0) translate(4 122.5)">
<title>OmniboxViewViews::ShouldShowPlaceholderText</title>
<polygon fill="white" stroke="transparent" points="-4,4 -4,-122.5 293,-122.5 293,4 -4,4"/>
<!-- Node1 -->
<g id="node1" class="node">
<title>Node1</title>
<g id="a_node1"><a xlink:title=" ">
<polygon fill="#bfbfbf" stroke="black" points="0,-39 0,-69 140,-69 140,-39 0,-39"/>
<text text-anchor="start" x="8" y="-57" font-family="Helvetica,sans-Serif" font-size="10.00">OmniboxViewViews::Should</text>
<text text-anchor="middle" x="70" y="-46" font-family="Helvetica,sans-Serif" font-size="10.00">ShowPlaceholderText</text>
</a>
</g>
</g>
<!-- Node2 -->
<g id="node2" class="node">
<title>Node2</title>
<g id="a_node2"><a xlink:href="../../d0/d22/classOmniboxEditModel.html#a1abe23a3b5db8440ddfdea65d628e006" target="_top" xlink:title=" ">
<polygon fill="white" stroke="black" points="176,-88 176,-118 289,-118 289,-88 176,-88"/>
<text text-anchor="start" x="184" y="-106" font-family="Helvetica,sans-Serif" font-size="10.00">OmniboxEditModel::is</text>
<text text-anchor="middle" x="232.5" y="-95" font-family="Helvetica,sans-Serif" font-size="10.00">_caret_visible</text>
</a>
</g>
</g>
<!-- Node1&#45;&gt;Node2 -->
<g id="edge1" class="edge">
<title>Node1&#45;&gt;Node2</title>
<path fill="none" stroke="midnightblue" d="M120.46,-69.1C136.86,-74.11 155.29,-79.73 172.34,-84.94"/>
<polygon fill="midnightblue" stroke="midnightblue" points="171.61,-88.38 182.2,-87.95 173.66,-81.68 171.61,-88.38"/>
</g>
<!-- Node3 -->
<g id="node3" class="node">
<title>Node3</title>
<g id="a_node3"><a xlink:href="../../d0/d22/classOmniboxEditModel.html#a0a13d5acf2a89532b46249c91cecb04b" target="_top" xlink:title=" ">
<polygon fill="white" stroke="black" points="176,-39 176,-69 289,-69 289,-39 176,-39"/>
<text text-anchor="start" x="184" y="-57" font-family="Helvetica,sans-Serif" font-size="10.00">OmniboxEditModel::is</text>
<text text-anchor="middle" x="232.5" y="-46" font-family="Helvetica,sans-Serif" font-size="10.00">_keyword_selected</text>
</a>
</g>
</g>
<!-- Node1&#45;&gt;Node3 -->
<g id="edge2" class="edge">
<title>Node1&#45;&gt;Node3</title>
<path fill="none" stroke="midnightblue" d="M140.46,-54C148.9,-54 157.49,-54 165.87,-54"/>
<polygon fill="midnightblue" stroke="midnightblue" points="165.95,-57.5 175.95,-54 165.95,-50.5 165.95,-57.5"/>
</g>
<!-- Node4 -->
<g id="node4" class="node">
<title>Node4</title>
<g id="a_node4"><a xlink:href="../../d9/d1e/classOmniboxView.html#aac25a41924b28863d31120527936dc6d" target="_top" xlink:title=" ">
<polygon fill="white" stroke="black" points="177.5,-0.5 177.5,-19.5 287.5,-19.5 287.5,-0.5 177.5,-0.5"/>
<text text-anchor="middle" x="232.5" y="-7.5" font-family="Helvetica,sans-Serif" font-size="10.00">OmniboxView::model</text>
</a>
</g>
</g>
<!-- Node1&#45;&gt;Node4 -->
<g id="edge3" class="edge">
<title>Node1&#45;&gt;Node4</title>
<path fill="none" stroke="midnightblue" d="M125.79,-38.98C145.65,-33.54 167.83,-27.46 186.72,-22.28"/>
<polygon fill="midnightblue" stroke="midnightblue" points="187.84,-25.6 196.56,-19.58 185.99,-18.85 187.84,-25.6"/>
</g>
</g>
</svg>
