<?xml version="1.0" encoding="UTF-8" standalone="no"?>
<!DOCTYPE svg PUBLIC "-//W3C//DTD SVG 1.1//EN"
 "http://www.w3.org/Graphics/SVG/1.1/DTD/svg11.dtd">
<!-- Generated by graphviz version 2.43.0 (0)
 -->
<!-- Title: OmniboxViewViews::OnGetDragOperationsForTextfield Pages: 1 -->
<!--zoomable 870 -->
<svg id="main" version="1.1" xmlns="http://www.w3.org/2000/svg" xmlns:xlink="http://www.w3.org/1999/xlink" xml:space="preserve" onload="init(evt)">
<style type="text/css"><![CDATA[
.edge:hover path { stroke: red; }
.edge:hover polygon { stroke: red; fill: red; }
]]></style>
<script type="text/javascript"><![CDATA[
var edges = document.getElementsByTagName('g');
if (edges && edges.length) {
  for (var i=0;i<edges.length;i++) {
    if (edges[i].id.substr(0,4)=='edge') {
      edges[i].setAttribute('class','edge');
    }
  }
}
]]></script>
        <defs>
                <circle id="rim" cx="0" cy="0" r="7"/>
                <circle id="rim2" cx="0" cy="0" r="3.5"/>
                <g id="zoomPlus">
                        <use xlink:href="#rim" fill="#404040">
                                <set attributeName="fill" to="#808080" begin="zoomplus.mouseover" end="zoomplus.mouseout"/>
                        </use>
                        <path d="M-4,0h8M0,-4v8" fill="none" stroke="white" stroke-width="1.5" pointer-events="none"/>
                </g>
                <g id="zoomMin">
                        <use xlink:href="#rim" fill="#404040">
                                <set attributeName="fill" to="#808080" begin="zoomminus.mouseover" end="zoomminus.mouseout"/>
                        </use>
                        <path d="M-4,0h8" fill="none" stroke="white" stroke-width="1.5" pointer-events="none"/>
                </g>
                <g id="dirArrow">
                        <path fill="none" stroke="white" stroke-width="1.5" d="M0,-3.0v7 M-2.5,-0.5L0,-3.0L2.5,-0.5"/>
                </g>
               <g id="resetDef">
                       <use xlink:href="#rim2" fill="#404040">
                               <set attributeName="fill" to="#808080" begin="reset.mouseover" end="reset.mouseout"/>
                       </use>
               </g>
        </defs>

<script type="text/javascript">
var viewWidth = 1302;
var viewHeight = 870;
var sectionId = 'dynsection-52';
</script>
<script xlink:href="../../svgpan.js"/>
<svg id="graph" class="graph">
<g id="viewport">
<title>OmniboxViewViews::OnGetDragOperationsForTextfield</title>
<polygon fill="white" stroke="transparent" points="-4,4 -4,-866 1298,-866 1298,4 -4,4"/>
<!-- Node1 -->
<g id="node1" class="node">
<title>Node1</title>
<g id="a_node1"><a xlink:title=" ">
<polygon fill="#bfbfbf" stroke="black" points="0,-604 0,-634 160,-634 160,-604 0,-604"/>
<text text-anchor="start" x="8" y="-622" font-family="Helvetica,sans-Serif" font-size="10.00">OmniboxViewViews::OnGetDrag</text>
<text text-anchor="middle" x="80" y="-611" font-family="Helvetica,sans-Serif" font-size="10.00">OperationsForTextfield</text>
</a>
</g>
</g>
<!-- Node2 -->
<g id="node2" class="node">
<title>Node2</title>
<g id="a_node2"><a xlink:href="../../d0/d22/classOmniboxEditModel.html#ab45b2ea3b6c02339e39daa03ae72ed83" target="_top" xlink:title=" ">
<polygon fill="white" stroke="black" points="221,-648 221,-678 354,-678 354,-648 221,-648"/>
<text text-anchor="start" x="229" y="-666" font-family="Helvetica,sans-Serif" font-size="10.00">OmniboxEditModel::Adjust</text>
<text text-anchor="middle" x="287.5" y="-655" font-family="Helvetica,sans-Serif" font-size="10.00">TextForCopy</text>
</a>
</g>
</g>
<!-- Node1&#45;&gt;Node2 -->
<g id="edge1" class="edge">
<title>Node1&#45;&gt;Node2</title>
<path fill="none" stroke="midnightblue" d="M151.15,-634.02C170.44,-638.15 191.45,-642.65 211.03,-646.84"/>
<polygon fill="midnightblue" stroke="midnightblue" points="210.31,-650.27 220.82,-648.94 211.78,-643.42 210.31,-650.27"/>
</g>
<!-- Node33 -->
<g id="node33" class="node">
<title>Node33</title>
<g id="a_node33"><a xlink:href="../../d0/d94/classOmniboxViewViews.html#a694c20c02136968faf5e0d7bde503897" target="_top" xlink:title=" ">
<polygon fill="white" stroke="black" points="196,-609.5 196,-628.5 379,-628.5 379,-609.5 196,-609.5"/>
<text text-anchor="middle" x="287.5" y="-616.5" font-family="Helvetica,sans-Serif" font-size="10.00">OmniboxViewViews::GetSelectedText</text>
</a>
</g>
</g>
<!-- Node1&#45;&gt;Node33 -->
<g id="edge43" class="edge">
<title>Node1&#45;&gt;Node33</title>
<path fill="none" stroke="midnightblue" d="M160.16,-619C168.53,-619 177.12,-619 185.69,-619"/>
<polygon fill="midnightblue" stroke="midnightblue" points="185.73,-622.5 195.73,-619 185.73,-615.5 185.73,-622.5"/>
</g>
<!-- Node34 -->
<g id="node34" class="node">
<title>Node34</title>
<g id="a_node34"><a xlink:href="../../d9/d1e/classOmniboxView.html#aac25a41924b28863d31120527936dc6d" target="_top" xlink:title=" ">
<polygon fill="white" stroke="black" points="232.5,-571.5 232.5,-590.5 342.5,-590.5 342.5,-571.5 232.5,-571.5"/>
<text text-anchor="middle" x="287.5" y="-578.5" font-family="Helvetica,sans-Serif" font-size="10.00">OmniboxView::model</text>
</a>
</g>
</g>
<!-- Node1&#45;&gt;Node34 -->
<g id="edge44" class="edge">
<title>Node1&#45;&gt;Node34</title>
<path fill="none" stroke="midnightblue" d="M160.16,-604.36C181.63,-600.39 204.56,-596.15 224.9,-592.39"/>
<polygon fill="midnightblue" stroke="midnightblue" points="225.78,-595.79 234.98,-590.53 224.51,-588.9 225.78,-595.79"/>
</g>
<!-- Node3 -->
<g id="node3" class="node">
<title>Node3</title>
<g id="a_node3"><a xlink:href="../../d0/d22/classOmniboxEditModel.html#ad4c23db832a06ca44fb769a87cebd6e9" target="_top" xlink:title=" ">
<polygon fill="white" stroke="black" points="976.5,-842.5 976.5,-861.5 1121.5,-861.5 1121.5,-842.5 976.5,-842.5"/>
<text text-anchor="middle" x="1049" y="-849.5" font-family="Helvetica,sans-Serif" font-size="10.00">OmniboxEditModel::controller</text>
</a>
</g>
</g>
<!-- Node2&#45;&gt;Node3 -->
<g id="edge2" class="edge">
<title>Node2&#45;&gt;Node3</title>
<path fill="none" stroke="midnightblue" d="M303.79,-678.12C326.21,-699.37 370.2,-737.74 415,-758 599.13,-841.26 841.15,-853.66 965.86,-853.86"/>
<polygon fill="midnightblue" stroke="midnightblue" points="966.09,-857.36 976.09,-853.85 966.09,-850.36 966.09,-857.36"/>
</g>
<!-- Node4 -->
<g id="node4" class="node">
<title>Node4</title>
<g id="a_node4"><a xlink:href="../../d0/d22/classOmniboxEditModel.html#a8fcc92f2543e50522f9e297ef4988e90" target="_top" xlink:title=" ">
<polygon fill="white" stroke="black" points="415,-580 415,-610 552,-610 552,-580 415,-580"/>
<text text-anchor="start" x="423" y="-598" font-family="Helvetica,sans-Serif" font-size="10.00">OmniboxEditModel::Current</text>
<text text-anchor="middle" x="483.5" y="-587" font-family="Helvetica,sans-Serif" font-size="10.00">Match</text>
</a>
</g>
</g>
<!-- Node2&#45;&gt;Node4 -->
<g id="edge3" class="edge">
<title>Node2&#45;&gt;Node4</title>
<path fill="none" stroke="midnightblue" d="M347.25,-647.92C357.89,-644.86 368.83,-641.5 379,-638 399.37,-630.99 421.47,-622 440.01,-614.05"/>
<polygon fill="midnightblue" stroke="midnightblue" points="441.56,-617.2 449.34,-610.01 438.78,-610.77 441.56,-617.2"/>
</g>
<!-- Node9 -->
<g id="node9" class="node">
<title>Node9</title>
<g id="a_node9"><a xlink:href="../../dc/d8f/structAutocompleteMatch.html#a2995f802114ff701b5d6e037fb3019b3" target="_top" xlink:title=" ">
<polygon fill="white" stroke="black" points="994,-695 994,-725 1104,-725 1104,-695 994,-695"/>
<text text-anchor="start" x="1002" y="-713" font-family="Helvetica,sans-Serif" font-size="10.00">AutocompleteMatch::</text>
<text text-anchor="middle" x="1049" y="-702" font-family="Helvetica,sans-Serif" font-size="10.00">IsSearchType</text>
</a>
</g>
</g>
<!-- Node2&#45;&gt;Node9 -->
<g id="edge41" class="edge">
<title>Node2&#45;&gt;Node9</title>
<path fill="none" stroke="midnightblue" d="M354.24,-667.07C498.38,-675.99 840.72,-697.17 983.61,-706.02"/>
<polygon fill="midnightblue" stroke="midnightblue" points="983.76,-709.53 993.96,-706.66 984.2,-702.54 983.76,-709.53"/>
</g>
<!-- Node16 -->
<g id="node16" class="node">
<title>Node16</title>
<g id="a_node16"><a xlink:href="../../d0/d22/classOmniboxEditModel.html#a95286d7e003516065267f306a6cb1965" target="_top" xlink:title=" ">
<polygon fill="white" stroke="black" points="774.5,-744 774.5,-774 917.5,-774 917.5,-744 774.5,-744"/>
<text text-anchor="start" x="782.5" y="-762" font-family="Helvetica,sans-Serif" font-size="10.00">OmniboxEditModel::GetPage</text>
<text text-anchor="middle" x="846" y="-751" font-family="Helvetica,sans-Serif" font-size="10.00">Classification</text>
</a>
</g>
</g>
<!-- Node2&#45;&gt;Node16 -->
<g id="edge38" class="edge">
<title>Node2&#45;&gt;Node16</title>
<path fill="none" stroke="midnightblue" d="M332.25,-678C356.41,-685.81 387.1,-694.97 415,-701 535.4,-727.03 677.44,-743.47 764.34,-751.95"/>
<polygon fill="midnightblue" stroke="midnightblue" points="764.11,-755.45 774.4,-752.92 764.78,-748.48 764.11,-755.45"/>
</g>
<!-- Node17 -->
<g id="node17" class="node">
<title>Node17</title>
<g id="a_node17"><a xlink:href="../../dc/d81/classOmniboxEditController.html#af0496738d6b2b60045f04a52c8b015cb" target="_top" xlink:title=" ">
<polygon fill="white" stroke="black" points="991,-793 991,-823 1107,-823 1107,-793 991,-793"/>
<text text-anchor="start" x="999" y="-811" font-family="Helvetica,sans-Serif" font-size="10.00">OmniboxEditController</text>
<text text-anchor="middle" x="1049" y="-800" font-family="Helvetica,sans-Serif" font-size="10.00">::GetLocationBarModel</text>
</a>
</g>
</g>
<!-- Node2&#45;&gt;Node17 -->
<g id="edge37" class="edge">
<title>Node2&#45;&gt;Node17</title>
<path fill="none" stroke="midnightblue" d="M312.73,-678.09C337.51,-692.83 377.57,-714.77 415,-727 613.58,-791.89 863.04,-805.13 980.7,-807.61"/>
<polygon fill="midnightblue" stroke="midnightblue" points="980.92,-811.11 990.99,-807.8 981.05,-804.11 980.92,-811.11"/>
</g>
<!-- Node21 -->
<g id="node21" class="node">
<title>Node21</title>
<g id="a_node21"><a xlink:href="../../d0/d22/classOmniboxEditModel.html#a0a13d5acf2a89532b46249c91cecb04b" target="_top" xlink:title=" ">
<polygon fill="white" stroke="black" points="992.5,-109 992.5,-139 1105.5,-139 1105.5,-109 992.5,-109"/>
<text text-anchor="start" x="1000.5" y="-127" font-family="Helvetica,sans-Serif" font-size="10.00">OmniboxEditModel::is</text>
<text text-anchor="middle" x="1049" y="-116" font-family="Helvetica,sans-Serif" font-size="10.00">_keyword_selected</text>
</a>
</g>
</g>
<!-- Node2&#45;&gt;Node21 -->
<g id="edge40" class="edge">
<title>Node2&#45;&gt;Node21</title>
<path fill="none" stroke="midnightblue" d="M354.37,-651.67C363.22,-648.25 371.74,-643.8 379,-638 405.42,-616.91 396.96,-599.59 415,-571 553.21,-351.92 529.6,-218.4 761,-102 837.54,-63.5 940.29,-86.44 999.81,-105.79"/>
<polygon fill="midnightblue" stroke="midnightblue" points="998.75,-109.12 1009.34,-108.98 1000.97,-102.48 998.75,-109.12"/>
</g>
<!-- Node26 -->
<g id="node26" class="node">
<title>Node26</title>
<g id="a_node26"><a xlink:href="../../d0/d22/classOmniboxEditModel.html#a67fe900511cae558a9585411c98b36c6" target="_top" xlink:title=" ">
<polygon fill="white" stroke="black" points="764,-38.5 764,-57.5 928,-57.5 928,-38.5 764,-38.5"/>
<text text-anchor="middle" x="846" y="-45.5" font-family="Helvetica,sans-Serif" font-size="10.00">OmniboxEditModel::PopupIsOpen</text>
</a>
</g>
</g>
<!-- Node2&#45;&gt;Node26 -->
<g id="edge42" class="edge">
<title>Node2&#45;&gt;Node26</title>
<path fill="none" stroke="midnightblue" d="M354.21,-655.39C363.75,-651.53 372.52,-645.97 379,-638 458.48,-540.19 325.54,-160.77 415,-72 460.93,-26.42 641.34,-31.51 753.37,-39.58"/>
<polygon fill="midnightblue" stroke="midnightblue" points="753.43,-43.09 763.66,-40.34 753.95,-36.11 753.43,-43.09"/>
</g>
<!-- Node32 -->
<g id="node32" class="node">
<title>Node32</title>
<g id="a_node32"><a xlink:href="../../d1/d62/classLocationBarModel.html#a59dbb65d6241277baa8006d6bb3e3e3a" target="_top" xlink:title=" ">
<polygon fill="white" stroke="black" points="415,-0.5 415,-19.5 552,-19.5 552,-0.5 415,-0.5"/>
<text text-anchor="middle" x="483.5" y="-7.5" font-family="Helvetica,sans-Serif" font-size="10.00">LocationBarModel::GetURL</text>
</a>
</g>
</g>
<!-- Node2&#45;&gt;Node32 -->
<g id="edge39" class="edge">
<title>Node2&#45;&gt;Node32</title>
<path fill="none" stroke="midnightblue" d="M354.24,-655.41C363.78,-651.55 372.54,-645.98 379,-638 463.59,-533.48 334.23,-141.5 415,-34 417.76,-30.32 421.14,-27.2 424.89,-24.56"/>
<polygon fill="midnightblue" stroke="midnightblue" points="426.72,-27.55 433.62,-19.51 423.21,-21.49 426.72,-27.55"/>
</g>
<!-- Node5 -->
<g id="node5" class="node">
<title>Node5</title>
<g id="a_node5"><a xlink:href="../../d3/d03/classAutocompleteResult.html#af09ffe15397e43cf992488963187189b" target="_top" xlink:title=" ">
<polygon fill="white" stroke="black" points="780,-580 780,-610 912,-610 912,-580 780,-580"/>
<text text-anchor="start" x="788" y="-598" font-family="Helvetica,sans-Serif" font-size="10.00">AutocompleteResult</text>
<text text-anchor="middle" x="846" y="-587" font-family="Helvetica,sans-Serif" font-size="10.00">::ComputeAlternateNavUrl</text>
</a>
</g>
</g>
<!-- Node4&#45;&gt;Node5 -->
<g id="edge4" class="edge">
<title>Node4&#45;&gt;Node5</title>
<path fill="none" stroke="midnightblue" d="M552.31,-595C614.26,-595 705.72,-595 769.87,-595"/>
<polygon fill="midnightblue" stroke="midnightblue" points="769.92,-598.5 779.92,-595 769.92,-591.5 769.92,-598.5"/>
</g>
<!-- Node12 -->
<g id="node12" class="node">
<title>Node12</title>
<g id="a_node12"><a xlink:href="../../d0/d22/classOmniboxEditModel.html#a5265a894f111d9204716d40e142e2645" target="_top" xlink:title=" ">
<polygon fill="white" stroke="black" points="588,-345 588,-375 725,-375 725,-345 588,-345"/>
<text text-anchor="start" x="596" y="-363" font-family="Helvetica,sans-Serif" font-size="10.00">OmniboxEditModel::GetInfo</text>
<text text-anchor="middle" x="656.5" y="-352" font-family="Helvetica,sans-Serif" font-size="10.00">ForCurrentText</text>
</a>
</g>
</g>
<!-- Node4&#45;&gt;Node12 -->
<g id="edge11" class="edge">
<title>Node4&#45;&gt;Node12</title>
<path fill="none" stroke="midnightblue" d="M495.46,-579.94C524.46,-540.08 603.42,-431.57 638.41,-383.48"/>
<polygon fill="midnightblue" stroke="midnightblue" points="641.36,-385.38 644.41,-375.24 635.7,-381.26 641.36,-385.38"/>
</g>
<!-- Node6 -->
<g id="node6" class="node">
<title>Node6</title>
<g id="a_node6"><a xlink:href="../../d9/df6/classAutocompleteInput.html#a419d05e14c86f18c137fbb4057fedb04" target="_top" xlink:title=" ">
<polygon fill="white" stroke="black" points="997,-558 997,-588 1101,-588 1101,-558 997,-558"/>
<text text-anchor="start" x="1005" y="-576" font-family="Helvetica,sans-Serif" font-size="10.00">AutocompleteInput::</text>
<text text-anchor="middle" x="1049" y="-565" font-family="Helvetica,sans-Serif" font-size="10.00">canonicalized_url</text>
</a>
</g>
</g>
<!-- Node5&#45;&gt;Node6 -->
<g id="edge5" class="edge">
<title>Node5&#45;&gt;Node6</title>
<path fill="none" stroke="midnightblue" d="M912.26,-587.86C936.12,-585.25 963.02,-582.3 986.55,-579.73"/>
<polygon fill="midnightblue" stroke="midnightblue" points="987.19,-583.18 996.75,-578.61 986.42,-576.22 987.19,-583.18"/>
</g>
<!-- Node7 -->
<g id="node7" class="node">
<title>Node7</title>
<g id="a_node7"><a xlink:href="../../d4/d19/namespaceomnibox.html#acabb493ed3d3ef334b91f977a3f954ef" target="_top" xlink:title=" ">
<polygon fill="white" stroke="black" points="986,-509 986,-539 1112,-539 1112,-509 986,-509"/>
<text text-anchor="start" x="994" y="-527" font-family="Helvetica,sans-Serif" font-size="10.00">omnibox::GetInterception</text>
<text text-anchor="middle" x="1049" y="-516" font-family="Helvetica,sans-Serif" font-size="10.00">ChecksBehavior</text>
</a>
</g>
</g>
<!-- Node5&#45;&gt;Node7 -->
<g id="edge6" class="edge">
<title>Node5&#45;&gt;Node7</title>
<path fill="none" stroke="midnightblue" d="M884.33,-579.95C907.89,-570.64 939.06,-558.66 967,-549 973.54,-546.74 980.41,-544.47 987.27,-542.26"/>
<polygon fill="midnightblue" stroke="midnightblue" points="988.8,-545.45 997.28,-539.09 986.69,-538.77 988.8,-545.45"/>
</g>
<!-- Node8 -->
<g id="node8" class="node">
<title>Node8</title>
<g id="a_node8"><a xlink:href="../../d5/dc7/classAutocompleteProviderClient.html#a39fb65fe5ac8de4439f41335bde2a3f5" target="_top" xlink:title=" ">
<polygon fill="white" stroke="black" points="980,-646 980,-676 1118,-676 1118,-646 980,-646"/>
<text text-anchor="start" x="988" y="-664" font-family="Helvetica,sans-Serif" font-size="10.00">AutocompleteProviderClient</text>
<text text-anchor="middle" x="1049" y="-653" font-family="Helvetica,sans-Serif" font-size="10.00">::GetLocalState</text>
</a>
</g>
</g>
<!-- Node5&#45;&gt;Node8 -->
<g id="edge7" class="edge">
<title>Node5&#45;&gt;Node8</title>
<path fill="none" stroke="midnightblue" d="M889.94,-610.02C912.77,-617.92 941.35,-627.66 967,-636 973.93,-638.25 981.21,-640.57 988.44,-642.84"/>
<polygon fill="midnightblue" stroke="midnightblue" points="987.65,-646.26 998.24,-645.9 989.73,-639.58 987.65,-646.26"/>
</g>
<!-- Node5&#45;&gt;Node9 -->
<g id="edge8" class="edge">
<title>Node5&#45;&gt;Node9</title>
<path fill="none" stroke="midnightblue" d="M862.8,-610.02C884.62,-630 925.94,-665.22 967,-686 972.5,-688.78 978.37,-691.3 984.35,-693.56"/>
<polygon fill="midnightblue" stroke="midnightblue" points="983.2,-696.86 993.79,-696.9 985.53,-690.26 983.2,-696.86"/>
</g>
<!-- Node11 -->
<g id="node11" class="node">
<title>Node11</title>
<g id="a_node11"><a xlink:href="../../d9/df6/classAutocompleteInput.html#a5d6111d5ac18400cdf809820dfab9ab0" target="_top" xlink:title=" ">
<polygon fill="white" stroke="black" points="987.5,-607.5 987.5,-626.5 1110.5,-626.5 1110.5,-607.5 987.5,-607.5"/>
<text text-anchor="middle" x="1049" y="-614.5" font-family="Helvetica,sans-Serif" font-size="10.00">AutocompleteInput::type</text>
</a>
</g>
</g>
<!-- Node5&#45;&gt;Node11 -->
<g id="edge10" class="edge">
<title>Node5&#45;&gt;Node11</title>
<path fill="none" stroke="midnightblue" d="M912.26,-602.14C933.04,-604.42 956.13,-606.94 977.29,-609.26"/>
<polygon fill="midnightblue" stroke="midnightblue" points="977.17,-612.77 987.5,-610.38 977.94,-605.81 977.17,-612.77"/>
</g>
<!-- Node10 -->
<g id="node10" class="node">
<title>Node10</title>
<g id="a_node10"><a xlink:href="../../dc/d8f/structAutocompleteMatch.html#aaca5dac30caf1899132db064a3213d9e" target="_top" xlink:title=" ">
<polygon fill="white" stroke="black" points="1167,-695 1167,-725 1294,-725 1294,-695 1167,-695"/>
<text text-anchor="start" x="1175" y="-713" font-family="Helvetica,sans-Serif" font-size="10.00">AutocompleteMatch::</text>
<text text-anchor="middle" x="1230.5" y="-702" font-family="Helvetica,sans-Serif" font-size="10.00">IsSpecializedSearchType</text>
</a>
</g>
</g>
<!-- Node9&#45;&gt;Node10 -->
<g id="edge9" class="edge">
<title>Node9&#45;&gt;Node10</title>
<path fill="none" stroke="midnightblue" d="M1104.34,-710C1120.82,-710 1139.19,-710 1156.67,-710"/>
<polygon fill="midnightblue" stroke="midnightblue" points="1156.84,-713.5 1166.84,-710 1156.84,-706.5 1156.84,-713.5"/>
</g>
<!-- Node12&#45;&gt;Node5 -->
<g id="edge12" class="edge">
<title>Node12&#45;&gt;Node5</title>
<path fill="none" stroke="midnightblue" d="M662.97,-375.25C675.7,-409.06 710.16,-491.44 761,-544 772.89,-556.29 788.34,-566.77 802.74,-574.98"/>
<polygon fill="midnightblue" stroke="midnightblue" points="801.08,-578.06 811.53,-579.79 804.44,-571.92 801.08,-578.06"/>
</g>
<!-- Node13 -->
<g id="node13" class="node">
<title>Node13</title>
<g id="a_node13"><a xlink:href="../../d3/d03/classAutocompleteResult.html#a41fc37ec73816fce3ea244e3401aac5b" target="_top" xlink:title=" ">
<polygon fill="white" stroke="black" points="996.5,-323 996.5,-353 1101.5,-353 1101.5,-323 996.5,-323"/>
<text text-anchor="start" x="1004.5" y="-341" font-family="Helvetica,sans-Serif" font-size="10.00">AutocompleteResult</text>
<text text-anchor="middle" x="1049" y="-330" font-family="Helvetica,sans-Serif" font-size="10.00">::default_match</text>
</a>
</g>
</g>
<!-- Node12&#45;&gt;Node13 -->
<g id="edge13" class="edge">
<title>Node12&#45;&gt;Node13</title>
<path fill="none" stroke="midnightblue" d="M725.07,-356.19C798.52,-352.06 914.89,-345.5 986.05,-341.49"/>
<polygon fill="midnightblue" stroke="midnightblue" points="986.42,-344.97 996.21,-340.92 986.03,-337.99 986.42,-344.97"/>
</g>
<!-- Node12&#45;&gt;Node16 -->
<g id="edge16" class="edge">
<title>Node12&#45;&gt;Node16</title>
<path fill="none" stroke="midnightblue" d="M662.5,-375.03C676.2,-415.53 716.24,-529.94 761,-620 781.86,-661.97 811.04,-708.03 828.95,-735.19"/>
<polygon fill="midnightblue" stroke="midnightblue" points="826.11,-737.24 834.56,-743.63 831.94,-733.37 826.11,-737.24"/>
</g>
<!-- Node19 -->
<g id="node19" class="node">
<title>Node19</title>
<g id="a_node19"><a xlink:href="../../d0/d22/classOmniboxEditModel.html#afca096faf219ac7be1bf9251466648a7" target="_top" xlink:title=" ">
<polygon fill="white" stroke="black" points="974.5,-274 974.5,-304 1123.5,-304 1123.5,-274 974.5,-274"/>
<text text-anchor="start" x="982.5" y="-292" font-family="Helvetica,sans-Serif" font-size="10.00">OmniboxEditModel::GetPopup</text>
<text text-anchor="middle" x="1049" y="-281" font-family="Helvetica,sans-Serif" font-size="10.00">Selection</text>
</a>
</g>
</g>
<!-- Node12&#45;&gt;Node19 -->
<g id="edge20" class="edge">
<title>Node12&#45;&gt;Node19</title>
<path fill="none" stroke="midnightblue" d="M725.07,-347.71C791.48,-335.64 892.96,-317.19 964.41,-304.2"/>
<polygon fill="midnightblue" stroke="midnightblue" points="965.07,-307.64 974.28,-302.4 963.82,-300.75 965.07,-307.64"/>
</g>
<!-- Node20 -->
<g id="node20" class="node">
<title>Node20</title>
<g id="a_node20"><a xlink:href="../../d9/d1e/classOmniboxView.html#a3dff0d042c74b0e8cb080e6bac15c8f9" target="_top" xlink:title=" ">
<polygon fill="white" stroke="black" points="787,-202.5 787,-221.5 905,-221.5 905,-202.5 787,-202.5"/>
<text text-anchor="middle" x="846" y="-209.5" font-family="Helvetica,sans-Serif" font-size="10.00">OmniboxView::GetText</text>
</a>
</g>
</g>
<!-- Node12&#45;&gt;Node20 -->
<g id="edge21" class="edge">
<title>Node12&#45;&gt;Node20</title>
<path fill="none" stroke="midnightblue" d="M665.13,-344.89C679.77,-317.57 714.49,-260.06 761,-231 766.04,-227.85 771.53,-225.22 777.22,-223.03"/>
<polygon fill="midnightblue" stroke="midnightblue" points="778.59,-226.26 786.94,-219.73 776.34,-219.63 778.59,-226.26"/>
</g>
<!-- Node12&#45;&gt;Node21 -->
<g id="edge22" class="edge">
<title>Node12&#45;&gt;Node21</title>
<path fill="none" stroke="midnightblue" d="M659.52,-344.82C665.84,-303.99 689.32,-191.61 761,-143 826.08,-98.86 919.7,-101.84 982.12,-110.67"/>
<polygon fill="midnightblue" stroke="midnightblue" points="981.83,-114.16 992.24,-112.19 982.87,-107.24 981.83,-114.16"/>
</g>
<!-- Node22 -->
<g id="node22" class="node">
<title>Node22</title>
<g id="a_node22"><a xlink:href="../../d0/d22/classOmniboxEditModel.html#ab6b5c2d1d04d4b9c28287fecb627761c" target="_top" xlink:title=" ">
<polygon fill="white" stroke="black" points="775.5,-367 775.5,-397 916.5,-397 916.5,-367 775.5,-367"/>
<text text-anchor="start" x="783.5" y="-385" font-family="Helvetica,sans-Serif" font-size="10.00">OmniboxEditModel::IsPopup</text>
<text text-anchor="middle" x="846" y="-374" font-family="Helvetica,sans-Serif" font-size="10.00">SelectionOnInitialLine</text>
</a>
</g>
</g>
<!-- Node12&#45;&gt;Node22 -->
<g id="edge23" class="edge">
<title>Node12&#45;&gt;Node22</title>
<path fill="none" stroke="midnightblue" d="M725.19,-367.94C738.15,-369.46 751.83,-371.07 765.12,-372.63"/>
<polygon fill="midnightblue" stroke="midnightblue" points="764.86,-376.12 775.2,-373.81 765.67,-369.17 764.86,-376.12"/>
</g>
<!-- Node23 -->
<g id="node23" class="node">
<title>Node23</title>
<g id="a_node23"><a xlink:href="../../d0/d22/classOmniboxEditModel.html#ad945a332660c6122dc25b93c1eee76d8" target="_top" xlink:title=" ">
<polygon fill="white" stroke="black" points="984.5,-372.5 984.5,-391.5 1113.5,-391.5 1113.5,-372.5 984.5,-372.5"/>
<text text-anchor="middle" x="1049" y="-379.5" font-family="Helvetica,sans-Serif" font-size="10.00">OmniboxEditModel::result</text>
</a>
</g>
</g>
<!-- Node12&#45;&gt;Node23 -->
<g id="edge35" class="edge">
<title>Node12&#45;&gt;Node23</title>
<path fill="none" stroke="midnightblue" d="M683.27,-375.11C703.61,-386.11 733.11,-400.08 761,-406 834.91,-421.68 855.83,-413.63 931,-406 954.42,-403.62 980.07,-398.63 1001.38,-393.82"/>
<polygon fill="midnightblue" stroke="midnightblue" points="1002.2,-397.22 1011.15,-391.55 1000.62,-390.4 1002.2,-397.22"/>
</g>
<!-- Node24 -->
<g id="node24" class="node">
<title>Node24</title>
<g id="a_node24"><a xlink:href="../../d3/d03/classAutocompleteResult.html#a1532251921e2112a24e3a52ec7ee4535" target="_top" xlink:title=" ">
<polygon fill="white" stroke="black" points="793.5,-153 793.5,-183 898.5,-183 898.5,-153 793.5,-153"/>
<text text-anchor="start" x="801.5" y="-171" font-family="Helvetica,sans-Serif" font-size="10.00">AutocompleteResult</text>
<text text-anchor="middle" x="846" y="-160" font-family="Helvetica,sans-Serif" font-size="10.00">::match_at</text>
</a>
</g>
</g>
<!-- Node12&#45;&gt;Node24 -->
<g id="edge27" class="edge">
<title>Node12&#45;&gt;Node24</title>
<path fill="none" stroke="midnightblue" d="M662.59,-344.98C674.44,-312.27 707.07,-234.22 761,-193 767.78,-187.82 775.61,-183.71 783.72,-180.45"/>
<polygon fill="midnightblue" stroke="midnightblue" points="785.09,-183.68 793.32,-177 782.72,-177.09 785.09,-183.68"/>
</g>
<!-- Node25 -->
<g id="node25" class="node">
<title>Node25</title>
<g id="a_node25"><a xlink:href="../../d0/d22/classOmniboxEditModel.html#a1599022fe3ededfff77ed2dc41ceb73a" target="_top" xlink:title=" ">
<polygon fill="white" stroke="black" points="761,-241 761,-271 931,-271 931,-241 761,-241"/>
<text text-anchor="start" x="769" y="-259" font-family="Helvetica,sans-Serif" font-size="10.00">OmniboxEditModel::MaybePrepend</text>
<text text-anchor="middle" x="846" y="-248" font-family="Helvetica,sans-Serif" font-size="10.00">Keyword</text>
</a>
</g>
</g>
<!-- Node12&#45;&gt;Node25 -->
<g id="edge28" class="edge">
<title>Node12&#45;&gt;Node25</title>
<path fill="none" stroke="midnightblue" d="M675.19,-345C695.04,-328.75 728.7,-302.89 761,-286 768.88,-281.88 777.44,-278.1 786,-274.71"/>
<polygon fill="midnightblue" stroke="midnightblue" points="787.5,-277.89 795.61,-271.06 785.02,-271.34 787.5,-277.89"/>
</g>
<!-- Node12&#45;&gt;Node26 -->
<g id="edge30" class="edge">
<title>Node12&#45;&gt;Node26</title>
<path fill="none" stroke="midnightblue" d="M660.77,-344.75C670.25,-303.34 700.95,-186.78 761,-110 776.4,-90.3 799.6,-73.83 817.72,-62.83"/>
<polygon fill="midnightblue" stroke="midnightblue" points="819.8,-65.66 826.66,-57.58 816.26,-59.62 819.8,-65.66"/>
</g>
<!-- Node28 -->
<g id="node28" class="node">
<title>Node28</title>
<g id="a_node28"><a xlink:href="../../d0/d22/classOmniboxEditModel.html#a34c6312cf87698170164370251851aea" target="_top" xlink:title=" ">
<polygon fill="white" stroke="black" points="781.5,-504 781.5,-534 910.5,-534 910.5,-504 781.5,-504"/>
<text text-anchor="start" x="789.5" y="-522" font-family="Helvetica,sans-Serif" font-size="10.00">OmniboxEditModel::query</text>
<text text-anchor="middle" x="846" y="-511" font-family="Helvetica,sans-Serif" font-size="10.00">_in_progress</text>
</a>
</g>
</g>
<!-- Node12&#45;&gt;Node28 -->
<g id="edge32" class="edge">
<title>Node12&#45;&gt;Node28</title>
<path fill="none" stroke="midnightblue" d="M664.88,-375.11C679.34,-403.11 714.12,-463.1 761,-495 764.46,-497.35 768.14,-499.48 771.97,-501.39"/>
<polygon fill="midnightblue" stroke="midnightblue" points="770.55,-504.59 781.11,-505.5 773.42,-498.21 770.55,-504.59"/>
</g>
<!-- Node31 -->
<g id="node31" class="node">
<title>Node31</title>
<g id="a_node31"><a xlink:href="../../d0/d22/classOmniboxEditModel.html#aa6151d568130ae55c72d762fb62bd87c" target="_top" xlink:title=" ">
<polygon fill="white" stroke="black" points="784,-455 784,-485 908,-485 908,-455 784,-455"/>
<text text-anchor="start" x="792" y="-473" font-family="Helvetica,sans-Serif" font-size="10.00">OmniboxEditModel::user</text>
<text text-anchor="middle" x="846" y="-462" font-family="Helvetica,sans-Serif" font-size="10.00">_input_in_progress</text>
</a>
</g>
</g>
<!-- Node12&#45;&gt;Node31 -->
<g id="edge36" class="edge">
<title>Node12&#45;&gt;Node31</title>
<path fill="none" stroke="midnightblue" d="M673.57,-375.06C693.01,-392.62 727.33,-421.58 761,-440 768.6,-444.16 776.89,-447.93 785.21,-451.29"/>
<polygon fill="midnightblue" stroke="midnightblue" points="783.98,-454.57 794.57,-454.9 786.5,-448.04 783.98,-454.57"/>
</g>
<!-- Node14 -->
<g id="node14" class="node">
<title>Node14</title>
<g id="a_node14"><a xlink:href="../../d3/d03/classAutocompleteResult.html#a4246a4276fdd2b4f5560cd45fa527d28" target="_top" xlink:title=" ">
<polygon fill="white" stroke="black" points="1178,-345 1178,-375 1283,-375 1283,-345 1178,-345"/>
<text text-anchor="start" x="1186" y="-363" font-family="Helvetica,sans-Serif" font-size="10.00">AutocompleteResult</text>
<text text-anchor="middle" x="1230.5" y="-352" font-family="Helvetica,sans-Serif" font-size="10.00">::begin</text>
</a>
</g>
</g>
<!-- Node13&#45;&gt;Node14 -->
<g id="edge14" class="edge">
<title>Node13&#45;&gt;Node14</title>
<path fill="none" stroke="midnightblue" d="M1101.92,-344.36C1122.48,-346.88 1146.28,-349.8 1167.71,-352.43"/>
<polygon fill="midnightblue" stroke="midnightblue" points="1167.35,-355.91 1177.7,-353.65 1168.2,-348.96 1167.35,-355.91"/>
</g>
<!-- Node15 -->
<g id="node15" class="node">
<title>Node15</title>
<g id="a_node15"><a xlink:href="../../d3/d03/classAutocompleteResult.html#a5545641c5c0d9473bccf85e267f44b58" target="_top" xlink:title=" ">
<polygon fill="white" stroke="black" points="1167,-306.5 1167,-325.5 1294,-325.5 1294,-306.5 1167,-306.5"/>
<text text-anchor="middle" x="1230.5" y="-313.5" font-family="Helvetica,sans-Serif" font-size="10.00">AutocompleteResult::end</text>
</a>
</g>
</g>
<!-- Node13&#45;&gt;Node15 -->
<g id="edge15" class="edge">
<title>Node13&#45;&gt;Node15</title>
<path fill="none" stroke="midnightblue" d="M1101.92,-331.64C1119.04,-329.54 1138.41,-327.16 1156.8,-324.91"/>
<polygon fill="midnightblue" stroke="midnightblue" points="1157.39,-328.36 1166.89,-323.67 1156.53,-321.42 1157.39,-328.36"/>
</g>
<!-- Node16&#45;&gt;Node3 -->
<g id="edge17" class="edge">
<title>Node16&#45;&gt;Node3</title>
<path fill="none" stroke="midnightblue" d="M867.14,-774.26C890.14,-790.98 929.44,-817.5 967,-833 973.19,-835.56 979.79,-837.81 986.46,-839.78"/>
<polygon fill="midnightblue" stroke="midnightblue" points="985.66,-843.19 996.23,-842.48 987.52,-836.45 985.66,-843.19"/>
</g>
<!-- Node16&#45;&gt;Node17 -->
<g id="edge18" class="edge">
<title>Node16&#45;&gt;Node17</title>
<path fill="none" stroke="midnightblue" d="M908.67,-774.03C931.59,-779.62 957.7,-785.99 981.07,-791.68"/>
<polygon fill="midnightblue" stroke="midnightblue" points="980.36,-795.11 990.9,-794.08 982.01,-788.31 980.36,-795.11"/>
</g>
<!-- Node18 -->
<g id="node18" class="node">
<title>Node18</title>
<g id="a_node18"><a xlink:href="../../d1/d62/classLocationBarModel.html#a5fa3590a5fd5c3db742dd05adb55cc8a" target="_top" xlink:title=" ">
<polygon fill="white" stroke="black" points="979.5,-744 979.5,-774 1118.5,-774 1118.5,-744 979.5,-744"/>
<text text-anchor="start" x="987.5" y="-762" font-family="Helvetica,sans-Serif" font-size="10.00">LocationBarModel::GetPage</text>
<text text-anchor="middle" x="1049" y="-751" font-family="Helvetica,sans-Serif" font-size="10.00">Classification</text>
</a>
</g>
</g>
<!-- Node16&#45;&gt;Node18 -->
<g id="edge19" class="edge">
<title>Node16&#45;&gt;Node18</title>
<path fill="none" stroke="midnightblue" d="M917.58,-759C934.16,-759 951.94,-759 968.87,-759"/>
<polygon fill="midnightblue" stroke="midnightblue" points="969.28,-762.5 979.28,-759 969.28,-755.5 969.28,-762.5"/>
</g>
<!-- Node22&#45;&gt;Node13 -->
<g id="edge24" class="edge">
<title>Node22&#45;&gt;Node13</title>
<path fill="none" stroke="midnightblue" d="M915.61,-366.98C938.49,-361.97 963.83,-356.42 986.17,-351.54"/>
<polygon fill="midnightblue" stroke="midnightblue" points="987.18,-354.9 996.2,-349.34 985.68,-348.06 987.18,-354.9"/>
</g>
<!-- Node22&#45;&gt;Node19 -->
<g id="edge25" class="edge">
<title>Node22&#45;&gt;Node19</title>
<path fill="none" stroke="midnightblue" d="M869.62,-366.84C893.14,-351.6 931.44,-328.24 967,-313 971.6,-311.03 976.41,-309.16 981.3,-307.39"/>
<polygon fill="midnightblue" stroke="midnightblue" points="982.44,-310.7 990.76,-304.13 980.16,-304.08 982.44,-310.7"/>
</g>
<!-- Node22&#45;&gt;Node23 -->
<g id="edge26" class="edge">
<title>Node22&#45;&gt;Node23</title>
<path fill="none" stroke="midnightblue" d="M916.74,-382C935.38,-382 955.59,-382 974.44,-382"/>
<polygon fill="midnightblue" stroke="midnightblue" points="974.45,-385.5 984.45,-382 974.45,-378.5 974.45,-385.5"/>
</g>
<!-- Node25&#45;&gt;Node21 -->
<g id="edge29" class="edge">
<title>Node25&#45;&gt;Node21</title>
<path fill="none" stroke="midnightblue" d="M909.34,-240.93C916.85,-238.11 924.25,-234.82 931,-231 970.39,-208.71 1007.44,-170.92 1028.91,-146.73"/>
<polygon fill="midnightblue" stroke="midnightblue" points="1031.64,-148.92 1035.58,-139.09 1026.37,-144.32 1031.64,-148.92"/>
</g>
<!-- Node27 -->
<g id="node27" class="node">
<title>Node27</title>
<g id="a_node27"><a xlink:href="../../db/de1/classOmniboxPopupView.html#ab590e106e3a2f53bfa45712f529cf106" target="_top" xlink:title=" ">
<polygon fill="white" stroke="black" points="977.5,-38.5 977.5,-57.5 1120.5,-57.5 1120.5,-38.5 977.5,-38.5"/>
<text text-anchor="middle" x="1049" y="-45.5" font-family="Helvetica,sans-Serif" font-size="10.00">OmniboxPopupView::IsOpen</text>
</a>
</g>
</g>
<!-- Node26&#45;&gt;Node27 -->
<g id="edge31" class="edge">
<title>Node26&#45;&gt;Node27</title>
<path fill="none" stroke="midnightblue" d="M928.18,-48C940.98,-48 954.23,-48 967.04,-48"/>
<polygon fill="midnightblue" stroke="midnightblue" points="967.19,-51.5 977.19,-48 967.19,-44.5 967.19,-51.5"/>
</g>
<!-- Node29 -->
<g id="node29" class="node">
<title>Node29</title>
<g id="a_node29"><a xlink:href="../../d0/d22/classOmniboxEditModel.html#a8c8a925ee670cdc9bd5c0ad8b07fa1a0" target="_top" xlink:title=" ">
<polygon fill="white" stroke="black" points="967,-460 967,-490 1131,-490 1131,-460 967,-460"/>
<text text-anchor="start" x="975" y="-478" font-family="Helvetica,sans-Serif" font-size="10.00">OmniboxEditModel::autocomplete</text>
<text text-anchor="middle" x="1049" y="-467" font-family="Helvetica,sans-Serif" font-size="10.00">_controller</text>
</a>
</g>
</g>
<!-- Node28&#45;&gt;Node29 -->
<g id="edge33" class="edge">
<title>Node28&#45;&gt;Node29</title>
<path fill="none" stroke="midnightblue" d="M910.6,-505.08C929.29,-500.99 949.96,-496.46 969.47,-492.19"/>
<polygon fill="midnightblue" stroke="midnightblue" points="970.23,-495.61 979.25,-490.05 968.73,-488.77 970.23,-495.61"/>
</g>
<!-- Node30 -->
<g id="node30" class="node">
<title>Node30</title>
<g id="a_node30"><a xlink:href="../../df/d4d/classAutocompleteController.html#a0b6b9a27089bca29c9f9f557955d7ecf" target="_top" xlink:title=" ">
<polygon fill="white" stroke="black" points="989.5,-411 989.5,-441 1108.5,-441 1108.5,-411 989.5,-411"/>
<text text-anchor="start" x="997.5" y="-429" font-family="Helvetica,sans-Serif" font-size="10.00">AutocompleteController</text>
<text text-anchor="middle" x="1049" y="-418" font-family="Helvetica,sans-Serif" font-size="10.00">::done</text>
</a>
</g>
</g>
<!-- Node28&#45;&gt;Node30 -->
<g id="edge34" class="edge">
<title>Node28&#45;&gt;Node30</title>
<path fill="none" stroke="midnightblue" d="M910.81,-505.38C917.92,-502.54 924.81,-499.12 931,-495 952.32,-480.81 945.75,-464.29 967,-450 971.05,-447.28 975.41,-444.86 979.94,-442.71"/>
<polygon fill="midnightblue" stroke="midnightblue" points="981.59,-445.81 989.41,-438.66 978.84,-439.37 981.59,-445.81"/>
</g>
</g>
</svg>
        <g id="navigator" transform="translate(0 0)" fill="#404254">
                <rect fill="#f2f5e9" fill-opacity="0.5" stroke="#606060" stroke-width=".5" x="0" y="0" width="60" height="60"/>
                <use id="zoomplus" xlink:href="#zoomPlus" x="17" y="9" onmousedown="handleZoom(evt,'in')"/>
                <use id="zoomminus" xlink:href="#zoomMin" x="42" y="9" onmousedown="handleZoom(evt,'out')"/>
                <use id="reset" xlink:href="#resetDef" x="30" y="36" onmousedown="handleReset()"/>
                <g id="arrowUp" xlink:href="#dirArrow" transform="translate(30 24)" onmousedown="handlePan(0,-1)">
                  <use xlink:href="#rim" fill="#404040">
                        <set attributeName="fill" to="#808080" begin="arrowUp.mouseover" end="arrowUp.mouseout"/>
                  </use>
                  <path fill="none" stroke="white" stroke-width="1.5" d="M0,-3.0v7 M-2.5,-0.5L0,-3.0L2.5,-0.5"/>
                </g>
                <g id="arrowRight" xlink:href="#dirArrow" transform="rotate(90) translate(36 -43)" onmousedown="handlePan(1,0)">
                  <use xlink:href="#rim" fill="#404040">
                        <set attributeName="fill" to="#808080" begin="arrowRight.mouseover" end="arrowRight.mouseout"/>
                  </use>
                  <path fill="none" stroke="white" stroke-width="1.5" d="M0,-3.0v7 M-2.5,-0.5L0,-3.0L2.5,-0.5"/>
                </g>
                <g id="arrowDown" xlink:href="#dirArrow" transform="rotate(180) translate(-30 -48)" onmousedown="handlePan(0,1)">
                  <use xlink:href="#rim" fill="#404040">
                        <set attributeName="fill" to="#808080" begin="arrowDown.mouseover" end="arrowDown.mouseout"/>
                  </use>
                  <path fill="none" stroke="white" stroke-width="1.5" d="M0,-3.0v7 M-2.5,-0.5L0,-3.0L2.5,-0.5"/>
                </g>
                <g id="arrowLeft" xlink:href="#dirArrow" transform="rotate(270) translate(-36 17)" onmousedown="handlePan(-1,0)">
                  <use xlink:href="#rim" fill="#404040">
                        <set attributeName="fill" to="#808080" begin="arrowLeft.mouseover" end="arrowLeft.mouseout"/>
                  </use>
                  <path fill="none" stroke="white" stroke-width="1.5" d="M0,-3.0v7 M-2.5,-0.5L0,-3.0L2.5,-0.5"/>
                </g>
        </g>
        <svg viewBox="0 0 15 15" width="100%" height="30px" preserveAspectRatio="xMaxYMin meet">
         <g id="arrow_out" transform="scale(0.3 0.3)">
          <a xlink:href="classOmniboxViewViews_a4f63f8769469512179c018921c93e027_cgraph_org.svg" target="_base">
           <rect id="button" ry="5" rx="5" y="6" x="6" height="38" width="38"
                fill="#f2f5e9" fill-opacity="0.5" stroke="#606060" stroke-width="1.0"/>
           <path id="arrow"
             d="M 11.500037,31.436501 C 11.940474,20.09759 22.043105,11.32322 32.158766,21.979434 L 37.068811,17.246167 C 37.068811,17.246167 37.088388,32 37.088388,32 L 22.160133,31.978069 C 22.160133,31.978069 26.997745,27.140456 26.997745,27.140456 C 18.528582,18.264221 13.291696,25.230495 11.500037,31.436501 z"
             style="fill:#404040;"/>
          </a>
         </g>
        </svg>
</svg>
