<?xml version="1.0" encoding="UTF-8" standalone="no"?>
<!DOCTYPE svg PUBLIC "-//W3C//DTD SVG 1.1//EN"
 "http://www.w3.org/Graphics/SVG/1.1/DTD/svg11.dtd">
<!-- Generated by graphviz version 2.43.0 (0)
 -->
<!-- Title: OmniboxViewViews::SetSelectedRanges Pages: 1 -->
<svg width="791pt" height="239pt"
 viewBox="0.00 0.00 791.00 239.00" xmlns="http://www.w3.org/2000/svg" xmlns:xlink="http://www.w3.org/1999/xlink">
<g id="graph0" class="graph" transform="scale(1 1) rotate(0) translate(4 235)">
<title>OmniboxViewViews::SetSelectedRanges</title>
<polygon fill="white" stroke="transparent" points="-4,4 -4,-235 787,-235 787,4 -4,4"/>
<!-- Node1 -->
<g id="node1" class="node">
<title>Node1</title>
<g id="a_node1"><a xlink:title=" ">
<polygon fill="#bfbfbf" stroke="black" points="619,-112.5 619,-142.5 783,-142.5 783,-112.5 619,-112.5"/>
<text text-anchor="start" x="627" y="-130.5" font-family="Helvetica,sans-Serif" font-size="10.00">OmniboxViewViews::SetSelected</text>
<text text-anchor="middle" x="701" y="-119.5" font-family="Helvetica,sans-Serif" font-size="10.00">Ranges</text>
</a>
</g>
</g>
<!-- Node2 -->
<g id="node2" class="node">
<title>Node2</title>
<g id="a_node2"><a xlink:href="../../d0/d94/classOmniboxViewViews.html#a4e2e5817caa504f109907ce64eb30915" target="_top" xlink:title=" ">
<polygon fill="white" stroke="black" points="423.5,-200.5 423.5,-230.5 564.5,-230.5 564.5,-200.5 423.5,-200.5"/>
<text text-anchor="start" x="431.5" y="-218.5" font-family="Helvetica,sans-Serif" font-size="10.00">OmniboxViewViews::Handle</text>
<text text-anchor="middle" x="494" y="-207.5" font-family="Helvetica,sans-Serif" font-size="10.00">AccessibleAction</text>
</a>
</g>
</g>
<!-- Node1&#45;&gt;Node2 -->
<g id="edge1" class="edge">
<title>Node1&#45;&gt;Node2</title>
<path fill="none" stroke="midnightblue" d="M667.01,-147.77C644.07,-161.23 612.44,-178.56 583,-190.5 574.02,-194.14 564.33,-197.47 554.76,-200.42"/>
<polygon fill="midnightblue" stroke="midnightblue" points="668.84,-150.75 675.66,-142.64 665.27,-144.73 668.84,-150.75"/>
</g>
<!-- Node3 -->
<g id="node3" class="node">
<title>Node3</title>
<g id="a_node3"><a xlink:href="../../d0/d94/classOmniboxViewViews.html#a4edccd8e1879ed11bc458225d98af8d4" target="_top" xlink:title=" ">
<polygon fill="white" stroke="black" points="419,-162 419,-181 569,-181 569,-162 419,-162"/>
<text text-anchor="middle" x="494" y="-169" font-family="Helvetica,sans-Serif" font-size="10.00">OmniboxViewViews::OnFocus</text>
</a>
</g>
</g>
<!-- Node1&#45;&gt;Node3 -->
<g id="edge2" class="edge">
<title>Node1&#45;&gt;Node3</title>
<path fill="none" stroke="midnightblue" d="M620.03,-144.66C592.59,-150.55 562.89,-156.93 539.32,-161.99"/>
<polygon fill="midnightblue" stroke="midnightblue" points="620.98,-148.04 630.02,-142.52 619.51,-141.2 620.98,-148.04"/>
</g>
<!-- Node4 -->
<g id="node4" class="node">
<title>Node4</title>
<g id="a_node4"><a xlink:href="../../d0/d94/classOmniboxViewViews.html#a62bc196ae68f57d1ec7c7ee7deaf5d0f" target="_top" xlink:title=" ">
<polygon fill="white" stroke="black" points="418,-112.5 418,-142.5 570,-142.5 570,-112.5 418,-112.5"/>
<text text-anchor="start" x="426" y="-130.5" font-family="Helvetica,sans-Serif" font-size="10.00">OmniboxViewViews::OnRevert</text>
<text text-anchor="middle" x="494" y="-119.5" font-family="Helvetica,sans-Serif" font-size="10.00">TemporaryText</text>
</a>
</g>
</g>
<!-- Node1&#45;&gt;Node4 -->
<g id="edge3" class="edge">
<title>Node1&#45;&gt;Node4</title>
<path fill="none" stroke="midnightblue" d="M608.7,-127.5C595.79,-127.5 582.65,-127.5 570.1,-127.5"/>
<polygon fill="midnightblue" stroke="midnightblue" points="608.98,-131 618.98,-127.5 608.98,-124 608.98,-131"/>
</g>
<!-- Node5 -->
<g id="node5" class="node">
<title>Node5</title>
<g id="a_node5"><a xlink:href="../../d0/d94/classOmniboxViewViews.html#a29443b7e10de80e21be533d0a9f5df7f" target="_top" xlink:title=" ">
<polygon fill="white" stroke="black" points="405,-74 405,-93 583,-93 583,-74 405,-74"/>
<text text-anchor="middle" x="494" y="-81" font-family="Helvetica,sans-Serif" font-size="10.00">OmniboxViewViews::OnTabChanged</text>
</a>
</g>
</g>
<!-- Node1&#45;&gt;Node5 -->
<g id="edge4" class="edge">
<title>Node1&#45;&gt;Node5</title>
<path fill="none" stroke="midnightblue" d="M620.03,-110.34C592.59,-104.45 562.89,-98.07 539.32,-93.01"/>
<polygon fill="midnightblue" stroke="midnightblue" points="619.51,-113.8 630.02,-112.48 620.98,-106.96 619.51,-113.8"/>
</g>
<!-- Node6 -->
<g id="node6" class="node">
<title>Node6</title>
<g id="a_node6"><a xlink:href="../../d0/d94/classOmniboxViewViews.html#a4bb4eda2f810c824b9d189f0e7705626" target="_top" xlink:title=" ">
<polygon fill="white" stroke="black" points="422,-24.5 422,-54.5 566,-54.5 566,-24.5 422,-24.5"/>
<text text-anchor="start" x="430" y="-42.5" font-family="Helvetica,sans-Serif" font-size="10.00">OmniboxViewViews::SetText</text>
<text text-anchor="middle" x="494" y="-31.5" font-family="Helvetica,sans-Serif" font-size="10.00">AndSelectedRanges</text>
</a>
</g>
</g>
<!-- Node1&#45;&gt;Node6 -->
<g id="edge5" class="edge">
<title>Node1&#45;&gt;Node6</title>
<path fill="none" stroke="midnightblue" d="M667.01,-107.23C644.07,-93.77 612.44,-76.44 583,-64.5 574.02,-60.86 564.33,-57.53 554.76,-54.58"/>
<polygon fill="midnightblue" stroke="midnightblue" points="665.27,-110.27 675.66,-112.36 668.84,-104.25 665.27,-110.27"/>
</g>
<!-- Node7 -->
<g id="node7" class="node">
<title>Node7</title>
<g id="a_node7"><a xlink:href="../../d0/d94/classOmniboxViewViews.html#af8a74f8983d03eed94bf5887313a445f" target="_top" xlink:title=" ">
<polygon fill="white" stroke="black" points="205,-49.5 205,-79.5 369,-79.5 369,-49.5 205,-49.5"/>
<text text-anchor="start" x="213" y="-67.5" font-family="Helvetica,sans-Serif" font-size="10.00">OmniboxViewViews::OnInline</text>
<text text-anchor="middle" x="287" y="-56.5" font-family="Helvetica,sans-Serif" font-size="10.00">AutocompleteTextMaybeChanged</text>
</a>
</g>
</g>
<!-- Node6&#45;&gt;Node7 -->
<g id="edge6" class="edge">
<title>Node6&#45;&gt;Node7</title>
<path fill="none" stroke="midnightblue" d="M411.79,-49.4C397.77,-51.11 383.2,-52.89 369.19,-54.6"/>
<polygon fill="midnightblue" stroke="midnightblue" points="412.37,-52.86 421.88,-48.17 411.53,-45.91 412.37,-52.86"/>
</g>
<!-- Node8 -->
<g id="node8" class="node">
<title>Node8</title>
<g id="a_node8"><a xlink:href="../../d0/d94/classOmniboxViewViews.html#a2b71803c688c8d3db0ddfe1a6c561208" target="_top" xlink:title=" ">
<polygon fill="white" stroke="black" points="206.5,-0.5 206.5,-30.5 367.5,-30.5 367.5,-0.5 206.5,-0.5"/>
<text text-anchor="start" x="214.5" y="-18.5" font-family="Helvetica,sans-Serif" font-size="10.00">OmniboxViewViews::SetWindow</text>
<text text-anchor="middle" x="287" y="-7.5" font-family="Helvetica,sans-Serif" font-size="10.00">TextAndCaretPos</text>
</a>
</g>
</g>
<!-- Node6&#45;&gt;Node8 -->
<g id="edge7" class="edge">
<title>Node6&#45;&gt;Node8</title>
<path fill="none" stroke="midnightblue" d="M411.93,-30.01C397.4,-28.31 382.26,-26.54 367.77,-24.84"/>
<polygon fill="midnightblue" stroke="midnightblue" points="411.54,-33.49 421.88,-31.17 412.35,-26.53 411.54,-33.49"/>
</g>
<!-- Node9 -->
<g id="node9" class="node">
<title>Node9</title>
<g id="a_node9"><a xlink:href="../../d0/d94/classOmniboxViewViews.html#acce156344df7256bce712db64896eaf6" target="_top" xlink:title=" ">
<polygon fill="white" stroke="black" points="0,-0.5 0,-30.5 169,-30.5 169,-0.5 0,-0.5"/>
<text text-anchor="start" x="8" y="-18.5" font-family="Helvetica,sans-Serif" font-size="10.00">OmniboxViewViews::OnTemporary</text>
<text text-anchor="middle" x="84.5" y="-7.5" font-family="Helvetica,sans-Serif" font-size="10.00">TextMaybeChanged</text>
</a>
</g>
</g>
<!-- Node8&#45;&gt;Node9 -->
<g id="edge8" class="edge">
<title>Node8&#45;&gt;Node9</title>
<path fill="none" stroke="midnightblue" d="M196.34,-15.5C187.32,-15.5 178.17,-15.5 169.21,-15.5"/>
<polygon fill="midnightblue" stroke="midnightblue" points="196.47,-19 206.47,-15.5 196.47,-12 196.47,-19"/>
</g>
</g>
</svg>
