<?xml version="1.0" encoding="UTF-8" standalone="no"?>
<!DOCTYPE svg PUBLIC "-//W3C//DTD SVG 1.1//EN"
 "http://www.w3.org/Graphics/SVG/1.1/DTD/svg11.dtd">
<!-- Generated by graphviz version 2.43.0 (0)
 -->
<!-- Title: OmniboxViewViews::OnFocus Pages: 1 -->
<svg width="767pt" height="280pt"
 viewBox="0.00 0.00 767.00 280.00" xmlns="http://www.w3.org/2000/svg" xmlns:xlink="http://www.w3.org/1999/xlink">
<g id="graph0" class="graph" transform="scale(1 1) rotate(0) translate(4 276)">
<title>OmniboxViewViews::OnFocus</title>
<polygon fill="white" stroke="transparent" points="-4,4 -4,-276 763,-276 763,4 -4,4"/>
<!-- Node1 -->
<g id="node1" class="node">
<title>Node1</title>
<g id="a_node1"><a xlink:title=" ">
<polygon fill="#bfbfbf" stroke="black" points="0,-139.5 0,-158.5 150,-158.5 150,-139.5 0,-139.5"/>
<text text-anchor="middle" x="75" y="-146.5" font-family="Helvetica,sans-Serif" font-size="10.00">OmniboxViewViews::OnFocus</text>
</a>
</g>
</g>
<!-- Node2 -->
<g id="node2" class="node">
<title>Node2</title>
<g id="a_node2"><a xlink:href="../../d9/d1e/classOmniboxView.html#aac25a41924b28863d31120527936dc6d" target="_top" xlink:title=" ">
<polygon fill="white" stroke="black" points="213,-199.5 213,-218.5 323,-218.5 323,-199.5 213,-199.5"/>
<text text-anchor="middle" x="268" y="-206.5" font-family="Helvetica,sans-Serif" font-size="10.00">OmniboxView::model</text>
</a>
</g>
</g>
<!-- Node1&#45;&gt;Node2 -->
<g id="edge1" class="edge">
<title>Node1&#45;&gt;Node2</title>
<path fill="none" stroke="midnightblue" d="M99.31,-158.67C121.38,-167.59 155.57,-180.8 186,-190 194.34,-192.52 203.24,-194.91 211.98,-197.09"/>
<polygon fill="midnightblue" stroke="midnightblue" points="211.2,-200.5 221.74,-199.45 212.85,-193.69 211.2,-200.5"/>
</g>
<!-- Node3 -->
<g id="node3" class="node">
<title>Node3</title>
<g id="a_node3"><a xlink:href="../../d0/d22/classOmniboxEditModel.html#a1d064498a54d70278bf6eb66336a58ef" target="_top" xlink:title=" ">
<polygon fill="white" stroke="black" points="188,-161.5 188,-180.5 348,-180.5 348,-161.5 188,-161.5"/>
<text text-anchor="middle" x="268" y="-168.5" font-family="Helvetica,sans-Serif" font-size="10.00">OmniboxEditModel::OnSetFocus</text>
</a>
</g>
</g>
<!-- Node1&#45;&gt;Node3 -->
<g id="edge2" class="edge">
<title>Node1&#45;&gt;Node3</title>
<path fill="none" stroke="midnightblue" d="M150.12,-157.54C159.21,-158.58 168.56,-159.66 177.84,-160.73"/>
<polygon fill="midnightblue" stroke="midnightblue" points="177.53,-164.22 187.86,-161.88 178.33,-157.26 177.53,-164.22"/>
</g>
<!-- Node7 -->
<g id="node7" class="node">
<title>Node7</title>
<g id="a_node7"><a xlink:href="../../d0/d22/classOmniboxEditModel.html#a16f401285ef4ae6467632912e566fa34" target="_top" xlink:title=" ">
<polygon fill="white" stroke="black" points="186,-112 186,-142 350,-142 350,-112 186,-112"/>
<text text-anchor="start" x="194" y="-130" font-family="Helvetica,sans-Serif" font-size="10.00">OmniboxEditModel::ResetDisplay</text>
<text text-anchor="middle" x="268" y="-119" font-family="Helvetica,sans-Serif" font-size="10.00">Texts</text>
</a>
</g>
</g>
<!-- Node1&#45;&gt;Node7 -->
<g id="edge6" class="edge">
<title>Node1&#45;&gt;Node7</title>
<path fill="none" stroke="midnightblue" d="M150.12,-140.46C158.56,-139.49 167.24,-138.49 175.87,-137.5"/>
<polygon fill="midnightblue" stroke="midnightblue" points="176.42,-140.96 185.96,-136.33 175.62,-134 176.42,-140.96"/>
</g>
<!-- Node14 -->
<g id="node14" class="node">
<title>Node14</title>
<g id="a_node14"><a xlink:href="../../d0/d94/classOmniboxViewViews.html#a7c3da768d3cfa5f1cab3ea9c840afd9d" target="_top" xlink:title=" ">
<polygon fill="white" stroke="black" points="186,-63 186,-93 350,-93 350,-63 186,-63"/>
<text text-anchor="start" x="194" y="-81" font-family="Helvetica,sans-Serif" font-size="10.00">OmniboxViewViews::SetSelected</text>
<text text-anchor="middle" x="268" y="-70" font-family="Helvetica,sans-Serif" font-size="10.00">Ranges</text>
</a>
</g>
</g>
<!-- Node1&#45;&gt;Node14 -->
<g id="edge13" class="edge">
<title>Node1&#45;&gt;Node14</title>
<path fill="none" stroke="midnightblue" d="M97.26,-139.39C119.24,-129.62 154.67,-114.36 186,-103 192.32,-100.71 198.97,-98.44 205.62,-96.26"/>
<polygon fill="midnightblue" stroke="midnightblue" points="206.89,-99.53 215.33,-93.13 204.74,-92.86 206.89,-99.53"/>
</g>
<!-- Node4 -->
<g id="node4" class="node">
<title>Node4</title>
<g id="a_node4"><a xlink:href="../../d0/d22/classOmniboxEditModel.html#a7305586191b3f1b972616914def2fd74" target="_top" xlink:title=" ">
<polygon fill="white" stroke="black" points="396.5,-225 396.5,-255 543.5,-255 543.5,-225 396.5,-225"/>
<text text-anchor="start" x="404.5" y="-243" font-family="Helvetica,sans-Serif" font-size="10.00">OmniboxEditModel::SetFocus</text>
<text text-anchor="middle" x="470" y="-232" font-family="Helvetica,sans-Serif" font-size="10.00">State</text>
</a>
</g>
</g>
<!-- Node3&#45;&gt;Node4 -->
<g id="edge3" class="edge">
<title>Node3&#45;&gt;Node4</title>
<path fill="none" stroke="midnightblue" d="M322.66,-180.57C331.98,-183.08 341.42,-186.18 350,-190 367.8,-197.92 368.46,-206.53 386,-215 390.83,-217.33 395.92,-219.5 401.11,-221.5"/>
<polygon fill="midnightblue" stroke="midnightblue" points="399.92,-224.79 410.52,-224.93 402.32,-218.22 399.92,-224.79"/>
</g>
<!-- Node5 -->
<g id="node5" class="node">
<title>Node5</title>
<g id="a_node5"><a xlink:href="../../d9/d1e/classOmniboxView.html#a581ba04d09607de42785148595595626" target="_top" xlink:title=" ">
<polygon fill="white" stroke="black" points="590,-252.5 590,-271.5 759,-271.5 759,-252.5 590,-252.5"/>
<text text-anchor="middle" x="674.5" y="-259.5" font-family="Helvetica,sans-Serif" font-size="10.00">OmniboxView::ApplyCaretVisibility</text>
</a>
</g>
</g>
<!-- Node4&#45;&gt;Node5 -->
<g id="edge4" class="edge">
<title>Node4&#45;&gt;Node5</title>
<path fill="none" stroke="midnightblue" d="M543.54,-247.88C555.24,-249.15 567.5,-250.48 579.62,-251.8"/>
<polygon fill="midnightblue" stroke="midnightblue" points="579.43,-255.3 589.75,-252.9 580.19,-248.34 579.43,-255.3"/>
</g>
<!-- Node6 -->
<g id="node6" class="node">
<title>Node6</title>
<g id="a_node6"><a xlink:href="../../d0/d22/classOmniboxEditModel.html#a1abe23a3b5db8440ddfdea65d628e006" target="_top" xlink:title=" ">
<polygon fill="white" stroke="black" points="618,-203 618,-233 731,-233 731,-203 618,-203"/>
<text text-anchor="start" x="626" y="-221" font-family="Helvetica,sans-Serif" font-size="10.00">OmniboxEditModel::is</text>
<text text-anchor="middle" x="674.5" y="-210" font-family="Helvetica,sans-Serif" font-size="10.00">_caret_visible</text>
</a>
</g>
</g>
<!-- Node4&#45;&gt;Node6 -->
<g id="edge5" class="edge">
<title>Node4&#45;&gt;Node6</title>
<path fill="none" stroke="midnightblue" d="M543.54,-232.12C564.51,-229.84 587.27,-227.37 607.8,-225.14"/>
<polygon fill="midnightblue" stroke="midnightblue" points="608.43,-228.59 617.99,-224.03 607.67,-221.63 608.43,-228.59"/>
</g>
<!-- Node8 -->
<g id="node8" class="node">
<title>Node8</title>
<g id="a_node8"><a xlink:href="../../d0/d22/classOmniboxEditModel.html#ad4c23db832a06ca44fb769a87cebd6e9" target="_top" xlink:title=" ">
<polygon fill="white" stroke="black" points="397.5,-186.5 397.5,-205.5 542.5,-205.5 542.5,-186.5 397.5,-186.5"/>
<text text-anchor="middle" x="470" y="-193.5" font-family="Helvetica,sans-Serif" font-size="10.00">OmniboxEditModel::controller</text>
</a>
</g>
</g>
<!-- Node7&#45;&gt;Node8 -->
<g id="edge7" class="edge">
<title>Node7&#45;&gt;Node8</title>
<path fill="none" stroke="midnightblue" d="M325.64,-142.02C333.97,-144.94 342.33,-148.26 350,-152 367.51,-160.53 368.18,-169.13 386,-177 391.68,-179.51 397.73,-181.71 403.87,-183.63"/>
<polygon fill="midnightblue" stroke="midnightblue" points="402.99,-187.01 413.57,-186.42 404.93,-180.29 402.99,-187.01"/>
</g>
<!-- Node9 -->
<g id="node9" class="node">
<title>Node9</title>
<g id="a_node9"><a xlink:href="../../dc/d81/classOmniboxEditController.html#af0496738d6b2b60045f04a52c8b015cb" target="_top" xlink:title=" ">
<polygon fill="white" stroke="black" points="412,-137 412,-167 528,-167 528,-137 412,-137"/>
<text text-anchor="start" x="420" y="-155" font-family="Helvetica,sans-Serif" font-size="10.00">OmniboxEditController</text>
<text text-anchor="middle" x="470" y="-144" font-family="Helvetica,sans-Serif" font-size="10.00">::GetLocationBarModel</text>
</a>
</g>
</g>
<!-- Node7&#45;&gt;Node9 -->
<g id="edge8" class="edge">
<title>Node7&#45;&gt;Node9</title>
<path fill="none" stroke="midnightblue" d="M350.06,-137.13C367.19,-139.27 385.08,-141.51 401.64,-143.58"/>
<polygon fill="midnightblue" stroke="midnightblue" points="401.4,-147.08 411.75,-144.84 402.27,-140.13 401.4,-147.08"/>
</g>
<!-- Node10 -->
<g id="node10" class="node">
<title>Node10</title>
<g id="a_node10"><a xlink:href="../../d0/d22/classOmniboxEditModel.html#a9d3b16e561b0bd73b5f86992458aba7f" target="_top" xlink:title=" ">
<polygon fill="white" stroke="black" points="386,-88 386,-118 554,-118 554,-88 386,-88"/>
<text text-anchor="start" x="394" y="-106" font-family="Helvetica,sans-Serif" font-size="10.00">OmniboxEditModel::GetPermanent</text>
<text text-anchor="middle" x="470" y="-95" font-family="Helvetica,sans-Serif" font-size="10.00">DisplayText</text>
</a>
</g>
</g>
<!-- Node7&#45;&gt;Node10 -->
<g id="edge9" class="edge">
<title>Node7&#45;&gt;Node10</title>
<path fill="none" stroke="midnightblue" d="M350.06,-117.27C358.54,-116.25 367.21,-115.21 375.82,-114.18"/>
<polygon fill="midnightblue" stroke="midnightblue" points="376.36,-117.64 385.87,-112.98 375.53,-110.69 376.36,-117.64"/>
</g>
<!-- Node11 -->
<g id="node11" class="node">
<title>Node11</title>
<g id="a_node11"><a xlink:href="../../d0/d22/classOmniboxEditModel.html#ad400d2b658923ae65071a8f960946550" target="_top" xlink:title=" ">
<polygon fill="white" stroke="black" points="409.5,-39 409.5,-69 530.5,-69 530.5,-39 409.5,-39"/>
<text text-anchor="start" x="417.5" y="-57" font-family="Helvetica,sans-Serif" font-size="10.00">OmniboxEditModel::has</text>
<text text-anchor="middle" x="470" y="-46" font-family="Helvetica,sans-Serif" font-size="10.00">_focus</text>
</a>
</g>
</g>
<!-- Node7&#45;&gt;Node11 -->
<g id="edge10" class="edge">
<title>Node7&#45;&gt;Node11</title>
<path fill="none" stroke="midnightblue" d="M327.74,-111.88C335.36,-109.26 342.96,-106.3 350,-103 367.41,-94.84 368.6,-87.2 386,-79 390.94,-76.67 396.14,-74.51 401.43,-72.5"/>
<polygon fill="midnightblue" stroke="midnightblue" points="402.79,-75.73 411.02,-69.06 400.43,-69.14 402.79,-75.73"/>
</g>
<!-- Node12 -->
<g id="node12" class="node">
<title>Node12</title>
<g id="a_node12"><a xlink:href="../../d0/d22/classOmniboxEditModel.html#a67fe900511cae558a9585411c98b36c6" target="_top" xlink:title=" ">
<polygon fill="white" stroke="black" points="388,-0.5 388,-19.5 552,-19.5 552,-0.5 388,-0.5"/>
<text text-anchor="middle" x="470" y="-7.5" font-family="Helvetica,sans-Serif" font-size="10.00">OmniboxEditModel::PopupIsOpen</text>
</a>
</g>
</g>
<!-- Node7&#45;&gt;Node12 -->
<g id="edge11" class="edge">
<title>Node7&#45;&gt;Node12</title>
<path fill="none" stroke="midnightblue" d="M336.72,-111.85C341.47,-109.34 345.97,-106.41 350,-103 377.9,-79.35 357.37,-51.76 386,-29 388.28,-27.19 390.7,-25.54 393.22,-24.05"/>
<polygon fill="midnightblue" stroke="midnightblue" points="394.81,-27.17 402.16,-19.54 391.65,-20.92 394.81,-27.17"/>
</g>
<!-- Node13 -->
<g id="node13" class="node">
<title>Node13</title>
<g id="a_node13"><a xlink:href="../../db/de1/classOmniboxPopupView.html#ab590e106e3a2f53bfa45712f529cf106" target="_top" xlink:title=" ">
<polygon fill="white" stroke="black" points="603,-0.5 603,-19.5 746,-19.5 746,-0.5 603,-0.5"/>
<text text-anchor="middle" x="674.5" y="-7.5" font-family="Helvetica,sans-Serif" font-size="10.00">OmniboxPopupView::IsOpen</text>
</a>
</g>
</g>
<!-- Node12&#45;&gt;Node13 -->
<g id="edge12" class="edge">
<title>Node12&#45;&gt;Node13</title>
<path fill="none" stroke="midnightblue" d="M552.2,-10C565.53,-10 579.34,-10 592.66,-10"/>
<polygon fill="midnightblue" stroke="midnightblue" points="592.73,-13.5 602.73,-10 592.73,-6.5 592.73,-13.5"/>
</g>
</g>
</svg>
