<?xml version="1.0" encoding="UTF-8" standalone="no"?>
<!DOCTYPE svg PUBLIC "-//W3C//DTD SVG 1.1//EN"
 "http://www.w3.org/Graphics/SVG/1.1/DTD/svg11.dtd">
<!-- Generated by graphviz version 2.43.0 (0)
 -->
<!-- Title: OmniboxViewViews::OnMouseReleased Pages: 1 -->
<svg width="989pt" height="363pt"
 viewBox="0.00 0.00 989.00 362.50" xmlns="http://www.w3.org/2000/svg" xmlns:xlink="http://www.w3.org/1999/xlink">
<g id="graph0" class="graph" transform="scale(1 1) rotate(0) translate(4 358.5)">
<title>OmniboxViewViews::OnMouseReleased</title>
<polygon fill="white" stroke="transparent" points="-4,4 -4,-358.5 985,-358.5 985,4 -4,4"/>
<!-- Node1 -->
<g id="node1" class="node">
<title>Node1</title>
<g id="a_node1"><a xlink:title=" ">
<polygon fill="#bfbfbf" stroke="black" points="0,-261 0,-291 152,-291 152,-261 0,-261"/>
<text text-anchor="start" x="8" y="-279" font-family="Helvetica,sans-Serif" font-size="10.00">OmniboxViewViews::OnMouse</text>
<text text-anchor="middle" x="76" y="-268" font-family="Helvetica,sans-Serif" font-size="10.00">Released</text>
</a>
</g>
</g>
<!-- Node2 -->
<g id="node2" class="node">
<title>Node2</title>
<g id="a_node2"><a xlink:href="../../d0/d94/classOmniboxViewViews.html#ad60b7089e0220bc32df745edecd545e3" target="_top" xlink:title=" ">
<polygon fill="white" stroke="black" points="193,-324 193,-354 332,-354 332,-324 193,-324"/>
<text text-anchor="start" x="201" y="-342" font-family="Helvetica,sans-Serif" font-size="10.00">OmniboxViewViews::Permit</text>
<text text-anchor="middle" x="262.5" y="-331" font-family="Helvetica,sans-Serif" font-size="10.00">ExternalProtocolHandler</text>
</a>
</g>
</g>
<!-- Node1&#45;&gt;Node2 -->
<g id="edge1" class="edge">
<title>Node1&#45;&gt;Node2</title>
<path fill="none" stroke="midnightblue" d="M121.02,-291.09C141.39,-298.07 165.93,-306.47 188,-314 194.34,-316.16 200.99,-318.43 207.59,-320.68"/>
<polygon fill="midnightblue" stroke="midnightblue" points="206.59,-324.03 217.19,-323.94 208.85,-317.41 206.59,-324.03"/>
</g>
<!-- Node3 -->
<g id="node3" class="node">
<title>Node3</title>
<g id="a_node3"><a xlink:href="../../d0/d94/classOmniboxViewViews.html#a55d58605b56fae95e3621004ad831864" target="_top" xlink:title=" ">
<polygon fill="white" stroke="black" points="188,-285.5 188,-304.5 337,-304.5 337,-285.5 188,-285.5"/>
<text text-anchor="middle" x="262.5" y="-292.5" font-family="Helvetica,sans-Serif" font-size="10.00">OmniboxViewViews::SelectAll</text>
</a>
</g>
</g>
<!-- Node1&#45;&gt;Node3 -->
<g id="edge2" class="edge">
<title>Node1&#45;&gt;Node3</title>
<path fill="none" stroke="midnightblue" d="M152.04,-283.73C160.5,-284.6 169.17,-285.49 177.73,-286.37"/>
<polygon fill="midnightblue" stroke="midnightblue" points="177.41,-289.86 187.72,-287.4 178.13,-282.9 177.41,-289.86"/>
</g>
<!-- Node4 -->
<g id="node4" class="node">
<title>Node4</title>
<g id="a_node4"><a xlink:href="../../d9/d1e/classOmniboxView.html#a601602b62f2b2f84d28660988c6b8959" target="_top" xlink:title=" ">
<polygon fill="white" stroke="black" points="192,-247.5 192,-266.5 333,-266.5 333,-247.5 192,-247.5"/>
<text text-anchor="middle" x="262.5" y="-254.5" font-family="Helvetica,sans-Serif" font-size="10.00">OmniboxView::TextChanged</text>
</a>
</g>
</g>
<!-- Node1&#45;&gt;Node4 -->
<g id="edge3" class="edge">
<title>Node1&#45;&gt;Node4</title>
<path fill="none" stroke="midnightblue" d="M152.04,-268.27C161.82,-267.27 171.86,-266.23 181.71,-265.22"/>
<polygon fill="midnightblue" stroke="midnightblue" points="182.29,-268.68 191.88,-264.17 181.57,-261.71 182.29,-268.68"/>
</g>
<!-- Node6 -->
<g id="node6" class="node">
<title>Node6</title>
<g id="a_node6"><a xlink:href="../../d0/d94/classOmniboxViewViews.html#a4fbd35d6def5efeefc54068a25eb2f83" target="_top" xlink:title=" ">
<polygon fill="white" stroke="black" points="189.5,-143 189.5,-173 335.5,-173 335.5,-143 189.5,-143"/>
<text text-anchor="start" x="197.5" y="-161" font-family="Helvetica,sans-Serif" font-size="10.00">OmniboxViewViews::Unapply</text>
<text text-anchor="middle" x="262.5" y="-150" font-family="Helvetica,sans-Serif" font-size="10.00">SteadyStateElisions</text>
</a>
</g>
</g>
<!-- Node1&#45;&gt;Node6 -->
<g id="edge5" class="edge">
<title>Node1&#45;&gt;Node6</title>
<path fill="none" stroke="midnightblue" d="M100.74,-260.82C133.4,-239.93 192.3,-202.26 229.02,-178.77"/>
<polygon fill="midnightblue" stroke="midnightblue" points="231.31,-181.46 237.85,-173.13 227.54,-175.57 231.31,-181.46"/>
</g>
<!-- Node5 -->
<g id="node5" class="node">
<title>Node5</title>
<g id="a_node5"><a xlink:href="../../d9/d1e/classOmniboxView.html#a366f0727cd437ca6ad9bc44956fb5115" target="_top" xlink:title=" ">
<polygon fill="white" stroke="black" points="373,-302.5 373,-321.5 581,-321.5 581,-302.5 373,-302.5"/>
<text text-anchor="middle" x="477" y="-309.5" font-family="Helvetica,sans-Serif" font-size="10.00">OmniboxView::EmphasizeURLComponents</text>
</a>
</g>
</g>
<!-- Node4&#45;&gt;Node5 -->
<g id="edge4" class="edge">
<title>Node4&#45;&gt;Node5</title>
<path fill="none" stroke="midnightblue" d="M305.89,-266.51C316.19,-269.21 327.08,-272.41 337,-276 353.64,-282.02 356.16,-287.57 373,-293 381.64,-295.79 390.83,-298.21 400.03,-300.3"/>
<polygon fill="midnightblue" stroke="midnightblue" points="399.47,-303.76 409.98,-302.45 400.94,-296.92 399.47,-303.76"/>
</g>
<!-- Node7 -->
<g id="node7" class="node">
<title>Node7</title>
<g id="a_node7"><a xlink:href="../../d0/d22/classOmniboxEditModel.html#a90f619a8a4908d7e8bd9db0264b68ebc" target="_top" xlink:title=" ">
<polygon fill="white" stroke="black" points="406.5,-253 406.5,-283 547.5,-283 547.5,-253 406.5,-253"/>
<text text-anchor="start" x="414.5" y="-271" font-family="Helvetica,sans-Serif" font-size="10.00">OmniboxEditModel::Classify</text>
<text text-anchor="middle" x="477" y="-260" font-family="Helvetica,sans-Serif" font-size="10.00">String</text>
</a>
</g>
</g>
<!-- Node6&#45;&gt;Node7 -->
<g id="edge6" class="edge">
<title>Node6&#45;&gt;Node7</title>
<path fill="none" stroke="midnightblue" d="M280.11,-173.04C300.58,-190.85 337.09,-220.33 373,-238 382.12,-242.49 392.03,-246.42 401.98,-249.84"/>
<polygon fill="midnightblue" stroke="midnightblue" points="400.92,-253.17 411.51,-252.96 403.09,-246.52 400.92,-253.17"/>
</g>
<!-- Node12 -->
<g id="node12" class="node">
<title>Node12</title>
<g id="a_node12"><a xlink:href="../../d0/d94/classOmniboxViewViews.html#a694c20c02136968faf5e0d7bde503897" target="_top" xlink:title=" ">
<polygon fill="white" stroke="black" points="617,-180.5 617,-199.5 800,-199.5 800,-180.5 617,-180.5"/>
<text text-anchor="middle" x="708.5" y="-187.5" font-family="Helvetica,sans-Serif" font-size="10.00">OmniboxViewViews::GetSelectedText</text>
</a>
</g>
</g>
<!-- Node6&#45;&gt;Node12 -->
<g id="edge11" class="edge">
<title>Node6&#45;&gt;Node12</title>
<path fill="none" stroke="midnightblue" d="M290.39,-173.21C311.96,-184.49 343.41,-198.92 373,-205 468.32,-224.59 582.02,-212.15 649.29,-201.19"/>
<polygon fill="midnightblue" stroke="midnightblue" points="649.99,-204.62 659.28,-199.51 648.84,-197.71 649.99,-204.62"/>
</g>
<!-- Node13 -->
<g id="node13" class="node">
<title>Node13</title>
<g id="a_node13"><a xlink:href="../../d0/d94/classOmniboxViewViews.html#aed81dc25a339a63606d423d431e44260" target="_top" xlink:title=" ">
<polygon fill="white" stroke="black" points="393.5,-165 393.5,-195 560.5,-195 560.5,-165 393.5,-165"/>
<text text-anchor="start" x="401.5" y="-183" font-family="Helvetica,sans-Serif" font-size="10.00">OmniboxViewViews::GetSelection</text>
<text text-anchor="middle" x="477" y="-172" font-family="Helvetica,sans-Serif" font-size="10.00">Bounds</text>
</a>
</g>
</g>
<!-- Node6&#45;&gt;Node13 -->
<g id="edge12" class="edge">
<title>Node6&#45;&gt;Node13</title>
<path fill="none" stroke="midnightblue" d="M335.74,-165.48C350.94,-167.05 367.18,-168.73 383.02,-170.37"/>
<polygon fill="midnightblue" stroke="midnightblue" points="383.04,-173.89 393.35,-171.44 383.76,-166.93 383.04,-173.89"/>
</g>
<!-- Node14 -->
<g id="node14" class="node">
<title>Node14</title>
<g id="a_node14"><a xlink:href="../../d0/d94/classOmniboxViewViews.html#a9747120bf031c14860eaa85c4a1fdb76" target="_top" xlink:title=" ">
<polygon fill="white" stroke="black" points="636,-107.5 636,-126.5 781,-126.5 781,-107.5 636,-107.5"/>
<text text-anchor="middle" x="708.5" y="-114.5" font-family="Helvetica,sans-Serif" font-size="10.00">OmniboxViewViews::GetText</text>
</a>
</g>
</g>
<!-- Node6&#45;&gt;Node14 -->
<g id="edge13" class="edge">
<title>Node6&#45;&gt;Node14</title>
<path fill="none" stroke="midnightblue" d="M294.75,-142.87C316.2,-133.35 345.63,-121.96 373,-117 458.06,-101.6 557.3,-104.11 625.47,-108.91"/>
<polygon fill="midnightblue" stroke="midnightblue" points="625.48,-112.42 635.72,-109.66 626,-105.44 625.48,-112.42"/>
</g>
<!-- Node15 -->
<g id="node15" class="node">
<title>Node15</title>
<g id="a_node15"><a xlink:href="../../dc/d8f/structAutocompleteMatch.html#a2995f802114ff701b5d6e037fb3019b3" target="_top" xlink:title=" ">
<polygon fill="white" stroke="black" points="422,-39 422,-69 532,-69 532,-39 422,-39"/>
<text text-anchor="start" x="430" y="-57" font-family="Helvetica,sans-Serif" font-size="10.00">AutocompleteMatch::</text>
<text text-anchor="middle" x="477" y="-46" font-family="Helvetica,sans-Serif" font-size="10.00">IsSearchType</text>
</a>
</g>
</g>
<!-- Node6&#45;&gt;Node15 -->
<g id="edge14" class="edge">
<title>Node6&#45;&gt;Node15</title>
<path fill="none" stroke="midnightblue" d="M281.8,-142.99C302.72,-126.49 338.52,-100.18 373,-84 385.23,-78.26 398.79,-73.37 411.95,-69.3"/>
<polygon fill="midnightblue" stroke="midnightblue" points="413.32,-72.54 421.91,-66.35 411.33,-65.83 413.32,-72.54"/>
</g>
<!-- Node17 -->
<g id="node17" class="node">
<title>Node17</title>
<g id="a_node17"><a xlink:href="../../d0/d94/classOmniboxViewViews.html#abb6135452198718c79e3599bbf658e62" target="_top" xlink:title=" ">
<polygon fill="white" stroke="black" points="398,-126.5 398,-145.5 556,-145.5 556,-126.5 398,-126.5"/>
<text text-anchor="middle" x="477" y="-133.5" font-family="Helvetica,sans-Serif" font-size="10.00">OmniboxViewViews::IsSelectAll</text>
</a>
</g>
</g>
<!-- Node6&#45;&gt;Node17 -->
<g id="edge16" class="edge">
<title>Node6&#45;&gt;Node17</title>
<path fill="none" stroke="midnightblue" d="M335.74,-150.52C352.44,-148.79 370.38,-146.93 387.68,-145.14"/>
<polygon fill="midnightblue" stroke="midnightblue" points="388.19,-148.61 397.77,-144.1 387.47,-141.65 388.19,-148.61"/>
</g>
<!-- Node18 -->
<g id="node18" class="node">
<title>Node18</title>
<g id="a_node18"><a xlink:href="../../d9/d1e/classOmniboxView.html#aac25a41924b28863d31120527936dc6d" target="_top" xlink:title=" ">
<polygon fill="white" stroke="black" points="422,-0.5 422,-19.5 532,-19.5 532,-0.5 422,-0.5"/>
<text text-anchor="middle" x="477" y="-7.5" font-family="Helvetica,sans-Serif" font-size="10.00">OmniboxView::model</text>
</a>
</g>
</g>
<!-- Node6&#45;&gt;Node18 -->
<g id="edge19" class="edge">
<title>Node6&#45;&gt;Node18</title>
<path fill="none" stroke="midnightblue" d="M271.7,-142.71C287.39,-115.08 324.44,-57.11 373,-29 384.73,-22.21 398.35,-17.77 411.78,-14.87"/>
<polygon fill="midnightblue" stroke="midnightblue" points="412.79,-18.25 421.97,-12.95 411.49,-11.37 412.79,-18.25"/>
</g>
<!-- Node8 -->
<g id="node8" class="node">
<title>Node8</title>
<g id="a_node8"><a xlink:href="../../d0/d22/classOmniboxEditModel.html#a95286d7e003516065267f306a6cb1965" target="_top" xlink:title=" ">
<polygon fill="white" stroke="black" points="637,-253 637,-283 780,-283 780,-253 637,-253"/>
<text text-anchor="start" x="645" y="-271" font-family="Helvetica,sans-Serif" font-size="10.00">OmniboxEditModel::GetPage</text>
<text text-anchor="middle" x="708.5" y="-260" font-family="Helvetica,sans-Serif" font-size="10.00">Classification</text>
</a>
</g>
</g>
<!-- Node7&#45;&gt;Node8 -->
<g id="edge7" class="edge">
<title>Node7&#45;&gt;Node8</title>
<path fill="none" stroke="midnightblue" d="M547.79,-268C572.71,-268 600.98,-268 626.74,-268"/>
<polygon fill="midnightblue" stroke="midnightblue" points="626.85,-271.5 636.85,-268 626.85,-264.5 626.85,-271.5"/>
</g>
<!-- Node9 -->
<g id="node9" class="node">
<title>Node9</title>
<g id="a_node9"><a xlink:href="../../d0/d22/classOmniboxEditModel.html#ad4c23db832a06ca44fb769a87cebd6e9" target="_top" xlink:title=" ">
<polygon fill="white" stroke="black" points="836,-302.5 836,-321.5 981,-321.5 981,-302.5 836,-302.5"/>
<text text-anchor="middle" x="908.5" y="-309.5" font-family="Helvetica,sans-Serif" font-size="10.00">OmniboxEditModel::controller</text>
</a>
</g>
</g>
<!-- Node8&#45;&gt;Node9 -->
<g id="edge8" class="edge">
<title>Node8&#45;&gt;Node9</title>
<path fill="none" stroke="midnightblue" d="M777.09,-283.02C802.48,-288.66 830.94,-294.99 854.78,-300.28"/>
<polygon fill="midnightblue" stroke="midnightblue" points="854.17,-303.73 864.69,-302.49 855.69,-296.9 854.17,-303.73"/>
</g>
<!-- Node10 -->
<g id="node10" class="node">
<title>Node10</title>
<g id="a_node10"><a xlink:href="../../dc/d81/classOmniboxEditController.html#af0496738d6b2b60045f04a52c8b015cb" target="_top" xlink:title=" ">
<polygon fill="white" stroke="black" points="850.5,-253 850.5,-283 966.5,-283 966.5,-253 850.5,-253"/>
<text text-anchor="start" x="858.5" y="-271" font-family="Helvetica,sans-Serif" font-size="10.00">OmniboxEditController</text>
<text text-anchor="middle" x="908.5" y="-260" font-family="Helvetica,sans-Serif" font-size="10.00">::GetLocationBarModel</text>
</a>
</g>
</g>
<!-- Node8&#45;&gt;Node10 -->
<g id="edge9" class="edge">
<title>Node8&#45;&gt;Node10</title>
<path fill="none" stroke="midnightblue" d="M780.14,-268C799.63,-268 820.72,-268 840.02,-268"/>
<polygon fill="midnightblue" stroke="midnightblue" points="840.24,-271.5 850.24,-268 840.24,-264.5 840.24,-271.5"/>
</g>
<!-- Node11 -->
<g id="node11" class="node">
<title>Node11</title>
<g id="a_node11"><a xlink:href="../../d1/d62/classLocationBarModel.html#a5fa3590a5fd5c3db742dd05adb55cc8a" target="_top" xlink:title=" ">
<polygon fill="white" stroke="black" points="839,-204 839,-234 978,-234 978,-204 839,-204"/>
<text text-anchor="start" x="847" y="-222" font-family="Helvetica,sans-Serif" font-size="10.00">LocationBarModel::GetPage</text>
<text text-anchor="middle" x="908.5" y="-211" font-family="Helvetica,sans-Serif" font-size="10.00">Classification</text>
</a>
</g>
</g>
<!-- Node8&#45;&gt;Node11 -->
<g id="edge10" class="edge">
<title>Node8&#45;&gt;Node11</title>
<path fill="none" stroke="midnightblue" d="M770.25,-252.97C791.35,-247.74 815.18,-241.85 837,-236.45"/>
<polygon fill="midnightblue" stroke="midnightblue" points="838,-239.81 846.86,-234.01 836.31,-233.01 838,-239.81"/>
</g>
<!-- Node16 -->
<g id="node16" class="node">
<title>Node16</title>
<g id="a_node16"><a xlink:href="../../dc/d8f/structAutocompleteMatch.html#aaca5dac30caf1899132db064a3213d9e" target="_top" xlink:title=" ">
<polygon fill="white" stroke="black" points="645,-39 645,-69 772,-69 772,-39 645,-39"/>
<text text-anchor="start" x="653" y="-57" font-family="Helvetica,sans-Serif" font-size="10.00">AutocompleteMatch::</text>
<text text-anchor="middle" x="708.5" y="-46" font-family="Helvetica,sans-Serif" font-size="10.00">IsSpecializedSearchType</text>
</a>
</g>
</g>
<!-- Node15&#45;&gt;Node16 -->
<g id="edge15" class="edge">
<title>Node15&#45;&gt;Node16</title>
<path fill="none" stroke="midnightblue" d="M532.1,-54C562.72,-54 601.43,-54 634.7,-54"/>
<polygon fill="midnightblue" stroke="midnightblue" points="634.83,-57.5 644.83,-54 634.83,-50.5 634.83,-57.5"/>
</g>
<!-- Node17&#45;&gt;Node12 -->
<g id="edge17" class="edge">
<title>Node17&#45;&gt;Node12</title>
<path fill="none" stroke="midnightblue" d="M530.82,-145.51C546.97,-148.62 564.76,-152.25 581,-156 609.14,-162.51 640.49,-170.92 664.95,-177.76"/>
<polygon fill="midnightblue" stroke="midnightblue" points="664.06,-181.14 674.63,-180.48 665.95,-174.4 664.06,-181.14"/>
</g>
<!-- Node17&#45;&gt;Node14 -->
<g id="edge18" class="edge">
<title>Node17&#45;&gt;Node14</title>
<path fill="none" stroke="midnightblue" d="M556.02,-129.54C578.44,-127.68 602.96,-125.65 625.61,-123.78"/>
<polygon fill="midnightblue" stroke="midnightblue" points="626.2,-127.24 635.87,-122.93 625.62,-120.27 626.2,-127.24"/>
</g>
</g>
</svg>
