<?xml version="1.0" encoding="UTF-8" standalone="no"?>
<!DOCTYPE svg PUBLIC "-//W3C//DTD SVG 1.1//EN"
 "http://www.w3.org/Graphics/SVG/1.1/DTD/svg11.dtd">
<!-- Generated by graphviz version 2.43.0 (0)
 -->
<!-- Title: OmniboxViewViews::OnBlur Pages: 1 -->
<svg width="1018pt" height="390pt"
 viewBox="0.00 0.00 1018.00 389.50" xmlns="http://www.w3.org/2000/svg" xmlns:xlink="http://www.w3.org/1999/xlink">
<g id="graph0" class="graph" transform="scale(1 1) rotate(0) translate(4 385.5)">
<title>OmniboxViewViews::OnBlur</title>
<polygon fill="white" stroke="transparent" points="-4,4 -4,-385.5 1014,-385.5 1014,4 -4,4"/>
<!-- Node1 -->
<g id="node1" class="node">
<title>Node1</title>
<g id="a_node1"><a xlink:title=" ">
<polygon fill="#bfbfbf" stroke="black" points="0,-175.5 0,-194.5 140,-194.5 140,-175.5 0,-175.5"/>
<text text-anchor="middle" x="70" y="-182.5" font-family="Helvetica,sans-Serif" font-size="10.00">OmniboxViewViews::OnBlur</text>
</a>
</g>
</g>
<!-- Node2 -->
<g id="node2" class="node">
<title>Node2</title>
<g id="a_node2"><a xlink:href="../../d0/d94/classOmniboxViewViews.html#ac3c6d49105812249ed0254bba7ba2c88" target="_top" xlink:title=" ">
<polygon fill="white" stroke="black" points="176,-351 176,-381 365,-381 365,-351 176,-351"/>
<text text-anchor="start" x="184" y="-369" font-family="Helvetica,sans-Serif" font-size="10.00">OmniboxViewViews::ClearAccessibility</text>
<text text-anchor="middle" x="270.5" y="-358" font-family="Helvetica,sans-Serif" font-size="10.00">Label</text>
</a>
</g>
</g>
<!-- Node1&#45;&gt;Node2 -->
<g id="edge1" class="edge">
<title>Node1&#45;&gt;Node2</title>
<path fill="none" stroke="midnightblue" d="M74.51,-194.53C85.15,-222.05 119.81,-302.2 176,-342 178.09,-343.48 180.27,-344.88 182.52,-346.18"/>
<polygon fill="midnightblue" stroke="midnightblue" points="180.98,-349.32 191.47,-350.8 184.19,-343.1 180.98,-349.32"/>
</g>
<!-- Node3 -->
<g id="node3" class="node">
<title>Node3</title>
<g id="a_node3"><a xlink:href="../../d9/d1e/classOmniboxView.html#ac3ddb78512aba4b8a69b2b7e2b8caeb7" target="_top" xlink:title=" ">
<polygon fill="white" stroke="black" points="607.5,-120 607.5,-150 755.5,-150 755.5,-120 607.5,-120"/>
<text text-anchor="start" x="615.5" y="-138" font-family="Helvetica,sans-Serif" font-size="10.00">OmniboxView::CloseOmnibox</text>
<text text-anchor="middle" x="681.5" y="-127" font-family="Helvetica,sans-Serif" font-size="10.00">Popup</text>
</a>
</g>
</g>
<!-- Node1&#45;&gt;Node3 -->
<g id="edge2" class="edge">
<title>Node1&#45;&gt;Node3</title>
<path fill="none" stroke="midnightblue" d="M116.82,-175.5C135.15,-172.02 156.5,-168.35 176,-166 323.61,-148.17 496.82,-140.36 597.08,-137.12"/>
<polygon fill="midnightblue" stroke="midnightblue" points="597.27,-140.62 607.15,-136.8 597.05,-133.62 597.27,-140.62"/>
</g>
<!-- Node4 -->
<g id="node4" class="node">
<title>Node4</title>
<g id="a_node4"><a xlink:href="../../d0/d94/classOmniboxViewViews.html#a9747120bf031c14860eaa85c4a1fdb76" target="_top" xlink:title=" ">
<polygon fill="white" stroke="black" points="198,-263.5 198,-282.5 343,-282.5 343,-263.5 198,-263.5"/>
<text text-anchor="middle" x="270.5" y="-270.5" font-family="Helvetica,sans-Serif" font-size="10.00">OmniboxViewViews::GetText</text>
</a>
</g>
</g>
<!-- Node1&#45;&gt;Node4 -->
<g id="edge3" class="edge">
<title>Node1&#45;&gt;Node4</title>
<path fill="none" stroke="midnightblue" d="M82.44,-194.67C100.88,-209.75 138.89,-238.71 176,-254 182.28,-256.59 188.94,-258.83 195.71,-260.78"/>
<polygon fill="midnightblue" stroke="midnightblue" points="195.09,-264.24 205.66,-263.42 196.89,-257.47 195.09,-264.24"/>
</g>
<!-- Node5 -->
<g id="node5" class="node">
<title>Node5</title>
<g id="a_node5"><a xlink:href="../../d1/db1/classOmniboxPopupModel.html#a64f0ed404470d2689d4774bac54d54fc" target="_top" xlink:title=" ">
<polygon fill="white" stroke="black" points="212.5,-302 212.5,-332 328.5,-332 328.5,-302 212.5,-302"/>
<text text-anchor="start" x="220.5" y="-320" font-family="Helvetica,sans-Serif" font-size="10.00">OmniboxPopupModel::</text>
<text text-anchor="middle" x="270.5" y="-309" font-family="Helvetica,sans-Serif" font-size="10.00">IsOpen</text>
</a>
</g>
</g>
<!-- Node1&#45;&gt;Node5 -->
<g id="edge4" class="edge">
<title>Node1&#45;&gt;Node5</title>
<path fill="none" stroke="midnightblue" d="M77.64,-194.67C92.63,-215.72 131.26,-265.9 176,-292 184.19,-296.78 193.31,-300.66 202.55,-303.81"/>
<polygon fill="midnightblue" stroke="midnightblue" points="201.6,-307.19 212.19,-306.84 203.7,-300.51 201.6,-307.19"/>
</g>
<!-- Node7 -->
<g id="node7" class="node">
<title>Node7</title>
<g id="a_node7"><a xlink:href="../../d9/d1e/classOmniboxView.html#aac25a41924b28863d31120527936dc6d" target="_top" xlink:title=" ">
<polygon fill="white" stroke="black" points="215.5,-175.5 215.5,-194.5 325.5,-194.5 325.5,-175.5 215.5,-175.5"/>
<text text-anchor="middle" x="270.5" y="-182.5" font-family="Helvetica,sans-Serif" font-size="10.00">OmniboxView::model</text>
</a>
</g>
</g>
<!-- Node1&#45;&gt;Node7 -->
<g id="edge6" class="edge">
<title>Node1&#45;&gt;Node7</title>
<path fill="none" stroke="midnightblue" d="M140.15,-185C161.3,-185 184.47,-185 205.28,-185"/>
<polygon fill="midnightblue" stroke="midnightblue" points="205.29,-188.5 215.29,-185 205.29,-181.5 205.29,-188.5"/>
</g>
<!-- Node8 -->
<g id="node8" class="node">
<title>Node8</title>
<g id="a_node8"><a xlink:href="../../d0/d22/classOmniboxEditModel.html#ac66fd48c7e5358a61b9dd3e494a711d5" target="_top" xlink:title=" ">
<polygon fill="white" stroke="black" points="205,-214 205,-244 336,-244 336,-214 205,-214"/>
<text text-anchor="start" x="213" y="-232" font-family="Helvetica,sans-Serif" font-size="10.00">OmniboxEditModel::OnKill</text>
<text text-anchor="middle" x="270.5" y="-221" font-family="Helvetica,sans-Serif" font-size="10.00">Focus</text>
</a>
</g>
</g>
<!-- Node1&#45;&gt;Node8 -->
<g id="edge7" class="edge">
<title>Node1&#45;&gt;Node8</title>
<path fill="none" stroke="midnightblue" d="M114.07,-194.55C137.63,-199.77 167.49,-206.39 194.72,-212.43"/>
<polygon fill="midnightblue" stroke="midnightblue" points="194.1,-215.87 204.62,-214.62 195.62,-209.04 194.1,-215.87"/>
</g>
<!-- Node13 -->
<g id="node13" class="node">
<title>Node13</title>
<g id="a_node13"><a xlink:href="../../d0/d22/classOmniboxEditModel.html#a690ffac2dc263fec61dc16b18b0e3cde" target="_top" xlink:title=" ">
<polygon fill="white" stroke="black" points="203.5,-88 203.5,-118 337.5,-118 337.5,-88 203.5,-88"/>
<text text-anchor="start" x="211.5" y="-106" font-family="Helvetica,sans-Serif" font-size="10.00">OmniboxEditModel::OnWill</text>
<text text-anchor="middle" x="270.5" y="-95" font-family="Helvetica,sans-Serif" font-size="10.00">KillFocus</text>
</a>
</g>
</g>
<!-- Node1&#45;&gt;Node13 -->
<g id="edge12" class="edge">
<title>Node1&#45;&gt;Node13</title>
<path fill="none" stroke="midnightblue" d="M88.46,-175.34C109.01,-164.22 144.33,-145.84 176,-133 186.16,-128.88 197.12,-124.94 207.83,-121.34"/>
<polygon fill="midnightblue" stroke="midnightblue" points="209.16,-124.59 217.57,-118.14 206.97,-117.94 209.16,-124.59"/>
</g>
<!-- Node14 -->
<g id="node14" class="node">
<title>Node14</title>
<g id="a_node14"><a xlink:href="../../d0/d22/classOmniboxEditModel.html#a254f9536adb46b9e885d10b3d5bfe4c9" target="_top" xlink:title=" ">
<polygon fill="white" stroke="black" points="205,-39 205,-69 336,-69 336,-39 205,-39"/>
<text text-anchor="start" x="213" y="-57" font-family="Helvetica,sans-Serif" font-size="10.00">OmniboxEditModel::popup</text>
<text text-anchor="middle" x="270.5" y="-46" font-family="Helvetica,sans-Serif" font-size="10.00">_model</text>
</a>
</g>
</g>
<!-- Node1&#45;&gt;Node14 -->
<g id="edge13" class="edge">
<title>Node1&#45;&gt;Node14</title>
<path fill="none" stroke="midnightblue" d="M77.63,-175.3C92.57,-154.18 131.13,-103.87 176,-78 181.95,-74.57 188.39,-71.62 195.01,-69.09"/>
<polygon fill="midnightblue" stroke="midnightblue" points="196.52,-72.27 204.81,-65.67 194.22,-65.66 196.52,-72.27"/>
</g>
<!-- Node15 -->
<g id="node15" class="node">
<title>Node15</title>
<g id="a_node15"><a xlink:href="../../d0/d94/classOmniboxViewViews.html#ab6a54ac38f2deb636bf333ab39181422" target="_top" xlink:title=" ">
<polygon fill="white" stroke="black" points="195,-0.5 195,-19.5 346,-19.5 346,-0.5 195,-0.5"/>
<text text-anchor="middle" x="270.5" y="-7.5" font-family="Helvetica,sans-Serif" font-size="10.00">OmniboxViewViews::RevertAll</text>
</a>
</g>
</g>
<!-- Node1&#45;&gt;Node15 -->
<g id="edge14" class="edge">
<title>Node1&#45;&gt;Node15</title>
<path fill="none" stroke="midnightblue" d="M74.43,-175.39C84.86,-147.67 119.01,-67.11 176,-29 178.98,-27.01 182.13,-25.21 185.39,-23.6"/>
<polygon fill="midnightblue" stroke="midnightblue" points="187.05,-26.7 194.85,-19.53 184.28,-20.27 187.05,-26.7"/>
</g>
<!-- Node6 -->
<g id="node6" class="node">
<title>Node6</title>
<g id="a_node6"><a xlink:href="../../db/de1/classOmniboxPopupView.html#ab590e106e3a2f53bfa45712f529cf106" target="_top" xlink:title=" ">
<polygon fill="white" stroke="black" points="409.5,-307.5 409.5,-326.5 552.5,-326.5 552.5,-307.5 409.5,-307.5"/>
<text text-anchor="middle" x="481" y="-314.5" font-family="Helvetica,sans-Serif" font-size="10.00">OmniboxPopupView::IsOpen</text>
</a>
</g>
</g>
<!-- Node5&#45;&gt;Node6 -->
<g id="edge5" class="edge">
<title>Node5&#45;&gt;Node6</title>
<path fill="none" stroke="midnightblue" d="M328.75,-317C350.49,-317 375.67,-317 399.18,-317"/>
<polygon fill="midnightblue" stroke="midnightblue" points="399.49,-320.5 409.49,-317 399.49,-313.5 399.49,-320.5"/>
</g>
<!-- Node9 -->
<g id="node9" class="node">
<title>Node9</title>
<g id="a_node9"><a xlink:href="../../d9/d1e/classOmniboxView.html#a757354a766b9de3c285f21a2a456ba48" target="_top" xlink:title=" ">
<polygon fill="white" stroke="black" points="401,-181.5 401,-200.5 561,-200.5 561,-181.5 401,-181.5"/>
<text text-anchor="middle" x="481" y="-188.5" font-family="Helvetica,sans-Serif" font-size="10.00">OmniboxView::HideImeIfNeeded</text>
</a>
</g>
</g>
<!-- Node8&#45;&gt;Node9 -->
<g id="edge8" class="edge">
<title>Node8&#45;&gt;Node9</title>
<path fill="none" stroke="midnightblue" d="M336.04,-217.24C362.02,-212.5 391.86,-207.06 417.61,-202.37"/>
<polygon fill="midnightblue" stroke="midnightblue" points="418.42,-205.78 427.63,-200.54 417.16,-198.89 418.42,-205.78"/>
</g>
<!-- Node10 -->
<g id="node10" class="node">
<title>Node10</title>
<g id="a_node10"><a xlink:href="../../d0/d22/classOmniboxEditModel.html#a7305586191b3f1b972616914def2fd74" target="_top" xlink:title=" ">
<polygon fill="white" stroke="black" points="407.5,-220 407.5,-250 554.5,-250 554.5,-220 407.5,-220"/>
<text text-anchor="start" x="415.5" y="-238" font-family="Helvetica,sans-Serif" font-size="10.00">OmniboxEditModel::SetFocus</text>
<text text-anchor="middle" x="481" y="-227" font-family="Helvetica,sans-Serif" font-size="10.00">State</text>
</a>
</g>
</g>
<!-- Node8&#45;&gt;Node10 -->
<g id="edge9" class="edge">
<title>Node8&#45;&gt;Node10</title>
<path fill="none" stroke="midnightblue" d="M336.04,-230.86C355.38,-231.41 376.86,-232.03 397.2,-232.62"/>
<polygon fill="midnightblue" stroke="midnightblue" points="397.3,-236.12 407.4,-232.91 397.5,-229.12 397.3,-236.12"/>
</g>
<!-- Node11 -->
<g id="node11" class="node">
<title>Node11</title>
<g id="a_node11"><a xlink:href="../../d9/d1e/classOmniboxView.html#a581ba04d09607de42785148595595626" target="_top" xlink:title=" ">
<polygon fill="white" stroke="black" points="597,-188.5 597,-207.5 766,-207.5 766,-188.5 597,-188.5"/>
<text text-anchor="middle" x="681.5" y="-195.5" font-family="Helvetica,sans-Serif" font-size="10.00">OmniboxView::ApplyCaretVisibility</text>
</a>
</g>
</g>
<!-- Node10&#45;&gt;Node11 -->
<g id="edge10" class="edge">
<title>Node10&#45;&gt;Node11</title>
<path fill="none" stroke="midnightblue" d="M554.51,-221.49C575.83,-217.51 598.92,-213.21 619.45,-209.38"/>
<polygon fill="midnightblue" stroke="midnightblue" points="620.11,-212.82 629.3,-207.54 618.83,-205.94 620.11,-212.82"/>
</g>
<!-- Node12 -->
<g id="node12" class="node">
<title>Node12</title>
<g id="a_node12"><a xlink:href="../../d0/d22/classOmniboxEditModel.html#a1abe23a3b5db8440ddfdea65d628e006" target="_top" xlink:title=" ">
<polygon fill="white" stroke="black" points="625,-227 625,-257 738,-257 738,-227 625,-227"/>
<text text-anchor="start" x="633" y="-245" font-family="Helvetica,sans-Serif" font-size="10.00">OmniboxEditModel::is</text>
<text text-anchor="middle" x="681.5" y="-234" font-family="Helvetica,sans-Serif" font-size="10.00">_caret_visible</text>
</a>
</g>
</g>
<!-- Node10&#45;&gt;Node12 -->
<g id="edge11" class="edge">
<title>Node10&#45;&gt;Node12</title>
<path fill="none" stroke="midnightblue" d="M554.51,-237.56C574.22,-238.25 595.46,-239 614.77,-239.68"/>
<polygon fill="midnightblue" stroke="midnightblue" points="614.86,-243.19 624.98,-240.04 615.11,-236.19 614.86,-243.19"/>
</g>
<!-- Node16 -->
<g id="node16" class="node">
<title>Node16</title>
<g id="a_node16"><a xlink:href="../../d9/d1e/classOmniboxView.html#a405dec91c8bd106dec923394899defa8" target="_top" xlink:title=" ">
<polygon fill="white" stroke="black" points="419,-35.5 419,-54.5 543,-54.5 543,-35.5 419,-35.5"/>
<text text-anchor="middle" x="481" y="-42.5" font-family="Helvetica,sans-Serif" font-size="10.00">OmniboxView::RevertAll</text>
</a>
</g>
</g>
<!-- Node15&#45;&gt;Node16 -->
<g id="edge15" class="edge">
<title>Node15&#45;&gt;Node16</title>
<path fill="none" stroke="midnightblue" d="M328.2,-19.52C354.51,-23.93 385.97,-29.22 413.4,-33.82"/>
<polygon fill="midnightblue" stroke="midnightblue" points="412.87,-37.28 423.31,-35.48 414.03,-30.38 412.87,-37.28"/>
</g>
<!-- Node16&#45;&gt;Node3 -->
<g id="edge16" class="edge">
<title>Node16&#45;&gt;Node3</title>
<path fill="none" stroke="midnightblue" d="M503.24,-54.63C535.25,-69.15 596.51,-96.92 637.94,-115.7"/>
<polygon fill="midnightblue" stroke="midnightblue" points="636.69,-118.98 647.24,-119.92 639.58,-112.6 636.69,-118.98"/>
</g>
<!-- Node17 -->
<g id="node17" class="node">
<title>Node17</title>
<g id="a_node17"><a xlink:href="../../d9/d1e/classOmniboxView.html#a601602b62f2b2f84d28660988c6b8959" target="_top" xlink:title=" ">
<polygon fill="white" stroke="black" points="611,-35.5 611,-54.5 752,-54.5 752,-35.5 611,-35.5"/>
<text text-anchor="middle" x="681.5" y="-42.5" font-family="Helvetica,sans-Serif" font-size="10.00">OmniboxView::TextChanged</text>
</a>
</g>
</g>
<!-- Node16&#45;&gt;Node17 -->
<g id="edge17" class="edge">
<title>Node16&#45;&gt;Node17</title>
<path fill="none" stroke="midnightblue" d="M543.18,-45C561.33,-45 581.49,-45 600.64,-45"/>
<polygon fill="midnightblue" stroke="midnightblue" points="600.85,-48.5 610.85,-45 600.85,-41.5 600.85,-48.5"/>
</g>
<!-- Node18 -->
<g id="node18" class="node">
<title>Node18</title>
<g id="a_node18"><a xlink:href="../../d9/d1e/classOmniboxView.html#a366f0727cd437ca6ad9bc44956fb5115" target="_top" xlink:title=" ">
<polygon fill="white" stroke="black" points="802,-35.5 802,-54.5 1010,-54.5 1010,-35.5 802,-35.5"/>
<text text-anchor="middle" x="906" y="-42.5" font-family="Helvetica,sans-Serif" font-size="10.00">OmniboxView::EmphasizeURLComponents</text>
</a>
</g>
</g>
<!-- Node17&#45;&gt;Node18 -->
<g id="edge18" class="edge">
<title>Node17&#45;&gt;Node18</title>
<path fill="none" stroke="midnightblue" d="M752.29,-45C764.78,-45 778.09,-45 791.44,-45"/>
<polygon fill="midnightblue" stroke="midnightblue" points="791.64,-48.5 801.64,-45 791.64,-41.5 791.64,-48.5"/>
</g>
</g>
</svg>
