<?xml version="1.0" encoding="UTF-8" standalone="no"?>
<!DOCTYPE svg PUBLIC "-//W3C//DTD SVG 1.1//EN"
 "http://www.w3.org/Graphics/SVG/1.1/DTD/svg11.dtd">
<!-- Generated by graphviz version 2.43.0 (0)
 -->
<!-- Title: OmniboxViewViews::UnapplySteadyStateElisions Pages: 1 -->
<svg width="904pt" height="193pt"
 viewBox="0.00 0.00 904.00 193.00" xmlns="http://www.w3.org/2000/svg" xmlns:xlink="http://www.w3.org/1999/xlink">
<g id="graph0" class="graph" transform="scale(1 1) rotate(0) translate(4 189)">
<title>OmniboxViewViews::UnapplySteadyStateElisions</title>
<polygon fill="white" stroke="transparent" points="-4,4 -4,-189 900,-189 900,4 -4,4"/>
<!-- Node1 -->
<g id="node1" class="node">
<title>Node1</title>
<g id="a_node1"><a xlink:title=" ">
<polygon fill="#bfbfbf" stroke="black" points="750,-73.5 750,-103.5 896,-103.5 896,-73.5 750,-73.5"/>
<text text-anchor="start" x="758" y="-91.5" font-family="Helvetica,sans-Serif" font-size="10.00">OmniboxViewViews::Unapply</text>
<text text-anchor="middle" x="823" y="-80.5" font-family="Helvetica,sans-Serif" font-size="10.00">SteadyStateElisions</text>
</a>
</g>
</g>
<!-- Node2 -->
<g id="node2" class="node">
<title>Node2</title>
<g id="a_node2"><a xlink:href="../../d0/d94/classOmniboxViewViews.html#a5a64c1e16631c3301fb57307402784dc" target="_top" xlink:title=" ">
<polygon fill="white" stroke="black" points="2.5,-154.5 2.5,-184.5 143.5,-184.5 143.5,-154.5 2.5,-154.5"/>
<text text-anchor="start" x="10.5" y="-172.5" font-family="Helvetica,sans-Serif" font-size="10.00">OmniboxViewViews::Handle</text>
<text text-anchor="middle" x="73" y="-161.5" font-family="Helvetica,sans-Serif" font-size="10.00">KeyEvent</text>
</a>
</g>
</g>
<!-- Node1&#45;&gt;Node2 -->
<g id="edge1" class="edge">
<title>Node1&#45;&gt;Node2</title>
<path fill="none" stroke="midnightblue" d="M786.42,-108.46C765.87,-119.09 739.18,-131.4 714,-138.5 513.26,-195.15 263.25,-185.44 143.83,-176.2"/>
<polygon fill="midnightblue" stroke="midnightblue" points="788.19,-111.49 795.4,-103.72 784.92,-105.29 788.19,-111.49"/>
</g>
<!-- Node3 -->
<g id="node3" class="node">
<title>Node3</title>
<g id="a_node3"><a xlink:href="../../d0/d94/classOmniboxViewViews.html#a18cba16b87566313a94b57d0e4a7ce12" target="_top" xlink:title=" ">
<polygon fill="white" stroke="black" points="566,-98.5 566,-128.5 710,-128.5 710,-98.5 566,-98.5"/>
<text text-anchor="start" x="574" y="-116.5" font-family="Helvetica,sans-Serif" font-size="10.00">OmniboxViewViews::OnAfter</text>
<text text-anchor="middle" x="638" y="-105.5" font-family="Helvetica,sans-Serif" font-size="10.00">PossibleChange</text>
</a>
</g>
</g>
<!-- Node1&#45;&gt;Node3 -->
<g id="edge2" class="edge">
<title>Node1&#45;&gt;Node3</title>
<path fill="none" stroke="midnightblue" d="M740.02,-99.7C730.04,-101.06 719.9,-102.45 710.1,-103.79"/>
<polygon fill="midnightblue" stroke="midnightblue" points="740.5,-103.17 749.94,-98.34 739.55,-96.23 740.5,-103.17"/>
</g>
<!-- Node8 -->
<g id="node8" class="node">
<title>Node8</title>
<g id="a_node8"><a xlink:href="../../d0/d94/classOmniboxViewViews.html#a9fc21bac19f3a666e10eabc84b72c745" target="_top" xlink:title=" ">
<polygon fill="white" stroke="black" points="562,-49.5 562,-79.5 714,-79.5 714,-49.5 562,-49.5"/>
<text text-anchor="start" x="570" y="-67.5" font-family="Helvetica,sans-Serif" font-size="10.00">OmniboxViewViews::OnMouse</text>
<text text-anchor="middle" x="638" y="-56.5" font-family="Helvetica,sans-Serif" font-size="10.00">Pressed</text>
</a>
</g>
</g>
<!-- Node1&#45;&gt;Node8 -->
<g id="edge9" class="edge">
<title>Node1&#45;&gt;Node8</title>
<path fill="none" stroke="midnightblue" d="M739.89,-77.73C731.27,-76.6 722.54,-75.46 714.01,-74.34"/>
<polygon fill="midnightblue" stroke="midnightblue" points="739.57,-81.22 749.94,-79.05 740.48,-74.28 739.57,-81.22"/>
</g>
<!-- Node9 -->
<g id="node9" class="node">
<title>Node9</title>
<g id="a_node9"><a xlink:href="../../d0/d94/classOmniboxViewViews.html#aef90f48ecf2ced3ede6d986328b82b15" target="_top" xlink:title=" ">
<polygon fill="white" stroke="black" points="562,-0.5 562,-30.5 714,-30.5 714,-0.5 562,-0.5"/>
<text text-anchor="start" x="570" y="-18.5" font-family="Helvetica,sans-Serif" font-size="10.00">OmniboxViewViews::OnMouse</text>
<text text-anchor="middle" x="638" y="-7.5" font-family="Helvetica,sans-Serif" font-size="10.00">Released</text>
</a>
</g>
</g>
<!-- Node1&#45;&gt;Node9 -->
<g id="edge10" class="edge">
<title>Node1&#45;&gt;Node9</title>
<path fill="none" stroke="midnightblue" d="M781.06,-69.19C761.03,-60.03 736.46,-49.21 714,-40.5 705.17,-37.08 695.65,-33.68 686.46,-30.55"/>
<polygon fill="midnightblue" stroke="midnightblue" points="779.66,-72.39 790.21,-73.4 782.59,-66.04 779.66,-72.39"/>
</g>
<!-- Node4 -->
<g id="node4" class="node">
<title>Node4</title>
<g id="a_node4"><a xlink:href="../../d0/d94/classOmniboxViewViews.html#a487a0ced2870997b0f88d8dcab9a4f0e" target="_top" xlink:title=" ">
<polygon fill="white" stroke="black" points="0,-95.5 0,-125.5 146,-125.5 146,-95.5 0,-95.5"/>
<text text-anchor="start" x="8" y="-113.5" font-family="Helvetica,sans-Serif" font-size="10.00">OmniboxViewViews::Execute</text>
<text text-anchor="middle" x="73" y="-102.5" font-family="Helvetica,sans-Serif" font-size="10.00">Command</text>
</a>
</g>
</g>
<!-- Node3&#45;&gt;Node4 -->
<g id="edge3" class="edge">
<title>Node3&#45;&gt;Node4</title>
<path fill="none" stroke="midnightblue" d="M555.92,-111.89C545.84,-111.73 535.68,-111.6 526,-111.5 391.82,-110.14 235.22,-110.15 146.02,-110.31"/>
<polygon fill="midnightblue" stroke="midnightblue" points="555.89,-115.39 565.94,-112.05 556,-108.39 555.89,-115.39"/>
</g>
<!-- Node5 -->
<g id="node5" class="node">
<title>Node5</title>
<g id="a_node5"><a xlink:href="../../d0/d94/classOmniboxViewViews.html#a81d025d1f692c96482925dfbab529691" target="_top" xlink:title=" ">
<polygon fill="white" stroke="black" points="373,-32.5 373,-62.5 517,-62.5 517,-32.5 373,-32.5"/>
<text text-anchor="start" x="381" y="-50.5" font-family="Helvetica,sans-Serif" font-size="10.00">OmniboxViewViews::OnAfter</text>
<text text-anchor="middle" x="445" y="-39.5" font-family="Helvetica,sans-Serif" font-size="10.00">UserAction</text>
</a>
</g>
</g>
<!-- Node3&#45;&gt;Node5 -->
<g id="edge4" class="edge">
<title>Node3&#45;&gt;Node5</title>
<path fill="none" stroke="midnightblue" d="M579.16,-95.23C573.35,-93.33 567.55,-91.39 562,-89.5 536.76,-80.9 508.63,-70.73 486.4,-62.55"/>
<polygon fill="midnightblue" stroke="midnightblue" points="578.31,-98.64 588.9,-98.4 580.47,-91.98 578.31,-98.64"/>
</g>
<!-- Node6 -->
<g id="node6" class="node">
<title>Node6</title>
<g id="a_node6"><a xlink:href="../../d0/d94/classOmniboxViewViews.html#af593bb600ecfa2ed731497a260451b47" target="_top" xlink:title=" ">
<polygon fill="white" stroke="black" points="364,-120.5 364,-150.5 526,-150.5 526,-120.5 364,-120.5"/>
<text text-anchor="start" x="372" y="-138.5" font-family="Helvetica,sans-Serif" font-size="10.00">OmniboxViewViews::OnOmnibox</text>
<text text-anchor="middle" x="445" y="-127.5" font-family="Helvetica,sans-Serif" font-size="10.00">Paste</text>
</a>
</g>
</g>
<!-- Node3&#45;&gt;Node6 -->
<g id="edge5" class="edge">
<title>Node3&#45;&gt;Node6</title>
<path fill="none" stroke="midnightblue" d="M555.76,-122.86C545.96,-123.99 535.96,-125.14 526.18,-126.26"/>
<polygon fill="midnightblue" stroke="midnightblue" points="556.34,-126.31 565.88,-121.69 555.54,-119.36 556.34,-126.31"/>
</g>
<!-- Node7 -->
<g id="node7" class="node">
<title>Node7</title>
<g id="a_node7"><a xlink:href="../../d0/d94/classOmniboxViewViews.html#ae3ebda306ffa960bb7a3a1ebe7f7fc76" target="_top" xlink:title=" ">
<polygon fill="white" stroke="black" points="182,-120.5 182,-150.5 328,-150.5 328,-120.5 182,-120.5"/>
<text text-anchor="start" x="190" y="-138.5" font-family="Helvetica,sans-Serif" font-size="10.00">OmniboxViewViews::Execute</text>
<text text-anchor="middle" x="255" y="-127.5" font-family="Helvetica,sans-Serif" font-size="10.00">TextEditCommand</text>
</a>
</g>
</g>
<!-- Node6&#45;&gt;Node7 -->
<g id="edge6" class="edge">
<title>Node6&#45;&gt;Node7</title>
<path fill="none" stroke="midnightblue" d="M353.91,-135.5C345.28,-135.5 336.61,-135.5 328.19,-135.5"/>
<polygon fill="midnightblue" stroke="midnightblue" points="354,-139 364,-135.5 354,-132 354,-139"/>
</g>
<!-- Node7&#45;&gt;Node2 -->
<g id="edge8" class="edge">
<title>Node7&#45;&gt;Node2</title>
<path fill="none" stroke="midnightblue" d="M171.99,-150.99C162.49,-152.79 152.87,-154.6 143.56,-156.36"/>
<polygon fill="midnightblue" stroke="midnightblue" points="172.65,-154.43 181.82,-149.13 171.35,-147.55 172.65,-154.43"/>
</g>
<!-- Node7&#45;&gt;Node4 -->
<g id="edge7" class="edge">
<title>Node7&#45;&gt;Node4</title>
<path fill="none" stroke="midnightblue" d="M171.84,-124.09C163.28,-122.9 154.63,-121.7 146.19,-120.53"/>
<polygon fill="midnightblue" stroke="midnightblue" points="171.44,-127.57 181.82,-125.48 172.4,-120.63 171.44,-127.57"/>
</g>
</g>
</svg>
