<?xml version="1.0" encoding="UTF-8" standalone="no"?>
<!DOCTYPE svg PUBLIC "-//W3C//DTD SVG 1.1//EN"
 "http://www.w3.org/Graphics/SVG/1.1/DTD/svg11.dtd">
<!-- Generated by graphviz version 2.43.0 (0)
 -->
<!-- Title: OmniboxViewViews::Init Pages: 1 -->
<!--zoomable 362 -->
<svg id="main" version="1.1" xmlns="http://www.w3.org/2000/svg" xmlns:xlink="http://www.w3.org/1999/xlink" xml:space="preserve" onload="init(evt)">
<style type="text/css"><![CDATA[
.edge:hover path { stroke: red; }
.edge:hover polygon { stroke: red; fill: red; }
]]></style>
<script type="text/javascript"><![CDATA[
var edges = document.getElementsByTagName('g');
if (edges && edges.length) {
  for (var i=0;i<edges.length;i++) {
    if (edges[i].id.substr(0,4)=='edge') {
      edges[i].setAttribute('class','edge');
    }
  }
}
]]></script>
        <defs>
                <circle id="rim" cx="0" cy="0" r="7"/>
                <circle id="rim2" cx="0" cy="0" r="3.5"/>
                <g id="zoomPlus">
                        <use xlink:href="#rim" fill="#404040">
                                <set attributeName="fill" to="#808080" begin="zoomplus.mouseover" end="zoomplus.mouseout"/>
                        </use>
                        <path d="M-4,0h8M0,-4v8" fill="none" stroke="white" stroke-width="1.5" pointer-events="none"/>
                </g>
                <g id="zoomMin">
                        <use xlink:href="#rim" fill="#404040">
                                <set attributeName="fill" to="#808080" begin="zoomminus.mouseover" end="zoomminus.mouseout"/>
                        </use>
                        <path d="M-4,0h8" fill="none" stroke="white" stroke-width="1.5" pointer-events="none"/>
                </g>
                <g id="dirArrow">
                        <path fill="none" stroke="white" stroke-width="1.5" d="M0,-3.0v7 M-2.5,-0.5L0,-3.0L2.5,-0.5"/>
                </g>
               <g id="resetDef">
                       <use xlink:href="#rim2" fill="#404040">
                               <set attributeName="fill" to="#808080" begin="reset.mouseover" end="reset.mouseout"/>
                       </use>
               </g>
        </defs>

<script type="text/javascript">
var viewWidth = 1119;
var viewHeight = 362;
var sectionId = 'dynsection-32';
</script>
<script xlink:href="../../svgpan.js"/>
<svg id="graph" class="graph">
<g id="viewport">
<title>OmniboxViewViews::Init</title>
<polygon fill="white" stroke="transparent" points="-4,4 -4,-358.48 1115,-358.48 1115,4 -4,4"/>
<!-- Node1 -->
<g id="node1" class="node">
<title>Node1</title>
<g id="a_node1"><a xlink:title=" ">
<polygon fill="#bfbfbf" stroke="black" points="0,-252 0,-271 124,-271 124,-252 0,-252"/>
<text text-anchor="middle" x="62" y="-259" font-family="Helvetica,sans-Serif" font-size="10.00">OmniboxViewViews::Init</text>
</a>
</g>
</g>
<!-- Node2 -->
<g id="node2" class="node">
<title>Node2</title>
<g id="a_node2"><a xlink:href="../../d0/d94/classOmniboxViewViews.html#a7f836be78e4dae22aa2290ea5cfba643" target="_top" xlink:title=" ">
<polygon fill="white" stroke="black" points="160,-317.5 160,-347.5 326,-347.5 326,-317.5 160,-317.5"/>
<text text-anchor="start" x="168" y="-335.5" font-family="Helvetica,sans-Serif" font-size="10.00">OmniboxViewViews::GetPreferred</text>
<text text-anchor="middle" x="243" y="-324.5" font-family="Helvetica,sans-Serif" font-size="10.00">TextInputType</text>
</a>
</g>
</g>
<!-- Node1&#45;&gt;Node2 -->
<g id="edge1" class="edge">
<title>Node1&#45;&gt;Node2</title>
<path fill="none" stroke="midnightblue" d="M80.48,-271.07C99.61,-281.28 131.37,-297.46 160,-308.5 165.19,-310.5 170.62,-312.43 176.11,-314.27"/>
<polygon fill="midnightblue" stroke="midnightblue" points="175.41,-317.72 186.01,-317.47 177.57,-311.06 175.41,-317.72"/>
</g>
<!-- Node3 -->
<g id="node3" class="node">
<title>Node3</title>
<g id="a_node3"><a xlink:href="../../d0/d94/classOmniboxViewViews.html#a4888116f13efeddbd56da6cc6edb8883" target="_top" xlink:title=" ">
<polygon fill="white" stroke="black" points="174.5,-268.5 174.5,-298.5 311.5,-298.5 311.5,-268.5 174.5,-268.5"/>
<text text-anchor="start" x="182.5" y="-286.5" font-family="Helvetica,sans-Serif" font-size="10.00">OmniboxViewViews::Install</text>
<text text-anchor="middle" x="243" y="-275.5" font-family="Helvetica,sans-Serif" font-size="10.00">PlaceholderText</text>
</a>
</g>
</g>
<!-- Node1&#45;&gt;Node3 -->
<g id="edge2" class="edge">
<title>Node1&#45;&gt;Node3</title>
<path fill="none" stroke="midnightblue" d="M124.1,-269.01C137.01,-270.6 150.81,-272.29 164.24,-273.94"/>
<polygon fill="midnightblue" stroke="midnightblue" points="164.07,-277.45 174.42,-275.19 164.93,-270.5 164.07,-277.45"/>
</g>
<!-- Node6 -->
<g id="node6" class="node">
<title>Node6</title>
<g id="a_node6"><a xlink:href="../../d9/d1e/classOmniboxView.html#aac25a41924b28863d31120527936dc6d" target="_top" xlink:title=" ">
<polygon fill="white" stroke="black" points="396.5,-230 396.5,-249 506.5,-249 506.5,-230 396.5,-230"/>
<text text-anchor="middle" x="451.5" y="-237" font-family="Helvetica,sans-Serif" font-size="10.00">OmniboxView::model</text>
</a>
</g>
</g>
<!-- Node1&#45;&gt;Node6 -->
<g id="edge6" class="edge">
<title>Node1&#45;&gt;Node6</title>
<path fill="none" stroke="midnightblue" d="M124.4,-258.01C195.8,-253.96 313.12,-247.3 385.87,-243.17"/>
<polygon fill="midnightblue" stroke="midnightblue" points="386.48,-246.64 396.26,-242.58 386.08,-239.65 386.48,-246.64"/>
</g>
<!-- Node7 -->
<g id="node7" class="node">
<title>Node7</title>
<g id="a_node7"><a xlink:href="../../d7/d88/classOmniboxPopupContentsView.html#a17611705df7462ffaa1e991a0c4beb12" target="_top" xlink:title=" ">
<polygon fill="white" stroke="black" points="167.5,-161.5 167.5,-191.5 318.5,-191.5 318.5,-161.5 167.5,-161.5"/>
<text text-anchor="start" x="175.5" y="-179.5" font-family="Helvetica,sans-Serif" font-size="10.00">OmniboxPopupContentsView</text>
<text text-anchor="middle" x="243" y="-168.5" font-family="Helvetica,sans-Serif" font-size="10.00">::OmniboxPopupContentsView</text>
</a>
</g>
</g>
<!-- Node1&#45;&gt;Node7 -->
<g id="edge7" class="edge">
<title>Node1&#45;&gt;Node7</title>
<path fill="none" stroke="midnightblue" d="M83.19,-251.91C111.55,-238.44 163.86,-213.6 200.68,-196.12"/>
<polygon fill="midnightblue" stroke="midnightblue" points="202.62,-199.08 210.15,-191.63 199.61,-192.75 202.62,-199.08"/>
</g>
<!-- Node4 -->
<g id="node4" class="node">
<title>Node4</title>
<g id="a_node4"><a xlink:href="../../d0/d22/classOmniboxEditModel.html#a17aabec567d6753f1d0a1ae590046ae7" target="_top" xlink:title=" ">
<polygon fill="white" stroke="black" points="387.5,-318 387.5,-337 515.5,-337 515.5,-318 387.5,-318"/>
<text text-anchor="middle" x="451.5" y="-325" font-family="Helvetica,sans-Serif" font-size="10.00">OmniboxEditModel::client</text>
</a>
</g>
</g>
<!-- Node3&#45;&gt;Node4 -->
<g id="edge3" class="edge">
<title>Node3&#45;&gt;Node4</title>
<path fill="none" stroke="midnightblue" d="M311.62,-297.91C338.93,-303.73 370.03,-310.35 395.87,-315.86"/>
<polygon fill="midnightblue" stroke="midnightblue" points="395.35,-319.33 405.86,-317.99 396.8,-312.48 395.35,-319.33"/>
</g>
<!-- Node5 -->
<g id="node5" class="node">
<title>Node5</title>
<g id="a_node5"><a xlink:href="../../d5/dbd/classOmniboxClient.html#ac07b7d7c41582fde1aa2d7dd46a052be" target="_top" xlink:title=" ">
<polygon fill="white" stroke="black" points="380,-268.5 380,-298.5 523,-298.5 523,-268.5 380,-268.5"/>
<text text-anchor="start" x="388" y="-286.5" font-family="Helvetica,sans-Serif" font-size="10.00">OmniboxClient::GetTemplate</text>
<text text-anchor="middle" x="451.5" y="-275.5" font-family="Helvetica,sans-Serif" font-size="10.00">URLService</text>
</a>
</g>
</g>
<!-- Node3&#45;&gt;Node5 -->
<g id="edge4" class="edge">
<title>Node3&#45;&gt;Node5</title>
<path fill="none" stroke="midnightblue" d="M311.62,-283.5C330.16,-283.5 350.45,-283.5 369.66,-283.5"/>
<polygon fill="midnightblue" stroke="midnightblue" points="369.89,-287 379.89,-283.5 369.89,-280 369.89,-287"/>
</g>
<!-- Node3&#45;&gt;Node6 -->
<g id="edge5" class="edge">
<title>Node3&#45;&gt;Node6</title>
<path fill="none" stroke="midnightblue" d="M311.62,-269.09C338.93,-263.27 370.03,-256.65 395.87,-251.14"/>
<polygon fill="midnightblue" stroke="midnightblue" points="396.8,-254.52 405.86,-249.01 395.35,-247.67 396.8,-254.52"/>
</g>
<!-- Node8 -->
<g id="node8" class="node">
<title>Node8</title>
<g id="a_node8"><a xlink:href="../../d7/d88/classOmniboxPopupContentsView.html#a9529ce2c5e647c45cd6a7f1f9ec26d49" target="_top" xlink:title=" ">
<polygon fill="white" stroke="black" points="577,-235.5 577,-265.5 722,-265.5 722,-235.5 577,-235.5"/>
<text text-anchor="start" x="585" y="-253.5" font-family="Helvetica,sans-Serif" font-size="10.00">OmniboxPopupContentsView</text>
<text text-anchor="middle" x="649.5" y="-242.5" font-family="Helvetica,sans-Serif" font-size="10.00">::GetPrefService</text>
</a>
</g>
</g>
<!-- Node7&#45;&gt;Node8 -->
<g id="edge8" class="edge">
<title>Node7&#45;&gt;Node8</title>
<path fill="none" stroke="midnightblue" d="M318.61,-184.93C378.95,-192.37 465.93,-204.53 541,-220.5 557.01,-223.91 574.16,-228.33 589.95,-232.73"/>
<polygon fill="midnightblue" stroke="midnightblue" points="589.01,-236.1 599.58,-235.46 590.92,-229.37 589.01,-236.1"/>
</g>
<!-- Node9 -->
<g id="node9" class="node">
<title>Node9</title>
<g id="a_node9"><a xlink:href="../../d7/d88/classOmniboxPopupContentsView.html#ae06ab100e4339eee69cbb3cdfc2143b8" target="_top" xlink:title=" ">
<polygon fill="white" stroke="black" points="362,-142.5 362,-172.5 541,-172.5 541,-142.5 362,-142.5"/>
<text text-anchor="start" x="370" y="-160.5" font-family="Helvetica,sans-Serif" font-size="10.00">OmniboxPopupContentsView</text>
<text text-anchor="middle" x="451.5" y="-149.5" font-family="Helvetica,sans-Serif" font-size="10.00">::OnSuggestionGroupVisibilityUpdate</text>
</a>
</g>
</g>
<!-- Node7&#45;&gt;Node9 -->
<g id="edge9" class="edge">
<title>Node7&#45;&gt;Node9</title>
<path fill="none" stroke="midnightblue" d="M318.55,-169.64C329.34,-168.65 340.59,-167.61 351.76,-166.58"/>
<polygon fill="midnightblue" stroke="midnightblue" points="352.35,-170.05 361.99,-165.64 351.71,-163.07 352.35,-170.05"/>
</g>
<!-- Node20 -->
<g id="node20" class="node">
<title>Node20</title>
<g id="a_node20"><a xlink:href="../../d0/d22/classOmniboxEditModel.html#a051fcb6ff2e0495fff2a1d2eba7ff432" target="_top" xlink:title=" ">
<polygon fill="white" stroke="black" points="392,-93.5 392,-123.5 511,-123.5 511,-93.5 392,-93.5"/>
<text text-anchor="start" x="400" y="-111.5" font-family="Helvetica,sans-Serif" font-size="10.00">OmniboxEditModel::set</text>
<text text-anchor="middle" x="451.5" y="-100.5" font-family="Helvetica,sans-Serif" font-size="10.00">_popup_view</text>
</a>
</g>
</g>
<!-- Node7&#45;&gt;Node20 -->
<g id="edge23" class="edge">
<title>Node7&#45;&gt;Node20</title>
<path fill="none" stroke="midnightblue" d="M281.69,-161.44C304.7,-152.49 334.84,-141.23 362,-132.5 368.42,-130.44 375.13,-128.4 381.87,-126.44"/>
<polygon fill="midnightblue" stroke="midnightblue" points="383.07,-129.74 391.72,-123.62 381.15,-123.01 383.07,-129.74"/>
</g>
<!-- Node9&#45;&gt;Node8 -->
<g id="edge10" class="edge">
<title>Node9&#45;&gt;Node8</title>
<path fill="none" stroke="midnightblue" d="M510.62,-172.55C521.17,-176.56 531.75,-181.49 541,-187.5 560.78,-200.35 557.2,-213.68 577,-226.5 579.56,-228.15 582.24,-229.71 585,-231.16"/>
<polygon fill="midnightblue" stroke="midnightblue" points="583.51,-234.33 594.05,-235.48 586.53,-228.01 583.51,-234.33"/>
</g>
<!-- Node10 -->
<g id="node10" class="node">
<title>Node10</title>
<g id="a_node10"><a xlink:href="../../d7/d88/classOmniboxPopupContentsView.html#a4fdc278926dd00f85076b050b8705b45" target="_top" xlink:title=" ">
<polygon fill="white" stroke="black" points="577,-186.5 577,-216.5 722,-216.5 722,-186.5 577,-186.5"/>
<text text-anchor="start" x="585" y="-204.5" font-family="Helvetica,sans-Serif" font-size="10.00">OmniboxPopupContentsView</text>
<text text-anchor="middle" x="649.5" y="-193.5" font-family="Helvetica,sans-Serif" font-size="10.00">::GetTargetBounds</text>
</a>
</g>
</g>
<!-- Node9&#45;&gt;Node10 -->
<g id="edge11" class="edge">
<title>Node9&#45;&gt;Node10</title>
<path fill="none" stroke="midnightblue" d="M519.4,-172.52C536.18,-176.29 554.32,-180.36 571.55,-184.22"/>
<polygon fill="midnightblue" stroke="midnightblue" points="571.04,-187.7 581.57,-186.47 572.57,-180.87 571.04,-187.7"/>
</g>
<!-- Node14 -->
<g id="node14" class="node">
<title>Node14</title>
<g id="a_node14"><a xlink:href="../../d0/d22/classOmniboxEditModel.html#ad945a332660c6122dc25b93c1eee76d8" target="_top" xlink:title=" ">
<polygon fill="white" stroke="black" points="771.5,-148 771.5,-167 900.5,-167 900.5,-148 771.5,-148"/>
<text text-anchor="middle" x="836" y="-155" font-family="Helvetica,sans-Serif" font-size="10.00">OmniboxEditModel::result</text>
</a>
</g>
</g>
<!-- Node9&#45;&gt;Node14 -->
<g id="edge21" class="edge">
<title>Node9&#45;&gt;Node14</title>
<path fill="none" stroke="midnightblue" d="M541.21,-157.5C607.9,-157.5 698.21,-157.5 761.02,-157.5"/>
<polygon fill="midnightblue" stroke="midnightblue" points="761.25,-161 771.25,-157.5 761.25,-154 761.25,-161"/>
</g>
<!-- Node16 -->
<g id="node16" class="node">
<title>Node16</title>
<g id="a_node16"><a xlink:href="../../d3/d03/classAutocompleteResult.html#a1353d4a449288df34f1d6dd3eff73298" target="_top" xlink:title=" ">
<polygon fill="white" stroke="black" points="577,-98.5 577,-128.5 722,-128.5 722,-98.5 577,-98.5"/>
<text text-anchor="start" x="585" y="-116.5" font-family="Helvetica,sans-Serif" font-size="10.00">AutocompleteResult</text>
<text text-anchor="middle" x="649.5" y="-105.5" font-family="Helvetica,sans-Serif" font-size="10.00">::IsSuggestionGroupIdHidden</text>
</a>
</g>
</g>
<!-- Node9&#45;&gt;Node16 -->
<g id="edge18" class="edge">
<title>Node9&#45;&gt;Node16</title>
<path fill="none" stroke="midnightblue" d="M519.4,-142.48C536.18,-138.71 554.32,-134.64 571.55,-130.78"/>
<polygon fill="midnightblue" stroke="midnightblue" points="572.57,-134.13 581.57,-128.53 571.04,-127.3 572.57,-134.13"/>
</g>
<!-- Node18 -->
<g id="node18" class="node">
<title>Node18</title>
<g id="a_node18"><a xlink:href="../../d3/d03/classAutocompleteResult.html#a1532251921e2112a24e3a52ec7ee4535" target="_top" xlink:title=" ">
<polygon fill="white" stroke="black" points="597,-49.5 597,-79.5 702,-79.5 702,-49.5 597,-49.5"/>
<text text-anchor="start" x="605" y="-67.5" font-family="Helvetica,sans-Serif" font-size="10.00">AutocompleteResult</text>
<text text-anchor="middle" x="649.5" y="-56.5" font-family="Helvetica,sans-Serif" font-size="10.00">::match_at</text>
</a>
</g>
</g>
<!-- Node9&#45;&gt;Node18 -->
<g id="edge20" class="edge">
<title>Node9&#45;&gt;Node18</title>
<path fill="none" stroke="midnightblue" d="M521.97,-142.38C528.65,-139.62 535.12,-136.35 541,-132.5 562.13,-118.65 556.21,-102.86 577,-88.5 580.3,-86.22 583.83,-84.14 587.5,-82.25"/>
<polygon fill="midnightblue" stroke="midnightblue" points="589.22,-85.31 596.81,-77.93 586.27,-78.96 589.22,-85.31"/>
</g>
<!-- Node19 -->
<g id="node19" class="node">
<title>Node19</title>
<g id="a_node19"><a xlink:href="../../d7/d88/classOmniboxPopupContentsView.html#a0ef8fca14c180b001e746998febd94ac" target="_top" xlink:title=" ">
<polygon fill="white" stroke="black" points="577,-0.5 577,-30.5 722,-30.5 722,-0.5 577,-0.5"/>
<text text-anchor="start" x="585" y="-18.5" font-family="Helvetica,sans-Serif" font-size="10.00">OmniboxPopupContentsView</text>
<text text-anchor="middle" x="649.5" y="-7.5" font-family="Helvetica,sans-Serif" font-size="10.00">::result_view_at</text>
</a>
</g>
</g>
<!-- Node9&#45;&gt;Node19 -->
<g id="edge22" class="edge">
<title>Node9&#45;&gt;Node19</title>
<path fill="none" stroke="midnightblue" d="M526.82,-142.42C531.94,-139.64 536.75,-136.37 541,-132.5 573.78,-102.67 544.95,-70.12 577,-39.5 578.12,-38.43 579.3,-37.4 580.51,-36.42"/>
<polygon fill="midnightblue" stroke="midnightblue" points="582.78,-39.11 589.08,-30.59 578.85,-33.32 582.78,-39.11"/>
</g>
<!-- Node11 -->
<g id="node11" class="node">
<title>Node11</title>
<g id="a_node11"><a xlink:href="../../d5/d4e/classRoundedOmniboxResultsFrame.html#a15026b194f90b8674506d2f6343e3b8a" target="_top" xlink:title=" ">
<polygon fill="white" stroke="black" points="950,-306.5 950,-336.5 1111,-336.5 1111,-306.5 950,-306.5"/>
<text text-anchor="start" x="958" y="-324.5" font-family="Helvetica,sans-Serif" font-size="10.00">RoundedOmniboxResultsFrame</text>
<text text-anchor="middle" x="1030.5" y="-313.5" font-family="Helvetica,sans-Serif" font-size="10.00">::GetLocationBarAlignmentInsets</text>
</a>
</g>
</g>
<!-- Node10&#45;&gt;Node11 -->
<g id="edge12" class="edge">
<title>Node10&#45;&gt;Node11</title>
<path fill="none" stroke="midnightblue" d="M708.61,-216.58C713.5,-219.35 718.06,-222.63 722,-226.5 755.07,-259.05 719.95,-297.94 758,-324.5 821.76,-369.01 916.08,-354.91 975.1,-339.26"/>
<polygon fill="midnightblue" stroke="midnightblue" points="976.27,-342.56 984.98,-336.53 974.41,-335.82 976.27,-342.56"/>
</g>
<!-- Node12 -->
<g id="node12" class="node">
<title>Node12</title>
<g id="a_node12"><a xlink:href="../../d5/d4e/classRoundedOmniboxResultsFrame.html#a43cdc442bc33962744e0c39bd233c5f1" target="_top" xlink:title=" ">
<polygon fill="white" stroke="black" points="758,-284.5 758,-314.5 914,-314.5 914,-284.5 758,-284.5"/>
<text text-anchor="start" x="766" y="-302.5" font-family="Helvetica,sans-Serif" font-size="10.00">RoundedOmniboxResultsFrame</text>
<text text-anchor="middle" x="836" y="-291.5" font-family="Helvetica,sans-Serif" font-size="10.00">::GetNonResultSectionHeight</text>
</a>
</g>
</g>
<!-- Node10&#45;&gt;Node12 -->
<g id="edge13" class="edge">
<title>Node10&#45;&gt;Node12</title>
<path fill="none" stroke="midnightblue" d="M704.98,-216.59C711,-219.39 716.82,-222.67 722,-226.5 743.73,-242.57 736,-259.81 758,-275.5 760.09,-276.99 762.29,-278.4 764.55,-279.72"/>
<polygon fill="midnightblue" stroke="midnightblue" points="763.08,-282.9 773.57,-284.39 766.3,-276.68 763.08,-282.9"/>
</g>
<!-- Node13 -->
<g id="node13" class="node">
<title>Node13</title>
<g id="a_node13"><a xlink:href="../../d5/d4e/classRoundedOmniboxResultsFrame.html#aa0e95351bd443a382728294776645cae" target="_top" xlink:title=" ">
<polygon fill="white" stroke="black" points="758,-235.5 758,-265.5 914,-265.5 914,-235.5 758,-235.5"/>
<text text-anchor="start" x="766" y="-253.5" font-family="Helvetica,sans-Serif" font-size="10.00">RoundedOmniboxResultsFrame</text>
<text text-anchor="middle" x="836" y="-242.5" font-family="Helvetica,sans-Serif" font-size="10.00">::GetShadowInsets</text>
</a>
</g>
</g>
<!-- Node10&#45;&gt;Node13 -->
<g id="edge15" class="edge">
<title>Node10&#45;&gt;Node13</title>
<path fill="none" stroke="midnightblue" d="M707.11,-216.53C726.59,-221.71 748.58,-227.55 768.76,-232.91"/>
<polygon fill="midnightblue" stroke="midnightblue" points="767.93,-236.31 778.5,-235.49 769.73,-229.54 767.93,-236.31"/>
</g>
<!-- Node10&#45;&gt;Node14 -->
<g id="edge16" class="edge">
<title>Node10&#45;&gt;Node14</title>
<path fill="none" stroke="midnightblue" d="M713.48,-186.48C736.92,-180.89 763.19,-174.63 785.28,-169.36"/>
<polygon fill="midnightblue" stroke="midnightblue" points="786.2,-172.74 795.11,-167.01 784.57,-165.93 786.2,-172.74"/>
</g>
<!-- Node15 -->
<g id="node15" class="node">
<title>Node15</title>
<g id="a_node15"><a xlink:href="../../d3/d03/classAutocompleteResult.html#a64a7947a81e007d5aa56ac9b25e84bb6" target="_top" xlink:title=" ">
<polygon fill="white" stroke="black" points="783.5,-186.5 783.5,-216.5 888.5,-216.5 888.5,-186.5 783.5,-186.5"/>
<text text-anchor="start" x="791.5" y="-204.5" font-family="Helvetica,sans-Serif" font-size="10.00">AutocompleteResult</text>
<text text-anchor="middle" x="836" y="-193.5" font-family="Helvetica,sans-Serif" font-size="10.00">::size</text>
</a>
</g>
</g>
<!-- Node10&#45;&gt;Node15 -->
<g id="edge17" class="edge">
<title>Node10&#45;&gt;Node15</title>
<path fill="none" stroke="midnightblue" d="M722.1,-201.5C739.04,-201.5 756.97,-201.5 773.42,-201.5"/>
<polygon fill="midnightblue" stroke="midnightblue" points="773.45,-205 783.45,-201.5 773.45,-198 773.45,-205"/>
</g>
<!-- Node12&#45;&gt;Node11 -->
<g id="edge14" class="edge">
<title>Node12&#45;&gt;Node11</title>
<path fill="none" stroke="midnightblue" d="M914.19,-308.32C922.61,-309.28 931.23,-310.27 939.79,-311.25"/>
<polygon fill="midnightblue" stroke="midnightblue" points="939.45,-314.73 949.78,-312.39 940.24,-307.78 939.45,-314.73"/>
</g>
<!-- Node17 -->
<g id="node17" class="node">
<title>Node17</title>
<g id="a_node17"><a xlink:href="../../d4/d19/namespaceomnibox.html#a416efcfe9398c882ad7a7c97b42578e1" target="_top" xlink:title=" ">
<polygon fill="white" stroke="black" points="764.5,-98.5 764.5,-128.5 907.5,-128.5 907.5,-98.5 764.5,-98.5"/>
<text text-anchor="start" x="772.5" y="-116.5" font-family="Helvetica,sans-Serif" font-size="10.00">omnibox::GetUserPreference</text>
<text text-anchor="middle" x="836" y="-105.5" font-family="Helvetica,sans-Serif" font-size="10.00">ForSuggestionGroupVisibility</text>
</a>
</g>
</g>
<!-- Node16&#45;&gt;Node17 -->
<g id="edge19" class="edge">
<title>Node16&#45;&gt;Node17</title>
<path fill="none" stroke="midnightblue" d="M722.1,-113.5C732.61,-113.5 743.51,-113.5 754.19,-113.5"/>
<polygon fill="midnightblue" stroke="midnightblue" points="754.35,-117 764.35,-113.5 754.35,-110 754.35,-117"/>
</g>
</g>
</svg>
        <g id="navigator" transform="translate(0 0)" fill="#404254">
                <rect fill="#f2f5e9" fill-opacity="0.5" stroke="#606060" stroke-width=".5" x="0" y="0" width="60" height="60"/>
                <use id="zoomplus" xlink:href="#zoomPlus" x="17" y="9" onmousedown="handleZoom(evt,'in')"/>
                <use id="zoomminus" xlink:href="#zoomMin" x="42" y="9" onmousedown="handleZoom(evt,'out')"/>
                <use id="reset" xlink:href="#resetDef" x="30" y="36" onmousedown="handleReset()"/>
                <g id="arrowUp" xlink:href="#dirArrow" transform="translate(30 24)" onmousedown="handlePan(0,-1)">
                  <use xlink:href="#rim" fill="#404040">
                        <set attributeName="fill" to="#808080" begin="arrowUp.mouseover" end="arrowUp.mouseout"/>
                  </use>
                  <path fill="none" stroke="white" stroke-width="1.5" d="M0,-3.0v7 M-2.5,-0.5L0,-3.0L2.5,-0.5"/>
                </g>
                <g id="arrowRight" xlink:href="#dirArrow" transform="rotate(90) translate(36 -43)" onmousedown="handlePan(1,0)">
                  <use xlink:href="#rim" fill="#404040">
                        <set attributeName="fill" to="#808080" begin="arrowRight.mouseover" end="arrowRight.mouseout"/>
                  </use>
                  <path fill="none" stroke="white" stroke-width="1.5" d="M0,-3.0v7 M-2.5,-0.5L0,-3.0L2.5,-0.5"/>
                </g>
                <g id="arrowDown" xlink:href="#dirArrow" transform="rotate(180) translate(-30 -48)" onmousedown="handlePan(0,1)">
                  <use xlink:href="#rim" fill="#404040">
                        <set attributeName="fill" to="#808080" begin="arrowDown.mouseover" end="arrowDown.mouseout"/>
                  </use>
                  <path fill="none" stroke="white" stroke-width="1.5" d="M0,-3.0v7 M-2.5,-0.5L0,-3.0L2.5,-0.5"/>
                </g>
                <g id="arrowLeft" xlink:href="#dirArrow" transform="rotate(270) translate(-36 17)" onmousedown="handlePan(-1,0)">
                  <use xlink:href="#rim" fill="#404040">
                        <set attributeName="fill" to="#808080" begin="arrowLeft.mouseover" end="arrowLeft.mouseout"/>
                  </use>
                  <path fill="none" stroke="white" stroke-width="1.5" d="M0,-3.0v7 M-2.5,-0.5L0,-3.0L2.5,-0.5"/>
                </g>
        </g>
        <svg viewBox="0 0 15 15" width="100%" height="30px" preserveAspectRatio="xMaxYMin meet">
         <g id="arrow_out" transform="scale(0.3 0.3)">
          <a xlink:href="classOmniboxViewViews_a71236cd3ff9becd5e81d13537eb8eaa0_cgraph_org.svg" target="_base">
           <rect id="button" ry="5" rx="5" y="6" x="6" height="38" width="38"
                fill="#f2f5e9" fill-opacity="0.5" stroke="#606060" stroke-width="1.0"/>
           <path id="arrow"
             d="M 11.500037,31.436501 C 11.940474,20.09759 22.043105,11.32322 32.158766,21.979434 L 37.068811,17.246167 C 37.068811,17.246167 37.088388,32 37.088388,32 L 22.160133,31.978069 C 22.160133,31.978069 26.997745,27.140456 26.997745,27.140456 C 18.528582,18.264221 13.291696,25.230495 11.500037,31.436501 z"
             style="fill:#404040;"/>
          </a>
         </g>
        </svg>
</svg>
