<?xml version="1.0" encoding="UTF-8" standalone="no"?>
<!DOCTYPE svg PUBLIC "-//W3C//DTD SVG 1.1//EN"
 "http://www.w3.org/Graphics/SVG/1.1/DTD/svg11.dtd">
<!-- Generated by graphviz version 2.43.0 (0)
 -->
<!-- Title: OmniboxViewViews::ApplyColor Pages: 1 -->
<svg width="371pt" height="78pt"
 viewBox="0.00 0.00 371.00 77.50" xmlns="http://www.w3.org/2000/svg" xmlns:xlink="http://www.w3.org/1999/xlink">
<g id="graph0" class="graph" transform="scale(1 1) rotate(0) translate(4 73.5)">
<title>OmniboxViewViews::ApplyColor</title>
<polygon fill="white" stroke="transparent" points="-4,4 -4,-73.5 367,-73.5 367,4 -4,4"/>
<!-- Node1 -->
<g id="node1" class="node">
<title>Node1</title>
<g id="a_node1"><a xlink:title=" ">
<polygon fill="#bfbfbf" stroke="black" points="205,-28 205,-47 363,-47 363,-28 205,-28"/>
<text text-anchor="middle" x="284" y="-35" font-family="Helvetica,sans-Serif" font-size="10.00">OmniboxViewViews::ApplyColor</text>
</a>
</g>
</g>
<!-- Node2 -->
<g id="node2" class="node">
<title>Node2</title>
<g id="a_node2"><a xlink:href="../../d0/d94/classOmniboxViewViews.html#af4375aba0ffa7d5a801ce2376a4bd8a4" target="_top" xlink:title=" ">
<polygon fill="white" stroke="black" points="0,-50 0,-69 169,-69 169,-50 0,-50"/>
<text text-anchor="middle" x="84.5" y="-57" font-family="Helvetica,sans-Serif" font-size="10.00">OmniboxViewViews::SetEmphasis</text>
</a>
</g>
</g>
<!-- Node1&#45;&gt;Node2 -->
<g id="edge1" class="edge">
<title>Node1&#45;&gt;Node2</title>
<path fill="none" stroke="midnightblue" d="M194.95,-47.31C186.37,-48.26 177.69,-49.23 169.16,-50.18"/>
<polygon fill="midnightblue" stroke="midnightblue" points="195.39,-50.78 204.94,-46.19 194.62,-43.82 195.39,-50.78"/>
</g>
<!-- Node3 -->
<g id="node3" class="node">
<title>Node3</title>
<g id="a_node3"><a xlink:href="../../d0/d94/classOmniboxViewViews.html#a0a8f7c266aac16529d337a2a4b3fb0a1" target="_top" xlink:title=" ">
<polygon fill="white" stroke="black" points="13.5,-0.5 13.5,-30.5 155.5,-30.5 155.5,-0.5 13.5,-0.5"/>
<text text-anchor="start" x="21.5" y="-18.5" font-family="Helvetica,sans-Serif" font-size="10.00">OmniboxViewViews::Update</text>
<text text-anchor="middle" x="84.5" y="-7.5" font-family="Helvetica,sans-Serif" font-size="10.00">SchemeStyle</text>
</a>
</g>
</g>
<!-- Node1&#45;&gt;Node3 -->
<g id="edge2" class="edge">
<title>Node1&#45;&gt;Node3</title>
<path fill="none" stroke="midnightblue" d="M194.94,-27.69C181.77,-26.22 168.35,-24.73 155.62,-23.31"/>
<polygon fill="midnightblue" stroke="midnightblue" points="194.62,-31.18 204.94,-28.81 195.39,-24.22 194.62,-31.18"/>
</g>
</g>
</svg>
