<?xml version="1.0" encoding="UTF-8" standalone="no"?>
<!DOCTYPE svg PUBLIC "-//W3C//DTD SVG 1.1//EN"
 "http://www.w3.org/Graphics/SVG/1.1/DTD/svg11.dtd">
<!-- Generated by graphviz version 2.43.0 (0)
 -->
<!-- Title: OmniboxViewViews::OnTemplateURLServiceChanged Pages: 1 -->
<svg width="523pt" height="116pt"
 viewBox="0.00 0.00 523.00 116.00" xmlns="http://www.w3.org/2000/svg" xmlns:xlink="http://www.w3.org/1999/xlink">
<g id="graph0" class="graph" transform="scale(1 1) rotate(0) translate(4 112)">
<title>OmniboxViewViews::OnTemplateURLServiceChanged</title>
<polygon fill="white" stroke="transparent" points="-4,4 -4,-112 519,-112 519,4 -4,4"/>
<!-- Node1 -->
<g id="node1" class="node">
<title>Node1</title>
<g id="a_node1"><a xlink:title=" ">
<polygon fill="#bfbfbf" stroke="black" points="0,-39 0,-69 163,-69 163,-39 0,-39"/>
<text text-anchor="start" x="8" y="-57" font-family="Helvetica,sans-Serif" font-size="10.00">OmniboxViewViews::OnTemplate</text>
<text text-anchor="middle" x="81.5" y="-46" font-family="Helvetica,sans-Serif" font-size="10.00">URLServiceChanged</text>
</a>
</g>
</g>
<!-- Node2 -->
<g id="node2" class="node">
<title>Node2</title>
<g id="a_node2"><a xlink:href="../../d0/d94/classOmniboxViewViews.html#a4888116f13efeddbd56da6cc6edb8883" target="_top" xlink:title=" ">
<polygon fill="white" stroke="black" points="199,-39 199,-69 336,-69 336,-39 199,-39"/>
<text text-anchor="start" x="207" y="-57" font-family="Helvetica,sans-Serif" font-size="10.00">OmniboxViewViews::Install</text>
<text text-anchor="middle" x="267.5" y="-46" font-family="Helvetica,sans-Serif" font-size="10.00">PlaceholderText</text>
</a>
</g>
</g>
<!-- Node1&#45;&gt;Node2 -->
<g id="edge1" class="edge">
<title>Node1&#45;&gt;Node2</title>
<path fill="none" stroke="midnightblue" d="M163.21,-54C171.65,-54 180.22,-54 188.63,-54"/>
<polygon fill="midnightblue" stroke="midnightblue" points="188.79,-57.5 198.79,-54 188.79,-50.5 188.79,-57.5"/>
</g>
<!-- Node3 -->
<g id="node3" class="node">
<title>Node3</title>
<g id="a_node3"><a xlink:href="../../d0/d22/classOmniboxEditModel.html#a17aabec567d6753f1d0a1ae590046ae7" target="_top" xlink:title=" ">
<polygon fill="white" stroke="black" points="379.5,-88.5 379.5,-107.5 507.5,-107.5 507.5,-88.5 379.5,-88.5"/>
<text text-anchor="middle" x="443.5" y="-95.5" font-family="Helvetica,sans-Serif" font-size="10.00">OmniboxEditModel::client</text>
</a>
</g>
</g>
<!-- Node2&#45;&gt;Node3 -->
<g id="edge2" class="edge">
<title>Node2&#45;&gt;Node3</title>
<path fill="none" stroke="midnightblue" d="M327.89,-69.02C349.81,-74.56 374.33,-80.76 395.05,-86"/>
<polygon fill="midnightblue" stroke="midnightblue" points="394.33,-89.43 404.88,-88.49 396.05,-82.64 394.33,-89.43"/>
</g>
<!-- Node4 -->
<g id="node4" class="node">
<title>Node4</title>
<g id="a_node4"><a xlink:href="../../d5/dbd/classOmniboxClient.html#ac07b7d7c41582fde1aa2d7dd46a052be" target="_top" xlink:title=" ">
<polygon fill="white" stroke="black" points="372,-39 372,-69 515,-69 515,-39 372,-39"/>
<text text-anchor="start" x="380" y="-57" font-family="Helvetica,sans-Serif" font-size="10.00">OmniboxClient::GetTemplate</text>
<text text-anchor="middle" x="443.5" y="-46" font-family="Helvetica,sans-Serif" font-size="10.00">URLService</text>
</a>
</g>
</g>
<!-- Node2&#45;&gt;Node4 -->
<g id="edge3" class="edge">
<title>Node2&#45;&gt;Node4</title>
<path fill="none" stroke="midnightblue" d="M336.27,-54C344.55,-54 353.07,-54 361.51,-54"/>
<polygon fill="midnightblue" stroke="midnightblue" points="361.76,-57.5 371.75,-54 361.75,-50.5 361.76,-57.5"/>
</g>
<!-- Node5 -->
<g id="node5" class="node">
<title>Node5</title>
<g id="a_node5"><a xlink:href="../../d9/d1e/classOmniboxView.html#aac25a41924b28863d31120527936dc6d" target="_top" xlink:title=" ">
<polygon fill="white" stroke="black" points="388.5,-0.5 388.5,-19.5 498.5,-19.5 498.5,-0.5 388.5,-0.5"/>
<text text-anchor="middle" x="443.5" y="-7.5" font-family="Helvetica,sans-Serif" font-size="10.00">OmniboxView::model</text>
</a>
</g>
</g>
<!-- Node2&#45;&gt;Node5 -->
<g id="edge4" class="edge">
<title>Node2&#45;&gt;Node5</title>
<path fill="none" stroke="midnightblue" d="M327.89,-38.98C349.81,-33.44 374.33,-27.24 395.05,-22"/>
<polygon fill="midnightblue" stroke="midnightblue" points="396.05,-25.36 404.88,-19.51 394.33,-18.57 396.05,-25.36"/>
</g>
</g>
</svg>
