<?xml version="1.0" encoding="UTF-8" standalone="no"?>
<!DOCTYPE svg PUBLIC "-//W3C//DTD SVG 1.1//EN"
 "http://www.w3.org/Graphics/SVG/1.1/DTD/svg11.dtd">
<!-- Generated by graphviz version 2.43.0 (0)
 -->
<!-- Title: components/omnibox/browser/remote_suggestions_service.h Pages: 1 -->
<svg width="1027pt" height="206pt"
 viewBox="0.00 0.00 1027.00 206.00" xmlns="http://www.w3.org/2000/svg" xmlns:xlink="http://www.w3.org/1999/xlink">
<g id="graph0" class="graph" transform="scale(1 1) rotate(0) translate(4 202)">
<title>components/omnibox/browser/remote_suggestions_service.h</title>
<polygon fill="white" stroke="transparent" points="-4,4 -4,-202 1023,-202 1023,4 -4,4"/>
<!-- Node1 -->
<g id="node1" class="node">
<title>Node1</title>
<g id="a_node1"><a xlink:title=" ">
<polygon fill="#bfbfbf" stroke="black" points="371.5,-156.5 371.5,-197.5 516.5,-197.5 516.5,-156.5 371.5,-156.5"/>
<text text-anchor="start" x="379.5" y="-185.5" font-family="Helvetica,sans-Serif" font-size="10.00">components/omnibox</text>
<text text-anchor="start" x="379.5" y="-174.5" font-family="Helvetica,sans-Serif" font-size="10.00">/browser/remote_suggestions</text>
<text text-anchor="middle" x="444" y="-163.5" font-family="Helvetica,sans-Serif" font-size="10.00">_service.h</text>
</a>
</g>
</g>
<!-- Node2 -->
<g id="node2" class="node">
<title>Node2</title>
<g id="a_node2"><a xlink:title=" ">
<polygon fill="white" stroke="#bfbfbf" points="0,-89.5 0,-108.5 52,-108.5 52,-89.5 0,-89.5"/>
<text text-anchor="middle" x="26" y="-96.5" font-family="Helvetica,sans-Serif" font-size="10.00">memory</text>
</a>
</g>
</g>
<!-- Node1&#45;&gt;Node2 -->
<g id="edge1" class="edge">
<title>Node1&#45;&gt;Node2</title>
<path fill="none" stroke="midnightblue" d="M371.42,-172.07C294.18,-166.32 169.13,-152.51 66,-120 60.45,-118.25 54.71,-115.81 49.38,-113.23"/>
<polygon fill="midnightblue" stroke="midnightblue" points="50.84,-110.04 40.35,-108.56 47.63,-116.26 50.84,-110.04"/>
</g>
<!-- Node3 -->
<g id="node3" class="node">
<title>Node3</title>
<g id="a_node3"><a xlink:title=" ">
<polygon fill="white" stroke="#bfbfbf" points="59.5,-11.5 59.5,-30.5 100.5,-30.5 100.5,-11.5 59.5,-11.5"/>
<text text-anchor="middle" x="80" y="-18.5" font-family="Helvetica,sans-Serif" font-size="10.00">string</text>
</a>
</g>
</g>
<!-- Node1&#45;&gt;Node3 -->
<g id="edge2" class="edge">
<title>Node1&#45;&gt;Node3</title>
<path fill="none" stroke="midnightblue" d="M371.38,-173.72C281.82,-169.34 136.79,-156.65 99,-120 77.81,-99.45 76.41,-62.87 77.84,-40.68"/>
<polygon fill="midnightblue" stroke="midnightblue" points="81.34,-40.83 78.76,-30.55 74.37,-40.2 81.34,-40.83"/>
</g>
<!-- Node4 -->
<g id="node4" class="node">
<title>Node4</title>
<g id="a_node4"><a xlink:title=" ">
<polygon fill="white" stroke="#bfbfbf" points="108,-89.5 108,-108.5 230,-108.5 230,-89.5 108,-89.5"/>
<text text-anchor="middle" x="169" y="-96.5" font-family="Helvetica,sans-Serif" font-size="10.00">base/callback_forward.h</text>
</a>
</g>
</g>
<!-- Node1&#45;&gt;Node4 -->
<g id="edge3" class="edge">
<title>Node1&#45;&gt;Node4</title>
<path fill="none" stroke="midnightblue" d="M371.36,-156.38C332.14,-145.73 282.88,-132.26 239,-120 229.05,-117.22 218.31,-114.18 208.31,-111.32"/>
<polygon fill="midnightblue" stroke="midnightblue" points="209.19,-107.93 198.61,-108.54 207.26,-114.66 209.19,-107.93"/>
</g>
<!-- Node5 -->
<g id="node5" class="node">
<title>Node5</title>
<g id="a_node5"><a xlink:title=" ">
<polygon fill="white" stroke="#bfbfbf" points="248,-84 248,-114 358,-114 358,-84 248,-84"/>
<text text-anchor="start" x="256" y="-102" font-family="Helvetica,sans-Serif" font-size="10.00">base/memory/scoped</text>
<text text-anchor="middle" x="303" y="-91" font-family="Helvetica,sans-Serif" font-size="10.00">_refptr.h</text>
</a>
</g>
</g>
<!-- Node1&#45;&gt;Node5 -->
<g id="edge4" class="edge">
<title>Node1&#45;&gt;Node5</title>
<path fill="none" stroke="midnightblue" d="M407.69,-156.43C386.37,-144.93 359.54,-130.47 338.38,-119.07"/>
<polygon fill="midnightblue" stroke="midnightblue" points="339.86,-115.89 329.39,-114.23 336.53,-122.05 339.86,-115.89"/>
</g>
<!-- Node6 -->
<g id="node6" class="node">
<title>Node6</title>
<g id="a_node6"><a xlink:title=" ">
<polygon fill="white" stroke="#bfbfbf" points="376,-84 376,-114 512,-114 512,-84 376,-84"/>
<text text-anchor="start" x="384" y="-102" font-family="Helvetica,sans-Serif" font-size="10.00">components/keyed_service</text>
<text text-anchor="middle" x="444" y="-91" font-family="Helvetica,sans-Serif" font-size="10.00">/core/keyed_service.h</text>
</a>
</g>
</g>
<!-- Node1&#45;&gt;Node6 -->
<g id="edge5" class="edge">
<title>Node1&#45;&gt;Node6</title>
<path fill="none" stroke="midnightblue" d="M444,-156.43C444,-146.64 444,-134.69 444,-124.31"/>
<polygon fill="midnightblue" stroke="midnightblue" points="447.5,-124.23 444,-114.23 440.5,-124.23 447.5,-124.23"/>
</g>
<!-- Node7 -->
<g id="node7" class="node">
<title>Node7</title>
<g id="a_node7"><a xlink:href="../../df/dab/autocomplete__input_8h.html" target="_top" xlink:title=" ">
<polygon fill="white" stroke="black" points="530,-78.5 530,-119.5 646,-119.5 646,-78.5 530,-78.5"/>
<text text-anchor="start" x="538" y="-107.5" font-family="Helvetica,sans-Serif" font-size="10.00">components/omnibox</text>
<text text-anchor="start" x="538" y="-96.5" font-family="Helvetica,sans-Serif" font-size="10.00">/browser/autocomplete</text>
<text text-anchor="middle" x="588" y="-85.5" font-family="Helvetica,sans-Serif" font-size="10.00">_input.h</text>
</a>
</g>
</g>
<!-- Node1&#45;&gt;Node7 -->
<g id="edge6" class="edge">
<title>Node1&#45;&gt;Node7</title>
<path fill="none" stroke="midnightblue" d="M481.08,-156.43C499.64,-146.63 522.29,-134.68 541.95,-124.3"/>
<polygon fill="midnightblue" stroke="midnightblue" points="543.83,-127.27 551.04,-119.51 540.56,-121.08 543.83,-127.27"/>
</g>
<!-- Node14 -->
<g id="node14" class="node">
<title>Node14</title>
<g id="a_node14"><a xlink:title=" ">
<polygon fill="white" stroke="#bfbfbf" points="965,-11.5 965,-30.5 1019,-30.5 1019,-11.5 965,-11.5"/>
<text text-anchor="middle" x="992" y="-18.5" font-family="Helvetica,sans-Serif" font-size="10.00">url/gurl.h</text>
</a>
</g>
</g>
<!-- Node1&#45;&gt;Node14 -->
<g id="edge18" class="edge">
<title>Node1&#45;&gt;Node14</title>
<path fill="none" stroke="midnightblue" d="M516.83,-167.01C559.43,-159.31 612.93,-145.27 655,-120 676.84,-106.88 671.4,-89.75 694,-78 798.28,-23.78 844.5,-79.18 956,-42 960.83,-40.39 965.76,-38.13 970.36,-35.7"/>
<polygon fill="midnightblue" stroke="midnightblue" points="972.26,-38.64 979.21,-30.64 968.79,-32.57 972.26,-38.64"/>
</g>
<!-- Node16 -->
<g id="node16" class="node">
<title>Node16</title>
<g id="a_node16"><a xlink:title=" ">
<polygon fill="white" stroke="#bfbfbf" points="702.5,-84 702.5,-114 843.5,-114 843.5,-84 702.5,-84"/>
<text text-anchor="start" x="710.5" y="-102" font-family="Helvetica,sans-Serif" font-size="10.00">components/search_engines</text>
<text text-anchor="middle" x="773" y="-91" font-family="Helvetica,sans-Serif" font-size="10.00">/template_url.h</text>
</a>
</g>
</g>
<!-- Node1&#45;&gt;Node16 -->
<g id="edge16" class="edge">
<title>Node1&#45;&gt;Node16</title>
<path fill="none" stroke="midnightblue" d="M516.63,-159.44C565.16,-148.35 630.43,-133.38 688,-120 693.04,-118.83 698.25,-117.61 703.48,-116.39"/>
<polygon fill="midnightblue" stroke="midnightblue" points="704.63,-119.72 713.56,-114.03 703.03,-112.9 704.63,-119.72"/>
</g>
<!-- Node17 -->
<g id="node17" class="node">
<title>Node17</title>
<g id="a_node17"><a xlink:title=" ">
<polygon fill="white" stroke="#bfbfbf" points="861.5,-84 861.5,-114 1004.5,-114 1004.5,-84 861.5,-84"/>
<text text-anchor="start" x="869.5" y="-102" font-family="Helvetica,sans-Serif" font-size="10.00">net/traffic_annotation</text>
<text text-anchor="middle" x="933" y="-91" font-family="Helvetica,sans-Serif" font-size="10.00">/network_traffic_annotation.h</text>
</a>
</g>
</g>
<!-- Node1&#45;&gt;Node17 -->
<g id="edge17" class="edge">
<title>Node1&#45;&gt;Node17</title>
<path fill="none" stroke="midnightblue" d="M516.79,-168.46C598.89,-159.39 736.18,-142.53 853,-120 858.67,-118.91 864.55,-117.66 870.41,-116.34"/>
<polygon fill="midnightblue" stroke="midnightblue" points="871.3,-119.72 880.25,-114.05 869.72,-112.9 871.3,-119.72"/>
</g>
<!-- Node7&#45;&gt;Node3 -->
<g id="edge8" class="edge">
<title>Node7&#45;&gt;Node3</title>
<path fill="none" stroke="midnightblue" d="M529.71,-79.84C526.78,-79.17 523.86,-78.55 521,-78 340.89,-43.6 283.01,-102.75 110,-42 106.06,-40.62 102.14,-38.6 98.49,-36.36"/>
<polygon fill="midnightblue" stroke="midnightblue" points="100.36,-33.4 90.13,-30.62 96.39,-39.17 100.36,-33.4"/>
</g>
<!-- Node8 -->
<g id="node8" class="node">
<title>Node8</title>
<g id="a_node8"><a xlink:title=" ">
<polygon fill="white" stroke="#bfbfbf" points="119,-11.5 119,-30.5 171,-30.5 171,-11.5 119,-11.5"/>
<text text-anchor="middle" x="145" y="-18.5" font-family="Helvetica,sans-Serif" font-size="10.00">stddef.h</text>
</a>
</g>
</g>
<!-- Node7&#45;&gt;Node8 -->
<g id="edge7" class="edge">
<title>Node7&#45;&gt;Node8</title>
<path fill="none" stroke="midnightblue" d="M529.69,-79.9C526.77,-79.21 523.86,-78.57 521,-78 371.57,-48.08 325.03,-88.8 180,-42 175.18,-40.44 170.28,-38.17 165.74,-35.7"/>
<polygon fill="midnightblue" stroke="midnightblue" points="167.44,-32.64 157.05,-30.55 163.87,-38.66 167.44,-32.64"/>
</g>
<!-- Node9 -->
<g id="node9" class="node">
<title>Node9</title>
<g id="a_node9"><a xlink:title=" ">
<polygon fill="white" stroke="#bfbfbf" points="189,-11.5 189,-30.5 233,-30.5 233,-11.5 189,-11.5"/>
<text text-anchor="middle" x="211" y="-18.5" font-family="Helvetica,sans-Serif" font-size="10.00">vector</text>
</a>
</g>
</g>
<!-- Node7&#45;&gt;Node9 -->
<g id="edge9" class="edge">
<title>Node7&#45;&gt;Node9</title>
<path fill="none" stroke="midnightblue" d="M529.68,-79.99C526.75,-79.27 523.85,-78.61 521,-78 398.7,-52.03 359.42,-84.95 242,-42 238.05,-40.56 234.09,-38.54 230.38,-36.34"/>
<polygon fill="midnightblue" stroke="midnightblue" points="232.11,-33.28 221.84,-30.7 228.26,-39.13 232.11,-33.28"/>
</g>
<!-- Node10 -->
<g id="node10" class="node">
<title>Node10</title>
<g id="a_node10"><a xlink:title=" ">
<polygon fill="white" stroke="#bfbfbf" points="251.5,-6 251.5,-36 392.5,-36 392.5,-6 251.5,-6"/>
<text text-anchor="start" x="259.5" y="-24" font-family="Helvetica,sans-Serif" font-size="10.00">components/search_engines</text>
<text text-anchor="middle" x="322" y="-13" font-family="Helvetica,sans-Serif" font-size="10.00">/omnibox_focus_type.h</text>
</a>
</g>
</g>
<!-- Node7&#45;&gt;Node10 -->
<g id="edge10" class="edge">
<title>Node7&#45;&gt;Node10</title>
<path fill="none" stroke="midnightblue" d="M529.91,-80.6C526.9,-79.72 523.91,-78.85 521,-78 474.6,-64.55 421.99,-49.76 382.51,-38.76"/>
<polygon fill="midnightblue" stroke="midnightblue" points="383.35,-35.36 372.77,-36.05 381.47,-42.1 383.35,-35.36"/>
</g>
<!-- Node11 -->
<g id="node11" class="node">
<title>Node11</title>
<g id="a_node11"><a xlink:title=" ">
<polygon fill="white" stroke="#bfbfbf" points="411,-6 411,-36 539,-36 539,-6 411,-6"/>
<text text-anchor="start" x="419" y="-24" font-family="Helvetica,sans-Serif" font-size="10.00">third_party/abseil</text>
<text text-anchor="middle" x="475" y="-13" font-family="Helvetica,sans-Serif" font-size="10.00">&#45;cpp/absl/types/optional.h</text>
</a>
</g>
</g>
<!-- Node7&#45;&gt;Node11 -->
<g id="edge11" class="edge">
<title>Node7&#45;&gt;Node11</title>
<path fill="none" stroke="midnightblue" d="M558.9,-78.43C542.19,-67.19 521.27,-53.12 504.5,-41.84"/>
<polygon fill="midnightblue" stroke="midnightblue" points="506.4,-38.9 496.15,-36.23 502.5,-44.71 506.4,-38.9"/>
</g>
<!-- Node12 -->
<g id="node12" class="node">
<title>Node12</title>
<g id="a_node12"><a xlink:title=" ">
<polygon fill="white" stroke="#bfbfbf" points="557,-6 557,-36 691,-36 691,-6 557,-6"/>
<text text-anchor="start" x="565" y="-24" font-family="Helvetica,sans-Serif" font-size="10.00">third_party/metrics</text>
<text text-anchor="middle" x="624" y="-13" font-family="Helvetica,sans-Serif" font-size="10.00">_proto/omnibox_event.pb.h</text>
</a>
</g>
</g>
<!-- Node7&#45;&gt;Node12 -->
<g id="edge12" class="edge">
<title>Node7&#45;&gt;Node12</title>
<path fill="none" stroke="midnightblue" d="M597.27,-78.43C602.06,-68.33 607.93,-55.93 612.95,-45.33"/>
<polygon fill="midnightblue" stroke="midnightblue" points="616.14,-46.76 617.26,-36.23 609.82,-43.76 616.14,-46.76"/>
</g>
<!-- Node13 -->
<g id="node13" class="node">
<title>Node13</title>
<g id="a_node13"><a xlink:title=" ">
<polygon fill="white" stroke="#bfbfbf" points="709,-0.5 709,-41.5 819,-41.5 819,-0.5 709,-0.5"/>
<text text-anchor="start" x="717" y="-29.5" font-family="Helvetica,sans-Serif" font-size="10.00">third_party/metrics</text>
<text text-anchor="start" x="717" y="-18.5" font-family="Helvetica,sans-Serif" font-size="10.00">_proto/omnibox_input</text>
<text text-anchor="middle" x="764" y="-7.5" font-family="Helvetica,sans-Serif" font-size="10.00">_type.pb.h</text>
</a>
</g>
</g>
<!-- Node7&#45;&gt;Node13 -->
<g id="edge13" class="edge">
<title>Node7&#45;&gt;Node13</title>
<path fill="none" stroke="midnightblue" d="M633.32,-78.43C656.52,-68.41 684.94,-56.14 709.34,-45.6"/>
<polygon fill="midnightblue" stroke="midnightblue" points="711.04,-48.68 718.83,-41.51 708.26,-42.26 711.04,-48.68"/>
</g>
<!-- Node7&#45;&gt;Node14 -->
<g id="edge14" class="edge">
<title>Node7&#45;&gt;Node14</title>
<path fill="none" stroke="midnightblue" d="M646.37,-81C650.96,-79.9 655.55,-78.88 660,-78 789.99,-52.19 829.96,-82.94 956,-42 960.85,-40.43 965.78,-38.18 970.38,-35.76"/>
<polygon fill="midnightblue" stroke="midnightblue" points="972.29,-38.7 979.22,-30.69 968.81,-32.63 972.29,-38.7"/>
</g>
<!-- Node15 -->
<g id="node15" class="node">
<title>Node15</title>
<g id="a_node15"><a xlink:title=" ">
<polygon fill="white" stroke="#bfbfbf" points="837,-6 837,-36 947,-36 947,-6 837,-6"/>
<text text-anchor="start" x="845" y="-24" font-family="Helvetica,sans-Serif" font-size="10.00">url/third_party/mozilla</text>
<text text-anchor="middle" x="892" y="-13" font-family="Helvetica,sans-Serif" font-size="10.00">/url_parse.h</text>
</a>
</g>
</g>
<!-- Node7&#45;&gt;Node15 -->
<g id="edge15" class="edge">
<title>Node7&#45;&gt;Node15</title>
<path fill="none" stroke="midnightblue" d="M646.08,-81.55C650.78,-80.31 655.46,-79.11 660,-78 734.15,-59.77 754.15,-61.41 828,-42 831.59,-41.06 835.28,-40.04 838.98,-38.98"/>
<polygon fill="midnightblue" stroke="midnightblue" points="840.17,-42.28 848.78,-36.1 838.2,-35.56 840.17,-42.28"/>
</g>
</g>
</svg>
