<?xml version="1.0" encoding="UTF-8" standalone="no"?>
<!DOCTYPE svg PUBLIC "-//W3C//DTD SVG 1.1//EN"
 "http://www.w3.org/Graphics/SVG/1.1/DTD/svg11.dtd">
<!-- Generated by graphviz version 2.43.0 (0)
 -->
<!-- Title: OmniboxTextView::SetText Pages: 1 -->
<svg width="541pt" height="116pt"
 viewBox="0.00 0.00 541.00 115.50" xmlns="http://www.w3.org/2000/svg" xmlns:xlink="http://www.w3.org/1999/xlink">
<g id="graph0" class="graph" transform="scale(1 1) rotate(0) translate(4 111.5)">
<title>OmniboxTextView::SetText</title>
<polygon fill="white" stroke="transparent" points="-4,4 -4,-111.5 537,-111.5 537,4 -4,4"/>
<!-- Node1 -->
<g id="node1" class="node">
<title>Node1</title>
<g id="a_node1"><a xlink:title=" ">
<polygon fill="#bfbfbf" stroke="black" points="0,-50 0,-69 136,-69 136,-50 0,-50"/>
<text text-anchor="middle" x="68" y="-57" font-family="Helvetica,sans-Serif" font-size="10.00">OmniboxTextView::SetText</text>
</a>
</g>
</g>
<!-- Node2 -->
<g id="node2" class="node">
<title>Node2</title>
<g id="a_node2"><a xlink:href="../../df/d61/classOmniboxTextView.html#a469f95836f0eaaa5aabdf2cca2cc528d" target="_top" xlink:title=" ">
<polygon fill="white" stroke="black" points="172,-88 172,-107 354,-107 354,-88 172,-88"/>
<text text-anchor="middle" x="263" y="-95" font-family="Helvetica,sans-Serif" font-size="10.00">OmniboxTextView::CreateRenderText</text>
</a>
</g>
</g>
<!-- Node1&#45;&gt;Node2 -->
<g id="edge1" class="edge">
<title>Node1&#45;&gt;Node2</title>
<path fill="none" stroke="midnightblue" d="M117.7,-69.09C143.86,-74.24 176.28,-80.62 203.77,-86.03"/>
<polygon fill="midnightblue" stroke="midnightblue" points="203.16,-89.48 213.65,-87.98 204.51,-82.61 203.16,-89.48"/>
</g>
<!-- Node3 -->
<g id="node3" class="node">
<title>Node3</title>
<g id="a_node3"><a xlink:href="../../df/d61/classOmniboxTextView.html#a4298c267872d7618353c03a0f31560e2" target="_top" xlink:title=" ">
<polygon fill="white" stroke="black" points="194.5,-50 194.5,-69 331.5,-69 331.5,-50 194.5,-50"/>
<text text-anchor="middle" x="263" y="-57" font-family="Helvetica,sans-Serif" font-size="10.00">OmniboxTextView::GetText</text>
</a>
</g>
</g>
<!-- Node1&#45;&gt;Node3 -->
<g id="edge2" class="edge">
<title>Node1&#45;&gt;Node3</title>
<path fill="none" stroke="midnightblue" d="M136.23,-59.5C151.67,-59.5 168.21,-59.5 184.06,-59.5"/>
<polygon fill="midnightblue" stroke="midnightblue" points="184.36,-63 194.36,-59.5 184.36,-56 184.36,-63"/>
</g>
<!-- Node4 -->
<g id="node4" class="node">
<title>Node4</title>
<g id="a_node4"><a xlink:href="../../df/d61/classOmniboxTextView.html#a939db6ecd27fb2eea964237161eaf0b6" target="_top" xlink:title=" ">
<polygon fill="white" stroke="black" points="194.5,-0.5 194.5,-30.5 331.5,-30.5 331.5,-0.5 194.5,-0.5"/>
<text text-anchor="start" x="202.5" y="-18.5" font-family="Helvetica,sans-Serif" font-size="10.00">OmniboxTextView::OnStyle</text>
<text text-anchor="middle" x="263" y="-7.5" font-family="Helvetica,sans-Serif" font-size="10.00">Changed</text>
</a>
</g>
</g>
<!-- Node1&#45;&gt;Node4 -->
<g id="edge3" class="edge">
<title>Node1&#45;&gt;Node4</title>
<path fill="none" stroke="midnightblue" d="M110.88,-49.95C132.8,-44.95 160.33,-38.68 185.87,-32.86"/>
<polygon fill="midnightblue" stroke="midnightblue" points="186.95,-36.2 195.92,-30.57 185.39,-29.38 186.95,-36.2"/>
</g>
<!-- Node5 -->
<g id="node5" class="node">
<title>Node5</title>
<g id="a_node5"><a xlink:href="../../df/d61/classOmniboxTextView.html#a4b0c456fd56f27414ac6a643ea0cffcd" target="_top" xlink:title=" ">
<polygon fill="white" stroke="black" points="390,-0.5 390,-30.5 533,-30.5 533,-0.5 390,-0.5"/>
<text text-anchor="start" x="398" y="-18.5" font-family="Helvetica,sans-Serif" font-size="10.00">OmniboxTextView::Calculate</text>
<text text-anchor="middle" x="461.5" y="-7.5" font-family="Helvetica,sans-Serif" font-size="10.00">PreferredSize</text>
</a>
</g>
</g>
<!-- Node4&#45;&gt;Node5 -->
<g id="edge4" class="edge">
<title>Node4&#45;&gt;Node5</title>
<path fill="none" stroke="midnightblue" d="M331.62,-15.5C347.01,-15.5 363.52,-15.5 379.41,-15.5"/>
<polygon fill="midnightblue" stroke="midnightblue" points="379.74,-19 389.74,-15.5 379.74,-12 379.74,-19"/>
</g>
</g>
</svg>
