<?xml version="1.0" encoding="UTF-8" standalone="no"?>
<!DOCTYPE svg PUBLIC "-//W3C//DTD SVG 1.1//EN"
 "http://www.w3.org/Graphics/SVG/1.1/DTD/svg11.dtd">
<!-- Generated by graphviz version 2.43.0 (0)
 -->
<!-- Title: OmniboxTextView::ReapplyStyling Pages: 1 -->
<svg width="1012pt" height="146pt"
 viewBox="0.00 0.00 1012.00 145.50" xmlns="http://www.w3.org/2000/svg" xmlns:xlink="http://www.w3.org/1999/xlink">
<g id="graph0" class="graph" transform="scale(1 1) rotate(0) translate(4 141.5)">
<title>OmniboxTextView::ReapplyStyling</title>
<polygon fill="white" stroke="transparent" points="-4,4 -4,-141.5 1008,-141.5 1008,4 -4,4"/>
<!-- Node1 -->
<g id="node1" class="node">
<title>Node1</title>
<g id="a_node1"><a xlink:title=" ">
<polygon fill="#bfbfbf" stroke="black" points="0,-44.5 0,-74.5 138,-74.5 138,-44.5 0,-44.5"/>
<text text-anchor="start" x="8" y="-62.5" font-family="Helvetica,sans-Serif" font-size="10.00">OmniboxTextView::Reapply</text>
<text text-anchor="middle" x="69" y="-51.5" font-family="Helvetica,sans-Serif" font-size="10.00">Styling</text>
</a>
</g>
</g>
<!-- Node2 -->
<g id="node2" class="node">
<title>Node2</title>
<g id="a_node2"><a xlink:href="../../d3/d4c/classOmniboxResultView.html#aaafb21160f2e040184d7c85ab18ebced" target="_top" xlink:title=" ">
<polygon fill="white" stroke="black" points="186.5,-88.5 186.5,-118.5 298.5,-118.5 298.5,-88.5 186.5,-88.5"/>
<text text-anchor="start" x="194.5" y="-106.5" font-family="Helvetica,sans-Serif" font-size="10.00">OmniboxResultView::</text>
<text text-anchor="middle" x="242.5" y="-95.5" font-family="Helvetica,sans-Serif" font-size="10.00">GetColor</text>
</a>
</g>
</g>
<!-- Node1&#45;&gt;Node2 -->
<g id="edge1" class="edge">
<title>Node1&#45;&gt;Node2</title>
<path fill="none" stroke="midnightblue" d="M128.54,-74.52C144.05,-78.5 160.88,-82.82 176.7,-86.88"/>
<polygon fill="midnightblue" stroke="midnightblue" points="175.85,-90.27 186.4,-89.36 177.59,-83.49 175.85,-90.27"/>
</g>
<!-- Node8 -->
<g id="node8" class="node">
<title>Node8</title>
<g id="a_node8"><a xlink:href="../../df/d61/classOmniboxTextView.html#a4298c267872d7618353c03a0f31560e2" target="_top" xlink:title=" ">
<polygon fill="white" stroke="black" points="174,-50 174,-69 311,-69 311,-50 174,-50"/>
<text text-anchor="middle" x="242.5" y="-57" font-family="Helvetica,sans-Serif" font-size="10.00">OmniboxTextView::GetText</text>
</a>
</g>
</g>
<!-- Node1&#45;&gt;Node8 -->
<g id="edge7" class="edge">
<title>Node1&#45;&gt;Node8</title>
<path fill="none" stroke="midnightblue" d="M138.27,-59.5C146.58,-59.5 155.1,-59.5 163.53,-59.5"/>
<polygon fill="midnightblue" stroke="midnightblue" points="163.74,-63 173.74,-59.5 163.74,-56 163.74,-63"/>
</g>
<!-- Node9 -->
<g id="node9" class="node">
<title>Node9</title>
<g id="a_node9"><a xlink:href="../../df/d61/classOmniboxTextView.html#a939db6ecd27fb2eea964237161eaf0b6" target="_top" xlink:title=" ">
<polygon fill="white" stroke="black" points="174,-0.5 174,-30.5 311,-30.5 311,-0.5 174,-0.5"/>
<text text-anchor="start" x="182" y="-18.5" font-family="Helvetica,sans-Serif" font-size="10.00">OmniboxTextView::OnStyle</text>
<text text-anchor="middle" x="242.5" y="-7.5" font-family="Helvetica,sans-Serif" font-size="10.00">Changed</text>
</a>
</g>
</g>
<!-- Node1&#45;&gt;Node9 -->
<g id="edge8" class="edge">
<title>Node1&#45;&gt;Node9</title>
<path fill="none" stroke="midnightblue" d="M128.54,-44.48C142.81,-40.82 158.2,-36.87 172.89,-33.1"/>
<polygon fill="midnightblue" stroke="midnightblue" points="174.12,-36.4 182.93,-30.53 172.38,-29.62 174.12,-36.4"/>
</g>
<!-- Node3 -->
<g id="node3" class="node">
<title>Node3</title>
<g id="a_node3"><a xlink:href="../../d4/d9b/omnibox__theme_8cc.html#a22fe9a774c5756fb8f71218d1830d516" target="_top" xlink:title=" ">
<polygon fill="white" stroke="black" points="371,-118 371,-137 466,-137 466,-118 371,-118"/>
<text text-anchor="middle" x="418.5" y="-125" font-family="Helvetica,sans-Serif" font-size="10.00">GetOmniboxColor</text>
</a>
</g>
</g>
<!-- Node2&#45;&gt;Node3 -->
<g id="edge2" class="edge">
<title>Node2&#45;&gt;Node3</title>
<path fill="none" stroke="midnightblue" d="M298.55,-111.09C318.49,-113.84 341.01,-116.95 361.06,-119.72"/>
<polygon fill="midnightblue" stroke="midnightblue" points="360.6,-123.18 370.99,-121.08 361.56,-116.25 360.6,-123.18"/>
</g>
<!-- Node4 -->
<g id="node4" class="node">
<title>Node4</title>
<g id="a_node4"><a xlink:href="../../d3/d4c/classOmniboxResultView.html#a510528aab4c1238bcfc1f2c09e7ef9d1" target="_top" xlink:title=" ">
<polygon fill="white" stroke="black" points="362.5,-68.5 362.5,-98.5 474.5,-98.5 474.5,-68.5 362.5,-68.5"/>
<text text-anchor="start" x="370.5" y="-86.5" font-family="Helvetica,sans-Serif" font-size="10.00">OmniboxResultView::</text>
<text text-anchor="middle" x="418.5" y="-75.5" font-family="Helvetica,sans-Serif" font-size="10.00">GetThemeState</text>
</a>
</g>
</g>
<!-- Node2&#45;&gt;Node4 -->
<g id="edge3" class="edge">
<title>Node2&#45;&gt;Node4</title>
<path fill="none" stroke="midnightblue" d="M298.55,-97.17C315.53,-95.22 334.4,-93.05 352.01,-91.03"/>
<polygon fill="midnightblue" stroke="midnightblue" points="352.67,-94.47 362.21,-89.86 351.87,-87.52 352.67,-94.47"/>
</g>
<!-- Node5 -->
<g id="node5" class="node">
<title>Node5</title>
<g id="a_node5"><a xlink:href="../../d3/d4c/classOmniboxResultView.html#a17507b20abec0ee969168a494710c6df" target="_top" xlink:title=" ">
<polygon fill="white" stroke="black" points="526,-68.5 526,-98.5 638,-98.5 638,-68.5 526,-68.5"/>
<text text-anchor="start" x="534" y="-86.5" font-family="Helvetica,sans-Serif" font-size="10.00">OmniboxResultView::</text>
<text text-anchor="middle" x="582" y="-75.5" font-family="Helvetica,sans-Serif" font-size="10.00">GetMatchSelected</text>
</a>
</g>
</g>
<!-- Node4&#45;&gt;Node5 -->
<g id="edge4" class="edge">
<title>Node4&#45;&gt;Node5</title>
<path fill="none" stroke="midnightblue" d="M474.63,-83.5C487.81,-83.5 502,-83.5 515.6,-83.5"/>
<polygon fill="midnightblue" stroke="midnightblue" points="515.85,-87 525.85,-83.5 515.85,-80 515.85,-87"/>
</g>
<!-- Node6 -->
<g id="node6" class="node">
<title>Node6</title>
<g id="a_node6"><a xlink:href="../../d7/d88/classOmniboxPopupContentsView.html#aacb2b141d6ccaaaffec469aea02dbaef" target="_top" xlink:title=" ">
<polygon fill="white" stroke="black" points="674,-68.5 674,-98.5 819,-98.5 819,-68.5 674,-68.5"/>
<text text-anchor="start" x="682" y="-86.5" font-family="Helvetica,sans-Serif" font-size="10.00">OmniboxPopupContentsView</text>
<text text-anchor="middle" x="746.5" y="-75.5" font-family="Helvetica,sans-Serif" font-size="10.00">::GetSelection</text>
</a>
</g>
</g>
<!-- Node5&#45;&gt;Node6 -->
<g id="edge5" class="edge">
<title>Node5&#45;&gt;Node6</title>
<path fill="none" stroke="midnightblue" d="M638.02,-83.5C646.29,-83.5 654.97,-83.5 663.65,-83.5"/>
<polygon fill="midnightblue" stroke="midnightblue" points="663.83,-87 673.83,-83.5 663.83,-80 663.83,-87"/>
</g>
<!-- Node7 -->
<g id="node7" class="node">
<title>Node7</title>
<g id="a_node7"><a xlink:href="../../d0/d22/classOmniboxEditModel.html#afca096faf219ac7be1bf9251466648a7" target="_top" xlink:title=" ">
<polygon fill="white" stroke="black" points="855,-68.5 855,-98.5 1004,-98.5 1004,-68.5 855,-68.5"/>
<text text-anchor="start" x="863" y="-86.5" font-family="Helvetica,sans-Serif" font-size="10.00">OmniboxEditModel::GetPopup</text>
<text text-anchor="middle" x="929.5" y="-75.5" font-family="Helvetica,sans-Serif" font-size="10.00">Selection</text>
</a>
</g>
</g>
<!-- Node6&#45;&gt;Node7 -->
<g id="edge6" class="edge">
<title>Node6&#45;&gt;Node7</title>
<path fill="none" stroke="midnightblue" d="M819.04,-83.5C827.49,-83.5 836.17,-83.5 844.77,-83.5"/>
<polygon fill="midnightblue" stroke="midnightblue" points="844.81,-87 854.81,-83.5 844.81,-80 844.81,-87"/>
</g>
<!-- Node10 -->
<g id="node10" class="node">
<title>Node10</title>
<g id="a_node10"><a xlink:href="../../df/d61/classOmniboxTextView.html#a4b0c456fd56f27414ac6a643ea0cffcd" target="_top" xlink:title=" ">
<polygon fill="white" stroke="black" points="347,-0.5 347,-30.5 490,-30.5 490,-0.5 347,-0.5"/>
<text text-anchor="start" x="355" y="-18.5" font-family="Helvetica,sans-Serif" font-size="10.00">OmniboxTextView::Calculate</text>
<text text-anchor="middle" x="418.5" y="-7.5" font-family="Helvetica,sans-Serif" font-size="10.00">PreferredSize</text>
</a>
</g>
</g>
<!-- Node9&#45;&gt;Node10 -->
<g id="edge9" class="edge">
<title>Node9&#45;&gt;Node10</title>
<path fill="none" stroke="midnightblue" d="M311.27,-15.5C319.55,-15.5 328.07,-15.5 336.51,-15.5"/>
<polygon fill="midnightblue" stroke="midnightblue" points="336.76,-19 346.75,-15.5 336.75,-12 336.76,-19"/>
</g>
</g>
</svg>
