<?xml version="1.0" encoding="UTF-8" standalone="no"?>
<!DOCTYPE svg PUBLIC "-//W3C//DTD SVG 1.1//EN"
 "http://www.w3.org/Graphics/SVG/1.1/DTD/svg11.dtd">
<!-- Generated by graphviz version 2.43.0 (0)
 -->
<!-- Title: OmniboxTextView::SetTextWithStyling Pages: 1 -->
<!--zoomable 398 -->
<svg id="main" version="1.1" xmlns="http://www.w3.org/2000/svg" xmlns:xlink="http://www.w3.org/1999/xlink" xml:space="preserve" onload="init(evt)">
<style type="text/css"><![CDATA[
.edge:hover path { stroke: red; }
.edge:hover polygon { stroke: red; fill: red; }
]]></style>
<script type="text/javascript"><![CDATA[
var edges = document.getElementsByTagName('g');
if (edges && edges.length) {
  for (var i=0;i<edges.length;i++) {
    if (edges[i].id.substr(0,4)=='edge') {
      edges[i].setAttribute('class','edge');
    }
  }
}
]]></script>
        <defs>
                <circle id="rim" cx="0" cy="0" r="7"/>
                <circle id="rim2" cx="0" cy="0" r="3.5"/>
                <g id="zoomPlus">
                        <use xlink:href="#rim" fill="#404040">
                                <set attributeName="fill" to="#808080" begin="zoomplus.mouseover" end="zoomplus.mouseout"/>
                        </use>
                        <path d="M-4,0h8M0,-4v8" fill="none" stroke="white" stroke-width="1.5" pointer-events="none"/>
                </g>
                <g id="zoomMin">
                        <use xlink:href="#rim" fill="#404040">
                                <set attributeName="fill" to="#808080" begin="zoomminus.mouseover" end="zoomminus.mouseout"/>
                        </use>
                        <path d="M-4,0h8" fill="none" stroke="white" stroke-width="1.5" pointer-events="none"/>
                </g>
                <g id="dirArrow">
                        <path fill="none" stroke="white" stroke-width="1.5" d="M0,-3.0v7 M-2.5,-0.5L0,-3.0L2.5,-0.5"/>
                </g>
               <g id="resetDef">
                       <use xlink:href="#rim2" fill="#404040">
                               <set attributeName="fill" to="#808080" begin="reset.mouseover" end="reset.mouseout"/>
                       </use>
               </g>
        </defs>

<script type="text/javascript">
var viewWidth = 732;
var viewHeight = 398;
var sectionId = 'dynsection-23';
</script>
<script xlink:href="../../svgpan.js"/>
<svg id="graph" class="graph">
<g id="viewport">
<title>OmniboxTextView::SetTextWithStyling</title>
<polygon fill="white" stroke="transparent" points="-4,4 -4,-393.5 728,-393.5 728,4 -4,4"/>
<!-- Node1 -->
<g id="node1" class="node">
<title>Node1</title>
<g id="a_node1"><a xlink:title=" ">
<polygon fill="#bfbfbf" stroke="black" points="0,-171.5 0,-201.5 136,-201.5 136,-171.5 0,-171.5"/>
<text text-anchor="start" x="8" y="-189.5" font-family="Helvetica,sans-Serif" font-size="10.00">OmniboxTextView::SetText</text>
<text text-anchor="middle" x="68" y="-178.5" font-family="Helvetica,sans-Serif" font-size="10.00">WithStyling</text>
</a>
</g>
</g>
<!-- Node2 -->
<g id="node2" class="node">
<title>Node2</title>
<g id="a_node2"><a xlink:href="../../df/d61/classOmniboxTextView.html#af8c8d7300d45d3ffebf8d0e96a1739f7" target="_top" xlink:title=" ">
<polygon fill="white" stroke="black" points="174.5,-284 174.5,-303 351.5,-303 351.5,-284 174.5,-284"/>
<text text-anchor="middle" x="263" y="-291" font-family="Helvetica,sans-Serif" font-size="10.00">OmniboxTextView::AppendExtraText</text>
</a>
</g>
</g>
<!-- Node1&#45;&gt;Node2 -->
<g id="edge1" class="edge">
<title>Node1&#45;&gt;Node2</title>
<path fill="none" stroke="midnightblue" d="M82.01,-201.55C100.11,-221.48 134.86,-256.21 172,-274.5 176.92,-276.92 182.15,-279.04 187.51,-280.89"/>
<polygon fill="midnightblue" stroke="midnightblue" points="186.66,-284.29 197.25,-283.93 188.75,-277.61 186.66,-284.29"/>
</g>
<!-- Node4 -->
<g id="node4" class="node">
<title>Node4</title>
<g id="a_node4"><a xlink:href="../../df/d61/classOmniboxTextView.html#a3950120250065499157f233f9fe78787" target="_top" xlink:title=" ">
<polygon fill="white" stroke="black" points="390,-326 390,-345 544,-345 544,-326 390,-326"/>
<text text-anchor="middle" x="467" y="-333" font-family="Helvetica,sans-Serif" font-size="10.00">OmniboxTextView::AppendText</text>
</a>
</g>
</g>
<!-- Node1&#45;&gt;Node4 -->
<g id="edge9" class="edge">
<title>Node1&#45;&gt;Node4</title>
<path fill="none" stroke="midnightblue" d="M76.3,-201.91C90.38,-229.66 124.18,-287.49 172,-312.5 237.54,-346.77 322.73,-349.69 384.52,-345.72"/>
<polygon fill="midnightblue" stroke="midnightblue" points="384.89,-349.21 394.62,-345 384.39,-342.22 384.89,-349.21"/>
</g>
<!-- Node10 -->
<g id="node10" class="node">
<title>Node10</title>
<g id="a_node10"><a xlink:href="../../df/d61/classOmniboxTextView.html#a469f95836f0eaaa5aabdf2cca2cc528d" target="_top" xlink:title=" ">
<polygon fill="white" stroke="black" points="172,-246 172,-265 354,-265 354,-246 172,-246"/>
<text text-anchor="middle" x="263" y="-253" font-family="Helvetica,sans-Serif" font-size="10.00">OmniboxTextView::CreateRenderText</text>
</a>
</g>
</g>
<!-- Node1&#45;&gt;Node10 -->
<g id="edge10" class="edge">
<title>Node1&#45;&gt;Node10</title>
<path fill="none" stroke="midnightblue" d="M95.34,-201.51C115.72,-212.56 144.92,-227.22 172,-236.5 179.82,-239.18 188.15,-241.55 196.48,-243.63"/>
<polygon fill="midnightblue" stroke="midnightblue" points="195.67,-247.04 206.21,-245.94 197.29,-240.22 195.67,-247.04"/>
</g>
<!-- Node11 -->
<g id="node11" class="node">
<title>Node11</title>
<g id="a_node11"><a xlink:href="../../d1/d9d/classSuggestionAnswer_1_1TextField.html#a325fc47fa31501b6f4752285041f513f" target="_top" xlink:title=" ">
<polygon fill="white" stroke="black" points="191,-196.5 191,-226.5 335,-226.5 335,-196.5 191,-196.5"/>
<text text-anchor="start" x="199" y="-214.5" font-family="Helvetica,sans-Serif" font-size="10.00">SuggestionAnswer::TextField</text>
<text text-anchor="middle" x="263" y="-203.5" font-family="Helvetica,sans-Serif" font-size="10.00">::has_num_lines</text>
</a>
</g>
</g>
<!-- Node1&#45;&gt;Node11 -->
<g id="edge11" class="edge">
<title>Node1&#45;&gt;Node11</title>
<path fill="none" stroke="midnightblue" d="M136.23,-195.21C150.55,-197.06 165.82,-199.04 180.6,-200.96"/>
<polygon fill="midnightblue" stroke="midnightblue" points="180.38,-204.46 190.74,-202.27 181.28,-197.51 180.38,-204.46"/>
</g>
<!-- Node12 -->
<g id="node12" class="node">
<title>Node12</title>
<g id="a_node12"><a xlink:href="../../d1/d9d/classSuggestionAnswer_1_1TextField.html#a04f007f7d2ca55b540bfb1c3c5251b00" target="_top" xlink:title=" ">
<polygon fill="white" stroke="black" points="191,-147.5 191,-177.5 335,-177.5 335,-147.5 191,-147.5"/>
<text text-anchor="start" x="199" y="-165.5" font-family="Helvetica,sans-Serif" font-size="10.00">SuggestionAnswer::TextField</text>
<text text-anchor="middle" x="263" y="-154.5" font-family="Helvetica,sans-Serif" font-size="10.00">::num_lines</text>
</a>
</g>
</g>
<!-- Node1&#45;&gt;Node12 -->
<g id="edge12" class="edge">
<title>Node1&#45;&gt;Node12</title>
<path fill="none" stroke="midnightblue" d="M136.23,-178.14C150.55,-176.36 165.82,-174.46 180.6,-172.62"/>
<polygon fill="midnightblue" stroke="midnightblue" points="181.25,-176.07 190.74,-171.36 180.39,-169.12 181.25,-176.07"/>
</g>
<!-- Node13 -->
<g id="node13" class="node">
<title>Node13</title>
<g id="a_node13"><a xlink:href="../../de/d56/classSuggestionAnswer_1_1ImageLine.html#aa40faacee398a79f4942f3d7b5d04f72" target="_top" xlink:title=" ">
<polygon fill="white" stroke="black" points="188.5,-98.5 188.5,-128.5 337.5,-128.5 337.5,-98.5 188.5,-98.5"/>
<text text-anchor="start" x="196.5" y="-116.5" font-family="Helvetica,sans-Serif" font-size="10.00">SuggestionAnswer::ImageLine</text>
<text text-anchor="middle" x="263" y="-105.5" font-family="Helvetica,sans-Serif" font-size="10.00">::num_text_lines</text>
</a>
</g>
</g>
<!-- Node1&#45;&gt;Node13 -->
<g id="edge13" class="edge">
<title>Node1&#45;&gt;Node13</title>
<path fill="none" stroke="midnightblue" d="M97.25,-171.33C117.61,-160.82 145.98,-147.07 172,-137.5 177.78,-135.38 183.83,-133.35 189.94,-131.45"/>
<polygon fill="midnightblue" stroke="midnightblue" points="191,-134.78 199.56,-128.55 188.98,-128.08 191,-134.78"/>
</g>
<!-- Node14 -->
<g id="node14" class="node">
<title>Node14</title>
<g id="a_node14"><a xlink:href="../../df/d61/classOmniboxTextView.html#a939db6ecd27fb2eea964237161eaf0b6" target="_top" xlink:title=" ">
<polygon fill="white" stroke="black" points="194.5,-49.5 194.5,-79.5 331.5,-79.5 331.5,-49.5 194.5,-49.5"/>
<text text-anchor="start" x="202.5" y="-67.5" font-family="Helvetica,sans-Serif" font-size="10.00">OmniboxTextView::OnStyle</text>
<text text-anchor="middle" x="263" y="-56.5" font-family="Helvetica,sans-Serif" font-size="10.00">Changed</text>
</a>
</g>
</g>
<!-- Node1&#45;&gt;Node14 -->
<g id="edge14" class="edge">
<title>Node1&#45;&gt;Node14</title>
<path fill="none" stroke="midnightblue" d="M80.59,-171.46C98.06,-149.84 133.24,-110.21 172,-88.5 176,-86.26 180.21,-84.22 184.55,-82.37"/>
<polygon fill="midnightblue" stroke="midnightblue" points="186.15,-85.5 194.19,-78.6 183.6,-78.98 186.15,-85.5"/>
</g>
<!-- Node15 -->
<g id="node15" class="node">
<title>Node15</title>
<g id="a_node15"><a xlink:href="../../de/d56/classSuggestionAnswer_1_1ImageLine.html#adb1a556903941a54891b4a4d8b4f1ea4" target="_top" xlink:title=" ">
<polygon fill="white" stroke="black" points="188.5,-0.5 188.5,-30.5 337.5,-30.5 337.5,-0.5 188.5,-0.5"/>
<text text-anchor="start" x="196.5" y="-18.5" font-family="Helvetica,sans-Serif" font-size="10.00">SuggestionAnswer::ImageLine</text>
<text text-anchor="middle" x="263" y="-7.5" font-family="Helvetica,sans-Serif" font-size="10.00">::text_fields</text>
</a>
</g>
</g>
<!-- Node1&#45;&gt;Node15 -->
<g id="edge16" class="edge">
<title>Node1&#45;&gt;Node15</title>
<path fill="none" stroke="midnightblue" d="M75.27,-171.37C88.5,-141.38 122.2,-74.32 172,-39.5 174.28,-37.9 176.66,-36.42 179.12,-35.02"/>
<polygon fill="midnightblue" stroke="midnightblue" points="180.95,-38.02 188.32,-30.41 177.81,-31.77 180.95,-38.02"/>
</g>
<!-- Node3 -->
<g id="node3" class="node">
<title>Node3</title>
<g id="a_node3"><a xlink:href="../../de/d56/classSuggestionAnswer_1_1ImageLine.html#a302787246f340ac020dd6da292a463ac" target="_top" xlink:title=" ">
<polygon fill="white" stroke="black" points="392.5,-276.5 392.5,-306.5 541.5,-306.5 541.5,-276.5 392.5,-276.5"/>
<text text-anchor="start" x="400.5" y="-294.5" font-family="Helvetica,sans-Serif" font-size="10.00">SuggestionAnswer::ImageLine</text>
<text text-anchor="middle" x="467" y="-283.5" font-family="Helvetica,sans-Serif" font-size="10.00">::additional_text</text>
</a>
</g>
</g>
<!-- Node2&#45;&gt;Node3 -->
<g id="edge2" class="edge">
<title>Node2&#45;&gt;Node3</title>
<path fill="none" stroke="midnightblue" d="M351.72,-292.63C361.75,-292.53 371.97,-292.43 381.95,-292.33"/>
<polygon fill="midnightblue" stroke="midnightblue" points="382.3,-295.83 392.26,-292.23 382.23,-288.83 382.3,-295.83"/>
</g>
<!-- Node2&#45;&gt;Node4 -->
<g id="edge3" class="edge">
<title>Node2&#45;&gt;Node4</title>
<path fill="none" stroke="midnightblue" d="M309.84,-303.03C339.56,-309.21 378.48,-317.3 410.03,-323.86"/>
<polygon fill="midnightblue" stroke="midnightblue" points="409.49,-327.33 420,-325.93 410.92,-320.47 409.49,-327.33"/>
</g>
<!-- Node8 -->
<g id="node8" class="node">
<title>Node8</title>
<g id="a_node8"><a xlink:href="../../df/d61/classOmniboxTextView.html#a4b0c456fd56f27414ac6a643ea0cffcd" target="_top" xlink:title=" ">
<polygon fill="white" stroke="black" points="395.5,-116.5 395.5,-146.5 538.5,-146.5 538.5,-116.5 395.5,-116.5"/>
<text text-anchor="start" x="403.5" y="-134.5" font-family="Helvetica,sans-Serif" font-size="10.00">OmniboxTextView::Calculate</text>
<text text-anchor="middle" x="467" y="-123.5" font-family="Helvetica,sans-Serif" font-size="10.00">PreferredSize</text>
</a>
</g>
</g>
<!-- Node2&#45;&gt;Node8 -->
<g id="edge7" class="edge">
<title>Node2&#45;&gt;Node8</title>
<path fill="none" stroke="midnightblue" d="M335.95,-283.85C342.35,-281.38 348.48,-278.31 354,-274.5 378.36,-257.7 372.22,-242.15 390,-218.5 407.09,-195.77 428.56,-171.53 444.32,-154.42"/>
<polygon fill="midnightblue" stroke="midnightblue" points="447.31,-156.35 451.56,-146.64 442.19,-151.58 447.31,-156.35"/>
</g>
<!-- Node9 -->
<g id="node9" class="node">
<title>Node9</title>
<g id="a_node9"><a xlink:href="../../de/d56/classSuggestionAnswer_1_1ImageLine.html#ade27c06d991225a7bab14335e7979e36" target="_top" xlink:title=" ">
<polygon fill="white" stroke="black" points="392.5,-227.5 392.5,-257.5 541.5,-257.5 541.5,-227.5 392.5,-227.5"/>
<text text-anchor="start" x="400.5" y="-245.5" font-family="Helvetica,sans-Serif" font-size="10.00">SuggestionAnswer::ImageLine</text>
<text text-anchor="middle" x="467" y="-234.5" font-family="Helvetica,sans-Serif" font-size="10.00">::status_text</text>
</a>
</g>
</g>
<!-- Node2&#45;&gt;Node9 -->
<g id="edge8" class="edge">
<title>Node2&#45;&gt;Node9</title>
<path fill="none" stroke="midnightblue" d="M312.25,-283.97C325.8,-281.11 340.52,-277.85 354,-274.5 371.15,-270.25 389.63,-265.17 406.55,-260.33"/>
<polygon fill="midnightblue" stroke="midnightblue" points="407.66,-263.65 416.3,-257.51 405.72,-256.92 407.66,-263.65"/>
</g>
<!-- Node5 -->
<g id="node5" class="node">
<title>Node5</title>
<g id="a_node5"><a xlink:href="../../df/d61/classOmniboxTextView.html#a4298c267872d7618353c03a0f31560e2" target="_top" xlink:title=" ">
<polygon fill="white" stroke="black" points="583.5,-370 583.5,-389 720.5,-389 720.5,-370 583.5,-370"/>
<text text-anchor="middle" x="652" y="-377" font-family="Helvetica,sans-Serif" font-size="10.00">OmniboxTextView::GetText</text>
</a>
</g>
</g>
<!-- Node4&#45;&gt;Node5 -->
<g id="edge4" class="edge">
<title>Node4&#45;&gt;Node5</title>
<path fill="none" stroke="midnightblue" d="M507.71,-345.05C535.17,-351.65 571.9,-360.48 601.3,-367.55"/>
<polygon fill="midnightblue" stroke="midnightblue" points="600.83,-371.04 611.37,-369.97 602.46,-364.23 600.83,-371.04"/>
</g>
<!-- Node6 -->
<g id="node6" class="node">
<title>Node6</title>
<g id="a_node6"><a xlink:href="../../d1/d9d/classSuggestionAnswer_1_1TextField.html#a9447ffd33629150a257b4028cd0efa71" target="_top" xlink:title=" ">
<polygon fill="white" stroke="black" points="580,-320.5 580,-350.5 724,-350.5 724,-320.5 580,-320.5"/>
<text text-anchor="start" x="588" y="-338.5" font-family="Helvetica,sans-Serif" font-size="10.00">SuggestionAnswer::TextField</text>
<text text-anchor="middle" x="652" y="-327.5" font-family="Helvetica,sans-Serif" font-size="10.00">::style</text>
</a>
</g>
</g>
<!-- Node4&#45;&gt;Node6 -->
<g id="edge5" class="edge">
<title>Node4&#45;&gt;Node6</title>
<path fill="none" stroke="midnightblue" d="M544.02,-335.5C552.56,-335.5 561.28,-335.5 569.89,-335.5"/>
<polygon fill="midnightblue" stroke="midnightblue" points="569.91,-339 579.91,-335.5 569.91,-332 569.91,-339"/>
</g>
<!-- Node7 -->
<g id="node7" class="node">
<title>Node7</title>
<g id="a_node7"><a xlink:href="../../d1/d9d/classSuggestionAnswer_1_1TextField.html#a816ecc847bf2a5118d3148e38b00fb30" target="_top" xlink:title=" ">
<polygon fill="white" stroke="black" points="580,-271.5 580,-301.5 724,-301.5 724,-271.5 580,-271.5"/>
<text text-anchor="start" x="588" y="-289.5" font-family="Helvetica,sans-Serif" font-size="10.00">SuggestionAnswer::TextField</text>
<text text-anchor="middle" x="652" y="-278.5" font-family="Helvetica,sans-Serif" font-size="10.00">::text</text>
</a>
</g>
</g>
<!-- Node4&#45;&gt;Node7 -->
<g id="edge6" class="edge">
<title>Node4&#45;&gt;Node7</title>
<path fill="none" stroke="midnightblue" d="M507.11,-325.95C518.98,-322.99 532.04,-319.67 544,-316.5 558.47,-312.66 574,-308.4 588.61,-304.31"/>
<polygon fill="midnightblue" stroke="midnightblue" points="589.88,-307.59 598.56,-301.52 587.99,-300.85 589.88,-307.59"/>
</g>
<!-- Node14&#45;&gt;Node8 -->
<g id="edge15" class="edge">
<title>Node14&#45;&gt;Node8</title>
<path fill="none" stroke="midnightblue" d="M324.29,-79.63C334.27,-82.4 344.46,-85.41 354,-88.5 376.05,-95.65 400.09,-104.71 420.23,-112.67"/>
<polygon fill="midnightblue" stroke="midnightblue" points="419.19,-116.02 429.78,-116.47 421.79,-109.52 419.19,-116.02"/>
</g>
</g>
</svg>
        <g id="navigator" transform="translate(0 0)" fill="#404254">
                <rect fill="#f2f5e9" fill-opacity="0.5" stroke="#606060" stroke-width=".5" x="0" y="0" width="60" height="60"/>
                <use id="zoomplus" xlink:href="#zoomPlus" x="17" y="9" onmousedown="handleZoom(evt,'in')"/>
                <use id="zoomminus" xlink:href="#zoomMin" x="42" y="9" onmousedown="handleZoom(evt,'out')"/>
                <use id="reset" xlink:href="#resetDef" x="30" y="36" onmousedown="handleReset()"/>
                <g id="arrowUp" xlink:href="#dirArrow" transform="translate(30 24)" onmousedown="handlePan(0,-1)">
                  <use xlink:href="#rim" fill="#404040">
                        <set attributeName="fill" to="#808080" begin="arrowUp.mouseover" end="arrowUp.mouseout"/>
                  </use>
                  <path fill="none" stroke="white" stroke-width="1.5" d="M0,-3.0v7 M-2.5,-0.5L0,-3.0L2.5,-0.5"/>
                </g>
                <g id="arrowRight" xlink:href="#dirArrow" transform="rotate(90) translate(36 -43)" onmousedown="handlePan(1,0)">
                  <use xlink:href="#rim" fill="#404040">
                        <set attributeName="fill" to="#808080" begin="arrowRight.mouseover" end="arrowRight.mouseout"/>
                  </use>
                  <path fill="none" stroke="white" stroke-width="1.5" d="M0,-3.0v7 M-2.5,-0.5L0,-3.0L2.5,-0.5"/>
                </g>
                <g id="arrowDown" xlink:href="#dirArrow" transform="rotate(180) translate(-30 -48)" onmousedown="handlePan(0,1)">
                  <use xlink:href="#rim" fill="#404040">
                        <set attributeName="fill" to="#808080" begin="arrowDown.mouseover" end="arrowDown.mouseout"/>
                  </use>
                  <path fill="none" stroke="white" stroke-width="1.5" d="M0,-3.0v7 M-2.5,-0.5L0,-3.0L2.5,-0.5"/>
                </g>
                <g id="arrowLeft" xlink:href="#dirArrow" transform="rotate(270) translate(-36 17)" onmousedown="handlePan(-1,0)">
                  <use xlink:href="#rim" fill="#404040">
                        <set attributeName="fill" to="#808080" begin="arrowLeft.mouseover" end="arrowLeft.mouseout"/>
                  </use>
                  <path fill="none" stroke="white" stroke-width="1.5" d="M0,-3.0v7 M-2.5,-0.5L0,-3.0L2.5,-0.5"/>
                </g>
        </g>
        <svg viewBox="0 0 15 15" width="100%" height="30px" preserveAspectRatio="xMaxYMin meet">
         <g id="arrow_out" transform="scale(0.3 0.3)">
          <a xlink:href="classOmniboxTextView_acb7d4836fcdf802acddcad050485b132_cgraph_org.svg" target="_base">
           <rect id="button" ry="5" rx="5" y="6" x="6" height="38" width="38"
                fill="#f2f5e9" fill-opacity="0.5" stroke="#606060" stroke-width="1.0"/>
           <path id="arrow"
             d="M 11.500037,31.436501 C 11.940474,20.09759 22.043105,11.32322 32.158766,21.979434 L 37.068811,17.246167 C 37.068811,17.246167 37.088388,32 37.088388,32 L 22.160133,31.978069 C 22.160133,31.978069 26.997745,27.140456 26.997745,27.140456 C 18.528582,18.264221 13.291696,25.230495 11.500037,31.436501 z"
             style="fill:#404040;"/>
          </a>
         </g>
        </svg>
</svg>
