<?xml version="1.0" encoding="UTF-8" standalone="no"?>
<!DOCTYPE svg PUBLIC "-//W3C//DTD SVG 1.1//EN"
 "http://www.w3.org/Graphics/SVG/1.1/DTD/svg11.dtd">
<!-- Generated by graphviz version 2.43.0 (0)
 -->
<!-- Title: OmniboxTextView::SetTextWithStyling Pages: 1 -->
<!--zoomable 165 -->
<svg id="main" version="1.1" xmlns="http://www.w3.org/2000/svg" xmlns:xlink="http://www.w3.org/1999/xlink" xml:space="preserve" onload="init(evt)">
<style type="text/css"><![CDATA[
.edge:hover path { stroke: red; }
.edge:hover polygon { stroke: red; fill: red; }
]]></style>
<script type="text/javascript"><![CDATA[
var edges = document.getElementsByTagName('g');
if (edges && edges.length) {
  for (var i=0;i<edges.length;i++) {
    if (edges[i].id.substr(0,4)=='edge') {
      edges[i].setAttribute('class','edge');
    }
  }
}
]]></script>
        <defs>
                <circle id="rim" cx="0" cy="0" r="7"/>
                <circle id="rim2" cx="0" cy="0" r="3.5"/>
                <g id="zoomPlus">
                        <use xlink:href="#rim" fill="#404040">
                                <set attributeName="fill" to="#808080" begin="zoomplus.mouseover" end="zoomplus.mouseout"/>
                        </use>
                        <path d="M-4,0h8M0,-4v8" fill="none" stroke="white" stroke-width="1.5" pointer-events="none"/>
                </g>
                <g id="zoomMin">
                        <use xlink:href="#rim" fill="#404040">
                                <set attributeName="fill" to="#808080" begin="zoomminus.mouseover" end="zoomminus.mouseout"/>
                        </use>
                        <path d="M-4,0h8" fill="none" stroke="white" stroke-width="1.5" pointer-events="none"/>
                </g>
                <g id="dirArrow">
                        <path fill="none" stroke="white" stroke-width="1.5" d="M0,-3.0v7 M-2.5,-0.5L0,-3.0L2.5,-0.5"/>
                </g>
               <g id="resetDef">
                       <use xlink:href="#rim2" fill="#404040">
                               <set attributeName="fill" to="#808080" begin="reset.mouseover" end="reset.mouseout"/>
                       </use>
               </g>
        </defs>

<script type="text/javascript">
var viewWidth = 1391;
var viewHeight = 165;
var sectionId = 'dynsection-21';
</script>
<script xlink:href="../../svgpan.js"/>
<svg id="graph" class="graph">
<g id="viewport">
<title>OmniboxTextView::SetTextWithStyling</title>
<polygon fill="white" stroke="transparent" points="-4,4 -4,-160.5 1387,-160.5 1387,4 -4,4"/>
<!-- Node1 -->
<g id="node1" class="node">
<title>Node1</title>
<g id="a_node1"><a xlink:title=" ">
<polygon fill="#bfbfbf" stroke="black" points="0,-93.5 0,-123.5 136,-123.5 136,-93.5 0,-93.5"/>
<text text-anchor="start" x="8" y="-111.5" font-family="Helvetica,sans-Serif" font-size="10.00">OmniboxTextView::SetText</text>
<text text-anchor="middle" x="68" y="-100.5" font-family="Helvetica,sans-Serif" font-size="10.00">WithStyling</text>
</a>
</g>
</g>
<!-- Node2 -->
<g id="node2" class="node">
<title>Node2</title>
<g id="a_node2"><a xlink:href="../../df/d61/classOmniboxTextView.html#a469f95836f0eaaa5aabdf2cca2cc528d" target="_top" xlink:title=" ">
<polygon fill="white" stroke="black" points="172,-137 172,-156 354,-156 354,-137 172,-137"/>
<text text-anchor="middle" x="263" y="-144" font-family="Helvetica,sans-Serif" font-size="10.00">OmniboxTextView::CreateRenderText</text>
</a>
</g>
</g>
<!-- Node1&#45;&gt;Node2 -->
<g id="edge1" class="edge">
<title>Node1&#45;&gt;Node2</title>
<path fill="none" stroke="midnightblue" d="M136.23,-121.74C158.21,-126.06 182.42,-130.83 203.68,-135.02"/>
<polygon fill="midnightblue" stroke="midnightblue" points="203.06,-138.46 213.54,-136.96 204.41,-131.59 203.06,-138.46"/>
</g>
<!-- Node3 -->
<g id="node3" class="node">
<title>Node3</title>
<g id="a_node3"><a xlink:href="../../df/d61/classOmniboxTextView.html#a4298c267872d7618353c03a0f31560e2" target="_top" xlink:title=" ">
<polygon fill="white" stroke="black" points="390,-99 390,-118 527,-118 527,-99 390,-99"/>
<text text-anchor="middle" x="458.5" y="-106" font-family="Helvetica,sans-Serif" font-size="10.00">OmniboxTextView::GetText</text>
</a>
</g>
</g>
<!-- Node1&#45;&gt;Node3 -->
<g id="edge2" class="edge">
<title>Node1&#45;&gt;Node3</title>
<path fill="none" stroke="midnightblue" d="M136.23,-108.5C203.92,-108.5 308.25,-108.5 379.52,-108.5"/>
<polygon fill="midnightblue" stroke="midnightblue" points="379.79,-112 389.79,-108.5 379.79,-105 379.79,-112"/>
</g>
<!-- Node4 -->
<g id="node4" class="node">
<title>Node4</title>
<g id="a_node4"><a xlink:href="../../df/d61/classOmniboxTextView.html#a4a9387fda0670163402744192b5ef00f" target="_top" xlink:title=" ">
<polygon fill="white" stroke="black" points="194,-49.5 194,-79.5 332,-79.5 332,-49.5 194,-49.5"/>
<text text-anchor="start" x="202" y="-67.5" font-family="Helvetica,sans-Serif" font-size="10.00">OmniboxTextView::Reapply</text>
<text text-anchor="middle" x="263" y="-56.5" font-family="Helvetica,sans-Serif" font-size="10.00">Styling</text>
</a>
</g>
</g>
<!-- Node1&#45;&gt;Node4 -->
<g id="edge3" class="edge">
<title>Node1&#45;&gt;Node4</title>
<path fill="none" stroke="midnightblue" d="M134.88,-93.48C151.4,-89.71 169.26,-85.64 186.22,-81.78"/>
<polygon fill="midnightblue" stroke="midnightblue" points="187.12,-85.16 196.09,-79.53 185.56,-78.34 187.12,-85.16"/>
</g>
<!-- Node4&#45;&gt;Node3 -->
<g id="edge14" class="edge">
<title>Node4&#45;&gt;Node3</title>
<path fill="none" stroke="midnightblue" d="M330.05,-79.52C354.75,-85.14 382.43,-91.43 405.67,-96.71"/>
<polygon fill="midnightblue" stroke="midnightblue" points="405.14,-100.18 415.67,-98.99 406.69,-93.36 405.14,-100.18"/>
</g>
<!-- Node5 -->
<g id="node5" class="node">
<title>Node5</title>
<g id="a_node5"><a xlink:href="../../d3/d4c/classOmniboxResultView.html#aaafb21160f2e040184d7c85ab18ebced" target="_top" xlink:title=" ">
<polygon fill="white" stroke="black" points="402.5,-49.5 402.5,-79.5 514.5,-79.5 514.5,-49.5 402.5,-49.5"/>
<text text-anchor="start" x="410.5" y="-67.5" font-family="Helvetica,sans-Serif" font-size="10.00">OmniboxResultView::</text>
<text text-anchor="middle" x="458.5" y="-56.5" font-family="Helvetica,sans-Serif" font-size="10.00">GetColor</text>
</a>
</g>
</g>
<!-- Node4&#45;&gt;Node5 -->
<g id="edge4" class="edge">
<title>Node4&#45;&gt;Node5</title>
<path fill="none" stroke="midnightblue" d="M332.22,-64.5C351.68,-64.5 372.83,-64.5 392.12,-64.5"/>
<polygon fill="midnightblue" stroke="midnightblue" points="392.32,-68 402.32,-64.5 392.32,-61 392.32,-68"/>
</g>
<!-- Node14 -->
<g id="node14" class="node">
<title>Node14</title>
<g id="a_node14"><a xlink:href="../../df/d61/classOmniboxTextView.html#a939db6ecd27fb2eea964237161eaf0b6" target="_top" xlink:title=" ">
<polygon fill="white" stroke="black" points="390,-0.5 390,-30.5 527,-30.5 527,-0.5 390,-0.5"/>
<text text-anchor="start" x="398" y="-18.5" font-family="Helvetica,sans-Serif" font-size="10.00">OmniboxTextView::OnStyle</text>
<text text-anchor="middle" x="458.5" y="-7.5" font-family="Helvetica,sans-Serif" font-size="10.00">Changed</text>
</a>
</g>
</g>
<!-- Node4&#45;&gt;Node14 -->
<g id="edge15" class="edge">
<title>Node4&#45;&gt;Node14</title>
<path fill="none" stroke="midnightblue" d="M323.37,-49.47C343.9,-44.27 367.07,-38.4 388.31,-33.02"/>
<polygon fill="midnightblue" stroke="midnightblue" points="389.41,-36.35 398.24,-30.51 387.69,-29.57 389.41,-36.35"/>
</g>
<!-- Node6 -->
<g id="node6" class="node">
<title>Node6</title>
<g id="a_node6"><a xlink:href="../../d4/d9b/omnibox__theme_8cc.html#a22fe9a774c5756fb8f71218d1830d516" target="_top" xlink:title=" ">
<polygon fill="white" stroke="black" points="587,-99 587,-118 682,-118 682,-99 587,-99"/>
<text text-anchor="middle" x="634.5" y="-106" font-family="Helvetica,sans-Serif" font-size="10.00">GetOmniboxColor</text>
</a>
</g>
</g>
<!-- Node5&#45;&gt;Node6 -->
<g id="edge5" class="edge">
<title>Node5&#45;&gt;Node6</title>
<path fill="none" stroke="midnightblue" d="M514.55,-78.42C537.52,-84.23 563.94,-90.91 586.03,-96.5"/>
<polygon fill="midnightblue" stroke="midnightblue" points="585.3,-99.92 595.85,-98.98 587.01,-93.13 585.3,-99.92"/>
</g>
<!-- Node7 -->
<g id="node7" class="node">
<title>Node7</title>
<g id="a_node7"><a xlink:href="../../d3/d4c/classOmniboxResultView.html#a510528aab4c1238bcfc1f2c09e7ef9d1" target="_top" xlink:title=" ">
<polygon fill="white" stroke="black" points="578.5,-49.5 578.5,-79.5 690.5,-79.5 690.5,-49.5 578.5,-49.5"/>
<text text-anchor="start" x="586.5" y="-67.5" font-family="Helvetica,sans-Serif" font-size="10.00">OmniboxResultView::</text>
<text text-anchor="middle" x="634.5" y="-56.5" font-family="Helvetica,sans-Serif" font-size="10.00">GetThemeState</text>
</a>
</g>
</g>
<!-- Node5&#45;&gt;Node7 -->
<g id="edge6" class="edge">
<title>Node5&#45;&gt;Node7</title>
<path fill="none" stroke="midnightblue" d="M514.55,-64.5C531.53,-64.5 550.4,-64.5 568.01,-64.5"/>
<polygon fill="midnightblue" stroke="midnightblue" points="568.21,-68 578.21,-64.5 568.21,-61 568.21,-68"/>
</g>
<!-- Node8 -->
<g id="node8" class="node">
<title>Node8</title>
<g id="a_node8"><a xlink:href="../../d3/d4c/classOmniboxResultView.html#a17507b20abec0ee969168a494710c6df" target="_top" xlink:title=" ">
<polygon fill="white" stroke="black" points="742,-49.5 742,-79.5 854,-79.5 854,-49.5 742,-49.5"/>
<text text-anchor="start" x="750" y="-67.5" font-family="Helvetica,sans-Serif" font-size="10.00">OmniboxResultView::</text>
<text text-anchor="middle" x="798" y="-56.5" font-family="Helvetica,sans-Serif" font-size="10.00">GetMatchSelected</text>
</a>
</g>
</g>
<!-- Node7&#45;&gt;Node8 -->
<g id="edge7" class="edge">
<title>Node7&#45;&gt;Node8</title>
<path fill="none" stroke="midnightblue" d="M690.63,-64.5C703.81,-64.5 718,-64.5 731.6,-64.5"/>
<polygon fill="midnightblue" stroke="midnightblue" points="731.85,-68 741.85,-64.5 731.85,-61 731.85,-68"/>
</g>
<!-- Node9 -->
<g id="node9" class="node">
<title>Node9</title>
<g id="a_node9"><a xlink:href="../../d7/d88/classOmniboxPopupContentsView.html#aa853016eecbad5260a64b4bff2a349c9" target="_top" xlink:title=" ">
<polygon fill="white" stroke="black" points="890,-49.5 890,-79.5 1035,-79.5 1035,-49.5 890,-49.5"/>
<text text-anchor="start" x="898" y="-67.5" font-family="Helvetica,sans-Serif" font-size="10.00">OmniboxPopupContentsView</text>
<text text-anchor="middle" x="962.5" y="-56.5" font-family="Helvetica,sans-Serif" font-size="10.00">::GetSelectedIndex</text>
</a>
</g>
</g>
<!-- Node8&#45;&gt;Node9 -->
<g id="edge8" class="edge">
<title>Node8&#45;&gt;Node9</title>
<path fill="none" stroke="midnightblue" d="M854.02,-64.5C862.29,-64.5 870.97,-64.5 879.65,-64.5"/>
<polygon fill="midnightblue" stroke="midnightblue" points="879.83,-68 889.83,-64.5 879.83,-61 879.83,-68"/>
</g>
<!-- Node10 -->
<g id="node10" class="node">
<title>Node10</title>
<g id="a_node10"><a xlink:href="../../d7/d88/classOmniboxPopupContentsView.html#a718a0b1b4223a2cbabb6008f005ffd2e" target="_top" xlink:title=" ">
<polygon fill="white" stroke="black" points="1071,-93.5 1071,-123.5 1216,-123.5 1216,-93.5 1071,-93.5"/>
<text text-anchor="start" x="1079" y="-111.5" font-family="Helvetica,sans-Serif" font-size="10.00">OmniboxPopupContentsView</text>
<text text-anchor="middle" x="1143.5" y="-100.5" font-family="Helvetica,sans-Serif" font-size="10.00">::model</text>
</a>
</g>
</g>
<!-- Node8&#45;&gt;Node10 -->
<g id="edge12" class="edge">
<title>Node8&#45;&gt;Node10</title>
<path fill="none" stroke="midnightblue" d="M849.67,-79.58C862.71,-82.98 876.79,-86.25 890,-88.5 946.58,-98.12 1011.09,-103.13 1060.75,-105.73"/>
<polygon fill="midnightblue" stroke="midnightblue" points="1060.63,-109.23 1070.79,-106.23 1060.98,-102.24 1060.63,-109.23"/>
</g>
<!-- Node13 -->
<g id="node13" class="node">
<title>Node13</title>
<g id="a_node13"><a xlink:href="../../d1/db1/classOmniboxPopupModel.html#a89f2d7464b757a9707bb7df522a2fea5" target="_top" xlink:title=" ">
<polygon fill="white" stroke="black" points="904.5,-0.5 904.5,-30.5 1020.5,-30.5 1020.5,-0.5 904.5,-0.5"/>
<text text-anchor="start" x="912.5" y="-18.5" font-family="Helvetica,sans-Serif" font-size="10.00">OmniboxPopupModel::</text>
<text text-anchor="middle" x="962.5" y="-7.5" font-family="Helvetica,sans-Serif" font-size="10.00">selected_line_state</text>
</a>
</g>
</g>
<!-- Node8&#45;&gt;Node13 -->
<g id="edge13" class="edge">
<title>Node8&#45;&gt;Node13</title>
<path fill="none" stroke="midnightblue" d="M849.08,-49.4C865.69,-44.39 884.34,-38.77 901.6,-33.56"/>
<polygon fill="midnightblue" stroke="midnightblue" points="903.02,-36.79 911.58,-30.55 901,-30.09 903.02,-36.79"/>
</g>
<!-- Node9&#45;&gt;Node10 -->
<g id="edge9" class="edge">
<title>Node9&#45;&gt;Node10</title>
<path fill="none" stroke="midnightblue" d="M1024.6,-79.52C1039.64,-83.22 1055.87,-87.21 1071.34,-91.01"/>
<polygon fill="midnightblue" stroke="midnightblue" points="1070.82,-94.49 1081.37,-93.47 1072.5,-87.69 1070.82,-94.49"/>
</g>
<!-- Node12 -->
<g id="node12" class="node">
<title>Node12</title>
<g id="a_node12"><a xlink:href="../../d1/db1/classOmniboxPopupModel.html#ac7f0c94e4da21543213dbef3ce023aca" target="_top" xlink:title=" ">
<polygon fill="white" stroke="black" points="1085.5,-44.5 1085.5,-74.5 1201.5,-74.5 1201.5,-44.5 1085.5,-44.5"/>
<text text-anchor="start" x="1093.5" y="-62.5" font-family="Helvetica,sans-Serif" font-size="10.00">OmniboxPopupModel::</text>
<text text-anchor="middle" x="1143.5" y="-51.5" font-family="Helvetica,sans-Serif" font-size="10.00">selected_line</text>
</a>
</g>
</g>
<!-- Node9&#45;&gt;Node12 -->
<g id="edge11" class="edge">
<title>Node9&#45;&gt;Node12</title>
<path fill="none" stroke="midnightblue" d="M1035.02,-62.5C1048.23,-62.13 1062,-61.75 1075.09,-61.38"/>
<polygon fill="midnightblue" stroke="midnightblue" points="1075.52,-64.87 1085.42,-61.09 1075.32,-57.88 1075.52,-64.87"/>
</g>
<!-- Node11 -->
<g id="node11" class="node">
<title>Node11</title>
<g id="a_node11"><a xlink:href="../../d0/d22/classOmniboxEditModel.html#a254f9536adb46b9e885d10b3d5bfe4c9" target="_top" xlink:title=" ">
<polygon fill="white" stroke="black" points="1252,-93.5 1252,-123.5 1383,-123.5 1383,-93.5 1252,-93.5"/>
<text text-anchor="start" x="1260" y="-111.5" font-family="Helvetica,sans-Serif" font-size="10.00">OmniboxEditModel::popup</text>
<text text-anchor="middle" x="1317.5" y="-100.5" font-family="Helvetica,sans-Serif" font-size="10.00">_model</text>
</a>
</g>
</g>
<!-- Node10&#45;&gt;Node11 -->
<g id="edge10" class="edge">
<title>Node10&#45;&gt;Node11</title>
<path fill="none" stroke="midnightblue" d="M1216.45,-108.5C1224.82,-108.5 1233.38,-108.5 1241.8,-108.5"/>
<polygon fill="midnightblue" stroke="midnightblue" points="1241.96,-112 1251.96,-108.5 1241.96,-105 1241.96,-112"/>
</g>
<!-- Node15 -->
<g id="node15" class="node">
<title>Node15</title>
<g id="a_node15"><a xlink:href="../../df/d61/classOmniboxTextView.html#a4b0c456fd56f27414ac6a643ea0cffcd" target="_top" xlink:title=" ">
<polygon fill="white" stroke="black" points="563,-0.5 563,-30.5 706,-30.5 706,-0.5 563,-0.5"/>
<text text-anchor="start" x="571" y="-18.5" font-family="Helvetica,sans-Serif" font-size="10.00">OmniboxTextView::Calculate</text>
<text text-anchor="middle" x="634.5" y="-7.5" font-family="Helvetica,sans-Serif" font-size="10.00">PreferredSize</text>
</a>
</g>
</g>
<!-- Node14&#45;&gt;Node15 -->
<g id="edge16" class="edge">
<title>Node14&#45;&gt;Node15</title>
<path fill="none" stroke="midnightblue" d="M527.27,-15.5C535.55,-15.5 544.07,-15.5 552.51,-15.5"/>
<polygon fill="midnightblue" stroke="midnightblue" points="552.76,-19 562.75,-15.5 552.75,-12 552.76,-19"/>
</g>
</g>
</svg>
        <g id="navigator" transform="translate(0 0)" fill="#404254">
                <rect fill="#f2f5e9" fill-opacity="0.5" stroke="#606060" stroke-width=".5" x="0" y="0" width="60" height="60"/>
                <use id="zoomplus" xlink:href="#zoomPlus" x="17" y="9" onmousedown="handleZoom(evt,'in')"/>
                <use id="zoomminus" xlink:href="#zoomMin" x="42" y="9" onmousedown="handleZoom(evt,'out')"/>
                <use id="reset" xlink:href="#resetDef" x="30" y="36" onmousedown="handleReset()"/>
                <g id="arrowUp" xlink:href="#dirArrow" transform="translate(30 24)" onmousedown="handlePan(0,-1)">
                  <use xlink:href="#rim" fill="#404040">
                        <set attributeName="fill" to="#808080" begin="arrowUp.mouseover" end="arrowUp.mouseout"/>
                  </use>
                  <path fill="none" stroke="white" stroke-width="1.5" d="M0,-3.0v7 M-2.5,-0.5L0,-3.0L2.5,-0.5"/>
                </g>
                <g id="arrowRight" xlink:href="#dirArrow" transform="rotate(90) translate(36 -43)" onmousedown="handlePan(1,0)">
                  <use xlink:href="#rim" fill="#404040">
                        <set attributeName="fill" to="#808080" begin="arrowRight.mouseover" end="arrowRight.mouseout"/>
                  </use>
                  <path fill="none" stroke="white" stroke-width="1.5" d="M0,-3.0v7 M-2.5,-0.5L0,-3.0L2.5,-0.5"/>
                </g>
                <g id="arrowDown" xlink:href="#dirArrow" transform="rotate(180) translate(-30 -48)" onmousedown="handlePan(0,1)">
                  <use xlink:href="#rim" fill="#404040">
                        <set attributeName="fill" to="#808080" begin="arrowDown.mouseover" end="arrowDown.mouseout"/>
                  </use>
                  <path fill="none" stroke="white" stroke-width="1.5" d="M0,-3.0v7 M-2.5,-0.5L0,-3.0L2.5,-0.5"/>
                </g>
                <g id="arrowLeft" xlink:href="#dirArrow" transform="rotate(270) translate(-36 17)" onmousedown="handlePan(-1,0)">
                  <use xlink:href="#rim" fill="#404040">
                        <set attributeName="fill" to="#808080" begin="arrowLeft.mouseover" end="arrowLeft.mouseout"/>
                  </use>
                  <path fill="none" stroke="white" stroke-width="1.5" d="M0,-3.0v7 M-2.5,-0.5L0,-3.0L2.5,-0.5"/>
                </g>
        </g>
        <svg viewBox="0 0 15 15" width="100%" height="30px" preserveAspectRatio="xMaxYMin meet">
         <g id="arrow_out" transform="scale(0.3 0.3)">
          <a xlink:href="classOmniboxTextView_a4d5871e09a604d986582d74446d37b6a_cgraph_org.svg" target="_base">
           <rect id="button" ry="5" rx="5" y="6" x="6" height="38" width="38"
                fill="#f2f5e9" fill-opacity="0.5" stroke="#606060" stroke-width="1.0"/>
           <path id="arrow"
             d="M 11.500037,31.436501 C 11.940474,20.09759 22.043105,11.32322 32.158766,21.979434 L 37.068811,17.246167 C 37.068811,17.246167 37.088388,32 37.088388,32 L 22.160133,31.978069 C 22.160133,31.978069 26.997745,27.140456 26.997745,27.140456 C 18.528582,18.264221 13.291696,25.230495 11.500037,31.436501 z"
             style="fill:#404040;"/>
          </a>
         </g>
        </svg>
</svg>
