<?xml version="1.0" encoding="UTF-8" standalone="no"?>
<!DOCTYPE svg PUBLIC "-//W3C//DTD SVG 1.1//EN"
 "http://www.w3.org/Graphics/SVG/1.1/DTD/svg11.dtd">
<!-- Generated by graphviz version 2.43.0 (0)
 -->
<!-- Title: OmniboxTextView::GetText Pages: 1 -->
<!--zoomable 346 -->
<svg id="main" version="1.1" xmlns="http://www.w3.org/2000/svg" xmlns:xlink="http://www.w3.org/1999/xlink" xml:space="preserve" onload="init(evt)">
<style type="text/css"><![CDATA[
.edge:hover path { stroke: red; }
.edge:hover polygon { stroke: red; fill: red; }
]]></style>
<script type="text/javascript"><![CDATA[
var edges = document.getElementsByTagName('g');
if (edges && edges.length) {
  for (var i=0;i<edges.length;i++) {
    if (edges[i].id.substr(0,4)=='edge') {
      edges[i].setAttribute('class','edge');
    }
  }
}
]]></script>
        <defs>
                <circle id="rim" cx="0" cy="0" r="7"/>
                <circle id="rim2" cx="0" cy="0" r="3.5"/>
                <g id="zoomPlus">
                        <use xlink:href="#rim" fill="#404040">
                                <set attributeName="fill" to="#808080" begin="zoomplus.mouseover" end="zoomplus.mouseout"/>
                        </use>
                        <path d="M-4,0h8M0,-4v8" fill="none" stroke="white" stroke-width="1.5" pointer-events="none"/>
                </g>
                <g id="zoomMin">
                        <use xlink:href="#rim" fill="#404040">
                                <set attributeName="fill" to="#808080" begin="zoomminus.mouseover" end="zoomminus.mouseout"/>
                        </use>
                        <path d="M-4,0h8" fill="none" stroke="white" stroke-width="1.5" pointer-events="none"/>
                </g>
                <g id="dirArrow">
                        <path fill="none" stroke="white" stroke-width="1.5" d="M0,-3.0v7 M-2.5,-0.5L0,-3.0L2.5,-0.5"/>
                </g>
               <g id="resetDef">
                       <use xlink:href="#rim2" fill="#404040">
                               <set attributeName="fill" to="#808080" begin="reset.mouseover" end="reset.mouseout"/>
                       </use>
               </g>
        </defs>

<script type="text/javascript">
var viewWidth = 1094;
var viewHeight = 346;
var sectionId = 'dynsection-14';
</script>
<script xlink:href="../../svgpan.js"/>
<svg id="graph" class="graph">
<g id="viewport">
<title>OmniboxTextView::GetText</title>
<polygon fill="white" stroke="transparent" points="-4,4 -4,-342 1090,-342 1090,4 -4,4"/>
<!-- Node1 -->
<g id="node1" class="node">
<title>Node1</title>
<g id="a_node1"><a xlink:title=" ">
<polygon fill="#bfbfbf" stroke="black" points="949,-183 949,-202 1086,-202 1086,-183 949,-183"/>
<text text-anchor="middle" x="1017.5" y="-190" font-family="Helvetica,sans-Serif" font-size="10.00">OmniboxTextView::GetText</text>
</a>
</g>
</g>
<!-- Node2 -->
<g id="node2" class="node">
<title>Node2</title>
<g id="a_node2"><a xlink:href="../../df/d61/classOmniboxTextView.html#a3950120250065499157f233f9fe78787" target="_top" xlink:title=" ">
<polygon fill="white" stroke="black" points="759,-287 759,-306 913,-306 913,-287 759,-287"/>
<text text-anchor="middle" x="836" y="-294" font-family="Helvetica,sans-Serif" font-size="10.00">OmniboxTextView::AppendText</text>
</a>
</g>
</g>
<!-- Node1&#45;&gt;Node2 -->
<g id="edge1" class="edge">
<title>Node1&#45;&gt;Node2</title>
<path fill="none" stroke="midnightblue" d="M998.89,-208.92C979.25,-226.49 945.9,-254.17 913,-271.5 900.96,-277.84 887,-283 874.35,-286.94"/>
<polygon fill="midnightblue" stroke="midnightblue" points="1001.39,-211.38 1006.43,-202.07 996.68,-206.21 1001.39,-211.38"/>
</g>
<!-- Node8 -->
<g id="node8" class="node">
<title>Node8</title>
<g id="a_node8"><a xlink:href="../../df/d61/classOmniboxTextView.html#ab4a4e30950e62e2b0afdb7dd025b60b9" target="_top" xlink:title=" ">
<polygon fill="white" stroke="black" points="763,-106.5 763,-136.5 909,-136.5 909,-106.5 763,-106.5"/>
<text text-anchor="start" x="771" y="-124.5" font-family="Helvetica,sans-Serif" font-size="10.00">OmniboxTextView::ApplyText</text>
<text text-anchor="middle" x="836" y="-113.5" font-family="Helvetica,sans-Serif" font-size="10.00">Color</text>
</a>
</g>
</g>
<!-- Node1&#45;&gt;Node8 -->
<g id="edge8" class="edge">
<title>Node1&#45;&gt;Node8</title>
<path fill="none" stroke="midnightblue" d="M988.21,-178.54C967.62,-168.65 938.93,-155.44 913,-145.5 904.86,-142.38 896.12,-139.34 887.58,-136.53"/>
<polygon fill="midnightblue" stroke="midnightblue" points="986.81,-181.75 997.34,-182.96 989.86,-175.45 986.81,-181.75"/>
</g>
<!-- Node19 -->
<g id="node19" class="node">
<title>Node19</title>
<g id="a_node19"><a xlink:href="../../d2/d0b/classOmniboxMatchCellView.html#aad6c52e6b7f33c899552b87c984baac7" target="_top" xlink:title=" ">
<polygon fill="white" stroke="black" points="775,-57.5 775,-87.5 897,-87.5 897,-57.5 775,-57.5"/>
<text text-anchor="start" x="783" y="-75.5" font-family="Helvetica,sans-Serif" font-size="10.00">OmniboxMatchCellView</text>
<text text-anchor="middle" x="836" y="-64.5" font-family="Helvetica,sans-Serif" font-size="10.00">::Layout</text>
</a>
</g>
</g>
<!-- Node1&#45;&gt;Node19 -->
<g id="edge20" class="edge">
<title>Node1&#45;&gt;Node19</title>
<path fill="none" stroke="midnightblue" d="M1002.2,-175.18C983.69,-153.81 949.47,-117.71 913,-96.5 907.14,-93.09 900.74,-90.11 894.22,-87.51"/>
<polygon fill="midnightblue" stroke="midnightblue" points="999.57,-177.48 1008.71,-182.84 1004.9,-172.95 999.57,-177.48"/>
</g>
<!-- Node20 -->
<g id="node20" class="node">
<title>Node20</title>
<g id="a_node20"><a xlink:href="../../df/d61/classOmniboxTextView.html#a4a9387fda0670163402744192b5ef00f" target="_top" xlink:title=" ">
<polygon fill="white" stroke="black" points="767,-155.5 767,-185.5 905,-185.5 905,-155.5 767,-155.5"/>
<text text-anchor="start" x="775" y="-173.5" font-family="Helvetica,sans-Serif" font-size="10.00">OmniboxTextView::Reapply</text>
<text text-anchor="middle" x="836" y="-162.5" font-family="Helvetica,sans-Serif" font-size="10.00">Styling</text>
</a>
</g>
</g>
<!-- Node1&#45;&gt;Node20 -->
<g id="edge21" class="edge">
<title>Node1&#45;&gt;Node20</title>
<path fill="none" stroke="midnightblue" d="M938.72,-182.97C927.54,-181.6 916.11,-180.2 905.14,-178.85"/>
<polygon fill="midnightblue" stroke="midnightblue" points="938.54,-186.47 948.89,-184.21 939.39,-179.52 938.54,-186.47"/>
</g>
<!-- Node21 -->
<g id="node21" class="node">
<title>Node21</title>
<g id="a_node21"><a xlink:href="../../df/d61/classOmniboxTextView.html#a4d5871e09a604d986582d74446d37b6a" target="_top" xlink:title=" ">
<polygon fill="white" stroke="black" points="566.5,-188.5 566.5,-218.5 702.5,-218.5 702.5,-188.5 566.5,-188.5"/>
<text text-anchor="start" x="574.5" y="-206.5" font-family="Helvetica,sans-Serif" font-size="10.00">OmniboxTextView::SetText</text>
<text text-anchor="middle" x="634.5" y="-195.5" font-family="Helvetica,sans-Serif" font-size="10.00">WithStyling</text>
</a>
</g>
</g>
<!-- Node1&#45;&gt;Node21 -->
<g id="edge29" class="edge">
<title>Node1&#45;&gt;Node21</title>
<path fill="none" stroke="midnightblue" d="M938.81,-194.74C869.33,-196.75 768.57,-199.66 702.55,-201.56"/>
<polygon fill="midnightblue" stroke="midnightblue" points="938.93,-198.24 948.82,-194.45 938.73,-191.24 938.93,-198.24"/>
</g>
<!-- Node22 -->
<g id="node22" class="node">
<title>Node22</title>
<g id="a_node22"><a xlink:href="../../df/d61/classOmniboxTextView.html#a93d96652dc27ccb626cc00109c76db6e" target="_top" xlink:title=" ">
<polygon fill="white" stroke="black" points="768,-243 768,-262 904,-262 904,-243 768,-243"/>
<text text-anchor="middle" x="836" y="-250" font-family="Helvetica,sans-Serif" font-size="10.00">OmniboxTextView::SetText</text>
</a>
</g>
</g>
<!-- Node1&#45;&gt;Node22 -->
<g id="edge25" class="edge">
<title>Node1&#45;&gt;Node22</title>
<path fill="none" stroke="midnightblue" d="M980.2,-205.41C960.39,-212.39 935.4,-221.07 913,-228.5 898.29,-233.38 881.91,-238.58 868.13,-242.89"/>
<polygon fill="midnightblue" stroke="midnightblue" points="981.5,-208.67 989.77,-202.04 979.17,-202.06 981.5,-208.67"/>
</g>
<!-- Node3 -->
<g id="node3" class="node">
<title>Node3</title>
<g id="a_node3"><a xlink:href="../../df/d61/classOmniboxTextView.html#af8c8d7300d45d3ffebf8d0e96a1739f7" target="_top" xlink:title=" ">
<polygon fill="white" stroke="black" points="546,-287 546,-306 723,-306 723,-287 546,-287"/>
<text text-anchor="middle" x="634.5" y="-294" font-family="Helvetica,sans-Serif" font-size="10.00">OmniboxTextView::AppendExtraText</text>
</a>
</g>
</g>
<!-- Node2&#45;&gt;Node3 -->
<g id="edge2" class="edge">
<title>Node2&#45;&gt;Node3</title>
<path fill="none" stroke="midnightblue" d="M748.52,-296.5C740.08,-296.5 731.52,-296.5 723.07,-296.5"/>
<polygon fill="midnightblue" stroke="midnightblue" points="748.72,-300 758.72,-296.5 748.72,-293 748.72,-300"/>
</g>
<!-- Node7 -->
<g id="node7" class="node">
<title>Node7</title>
<g id="a_node7"><a xlink:href="../../df/d61/classOmniboxTextView.html#acb7d4836fcdf802acddcad050485b132" target="_top" xlink:title=" ">
<polygon fill="white" stroke="black" points="374,-307.5 374,-337.5 510,-337.5 510,-307.5 374,-307.5"/>
<text text-anchor="start" x="382" y="-325.5" font-family="Helvetica,sans-Serif" font-size="10.00">OmniboxTextView::SetText</text>
<text text-anchor="middle" x="442" y="-314.5" font-family="Helvetica,sans-Serif" font-size="10.00">WithStyling</text>
</a>
</g>
</g>
<!-- Node2&#45;&gt;Node7 -->
<g id="edge7" class="edge">
<title>Node2&#45;&gt;Node7</title>
<path fill="none" stroke="midnightblue" d="M777.97,-307.8C760.41,-310.84 740.97,-313.76 723,-315.5 650.52,-322.52 567.03,-323.72 510.2,-323.51"/>
<polygon fill="midnightblue" stroke="midnightblue" points="778.83,-311.2 788.06,-306 777.6,-304.31 778.83,-311.2"/>
</g>
<!-- Node4 -->
<g id="node4" class="node">
<title>Node4</title>
<g id="a_node4"><a xlink:href="../../d3/d4c/classOmniboxResultView.html#ad0185705673042dc89733278acc080e5" target="_top" xlink:title=" ">
<polygon fill="white" stroke="black" points="386,-196.5 386,-226.5 498,-226.5 498,-196.5 386,-196.5"/>
<text text-anchor="start" x="394" y="-214.5" font-family="Helvetica,sans-Serif" font-size="10.00">OmniboxResultView::</text>
<text text-anchor="middle" x="442" y="-203.5" font-family="Helvetica,sans-Serif" font-size="10.00">SetMatch</text>
</a>
</g>
</g>
<!-- Node3&#45;&gt;Node4 -->
<g id="edge3" class="edge">
<title>Node3&#45;&gt;Node4</title>
<path fill="none" stroke="midnightblue" d="M557.64,-283.31C553.6,-281.6 549.69,-279.67 546,-277.5 525.1,-265.2 529.96,-250.27 510,-236.5 504.48,-232.69 498.31,-229.38 492.01,-226.52"/>
<polygon fill="midnightblue" stroke="midnightblue" points="556.67,-286.68 567.27,-286.9 559.12,-280.12 556.67,-286.68"/>
</g>
<!-- Node3&#45;&gt;Node7 -->
<g id="edge6" class="edge">
<title>Node3&#45;&gt;Node7</title>
<path fill="none" stroke="midnightblue" d="M553.32,-307.44C539,-309.4 524.22,-311.42 510.31,-313.31"/>
<polygon fill="midnightblue" stroke="midnightblue" points="554.21,-310.85 563.65,-306.03 553.27,-303.92 554.21,-310.85"/>
</g>
<!-- Node5 -->
<g id="node5" class="node">
<title>Node5</title>
<g id="a_node5"><a xlink:href="../../d7/d88/classOmniboxPopupContentsView.html#aa8f47263f229af6a469c3bf964b81162" target="_top" xlink:title=" ">
<polygon fill="white" stroke="black" points="187,-245.5 187,-275.5 332,-275.5 332,-245.5 187,-245.5"/>
<text text-anchor="start" x="195" y="-263.5" font-family="Helvetica,sans-Serif" font-size="10.00">OmniboxPopupContentsView</text>
<text text-anchor="middle" x="259.5" y="-252.5" font-family="Helvetica,sans-Serif" font-size="10.00">::UpdatePopupAppearance</text>
</a>
</g>
</g>
<!-- Node4&#45;&gt;Node5 -->
<g id="edge4" class="edge">
<title>Node4&#45;&gt;Node5</title>
<path fill="none" stroke="midnightblue" d="M376.05,-229.13C356.36,-234.48 334.93,-240.3 315.92,-245.45"/>
<polygon fill="midnightblue" stroke="midnightblue" points="377.13,-232.47 385.86,-226.47 375.3,-225.71 377.13,-232.47"/>
</g>
<!-- Node6 -->
<g id="node6" class="node">
<title>Node6</title>
<g id="a_node6"><a xlink:href="../../d7/d88/classOmniboxPopupContentsView.html#a0e658101bc19acb66f6e0915fd6c2fe3" target="_top" xlink:title=" ">
<polygon fill="white" stroke="black" points="0,-245.5 0,-275.5 145,-275.5 145,-245.5 0,-245.5"/>
<text text-anchor="start" x="8" y="-263.5" font-family="Helvetica,sans-Serif" font-size="10.00">OmniboxPopupContentsView</text>
<text text-anchor="middle" x="72.5" y="-252.5" font-family="Helvetica,sans-Serif" font-size="10.00">::OnWidgetBoundsChanged</text>
</a>
</g>
</g>
<!-- Node5&#45;&gt;Node6 -->
<g id="edge5" class="edge">
<title>Node5&#45;&gt;Node6</title>
<path fill="none" stroke="midnightblue" d="M176.9,-260.5C166.32,-260.5 155.55,-260.5 145.14,-260.5"/>
<polygon fill="midnightblue" stroke="midnightblue" points="176.97,-264 186.97,-260.5 176.97,-257 176.97,-264"/>
</g>
<!-- Node9 -->
<g id="node9" class="node">
<title>Node9</title>
<g id="a_node9"><a xlink:href="../../d3/d4c/classOmniboxResultView.html#a8de71e6a812c40cd5857e33c36b465ed" target="_top" xlink:title=" ">
<polygon fill="white" stroke="black" points="561,-106.5 561,-136.5 708,-136.5 708,-106.5 561,-106.5"/>
<text text-anchor="start" x="569" y="-124.5" font-family="Helvetica,sans-Serif" font-size="10.00">OmniboxResultView::</text>
<text text-anchor="middle" x="634.5" y="-113.5" font-family="Helvetica,sans-Serif" font-size="10.00">ApplyThemeAndRefreshIcons</text>
</a>
</g>
</g>
<!-- Node8&#45;&gt;Node9 -->
<g id="edge9" class="edge">
<title>Node8&#45;&gt;Node9</title>
<path fill="none" stroke="midnightblue" d="M752.81,-121.5C737.98,-121.5 722.62,-121.5 708.09,-121.5"/>
<polygon fill="midnightblue" stroke="midnightblue" points="752.98,-125 762.98,-121.5 752.98,-118 752.98,-125"/>
</g>
<!-- Node9&#45;&gt;Node4 -->
<g id="edge15" class="edge">
<title>Node9&#45;&gt;Node4</title>
<path fill="none" stroke="midnightblue" d="M598.13,-141.66C573.75,-155.16 540.4,-172.9 510,-186.5 502.29,-189.95 493.95,-193.33 485.86,-196.43"/>
<polygon fill="midnightblue" stroke="midnightblue" points="599.98,-144.63 607.01,-136.71 596.57,-138.52 599.98,-144.63"/>
</g>
<!-- Node10 -->
<g id="node10" class="node">
<title>Node10</title>
<g id="a_node10"><a xlink:href="../../d3/d4c/classOmniboxResultView.html#a291a79fc8a0132ef655f60a5a57e3fc1" target="_top" xlink:title=" ">
<polygon fill="white" stroke="black" points="386,-98.5 386,-128.5 498,-128.5 498,-98.5 386,-98.5"/>
<text text-anchor="start" x="394" y="-116.5" font-family="Helvetica,sans-Serif" font-size="10.00">OmniboxResultView::</text>
<text text-anchor="middle" x="442" y="-105.5" font-family="Helvetica,sans-Serif" font-size="10.00">OnMatchIconUpdated</text>
</a>
</g>
</g>
<!-- Node9&#45;&gt;Node10 -->
<g id="edge10" class="edge">
<title>Node9&#45;&gt;Node10</title>
<path fill="none" stroke="midnightblue" d="M550.58,-118.02C532.86,-117.27 514.55,-116.5 498.17,-115.82"/>
<polygon fill="midnightblue" stroke="midnightblue" points="550.8,-121.53 560.94,-118.45 551.09,-114.54 550.8,-121.53"/>
</g>
<!-- Node12 -->
<g id="node12" class="node">
<title>Node12</title>
<g id="a_node12"><a xlink:href="../../d3/d4c/classOmniboxResultView.html#a516affe0ed43559711704018b03c20b7" target="_top" xlink:title=" ">
<polygon fill="white" stroke="black" points="376,-49.5 376,-79.5 508,-79.5 508,-49.5 376,-49.5"/>
<text text-anchor="start" x="384" y="-67.5" font-family="Helvetica,sans-Serif" font-size="10.00">OmniboxResultView::</text>
<text text-anchor="middle" x="442" y="-56.5" font-family="Helvetica,sans-Serif" font-size="10.00">OnSelectionStateChanged</text>
</a>
</g>
</g>
<!-- Node9&#45;&gt;Node12 -->
<g id="edge12" class="edge">
<title>Node9&#45;&gt;Node12</title>
<path fill="none" stroke="midnightblue" d="M573.52,-103.55C547.71,-95.83 517.88,-86.9 493.25,-79.54"/>
<polygon fill="midnightblue" stroke="midnightblue" points="572.62,-106.94 583.2,-106.45 574.62,-100.23 572.62,-106.94"/>
</g>
<!-- Node14 -->
<g id="node14" class="node">
<title>Node14</title>
<g id="a_node14"><a xlink:href="../../d3/d4c/classOmniboxResultView.html#aee5f5954efee89626ba0fa2044538467" target="_top" xlink:title=" ">
<polygon fill="white" stroke="black" points="386,-0.5 386,-30.5 498,-30.5 498,-0.5 386,-0.5"/>
<text text-anchor="start" x="394" y="-18.5" font-family="Helvetica,sans-Serif" font-size="10.00">OmniboxResultView::</text>
<text text-anchor="middle" x="442" y="-7.5" font-family="Helvetica,sans-Serif" font-size="10.00">OnThemeChanged</text>
</a>
</g>
</g>
<!-- Node9&#45;&gt;Node14 -->
<g id="edge14" class="edge">
<title>Node9&#45;&gt;Node14</title>
<path fill="none" stroke="midnightblue" d="M605.83,-100.29C581.55,-82.39 544.78,-56.95 510,-39.5 503.59,-36.29 496.65,-33.3 489.75,-30.59"/>
<polygon fill="midnightblue" stroke="midnightblue" points="603.76,-103.12 613.87,-106.28 607.95,-97.5 603.76,-103.12"/>
</g>
<!-- Node15 -->
<g id="node15" class="node">
<title>Node15</title>
<g id="a_node15"><a xlink:href="../../d3/d4c/classOmniboxResultView.html#a15ea8940c53d801afdd7e1fe6d94c2e0" target="_top" xlink:title=" ">
<polygon fill="white" stroke="black" points="386,-147.5 386,-177.5 498,-177.5 498,-147.5 386,-147.5"/>
<text text-anchor="start" x="394" y="-165.5" font-family="Helvetica,sans-Serif" font-size="10.00">OmniboxResultView::</text>
<text text-anchor="middle" x="442" y="-154.5" font-family="Helvetica,sans-Serif" font-size="10.00">UpdateHoverState</text>
</a>
</g>
</g>
<!-- Node9&#45;&gt;Node15 -->
<g id="edge16" class="edge">
<title>Node9&#45;&gt;Node15</title>
<path fill="none" stroke="midnightblue" d="M553.68,-138.68C535.02,-142.69 515.55,-146.89 498.23,-150.61"/>
<polygon fill="midnightblue" stroke="midnightblue" points="554.61,-142.06 563.65,-136.53 553.13,-135.22 554.61,-142.06"/>
</g>
<!-- Node11 -->
<g id="node11" class="node">
<title>Node11</title>
<g id="a_node11"><a xlink:href="../../d7/d88/classOmniboxPopupContentsView.html#a3f3538f29fd10e593d39a3a456d116b6" target="_top" xlink:title=" ">
<polygon fill="white" stroke="black" points="187,-49.5 187,-79.5 332,-79.5 332,-49.5 187,-49.5"/>
<text text-anchor="start" x="195" y="-67.5" font-family="Helvetica,sans-Serif" font-size="10.00">OmniboxPopupContentsView</text>
<text text-anchor="middle" x="259.5" y="-56.5" font-family="Helvetica,sans-Serif" font-size="10.00">::OnMatchIconUpdated</text>
</a>
</g>
</g>
<!-- Node10&#45;&gt;Node11 -->
<g id="edge11" class="edge">
<title>Node10&#45;&gt;Node11</title>
<path fill="none" stroke="midnightblue" d="M376.05,-95.87C356.36,-90.52 334.93,-84.7 315.92,-79.55"/>
<polygon fill="midnightblue" stroke="midnightblue" points="375.3,-99.29 385.86,-98.53 377.13,-92.53 375.3,-99.29"/>
</g>
<!-- Node13 -->
<g id="node13" class="node">
<title>Node13</title>
<g id="a_node13"><a xlink:href="../../da/da2/classOmniboxRowView.html#a2b9d0b0fce1926c058199484af89949d" target="_top" xlink:title=" ">
<polygon fill="white" stroke="black" points="181,-0.5 181,-30.5 338,-30.5 338,-0.5 181,-0.5"/>
<text text-anchor="start" x="189" y="-18.5" font-family="Helvetica,sans-Serif" font-size="10.00">OmniboxRowView::OnSelection</text>
<text text-anchor="middle" x="259.5" y="-7.5" font-family="Helvetica,sans-Serif" font-size="10.00">StateChanged</text>
</a>
</g>
</g>
<!-- Node12&#45;&gt;Node13 -->
<g id="edge13" class="edge">
<title>Node12&#45;&gt;Node13</title>
<path fill="none" stroke="midnightblue" d="M375.62,-46.75C356.06,-41.44 334.8,-35.67 315.95,-30.55"/>
<polygon fill="midnightblue" stroke="midnightblue" points="374.8,-50.16 385.37,-49.4 376.64,-43.4 374.8,-50.16"/>
</g>
<!-- Node16 -->
<g id="node16" class="node">
<title>Node16</title>
<g id="a_node16"><a xlink:href="../../d3/d4c/classOmniboxResultView.html#adfc2b5da2f71c87fa3d391a32bc5ebf9" target="_top" xlink:title=" ">
<polygon fill="white" stroke="black" points="203.5,-196.5 203.5,-226.5 315.5,-226.5 315.5,-196.5 203.5,-196.5"/>
<text text-anchor="start" x="211.5" y="-214.5" font-family="Helvetica,sans-Serif" font-size="10.00">OmniboxResultView::</text>
<text text-anchor="middle" x="259.5" y="-203.5" font-family="Helvetica,sans-Serif" font-size="10.00">OnMouseDragged</text>
</a>
</g>
</g>
<!-- Node15&#45;&gt;Node16 -->
<g id="edge17" class="edge">
<title>Node15&#45;&gt;Node16</title>
<path fill="none" stroke="midnightblue" d="M376.01,-180.14C356.22,-185.51 334.68,-191.36 315.61,-196.54"/>
<polygon fill="midnightblue" stroke="midnightblue" points="377.13,-183.47 385.86,-177.47 375.3,-176.71 377.13,-183.47"/>
</g>
<!-- Node17 -->
<g id="node17" class="node">
<title>Node17</title>
<g id="a_node17"><a xlink:href="../../d3/d4c/classOmniboxResultView.html#a201378b2282d4d6cf4492f6df7636490" target="_top" xlink:title=" ">
<polygon fill="white" stroke="black" points="203.5,-147.5 203.5,-177.5 315.5,-177.5 315.5,-147.5 203.5,-147.5"/>
<text text-anchor="start" x="211.5" y="-165.5" font-family="Helvetica,sans-Serif" font-size="10.00">OmniboxResultView::</text>
<text text-anchor="middle" x="259.5" y="-154.5" font-family="Helvetica,sans-Serif" font-size="10.00">OnMouseEntered</text>
</a>
</g>
</g>
<!-- Node15&#45;&gt;Node17 -->
<g id="edge18" class="edge">
<title>Node15&#45;&gt;Node17</title>
<path fill="none" stroke="midnightblue" d="M375.74,-162.5C356.03,-162.5 334.59,-162.5 315.61,-162.5"/>
<polygon fill="midnightblue" stroke="midnightblue" points="375.86,-166 385.86,-162.5 375.86,-159 375.86,-166"/>
</g>
<!-- Node18 -->
<g id="node18" class="node">
<title>Node18</title>
<g id="a_node18"><a xlink:href="../../d3/d4c/classOmniboxResultView.html#a70322ccbbe5e2f0bbc94d35b17c70553" target="_top" xlink:title=" ">
<polygon fill="white" stroke="black" points="203.5,-98.5 203.5,-128.5 315.5,-128.5 315.5,-98.5 203.5,-98.5"/>
<text text-anchor="start" x="211.5" y="-116.5" font-family="Helvetica,sans-Serif" font-size="10.00">OmniboxResultView::</text>
<text text-anchor="middle" x="259.5" y="-105.5" font-family="Helvetica,sans-Serif" font-size="10.00">OnMouseExited</text>
</a>
</g>
</g>
<!-- Node15&#45;&gt;Node18 -->
<g id="edge19" class="edge">
<title>Node15&#45;&gt;Node18</title>
<path fill="none" stroke="midnightblue" d="M376.01,-144.86C356.22,-139.49 334.68,-133.64 315.61,-128.46"/>
<polygon fill="midnightblue" stroke="midnightblue" points="375.3,-148.29 385.86,-147.53 377.13,-141.53 375.3,-148.29"/>
</g>
<!-- Node20&#45;&gt;Node9 -->
<g id="edge22" class="edge">
<title>Node20&#45;&gt;Node9</title>
<path fill="none" stroke="midnightblue" d="M763.84,-153.02C741.86,-147.62 717.84,-141.72 696.6,-136.51"/>
<polygon fill="midnightblue" stroke="midnightblue" points="763.24,-156.48 773.79,-155.47 764.91,-149.68 763.24,-156.48"/>
</g>
<!-- Node20&#45;&gt;Node21 -->
<g id="edge23" class="edge">
<title>Node20&#45;&gt;Node21</title>
<path fill="none" stroke="midnightblue" d="M757.03,-183.4C739.05,-186.37 720.08,-189.51 702.62,-192.4"/>
<polygon fill="midnightblue" stroke="midnightblue" points="757.61,-186.85 766.9,-181.76 756.46,-179.94 757.61,-186.85"/>
</g>
<!-- Node21&#45;&gt;Node4 -->
<g id="edge24" class="edge">
<title>Node21&#45;&gt;Node4</title>
<path fill="none" stroke="midnightblue" d="M556.28,-206.74C536.84,-207.56 516.36,-208.42 498.24,-209.18"/>
<polygon fill="midnightblue" stroke="midnightblue" points="556.49,-210.24 566.34,-206.32 556.2,-203.24 556.49,-210.24"/>
</g>
<!-- Node23 -->
<g id="node23" class="node">
<title>Node23</title>
<g id="a_node23"><a xlink:href="../../d2/d0b/classOmniboxMatchCellView.html#a00e0a4ed5e7bb042c1a88eab2862fc0b" target="_top" xlink:title=" ">
<polygon fill="white" stroke="black" points="570.5,-237.5 570.5,-267.5 698.5,-267.5 698.5,-237.5 570.5,-237.5"/>
<text text-anchor="start" x="578.5" y="-255.5" font-family="Helvetica,sans-Serif" font-size="10.00">OmniboxMatchCellView</text>
<text text-anchor="middle" x="634.5" y="-244.5" font-family="Helvetica,sans-Serif" font-size="10.00">::OmniboxMatchCellView</text>
</a>
</g>
</g>
<!-- Node22&#45;&gt;Node23 -->
<g id="edge26" class="edge">
<title>Node22&#45;&gt;Node23</title>
<path fill="none" stroke="midnightblue" d="M757.67,-252.5C738.18,-252.5 717.48,-252.5 698.77,-252.5"/>
<polygon fill="midnightblue" stroke="midnightblue" points="757.74,-256 767.74,-252.5 757.74,-249 757.74,-256"/>
</g>
<!-- Node24 -->
<g id="node24" class="node">
<title>Node24</title>
<g id="a_node24"><a xlink:href="../../d3/d4c/classOmniboxResultView.html#a6768271ee0b1e6baa07eb56bbb74882d" target="_top" xlink:title=" ">
<polygon fill="white" stroke="black" points="386,-245.5 386,-275.5 498,-275.5 498,-245.5 386,-245.5"/>
<text text-anchor="start" x="394" y="-263.5" font-family="Helvetica,sans-Serif" font-size="10.00">OmniboxResultView::</text>
<text text-anchor="middle" x="442" y="-252.5" font-family="Helvetica,sans-Serif" font-size="10.00">OmniboxResultView</text>
</a>
</g>
</g>
<!-- Node23&#45;&gt;Node24 -->
<g id="edge27" class="edge">
<title>Node23&#45;&gt;Node24</title>
<path fill="none" stroke="midnightblue" d="M560.31,-255.57C539.61,-256.44 517.44,-257.37 498.01,-258.19"/>
<polygon fill="midnightblue" stroke="midnightblue" points="560.49,-259.07 570.33,-255.15 560.19,-252.08 560.49,-259.07"/>
</g>
<!-- Node24&#45;&gt;Node5 -->
<g id="edge28" class="edge">
<title>Node24&#45;&gt;Node5</title>
<path fill="none" stroke="midnightblue" d="M375.76,-260.5C361.64,-260.5 346.63,-260.5 332.28,-260.5"/>
<polygon fill="midnightblue" stroke="midnightblue" points="375.86,-264 385.86,-260.5 375.86,-257 375.86,-264"/>
</g>
</g>
</svg>
        <g id="navigator" transform="translate(0 0)" fill="#404254">
                <rect fill="#f2f5e9" fill-opacity="0.5" stroke="#606060" stroke-width=".5" x="0" y="0" width="60" height="60"/>
                <use id="zoomplus" xlink:href="#zoomPlus" x="17" y="9" onmousedown="handleZoom(evt,'in')"/>
                <use id="zoomminus" xlink:href="#zoomMin" x="42" y="9" onmousedown="handleZoom(evt,'out')"/>
                <use id="reset" xlink:href="#resetDef" x="30" y="36" onmousedown="handleReset()"/>
                <g id="arrowUp" xlink:href="#dirArrow" transform="translate(30 24)" onmousedown="handlePan(0,-1)">
                  <use xlink:href="#rim" fill="#404040">
                        <set attributeName="fill" to="#808080" begin="arrowUp.mouseover" end="arrowUp.mouseout"/>
                  </use>
                  <path fill="none" stroke="white" stroke-width="1.5" d="M0,-3.0v7 M-2.5,-0.5L0,-3.0L2.5,-0.5"/>
                </g>
                <g id="arrowRight" xlink:href="#dirArrow" transform="rotate(90) translate(36 -43)" onmousedown="handlePan(1,0)">
                  <use xlink:href="#rim" fill="#404040">
                        <set attributeName="fill" to="#808080" begin="arrowRight.mouseover" end="arrowRight.mouseout"/>
                  </use>
                  <path fill="none" stroke="white" stroke-width="1.5" d="M0,-3.0v7 M-2.5,-0.5L0,-3.0L2.5,-0.5"/>
                </g>
                <g id="arrowDown" xlink:href="#dirArrow" transform="rotate(180) translate(-30 -48)" onmousedown="handlePan(0,1)">
                  <use xlink:href="#rim" fill="#404040">
                        <set attributeName="fill" to="#808080" begin="arrowDown.mouseover" end="arrowDown.mouseout"/>
                  </use>
                  <path fill="none" stroke="white" stroke-width="1.5" d="M0,-3.0v7 M-2.5,-0.5L0,-3.0L2.5,-0.5"/>
                </g>
                <g id="arrowLeft" xlink:href="#dirArrow" transform="rotate(270) translate(-36 17)" onmousedown="handlePan(-1,0)">
                  <use xlink:href="#rim" fill="#404040">
                        <set attributeName="fill" to="#808080" begin="arrowLeft.mouseover" end="arrowLeft.mouseout"/>
                  </use>
                  <path fill="none" stroke="white" stroke-width="1.5" d="M0,-3.0v7 M-2.5,-0.5L0,-3.0L2.5,-0.5"/>
                </g>
        </g>
        <svg viewBox="0 0 15 15" width="100%" height="30px" preserveAspectRatio="xMaxYMin meet">
         <g id="arrow_out" transform="scale(0.3 0.3)">
          <a xlink:href="classOmniboxTextView_a4298c267872d7618353c03a0f31560e2_icgraph_org.svg" target="_base">
           <rect id="button" ry="5" rx="5" y="6" x="6" height="38" width="38"
                fill="#f2f5e9" fill-opacity="0.5" stroke="#606060" stroke-width="1.0"/>
           <path id="arrow"
             d="M 11.500037,31.436501 C 11.940474,20.09759 22.043105,11.32322 32.158766,21.979434 L 37.068811,17.246167 C 37.068811,17.246167 37.088388,32 37.088388,32 L 22.160133,31.978069 C 22.160133,31.978069 26.997745,27.140456 26.997745,27.140456 C 18.528582,18.264221 13.291696,25.230495 11.500037,31.436501 z"
             style="fill:#404040;"/>
          </a>
         </g>
        </svg>
</svg>
