<?xml version="1.0" encoding="UTF-8" standalone="no"?>
<!DOCTYPE svg PUBLIC "-//W3C//DTD SVG 1.1//EN"
 "http://www.w3.org/Graphics/SVG/1.1/DTD/svg11.dtd">
<!-- Generated by graphviz version 2.43.0 (0)
 -->
<!-- Title: AutocompleteMatch::SanitizeString Pages: 1 -->
<!--zoomable 512 -->
<svg id="main" version="1.1" xmlns="http://www.w3.org/2000/svg" xmlns:xlink="http://www.w3.org/1999/xlink" xml:space="preserve" onload="init(evt)">
<style type="text/css"><![CDATA[
.edge:hover path { stroke: red; }
.edge:hover polygon { stroke: red; fill: red; }
]]></style>
<script type="text/javascript"><![CDATA[
var edges = document.getElementsByTagName('g');
if (edges && edges.length) {
  for (var i=0;i<edges.length;i++) {
    if (edges[i].id.substr(0,4)=='edge') {
      edges[i].setAttribute('class','edge');
    }
  }
}
]]></script>
        <defs>
                <circle id="rim" cx="0" cy="0" r="7"/>
                <circle id="rim2" cx="0" cy="0" r="3.5"/>
                <g id="zoomPlus">
                        <use xlink:href="#rim" fill="#404040">
                                <set attributeName="fill" to="#808080" begin="zoomplus.mouseover" end="zoomplus.mouseout"/>
                        </use>
                        <path d="M-4,0h8M0,-4v8" fill="none" stroke="white" stroke-width="1.5" pointer-events="none"/>
                </g>
                <g id="zoomMin">
                        <use xlink:href="#rim" fill="#404040">
                                <set attributeName="fill" to="#808080" begin="zoomminus.mouseover" end="zoomminus.mouseout"/>
                        </use>
                        <path d="M-4,0h8" fill="none" stroke="white" stroke-width="1.5" pointer-events="none"/>
                </g>
                <g id="dirArrow">
                        <path fill="none" stroke="white" stroke-width="1.5" d="M0,-3.0v7 M-2.5,-0.5L0,-3.0L2.5,-0.5"/>
                </g>
               <g id="resetDef">
                       <use xlink:href="#rim2" fill="#404040">
                               <set attributeName="fill" to="#808080" begin="reset.mouseover" end="reset.mouseout"/>
                       </use>
               </g>
        </defs>

<script type="text/javascript">
var viewWidth = 2334;
var viewHeight = 512;
var sectionId = 'dynsection-51';
</script>
<script xlink:href="../../svgpan.js"/>
<svg id="graph" class="graph">
<g id="viewport">
<title>AutocompleteMatch::SanitizeString</title>
<polygon fill="white" stroke="transparent" points="-4,4 -4,-508 2330,-508 2330,4 -4,4"/>
<!-- Node1 -->
<g id="node1" class="node">
<title>Node1</title>
<g id="a_node1"><a xlink:title=" ">
<polygon fill="#bfbfbf" stroke="black" points="2216,-124.5 2216,-154.5 2326,-154.5 2326,-124.5 2216,-124.5"/>
<text text-anchor="start" x="2224" y="-142.5" font-family="Helvetica,sans-Serif" font-size="10.00">AutocompleteMatch::</text>
<text text-anchor="middle" x="2271" y="-131.5" font-family="Helvetica,sans-Serif" font-size="10.00">SanitizeString</text>
</a>
</g>
</g>
<!-- Node2 -->
<g id="node2" class="node">
<title>Node2</title>
<g id="a_node2"><a xlink:href="../../d3/d03/classAutocompleteResult.html#a685ccd33a0869e09192b0658beed97fd" target="_top" xlink:title=" ">
<polygon fill="white" stroke="black" points="2040.5,-279.5 2040.5,-309.5 2145.5,-309.5 2145.5,-279.5 2040.5,-279.5"/>
<text text-anchor="start" x="2048.5" y="-297.5" font-family="Helvetica,sans-Serif" font-size="10.00">AutocompleteResult</text>
<text text-anchor="middle" x="2093" y="-286.5" font-family="Helvetica,sans-Serif" font-size="10.00">::AppendMatches</text>
</a>
</g>
</g>
<!-- Node1&#45;&gt;Node2 -->
<g id="edge1" class="edge">
<title>Node1&#45;&gt;Node2</title>
<path fill="none" stroke="midnightblue" d="M2245.13,-161.4C2208.92,-193.29 2142.6,-251.7 2111.27,-279.29"/>
<polygon fill="midnightblue" stroke="midnightblue" points="2247.61,-163.88 2252.8,-154.64 2242.99,-158.63 2247.61,-163.88"/>
</g>
<!-- Node31 -->
<g id="node31" class="node">
<title>Node31</title>
<g id="a_node31"><a xlink:href="../../d3/dbc/classZeroSuggestProvider.html#ae4952e7591d0a0a8638e59efc012057b" target="_top" xlink:title=" ">
<polygon fill="white" stroke="black" points="2039,-150.5 2039,-180.5 2147,-180.5 2147,-150.5 2039,-150.5"/>
<text text-anchor="start" x="2047" y="-168.5" font-family="Helvetica,sans-Serif" font-size="10.00">ZeroSuggestProvider</text>
<text text-anchor="middle" x="2093" y="-157.5" font-family="Helvetica,sans-Serif" font-size="10.00">::NavigationToMatch</text>
</a>
</g>
</g>
<!-- Node1&#45;&gt;Node31 -->
<g id="edge35" class="edge">
<title>Node1&#45;&gt;Node31</title>
<path fill="none" stroke="midnightblue" d="M2205.85,-148.98C2186.57,-151.82 2165.64,-154.92 2147.16,-157.65"/>
<polygon fill="midnightblue" stroke="midnightblue" points="2206.38,-152.44 2215.76,-147.51 2205.35,-145.51 2206.38,-152.44"/>
</g>
<!-- Node37 -->
<g id="node37" class="node">
<title>Node37</title>
<g id="a_node37"><a xlink:href="../../dc/dfa/classDocumentProvider.html#af3f28f0db7d2555450a770571288099d" target="_top" xlink:title=" ">
<polygon fill="white" stroke="black" points="2006,-100.5 2006,-130.5 2180,-130.5 2180,-100.5 2006,-100.5"/>
<text text-anchor="start" x="2014" y="-118.5" font-family="Helvetica,sans-Serif" font-size="10.00">DocumentProvider::ParseDocument</text>
<text text-anchor="middle" x="2093" y="-107.5" font-family="Helvetica,sans-Serif" font-size="10.00">SearchResults</text>
</a>
</g>
</g>
<!-- Node1&#45;&gt;Node37 -->
<g id="edge42" class="edge">
<title>Node1&#45;&gt;Node37</title>
<path fill="none" stroke="midnightblue" d="M2205.75,-130.74C2197.4,-129.6 2188.75,-128.42 2180.11,-127.24"/>
<polygon fill="midnightblue" stroke="midnightblue" points="2205.38,-134.22 2215.76,-132.1 2206.32,-127.28 2205.38,-134.22"/>
</g>
<!-- Node42 -->
<g id="node42" class="node">
<title>Node42</title>
<g id="a_node42"><a xlink:href="../../dd/dfc/classClipboardProvider.html#aa28c548f121590c796e31c5d1ae43f33" target="_top" xlink:title=" ">
<polygon fill="white" stroke="black" points="2021.5,-49.5 2021.5,-79.5 2164.5,-79.5 2164.5,-49.5 2021.5,-49.5"/>
<text text-anchor="start" x="2029.5" y="-67.5" font-family="Helvetica,sans-Serif" font-size="10.00">ClipboardProvider::</text>
<text text-anchor="middle" x="2093" y="-56.5" font-family="Helvetica,sans-Serif" font-size="10.00">UpdateClipboardTextContent</text>
</a>
</g>
</g>
<!-- Node1&#45;&gt;Node42 -->
<g id="edge47" class="edge">
<title>Node1&#45;&gt;Node42</title>
<path fill="none" stroke="midnightblue" d="M2236.67,-119.23C2220.05,-109.67 2199.39,-98.61 2180,-90.5 2170.5,-86.53 2160.19,-82.88 2150.1,-79.64"/>
<polygon fill="midnightblue" stroke="midnightblue" points="2235.06,-122.34 2245.46,-124.35 2238.59,-116.29 2235.06,-122.34"/>
</g>
<!-- Node3 -->
<g id="node3" class="node">
<title>Node3</title>
<g id="a_node3"><a xlink:href="../../d0/d22/classOmniboxEditModel.html#a2048ac3eb134371876a1517bba0eb54a" target="_top" xlink:title=" ">
<polygon fill="white" stroke="black" points="1198,-380 1198,-399 1353,-399 1353,-380 1198,-380"/>
<text text-anchor="middle" x="1275.5" y="-387" font-family="Helvetica,sans-Serif" font-size="10.00">OmniboxEditModel::OpenMatch</text>
</a>
</g>
</g>
<!-- Node2&#45;&gt;Node3 -->
<g id="edge2" class="edge">
<title>Node2&#45;&gt;Node3</title>
<path fill="none" stroke="midnightblue" d="M2030.36,-311.34C1963.03,-328.94 1851.73,-355.75 1754,-368.5 1613.5,-386.83 1448,-390.05 1353.35,-390.16"/>
<polygon fill="midnightblue" stroke="midnightblue" points="2031.59,-314.63 2040.37,-308.7 2029.81,-307.86 2031.59,-314.63"/>
</g>
<!-- Node15 -->
<g id="node15" class="node">
<title>Node15</title>
<g id="a_node15"><a xlink:href="../../df/d4d/classAutocompleteController.html#a4bd8523f1764eb72920409795b1fb1df" target="_top" xlink:title=" ">
<polygon fill="white" stroke="black" points="1820.5,-279.5 1820.5,-309.5 1939.5,-309.5 1939.5,-279.5 1820.5,-279.5"/>
<text text-anchor="start" x="1828.5" y="-297.5" font-family="Helvetica,sans-Serif" font-size="10.00">AutocompleteController</text>
<text text-anchor="middle" x="1880" y="-286.5" font-family="Helvetica,sans-Serif" font-size="10.00">::UpdateResult</text>
</a>
</g>
</g>
<!-- Node2&#45;&gt;Node15 -->
<g id="edge16" class="edge">
<title>Node2&#45;&gt;Node15</title>
<path fill="none" stroke="midnightblue" d="M2030.1,-294.5C2001.5,-294.5 1967.71,-294.5 1939.53,-294.5"/>
<polygon fill="midnightblue" stroke="midnightblue" points="2030.38,-298 2040.38,-294.5 2030.38,-291 2030.38,-298"/>
</g>
<!-- Node4 -->
<g id="node4" class="node">
<title>Node4</title>
<g id="a_node4"><a xlink:href="../../d0/d22/classOmniboxEditModel.html#aeef542747913fd1ebe0edc5a9714095c" target="_top" xlink:title=" ">
<polygon fill="white" stroke="black" points="1021.5,-375.5 1021.5,-405.5 1156.5,-405.5 1156.5,-375.5 1021.5,-375.5"/>
<text text-anchor="start" x="1029.5" y="-393.5" font-family="Helvetica,sans-Serif" font-size="10.00">OmniboxEditModel::Trigger</text>
<text text-anchor="middle" x="1089" y="-382.5" font-family="Helvetica,sans-Serif" font-size="10.00">PopupSelectionAction</text>
</a>
</g>
</g>
<!-- Node3&#45;&gt;Node4 -->
<g id="edge3" class="edge">
<title>Node3&#45;&gt;Node4</title>
<path fill="none" stroke="midnightblue" d="M1187.54,-389.97C1177.18,-390.03 1166.72,-390.08 1156.7,-390.14"/>
<polygon fill="midnightblue" stroke="midnightblue" points="1187.88,-393.47 1197.86,-389.92 1187.84,-386.47 1187.88,-393.47"/>
</g>
<!-- Node5 -->
<g id="node5" class="node">
<title>Node5</title>
<g id="a_node5"><a xlink:href="../../d3/d4c/classOmniboxResultView.html#adea3835a2f2809073b71b101cfecc957" target="_top" xlink:title=" ">
<polygon fill="white" stroke="black" points="628.5,-473.5 628.5,-503.5 740.5,-503.5 740.5,-473.5 628.5,-473.5"/>
<text text-anchor="start" x="636.5" y="-491.5" font-family="Helvetica,sans-Serif" font-size="10.00">OmniboxResultView::</text>
<text text-anchor="middle" x="684.5" y="-480.5" font-family="Helvetica,sans-Serif" font-size="10.00">ButtonPressed</text>
</a>
</g>
</g>
<!-- Node4&#45;&gt;Node5 -->
<g id="edge4" class="edge">
<title>Node4&#45;&gt;Node5</title>
<path fill="none" stroke="midnightblue" d="M1064.34,-412.16C1043.72,-429.63 1012.15,-453.09 980,-464.5 900.35,-492.76 801.25,-494.59 740.72,-492.3"/>
<polygon fill="midnightblue" stroke="midnightblue" points="1066.69,-414.76 1071.95,-405.57 1062.1,-409.47 1066.69,-414.76"/>
</g>
<!-- Node9 -->
<g id="node9" class="node">
<title>Node9</title>
<g id="a_node9"><a xlink:href="../../d3/d0a/classOmniboxSuggestionButtonRowView.html#a7914dd2f389c98c28906ce05bacf84e5" target="_top" xlink:title=" ">
<polygon fill="white" stroke="black" points="824.5,-424.5 824.5,-454.5 977.5,-454.5 977.5,-424.5 824.5,-424.5"/>
<text text-anchor="start" x="832.5" y="-442.5" font-family="Helvetica,sans-Serif" font-size="10.00">OmniboxSuggestionButtonRow</text>
<text text-anchor="middle" x="901" y="-431.5" font-family="Helvetica,sans-Serif" font-size="10.00">View::ButtonPressed</text>
</a>
</g>
</g>
<!-- Node4&#45;&gt;Node9 -->
<g id="edge8" class="edge">
<title>Node4&#45;&gt;Node9</title>
<path fill="none" stroke="midnightblue" d="M1021.1,-408.12C1000.76,-413.48 978.59,-419.32 958.96,-424.49"/>
<polygon fill="midnightblue" stroke="midnightblue" points="1022.15,-411.47 1030.93,-405.53 1020.37,-404.7 1022.15,-411.47"/>
</g>
<!-- Node11 -->
<g id="node11" class="node">
<title>Node11</title>
<g id="a_node11"><a xlink:href="../../d2/dcb/classOmniboxRowView_1_1HeaderView.html#a441ded0bc83346ff1773063183d470f2" target="_top" xlink:title=" ">
<polygon fill="white" stroke="black" points="822.5,-375.5 822.5,-405.5 979.5,-405.5 979.5,-375.5 822.5,-375.5"/>
<text text-anchor="start" x="830.5" y="-393.5" font-family="Helvetica,sans-Serif" font-size="10.00">OmniboxRowView::HeaderView</text>
<text text-anchor="middle" x="901" y="-382.5" font-family="Helvetica,sans-Serif" font-size="10.00">::HeaderToggleButtonPressed</text>
</a>
</g>
</g>
<!-- Node4&#45;&gt;Node11 -->
<g id="edge11" class="edge">
<title>Node4&#45;&gt;Node11</title>
<path fill="none" stroke="midnightblue" d="M1011.08,-390.5C1000.67,-390.5 989.99,-390.5 979.57,-390.5"/>
<polygon fill="midnightblue" stroke="midnightblue" points="1011.38,-394 1021.38,-390.5 1011.38,-387 1011.38,-394"/>
</g>
<!-- Node14 -->
<g id="node14" class="node">
<title>Node14</title>
<g id="a_node14"><a xlink:href="../../d2/dcb/classOmniboxRowView_1_1HeaderView.html#af9e1207af3e2688cdccfd7b8c1267a3c" target="_top" xlink:title=" ">
<polygon fill="white" stroke="black" points="822.5,-326.5 822.5,-356.5 979.5,-356.5 979.5,-326.5 822.5,-326.5"/>
<text text-anchor="start" x="830.5" y="-344.5" font-family="Helvetica,sans-Serif" font-size="10.00">OmniboxRowView::HeaderView</text>
<text text-anchor="middle" x="901" y="-333.5" font-family="Helvetica,sans-Serif" font-size="10.00">::OnMouseReleased</text>
</a>
</g>
</g>
<!-- Node4&#45;&gt;Node14 -->
<g id="edge15" class="edge">
<title>Node4&#45;&gt;Node14</title>
<path fill="none" stroke="midnightblue" d="M1021.1,-372.88C1000.76,-367.52 978.59,-361.68 958.96,-356.51"/>
<polygon fill="midnightblue" stroke="midnightblue" points="1020.37,-376.3 1030.93,-375.47 1022.15,-369.53 1020.37,-376.3"/>
</g>
<!-- Node6 -->
<g id="node6" class="node">
<title>Node6</title>
<g id="a_node6"><a xlink:href="../../d3/d4c/classOmniboxResultView.html#a6768271ee0b1e6baa07eb56bbb74882d" target="_top" xlink:title=" ">
<polygon fill="white" stroke="black" points="410.5,-424.5 410.5,-454.5 522.5,-454.5 522.5,-424.5 410.5,-424.5"/>
<text text-anchor="start" x="418.5" y="-442.5" font-family="Helvetica,sans-Serif" font-size="10.00">OmniboxResultView::</text>
<text text-anchor="middle" x="466.5" y="-431.5" font-family="Helvetica,sans-Serif" font-size="10.00">OmniboxResultView</text>
</a>
</g>
</g>
<!-- Node5&#45;&gt;Node6 -->
<g id="edge5" class="edge">
<title>Node5&#45;&gt;Node6</title>
<path fill="none" stroke="midnightblue" d="M618.33,-473.72C587.86,-466.8 551.97,-458.66 522.84,-452.05"/>
<polygon fill="midnightblue" stroke="midnightblue" points="617.91,-477.21 628.44,-476.01 619.46,-470.38 617.91,-477.21"/>
</g>
<!-- Node7 -->
<g id="node7" class="node">
<title>Node7</title>
<g id="a_node7"><a xlink:href="../../d7/d88/classOmniboxPopupContentsView.html#aa8f47263f229af6a469c3bf964b81162" target="_top" xlink:title=" ">
<polygon fill="white" stroke="black" points="193,-401.5 193,-431.5 338,-431.5 338,-401.5 193,-401.5"/>
<text text-anchor="start" x="201" y="-419.5" font-family="Helvetica,sans-Serif" font-size="10.00">OmniboxPopupContentsView</text>
<text text-anchor="middle" x="265.5" y="-408.5" font-family="Helvetica,sans-Serif" font-size="10.00">::UpdatePopupAppearance</text>
</a>
</g>
</g>
<!-- Node6&#45;&gt;Node7 -->
<g id="edge6" class="edge">
<title>Node6&#45;&gt;Node7</title>
<path fill="none" stroke="midnightblue" d="M400.17,-431.95C380.33,-429.66 358.44,-427.13 338.21,-424.79"/>
<polygon fill="midnightblue" stroke="midnightblue" points="400,-435.45 410.33,-433.12 400.8,-428.5 400,-435.45"/>
</g>
<!-- Node8 -->
<g id="node8" class="node">
<title>Node8</title>
<g id="a_node8"><a xlink:href="../../d7/d88/classOmniboxPopupContentsView.html#a0e658101bc19acb66f6e0915fd6c2fe3" target="_top" xlink:title=" ">
<polygon fill="white" stroke="black" points="0,-401.5 0,-431.5 145,-431.5 145,-401.5 0,-401.5"/>
<text text-anchor="start" x="8" y="-419.5" font-family="Helvetica,sans-Serif" font-size="10.00">OmniboxPopupContentsView</text>
<text text-anchor="middle" x="72.5" y="-408.5" font-family="Helvetica,sans-Serif" font-size="10.00">::OnWidgetBoundsChanged</text>
</a>
</g>
</g>
<!-- Node7&#45;&gt;Node8 -->
<g id="edge7" class="edge">
<title>Node7&#45;&gt;Node8</title>
<path fill="none" stroke="midnightblue" d="M182.51,-416.5C170.12,-416.5 157.41,-416.5 145.25,-416.5"/>
<polygon fill="midnightblue" stroke="midnightblue" points="182.84,-420 192.84,-416.5 182.84,-413 182.84,-420"/>
</g>
<!-- Node10 -->
<g id="node10" class="node">
<title>Node10</title>
<g id="a_node10"><a xlink:href="../../d3/d0a/classOmniboxSuggestionButtonRowView.html#a75ca5fb3af853ffc8c5ed29380d2e72a" target="_top" xlink:title=" ">
<polygon fill="white" stroke="black" points="583,-424.5 583,-454.5 786,-454.5 786,-424.5 583,-424.5"/>
<text text-anchor="start" x="591" y="-442.5" font-family="Helvetica,sans-Serif" font-size="10.00">OmniboxSuggestionButtonRow</text>
<text text-anchor="middle" x="684.5" y="-431.5" font-family="Helvetica,sans-Serif" font-size="10.00">View::OmniboxSuggestionButtonRowView</text>
</a>
</g>
</g>
<!-- Node9&#45;&gt;Node10 -->
<g id="edge9" class="edge">
<title>Node9&#45;&gt;Node10</title>
<path fill="none" stroke="midnightblue" d="M814.16,-439.5C805.02,-439.5 795.66,-439.5 786.37,-439.5"/>
<polygon fill="midnightblue" stroke="midnightblue" points="814.38,-443 824.38,-439.5 814.38,-436 814.38,-443"/>
</g>
<!-- Node10&#45;&gt;Node6 -->
<g id="edge10" class="edge">
<title>Node10&#45;&gt;Node6</title>
<path fill="none" stroke="midnightblue" d="M572.58,-439.5C555.27,-439.5 538.05,-439.5 522.72,-439.5"/>
<polygon fill="midnightblue" stroke="midnightblue" points="572.77,-443 582.77,-439.5 572.77,-436 572.77,-443"/>
</g>
<!-- Node12 -->
<g id="node12" class="node">
<title>Node12</title>
<g id="a_node12"><a xlink:href="../../d2/dcb/classOmniboxRowView_1_1HeaderView.html#ad1abf8339bf99de0b39a9bb43111ba93" target="_top" xlink:title=" ">
<polygon fill="white" stroke="black" points="606,-375.5 606,-405.5 763,-405.5 763,-375.5 606,-375.5"/>
<text text-anchor="start" x="614" y="-393.5" font-family="Helvetica,sans-Serif" font-size="10.00">OmniboxRowView::HeaderView</text>
<text text-anchor="middle" x="684.5" y="-382.5" font-family="Helvetica,sans-Serif" font-size="10.00">::HeaderView</text>
</a>
</g>
</g>
<!-- Node11&#45;&gt;Node12 -->
<g id="edge12" class="edge">
<title>Node11&#45;&gt;Node12</title>
<path fill="none" stroke="midnightblue" d="M811.8,-390.5C795.73,-390.5 779.08,-390.5 763.34,-390.5"/>
<polygon fill="midnightblue" stroke="midnightblue" points="812.26,-394 822.26,-390.5 812.26,-387 812.26,-394"/>
</g>
<!-- Node13 -->
<g id="node13" class="node">
<title>Node13</title>
<g id="a_node13"><a xlink:href="../../da/da2/classOmniboxRowView.html#a6add650851301372ee9b8a6671cfa28c" target="_top" xlink:title=" ">
<polygon fill="white" stroke="black" points="386.5,-383 386.5,-402 546.5,-402 546.5,-383 386.5,-383"/>
<text text-anchor="middle" x="466.5" y="-390" font-family="Helvetica,sans-Serif" font-size="10.00">OmniboxRowView::ShowHeader</text>
</a>
</g>
</g>
<!-- Node12&#45;&gt;Node13 -->
<g id="edge13" class="edge">
<title>Node12&#45;&gt;Node13</title>
<path fill="none" stroke="midnightblue" d="M595.8,-391.31C579.54,-391.46 562.65,-391.62 546.67,-391.77"/>
<polygon fill="midnightblue" stroke="midnightblue" points="595.86,-394.81 605.82,-391.22 595.79,-387.81 595.86,-394.81"/>
</g>
<!-- Node13&#45;&gt;Node7 -->
<g id="edge14" class="edge">
<title>Node13&#45;&gt;Node7</title>
<path fill="none" stroke="midnightblue" d="M376.39,-403.25C363.62,-404.79 350.61,-406.36 338.24,-407.85"/>
<polygon fill="midnightblue" stroke="midnightblue" points="377.06,-406.69 386.56,-402.02 376.22,-399.74 377.06,-406.69"/>
</g>
<!-- Node16 -->
<g id="node16" class="node">
<title>Node16</title>
<g id="a_node16"><a xlink:href="../../df/d4d/classAutocompleteController.html#ae1f4a40a8daa8c804b265590ff4415be" target="_top" xlink:title=" ">
<polygon fill="white" stroke="black" points="1609,-279.5 1609,-309.5 1728,-309.5 1728,-279.5 1609,-279.5"/>
<text text-anchor="start" x="1617" y="-297.5" font-family="Helvetica,sans-Serif" font-size="10.00">AutocompleteController</text>
<text text-anchor="middle" x="1668.5" y="-286.5" font-family="Helvetica,sans-Serif" font-size="10.00">::ExpireCopiedEntries</text>
</a>
</g>
</g>
<!-- Node15&#45;&gt;Node16 -->
<g id="edge17" class="edge">
<title>Node15&#45;&gt;Node16</title>
<path fill="none" stroke="midnightblue" d="M1810.01,-294.5C1783.52,-294.5 1753.55,-294.5 1728.12,-294.5"/>
<polygon fill="midnightblue" stroke="midnightblue" points="1810.36,-298 1820.36,-294.5 1810.36,-291 1810.36,-298"/>
</g>
<!-- Node21 -->
<g id="node21" class="node">
<title>Node21</title>
<g id="a_node21"><a xlink:href="../../df/d4d/classAutocompleteController.html#a6be8d5d8847f9862da417998c4785989" target="_top" xlink:title=" ">
<polygon fill="white" stroke="black" points="1216,-235.5 1216,-265.5 1335,-265.5 1335,-235.5 1216,-235.5"/>
<text text-anchor="start" x="1224" y="-253.5" font-family="Helvetica,sans-Serif" font-size="10.00">AutocompleteController</text>
<text text-anchor="middle" x="1275.5" y="-242.5" font-family="Helvetica,sans-Serif" font-size="10.00">::Start</text>
</a>
</g>
</g>
<!-- Node15&#45;&gt;Node21 -->
<g id="edge34" class="edge">
<title>Node15&#45;&gt;Node21</title>
<path fill="none" stroke="midnightblue" d="M1810.48,-279.45C1792.21,-275.96 1772.43,-272.64 1754,-270.5 1603.8,-253.03 1425.45,-250.3 1335.16,-250.17"/>
<polygon fill="midnightblue" stroke="midnightblue" points="1809.97,-282.92 1820.46,-281.41 1811.32,-276.05 1809.97,-282.92"/>
</g>
<!-- Node30 -->
<g id="node30" class="node">
<title>Node30</title>
<g id="a_node30"><a xlink:href="../../df/d4d/classAutocompleteController.html#a0d07fa1825d1adba7b2491bc682f57c5" target="_top" xlink:title=" ">
<polygon fill="white" stroke="black" points="1609,-328.5 1609,-358.5 1728,-358.5 1728,-328.5 1609,-328.5"/>
<text text-anchor="start" x="1617" y="-346.5" font-family="Helvetica,sans-Serif" font-size="10.00">AutocompleteController</text>
<text text-anchor="middle" x="1668.5" y="-335.5" font-family="Helvetica,sans-Serif" font-size="10.00">::OnProviderUpdate</text>
</a>
</g>
</g>
<!-- Node15&#45;&gt;Node30 -->
<g id="edge32" class="edge">
<title>Node15&#45;&gt;Node30</title>
<path fill="none" stroke="midnightblue" d="M1810.37,-310.55C1783.78,-316.77 1753.67,-323.81 1728.12,-329.79"/>
<polygon fill="midnightblue" stroke="midnightblue" points="1811.42,-313.9 1820.36,-308.21 1809.83,-307.08 1811.42,-313.9"/>
</g>
<!-- Node17 -->
<g id="node17" class="node">
<title>Node17</title>
<g id="a_node17"><a xlink:href="../../df/d4d/classAutocompleteController.html#a94fe99a16d5617d48084d6bc68b77099" target="_top" xlink:title=" ">
<polygon fill="white" stroke="black" points="1408.5,-328.5 1408.5,-358.5 1527.5,-358.5 1527.5,-328.5 1408.5,-328.5"/>
<text text-anchor="start" x="1416.5" y="-346.5" font-family="Helvetica,sans-Serif" font-size="10.00">AutocompleteController</text>
<text text-anchor="middle" x="1468" y="-335.5" font-family="Helvetica,sans-Serif" font-size="10.00">::DeleteMatch</text>
</a>
</g>
</g>
<!-- Node16&#45;&gt;Node17 -->
<g id="edge18" class="edge">
<title>Node16&#45;&gt;Node17</title>
<path fill="none" stroke="midnightblue" d="M1598.96,-311.42C1575.72,-317.16 1549.99,-323.51 1527.6,-329.03"/>
<polygon fill="midnightblue" stroke="midnightblue" points="1599.88,-314.8 1608.75,-309 1598.2,-308 1599.88,-314.8"/>
</g>
<!-- Node20 -->
<g id="node20" class="node">
<title>Node20</title>
<g id="a_node20"><a xlink:href="../../df/d4d/classAutocompleteController.html#aeab74bbaa0a7179385e15263d2193cc4" target="_top" xlink:title=" ">
<polygon fill="white" stroke="black" points="1408.5,-279.5 1408.5,-309.5 1527.5,-309.5 1527.5,-279.5 1408.5,-279.5"/>
<text text-anchor="start" x="1416.5" y="-297.5" font-family="Helvetica,sans-Serif" font-size="10.00">AutocompleteController</text>
<text text-anchor="middle" x="1468" y="-286.5" font-family="Helvetica,sans-Serif" font-size="10.00">::StartExpireTimer</text>
</a>
</g>
</g>
<!-- Node16&#45;&gt;Node20 -->
<g id="edge22" class="edge">
<title>Node16&#45;&gt;Node20</title>
<path fill="none" stroke="midnightblue" d="M1598.65,-294.5C1575.49,-294.5 1549.89,-294.5 1527.6,-294.5"/>
<polygon fill="midnightblue" stroke="midnightblue" points="1598.75,-298 1608.75,-294.5 1598.75,-291 1598.75,-298"/>
</g>
<!-- Node18 -->
<g id="node18" class="node">
<title>Node18</title>
<g id="a_node18"><a xlink:href="../../d0/d22/classOmniboxEditModel.html#a403c203952e105194bf2746aff5027dc" target="_top" xlink:title=" ">
<polygon fill="white" stroke="black" points="1198,-328.5 1198,-358.5 1353,-358.5 1353,-328.5 1198,-328.5"/>
<text text-anchor="start" x="1206" y="-346.5" font-family="Helvetica,sans-Serif" font-size="10.00">OmniboxEditModel::TryDeleting</text>
<text text-anchor="middle" x="1275.5" y="-335.5" font-family="Helvetica,sans-Serif" font-size="10.00">PopupLine</text>
</a>
</g>
</g>
<!-- Node17&#45;&gt;Node18 -->
<g id="edge19" class="edge">
<title>Node17&#45;&gt;Node18</title>
<path fill="none" stroke="midnightblue" d="M1397.91,-343.5C1383.41,-343.5 1368.03,-343.5 1353.27,-343.5"/>
<polygon fill="midnightblue" stroke="midnightblue" points="1398.29,-347 1408.29,-343.5 1398.29,-340 1398.29,-347"/>
</g>
<!-- Node18&#45;&gt;Node4 -->
<g id="edge21" class="edge">
<title>Node18&#45;&gt;Node4</title>
<path fill="none" stroke="midnightblue" d="M1205.71,-361.02C1187.05,-365.78 1167.02,-370.88 1148.96,-375.48"/>
<polygon fill="midnightblue" stroke="midnightblue" points="1206.79,-364.36 1215.62,-358.5 1205.06,-357.58 1206.79,-364.36"/>
</g>
<!-- Node19 -->
<g id="node19" class="node">
<title>Node19</title>
<g id="a_node19"><a xlink:href="../../d0/d94/classOmniboxViewViews.html#a5a64c1e16631c3301fb57307402784dc" target="_top" xlink:title=" ">
<polygon fill="white" stroke="black" points="1018.5,-326.5 1018.5,-356.5 1159.5,-356.5 1159.5,-326.5 1018.5,-326.5"/>
<text text-anchor="start" x="1026.5" y="-344.5" font-family="Helvetica,sans-Serif" font-size="10.00">OmniboxViewViews::Handle</text>
<text text-anchor="middle" x="1089" y="-333.5" font-family="Helvetica,sans-Serif" font-size="10.00">KeyEvent</text>
</a>
</g>
</g>
<!-- Node18&#45;&gt;Node19 -->
<g id="edge20" class="edge">
<title>Node18&#45;&gt;Node19</title>
<path fill="none" stroke="midnightblue" d="M1187.69,-342.56C1178.28,-342.46 1168.79,-342.35 1159.62,-342.25"/>
<polygon fill="midnightblue" stroke="midnightblue" points="1187.82,-346.06 1197.86,-342.67 1187.9,-339.06 1187.82,-346.06"/>
</g>
<!-- Node20&#45;&gt;Node21 -->
<g id="edge23" class="edge">
<title>Node20&#45;&gt;Node21</title>
<path fill="none" stroke="midnightblue" d="M1398.28,-278.63C1377.56,-273.84 1355.01,-268.63 1335.02,-264.02"/>
<polygon fill="midnightblue" stroke="midnightblue" points="1397.76,-282.1 1408.29,-280.94 1399.33,-275.28 1397.76,-282.1"/>
</g>
<!-- Node22 -->
<g id="node22" class="node">
<title>Node22</title>
<g id="a_node22"><a xlink:href="../../d0/d22/classOmniboxEditModel.html#a47216ae17e9b4c06e3a827008d04a744" target="_top" xlink:title=" ">
<polygon fill="white" stroke="black" points="1016,-228.5 1016,-258.5 1162,-258.5 1162,-228.5 1016,-228.5"/>
<text text-anchor="start" x="1024" y="-246.5" font-family="Helvetica,sans-Serif" font-size="10.00">OmniboxEditModel::StartZero</text>
<text text-anchor="middle" x="1089" y="-235.5" font-family="Helvetica,sans-Serif" font-size="10.00">SuggestRequest</text>
</a>
</g>
</g>
<!-- Node21&#45;&gt;Node22 -->
<g id="edge24" class="edge">
<title>Node21&#45;&gt;Node22</title>
<path fill="none" stroke="midnightblue" d="M1205.67,-247.89C1191.44,-247.35 1176.42,-246.78 1162.08,-246.23"/>
<polygon fill="midnightblue" stroke="midnightblue" points="1205.74,-251.39 1215.87,-248.28 1206.01,-244.4 1205.74,-251.39"/>
</g>
<!-- Node23 -->
<g id="node23" class="node">
<title>Node23</title>
<g id="a_node23"><a xlink:href="../../d0/d94/classOmniboxViewViews.html#a16e7321918d0a4985e618a5249a32881" target="_top" xlink:title=" ">
<polygon fill="white" stroke="black" points="822,-277.5 822,-307.5 980,-307.5 980,-277.5 822,-277.5"/>
<text text-anchor="start" x="830" y="-295.5" font-family="Helvetica,sans-Serif" font-size="10.00">OmniboxViewViews::OnGesture</text>
<text text-anchor="middle" x="901" y="-284.5" font-family="Helvetica,sans-Serif" font-size="10.00">Event</text>
</a>
</g>
</g>
<!-- Node22&#45;&gt;Node23 -->
<g id="edge25" class="edge">
<title>Node22&#45;&gt;Node23</title>
<path fill="none" stroke="midnightblue" d="M1021.1,-261.12C1000.76,-266.48 978.59,-272.32 958.96,-277.49"/>
<polygon fill="midnightblue" stroke="midnightblue" points="1022.15,-264.47 1030.93,-258.53 1020.37,-257.7 1022.15,-264.47"/>
</g>
<!-- Node24 -->
<g id="node24" class="node">
<title>Node24</title>
<g id="a_node24"><a xlink:href="../../d0/d94/classOmniboxViewViews.html#a9fc21bac19f3a666e10eabc84b72c745" target="_top" xlink:title=" ">
<polygon fill="white" stroke="black" points="825,-228.5 825,-258.5 977,-258.5 977,-228.5 825,-228.5"/>
<text text-anchor="start" x="833" y="-246.5" font-family="Helvetica,sans-Serif" font-size="10.00">OmniboxViewViews::OnMouse</text>
<text text-anchor="middle" x="901" y="-235.5" font-family="Helvetica,sans-Serif" font-size="10.00">Pressed</text>
</a>
</g>
</g>
<!-- Node22&#45;&gt;Node24 -->
<g id="edge26" class="edge">
<title>Node22&#45;&gt;Node24</title>
<path fill="none" stroke="midnightblue" d="M1005.63,-243.5C996.18,-243.5 986.57,-243.5 977.21,-243.5"/>
<polygon fill="midnightblue" stroke="midnightblue" points="1005.82,-247 1015.82,-243.5 1005.82,-240 1005.82,-247"/>
</g>
<!-- Node25 -->
<g id="node25" class="node">
<title>Node25</title>
<g id="a_node25"><a xlink:href="../../d0/d94/classOmniboxViewViews.html#ae9d72f709ba57cd59d22d6fbef32dd1c" target="_top" xlink:title=" ">
<polygon fill="white" stroke="black" points="825,-190 825,-209 977,-209 977,-190 825,-190"/>
<text text-anchor="middle" x="901" y="-197" font-family="Helvetica,sans-Serif" font-size="10.00">OmniboxViewViews::SetFocus</text>
</a>
</g>
</g>
<!-- Node22&#45;&gt;Node25 -->
<g id="edge27" class="edge">
<title>Node22&#45;&gt;Node25</title>
<path fill="none" stroke="midnightblue" d="M1014.46,-226.1C989.84,-220.28 963.31,-214 942.21,-209.01"/>
<polygon fill="midnightblue" stroke="midnightblue" points="1013.97,-229.58 1024.51,-228.48 1015.58,-222.77 1013.97,-229.58"/>
</g>
<!-- Node26 -->
<g id="node26" class="node">
<title>Node26</title>
<g id="a_node26"><a xlink:href="../../d0/d22/classOmniboxEditModel.html#a8fd45b4cc033ef4a4c36d313a279ee33" target="_top" xlink:title=" ">
<polygon fill="white" stroke="black" points="832.5,-140.5 832.5,-170.5 969.5,-170.5 969.5,-140.5 832.5,-140.5"/>
<text text-anchor="start" x="840.5" y="-158.5" font-family="Helvetica,sans-Serif" font-size="10.00">OmniboxEditModel::Update</text>
<text text-anchor="middle" x="901" y="-147.5" font-family="Helvetica,sans-Serif" font-size="10.00">Input</text>
</a>
</g>
</g>
<!-- Node22&#45;&gt;Node26 -->
<g id="edge28" class="edge">
<title>Node22&#45;&gt;Node26</title>
<path fill="none" stroke="midnightblue" d="M1057.06,-223.02C1035.97,-209.67 1007.07,-192.56 980,-180.5 971.95,-176.91 963.22,-173.6 954.62,-170.63"/>
<polygon fill="midnightblue" stroke="midnightblue" points="1055.29,-226.03 1065.6,-228.48 1059.06,-220.14 1055.29,-226.03"/>
</g>
<!-- Node27 -->
<g id="node27" class="node">
<title>Node27</title>
<g id="a_node27"><a xlink:href="../../d0/d94/classOmniboxViewViews.html#aa74a64e459c128dff566e7392751a67f" target="_top" xlink:title=" ">
<polygon fill="white" stroke="black" points="613.5,-140.5 613.5,-170.5 755.5,-170.5 755.5,-140.5 613.5,-140.5"/>
<text text-anchor="start" x="621.5" y="-158.5" font-family="Helvetica,sans-Serif" font-size="10.00">OmniboxViewViews::Update</text>
<text text-anchor="middle" x="684.5" y="-147.5" font-family="Helvetica,sans-Serif" font-size="10.00">Popup</text>
</a>
</g>
</g>
<!-- Node26&#45;&gt;Node27 -->
<g id="edge29" class="edge">
<title>Node26&#45;&gt;Node27</title>
<path fill="none" stroke="midnightblue" d="M822.24,-155.5C800.49,-155.5 776.98,-155.5 755.69,-155.5"/>
<polygon fill="midnightblue" stroke="midnightblue" points="822.43,-159 832.43,-155.5 822.43,-152 822.43,-159"/>
</g>
<!-- Node28 -->
<g id="node28" class="node">
<title>Node28</title>
<g id="a_node28"><a xlink:href="../../d0/d94/classOmniboxViewViews.html#a2b71803c688c8d3db0ddfe1a6c561208" target="_top" xlink:title=" ">
<polygon fill="white" stroke="black" points="386,-140.5 386,-170.5 547,-170.5 547,-140.5 386,-140.5"/>
<text text-anchor="start" x="394" y="-158.5" font-family="Helvetica,sans-Serif" font-size="10.00">OmniboxViewViews::SetWindow</text>
<text text-anchor="middle" x="466.5" y="-147.5" font-family="Helvetica,sans-Serif" font-size="10.00">TextAndCaretPos</text>
</a>
</g>
</g>
<!-- Node27&#45;&gt;Node28 -->
<g id="edge30" class="edge">
<title>Node27&#45;&gt;Node28</title>
<path fill="none" stroke="midnightblue" d="M603.29,-155.5C584.91,-155.5 565.37,-155.5 547.02,-155.5"/>
<polygon fill="midnightblue" stroke="midnightblue" points="603.37,-159 613.37,-155.5 603.37,-152 603.37,-159"/>
</g>
<!-- Node29 -->
<g id="node29" class="node">
<title>Node29</title>
<g id="a_node29"><a xlink:href="../../d0/d94/classOmniboxViewViews.html#acce156344df7256bce712db64896eaf6" target="_top" xlink:title=" ">
<polygon fill="white" stroke="black" points="181,-140.5 181,-170.5 350,-170.5 350,-140.5 181,-140.5"/>
<text text-anchor="start" x="189" y="-158.5" font-family="Helvetica,sans-Serif" font-size="10.00">OmniboxViewViews::OnTemporary</text>
<text text-anchor="middle" x="265.5" y="-147.5" font-family="Helvetica,sans-Serif" font-size="10.00">TextMaybeChanged</text>
</a>
</g>
</g>
<!-- Node28&#45;&gt;Node29 -->
<g id="edge31" class="edge">
<title>Node28&#45;&gt;Node29</title>
<path fill="none" stroke="midnightblue" d="M375.96,-155.5C367.36,-155.5 358.66,-155.5 350.12,-155.5"/>
<polygon fill="midnightblue" stroke="midnightblue" points="375.99,-159 385.99,-155.5 375.99,-152 375.99,-159"/>
</g>
<!-- Node30&#45;&gt;Node17 -->
<g id="edge33" class="edge">
<title>Node30&#45;&gt;Node17</title>
<path fill="none" stroke="midnightblue" d="M1598.65,-343.5C1575.49,-343.5 1549.89,-343.5 1527.6,-343.5"/>
<polygon fill="midnightblue" stroke="midnightblue" points="1598.75,-347 1608.75,-343.5 1598.75,-340 1598.75,-347"/>
</g>
<!-- Node32 -->
<g id="node32" class="node">
<title>Node32</title>
<g id="a_node32"><a xlink:href="../../d3/dbc/classZeroSuggestProvider.html#a5743967b3e18ccedb2479cc2212b3979" target="_top" xlink:title=" ">
<polygon fill="white" stroke="black" points="1799.5,-148 1799.5,-189 1960.5,-189 1960.5,-148 1799.5,-148"/>
<text text-anchor="start" x="1807.5" y="-177" font-family="Helvetica,sans-Serif" font-size="10.00">ZeroSuggestProvider</text>
<text text-anchor="start" x="1807.5" y="-166" font-family="Helvetica,sans-Serif" font-size="10.00">::ConvertResultsToAutocomplete</text>
<text text-anchor="middle" x="1880" y="-155" font-family="Helvetica,sans-Serif" font-size="10.00">Matches</text>
</a>
</g>
</g>
<!-- Node31&#45;&gt;Node32 -->
<g id="edge36" class="edge">
<title>Node31&#45;&gt;Node32</title>
<path fill="none" stroke="midnightblue" d="M2028.5,-166.4C2007.13,-166.71 1983.01,-167.05 1960.56,-167.37"/>
<polygon fill="midnightblue" stroke="midnightblue" points="2028.81,-169.9 2038.76,-166.26 2028.71,-162.9 2028.81,-169.9"/>
</g>
<!-- Node33 -->
<g id="node33" class="node">
<title>Node33</title>
<g id="a_node33"><a xlink:href="../../d3/dbc/classZeroSuggestProvider.html#a5a1c47322df6df8bfa3374fc08369314" target="_top" xlink:title=" ">
<polygon fill="white" stroke="black" points="1389,-191.5 1389,-221.5 1547,-221.5 1547,-191.5 1389,-191.5"/>
<text text-anchor="start" x="1397" y="-209.5" font-family="Helvetica,sans-Serif" font-size="10.00">ZeroSuggestProvider</text>
<text text-anchor="middle" x="1468" y="-198.5" font-family="Helvetica,sans-Serif" font-size="10.00">::MaybeUseCachedSuggestions</text>
</a>
</g>
</g>
<!-- Node32&#45;&gt;Node33 -->
<g id="edge37" class="edge">
<title>Node32&#45;&gt;Node33</title>
<path fill="none" stroke="midnightblue" d="M1789.49,-183.04C1777.58,-184.7 1765.51,-186.24 1754,-187.5 1684.25,-195.11 1604.53,-200.11 1547.18,-203.07"/>
<polygon fill="midnightblue" stroke="midnightblue" points="1790.04,-186.5 1799.45,-181.62 1789.05,-179.57 1790.04,-186.5"/>
</g>
<!-- Node35 -->
<g id="node35" class="node">
<title>Node35</title>
<g id="a_node35"><a xlink:href="../../d3/dbc/classZeroSuggestProvider.html#a23ed4e024f176a325953927fc87f131d" target="_top" xlink:title=" ">
<polygon fill="white" stroke="black" points="1614.5,-147.5 1614.5,-177.5 1722.5,-177.5 1722.5,-147.5 1614.5,-147.5"/>
<text text-anchor="start" x="1622.5" y="-165.5" font-family="Helvetica,sans-Serif" font-size="10.00">ZeroSuggestProvider</text>
<text text-anchor="middle" x="1668.5" y="-154.5" font-family="Helvetica,sans-Serif" font-size="10.00">::UpdateResults</text>
</a>
</g>
</g>
<!-- Node32&#45;&gt;Node35 -->
<g id="edge39" class="edge">
<title>Node32&#45;&gt;Node35</title>
<path fill="none" stroke="midnightblue" d="M1789.47,-165.94C1766.7,-165.28 1742.94,-164.6 1722.64,-164.02"/>
<polygon fill="midnightblue" stroke="midnightblue" points="1789.4,-169.44 1799.5,-166.22 1789.6,-162.44 1789.4,-169.44"/>
</g>
<!-- Node34 -->
<g id="node34" class="node">
<title>Node34</title>
<g id="a_node34"><a xlink:href="../../d3/dbc/classZeroSuggestProvider.html#ac0afcbd72684c1a1478301c21b3ff486" target="_top" xlink:title=" ">
<polygon fill="white" stroke="black" points="1221.5,-164.5 1221.5,-194.5 1329.5,-194.5 1329.5,-164.5 1221.5,-164.5"/>
<text text-anchor="start" x="1229.5" y="-182.5" font-family="Helvetica,sans-Serif" font-size="10.00">ZeroSuggestProvider</text>
<text text-anchor="middle" x="1275.5" y="-171.5" font-family="Helvetica,sans-Serif" font-size="10.00">::Start</text>
</a>
</g>
</g>
<!-- Node33&#45;&gt;Node34 -->
<g id="edge38" class="edge">
<title>Node33&#45;&gt;Node34</title>
<path fill="none" stroke="midnightblue" d="M1378.61,-193.97C1361.9,-191.6 1344.9,-189.19 1329.69,-187.04"/>
<polygon fill="midnightblue" stroke="midnightblue" points="1378.57,-197.5 1388.97,-195.44 1379.56,-190.57 1378.57,-197.5"/>
</g>
<!-- Node36 -->
<g id="node36" class="node">
<title>Node36</title>
<g id="a_node36"><a xlink:href="../../d3/dbc/classZeroSuggestProvider.html#a4049ecf2307fddcdfae00f7632660d3a" target="_top" xlink:title=" ">
<polygon fill="white" stroke="black" points="1408.5,-142.5 1408.5,-172.5 1527.5,-172.5 1527.5,-142.5 1408.5,-142.5"/>
<text text-anchor="start" x="1416.5" y="-160.5" font-family="Helvetica,sans-Serif" font-size="10.00">ZeroSuggestProvider</text>
<text text-anchor="middle" x="1468" y="-149.5" font-family="Helvetica,sans-Serif" font-size="10.00">::OnURLLoadComplete</text>
</a>
</g>
</g>
<!-- Node35&#45;&gt;Node36 -->
<g id="edge40" class="edge">
<title>Node35&#45;&gt;Node36</title>
<path fill="none" stroke="midnightblue" d="M1604.02,-160.9C1579.5,-160.28 1551.62,-159.58 1527.58,-158.98"/>
<polygon fill="midnightblue" stroke="midnightblue" points="1604.22,-164.41 1614.31,-161.16 1604.4,-157.41 1604.22,-164.41"/>
</g>
<!-- Node36&#45;&gt;Node34 -->
<g id="edge41" class="edge">
<title>Node36&#45;&gt;Node34</title>
<path fill="none" stroke="midnightblue" d="M1398.08,-165.46C1375.48,-168.07 1350.75,-170.93 1329.52,-173.38"/>
<polygon fill="midnightblue" stroke="midnightblue" points="1398.76,-168.9 1408.29,-164.28 1397.95,-161.95 1398.76,-168.9"/>
</g>
<!-- Node38 -->
<g id="node38" class="node">
<title>Node38</title>
<g id="a_node38"><a xlink:href="../../dc/dfa/classDocumentProvider.html#a01f932ec42e54a121bf93abe3d75c1d7" target="_top" xlink:title=" ">
<polygon fill="white" stroke="black" points="1812.5,-98.5 1812.5,-128.5 1947.5,-128.5 1947.5,-98.5 1812.5,-98.5"/>
<text text-anchor="start" x="1820.5" y="-116.5" font-family="Helvetica,sans-Serif" font-size="10.00">DocumentProvider::Update</text>
<text text-anchor="middle" x="1880" y="-105.5" font-family="Helvetica,sans-Serif" font-size="10.00">Results</text>
</a>
</g>
</g>
<!-- Node37&#45;&gt;Node38 -->
<g id="edge43" class="edge">
<title>Node37&#45;&gt;Node38</title>
<path fill="none" stroke="midnightblue" d="M1995.82,-114.59C1979.59,-114.43 1963.06,-114.28 1947.79,-114.13"/>
<polygon fill="midnightblue" stroke="midnightblue" points="1995.84,-118.09 2005.87,-114.68 1995.91,-111.09 1995.84,-118.09"/>
</g>
<!-- Node39 -->
<g id="node39" class="node">
<title>Node39</title>
<g id="a_node39"><a xlink:href="../../dc/dfa/classDocumentProvider.html#a2bfea6fa03acad2d185a55cc86847624" target="_top" xlink:title=" ">
<polygon fill="white" stroke="black" points="1589.5,-98.5 1589.5,-128.5 1747.5,-128.5 1747.5,-98.5 1589.5,-98.5"/>
<text text-anchor="start" x="1597.5" y="-116.5" font-family="Helvetica,sans-Serif" font-size="10.00">DocumentProvider::OnURLLoad</text>
<text text-anchor="middle" x="1668.5" y="-105.5" font-family="Helvetica,sans-Serif" font-size="10.00">Complete</text>
</a>
</g>
</g>
<!-- Node38&#45;&gt;Node39 -->
<g id="edge44" class="edge">
<title>Node38&#45;&gt;Node39</title>
<path fill="none" stroke="midnightblue" d="M1802.11,-113.5C1784.35,-113.5 1765.43,-113.5 1747.61,-113.5"/>
<polygon fill="midnightblue" stroke="midnightblue" points="1802.43,-117 1812.43,-113.5 1802.43,-110 1802.43,-117"/>
</g>
<!-- Node40 -->
<g id="node40" class="node">
<title>Node40</title>
<g id="a_node40"><a xlink:href="../../dc/dfa/classDocumentProvider.html#ab41060dd5676c221e9904cd0fc156149" target="_top" xlink:title=" ">
<polygon fill="white" stroke="black" points="1407,-104 1407,-123 1529,-123 1529,-104 1407,-104"/>
<text text-anchor="middle" x="1468" y="-111" font-family="Helvetica,sans-Serif" font-size="10.00">DocumentProvider::Run</text>
</a>
</g>
</g>
<!-- Node39&#45;&gt;Node40 -->
<g id="edge45" class="edge">
<title>Node39&#45;&gt;Node40</title>
<path fill="none" stroke="midnightblue" d="M1578.95,-113.5C1562.16,-113.5 1544.96,-113.5 1529.3,-113.5"/>
<polygon fill="midnightblue" stroke="midnightblue" points="1579.33,-117 1589.33,-113.5 1579.33,-110 1579.33,-117"/>
</g>
<!-- Node41 -->
<g id="node41" class="node">
<title>Node41</title>
<g id="a_node41"><a xlink:href="../../dc/dfa/classDocumentProvider.html#a8b72b3391cd4d228b531f63938023a08" target="_top" xlink:title=" ">
<polygon fill="white" stroke="black" points="1213,-104 1213,-123 1338,-123 1338,-104 1213,-104"/>
<text text-anchor="middle" x="1275.5" y="-111" font-family="Helvetica,sans-Serif" font-size="10.00">DocumentProvider::Start</text>
</a>
</g>
</g>
<!-- Node40&#45;&gt;Node41 -->
<g id="edge46" class="edge">
<title>Node40&#45;&gt;Node41</title>
<path fill="none" stroke="midnightblue" d="M1396.79,-113.5C1377.57,-113.5 1356.88,-113.5 1338.18,-113.5"/>
<polygon fill="midnightblue" stroke="midnightblue" points="1396.99,-117 1406.99,-113.5 1396.99,-110 1396.99,-117"/>
</g>
<!-- Node43 -->
<g id="node43" class="node">
<title>Node43</title>
<g id="a_node43"><a xlink:href="../../dd/dfc/classClipboardProvider.html#af1b01ebf07aca5e9cbea6b7a0e7d6d46" target="_top" xlink:title=" ">
<polygon fill="white" stroke="black" points="1818,-49.5 1818,-79.5 1942,-79.5 1942,-49.5 1818,-49.5"/>
<text text-anchor="start" x="1826" y="-67.5" font-family="Helvetica,sans-Serif" font-size="10.00">ClipboardProvider::</text>
<text text-anchor="middle" x="1880" y="-56.5" font-family="Helvetica,sans-Serif" font-size="10.00">NewClipboardTextMatch</text>
</a>
</g>
</g>
<!-- Node42&#45;&gt;Node43 -->
<g id="edge48" class="edge">
<title>Node42&#45;&gt;Node43</title>
<path fill="none" stroke="midnightblue" d="M2011.39,-64.5C1988.46,-64.5 1963.87,-64.5 1942.29,-64.5"/>
<polygon fill="midnightblue" stroke="midnightblue" points="2011.45,-68 2021.45,-64.5 2011.45,-61 2011.45,-68"/>
</g>
<!-- Node46 -->
<g id="node46" class="node">
<title>Node46</title>
<g id="a_node46"><a xlink:href="../../dd/dfc/classClipboardProvider.html#a299860b7ef694b2779913b4f068986af" target="_top" xlink:title=" ">
<polygon fill="white" stroke="black" points="1790,-0.5 1790,-30.5 1970,-30.5 1970,-0.5 1790,-0.5"/>
<text text-anchor="start" x="1798" y="-18.5" font-family="Helvetica,sans-Serif" font-size="10.00">ClipboardProvider::</text>
<text text-anchor="middle" x="1880" y="-7.5" font-family="Helvetica,sans-Serif" font-size="10.00">OnReceiveTextForMatchWithContent</text>
</a>
</g>
</g>
<!-- Node42&#45;&gt;Node46 -->
<g id="edge51" class="edge">
<title>Node42&#45;&gt;Node46</title>
<path fill="none" stroke="midnightblue" d="M2017.37,-47.17C1993.94,-41.73 1968.29,-35.77 1945.62,-30.51"/>
<polygon fill="midnightblue" stroke="midnightblue" points="2016.73,-50.61 2027.26,-49.47 2018.31,-43.79 2016.73,-50.61"/>
</g>
<!-- Node44 -->
<g id="node44" class="node">
<title>Node44</title>
<g id="a_node44"><a xlink:href="../../dd/dfc/classClipboardProvider.html#a9d52511ff11ea7899067b053eb568b03" target="_top" xlink:title=" ">
<polygon fill="white" stroke="black" points="1618.5,-49.5 1618.5,-79.5 1718.5,-79.5 1718.5,-49.5 1618.5,-49.5"/>
<text text-anchor="start" x="1626.5" y="-67.5" font-family="Helvetica,sans-Serif" font-size="10.00">ClipboardProvider::</text>
<text text-anchor="middle" x="1668.5" y="-56.5" font-family="Helvetica,sans-Serif" font-size="10.00">CreateTextMatch</text>
</a>
</g>
</g>
<!-- Node43&#45;&gt;Node44 -->
<g id="edge49" class="edge">
<title>Node43&#45;&gt;Node44</title>
<path fill="none" stroke="midnightblue" d="M1807.67,-64.5C1778.41,-64.5 1745.26,-64.5 1718.77,-64.5"/>
<polygon fill="midnightblue" stroke="midnightblue" points="1807.84,-68 1817.84,-64.5 1807.84,-61 1807.84,-68"/>
</g>
<!-- Node45 -->
<g id="node45" class="node">
<title>Node45</title>
<g id="a_node45"><a xlink:href="../../dd/dfc/classClipboardProvider.html#a6333eac4718cb8f1617e6771261d4d86" target="_top" xlink:title=" ">
<polygon fill="white" stroke="black" points="1418,-49.5 1418,-79.5 1518,-79.5 1518,-49.5 1418,-49.5"/>
<text text-anchor="start" x="1426" y="-67.5" font-family="Helvetica,sans-Serif" font-size="10.00">ClipboardProvider::</text>
<text text-anchor="middle" x="1468" y="-56.5" font-family="Helvetica,sans-Serif" font-size="10.00">Start</text>
</a>
</g>
</g>
<!-- Node44&#45;&gt;Node45 -->
<g id="edge50" class="edge">
<title>Node44&#45;&gt;Node45</title>
<path fill="none" stroke="midnightblue" d="M1608.13,-64.5C1579.43,-64.5 1545.41,-64.5 1518.19,-64.5"/>
<polygon fill="midnightblue" stroke="midnightblue" points="1608.43,-68 1618.43,-64.5 1608.43,-61 1608.43,-68"/>
</g>
<!-- Node47 -->
<g id="node47" class="node">
<title>Node47</title>
<g id="a_node47"><a xlink:href="../../dd/dfc/classClipboardProvider.html#a3e1eee50a8861e52bf52bac9442fd649" target="_top" xlink:title=" ">
<polygon fill="white" stroke="black" points="1583,-0.5 1583,-30.5 1754,-30.5 1754,-0.5 1583,-0.5"/>
<text text-anchor="start" x="1591" y="-18.5" font-family="Helvetica,sans-Serif" font-size="10.00">ClipboardProvider::</text>
<text text-anchor="middle" x="1668.5" y="-7.5" font-family="Helvetica,sans-Serif" font-size="10.00">UpdateClipboardMatchWithContent</text>
</a>
</g>
</g>
<!-- Node46&#45;&gt;Node47 -->
<g id="edge52" class="edge">
<title>Node46&#45;&gt;Node47</title>
<path fill="none" stroke="midnightblue" d="M1779.84,-15.5C1771.28,-15.5 1762.67,-15.5 1754.24,-15.5"/>
<polygon fill="midnightblue" stroke="midnightblue" points="1779.85,-19 1789.85,-15.5 1779.85,-12 1779.85,-19"/>
</g>
</g>
</svg>
        <g id="navigator" transform="translate(0 0)" fill="#404254">
                <rect fill="#f2f5e9" fill-opacity="0.5" stroke="#606060" stroke-width=".5" x="0" y="0" width="60" height="60"/>
                <use id="zoomplus" xlink:href="#zoomPlus" x="17" y="9" onmousedown="handleZoom(evt,'in')"/>
                <use id="zoomminus" xlink:href="#zoomMin" x="42" y="9" onmousedown="handleZoom(evt,'out')"/>
                <use id="reset" xlink:href="#resetDef" x="30" y="36" onmousedown="handleReset()"/>
                <g id="arrowUp" xlink:href="#dirArrow" transform="translate(30 24)" onmousedown="handlePan(0,-1)">
                  <use xlink:href="#rim" fill="#404040">
                        <set attributeName="fill" to="#808080" begin="arrowUp.mouseover" end="arrowUp.mouseout"/>
                  </use>
                  <path fill="none" stroke="white" stroke-width="1.5" d="M0,-3.0v7 M-2.5,-0.5L0,-3.0L2.5,-0.5"/>
                </g>
                <g id="arrowRight" xlink:href="#dirArrow" transform="rotate(90) translate(36 -43)" onmousedown="handlePan(1,0)">
                  <use xlink:href="#rim" fill="#404040">
                        <set attributeName="fill" to="#808080" begin="arrowRight.mouseover" end="arrowRight.mouseout"/>
                  </use>
                  <path fill="none" stroke="white" stroke-width="1.5" d="M0,-3.0v7 M-2.5,-0.5L0,-3.0L2.5,-0.5"/>
                </g>
                <g id="arrowDown" xlink:href="#dirArrow" transform="rotate(180) translate(-30 -48)" onmousedown="handlePan(0,1)">
                  <use xlink:href="#rim" fill="#404040">
                        <set attributeName="fill" to="#808080" begin="arrowDown.mouseover" end="arrowDown.mouseout"/>
                  </use>
                  <path fill="none" stroke="white" stroke-width="1.5" d="M0,-3.0v7 M-2.5,-0.5L0,-3.0L2.5,-0.5"/>
                </g>
                <g id="arrowLeft" xlink:href="#dirArrow" transform="rotate(270) translate(-36 17)" onmousedown="handlePan(-1,0)">
                  <use xlink:href="#rim" fill="#404040">
                        <set attributeName="fill" to="#808080" begin="arrowLeft.mouseover" end="arrowLeft.mouseout"/>
                  </use>
                  <path fill="none" stroke="white" stroke-width="1.5" d="M0,-3.0v7 M-2.5,-0.5L0,-3.0L2.5,-0.5"/>
                </g>
        </g>
        <svg viewBox="0 0 15 15" width="100%" height="30px" preserveAspectRatio="xMaxYMin meet">
         <g id="arrow_out" transform="scale(0.3 0.3)">
          <a xlink:href="structAutocompleteMatch_a7bef9b1d672f052605fa29afbc69da12_icgraph_org.svg" target="_base">
           <rect id="button" ry="5" rx="5" y="6" x="6" height="38" width="38"
                fill="#f2f5e9" fill-opacity="0.5" stroke="#606060" stroke-width="1.0"/>
           <path id="arrow"
             d="M 11.500037,31.436501 C 11.940474,20.09759 22.043105,11.32322 32.158766,21.979434 L 37.068811,17.246167 C 37.068811,17.246167 37.088388,32 37.088388,32 L 22.160133,31.978069 C 22.160133,31.978069 26.997745,27.140456 26.997745,27.140456 C 18.528582,18.264221 13.291696,25.230495 11.500037,31.436501 z"
             style="fill:#404040;"/>
          </a>
         </g>
        </svg>
</svg>
