<?xml version="1.0" encoding="UTF-8" standalone="no"?>
<!DOCTYPE svg PUBLIC "-//W3C//DTD SVG 1.1//EN"
 "http://www.w3.org/Graphics/SVG/1.1/DTD/svg11.dtd">
<!-- Generated by graphviz version 2.43.0 (0)
 -->
<!-- Title: AutocompleteMatch::GetMatchComponents Pages: 1 -->
<svg width="676pt" height="198pt"
 viewBox="0.00 0.00 676.00 197.50" xmlns="http://www.w3.org/2000/svg" xmlns:xlink="http://www.w3.org/1999/xlink">
<g id="graph0" class="graph" transform="scale(1 1) rotate(0) translate(4 193.5)">
<title>AutocompleteMatch::GetMatchComponents</title>
<polygon fill="white" stroke="transparent" points="-4,4 -4,-193.5 672,-193.5 672,4 -4,4"/>
<!-- Node1 -->
<g id="node1" class="node">
<title>Node1</title>
<g id="a_node1"><a xlink:title=" ">
<polygon fill="#bfbfbf" stroke="black" points="553,-73.5 553,-103.5 668,-103.5 668,-73.5 553,-73.5"/>
<text text-anchor="start" x="561" y="-91.5" font-family="Helvetica,sans-Serif" font-size="10.00">AutocompleteMatch::</text>
<text text-anchor="middle" x="610.5" y="-80.5" font-family="Helvetica,sans-Serif" font-size="10.00">GetMatchComponents</text>
</a>
</g>
</g>
<!-- Node2 -->
<g id="node2" class="node">
<title>Node2</title>
<g id="a_node2"><a xlink:href="../../dd/d0f/classSearchSuggestionParser_1_1NavigationResult.html#a99b53d89e9883b51f6801975df0b8b16" target="_top" xlink:title=" ">
<polygon fill="white" stroke="black" points="372,-148 372,-189 517,-189 517,-148 372,-148"/>
<text text-anchor="start" x="380" y="-177" font-family="Helvetica,sans-Serif" font-size="10.00">SearchSuggestionParser</text>
<text text-anchor="start" x="380" y="-166" font-family="Helvetica,sans-Serif" font-size="10.00">::NavigationResult::Calculate</text>
<text text-anchor="middle" x="444.5" y="-155" font-family="Helvetica,sans-Serif" font-size="10.00">AndClassifyMatchContents</text>
</a>
</g>
</g>
<!-- Node1&#45;&gt;Node2 -->
<g id="edge1" class="edge">
<title>Node1&#45;&gt;Node2</title>
<path fill="none" stroke="midnightblue" d="M574.09,-108.7C557.04,-118.15 536.17,-129.32 517,-138.5 510.32,-141.7 503.21,-144.9 496.17,-147.97"/>
<polygon fill="midnightblue" stroke="midnightblue" points="576.12,-111.58 583.14,-103.64 572.7,-105.46 576.12,-111.58"/>
</g>
<!-- Node4 -->
<g id="node4" class="node">
<title>Node4</title>
<g id="a_node4"><a xlink:href="../../da/dad/classHistoryURLProvider.html#a5fc3efbb45bc4e93df981144b60d753f" target="_top" xlink:title=" ">
<polygon fill="white" stroke="black" points="392.5,-98.5 392.5,-128.5 496.5,-128.5 496.5,-98.5 392.5,-98.5"/>
<text text-anchor="start" x="400.5" y="-116.5" font-family="Helvetica,sans-Serif" font-size="10.00">HistoryURLProvider</text>
<text text-anchor="middle" x="444.5" y="-105.5" font-family="Helvetica,sans-Serif" font-size="10.00">::DoAutocomplete</text>
</a>
</g>
</g>
<!-- Node1&#45;&gt;Node4 -->
<g id="edge3" class="edge">
<title>Node1&#45;&gt;Node4</title>
<path fill="none" stroke="midnightblue" d="M542.62,-98.69C527.24,-101.04 511.12,-103.5 496.54,-105.72"/>
<polygon fill="midnightblue" stroke="midnightblue" points="543.24,-102.14 552.6,-97.17 542.19,-95.22 543.24,-102.14"/>
</g>
<!-- Node7 -->
<g id="node7" class="node">
<title>Node7</title>
<g id="a_node7"><a xlink:href="../../d3/d1d/structScoredHistoryMatch.html#a5f68849bd57e980dbe2caa1a6e488cad" target="_top" xlink:title=" ">
<polygon fill="white" stroke="black" points="388.5,-49.5 388.5,-79.5 500.5,-79.5 500.5,-49.5 388.5,-49.5"/>
<text text-anchor="start" x="396.5" y="-67.5" font-family="Helvetica,sans-Serif" font-size="10.00">ScoredHistoryMatch</text>
<text text-anchor="middle" x="444.5" y="-56.5" font-family="Helvetica,sans-Serif" font-size="10.00">::ScoredHistoryMatch</text>
</a>
</g>
</g>
<!-- Node1&#45;&gt;Node7 -->
<g id="edge7" class="edge">
<title>Node1&#45;&gt;Node7</title>
<path fill="none" stroke="midnightblue" d="M542.58,-78.71C528.64,-76.67 514.1,-74.54 500.64,-72.57"/>
<polygon fill="midnightblue" stroke="midnightblue" points="542.2,-82.19 552.6,-80.17 543.21,-75.26 542.2,-82.19"/>
</g>
<!-- Node8 -->
<g id="node8" class="node">
<title>Node8</title>
<g id="a_node8"><a xlink:href="../../d9/d3f/namespacebookmarks.html#ae1033bf99cb69672ce0233663385e6c5" target="_top" xlink:title=" ">
<polygon fill="white" stroke="black" points="377.5,-0.5 377.5,-30.5 511.5,-30.5 511.5,-0.5 377.5,-0.5"/>
<text text-anchor="start" x="385.5" y="-18.5" font-family="Helvetica,sans-Serif" font-size="10.00">bookmarks::TitledUrlMatch</text>
<text text-anchor="middle" x="444.5" y="-7.5" font-family="Helvetica,sans-Serif" font-size="10.00">ToAutocompleteMatch</text>
</a>
</g>
</g>
<!-- Node1&#45;&gt;Node8 -->
<g id="edge8" class="edge">
<title>Node1&#45;&gt;Node8</title>
<path fill="none" stroke="midnightblue" d="M573.87,-68.5C556.92,-59.38 536.2,-48.79 517,-40.5 508.91,-37.01 500.16,-33.63 491.64,-30.55"/>
<polygon fill="midnightblue" stroke="midnightblue" points="572.41,-71.69 582.87,-73.4 575.76,-65.54 572.41,-71.69"/>
</g>
<!-- Node3 -->
<g id="node3" class="node">
<title>Node3</title>
<g id="a_node3"><a xlink:href="../../dd/d0f/classSearchSuggestionParser_1_1NavigationResult.html#adedfeeaa9c4a7997e222aa6824b6f5f4" target="_top" xlink:title=" ">
<polygon fill="white" stroke="black" points="173,-148 173,-189 323,-189 323,-148 173,-148"/>
<text text-anchor="start" x="181" y="-177" font-family="Helvetica,sans-Serif" font-size="10.00">SearchSuggestionParser</text>
<text text-anchor="start" x="181" y="-166" font-family="Helvetica,sans-Serif" font-size="10.00">::NavigationResult::Navigation</text>
<text text-anchor="middle" x="248" y="-155" font-family="Helvetica,sans-Serif" font-size="10.00">Result</text>
</a>
</g>
</g>
<!-- Node2&#45;&gt;Node3 -->
<g id="edge2" class="edge">
<title>Node2&#45;&gt;Node3</title>
<path fill="none" stroke="midnightblue" d="M361.71,-168.5C348.89,-168.5 335.69,-168.5 323.05,-168.5"/>
<polygon fill="midnightblue" stroke="midnightblue" points="361.9,-172 371.9,-168.5 361.9,-165 361.9,-172"/>
</g>
<!-- Node5 -->
<g id="node5" class="node">
<title>Node5</title>
<g id="a_node5"><a xlink:href="../../da/dad/classHistoryURLProvider.html#afb38c4ac596ac8c3de848f4c35f53656" target="_top" xlink:title=" ">
<polygon fill="white" stroke="black" points="196,-98.5 196,-128.5 300,-128.5 300,-98.5 196,-98.5"/>
<text text-anchor="start" x="204" y="-116.5" font-family="Helvetica,sans-Serif" font-size="10.00">HistoryURLProvider</text>
<text text-anchor="middle" x="248" y="-105.5" font-family="Helvetica,sans-Serif" font-size="10.00">::ExecuteWithDB</text>
</a>
</g>
</g>
<!-- Node4&#45;&gt;Node5 -->
<g id="edge4" class="edge">
<title>Node4&#45;&gt;Node5</title>
<path fill="none" stroke="midnightblue" d="M382.13,-113.5C355.73,-113.5 325.24,-113.5 300.1,-113.5"/>
<polygon fill="midnightblue" stroke="midnightblue" points="382.4,-117 392.4,-113.5 382.4,-110 382.4,-117"/>
</g>
<!-- Node6 -->
<g id="node6" class="node">
<title>Node6</title>
<g id="a_node6"><a xlink:href="../../da/dad/classHistoryURLProvider.html#ad8668da3c2254ca7ac51f0d7b0fc4104" target="_top" xlink:title=" ">
<polygon fill="white" stroke="black" points="10,-76.5 10,-106.5 114,-106.5 114,-76.5 10,-76.5"/>
<text text-anchor="start" x="18" y="-94.5" font-family="Helvetica,sans-Serif" font-size="10.00">HistoryURLProvider</text>
<text text-anchor="middle" x="62" y="-83.5" font-family="Helvetica,sans-Serif" font-size="10.00">::Start</text>
</a>
</g>
</g>
<!-- Node4&#45;&gt;Node6 -->
<g id="edge6" class="edge">
<title>Node4&#45;&gt;Node6</title>
<path fill="none" stroke="midnightblue" d="M382.72,-97.49C367.56,-94.18 351.28,-91.18 336,-89.5 258.97,-81.01 168.98,-84.18 114,-87.58"/>
<polygon fill="midnightblue" stroke="midnightblue" points="381.96,-100.91 392.49,-99.71 383.51,-94.08 381.96,-100.91"/>
</g>
<!-- Node5&#45;&gt;Node6 -->
<g id="edge5" class="edge">
<title>Node5&#45;&gt;Node6</title>
<path fill="none" stroke="midnightblue" d="M185.68,-106.17C162.53,-103.4 136.44,-100.28 114.3,-97.63"/>
<polygon fill="midnightblue" stroke="midnightblue" points="185.4,-109.66 195.75,-107.37 186.23,-102.71 185.4,-109.66"/>
</g>
<!-- Node9 -->
<g id="node9" class="node">
<title>Node9</title>
<g id="a_node9"><a xlink:href="../../d9/d85/classBookmarkProvider.html#afadaef69eb46311e736113fcfb9fb940" target="_top" xlink:title=" ">
<polygon fill="white" stroke="black" points="160,-6 160,-25 336,-25 336,-6 160,-6"/>
<text text-anchor="middle" x="248" y="-13" font-family="Helvetica,sans-Serif" font-size="10.00">BookmarkProvider::DoAutocomplete</text>
</a>
</g>
</g>
<!-- Node8&#45;&gt;Node9 -->
<g id="edge9" class="edge">
<title>Node8&#45;&gt;Node9</title>
<path fill="none" stroke="midnightblue" d="M367.33,-15.5C357.14,-15.5 346.64,-15.5 336.29,-15.5"/>
<polygon fill="midnightblue" stroke="midnightblue" points="367.38,-19 377.38,-15.5 367.38,-12 367.38,-19"/>
</g>
<!-- Node10 -->
<g id="node10" class="node">
<title>Node10</title>
<g id="a_node10"><a xlink:href="../../d9/d85/classBookmarkProvider.html#a6b6511006b139be9855d11d197ef3b60" target="_top" xlink:title=" ">
<polygon fill="white" stroke="black" points="0,-6 0,-25 124,-25 124,-6 0,-6"/>
<text text-anchor="middle" x="62" y="-13" font-family="Helvetica,sans-Serif" font-size="10.00">BookmarkProvider::Start</text>
</a>
</g>
</g>
<!-- Node9&#45;&gt;Node10 -->
<g id="edge10" class="edge">
<title>Node9&#45;&gt;Node10</title>
<path fill="none" stroke="midnightblue" d="M149.65,-15.5C140.98,-15.5 132.36,-15.5 124.12,-15.5"/>
<polygon fill="midnightblue" stroke="midnightblue" points="149.85,-19 159.85,-15.5 149.85,-12 149.85,-19"/>
</g>
</g>
</svg>
