<?xml version="1.0" encoding="UTF-8" standalone="no"?>
<!DOCTYPE svg PUBLIC "-//W3C//DTD SVG 1.1//EN"
 "http://www.w3.org/Graphics/SVG/1.1/DTD/svg11.dtd">
<!-- Generated by graphviz version 2.43.0 (0)
 -->
<!-- Title: AutocompleteMatch::GetKeywordUIState Pages: 1 -->
<!--zoomable 706 -->
<svg id="main" version="1.1" xmlns="http://www.w3.org/2000/svg" xmlns:xlink="http://www.w3.org/1999/xlink" xml:space="preserve" onload="init(evt)">
<style type="text/css"><![CDATA[
.edge:hover path { stroke: red; }
.edge:hover polygon { stroke: red; fill: red; }
]]></style>
<script type="text/javascript"><![CDATA[
var edges = document.getElementsByTagName('g');
if (edges && edges.length) {
  for (var i=0;i<edges.length;i++) {
    if (edges[i].id.substr(0,4)=='edge') {
      edges[i].setAttribute('class','edge');
    }
  }
}
]]></script>
        <defs>
                <circle id="rim" cx="0" cy="0" r="7"/>
                <circle id="rim2" cx="0" cy="0" r="3.5"/>
                <g id="zoomPlus">
                        <use xlink:href="#rim" fill="#404040">
                                <set attributeName="fill" to="#808080" begin="zoomplus.mouseover" end="zoomplus.mouseout"/>
                        </use>
                        <path d="M-4,0h8M0,-4v8" fill="none" stroke="white" stroke-width="1.5" pointer-events="none"/>
                </g>
                <g id="zoomMin">
                        <use xlink:href="#rim" fill="#404040">
                                <set attributeName="fill" to="#808080" begin="zoomminus.mouseover" end="zoomminus.mouseout"/>
                        </use>
                        <path d="M-4,0h8" fill="none" stroke="white" stroke-width="1.5" pointer-events="none"/>
                </g>
                <g id="dirArrow">
                        <path fill="none" stroke="white" stroke-width="1.5" d="M0,-3.0v7 M-2.5,-0.5L0,-3.0L2.5,-0.5"/>
                </g>
               <g id="resetDef">
                       <use xlink:href="#rim2" fill="#404040">
                               <set attributeName="fill" to="#808080" begin="reset.mouseover" end="reset.mouseout"/>
                       </use>
               </g>
        </defs>

<script type="text/javascript">
var viewWidth = 1702;
var viewHeight = 706;
var sectionId = 'dynsection-19';
</script>
<script xlink:href="../../svgpan.js"/>
<svg id="graph" class="graph">
<g id="viewport">
<title>AutocompleteMatch::GetKeywordUIState</title>
<polygon fill="white" stroke="transparent" points="-4,4 -4,-702 1698,-702 1698,4 -4,4"/>
<!-- Node1 -->
<g id="node1" class="node">
<title>Node1</title>
<g id="a_node1"><a xlink:title=" ">
<polygon fill="#bfbfbf" stroke="black" points="1584,-618.5 1584,-648.5 1694,-648.5 1694,-618.5 1584,-618.5"/>
<text text-anchor="start" x="1592" y="-636.5" font-family="Helvetica,sans-Serif" font-size="10.00">AutocompleteMatch::</text>
<text text-anchor="middle" x="1639" y="-625.5" font-family="Helvetica,sans-Serif" font-size="10.00">GetKeywordUIState</text>
</a>
</g>
</g>
<!-- Node2 -->
<g id="node2" class="node">
<title>Node2</title>
<g id="a_node2"><a xlink:href="../../d0/d22/classOmniboxEditModel.html#a074bf2191bb13b8c34724fe8c865a70a" target="_top" xlink:title=" ">
<polygon fill="white" stroke="black" points="1396.5,-667.5 1396.5,-697.5 1546.5,-697.5 1546.5,-667.5 1396.5,-667.5"/>
<text text-anchor="start" x="1404.5" y="-685.5" font-family="Helvetica,sans-Serif" font-size="10.00">OmniboxEditModel::OnCurrent</text>
<text text-anchor="middle" x="1471.5" y="-674.5" font-family="Helvetica,sans-Serif" font-size="10.00">MatchChanged</text>
</a>
</g>
</g>
<!-- Node1&#45;&gt;Node2 -->
<g id="edge1" class="edge">
<title>Node1&#45;&gt;Node2</title>
<path fill="none" stroke="midnightblue" d="M1577.32,-651.47C1559.58,-656.72 1540.39,-662.4 1523.34,-667.45"/>
<polygon fill="midnightblue" stroke="midnightblue" points="1578.4,-654.8 1586.99,-648.6 1576.41,-648.08 1578.4,-654.8"/>
</g>
<!-- Node4 -->
<g id="node4" class="node">
<title>Node4</title>
<g id="a_node4"><a xlink:href="../../d0/d22/classOmniboxEditModel.html#a066c5fd08558e0c15211647b034a35a9" target="_top" xlink:title=" ">
<polygon fill="white" stroke="black" points="1397.5,-348.5 1397.5,-378.5 1545.5,-378.5 1545.5,-348.5 1397.5,-348.5"/>
<text text-anchor="start" x="1405.5" y="-366.5" font-family="Helvetica,sans-Serif" font-size="10.00">OmniboxEditModel::SetPopup</text>
<text text-anchor="middle" x="1471.5" y="-355.5" font-family="Helvetica,sans-Serif" font-size="10.00">Selection</text>
</a>
</g>
</g>
<!-- Node1&#45;&gt;Node4 -->
<g id="edge3" class="edge">
<title>Node1&#45;&gt;Node4</title>
<path fill="none" stroke="midnightblue" d="M1623.33,-609.57C1589.97,-555.14 1509.17,-423.33 1481.77,-378.62"/>
<polygon fill="midnightblue" stroke="midnightblue" points="1620.42,-611.51 1628.63,-618.21 1626.39,-607.86 1620.42,-611.51"/>
</g>
<!-- Node40 -->
<g id="node40" class="node">
<title>Node40</title>
<g id="a_node40"><a xlink:href="../../d3/d0a/classOmniboxSuggestionButtonRowView.html#acf68e6dc59accade5d0abeffa0a55257" target="_top" xlink:title=" ">
<polygon fill="white" stroke="black" points="1395,-618.5 1395,-648.5 1548,-648.5 1548,-618.5 1395,-618.5"/>
<text text-anchor="start" x="1403" y="-636.5" font-family="Helvetica,sans-Serif" font-size="10.00">OmniboxSuggestionButtonRow</text>
<text text-anchor="middle" x="1471.5" y="-625.5" font-family="Helvetica,sans-Serif" font-size="10.00">View::UpdateFromModel</text>
</a>
</g>
</g>
<!-- Node1&#45;&gt;Node40 -->
<g id="edge51" class="edge">
<title>Node1&#45;&gt;Node40</title>
<path fill="none" stroke="midnightblue" d="M1573.74,-633.5C1565.35,-633.5 1556.69,-633.5 1548.14,-633.5"/>
<polygon fill="midnightblue" stroke="midnightblue" points="1573.81,-637 1583.81,-633.5 1573.81,-630 1573.81,-637"/>
</g>
<!-- Node3 -->
<g id="node3" class="node">
<title>Node3</title>
<g id="a_node3"><a xlink:href="../../d5/d13/classOmniboxController.html#a8a273db0287d14e6dcb4492d8c3c98fd" target="_top" xlink:title=" ">
<polygon fill="white" stroke="black" points="1227.5,-667.5 1227.5,-697.5 1331.5,-697.5 1331.5,-667.5 1227.5,-667.5"/>
<text text-anchor="start" x="1235.5" y="-685.5" font-family="Helvetica,sans-Serif" font-size="10.00">OmniboxController::</text>
<text text-anchor="middle" x="1279.5" y="-674.5" font-family="Helvetica,sans-Serif" font-size="10.00">OnResultChanged</text>
</a>
</g>
</g>
<!-- Node2&#45;&gt;Node3 -->
<g id="edge2" class="edge">
<title>Node2&#45;&gt;Node3</title>
<path fill="none" stroke="midnightblue" d="M1386.24,-682.5C1367.65,-682.5 1348.5,-682.5 1331.7,-682.5"/>
<polygon fill="midnightblue" stroke="midnightblue" points="1386.5,-686 1396.5,-682.5 1386.5,-679 1386.5,-686"/>
</g>
<!-- Node5 -->
<g id="node5" class="node">
<title>Node5</title>
<g id="a_node5"><a xlink:href="../../d0/d22/classOmniboxEditModel.html#a7fe9144afe6dfdee76ea48f698f21b7a" target="_top" xlink:title=" ">
<polygon fill="white" stroke="black" points="1211.5,-211.5 1211.5,-241.5 1347.5,-241.5 1347.5,-211.5 1211.5,-211.5"/>
<text text-anchor="start" x="1219.5" y="-229.5" font-family="Helvetica,sans-Serif" font-size="10.00">OmniboxEditModel::Accept</text>
<text text-anchor="middle" x="1279.5" y="-218.5" font-family="Helvetica,sans-Serif" font-size="10.00">Keyword</text>
</a>
</g>
</g>
<!-- Node4&#45;&gt;Node5 -->
<g id="edge4" class="edge">
<title>Node4&#45;&gt;Node5</title>
<path fill="none" stroke="midnightblue" d="M1453.43,-340.3C1433.49,-314.78 1398.19,-274.22 1359,-250.5 1353.39,-247.1 1347.26,-244.15 1340.99,-241.6"/>
<polygon fill="midnightblue" stroke="midnightblue" points="1450.73,-342.53 1459.59,-348.34 1456.29,-338.27 1450.73,-342.53"/>
</g>
<!-- Node6 -->
<g id="node6" class="node">
<title>Node6</title>
<g id="a_node6"><a xlink:href="../../d3/d0a/classOmniboxSuggestionButtonRowView.html#a7914dd2f389c98c28906ce05bacf84e5" target="_top" xlink:title=" ">
<polygon fill="white" stroke="black" points="808,-443.5 808,-473.5 961,-473.5 961,-443.5 808,-443.5"/>
<text text-anchor="start" x="816" y="-461.5" font-family="Helvetica,sans-Serif" font-size="10.00">OmniboxSuggestionButtonRow</text>
<text text-anchor="middle" x="884.5" y="-450.5" font-family="Helvetica,sans-Serif" font-size="10.00">View::ButtonPressed</text>
</a>
</g>
</g>
<!-- Node4&#45;&gt;Node6 -->
<g id="edge23" class="edge">
<title>Node4&#45;&gt;Node6</title>
<path fill="none" stroke="midnightblue" d="M1464.46,-388.34C1452.5,-431.57 1421.4,-519.93 1359,-560.5 1291.83,-604.16 1072.51,-611.34 999,-579.5 948.52,-557.64 910.18,-501.04 893.97,-473.71"/>
<polygon fill="midnightblue" stroke="midnightblue" points="1467.85,-389.17 1467.03,-378.61 1461.09,-387.38 1467.85,-389.17"/>
</g>
<!-- Node19 -->
<g id="node19" class="node">
<title>Node19</title>
<g id="a_node19"><a xlink:href="../../d0/d22/classOmniboxEditModel.html#a83959087bebd9831bc3a3d0661ac85f0" target="_top" xlink:title=" ">
<polygon fill="white" stroke="black" points="1005,-216.5 1005,-246.5 1158,-246.5 1158,-216.5 1005,-216.5"/>
<text text-anchor="start" x="1013" y="-234.5" font-family="Helvetica,sans-Serif" font-size="10.00">OmniboxEditModel::StepPopup</text>
<text text-anchor="middle" x="1081.5" y="-223.5" font-family="Helvetica,sans-Serif" font-size="10.00">Selection</text>
</a>
</g>
</g>
<!-- Node4&#45;&gt;Node19 -->
<g id="edge38" class="edge">
<title>Node4&#45;&gt;Node19</title>
<path fill="none" stroke="midnightblue" d="M1394.84,-346.15C1316.33,-328.06 1204.33,-301.99 1200,-299.5 1179.84,-287.89 1183.43,-274.3 1164,-261.5 1155.06,-255.61 1144.81,-250.68 1134.67,-246.63"/>
<polygon fill="midnightblue" stroke="midnightblue" points="1394.19,-349.59 1404.72,-348.42 1395.76,-342.77 1394.19,-349.59"/>
</g>
<!-- Node21 -->
<g id="node21" class="node">
<title>Node21</title>
<g id="a_node21"><a xlink:href="../../d5/d13/classOmniboxController.html#a384c7add8676fa22968aa3cc0f90acf8" target="_top" xlink:title=" ">
<polygon fill="white" stroke="black" points="1214.5,-520.5 1214.5,-550.5 1344.5,-550.5 1344.5,-520.5 1214.5,-520.5"/>
<text text-anchor="start" x="1222.5" y="-538.5" font-family="Helvetica,sans-Serif" font-size="10.00">OmniboxController::</text>
<text text-anchor="middle" x="1279.5" y="-527.5" font-family="Helvetica,sans-Serif" font-size="10.00">ClearPopupKeywordMode</text>
</a>
</g>
</g>
<!-- Node4&#45;&gt;Node21 -->
<g id="edge24" class="edge">
<title>Node4&#45;&gt;Node21</title>
<path fill="none" stroke="midnightblue" d="M1452.54,-386.94C1431.79,-413.1 1395.76,-455.78 1359,-486.5 1343.47,-499.48 1324.21,-511.55 1308.65,-520.47"/>
<polygon fill="midnightblue" stroke="midnightblue" points="1455.55,-388.77 1458.97,-378.74 1450.04,-384.45 1455.55,-388.77"/>
</g>
<!-- Node23 -->
<g id="node23" class="node">
<title>Node23</title>
<g id="a_node23"><a xlink:href="../../d0/d94/classOmniboxViewViews.html#a9fc21bac19f3a666e10eabc84b72c745" target="_top" xlink:title=" ">
<polygon fill="white" stroke="black" points="1203.5,-446.5 1203.5,-476.5 1355.5,-476.5 1355.5,-446.5 1203.5,-446.5"/>
<text text-anchor="start" x="1211.5" y="-464.5" font-family="Helvetica,sans-Serif" font-size="10.00">OmniboxViewViews::OnMouse</text>
<text text-anchor="middle" x="1279.5" y="-453.5" font-family="Helvetica,sans-Serif" font-size="10.00">Pressed</text>
</a>
</g>
</g>
<!-- Node4&#45;&gt;Node23 -->
<g id="edge26" class="edge">
<title>Node4&#45;&gt;Node23</title>
<path fill="none" stroke="midnightblue" d="M1443.27,-384.83C1421.48,-401.08 1389.6,-423.04 1359,-437.5 1352.04,-440.79 1344.53,-443.76 1337,-446.39"/>
<polygon fill="midnightblue" stroke="midnightblue" points="1445.52,-387.52 1451.39,-378.7 1441.3,-381.93 1445.52,-387.52"/>
</g>
<!-- Node24 -->
<g id="node24" class="node">
<title>Node24</title>
<g id="a_node24"><a xlink:href="../../d0/d22/classOmniboxEditModel.html#a981623c1db1ef3409627b8cc237fe6a6" target="_top" xlink:title=" ">
<polygon fill="white" stroke="black" points="814,-41.5 814,-71.5 955,-71.5 955,-41.5 814,-41.5"/>
<text text-anchor="start" x="822" y="-59.5" font-family="Helvetica,sans-Serif" font-size="10.00">OmniboxEditModel::OnUpOr</text>
<text text-anchor="middle" x="884.5" y="-48.5" font-family="Helvetica,sans-Serif" font-size="10.00">DownKeyPressed</text>
</a>
</g>
</g>
<!-- Node4&#45;&gt;Node24 -->
<g id="edge27" class="edge">
<title>Node4&#45;&gt;Node24</title>
<path fill="none" stroke="midnightblue" d="M1466.46,-338.25C1457.17,-289.11 1429.41,-180.85 1359,-128.5 1239.39,-39.57 1055.14,-39.88 955.41,-48.05"/>
<polygon fill="midnightblue" stroke="midnightblue" points="1463.06,-339.11 1468.26,-348.34 1469.95,-337.88 1463.06,-339.11"/>
</g>
<!-- Node25 -->
<g id="node25" class="node">
<title>Node25</title>
<g id="a_node25"><a xlink:href="../../d0/d22/classOmniboxEditModel.html#aa9d90c515bb4fbd3dc1c12f5ffece74a" target="_top" xlink:title=" ">
<polygon fill="white" stroke="black" points="1200,-138.5 1200,-168.5 1359,-168.5 1359,-138.5 1200,-138.5"/>
<text text-anchor="start" x="1208" y="-156.5" font-family="Helvetica,sans-Serif" font-size="10.00">OmniboxEditModel::ResetPopup</text>
<text text-anchor="middle" x="1279.5" y="-145.5" font-family="Helvetica,sans-Serif" font-size="10.00">ToInitialState</text>
</a>
</g>
</g>
<!-- Node4&#45;&gt;Node25 -->
<g id="edge29" class="edge">
<title>Node4&#45;&gt;Node25</title>
<path fill="none" stroke="midnightblue" d="M1457.88,-338.89C1439.58,-304.93 1402.99,-243.18 1359,-201.5 1345.08,-188.32 1326.97,-176.95 1311.64,-168.58"/>
<polygon fill="midnightblue" stroke="midnightblue" points="1454.98,-340.89 1462.76,-348.09 1461.17,-337.61 1454.98,-340.89"/>
</g>
<!-- Node28 -->
<g id="node28" class="node">
<title>Node28</title>
<g id="a_node28"><a xlink:href="../../d7/d88/classOmniboxPopupContentsView.html#a98a7b1561a882c1894a11c08d007ca66" target="_top" xlink:title=" ">
<polygon fill="white" stroke="black" points="1207,-397.5 1207,-427.5 1352,-427.5 1352,-397.5 1207,-397.5"/>
<text text-anchor="start" x="1215" y="-415.5" font-family="Helvetica,sans-Serif" font-size="10.00">OmniboxPopupContentsView</text>
<text text-anchor="middle" x="1279.5" y="-404.5" font-family="Helvetica,sans-Serif" font-size="10.00">::SetSelectedIndex</text>
</a>
</g>
</g>
<!-- Node4&#45;&gt;Node28 -->
<g id="edge34" class="edge">
<title>Node4&#45;&gt;Node28</title>
<path fill="none" stroke="midnightblue" d="M1402.45,-381.05C1381.59,-386.43 1358.83,-392.3 1338.69,-397.49"/>
<polygon fill="midnightblue" stroke="midnightblue" points="1403.39,-384.42 1412.2,-378.53 1401.65,-377.64 1403.39,-384.42"/>
</g>
<!-- Node32 -->
<g id="node32" class="node">
<title>Node32</title>
<g id="a_node32"><a xlink:href="../../d0/d22/classOmniboxEditModel.html#a403c203952e105194bf2746aff5027dc" target="_top" xlink:title=" ">
<polygon fill="white" stroke="black" points="1202,-348.5 1202,-378.5 1357,-378.5 1357,-348.5 1202,-348.5"/>
<text text-anchor="start" x="1210" y="-366.5" font-family="Helvetica,sans-Serif" font-size="10.00">OmniboxEditModel::TryDeleting</text>
<text text-anchor="middle" x="1279.5" y="-355.5" font-family="Helvetica,sans-Serif" font-size="10.00">PopupLine</text>
</a>
</g>
</g>
<!-- Node4&#45;&gt;Node32 -->
<g id="edge39" class="edge">
<title>Node4&#45;&gt;Node32</title>
<path fill="none" stroke="midnightblue" d="M1387.03,-363.5C1377.08,-363.5 1366.96,-363.5 1357.11,-363.5"/>
<polygon fill="midnightblue" stroke="midnightblue" points="1387.31,-367 1397.31,-363.5 1387.31,-360 1387.31,-367"/>
</g>
<!-- Node39 -->
<g id="node39" class="node">
<title>Node39</title>
<g id="a_node39"><a xlink:href="../../d7/d88/classOmniboxPopupContentsView.html#afc5e0a376358cc99296ddb63c3fb14c0" target="_top" xlink:title=" ">
<polygon fill="white" stroke="black" points="1207,-260.5 1207,-290.5 1352,-290.5 1352,-260.5 1207,-260.5"/>
<text text-anchor="start" x="1215" y="-278.5" font-family="Helvetica,sans-Serif" font-size="10.00">OmniboxPopupContentsView</text>
<text text-anchor="middle" x="1279.5" y="-267.5" font-family="Helvetica,sans-Serif" font-size="10.00">::UnselectButton</text>
</a>
</g>
</g>
<!-- Node4&#45;&gt;Node39 -->
<g id="edge50" class="edge">
<title>Node4&#45;&gt;Node39</title>
<path fill="none" stroke="midnightblue" d="M1434.61,-343.49C1413,-331.79 1384.77,-317.08 1359,-305.5 1347.29,-300.24 1334.35,-295.05 1322.42,-290.5"/>
<polygon fill="midnightblue" stroke="midnightblue" points="1432.98,-346.59 1443.44,-348.31 1436.33,-340.45 1432.98,-346.59"/>
</g>
<!-- Node5&#45;&gt;Node6 -->
<g id="edge5" class="edge">
<title>Node5&#45;&gt;Node6</title>
<path fill="none" stroke="midnightblue" d="M1203.56,-247.45C1202.33,-248.42 1201.14,-249.44 1200,-250.5 1167.54,-280.68 1197.42,-314.38 1164,-343.5 1107.19,-393 1063.82,-344.08 999,-382.5 978.42,-394.7 982.24,-408.29 963,-422.5 951.78,-430.79 938.36,-437.84 925.85,-443.45"/>
<polygon fill="midnightblue" stroke="midnightblue" points="1205.81,-250.16 1212.17,-241.68 1201.91,-244.34 1205.81,-250.16"/>
</g>
<!-- Node11 -->
<g id="node11" class="node">
<title>Node11</title>
<g id="a_node11"><a xlink:href="../../d0/d22/classOmniboxEditModel.html#a2aa7d96a6df61aa1e05131d1c8009c16" target="_top" xlink:title=" ">
<polygon fill="white" stroke="black" points="999,-167.5 999,-197.5 1164,-197.5 1164,-167.5 999,-167.5"/>
<text text-anchor="start" x="1007" y="-185.5" font-family="Helvetica,sans-Serif" font-size="10.00">OmniboxEditModel::MaybeAccept</text>
<text text-anchor="middle" x="1081.5" y="-174.5" font-family="Helvetica,sans-Serif" font-size="10.00">KeywordBySpace</text>
</a>
</g>
</g>
<!-- Node5&#45;&gt;Node11 -->
<g id="edge10" class="edge">
<title>Node5&#45;&gt;Node11</title>
<path fill="none" stroke="midnightblue" d="M1201.58,-209.23C1184.35,-205.36 1166.22,-201.29 1149.43,-197.53"/>
<polygon fill="midnightblue" stroke="midnightblue" points="1201.07,-212.71 1211.6,-211.48 1202.61,-205.88 1201.07,-212.71"/>
</g>
<!-- Node5&#45;&gt;Node19 -->
<g id="edge19" class="edge">
<title>Node5&#45;&gt;Node19</title>
<path fill="none" stroke="midnightblue" d="M1201.18,-228.47C1187.09,-228.83 1172.39,-229.21 1158.34,-229.57"/>
<polygon fill="midnightblue" stroke="midnightblue" points="1201.41,-231.97 1211.32,-228.21 1201.24,-224.97 1201.41,-231.97"/>
</g>
<!-- Node7 -->
<g id="node7" class="node">
<title>Node7</title>
<g id="a_node7"><a xlink:href="../../d3/d0a/classOmniboxSuggestionButtonRowView.html#a75ca5fb3af853ffc8c5ed29380d2e72a" target="_top" xlink:title=" ">
<polygon fill="white" stroke="black" points="567,-444.5 567,-474.5 770,-474.5 770,-444.5 567,-444.5"/>
<text text-anchor="start" x="575" y="-462.5" font-family="Helvetica,sans-Serif" font-size="10.00">OmniboxSuggestionButtonRow</text>
<text text-anchor="middle" x="668.5" y="-451.5" font-family="Helvetica,sans-Serif" font-size="10.00">View::OmniboxSuggestionButtonRowView</text>
</a>
</g>
</g>
<!-- Node6&#45;&gt;Node7 -->
<g id="edge6" class="edge">
<title>Node6&#45;&gt;Node7</title>
<path fill="none" stroke="midnightblue" d="M797.67,-458.9C788.65,-458.94 779.42,-458.99 770.26,-459.03"/>
<polygon fill="midnightblue" stroke="midnightblue" points="797.77,-462.4 807.75,-458.85 797.73,-455.4 797.77,-462.4"/>
</g>
<!-- Node8 -->
<g id="node8" class="node">
<title>Node8</title>
<g id="a_node8"><a xlink:href="../../d3/d4c/classOmniboxResultView.html#a6768271ee0b1e6baa07eb56bbb74882d" target="_top" xlink:title=" ">
<polygon fill="white" stroke="black" points="394,-419.5 394,-449.5 506,-449.5 506,-419.5 394,-419.5"/>
<text text-anchor="start" x="402" y="-437.5" font-family="Helvetica,sans-Serif" font-size="10.00">OmniboxResultView::</text>
<text text-anchor="middle" x="450" y="-426.5" font-family="Helvetica,sans-Serif" font-size="10.00">OmniboxResultView</text>
</a>
</g>
</g>
<!-- Node7&#45;&gt;Node8 -->
<g id="edge7" class="edge">
<title>Node7&#45;&gt;Node8</title>
<path fill="none" stroke="midnightblue" d="M556.57,-446.69C539.09,-444.67 521.7,-442.66 506.23,-440.88"/>
<polygon fill="midnightblue" stroke="midnightblue" points="556.52,-450.21 566.86,-447.88 557.32,-443.25 556.52,-450.21"/>
</g>
<!-- Node9 -->
<g id="node9" class="node">
<title>Node9</title>
<g id="a_node9"><a xlink:href="../../d7/d88/classOmniboxPopupContentsView.html#aa8f47263f229af6a469c3bf964b81162" target="_top" xlink:title=" ">
<polygon fill="white" stroke="black" points="185,-419.5 185,-449.5 330,-449.5 330,-419.5 185,-419.5"/>
<text text-anchor="start" x="193" y="-437.5" font-family="Helvetica,sans-Serif" font-size="10.00">OmniboxPopupContentsView</text>
<text text-anchor="middle" x="257.5" y="-426.5" font-family="Helvetica,sans-Serif" font-size="10.00">::UpdatePopupAppearance</text>
</a>
</g>
</g>
<!-- Node8&#45;&gt;Node9 -->
<g id="edge8" class="edge">
<title>Node8&#45;&gt;Node9</title>
<path fill="none" stroke="midnightblue" d="M383.9,-434.5C366.59,-434.5 347.8,-434.5 330.16,-434.5"/>
<polygon fill="midnightblue" stroke="midnightblue" points="383.9,-438 393.9,-434.5 383.9,-431 383.9,-438"/>
</g>
<!-- Node10 -->
<g id="node10" class="node">
<title>Node10</title>
<g id="a_node10"><a xlink:href="../../d7/d88/classOmniboxPopupContentsView.html#a0e658101bc19acb66f6e0915fd6c2fe3" target="_top" xlink:title=" ">
<polygon fill="white" stroke="black" points="0.5,-419.5 0.5,-449.5 145.5,-449.5 145.5,-419.5 0.5,-419.5"/>
<text text-anchor="start" x="8.5" y="-437.5" font-family="Helvetica,sans-Serif" font-size="10.00">OmniboxPopupContentsView</text>
<text text-anchor="middle" x="73" y="-426.5" font-family="Helvetica,sans-Serif" font-size="10.00">::OnWidgetBoundsChanged</text>
</a>
</g>
</g>
<!-- Node9&#45;&gt;Node10 -->
<g id="edge9" class="edge">
<title>Node9&#45;&gt;Node10</title>
<path fill="none" stroke="midnightblue" d="M174.84,-434.5C165.12,-434.5 155.26,-434.5 145.7,-434.5"/>
<polygon fill="midnightblue" stroke="midnightblue" points="174.9,-438 184.89,-434.5 174.89,-431 174.9,-438"/>
</g>
<!-- Node12 -->
<g id="node12" class="node">
<title>Node12</title>
<g id="a_node12"><a xlink:href="../../d0/d22/classOmniboxEditModel.html#ada57fd155509f60afd9228e3a07e9b47" target="_top" xlink:title=" ">
<polygon fill="white" stroke="black" points="815,-90.5 815,-120.5 954,-120.5 954,-90.5 815,-90.5"/>
<text text-anchor="start" x="823" y="-108.5" font-family="Helvetica,sans-Serif" font-size="10.00">OmniboxEditModel::OnAfter</text>
<text text-anchor="middle" x="884.5" y="-97.5" font-family="Helvetica,sans-Serif" font-size="10.00">PossibleChange</text>
</a>
</g>
</g>
<!-- Node11&#45;&gt;Node12 -->
<g id="edge11" class="edge">
<title>Node11&#45;&gt;Node12</title>
<path fill="none" stroke="midnightblue" d="M1017.62,-164.13C1011.29,-162 1004.99,-159.78 999,-157.5 970.03,-146.48 938.01,-131.54 915.39,-120.51"/>
<polygon fill="midnightblue" stroke="midnightblue" points="1016.95,-167.59 1027.54,-167.37 1019.13,-160.94 1016.95,-167.59"/>
</g>
<!-- Node13 -->
<g id="node13" class="node">
<title>Node13</title>
<g id="a_node13"><a xlink:href="../../d0/d94/classOmniboxViewViews.html#a18cba16b87566313a94b57d0e4a7ce12" target="_top" xlink:title=" ">
<polygon fill="white" stroke="black" points="596.5,-65.5 596.5,-95.5 740.5,-95.5 740.5,-65.5 596.5,-65.5"/>
<text text-anchor="start" x="604.5" y="-83.5" font-family="Helvetica,sans-Serif" font-size="10.00">OmniboxViewViews::OnAfter</text>
<text text-anchor="middle" x="668.5" y="-72.5" font-family="Helvetica,sans-Serif" font-size="10.00">PossibleChange</text>
</a>
</g>
</g>
<!-- Node12&#45;&gt;Node13 -->
<g id="edge12" class="edge">
<title>Node12&#45;&gt;Node13</title>
<path fill="none" stroke="midnightblue" d="M804.74,-96.3C783.76,-93.85 761.21,-91.21 740.65,-88.81"/>
<polygon fill="midnightblue" stroke="midnightblue" points="804.57,-99.8 814.91,-97.49 805.38,-92.85 804.57,-99.8"/>
</g>
<!-- Node14 -->
<g id="node14" class="node">
<title>Node14</title>
<g id="a_node14"><a xlink:href="../../d0/d94/classOmniboxViewViews.html#a487a0ced2870997b0f88d8dcab9a4f0e" target="_top" xlink:title=" ">
<polygon fill="white" stroke="black" points="0,-0.5 0,-30.5 146,-30.5 146,-0.5 0,-0.5"/>
<text text-anchor="start" x="8" y="-18.5" font-family="Helvetica,sans-Serif" font-size="10.00">OmniboxViewViews::Execute</text>
<text text-anchor="middle" x="73" y="-7.5" font-family="Helvetica,sans-Serif" font-size="10.00">Command</text>
</a>
</g>
</g>
<!-- Node13&#45;&gt;Node14 -->
<g id="edge13" class="edge">
<title>Node13&#45;&gt;Node14</title>
<path fill="none" stroke="midnightblue" d="M623.81,-61.67C597.42,-51.09 562.84,-38.63 531,-31.5 397.75,-1.68 237.26,-4.71 146.28,-9.91"/>
<polygon fill="midnightblue" stroke="midnightblue" points="622.56,-64.94 633.14,-65.46 625.2,-58.45 622.56,-64.94"/>
</g>
<!-- Node15 -->
<g id="node15" class="node">
<title>Node15</title>
<g id="a_node15"><a xlink:href="../../d0/d94/classOmniboxViewViews.html#a81d025d1f692c96482925dfbab529691" target="_top" xlink:title=" ">
<polygon fill="white" stroke="black" points="378,-90.5 378,-120.5 522,-120.5 522,-90.5 378,-90.5"/>
<text text-anchor="start" x="386" y="-108.5" font-family="Helvetica,sans-Serif" font-size="10.00">OmniboxViewViews::OnAfter</text>
<text text-anchor="middle" x="450" y="-97.5" font-family="Helvetica,sans-Serif" font-size="10.00">UserAction</text>
</a>
</g>
</g>
<!-- Node13&#45;&gt;Node15 -->
<g id="edge14" class="edge">
<title>Node13&#45;&gt;Node15</title>
<path fill="none" stroke="midnightblue" d="M586.13,-89.9C565.12,-92.32 542.68,-94.91 522.23,-97.27"/>
<polygon fill="midnightblue" stroke="midnightblue" points="586.78,-93.34 596.31,-88.72 585.97,-86.39 586.78,-93.34"/>
</g>
<!-- Node16 -->
<g id="node16" class="node">
<title>Node16</title>
<g id="a_node16"><a xlink:href="../../d0/d94/classOmniboxViewViews.html#af593bb600ecfa2ed731497a260451b47" target="_top" xlink:title=" ">
<polygon fill="white" stroke="black" points="369,-41.5 369,-71.5 531,-71.5 531,-41.5 369,-41.5"/>
<text text-anchor="start" x="377" y="-59.5" font-family="Helvetica,sans-Serif" font-size="10.00">OmniboxViewViews::OnOmnibox</text>
<text text-anchor="middle" x="450" y="-48.5" font-family="Helvetica,sans-Serif" font-size="10.00">Paste</text>
</a>
</g>
</g>
<!-- Node13&#45;&gt;Node16 -->
<g id="edge15" class="edge">
<title>Node13&#45;&gt;Node16</title>
<path fill="none" stroke="midnightblue" d="M586.16,-71.48C568.18,-69.49 549.15,-67.38 531.22,-65.39"/>
<polygon fill="midnightblue" stroke="midnightblue" points="585.99,-74.99 596.31,-72.61 586.76,-68.03 585.99,-74.99"/>
</g>
<!-- Node17 -->
<g id="node17" class="node">
<title>Node17</title>
<g id="a_node17"><a xlink:href="../../d0/d94/classOmniboxViewViews.html#ae3ebda306ffa960bb7a3a1ebe7f7fc76" target="_top" xlink:title=" ">
<polygon fill="white" stroke="black" points="184.5,-22.5 184.5,-52.5 330.5,-52.5 330.5,-22.5 184.5,-22.5"/>
<text text-anchor="start" x="192.5" y="-40.5" font-family="Helvetica,sans-Serif" font-size="10.00">OmniboxViewViews::Execute</text>
<text text-anchor="middle" x="257.5" y="-29.5" font-family="Helvetica,sans-Serif" font-size="10.00">TextEditCommand</text>
</a>
</g>
</g>
<!-- Node16&#45;&gt;Node17 -->
<g id="edge16" class="edge">
<title>Node16&#45;&gt;Node17</title>
<path fill="none" stroke="midnightblue" d="M358.66,-47.49C349.3,-46.56 339.89,-45.62 330.77,-44.71"/>
<polygon fill="midnightblue" stroke="midnightblue" points="358.46,-50.99 368.76,-48.5 359.16,-44.02 358.46,-50.99"/>
</g>
<!-- Node17&#45;&gt;Node14 -->
<g id="edge17" class="edge">
<title>Node17&#45;&gt;Node14</title>
<path fill="none" stroke="midnightblue" d="M174.28,-27.59C164.92,-26.46 155.42,-25.32 146.2,-24.2"/>
<polygon fill="midnightblue" stroke="midnightblue" points="174.02,-31.08 184.37,-28.81 174.86,-24.13 174.02,-31.08"/>
</g>
<!-- Node18 -->
<g id="node18" class="node">
<title>Node18</title>
<g id="a_node18"><a xlink:href="../../d0/d94/classOmniboxViewViews.html#a5a64c1e16631c3301fb57307402784dc" target="_top" xlink:title=" ">
<polygon fill="white" stroke="black" points="2.5,-172.5 2.5,-202.5 143.5,-202.5 143.5,-172.5 2.5,-172.5"/>
<text text-anchor="start" x="10.5" y="-190.5" font-family="Helvetica,sans-Serif" font-size="10.00">OmniboxViewViews::Handle</text>
<text text-anchor="middle" x="73" y="-179.5" font-family="Helvetica,sans-Serif" font-size="10.00">KeyEvent</text>
</a>
</g>
</g>
<!-- Node17&#45;&gt;Node18 -->
<g id="edge18" class="edge">
<title>Node17&#45;&gt;Node18</title>
<path fill="none" stroke="midnightblue" d="M230.02,-59.26C192.48,-90.12 124.72,-145.81 92.28,-172.47"/>
<polygon fill="midnightblue" stroke="midnightblue" points="232.49,-61.76 238,-52.71 228.05,-56.35 232.49,-61.76"/>
</g>
<!-- Node19&#45;&gt;Node18 -->
<g id="edge22" class="edge">
<title>Node19&#45;&gt;Node18</title>
<path fill="none" stroke="midnightblue" d="M994.75,-216.94C911.8,-204.12 782.42,-187.5 669.5,-187.5 669.5,-187.5 669.5,-187.5 449,-187.5 342.55,-187.5 219.11,-187.5 143.81,-187.5"/>
<polygon fill="midnightblue" stroke="midnightblue" points="994.21,-220.39 1004.63,-218.48 995.29,-213.48 994.21,-220.39"/>
</g>
<!-- Node20 -->
<g id="node20" class="node">
<title>Node20</title>
<g id="a_node20"><a xlink:href="../../d0/d94/classOmniboxViewViews.html#a914ba78328ab785df56d9b0cbdee157e" target="_top" xlink:title=" ">
<polygon fill="white" stroke="black" points="187,-216.5 187,-246.5 328,-246.5 328,-216.5 187,-216.5"/>
<text text-anchor="start" x="195" y="-234.5" font-family="Helvetica,sans-Serif" font-size="10.00">OmniboxViewViews::Handle</text>
<text text-anchor="middle" x="257.5" y="-223.5" font-family="Helvetica,sans-Serif" font-size="10.00">EarlyTabActions</text>
</a>
</g>
</g>
<!-- Node19&#45;&gt;Node20 -->
<g id="edge20" class="edge">
<title>Node19&#45;&gt;Node20</title>
<path fill="none" stroke="midnightblue" d="M994.62,-231.5C831.08,-231.5 477.91,-231.5 328.03,-231.5"/>
<polygon fill="midnightblue" stroke="midnightblue" points="994.64,-235 1004.64,-231.5 994.64,-228 994.64,-235"/>
</g>
<!-- Node20&#45;&gt;Node18 -->
<g id="edge21" class="edge">
<title>Node20&#45;&gt;Node18</title>
<path fill="none" stroke="midnightblue" d="M184.43,-214.12C168.52,-210.29 151.8,-206.26 136.32,-202.53"/>
<polygon fill="midnightblue" stroke="midnightblue" points="183.66,-217.54 194.2,-216.48 185.3,-210.73 183.66,-217.54"/>
</g>
<!-- Node22 -->
<g id="node22" class="node">
<title>Node22</title>
<g id="a_node22"><a xlink:href="../../d5/d13/classOmniboxController.html#a6d83556de328e78b4b531d7edac04852" target="_top" xlink:title=" ">
<polygon fill="white" stroke="black" points="1029.5,-539.5 1029.5,-569.5 1133.5,-569.5 1133.5,-539.5 1029.5,-539.5"/>
<text text-anchor="start" x="1037.5" y="-557.5" font-family="Helvetica,sans-Serif" font-size="10.00">OmniboxController::</text>
<text text-anchor="middle" x="1081.5" y="-546.5" font-family="Helvetica,sans-Serif" font-size="10.00">StartAutocomplete</text>
</a>
</g>
</g>
<!-- Node21&#45;&gt;Node22 -->
<g id="edge25" class="edge">
<title>Node21&#45;&gt;Node22</title>
<path fill="none" stroke="midnightblue" d="M1204.06,-542.72C1180.61,-544.99 1155.24,-547.45 1133.78,-549.53"/>
<polygon fill="midnightblue" stroke="midnightblue" points="1204.71,-546.17 1214.32,-541.72 1204.03,-539.2 1204.71,-546.17"/>
</g>
<!-- Node24&#45;&gt;Node17 -->
<g id="edge28" class="edge">
<title>Node24&#45;&gt;Node17</title>
<path fill="none" stroke="midnightblue" d="M803.42,-49.2C732.03,-43.07 624.65,-34.82 531,-31.5 459.05,-28.95 440.97,-29.55 369,-31.5 356.61,-31.84 343.45,-32.38 330.7,-33.01"/>
<polygon fill="midnightblue" stroke="midnightblue" points="803.42,-52.71 813.69,-50.08 804.02,-45.74 803.42,-52.71"/>
</g>
<!-- Node26 -->
<g id="node26" class="node">
<title>Node26</title>
<g id="a_node26"><a xlink:href="../../d0/d22/classOmniboxEditModel.html#a39926e2bd4726e63bbd5815c50075ad4" target="_top" xlink:title=" ">
<polygon fill="white" stroke="black" points="1014.5,-118.5 1014.5,-148.5 1148.5,-148.5 1148.5,-118.5 1014.5,-118.5"/>
<text text-anchor="start" x="1022.5" y="-136.5" font-family="Helvetica,sans-Serif" font-size="10.00">OmniboxEditModel::Revert</text>
<text text-anchor="middle" x="1081.5" y="-125.5" font-family="Helvetica,sans-Serif" font-size="10.00">TemporaryTextAndPopup</text>
</a>
</g>
</g>
<!-- Node25&#45;&gt;Node26 -->
<g id="edge30" class="edge">
<title>Node25&#45;&gt;Node26</title>
<path fill="none" stroke="midnightblue" d="M1189.85,-144.45C1175.95,-143.04 1161.79,-141.59 1148.52,-140.24"/>
<polygon fill="midnightblue" stroke="midnightblue" points="1189.6,-147.95 1199.91,-145.48 1190.32,-140.98 1189.6,-147.95"/>
</g>
<!-- Node26&#45;&gt;Node24 -->
<g id="edge33" class="edge">
<title>Node26&#45;&gt;Node24</title>
<path fill="none" stroke="midnightblue" d="M1040.77,-114.1C1018.25,-103.48 989.37,-90.49 963,-80.5 954.83,-77.41 946.08,-74.4 937.49,-71.63"/>
<polygon fill="midnightblue" stroke="midnightblue" points="1039.48,-117.36 1050.01,-118.5 1042.48,-111.04 1039.48,-117.36"/>
</g>
<!-- Node27 -->
<g id="node27" class="node">
<title>Node27</title>
<g id="a_node27"><a xlink:href="../../d0/d22/classOmniboxEditModel.html#a443085668cdebe43104bc5a52047d5db" target="_top" xlink:title=" ">
<polygon fill="white" stroke="black" points="182,-128.5 182,-158.5 333,-158.5 333,-128.5 182,-128.5"/>
<text text-anchor="start" x="190" y="-146.5" font-family="Helvetica,sans-Serif" font-size="10.00">OmniboxEditModel::OnEscape</text>
<text text-anchor="middle" x="257.5" y="-135.5" font-family="Helvetica,sans-Serif" font-size="10.00">KeyPressed</text>
</a>
</g>
</g>
<!-- Node26&#45;&gt;Node27 -->
<g id="edge31" class="edge">
<title>Node26&#45;&gt;Node27</title>
<path fill="none" stroke="midnightblue" d="M1004.22,-134.43C847.05,-136.34 488.87,-140.7 333.13,-142.59"/>
<polygon fill="midnightblue" stroke="midnightblue" points="1004.32,-137.93 1014.28,-134.31 1004.23,-130.93 1004.32,-137.93"/>
</g>
<!-- Node27&#45;&gt;Node18 -->
<g id="edge32" class="edge">
<title>Node27&#45;&gt;Node18</title>
<path fill="none" stroke="midnightblue" d="M184.43,-160.88C168.52,-164.71 151.8,-168.74 136.32,-172.47"/>
<polygon fill="midnightblue" stroke="midnightblue" points="185.3,-164.27 194.2,-158.52 183.66,-157.46 185.3,-164.27"/>
</g>
<!-- Node29 -->
<g id="node29" class="node">
<title>Node29</title>
<g id="a_node29"><a xlink:href="../../d7/d88/classOmniboxPopupContentsView.html#a3d38c79ff5a02bb128a765c54878bc65" target="_top" xlink:title=" ">
<polygon fill="white" stroke="black" points="1009,-392.5 1009,-422.5 1154,-422.5 1154,-392.5 1009,-392.5"/>
<text text-anchor="start" x="1017" y="-410.5" font-family="Helvetica,sans-Serif" font-size="10.00">OmniboxPopupContentsView</text>
<text text-anchor="middle" x="1081.5" y="-399.5" font-family="Helvetica,sans-Serif" font-size="10.00">::OnGestureEvent</text>
</a>
</g>
</g>
<!-- Node28&#45;&gt;Node29 -->
<g id="edge35" class="edge">
<title>Node28&#45;&gt;Node29</title>
<path fill="none" stroke="midnightblue" d="M1196.73,-410.41C1182.62,-410.05 1168.05,-409.68 1154.23,-409.33"/>
<polygon fill="midnightblue" stroke="midnightblue" points="1196.82,-413.92 1206.91,-410.67 1197,-406.92 1196.82,-413.92"/>
</g>
<!-- Node30 -->
<g id="node30" class="node">
<title>Node30</title>
<g id="a_node30"><a xlink:href="../../d3/d4c/classOmniboxResultView.html#adfc2b5da2f71c87fa3d391a32bc5ebf9" target="_top" xlink:title=" ">
<polygon fill="white" stroke="black" points="1025.5,-490.5 1025.5,-520.5 1137.5,-520.5 1137.5,-490.5 1025.5,-490.5"/>
<text text-anchor="start" x="1033.5" y="-508.5" font-family="Helvetica,sans-Serif" font-size="10.00">OmniboxResultView::</text>
<text text-anchor="middle" x="1081.5" y="-497.5" font-family="Helvetica,sans-Serif" font-size="10.00">OnMouseDragged</text>
</a>
</g>
</g>
<!-- Node28&#45;&gt;Node30 -->
<g id="edge36" class="edge">
<title>Node28&#45;&gt;Node30</title>
<path fill="none" stroke="midnightblue" d="M1209.23,-431.97C1206.02,-433.67 1202.93,-435.51 1200,-437.5 1179.1,-451.7 1185.06,-467.53 1164,-481.5 1156.01,-486.8 1146.82,-490.96 1137.56,-494.21"/>
<polygon fill="midnightblue" stroke="midnightblue" points="1210.97,-435.02 1218.49,-427.55 1207.96,-428.7 1210.97,-435.02"/>
</g>
<!-- Node31 -->
<g id="node31" class="node">
<title>Node31</title>
<g id="a_node31"><a xlink:href="../../d3/d4c/classOmniboxResultView.html#a6410100a85444fe2d63e736f77049d7e" target="_top" xlink:title=" ">
<polygon fill="white" stroke="black" points="1025.5,-441.5 1025.5,-471.5 1137.5,-471.5 1137.5,-441.5 1025.5,-441.5"/>
<text text-anchor="start" x="1033.5" y="-459.5" font-family="Helvetica,sans-Serif" font-size="10.00">OmniboxResultView::</text>
<text text-anchor="middle" x="1081.5" y="-448.5" font-family="Helvetica,sans-Serif" font-size="10.00">OnMousePressed</text>
</a>
</g>
</g>
<!-- Node28&#45;&gt;Node31 -->
<g id="edge37" class="edge">
<title>Node28&#45;&gt;Node31</title>
<path fill="none" stroke="midnightblue" d="M1201.59,-429.77C1180.26,-434.55 1157.54,-439.66 1137.72,-444.1"/>
<polygon fill="midnightblue" stroke="midnightblue" points="1202.61,-433.12 1211.6,-427.52 1201.07,-426.29 1202.61,-433.12"/>
</g>
<!-- Node32&#45;&gt;Node18 -->
<g id="edge40" class="edge">
<title>Node32&#45;&gt;Node18</title>
<path fill="none" stroke="midnightblue" d="M1221.31,-344.36C1213.88,-340.89 1206.57,-336.94 1200,-332.5 1180.72,-319.47 1185.05,-304.41 1164,-294.5 1051.77,-241.63 1009.57,-275.5 885.5,-275.5 885.5,-275.5 885.5,-275.5 449,-275.5 330,-275.5 295.02,-292.75 182,-255.5 147.07,-243.99 112.03,-218.81 91.71,-202.54"/>
<polygon fill="midnightblue" stroke="midnightblue" points="1220.18,-347.69 1230.74,-348.49 1222.99,-341.27 1220.18,-347.69"/>
</g>
<!-- Node33 -->
<g id="node33" class="node">
<title>Node33</title>
<g id="a_node33"><a xlink:href="../../d0/d22/classOmniboxEditModel.html#aeef542747913fd1ebe0edc5a9714095c" target="_top" xlink:title=" ">
<polygon fill="white" stroke="black" points="1014,-304.5 1014,-334.5 1149,-334.5 1149,-304.5 1014,-304.5"/>
<text text-anchor="start" x="1022" y="-322.5" font-family="Helvetica,sans-Serif" font-size="10.00">OmniboxEditModel::Trigger</text>
<text text-anchor="middle" x="1081.5" y="-311.5" font-family="Helvetica,sans-Serif" font-size="10.00">PopupSelectionAction</text>
</a>
</g>
</g>
<!-- Node32&#45;&gt;Node33 -->
<g id="edge41" class="edge">
<title>Node32&#45;&gt;Node33</title>
<path fill="none" stroke="midnightblue" d="M1201.52,-346.22C1184.2,-342.33 1165.96,-338.24 1149.1,-334.45"/>
<polygon fill="midnightblue" stroke="midnightblue" points="1201.07,-349.71 1211.6,-348.48 1202.61,-342.88 1201.07,-349.71"/>
</g>
<!-- Node33&#45;&gt;Node6 -->
<g id="edge44" class="edge">
<title>Node33&#45;&gt;Node6</title>
<path fill="none" stroke="midnightblue" d="M1012.83,-339.4C1007.86,-342.33 1003.16,-345.67 999,-349.5 971.18,-375.06 990.32,-400.41 963,-426.5 955.74,-433.44 946.76,-438.96 937.52,-443.33"/>
<polygon fill="midnightblue" stroke="midnightblue" points="1014.82,-342.31 1022.05,-334.57 1011.57,-336.11 1014.82,-342.31"/>
</g>
<!-- Node34 -->
<g id="node34" class="node">
<title>Node34</title>
<g id="a_node34"><a xlink:href="../../d3/d4c/classOmniboxResultView.html#adea3835a2f2809073b71b101cfecc957" target="_top" xlink:title=" ">
<polygon fill="white" stroke="black" points="612.5,-395.5 612.5,-425.5 724.5,-425.5 724.5,-395.5 612.5,-395.5"/>
<text text-anchor="start" x="620.5" y="-413.5" font-family="Helvetica,sans-Serif" font-size="10.00">OmniboxResultView::</text>
<text text-anchor="middle" x="668.5" y="-402.5" font-family="Helvetica,sans-Serif" font-size="10.00">ButtonPressed</text>
</a>
</g>
</g>
<!-- Node33&#45;&gt;Node34 -->
<g id="edge42" class="edge">
<title>Node33&#45;&gt;Node34</title>
<path fill="none" stroke="midnightblue" d="M1018.01,-338.6C1011.33,-341.76 1004.85,-345.38 999,-349.5 978.62,-363.84 985.25,-381.27 963,-392.5 887.35,-430.69 786.4,-426.92 724.77,-419.55"/>
<polygon fill="midnightblue" stroke="midnightblue" points="1019.45,-341.78 1027.19,-334.55 1016.63,-335.38 1019.45,-341.78"/>
</g>
<!-- Node35 -->
<g id="node35" class="node">
<title>Node35</title>
<g id="a_node35"><a xlink:href="../../d2/dcb/classOmniboxRowView_1_1HeaderView.html#a441ded0bc83346ff1773063183d470f2" target="_top" xlink:title=" ">
<polygon fill="white" stroke="black" points="806,-304.5 806,-334.5 963,-334.5 963,-304.5 806,-304.5"/>
<text text-anchor="start" x="814" y="-322.5" font-family="Helvetica,sans-Serif" font-size="10.00">OmniboxRowView::HeaderView</text>
<text text-anchor="middle" x="884.5" y="-311.5" font-family="Helvetica,sans-Serif" font-size="10.00">::HeaderToggleButtonPressed</text>
</a>
</g>
</g>
<!-- Node33&#45;&gt;Node35 -->
<g id="edge45" class="edge">
<title>Node33&#45;&gt;Node35</title>
<path fill="none" stroke="midnightblue" d="M1003.84,-319.5C990.48,-319.5 976.57,-319.5 963.19,-319.5"/>
<polygon fill="midnightblue" stroke="midnightblue" points="1003.94,-323 1013.94,-319.5 1003.94,-316 1003.94,-323"/>
</g>
<!-- Node38 -->
<g id="node38" class="node">
<title>Node38</title>
<g id="a_node38"><a xlink:href="../../d2/dcb/classOmniboxRowView_1_1HeaderView.html#af9e1207af3e2688cdccfd7b8c1267a3c" target="_top" xlink:title=" ">
<polygon fill="white" stroke="black" points="806,-353.5 806,-383.5 963,-383.5 963,-353.5 806,-353.5"/>
<text text-anchor="start" x="814" y="-371.5" font-family="Helvetica,sans-Serif" font-size="10.00">OmniboxRowView::HeaderView</text>
<text text-anchor="middle" x="884.5" y="-360.5" font-family="Helvetica,sans-Serif" font-size="10.00">::OnMouseReleased</text>
</a>
</g>
</g>
<!-- Node33&#45;&gt;Node38 -->
<g id="edge49" class="edge">
<title>Node33&#45;&gt;Node38</title>
<path fill="none" stroke="midnightblue" d="M1010.95,-336.98C989.46,-342.38 965.99,-348.28 945.22,-353.49"/>
<polygon fill="midnightblue" stroke="midnightblue" points="1011.82,-340.37 1020.67,-334.53 1010.12,-333.58 1011.82,-340.37"/>
</g>
<!-- Node34&#45;&gt;Node8 -->
<g id="edge43" class="edge">
<title>Node34&#45;&gt;Node8</title>
<path fill="none" stroke="midnightblue" d="M602.14,-417.75C571.48,-421.14 535.34,-425.15 506.09,-428.39"/>
<polygon fill="midnightblue" stroke="midnightblue" points="602.75,-421.2 612.31,-416.62 601.98,-414.24 602.75,-421.2"/>
</g>
<!-- Node36 -->
<g id="node36" class="node">
<title>Node36</title>
<g id="a_node36"><a xlink:href="../../d2/dcb/classOmniboxRowView_1_1HeaderView.html#ad1abf8339bf99de0b39a9bb43111ba93" target="_top" xlink:title=" ">
<polygon fill="white" stroke="black" points="590,-326.5 590,-356.5 747,-356.5 747,-326.5 590,-326.5"/>
<text text-anchor="start" x="598" y="-344.5" font-family="Helvetica,sans-Serif" font-size="10.00">OmniboxRowView::HeaderView</text>
<text text-anchor="middle" x="668.5" y="-333.5" font-family="Helvetica,sans-Serif" font-size="10.00">::HeaderView</text>
</a>
</g>
</g>
<!-- Node35&#45;&gt;Node36 -->
<g id="edge46" class="edge">
<title>Node35&#45;&gt;Node36</title>
<path fill="none" stroke="midnightblue" d="M795.96,-328.5C779.79,-330.16 763.01,-331.89 747.16,-333.52"/>
<polygon fill="midnightblue" stroke="midnightblue" points="796.35,-331.98 805.94,-327.47 795.63,-325.01 796.35,-331.98"/>
</g>
<!-- Node37 -->
<g id="node37" class="node">
<title>Node37</title>
<g id="a_node37"><a xlink:href="../../da/da2/classOmniboxRowView.html#a6add650851301372ee9b8a6671cfa28c" target="_top" xlink:title=" ">
<polygon fill="white" stroke="black" points="370,-357 370,-376 530,-376 530,-357 370,-357"/>
<text text-anchor="middle" x="450" y="-364" font-family="Helvetica,sans-Serif" font-size="10.00">OmniboxRowView::ShowHeader</text>
</a>
</g>
</g>
<!-- Node36&#45;&gt;Node37 -->
<g id="edge47" class="edge">
<title>Node36&#45;&gt;Node37</title>
<path fill="none" stroke="midnightblue" d="M579.83,-351.62C563.41,-353.52 546.34,-355.49 530.2,-357.36"/>
<polygon fill="midnightblue" stroke="midnightblue" points="580.42,-355.08 589.95,-350.45 579.61,-348.13 580.42,-355.08"/>
</g>
<!-- Node37&#45;&gt;Node9 -->
<g id="edge48" class="edge">
<title>Node37&#45;&gt;Node9</title>
<path fill="none" stroke="midnightblue" d="M412.28,-379.61C380.36,-391 334.11,-407.51 300.68,-419.44"/>
<polygon fill="midnightblue" stroke="midnightblue" points="413.87,-382.76 422.11,-376.1 411.52,-376.16 413.87,-382.76"/>
</g>
<!-- Node41 -->
<g id="node41" class="node">
<title>Node41</title>
<g id="a_node41"><a xlink:href="../../d3/d4c/classOmniboxResultView.html#ad0185705673042dc89733278acc080e5" target="_top" xlink:title=" ">
<polygon fill="white" stroke="black" points="612.5,-558.5 612.5,-588.5 724.5,-588.5 724.5,-558.5 612.5,-558.5"/>
<text text-anchor="start" x="620.5" y="-576.5" font-family="Helvetica,sans-Serif" font-size="10.00">OmniboxResultView::</text>
<text text-anchor="middle" x="668.5" y="-565.5" font-family="Helvetica,sans-Serif" font-size="10.00">SetMatch</text>
</a>
</g>
</g>
<!-- Node40&#45;&gt;Node41 -->
<g id="edge52" class="edge">
<title>Node40&#45;&gt;Node41</title>
<path fill="none" stroke="midnightblue" d="M1384.85,-628.44C1290.34,-622.72 1133.75,-612.86 999,-602.5 902.38,-595.07 789.97,-584.84 724.56,-578.72"/>
<polygon fill="midnightblue" stroke="midnightblue" points="1384.73,-631.94 1394.93,-629.05 1385.16,-624.95 1384.73,-631.94"/>
</g>
<!-- Node41&#45;&gt;Node9 -->
<g id="edge53" class="edge">
<title>Node41&#45;&gt;Node9</title>
<path fill="none" stroke="midnightblue" d="M613.75,-555.23C532.12,-527.49 378.4,-475.25 302.78,-449.55"/>
<polygon fill="midnightblue" stroke="midnightblue" points="612.75,-558.59 623.34,-558.49 615,-551.96 612.75,-558.59"/>
</g>
</g>
</svg>
        <g id="navigator" transform="translate(0 0)" fill="#404254">
                <rect fill="#f2f5e9" fill-opacity="0.5" stroke="#606060" stroke-width=".5" x="0" y="0" width="60" height="60"/>
                <use id="zoomplus" xlink:href="#zoomPlus" x="17" y="9" onmousedown="handleZoom(evt,'in')"/>
                <use id="zoomminus" xlink:href="#zoomMin" x="42" y="9" onmousedown="handleZoom(evt,'out')"/>
                <use id="reset" xlink:href="#resetDef" x="30" y="36" onmousedown="handleReset()"/>
                <g id="arrowUp" xlink:href="#dirArrow" transform="translate(30 24)" onmousedown="handlePan(0,-1)">
                  <use xlink:href="#rim" fill="#404040">
                        <set attributeName="fill" to="#808080" begin="arrowUp.mouseover" end="arrowUp.mouseout"/>
                  </use>
                  <path fill="none" stroke="white" stroke-width="1.5" d="M0,-3.0v7 M-2.5,-0.5L0,-3.0L2.5,-0.5"/>
                </g>
                <g id="arrowRight" xlink:href="#dirArrow" transform="rotate(90) translate(36 -43)" onmousedown="handlePan(1,0)">
                  <use xlink:href="#rim" fill="#404040">
                        <set attributeName="fill" to="#808080" begin="arrowRight.mouseover" end="arrowRight.mouseout"/>
                  </use>
                  <path fill="none" stroke="white" stroke-width="1.5" d="M0,-3.0v7 M-2.5,-0.5L0,-3.0L2.5,-0.5"/>
                </g>
                <g id="arrowDown" xlink:href="#dirArrow" transform="rotate(180) translate(-30 -48)" onmousedown="handlePan(0,1)">
                  <use xlink:href="#rim" fill="#404040">
                        <set attributeName="fill" to="#808080" begin="arrowDown.mouseover" end="arrowDown.mouseout"/>
                  </use>
                  <path fill="none" stroke="white" stroke-width="1.5" d="M0,-3.0v7 M-2.5,-0.5L0,-3.0L2.5,-0.5"/>
                </g>
                <g id="arrowLeft" xlink:href="#dirArrow" transform="rotate(270) translate(-36 17)" onmousedown="handlePan(-1,0)">
                  <use xlink:href="#rim" fill="#404040">
                        <set attributeName="fill" to="#808080" begin="arrowLeft.mouseover" end="arrowLeft.mouseout"/>
                  </use>
                  <path fill="none" stroke="white" stroke-width="1.5" d="M0,-3.0v7 M-2.5,-0.5L0,-3.0L2.5,-0.5"/>
                </g>
        </g>
        <svg viewBox="0 0 15 15" width="100%" height="30px" preserveAspectRatio="xMaxYMin meet">
         <g id="arrow_out" transform="scale(0.3 0.3)">
          <a xlink:href="structAutocompleteMatch_af2ac3e02ad0f07e7996a593a7766e402_icgraph_org.svg" target="_base">
           <rect id="button" ry="5" rx="5" y="6" x="6" height="38" width="38"
                fill="#f2f5e9" fill-opacity="0.5" stroke="#606060" stroke-width="1.0"/>
           <path id="arrow"
             d="M 11.500037,31.436501 C 11.940474,20.09759 22.043105,11.32322 32.158766,21.979434 L 37.068811,17.246167 C 37.068811,17.246167 37.088388,32 37.088388,32 L 22.160133,31.978069 C 22.160133,31.978069 26.997745,27.140456 26.997745,27.140456 C 18.528582,18.264221 13.291696,25.230495 11.500037,31.436501 z"
             style="fill:#404040;"/>
          </a>
         </g>
        </svg>
</svg>
