<?xml version="1.0" encoding="UTF-8" standalone="no"?>
<!DOCTYPE svg PUBLIC "-//W3C//DTD SVG 1.1//EN"
 "http://www.w3.org/Graphics/SVG/1.1/DTD/svg11.dtd">
<!-- Generated by graphviz version 2.43.0 (0)
 -->
<!-- Title: components/omnibox/browser/local_history_zero_suggest_provider.h Pages: 1 -->
<svg width="2728pt" height="362pt"
 viewBox="0.00 0.00 2728.00 362.00" xmlns="http://www.w3.org/2000/svg" xmlns:xlink="http://www.w3.org/1999/xlink">
<g id="graph0" class="graph" transform="scale(1 1) rotate(0) translate(4 358)">
<title>components/omnibox/browser/local_history_zero_suggest_provider.h</title>
<polygon fill="white" stroke="transparent" points="-4,4 -4,-358 2724,-358 2724,4 -4,4"/>
<!-- Node1 -->
<g id="node1" class="node">
<title>Node1</title>
<g id="a_node1"><a xlink:title=" ">
<polygon fill="#bfbfbf" stroke="black" points="2276.5,-312.5 2276.5,-353.5 2404.5,-353.5 2404.5,-312.5 2276.5,-312.5"/>
<text text-anchor="start" x="2284.5" y="-341.5" font-family="Helvetica,sans-Serif" font-size="10.00">components/omnibox</text>
<text text-anchor="start" x="2284.5" y="-330.5" font-family="Helvetica,sans-Serif" font-size="10.00">/browser/local_history</text>
<text text-anchor="middle" x="2340.5" y="-319.5" font-family="Helvetica,sans-Serif" font-size="10.00">_zero_suggest_provider.h</text>
</a>
</g>
</g>
<!-- Node2 -->
<g id="node2" class="node">
<title>Node2</title>
<g id="a_node2"><a xlink:title=" ">
<polygon fill="white" stroke="#bfbfbf" points="1879,-11.5 1879,-30.5 1920,-30.5 1920,-11.5 1879,-11.5"/>
<text text-anchor="middle" x="1899.5" y="-18.5" font-family="Helvetica,sans-Serif" font-size="10.00">string</text>
</a>
</g>
</g>
<!-- Node1&#45;&gt;Node2 -->
<g id="edge1" class="edge">
<title>Node1&#45;&gt;Node2</title>
<path fill="none" stroke="midnightblue" d="M2339.72,-312.49C2336.65,-263.93 2321.37,-137.27 2245.5,-78 2189.8,-34.49 1995.87,-66.28 1929.5,-42 1925.58,-40.57 1921.66,-38.52 1918.02,-36.28"/>
<polygon fill="midnightblue" stroke="midnightblue" points="1919.89,-33.32 1909.66,-30.55 1915.93,-39.09 1919.89,-33.32"/>
</g>
<!-- Node3 -->
<g id="node3" class="node">
<title>Node3</title>
<g id="a_node3"><a xlink:title=" ">
<polygon fill="white" stroke="#bfbfbf" points="2541,-11.5 2541,-30.5 2654,-30.5 2654,-11.5 2541,-11.5"/>
<text text-anchor="middle" x="2597.5" y="-18.5" font-family="Helvetica,sans-Serif" font-size="10.00">base/gtest_prod_util.h</text>
</a>
</g>
</g>
<!-- Node1&#45;&gt;Node3 -->
<g id="edge2" class="edge">
<title>Node1&#45;&gt;Node3</title>
<path fill="none" stroke="midnightblue" d="M2357.94,-312.44C2390.8,-275.42 2463.84,-192.34 2522.5,-120 2545.21,-91.99 2570.49,-58.44 2585.13,-38.75"/>
<polygon fill="midnightblue" stroke="midnightblue" points="2588.09,-40.63 2591.24,-30.51 2582.47,-36.46 2588.09,-40.63"/>
</g>
<!-- Node4 -->
<g id="node4" class="node">
<title>Node4</title>
<g id="a_node4"><a xlink:title=" ">
<polygon fill="white" stroke="#bfbfbf" points="311.5,-89.5 311.5,-108.5 437.5,-108.5 437.5,-89.5 311.5,-89.5"/>
<text text-anchor="middle" x="374.5" y="-96.5" font-family="Helvetica,sans-Serif" font-size="10.00">base/memory/weak_ptr.h</text>
</a>
</g>
</g>
<!-- Node1&#45;&gt;Node4 -->
<g id="edge3" class="edge">
<title>Node1&#45;&gt;Node4</title>
<path fill="none" stroke="midnightblue" d="M2276.04,-332.27C1988.14,-333.15 818.32,-333.08 456.5,-276 333.96,-256.67 262.96,-297.22 188.5,-198 177.3,-183.07 177.36,-170.98 188.5,-156 203.53,-135.79 264.34,-120.09 312.4,-110.53"/>
<polygon fill="midnightblue" stroke="midnightblue" points="313.29,-113.92 322.44,-108.58 311.95,-107.05 313.29,-113.92"/>
</g>
<!-- Node5 -->
<g id="node5" class="node">
<title>Node5</title>
<g id="a_node5"><a xlink:title=" ">
<polygon fill="white" stroke="#bfbfbf" points="2611,-240 2611,-270 2720,-270 2720,-240 2611,-240"/>
<text text-anchor="start" x="2619" y="-258" font-family="Helvetica,sans-Serif" font-size="10.00">base/task/cancelable</text>
<text text-anchor="middle" x="2665.5" y="-247" font-family="Helvetica,sans-Serif" font-size="10.00">_task_tracker.h</text>
</a>
</g>
</g>
<!-- Node1&#45;&gt;Node5 -->
<g id="edge4" class="edge">
<title>Node1&#45;&gt;Node5</title>
<path fill="none" stroke="midnightblue" d="M2404.69,-319.2C2456.64,-308.54 2531.57,-292.49 2596.5,-276 2600.51,-274.98 2604.64,-273.89 2608.8,-272.76"/>
<polygon fill="midnightblue" stroke="midnightblue" points="2609.77,-276.12 2618.48,-270.08 2607.9,-269.38 2609.77,-276.12"/>
</g>
<!-- Node6 -->
<g id="node6" class="node">
<title>Node6</title>
<g id="a_node6"><a xlink:href="../../de/d0e/autocomplete__provider_8h.html" target="_top" xlink:title=" ">
<polygon fill="white" stroke="black" points="465.5,-234.5 465.5,-275.5 581.5,-275.5 581.5,-234.5 465.5,-234.5"/>
<text text-anchor="start" x="473.5" y="-263.5" font-family="Helvetica,sans-Serif" font-size="10.00">components/omnibox</text>
<text text-anchor="start" x="473.5" y="-252.5" font-family="Helvetica,sans-Serif" font-size="10.00">/browser/autocomplete</text>
<text text-anchor="middle" x="523.5" y="-241.5" font-family="Helvetica,sans-Serif" font-size="10.00">_provider.h</text>
</a>
</g>
</g>
<!-- Node1&#45;&gt;Node6 -->
<g id="edge5" class="edge">
<title>Node1&#45;&gt;Node6</title>
<path fill="none" stroke="midnightblue" d="M2276.37,-329.32C1996.26,-317.6 881.33,-270.97 592.25,-258.88"/>
<polygon fill="midnightblue" stroke="midnightblue" points="592.05,-255.36 581.91,-258.44 591.76,-262.36 592.05,-255.36"/>
</g>
<!-- Node6&#45;&gt;Node2 -->
<g id="edge8" class="edge">
<title>Node6&#45;&gt;Node2</title>
<path fill="none" stroke="midnightblue" d="M581.6,-253.99C867.15,-253.36 2112.71,-243.51 2226.5,-120 2239.15,-106.27 2238.88,-91.97 2226.5,-78 2182.41,-28.24 1991.85,-65.07 1929.5,-42 1925.58,-40.55 1921.67,-38.5 1918.03,-36.26"/>
<polygon fill="midnightblue" stroke="midnightblue" points="1919.89,-33.29 1909.67,-30.52 1915.93,-39.07 1919.89,-33.29"/>
</g>
<!-- Node6&#45;&gt;Node3 -->
<g id="edge11" class="edge">
<title>Node6&#45;&gt;Node3</title>
<path fill="none" stroke="midnightblue" d="M581.79,-253.14C864.32,-248.82 2084.59,-228.55 2251.5,-198 2356.85,-178.72 2386.1,-172.41 2479.5,-120 2520.48,-97.01 2561.03,-59.15 2582.27,-37.84"/>
<polygon fill="midnightblue" stroke="midnightblue" points="2584.92,-40.14 2589.43,-30.55 2579.93,-35.24 2584.92,-40.14"/>
</g>
<!-- Node7 -->
<g id="node7" class="node">
<title>Node7</title>
<g id="a_node7"><a xlink:title=" ">
<polygon fill="white" stroke="#bfbfbf" points="347.5,-11.5 347.5,-30.5 399.5,-30.5 399.5,-11.5 347.5,-11.5"/>
<text text-anchor="middle" x="373.5" y="-18.5" font-family="Helvetica,sans-Serif" font-size="10.00">stddef.h</text>
</a>
</g>
</g>
<!-- Node6&#45;&gt;Node7 -->
<g id="edge6" class="edge">
<title>Node6&#45;&gt;Node7</title>
<path fill="none" stroke="midnightblue" d="M465.45,-250.49C378.7,-244.29 220.4,-229.02 173.5,-198 139.35,-175.42 135.83,-159.34 124.5,-120 119.33,-102.06 112.45,-92.25 124.5,-78 186.79,-4.36 247.67,-74.43 338.5,-42 343.07,-40.37 347.74,-38.15 352.11,-35.79"/>
<polygon fill="midnightblue" stroke="midnightblue" points="354.2,-38.62 361.06,-30.55 350.66,-32.58 354.2,-38.62"/>
</g>
<!-- Node8 -->
<g id="node8" class="node">
<title>Node8</title>
<g id="a_node8"><a xlink:title=" ">
<polygon fill="white" stroke="#bfbfbf" points="418,-11.5 418,-30.5 453,-30.5 453,-11.5 418,-11.5"/>
<text text-anchor="middle" x="435.5" y="-18.5" font-family="Helvetica,sans-Serif" font-size="10.00">map</text>
</a>
</g>
</g>
<!-- Node6&#45;&gt;Node8 -->
<g id="edge7" class="edge">
<title>Node6&#45;&gt;Node8</title>
<path fill="none" stroke="midnightblue" d="M486.72,-234.29C426.58,-201.69 312.82,-138.33 302.5,-120 293.34,-103.73 291.63,-93.17 302.5,-78 331.48,-37.56 364.43,-65.08 408.5,-42 411.5,-40.43 414.52,-38.55 417.41,-36.57"/>
<polygon fill="midnightblue" stroke="midnightblue" points="419.53,-39.35 425.49,-30.59 415.37,-33.73 419.53,-39.35"/>
</g>
<!-- Node9 -->
<g id="node9" class="node">
<title>Node9</title>
<g id="a_node9"><a xlink:title=" ">
<polygon fill="white" stroke="#bfbfbf" points="455.5,-89.5 455.5,-108.5 495.5,-108.5 495.5,-89.5 455.5,-89.5"/>
<text text-anchor="middle" x="475.5" y="-96.5" font-family="Helvetica,sans-Serif" font-size="10.00">utility</text>
</a>
</g>
</g>
<!-- Node6&#45;&gt;Node9 -->
<g id="edge9" class="edge">
<title>Node6&#45;&gt;Node9</title>
<path fill="none" stroke="midnightblue" d="M517.42,-234.5C508.07,-204.5 490.29,-147.45 481.18,-118.23"/>
<polygon fill="midnightblue" stroke="midnightblue" points="484.47,-117.02 478.15,-108.51 477.79,-119.1 484.47,-117.02"/>
</g>
<!-- Node10 -->
<g id="node10" class="node">
<title>Node10</title>
<g id="a_node10"><a xlink:title=" ">
<polygon fill="white" stroke="#bfbfbf" points="526.5,-11.5 526.5,-30.5 570.5,-30.5 570.5,-11.5 526.5,-11.5"/>
<text text-anchor="middle" x="548.5" y="-18.5" font-family="Helvetica,sans-Serif" font-size="10.00">vector</text>
</a>
</g>
</g>
<!-- Node6&#45;&gt;Node10 -->
<g id="edge10" class="edge">
<title>Node6&#45;&gt;Node10</title>
<path fill="none" stroke="midnightblue" d="M525.63,-234.22C530.39,-190.05 541.83,-83.91 546.48,-40.74"/>
<polygon fill="midnightblue" stroke="midnightblue" points="549.99,-40.87 547.58,-30.55 543.03,-40.12 549.99,-40.87"/>
</g>
<!-- Node11 -->
<g id="node11" class="node">
<title>Node11</title>
<g id="a_node11"><a xlink:title=" ">
<polygon fill="white" stroke="#bfbfbf" points="197.5,-167.5 197.5,-186.5 335.5,-186.5 335.5,-167.5 197.5,-167.5"/>
<text text-anchor="middle" x="266.5" y="-174.5" font-family="Helvetica,sans-Serif" font-size="10.00">base/memory/ref_counted.h</text>
</a>
</g>
</g>
<!-- Node6&#45;&gt;Node11 -->
<g id="edge12" class="edge">
<title>Node6&#45;&gt;Node11</title>
<path fill="none" stroke="midnightblue" d="M465.18,-236.75C416.24,-222.28 347.69,-202.01 305.25,-189.46"/>
<polygon fill="midnightblue" stroke="midnightblue" points="306.15,-186.07 295.57,-186.6 304.16,-192.79 306.15,-186.07"/>
</g>
<!-- Node12 -->
<g id="node12" class="node">
<title>Node12</title>
<g id="a_node12"><a xlink:href="../../dc/d0c/autocomplete__match_8h.html" target="_top" xlink:title=" ">
<polygon fill="white" stroke="black" points="1150.5,-156.5 1150.5,-197.5 1266.5,-197.5 1266.5,-156.5 1150.5,-156.5"/>
<text text-anchor="start" x="1158.5" y="-185.5" font-family="Helvetica,sans-Serif" font-size="10.00">components/omnibox</text>
<text text-anchor="start" x="1158.5" y="-174.5" font-family="Helvetica,sans-Serif" font-size="10.00">/browser/autocomplete</text>
<text text-anchor="middle" x="1208.5" y="-163.5" font-family="Helvetica,sans-Serif" font-size="10.00">_match.h</text>
</a>
</g>
</g>
<!-- Node6&#45;&gt;Node12 -->
<g id="edge13" class="edge">
<title>Node6&#45;&gt;Node12</title>
<path fill="none" stroke="midnightblue" d="M581.61,-247.55C707.54,-233.58 1005.14,-200.56 1139.98,-185.6"/>
<polygon fill="midnightblue" stroke="midnightblue" points="1140.63,-189.05 1150.18,-184.47 1139.86,-182.09 1140.63,-189.05"/>
</g>
<!-- Node20 -->
<g id="node20" class="node">
<title>Node20</title>
<g id="a_node20"><a xlink:title=" ">
<polygon fill="white" stroke="#bfbfbf" points="2084.5,-6 2084.5,-36 2218.5,-36 2218.5,-6 2084.5,-6"/>
<text text-anchor="start" x="2092.5" y="-24" font-family="Helvetica,sans-Serif" font-size="10.00">third_party/metrics</text>
<text text-anchor="middle" x="2151.5" y="-13" font-family="Helvetica,sans-Serif" font-size="10.00">_proto/omnibox_event.pb.h</text>
</a>
</g>
</g>
<!-- Node6&#45;&gt;Node20 -->
<g id="edge63" class="edge">
<title>Node6&#45;&gt;Node20</title>
<path fill="none" stroke="midnightblue" d="M581.72,-253.15C825.8,-249.38 1767.61,-232.85 2062.5,-198 2236.75,-177.41 2338.36,-255.77 2449.5,-120 2560.32,15.38 2506.48,-101.18 2227.5,-42 2222.46,-40.93 2217.25,-39.74 2212.03,-38.49"/>
<polygon fill="midnightblue" stroke="midnightblue" points="2212.58,-35.02 2202.03,-36.02 2210.9,-41.82 2212.58,-35.02"/>
</g>
<!-- Node35 -->
<g id="node35" class="node">
<title>Node35</title>
<g id="a_node35"><a xlink:href="../../d5/d60/in__memory__url__index__types_8h.html" target="_top" xlink:title=" ">
<polygon fill="white" stroke="black" points="134,-78.5 134,-119.5 255,-119.5 255,-78.5 134,-78.5"/>
<text text-anchor="start" x="142" y="-107.5" font-family="Helvetica,sans-Serif" font-size="10.00">components/omnibox</text>
<text text-anchor="start" x="142" y="-96.5" font-family="Helvetica,sans-Serif" font-size="10.00">/browser/in_memory_url</text>
<text text-anchor="middle" x="194.5" y="-85.5" font-family="Helvetica,sans-Serif" font-size="10.00">_index_types.h</text>
</a>
</g>
</g>
<!-- Node6&#45;&gt;Node35 -->
<g id="edge54" class="edge">
<title>Node6&#45;&gt;Node35</title>
<path fill="none" stroke="midnightblue" d="M465.47,-252.97C379.14,-250.07 223.32,-239.12 188.5,-198 172.72,-179.36 176.48,-150.88 182.86,-129.42"/>
<polygon fill="midnightblue" stroke="midnightblue" points="186.22,-130.41 186.02,-119.81 179.57,-128.22 186.22,-130.41"/>
</g>
<!-- Node12&#45;&gt;Node2 -->
<g id="edge17" class="edge">
<title>Node12&#45;&gt;Node2</title>
<path fill="none" stroke="midnightblue" d="M1266.57,-174.92C1475.02,-170.78 2175.02,-154.36 2207.5,-120 2220.32,-106.44 2219.82,-92.02 2207.5,-78 2166.38,-31.21 1987.84,-63.85 1929.5,-42 1925.59,-40.54 1921.68,-38.48 1918.03,-36.23"/>
<polygon fill="midnightblue" stroke="midnightblue" points="1919.9,-33.27 1909.68,-30.5 1915.95,-39.04 1919.9,-33.27"/>
</g>
<!-- Node12&#45;&gt;Node4 -->
<g id="edge21" class="edge">
<title>Node12&#45;&gt;Node4</title>
<path fill="none" stroke="midnightblue" d="M1150.19,-175.63C1021.97,-173.95 706.24,-165.16 446.5,-120 434.54,-117.92 421.7,-114.69 410.22,-111.42"/>
<polygon fill="midnightblue" stroke="midnightblue" points="411.13,-108.04 400.55,-108.58 409.15,-114.76 411.13,-108.04"/>
</g>
<!-- Node12&#45;&gt;Node7 -->
<g id="edge14" class="edge">
<title>Node12&#45;&gt;Node7</title>
<path fill="none" stroke="midnightblue" d="M1150.3,-174.14C1014.78,-169.28 681.64,-154.14 575.5,-120 540.6,-108.77 537.57,-93.83 504.5,-78 463.4,-58.32 449.75,-61.37 408.5,-42 404.44,-40.09 400.21,-37.89 396.17,-35.65"/>
<polygon fill="midnightblue" stroke="midnightblue" points="397.61,-32.44 387.19,-30.5 394.13,-38.52 397.61,-32.44"/>
</g>
<!-- Node12&#45;&gt;Node8 -->
<g id="edge15" class="edge">
<title>Node12&#45;&gt;Node8</title>
<path fill="none" stroke="midnightblue" d="M1150.33,-175.82C1019.58,-174.58 706.61,-166.66 613.5,-120 591,-108.72 596.16,-92.38 575.5,-78 540.13,-53.39 492.37,-37.28 462.77,-28.91"/>
<polygon fill="midnightblue" stroke="midnightblue" points="463.68,-25.53 453.11,-26.27 461.84,-32.28 463.68,-25.53"/>
</g>
<!-- Node12&#45;&gt;Node9 -->
<g id="edge18" class="edge">
<title>Node12&#45;&gt;Node9</title>
<path fill="none" stroke="midnightblue" d="M1150.11,-174.7C1034.3,-171.32 767.69,-159.55 547.5,-120 533.5,-117.48 518.27,-113.45 505.45,-109.67"/>
<polygon fill="midnightblue" stroke="midnightblue" points="506.33,-106.28 495.75,-106.72 504.3,-112.97 506.33,-106.28"/>
</g>
<!-- Node12&#45;&gt;Node10 -->
<g id="edge19" class="edge">
<title>Node12&#45;&gt;Node10</title>
<path fill="none" stroke="midnightblue" d="M1150.2,-174.56C1027.57,-170.82 747.12,-158.22 660.5,-120 634.87,-108.69 634.56,-96.48 613.5,-78 597.7,-64.14 579.57,-48.55 566.48,-37.34"/>
<polygon fill="midnightblue" stroke="midnightblue" points="568.56,-34.51 558.68,-30.67 564.01,-39.83 568.56,-34.51"/>
</g>
<!-- Node13 -->
<g id="node13" class="node">
<title>Node13</title>
<g id="a_node13"><a xlink:title=" ">
<polygon fill="white" stroke="#bfbfbf" points="2470.5,-11.5 2470.5,-30.5 2522.5,-30.5 2522.5,-11.5 2470.5,-11.5"/>
<text text-anchor="middle" x="2496.5" y="-18.5" font-family="Helvetica,sans-Serif" font-size="10.00">memory</text>
</a>
</g>
</g>
<!-- Node12&#45;&gt;Node13 -->
<g id="edge16" class="edge">
<title>Node12&#45;&gt;Node13</title>
<path fill="none" stroke="midnightblue" d="M1266.52,-175.03C1505.01,-170.84 2399.64,-152.98 2449.5,-120 2476.69,-102.02 2488.58,-63.69 2493.45,-40.65"/>
<polygon fill="midnightblue" stroke="midnightblue" points="2496.9,-41.2 2495.3,-30.73 2490.02,-39.91 2496.9,-41.2"/>
</g>
<!-- Node14 -->
<g id="node14" class="node">
<title>Node14</title>
<g id="a_node14"><a xlink:title=" ">
<polygon fill="white" stroke="#bfbfbf" points="837.5,-84 837.5,-114 947.5,-114 947.5,-84 837.5,-84"/>
<text text-anchor="start" x="845.5" y="-102" font-family="Helvetica,sans-Serif" font-size="10.00">base/memory/scoped</text>
<text text-anchor="middle" x="892.5" y="-91" font-family="Helvetica,sans-Serif" font-size="10.00">_refptr.h</text>
</a>
</g>
</g>
<!-- Node12&#45;&gt;Node14 -->
<g id="edge20" class="edge">
<title>Node12&#45;&gt;Node14</title>
<path fill="none" stroke="midnightblue" d="M1150.36,-164.53C1099.07,-154.07 1022.43,-137.59 956.5,-120 952.91,-119.04 949.23,-118.01 945.53,-116.95"/>
<polygon fill="midnightblue" stroke="midnightblue" points="946.32,-113.53 935.73,-114.05 944.33,-120.24 946.32,-113.53"/>
</g>
<!-- Node15 -->
<g id="node15" class="node">
<title>Node15</title>
<g id="a_node15"><a xlink:title=" ">
<polygon fill="white" stroke="#bfbfbf" points="965.5,-84 965.5,-114 1079.5,-114 1079.5,-84 965.5,-84"/>
<text text-anchor="start" x="973.5" y="-102" font-family="Helvetica,sans-Serif" font-size="10.00">base/strings/utf_offset</text>
<text text-anchor="middle" x="1022.5" y="-91" font-family="Helvetica,sans-Serif" font-size="10.00">_string_conversions.h</text>
</a>
</g>
</g>
<!-- Node12&#45;&gt;Node15 -->
<g id="edge22" class="edge">
<title>Node12&#45;&gt;Node15</title>
<path fill="none" stroke="midnightblue" d="M1160.6,-156.43C1131.62,-144.59 1094.93,-129.59 1066.65,-118.04"/>
<polygon fill="midnightblue" stroke="midnightblue" points="1067.6,-114.65 1057.02,-114.11 1064.96,-121.13 1067.6,-114.65"/>
</g>
<!-- Node16 -->
<g id="node16" class="node">
<title>Node16</title>
<g id="a_node16"><a xlink:title=" ">
<polygon fill="white" stroke="#bfbfbf" points="1097.5,-89.5 1097.5,-108.5 1197.5,-108.5 1197.5,-89.5 1097.5,-89.5"/>
<text text-anchor="middle" x="1147.5" y="-96.5" font-family="Helvetica,sans-Serif" font-size="10.00">build/build_config.h</text>
</a>
</g>
</g>
<!-- Node12&#45;&gt;Node16 -->
<g id="edge23" class="edge">
<title>Node12&#45;&gt;Node16</title>
<path fill="none" stroke="midnightblue" d="M1192.79,-156.43C1182.89,-144.09 1170.24,-128.34 1160.83,-116.61"/>
<polygon fill="midnightblue" stroke="midnightblue" points="1163.35,-114.16 1154.36,-108.55 1157.89,-118.54 1163.35,-114.16"/>
</g>
<!-- Node17 -->
<g id="node17" class="node">
<title>Node17</title>
<g id="a_node17"><a xlink:href="../../df/dab/autocomplete__input_8h.html" target="_top" xlink:title=" ">
<polygon fill="white" stroke="black" points="703.5,-78.5 703.5,-119.5 819.5,-119.5 819.5,-78.5 703.5,-78.5"/>
<text text-anchor="start" x="711.5" y="-107.5" font-family="Helvetica,sans-Serif" font-size="10.00">components/omnibox</text>
<text text-anchor="start" x="711.5" y="-96.5" font-family="Helvetica,sans-Serif" font-size="10.00">/browser/autocomplete</text>
<text text-anchor="middle" x="761.5" y="-85.5" font-family="Helvetica,sans-Serif" font-size="10.00">_input.h</text>
</a>
</g>
</g>
<!-- Node12&#45;&gt;Node17 -->
<g id="edge24" class="edge">
<title>Node12&#45;&gt;Node17</title>
<path fill="none" stroke="midnightblue" d="M1150.41,-170.07C1077.51,-162.04 948.58,-145.92 829.83,-120.15"/>
<polygon fill="midnightblue" stroke="midnightblue" points="830.35,-116.68 819.84,-117.95 828.85,-123.52 830.35,-116.68"/>
</g>
<!-- Node22 -->
<g id="node22" class="node">
<title>Node22</title>
<g id="a_node22"><a xlink:title=" ">
<polygon fill="white" stroke="#bfbfbf" points="589,-0.5 589,-41.5 710,-41.5 710,-0.5 589,-0.5"/>
<text text-anchor="start" x="597" y="-29.5" font-family="Helvetica,sans-Serif" font-size="10.00">third_party/perfetto</text>
<text text-anchor="start" x="597" y="-18.5" font-family="Helvetica,sans-Serif" font-size="10.00">/include/perfetto/tracing</text>
<text text-anchor="middle" x="649.5" y="-7.5" font-family="Helvetica,sans-Serif" font-size="10.00">/traced_value_forward.h</text>
</a>
</g>
</g>
<!-- Node12&#45;&gt;Node22 -->
<g id="edge50" class="edge">
<title>Node12&#45;&gt;Node22</title>
<path fill="none" stroke="midnightblue" d="M1150.16,-176.69C1031.27,-176.98 766.14,-171.63 694.5,-120 672.24,-103.96 660.72,-74.17 654.94,-51.62"/>
<polygon fill="midnightblue" stroke="midnightblue" points="658.34,-50.8 652.67,-41.85 651.52,-52.39 658.34,-50.8"/>
</g>
<!-- Node23 -->
<g id="node23" class="node">
<title>Node23</title>
<g id="a_node23"><a xlink:title=" ">
<polygon fill="white" stroke="#bfbfbf" points="1222.5,-11.5 1222.5,-30.5 1276.5,-30.5 1276.5,-11.5 1222.5,-11.5"/>
<text text-anchor="middle" x="1249.5" y="-18.5" font-family="Helvetica,sans-Serif" font-size="10.00">url/gurl.h</text>
</a>
</g>
</g>
<!-- Node12&#45;&gt;Node23 -->
<g id="edge53" class="edge">
<title>Node12&#45;&gt;Node23</title>
<path fill="none" stroke="midnightblue" d="M1266.76,-164.96C1292.08,-156.96 1319.37,-143.28 1334.5,-120 1344.67,-104.35 1343.35,-94.43 1334.5,-78 1323.6,-57.77 1301.85,-43.64 1283.07,-34.64"/>
<polygon fill="midnightblue" stroke="midnightblue" points="1284.44,-31.41 1273.88,-30.51 1281.57,-37.8 1284.44,-31.41"/>
</g>
<!-- Node25 -->
<g id="node25" class="node">
<title>Node25</title>
<g id="a_node25"><a xlink:href="../../df/d34/autocomplete__match__type_8h.html" target="_top" xlink:title=" ">
<polygon fill="white" stroke="black" points="2082.5,-78.5 2082.5,-119.5 2198.5,-119.5 2198.5,-78.5 2082.5,-78.5"/>
<text text-anchor="start" x="2090.5" y="-107.5" font-family="Helvetica,sans-Serif" font-size="10.00">components/omnibox</text>
<text text-anchor="start" x="2090.5" y="-96.5" font-family="Helvetica,sans-Serif" font-size="10.00">/browser/autocomplete</text>
<text text-anchor="middle" x="2140.5" y="-85.5" font-family="Helvetica,sans-Serif" font-size="10.00">_match_type.h</text>
</a>
</g>
</g>
<!-- Node12&#45;&gt;Node25 -->
<g id="edge35" class="edge">
<title>Node12&#45;&gt;Node25</title>
<path fill="none" stroke="midnightblue" d="M1266.66,-176.64C1406.62,-177.24 1772.78,-173.11 2072.5,-120 2072.6,-119.98 2072.7,-119.96 2072.81,-119.95"/>
<polygon fill="midnightblue" stroke="midnightblue" points="2073.36,-123.4 2082.46,-117.99 2071.97,-116.54 2073.36,-123.4"/>
</g>
<!-- Node26 -->
<g id="node26" class="node">
<title>Node26</title>
<g id="a_node26"><a xlink:title=" ">
<polygon fill="white" stroke="#bfbfbf" points="1215.5,-84 1215.5,-114 1325.5,-114 1325.5,-84 1215.5,-84"/>
<text text-anchor="start" x="1223.5" y="-102" font-family="Helvetica,sans-Serif" font-size="10.00">components/omnibox</text>
<text text-anchor="middle" x="1270.5" y="-91" font-family="Helvetica,sans-Serif" font-size="10.00">/browser/buildflags.h</text>
</a>
</g>
</g>
<!-- Node12&#45;&gt;Node26 -->
<g id="edge37" class="edge">
<title>Node12&#45;&gt;Node26</title>
<path fill="none" stroke="midnightblue" d="M1224.47,-156.43C1233.04,-145.91 1243.65,-132.92 1252.51,-122.05"/>
<polygon fill="midnightblue" stroke="midnightblue" points="1255.29,-124.19 1258.9,-114.23 1249.86,-119.76 1255.29,-124.19"/>
</g>
<!-- Node27 -->
<g id="node27" class="node">
<title>Node27</title>
<g id="a_node27"><a xlink:href="../../dd/d32/suggestion__answer_8h.html" target="_top" xlink:title=" ">
<polygon fill="white" stroke="black" points="2330.5,-78.5 2330.5,-119.5 2440.5,-119.5 2440.5,-78.5 2330.5,-78.5"/>
<text text-anchor="start" x="2338.5" y="-107.5" font-family="Helvetica,sans-Serif" font-size="10.00">components/omnibox</text>
<text text-anchor="start" x="2338.5" y="-96.5" font-family="Helvetica,sans-Serif" font-size="10.00">/browser/suggestion</text>
<text text-anchor="middle" x="2385.5" y="-85.5" font-family="Helvetica,sans-Serif" font-size="10.00">_answer.h</text>
</a>
</g>
</g>
<!-- Node12&#45;&gt;Node27 -->
<g id="edge38" class="edge">
<title>Node12&#45;&gt;Node27</title>
<path fill="none" stroke="midnightblue" d="M1266.53,-174.54C1423.68,-170.21 1870.55,-155.49 2240.5,-120 2266.62,-117.49 2295.27,-113.76 2320.15,-110.19"/>
<polygon fill="midnightblue" stroke="midnightblue" points="2320.81,-113.63 2330.2,-108.72 2319.8,-106.7 2320.81,-113.63"/>
</g>
<!-- Node30 -->
<g id="node30" class="node">
<title>Node30</title>
<g id="a_node30"><a xlink:title=" ">
<polygon fill="white" stroke="#bfbfbf" points="1381.5,-84 1381.5,-114 1501.5,-114 1501.5,-84 1381.5,-84"/>
<text text-anchor="start" x="1389.5" y="-102" font-family="Helvetica,sans-Serif" font-size="10.00">components/query_tiles</text>
<text text-anchor="middle" x="1441.5" y="-91" font-family="Helvetica,sans-Serif" font-size="10.00">/tile.h</text>
</a>
</g>
</g>
<!-- Node12&#45;&gt;Node30 -->
<g id="edge47" class="edge">
<title>Node12&#45;&gt;Node30</title>
<path fill="none" stroke="midnightblue" d="M1266.69,-157.02C1304.03,-144.84 1352.12,-129.15 1388.41,-117.32"/>
<polygon fill="midnightblue" stroke="midnightblue" points="1389.89,-120.52 1398.31,-114.09 1387.72,-113.86 1389.89,-120.52"/>
</g>
<!-- Node31 -->
<g id="node31" class="node">
<title>Node31</title>
<g id="a_node31"><a xlink:title=" ">
<polygon fill="white" stroke="#bfbfbf" points="1520,-84 1520,-114 1661,-114 1661,-84 1520,-84"/>
<text text-anchor="start" x="1528" y="-102" font-family="Helvetica,sans-Serif" font-size="10.00">components/search_engines</text>
<text text-anchor="middle" x="1590.5" y="-91" font-family="Helvetica,sans-Serif" font-size="10.00">/template_url.h</text>
</a>
</g>
</g>
<!-- Node12&#45;&gt;Node31 -->
<g id="edge48" class="edge">
<title>Node12&#45;&gt;Node31</title>
<path fill="none" stroke="midnightblue" d="M1266.61,-166.32C1327.57,-155.91 1426.09,-138.36 1510.5,-120 1515.75,-118.86 1521.17,-117.62 1526.61,-116.34"/>
<polygon fill="midnightblue" stroke="midnightblue" points="1527.47,-119.74 1536.38,-114.01 1525.84,-112.93 1527.47,-119.74"/>
</g>
<!-- Node32 -->
<g id="node32" class="node">
<title>Node32</title>
<g id="a_node32"><a xlink:title=" ">
<polygon fill="white" stroke="#bfbfbf" points="1679.5,-84 1679.5,-114 1807.5,-114 1807.5,-84 1679.5,-84"/>
<text text-anchor="start" x="1687.5" y="-102" font-family="Helvetica,sans-Serif" font-size="10.00">components/url_formatter</text>
<text text-anchor="middle" x="1743.5" y="-91" font-family="Helvetica,sans-Serif" font-size="10.00">/url_formatter.h</text>
</a>
</g>
</g>
<!-- Node12&#45;&gt;Node32 -->
<g id="edge49" class="edge">
<title>Node12&#45;&gt;Node32</title>
<path fill="none" stroke="midnightblue" d="M1266.77,-171.61C1354.65,-164.39 1526.07,-147.95 1669.5,-120 1674.81,-118.97 1680.29,-117.76 1685.77,-116.45"/>
<polygon fill="midnightblue" stroke="midnightblue" points="1686.7,-119.83 1695.57,-114.02 1685.02,-113.03 1686.7,-119.83"/>
</g>
<!-- Node33 -->
<g id="node33" class="node">
<title>Node33</title>
<g id="a_node33"><a xlink:title=" ">
<polygon fill="white" stroke="#bfbfbf" points="1826,-84 1826,-114 1943,-114 1943,-84 1826,-84"/>
<text text-anchor="start" x="1834" y="-102" font-family="Helvetica,sans-Serif" font-size="10.00">ui/base/page_transition</text>
<text text-anchor="middle" x="1884.5" y="-91" font-family="Helvetica,sans-Serif" font-size="10.00">_types.h</text>
</a>
</g>
</g>
<!-- Node12&#45;&gt;Node33 -->
<g id="edge51" class="edge">
<title>Node12&#45;&gt;Node33</title>
<path fill="none" stroke="midnightblue" d="M1266.87,-174.39C1375.81,-170.55 1617.12,-158.13 1816.5,-120 1821.43,-119.06 1826.53,-117.9 1831.6,-116.64"/>
<polygon fill="midnightblue" stroke="midnightblue" points="1832.5,-120.02 1841.28,-114.08 1830.71,-113.25 1832.5,-120.02"/>
</g>
<!-- Node34 -->
<g id="node34" class="node">
<title>Node34</title>
<g id="a_node34"><a xlink:title=" ">
<polygon fill="white" stroke="#bfbfbf" points="1961,-89.5 1961,-108.5 2064,-108.5 2064,-89.5 1961,-89.5"/>
<text text-anchor="middle" x="2012.5" y="-96.5" font-family="Helvetica,sans-Serif" font-size="10.00">ui/gfx/range/range.h</text>
</a>
</g>
</g>
<!-- Node12&#45;&gt;Node34 -->
<g id="edge52" class="edge">
<title>Node12&#45;&gt;Node34</title>
<path fill="none" stroke="midnightblue" d="M1266.95,-176.36C1393.2,-176.1 1700.27,-169.89 1951.5,-120 1961.29,-118.06 1971.7,-115.02 1981.1,-111.9"/>
<polygon fill="midnightblue" stroke="midnightblue" points="1982.52,-115.11 1990.82,-108.53 1980.22,-108.5 1982.52,-115.11"/>
</g>
<!-- Node17&#45;&gt;Node2 -->
<g id="edge26" class="edge">
<title>Node17&#45;&gt;Node2</title>
<path fill="none" stroke="midnightblue" d="M819.77,-79.72C822.71,-79.08 825.63,-78.5 828.5,-78 933.2,-59.9 1702.63,-29.56 1868.18,-23.19"/>
<polygon fill="midnightblue" stroke="midnightblue" points="1868.76,-26.67 1878.62,-22.79 1868.49,-19.68 1868.76,-26.67"/>
</g>
<!-- Node17&#45;&gt;Node7 -->
<g id="edge25" class="edge">
<title>Node17&#45;&gt;Node7</title>
<path fill="none" stroke="midnightblue" d="M703.42,-91.36C617.71,-81.14 461.77,-60.74 408.5,-42 403.92,-40.39 399.25,-38.18 394.88,-35.82"/>
<polygon fill="midnightblue" stroke="midnightblue" points="396.33,-32.61 385.93,-30.58 392.79,-38.65 396.33,-32.61"/>
</g>
<!-- Node17&#45;&gt;Node10 -->
<g id="edge27" class="edge">
<title>Node17&#45;&gt;Node10</title>
<path fill="none" stroke="midnightblue" d="M703.43,-84.49C666.93,-74.95 619.36,-60.56 579.5,-42 575.92,-40.33 572.27,-38.31 568.79,-36.2"/>
<polygon fill="midnightblue" stroke="midnightblue" points="570.43,-33.09 560.13,-30.59 566.62,-38.96 570.43,-33.09"/>
</g>
<!-- Node18 -->
<g id="node18" class="node">
<title>Node18</title>
<g id="a_node18"><a xlink:title=" ">
<polygon fill="white" stroke="#bfbfbf" points="728,-6 728,-36 869,-36 869,-6 728,-6"/>
<text text-anchor="start" x="736" y="-24" font-family="Helvetica,sans-Serif" font-size="10.00">components/search_engines</text>
<text text-anchor="middle" x="798.5" y="-13" font-family="Helvetica,sans-Serif" font-size="10.00">/omnibox_focus_type.h</text>
</a>
</g>
</g>
<!-- Node17&#45;&gt;Node18 -->
<g id="edge28" class="edge">
<title>Node17&#45;&gt;Node18</title>
<path fill="none" stroke="midnightblue" d="M771.03,-78.43C775.95,-68.33 781.98,-55.93 787.14,-45.33"/>
<polygon fill="midnightblue" stroke="midnightblue" points="790.34,-46.75 791.57,-36.23 784.05,-43.68 790.34,-46.75"/>
</g>
<!-- Node19 -->
<g id="node19" class="node">
<title>Node19</title>
<g id="a_node19"><a xlink:title=" ">
<polygon fill="white" stroke="#bfbfbf" points="1938.5,-6 1938.5,-36 2066.5,-36 2066.5,-6 1938.5,-6"/>
<text text-anchor="start" x="1946.5" y="-24" font-family="Helvetica,sans-Serif" font-size="10.00">third_party/abseil</text>
<text text-anchor="middle" x="2002.5" y="-13" font-family="Helvetica,sans-Serif" font-size="10.00">&#45;cpp/absl/types/optional.h</text>
</a>
</g>
</g>
<!-- Node17&#45;&gt;Node19 -->
<g id="edge29" class="edge">
<title>Node17&#45;&gt;Node19</title>
<path fill="none" stroke="midnightblue" d="M819.76,-79.65C822.7,-79.02 825.62,-78.47 828.5,-78 1311.29,0.61 1444.72,-114.29 1928.5,-42 1934.63,-41.08 1940.98,-39.84 1947.27,-38.41"/>
<polygon fill="midnightblue" stroke="midnightblue" points="1948.16,-41.8 1957.06,-36.05 1946.52,-35 1948.16,-41.8"/>
</g>
<!-- Node17&#45;&gt;Node20 -->
<g id="edge30" class="edge">
<title>Node17&#45;&gt;Node20</title>
<path fill="none" stroke="midnightblue" d="M819.76,-79.63C822.7,-79.01 825.62,-78.46 828.5,-78 1375.92,10.05 1526.71,-121.07 2075.5,-42 2081.79,-41.09 2088.31,-39.85 2094.77,-38.43"/>
<polygon fill="midnightblue" stroke="midnightblue" points="2095.88,-41.77 2104.82,-36.07 2094.28,-34.95 2095.88,-41.77"/>
</g>
<!-- Node21 -->
<g id="node21" class="node">
<title>Node21</title>
<g id="a_node21"><a xlink:title=" ">
<polygon fill="white" stroke="#bfbfbf" points="887.5,-0.5 887.5,-41.5 997.5,-41.5 997.5,-0.5 887.5,-0.5"/>
<text text-anchor="start" x="895.5" y="-29.5" font-family="Helvetica,sans-Serif" font-size="10.00">third_party/metrics</text>
<text text-anchor="start" x="895.5" y="-18.5" font-family="Helvetica,sans-Serif" font-size="10.00">_proto/omnibox_input</text>
<text text-anchor="middle" x="942.5" y="-7.5" font-family="Helvetica,sans-Serif" font-size="10.00">_type.pb.h</text>
</a>
</g>
</g>
<!-- Node17&#45;&gt;Node21 -->
<g id="edge31" class="edge">
<title>Node17&#45;&gt;Node21</title>
<path fill="none" stroke="midnightblue" d="M808.11,-78.43C832.07,-68.37 861.45,-56.03 886.62,-45.46"/>
<polygon fill="midnightblue" stroke="midnightblue" points="888.18,-48.6 896.05,-41.51 885.47,-42.15 888.18,-48.6"/>
</g>
<!-- Node17&#45;&gt;Node22 -->
<g id="edge32" class="edge">
<title>Node17&#45;&gt;Node22</title>
<path fill="none" stroke="midnightblue" d="M732.66,-78.43C718.68,-68.94 701.72,-57.44 686.78,-47.29"/>
<polygon fill="midnightblue" stroke="midnightblue" points="688.49,-44.22 678.25,-41.51 684.55,-50.02 688.49,-44.22"/>
</g>
<!-- Node17&#45;&gt;Node23 -->
<g id="edge33" class="edge">
<title>Node17&#45;&gt;Node23</title>
<path fill="none" stroke="midnightblue" d="M819.81,-79.95C822.74,-79.24 825.65,-78.59 828.5,-78 962.61,-50.31 998.99,-61.74 1134.5,-42 1160.47,-38.22 1189.59,-33.14 1212.03,-29.05"/>
<polygon fill="midnightblue" stroke="midnightblue" points="1212.95,-32.44 1222.15,-27.19 1211.68,-25.56 1212.95,-32.44"/>
</g>
<!-- Node24 -->
<g id="node24" class="node">
<title>Node24</title>
<g id="a_node24"><a xlink:title=" ">
<polygon fill="white" stroke="#bfbfbf" points="1015.5,-6 1015.5,-36 1125.5,-36 1125.5,-6 1015.5,-6"/>
<text text-anchor="start" x="1023.5" y="-24" font-family="Helvetica,sans-Serif" font-size="10.00">url/third_party/mozilla</text>
<text text-anchor="middle" x="1070.5" y="-13" font-family="Helvetica,sans-Serif" font-size="10.00">/url_parse.h</text>
</a>
</g>
</g>
<!-- Node17&#45;&gt;Node24 -->
<g id="edge34" class="edge">
<title>Node17&#45;&gt;Node24</title>
<path fill="none" stroke="midnightblue" d="M819.52,-80.33C822.55,-79.52 825.56,-78.74 828.5,-78 906.81,-58.44 928.32,-62.06 1006.5,-42 1010.26,-41.03 1014.13,-39.98 1018.01,-38.88"/>
<polygon fill="midnightblue" stroke="midnightblue" points="1019.03,-42.23 1027.64,-36.06 1017.06,-35.51 1019.03,-42.23"/>
</g>
<!-- Node25&#45;&gt;Node2 -->
<g id="edge36" class="edge">
<title>Node25&#45;&gt;Node2</title>
<path fill="none" stroke="midnightblue" d="M2082.3,-80.72C2078.99,-79.79 2075.71,-78.87 2072.5,-78 2009.27,-60.75 1989.41,-68.56 1929.5,-42 1925.91,-40.41 1922.28,-38.4 1918.85,-36.27"/>
<polygon fill="midnightblue" stroke="midnightblue" points="1920.62,-33.24 1910.37,-30.56 1916.71,-39.05 1920.62,-33.24"/>
</g>
<!-- Node27&#45;&gt;Node2 -->
<g id="edge40" class="edge">
<title>Node27&#45;&gt;Node2</title>
<path fill="none" stroke="midnightblue" d="M2330.36,-81.02C2325.7,-79.89 2321.03,-78.86 2316.5,-78 2146.78,-45.81 2092.33,-99.67 1929.5,-42 1925.56,-40.61 1921.64,-38.58 1917.99,-36.35"/>
<polygon fill="midnightblue" stroke="midnightblue" points="1919.86,-33.38 1909.64,-30.61 1915.9,-39.15 1919.86,-33.38"/>
</g>
<!-- Node27&#45;&gt;Node3 -->
<g id="edge42" class="edge">
<title>Node27&#45;&gt;Node3</title>
<path fill="none" stroke="midnightblue" d="M2440.1,-78.43C2479.23,-64.4 2530.7,-45.95 2563.95,-34.03"/>
<polygon fill="midnightblue" stroke="midnightblue" points="2565.41,-37.22 2573.64,-30.55 2563.05,-30.63 2565.41,-37.22"/>
</g>
<!-- Node27&#45;&gt;Node10 -->
<g id="edge41" class="edge">
<title>Node27&#45;&gt;Node10</title>
<path fill="none" stroke="midnightblue" d="M2330.29,-90.5C2295.2,-86.06 2248.77,-80.77 2207.5,-78 2026.97,-65.89 752.48,-95.04 579.5,-42 575.23,-40.69 570.98,-38.61 567.07,-36.28"/>
<polygon fill="midnightblue" stroke="midnightblue" points="568.92,-33.3 558.67,-30.61 565,-39.1 568.92,-33.3"/>
</g>
<!-- Node27&#45;&gt;Node13 -->
<g id="edge39" class="edge">
<title>Node27&#45;&gt;Node13</title>
<path fill="none" stroke="midnightblue" d="M2414.09,-78.43C2433.34,-65.24 2458.3,-48.16 2475.68,-36.26"/>
<polygon fill="midnightblue" stroke="midnightblue" points="2477.74,-39.09 2484.01,-30.55 2473.78,-33.31 2477.74,-39.09"/>
</g>
<!-- Node27&#45;&gt;Node19 -->
<g id="edge45" class="edge">
<title>Node27&#45;&gt;Node19</title>
<path fill="none" stroke="midnightblue" d="M2330.31,-81.3C2325.65,-80.1 2321.01,-78.99 2316.5,-78 2210.7,-54.87 2181.47,-64.35 2075.5,-42 2070.56,-40.96 2065.47,-39.78 2060.37,-38.53"/>
<polygon fill="midnightblue" stroke="midnightblue" points="2061.15,-35.12 2050.6,-36.05 2059.43,-41.9 2061.15,-35.12"/>
</g>
<!-- Node27&#45;&gt;Node23 -->
<g id="edge46" class="edge">
<title>Node27&#45;&gt;Node23</title>
<path fill="none" stroke="midnightblue" d="M2330.25,-91.02C2295.14,-86.78 2248.71,-81.52 2207.5,-78 1849.46,-47.44 1414.7,-28.62 1286.65,-23.46"/>
<polygon fill="midnightblue" stroke="midnightblue" points="1286.72,-19.96 1276.59,-23.05 1286.44,-26.95 1286.72,-19.96"/>
</g>
<!-- Node28 -->
<g id="node28" class="node">
<title>Node28</title>
<g id="a_node28"><a xlink:title=" ">
<polygon fill="white" stroke="#bfbfbf" points="2237,-11.5 2237,-30.5 2318,-30.5 2318,-11.5 2237,-11.5"/>
<text text-anchor="middle" x="2277.5" y="-18.5" font-family="Helvetica,sans-Serif" font-size="10.00">base/macros.h</text>
</a>
</g>
</g>
<!-- Node27&#45;&gt;Node28 -->
<g id="edge43" class="edge">
<title>Node27&#45;&gt;Node28</title>
<path fill="none" stroke="midnightblue" d="M2357.69,-78.43C2339.13,-65.37 2315.12,-48.47 2298.22,-36.58"/>
<polygon fill="midnightblue" stroke="midnightblue" points="2299.85,-33.44 2289.65,-30.55 2295.82,-39.17 2299.85,-33.44"/>
</g>
<!-- Node29 -->
<g id="node29" class="node">
<title>Node29</title>
<g id="a_node29"><a xlink:title=" ">
<polygon fill="white" stroke="#bfbfbf" points="2336.5,-11.5 2336.5,-30.5 2452.5,-30.5 2452.5,-11.5 2336.5,-11.5"/>
<text text-anchor="middle" x="2394.5" y="-18.5" font-family="Helvetica,sans-Serif" font-size="10.00">base/memory/ptr_util.h</text>
</a>
</g>
</g>
<!-- Node27&#45;&gt;Node29 -->
<g id="edge44" class="edge">
<title>Node27&#45;&gt;Node29</title>
<path fill="none" stroke="midnightblue" d="M2387.82,-78.43C2389.19,-66.82 2390.93,-52.18 2392.28,-40.72"/>
<polygon fill="midnightblue" stroke="midnightblue" points="2395.79,-40.89 2393.49,-30.55 2388.84,-40.07 2395.79,-40.89"/>
</g>
<!-- Node35&#45;&gt;Node2 -->
<g id="edge57" class="edge">
<title>Node35&#45;&gt;Node2</title>
<path fill="none" stroke="midnightblue" d="M255.1,-85.15C270.49,-82.33 287.05,-79.69 302.5,-78 342.95,-73.57 1651.13,-30.21 1868.91,-23.01"/>
<polygon fill="midnightblue" stroke="midnightblue" points="1869.12,-26.51 1879,-22.68 1868.89,-19.51 1869.12,-26.51"/>
</g>
<!-- Node35&#45;&gt;Node7 -->
<g id="edge55" class="edge">
<title>Node35&#45;&gt;Node7</title>
<path fill="none" stroke="midnightblue" d="M250.36,-78.48C277.38,-68.48 310.05,-55.57 338.5,-42 342.48,-40.1 346.62,-37.93 350.6,-35.73"/>
<polygon fill="midnightblue" stroke="midnightblue" points="352.51,-38.67 359.45,-30.66 349.03,-32.59 352.51,-38.67"/>
</g>
<!-- Node35&#45;&gt;Node8 -->
<g id="edge56" class="edge">
<title>Node35&#45;&gt;Node8</title>
<path fill="none" stroke="midnightblue" d="M255.07,-81.81C259.95,-80.52 264.81,-79.23 269.5,-78 331.22,-61.78 350.91,-69.5 408.5,-42 411.55,-40.54 414.61,-38.72 417.51,-36.77"/>
<polygon fill="midnightblue" stroke="midnightblue" points="419.63,-39.55 425.59,-30.79 415.47,-33.93 419.63,-39.55"/>
</g>
<!-- Node35&#45;&gt;Node10 -->
<g id="edge59" class="edge">
<title>Node35&#45;&gt;Node10</title>
<path fill="none" stroke="midnightblue" d="M255.01,-85.65C309.18,-74.52 390.72,-57.56 461.5,-42 479.63,-38.02 499.84,-33.38 516.21,-29.58"/>
<polygon fill="midnightblue" stroke="midnightblue" points="517.41,-32.89 526.36,-27.21 515.82,-26.07 517.41,-32.89"/>
</g>
<!-- Node35&#45;&gt;Node23 -->
<g id="edge62" class="edge">
<title>Node35&#45;&gt;Node23</title>
<path fill="none" stroke="midnightblue" d="M255.11,-85.24C270.5,-82.42 287.06,-79.76 302.5,-78 670.26,-36.2 766.52,-81.79 1134.5,-42 1160.59,-39.18 1189.71,-34.09 1212.12,-29.76"/>
<polygon fill="midnightblue" stroke="midnightblue" points="1213.09,-33.13 1222.22,-27.77 1211.73,-26.27 1213.09,-33.13"/>
</g>
<!-- Node36 -->
<g id="node36" class="node">
<title>Node36</title>
<g id="a_node36"><a xlink:title=" ">
<polygon fill="white" stroke="#bfbfbf" points="0,-11.5 0,-30.5 83,-30.5 83,-11.5 0,-11.5"/>
<text text-anchor="middle" x="41.5" y="-18.5" font-family="Helvetica,sans-Serif" font-size="10.00">unordered_map</text>
</a>
</g>
</g>
<!-- Node35&#45;&gt;Node36 -->
<g id="edge58" class="edge">
<title>Node35&#45;&gt;Node36</title>
<path fill="none" stroke="midnightblue" d="M155.1,-78.43C127.71,-64.82 91.94,-47.06 67.92,-35.12"/>
<polygon fill="midnightblue" stroke="midnightblue" points="69.23,-31.87 58.72,-30.55 66.12,-38.14 69.23,-31.87"/>
</g>
<!-- Node37 -->
<g id="node37" class="node">
<title>Node37</title>
<g id="a_node37"><a xlink:title=" ">
<polygon fill="white" stroke="#bfbfbf" points="101.5,-6 101.5,-36 203.5,-36 203.5,-6 101.5,-6"/>
<text text-anchor="start" x="109.5" y="-24" font-family="Helvetica,sans-Serif" font-size="10.00">base/containers/flat</text>
<text text-anchor="middle" x="152.5" y="-13" font-family="Helvetica,sans-Serif" font-size="10.00">_set.h</text>
</a>
</g>
</g>
<!-- Node35&#45;&gt;Node37 -->
<g id="edge60" class="edge">
<title>Node35&#45;&gt;Node37</title>
<path fill="none" stroke="midnightblue" d="M183.68,-78.43C178.04,-68.22 171.11,-55.68 165.22,-45.01"/>
<polygon fill="midnightblue" stroke="midnightblue" points="168.26,-43.28 160.36,-36.23 162.13,-46.67 168.26,-43.28"/>
</g>
<!-- Node38 -->
<g id="node38" class="node">
<title>Node38</title>
<g id="a_node38"><a xlink:title=" ">
<polygon fill="white" stroke="#bfbfbf" points="221.5,-0.5 221.5,-41.5 329.5,-41.5 329.5,-0.5 221.5,-0.5"/>
<text text-anchor="start" x="229.5" y="-29.5" font-family="Helvetica,sans-Serif" font-size="10.00">components/history</text>
<text text-anchor="start" x="229.5" y="-18.5" font-family="Helvetica,sans-Serif" font-size="10.00">/core/browser/history</text>
<text text-anchor="middle" x="275.5" y="-7.5" font-family="Helvetica,sans-Serif" font-size="10.00">_types.h</text>
</a>
</g>
</g>
<!-- Node35&#45;&gt;Node38 -->
<g id="edge61" class="edge">
<title>Node35&#45;&gt;Node38</title>
<path fill="none" stroke="midnightblue" d="M215.36,-78.43C225.09,-69.3 236.82,-58.29 247.32,-48.44"/>
<polygon fill="midnightblue" stroke="midnightblue" points="249.81,-50.9 254.71,-41.51 245.02,-45.8 249.81,-50.9"/>
</g>
</g>
</svg>
