<?xml version="1.0" encoding="UTF-8" standalone="no"?>
<!DOCTYPE svg PUBLIC "-//W3C//DTD SVG 1.1//EN"
 "http://www.w3.org/Graphics/SVG/1.1/DTD/svg11.dtd">
<!-- Generated by graphviz version 2.43.0 (0)
 -->
<!-- Title: components/omnibox/browser/omnibox_event_global_tracker.cc Pages: 1 -->
<svg width="276pt" height="184pt"
 viewBox="0.00 0.00 275.50 184.00" xmlns="http://www.w3.org/2000/svg" xmlns:xlink="http://www.w3.org/1999/xlink">
<g id="graph0" class="graph" transform="scale(1 1) rotate(0) translate(4 180)">
<title>components/omnibox/browser/omnibox_event_global_tracker.cc</title>
<polygon fill="white" stroke="transparent" points="-4,4 -4,-180 271.5,-180 271.5,4 -4,4"/>
<!-- Node1 -->
<g id="node1" class="node">
<title>Node1</title>
<g id="a_node1"><a xlink:title=" ">
<polygon fill="#bfbfbf" stroke="black" points="71,-134.5 71,-175.5 194,-175.5 194,-134.5 71,-134.5"/>
<text text-anchor="start" x="79" y="-163.5" font-family="Helvetica,sans-Serif" font-size="10.00">components/omnibox</text>
<text text-anchor="start" x="79" y="-152.5" font-family="Helvetica,sans-Serif" font-size="10.00">/browser/omnibox_event</text>
<text text-anchor="middle" x="132.5" y="-141.5" font-family="Helvetica,sans-Serif" font-size="10.00">_global_tracker.cc</text>
</a>
</g>
</g>
<!-- Node2 -->
<g id="node2" class="node">
<title>Node2</title>
<g id="a_node2"><a xlink:href="../../de/d81/omnibox__event__global__tracker_8h.html" target="_top" xlink:title=" ">
<polygon fill="white" stroke="black" points="0,-56.5 0,-97.5 123,-97.5 123,-56.5 0,-56.5"/>
<text text-anchor="start" x="8" y="-85.5" font-family="Helvetica,sans-Serif" font-size="10.00">components/omnibox</text>
<text text-anchor="start" x="8" y="-74.5" font-family="Helvetica,sans-Serif" font-size="10.00">/browser/omnibox_event</text>
<text text-anchor="middle" x="61.5" y="-63.5" font-family="Helvetica,sans-Serif" font-size="10.00">_global_tracker.h</text>
</a>
</g>
</g>
<!-- Node1&#45;&gt;Node2 -->
<g id="edge1" class="edge">
<title>Node1&#45;&gt;Node2</title>
<path fill="none" stroke="midnightblue" d="M114.22,-134.43C105.85,-125.47 95.8,-114.72 86.74,-105.01"/>
<polygon fill="midnightblue" stroke="midnightblue" points="89.11,-102.42 79.72,-97.51 83.99,-107.2 89.11,-102.42"/>
</g>
<!-- Node4 -->
<g id="node4" class="node">
<title>Node4</title>
<g id="a_node4"><a xlink:title=" ">
<polygon fill="white" stroke="#bfbfbf" points="141.5,-67.5 141.5,-86.5 267.5,-86.5 267.5,-67.5 141.5,-67.5"/>
<text text-anchor="middle" x="204.5" y="-74.5" font-family="Helvetica,sans-Serif" font-size="10.00">base/memory/singleton.h</text>
</a>
</g>
</g>
<!-- Node1&#45;&gt;Node4 -->
<g id="edge3" class="edge">
<title>Node1&#45;&gt;Node4</title>
<path fill="none" stroke="midnightblue" d="M151.04,-134.43C162.96,-121.85 178.24,-105.72 189.41,-93.92"/>
<polygon fill="midnightblue" stroke="midnightblue" points="192.06,-96.22 196.4,-86.55 186.98,-91.4 192.06,-96.22"/>
</g>
<!-- Node3 -->
<g id="node3" class="node">
<title>Node3</title>
<g id="a_node3"><a xlink:title=" ">
<polygon fill="white" stroke="#bfbfbf" points="10,-0.5 10,-19.5 113,-19.5 113,-0.5 10,-0.5"/>
<text text-anchor="middle" x="61.5" y="-7.5" font-family="Helvetica,sans-Serif" font-size="10.00">base/callback_list.h</text>
</a>
</g>
</g>
<!-- Node2&#45;&gt;Node3 -->
<g id="edge2" class="edge">
<title>Node2&#45;&gt;Node3</title>
<path fill="none" stroke="midnightblue" d="M61.5,-56.5C61.5,-48.07 61.5,-38.24 61.5,-29.87"/>
<polygon fill="midnightblue" stroke="midnightblue" points="65,-29.65 61.5,-19.65 58,-29.65 65,-29.65"/>
</g>
</g>
</svg>
