<?xml version="1.0" encoding="UTF-8" standalone="no"?>
<!DOCTYPE svg PUBLIC "-//W3C//DTD SVG 1.1//EN"
 "http://www.w3.org/Graphics/SVG/1.1/DTD/svg11.dtd">
<!-- Generated by graphviz version 2.43.0 (0)
 -->
<!-- Title: components/omnibox/browser/actions/omnibox_pedal.h Pages: 1 -->
<svg width="967pt" height="440pt"
 viewBox="0.00 0.00 966.50 440.00" xmlns="http://www.w3.org/2000/svg" xmlns:xlink="http://www.w3.org/1999/xlink">
<g id="graph0" class="graph" transform="scale(1 1) rotate(0) translate(4 436)">
<title>components/omnibox/browser/actions/omnibox_pedal.h</title>
<polygon fill="white" stroke="transparent" points="-4,4 -4,-436 962.5,-436 962.5,4 -4,4"/>
<!-- Node1 -->
<g id="node1" class="node">
<title>Node1</title>
<g id="a_node1"><a xlink:title=" ">
<polygon fill="#bfbfbf" stroke="black" points="377,-390.5 377,-431.5 505,-431.5 505,-390.5 377,-390.5"/>
<text text-anchor="start" x="385" y="-419.5" font-family="Helvetica,sans-Serif" font-size="10.00">components/omnibox</text>
<text text-anchor="start" x="385" y="-408.5" font-family="Helvetica,sans-Serif" font-size="10.00">/browser/actions/omnibox</text>
<text text-anchor="middle" x="441" y="-397.5" font-family="Helvetica,sans-Serif" font-size="10.00">_pedal.h</text>
</a>
</g>
</g>
<!-- Node2 -->
<g id="node2" class="node">
<title>Node2</title>
<g id="a_node2"><a xlink:href="../../d9/d99/omnibox__pedal_8cc.html" target="_top" xlink:title=" ">
<polygon fill="white" stroke="black" points="0,-312.5 0,-353.5 128,-353.5 128,-312.5 0,-312.5"/>
<text text-anchor="start" x="8" y="-341.5" font-family="Helvetica,sans-Serif" font-size="10.00">components/omnibox</text>
<text text-anchor="start" x="8" y="-330.5" font-family="Helvetica,sans-Serif" font-size="10.00">/browser/actions/omnibox</text>
<text text-anchor="middle" x="64" y="-319.5" font-family="Helvetica,sans-Serif" font-size="10.00">_pedal.cc</text>
</a>
</g>
</g>
<!-- Node1&#45;&gt;Node2 -->
<g id="edge1" class="edge">
<title>Node1&#45;&gt;Node2</title>
<path fill="none" stroke="midnightblue" d="M367.01,-397.54C306.33,-386.99 218.32,-370.91 142,-354 137.5,-353 132.86,-351.93 128.19,-350.82"/>
<polygon fill="midnightblue" stroke="midnightblue" points="366.43,-400.99 376.88,-399.25 367.63,-394.1 366.43,-400.99"/>
</g>
<!-- Node3 -->
<g id="node3" class="node">
<title>Node3</title>
<g id="a_node3"><a xlink:href="../../d9/d94/omnibox__pedal__implementations_8cc.html" target="_top" xlink:title=" ">
<polygon fill="white" stroke="black" points="184.5,-234.5 184.5,-275.5 319.5,-275.5 319.5,-234.5 184.5,-234.5"/>
<text text-anchor="start" x="192.5" y="-263.5" font-family="Helvetica,sans-Serif" font-size="10.00">components/omnibox</text>
<text text-anchor="start" x="192.5" y="-252.5" font-family="Helvetica,sans-Serif" font-size="10.00">/browser/actions/omnibox</text>
<text text-anchor="middle" x="252" y="-241.5" font-family="Helvetica,sans-Serif" font-size="10.00">_pedal_implementations.cc</text>
</a>
</g>
</g>
<!-- Node1&#45;&gt;Node3 -->
<g id="edge2" class="edge">
<title>Node1&#45;&gt;Node3</title>
<path fill="none" stroke="midnightblue" d="M366.73,-401.62C333.99,-394.2 297.67,-380.23 274,-354 254.61,-332.51 251.12,-297.68 251.06,-275.85"/>
<polygon fill="midnightblue" stroke="midnightblue" points="366.25,-405.09 376.75,-403.72 367.68,-398.24 366.25,-405.09"/>
</g>
<!-- Node4 -->
<g id="node4" class="node">
<title>Node4</title>
<g id="a_node4"><a xlink:href="../../d0/d70/omnibox__pedal__implementations_8h.html" target="_top" xlink:title=" ">
<polygon fill="white" stroke="black" points="283,-312.5 283,-353.5 413,-353.5 413,-312.5 283,-312.5"/>
<text text-anchor="start" x="291" y="-341.5" font-family="Helvetica,sans-Serif" font-size="10.00">components/omnibox</text>
<text text-anchor="start" x="291" y="-330.5" font-family="Helvetica,sans-Serif" font-size="10.00">/browser/actions/omnibox</text>
<text text-anchor="middle" x="348" y="-319.5" font-family="Helvetica,sans-Serif" font-size="10.00">_pedal_implementations.h</text>
</a>
</g>
</g>
<!-- Node1&#45;&gt;Node4 -->
<g id="edge3" class="edge">
<title>Node1&#45;&gt;Node4</title>
<path fill="none" stroke="midnightblue" d="M409.26,-384.06C397.02,-374.06 383.25,-362.8 371.87,-353.51"/>
<polygon fill="midnightblue" stroke="midnightblue" points="407.09,-386.81 417.05,-390.43 411.52,-381.39 407.09,-386.81"/>
</g>
<!-- Node5 -->
<g id="node5" class="node">
<title>Node5</title>
<g id="a_node5"><a xlink:href="../../d5/d8d/omnibox__pedal__provider_8cc.html" target="_top" xlink:title=" ">
<polygon fill="white" stroke="black" points="92,-156.5 92,-197.5 220,-197.5 220,-156.5 92,-156.5"/>
<text text-anchor="start" x="100" y="-185.5" font-family="Helvetica,sans-Serif" font-size="10.00">components/omnibox</text>
<text text-anchor="start" x="100" y="-174.5" font-family="Helvetica,sans-Serif" font-size="10.00">/browser/actions/omnibox</text>
<text text-anchor="middle" x="156" y="-163.5" font-family="Helvetica,sans-Serif" font-size="10.00">_pedal_provider.cc</text>
</a>
</g>
</g>
<!-- Node1&#45;&gt;Node5 -->
<g id="edge14" class="edge">
<title>Node1&#45;&gt;Node5</title>
<path fill="none" stroke="midnightblue" d="M366.79,-397.36C330.11,-388.88 286.27,-375.26 251,-354 209.55,-329.01 197.43,-318.89 175,-276 161.99,-251.12 157.83,-218.49 156.54,-197.87"/>
<polygon fill="midnightblue" stroke="midnightblue" points="366.41,-400.86 376.93,-399.62 367.93,-394.03 366.41,-400.86"/>
</g>
<!-- Node6 -->
<g id="node6" class="node">
<title>Node6</title>
<g id="a_node6"><a xlink:href="../../df/da9/omnibox__pedal__provider_8h.html" target="_top" xlink:title=" ">
<polygon fill="white" stroke="black" points="376,-234.5 376,-275.5 504,-275.5 504,-234.5 376,-234.5"/>
<text text-anchor="start" x="384" y="-263.5" font-family="Helvetica,sans-Serif" font-size="10.00">components/omnibox</text>
<text text-anchor="start" x="384" y="-252.5" font-family="Helvetica,sans-Serif" font-size="10.00">/browser/actions/omnibox</text>
<text text-anchor="middle" x="440" y="-241.5" font-family="Helvetica,sans-Serif" font-size="10.00">_pedal_provider.h</text>
</a>
</g>
</g>
<!-- Node1&#45;&gt;Node6 -->
<g id="edge15" class="edge">
<title>Node1&#45;&gt;Node6</title>
<path fill="none" stroke="midnightblue" d="M440.81,-380.36C440.61,-349.61 440.3,-302.36 440.13,-275.83"/>
<polygon fill="midnightblue" stroke="midnightblue" points="437.31,-380.52 440.87,-390.5 444.31,-380.47 437.31,-380.52"/>
</g>
<!-- Node8 -->
<g id="node8" class="node">
<title>Node8</title>
<g id="a_node8"><a xlink:href="../../d6/d09/autocomplete__result_8cc.html" target="_top" xlink:title=" ">
<polygon fill="white" stroke="black" points="536,-156.5 536,-197.5 652,-197.5 652,-156.5 536,-156.5"/>
<text text-anchor="start" x="544" y="-185.5" font-family="Helvetica,sans-Serif" font-size="10.00">components/omnibox</text>
<text text-anchor="start" x="544" y="-174.5" font-family="Helvetica,sans-Serif" font-size="10.00">/browser/autocomplete</text>
<text text-anchor="middle" x="594" y="-163.5" font-family="Helvetica,sans-Serif" font-size="10.00">_result.cc</text>
</a>
</g>
</g>
<!-- Node1&#45;&gt;Node8 -->
<g id="edge16" class="edge">
<title>Node1&#45;&gt;Node8</title>
<path fill="none" stroke="midnightblue" d="M459.72,-381.61C491.18,-333.91 553.86,-238.86 580.99,-197.73"/>
<polygon fill="midnightblue" stroke="midnightblue" points="456.63,-379.94 454.04,-390.22 462.47,-383.8 456.63,-379.94"/>
</g>
<!-- Node13 -->
<g id="node13" class="node">
<title>Node13</title>
<g id="a_node13"><a xlink:href="../../d7/df6/omnibox__edit__model_8cc.html" target="_top" xlink:title=" ">
<polygon fill="white" stroke="black" points="533.5,-312.5 533.5,-353.5 648.5,-353.5 648.5,-312.5 533.5,-312.5"/>
<text text-anchor="start" x="541.5" y="-341.5" font-family="Helvetica,sans-Serif" font-size="10.00">components/omnibox</text>
<text text-anchor="start" x="541.5" y="-330.5" font-family="Helvetica,sans-Serif" font-size="10.00">/browser/omnibox_edit</text>
<text text-anchor="middle" x="591" y="-319.5" font-family="Helvetica,sans-Serif" font-size="10.00">_model.cc</text>
</a>
</g>
</g>
<!-- Node1&#45;&gt;Node13 -->
<g id="edge17" class="edge">
<title>Node1&#45;&gt;Node13</title>
<path fill="none" stroke="midnightblue" d="M488.55,-385.91C509.17,-375.46 533.01,-363.38 552.5,-353.51"/>
<polygon fill="midnightblue" stroke="midnightblue" points="486.97,-382.79 479.63,-390.43 490.13,-389.03 486.97,-382.79"/>
</g>
<!-- Node14 -->
<g id="node14" class="node">
<title>Node14</title>
<g id="a_node14"><a xlink:href="../../d3/d3f/omnibox__result__view_8cc.html" target="_top" xlink:title=" ">
<polygon fill="white" stroke="black" points="666.5,-312.5 666.5,-353.5 791.5,-353.5 791.5,-312.5 666.5,-312.5"/>
<text text-anchor="start" x="674.5" y="-341.5" font-family="Helvetica,sans-Serif" font-size="10.00">chrome/browser/ui/views</text>
<text text-anchor="start" x="674.5" y="-330.5" font-family="Helvetica,sans-Serif" font-size="10.00">/omnibox/omnibox_result</text>
<text text-anchor="middle" x="729" y="-319.5" font-family="Helvetica,sans-Serif" font-size="10.00">_view.cc</text>
</a>
</g>
</g>
<!-- Node1&#45;&gt;Node14 -->
<g id="edge18" class="edge">
<title>Node1&#45;&gt;Node14</title>
<path fill="none" stroke="midnightblue" d="M515.06,-391.32C557.05,-380.62 610.53,-366.81 658,-354 660.72,-353.27 663.5,-352.51 666.3,-351.74"/>
<polygon fill="midnightblue" stroke="midnightblue" points="514.02,-387.97 505.19,-393.83 515.74,-394.76 514.02,-387.97"/>
</g>
<!-- Node15 -->
<g id="node15" class="node">
<title>Node15</title>
<g id="a_node15"><a xlink:href="../../de/d2f/omnibox__suggestion__button__row__view_8cc.html" target="_top" xlink:title=" ">
<polygon fill="white" stroke="black" points="809.5,-312.5 809.5,-353.5 958.5,-353.5 958.5,-312.5 809.5,-312.5"/>
<text text-anchor="start" x="817.5" y="-341.5" font-family="Helvetica,sans-Serif" font-size="10.00">chrome/browser/ui/views</text>
<text text-anchor="start" x="817.5" y="-330.5" font-family="Helvetica,sans-Serif" font-size="10.00">/omnibox/omnibox_suggestion</text>
<text text-anchor="middle" x="884" y="-319.5" font-family="Helvetica,sans-Serif" font-size="10.00">_button_row_view.cc</text>
</a>
</g>
</g>
<!-- Node1&#45;&gt;Node15 -->
<g id="edge19" class="edge">
<title>Node1&#45;&gt;Node15</title>
<path fill="none" stroke="midnightblue" d="M515.03,-400.3C588.03,-390.3 702.63,-373.47 801,-354 803.76,-353.45 806.57,-352.88 809.41,-352.28"/>
<polygon fill="midnightblue" stroke="midnightblue" points="514.44,-396.84 505.01,-401.66 515.39,-403.78 514.44,-396.84"/>
</g>
<!-- Node4&#45;&gt;Node3 -->
<g id="edge4" class="edge">
<title>Node4&#45;&gt;Node3</title>
<path fill="none" stroke="midnightblue" d="M315.24,-306.06C302.6,-296.06 288.38,-284.8 276.64,-275.51"/>
<polygon fill="midnightblue" stroke="midnightblue" points="313.26,-308.97 323.28,-312.43 317.61,-303.48 313.26,-308.97"/>
</g>
<!-- Node4&#45;&gt;Node5 -->
<g id="edge5" class="edge">
<title>Node4&#45;&gt;Node5</title>
<path fill="none" stroke="midnightblue" d="M349.76,-301.97C349.37,-280.57 345.31,-252.43 329,-234 325.13,-229.63 267.91,-211.59 220.32,-197.16"/>
<polygon fill="midnightblue" stroke="midnightblue" points="346.26,-302.14 349.68,-312.17 353.26,-302.19 346.26,-302.14"/>
</g>
<!-- Node4&#45;&gt;Node6 -->
<g id="edge6" class="edge">
<title>Node4&#45;&gt;Node6</title>
<path fill="none" stroke="midnightblue" d="M379.74,-305.78C391.77,-295.84 405.24,-284.72 416.39,-275.51"/>
<polygon fill="midnightblue" stroke="midnightblue" points="377.17,-303.36 371.69,-312.43 381.63,-308.76 377.17,-303.36"/>
</g>
<!-- Node6&#45;&gt;Node5 -->
<g id="edge7" class="edge">
<title>Node6&#45;&gt;Node5</title>
<path fill="none" stroke="midnightblue" d="M366,-234.51C325.51,-223.81 274.47,-210.26 229,-198 226.08,-197.21 223.1,-196.41 220.09,-195.59"/>
<polygon fill="midnightblue" stroke="midnightblue" points="365.23,-237.93 375.79,-237.1 367.01,-231.16 365.23,-237.93"/>
</g>
<!-- Node7 -->
<g id="node7" class="node">
<title>Node7</title>
<g id="a_node7"><a xlink:href="../../d8/d40/autocomplete__controller_8cc.html" target="_top" xlink:title=" ">
<polygon fill="white" stroke="black" points="238,-156.5 238,-197.5 354,-197.5 354,-156.5 238,-156.5"/>
<text text-anchor="start" x="246" y="-185.5" font-family="Helvetica,sans-Serif" font-size="10.00">components/omnibox</text>
<text text-anchor="start" x="246" y="-174.5" font-family="Helvetica,sans-Serif" font-size="10.00">/browser/autocomplete</text>
<text text-anchor="middle" x="296" y="-163.5" font-family="Helvetica,sans-Serif" font-size="10.00">_controller.cc</text>
</a>
</g>
</g>
<!-- Node6&#45;&gt;Node7 -->
<g id="edge8" class="edge">
<title>Node6&#45;&gt;Node7</title>
<path fill="none" stroke="midnightblue" d="M393.82,-229.63C374.14,-219.24 351.5,-207.29 332.96,-197.51"/>
<polygon fill="midnightblue" stroke="midnightblue" points="392.44,-232.86 402.92,-234.43 395.71,-226.67 392.44,-232.86"/>
</g>
<!-- Node6&#45;&gt;Node8 -->
<g id="edge9" class="edge">
<title>Node6&#45;&gt;Node8</title>
<path fill="none" stroke="midnightblue" d="M488.82,-229.91C509.99,-219.46 534.47,-207.38 554.48,-197.51"/>
<polygon fill="midnightblue" stroke="midnightblue" points="487.08,-226.86 479.66,-234.43 490.18,-233.14 487.08,-226.86"/>
</g>
<!-- Node9 -->
<g id="node9" class="node">
<title>Node9</title>
<g id="a_node9"><a xlink:href="../../d6/d85/mock__autocomplete__provider__client_8h.html" target="_top" xlink:title=" ">
<polygon fill="white" stroke="black" points="372.5,-156.5 372.5,-197.5 517.5,-197.5 517.5,-156.5 372.5,-156.5"/>
<text text-anchor="start" x="380.5" y="-185.5" font-family="Helvetica,sans-Serif" font-size="10.00">components/omnibox</text>
<text text-anchor="start" x="380.5" y="-174.5" font-family="Helvetica,sans-Serif" font-size="10.00">/browser/mock_autocomplete</text>
<text text-anchor="middle" x="445" y="-163.5" font-family="Helvetica,sans-Serif" font-size="10.00">_provider_client.h</text>
</a>
</g>
</g>
<!-- Node6&#45;&gt;Node9 -->
<g id="edge10" class="edge">
<title>Node6&#45;&gt;Node9</title>
<path fill="none" stroke="midnightblue" d="M441.95,-224.3C442.55,-215.3 443.18,-205.65 443.72,-197.51"/>
<polygon fill="midnightblue" stroke="midnightblue" points="438.45,-224.22 441.29,-234.43 445.44,-224.68 438.45,-224.22"/>
</g>
<!-- Node10 -->
<g id="node10" class="node">
<title>Node10</title>
<g id="a_node10"><a xlink:href="../../da/d44/fake__autocomplete__provider__client_8h.html" target="_top" xlink:title=" ">
<polygon fill="white" stroke="black" points="294,-78.5 294,-119.5 434,-119.5 434,-78.5 294,-78.5"/>
<text text-anchor="start" x="302" y="-107.5" font-family="Helvetica,sans-Serif" font-size="10.00">components/omnibox</text>
<text text-anchor="start" x="302" y="-96.5" font-family="Helvetica,sans-Serif" font-size="10.00">/browser/fake_autocomplete</text>
<text text-anchor="middle" x="364" y="-85.5" font-family="Helvetica,sans-Serif" font-size="10.00">_provider_client.h</text>
</a>
</g>
</g>
<!-- Node9&#45;&gt;Node10 -->
<g id="edge11" class="edge">
<title>Node9&#45;&gt;Node10</title>
<path fill="none" stroke="midnightblue" d="M416.75,-149.49C406.24,-139.63 394.51,-128.63 384.79,-119.51"/>
<polygon fill="midnightblue" stroke="midnightblue" points="414.45,-152.14 424.14,-156.43 419.24,-147.03 414.45,-152.14"/>
</g>
<!-- Node12 -->
<g id="node12" class="node">
<title>Node12</title>
<g id="a_node12"><a xlink:href="../../d7/d57/mock__autocomplete__provider__client_8cc.html" target="_top" xlink:title=" ">
<polygon fill="white" stroke="black" points="452.5,-78.5 452.5,-119.5 597.5,-119.5 597.5,-78.5 452.5,-78.5"/>
<text text-anchor="start" x="460.5" y="-107.5" font-family="Helvetica,sans-Serif" font-size="10.00">components/omnibox</text>
<text text-anchor="start" x="460.5" y="-96.5" font-family="Helvetica,sans-Serif" font-size="10.00">/browser/mock_autocomplete</text>
<text text-anchor="middle" x="525" y="-85.5" font-family="Helvetica,sans-Serif" font-size="10.00">_provider_client.cc</text>
</a>
</g>
</g>
<!-- Node9&#45;&gt;Node12 -->
<g id="edge13" class="edge">
<title>Node9&#45;&gt;Node12</title>
<path fill="none" stroke="midnightblue" d="M472.9,-149.49C483.28,-139.63 494.87,-128.63 504.47,-119.51"/>
<polygon fill="midnightblue" stroke="midnightblue" points="470.44,-147 465.6,-156.43 475.26,-152.08 470.44,-147"/>
</g>
<!-- Node11 -->
<g id="node11" class="node">
<title>Node11</title>
<g id="a_node11"><a xlink:href="../../d9/da9/fake__autocomplete__provider__client_8cc.html" target="_top" xlink:title=" ">
<polygon fill="white" stroke="black" points="294,-0.5 294,-41.5 434,-41.5 434,-0.5 294,-0.5"/>
<text text-anchor="start" x="302" y="-29.5" font-family="Helvetica,sans-Serif" font-size="10.00">components/omnibox</text>
<text text-anchor="start" x="302" y="-18.5" font-family="Helvetica,sans-Serif" font-size="10.00">/browser/fake_autocomplete</text>
<text text-anchor="middle" x="364" y="-7.5" font-family="Helvetica,sans-Serif" font-size="10.00">_provider_client.cc</text>
</a>
</g>
</g>
<!-- Node10&#45;&gt;Node11 -->
<g id="edge12" class="edge">
<title>Node10&#45;&gt;Node11</title>
<path fill="none" stroke="midnightblue" d="M364,-68.3C364,-59.3 364,-49.65 364,-41.51"/>
<polygon fill="midnightblue" stroke="midnightblue" points="360.5,-68.43 364,-78.43 367.5,-68.43 360.5,-68.43"/>
</g>
</g>
</svg>
