<?xml version="1.0" encoding="UTF-8" standalone="no"?>
<!DOCTYPE svg PUBLIC "-//W3C//DTD SVG 1.1//EN"
 "http://www.w3.org/Graphics/SVG/1.1/DTD/svg11.dtd">
<!-- Generated by graphviz version 2.43.0 (0)
 -->
<!-- Title: OmniboxSuggestionButtonRowView::UpdateFromModel Pages: 1 -->
<svg width="925pt" height="468pt"
 viewBox="0.00 0.00 925.00 467.50" xmlns="http://www.w3.org/2000/svg" xmlns:xlink="http://www.w3.org/1999/xlink">
<g id="graph0" class="graph" transform="scale(1 1) rotate(0) translate(4 463.5)">
<title>OmniboxSuggestionButtonRowView::UpdateFromModel</title>
<polygon fill="white" stroke="transparent" points="-4,4 -4,-463.5 921,-463.5 921,4 -4,4"/>
<!-- Node1 -->
<g id="node1" class="node">
<title>Node1</title>
<g id="a_node1"><a xlink:title=" ">
<polygon fill="#bfbfbf" stroke="black" points="0,-243.5 0,-273.5 153,-273.5 153,-243.5 0,-243.5"/>
<text text-anchor="start" x="8" y="-261.5" font-family="Helvetica,sans-Serif" font-size="10.00">OmniboxSuggestionButtonRow</text>
<text text-anchor="middle" x="76.5" y="-250.5" font-family="Helvetica,sans-Serif" font-size="10.00">View::UpdateFromModel</text>
</a>
</g>
</g>
<!-- Node2 -->
<g id="node2" class="node">
<title>Node2</title>
<g id="a_node2"><a xlink:href="../../d0/d22/classOmniboxEditModel.html#a17aabec567d6753f1d0a1ae590046ae7" target="_top" xlink:title=" ">
<polygon fill="white" stroke="black" points="201.5,-440 201.5,-459 329.5,-459 329.5,-440 201.5,-440"/>
<text text-anchor="middle" x="265.5" y="-447" font-family="Helvetica,sans-Serif" font-size="10.00">OmniboxEditModel::client</text>
</a>
</g>
</g>
<!-- Node1&#45;&gt;Node2 -->
<g id="edge1" class="edge">
<title>Node1&#45;&gt;Node2</title>
<path fill="none" stroke="midnightblue" d="M82.86,-273.64C95.62,-307.4 131.12,-389.08 189,-430.5 191.69,-432.43 194.56,-434.16 197.55,-435.72"/>
<polygon fill="midnightblue" stroke="midnightblue" points="196.25,-438.97 206.8,-439.88 199.12,-432.59 196.25,-438.97"/>
</g>
<!-- Node3 -->
<g id="node3" class="node">
<title>Node3</title>
<g id="a_node3"><a xlink:href="../../d1/db1/classOmniboxPopupModel.html#a8fdc692fabcaee645dc7072edc89b9b8" target="_top" xlink:title=" ">
<polygon fill="white" stroke="black" points="207.5,-390.5 207.5,-420.5 323.5,-420.5 323.5,-390.5 207.5,-390.5"/>
<text text-anchor="start" x="215.5" y="-408.5" font-family="Helvetica,sans-Serif" font-size="10.00">OmniboxPopupModel::</text>
<text text-anchor="middle" x="265.5" y="-397.5" font-family="Helvetica,sans-Serif" font-size="10.00">edit_model</text>
</a>
</g>
</g>
<!-- Node1&#45;&gt;Node3 -->
<g id="edge2" class="edge">
<title>Node1&#45;&gt;Node3</title>
<path fill="none" stroke="midnightblue" d="M87.27,-273.73C104.65,-299.6 143.41,-352.21 189,-381.5 191.92,-383.38 195.01,-385.12 198.19,-386.73"/>
<polygon fill="midnightblue" stroke="midnightblue" points="196.81,-389.95 207.36,-390.95 199.73,-383.59 196.81,-389.95"/>
</g>
<!-- Node4 -->
<g id="node4" class="node">
<title>Node4</title>
<g id="a_node4"><a xlink:href="../../dc/d8f/structAutocompleteMatch.html#a31ba36eba4c55160ab2e91f5368acb16" target="_top" xlink:title=" ">
<polygon fill="white" stroke="black" points="210.5,-341.5 210.5,-371.5 320.5,-371.5 320.5,-341.5 210.5,-341.5"/>
<text text-anchor="start" x="218.5" y="-359.5" font-family="Helvetica,sans-Serif" font-size="10.00">AutocompleteMatch::</text>
<text text-anchor="middle" x="265.5" y="-348.5" font-family="Helvetica,sans-Serif" font-size="10.00">GetKeywordUIState</text>
</a>
</g>
</g>
<!-- Node1&#45;&gt;Node4 -->
<g id="edge3" class="edge">
<title>Node1&#45;&gt;Node4</title>
<path fill="none" stroke="midnightblue" d="M96.65,-273.62C118.1,-289.98 154.43,-315.93 189,-332.5 192.84,-334.34 196.85,-336.08 200.94,-337.73"/>
<polygon fill="midnightblue" stroke="midnightblue" points="199.98,-341.11 210.57,-341.39 202.47,-334.57 199.98,-341.11"/>
</g>
<!-- Node8 -->
<g id="node8" class="node">
<title>Node8</title>
<g id="a_node8"><a xlink:href="../../d5/dbd/classOmniboxClient.html#ac07b7d7c41582fde1aa2d7dd46a052be" target="_top" xlink:title=" ">
<polygon fill="white" stroke="black" points="194,-292.5 194,-322.5 337,-322.5 337,-292.5 194,-292.5"/>
<text text-anchor="start" x="202" y="-310.5" font-family="Helvetica,sans-Serif" font-size="10.00">OmniboxClient::GetTemplate</text>
<text text-anchor="middle" x="265.5" y="-299.5" font-family="Helvetica,sans-Serif" font-size="10.00">URLService</text>
</a>
</g>
</g>
<!-- Node1&#45;&gt;Node8 -->
<g id="edge7" class="edge">
<title>Node1&#45;&gt;Node8</title>
<path fill="none" stroke="midnightblue" d="M134.88,-273.53C154.62,-278.71 176.91,-284.55 197.36,-289.91"/>
<polygon fill="midnightblue" stroke="midnightblue" points="196.67,-293.34 207.23,-292.49 198.45,-286.57 196.67,-293.34"/>
</g>
<!-- Node9 -->
<g id="node9" class="node">
<title>Node9</title>
<g id="a_node9"><a xlink:href="../../dc/d8f/structAutocompleteMatch.html#a26de97442eb3495bedf2349f6fa4c6e4" target="_top" xlink:title=" ">
<polygon fill="white" stroke="black" points="210.5,-243.5 210.5,-273.5 320.5,-273.5 320.5,-243.5 210.5,-243.5"/>
<text text-anchor="start" x="218.5" y="-261.5" font-family="Helvetica,sans-Serif" font-size="10.00">AutocompleteMatch::</text>
<text text-anchor="middle" x="265.5" y="-250.5" font-family="Helvetica,sans-Serif" font-size="10.00">GetVectorIcon</text>
</a>
</g>
</g>
<!-- Node1&#45;&gt;Node9 -->
<g id="edge8" class="edge">
<title>Node1&#45;&gt;Node9</title>
<path fill="none" stroke="midnightblue" d="M153.02,-258.5C168.59,-258.5 184.84,-258.5 199.98,-258.5"/>
<polygon fill="midnightblue" stroke="midnightblue" points="200.25,-262 210.25,-258.5 200.25,-255 200.25,-262"/>
</g>
<!-- Node13 -->
<g id="node13" class="node">
<title>Node13</title>
<g id="a_node13"><a xlink:href="../../d3/d0a/classOmniboxSuggestionButtonRowView.html#ad96c190fdee357ba2dadef2041b4669e" target="_top" xlink:title=" ">
<polygon fill="white" stroke="black" points="189,-193.5 189,-223.5 342,-223.5 342,-193.5 189,-193.5"/>
<text text-anchor="start" x="197" y="-211.5" font-family="Helvetica,sans-Serif" font-size="10.00">OmniboxSuggestionButtonRow</text>
<text text-anchor="middle" x="265.5" y="-200.5" font-family="Helvetica,sans-Serif" font-size="10.00">View::match</text>
</a>
</g>
</g>
<!-- Node1&#45;&gt;Node13 -->
<g id="edge12" class="edge">
<title>Node1&#45;&gt;Node13</title>
<path fill="none" stroke="midnightblue" d="M133.61,-243.5C153.95,-238.06 177.11,-231.87 198.24,-226.22"/>
<polygon fill="midnightblue" stroke="midnightblue" points="199.35,-229.54 208.11,-223.58 197.55,-222.78 199.35,-229.54"/>
</g>
<!-- Node15 -->
<g id="node15" class="node">
<title>Node15</title>
<g id="a_node15"><a xlink:href="../../d3/d0a/classOmniboxSuggestionButtonRowView.html#aff7f9e86f516a97440553f1d305199d4" target="_top" xlink:title=" ">
<polygon fill="white" stroke="black" points="380.5,-98.5 380.5,-128.5 533.5,-128.5 533.5,-98.5 380.5,-98.5"/>
<text text-anchor="start" x="388.5" y="-116.5" font-family="Helvetica,sans-Serif" font-size="10.00">OmniboxSuggestionButtonRow</text>
<text text-anchor="middle" x="457" y="-105.5" font-family="Helvetica,sans-Serif" font-size="10.00">View::model</text>
</a>
</g>
</g>
<!-- Node1&#45;&gt;Node15 -->
<g id="edge21" class="edge">
<title>Node1&#45;&gt;Node15</title>
<path fill="none" stroke="midnightblue" d="M96.11,-243.36C117.39,-226.74 153.83,-200.33 189,-184.5 222.85,-169.26 313.4,-146.49 379.69,-130.87"/>
<polygon fill="midnightblue" stroke="midnightblue" points="380.76,-134.21 389.7,-128.52 379.16,-127.4 380.76,-134.21"/>
</g>
<!-- Node22 -->
<g id="node22" class="node">
<title>Node22</title>
<g id="a_node22"><a xlink:href="../../d0/da8/classOmniboxSuggestionRowButton.html#ada9697dbf647fb01ecd3799f234aa1cb" target="_top" xlink:title=" ">
<polygon fill="white" stroke="black" points="189,-25.5 189,-55.5 342,-55.5 342,-25.5 189,-25.5"/>
<text text-anchor="start" x="197" y="-43.5" font-family="Helvetica,sans-Serif" font-size="10.00">OmniboxSuggestionRowButton</text>
<text text-anchor="middle" x="265.5" y="-32.5" font-family="Helvetica,sans-Serif" font-size="10.00">::SetIcon</text>
</a>
</g>
</g>
<!-- Node1&#45;&gt;Node22 -->
<g id="edge22" class="edge">
<title>Node1&#45;&gt;Node22</title>
<path fill="none" stroke="midnightblue" d="M84.65,-243.35C100.15,-211.67 139.49,-137.32 189,-88.5 199.68,-77.97 213.05,-68.55 225.55,-60.91"/>
<polygon fill="midnightblue" stroke="midnightblue" points="227.61,-63.76 234.45,-55.67 224.06,-57.73 227.61,-63.76"/>
</g>
<!-- Node25 -->
<g id="node25" class="node">
<title>Node25</title>
<g id="a_node25"><a xlink:href="../../d3/d0a/classOmniboxSuggestionButtonRowView.html#ae3c6ba51d66f3cb90b080018f24064c3" target="_top" xlink:title=" ">
<polygon fill="white" stroke="black" points="189,-98.5 189,-128.5 342,-128.5 342,-98.5 189,-98.5"/>
<text text-anchor="start" x="197" y="-116.5" font-family="Helvetica,sans-Serif" font-size="10.00">OmniboxSuggestionButtonRow</text>
<text text-anchor="middle" x="265.5" y="-105.5" font-family="Helvetica,sans-Serif" font-size="10.00">View::SetPillButtonVisibility</text>
</a>
</g>
</g>
<!-- Node1&#45;&gt;Node25 -->
<g id="edge25" class="edge">
<title>Node1&#45;&gt;Node25</title>
<path fill="none" stroke="midnightblue" d="M89.87,-243.31C109.13,-220.4 148.33,-176.7 189,-148.5 197.37,-142.7 206.86,-137.43 216.21,-132.86"/>
<polygon fill="midnightblue" stroke="midnightblue" points="217.9,-135.93 225.47,-128.51 214.93,-129.59 217.9,-135.93"/>
</g>
<!-- Node5 -->
<g id="node5" class="node">
<title>Node5</title>
<g id="a_node5"><a xlink:href="../../dc/d8f/structAutocompleteMatch.html#aaac40e4377b37451c38aaaa838715aa5" target="_top" xlink:title=" ">
<polygon fill="white" stroke="black" points="378,-393 378,-434 536,-434 536,-393 378,-393"/>
<text text-anchor="start" x="386" y="-422" font-family="Helvetica,sans-Serif" font-size="10.00">AutocompleteMatch::</text>
<text text-anchor="start" x="386" y="-411" font-family="Helvetica,sans-Serif" font-size="10.00">GetSubstitutingExplicitlyInvoked</text>
<text text-anchor="middle" x="457" y="-400" font-family="Helvetica,sans-Serif" font-size="10.00">Keyword</text>
</a>
</g>
</g>
<!-- Node4&#45;&gt;Node5 -->
<g id="edge4" class="edge">
<title>Node4&#45;&gt;Node5</title>
<path fill="none" stroke="midnightblue" d="M316.79,-371.63C335.53,-377.26 357.27,-383.8 377.92,-390.02"/>
<polygon fill="midnightblue" stroke="midnightblue" points="377.05,-393.41 387.64,-392.94 379.07,-386.71 377.05,-393.41"/>
</g>
<!-- Node6 -->
<g id="node6" class="node">
<title>Node6</title>
<g id="a_node6"><a xlink:href="../../dc/d8f/structAutocompleteMatch.html#aea073526afc3c6acd1684ad21b6f234c" target="_top" xlink:title=" ">
<polygon fill="white" stroke="black" points="589.5,-398.5 589.5,-428.5 699.5,-428.5 699.5,-398.5 589.5,-398.5"/>
<text text-anchor="start" x="597.5" y="-416.5" font-family="Helvetica,sans-Serif" font-size="10.00">AutocompleteMatch::</text>
<text text-anchor="middle" x="644.5" y="-405.5" font-family="Helvetica,sans-Serif" font-size="10.00">GetTemplateURL</text>
</a>
</g>
</g>
<!-- Node5&#45;&gt;Node6 -->
<g id="edge5" class="edge">
<title>Node5&#45;&gt;Node6</title>
<path fill="none" stroke="midnightblue" d="M536.13,-413.5C550.41,-413.5 565.17,-413.5 579,-413.5"/>
<polygon fill="midnightblue" stroke="midnightblue" points="579.37,-417 589.37,-413.5 579.37,-410 579.37,-417"/>
</g>
<!-- Node7 -->
<g id="node7" class="node">
<title>Node7</title>
<g id="a_node7"><a xlink:href="../../dc/d8f/structAutocompleteMatch.html#aba08ed5c0c0d17e823d6c86c2f11675a" target="_top" xlink:title=" ">
<polygon fill="white" stroke="black" points="760,-398.5 760,-428.5 910,-428.5 910,-398.5 760,-398.5"/>
<text text-anchor="start" x="768" y="-416.5" font-family="Helvetica,sans-Serif" font-size="10.00">AutocompleteMatch::</text>
<text text-anchor="middle" x="835" y="-405.5" font-family="Helvetica,sans-Serif" font-size="10.00">GetTemplateURLWithKeyword</text>
</a>
</g>
</g>
<!-- Node6&#45;&gt;Node7 -->
<g id="edge6" class="edge">
<title>Node6&#45;&gt;Node7</title>
<path fill="none" stroke="midnightblue" d="M699.52,-413.5C715.25,-413.5 732.82,-413.5 749.94,-413.5"/>
<polygon fill="midnightblue" stroke="midnightblue" points="749.96,-417 759.96,-413.5 749.96,-410 749.96,-417"/>
</g>
<!-- Node10 -->
<g id="node10" class="node">
<title>Node10</title>
<g id="a_node10"><a xlink:href="../../dc/d8f/structAutocompleteMatch.html#a5b86825646ad62bb299c8ec23949b4d1" target="_top" xlink:title=" ">
<polygon fill="white" stroke="black" points="390.5,-343.5 390.5,-373.5 523.5,-373.5 523.5,-343.5 390.5,-343.5"/>
<text text-anchor="start" x="398.5" y="-361.5" font-family="Helvetica,sans-Serif" font-size="10.00">AutocompleteMatch::</text>
<text text-anchor="middle" x="457" y="-350.5" font-family="Helvetica,sans-Serif" font-size="10.00">AnswerTypeToAnswerIcon</text>
</a>
</g>
</g>
<!-- Node9&#45;&gt;Node10 -->
<g id="edge9" class="edge">
<title>Node9&#45;&gt;Node10</title>
<path fill="none" stroke="midnightblue" d="M320.58,-271.67C328.17,-274.84 335.57,-278.73 342,-283.5 364.29,-300.02 355.54,-318.21 378,-334.5 380.06,-335.99 382.21,-337.39 384.43,-338.71"/>
<polygon fill="midnightblue" stroke="midnightblue" points="382.83,-341.82 393.31,-343.36 386.08,-335.62 382.83,-341.82"/>
</g>
<!-- Node11 -->
<g id="node11" class="node">
<title>Node11</title>
<g id="a_node11"><a xlink:href="../../dc/d8f/structAutocompleteMatch.html#acdfc9aa026649ff4d1c83c3d0ff630cc" target="_top" xlink:title=" ">
<polygon fill="white" stroke="black" points="402,-294.5 402,-324.5 512,-324.5 512,-294.5 402,-294.5"/>
<text text-anchor="start" x="410" y="-312.5" font-family="Helvetica,sans-Serif" font-size="10.00">AutocompleteMatch::</text>
<text text-anchor="middle" x="457" y="-301.5" font-family="Helvetica,sans-Serif" font-size="10.00">IsSearchHistoryType</text>
</a>
</g>
</g>
<!-- Node9&#45;&gt;Node11 -->
<g id="edge10" class="edge">
<title>Node9&#45;&gt;Node11</title>
<path fill="none" stroke="midnightblue" d="M320.55,-273.05C342.85,-279.05 368.87,-286.05 392.11,-292.3"/>
<polygon fill="midnightblue" stroke="midnightblue" points="391.31,-295.72 401.88,-294.93 393.13,-288.96 391.31,-295.72"/>
</g>
<!-- Node12 -->
<g id="node12" class="node">
<title>Node12</title>
<g id="a_node12"><a xlink:href="../../dd/de9/classAutocompleteProvider.html#afee5fe39a16a2cc459b6baa0d8a1521e" target="_top" xlink:title=" ">
<polygon fill="white" stroke="black" points="400.5,-245.5 400.5,-275.5 513.5,-275.5 513.5,-245.5 400.5,-245.5"/>
<text text-anchor="start" x="408.5" y="-263.5" font-family="Helvetica,sans-Serif" font-size="10.00">AutocompleteProvider</text>
<text text-anchor="middle" x="457" y="-252.5" font-family="Helvetica,sans-Serif" font-size="10.00">::type</text>
</a>
</g>
</g>
<!-- Node9&#45;&gt;Node12 -->
<g id="edge11" class="edge">
<title>Node9&#45;&gt;Node12</title>
<path fill="none" stroke="midnightblue" d="M320.55,-259.07C342.18,-259.3 367.3,-259.56 390,-259.8"/>
<polygon fill="midnightblue" stroke="midnightblue" points="390.19,-263.31 400.23,-259.91 390.27,-256.31 390.19,-263.31"/>
</g>
<!-- Node14 -->
<g id="node14" class="node">
<title>Node14</title>
<g id="a_node14"><a xlink:href="../../d3/d03/classAutocompleteResult.html#a1532251921e2112a24e3a52ec7ee4535" target="_top" xlink:title=" ">
<polygon fill="white" stroke="black" points="404.5,-147.5 404.5,-177.5 509.5,-177.5 509.5,-147.5 404.5,-147.5"/>
<text text-anchor="start" x="412.5" y="-165.5" font-family="Helvetica,sans-Serif" font-size="10.00">AutocompleteResult</text>
<text text-anchor="middle" x="457" y="-154.5" font-family="Helvetica,sans-Serif" font-size="10.00">::match_at</text>
</a>
</g>
</g>
<!-- Node13&#45;&gt;Node14 -->
<g id="edge13" class="edge">
<title>Node13&#45;&gt;Node14</title>
<path fill="none" stroke="midnightblue" d="M328.55,-193.44C349.7,-188.3 373.33,-182.57 394.45,-177.44"/>
<polygon fill="midnightblue" stroke="midnightblue" points="395.38,-180.82 404.27,-175.06 393.73,-174.02 395.38,-180.82"/>
</g>
<!-- Node13&#45;&gt;Node15 -->
<g id="edge14" class="edge">
<title>Node13&#45;&gt;Node15</title>
<path fill="none" stroke="midnightblue" d="M310.43,-193.47C321.22,-188.83 332.41,-183.16 342,-176.5 361.11,-163.24 358.31,-150.88 378,-138.5 381.2,-136.49 384.57,-134.63 388.05,-132.9"/>
<polygon fill="midnightblue" stroke="midnightblue" points="389.78,-135.96 397.46,-128.66 386.9,-129.58 389.78,-135.96"/>
</g>
<!-- Node18 -->
<g id="node18" class="node">
<title>Node18</title>
<g id="a_node18"><a xlink:href="../../d1/db1/classOmniboxPopupModel.html#a819a99147bf9bc6ad4f7096218a388b0" target="_top" xlink:title=" ">
<polygon fill="white" stroke="black" points="399,-196.5 399,-226.5 515,-226.5 515,-196.5 399,-196.5"/>
<text text-anchor="start" x="407" y="-214.5" font-family="Helvetica,sans-Serif" font-size="10.00">OmniboxPopupModel::</text>
<text text-anchor="middle" x="457" y="-203.5" font-family="Helvetica,sans-Serif" font-size="10.00">result</text>
</a>
</g>
</g>
<!-- Node13&#45;&gt;Node18 -->
<g id="edge17" class="edge">
<title>Node13&#45;&gt;Node18</title>
<path fill="none" stroke="midnightblue" d="M342.21,-209.7C357.54,-209.94 373.56,-210.19 388.58,-210.43"/>
<polygon fill="midnightblue" stroke="midnightblue" points="388.75,-213.94 398.8,-210.59 388.86,-206.94 388.75,-213.94"/>
</g>
<!-- Node16 -->
<g id="node16" class="node">
<title>Node16</title>
<g id="a_node16"><a xlink:href="../../d7/d88/classOmniboxPopupContentsView.html#a718a0b1b4223a2cbabb6008f005ffd2e" target="_top" xlink:title=" ">
<polygon fill="white" stroke="black" points="572,-98.5 572,-128.5 717,-128.5 717,-98.5 572,-98.5"/>
<text text-anchor="start" x="580" y="-116.5" font-family="Helvetica,sans-Serif" font-size="10.00">OmniboxPopupContentsView</text>
<text text-anchor="middle" x="644.5" y="-105.5" font-family="Helvetica,sans-Serif" font-size="10.00">::model</text>
</a>
</g>
</g>
<!-- Node15&#45;&gt;Node16 -->
<g id="edge15" class="edge">
<title>Node15&#45;&gt;Node16</title>
<path fill="none" stroke="midnightblue" d="M533.72,-113.5C542.99,-113.5 552.49,-113.5 561.84,-113.5"/>
<polygon fill="midnightblue" stroke="midnightblue" points="561.91,-117 571.91,-113.5 561.91,-110 561.91,-117"/>
</g>
<!-- Node17 -->
<g id="node17" class="node">
<title>Node17</title>
<g id="a_node17"><a xlink:href="../../d0/d22/classOmniboxEditModel.html#a254f9536adb46b9e885d10b3d5bfe4c9" target="_top" xlink:title=" ">
<polygon fill="white" stroke="black" points="769.5,-98.5 769.5,-128.5 900.5,-128.5 900.5,-98.5 769.5,-98.5"/>
<text text-anchor="start" x="777.5" y="-116.5" font-family="Helvetica,sans-Serif" font-size="10.00">OmniboxEditModel::popup</text>
<text text-anchor="middle" x="835" y="-105.5" font-family="Helvetica,sans-Serif" font-size="10.00">_model</text>
</a>
</g>
</g>
<!-- Node16&#45;&gt;Node17 -->
<g id="edge16" class="edge">
<title>Node16&#45;&gt;Node17</title>
<path fill="none" stroke="midnightblue" d="M717.03,-113.5C730.86,-113.5 745.38,-113.5 759.31,-113.5"/>
<polygon fill="midnightblue" stroke="midnightblue" points="759.33,-117 769.33,-113.5 759.33,-110 759.33,-117"/>
</g>
<!-- Node19 -->
<g id="node19" class="node">
<title>Node19</title>
<g id="a_node19"><a xlink:href="../../d1/db1/classOmniboxPopupModel.html#a15465ac89016d4717442d3be4e43f3ae" target="_top" xlink:title=" ">
<polygon fill="white" stroke="black" points="584.5,-172.5 584.5,-202.5 704.5,-202.5 704.5,-172.5 584.5,-172.5"/>
<text text-anchor="start" x="592.5" y="-190.5" font-family="Helvetica,sans-Serif" font-size="10.00">OmniboxPopupModel::</text>
<text text-anchor="middle" x="644.5" y="-179.5" font-family="Helvetica,sans-Serif" font-size="10.00">autocomplete_controller</text>
</a>
</g>
</g>
<!-- Node18&#45;&gt;Node19 -->
<g id="edge18" class="edge">
<title>Node18&#45;&gt;Node19</title>
<path fill="none" stroke="midnightblue" d="M515.17,-204.1C533.84,-201.69 554.79,-198.98 574.25,-196.46"/>
<polygon fill="midnightblue" stroke="midnightblue" points="574.81,-199.92 584.27,-195.16 573.91,-192.97 574.81,-199.92"/>
</g>
<!-- Node21 -->
<g id="node21" class="node">
<title>Node21</title>
<g id="a_node21"><a xlink:href="../../df/d4d/classAutocompleteController.html#a4aad481d8777819a1acec95affee80b2" target="_top" xlink:title=" ">
<polygon fill="white" stroke="black" points="585,-221.5 585,-251.5 704,-251.5 704,-221.5 585,-221.5"/>
<text text-anchor="start" x="593" y="-239.5" font-family="Helvetica,sans-Serif" font-size="10.00">AutocompleteController</text>
<text text-anchor="middle" x="644.5" y="-228.5" font-family="Helvetica,sans-Serif" font-size="10.00">::result</text>
</a>
</g>
</g>
<!-- Node18&#45;&gt;Node21 -->
<g id="edge20" class="edge">
<title>Node18&#45;&gt;Node21</title>
<path fill="none" stroke="midnightblue" d="M515.17,-219.2C534.03,-221.75 555.19,-224.6 574.82,-227.24"/>
<polygon fill="midnightblue" stroke="midnightblue" points="574.54,-230.74 584.92,-228.6 575.48,-223.8 574.54,-230.74"/>
</g>
<!-- Node20 -->
<g id="node20" class="node">
<title>Node20</title>
<g id="a_node20"><a xlink:href="../../d0/d22/classOmniboxEditModel.html#a8c8a925ee670cdc9bd5c0ad8b07fa1a0" target="_top" xlink:title=" ">
<polygon fill="white" stroke="black" points="753,-172.5 753,-202.5 917,-202.5 917,-172.5 753,-172.5"/>
<text text-anchor="start" x="761" y="-190.5" font-family="Helvetica,sans-Serif" font-size="10.00">OmniboxEditModel::autocomplete</text>
<text text-anchor="middle" x="835" y="-179.5" font-family="Helvetica,sans-Serif" font-size="10.00">_controller</text>
</a>
</g>
</g>
<!-- Node19&#45;&gt;Node20 -->
<g id="edge19" class="edge">
<title>Node19&#45;&gt;Node20</title>
<path fill="none" stroke="midnightblue" d="M704.63,-187.5C716.72,-187.5 729.72,-187.5 742.65,-187.5"/>
<polygon fill="midnightblue" stroke="midnightblue" points="742.98,-191 752.98,-187.5 742.98,-184 742.98,-191"/>
</g>
<!-- Node23 -->
<g id="node23" class="node">
<title>Node23</title>
<g id="a_node23"><a xlink:href="../../d0/da8/classOmniboxSuggestionRowButton.html#ada55841a4e2b4fcc26566a38c68f00c0" target="_top" xlink:title=" ">
<polygon fill="white" stroke="black" points="380.5,-0.5 380.5,-30.5 533.5,-30.5 533.5,-0.5 380.5,-0.5"/>
<text text-anchor="start" x="388.5" y="-18.5" font-family="Helvetica,sans-Serif" font-size="10.00">OmniboxSuggestionRowButton</text>
<text text-anchor="middle" x="457" y="-7.5" font-family="Helvetica,sans-Serif" font-size="10.00">::OnThemeChanged</text>
</a>
</g>
</g>
<!-- Node22&#45;&gt;Node23 -->
<g id="edge23" class="edge">
<title>Node22&#45;&gt;Node23</title>
<path fill="none" stroke="midnightblue" d="M342.21,-30.51C351.45,-29.29 360.94,-28.04 370.31,-26.81"/>
<polygon fill="midnightblue" stroke="midnightblue" points="370.95,-30.25 380.41,-25.47 370.04,-23.31 370.95,-30.25"/>
</g>
<!-- Node24 -->
<g id="node24" class="node">
<title>Node24</title>
<g id="a_node24"><a xlink:href="../../d4/d9b/omnibox__theme_8cc.html#a22fe9a774c5756fb8f71218d1830d516" target="_top" xlink:title=" ">
<polygon fill="white" stroke="black" points="597,-6 597,-25 692,-25 692,-6 597,-6"/>
<text text-anchor="middle" x="644.5" y="-13" font-family="Helvetica,sans-Serif" font-size="10.00">GetOmniboxColor</text>
</a>
</g>
</g>
<!-- Node23&#45;&gt;Node24 -->
<g id="edge24" class="edge">
<title>Node23&#45;&gt;Node24</title>
<path fill="none" stroke="midnightblue" d="M533.72,-15.5C551.39,-15.5 569.91,-15.5 586.61,-15.5"/>
<polygon fill="midnightblue" stroke="midnightblue" points="586.74,-19 596.74,-15.5 586.74,-12 586.74,-19"/>
</g>
<!-- Node25&#45;&gt;Node15 -->
<g id="edge27" class="edge">
<title>Node25&#45;&gt;Node15</title>
<path fill="none" stroke="midnightblue" d="M342.21,-113.5C351.45,-113.5 360.94,-113.5 370.31,-113.5"/>
<polygon fill="midnightblue" stroke="midnightblue" points="370.41,-117 380.41,-113.5 370.41,-110 370.41,-117"/>
</g>
<!-- Node26 -->
<g id="node26" class="node">
<title>Node26</title>
<g id="a_node26"><a xlink:href="../../d1/d73/namespaceOmniboxFieldTrial.html#a5946bfcba47abaa751ad85c5fa022f86" target="_top" xlink:title=" ">
<polygon fill="white" stroke="black" points="378,-49.5 378,-79.5 536,-79.5 536,-49.5 378,-49.5"/>
<text text-anchor="start" x="386" y="-67.5" font-family="Helvetica,sans-Serif" font-size="10.00">OmniboxFieldTrial::</text>
<text text-anchor="middle" x="457" y="-56.5" font-family="Helvetica,sans-Serif" font-size="10.00">IsKeywordSearchButtonEnabled</text>
</a>
</g>
</g>
<!-- Node25&#45;&gt;Node26 -->
<g id="edge26" class="edge">
<title>Node25&#45;&gt;Node26</title>
<path fill="none" stroke="midnightblue" d="M324.64,-98.47C344.74,-93.27 367.44,-87.4 388.24,-82.02"/>
<polygon fill="midnightblue" stroke="midnightblue" points="389.16,-85.4 397.97,-79.51 387.41,-78.62 389.16,-85.4"/>
</g>
</g>
</svg>
