<?xml version="1.0" encoding="UTF-8" standalone="no"?>
<!DOCTYPE svg PUBLIC "-//W3C//DTD SVG 1.1//EN"
 "http://www.w3.org/Graphics/SVG/1.1/DTD/svg11.dtd">
<!-- Generated by graphviz version 2.43.0 (0)
 -->
<!-- Title: OmniboxSuggestionButtonRowView::SetPillButtonVisibility Pages: 1 -->
<svg width="892pt" height="345pt"
 viewBox="0.00 0.00 892.00 345.00" xmlns="http://www.w3.org/2000/svg" xmlns:xlink="http://www.w3.org/1999/xlink">
<g id="graph0" class="graph" transform="scale(1 1) rotate(0) translate(4 341)">
<title>OmniboxSuggestionButtonRowView::SetPillButtonVisibility</title>
<polygon fill="white" stroke="transparent" points="-4,4 -4,-341 888,-341 888,4 -4,4"/>
<!-- Node1 -->
<g id="node1" class="node">
<title>Node1</title>
<g id="a_node1"><a xlink:title=" ">
<polygon fill="#bfbfbf" stroke="black" points="0,-205.5 0,-235.5 153,-235.5 153,-205.5 0,-205.5"/>
<text text-anchor="start" x="8" y="-223.5" font-family="Helvetica,sans-Serif" font-size="10.00">OmniboxSuggestionButtonRow</text>
<text text-anchor="middle" x="76.5" y="-212.5" font-family="Helvetica,sans-Serif" font-size="10.00">View::SetPillButtonVisibility</text>
</a>
</g>
</g>
<!-- Node2 -->
<g id="node2" class="node">
<title>Node2</title>
<g id="a_node2"><a xlink:href="../../d1/d73/namespaceOmniboxFieldTrial.html#a5946bfcba47abaa751ad85c5fa022f86" target="_top" xlink:title=" ">
<polygon fill="white" stroke="black" points="544,-306.5 544,-336.5 702,-336.5 702,-306.5 544,-306.5"/>
<text text-anchor="start" x="552" y="-324.5" font-family="Helvetica,sans-Serif" font-size="10.00">OmniboxFieldTrial::</text>
<text text-anchor="middle" x="623" y="-313.5" font-family="Helvetica,sans-Serif" font-size="10.00">IsKeywordSearchButtonEnabled</text>
</a>
</g>
</g>
<!-- Node1&#45;&gt;Node2 -->
<g id="edge1" class="edge">
<title>Node1&#45;&gt;Node2</title>
<path fill="none" stroke="midnightblue" d="M153.21,-234.54C253,-253.05 428.21,-285.55 533.85,-305.15"/>
<polygon fill="midnightblue" stroke="midnightblue" points="533.38,-308.62 543.85,-307 534.66,-301.74 533.38,-308.62"/>
</g>
<!-- Node3 -->
<g id="node3" class="node">
<title>Node3</title>
<g id="a_node3"><a xlink:href="../../d0/d22/classOmniboxEditModel.html#ac3f52192d6d6fedeb9fcfcfc7e430c96" target="_top" xlink:title=" ">
<polygon fill="white" stroke="black" points="189,-183.5 189,-213.5 330,-213.5 330,-183.5 189,-183.5"/>
<text text-anchor="start" x="197" y="-201.5" font-family="Helvetica,sans-Serif" font-size="10.00">OmniboxEditModel::IsPopup</text>
<text text-anchor="middle" x="259.5" y="-190.5" font-family="Helvetica,sans-Serif" font-size="10.00">ControlPresentOnMatch</text>
</a>
</g>
</g>
<!-- Node1&#45;&gt;Node3 -->
<g id="edge2" class="edge">
<title>Node1&#45;&gt;Node3</title>
<path fill="none" stroke="midnightblue" d="M153.21,-211.3C161.71,-210.27 170.38,-209.21 178.92,-208.17"/>
<polygon fill="midnightblue" stroke="midnightblue" points="179.36,-211.64 188.87,-206.96 178.52,-204.7 179.36,-211.64"/>
</g>
<!-- Node4 -->
<g id="node4" class="node">
<title>Node4</title>
<g id="a_node4"><a xlink:href="../../d0/d22/classOmniboxEditModel.html#a83ebf99fd8b53140c36e887f644bd510" target="_top" xlink:title=" ">
<polygon fill="white" stroke="black" points="366,-110.5 366,-140.5 505,-140.5 505,-110.5 366,-110.5"/>
<text text-anchor="start" x="374" y="-128.5" font-family="Helvetica,sans-Serif" font-size="10.00">OmniboxEditModel::GetPref</text>
<text text-anchor="middle" x="435.5" y="-117.5" font-family="Helvetica,sans-Serif" font-size="10.00">Service</text>
</a>
</g>
</g>
<!-- Node3&#45;&gt;Node4 -->
<g id="edge3" class="edge">
<title>Node3&#45;&gt;Node4</title>
<path fill="none" stroke="midnightblue" d="M296.55,-183.37C323.38,-172.12 360.19,-156.67 389.04,-144.57"/>
<polygon fill="midnightblue" stroke="midnightblue" points="390.63,-147.7 398.49,-140.61 387.92,-141.25 390.63,-147.7"/>
</g>
<!-- Node8 -->
<g id="node8" class="node">
<title>Node8</title>
<g id="a_node8"><a xlink:href="../../de/dfc/structOmniboxPopupSelection.html#aaf32c9ad4992fec10b4295679052b55a" target="_top" xlink:title=" ">
<polygon fill="white" stroke="black" points="367.5,-208.5 367.5,-238.5 503.5,-238.5 503.5,-208.5 367.5,-208.5"/>
<text text-anchor="start" x="375.5" y="-226.5" font-family="Helvetica,sans-Serif" font-size="10.00">OmniboxPopupSelection</text>
<text text-anchor="middle" x="435.5" y="-215.5" font-family="Helvetica,sans-Serif" font-size="10.00">::IsControlPresentOnMatch</text>
</a>
</g>
</g>
<!-- Node3&#45;&gt;Node8 -->
<g id="edge7" class="edge">
<title>Node3&#45;&gt;Node8</title>
<path fill="none" stroke="midnightblue" d="M330.02,-208.49C338.96,-209.77 348.16,-211.09 357.21,-212.4"/>
<polygon fill="midnightblue" stroke="midnightblue" points="356.96,-215.9 367.36,-213.85 357.96,-208.97 356.96,-215.9"/>
</g>
<!-- Node13 -->
<g id="node13" class="node">
<title>Node13</title>
<g id="a_node13"><a xlink:href="../../d0/d22/classOmniboxEditModel.html#ad945a332660c6122dc25b93c1eee76d8" target="_top" xlink:title=" ">
<polygon fill="white" stroke="black" points="371,-72 371,-91 500,-91 500,-72 371,-72"/>
<text text-anchor="middle" x="435.5" y="-79" font-family="Helvetica,sans-Serif" font-size="10.00">OmniboxEditModel::result</text>
</a>
</g>
</g>
<!-- Node3&#45;&gt;Node13 -->
<g id="edge13" class="edge">
<title>Node3&#45;&gt;Node13</title>
<path fill="none" stroke="midnightblue" d="M272.86,-183.39C291.09,-162.09 327.21,-123.39 366,-101.5 370.72,-98.84 375.83,-96.5 381.05,-94.45"/>
<polygon fill="midnightblue" stroke="midnightblue" points="382.28,-97.73 390.52,-91.08 379.93,-91.14 382.28,-97.73"/>
</g>
<!-- Node5 -->
<g id="node5" class="node">
<title>Node5</title>
<g id="a_node5"><a xlink:href="../../d0/d22/classOmniboxEditModel.html#a8c8a925ee670cdc9bd5c0ad8b07fa1a0" target="_top" xlink:title=" ">
<polygon fill="white" stroke="black" points="541,-110.5 541,-140.5 705,-140.5 705,-110.5 541,-110.5"/>
<text text-anchor="start" x="549" y="-128.5" font-family="Helvetica,sans-Serif" font-size="10.00">OmniboxEditModel::autocomplete</text>
<text text-anchor="middle" x="623" y="-117.5" font-family="Helvetica,sans-Serif" font-size="10.00">_controller</text>
</a>
</g>
</g>
<!-- Node4&#45;&gt;Node5 -->
<g id="edge4" class="edge">
<title>Node4&#45;&gt;Node5</title>
<path fill="none" stroke="midnightblue" d="M505.05,-125.5C513.43,-125.5 522.09,-125.5 530.74,-125.5"/>
<polygon fill="midnightblue" stroke="midnightblue" points="530.87,-129 540.87,-125.5 530.87,-122 530.87,-129"/>
</g>
<!-- Node6 -->
<g id="node6" class="node">
<title>Node6</title>
<g id="a_node6"><a xlink:href="../../df/d4d/classAutocompleteController.html#a1b73640ab24c9b6e706cdfafacccca52" target="_top" xlink:title=" ">
<polygon fill="white" stroke="black" points="562.5,-50 562.5,-91 683.5,-91 683.5,-50 562.5,-50"/>
<text text-anchor="start" x="570.5" y="-79" font-family="Helvetica,sans-Serif" font-size="10.00">AutocompleteController</text>
<text text-anchor="start" x="570.5" y="-68" font-family="Helvetica,sans-Serif" font-size="10.00">::autocomplete_provider</text>
<text text-anchor="middle" x="623" y="-57" font-family="Helvetica,sans-Serif" font-size="10.00">_client</text>
</a>
</g>
</g>
<!-- Node4&#45;&gt;Node6 -->
<g id="edge5" class="edge">
<title>Node4&#45;&gt;Node6</title>
<path fill="none" stroke="midnightblue" d="M487.19,-110.47C507.38,-104.49 530.93,-97.5 552.66,-91.06"/>
<polygon fill="midnightblue" stroke="midnightblue" points="553.9,-94.34 562.49,-88.14 551.91,-87.63 553.9,-94.34"/>
</g>
<!-- Node7 -->
<g id="node7" class="node">
<title>Node7</title>
<g id="a_node7"><a xlink:href="../../d5/dc7/classAutocompleteProviderClient.html#ac681cf50660fc21360da198bea6f4d8b" target="_top" xlink:title=" ">
<polygon fill="white" stroke="black" points="554,-0.5 554,-30.5 692,-30.5 692,-0.5 554,-0.5"/>
<text text-anchor="start" x="562" y="-18.5" font-family="Helvetica,sans-Serif" font-size="10.00">AutocompleteProviderClient</text>
<text text-anchor="middle" x="623" y="-7.5" font-family="Helvetica,sans-Serif" font-size="10.00">::GetPrefs</text>
</a>
</g>
</g>
<!-- Node4&#45;&gt;Node7 -->
<g id="edge6" class="edge">
<title>Node4&#45;&gt;Node7</title>
<path fill="none" stroke="midnightblue" d="M489.4,-110.47C494.98,-107.67 500.31,-104.37 505,-100.5 528.98,-80.7 516.53,-59.69 541,-40.5 543.33,-38.67 545.8,-36.97 548.37,-35.4"/>
<polygon fill="midnightblue" stroke="midnightblue" points="550.29,-38.34 557.43,-30.51 546.97,-32.18 550.29,-38.34"/>
</g>
<!-- Node8&#45;&gt;Node2 -->
<g id="edge8" class="edge">
<title>Node8&#45;&gt;Node2</title>
<path fill="none" stroke="midnightblue" d="M453.86,-238.53C473.72,-255.05 507.81,-281.38 541,-297.5 544.97,-299.43 549.12,-301.23 553.36,-302.92"/>
<polygon fill="midnightblue" stroke="midnightblue" points="552.15,-306.2 562.74,-306.42 554.59,-299.64 552.15,-306.2"/>
</g>
<!-- Node9 -->
<g id="node9" class="node">
<title>Node9</title>
<g id="a_node9"><a xlink:href="../../d3/d03/classAutocompleteResult.html#a1353d4a449288df34f1d6dd3eff73298" target="_top" xlink:title=" ">
<polygon fill="white" stroke="black" points="550.5,-257.5 550.5,-287.5 695.5,-287.5 695.5,-257.5 550.5,-257.5"/>
<text text-anchor="start" x="558.5" y="-275.5" font-family="Helvetica,sans-Serif" font-size="10.00">AutocompleteResult</text>
<text text-anchor="middle" x="623" y="-264.5" font-family="Helvetica,sans-Serif" font-size="10.00">::IsSuggestionGroupIdHidden</text>
</a>
</g>
</g>
<!-- Node8&#45;&gt;Node9 -->
<g id="edge9" class="edge">
<title>Node8&#45;&gt;Node9</title>
<path fill="none" stroke="midnightblue" d="M493.42,-238.53C513,-243.71 535.11,-249.55 555.4,-254.91"/>
<polygon fill="midnightblue" stroke="midnightblue" points="554.63,-258.32 565.19,-257.49 556.42,-251.56 554.63,-258.32"/>
</g>
<!-- Node11 -->
<g id="node11" class="node">
<title>Node11</title>
<g id="a_node11"><a xlink:href="../../d3/d03/classAutocompleteResult.html#a1532251921e2112a24e3a52ec7ee4535" target="_top" xlink:title=" ">
<polygon fill="white" stroke="black" points="570.5,-208.5 570.5,-238.5 675.5,-238.5 675.5,-208.5 570.5,-208.5"/>
<text text-anchor="start" x="578.5" y="-226.5" font-family="Helvetica,sans-Serif" font-size="10.00">AutocompleteResult</text>
<text text-anchor="middle" x="623" y="-215.5" font-family="Helvetica,sans-Serif" font-size="10.00">::match_at</text>
</a>
</g>
</g>
<!-- Node8&#45;&gt;Node11 -->
<g id="edge11" class="edge">
<title>Node8&#45;&gt;Node11</title>
<path fill="none" stroke="midnightblue" d="M503.73,-223.5C522.19,-223.5 542.12,-223.5 560.25,-223.5"/>
<polygon fill="midnightblue" stroke="midnightblue" points="560.41,-227 570.41,-223.5 560.41,-220 560.41,-227"/>
</g>
<!-- Node12 -->
<g id="node12" class="node">
<title>Node12</title>
<g id="a_node12"><a xlink:href="../../d3/d03/classAutocompleteResult.html#a64a7947a81e007d5aa56ac9b25e84bb6" target="_top" xlink:title=" ">
<polygon fill="white" stroke="black" points="570.5,-159.5 570.5,-189.5 675.5,-189.5 675.5,-159.5 570.5,-159.5"/>
<text text-anchor="start" x="578.5" y="-177.5" font-family="Helvetica,sans-Serif" font-size="10.00">AutocompleteResult</text>
<text text-anchor="middle" x="623" y="-166.5" font-family="Helvetica,sans-Serif" font-size="10.00">::size</text>
</a>
</g>
</g>
<!-- Node8&#45;&gt;Node12 -->
<g id="edge12" class="edge">
<title>Node8&#45;&gt;Node12</title>
<path fill="none" stroke="midnightblue" d="M493.42,-208.47C514.66,-202.85 538.86,-196.46 560.5,-190.75"/>
<polygon fill="midnightblue" stroke="midnightblue" points="561.47,-194.11 570.24,-188.17 559.68,-187.34 561.47,-194.11"/>
</g>
<!-- Node10 -->
<g id="node10" class="node">
<title>Node10</title>
<g id="a_node10"><a xlink:href="../../d4/d19/namespaceomnibox.html#a416efcfe9398c882ad7a7c97b42578e1" target="_top" xlink:title=" ">
<polygon fill="white" stroke="black" points="741,-257.5 741,-287.5 884,-287.5 884,-257.5 741,-257.5"/>
<text text-anchor="start" x="749" y="-275.5" font-family="Helvetica,sans-Serif" font-size="10.00">omnibox::GetUserPreference</text>
<text text-anchor="middle" x="812.5" y="-264.5" font-family="Helvetica,sans-Serif" font-size="10.00">ForSuggestionGroupVisibility</text>
</a>
</g>
</g>
<!-- Node9&#45;&gt;Node10 -->
<g id="edge10" class="edge">
<title>Node9&#45;&gt;Node10</title>
<path fill="none" stroke="midnightblue" d="M695.69,-272.5C707.12,-272.5 719.02,-272.5 730.65,-272.5"/>
<polygon fill="midnightblue" stroke="midnightblue" points="730.78,-276 740.78,-272.5 730.78,-269 730.78,-276"/>
</g>
</g>
</svg>
