<?xml version="1.0" encoding="UTF-8" standalone="no"?>
<!DOCTYPE svg PUBLIC "-//W3C//DTD SVG 1.1//EN"
 "http://www.w3.org/Graphics/SVG/1.1/DTD/svg11.dtd">
<!-- Generated by graphviz version 2.43.0 (0)
 -->
<!-- Title: DocumentSuggestionsService::StopCreatingDocumentSuggestionsRequest Pages: 1 -->
<svg width="508pt" height="50pt"
 viewBox="0.00 0.00 508.00 50.00" xmlns="http://www.w3.org/2000/svg" xmlns:xlink="http://www.w3.org/1999/xlink">
<g id="graph0" class="graph" transform="scale(1 1) rotate(0) translate(4 46)">
<title>DocumentSuggestionsService::StopCreatingDocumentSuggestionsRequest</title>
<polygon fill="white" stroke="transparent" points="-4,4 -4,-46 504,-46 504,4 -4,4"/>
<!-- Node1 -->
<g id="node1" class="node">
<title>Node1</title>
<g id="a_node1"><a xlink:title=" ">
<polygon fill="#bfbfbf" stroke="black" points="321,-0.5 321,-41.5 500,-41.5 500,-0.5 321,-0.5"/>
<text text-anchor="start" x="329" y="-29.5" font-family="Helvetica,sans-Serif" font-size="10.00">DocumentSuggestionsService</text>
<text text-anchor="start" x="329" y="-18.5" font-family="Helvetica,sans-Serif" font-size="10.00">::StopCreatingDocumentSuggestions</text>
<text text-anchor="middle" x="410.5" y="-7.5" font-family="Helvetica,sans-Serif" font-size="10.00">Request</text>
</a>
</g>
</g>
<!-- Node2 -->
<g id="node2" class="node">
<title>Node2</title>
<g id="a_node2"><a xlink:href="../../dc/dfa/classDocumentProvider.html#a512f3e22ed7c8ab4dad91f7994c2bffc" target="_top" xlink:title=" ">
<polygon fill="white" stroke="black" points="161,-11.5 161,-30.5 285,-30.5 285,-11.5 161,-11.5"/>
<text text-anchor="middle" x="223" y="-18.5" font-family="Helvetica,sans-Serif" font-size="10.00">DocumentProvider::Stop</text>
</a>
</g>
</g>
<!-- Node1&#45;&gt;Node2 -->
<g id="edge1" class="edge">
<title>Node1&#45;&gt;Node2</title>
<path fill="none" stroke="midnightblue" d="M310.6,-21C301.91,-21 293.29,-21 285.05,-21"/>
<polygon fill="midnightblue" stroke="midnightblue" points="310.82,-24.5 320.82,-21 310.82,-17.5 310.82,-24.5"/>
</g>
<!-- Node3 -->
<g id="node3" class="node">
<title>Node3</title>
<g id="a_node3"><a xlink:href="../../dc/dfa/classDocumentProvider.html#a8b72b3391cd4d228b531f63938023a08" target="_top" xlink:title=" ">
<polygon fill="white" stroke="black" points="0,-11.5 0,-30.5 125,-30.5 125,-11.5 0,-11.5"/>
<text text-anchor="middle" x="62.5" y="-18.5" font-family="Helvetica,sans-Serif" font-size="10.00">DocumentProvider::Start</text>
</a>
</g>
</g>
<!-- Node2&#45;&gt;Node3 -->
<g id="edge2" class="edge">
<title>Node2&#45;&gt;Node3</title>
<path fill="none" stroke="midnightblue" d="M150.49,-21C142.03,-21 133.45,-21 125.14,-21"/>
<polygon fill="midnightblue" stroke="midnightblue" points="150.72,-24.5 160.72,-21 150.72,-17.5 150.72,-24.5"/>
</g>
</g>
</svg>
