<?xml version="1.0" encoding="UTF-8" standalone="no"?>
<!DOCTYPE svg PUBLIC "-//W3C//DTD SVG 1.1//EN"
 "http://www.w3.org/Graphics/SVG/1.1/DTD/svg11.dtd">
<!-- Generated by graphviz version 2.43.0 (0)
 -->
<!-- Title: components/omnibox/browser/inline_autocompletion_util.cc Pages: 1 -->
<svg width="655pt" height="273pt"
 viewBox="0.00 0.00 655.00 273.00" xmlns="http://www.w3.org/2000/svg" xmlns:xlink="http://www.w3.org/1999/xlink">
<g id="graph0" class="graph" transform="scale(1 1) rotate(0) translate(4 269)">
<title>components/omnibox/browser/inline_autocompletion_util.cc</title>
<polygon fill="white" stroke="transparent" points="-4,4 -4,-269 651,-269 651,4 -4,4"/>
<!-- Node1 -->
<g id="node1" class="node">
<title>Node1</title>
<g id="a_node1"><a xlink:title=" ">
<polygon fill="#bfbfbf" stroke="black" points="54.5,-223.5 54.5,-264.5 205.5,-264.5 205.5,-223.5 54.5,-223.5"/>
<text text-anchor="start" x="62.5" y="-252.5" font-family="Helvetica,sans-Serif" font-size="10.00">components/omnibox</text>
<text text-anchor="start" x="62.5" y="-241.5" font-family="Helvetica,sans-Serif" font-size="10.00">/browser/inline_autocompletion</text>
<text text-anchor="middle" x="130" y="-230.5" font-family="Helvetica,sans-Serif" font-size="10.00">_util.cc</text>
</a>
</g>
</g>
<!-- Node2 -->
<g id="node2" class="node">
<title>Node2</title>
<g id="a_node2"><a xlink:href="../../d2/d8e/inline__autocompletion__util_8h.html" target="_top" xlink:title=" ">
<polygon fill="white" stroke="black" points="75,-156.5 75,-186.5 185,-186.5 185,-156.5 75,-156.5"/>
<text text-anchor="start" x="83" y="-174.5" font-family="Helvetica,sans-Serif" font-size="10.00">inline_autocompletion</text>
<text text-anchor="middle" x="130" y="-163.5" font-family="Helvetica,sans-Serif" font-size="10.00">_util.h</text>
</a>
</g>
</g>
<!-- Node1&#45;&gt;Node2 -->
<g id="edge1" class="edge">
<title>Node1&#45;&gt;Node2</title>
<path fill="none" stroke="midnightblue" d="M130,-223.36C130,-215.23 130,-205.7 130,-197.11"/>
<polygon fill="midnightblue" stroke="midnightblue" points="133.5,-196.89 130,-186.89 126.5,-196.89 133.5,-196.89"/>
</g>
<!-- Node3 -->
<g id="node3" class="node">
<title>Node3</title>
<g id="a_node3"><a xlink:title=" ">
<polygon fill="white" stroke="#bfbfbf" points="0,-11.5 0,-30.5 52,-30.5 52,-11.5 0,-11.5"/>
<text text-anchor="middle" x="26" y="-18.5" font-family="Helvetica,sans-Serif" font-size="10.00">stddef.h</text>
</a>
</g>
</g>
<!-- Node2&#45;&gt;Node3 -->
<g id="edge2" class="edge">
<title>Node2&#45;&gt;Node3</title>
<path fill="none" stroke="midnightblue" d="M120.03,-156.26C100.85,-128.88 58.9,-68.98 38.14,-39.33"/>
<polygon fill="midnightblue" stroke="midnightblue" points="40.8,-37.03 32.2,-30.85 35.07,-41.05 40.8,-37.03"/>
</g>
<!-- Node4 -->
<g id="node4" class="node">
<title>Node4</title>
<g id="a_node4"><a xlink:title=" ">
<polygon fill="white" stroke="#bfbfbf" points="70.5,-11.5 70.5,-30.5 111.5,-30.5 111.5,-11.5 70.5,-11.5"/>
<text text-anchor="middle" x="91" y="-18.5" font-family="Helvetica,sans-Serif" font-size="10.00">string</text>
</a>
</g>
</g>
<!-- Node2&#45;&gt;Node4 -->
<g id="edge3" class="edge">
<title>Node2&#45;&gt;Node4</title>
<path fill="none" stroke="midnightblue" d="M126.26,-156.26C119.19,-129.35 103.88,-71.04 95.96,-40.9"/>
<polygon fill="midnightblue" stroke="midnightblue" points="99.25,-39.63 93.32,-30.85 92.48,-41.41 99.25,-39.63"/>
</g>
<!-- Node5 -->
<g id="node5" class="node">
<title>Node5</title>
<g id="a_node5"><a xlink:title=" ">
<polygon fill="white" stroke="#bfbfbf" points="130,-11.5 130,-30.5 174,-30.5 174,-11.5 130,-11.5"/>
<text text-anchor="middle" x="152" y="-18.5" font-family="Helvetica,sans-Serif" font-size="10.00">vector</text>
</a>
</g>
</g>
<!-- Node2&#45;&gt;Node5 -->
<g id="edge4" class="edge">
<title>Node2&#45;&gt;Node5</title>
<path fill="none" stroke="midnightblue" d="M132.11,-156.26C136.1,-129.35 144.73,-71.04 149.2,-40.9"/>
<polygon fill="midnightblue" stroke="midnightblue" points="152.69,-41.25 150.69,-30.85 145.76,-40.23 152.69,-41.25"/>
</g>
<!-- Node6 -->
<g id="node6" class="node">
<title>Node6</title>
<g id="a_node6"><a xlink:href="../../d5/d60/in__memory__url__index__types_8h.html" target="_top" xlink:title=" ">
<polygon fill="white" stroke="black" points="158.5,-78.5 158.5,-119.5 279.5,-119.5 279.5,-78.5 158.5,-78.5"/>
<text text-anchor="start" x="166.5" y="-107.5" font-family="Helvetica,sans-Serif" font-size="10.00">components/omnibox</text>
<text text-anchor="start" x="166.5" y="-96.5" font-family="Helvetica,sans-Serif" font-size="10.00">/browser/in_memory_url</text>
<text text-anchor="middle" x="219" y="-85.5" font-family="Helvetica,sans-Serif" font-size="10.00">_index_types.h</text>
</a>
</g>
</g>
<!-- Node2&#45;&gt;Node6 -->
<g id="edge5" class="edge">
<title>Node2&#45;&gt;Node6</title>
<path fill="none" stroke="midnightblue" d="M148.01,-156.23C159.03,-147.5 173.46,-136.07 186.43,-125.8"/>
<polygon fill="midnightblue" stroke="midnightblue" points="188.61,-128.54 194.27,-119.59 184.26,-123.05 188.61,-128.54"/>
</g>
<!-- Node12 -->
<g id="node12" class="node">
<title>Node12</title>
<g id="a_node12"><a xlink:title=" ">
<polygon fill="white" stroke="#bfbfbf" points="297.5,-89.5 297.5,-108.5 400.5,-108.5 400.5,-89.5 297.5,-89.5"/>
<text text-anchor="middle" x="349" y="-96.5" font-family="Helvetica,sans-Serif" font-size="10.00">ui/gfx/range/range.h</text>
</a>
</g>
</g>
<!-- Node2&#45;&gt;Node12 -->
<g id="edge14" class="edge">
<title>Node2&#45;&gt;Node12</title>
<path fill="none" stroke="midnightblue" d="M174.95,-156.41C206.82,-146.38 250.58,-132.5 289,-120 297.09,-117.37 305.78,-114.5 313.97,-111.77"/>
<polygon fill="midnightblue" stroke="midnightblue" points="315.25,-115.03 323.63,-108.55 313.03,-108.39 315.25,-115.03"/>
</g>
<!-- Node6&#45;&gt;Node3 -->
<g id="edge6" class="edge">
<title>Node6&#45;&gt;Node3</title>
<path fill="none" stroke="midnightblue" d="M158.35,-79.33C128.53,-69.44 92.35,-56.37 61,-42 56.92,-40.13 52.69,-37.94 48.64,-35.71"/>
<polygon fill="midnightblue" stroke="midnightblue" points="50.08,-32.51 39.67,-30.56 46.6,-38.58 50.08,-32.51"/>
</g>
<!-- Node6&#45;&gt;Node4 -->
<g id="edge8" class="edge">
<title>Node6&#45;&gt;Node4</title>
<path fill="none" stroke="midnightblue" d="M183.27,-78.36C164.55,-67.88 141.34,-54.57 121,-42 118.07,-40.19 115.02,-38.23 112.02,-36.28"/>
<polygon fill="midnightblue" stroke="midnightblue" points="113.69,-33.19 103.43,-30.56 109.82,-39.01 113.69,-33.19"/>
</g>
<!-- Node6&#45;&gt;Node5 -->
<g id="edge10" class="edge">
<title>Node6&#45;&gt;Node5</title>
<path fill="none" stroke="midnightblue" d="M201.75,-78.43C190.76,-65.97 176.71,-50.03 166.34,-38.27"/>
<polygon fill="midnightblue" stroke="midnightblue" points="168.78,-35.74 159.54,-30.55 163.53,-40.37 168.78,-35.74"/>
</g>
<!-- Node7 -->
<g id="node7" class="node">
<title>Node7</title>
<g id="a_node7"><a xlink:title=" ">
<polygon fill="white" stroke="#bfbfbf" points="264.5,-11.5 264.5,-30.5 299.5,-30.5 299.5,-11.5 264.5,-11.5"/>
<text text-anchor="middle" x="282" y="-18.5" font-family="Helvetica,sans-Serif" font-size="10.00">map</text>
</a>
</g>
</g>
<!-- Node6&#45;&gt;Node7 -->
<g id="edge7" class="edge">
<title>Node6&#45;&gt;Node7</title>
<path fill="none" stroke="midnightblue" d="M235.22,-78.43C245.55,-65.97 258.77,-50.03 268.52,-38.27"/>
<polygon fill="midnightblue" stroke="midnightblue" points="271.22,-40.48 274.91,-30.55 265.83,-36.02 271.22,-40.48"/>
</g>
<!-- Node8 -->
<g id="node8" class="node">
<title>Node8</title>
<g id="a_node8"><a xlink:title=" ">
<polygon fill="white" stroke="#bfbfbf" points="317.5,-11.5 317.5,-30.5 400.5,-30.5 400.5,-11.5 317.5,-11.5"/>
<text text-anchor="middle" x="359" y="-18.5" font-family="Helvetica,sans-Serif" font-size="10.00">unordered_map</text>
</a>
</g>
</g>
<!-- Node6&#45;&gt;Node8 -->
<g id="edge9" class="edge">
<title>Node6&#45;&gt;Node8</title>
<path fill="none" stroke="midnightblue" d="M255.05,-78.43C279.9,-64.94 312.26,-47.37 334.23,-35.44"/>
<polygon fill="midnightblue" stroke="midnightblue" points="336.13,-38.4 343.25,-30.55 332.79,-32.25 336.13,-38.4"/>
</g>
<!-- Node9 -->
<g id="node9" class="node">
<title>Node9</title>
<g id="a_node9"><a xlink:title=" ">
<polygon fill="white" stroke="#bfbfbf" points="419,-6 419,-36 521,-36 521,-6 419,-6"/>
<text text-anchor="start" x="427" y="-24" font-family="Helvetica,sans-Serif" font-size="10.00">base/containers/flat</text>
<text text-anchor="middle" x="470" y="-13" font-family="Helvetica,sans-Serif" font-size="10.00">_set.h</text>
</a>
</g>
</g>
<!-- Node6&#45;&gt;Node9 -->
<g id="edge11" class="edge">
<title>Node6&#45;&gt;Node9</title>
<path fill="none" stroke="midnightblue" d="M279.74,-80.45C325.98,-67.05 385.68,-49.62 410,-42 412.89,-41.09 415.86,-40.15 418.85,-39.19"/>
<polygon fill="midnightblue" stroke="midnightblue" points="420,-42.5 428.43,-36.08 417.83,-35.84 420,-42.5"/>
</g>
<!-- Node10 -->
<g id="node10" class="node">
<title>Node10</title>
<g id="a_node10"><a xlink:title=" ">
<polygon fill="white" stroke="#bfbfbf" points="539,-0.5 539,-41.5 647,-41.5 647,-0.5 539,-0.5"/>
<text text-anchor="start" x="547" y="-29.5" font-family="Helvetica,sans-Serif" font-size="10.00">components/history</text>
<text text-anchor="start" x="547" y="-18.5" font-family="Helvetica,sans-Serif" font-size="10.00">/core/browser/history</text>
<text text-anchor="middle" x="593" y="-7.5" font-family="Helvetica,sans-Serif" font-size="10.00">_types.h</text>
</a>
</g>
</g>
<!-- Node6&#45;&gt;Node10 -->
<g id="edge12" class="edge">
<title>Node6&#45;&gt;Node10</title>
<path fill="none" stroke="midnightblue" d="M279.58,-80.17C282.76,-79.4 285.91,-78.67 289,-78 391.74,-55.75 422.7,-65.82 529.02,-42.04"/>
<polygon fill="midnightblue" stroke="midnightblue" points="529.89,-45.43 538.86,-39.79 528.33,-38.61 529.89,-45.43"/>
</g>
<!-- Node11 -->
<g id="node11" class="node">
<title>Node11</title>
<g id="a_node11"><a xlink:title=" ">
<polygon fill="white" stroke="#bfbfbf" points="192,-11.5 192,-30.5 246,-30.5 246,-11.5 192,-11.5"/>
<text text-anchor="middle" x="219" y="-18.5" font-family="Helvetica,sans-Serif" font-size="10.00">url/gurl.h</text>
</a>
</g>
</g>
<!-- Node6&#45;&gt;Node11 -->
<g id="edge13" class="edge">
<title>Node6&#45;&gt;Node11</title>
<path fill="none" stroke="midnightblue" d="M219,-78.43C219,-66.82 219,-52.18 219,-40.72"/>
<polygon fill="midnightblue" stroke="midnightblue" points="222.5,-40.55 219,-30.55 215.5,-40.55 222.5,-40.55"/>
</g>
</g>
</svg>
