<?xml version="1.0" encoding="UTF-8" standalone="no"?>
<!DOCTYPE svg PUBLIC "-//W3C//DTD SVG 1.1//EN"
 "http://www.w3.org/Graphics/SVG/1.1/DTD/svg11.dtd">
<!-- Generated by graphviz version 2.43.0 (0)
 -->
<!-- Title: RoundedOmniboxResultsFrame::GetNonResultSectionHeight Pages: 1 -->
<svg width="918pt" height="112pt"
 viewBox="0.00 0.00 918.00 112.00" xmlns="http://www.w3.org/2000/svg" xmlns:xlink="http://www.w3.org/1999/xlink">
<g id="graph0" class="graph" transform="scale(1 1) rotate(0) translate(4 108)">
<title>RoundedOmniboxResultsFrame::GetNonResultSectionHeight</title>
<polygon fill="white" stroke="transparent" points="-4,4 -4,-108 914,-108 914,4 -4,4"/>
<!-- Node1 -->
<g id="node1" class="node">
<title>Node1</title>
<g id="a_node1"><a xlink:title=" ">
<polygon fill="#bfbfbf" stroke="black" points="754,-24.5 754,-54.5 910,-54.5 910,-24.5 754,-24.5"/>
<text text-anchor="start" x="762" y="-42.5" font-family="Helvetica,sans-Serif" font-size="10.00">RoundedOmniboxResultsFrame</text>
<text text-anchor="middle" x="832" y="-31.5" font-family="Helvetica,sans-Serif" font-size="10.00">::GetNonResultSectionHeight</text>
</a>
</g>
</g>
<!-- Node2 -->
<g id="node2" class="node">
<title>Node2</title>
<g id="a_node2"><a xlink:href="../../d7/d88/classOmniboxPopupContentsView.html#a4fdc278926dd00f85076b050b8705b45" target="_top" xlink:title=" ">
<polygon fill="white" stroke="black" points="567.5,-49.5 567.5,-79.5 712.5,-79.5 712.5,-49.5 567.5,-49.5"/>
<text text-anchor="start" x="575.5" y="-67.5" font-family="Helvetica,sans-Serif" font-size="10.00">OmniboxPopupContentsView</text>
<text text-anchor="middle" x="640" y="-56.5" font-family="Helvetica,sans-Serif" font-size="10.00">::GetTargetBounds</text>
</a>
</g>
</g>
<!-- Node1&#45;&gt;Node2 -->
<g id="edge1" class="edge">
<title>Node1&#45;&gt;Node2</title>
<path fill="none" stroke="midnightblue" d="M743.98,-50.95C733.47,-52.33 722.84,-53.73 712.59,-55.08"/>
<polygon fill="midnightblue" stroke="midnightblue" points="744.54,-54.41 753.99,-49.63 743.62,-47.47 744.54,-54.41"/>
</g>
<!-- Node8 -->
<g id="node8" class="node">
<title>Node8</title>
<g id="a_node8"><a xlink:href="../../d5/d4e/classRoundedOmniboxResultsFrame.html#adc40464d664fad33a79fad74c1e3bef1" target="_top" xlink:title=" ">
<polygon fill="white" stroke="black" points="562,-0.5 562,-30.5 718,-30.5 718,-0.5 562,-0.5"/>
<text text-anchor="start" x="570" y="-18.5" font-family="Helvetica,sans-Serif" font-size="10.00">RoundedOmniboxResultsFrame</text>
<text text-anchor="middle" x="640" y="-7.5" font-family="Helvetica,sans-Serif" font-size="10.00">::Layout</text>
</a>
</g>
</g>
<!-- Node1&#45;&gt;Node8 -->
<g id="edge7" class="edge">
<title>Node1&#45;&gt;Node8</title>
<path fill="none" stroke="midnightblue" d="M743.94,-28.5C735.32,-27.41 726.62,-26.32 718.12,-25.24"/>
<polygon fill="midnightblue" stroke="midnightblue" points="743.63,-31.99 753.99,-29.77 744.51,-25.05 743.63,-31.99"/>
</g>
<!-- Node3 -->
<g id="node3" class="node">
<title>Node3</title>
<g id="a_node3"><a xlink:href="../../d7/d88/classOmniboxPopupContentsView.html#ae06ab100e4339eee69cbb3cdfc2143b8" target="_top" xlink:title=" ">
<polygon fill="white" stroke="black" points="347,-73.5 347,-103.5 526,-103.5 526,-73.5 347,-73.5"/>
<text text-anchor="start" x="355" y="-91.5" font-family="Helvetica,sans-Serif" font-size="10.00">OmniboxPopupContentsView</text>
<text text-anchor="middle" x="436.5" y="-80.5" font-family="Helvetica,sans-Serif" font-size="10.00">::OnSuggestionGroupVisibilityUpdate</text>
</a>
</g>
</g>
<!-- Node2&#45;&gt;Node3 -->
<g id="edge2" class="edge">
<title>Node2&#45;&gt;Node3</title>
<path fill="none" stroke="midnightblue" d="M557.26,-74.24C547.02,-75.46 536.5,-76.71 526.16,-77.94"/>
<polygon fill="midnightblue" stroke="midnightblue" points="557.88,-77.69 567.39,-73.03 557.05,-70.74 557.88,-77.69"/>
</g>
<!-- Node6 -->
<g id="node6" class="node">
<title>Node6</title>
<g id="a_node6"><a xlink:href="../../d7/d88/classOmniboxPopupContentsView.html#aa8f47263f229af6a469c3bf964b81162" target="_top" xlink:title=" ">
<polygon fill="white" stroke="black" points="364,-24.5 364,-54.5 509,-54.5 509,-24.5 364,-24.5"/>
<text text-anchor="start" x="372" y="-42.5" font-family="Helvetica,sans-Serif" font-size="10.00">OmniboxPopupContentsView</text>
<text text-anchor="middle" x="436.5" y="-31.5" font-family="Helvetica,sans-Serif" font-size="10.00">::UpdatePopupAppearance</text>
</a>
</g>
</g>
<!-- Node2&#45;&gt;Node6 -->
<g id="edge5" class="edge">
<title>Node2&#45;&gt;Node6</title>
<path fill="none" stroke="midnightblue" d="M557.08,-54.34C541.22,-52.37 524.72,-50.32 509.22,-48.4"/>
<polygon fill="midnightblue" stroke="midnightblue" points="557.04,-57.86 567.39,-55.62 557.9,-50.91 557.04,-57.86"/>
</g>
<!-- Node4 -->
<g id="node4" class="node">
<title>Node4</title>
<g id="a_node4"><a xlink:href="../../d7/d88/classOmniboxPopupContentsView.html#a17611705df7462ffaa1e991a0c4beb12" target="_top" xlink:title=" ">
<polygon fill="white" stroke="black" points="160,-73.5 160,-103.5 311,-103.5 311,-73.5 160,-73.5"/>
<text text-anchor="start" x="168" y="-91.5" font-family="Helvetica,sans-Serif" font-size="10.00">OmniboxPopupContentsView</text>
<text text-anchor="middle" x="235.5" y="-80.5" font-family="Helvetica,sans-Serif" font-size="10.00">::OmniboxPopupContentsView</text>
</a>
</g>
</g>
<!-- Node3&#45;&gt;Node4 -->
<g id="edge3" class="edge">
<title>Node3&#45;&gt;Node4</title>
<path fill="none" stroke="midnightblue" d="M336.68,-88.5C328.06,-88.5 319.45,-88.5 311.08,-88.5"/>
<polygon fill="midnightblue" stroke="midnightblue" points="336.77,-92 346.77,-88.5 336.77,-85 336.77,-92"/>
</g>
<!-- Node5 -->
<g id="node5" class="node">
<title>Node5</title>
<g id="a_node5"><a xlink:href="../../d0/d94/classOmniboxViewViews.html#a71236cd3ff9becd5e81d13537eb8eaa0" target="_top" xlink:title=" ">
<polygon fill="white" stroke="black" points="0,-79 0,-98 124,-98 124,-79 0,-79"/>
<text text-anchor="middle" x="62" y="-86" font-family="Helvetica,sans-Serif" font-size="10.00">OmniboxViewViews::Init</text>
</a>
</g>
</g>
<!-- Node4&#45;&gt;Node5 -->
<g id="edge4" class="edge">
<title>Node4&#45;&gt;Node5</title>
<path fill="none" stroke="midnightblue" d="M149.68,-88.5C141.05,-88.5 132.41,-88.5 124.11,-88.5"/>
<polygon fill="midnightblue" stroke="midnightblue" points="149.78,-92 159.78,-88.5 149.78,-85 149.78,-92"/>
</g>
<!-- Node7 -->
<g id="node7" class="node">
<title>Node7</title>
<g id="a_node7"><a xlink:href="../../d7/d88/classOmniboxPopupContentsView.html#a0e658101bc19acb66f6e0915fd6c2fe3" target="_top" xlink:title=" ">
<polygon fill="white" stroke="black" points="163,-24.5 163,-54.5 308,-54.5 308,-24.5 163,-24.5"/>
<text text-anchor="start" x="171" y="-42.5" font-family="Helvetica,sans-Serif" font-size="10.00">OmniboxPopupContentsView</text>
<text text-anchor="middle" x="235.5" y="-31.5" font-family="Helvetica,sans-Serif" font-size="10.00">::OnWidgetBoundsChanged</text>
</a>
</g>
</g>
<!-- Node6&#45;&gt;Node7 -->
<g id="edge6" class="edge">
<title>Node6&#45;&gt;Node7</title>
<path fill="none" stroke="midnightblue" d="M353.6,-39.5C338.5,-39.5 322.85,-39.5 308.1,-39.5"/>
<polygon fill="midnightblue" stroke="midnightblue" points="353.94,-43 363.94,-39.5 353.94,-36 353.94,-43"/>
</g>
</g>
</svg>
