<?xml version="1.0" encoding="UTF-8" standalone="no"?>
<!DOCTYPE svg PUBLIC "-//W3C//DTD SVG 1.1//EN"
 "http://www.w3.org/Graphics/SVG/1.1/DTD/svg11.dtd">
<!-- Generated by graphviz version 2.43.0 (0)
 -->
<!-- Title: RoundedOmniboxResultsFrame::GetLocationBarAlignmentInsets Pages: 1 -->
<svg width="1115pt" height="123pt"
 viewBox="0.00 0.00 1115.00 123.00" xmlns="http://www.w3.org/2000/svg" xmlns:xlink="http://www.w3.org/1999/xlink">
<g id="graph0" class="graph" transform="scale(1 1) rotate(0) translate(4 119)">
<title>RoundedOmniboxResultsFrame::GetLocationBarAlignmentInsets</title>
<polygon fill="white" stroke="transparent" points="-4,4 -4,-119 1111,-119 1111,4 -4,4"/>
<!-- Node1 -->
<g id="node1" class="node">
<title>Node1</title>
<g id="a_node1"><a xlink:title=" ">
<polygon fill="#bfbfbf" stroke="black" points="946,-25.5 946,-55.5 1107,-55.5 1107,-25.5 946,-25.5"/>
<text text-anchor="start" x="954" y="-43.5" font-family="Helvetica,sans-Serif" font-size="10.00">RoundedOmniboxResultsFrame</text>
<text text-anchor="middle" x="1026.5" y="-32.5" font-family="Helvetica,sans-Serif" font-size="10.00">::GetLocationBarAlignmentInsets</text>
</a>
</g>
</g>
<!-- Node2 -->
<g id="node2" class="node">
<title>Node2</title>
<g id="a_node2"><a xlink:href="../../d5/d4e/classRoundedOmniboxResultsFrame.html#a43cdc442bc33962744e0c39bd233c5f1" target="_top" xlink:title=" ">
<polygon fill="white" stroke="black" points="754,-25.5 754,-55.5 910,-55.5 910,-25.5 754,-25.5"/>
<text text-anchor="start" x="762" y="-43.5" font-family="Helvetica,sans-Serif" font-size="10.00">RoundedOmniboxResultsFrame</text>
<text text-anchor="middle" x="832" y="-32.5" font-family="Helvetica,sans-Serif" font-size="10.00">::GetNonResultSectionHeight</text>
</a>
</g>
</g>
<!-- Node1&#45;&gt;Node2 -->
<g id="edge1" class="edge">
<title>Node1&#45;&gt;Node2</title>
<path fill="none" stroke="midnightblue" d="M935.8,-40.5C927.23,-40.5 918.59,-40.5 910.15,-40.5"/>
<polygon fill="midnightblue" stroke="midnightblue" points="935.81,-44 945.81,-40.5 935.81,-37 935.81,-44"/>
</g>
<!-- Node3 -->
<g id="node3" class="node">
<title>Node3</title>
<g id="a_node3"><a xlink:href="../../d7/d88/classOmniboxPopupContentsView.html#a4fdc278926dd00f85076b050b8705b45" target="_top" xlink:title=" ">
<polygon fill="white" stroke="black" points="567.5,-59.5 567.5,-89.5 712.5,-89.5 712.5,-59.5 567.5,-59.5"/>
<text text-anchor="start" x="575.5" y="-77.5" font-family="Helvetica,sans-Serif" font-size="10.00">OmniboxPopupContentsView</text>
<text text-anchor="middle" x="640" y="-66.5" font-family="Helvetica,sans-Serif" font-size="10.00">::GetTargetBounds</text>
</a>
</g>
</g>
<!-- Node1&#45;&gt;Node3 -->
<g id="edge9" class="edge">
<title>Node1&#45;&gt;Node3</title>
<path fill="none" stroke="midnightblue" d="M956.11,-57.63C941,-60.77 925.03,-63.64 910,-65.5 843.46,-73.75 766.99,-75.58 712.64,-75.59"/>
<polygon fill="midnightblue" stroke="midnightblue" points="956.86,-61.05 965.9,-55.54 955.39,-54.21 956.86,-61.05"/>
</g>
<!-- Node9 -->
<g id="node9" class="node">
<title>Node9</title>
<g id="a_node9"><a xlink:href="../../d5/d4e/classRoundedOmniboxResultsFrame.html#adc40464d664fad33a79fad74c1e3bef1" target="_top" xlink:title=" ">
<polygon fill="white" stroke="black" points="562,-0.5 562,-30.5 718,-30.5 718,-0.5 562,-0.5"/>
<text text-anchor="start" x="570" y="-18.5" font-family="Helvetica,sans-Serif" font-size="10.00">RoundedOmniboxResultsFrame</text>
<text text-anchor="middle" x="640" y="-7.5" font-family="Helvetica,sans-Serif" font-size="10.00">::Layout</text>
</a>
</g>
</g>
<!-- Node1&#45;&gt;Node9 -->
<g id="edge10" class="edge">
<title>Node1&#45;&gt;Node9</title>
<path fill="none" stroke="midnightblue" d="M957.67,-23.3C942.11,-20.06 925.56,-17.17 910,-15.5 845.57,-8.61 771.96,-9.19 718.05,-11.16"/>
<polygon fill="midnightblue" stroke="midnightblue" points="957.21,-26.78 967.73,-25.47 958.69,-19.94 957.21,-26.78"/>
</g>
<!-- Node2&#45;&gt;Node3 -->
<g id="edge2" class="edge">
<title>Node2&#45;&gt;Node3</title>
<path fill="none" stroke="midnightblue" d="M743.98,-56.07C733.47,-57.95 722.84,-59.86 712.59,-61.69"/>
<polygon fill="midnightblue" stroke="midnightblue" points="744.77,-59.49 753.99,-54.28 743.53,-52.6 744.77,-59.49"/>
</g>
<!-- Node2&#45;&gt;Node9 -->
<g id="edge8" class="edge">
<title>Node2&#45;&gt;Node9</title>
<path fill="none" stroke="midnightblue" d="M743.94,-29.04C735.32,-27.91 726.62,-26.77 718.12,-25.65"/>
<polygon fill="midnightblue" stroke="midnightblue" points="743.62,-32.53 753.99,-30.37 744.54,-25.59 743.62,-32.53"/>
</g>
<!-- Node4 -->
<g id="node4" class="node">
<title>Node4</title>
<g id="a_node4"><a xlink:href="../../d7/d88/classOmniboxPopupContentsView.html#ae06ab100e4339eee69cbb3cdfc2143b8" target="_top" xlink:title=" ">
<polygon fill="white" stroke="black" points="347,-84.5 347,-114.5 526,-114.5 526,-84.5 347,-84.5"/>
<text text-anchor="start" x="355" y="-102.5" font-family="Helvetica,sans-Serif" font-size="10.00">OmniboxPopupContentsView</text>
<text text-anchor="middle" x="436.5" y="-91.5" font-family="Helvetica,sans-Serif" font-size="10.00">::OnSuggestionGroupVisibilityUpdate</text>
</a>
</g>
</g>
<!-- Node3&#45;&gt;Node4 -->
<g id="edge3" class="edge">
<title>Node3&#45;&gt;Node4</title>
<path fill="none" stroke="midnightblue" d="M557.26,-84.64C547.02,-85.91 536.5,-87.22 526.16,-88.5"/>
<polygon fill="midnightblue" stroke="midnightblue" points="557.9,-88.09 567.39,-83.38 557.04,-81.14 557.9,-88.09"/>
</g>
<!-- Node7 -->
<g id="node7" class="node">
<title>Node7</title>
<g id="a_node7"><a xlink:href="../../d7/d88/classOmniboxPopupContentsView.html#aa8f47263f229af6a469c3bf964b81162" target="_top" xlink:title=" ">
<polygon fill="white" stroke="black" points="364,-35.5 364,-65.5 509,-65.5 509,-35.5 364,-35.5"/>
<text text-anchor="start" x="372" y="-53.5" font-family="Helvetica,sans-Serif" font-size="10.00">OmniboxPopupContentsView</text>
<text text-anchor="middle" x="436.5" y="-42.5" font-family="Helvetica,sans-Serif" font-size="10.00">::UpdatePopupAppearance</text>
</a>
</g>
</g>
<!-- Node3&#45;&gt;Node7 -->
<g id="edge6" class="edge">
<title>Node3&#45;&gt;Node7</title>
<path fill="none" stroke="midnightblue" d="M557.08,-64.74C541.22,-62.85 524.72,-60.89 509.22,-59.04"/>
<polygon fill="midnightblue" stroke="midnightblue" points="557.05,-68.26 567.39,-65.97 557.88,-61.31 557.05,-68.26"/>
</g>
<!-- Node5 -->
<g id="node5" class="node">
<title>Node5</title>
<g id="a_node5"><a xlink:href="../../d7/d88/classOmniboxPopupContentsView.html#a17611705df7462ffaa1e991a0c4beb12" target="_top" xlink:title=" ">
<polygon fill="white" stroke="black" points="160,-84.5 160,-114.5 311,-114.5 311,-84.5 160,-84.5"/>
<text text-anchor="start" x="168" y="-102.5" font-family="Helvetica,sans-Serif" font-size="10.00">OmniboxPopupContentsView</text>
<text text-anchor="middle" x="235.5" y="-91.5" font-family="Helvetica,sans-Serif" font-size="10.00">::OmniboxPopupContentsView</text>
</a>
</g>
</g>
<!-- Node4&#45;&gt;Node5 -->
<g id="edge4" class="edge">
<title>Node4&#45;&gt;Node5</title>
<path fill="none" stroke="midnightblue" d="M336.68,-99.5C328.06,-99.5 319.45,-99.5 311.08,-99.5"/>
<polygon fill="midnightblue" stroke="midnightblue" points="336.77,-103 346.77,-99.5 336.77,-96 336.77,-103"/>
</g>
<!-- Node6 -->
<g id="node6" class="node">
<title>Node6</title>
<g id="a_node6"><a xlink:href="../../d0/d94/classOmniboxViewViews.html#a71236cd3ff9becd5e81d13537eb8eaa0" target="_top" xlink:title=" ">
<polygon fill="white" stroke="black" points="0,-90 0,-109 124,-109 124,-90 0,-90"/>
<text text-anchor="middle" x="62" y="-97" font-family="Helvetica,sans-Serif" font-size="10.00">OmniboxViewViews::Init</text>
</a>
</g>
</g>
<!-- Node5&#45;&gt;Node6 -->
<g id="edge5" class="edge">
<title>Node5&#45;&gt;Node6</title>
<path fill="none" stroke="midnightblue" d="M149.68,-99.5C141.05,-99.5 132.41,-99.5 124.11,-99.5"/>
<polygon fill="midnightblue" stroke="midnightblue" points="149.78,-103 159.78,-99.5 149.78,-96 149.78,-103"/>
</g>
<!-- Node8 -->
<g id="node8" class="node">
<title>Node8</title>
<g id="a_node8"><a xlink:href="../../d7/d88/classOmniboxPopupContentsView.html#a0e658101bc19acb66f6e0915fd6c2fe3" target="_top" xlink:title=" ">
<polygon fill="white" stroke="black" points="163,-35.5 163,-65.5 308,-65.5 308,-35.5 163,-35.5"/>
<text text-anchor="start" x="171" y="-53.5" font-family="Helvetica,sans-Serif" font-size="10.00">OmniboxPopupContentsView</text>
<text text-anchor="middle" x="235.5" y="-42.5" font-family="Helvetica,sans-Serif" font-size="10.00">::OnWidgetBoundsChanged</text>
</a>
</g>
</g>
<!-- Node7&#45;&gt;Node8 -->
<g id="edge7" class="edge">
<title>Node7&#45;&gt;Node8</title>
<path fill="none" stroke="midnightblue" d="M353.6,-50.5C338.5,-50.5 322.85,-50.5 308.1,-50.5"/>
<polygon fill="midnightblue" stroke="midnightblue" points="353.94,-54 363.94,-50.5 353.94,-47 353.94,-54"/>
</g>
</g>
</svg>
