<?xml version="1.0" encoding="UTF-8" standalone="no"?>
<!DOCTYPE svg PUBLIC "-//W3C//DTD SVG 1.1//EN"
 "http://www.w3.org/Graphics/SVG/1.1/DTD/svg11.dtd">
<!-- Generated by graphviz version 2.43.0 (0)
 -->
<!-- Title: SearchProvider::GetVerbatimRelevance Pages: 1 -->
<svg width="712pt" height="121pt"
 viewBox="0.00 0.00 712.00 120.50" xmlns="http://www.w3.org/2000/svg" xmlns:xlink="http://www.w3.org/1999/xlink">
<g id="graph0" class="graph" transform="scale(1 1) rotate(0) translate(4 116.5)">
<title>SearchProvider::GetVerbatimRelevance</title>
<polygon fill="white" stroke="transparent" points="-4,4 -4,-116.5 708,-116.5 708,4 -4,4"/>
<!-- Node1 -->
<g id="node1" class="node">
<title>Node1</title>
<g id="a_node1"><a xlink:title=" ">
<polygon fill="#bfbfbf" stroke="black" points="0,-24.5 0,-54.5 144,-54.5 144,-24.5 0,-24.5"/>
<text text-anchor="start" x="8" y="-42.5" font-family="Helvetica,sans-Serif" font-size="10.00">SearchProvider::GetVerbatim</text>
<text text-anchor="middle" x="72" y="-31.5" font-family="Helvetica,sans-Serif" font-size="10.00">Relevance</text>
</a>
</g>
</g>
<!-- Node2 -->
<g id="node2" class="node">
<title>Node2</title>
<g id="a_node2"><a xlink:href="../../d4/dee/classSearchProvider.html#ae8cdcda63a3af46b9366dc1c0189ed39" target="_top" xlink:title=" ">
<polygon fill="white" stroke="black" points="184.5,-49.5 184.5,-79.5 315.5,-79.5 315.5,-49.5 184.5,-49.5"/>
<text text-anchor="start" x="192.5" y="-67.5" font-family="Helvetica,sans-Serif" font-size="10.00">SearchProvider::Calculate</text>
<text text-anchor="middle" x="250" y="-56.5" font-family="Helvetica,sans-Serif" font-size="10.00">RelevanceForVerbatim</text>
</a>
</g>
</g>
<!-- Node1&#45;&gt;Node2 -->
<g id="edge1" class="edge">
<title>Node1&#45;&gt;Node2</title>
<path fill="none" stroke="midnightblue" d="M144.08,-49.6C154.1,-51.02 164.42,-52.49 174.5,-53.92"/>
<polygon fill="midnightblue" stroke="midnightblue" points="174.08,-57.39 184.48,-55.33 175.07,-50.46 174.08,-57.39"/>
</g>
<!-- Node6 -->
<g id="node6" class="node">
<title>Node6</title>
<g id="a_node6"><a xlink:href="../../d9/df6/classAutocompleteInput.html#ac81e31d82e4da3a4b8ea3c37bb575dcc" target="_top" xlink:title=" ">
<polygon fill="white" stroke="black" points="180,-0.5 180,-30.5 320,-30.5 320,-0.5 180,-0.5"/>
<text text-anchor="start" x="188" y="-18.5" font-family="Helvetica,sans-Serif" font-size="10.00">AutocompleteInput::</text>
<text text-anchor="middle" x="250" y="-7.5" font-family="Helvetica,sans-Serif" font-size="10.00">prevent_inline_autocomplete</text>
</a>
</g>
</g>
<!-- Node1&#45;&gt;Node6 -->
<g id="edge5" class="edge">
<title>Node1&#45;&gt;Node6</title>
<path fill="none" stroke="midnightblue" d="M144.08,-29.81C152.58,-28.65 161.3,-27.46 169.91,-26.28"/>
<polygon fill="midnightblue" stroke="midnightblue" points="170.51,-29.74 179.94,-24.92 169.56,-22.8 170.51,-29.74"/>
</g>
<!-- Node3 -->
<g id="node3" class="node">
<title>Node3</title>
<g id="a_node3"><a xlink:href="../../d4/dee/classSearchProvider.html#afaf7fba69a6ef8f5178aeb072ab77c71" target="_top" xlink:title=" ">
<polygon fill="white" stroke="black" points="356,-71 356,-112 545,-112 545,-71 356,-71"/>
<text text-anchor="start" x="364" y="-100" font-family="Helvetica,sans-Serif" font-size="10.00">SearchProvider::Calculate</text>
<text text-anchor="start" x="364" y="-89" font-family="Helvetica,sans-Serif" font-size="10.00">RelevanceForVerbatimIgnoringKeyword</text>
<text text-anchor="middle" x="450.5" y="-78" font-family="Helvetica,sans-Serif" font-size="10.00">ModeState</text>
</a>
</g>
</g>
<!-- Node2&#45;&gt;Node3 -->
<g id="edge2" class="edge">
<title>Node2&#45;&gt;Node3</title>
<path fill="none" stroke="midnightblue" d="M315.72,-73.3C325.31,-74.61 335.39,-75.98 345.53,-77.36"/>
<polygon fill="midnightblue" stroke="midnightblue" points="345.31,-80.86 355.69,-78.74 346.25,-73.92 345.31,-80.86"/>
</g>
<!-- Node5 -->
<g id="node5" class="node">
<title>Node5</title>
<g id="a_node5"><a xlink:href="../../d1/de5/classSearchProvider_1_1Providers.html#a370181d55b7071f6cfef36b665746f5e" target="_top" xlink:title=" ">
<polygon fill="white" stroke="black" points="385,-21.5 385,-51.5 516,-51.5 516,-21.5 385,-21.5"/>
<text text-anchor="start" x="393" y="-39.5" font-family="Helvetica,sans-Serif" font-size="10.00">SearchProvider::Providers</text>
<text text-anchor="middle" x="450.5" y="-28.5" font-family="Helvetica,sans-Serif" font-size="10.00">::keyword_provider</text>
</a>
</g>
</g>
<!-- Node2&#45;&gt;Node5 -->
<g id="edge4" class="edge">
<title>Node2&#45;&gt;Node5</title>
<path fill="none" stroke="midnightblue" d="M315.72,-55.37C334.6,-52.71 355.39,-49.77 374.84,-47.03"/>
<polygon fill="midnightblue" stroke="midnightblue" points="375.45,-50.48 384.87,-45.62 374.48,-43.55 375.45,-50.48"/>
</g>
<!-- Node4 -->
<g id="node4" class="node">
<title>Node4</title>
<g id="a_node4"><a xlink:href="../../d9/df6/classAutocompleteInput.html#a5d6111d5ac18400cdf809820dfab9ab0" target="_top" xlink:title=" ">
<polygon fill="white" stroke="black" points="581,-82 581,-101 704,-101 704,-82 581,-82"/>
<text text-anchor="middle" x="642.5" y="-89" font-family="Helvetica,sans-Serif" font-size="10.00">AutocompleteInput::type</text>
</a>
</g>
</g>
<!-- Node3&#45;&gt;Node4 -->
<g id="edge3" class="edge">
<title>Node3&#45;&gt;Node4</title>
<path fill="none" stroke="midnightblue" d="M545.11,-91.5C553.77,-91.5 562.44,-91.5 570.84,-91.5"/>
<polygon fill="midnightblue" stroke="midnightblue" points="570.93,-95 580.93,-91.5 570.93,-88 570.93,-95"/>
</g>
</g>
</svg>
