<?xml version="1.0" encoding="UTF-8" standalone="no"?>
<!DOCTYPE svg PUBLIC "-//W3C//DTD SVG 1.1//EN"
 "http://www.w3.org/Graphics/SVG/1.1/DTD/svg11.dtd">
<!-- Generated by graphviz version 2.43.0 (0)
 -->
<!-- Title: SearchProvider::IsTopMatchSearchWithURLInput Pages: 1 -->
<svg width="699pt" height="188pt"
 viewBox="0.00 0.00 699.00 187.50" xmlns="http://www.w3.org/2000/svg" xmlns:xlink="http://www.w3.org/1999/xlink">
<g id="graph0" class="graph" transform="scale(1 1) rotate(0) translate(4 183.5)">
<title>SearchProvider::IsTopMatchSearchWithURLInput</title>
<polygon fill="white" stroke="transparent" points="-4,4 -4,-183.5 695,-183.5 695,4 -4,4"/>
<!-- Node1 -->
<g id="node1" class="node">
<title>Node1</title>
<g id="a_node1"><a xlink:title=" ">
<polygon fill="#bfbfbf" stroke="black" points="0,-44.5 0,-74.5 140,-74.5 140,-44.5 0,-44.5"/>
<text text-anchor="start" x="8" y="-62.5" font-family="Helvetica,sans-Serif" font-size="10.00">SearchProvider::IsTopMatch</text>
<text text-anchor="middle" x="70" y="-51.5" font-family="Helvetica,sans-Serif" font-size="10.00">SearchWithURLInput</text>
</a>
</g>
</g>
<!-- Node2 -->
<g id="node2" class="node">
<title>Node2</title>
<g id="a_node2"><a xlink:href="../../d4/dee/classSearchProvider.html#ae8cdcda63a3af46b9366dc1c0189ed39" target="_top" xlink:title=" ">
<polygon fill="white" stroke="black" points="176,-88.5 176,-118.5 307,-118.5 307,-88.5 176,-88.5"/>
<text text-anchor="start" x="184" y="-106.5" font-family="Helvetica,sans-Serif" font-size="10.00">SearchProvider::Calculate</text>
<text text-anchor="middle" x="241.5" y="-95.5" font-family="Helvetica,sans-Serif" font-size="10.00">RelevanceForVerbatim</text>
</a>
</g>
</g>
<!-- Node1&#45;&gt;Node2 -->
<g id="edge1" class="edge">
<title>Node1&#45;&gt;Node2</title>
<path fill="none" stroke="midnightblue" d="M128.86,-74.52C142.96,-78.18 158.17,-82.13 172.69,-85.9"/>
<polygon fill="midnightblue" stroke="midnightblue" points="172.06,-89.35 182.61,-88.47 173.82,-82.57 172.06,-89.35"/>
</g>
<!-- Node4 -->
<g id="node4" class="node">
<title>Node4</title>
<g id="a_node4"><a xlink:href="../../d9/df6/classAutocompleteInput.html#a5d6111d5ac18400cdf809820dfab9ab0" target="_top" xlink:title=" ">
<polygon fill="white" stroke="black" points="568,-99 568,-118 691,-118 691,-99 568,-99"/>
<text text-anchor="middle" x="629.5" y="-106" font-family="Helvetica,sans-Serif" font-size="10.00">AutocompleteInput::type</text>
</a>
</g>
</g>
<!-- Node1&#45;&gt;Node4 -->
<g id="edge6" class="edge">
<title>Node1&#45;&gt;Node4</title>
<path fill="none" stroke="midnightblue" d="M140.32,-56.79C231.05,-54.5 394.66,-54.74 532,-78.5 553.15,-82.16 576.12,-89.17 594.35,-95.5"/>
<polygon fill="midnightblue" stroke="midnightblue" points="593.35,-98.86 603.94,-98.92 595.7,-92.26 593.35,-98.86"/>
</g>
<!-- Node6 -->
<g id="node6" class="node">
<title>Node6</title>
<g id="a_node6"><a xlink:href="../../d3/d03/classAutocompleteResult.html#afd8f5fe15a4eca7f1d450eed07670a33" target="_top" xlink:title=" ">
<polygon fill="white" stroke="black" points="189,-0.5 189,-30.5 294,-30.5 294,-0.5 189,-0.5"/>
<text text-anchor="start" x="197" y="-18.5" font-family="Helvetica,sans-Serif" font-size="10.00">AutocompleteResult</text>
<text text-anchor="middle" x="241.5" y="-7.5" font-family="Helvetica,sans-Serif" font-size="10.00">::FindTopMatch</text>
</a>
</g>
</g>
<!-- Node1&#45;&gt;Node6 -->
<g id="edge5" class="edge">
<title>Node1&#45;&gt;Node6</title>
<path fill="none" stroke="midnightblue" d="M128.86,-44.48C144.98,-40.3 162.55,-35.73 178.88,-31.5"/>
<polygon fill="midnightblue" stroke="midnightblue" points="180.07,-34.8 188.86,-28.9 178.31,-28.03 180.07,-34.8"/>
</g>
<!-- Node3 -->
<g id="node3" class="node">
<title>Node3</title>
<g id="a_node3"><a xlink:href="../../d4/dee/classSearchProvider.html#afaf7fba69a6ef8f5178aeb072ab77c71" target="_top" xlink:title=" ">
<polygon fill="white" stroke="black" points="343,-138 343,-179 532,-179 532,-138 343,-138"/>
<text text-anchor="start" x="351" y="-167" font-family="Helvetica,sans-Serif" font-size="10.00">SearchProvider::Calculate</text>
<text text-anchor="start" x="351" y="-156" font-family="Helvetica,sans-Serif" font-size="10.00">RelevanceForVerbatimIgnoringKeyword</text>
<text text-anchor="middle" x="437.5" y="-145" font-family="Helvetica,sans-Serif" font-size="10.00">ModeState</text>
</a>
</g>
</g>
<!-- Node2&#45;&gt;Node3 -->
<g id="edge2" class="edge">
<title>Node2&#45;&gt;Node3</title>
<path fill="none" stroke="midnightblue" d="M295.51,-118.53C313.64,-123.67 334.36,-129.54 354.24,-135.18"/>
<polygon fill="midnightblue" stroke="midnightblue" points="353.34,-138.56 363.92,-137.92 355.25,-131.83 353.34,-138.56"/>
</g>
<!-- Node5 -->
<g id="node5" class="node">
<title>Node5</title>
<g id="a_node5"><a xlink:href="../../d1/de5/classSearchProvider_1_1Providers.html#a370181d55b7071f6cfef36b665746f5e" target="_top" xlink:title=" ">
<polygon fill="white" stroke="black" points="372,-88.5 372,-118.5 503,-118.5 503,-88.5 372,-88.5"/>
<text text-anchor="start" x="380" y="-106.5" font-family="Helvetica,sans-Serif" font-size="10.00">SearchProvider::Providers</text>
<text text-anchor="middle" x="437.5" y="-95.5" font-family="Helvetica,sans-Serif" font-size="10.00">::keyword_provider</text>
</a>
</g>
</g>
<!-- Node2&#45;&gt;Node5 -->
<g id="edge4" class="edge">
<title>Node2&#45;&gt;Node5</title>
<path fill="none" stroke="midnightblue" d="M307.1,-103.5C324.6,-103.5 343.68,-103.5 361.69,-103.5"/>
<polygon fill="midnightblue" stroke="midnightblue" points="361.85,-107 371.85,-103.5 361.85,-100 361.85,-107"/>
</g>
<!-- Node3&#45;&gt;Node4 -->
<g id="edge3" class="edge">
<title>Node3&#45;&gt;Node4</title>
<path fill="none" stroke="midnightblue" d="M516.6,-137.95C539.02,-132.05 562.73,-125.81 582.53,-120.6"/>
<polygon fill="midnightblue" stroke="midnightblue" points="583.42,-123.98 592.2,-118.05 581.64,-117.21 583.42,-123.98"/>
</g>
</g>
</svg>
