<?xml version="1.0" encoding="UTF-8" standalone="no"?>
<!DOCTYPE svg PUBLIC "-//W3C//DTD SVG 1.1//EN"
 "http://www.w3.org/Graphics/SVG/1.1/DTD/svg11.dtd">
<!-- Generated by graphviz version 2.43.0 (0)
 -->
<!-- Title: SearchProvider::AddTransformedHistoryResultsToMap Pages: 1 -->
<!--zoomable 170 -->
<svg id="main" version="1.1" xmlns="http://www.w3.org/2000/svg" xmlns:xlink="http://www.w3.org/1999/xlink" xml:space="preserve" onload="init(evt)">
<style type="text/css"><![CDATA[
.edge:hover path { stroke: red; }
.edge:hover polygon { stroke: red; fill: red; }
]]></style>
<script type="text/javascript"><![CDATA[
var edges = document.getElementsByTagName('g');
if (edges && edges.length) {
  for (var i=0;i<edges.length;i++) {
    if (edges[i].id.substr(0,4)=='edge') {
      edges[i].setAttribute('class','edge');
    }
  }
}
]]></script>
        <defs>
                <circle id="rim" cx="0" cy="0" r="7"/>
                <circle id="rim2" cx="0" cy="0" r="3.5"/>
                <g id="zoomPlus">
                        <use xlink:href="#rim" fill="#404040">
                                <set attributeName="fill" to="#808080" begin="zoomplus.mouseover" end="zoomplus.mouseout"/>
                        </use>
                        <path d="M-4,0h8M0,-4v8" fill="none" stroke="white" stroke-width="1.5" pointer-events="none"/>
                </g>
                <g id="zoomMin">
                        <use xlink:href="#rim" fill="#404040">
                                <set attributeName="fill" to="#808080" begin="zoomminus.mouseover" end="zoomminus.mouseout"/>
                        </use>
                        <path d="M-4,0h8" fill="none" stroke="white" stroke-width="1.5" pointer-events="none"/>
                </g>
                <g id="dirArrow">
                        <path fill="none" stroke="white" stroke-width="1.5" d="M0,-3.0v7 M-2.5,-0.5L0,-3.0L2.5,-0.5"/>
                </g>
               <g id="resetDef">
                       <use xlink:href="#rim2" fill="#404040">
                               <set attributeName="fill" to="#808080" begin="reset.mouseover" end="reset.mouseout"/>
                       </use>
               </g>
        </defs>

<script type="text/javascript">
var viewWidth = 1796;
var viewHeight = 170;
var sectionId = 'dynsection-10';
</script>
<script xlink:href="../../svgpan.js"/>
<svg id="graph" class="graph">
<g id="viewport">
<title>SearchProvider::AddTransformedHistoryResultsToMap</title>
<polygon fill="white" stroke="transparent" points="-4,4 -4,-166 1792,-166 1792,4 -4,4"/>
<!-- Node1 -->
<g id="node1" class="node">
<title>Node1</title>
<g id="a_node1"><a xlink:title=" ">
<polygon fill="#bfbfbf" stroke="black" points="1627,-24.5 1627,-54.5 1788,-54.5 1788,-24.5 1627,-24.5"/>
<text text-anchor="start" x="1635" y="-42.5" font-family="Helvetica,sans-Serif" font-size="10.00">SearchProvider::AddTransformed</text>
<text text-anchor="middle" x="1707.5" y="-31.5" font-family="Helvetica,sans-Serif" font-size="10.00">HistoryResultsToMap</text>
</a>
</g>
</g>
<!-- Node2 -->
<g id="node2" class="node">
<title>Node2</title>
<g id="a_node2"><a xlink:href="../../d4/dee/classSearchProvider.html#a3d5b064d07f4b9d0b6540408dd7df1b6" target="_top" xlink:title=" ">
<polygon fill="white" stroke="black" points="1433,-47.5 1433,-77.5 1591,-77.5 1591,-47.5 1433,-47.5"/>
<text text-anchor="start" x="1441" y="-65.5" font-family="Helvetica,sans-Serif" font-size="10.00">SearchProvider::AddRawHistory</text>
<text text-anchor="middle" x="1512" y="-54.5" font-family="Helvetica,sans-Serif" font-size="10.00">ResultsToMap</text>
</a>
</g>
</g>
<!-- Node1&#45;&gt;Node2 -->
<g id="edge1" class="edge">
<title>Node1&#45;&gt;Node2</title>
<path fill="none" stroke="midnightblue" d="M1616.95,-50.14C1608.39,-51.16 1599.74,-52.19 1591.3,-53.19"/>
<polygon fill="midnightblue" stroke="midnightblue" points="1617.44,-53.61 1626.96,-48.95 1616.62,-46.66 1617.44,-53.61"/>
</g>
<!-- Node12 -->
<g id="node12" class="node">
<title>Node12</title>
<g id="a_node12"><a xlink:href="../../d4/dee/classSearchProvider.html#ae275a6523093e88c10cf383628091597" target="_top" xlink:title=" ">
<polygon fill="white" stroke="black" points="1245,-0.5 1245,-30.5 1391,-30.5 1391,-0.5 1245,-0.5"/>
<text text-anchor="start" x="1253" y="-18.5" font-family="Helvetica,sans-Serif" font-size="10.00">SearchProvider::FindAnswers</text>
<text text-anchor="middle" x="1318" y="-7.5" font-family="Helvetica,sans-Serif" font-size="10.00">PrefetchData</text>
</a>
</g>
</g>
<!-- Node1&#45;&gt;Node12 -->
<g id="edge13" class="edge">
<title>Node1&#45;&gt;Node12</title>
<path fill="none" stroke="midnightblue" d="M1616.33,-33.92C1547.82,-29.67 1454.84,-23.91 1391.2,-19.97"/>
<polygon fill="midnightblue" stroke="midnightblue" points="1616.48,-37.43 1626.68,-34.56 1616.92,-30.44 1616.48,-37.43"/>
</g>
<!-- Node3 -->
<g id="node3" class="node">
<title>Node3</title>
<g id="a_node3"><a xlink:href="../../d4/dee/classSearchProvider.html#a0399169b208c94d4599111517f9abf7f" target="_top" xlink:title=" ">
<polygon fill="white" stroke="black" points="1239,-49.5 1239,-79.5 1397,-79.5 1397,-49.5 1239,-49.5"/>
<text text-anchor="start" x="1247" y="-67.5" font-family="Helvetica,sans-Serif" font-size="10.00">SearchProvider::ConvertResults</text>
<text text-anchor="middle" x="1318" y="-56.5" font-family="Helvetica,sans-Serif" font-size="10.00">ToAutocompleteMatches</text>
</a>
</g>
</g>
<!-- Node2&#45;&gt;Node3 -->
<g id="edge2" class="edge">
<title>Node2&#45;&gt;Node3</title>
<path fill="none" stroke="midnightblue" d="M1422.85,-63.42C1414.23,-63.51 1405.53,-63.6 1397.02,-63.69"/>
<polygon fill="midnightblue" stroke="midnightblue" points="1422.94,-66.92 1432.91,-63.31 1422.87,-59.92 1422.94,-66.92"/>
</g>
<!-- Node4 -->
<g id="node4" class="node">
<title>Node4</title>
<g id="a_node4"><a xlink:href="../../d4/dee/classSearchProvider.html#a9616ba802ad8e814267f9e3eb5096006" target="_top" xlink:title=" ">
<polygon fill="white" stroke="black" points="1030,-90 1030,-109 1203,-109 1203,-90 1030,-90"/>
<text text-anchor="middle" x="1116.5" y="-97" font-family="Helvetica,sans-Serif" font-size="10.00">SearchProvider::EnforceConstraints</text>
</a>
</g>
</g>
<!-- Node3&#45;&gt;Node4 -->
<g id="edge3" class="edge">
<title>Node3&#45;&gt;Node4</title>
<path fill="none" stroke="midnightblue" d="M1228.68,-80C1209.33,-83.39 1189.4,-86.89 1171.85,-89.97"/>
<polygon fill="midnightblue" stroke="midnightblue" points="1229.48,-83.41 1238.72,-78.23 1228.27,-76.51 1229.48,-83.41"/>
</g>
<!-- Node5 -->
<g id="node5" class="node">
<title>Node5</title>
<g id="a_node5"><a xlink:href="../../d4/dee/classSearchProvider.html#a2069cdad12e1ef540aead34c19af5128" target="_top" xlink:title=" ">
<polygon fill="white" stroke="black" points="836,-88 836,-107 994,-107 994,-88 836,-88"/>
<text text-anchor="middle" x="915" y="-95" font-family="Helvetica,sans-Serif" font-size="10.00">SearchProvider::UpdateMatches</text>
</a>
</g>
</g>
<!-- Node3&#45;&gt;Node5 -->
<g id="edge12" class="edge">
<title>Node3&#45;&gt;Node5</title>
<path fill="none" stroke="midnightblue" d="M1228.85,-67.31C1171.99,-69.64 1096.5,-73.7 1030,-80.5 1011.29,-82.41 990.95,-85.21 972.7,-87.99"/>
<polygon fill="midnightblue" stroke="midnightblue" points="1229.04,-70.8 1238.89,-66.91 1228.76,-63.81 1229.04,-70.8"/>
</g>
<!-- Node4&#45;&gt;Node5 -->
<g id="edge4" class="edge">
<title>Node4&#45;&gt;Node5</title>
<path fill="none" stroke="midnightblue" d="M1019.71,-98.54C1011.14,-98.45 1002.53,-98.37 994.13,-98.28"/>
<polygon fill="midnightblue" stroke="midnightblue" points="1019.7,-102.04 1029.74,-98.64 1019.77,-95.04 1019.7,-102.04"/>
</g>
<!-- Node6 -->
<g id="node6" class="node">
<title>Node6</title>
<g id="a_node6"><a xlink:href="../../d4/dee/classSearchProvider.html#ac19ab2526055b301d5a3dde7889895eb" target="_top" xlink:title=" ">
<polygon fill="white" stroke="black" points="657.5,-131.5 657.5,-161.5 799.5,-161.5 799.5,-131.5 657.5,-131.5"/>
<text text-anchor="start" x="665.5" y="-149.5" font-family="Helvetica,sans-Serif" font-size="10.00">SearchProvider::OnTemplate</text>
<text text-anchor="middle" x="728.5" y="-138.5" font-family="Helvetica,sans-Serif" font-size="10.00">URLServiceChanged</text>
</a>
</g>
</g>
<!-- Node5&#45;&gt;Node6 -->
<g id="edge5" class="edge">
<title>Node5&#45;&gt;Node6</title>
<path fill="none" stroke="midnightblue" d="M868.1,-109.69C843.28,-116.28 812.42,-124.48 786.12,-131.46"/>
<polygon fill="midnightblue" stroke="midnightblue" points="869.22,-113.01 877.99,-107.06 867.43,-106.25 869.22,-113.01"/>
</g>
<!-- Node7 -->
<g id="node7" class="node">
<title>Node7</title>
<g id="a_node7"><a xlink:href="../../d4/dee/classSearchProvider.html#a62390d46fb831c0919093798ab7bd52d" target="_top" xlink:title=" ">
<polygon fill="white" stroke="black" points="657,-82.5 657,-112.5 800,-112.5 800,-82.5 657,-82.5"/>
<text text-anchor="start" x="665" y="-100.5" font-family="Helvetica,sans-Serif" font-size="10.00">SearchProvider::OnURLLoad</text>
<text text-anchor="middle" x="728.5" y="-89.5" font-family="Helvetica,sans-Serif" font-size="10.00">Complete</text>
</a>
</g>
</g>
<!-- Node5&#45;&gt;Node7 -->
<g id="edge6" class="edge">
<title>Node5&#45;&gt;Node7</title>
<path fill="none" stroke="midnightblue" d="M825.75,-97.5C817.2,-97.5 808.6,-97.5 800.26,-97.5"/>
<polygon fill="midnightblue" stroke="midnightblue" points="825.76,-101 835.76,-97.5 825.76,-94 825.76,-101"/>
</g>
<!-- Node11 -->
<g id="node11" class="node">
<title>Node11</title>
<g id="a_node11"><a xlink:href="../../d4/dee/classSearchProvider.html#a9e8f7e367904d424ac875e501844e830" target="_top" xlink:title=" ">
<polygon fill="white" stroke="black" points="0,-44 0,-63 110,-63 110,-44 0,-44"/>
<text text-anchor="middle" x="55" y="-51" font-family="Helvetica,sans-Serif" font-size="10.00">SearchProvider::Start</text>
</a>
</g>
</g>
<!-- Node5&#45;&gt;Node11 -->
<g id="edge11" class="edge">
<title>Node5&#45;&gt;Node11</title>
<path fill="none" stroke="midnightblue" d="M865.07,-85.75C845.01,-81.31 821.49,-76.59 800,-73.5 687.26,-57.29 658.4,-53.5 544.5,-53.5 544.5,-53.5 544.5,-53.5 375.5,-53.5 282.31,-53.5 173.84,-53.5 110.27,-53.5"/>
<polygon fill="midnightblue" stroke="midnightblue" points="864.39,-89.18 874.92,-87.96 865.93,-82.35 864.39,-89.18"/>
</g>
<!-- Node8 -->
<g id="node8" class="node">
<title>Node8</title>
<g id="a_node8"><a xlink:href="../../d4/dee/classSearchProvider.html#ac6613acbe0b4e879590cdb0d562999c9" target="_top" xlink:title=" ">
<polygon fill="white" stroke="black" points="466,-82.5 466,-112.5 621,-112.5 621,-82.5 466,-82.5"/>
<text text-anchor="start" x="474" y="-100.5" font-family="Helvetica,sans-Serif" font-size="10.00">SearchProvider::CreateSuggest</text>
<text text-anchor="middle" x="543.5" y="-89.5" font-family="Helvetica,sans-Serif" font-size="10.00">Loader</text>
</a>
</g>
</g>
<!-- Node7&#45;&gt;Node8 -->
<g id="edge7" class="edge">
<title>Node7&#45;&gt;Node8</title>
<path fill="none" stroke="midnightblue" d="M646.53,-97.5C638.09,-97.5 629.53,-97.5 621.14,-97.5"/>
<polygon fill="midnightblue" stroke="midnightblue" points="646.75,-101 656.75,-97.5 646.75,-94 646.75,-101"/>
</g>
<!-- Node9 -->
<g id="node9" class="node">
<title>Node9</title>
<g id="a_node9"><a xlink:href="../../d4/dee/classSearchProvider.html#a02c8b00f5d4da0ce7e5de29658483914" target="_top" xlink:title=" ">
<polygon fill="white" stroke="black" points="323,-88 323,-107 430,-107 430,-88 323,-88"/>
<text text-anchor="middle" x="376.5" y="-95" font-family="Helvetica,sans-Serif" font-size="10.00">SearchProvider::Run</text>
</a>
</g>
</g>
<!-- Node8&#45;&gt;Node9 -->
<g id="edge8" class="edge">
<title>Node8&#45;&gt;Node9</title>
<path fill="none" stroke="midnightblue" d="M455.7,-97.5C447.1,-97.5 438.56,-97.5 430.47,-97.5"/>
<polygon fill="midnightblue" stroke="midnightblue" points="455.8,-101 465.8,-97.5 455.8,-94 455.8,-101"/>
</g>
<!-- Node10 -->
<g id="node10" class="node">
<title>Node10</title>
<g id="a_node10"><a xlink:href="../../d4/dee/classSearchProvider.html#af0c60cb234c815b05521a08434e7dcdc" target="_top" xlink:title=" ">
<polygon fill="white" stroke="black" points="146,-82.5 146,-112.5 287,-112.5 287,-82.5 146,-82.5"/>
<text text-anchor="start" x="154" y="-100.5" font-family="Helvetica,sans-Serif" font-size="10.00">SearchProvider::StartOrStop</text>
<text text-anchor="middle" x="216.5" y="-89.5" font-family="Helvetica,sans-Serif" font-size="10.00">SuggestQuery</text>
</a>
</g>
</g>
<!-- Node9&#45;&gt;Node10 -->
<g id="edge9" class="edge">
<title>Node9&#45;&gt;Node10</title>
<path fill="none" stroke="midnightblue" d="M312.74,-97.5C304.29,-97.5 295.59,-97.5 287.03,-97.5"/>
<polygon fill="midnightblue" stroke="midnightblue" points="312.89,-101 322.89,-97.5 312.89,-94 312.89,-101"/>
</g>
<!-- Node10&#45;&gt;Node11 -->
<g id="edge10" class="edge">
<title>Node10&#45;&gt;Node11</title>
<path fill="none" stroke="midnightblue" d="M151.35,-79.8C130.64,-74.09 108.47,-67.97 90.72,-63.08"/>
<polygon fill="midnightblue" stroke="midnightblue" points="150.48,-83.2 161.06,-82.48 152.35,-76.45 150.48,-83.2"/>
</g>
<!-- Node12&#45;&gt;Node11 -->
<g id="edge14" class="edge">
<title>Node12&#45;&gt;Node11</title>
<path fill="none" stroke="midnightblue" d="M1234.78,-15.5C1153.72,-15.5 1026.33,-15.5 916,-15.5 916,-15.5 916,-15.5 375.5,-15.5 279.28,-15.5 167.9,-32.7 105.32,-43.96"/>
<polygon fill="midnightblue" stroke="midnightblue" points="1234.92,-19 1244.92,-15.5 1234.92,-12 1234.92,-19"/>
</g>
</g>
</svg>
        <g id="navigator" transform="translate(0 0)" fill="#404254">
                <rect fill="#f2f5e9" fill-opacity="0.5" stroke="#606060" stroke-width=".5" x="0" y="0" width="60" height="60"/>
                <use id="zoomplus" xlink:href="#zoomPlus" x="17" y="9" onmousedown="handleZoom(evt,'in')"/>
                <use id="zoomminus" xlink:href="#zoomMin" x="42" y="9" onmousedown="handleZoom(evt,'out')"/>
                <use id="reset" xlink:href="#resetDef" x="30" y="36" onmousedown="handleReset()"/>
                <g id="arrowUp" xlink:href="#dirArrow" transform="translate(30 24)" onmousedown="handlePan(0,-1)">
                  <use xlink:href="#rim" fill="#404040">
                        <set attributeName="fill" to="#808080" begin="arrowUp.mouseover" end="arrowUp.mouseout"/>
                  </use>
                  <path fill="none" stroke="white" stroke-width="1.5" d="M0,-3.0v7 M-2.5,-0.5L0,-3.0L2.5,-0.5"/>
                </g>
                <g id="arrowRight" xlink:href="#dirArrow" transform="rotate(90) translate(36 -43)" onmousedown="handlePan(1,0)">
                  <use xlink:href="#rim" fill="#404040">
                        <set attributeName="fill" to="#808080" begin="arrowRight.mouseover" end="arrowRight.mouseout"/>
                  </use>
                  <path fill="none" stroke="white" stroke-width="1.5" d="M0,-3.0v7 M-2.5,-0.5L0,-3.0L2.5,-0.5"/>
                </g>
                <g id="arrowDown" xlink:href="#dirArrow" transform="rotate(180) translate(-30 -48)" onmousedown="handlePan(0,1)">
                  <use xlink:href="#rim" fill="#404040">
                        <set attributeName="fill" to="#808080" begin="arrowDown.mouseover" end="arrowDown.mouseout"/>
                  </use>
                  <path fill="none" stroke="white" stroke-width="1.5" d="M0,-3.0v7 M-2.5,-0.5L0,-3.0L2.5,-0.5"/>
                </g>
                <g id="arrowLeft" xlink:href="#dirArrow" transform="rotate(270) translate(-36 17)" onmousedown="handlePan(-1,0)">
                  <use xlink:href="#rim" fill="#404040">
                        <set attributeName="fill" to="#808080" begin="arrowLeft.mouseover" end="arrowLeft.mouseout"/>
                  </use>
                  <path fill="none" stroke="white" stroke-width="1.5" d="M0,-3.0v7 M-2.5,-0.5L0,-3.0L2.5,-0.5"/>
                </g>
        </g>
        <svg viewBox="0 0 15 15" width="100%" height="30px" preserveAspectRatio="xMaxYMin meet">
         <g id="arrow_out" transform="scale(0.3 0.3)">
          <a xlink:href="classSearchProvider_a878a5cb4b651cba06a70356c08d9ef22_icgraph_org.svg" target="_base">
           <rect id="button" ry="5" rx="5" y="6" x="6" height="38" width="38"
                fill="#f2f5e9" fill-opacity="0.5" stroke="#606060" stroke-width="1.0"/>
           <path id="arrow"
             d="M 11.500037,31.436501 C 11.940474,20.09759 22.043105,11.32322 32.158766,21.979434 L 37.068811,17.246167 C 37.068811,17.246167 37.088388,32 37.088388,32 L 22.160133,31.978069 C 22.160133,31.978069 26.997745,27.140456 26.997745,27.140456 C 18.528582,18.264221 13.291696,25.230495 11.500037,31.436501 z"
             style="fill:#404040;"/>
          </a>
         </g>
        </svg>
</svg>
