<?xml version="1.0" encoding="UTF-8" standalone="no"?>
<!DOCTYPE svg PUBLIC "-//W3C//DTD SVG 1.1//EN"
 "http://www.w3.org/Graphics/SVG/1.1/DTD/svg11.dtd">
<!-- Generated by graphviz version 2.43.0 (0)
 -->
<!-- Title: SearchProvider::FindAnswersPrefetchData Pages: 1 -->
<svg width="1034pt" height="656pt"
 viewBox="0.00 0.00 1034.00 656.00" xmlns="http://www.w3.org/2000/svg" xmlns:xlink="http://www.w3.org/1999/xlink">
<g id="graph0" class="graph" transform="scale(1 1) rotate(0) translate(4 652)">
<title>SearchProvider::FindAnswersPrefetchData</title>
<polygon fill="white" stroke="transparent" points="-4,4 -4,-652 1030,-652 1030,4 -4,4"/>
<!-- Node1 -->
<g id="node1" class="node">
<title>Node1</title>
<g id="a_node1"><a xlink:title=" ">
<polygon fill="#bfbfbf" stroke="black" points="0,-207.5 0,-237.5 146,-237.5 146,-207.5 0,-207.5"/>
<text text-anchor="start" x="8" y="-225.5" font-family="Helvetica,sans-Serif" font-size="10.00">SearchProvider::FindAnswers</text>
<text text-anchor="middle" x="73" y="-214.5" font-family="Helvetica,sans-Serif" font-size="10.00">PrefetchData</text>
</a>
</g>
</g>
<!-- Node2 -->
<g id="node2" class="node">
<title>Node2</title>
<g id="a_node2"><a xlink:href="../../d4/dee/classSearchProvider.html#a878a5cb4b651cba06a70356c08d9ef22" target="_top" xlink:title=" ">
<polygon fill="white" stroke="black" points="182,-281.5 182,-311.5 343,-311.5 343,-281.5 182,-281.5"/>
<text text-anchor="start" x="190" y="-299.5" font-family="Helvetica,sans-Serif" font-size="10.00">SearchProvider::AddTransformed</text>
<text text-anchor="middle" x="262.5" y="-288.5" font-family="Helvetica,sans-Serif" font-size="10.00">HistoryResultsToMap</text>
</a>
</g>
</g>
<!-- Node1&#45;&gt;Node2 -->
<g id="edge1" class="edge">
<title>Node1&#45;&gt;Node2</title>
<path fill="none" stroke="midnightblue" d="M103.77,-237.66C125.2,-248.23 154.96,-262.22 182,-272.5 187.14,-274.45 192.51,-276.36 197.93,-278.18"/>
<polygon fill="midnightblue" stroke="midnightblue" points="197.11,-281.6 207.7,-281.38 199.28,-274.94 197.11,-281.6"/>
</g>
<!-- Node22 -->
<g id="node22" class="node">
<title>Node22</title>
<g id="a_node22"><a xlink:href="../../da/d5e/classAnswersCache.html#a02bc55713efa0fa95f399b5400e33435" target="_top" xlink:title=" ">
<polygon fill="white" stroke="black" points="185.5,-232.5 185.5,-262.5 339.5,-262.5 339.5,-232.5 185.5,-232.5"/>
<text text-anchor="start" x="193.5" y="-250.5" font-family="Helvetica,sans-Serif" font-size="10.00">AnswersCache::GetTopAnswer</text>
<text text-anchor="middle" x="262.5" y="-239.5" font-family="Helvetica,sans-Serif" font-size="10.00">Entry</text>
</a>
</g>
</g>
<!-- Node1&#45;&gt;Node22 -->
<g id="edge23" class="edge">
<title>Node1&#45;&gt;Node22</title>
<path fill="none" stroke="midnightblue" d="M146.22,-232.13C155.72,-233.4 165.52,-234.7 175.22,-236"/>
<polygon fill="midnightblue" stroke="midnightblue" points="174.9,-239.48 185.27,-237.34 175.82,-232.55 174.9,-239.48"/>
</g>
<!-- Node23 -->
<g id="node23" class="node">
<title>Node23</title>
<g id="a_node23"><a xlink:href="../../dd/de9/classAutocompleteProvider.html#af9b076a9c701e51e385c5acd2dd344a8" target="_top" xlink:title=" ">
<polygon fill="white" stroke="black" points="206,-183.5 206,-213.5 319,-213.5 319,-183.5 206,-183.5"/>
<text text-anchor="start" x="214" y="-201.5" font-family="Helvetica,sans-Serif" font-size="10.00">AutocompleteProvider</text>
<text text-anchor="middle" x="262.5" y="-190.5" font-family="Helvetica,sans-Serif" font-size="10.00">::matches</text>
</a>
</g>
</g>
<!-- Node1&#45;&gt;Node23 -->
<g id="edge24" class="edge">
<title>Node1&#45;&gt;Node23</title>
<path fill="none" stroke="midnightblue" d="M146.22,-213.26C162.47,-211.18 179.63,-208.98 195.61,-206.93"/>
<polygon fill="midnightblue" stroke="midnightblue" points="196.44,-210.36 205.91,-205.62 195.55,-203.41 196.44,-210.36"/>
</g>
<!-- Node24 -->
<g id="node24" class="node">
<title>Node24</title>
<g id="a_node24"><a xlink:href="../../dc/d8f/structAutocompleteMatch.html#ac3a116c4349e36f3ce2de0546234baae" target="_top" xlink:title=" ">
<polygon fill="white" stroke="black" points="207.5,-134.5 207.5,-164.5 317.5,-164.5 317.5,-134.5 207.5,-134.5"/>
<text text-anchor="start" x="215.5" y="-152.5" font-family="Helvetica,sans-Serif" font-size="10.00">AutocompleteMatch::</text>
<text text-anchor="middle" x="262.5" y="-141.5" font-family="Helvetica,sans-Serif" font-size="10.00">MoreRelevant</text>
</a>
</g>
</g>
<!-- Node1&#45;&gt;Node24 -->
<g id="edge25" class="edge">
<title>Node1&#45;&gt;Node24</title>
<path fill="none" stroke="midnightblue" d="M105.27,-207.47C126.62,-197.49 155.71,-184.44 182,-174.5 188.18,-172.16 194.69,-169.86 201.21,-167.66"/>
<polygon fill="midnightblue" stroke="midnightblue" points="202.34,-170.98 210.74,-164.52 200.14,-164.33 202.34,-170.98"/>
</g>
<!-- Node3 -->
<g id="node3" class="node">
<title>Node3</title>
<g id="a_node3"><a xlink:href="../../d0/ddc/classBaseSearchProvider.html#acaee0d3559989fe003d29c63bc3e7e7c" target="_top" xlink:title=" ">
<polygon fill="white" stroke="black" points="392.5,-306.5 392.5,-336.5 498.5,-336.5 498.5,-306.5 392.5,-306.5"/>
<text text-anchor="start" x="400.5" y="-324.5" font-family="Helvetica,sans-Serif" font-size="10.00">BaseSearchProvider</text>
<text text-anchor="middle" x="445.5" y="-313.5" font-family="Helvetica,sans-Serif" font-size="10.00">::AddMatchToMap</text>
</a>
</g>
</g>
<!-- Node2&#45;&gt;Node3 -->
<g id="edge2" class="edge">
<title>Node2&#45;&gt;Node3</title>
<path fill="none" stroke="midnightblue" d="M343.15,-307.5C356.32,-309.32 369.81,-311.18 382.46,-312.93"/>
<polygon fill="midnightblue" stroke="midnightblue" points="382.03,-316.4 392.41,-314.31 382.99,-309.47 382.03,-316.4"/>
</g>
<!-- Node21 -->
<g id="node21" class="node">
<title>Node21</title>
<g id="a_node21"><a xlink:href="../../d1/de5/classSearchProvider_1_1Providers.html#a3da72423a9828f236395060b83cbf0eb" target="_top" xlink:title=" ">
<polygon fill="white" stroke="black" points="379,-257.5 379,-287.5 512,-287.5 512,-257.5 379,-257.5"/>
<text text-anchor="start" x="387" y="-275.5" font-family="Helvetica,sans-Serif" font-size="10.00">SearchProvider::Providers</text>
<text text-anchor="middle" x="445.5" y="-264.5" font-family="Helvetica,sans-Serif" font-size="10.00">::GetKeywordProviderURL</text>
</a>
</g>
</g>
<!-- Node2&#45;&gt;Node21 -->
<g id="edge22" class="edge">
<title>Node2&#45;&gt;Node21</title>
<path fill="none" stroke="midnightblue" d="M343.15,-285.94C351.74,-284.8 360.46,-283.64 369,-282.51"/>
<polygon fill="midnightblue" stroke="midnightblue" points="369.47,-285.98 378.92,-281.2 368.55,-279.04 369.47,-285.98"/>
</g>
<!-- Node4 -->
<g id="node4" class="node">
<title>Node4</title>
<g id="a_node4"><a xlink:href="../../d0/ddc/classBaseSearchProvider.html#a0842abe2bc866f08d7962b934f066895" target="_top" xlink:title=" ">
<polygon fill="white" stroke="black" points="554,-590.5 554,-620.5 685,-620.5 685,-590.5 554,-590.5"/>
<text text-anchor="start" x="562" y="-608.5" font-family="Helvetica,sans-Serif" font-size="10.00">BaseSearchProvider</text>
<text text-anchor="middle" x="619.5" y="-597.5" font-family="Helvetica,sans-Serif" font-size="10.00">::CreateSearchSuggestion</text>
</a>
</g>
</g>
<!-- Node3&#45;&gt;Node4 -->
<g id="edge3" class="edge">
<title>Node3&#45;&gt;Node4</title>
<path fill="none" stroke="midnightblue" d="M448,-336.54C453.18,-380.64 474.3,-510.98 548,-581.5 549.11,-582.56 550.27,-583.58 551.47,-584.55"/>
<polygon fill="midnightblue" stroke="midnightblue" points="549.69,-587.57 559.92,-590.32 553.64,-581.79 549.69,-587.57"/>
</g>
<!-- Node8 -->
<g id="node8" class="node">
<title>Node8</title>
<g id="a_node8"><a xlink:href="../../da/d24/classSearchSuggestionParser_1_1Result.html#a2699cbcbd147f9f81b0efecb51ab6f4a" target="_top" xlink:title=" ">
<polygon fill="white" stroke="black" points="557,-541.5 557,-571.5 682,-571.5 682,-541.5 557,-541.5"/>
<text text-anchor="start" x="565" y="-559.5" font-family="Helvetica,sans-Serif" font-size="10.00">SearchSuggestionParser</text>
<text text-anchor="middle" x="619.5" y="-548.5" font-family="Helvetica,sans-Serif" font-size="10.00">::Result::deletion_url</text>
</a>
</g>
</g>
<!-- Node3&#45;&gt;Node8 -->
<g id="edge7" class="edge">
<title>Node3&#45;&gt;Node8</title>
<path fill="none" stroke="midnightblue" d="M449.56,-336.7C458.07,-375.17 485.64,-477.22 548,-532.5 549.33,-533.68 550.72,-534.8 552.16,-535.87"/>
<polygon fill="midnightblue" stroke="midnightblue" points="550.57,-539 560.89,-541.4 554.32,-533.09 550.57,-539"/>
</g>
<!-- Node9 -->
<g id="node9" class="node">
<title>Node9</title>
<g id="a_node9"><a xlink:href="../../da/d24/classSearchSuggestionParser_1_1Result.html#aa41b7714d728548393f2377a4e81bb15" target="_top" xlink:title=" ">
<polygon fill="white" stroke="black" points="557,-492.5 557,-522.5 682,-522.5 682,-492.5 557,-492.5"/>
<text text-anchor="start" x="565" y="-510.5" font-family="Helvetica,sans-Serif" font-size="10.00">SearchSuggestionParser</text>
<text text-anchor="middle" x="619.5" y="-499.5" font-family="Helvetica,sans-Serif" font-size="10.00">::Result::from_keyword</text>
</a>
</g>
</g>
<!-- Node3&#45;&gt;Node9 -->
<g id="edge8" class="edge">
<title>Node3&#45;&gt;Node9</title>
<path fill="none" stroke="midnightblue" d="M452.02,-336.88C464.26,-368.86 496.74,-442.92 548,-483.5 549.77,-484.9 551.63,-486.22 553.55,-487.47"/>
<polygon fill="midnightblue" stroke="midnightblue" points="551.93,-490.57 562.35,-492.47 555.39,-484.49 551.93,-490.57"/>
</g>
<!-- Node10 -->
<g id="node10" class="node">
<title>Node10</title>
<g id="a_node10"><a xlink:href="../../d0/ddc/classBaseSearchProvider.html#aea9e780b36b7244a785c9e2e7d9a8b1f" target="_top" xlink:title=" ">
<polygon fill="white" stroke="black" points="566.5,-443.5 566.5,-473.5 672.5,-473.5 672.5,-443.5 566.5,-443.5"/>
<text text-anchor="start" x="574.5" y="-461.5" font-family="Helvetica,sans-Serif" font-size="10.00">BaseSearchProvider</text>
<text text-anchor="middle" x="619.5" y="-450.5" font-family="Helvetica,sans-Serif" font-size="10.00">::GetInput</text>
</a>
</g>
</g>
<!-- Node3&#45;&gt;Node10 -->
<g id="edge9" class="edge">
<title>Node3&#45;&gt;Node10</title>
<path fill="none" stroke="midnightblue" d="M456.2,-336.55C472.41,-360.58 507.29,-407.62 548,-434.5 550.89,-436.41 553.95,-438.18 557.11,-439.83"/>
<polygon fill="midnightblue" stroke="midnightblue" points="555.7,-443.03 566.23,-444.13 558.68,-436.7 555.7,-443.03"/>
</g>
<!-- Node11 -->
<g id="node11" class="node">
<title>Node11</title>
<g id="a_node11"><a xlink:href="../../d0/ddc/classBaseSearchProvider.html#af1b9ca8bccf3dad237211461cd022530" target="_top" xlink:title=" ">
<polygon fill="white" stroke="black" points="566.5,-394.5 566.5,-424.5 672.5,-424.5 672.5,-394.5 566.5,-394.5"/>
<text text-anchor="start" x="574.5" y="-412.5" font-family="Helvetica,sans-Serif" font-size="10.00">BaseSearchProvider</text>
<text text-anchor="middle" x="619.5" y="-401.5" font-family="Helvetica,sans-Serif" font-size="10.00">::GetTemplateURL</text>
</a>
</g>
</g>
<!-- Node3&#45;&gt;Node11 -->
<g id="edge10" class="edge">
<title>Node3&#45;&gt;Node11</title>
<path fill="none" stroke="midnightblue" d="M471.09,-336.63C491.37,-348.85 521.09,-366.15 548,-379.5 555.54,-383.24 563.65,-386.96 571.6,-390.45"/>
<polygon fill="midnightblue" stroke="midnightblue" points="570.24,-393.68 580.81,-394.42 573.01,-387.25 570.24,-393.68"/>
</g>
<!-- Node12 -->
<g id="node12" class="node">
<title>Node12</title>
<g id="a_node12"><a xlink:href="../../d5/dc7/classAutocompleteProviderClient.html#adba197163b53e433c2114b677ae4e412" target="_top" xlink:title=" ">
<polygon fill="white" stroke="black" points="727,-328.5 727,-358.5 865,-358.5 865,-328.5 727,-328.5"/>
<text text-anchor="start" x="735" y="-346.5" font-family="Helvetica,sans-Serif" font-size="10.00">AutocompleteProviderClient</text>
<text text-anchor="middle" x="796" y="-335.5" font-family="Helvetica,sans-Serif" font-size="10.00">::GetTemplateURLService</text>
</a>
</g>
</g>
<!-- Node3&#45;&gt;Node12 -->
<g id="edge11" class="edge">
<title>Node3&#45;&gt;Node12</title>
<path fill="none" stroke="midnightblue" d="M497.17,-336.53C513.27,-340.61 531.25,-344.47 548,-346.5 604.14,-353.31 667.98,-352.31 716.7,-349.74"/>
<polygon fill="midnightblue" stroke="midnightblue" points="717.07,-353.22 726.85,-349.17 716.67,-346.23 717.07,-353.22"/>
</g>
<!-- Node13 -->
<g id="node13" class="node">
<title>Node13</title>
<g id="a_node13"><a xlink:href="../../dc/d8f/structAutocompleteMatch.html#a5d7cedce0c1a95499420678e37ce8262" target="_top" xlink:title=" ">
<polygon fill="white" stroke="black" points="741,-229.5 741,-259.5 851,-259.5 851,-229.5 741,-229.5"/>
<text text-anchor="start" x="749" y="-247.5" font-family="Helvetica,sans-Serif" font-size="10.00">AutocompleteMatch::</text>
<text text-anchor="middle" x="796" y="-236.5" font-family="Helvetica,sans-Serif" font-size="10.00">RecordAdditionalInfo</text>
</a>
</g>
</g>
<!-- Node3&#45;&gt;Node13 -->
<g id="edge12" class="edge">
<title>Node3&#45;&gt;Node13</title>
<path fill="none" stroke="midnightblue" d="M498.44,-306.4C503.28,-303.86 507.91,-300.91 512,-297.5 536.19,-277.35 520.66,-252.11 548,-236.5 606.45,-203.12 686.03,-213.66 738.88,-226.82"/>
<polygon fill="midnightblue" stroke="midnightblue" points="738.2,-230.26 748.76,-229.39 739.96,-223.49 738.2,-230.26"/>
</g>
<!-- Node14 -->
<g id="node14" class="node">
<title>Node14</title>
<g id="a_node14"><a xlink:href="../../da/d24/classSearchSuggestionParser_1_1Result.html#ad4dd1efdfb4f4334211d08d4fd4677c2" target="_top" xlink:title=" ">
<polygon fill="white" stroke="black" points="557,-246 557,-287 682,-287 682,-246 557,-246"/>
<text text-anchor="start" x="565" y="-275" font-family="Helvetica,sans-Serif" font-size="10.00">SearchSuggestionParser</text>
<text text-anchor="start" x="565" y="-264" font-family="Helvetica,sans-Serif" font-size="10.00">::Result::relevance_from</text>
<text text-anchor="middle" x="619.5" y="-253" font-family="Helvetica,sans-Serif" font-size="10.00">_server</text>
</a>
</g>
</g>
<!-- Node3&#45;&gt;Node14 -->
<g id="edge13" class="edge">
<title>Node3&#45;&gt;Node14</title>
<path fill="none" stroke="midnightblue" d="M493.5,-306.47C509.95,-301.21 528.81,-295.18 546.82,-289.42"/>
<polygon fill="midnightblue" stroke="midnightblue" points="548.25,-292.64 556.71,-286.26 546.12,-285.97 548.25,-292.64"/>
</g>
<!-- Node15 -->
<g id="node15" class="node">
<title>Node15</title>
<g id="a_node15"><a xlink:href="../../d0/ddc/classBaseSearchProvider.html#ac542bd032a25a572591d96f4a5559508" target="_top" xlink:title=" ">
<polygon fill="white" stroke="black" points="566.5,-306.5 566.5,-336.5 672.5,-336.5 672.5,-306.5 566.5,-306.5"/>
<text text-anchor="start" x="574.5" y="-324.5" font-family="Helvetica,sans-Serif" font-size="10.00">BaseSearchProvider</text>
<text text-anchor="middle" x="619.5" y="-313.5" font-family="Helvetica,sans-Serif" font-size="10.00">::SetDeletionURL</text>
</a>
</g>
</g>
<!-- Node3&#45;&gt;Node15 -->
<g id="edge14" class="edge">
<title>Node3&#45;&gt;Node15</title>
<path fill="none" stroke="midnightblue" d="M498.57,-321.5C516.76,-321.5 537.36,-321.5 556.29,-321.5"/>
<polygon fill="midnightblue" stroke="midnightblue" points="556.31,-325 566.31,-321.5 556.31,-318 556.31,-325"/>
</g>
<!-- Node16 -->
<g id="node16" class="node">
<title>Node16</title>
<g id="a_node16"><a xlink:href="../../d4/d3d/classSearchSuggestionParser_1_1SuggestResult.html#ad3d301a373d9c48cc951f0ac72044fbc" target="_top" xlink:title=" ">
<polygon fill="white" stroke="black" points="557,-148 557,-189 682,-189 682,-148 557,-148"/>
<text text-anchor="start" x="565" y="-177" font-family="Helvetica,sans-Serif" font-size="10.00">SearchSuggestionParser</text>
<text text-anchor="start" x="565" y="-166" font-family="Helvetica,sans-Serif" font-size="10.00">::SuggestResult::should</text>
<text text-anchor="middle" x="619.5" y="-155" font-family="Helvetica,sans-Serif" font-size="10.00">_prefetch</text>
</a>
</g>
</g>
<!-- Node3&#45;&gt;Node16 -->
<g id="edge17" class="edge">
<title>Node3&#45;&gt;Node16</title>
<path fill="none" stroke="midnightblue" d="M498.73,-307.26C503.58,-304.55 508.12,-301.33 512,-297.5 543.86,-266.1 517.9,-236.6 548,-203.5 550.84,-200.37 554.03,-197.49 557.43,-194.84"/>
<polygon fill="midnightblue" stroke="midnightblue" points="559.51,-197.65 565.71,-189.06 555.51,-191.91 559.51,-197.65"/>
</g>
<!-- Node17 -->
<g id="node17" class="node">
<title>Node17</title>
<g id="a_node17"><a xlink:href="../../d0/ddc/classBaseSearchProvider.html#aa2c13870826bb1a7470d580679cb2061" target="_top" xlink:title=" ">
<polygon fill="white" stroke="black" points="548,-98.5 548,-128.5 691,-128.5 691,-98.5 548,-98.5"/>
<text text-anchor="start" x="556" y="-116.5" font-family="Helvetica,sans-Serif" font-size="10.00">BaseSearchProvider</text>
<text text-anchor="middle" x="619.5" y="-105.5" font-family="Helvetica,sans-Serif" font-size="10.00">::ShouldAppendExtraParams</text>
</a>
</g>
</g>
<!-- Node3&#45;&gt;Node17 -->
<g id="edge18" class="edge">
<title>Node3&#45;&gt;Node17</title>
<path fill="none" stroke="midnightblue" d="M498.67,-308.18C503.66,-305.29 508.24,-301.78 512,-297.5 559.84,-243.08 499.88,-192.67 548,-138.5 549.19,-137.17 550.45,-135.9 551.77,-134.71"/>
<polygon fill="midnightblue" stroke="midnightblue" points="554.08,-137.35 559.99,-128.57 549.89,-131.75 554.08,-137.35"/>
</g>
<!-- Node18 -->
<g id="node18" class="node">
<title>Node18</title>
<g id="a_node18"><a xlink:href="../../d0/ddc/classBaseSearchProvider.html#a1ad10020f6921f23c66f579370ce4e1b" target="_top" xlink:title=" ">
<polygon fill="white" stroke="black" points="566.5,-49.5 566.5,-79.5 672.5,-79.5 672.5,-49.5 566.5,-49.5"/>
<text text-anchor="start" x="574.5" y="-67.5" font-family="Helvetica,sans-Serif" font-size="10.00">BaseSearchProvider</text>
<text text-anchor="middle" x="619.5" y="-56.5" font-family="Helvetica,sans-Serif" font-size="10.00">::ShouldPrefetch</text>
</a>
</g>
</g>
<!-- Node3&#45;&gt;Node18 -->
<g id="edge19" class="edge">
<title>Node3&#45;&gt;Node18</title>
<path fill="none" stroke="midnightblue" d="M498.58,-308.56C503.65,-305.6 508.28,-301.96 512,-297.5 572.37,-225.11 486.8,-160.19 548,-88.5 550.79,-85.24 554.03,-82.42 557.58,-79.98"/>
<polygon fill="midnightblue" stroke="midnightblue" points="559.38,-82.98 566.31,-74.96 555.89,-76.91 559.38,-82.98"/>
</g>
<!-- Node20 -->
<g id="node20" class="node">
<title>Node20</title>
<g id="a_node20"><a xlink:href="../../d4/d3d/classSearchSuggestionParser_1_1SuggestResult.html#a4a95b417e39d3b07d6222b1698c6bbed" target="_top" xlink:title=" ">
<polygon fill="white" stroke="black" points="549.5,-0.5 549.5,-30.5 689.5,-30.5 689.5,-0.5 549.5,-0.5"/>
<text text-anchor="start" x="557.5" y="-18.5" font-family="Helvetica,sans-Serif" font-size="10.00">SearchSuggestionParser</text>
<text text-anchor="middle" x="619.5" y="-7.5" font-family="Helvetica,sans-Serif" font-size="10.00">::SuggestResult::suggestion</text>
</a>
</g>
</g>
<!-- Node3&#45;&gt;Node20 -->
<g id="edge21" class="edge">
<title>Node3&#45;&gt;Node20</title>
<path fill="none" stroke="midnightblue" d="M498.72,-308.67C503.76,-305.69 508.35,-302.02 512,-297.5 584.72,-207.41 474.24,-128.74 548,-39.5 548.61,-38.76 549.25,-38.04 549.91,-37.34"/>
<polygon fill="midnightblue" stroke="midnightblue" points="552.37,-39.84 557.72,-30.7 547.83,-34.51 552.37,-39.84"/>
</g>
<!-- Node5 -->
<g id="node5" class="node">
<title>Node5</title>
<g id="a_node5"><a xlink:href="../../da/d24/classSearchSuggestionParser_1_1Result.html#a0ed89050a7d0dc76b293f67ddde47427" target="_top" xlink:title=" ">
<polygon fill="white" stroke="black" points="733.5,-557 733.5,-598 858.5,-598 858.5,-557 733.5,-557"/>
<text text-anchor="start" x="741.5" y="-586" font-family="Helvetica,sans-Serif" font-size="10.00">SearchSuggestionParser</text>
<text text-anchor="start" x="741.5" y="-575" font-family="Helvetica,sans-Serif" font-size="10.00">::Result::set_received</text>
<text text-anchor="middle" x="796" y="-564" font-family="Helvetica,sans-Serif" font-size="10.00">_after_last_keystroke</text>
</a>
</g>
</g>
<!-- Node4&#45;&gt;Node5 -->
<g id="edge4" class="edge">
<title>Node4&#45;&gt;Node5</title>
<path fill="none" stroke="midnightblue" d="M685.48,-595.07C697.86,-593.09 710.89,-591 723.47,-588.98"/>
<polygon fill="midnightblue" stroke="midnightblue" points="724.12,-592.42 733.44,-587.38 723.01,-585.51 724.12,-592.42"/>
</g>
<!-- Node7 -->
<g id="node7" class="node">
<title>Node7</title>
<g id="a_node7"><a xlink:href="../../dd/de9/classAutocompleteProvider.html#afee5fe39a16a2cc459b6baa0d8a1521e" target="_top" xlink:title=" ">
<polygon fill="white" stroke="black" points="739.5,-617.5 739.5,-647.5 852.5,-647.5 852.5,-617.5 739.5,-617.5"/>
<text text-anchor="start" x="747.5" y="-635.5" font-family="Helvetica,sans-Serif" font-size="10.00">AutocompleteProvider</text>
<text text-anchor="middle" x="796" y="-624.5" font-family="Helvetica,sans-Serif" font-size="10.00">::type</text>
</a>
</g>
</g>
<!-- Node4&#45;&gt;Node7 -->
<g id="edge6" class="edge">
<title>Node4&#45;&gt;Node7</title>
<path fill="none" stroke="midnightblue" d="M685.48,-615.55C699.75,-617.76 714.87,-620.1 729.17,-622.31"/>
<polygon fill="midnightblue" stroke="midnightblue" points="729,-625.83 739.42,-623.9 730.07,-618.91 729,-625.83"/>
</g>
<!-- Node6 -->
<g id="node6" class="node">
<title>Node6</title>
<g id="a_node6"><a xlink:href="../../da/d24/classSearchSuggestionParser_1_1Result.html#ad22dc49110314d33933218f2c70b60e5" target="_top" xlink:title=" ">
<polygon fill="white" stroke="black" points="901,-557 901,-598 1026,-598 1026,-557 901,-557"/>
<text text-anchor="start" x="909" y="-586" font-family="Helvetica,sans-Serif" font-size="10.00">SearchSuggestionParser</text>
<text text-anchor="start" x="909" y="-575" font-family="Helvetica,sans-Serif" font-size="10.00">::Result::received_after</text>
<text text-anchor="middle" x="963.5" y="-564" font-family="Helvetica,sans-Serif" font-size="10.00">_last_keystroke</text>
</a>
</g>
</g>
<!-- Node5&#45;&gt;Node6 -->
<g id="edge5" class="edge">
<title>Node5&#45;&gt;Node6</title>
<path fill="none" stroke="midnightblue" d="M858.63,-577.5C869.07,-577.5 880,-577.5 890.68,-577.5"/>
<polygon fill="midnightblue" stroke="midnightblue" points="890.82,-581 900.82,-577.5 890.82,-574 890.82,-581"/>
</g>
<!-- Node15&#45;&gt;Node12 -->
<g id="edge15" class="edge">
<title>Node15&#45;&gt;Node12</title>
<path fill="none" stroke="midnightblue" d="M672.86,-328.1C686.64,-329.84 701.82,-331.75 716.65,-333.62"/>
<polygon fill="midnightblue" stroke="midnightblue" points="716.48,-337.13 726.84,-334.91 717.35,-330.18 716.48,-337.13"/>
</g>
<!-- Node15&#45;&gt;Node13 -->
<g id="edge16" class="edge">
<title>Node15&#45;&gt;Node13</title>
<path fill="none" stroke="midnightblue" d="M665.57,-306.45C674.09,-303.34 682.87,-299.96 691,-296.5 713.77,-286.81 738.58,-274.48 758.26,-264.26"/>
<polygon fill="midnightblue" stroke="midnightblue" points="759.96,-267.32 767.19,-259.58 756.71,-261.12 759.96,-267.32"/>
</g>
<!-- Node19 -->
<g id="node19" class="node">
<title>Node19</title>
<g id="a_node19"><a xlink:href="../../dc/d8f/structAutocompleteMatch.html#a397a1c9814c5f017e7928621456f65ba" target="_top" xlink:title=" ">
<polygon fill="white" stroke="black" points="741,-49.5 741,-79.5 851,-79.5 851,-49.5 741,-49.5"/>
<text text-anchor="start" x="749" y="-67.5" font-family="Helvetica,sans-Serif" font-size="10.00">AutocompleteMatch::</text>
<text text-anchor="middle" x="796" y="-56.5" font-family="Helvetica,sans-Serif" font-size="10.00">GetAdditionalInfo</text>
</a>
</g>
</g>
<!-- Node18&#45;&gt;Node19 -->
<g id="edge20" class="edge">
<title>Node18&#45;&gt;Node19</title>
<path fill="none" stroke="midnightblue" d="M672.86,-64.5C691.07,-64.5 711.71,-64.5 730.77,-64.5"/>
<polygon fill="midnightblue" stroke="midnightblue" points="730.87,-68 740.87,-64.5 730.87,-61 730.87,-68"/>
</g>
</g>
</svg>
