<?xml version="1.0" encoding="UTF-8" standalone="no"?>
<!DOCTYPE svg PUBLIC "-//W3C//DTD SVG 1.1//EN"
 "http://www.w3.org/Graphics/SVG/1.1/DTD/svg11.dtd">
<!-- Generated by graphviz version 2.43.0 (0)
 -->
<!-- Title: SearchProvider::IsTopMatchSearchWithURLInput Pages: 1 -->
<svg width="1387pt" height="117pt"
 viewBox="0.00 0.00 1387.00 116.50" xmlns="http://www.w3.org/2000/svg" xmlns:xlink="http://www.w3.org/1999/xlink">
<g id="graph0" class="graph" transform="scale(1 1) rotate(0) translate(4 112.5)">
<title>SearchProvider::IsTopMatchSearchWithURLInput</title>
<polygon fill="white" stroke="transparent" points="-4,4 -4,-112.5 1383,-112.5 1383,4 -4,4"/>
<!-- Node1 -->
<g id="node1" class="node">
<title>Node1</title>
<g id="a_node1"><a xlink:title=" ">
<polygon fill="#bfbfbf" stroke="black" points="1239,-29 1239,-59 1379,-59 1379,-29 1239,-29"/>
<text text-anchor="start" x="1247" y="-47" font-family="Helvetica,sans-Serif" font-size="10.00">SearchProvider::IsTopMatch</text>
<text text-anchor="middle" x="1309" y="-36" font-family="Helvetica,sans-Serif" font-size="10.00">SearchWithURLInput</text>
</a>
</g>
</g>
<!-- Node2 -->
<g id="node2" class="node">
<title>Node2</title>
<g id="a_node2"><a xlink:href="../../d4/dee/classSearchProvider.html#a9616ba802ad8e814267f9e3eb5096006" target="_top" xlink:title=" ">
<polygon fill="white" stroke="black" points="1030,-34.5 1030,-53.5 1203,-53.5 1203,-34.5 1030,-34.5"/>
<text text-anchor="middle" x="1116.5" y="-41.5" font-family="Helvetica,sans-Serif" font-size="10.00">SearchProvider::EnforceConstraints</text>
</a>
</g>
</g>
<!-- Node1&#45;&gt;Node2 -->
<g id="edge1" class="edge">
<title>Node1&#45;&gt;Node2</title>
<path fill="none" stroke="midnightblue" d="M1228.77,-44C1220.33,-44 1211.72,-44 1203.21,-44"/>
<polygon fill="midnightblue" stroke="midnightblue" points="1228.96,-47.5 1238.96,-44 1228.96,-40.5 1228.96,-47.5"/>
</g>
<!-- Node3 -->
<g id="node3" class="node">
<title>Node3</title>
<g id="a_node3"><a xlink:href="../../d4/dee/classSearchProvider.html#a2069cdad12e1ef540aead34c19af5128" target="_top" xlink:title=" ">
<polygon fill="white" stroke="black" points="836,-34.5 836,-53.5 994,-53.5 994,-34.5 836,-34.5"/>
<text text-anchor="middle" x="915" y="-41.5" font-family="Helvetica,sans-Serif" font-size="10.00">SearchProvider::UpdateMatches</text>
</a>
</g>
</g>
<!-- Node2&#45;&gt;Node3 -->
<g id="edge2" class="edge">
<title>Node2&#45;&gt;Node3</title>
<path fill="none" stroke="midnightblue" d="M1019.71,-44C1011.14,-44 1002.53,-44 994.13,-44"/>
<polygon fill="midnightblue" stroke="midnightblue" points="1019.74,-47.5 1029.74,-44 1019.74,-40.5 1019.74,-47.5"/>
</g>
<!-- Node4 -->
<g id="node4" class="node">
<title>Node4</title>
<g id="a_node4"><a xlink:href="../../d4/dee/classSearchProvider.html#ac19ab2526055b301d5a3dde7889895eb" target="_top" xlink:title=" ">
<polygon fill="white" stroke="black" points="657.5,-78 657.5,-108 799.5,-108 799.5,-78 657.5,-78"/>
<text text-anchor="start" x="665.5" y="-96" font-family="Helvetica,sans-Serif" font-size="10.00">SearchProvider::OnTemplate</text>
<text text-anchor="middle" x="728.5" y="-85" font-family="Helvetica,sans-Serif" font-size="10.00">URLServiceChanged</text>
</a>
</g>
</g>
<!-- Node3&#45;&gt;Node4 -->
<g id="edge3" class="edge">
<title>Node3&#45;&gt;Node4</title>
<path fill="none" stroke="midnightblue" d="M868.1,-56.19C843.28,-62.78 812.42,-70.98 786.12,-77.96"/>
<polygon fill="midnightblue" stroke="midnightblue" points="869.22,-59.51 877.99,-53.56 867.43,-52.75 869.22,-59.51"/>
</g>
<!-- Node5 -->
<g id="node5" class="node">
<title>Node5</title>
<g id="a_node5"><a xlink:href="../../d4/dee/classSearchProvider.html#a62390d46fb831c0919093798ab7bd52d" target="_top" xlink:title=" ">
<polygon fill="white" stroke="black" points="657,-29 657,-59 800,-59 800,-29 657,-29"/>
<text text-anchor="start" x="665" y="-47" font-family="Helvetica,sans-Serif" font-size="10.00">SearchProvider::OnURLLoad</text>
<text text-anchor="middle" x="728.5" y="-36" font-family="Helvetica,sans-Serif" font-size="10.00">Complete</text>
</a>
</g>
</g>
<!-- Node3&#45;&gt;Node5 -->
<g id="edge4" class="edge">
<title>Node3&#45;&gt;Node5</title>
<path fill="none" stroke="midnightblue" d="M825.75,-44C817.2,-44 808.6,-44 800.26,-44"/>
<polygon fill="midnightblue" stroke="midnightblue" points="825.76,-47.5 835.76,-44 825.76,-40.5 825.76,-47.5"/>
</g>
<!-- Node9 -->
<g id="node9" class="node">
<title>Node9</title>
<g id="a_node9"><a xlink:href="../../d4/dee/classSearchProvider.html#a9e8f7e367904d424ac875e501844e830" target="_top" xlink:title=" ">
<polygon fill="white" stroke="black" points="0,-12.5 0,-31.5 110,-31.5 110,-12.5 0,-12.5"/>
<text text-anchor="middle" x="55" y="-19.5" font-family="Helvetica,sans-Serif" font-size="10.00">SearchProvider::Start</text>
</a>
</g>
</g>
<!-- Node3&#45;&gt;Node9 -->
<g id="edge9" class="edge">
<title>Node3&#45;&gt;Node9</title>
<path fill="none" stroke="midnightblue" d="M867.29,-32.19C846.77,-27.41 822.31,-22.26 800,-19 687.33,-2.54 658.37,0 544.5,0 544.5,0 544.5,0 375.5,0 282.09,0 173.68,-9.47 110.19,-15.99"/>
<polygon fill="midnightblue" stroke="midnightblue" points="866.48,-35.6 877.02,-34.5 868.1,-28.79 866.48,-35.6"/>
</g>
<!-- Node6 -->
<g id="node6" class="node">
<title>Node6</title>
<g id="a_node6"><a xlink:href="../../d4/dee/classSearchProvider.html#ac6613acbe0b4e879590cdb0d562999c9" target="_top" xlink:title=" ">
<polygon fill="white" stroke="black" points="466,-29 466,-59 621,-59 621,-29 466,-29"/>
<text text-anchor="start" x="474" y="-47" font-family="Helvetica,sans-Serif" font-size="10.00">SearchProvider::CreateSuggest</text>
<text text-anchor="middle" x="543.5" y="-36" font-family="Helvetica,sans-Serif" font-size="10.00">Loader</text>
</a>
</g>
</g>
<!-- Node5&#45;&gt;Node6 -->
<g id="edge5" class="edge">
<title>Node5&#45;&gt;Node6</title>
<path fill="none" stroke="midnightblue" d="M646.53,-44C638.09,-44 629.53,-44 621.14,-44"/>
<polygon fill="midnightblue" stroke="midnightblue" points="646.75,-47.5 656.75,-44 646.75,-40.5 646.75,-47.5"/>
</g>
<!-- Node7 -->
<g id="node7" class="node">
<title>Node7</title>
<g id="a_node7"><a xlink:href="../../d4/dee/classSearchProvider.html#a02c8b00f5d4da0ce7e5de29658483914" target="_top" xlink:title=" ">
<polygon fill="white" stroke="black" points="323,-34.5 323,-53.5 430,-53.5 430,-34.5 323,-34.5"/>
<text text-anchor="middle" x="376.5" y="-41.5" font-family="Helvetica,sans-Serif" font-size="10.00">SearchProvider::Run</text>
</a>
</g>
</g>
<!-- Node6&#45;&gt;Node7 -->
<g id="edge6" class="edge">
<title>Node6&#45;&gt;Node7</title>
<path fill="none" stroke="midnightblue" d="M455.7,-44C447.1,-44 438.56,-44 430.47,-44"/>
<polygon fill="midnightblue" stroke="midnightblue" points="455.8,-47.5 465.8,-44 455.8,-40.5 455.8,-47.5"/>
</g>
<!-- Node8 -->
<g id="node8" class="node">
<title>Node8</title>
<g id="a_node8"><a xlink:href="../../d4/dee/classSearchProvider.html#af0c60cb234c815b05521a08434e7dcdc" target="_top" xlink:title=" ">
<polygon fill="white" stroke="black" points="146,-29 146,-59 287,-59 287,-29 146,-29"/>
<text text-anchor="start" x="154" y="-47" font-family="Helvetica,sans-Serif" font-size="10.00">SearchProvider::StartOrStop</text>
<text text-anchor="middle" x="216.5" y="-36" font-family="Helvetica,sans-Serif" font-size="10.00">SuggestQuery</text>
</a>
</g>
</g>
<!-- Node7&#45;&gt;Node8 -->
<g id="edge7" class="edge">
<title>Node7&#45;&gt;Node8</title>
<path fill="none" stroke="midnightblue" d="M312.74,-44C304.29,-44 295.59,-44 287.03,-44"/>
<polygon fill="midnightblue" stroke="midnightblue" points="312.89,-47.5 322.89,-44 312.89,-40.5 312.89,-47.5"/>
</g>
<!-- Node8&#45;&gt;Node9 -->
<g id="edge8" class="edge">
<title>Node8&#45;&gt;Node9</title>
<path fill="none" stroke="midnightblue" d="M135.47,-32.96C126.87,-31.77 118.27,-30.59 110.08,-29.46"/>
<polygon fill="midnightblue" stroke="midnightblue" points="135.16,-36.45 145.54,-34.35 136.11,-29.52 135.16,-36.45"/>
</g>
</g>
</svg>
