<?xml version="1.0" encoding="UTF-8" standalone="no"?>
<!DOCTYPE svg PUBLIC "-//W3C//DTD SVG 1.1//EN"
 "http://www.w3.org/Graphics/SVG/1.1/DTD/svg11.dtd">
<!-- Generated by graphviz version 2.43.0 (0)
 -->
<!-- Title: SearchProvider::IsTopMatchSearchWithURLInput Pages: 1 -->
<!--zoomable 188 -->
<svg id="main" version="1.1" xmlns="http://www.w3.org/2000/svg" xmlns:xlink="http://www.w3.org/1999/xlink" xml:space="preserve" onload="init(evt)">
<style type="text/css"><![CDATA[
.edge:hover path { stroke: red; }
.edge:hover polygon { stroke: red; fill: red; }
]]></style>
<script type="text/javascript"><![CDATA[
var edges = document.getElementsByTagName('g');
if (edges && edges.length) {
  for (var i=0;i<edges.length;i++) {
    if (edges[i].id.substr(0,4)=='edge') {
      edges[i].setAttribute('class','edge');
    }
  }
}
]]></script>
        <defs>
                <circle id="rim" cx="0" cy="0" r="7"/>
                <circle id="rim2" cx="0" cy="0" r="3.5"/>
                <g id="zoomPlus">
                        <use xlink:href="#rim" fill="#404040">
                                <set attributeName="fill" to="#808080" begin="zoomplus.mouseover" end="zoomplus.mouseout"/>
                        </use>
                        <path d="M-4,0h8M0,-4v8" fill="none" stroke="white" stroke-width="1.5" pointer-events="none"/>
                </g>
                <g id="zoomMin">
                        <use xlink:href="#rim" fill="#404040">
                                <set attributeName="fill" to="#808080" begin="zoomminus.mouseover" end="zoomminus.mouseout"/>
                        </use>
                        <path d="M-4,0h8" fill="none" stroke="white" stroke-width="1.5" pointer-events="none"/>
                </g>
                <g id="dirArrow">
                        <path fill="none" stroke="white" stroke-width="1.5" d="M0,-3.0v7 M-2.5,-0.5L0,-3.0L2.5,-0.5"/>
                </g>
               <g id="resetDef">
                       <use xlink:href="#rim2" fill="#404040">
                               <set attributeName="fill" to="#808080" begin="reset.mouseover" end="reset.mouseout"/>
                       </use>
               </g>
        </defs>

<script type="text/javascript">
var viewWidth = 699;
var viewHeight = 188;
var sectionId = 'dynsection-50';
</script>
<script xlink:href="../../svgpan.js"/>
<svg id="graph" class="graph">
<g id="viewport">
<title>SearchProvider::IsTopMatchSearchWithURLInput</title>
<polygon fill="white" stroke="transparent" points="-4,4 -4,-183.5 695,-183.5 695,4 -4,4"/>
<!-- Node1 -->
<g id="node1" class="node">
<title>Node1</title>
<g id="a_node1"><a xlink:title=" ">
<polygon fill="#bfbfbf" stroke="black" points="0,-44.5 0,-74.5 140,-74.5 140,-44.5 0,-44.5"/>
<text text-anchor="start" x="8" y="-62.5" font-family="Helvetica,sans-Serif" font-size="10.00">SearchProvider::IsTopMatch</text>
<text text-anchor="middle" x="70" y="-51.5" font-family="Helvetica,sans-Serif" font-size="10.00">SearchWithURLInput</text>
</a>
</g>
</g>
<!-- Node2 -->
<g id="node2" class="node">
<title>Node2</title>
<g id="a_node2"><a xlink:href="../../d4/dee/classSearchProvider.html#ae8cdcda63a3af46b9366dc1c0189ed39" target="_top" xlink:title=" ">
<polygon fill="white" stroke="black" points="176,-88.5 176,-118.5 307,-118.5 307,-88.5 176,-88.5"/>
<text text-anchor="start" x="184" y="-106.5" font-family="Helvetica,sans-Serif" font-size="10.00">SearchProvider::Calculate</text>
<text text-anchor="middle" x="241.5" y="-95.5" font-family="Helvetica,sans-Serif" font-size="10.00">RelevanceForVerbatim</text>
</a>
</g>
</g>
<!-- Node1&#45;&gt;Node2 -->
<g id="edge1" class="edge">
<title>Node1&#45;&gt;Node2</title>
<path fill="none" stroke="midnightblue" d="M128.86,-74.52C142.96,-78.18 158.17,-82.13 172.69,-85.9"/>
<polygon fill="midnightblue" stroke="midnightblue" points="172.06,-89.35 182.61,-88.47 173.82,-82.57 172.06,-89.35"/>
</g>
<!-- Node4 -->
<g id="node4" class="node">
<title>Node4</title>
<g id="a_node4"><a xlink:href="../../d9/df6/classAutocompleteInput.html#a5d6111d5ac18400cdf809820dfab9ab0" target="_top" xlink:title=" ">
<polygon fill="white" stroke="black" points="568,-99 568,-118 691,-118 691,-99 568,-99"/>
<text text-anchor="middle" x="629.5" y="-106" font-family="Helvetica,sans-Serif" font-size="10.00">AutocompleteInput::type</text>
</a>
</g>
</g>
<!-- Node1&#45;&gt;Node4 -->
<g id="edge6" class="edge">
<title>Node1&#45;&gt;Node4</title>
<path fill="none" stroke="midnightblue" d="M140.32,-56.79C231.05,-54.5 394.66,-54.74 532,-78.5 553.15,-82.16 576.12,-89.17 594.35,-95.5"/>
<polygon fill="midnightblue" stroke="midnightblue" points="593.35,-98.86 603.94,-98.92 595.7,-92.26 593.35,-98.86"/>
</g>
<!-- Node6 -->
<g id="node6" class="node">
<title>Node6</title>
<g id="a_node6"><a xlink:href="../../d3/d03/classAutocompleteResult.html#afd8f5fe15a4eca7f1d450eed07670a33" target="_top" xlink:title=" ">
<polygon fill="white" stroke="black" points="189,-0.5 189,-30.5 294,-30.5 294,-0.5 189,-0.5"/>
<text text-anchor="start" x="197" y="-18.5" font-family="Helvetica,sans-Serif" font-size="10.00">AutocompleteResult</text>
<text text-anchor="middle" x="241.5" y="-7.5" font-family="Helvetica,sans-Serif" font-size="10.00">::FindTopMatch</text>
</a>
</g>
</g>
<!-- Node1&#45;&gt;Node6 -->
<g id="edge5" class="edge">
<title>Node1&#45;&gt;Node6</title>
<path fill="none" stroke="midnightblue" d="M128.86,-44.48C144.98,-40.3 162.55,-35.73 178.88,-31.5"/>
<polygon fill="midnightblue" stroke="midnightblue" points="180.07,-34.8 188.86,-28.9 178.31,-28.03 180.07,-34.8"/>
</g>
<!-- Node3 -->
<g id="node3" class="node">
<title>Node3</title>
<g id="a_node3"><a xlink:href="../../d4/dee/classSearchProvider.html#afaf7fba69a6ef8f5178aeb072ab77c71" target="_top" xlink:title=" ">
<polygon fill="white" stroke="black" points="343,-138 343,-179 532,-179 532,-138 343,-138"/>
<text text-anchor="start" x="351" y="-167" font-family="Helvetica,sans-Serif" font-size="10.00">SearchProvider::Calculate</text>
<text text-anchor="start" x="351" y="-156" font-family="Helvetica,sans-Serif" font-size="10.00">RelevanceForVerbatimIgnoringKeyword</text>
<text text-anchor="middle" x="437.5" y="-145" font-family="Helvetica,sans-Serif" font-size="10.00">ModeState</text>
</a>
</g>
</g>
<!-- Node2&#45;&gt;Node3 -->
<g id="edge2" class="edge">
<title>Node2&#45;&gt;Node3</title>
<path fill="none" stroke="midnightblue" d="M295.51,-118.53C313.64,-123.67 334.36,-129.54 354.24,-135.18"/>
<polygon fill="midnightblue" stroke="midnightblue" points="353.34,-138.56 363.92,-137.92 355.25,-131.83 353.34,-138.56"/>
</g>
<!-- Node5 -->
<g id="node5" class="node">
<title>Node5</title>
<g id="a_node5"><a xlink:href="../../d1/de5/classSearchProvider_1_1Providers.html#a370181d55b7071f6cfef36b665746f5e" target="_top" xlink:title=" ">
<polygon fill="white" stroke="black" points="372,-88.5 372,-118.5 503,-118.5 503,-88.5 372,-88.5"/>
<text text-anchor="start" x="380" y="-106.5" font-family="Helvetica,sans-Serif" font-size="10.00">SearchProvider::Providers</text>
<text text-anchor="middle" x="437.5" y="-95.5" font-family="Helvetica,sans-Serif" font-size="10.00">::keyword_provider</text>
</a>
</g>
</g>
<!-- Node2&#45;&gt;Node5 -->
<g id="edge4" class="edge">
<title>Node2&#45;&gt;Node5</title>
<path fill="none" stroke="midnightblue" d="M307.1,-103.5C324.6,-103.5 343.68,-103.5 361.69,-103.5"/>
<polygon fill="midnightblue" stroke="midnightblue" points="361.85,-107 371.85,-103.5 361.85,-100 361.85,-107"/>
</g>
<!-- Node3&#45;&gt;Node4 -->
<g id="edge3" class="edge">
<title>Node3&#45;&gt;Node4</title>
<path fill="none" stroke="midnightblue" d="M516.6,-137.95C539.02,-132.05 562.73,-125.81 582.53,-120.6"/>
<polygon fill="midnightblue" stroke="midnightblue" points="583.42,-123.98 592.2,-118.05 581.64,-117.21 583.42,-123.98"/>
</g>
</g>
</svg>
        <g id="navigator" transform="translate(0 0)" fill="#404254">
                <rect fill="#f2f5e9" fill-opacity="0.5" stroke="#606060" stroke-width=".5" x="0" y="0" width="60" height="60"/>
                <use id="zoomplus" xlink:href="#zoomPlus" x="17" y="9" onmousedown="handleZoom(evt,'in')"/>
                <use id="zoomminus" xlink:href="#zoomMin" x="42" y="9" onmousedown="handleZoom(evt,'out')"/>
                <use id="reset" xlink:href="#resetDef" x="30" y="36" onmousedown="handleReset()"/>
                <g id="arrowUp" xlink:href="#dirArrow" transform="translate(30 24)" onmousedown="handlePan(0,-1)">
                  <use xlink:href="#rim" fill="#404040">
                        <set attributeName="fill" to="#808080" begin="arrowUp.mouseover" end="arrowUp.mouseout"/>
                  </use>
                  <path fill="none" stroke="white" stroke-width="1.5" d="M0,-3.0v7 M-2.5,-0.5L0,-3.0L2.5,-0.5"/>
                </g>
                <g id="arrowRight" xlink:href="#dirArrow" transform="rotate(90) translate(36 -43)" onmousedown="handlePan(1,0)">
                  <use xlink:href="#rim" fill="#404040">
                        <set attributeName="fill" to="#808080" begin="arrowRight.mouseover" end="arrowRight.mouseout"/>
                  </use>
                  <path fill="none" stroke="white" stroke-width="1.5" d="M0,-3.0v7 M-2.5,-0.5L0,-3.0L2.5,-0.5"/>
                </g>
                <g id="arrowDown" xlink:href="#dirArrow" transform="rotate(180) translate(-30 -48)" onmousedown="handlePan(0,1)">
                  <use xlink:href="#rim" fill="#404040">
                        <set attributeName="fill" to="#808080" begin="arrowDown.mouseover" end="arrowDown.mouseout"/>
                  </use>
                  <path fill="none" stroke="white" stroke-width="1.5" d="M0,-3.0v7 M-2.5,-0.5L0,-3.0L2.5,-0.5"/>
                </g>
                <g id="arrowLeft" xlink:href="#dirArrow" transform="rotate(270) translate(-36 17)" onmousedown="handlePan(-1,0)">
                  <use xlink:href="#rim" fill="#404040">
                        <set attributeName="fill" to="#808080" begin="arrowLeft.mouseover" end="arrowLeft.mouseout"/>
                  </use>
                  <path fill="none" stroke="white" stroke-width="1.5" d="M0,-3.0v7 M-2.5,-0.5L0,-3.0L2.5,-0.5"/>
                </g>
        </g>
        <svg viewBox="0 0 15 15" width="100%" height="30px" preserveAspectRatio="xMaxYMin meet">
         <g id="arrow_out" transform="scale(0.3 0.3)">
          <a xlink:href="classSearchProvider_aedea42d1148132da397d83b3b563967b_cgraph_org.svg" target="_base">
           <rect id="button" ry="5" rx="5" y="6" x="6" height="38" width="38"
                fill="#f2f5e9" fill-opacity="0.5" stroke="#606060" stroke-width="1.0"/>
           <path id="arrow"
             d="M 11.500037,31.436501 C 11.940474,20.09759 22.043105,11.32322 32.158766,21.979434 L 37.068811,17.246167 C 37.068811,17.246167 37.088388,32 37.088388,32 L 22.160133,31.978069 C 22.160133,31.978069 26.997745,27.140456 26.997745,27.140456 C 18.528582,18.264221 13.291696,25.230495 11.500037,31.436501 z"
             style="fill:#404040;"/>
          </a>
         </g>
        </svg>
</svg>
