<?xml version="1.0" encoding="UTF-8" standalone="no"?>
<!DOCTYPE svg PUBLIC "-//W3C//DTD SVG 1.1//EN"
 "http://www.w3.org/Graphics/SVG/1.1/DTD/svg11.dtd">
<!-- Generated by graphviz version 2.43.0 (0)
 -->
<!-- Title: SearchProvider::AddNavigationResultsToMatches Pages: 1 -->
<svg width="1052pt" height="1072pt"
 viewBox="0.00 0.00 1052.00 1071.50" xmlns="http://www.w3.org/2000/svg" xmlns:xlink="http://www.w3.org/1999/xlink">
<g id="graph0" class="graph" transform="scale(1 1) rotate(0) translate(4 1067.5)">
<title>SearchProvider::AddNavigationResultsToMatches</title>
<polygon fill="white" stroke="transparent" points="-4,4 -4,-1067.5 1048,-1067.5 1048,4 -4,4"/>
<!-- Node1 -->
<g id="node1" class="node">
<title>Node1</title>
<g id="a_node1"><a xlink:title=" ">
<polygon fill="#bfbfbf" stroke="black" points="0,-551.5 0,-581.5 153,-581.5 153,-551.5 0,-551.5"/>
<text text-anchor="start" x="8" y="-569.5" font-family="Helvetica,sans-Serif" font-size="10.00">SearchProvider::AddNavigation</text>
<text text-anchor="middle" x="76.5" y="-558.5" font-family="Helvetica,sans-Serif" font-size="10.00">ResultsToMatches</text>
</a>
</g>
</g>
<!-- Node2 -->
<g id="node2" class="node">
<title>Node2</title>
<g id="a_node2"><a xlink:href="../../dd/de9/classAutocompleteProvider.html#af9b076a9c701e51e385c5acd2dd344a8" target="_top" xlink:title=" ">
<polygon fill="white" stroke="black" points="200.5,-576.5 200.5,-606.5 313.5,-606.5 313.5,-576.5 200.5,-576.5"/>
<text text-anchor="start" x="208.5" y="-594.5" font-family="Helvetica,sans-Serif" font-size="10.00">AutocompleteProvider</text>
<text text-anchor="middle" x="257" y="-583.5" font-family="Helvetica,sans-Serif" font-size="10.00">::matches</text>
</a>
</g>
</g>
<!-- Node1&#45;&gt;Node2 -->
<g id="edge1" class="edge">
<title>Node1&#45;&gt;Node2</title>
<path fill="none" stroke="midnightblue" d="M153.2,-577.1C165.6,-578.84 178.35,-580.62 190.48,-582.32"/>
<polygon fill="midnightblue" stroke="midnightblue" points="190.1,-585.8 200.49,-583.73 191.07,-578.87 190.1,-585.8"/>
</g>
<!-- Node3 -->
<g id="node3" class="node">
<title>Node3</title>
<g id="a_node3"><a xlink:href="../../d4/dee/classSearchProvider.html#a2413b664cb548628ea5eba7e9e8cdc7e" target="_top" xlink:title=" ">
<polygon fill="white" stroke="black" points="189,-527.5 189,-557.5 325,-557.5 325,-527.5 189,-527.5"/>
<text text-anchor="start" x="197" y="-545.5" font-family="Helvetica,sans-Serif" font-size="10.00">SearchProvider::Navigation</text>
<text text-anchor="middle" x="257" y="-534.5" font-family="Helvetica,sans-Serif" font-size="10.00">ToMatch</text>
</a>
</g>
</g>
<!-- Node1&#45;&gt;Node3 -->
<g id="edge2" class="edge">
<title>Node1&#45;&gt;Node3</title>
<path fill="none" stroke="midnightblue" d="M153.2,-556.32C161.74,-555.17 170.44,-554 179,-552.85"/>
<polygon fill="midnightblue" stroke="midnightblue" points="179.5,-556.32 188.95,-551.52 178.57,-549.38 179.5,-556.32"/>
</g>
<!-- Node4 -->
<g id="node4" class="node">
<title>Node4</title>
<g id="a_node4"><a xlink:href="../../de/df5/structURLPrefix.html#af246383611236a058b2f2159b8236f0b" target="_top" xlink:title=" ">
<polygon fill="white" stroke="black" points="383.5,-1044 383.5,-1063 517.5,-1063 517.5,-1044 383.5,-1044"/>
<text text-anchor="middle" x="450.5" y="-1051" font-family="Helvetica,sans-Serif" font-size="10.00">URLPrefix::BestURLPrefix</text>
</a>
</g>
</g>
<!-- Node3&#45;&gt;Node4 -->
<g id="edge3" class="edge">
<title>Node3&#45;&gt;Node4</title>
<path fill="none" stroke="midnightblue" d="M314.53,-557.6C318.51,-560.36 322.09,-563.63 325,-567.5 387.6,-650.66 292.51,-956.12 361,-1034.5 364.75,-1038.79 369.21,-1042.25 374.11,-1045.02"/>
<polygon fill="midnightblue" stroke="midnightblue" points="372.79,-1048.26 383.33,-1049.3 375.74,-1041.92 372.79,-1048.26"/>
</g>
<!-- Node5 -->
<g id="node5" class="node">
<title>Node5</title>
<g id="a_node5"><a xlink:href="../../d0/ddc/classBaseSearchProvider.html#ac3371ee67c5f2c464fe439b5a513c366" target="_top" xlink:title=" ">
<polygon fill="white" stroke="black" points="397.5,-994.5 397.5,-1024.5 503.5,-1024.5 503.5,-994.5 397.5,-994.5"/>
<text text-anchor="start" x="405.5" y="-1012.5" font-family="Helvetica,sans-Serif" font-size="10.00">BaseSearchProvider</text>
<text text-anchor="middle" x="450.5" y="-1001.5" font-family="Helvetica,sans-Serif" font-size="10.00">::client</text>
</a>
</g>
</g>
<!-- Node3&#45;&gt;Node5 -->
<g id="edge4" class="edge">
<title>Node3&#45;&gt;Node5</title>
<path fill="none" stroke="midnightblue" d="M314.49,-557.63C318.48,-560.38 322.07,-563.64 325,-567.5 381.41,-641.73 301.23,-913.95 361,-985.5 367.88,-993.74 377.28,-999.3 387.39,-1003.03"/>
<polygon fill="midnightblue" stroke="midnightblue" points="386.66,-1006.47 397.25,-1006.07 388.72,-999.78 386.66,-1006.47"/>
</g>
<!-- Node6 -->
<g id="node6" class="node">
<title>Node6</title>
<g id="a_node6"><a xlink:href="../../da/d24/classSearchSuggestionParser_1_1Result.html#a2699cbcbd147f9f81b0efecb51ab6f4a" target="_top" xlink:title=" ">
<polygon fill="white" stroke="black" points="388,-945.5 388,-975.5 513,-975.5 513,-945.5 388,-945.5"/>
<text text-anchor="start" x="396" y="-963.5" font-family="Helvetica,sans-Serif" font-size="10.00">SearchSuggestionParser</text>
<text text-anchor="middle" x="450.5" y="-952.5" font-family="Helvetica,sans-Serif" font-size="10.00">::Result::deletion_url</text>
</a>
</g>
</g>
<!-- Node3&#45;&gt;Node6 -->
<g id="edge5" class="edge">
<title>Node3&#45;&gt;Node6</title>
<path fill="none" stroke="midnightblue" d="M314.45,-557.66C318.44,-560.41 322.05,-563.66 325,-567.5 375.22,-632.82 307.82,-873.57 361,-936.5 365.8,-942.18 371.8,-946.59 378.4,-950"/>
<polygon fill="midnightblue" stroke="midnightblue" points="377.15,-953.28 387.72,-954.06 379.95,-946.86 377.15,-953.28"/>
</g>
<!-- Node7 -->
<g id="node7" class="node">
<title>Node7</title>
<g id="a_node7"><a xlink:href="../../dd/d0f/classSearchSuggestionParser_1_1NavigationResult.html#ab26a82291ee63884a77d0fa0416f52e9" target="_top" xlink:title=" ">
<polygon fill="white" stroke="black" points="375,-896.5 375,-926.5 526,-926.5 526,-896.5 375,-896.5"/>
<text text-anchor="start" x="383" y="-914.5" font-family="Helvetica,sans-Serif" font-size="10.00">SearchSuggestionParser</text>
<text text-anchor="middle" x="450.5" y="-903.5" font-family="Helvetica,sans-Serif" font-size="10.00">::NavigationResult::description</text>
</a>
</g>
</g>
<!-- Node3&#45;&gt;Node7 -->
<g id="edge6" class="edge">
<title>Node3&#45;&gt;Node7</title>
<path fill="none" stroke="midnightblue" d="M314.39,-557.71C318.39,-560.45 322.02,-563.68 325,-567.5 413.07,-680.31 267.82,-778.87 361,-887.5 362.72,-889.51 364.6,-891.36 366.59,-893.06"/>
<polygon fill="midnightblue" stroke="midnightblue" points="364.66,-895.98 374.84,-898.92 368.71,-890.27 364.66,-895.98"/>
</g>
<!-- Node8 -->
<g id="node8" class="node">
<title>Node8</title>
<g id="a_node8"><a xlink:href="../../dd/d0f/classSearchSuggestionParser_1_1NavigationResult.html#a1cd7c3622838bec84aed9ea525312471" target="_top" xlink:title=" ">
<polygon fill="white" stroke="black" points="361,-847.5 361,-877.5 540,-877.5 540,-847.5 361,-847.5"/>
<text text-anchor="start" x="369" y="-865.5" font-family="Helvetica,sans-Serif" font-size="10.00">SearchSuggestionParser</text>
<text text-anchor="middle" x="450.5" y="-854.5" font-family="Helvetica,sans-Serif" font-size="10.00">::NavigationResult::description_class</text>
</a>
</g>
</g>
<!-- Node3&#45;&gt;Node8 -->
<g id="edge7" class="edge">
<title>Node3&#45;&gt;Node8</title>
<path fill="none" stroke="midnightblue" d="M313.99,-557.57C318.14,-560.34 321.9,-563.62 325,-567.5 400.72,-662.52 280.97,-747.08 361,-838.5 361.64,-839.23 362.3,-839.95 362.99,-840.64"/>
<polygon fill="midnightblue" stroke="midnightblue" points="361.01,-843.55 370.93,-847.28 365.5,-838.18 361.01,-843.55"/>
</g>
<!-- Node9 -->
<g id="node9" class="node">
<title>Node9</title>
<g id="a_node9"><a xlink:href="../../dd/d0f/classSearchSuggestionParser_1_1NavigationResult.html#a351e3ad5e3f5818e8fe3c1f35e4f36f5" target="_top" xlink:title=" ">
<polygon fill="white" stroke="black" points="370,-798.5 370,-828.5 531,-828.5 531,-798.5 370,-798.5"/>
<text text-anchor="start" x="378" y="-816.5" font-family="Helvetica,sans-Serif" font-size="10.00">SearchSuggestionParser</text>
<text text-anchor="middle" x="450.5" y="-805.5" font-family="Helvetica,sans-Serif" font-size="10.00">::NavigationResult::formatted_url</text>
</a>
</g>
</g>
<!-- Node3&#45;&gt;Node9 -->
<g id="edge8" class="edge">
<title>Node3&#45;&gt;Node9</title>
<path fill="none" stroke="midnightblue" d="M313.87,-557.66C318.05,-560.41 321.85,-563.66 325,-567.5 388.16,-644.41 294.75,-714.24 361,-788.5 362.06,-789.69 363.18,-790.83 364.34,-791.91"/>
<polygon fill="midnightblue" stroke="midnightblue" points="362.57,-794.97 372.62,-798.33 366.86,-789.44 362.57,-794.97"/>
</g>
<!-- Node10 -->
<g id="node10" class="node">
<title>Node10</title>
<g id="a_node10"><a xlink:href="../../d9/df6/classAutocompleteInput.html#a71cbe5d008493b29bf38ab67d34268a6" target="_top" xlink:title=" ">
<polygon fill="white" stroke="black" points="374.5,-738 374.5,-779 526.5,-779 526.5,-738 374.5,-738"/>
<text text-anchor="start" x="382.5" y="-767" font-family="Helvetica,sans-Serif" font-size="10.00">AutocompleteInput::</text>
<text text-anchor="start" x="382.5" y="-756" font-family="Helvetica,sans-Serif" font-size="10.00">FormattedStringWithEquivalent</text>
<text text-anchor="middle" x="450.5" y="-745" font-family="Helvetica,sans-Serif" font-size="10.00">Meaning</text>
</a>
</g>
</g>
<!-- Node3&#45;&gt;Node10 -->
<g id="edge9" class="edge">
<title>Node3&#45;&gt;Node10</title>
<path fill="none" stroke="midnightblue" d="M313.29,-557.69C317.64,-560.43 321.64,-563.67 325,-567.5 371.93,-620.98 314.59,-669.56 361,-723.5 363.65,-726.58 366.61,-729.4 369.8,-731.96"/>
<polygon fill="midnightblue" stroke="midnightblue" points="367.94,-734.94 378.13,-737.85 371.98,-729.22 367.94,-734.94"/>
</g>
<!-- Node18 -->
<g id="node18" class="node">
<title>Node18</title>
<g id="a_node18"><a xlink:href="../../d9/df6/classAutocompleteInput.html#ac055dacf90a052c92e2bfe5c01328a95" target="_top" xlink:title=" ">
<polygon fill="white" stroke="black" points="766.5,-661 766.5,-680 887.5,-680 887.5,-661 766.5,-661"/>
<text text-anchor="middle" x="827" y="-668" font-family="Helvetica,sans-Serif" font-size="10.00">AutocompleteInput::text</text>
</a>
</g>
</g>
<!-- Node3&#45;&gt;Node18 -->
<g id="edge34" class="edge">
<title>Node3&#45;&gt;Node18</title>
<path fill="none" stroke="midnightblue" d="M312.41,-557.5C317.06,-560.29 321.36,-563.59 325,-567.5 363.79,-609.21 315.42,-656.35 361,-690.5 423.55,-737.37 657.12,-701.98 767.5,-681.89"/>
<polygon fill="midnightblue" stroke="midnightblue" points="768.27,-685.31 777.47,-680.06 767.01,-678.42 768.27,-685.31"/>
</g>
<!-- Node20 -->
<g id="node20" class="node">
<title>Node20</title>
<g id="a_node20"><a xlink:href="../../da/d24/classSearchSuggestionParser_1_1Result.html#aa41b7714d728548393f2377a4e81bb15" target="_top" xlink:title=" ">
<polygon fill="white" stroke="black" points="388,-650.5 388,-680.5 513,-680.5 513,-650.5 388,-650.5"/>
<text text-anchor="start" x="396" y="-668.5" font-family="Helvetica,sans-Serif" font-size="10.00">SearchSuggestionParser</text>
<text text-anchor="middle" x="450.5" y="-657.5" font-family="Helvetica,sans-Serif" font-size="10.00">::Result::from_keyword</text>
</a>
</g>
</g>
<!-- Node3&#45;&gt;Node20 -->
<g id="edge20" class="edge">
<title>Node3&#45;&gt;Node20</title>
<path fill="none" stroke="midnightblue" d="M310.75,-557.62C315.9,-560.39 320.77,-563.66 325,-567.5 352.07,-592.1 332.83,-618.18 361,-641.5 366.19,-645.8 372.08,-649.33 378.31,-652.23"/>
<polygon fill="midnightblue" stroke="midnightblue" points="377.03,-655.49 387.62,-656.05 379.69,-649.02 377.03,-655.49"/>
</g>
<!-- Node21 -->
<g id="node21" class="node">
<title>Node21</title>
<g id="a_node21"><a xlink:href="../../d1/de5/classSearchProvider_1_1Providers.html#a3da72423a9828f236395060b83cbf0eb" target="_top" xlink:title=" ">
<polygon fill="white" stroke="black" points="384,-601.5 384,-631.5 517,-631.5 517,-601.5 384,-601.5"/>
<text text-anchor="start" x="392" y="-619.5" font-family="Helvetica,sans-Serif" font-size="10.00">SearchProvider::Providers</text>
<text text-anchor="middle" x="450.5" y="-608.5" font-family="Helvetica,sans-Serif" font-size="10.00">::GetKeywordProviderURL</text>
</a>
</g>
</g>
<!-- Node3&#45;&gt;Node21 -->
<g id="edge21" class="edge">
<title>Node3&#45;&gt;Node21</title>
<path fill="none" stroke="midnightblue" d="M303.01,-557.52C310.49,-560.52 318.07,-563.87 325,-567.5 342.26,-576.53 343.34,-584.28 361,-592.5 365.28,-594.5 369.76,-596.35 374.34,-598.07"/>
<polygon fill="midnightblue" stroke="midnightblue" points="373.23,-601.39 383.83,-601.42 375.56,-594.79 373.23,-601.39"/>
</g>
<!-- Node22 -->
<g id="node22" class="node">
<title>Node22</title>
<g id="a_node22"><a xlink:href="../../d9/df6/classAutocompleteInput.html#a62c7e3f246976745ef4ac1c7cd72faaa" target="_top" xlink:title=" ">
<polygon fill="white" stroke="black" points="398.5,-552.5 398.5,-582.5 502.5,-582.5 502.5,-552.5 398.5,-552.5"/>
<text text-anchor="start" x="406.5" y="-570.5" font-family="Helvetica,sans-Serif" font-size="10.00">AutocompleteInput::</text>
<text text-anchor="middle" x="450.5" y="-559.5" font-family="Helvetica,sans-Serif" font-size="10.00">HasHTTPScheme</text>
</a>
</g>
</g>
<!-- Node3&#45;&gt;Node22 -->
<g id="edge22" class="edge">
<title>Node3&#45;&gt;Node22</title>
<path fill="none" stroke="midnightblue" d="M325.25,-551.28C345.81,-553.96 368.29,-556.9 388.42,-559.53"/>
<polygon fill="midnightblue" stroke="midnightblue" points="388.03,-563 398.4,-560.83 388.94,-556.06 388.03,-563"/>
</g>
<!-- Node23 -->
<g id="node23" class="node">
<title>Node23</title>
<g id="a_node23"><a xlink:href="../../da/d24/classSearchSuggestionParser_1_1Result.html#a270bdcffe5909d75f050220d759ab24b" target="_top" xlink:title=" ">
<polygon fill="white" stroke="black" points="387,-503.5 387,-533.5 514,-533.5 514,-503.5 387,-503.5"/>
<text text-anchor="start" x="395" y="-521.5" font-family="Helvetica,sans-Serif" font-size="10.00">SearchSuggestionParser</text>
<text text-anchor="middle" x="450.5" y="-510.5" font-family="Helvetica,sans-Serif" font-size="10.00">::Result::match_contents</text>
</a>
</g>
</g>
<!-- Node3&#45;&gt;Node23 -->
<g id="edge23" class="edge">
<title>Node3&#45;&gt;Node23</title>
<path fill="none" stroke="midnightblue" d="M325.25,-534.07C341.85,-531.99 359.7,-529.75 376.56,-527.64"/>
<polygon fill="midnightblue" stroke="midnightblue" points="377.42,-531.06 386.91,-526.34 376.55,-524.12 377.42,-531.06"/>
</g>
<!-- Node24 -->
<g id="node24" class="node">
<title>Node24</title>
<g id="a_node24"><a xlink:href="../../da/d24/classSearchSuggestionParser_1_1Result.html#a0893f631c23e8d2dda9db5eeb854e759" target="_top" xlink:title=" ">
<polygon fill="white" stroke="black" points="373,-454.5 373,-484.5 528,-484.5 528,-454.5 373,-454.5"/>
<text text-anchor="start" x="381" y="-472.5" font-family="Helvetica,sans-Serif" font-size="10.00">SearchSuggestionParser</text>
<text text-anchor="middle" x="450.5" y="-461.5" font-family="Helvetica,sans-Serif" font-size="10.00">::Result::match_contents_class</text>
</a>
</g>
</g>
<!-- Node3&#45;&gt;Node24 -->
<g id="edge24" class="edge">
<title>Node3&#45;&gt;Node24</title>
<path fill="none" stroke="midnightblue" d="M287.21,-527.35C307.54,-517.19 335.48,-503.98 361,-494.5 367.44,-492.11 374.21,-489.82 381.02,-487.66"/>
<polygon fill="midnightblue" stroke="midnightblue" points="382.46,-490.87 390.99,-484.59 380.4,-484.18 382.46,-490.87"/>
</g>
<!-- Node25 -->
<g id="node25" class="node">
<title>Node25</title>
<g id="a_node25"><a xlink:href="../../d9/df6/classAutocompleteInput.html#ac81e31d82e4da3a4b8ea3c37bb575dcc" target="_top" xlink:title=" ">
<polygon fill="white" stroke="black" points="380.5,-405.5 380.5,-435.5 520.5,-435.5 520.5,-405.5 380.5,-405.5"/>
<text text-anchor="start" x="388.5" y="-423.5" font-family="Helvetica,sans-Serif" font-size="10.00">AutocompleteInput::</text>
<text text-anchor="middle" x="450.5" y="-412.5" font-family="Helvetica,sans-Serif" font-size="10.00">prevent_inline_autocomplete</text>
</a>
</g>
</g>
<!-- Node3&#45;&gt;Node25 -->
<g id="edge25" class="edge">
<title>Node3&#45;&gt;Node25</title>
<path fill="none" stroke="midnightblue" d="M269.97,-527.33C287.63,-505.96 322.74,-467.17 361,-445.5 364.94,-443.27 369.08,-441.23 373.35,-439.36"/>
<polygon fill="midnightblue" stroke="midnightblue" points="374.87,-442.52 382.84,-435.54 372.25,-436.03 374.87,-442.52"/>
</g>
<!-- Node26 -->
<g id="node26" class="node">
<title>Node26</title>
<g id="a_node26"><a xlink:href="../../da/d24/classSearchSuggestionParser_1_1Result.html#ad22dc49110314d33933218f2c70b60e5" target="_top" xlink:title=" ">
<polygon fill="white" stroke="black" points="388,-345 388,-386 513,-386 513,-345 388,-345"/>
<text text-anchor="start" x="396" y="-374" font-family="Helvetica,sans-Serif" font-size="10.00">SearchSuggestionParser</text>
<text text-anchor="start" x="396" y="-363" font-family="Helvetica,sans-Serif" font-size="10.00">::Result::received_after</text>
<text text-anchor="middle" x="450.5" y="-352" font-family="Helvetica,sans-Serif" font-size="10.00">_last_keystroke</text>
</a>
</g>
</g>
<!-- Node3&#45;&gt;Node26 -->
<g id="edge26" class="edge">
<title>Node3&#45;&gt;Node26</title>
<path fill="none" stroke="midnightblue" d="M264.75,-527.34C278.59,-497.91 312.97,-432.76 361,-396.5 366.41,-392.41 372.41,-388.84 378.65,-385.71"/>
<polygon fill="midnightblue" stroke="midnightblue" points="380.31,-388.8 387.94,-381.45 377.39,-382.44 380.31,-388.8"/>
</g>
<!-- Node27 -->
<g id="node27" class="node">
<title>Node27</title>
<g id="a_node27"><a xlink:href="../../dc/d8f/structAutocompleteMatch.html#a5d7cedce0c1a95499420678e37ce8262" target="_top" xlink:title=" ">
<polygon fill="white" stroke="black" points="590,-249.5 590,-279.5 700,-279.5 700,-249.5 590,-249.5"/>
<text text-anchor="start" x="598" y="-267.5" font-family="Helvetica,sans-Serif" font-size="10.00">AutocompleteMatch::</text>
<text text-anchor="middle" x="645" y="-256.5" font-family="Helvetica,sans-Serif" font-size="10.00">RecordAdditionalInfo</text>
</a>
</g>
</g>
<!-- Node3&#45;&gt;Node27 -->
<g id="edge27" class="edge">
<title>Node3&#45;&gt;Node27</title>
<path fill="none" stroke="midnightblue" d="M260.83,-527.41C268.9,-488.82 295.79,-386.02 361,-335.5 425.29,-285.69 461.37,-318.27 540,-297.5 556.46,-293.15 574.17,-287.79 590.24,-282.67"/>
<polygon fill="midnightblue" stroke="midnightblue" points="591.56,-285.92 600,-279.51 589.41,-279.26 591.56,-285.92"/>
</g>
<!-- Node28 -->
<g id="node28" class="node">
<title>Node28</title>
<g id="a_node28"><a xlink:href="../../da/d24/classSearchSuggestionParser_1_1Result.html#a20e6d46711304b0531b23c02cdbf223f" target="_top" xlink:title=" ">
<polygon fill="white" stroke="black" points="388,-257.5 388,-287.5 513,-287.5 513,-257.5 388,-257.5"/>
<text text-anchor="start" x="396" y="-275.5" font-family="Helvetica,sans-Serif" font-size="10.00">SearchSuggestionParser</text>
<text text-anchor="middle" x="450.5" y="-264.5" font-family="Helvetica,sans-Serif" font-size="10.00">::Result::relevance</text>
</a>
</g>
</g>
<!-- Node3&#45;&gt;Node28 -->
<g id="edge28" class="edge">
<title>Node3&#45;&gt;Node28</title>
<path fill="none" stroke="midnightblue" d="M260.15,-527.41C266.91,-485.51 291.58,-366.67 361,-302.5 366.12,-297.76 372.02,-293.77 378.29,-290.41"/>
<polygon fill="midnightblue" stroke="midnightblue" points="380.18,-293.39 387.69,-285.92 377.16,-287.07 380.18,-293.39"/>
</g>
<!-- Node29 -->
<g id="node29" class="node">
<title>Node29</title>
<g id="a_node29"><a xlink:href="../../da/d24/classSearchSuggestionParser_1_1Result.html#ad4dd1efdfb4f4334211d08d4fd4677c2" target="_top" xlink:title=" ">
<polygon fill="white" stroke="black" points="388,-197 388,-238 513,-238 513,-197 388,-197"/>
<text text-anchor="start" x="396" y="-226" font-family="Helvetica,sans-Serif" font-size="10.00">SearchSuggestionParser</text>
<text text-anchor="start" x="396" y="-215" font-family="Helvetica,sans-Serif" font-size="10.00">::Result::relevance_from</text>
<text text-anchor="middle" x="450.5" y="-204" font-family="Helvetica,sans-Serif" font-size="10.00">_server</text>
</a>
</g>
</g>
<!-- Node3&#45;&gt;Node29 -->
<g id="edge29" class="edge">
<title>Node3&#45;&gt;Node29</title>
<path fill="none" stroke="midnightblue" d="M258.85,-527.3C262.33,-479.39 279.54,-329.95 361,-248.5 366.14,-243.36 372.19,-239.06 378.66,-235.48"/>
<polygon fill="midnightblue" stroke="midnightblue" points="380.29,-238.58 387.72,-231.02 377.2,-232.3 380.29,-238.58"/>
</g>
<!-- Node30 -->
<g id="node30" class="node">
<title>Node30</title>
<g id="a_node30"><a xlink:href="../../d0/ddc/classBaseSearchProvider.html#ac542bd032a25a572591d96f4a5559508" target="_top" xlink:title=" ">
<polygon fill="white" stroke="black" points="397.5,-147.5 397.5,-177.5 503.5,-177.5 503.5,-147.5 397.5,-147.5"/>
<text text-anchor="start" x="405.5" y="-165.5" font-family="Helvetica,sans-Serif" font-size="10.00">BaseSearchProvider</text>
<text text-anchor="middle" x="450.5" y="-154.5" font-family="Helvetica,sans-Serif" font-size="10.00">::SetDeletionURL</text>
</a>
</g>
</g>
<!-- Node3&#45;&gt;Node30 -->
<g id="edge30" class="edge">
<title>Node3&#45;&gt;Node30</title>
<path fill="none" stroke="midnightblue" d="M257.56,-527.12C256.88,-472.47 262.18,-285.62 361,-187.5 368.38,-180.17 377.74,-174.95 387.59,-171.24"/>
<polygon fill="midnightblue" stroke="midnightblue" points="388.72,-174.56 397.14,-168.13 386.55,-167.9 388.72,-174.56"/>
</g>
<!-- Node32 -->
<g id="node32" class="node">
<title>Node32</title>
<g id="a_node32"><a xlink:href="../../da/d24/classSearchSuggestionParser_1_1Result.html#a1bcdc16b417ded0ec0151d9b72e7143e" target="_top" xlink:title=" ">
<polygon fill="white" stroke="black" points="388,-98.5 388,-128.5 513,-128.5 513,-98.5 388,-98.5"/>
<text text-anchor="start" x="396" y="-116.5" font-family="Helvetica,sans-Serif" font-size="10.00">SearchSuggestionParser</text>
<text text-anchor="middle" x="450.5" y="-105.5" font-family="Helvetica,sans-Serif" font-size="10.00">::Result::subtypes</text>
</a>
</g>
</g>
<!-- Node3&#45;&gt;Node32 -->
<g id="edge33" class="edge">
<title>Node3&#45;&gt;Node32</title>
<path fill="none" stroke="midnightblue" d="M259.81,-527.37C268.05,-460.87 304.12,-195.28 361,-137.5 365.95,-132.47 371.84,-128.46 378.2,-125.27"/>
<polygon fill="midnightblue" stroke="midnightblue" points="379.98,-128.32 387.79,-121.16 377.22,-121.88 379.98,-128.32"/>
</g>
<!-- Node33 -->
<g id="node33" class="node">
<title>Node33</title>
<g id="a_node33"><a xlink:href="../../da/d24/classSearchSuggestionParser_1_1Result.html#a2aa6525ced72704a361354f6b274112f" target="_top" xlink:title=" ">
<polygon fill="white" stroke="black" points="388,-49.5 388,-79.5 513,-79.5 513,-49.5 388,-49.5"/>
<text text-anchor="start" x="396" y="-67.5" font-family="Helvetica,sans-Serif" font-size="10.00">SearchSuggestionParser</text>
<text text-anchor="middle" x="450.5" y="-56.5" font-family="Helvetica,sans-Serif" font-size="10.00">::Result::type</text>
</a>
</g>
</g>
<!-- Node3&#45;&gt;Node33 -->
<g id="edge35" class="edge">
<title>Node3&#45;&gt;Node33</title>
<path fill="none" stroke="midnightblue" d="M259.4,-527.03C266.19,-455.1 298.06,-154.12 361,-88.5 365.89,-83.41 371.74,-79.36 378.07,-76.14"/>
<polygon fill="midnightblue" stroke="midnightblue" points="379.84,-79.19 387.63,-72.01 377.06,-72.76 379.84,-79.19"/>
</g>
<!-- Node34 -->
<g id="node34" class="node">
<title>Node34</title>
<g id="a_node34"><a xlink:href="../../dd/d0f/classSearchSuggestionParser_1_1NavigationResult.html#a52c785e6d22b89fcf95baab7696af4fc" target="_top" xlink:title=" ">
<polygon fill="white" stroke="black" points="388,-0.5 388,-30.5 513,-30.5 513,-0.5 388,-0.5"/>
<text text-anchor="start" x="396" y="-18.5" font-family="Helvetica,sans-Serif" font-size="10.00">SearchSuggestionParser</text>
<text text-anchor="middle" x="450.5" y="-7.5" font-family="Helvetica,sans-Serif" font-size="10.00">::NavigationResult::url</text>
</a>
</g>
</g>
<!-- Node3&#45;&gt;Node34 -->
<g id="edge36" class="edge">
<title>Node3&#45;&gt;Node34</title>
<path fill="none" stroke="midnightblue" d="M259,-527.44C264.32,-451.7 291.74,-113.25 361,-39.5 366.02,-34.15 372.1,-29.96 378.69,-26.66"/>
<polygon fill="midnightblue" stroke="midnightblue" points="380.13,-29.86 387.95,-22.71 377.38,-23.42 380.13,-29.86"/>
</g>
<!-- Node11 -->
<g id="node11" class="node">
<title>Node11</title>
<g id="a_node11"><a xlink:href="../../d9/df6/classAutocompleteInput.html#a5e4baa54984f463b174191f60f0038aa" target="_top" xlink:title=" ">
<polygon fill="white" stroke="black" points="593,-781.5 593,-811.5 697,-811.5 697,-781.5 593,-781.5"/>
<text text-anchor="start" x="601" y="-799.5" font-family="Helvetica,sans-Serif" font-size="10.00">AutocompleteInput::</text>
<text text-anchor="middle" x="645" y="-788.5" font-family="Helvetica,sans-Serif" font-size="10.00">Parse</text>
</a>
</g>
</g>
<!-- Node10&#45;&gt;Node11 -->
<g id="edge10" class="edge">
<title>Node10&#45;&gt;Node11</title>
<path fill="none" stroke="midnightblue" d="M526.75,-773.36C545.26,-777.01 564.86,-780.88 582.63,-784.39"/>
<polygon fill="midnightblue" stroke="midnightblue" points="582.37,-787.9 592.86,-786.4 583.73,-781.03 582.37,-787.9"/>
</g>
<!-- Node12 -->
<g id="node12" class="node">
<title>Node12</title>
<g id="a_node12"><a xlink:href="../../d9/df6/classAutocompleteInput.html#a419d05e14c86f18c137fbb4057fedb04" target="_top" xlink:title=" ">
<polygon fill="white" stroke="black" points="775,-972.5 775,-1002.5 879,-1002.5 879,-972.5 775,-972.5"/>
<text text-anchor="start" x="783" y="-990.5" font-family="Helvetica,sans-Serif" font-size="10.00">AutocompleteInput::</text>
<text text-anchor="middle" x="827" y="-979.5" font-family="Helvetica,sans-Serif" font-size="10.00">canonicalized_url</text>
</a>
</g>
</g>
<!-- Node11&#45;&gt;Node12 -->
<g id="edge11" class="edge">
<title>Node11&#45;&gt;Node12</title>
<path fill="none" stroke="midnightblue" d="M651.37,-811.95C663.58,-844.82 696.57,-922.04 750,-963.5 754.69,-967.14 759.95,-970.24 765.45,-972.86"/>
<polygon fill="midnightblue" stroke="midnightblue" points="764.3,-976.18 774.87,-976.86 767.03,-969.74 764.3,-976.18"/>
</g>
<!-- Node13 -->
<g id="node13" class="node">
<title>Node13</title>
<g id="a_node13"><a xlink:href="../../d9/df6/classAutocompleteInput.html#a4390207a7b741fc348525b430c3c3e27" target="_top" xlink:title=" ">
<polygon fill="white" stroke="black" points="775,-923.5 775,-953.5 879,-953.5 879,-923.5 775,-923.5"/>
<text text-anchor="start" x="783" y="-941.5" font-family="Helvetica,sans-Serif" font-size="10.00">AutocompleteInput::</text>
<text text-anchor="middle" x="827" y="-930.5" font-family="Helvetica,sans-Serif" font-size="10.00">desired_tld</text>
</a>
</g>
</g>
<!-- Node11&#45;&gt;Node13 -->
<g id="edge12" class="edge">
<title>Node11&#45;&gt;Node13</title>
<path fill="none" stroke="midnightblue" d="M655.27,-811.52C671.44,-836.52 707.21,-886.64 750,-914.5 754.71,-917.57 759.84,-920.27 765.14,-922.63"/>
<polygon fill="midnightblue" stroke="midnightblue" points="764.22,-926.04 774.8,-926.55 766.85,-919.55 764.22,-926.04"/>
</g>
<!-- Node14 -->
<g id="node14" class="node">
<title>Node14</title>
<g id="a_node14"><a xlink:href="../../db/df5/classAutocompleteSchemeClassifier.html#af5c27290677874e2772b285dda84fbf5" target="_top" xlink:title=" ">
<polygon fill="white" stroke="black" points="750,-874.5 750,-904.5 904,-904.5 904,-874.5 750,-874.5"/>
<text text-anchor="start" x="758" y="-892.5" font-family="Helvetica,sans-Serif" font-size="10.00">AutocompleteSchemeClassifier</text>
<text text-anchor="middle" x="827" y="-881.5" font-family="Helvetica,sans-Serif" font-size="10.00">::GetInputTypeForScheme</text>
</a>
</g>
</g>
<!-- Node11&#45;&gt;Node14 -->
<g id="edge13" class="edge">
<title>Node11&#45;&gt;Node14</title>
<path fill="none" stroke="midnightblue" d="M665.33,-811.74C685.5,-827.04 718.52,-850.46 750,-865.5 753.86,-867.35 757.9,-869.1 762.02,-870.75"/>
<polygon fill="midnightblue" stroke="midnightblue" points="761.12,-874.15 771.72,-874.42 763.6,-867.6 761.12,-874.15"/>
</g>
<!-- Node15 -->
<g id="node15" class="node">
<title>Node15</title>
<g id="a_node15"><a xlink:href="../../d9/df6/classAutocompleteInput.html#aafe7f25c093a4b15b084ee4ab7f49f1f" target="_top" xlink:title=" ">
<polygon fill="white" stroke="black" points="761,-825.5 761,-855.5 893,-855.5 893,-825.5 761,-825.5"/>
<text text-anchor="start" x="769" y="-843.5" font-family="Helvetica,sans-Serif" font-size="10.00">AutocompleteInput::</text>
<text text-anchor="middle" x="827" y="-832.5" font-family="Helvetica,sans-Serif" font-size="10.00">NumNonHostComponents</text>
</a>
</g>
</g>
<!-- Node11&#45;&gt;Node15 -->
<g id="edge14" class="edge">
<title>Node11&#45;&gt;Node15</title>
<path fill="none" stroke="midnightblue" d="M697.1,-808.99C714.98,-813.36 735.39,-818.35 754.62,-823.05"/>
<polygon fill="midnightblue" stroke="midnightblue" points="754,-826.5 764.55,-825.48 755.67,-819.7 754,-826.5"/>
</g>
<!-- Node16 -->
<g id="node16" class="node">
<title>Node16</title>
<g id="a_node16"><a xlink:href="../../d9/df6/classAutocompleteInput.html#a3ac662d726d6c8788dbcc199397e8ba5" target="_top" xlink:title=" ">
<polygon fill="white" stroke="black" points="940,-803.5 940,-833.5 1044,-833.5 1044,-803.5 940,-803.5"/>
<text text-anchor="start" x="948" y="-821.5" font-family="Helvetica,sans-Serif" font-size="10.00">AutocompleteInput::</text>
<text text-anchor="middle" x="992" y="-810.5" font-family="Helvetica,sans-Serif" font-size="10.00">parts</text>
</a>
</g>
</g>
<!-- Node11&#45;&gt;Node16 -->
<g id="edge16" class="edge">
<title>Node11&#45;&gt;Node16</title>
<path fill="none" stroke="midnightblue" d="M697.28,-799.77C759.19,-803.72 863.24,-810.35 929.44,-814.57"/>
<polygon fill="midnightblue" stroke="midnightblue" points="929.52,-818.09 939.72,-815.23 929.97,-811.1 929.52,-818.09"/>
</g>
<!-- Node17 -->
<g id="node17" class="node">
<title>Node17</title>
<g id="a_node17"><a xlink:href="../../d9/df6/classAutocompleteInput.html#a9f88d669e8aa433c507320111a7b38a8" target="_top" xlink:title=" ">
<polygon fill="white" stroke="black" points="775,-737.5 775,-767.5 879,-767.5 879,-737.5 775,-737.5"/>
<text text-anchor="start" x="783" y="-755.5" font-family="Helvetica,sans-Serif" font-size="10.00">AutocompleteInput::</text>
<text text-anchor="middle" x="827" y="-744.5" font-family="Helvetica,sans-Serif" font-size="10.00">scheme</text>
</a>
</g>
</g>
<!-- Node11&#45;&gt;Node17 -->
<g id="edge17" class="edge">
<title>Node11&#45;&gt;Node17</title>
<path fill="none" stroke="midnightblue" d="M697.1,-784.01C718.19,-778.85 742.81,-772.84 764.85,-767.45"/>
<polygon fill="midnightblue" stroke="midnightblue" points="765.89,-770.8 774.77,-765.02 764.23,-764 765.89,-770.8"/>
</g>
<!-- Node11&#45;&gt;Node18 -->
<g id="edge18" class="edge">
<title>Node11&#45;&gt;Node18</title>
<path fill="none" stroke="midnightblue" d="M659.83,-781.38C685.56,-753.39 739.17,-695.74 750,-689.5 753.88,-687.26 758.03,-685.29 762.3,-683.54"/>
<polygon fill="midnightblue" stroke="midnightblue" points="763.61,-686.79 771.81,-680.08 761.21,-680.22 763.61,-686.79"/>
</g>
<!-- Node19 -->
<g id="node19" class="node">
<title>Node19</title>
<g id="a_node19"><a xlink:href="../../d9/df6/classAutocompleteInput.html#a5d6111d5ac18400cdf809820dfab9ab0" target="_top" xlink:title=" ">
<polygon fill="white" stroke="black" points="765.5,-699 765.5,-718 888.5,-718 888.5,-699 765.5,-699"/>
<text text-anchor="middle" x="827" y="-706" font-family="Helvetica,sans-Serif" font-size="10.00">AutocompleteInput::type</text>
</a>
</g>
</g>
<!-- Node11&#45;&gt;Node19 -->
<g id="edge19" class="edge">
<title>Node11&#45;&gt;Node19</title>
<path fill="none" stroke="midnightblue" d="M664.85,-781.47C684.9,-766.15 718.06,-742.69 750,-728.5 756.37,-725.67 763.22,-723.17 770.1,-720.99"/>
<polygon fill="midnightblue" stroke="midnightblue" points="771.58,-724.21 780.17,-718.01 769.59,-717.49 771.58,-724.21"/>
</g>
<!-- Node15&#45;&gt;Node16 -->
<g id="edge15" class="edge">
<title>Node15&#45;&gt;Node16</title>
<path fill="none" stroke="midnightblue" d="M893.36,-831.68C905.35,-830.06 917.82,-828.38 929.69,-826.78"/>
<polygon fill="midnightblue" stroke="midnightblue" points="930.49,-830.2 939.93,-825.39 929.55,-823.26 930.49,-830.2"/>
</g>
<!-- Node30&#45;&gt;Node27 -->
<g id="edge32" class="edge">
<title>Node30&#45;&gt;Node27</title>
<path fill="none" stroke="midnightblue" d="M503.68,-173.86C515.92,-177.43 528.68,-181.94 540,-187.5 569.78,-202.12 599.8,-225.49 619.88,-242.65"/>
<polygon fill="midnightblue" stroke="midnightblue" points="617.75,-245.43 627.59,-249.35 622.34,-240.15 617.75,-245.43"/>
</g>
<!-- Node31 -->
<g id="node31" class="node">
<title>Node31</title>
<g id="a_node31"><a xlink:href="../../d5/dc7/classAutocompleteProviderClient.html#adba197163b53e433c2114b677ae4e412" target="_top" xlink:title=" ">
<polygon fill="white" stroke="black" points="576,-147.5 576,-177.5 714,-177.5 714,-147.5 576,-147.5"/>
<text text-anchor="start" x="584" y="-165.5" font-family="Helvetica,sans-Serif" font-size="10.00">AutocompleteProviderClient</text>
<text text-anchor="middle" x="645" y="-154.5" font-family="Helvetica,sans-Serif" font-size="10.00">::GetTemplateURLService</text>
</a>
</g>
</g>
<!-- Node30&#45;&gt;Node31 -->
<g id="edge31" class="edge">
<title>Node30&#45;&gt;Node31</title>
<path fill="none" stroke="midnightblue" d="M503.59,-162.5C522.73,-162.5 544.84,-162.5 565.77,-162.5"/>
<polygon fill="midnightblue" stroke="midnightblue" points="565.94,-166 575.94,-162.5 565.94,-159 565.94,-166"/>
</g>
</g>
</svg>
