<?xml version="1.0" encoding="UTF-8" standalone="no"?>
<!DOCTYPE svg PUBLIC "-//W3C//DTD SVG 1.1//EN"
 "http://www.w3.org/Graphics/SVG/1.1/DTD/svg11.dtd">
<!-- Generated by graphviz version 2.43.0 (0)
 -->
<!-- Title: OmniboxPedal::SynonymGroup::AddSynonym Pages: 1 -->
<svg width="855pt" height="137pt"
 viewBox="0.00 0.00 855.00 137.00" xmlns="http://www.w3.org/2000/svg" xmlns:xlink="http://www.w3.org/1999/xlink">
<g id="graph0" class="graph" transform="scale(1 1) rotate(0) translate(4 133)">
<title>OmniboxPedal::SynonymGroup::AddSynonym</title>
<polygon fill="white" stroke="transparent" points="-4,4 -4,-133 851,-133 851,4 -4,4"/>
<!-- Node1 -->
<g id="node1" class="node">
<title>Node1</title>
<g id="a_node1"><a xlink:title=" ">
<polygon fill="#bfbfbf" stroke="black" points="693,-49.5 693,-79.5 847,-79.5 847,-49.5 693,-49.5"/>
<text text-anchor="start" x="701" y="-67.5" font-family="Helvetica,sans-Serif" font-size="10.00">OmniboxPedal::SynonymGroup</text>
<text text-anchor="middle" x="770" y="-56.5" font-family="Helvetica,sans-Serif" font-size="10.00">::AddSynonym</text>
</a>
</g>
</g>
<!-- Node2 -->
<g id="node2" class="node">
<title>Node2</title>
<g id="a_node2"><a xlink:href="../../d4/de9/classOmniboxPedal.html#a48ac382e80ef8ac65683324f5e2ba874" target="_top" xlink:title=" ">
<polygon fill="white" stroke="black" points="514,-98.5 514,-128.5 657,-128.5 657,-98.5 514,-98.5"/>
<text text-anchor="start" x="522" y="-116.5" font-family="Helvetica,sans-Serif" font-size="10.00">OmniboxPedal::AddVerbatim</text>
<text text-anchor="middle" x="585.5" y="-105.5" font-family="Helvetica,sans-Serif" font-size="10.00">Sequence</text>
</a>
</g>
</g>
<!-- Node1&#45;&gt;Node2 -->
<g id="edge1" class="edge">
<title>Node1&#45;&gt;Node2</title>
<path fill="none" stroke="midnightblue" d="M702.9,-82.25C683.12,-87.56 661.63,-93.33 642.56,-98.45"/>
<polygon fill="midnightblue" stroke="midnightblue" points="704,-85.57 712.75,-79.6 702.19,-78.81 704,-85.57"/>
</g>
<!-- Node6 -->
<g id="node6" class="node">
<title>Node6</title>
<g id="a_node6"><a xlink:href="../../d6/dea/classOmniboxPedalProvider.html#a7be77a55ea5e7c489e501e616726a9fd" target="_top" xlink:title=" ">
<polygon fill="white" stroke="black" points="517,-49.5 517,-79.5 654,-79.5 654,-49.5 517,-49.5"/>
<text text-anchor="start" x="525" y="-67.5" font-family="Helvetica,sans-Serif" font-size="10.00">OmniboxPedalProvider</text>
<text text-anchor="middle" x="585.5" y="-56.5" font-family="Helvetica,sans-Serif" font-size="10.00">::LoadSynonymGroupString</text>
</a>
</g>
</g>
<!-- Node1&#45;&gt;Node6 -->
<g id="edge5" class="edge">
<title>Node1&#45;&gt;Node6</title>
<path fill="none" stroke="midnightblue" d="M682.88,-64.5C673.19,-64.5 663.42,-64.5 654.02,-64.5"/>
<polygon fill="midnightblue" stroke="midnightblue" points="682.93,-68 692.93,-64.5 682.93,-61 682.93,-68"/>
</g>
<!-- Node7 -->
<g id="node7" class="node">
<title>Node7</title>
<g id="a_node7"><a xlink:href="../../d6/dea/classOmniboxPedalProvider.html#a8eb768572bd7fcfb3af89d31ea6e423b" target="_top" xlink:title=" ">
<polygon fill="white" stroke="black" points="518,-0.5 518,-30.5 653,-30.5 653,-0.5 518,-0.5"/>
<text text-anchor="start" x="526" y="-18.5" font-family="Helvetica,sans-Serif" font-size="10.00">OmniboxPedalProvider</text>
<text text-anchor="middle" x="585.5" y="-7.5" font-family="Helvetica,sans-Serif" font-size="10.00">::LoadSynonymGroupValue</text>
</a>
</g>
</g>
<!-- Node1&#45;&gt;Node7 -->
<g id="edge7" class="edge">
<title>Node1&#45;&gt;Node7</title>
<path fill="none" stroke="midnightblue" d="M702.9,-46.75C683.12,-41.44 661.63,-35.67 642.56,-30.55"/>
<polygon fill="midnightblue" stroke="midnightblue" points="702.19,-50.19 712.75,-49.4 704,-43.43 702.19,-50.19"/>
</g>
<!-- Node3 -->
<g id="node3" class="node">
<title>Node3</title>
<g id="a_node3"><a xlink:href="../../d6/dea/classOmniboxPedalProvider.html#a0bd5fe3f161da3546849e4faa484ab3c" target="_top" xlink:title=" ">
<polygon fill="white" stroke="black" points="362,-49.5 362,-79.5 478,-79.5 478,-49.5 362,-49.5"/>
<text text-anchor="start" x="370" y="-67.5" font-family="Helvetica,sans-Serif" font-size="10.00">OmniboxPedalProvider</text>
<text text-anchor="middle" x="420" y="-56.5" font-family="Helvetica,sans-Serif" font-size="10.00">::LoadPedalConcepts</text>
</a>
</g>
</g>
<!-- Node2&#45;&gt;Node3 -->
<g id="edge2" class="edge">
<title>Node2&#45;&gt;Node3</title>
<path fill="none" stroke="midnightblue" d="M524.06,-95.39C506.68,-90.18 487.92,-84.55 471.22,-79.55"/>
<polygon fill="midnightblue" stroke="midnightblue" points="523.53,-98.88 534.11,-98.4 525.54,-92.18 523.53,-98.88"/>
</g>
<!-- Node4 -->
<g id="node4" class="node">
<title>Node4</title>
<g id="a_node4"><a xlink:href="../../d6/dea/classOmniboxPedalProvider.html#aac587d07bb182c56eefe728e7654c1ec" target="_top" xlink:title=" ">
<polygon fill="white" stroke="black" points="204,-49.5 204,-79.5 326,-79.5 326,-49.5 204,-49.5"/>
<text text-anchor="start" x="212" y="-67.5" font-family="Helvetica,sans-Serif" font-size="10.00">OmniboxPedalProvider</text>
<text text-anchor="middle" x="265" y="-56.5" font-family="Helvetica,sans-Serif" font-size="10.00">::OmniboxPedalProvider</text>
</a>
</g>
</g>
<!-- Node3&#45;&gt;Node4 -->
<g id="edge3" class="edge">
<title>Node3&#45;&gt;Node4</title>
<path fill="none" stroke="midnightblue" d="M351.39,-64.5C342.94,-64.5 334.35,-64.5 326.03,-64.5"/>
<polygon fill="midnightblue" stroke="midnightblue" points="351.59,-68 361.59,-64.5 351.59,-61 351.59,-68"/>
</g>
<!-- Node5 -->
<g id="node5" class="node">
<title>Node5</title>
<g id="a_node5"><a xlink:href="../../d5/dfc/classMockAutocompleteProviderClient.html#adbd27317c195d16980fdfd8722952006" target="_top" xlink:title=" ">
<polygon fill="white" stroke="black" points="0,-44 0,-85 168,-85 168,-44 0,-44"/>
<text text-anchor="start" x="8" y="-73" font-family="Helvetica,sans-Serif" font-size="10.00">MockAutocompleteProvider</text>
<text text-anchor="start" x="8" y="-62" font-family="Helvetica,sans-Serif" font-size="10.00">Client::MockAutocompleteProvider</text>
<text text-anchor="middle" x="84" y="-51" font-family="Helvetica,sans-Serif" font-size="10.00">Client</text>
</a>
</g>
</g>
<!-- Node4&#45;&gt;Node5 -->
<g id="edge4" class="edge">
<title>Node4&#45;&gt;Node5</title>
<path fill="none" stroke="midnightblue" d="M193.78,-64.5C185.38,-64.5 176.74,-64.5 168.17,-64.5"/>
<polygon fill="midnightblue" stroke="midnightblue" points="193.9,-68 203.9,-64.5 193.9,-61 193.9,-68"/>
</g>
<!-- Node6&#45;&gt;Node3 -->
<g id="edge6" class="edge">
<title>Node6&#45;&gt;Node3</title>
<path fill="none" stroke="midnightblue" d="M506.3,-64.5C496.78,-64.5 487.19,-64.5 478.06,-64.5"/>
<polygon fill="midnightblue" stroke="midnightblue" points="506.58,-68 516.58,-64.5 506.58,-61 506.58,-68"/>
</g>
<!-- Node7&#45;&gt;Node3 -->
<g id="edge8" class="edge">
<title>Node7&#45;&gt;Node3</title>
<path fill="none" stroke="midnightblue" d="M524.06,-33.61C506.68,-38.82 487.92,-44.45 471.22,-49.45"/>
<polygon fill="midnightblue" stroke="midnightblue" points="525.54,-36.82 534.11,-30.6 523.53,-30.12 525.54,-36.82"/>
</g>
</g>
</svg>
