<?xml version="1.0" encoding="UTF-8" standalone="no"?>
<!DOCTYPE svg PUBLIC "-//W3C//DTD SVG 1.1//EN"
 "http://www.w3.org/Graphics/SVG/1.1/DTD/svg11.dtd">
<!-- Generated by graphviz version 2.43.0 (0)
 -->
<!-- Title: OmniboxResultView::GetActiveAuxiliaryButtonForAccessibility Pages: 1 -->
<svg width="522pt" height="88pt"
 viewBox="0.00 0.00 522.00 88.00" xmlns="http://www.w3.org/2000/svg" xmlns:xlink="http://www.w3.org/1999/xlink">
<g id="graph0" class="graph" transform="scale(1 1) rotate(0) translate(4 84)">
<title>OmniboxResultView::GetActiveAuxiliaryButtonForAccessibility</title>
<polygon fill="white" stroke="transparent" points="-4,4 -4,-84 518,-84 518,4 -4,4"/>
<!-- Node1 -->
<g id="node1" class="node">
<title>Node1</title>
<g id="a_node1"><a xlink:title=" ">
<polygon fill="#bfbfbf" stroke="black" points="0,-19 0,-60 140,-60 140,-19 0,-19"/>
<text text-anchor="start" x="8" y="-48" font-family="Helvetica,sans-Serif" font-size="10.00">OmniboxResultView::</text>
<text text-anchor="start" x="8" y="-37" font-family="Helvetica,sans-Serif" font-size="10.00">GetActiveAuxiliaryButtonFor</text>
<text text-anchor="middle" x="70" y="-26" font-family="Helvetica,sans-Serif" font-size="10.00">Accessibility</text>
</a>
</g>
</g>
<!-- Node2 -->
<g id="node2" class="node">
<title>Node2</title>
<g id="a_node2"><a xlink:href="../../d3/d0a/classOmniboxSuggestionButtonRowView.html#a4e22042a30ad4dde61194da6d27ca338" target="_top" xlink:title=" ">
<polygon fill="white" stroke="black" points="176,-49.5 176,-79.5 329,-79.5 329,-49.5 176,-49.5"/>
<text text-anchor="start" x="184" y="-67.5" font-family="Helvetica,sans-Serif" font-size="10.00">OmniboxSuggestionButtonRow</text>
<text text-anchor="middle" x="252.5" y="-56.5" font-family="Helvetica,sans-Serif" font-size="10.00">View::GetActiveButton</text>
</a>
</g>
</g>
<!-- Node1&#45;&gt;Node2 -->
<g id="edge1" class="edge">
<title>Node1&#45;&gt;Node2</title>
<path fill="none" stroke="midnightblue" d="M140.01,-49.06C148.45,-50.23 157.16,-51.43 165.8,-52.63"/>
<polygon fill="midnightblue" stroke="midnightblue" points="165.53,-56.13 175.91,-54.03 166.49,-49.19 165.53,-56.13"/>
</g>
<!-- Node3 -->
<g id="node3" class="node">
<title>Node3</title>
<g id="a_node3"><a xlink:href="../../d7/d88/classOmniboxPopupContentsView.html#aacb2b141d6ccaaaffec469aea02dbaef" target="_top" xlink:title=" ">
<polygon fill="white" stroke="black" points="180,-0.5 180,-30.5 325,-30.5 325,-0.5 180,-0.5"/>
<text text-anchor="start" x="188" y="-18.5" font-family="Helvetica,sans-Serif" font-size="10.00">OmniboxPopupContentsView</text>
<text text-anchor="middle" x="252.5" y="-7.5" font-family="Helvetica,sans-Serif" font-size="10.00">::GetSelection</text>
</a>
</g>
</g>
<!-- Node1&#45;&gt;Node3 -->
<g id="edge2" class="edge">
<title>Node1&#45;&gt;Node3</title>
<path fill="none" stroke="midnightblue" d="M140.01,-30.32C149.79,-29.02 159.92,-27.68 169.91,-26.35"/>
<polygon fill="midnightblue" stroke="midnightblue" points="170.38,-29.82 179.83,-25.03 169.46,-22.88 170.38,-29.82"/>
</g>
<!-- Node4 -->
<g id="node4" class="node">
<title>Node4</title>
<g id="a_node4"><a xlink:href="../../d0/d22/classOmniboxEditModel.html#afca096faf219ac7be1bf9251466648a7" target="_top" xlink:title=" ">
<polygon fill="white" stroke="black" points="365,-0.5 365,-30.5 514,-30.5 514,-0.5 365,-0.5"/>
<text text-anchor="start" x="373" y="-18.5" font-family="Helvetica,sans-Serif" font-size="10.00">OmniboxEditModel::GetPopup</text>
<text text-anchor="middle" x="439.5" y="-7.5" font-family="Helvetica,sans-Serif" font-size="10.00">Selection</text>
</a>
</g>
</g>
<!-- Node3&#45;&gt;Node4 -->
<g id="edge3" class="edge">
<title>Node3&#45;&gt;Node4</title>
<path fill="none" stroke="midnightblue" d="M325.03,-15.5C334.69,-15.5 344.67,-15.5 354.52,-15.5"/>
<polygon fill="midnightblue" stroke="midnightblue" points="354.72,-19 364.72,-15.5 354.72,-12 354.72,-19"/>
</g>
</g>
</svg>
