<?xml version="1.0" encoding="UTF-8" standalone="no"?>
<!DOCTYPE svg PUBLIC "-//W3C//DTD SVG 1.1//EN"
 "http://www.w3.org/Graphics/SVG/1.1/DTD/svg11.dtd">
<!-- Generated by graphviz version 2.43.0 (0)
 -->
<!-- Title: OmniboxResultView::SetWidths Pages: 1 -->
<svg width="633pt" height="176pt"
 viewBox="0.00 0.00 633.00 176.00" xmlns="http://www.w3.org/2000/svg" xmlns:xlink="http://www.w3.org/1999/xlink">
<g id="graph0" class="graph" transform="scale(1 1) rotate(0) translate(4 172)">
<title>OmniboxResultView::SetWidths</title>
<polygon fill="white" stroke="transparent" points="-4,4 -4,-172 629,-172 629,4 -4,4"/>
<!-- Node1 -->
<g id="node1" class="node">
<title>Node1</title>
<g id="a_node1"><a xlink:title=" ">
<polygon fill="#bfbfbf" stroke="black" points="0,-25.5 0,-55.5 112,-55.5 112,-25.5 0,-25.5"/>
<text text-anchor="start" x="8" y="-43.5" font-family="Helvetica,sans-Serif" font-size="10.00">OmniboxResultView::</text>
<text text-anchor="middle" x="56" y="-32.5" font-family="Helvetica,sans-Serif" font-size="10.00">SetWidths</text>
</a>
</g>
</g>
<!-- Node2 -->
<g id="node2" class="node">
<title>Node2</title>
<g id="a_node2"><a xlink:href="../../d2/d0b/classOmniboxMatchCellView.html#a9f3814f50a1e43b7528821c431acb86b" target="_top" xlink:title=" ">
<polygon fill="white" stroke="black" points="148,-49.5 148,-79.5 271,-79.5 271,-49.5 148,-49.5"/>
<text text-anchor="start" x="156" y="-67.5" font-family="Helvetica,sans-Serif" font-size="10.00">OmniboxMatchCellView</text>
<text text-anchor="middle" x="209.5" y="-56.5" font-family="Helvetica,sans-Serif" font-size="10.00">::CalculatePreferredSize</text>
</a>
</g>
</g>
<!-- Node1&#45;&gt;Node2 -->
<g id="edge1" class="edge">
<title>Node1&#45;&gt;Node2</title>
<path fill="none" stroke="midnightblue" d="M112.12,-49.23C120.45,-50.55 129.15,-51.93 137.75,-53.29"/>
<polygon fill="midnightblue" stroke="midnightblue" points="137.36,-56.77 147.79,-54.88 138.46,-49.86 137.36,-56.77"/>
</g>
<!-- Node6 -->
<g id="node6" class="node">
<title>Node6</title>
<g id="a_node6"><a xlink:href="../../d2/d0b/classOmniboxMatchCellView.html#af211cd1487c9100f5bc1832375c8d976" target="_top" xlink:title=" ">
<polygon fill="white" stroke="black" points="319,-0.5 319,-30.5 441,-30.5 441,-0.5 319,-0.5"/>
<text text-anchor="start" x="327" y="-18.5" font-family="Helvetica,sans-Serif" font-size="10.00">OmniboxMatchCellView</text>
<text text-anchor="middle" x="380" y="-7.5" font-family="Helvetica,sans-Serif" font-size="10.00">::GetTextIndent</text>
</a>
</g>
</g>
<!-- Node1&#45;&gt;Node6 -->
<g id="edge7" class="edge">
<title>Node1&#45;&gt;Node6</title>
<path fill="none" stroke="midnightblue" d="M112.35,-36.2C166.75,-31.98 249.95,-25.52 308.92,-20.94"/>
<polygon fill="midnightblue" stroke="midnightblue" points="309.21,-24.43 318.91,-20.17 308.67,-17.45 309.21,-24.43"/>
</g>
<!-- Node3 -->
<g id="node3" class="node">
<title>Node3</title>
<g id="a_node3"><a xlink:href="../../df/d61/classOmniboxTextView.html#a589691359edbed311fad61191b03d958" target="_top" xlink:title=" ">
<polygon fill="white" stroke="black" points="307,-137.5 307,-167.5 453,-167.5 453,-137.5 307,-137.5"/>
<text text-anchor="start" x="315" y="-155.5" font-family="Helvetica,sans-Serif" font-size="10.00">OmniboxTextView::GetHeight</text>
<text text-anchor="middle" x="380" y="-144.5" font-family="Helvetica,sans-Serif" font-size="10.00">ForWidth</text>
</a>
</g>
</g>
<!-- Node2&#45;&gt;Node3 -->
<g id="edge2" class="edge">
<title>Node2&#45;&gt;Node3</title>
<path fill="none" stroke="midnightblue" d="M233.36,-79.54C252.58,-91.87 281.01,-109.36 307,-122.5 314.56,-126.32 322.72,-130.06 330.74,-133.54"/>
<polygon fill="midnightblue" stroke="midnightblue" points="329.47,-136.8 340.04,-137.49 332.2,-130.36 329.47,-136.8"/>
</g>
<!-- Node4 -->
<g id="node4" class="node">
<title>Node4</title>
<g id="a_node4"><a xlink:href="../../df/d61/classOmniboxTextView.html#a1d3cf2f99cb54ac15b06d31657d732ff" target="_top" xlink:title=" ">
<polygon fill="white" stroke="black" points="489,-115.5 489,-145.5 625,-145.5 625,-115.5 489,-115.5"/>
<text text-anchor="start" x="497" y="-133.5" font-family="Helvetica,sans-Serif" font-size="10.00">OmniboxTextView::GetLine</text>
<text text-anchor="middle" x="557" y="-122.5" font-family="Helvetica,sans-Serif" font-size="10.00">Height</text>
</a>
</g>
</g>
<!-- Node2&#45;&gt;Node4 -->
<g id="edge5" class="edge">
<title>Node2&#45;&gt;Node4</title>
<path fill="none" stroke="midnightblue" d="M267.74,-79.5C280.61,-82.66 294.24,-85.84 307,-88.5 364.32,-100.44 429.6,-111.36 478.93,-119.06"/>
<polygon fill="midnightblue" stroke="midnightblue" points="478.48,-122.53 488.89,-120.61 479.55,-115.62 478.48,-122.53"/>
</g>
<!-- Node5 -->
<g id="node5" class="node">
<title>Node5</title>
<g id="a_node5"><a xlink:href="../../d2/d0b/classOmniboxMatchCellView.html#aeefb9a82d68d51db43e814f3195c880f" target="_top" xlink:title=" ">
<polygon fill="white" stroke="black" points="319,-49.5 319,-79.5 441,-79.5 441,-49.5 319,-49.5"/>
<text text-anchor="start" x="327" y="-67.5" font-family="Helvetica,sans-Serif" font-size="10.00">OmniboxMatchCellView</text>
<text text-anchor="middle" x="380" y="-56.5" font-family="Helvetica,sans-Serif" font-size="10.00">::GetInsets</text>
</a>
</g>
</g>
<!-- Node2&#45;&gt;Node5 -->
<g id="edge4" class="edge">
<title>Node2&#45;&gt;Node5</title>
<path fill="none" stroke="midnightblue" d="M271.33,-64.5C283.41,-64.5 296.19,-64.5 308.55,-64.5"/>
<polygon fill="midnightblue" stroke="midnightblue" points="308.82,-68 318.82,-64.5 308.82,-61 308.82,-68"/>
</g>
<!-- Node2&#45;&gt;Node6 -->
<g id="edge6" class="edge">
<title>Node2&#45;&gt;Node6</title>
<path fill="none" stroke="midnightblue" d="M262.43,-49.4C279.81,-44.34 299.35,-38.66 317.39,-33.42"/>
<polygon fill="midnightblue" stroke="midnightblue" points="318.62,-36.7 327.24,-30.55 316.66,-29.98 318.62,-36.7"/>
</g>
<!-- Node3&#45;&gt;Node4 -->
<g id="edge3" class="edge">
<title>Node3&#45;&gt;Node4</title>
<path fill="none" stroke="midnightblue" d="M453.19,-143.42C461.65,-142.36 470.3,-141.27 478.83,-140.2"/>
<polygon fill="midnightblue" stroke="midnightblue" points="479.27,-143.67 488.75,-138.95 478.39,-136.73 479.27,-143.67"/>
</g>
</g>
</svg>
