<?xml version="1.0" encoding="UTF-8" standalone="no"?>
<!DOCTYPE svg PUBLIC "-//W3C//DTD SVG 1.1//EN"
 "http://www.w3.org/Graphics/SVG/1.1/DTD/svg11.dtd">
<!-- Generated by graphviz version 2.43.0 (0)
 -->
<!-- Title: OmniboxResultView::GetMatchSelected Pages: 1 -->
<svg width="486pt" height="39pt"
 viewBox="0.00 0.00 486.00 39.00" xmlns="http://www.w3.org/2000/svg" xmlns:xlink="http://www.w3.org/1999/xlink">
<g id="graph0" class="graph" transform="scale(1 1) rotate(0) translate(4 35)">
<title>OmniboxResultView::GetMatchSelected</title>
<polygon fill="white" stroke="transparent" points="-4,4 -4,-35 482,-35 482,4 -4,4"/>
<!-- Node1 -->
<g id="node1" class="node">
<title>Node1</title>
<g id="a_node1"><a xlink:title=" ">
<polygon fill="#bfbfbf" stroke="black" points="0,-0.5 0,-30.5 112,-30.5 112,-0.5 0,-0.5"/>
<text text-anchor="start" x="8" y="-18.5" font-family="Helvetica,sans-Serif" font-size="10.00">OmniboxResultView::</text>
<text text-anchor="middle" x="56" y="-7.5" font-family="Helvetica,sans-Serif" font-size="10.00">GetMatchSelected</text>
</a>
</g>
</g>
<!-- Node2 -->
<g id="node2" class="node">
<title>Node2</title>
<g id="a_node2"><a xlink:href="../../d7/d88/classOmniboxPopupContentsView.html#aacb2b141d6ccaaaffec469aea02dbaef" target="_top" xlink:title=" ">
<polygon fill="white" stroke="black" points="148,-0.5 148,-30.5 293,-30.5 293,-0.5 148,-0.5"/>
<text text-anchor="start" x="156" y="-18.5" font-family="Helvetica,sans-Serif" font-size="10.00">OmniboxPopupContentsView</text>
<text text-anchor="middle" x="220.5" y="-7.5" font-family="Helvetica,sans-Serif" font-size="10.00">::GetSelection</text>
</a>
</g>
</g>
<!-- Node1&#45;&gt;Node2 -->
<g id="edge1" class="edge">
<title>Node1&#45;&gt;Node2</title>
<path fill="none" stroke="midnightblue" d="M112.02,-15.5C120.29,-15.5 128.97,-15.5 137.65,-15.5"/>
<polygon fill="midnightblue" stroke="midnightblue" points="137.83,-19 147.83,-15.5 137.83,-12 137.83,-19"/>
</g>
<!-- Node3 -->
<g id="node3" class="node">
<title>Node3</title>
<g id="a_node3"><a xlink:href="../../d0/d22/classOmniboxEditModel.html#afca096faf219ac7be1bf9251466648a7" target="_top" xlink:title=" ">
<polygon fill="white" stroke="black" points="329,-0.5 329,-30.5 478,-30.5 478,-0.5 329,-0.5"/>
<text text-anchor="start" x="337" y="-18.5" font-family="Helvetica,sans-Serif" font-size="10.00">OmniboxEditModel::GetPopup</text>
<text text-anchor="middle" x="403.5" y="-7.5" font-family="Helvetica,sans-Serif" font-size="10.00">Selection</text>
</a>
</g>
</g>
<!-- Node2&#45;&gt;Node3 -->
<g id="edge2" class="edge">
<title>Node2&#45;&gt;Node3</title>
<path fill="none" stroke="midnightblue" d="M293.04,-15.5C301.49,-15.5 310.17,-15.5 318.77,-15.5"/>
<polygon fill="midnightblue" stroke="midnightblue" points="318.81,-19 328.81,-15.5 318.81,-12 318.81,-19"/>
</g>
</g>
</svg>
