<?xml version="1.0" encoding="UTF-8" standalone="no"?>
<!DOCTYPE svg PUBLIC "-//W3C//DTD SVG 1.1//EN"
 "http://www.w3.org/Graphics/SVG/1.1/DTD/svg11.dtd">
<!-- Generated by graphviz version 2.43.0 (0)
 -->
<!-- Title: OmniboxResultView::EmitTextChangedAccessiblityEvent Pages: 1 -->
<svg width="1093pt" height="398pt"
 viewBox="0.00 0.00 1093.00 397.50" xmlns="http://www.w3.org/2000/svg" xmlns:xlink="http://www.w3.org/1999/xlink">
<g id="graph0" class="graph" transform="scale(1 1) rotate(0) translate(4 393.5)">
<title>OmniboxResultView::EmitTextChangedAccessiblityEvent</title>
<polygon fill="white" stroke="transparent" points="-4,4 -4,-393.5 1089,-393.5 1089,4 -4,4"/>
<!-- Node1 -->
<g id="node1" class="node">
<title>Node1</title>
<g id="a_node1"><a xlink:title=" ">
<polygon fill="#bfbfbf" stroke="black" points="0,-98.5 0,-139.5 148,-139.5 148,-98.5 0,-98.5"/>
<text text-anchor="start" x="8" y="-127.5" font-family="Helvetica,sans-Serif" font-size="10.00">OmniboxResultView::</text>
<text text-anchor="start" x="8" y="-116.5" font-family="Helvetica,sans-Serif" font-size="10.00">EmitTextChangedAccessiblity</text>
<text text-anchor="middle" x="74" y="-105.5" font-family="Helvetica,sans-Serif" font-size="10.00">Event</text>
</a>
</g>
</g>
<!-- Node2 -->
<g id="node2" class="node">
<title>Node2</title>
<g id="a_node2"><a xlink:href="../../d3/d4c/classOmniboxResultView.html#a57eda284a6e159bf2f6dbffdb0044c41" target="_top" xlink:title=" ">
<polygon fill="white" stroke="black" points="194,-129 194,-159 319,-159 319,-129 194,-129"/>
<text text-anchor="start" x="202" y="-147" font-family="Helvetica,sans-Serif" font-size="10.00">OmniboxResultView::</text>
<text text-anchor="middle" x="256.5" y="-136" font-family="Helvetica,sans-Serif" font-size="10.00">GetAccessibleNodeData</text>
</a>
</g>
</g>
<!-- Node1&#45;&gt;Node2 -->
<g id="edge1" class="edge">
<title>Node1&#45;&gt;Node2</title>
<path fill="none" stroke="midnightblue" d="M148.16,-129.13C159.87,-130.76 171.99,-132.43 183.67,-134.05"/>
<polygon fill="midnightblue" stroke="midnightblue" points="183.42,-137.55 193.81,-135.46 184.38,-130.62 183.42,-137.55"/>
</g>
<!-- Node21 -->
<g id="node21" class="node">
<title>Node21</title>
<g id="a_node21"><a xlink:href="../../d7/d88/classOmniboxPopupContentsView.html#a362f2cb56dacaa52bef374a9525e378b" target="_top" xlink:title=" ">
<polygon fill="white" stroke="black" points="184,-80 184,-110 329,-110 329,-80 184,-80"/>
<text text-anchor="start" x="192" y="-98" font-family="Helvetica,sans-Serif" font-size="10.00">OmniboxPopupContentsView</text>
<text text-anchor="middle" x="256.5" y="-87" font-family="Helvetica,sans-Serif" font-size="10.00">::IsOpen</text>
</a>
</g>
</g>
<!-- Node1&#45;&gt;Node21 -->
<g id="edge25" class="edge">
<title>Node1&#45;&gt;Node21</title>
<path fill="none" stroke="midnightblue" d="M148.16,-109.27C156.65,-108.14 165.36,-106.98 173.97,-105.84"/>
<polygon fill="midnightblue" stroke="midnightblue" points="174.54,-109.3 184,-104.51 173.62,-102.36 174.54,-109.3"/>
</g>
<!-- Node3 -->
<g id="node3" class="node">
<title>Node3</title>
<g id="a_node3"><a xlink:href="../../d3/d4c/classOmniboxResultView.html#a17507b20abec0ee969168a494710c6df" target="_top" xlink:title=" ">
<polygon fill="white" stroke="black" points="400,-324 400,-354 512,-354 512,-324 400,-324"/>
<text text-anchor="start" x="408" y="-342" font-family="Helvetica,sans-Serif" font-size="10.00">OmniboxResultView::</text>
<text text-anchor="middle" x="456" y="-331" font-family="Helvetica,sans-Serif" font-size="10.00">GetMatchSelected</text>
</a>
</g>
</g>
<!-- Node2&#45;&gt;Node3 -->
<g id="edge2" class="edge">
<title>Node2&#45;&gt;Node3</title>
<path fill="none" stroke="midnightblue" d="M267.95,-159.24C285.96,-184.87 324.78,-237.46 365,-275 382.19,-291.04 403.56,-306.4 421.16,-318.05"/>
<polygon fill="midnightblue" stroke="midnightblue" points="419.69,-321.27 429.98,-323.79 423.51,-315.4 419.69,-321.27"/>
</g>
<!-- Node6 -->
<g id="node6" class="node">
<title>Node6</title>
<g id="a_node6"><a xlink:href="../../d0/d22/classOmniboxEditModel.html#a5319668a5f181fe2b2405b80ed7c8809" target="_top" xlink:title=" ">
<polygon fill="white" stroke="black" points="365,-151 365,-181 547,-181 547,-151 365,-151"/>
<text text-anchor="start" x="373" y="-169" font-family="Helvetica,sans-Serif" font-size="10.00">OmniboxEditModel::GetPopup</text>
<text text-anchor="middle" x="456" y="-158" font-family="Helvetica,sans-Serif" font-size="10.00">AccessibilityLabelForCurrentSelection</text>
</a>
</g>
</g>
<!-- Node2&#45;&gt;Node6 -->
<g id="edge5" class="edge">
<title>Node2&#45;&gt;Node6</title>
<path fill="none" stroke="midnightblue" d="M319.18,-150.87C330.5,-152.13 342.57,-153.48 354.68,-154.83"/>
<polygon fill="midnightblue" stroke="midnightblue" points="354.52,-158.33 364.85,-155.96 355.3,-151.37 354.52,-158.33"/>
</g>
<!-- Node14 -->
<g id="node14" class="node">
<title>Node14</title>
<g id="a_node14"><a xlink:href="../../d3/d03/classAutocompleteResult.html#a1532251921e2112a24e3a52ec7ee4535" target="_top" xlink:title=" ">
<polygon fill="white" stroke="black" points="603,-298 603,-328 708,-328 708,-298 603,-298"/>
<text text-anchor="start" x="611" y="-316" font-family="Helvetica,sans-Serif" font-size="10.00">AutocompleteResult</text>
<text text-anchor="middle" x="655.5" y="-305" font-family="Helvetica,sans-Serif" font-size="10.00">::match_at</text>
</a>
</g>
</g>
<!-- Node2&#45;&gt;Node14 -->
<g id="edge21" class="edge">
<title>Node2&#45;&gt;Node14</title>
<path fill="none" stroke="midnightblue" d="M288.5,-159C345.9,-186.51 472.9,-246.11 583,-289 587.76,-290.85 592.73,-292.7 597.73,-294.5"/>
<polygon fill="midnightblue" stroke="midnightblue" points="596.75,-297.86 607.35,-297.88 599.08,-291.26 596.75,-297.86"/>
</g>
<!-- Node15 -->
<g id="node15" class="node">
<title>Node15</title>
<g id="a_node15"><a xlink:href="../../d0/d22/classOmniboxEditModel.html#ad945a332660c6122dc25b93c1eee76d8" target="_top" xlink:title=" ">
<polygon fill="white" stroke="black" points="591,-112.5 591,-131.5 720,-131.5 720,-112.5 591,-112.5"/>
<text text-anchor="middle" x="655.5" y="-119.5" font-family="Helvetica,sans-Serif" font-size="10.00">OmniboxEditModel::result</text>
</a>
</g>
</g>
<!-- Node2&#45;&gt;Node15 -->
<g id="edge22" class="edge">
<title>Node2&#45;&gt;Node15</title>
<path fill="none" stroke="midnightblue" d="M319.1,-140.59C389.61,-136.68 505.07,-130.28 580.43,-126.1"/>
<polygon fill="midnightblue" stroke="midnightblue" points="581,-129.58 590.79,-125.53 580.61,-122.59 581,-129.58"/>
</g>
<!-- Node16 -->
<g id="node16" class="node">
<title>Node16</title>
<g id="a_node16"><a xlink:href="../../d3/d03/classAutocompleteResult.html#a64a7947a81e007d5aa56ac9b25e84bb6" target="_top" xlink:title=" ">
<polygon fill="white" stroke="black" points="603,-63 603,-93 708,-93 708,-63 603,-63"/>
<text text-anchor="start" x="611" y="-81" font-family="Helvetica,sans-Serif" font-size="10.00">AutocompleteResult</text>
<text text-anchor="middle" x="655.5" y="-70" font-family="Helvetica,sans-Serif" font-size="10.00">::size</text>
</a>
</g>
</g>
<!-- Node2&#45;&gt;Node16 -->
<g id="edge23" class="edge">
<title>Node2&#45;&gt;Node16</title>
<path fill="none" stroke="midnightblue" d="M319.13,-132.25C334.13,-129.47 350.13,-126.56 365,-124 443.42,-110.48 534.04,-96.31 592.71,-87.34"/>
<polygon fill="midnightblue" stroke="midnightblue" points="593.56,-90.75 602.92,-85.78 592.51,-83.83 593.56,-90.75"/>
</g>
<!-- Node17 -->
<g id="node17" class="node">
<title>Node17</title>
<g id="a_node17"><a xlink:href="../../de/d0b/structAutocompleteMatchType.html#a6330850d6855c7d33e64f9c34f772efb" target="_top" xlink:title=" ">
<polygon fill="white" stroke="black" points="593,-14 593,-44 718,-44 718,-14 593,-14"/>
<text text-anchor="start" x="601" y="-32" font-family="Helvetica,sans-Serif" font-size="10.00">AutocompleteMatchType</text>
<text text-anchor="middle" x="655.5" y="-21" font-family="Helvetica,sans-Serif" font-size="10.00">::ToAccessibilityLabel</text>
</a>
</g>
</g>
<!-- Node2&#45;&gt;Node17 -->
<g id="edge24" class="edge">
<title>Node2&#45;&gt;Node17</title>
<path fill="none" stroke="midnightblue" d="M310.02,-128.89C316.58,-126.28 323.06,-123.32 329,-120 347.18,-109.85 346.26,-99.08 365,-90 434.48,-56.34 522.17,-41.17 582.73,-34.39"/>
<polygon fill="midnightblue" stroke="midnightblue" points="583.39,-37.84 592.96,-33.3 582.65,-30.88 583.39,-37.84"/>
</g>
<!-- Node4 -->
<g id="node4" class="node">
<title>Node4</title>
<g id="a_node4"><a xlink:href="../../d7/d88/classOmniboxPopupContentsView.html#aacb2b141d6ccaaaffec469aea02dbaef" target="_top" xlink:title=" ">
<polygon fill="white" stroke="black" points="583,-353 583,-383 728,-383 728,-353 583,-353"/>
<text text-anchor="start" x="591" y="-371" font-family="Helvetica,sans-Serif" font-size="10.00">OmniboxPopupContentsView</text>
<text text-anchor="middle" x="655.5" y="-360" font-family="Helvetica,sans-Serif" font-size="10.00">::GetSelection</text>
</a>
</g>
</g>
<!-- Node3&#45;&gt;Node4 -->
<g id="edge3" class="edge">
<title>Node3&#45;&gt;Node4</title>
<path fill="none" stroke="midnightblue" d="M512.01,-347.08C530.85,-349.84 552.34,-353 572.82,-356.01"/>
<polygon fill="midnightblue" stroke="midnightblue" points="572.38,-359.48 582.78,-357.47 573.39,-352.55 572.38,-359.48"/>
</g>
<!-- Node5 -->
<g id="node5" class="node">
<title>Node5</title>
<g id="a_node5"><a xlink:href="../../d0/d22/classOmniboxEditModel.html#afca096faf219ac7be1bf9251466648a7" target="_top" xlink:title=" ">
<polygon fill="white" stroke="black" points="771.5,-359 771.5,-389 920.5,-389 920.5,-359 771.5,-359"/>
<text text-anchor="start" x="779.5" y="-377" font-family="Helvetica,sans-Serif" font-size="10.00">OmniboxEditModel::GetPopup</text>
<text text-anchor="middle" x="846" y="-366" font-family="Helvetica,sans-Serif" font-size="10.00">Selection</text>
</a>
</g>
</g>
<!-- Node4&#45;&gt;Node5 -->
<g id="edge4" class="edge">
<title>Node4&#45;&gt;Node5</title>
<path fill="none" stroke="midnightblue" d="M728.03,-370.28C738.88,-370.62 750.15,-370.98 761.22,-371.33"/>
<polygon fill="midnightblue" stroke="midnightblue" points="761.22,-374.83 771.32,-371.65 761.44,-367.84 761.22,-374.83"/>
</g>
<!-- Node7 -->
<g id="node7" class="node">
<title>Node7</title>
<g id="a_node7"><a xlink:href="../../d0/d22/classOmniboxEditModel.html#a83ebf99fd8b53140c36e887f644bd510" target="_top" xlink:title=" ">
<polygon fill="white" stroke="black" points="586,-249 586,-279 725,-279 725,-249 586,-249"/>
<text text-anchor="start" x="594" y="-267" font-family="Helvetica,sans-Serif" font-size="10.00">OmniboxEditModel::GetPref</text>
<text text-anchor="middle" x="655.5" y="-256" font-family="Helvetica,sans-Serif" font-size="10.00">Service</text>
</a>
</g>
</g>
<!-- Node6&#45;&gt;Node7 -->
<g id="edge6" class="edge">
<title>Node6&#45;&gt;Node7</title>
<path fill="none" stroke="midnightblue" d="M479.45,-181.12C504.08,-197.23 545.14,-222.75 583,-240 587.06,-241.85 591.32,-243.64 595.63,-245.34"/>
<polygon fill="midnightblue" stroke="midnightblue" points="594.54,-248.67 605.13,-248.93 597.01,-242.12 594.54,-248.67"/>
</g>
<!-- Node11 -->
<g id="node11" class="node">
<title>Node11</title>
<g id="a_node11"><a xlink:href="../../de/dfc/structOmniboxPopupSelection.html#acb9ff37b6248215d3e31810a46a82c5b" target="_top" xlink:title=" ">
<polygon fill="white" stroke="black" points="593.5,-200 593.5,-230 717.5,-230 717.5,-200 593.5,-200"/>
<text text-anchor="start" x="601.5" y="-218" font-family="Helvetica,sans-Serif" font-size="10.00">OmniboxPopupSelection</text>
<text text-anchor="middle" x="655.5" y="-207" font-family="Helvetica,sans-Serif" font-size="10.00">::IsButtonFocused</text>
</a>
</g>
</g>
<!-- Node6&#45;&gt;Node11 -->
<g id="edge10" class="edge">
<title>Node6&#45;&gt;Node11</title>
<path fill="none" stroke="midnightblue" d="M517.6,-181.03C538.64,-186.26 562.42,-192.15 584.18,-197.55"/>
<polygon fill="midnightblue" stroke="midnightblue" points="583.47,-200.98 594.02,-199.99 585.15,-194.19 583.47,-200.98"/>
</g>
<!-- Node12 -->
<g id="node12" class="node">
<title>Node12</title>
<g id="a_node12"><a xlink:href="../../d3/d03/classAutocompleteResult.html#a1353d4a449288df34f1d6dd3eff73298" target="_top" xlink:title=" ">
<polygon fill="white" stroke="black" points="583,-151 583,-181 728,-181 728,-151 583,-151"/>
<text text-anchor="start" x="591" y="-169" font-family="Helvetica,sans-Serif" font-size="10.00">AutocompleteResult</text>
<text text-anchor="middle" x="655.5" y="-158" font-family="Helvetica,sans-Serif" font-size="10.00">::IsSuggestionGroupIdHidden</text>
</a>
</g>
</g>
<!-- Node6&#45;&gt;Node12 -->
<g id="edge11" class="edge">
<title>Node6&#45;&gt;Node12</title>
<path fill="none" stroke="midnightblue" d="M547.08,-166C555.62,-166 564.24,-166 572.69,-166"/>
<polygon fill="midnightblue" stroke="midnightblue" points="572.89,-169.5 582.89,-166 572.89,-162.5 572.89,-169.5"/>
</g>
<!-- Node6&#45;&gt;Node14 -->
<g id="edge13" class="edge">
<title>Node6&#45;&gt;Node14</title>
<path fill="none" stroke="midnightblue" d="M475.22,-181.18C493.86,-196.99 523.36,-222.78 547,-247 564.17,-264.59 562.61,-275.26 583,-289 586.33,-291.24 589.88,-293.29 593.56,-295.16"/>
<polygon fill="midnightblue" stroke="midnightblue" points="592.35,-298.46 602.9,-299.45 595.27,-292.09 592.35,-298.46"/>
</g>
<!-- Node6&#45;&gt;Node15 -->
<g id="edge14" class="edge">
<title>Node6&#45;&gt;Node15</title>
<path fill="none" stroke="midnightblue" d="M524.42,-150.98C549.74,-145.34 578.13,-139.01 601.91,-133.72"/>
<polygon fill="midnightblue" stroke="midnightblue" points="602.8,-137.1 611.8,-131.51 601.28,-130.27 602.8,-137.1"/>
</g>
<!-- Node6&#45;&gt;Node16 -->
<g id="edge15" class="edge">
<title>Node6&#45;&gt;Node16</title>
<path fill="none" stroke="midnightblue" d="M484.55,-150.95C509.76,-137.49 548.31,-117.67 583,-103 588.15,-100.82 593.56,-98.68 599,-96.62"/>
<polygon fill="midnightblue" stroke="midnightblue" points="600.61,-99.76 608.78,-93.01 598.19,-93.19 600.61,-99.76"/>
</g>
<!-- Node6&#45;&gt;Node17 -->
<g id="edge16" class="edge">
<title>Node6&#45;&gt;Node17</title>
<path fill="none" stroke="midnightblue" d="M470.28,-150.88C491.79,-127.21 536.58,-81.29 583,-54 586.57,-51.9 590.35,-49.94 594.22,-48.11"/>
<polygon fill="midnightblue" stroke="midnightblue" points="595.63,-51.32 603.39,-44.1 592.83,-44.9 595.63,-51.32"/>
</g>
<!-- Node8 -->
<g id="node8" class="node">
<title>Node8</title>
<g id="a_node8"><a xlink:href="../../d0/d22/classOmniboxEditModel.html#a8c8a925ee670cdc9bd5c0ad8b07fa1a0" target="_top" xlink:title=" ">
<polygon fill="white" stroke="black" points="764,-200 764,-230 928,-230 928,-200 764,-200"/>
<text text-anchor="start" x="772" y="-218" font-family="Helvetica,sans-Serif" font-size="10.00">OmniboxEditModel::autocomplete</text>
<text text-anchor="middle" x="846" y="-207" font-family="Helvetica,sans-Serif" font-size="10.00">_controller</text>
</a>
</g>
</g>
<!-- Node7&#45;&gt;Node8 -->
<g id="edge7" class="edge">
<title>Node7&#45;&gt;Node8</title>
<path fill="none" stroke="midnightblue" d="M714.34,-248.97C734.24,-243.79 756.7,-237.95 777.32,-232.59"/>
<polygon fill="midnightblue" stroke="midnightblue" points="778.47,-235.91 787.27,-230.01 776.71,-229.13 778.47,-235.91"/>
</g>
<!-- Node9 -->
<g id="node9" class="node">
<title>Node9</title>
<g id="a_node9"><a xlink:href="../../df/d4d/classAutocompleteController.html#a1b73640ab24c9b6e706cdfafacccca52" target="_top" xlink:title=" ">
<polygon fill="white" stroke="black" points="785.5,-298.5 785.5,-339.5 906.5,-339.5 906.5,-298.5 785.5,-298.5"/>
<text text-anchor="start" x="793.5" y="-327.5" font-family="Helvetica,sans-Serif" font-size="10.00">AutocompleteController</text>
<text text-anchor="start" x="793.5" y="-316.5" font-family="Helvetica,sans-Serif" font-size="10.00">::autocomplete_provider</text>
<text text-anchor="middle" x="846" y="-305.5" font-family="Helvetica,sans-Serif" font-size="10.00">_client</text>
</a>
</g>
</g>
<!-- Node7&#45;&gt;Node9 -->
<g id="edge8" class="edge">
<title>Node7&#45;&gt;Node9</title>
<path fill="none" stroke="midnightblue" d="M708.01,-279.03C728.8,-285.1 753.12,-292.19 775.45,-298.71"/>
<polygon fill="midnightblue" stroke="midnightblue" points="774.63,-302.11 785.21,-301.56 776.59,-295.39 774.63,-302.11"/>
</g>
<!-- Node10 -->
<g id="node10" class="node">
<title>Node10</title>
<g id="a_node10"><a xlink:href="../../d5/dc7/classAutocompleteProviderClient.html#ac681cf50660fc21360da198bea6f4d8b" target="_top" xlink:title=" ">
<polygon fill="white" stroke="black" points="777,-249 777,-279 915,-279 915,-249 777,-249"/>
<text text-anchor="start" x="785" y="-267" font-family="Helvetica,sans-Serif" font-size="10.00">AutocompleteProviderClient</text>
<text text-anchor="middle" x="846" y="-256" font-family="Helvetica,sans-Serif" font-size="10.00">::GetPrefs</text>
</a>
</g>
</g>
<!-- Node7&#45;&gt;Node10 -->
<g id="edge9" class="edge">
<title>Node7&#45;&gt;Node10</title>
<path fill="none" stroke="midnightblue" d="M725.09,-264C738.51,-264 752.68,-264 766.4,-264"/>
<polygon fill="midnightblue" stroke="midnightblue" points="766.78,-267.5 776.78,-264 766.78,-260.5 766.78,-267.5"/>
</g>
<!-- Node13 -->
<g id="node13" class="node">
<title>Node13</title>
<g id="a_node13"><a xlink:href="../../d4/d19/namespaceomnibox.html#a416efcfe9398c882ad7a7c97b42578e1" target="_top" xlink:title=" ">
<polygon fill="white" stroke="black" points="774.5,-151 774.5,-181 917.5,-181 917.5,-151 774.5,-151"/>
<text text-anchor="start" x="782.5" y="-169" font-family="Helvetica,sans-Serif" font-size="10.00">omnibox::GetUserPreference</text>
<text text-anchor="middle" x="846" y="-158" font-family="Helvetica,sans-Serif" font-size="10.00">ForSuggestionGroupVisibility</text>
</a>
</g>
</g>
<!-- Node12&#45;&gt;Node13 -->
<g id="edge12" class="edge">
<title>Node12&#45;&gt;Node13</title>
<path fill="none" stroke="midnightblue" d="M728.03,-166C739.91,-166 752.3,-166 764.39,-166"/>
<polygon fill="midnightblue" stroke="midnightblue" points="764.45,-169.5 774.45,-166 764.45,-162.5 764.45,-169.5"/>
</g>
<!-- Node18 -->
<g id="node18" class="node">
<title>Node18</title>
<g id="a_node18"><a xlink:href="../../df/d95/autocomplete__match__type_8cc.html#a8e345670711f9f4bdd2185e129e6653e" target="_top" xlink:title=" ">
<polygon fill="white" stroke="black" points="784,-38.5 784,-57.5 908,-57.5 908,-38.5 784,-38.5"/>
<text text-anchor="middle" x="846" y="-45.5" font-family="Helvetica,sans-Serif" font-size="10.00">AddAdditionalMessaging</text>
</a>
</g>
</g>
<!-- Node17&#45;&gt;Node18 -->
<g id="edge17" class="edge">
<title>Node17&#45;&gt;Node18</title>
<path fill="none" stroke="midnightblue" d="M718.22,-35.22C735.98,-37.01 755.49,-38.98 773.77,-40.82"/>
<polygon fill="midnightblue" stroke="midnightblue" points="773.48,-44.31 783.78,-41.83 774.18,-37.34 773.48,-44.31"/>
</g>
<!-- Node20 -->
<g id="node20" class="node">
<title>Node20</title>
<g id="a_node20"><a xlink:href="../../df/d95/autocomplete__match__type_8cc.html#a247475396770103b803dc947a1736815" target="_top" xlink:title=" ">
<polygon fill="white" stroke="black" points="779,-0.5 779,-19.5 913,-19.5 913,-0.5 779,-0.5"/>
<text text-anchor="middle" x="846" y="-7.5" font-family="Helvetica,sans-Serif" font-size="10.00">GetAccessibilityBaseLabel</text>
</a>
</g>
</g>
<!-- Node17&#45;&gt;Node20 -->
<g id="edge19" class="edge">
<title>Node17&#45;&gt;Node20</title>
<path fill="none" stroke="midnightblue" d="M718.22,-22.78C734.32,-21.16 751.85,-19.39 768.61,-17.7"/>
<polygon fill="midnightblue" stroke="midnightblue" points="769.32,-21.15 778.92,-16.66 768.62,-14.18 769.32,-21.15"/>
</g>
<!-- Node19 -->
<g id="node19" class="node">
<title>Node19</title>
<g id="a_node19"><a xlink:href="../../df/d95/autocomplete__match__type_8cc.html#ad0f43dfffebbed1cde7c940490001927" target="_top" xlink:title=" ">
<polygon fill="white" stroke="black" points="964,-14 964,-44 1085,-44 1085,-14 964,-14"/>
<text text-anchor="start" x="972" y="-32" font-family="Helvetica,sans-Serif" font-size="10.00">AccessibilityLabelPrefix</text>
<text text-anchor="middle" x="1024.5" y="-21" font-family="Helvetica,sans-Serif" font-size="10.00">Length</text>
</a>
</g>
</g>
<!-- Node18&#45;&gt;Node19 -->
<g id="edge18" class="edge">
<title>Node18&#45;&gt;Node19</title>
<path fill="none" stroke="midnightblue" d="M908.24,-41.41C922.88,-39.83 938.62,-38.14 953.62,-36.52"/>
<polygon fill="midnightblue" stroke="midnightblue" points="954.29,-39.97 963.86,-35.42 953.54,-33.01 954.29,-39.97"/>
</g>
<!-- Node20&#45;&gt;Node19 -->
<g id="edge20" class="edge">
<title>Node20&#45;&gt;Node19</title>
<path fill="none" stroke="midnightblue" d="M913.22,-17.13C926.48,-18.56 940.43,-20.06 953.8,-21.5"/>
<polygon fill="midnightblue" stroke="midnightblue" points="953.56,-24.99 963.88,-22.58 954.31,-18.03 953.56,-24.99"/>
</g>
</g>
</svg>
