<?xml version="1.0" encoding="UTF-8" standalone="no"?>
<!DOCTYPE svg PUBLIC "-//W3C//DTD SVG 1.1//EN"
 "http://www.w3.org/Graphics/SVG/1.1/DTD/svg11.dtd">
<!-- Generated by graphviz version 2.43.0 (0)
 -->
<!-- Title: OmniboxResultView::GetIcon Pages: 1 -->
<svg width="1203pt" height="687pt"
 viewBox="0.00 0.00 1203.00 687.00" xmlns="http://www.w3.org/2000/svg" xmlns:xlink="http://www.w3.org/1999/xlink">
<g id="graph0" class="graph" transform="scale(1 1) rotate(0) translate(4 683)">
<title>OmniboxResultView::GetIcon</title>
<polygon fill="white" stroke="transparent" points="-4,4 -4,-683 1199,-683 1199,4 -4,4"/>
<!-- Node1 -->
<g id="node1" class="node">
<title>Node1</title>
<g id="a_node1"><a xlink:title=" ">
<polygon fill="#bfbfbf" stroke="black" points="0,-538.5 0,-568.5 112,-568.5 112,-538.5 0,-538.5"/>
<text text-anchor="start" x="8" y="-556.5" font-family="Helvetica,sans-Serif" font-size="10.00">OmniboxResultView::</text>
<text text-anchor="middle" x="56" y="-545.5" font-family="Helvetica,sans-Serif" font-size="10.00">GetIcon</text>
</a>
</g>
</g>
<!-- Node2 -->
<g id="node2" class="node">
<title>Node2</title>
<g id="a_node2"><a xlink:href="../../d3/d4c/classOmniboxResultView.html#aaafb21160f2e040184d7c85ab18ebced" target="_top" xlink:title=" ">
<polygon fill="white" stroke="black" points="164.5,-582.5 164.5,-612.5 276.5,-612.5 276.5,-582.5 164.5,-582.5"/>
<text text-anchor="start" x="172.5" y="-600.5" font-family="Helvetica,sans-Serif" font-size="10.00">OmniboxResultView::</text>
<text text-anchor="middle" x="220.5" y="-589.5" font-family="Helvetica,sans-Serif" font-size="10.00">GetColor</text>
</a>
</g>
</g>
<!-- Node1&#45;&gt;Node2 -->
<g id="edge1" class="edge">
<title>Node1&#45;&gt;Node2</title>
<path fill="none" stroke="midnightblue" d="M112.02,-568.4C125.57,-572.07 140.22,-576.03 154.22,-579.82"/>
<polygon fill="midnightblue" stroke="midnightblue" points="153.7,-583.31 164.27,-582.54 155.53,-576.55 153.7,-583.31"/>
</g>
<!-- Node11 -->
<g id="node11" class="node">
<title>Node11</title>
<g id="a_node11"><a xlink:href="../../d7/d88/classOmniboxPopupContentsView.html#a9c3b1d6c069f496e8172cbfc8985198b" target="_top" xlink:title=" ">
<polygon fill="white" stroke="black" points="148,-514.5 148,-544.5 293,-544.5 293,-514.5 148,-514.5"/>
<text text-anchor="start" x="156" y="-532.5" font-family="Helvetica,sans-Serif" font-size="10.00">OmniboxPopupContentsView</text>
<text text-anchor="middle" x="220.5" y="-521.5" font-family="Helvetica,sans-Serif" font-size="10.00">::GetMatchIcon</text>
</a>
</g>
</g>
<!-- Node1&#45;&gt;Node11 -->
<g id="edge11" class="edge">
<title>Node1&#45;&gt;Node11</title>
<path fill="none" stroke="midnightblue" d="M112.02,-545.37C120.38,-544.14 129.16,-542.84 137.94,-541.55"/>
<polygon fill="midnightblue" stroke="midnightblue" points="138.45,-545.01 147.83,-540.08 137.43,-538.08 138.45,-545.01"/>
</g>
<!-- Node3 -->
<g id="node3" class="node">
<title>Node3</title>
<g id="a_node3"><a xlink:href="../../d4/d9b/omnibox__theme_8cc.html#a22fe9a774c5756fb8f71218d1830d516" target="_top" xlink:title=" ">
<polygon fill="white" stroke="black" points="339.5,-632 339.5,-651 434.5,-651 434.5,-632 339.5,-632"/>
<text text-anchor="middle" x="387" y="-639" font-family="Helvetica,sans-Serif" font-size="10.00">GetOmniboxColor</text>
</a>
</g>
</g>
<!-- Node2&#45;&gt;Node3 -->
<g id="edge2" class="edge">
<title>Node2&#45;&gt;Node3</title>
<path fill="none" stroke="midnightblue" d="M276.73,-612.27C297.49,-617.83 320.84,-624.07 340.6,-629.36"/>
<polygon fill="midnightblue" stroke="midnightblue" points="339.72,-632.74 350.28,-631.95 341.53,-625.98 339.72,-632.74"/>
</g>
<!-- Node4 -->
<g id="node4" class="node">
<title>Node4</title>
<g id="a_node4"><a xlink:href="../../d3/d4c/classOmniboxResultView.html#a510528aab4c1238bcfc1f2c09e7ef9d1" target="_top" xlink:title=" ">
<polygon fill="white" stroke="black" points="331,-582.5 331,-612.5 443,-612.5 443,-582.5 331,-582.5"/>
<text text-anchor="start" x="339" y="-600.5" font-family="Helvetica,sans-Serif" font-size="10.00">OmniboxResultView::</text>
<text text-anchor="middle" x="387" y="-589.5" font-family="Helvetica,sans-Serif" font-size="10.00">GetThemeState</text>
</a>
</g>
</g>
<!-- Node2&#45;&gt;Node4 -->
<g id="edge3" class="edge">
<title>Node2&#45;&gt;Node4</title>
<path fill="none" stroke="midnightblue" d="M276.73,-597.5C290.78,-597.5 306.01,-597.5 320.51,-597.5"/>
<polygon fill="midnightblue" stroke="midnightblue" points="320.91,-601 330.91,-597.5 320.91,-594 320.91,-601"/>
</g>
<!-- Node5 -->
<g id="node5" class="node">
<title>Node5</title>
<g id="a_node5"><a xlink:href="../../d3/d4c/classOmniboxResultView.html#a17507b20abec0ee969168a494710c6df" target="_top" xlink:title=" ">
<polygon fill="white" stroke="black" points="498,-592.5 498,-622.5 610,-622.5 610,-592.5 498,-592.5"/>
<text text-anchor="start" x="506" y="-610.5" font-family="Helvetica,sans-Serif" font-size="10.00">OmniboxResultView::</text>
<text text-anchor="middle" x="554" y="-599.5" font-family="Helvetica,sans-Serif" font-size="10.00">GetMatchSelected</text>
</a>
</g>
</g>
<!-- Node4&#45;&gt;Node5 -->
<g id="edge4" class="edge">
<title>Node4&#45;&gt;Node5</title>
<path fill="none" stroke="midnightblue" d="M443.4,-600.86C457.63,-601.72 473.06,-602.66 487.73,-603.54"/>
<polygon fill="midnightblue" stroke="midnightblue" points="487.55,-607.04 497.74,-604.15 487.97,-600.05 487.55,-607.04"/>
</g>
<!-- Node6 -->
<g id="node6" class="node">
<title>Node6</title>
<g id="a_node6"><a xlink:href="../../d7/d88/classOmniboxPopupContentsView.html#aa853016eecbad5260a64b4bff2a349c9" target="_top" xlink:title=" ">
<polygon fill="white" stroke="black" points="666,-646.5 666,-676.5 811,-676.5 811,-646.5 666,-646.5"/>
<text text-anchor="start" x="674" y="-664.5" font-family="Helvetica,sans-Serif" font-size="10.00">OmniboxPopupContentsView</text>
<text text-anchor="middle" x="738.5" y="-653.5" font-family="Helvetica,sans-Serif" font-size="10.00">::GetSelectedIndex</text>
</a>
</g>
</g>
<!-- Node5&#45;&gt;Node6 -->
<g id="edge5" class="edge">
<title>Node5&#45;&gt;Node6</title>
<path fill="none" stroke="midnightblue" d="M605.84,-622.54C627.89,-629.07 653.9,-636.76 676.94,-643.58"/>
<polygon fill="midnightblue" stroke="midnightblue" points="676.04,-646.96 686.62,-646.45 678.02,-640.25 676.04,-646.96"/>
</g>
<!-- Node7 -->
<g id="node7" class="node">
<title>Node7</title>
<g id="a_node7"><a xlink:href="../../d7/d88/classOmniboxPopupContentsView.html#a718a0b1b4223a2cbabb6008f005ffd2e" target="_top" xlink:title=" ">
<polygon fill="white" stroke="black" points="850,-599.5 850,-629.5 995,-629.5 995,-599.5 850,-599.5"/>
<text text-anchor="start" x="858" y="-617.5" font-family="Helvetica,sans-Serif" font-size="10.00">OmniboxPopupContentsView</text>
<text text-anchor="middle" x="922.5" y="-606.5" font-family="Helvetica,sans-Serif" font-size="10.00">::model</text>
</a>
</g>
</g>
<!-- Node5&#45;&gt;Node7 -->
<g id="edge9" class="edge">
<title>Node5&#45;&gt;Node7</title>
<path fill="none" stroke="midnightblue" d="M610.27,-608.56C671.16,-609.72 769.72,-611.6 839.6,-612.94"/>
<polygon fill="midnightblue" stroke="midnightblue" points="839.63,-616.44 849.69,-613.13 839.76,-609.44 839.63,-616.44"/>
</g>
<!-- Node10 -->
<g id="node10" class="node">
<title>Node10</title>
<g id="a_node10"><a xlink:href="../../d1/db1/classOmniboxPopupModel.html#a89f2d7464b757a9707bb7df522a2fea5" target="_top" xlink:title=" ">
<polygon fill="white" stroke="black" points="680.5,-558.5 680.5,-588.5 796.5,-588.5 796.5,-558.5 680.5,-558.5"/>
<text text-anchor="start" x="688.5" y="-576.5" font-family="Helvetica,sans-Serif" font-size="10.00">OmniboxPopupModel::</text>
<text text-anchor="middle" x="738.5" y="-565.5" font-family="Helvetica,sans-Serif" font-size="10.00">selected_line_state</text>
</a>
</g>
</g>
<!-- Node5&#45;&gt;Node10 -->
<g id="edge10" class="edge">
<title>Node5&#45;&gt;Node10</title>
<path fill="none" stroke="midnightblue" d="M610.25,-597.21C629.19,-593.68 650.59,-589.69 670.36,-586.01"/>
<polygon fill="midnightblue" stroke="midnightblue" points="671.03,-589.44 680.22,-584.17 669.75,-582.56 671.03,-589.44"/>
</g>
<!-- Node6&#45;&gt;Node7 -->
<g id="edge6" class="edge">
<title>Node6&#45;&gt;Node7</title>
<path fill="none" stroke="midnightblue" d="M797.59,-646.5C815.4,-641.9 835.16,-636.8 853.57,-632.04"/>
<polygon fill="midnightblue" stroke="midnightblue" points="854.53,-635.41 863.34,-629.52 852.78,-628.63 854.53,-635.41"/>
</g>
<!-- Node9 -->
<g id="node9" class="node">
<title>Node9</title>
<g id="a_node9"><a xlink:href="../../d1/db1/classOmniboxPopupModel.html#ac7f0c94e4da21543213dbef3ce023aca" target="_top" xlink:title=" ">
<polygon fill="white" stroke="black" points="864.5,-648.5 864.5,-678.5 980.5,-678.5 980.5,-648.5 864.5,-648.5"/>
<text text-anchor="start" x="872.5" y="-666.5" font-family="Helvetica,sans-Serif" font-size="10.00">OmniboxPopupModel::</text>
<text text-anchor="middle" x="922.5" y="-655.5" font-family="Helvetica,sans-Serif" font-size="10.00">selected_line</text>
</a>
</g>
</g>
<!-- Node6&#45;&gt;Node9 -->
<g id="edge8" class="edge">
<title>Node6&#45;&gt;Node9</title>
<path fill="none" stroke="midnightblue" d="M811.17,-662.29C825.34,-662.44 840.16,-662.61 854.18,-662.76"/>
<polygon fill="midnightblue" stroke="midnightblue" points="854.18,-666.26 864.22,-662.87 854.26,-659.26 854.18,-666.26"/>
</g>
<!-- Node8 -->
<g id="node8" class="node">
<title>Node8</title>
<g id="a_node8"><a xlink:href="../../d0/d22/classOmniboxEditModel.html#a254f9536adb46b9e885d10b3d5bfe4c9" target="_top" xlink:title=" ">
<polygon fill="white" stroke="black" points="1047.5,-599.5 1047.5,-629.5 1178.5,-629.5 1178.5,-599.5 1047.5,-599.5"/>
<text text-anchor="start" x="1055.5" y="-617.5" font-family="Helvetica,sans-Serif" font-size="10.00">OmniboxEditModel::popup</text>
<text text-anchor="middle" x="1113" y="-606.5" font-family="Helvetica,sans-Serif" font-size="10.00">_model</text>
</a>
</g>
</g>
<!-- Node7&#45;&gt;Node8 -->
<g id="edge7" class="edge">
<title>Node7&#45;&gt;Node8</title>
<path fill="none" stroke="midnightblue" d="M995.03,-614.5C1008.86,-614.5 1023.38,-614.5 1037.31,-614.5"/>
<polygon fill="midnightblue" stroke="midnightblue" points="1037.33,-618 1047.33,-614.5 1037.33,-611 1037.33,-618"/>
</g>
<!-- Node11&#45;&gt;Node7 -->
<g id="edge36" class="edge">
<title>Node11&#45;&gt;Node7</title>
<path fill="none" stroke="midnightblue" d="M293.12,-520.51C406.42,-508.79 632.71,-495.64 814,-549.5 844.13,-558.45 874.41,-577.93 895.12,-593.24"/>
<polygon fill="midnightblue" stroke="midnightblue" points="893.03,-596.05 903.11,-599.3 897.26,-590.47 893.03,-596.05"/>
</g>
<!-- Node12 -->
<g id="node12" class="node">
<title>Node12</title>
<g id="a_node12"><a xlink:href="../../d1/db1/classOmniboxPopupModel.html#aadc84d8c613db89d80bbffae685ffff0" target="_top" xlink:title=" ">
<polygon fill="white" stroke="black" points="329,-278.5 329,-308.5 445,-308.5 445,-278.5 329,-278.5"/>
<text text-anchor="start" x="337" y="-296.5" font-family="Helvetica,sans-Serif" font-size="10.00">OmniboxPopupModel::</text>
<text text-anchor="middle" x="387" y="-285.5" font-family="Helvetica,sans-Serif" font-size="10.00">GetMatchIcon</text>
</a>
</g>
</g>
<!-- Node11&#45;&gt;Node12 -->
<g id="edge12" class="edge">
<title>Node11&#45;&gt;Node12</title>
<path fill="none" stroke="midnightblue" d="M232.04,-514.38C259.94,-474.35 335.9,-365.38 369.56,-317.08"/>
<polygon fill="midnightblue" stroke="midnightblue" points="372.49,-319.01 375.33,-308.8 366.74,-315 372.49,-319.01"/>
</g>
<!-- Node13 -->
<g id="node13" class="node">
<title>Node13</title>
<g id="a_node13"><a xlink:href="../../d0/d22/classOmniboxEditModel.html#a17aabec567d6753f1d0a1ae590046ae7" target="_top" xlink:title=" ">
<polygon fill="white" stroke="black" points="674.5,-432 674.5,-451 802.5,-451 802.5,-432 674.5,-432"/>
<text text-anchor="middle" x="738.5" y="-439" font-family="Helvetica,sans-Serif" font-size="10.00">OmniboxEditModel::client</text>
</a>
</g>
</g>
<!-- Node12&#45;&gt;Node13 -->
<g id="edge13" class="edge">
<title>Node12&#45;&gt;Node13</title>
<path fill="none" stroke="midnightblue" d="M403.52,-308.66C421.03,-325.01 450.99,-350.8 481,-366.5 517.1,-385.38 624.36,-413.65 688.18,-429.54"/>
<polygon fill="midnightblue" stroke="midnightblue" points="687.48,-432.98 698.03,-431.98 689.16,-426.18 687.48,-432.98"/>
</g>
<!-- Node14 -->
<g id="node14" class="node">
<title>Node14</title>
<g id="a_node14"><a xlink:href="../../d5/dbd/classOmniboxClient.html#abdbe3e8c01d6006ee368a8b01ca2e038" target="_top" xlink:title=" ">
<polygon fill="white" stroke="black" points="485.5,-278.5 485.5,-308.5 622.5,-308.5 622.5,-278.5 485.5,-278.5"/>
<text text-anchor="start" x="493.5" y="-296.5" font-family="Helvetica,sans-Serif" font-size="10.00">OmniboxClient::GetFavicon</text>
<text text-anchor="middle" x="554" y="-285.5" font-family="Helvetica,sans-Serif" font-size="10.00">ForPageUrl</text>
</a>
</g>
</g>
<!-- Node12&#45;&gt;Node14 -->
<g id="edge14" class="edge">
<title>Node12&#45;&gt;Node14</title>
<path fill="none" stroke="midnightblue" d="M445.25,-293.5C454.95,-293.5 465.17,-293.5 475.29,-293.5"/>
<polygon fill="midnightblue" stroke="midnightblue" points="475.36,-297 485.36,-293.5 475.36,-290 475.36,-297"/>
</g>
<!-- Node15 -->
<g id="node15" class="node">
<title>Node15</title>
<g id="a_node15"><a xlink:href="../../d5/dbd/classOmniboxClient.html#a1a84b69a83c02e414f2ff074047a0d37" target="_top" xlink:title=" ">
<polygon fill="white" stroke="black" points="490,-229.5 490,-259.5 618,-259.5 618,-229.5 490,-229.5"/>
<text text-anchor="start" x="498" y="-247.5" font-family="Helvetica,sans-Serif" font-size="10.00">OmniboxClient::GetIconIf</text>
<text text-anchor="middle" x="554" y="-236.5" font-family="Helvetica,sans-Serif" font-size="10.00">ExtensionMatch</text>
</a>
</g>
</g>
<!-- Node12&#45;&gt;Node15 -->
<g id="edge15" class="edge">
<title>Node12&#45;&gt;Node15</title>
<path fill="none" stroke="midnightblue" d="M438.85,-278.4C455.87,-273.34 475,-267.66 492.67,-262.42"/>
<polygon fill="midnightblue" stroke="midnightblue" points="493.73,-265.75 502.32,-259.55 491.73,-259.04 493.73,-265.75"/>
</g>
<!-- Node16 -->
<g id="node16" class="node">
<title>Node16</title>
<g id="a_node16"><a xlink:href="../../d5/dbd/classOmniboxClient.html#a16e670e4b9ee703a7ebced7df4c398fe" target="_top" xlink:title=" ">
<polygon fill="white" stroke="black" points="481,-191 481,-210 627,-210 627,-191 481,-191"/>
<text text-anchor="middle" x="554" y="-198" font-family="Helvetica,sans-Serif" font-size="10.00">OmniboxClient::GetSizedIcon</text>
</a>
</g>
</g>
<!-- Node12&#45;&gt;Node16 -->
<g id="edge16" class="edge">
<title>Node12&#45;&gt;Node16</title>
<path fill="none" stroke="midnightblue" d="M402.74,-278.49C420.01,-261.74 450.2,-234.95 481,-219.5 485.65,-217.17 490.61,-215.1 495.68,-213.27"/>
<polygon fill="midnightblue" stroke="midnightblue" points="497.09,-216.49 505.49,-210.04 494.9,-209.84 497.09,-216.49"/>
</g>
<!-- Node17 -->
<g id="node17" class="node">
<title>Node17</title>
<g id="a_node17"><a xlink:href="../../dc/d8f/structAutocompleteMatch.html#a26de97442eb3495bedf2349f6fa4c6e4" target="_top" xlink:title=" ">
<polygon fill="white" stroke="black" points="499,-74.5 499,-104.5 609,-104.5 609,-74.5 499,-74.5"/>
<text text-anchor="start" x="507" y="-92.5" font-family="Helvetica,sans-Serif" font-size="10.00">AutocompleteMatch::</text>
<text text-anchor="middle" x="554" y="-81.5" font-family="Helvetica,sans-Serif" font-size="10.00">GetVectorIcon</text>
</a>
</g>
</g>
<!-- Node12&#45;&gt;Node17 -->
<g id="edge17" class="edge">
<title>Node12&#45;&gt;Node17</title>
<path fill="none" stroke="midnightblue" d="M395.6,-278.46C409.95,-250.88 443.02,-191.17 481,-148.5 493.37,-134.6 509.17,-121.28 522.82,-110.81"/>
<polygon fill="midnightblue" stroke="midnightblue" points="525.09,-113.49 530.99,-104.69 520.89,-107.89 525.09,-113.49"/>
</g>
<!-- Node21 -->
<g id="node21" class="node">
<title>Node21</title>
<g id="a_node21"><a xlink:href="../../dc/d8f/structAutocompleteMatch.html#a2995f802114ff701b5d6e037fb3019b3" target="_top" xlink:title=" ">
<polygon fill="white" stroke="black" points="683.5,-147.5 683.5,-177.5 793.5,-177.5 793.5,-147.5 683.5,-147.5"/>
<text text-anchor="start" x="691.5" y="-165.5" font-family="Helvetica,sans-Serif" font-size="10.00">AutocompleteMatch::</text>
<text text-anchor="middle" x="738.5" y="-154.5" font-family="Helvetica,sans-Serif" font-size="10.00">IsSearchType</text>
</a>
</g>
</g>
<!-- Node12&#45;&gt;Node21 -->
<g id="edge21" class="edge">
<title>Node12&#45;&gt;Node21</title>
<path fill="none" stroke="midnightblue" d="M395.47,-278.2C408.73,-252.93 438.99,-203.15 481,-181.5 540.76,-150.7 618.94,-149.56 673.2,-153.84"/>
<polygon fill="midnightblue" stroke="midnightblue" points="673.12,-157.34 683.39,-154.73 673.73,-150.37 673.12,-157.34"/>
</g>
<!-- Node23 -->
<g id="node23" class="node">
<title>Node23</title>
<g id="a_node23"><a xlink:href="../../d1/db1/classOmniboxPopupModel.html#a7a912aea1cf6426be55f55aa141264db" target="_top" xlink:title=" ">
<polygon fill="white" stroke="black" points="496,-426.5 496,-456.5 612,-456.5 612,-426.5 496,-426.5"/>
<text text-anchor="start" x="504" y="-444.5" font-family="Helvetica,sans-Serif" font-size="10.00">OmniboxPopupModel::</text>
<text text-anchor="middle" x="554" y="-433.5" font-family="Helvetica,sans-Serif" font-size="10.00">IsStarredMatch</text>
</a>
</g>
</g>
<!-- Node12&#45;&gt;Node23 -->
<g id="edge23" class="edge">
<title>Node12&#45;&gt;Node23</title>
<path fill="none" stroke="midnightblue" d="M397.46,-308.81C412.65,-332.35 444.48,-377.72 481,-406.5 488.3,-412.25 496.69,-417.38 505.11,-421.83"/>
<polygon fill="midnightblue" stroke="midnightblue" points="503.7,-425.03 514.21,-426.38 506.83,-418.77 503.7,-425.03"/>
</g>
<!-- Node25 -->
<g id="node25" class="node">
<title>Node25</title>
<g id="a_node25"><a xlink:href="../../d1/db1/classOmniboxPopupModel.html#a428b39ea93613c635e9446595c8424c9" target="_top" xlink:title=" ">
<polygon fill="white" stroke="black" points="496,-327.5 496,-357.5 612,-357.5 612,-327.5 496,-327.5"/>
<text text-anchor="start" x="504" y="-345.5" font-family="Helvetica,sans-Serif" font-size="10.00">OmniboxPopupModel::</text>
<text text-anchor="middle" x="554" y="-334.5" font-family="Helvetica,sans-Serif" font-size="10.00">OnFaviconFetched</text>
</a>
</g>
</g>
<!-- Node12&#45;&gt;Node25 -->
<g id="edge26" class="edge">
<title>Node12&#45;&gt;Node25</title>
<path fill="none" stroke="midnightblue" d="M438.85,-308.6C455.87,-313.66 475,-319.34 492.67,-324.58"/>
<polygon fill="midnightblue" stroke="midnightblue" points="491.73,-327.96 502.32,-327.45 493.73,-321.25 491.73,-327.96"/>
</g>
<!-- Node18 -->
<g id="node18" class="node">
<title>Node18</title>
<g id="a_node18"><a xlink:href="../../dc/d8f/structAutocompleteMatch.html#a5b86825646ad62bb299c8ec23949b4d1" target="_top" xlink:title=" ">
<polygon fill="white" stroke="black" points="672,-0.5 672,-30.5 805,-30.5 805,-0.5 672,-0.5"/>
<text text-anchor="start" x="680" y="-18.5" font-family="Helvetica,sans-Serif" font-size="10.00">AutocompleteMatch::</text>
<text text-anchor="middle" x="738.5" y="-7.5" font-family="Helvetica,sans-Serif" font-size="10.00">AnswerTypeToAnswerIcon</text>
</a>
</g>
</g>
<!-- Node17&#45;&gt;Node18 -->
<g id="edge18" class="edge">
<title>Node17&#45;&gt;Node18</title>
<path fill="none" stroke="midnightblue" d="M584.83,-74.49C606.28,-64 636.06,-50.03 663,-39.5 667.98,-37.55 673.2,-35.64 678.45,-33.79"/>
<polygon fill="midnightblue" stroke="midnightblue" points="679.59,-37.1 687.91,-30.54 677.32,-30.48 679.59,-37.1"/>
</g>
<!-- Node19 -->
<g id="node19" class="node">
<title>Node19</title>
<g id="a_node19"><a xlink:href="../../dc/d8f/structAutocompleteMatch.html#acdfc9aa026649ff4d1c83c3d0ff630cc" target="_top" xlink:title=" ">
<polygon fill="white" stroke="black" points="683.5,-98.5 683.5,-128.5 793.5,-128.5 793.5,-98.5 683.5,-98.5"/>
<text text-anchor="start" x="691.5" y="-116.5" font-family="Helvetica,sans-Serif" font-size="10.00">AutocompleteMatch::</text>
<text text-anchor="middle" x="738.5" y="-105.5" font-family="Helvetica,sans-Serif" font-size="10.00">IsSearchHistoryType</text>
</a>
</g>
</g>
<!-- Node17&#45;&gt;Node19 -->
<g id="edge19" class="edge">
<title>Node17&#45;&gt;Node19</title>
<path fill="none" stroke="midnightblue" d="M609.26,-96.64C629.4,-99.28 652.43,-102.31 673.36,-105.07"/>
<polygon fill="midnightblue" stroke="midnightblue" points="673.08,-108.56 683.45,-106.39 673.99,-101.62 673.08,-108.56"/>
</g>
<!-- Node20 -->
<g id="node20" class="node">
<title>Node20</title>
<g id="a_node20"><a xlink:href="../../dd/de9/classAutocompleteProvider.html#afee5fe39a16a2cc459b6baa0d8a1521e" target="_top" xlink:title=" ">
<polygon fill="white" stroke="black" points="682,-49.5 682,-79.5 795,-79.5 795,-49.5 682,-49.5"/>
<text text-anchor="start" x="690" y="-67.5" font-family="Helvetica,sans-Serif" font-size="10.00">AutocompleteProvider</text>
<text text-anchor="middle" x="738.5" y="-56.5" font-family="Helvetica,sans-Serif" font-size="10.00">::type</text>
</a>
</g>
</g>
<!-- Node17&#45;&gt;Node20 -->
<g id="edge20" class="edge">
<title>Node17&#45;&gt;Node20</title>
<path fill="none" stroke="midnightblue" d="M609.26,-82.07C628.95,-79.37 651.39,-76.3 671.95,-73.48"/>
<polygon fill="midnightblue" stroke="midnightblue" points="672.43,-76.95 681.87,-72.12 671.48,-70.01 672.43,-76.95"/>
</g>
<!-- Node22 -->
<g id="node22" class="node">
<title>Node22</title>
<g id="a_node22"><a xlink:href="../../dc/d8f/structAutocompleteMatch.html#aaca5dac30caf1899132db064a3213d9e" target="_top" xlink:title=" ">
<polygon fill="white" stroke="black" points="859,-147.5 859,-177.5 986,-177.5 986,-147.5 859,-147.5"/>
<text text-anchor="start" x="867" y="-165.5" font-family="Helvetica,sans-Serif" font-size="10.00">AutocompleteMatch::</text>
<text text-anchor="middle" x="922.5" y="-154.5" font-family="Helvetica,sans-Serif" font-size="10.00">IsSpecializedSearchType</text>
</a>
</g>
</g>
<!-- Node21&#45;&gt;Node22 -->
<g id="edge22" class="edge">
<title>Node21&#45;&gt;Node22</title>
<path fill="none" stroke="midnightblue" d="M793.61,-162.5C810.94,-162.5 830.42,-162.5 848.85,-162.5"/>
<polygon fill="midnightblue" stroke="midnightblue" points="848.96,-166 858.96,-162.5 848.96,-159 848.96,-166"/>
</g>
<!-- Node23&#45;&gt;Node13 -->
<g id="edge24" class="edge">
<title>Node23&#45;&gt;Node13</title>
<path fill="none" stroke="midnightblue" d="M612.24,-441.5C628.76,-441.5 647.01,-441.5 664.35,-441.5"/>
<polygon fill="midnightblue" stroke="midnightblue" points="664.44,-445 674.44,-441.5 664.44,-438 664.44,-445"/>
</g>
<!-- Node24 -->
<g id="node24" class="node">
<title>Node24</title>
<g id="a_node24"><a xlink:href="../../d5/dbd/classOmniboxClient.html#ae6adaeb263ab15d771acb3de1c15e8cb" target="_top" xlink:title=" ">
<polygon fill="white" stroke="black" points="665,-470.5 665,-500.5 812,-500.5 812,-470.5 665,-470.5"/>
<text text-anchor="start" x="673" y="-488.5" font-family="Helvetica,sans-Serif" font-size="10.00">OmniboxClient::GetBookmark</text>
<text text-anchor="middle" x="738.5" y="-477.5" font-family="Helvetica,sans-Serif" font-size="10.00">Model</text>
</a>
</g>
</g>
<!-- Node23&#45;&gt;Node24 -->
<g id="edge25" class="edge">
<title>Node23&#45;&gt;Node24</title>
<path fill="none" stroke="midnightblue" d="M612.24,-455.3C628.93,-459.33 647.4,-463.78 664.9,-468"/>
<polygon fill="midnightblue" stroke="midnightblue" points="664.53,-471.51 675.08,-470.45 666.17,-464.7 664.53,-471.51"/>
</g>
<!-- Node25&#45;&gt;Node21 -->
<g id="edge28" class="edge">
<title>Node25&#45;&gt;Node21</title>
<path fill="none" stroke="midnightblue" d="M612.11,-328.8C617.63,-325.76 622.75,-322.04 627,-317.5 668.26,-273.42 621.24,-230.11 663,-186.5 666.35,-183 670.21,-180.02 674.37,-177.46"/>
<polygon fill="midnightblue" stroke="midnightblue" points="676.03,-180.54 683.27,-172.81 672.79,-174.34 676.03,-180.54"/>
</g>
<!-- Node26 -->
<g id="node26" class="node">
<title>Node26</title>
<g id="a_node26"><a xlink:href="../../db/de1/classOmniboxPopupView.html#ab590e106e3a2f53bfa45712f529cf106" target="_top" xlink:title=" ">
<polygon fill="white" stroke="black" points="667,-246 667,-265 810,-265 810,-246 667,-246"/>
<text text-anchor="middle" x="738.5" y="-253" font-family="Helvetica,sans-Serif" font-size="10.00">OmniboxPopupView::IsOpen</text>
</a>
</g>
</g>
<!-- Node25&#45;&gt;Node26 -->
<g id="edge27" class="edge">
<title>Node25&#45;&gt;Node26</title>
<path fill="none" stroke="midnightblue" d="M608.88,-327.45C615.25,-324.63 621.45,-321.33 627,-317.5 647.51,-303.34 641.91,-287.78 663,-274.5 666.4,-272.36 670.03,-270.46 673.78,-268.78"/>
<polygon fill="midnightblue" stroke="midnightblue" points="675.31,-271.94 683.33,-265.01 672.74,-265.43 675.31,-271.94"/>
</g>
<!-- Node27 -->
<g id="node27" class="node">
<title>Node27</title>
<g id="a_node27"><a xlink:href="../../d3/d03/classAutocompleteResult.html#a1532251921e2112a24e3a52ec7ee4535" target="_top" xlink:title=" ">
<polygon fill="white" stroke="black" points="686,-196.5 686,-226.5 791,-226.5 791,-196.5 686,-196.5"/>
<text text-anchor="start" x="694" y="-214.5" font-family="Helvetica,sans-Serif" font-size="10.00">AutocompleteResult</text>
<text text-anchor="middle" x="738.5" y="-203.5" font-family="Helvetica,sans-Serif" font-size="10.00">::match_at</text>
</a>
</g>
</g>
<!-- Node25&#45;&gt;Node27 -->
<g id="edge29" class="edge">
<title>Node25&#45;&gt;Node27</title>
<path fill="none" stroke="midnightblue" d="M612.17,-327.76C617.55,-324.92 622.62,-321.53 627,-317.5 656,-290.84 633.86,-263.01 663,-236.5 667.1,-232.77 671.77,-229.59 676.74,-226.89"/>
<polygon fill="midnightblue" stroke="midnightblue" points="678.4,-229.98 685.92,-222.52 675.39,-223.66 678.4,-229.98"/>
</g>
<!-- Node28 -->
<g id="node28" class="node">
<title>Node28</title>
<g id="a_node28"><a xlink:href="../../db/de1/classOmniboxPopupView.html#aa4256405269109649c32737d09f0736d" target="_top" xlink:title=" ">
<polygon fill="white" stroke="black" points="663,-382.5 663,-412.5 814,-412.5 814,-382.5 663,-382.5"/>
<text text-anchor="start" x="671" y="-400.5" font-family="Helvetica,sans-Serif" font-size="10.00">OmniboxPopupView::OnMatch</text>
<text text-anchor="middle" x="738.5" y="-389.5" font-family="Helvetica,sans-Serif" font-size="10.00">IconUpdated</text>
</a>
</g>
</g>
<!-- Node25&#45;&gt;Node28 -->
<g id="edge30" class="edge">
<title>Node25&#45;&gt;Node28</title>
<path fill="none" stroke="midnightblue" d="M604.87,-357.53C627.5,-364.35 654.44,-372.47 678.11,-379.6"/>
<polygon fill="midnightblue" stroke="midnightblue" points="677.11,-382.95 687.69,-382.49 679.13,-376.25 677.11,-382.95"/>
</g>
<!-- Node29 -->
<g id="node29" class="node">
<title>Node29</title>
<g id="a_node29"><a xlink:href="../../d1/db1/classOmniboxPopupModel.html#a819a99147bf9bc6ad4f7096218a388b0" target="_top" xlink:title=" ">
<polygon fill="white" stroke="black" points="680.5,-333.5 680.5,-363.5 796.5,-363.5 796.5,-333.5 680.5,-333.5"/>
<text text-anchor="start" x="688.5" y="-351.5" font-family="Helvetica,sans-Serif" font-size="10.00">OmniboxPopupModel::</text>
<text text-anchor="middle" x="738.5" y="-340.5" font-family="Helvetica,sans-Serif" font-size="10.00">result</text>
</a>
</g>
</g>
<!-- Node25&#45;&gt;Node29 -->
<g id="edge31" class="edge">
<title>Node25&#45;&gt;Node29</title>
<path fill="none" stroke="midnightblue" d="M612.24,-344.38C630.67,-344.99 651.26,-345.66 670.34,-346.29"/>
<polygon fill="midnightblue" stroke="midnightblue" points="670.35,-349.79 680.46,-346.62 670.58,-342.8 670.35,-349.79"/>
</g>
<!-- Node33 -->
<g id="node33" class="node">
<title>Node33</title>
<g id="a_node33"><a xlink:href="../../d3/d03/classAutocompleteResult.html#a64a7947a81e007d5aa56ac9b25e84bb6" target="_top" xlink:title=" ">
<polygon fill="white" stroke="black" points="686,-284.5 686,-314.5 791,-314.5 791,-284.5 686,-284.5"/>
<text text-anchor="start" x="694" y="-302.5" font-family="Helvetica,sans-Serif" font-size="10.00">AutocompleteResult</text>
<text text-anchor="middle" x="738.5" y="-291.5" font-family="Helvetica,sans-Serif" font-size="10.00">::size</text>
</a>
</g>
</g>
<!-- Node25&#45;&gt;Node33 -->
<g id="edge35" class="edge">
<title>Node25&#45;&gt;Node33</title>
<path fill="none" stroke="midnightblue" d="M612.24,-329.01C632.46,-324.25 655.27,-318.88 675.83,-314.03"/>
<polygon fill="midnightblue" stroke="midnightblue" points="676.79,-317.4 685.72,-311.7 675.19,-310.59 676.79,-317.4"/>
</g>
<!-- Node30 -->
<g id="node30" class="node">
<title>Node30</title>
<g id="a_node30"><a xlink:href="../../d1/db1/classOmniboxPopupModel.html#a15465ac89016d4717442d3be4e43f3ae" target="_top" xlink:title=" ">
<polygon fill="white" stroke="black" points="862.5,-309.5 862.5,-339.5 982.5,-339.5 982.5,-309.5 862.5,-309.5"/>
<text text-anchor="start" x="870.5" y="-327.5" font-family="Helvetica,sans-Serif" font-size="10.00">OmniboxPopupModel::</text>
<text text-anchor="middle" x="922.5" y="-316.5" font-family="Helvetica,sans-Serif" font-size="10.00">autocomplete_controller</text>
</a>
</g>
</g>
<!-- Node29&#45;&gt;Node30 -->
<g id="edge32" class="edge">
<title>Node29&#45;&gt;Node30</title>
<path fill="none" stroke="midnightblue" d="M796.59,-340.97C814.27,-338.64 833.94,-336.05 852.34,-333.62"/>
<polygon fill="midnightblue" stroke="midnightblue" points="852.96,-337.07 862.42,-332.29 852.05,-330.13 852.96,-337.07"/>
</g>
<!-- Node32 -->
<g id="node32" class="node">
<title>Node32</title>
<g id="a_node32"><a xlink:href="../../df/d4d/classAutocompleteController.html#a4aad481d8777819a1acec95affee80b2" target="_top" xlink:title=" ">
<polygon fill="white" stroke="black" points="863,-358.5 863,-388.5 982,-388.5 982,-358.5 863,-358.5"/>
<text text-anchor="start" x="871" y="-376.5" font-family="Helvetica,sans-Serif" font-size="10.00">AutocompleteController</text>
<text text-anchor="middle" x="922.5" y="-365.5" font-family="Helvetica,sans-Serif" font-size="10.00">::result</text>
</a>
</g>
</g>
<!-- Node29&#45;&gt;Node32 -->
<g id="edge34" class="edge">
<title>Node29&#45;&gt;Node32</title>
<path fill="none" stroke="midnightblue" d="M796.59,-356.34C814.35,-358.78 834.13,-361.5 852.62,-364.04"/>
<polygon fill="midnightblue" stroke="midnightblue" points="852.35,-367.53 862.73,-365.43 853.3,-360.6 852.35,-367.53"/>
</g>
<!-- Node31 -->
<g id="node31" class="node">
<title>Node31</title>
<g id="a_node31"><a xlink:href="../../d0/d22/classOmniboxEditModel.html#a8c8a925ee670cdc9bd5c0ad8b07fa1a0" target="_top" xlink:title=" ">
<polygon fill="white" stroke="black" points="1031,-309.5 1031,-339.5 1195,-339.5 1195,-309.5 1031,-309.5"/>
<text text-anchor="start" x="1039" y="-327.5" font-family="Helvetica,sans-Serif" font-size="10.00">OmniboxEditModel::autocomplete</text>
<text text-anchor="middle" x="1113" y="-316.5" font-family="Helvetica,sans-Serif" font-size="10.00">_controller</text>
</a>
</g>
</g>
<!-- Node30&#45;&gt;Node31 -->
<g id="edge33" class="edge">
<title>Node30&#45;&gt;Node31</title>
<path fill="none" stroke="midnightblue" d="M982.63,-324.5C994.72,-324.5 1007.72,-324.5 1020.65,-324.5"/>
<polygon fill="midnightblue" stroke="midnightblue" points="1020.98,-328 1030.98,-324.5 1020.98,-321 1020.98,-328"/>
</g>
</g>
</svg>
