<?xml version="1.0" encoding="UTF-8" standalone="no"?>
<!DOCTYPE svg PUBLIC "-//W3C//DTD SVG 1.1//EN"
 "http://www.w3.org/Graphics/SVG/1.1/DTD/svg11.dtd">
<!-- Generated by graphviz version 2.43.0 (0)
 -->
<!-- Title: OmniboxResultView::GetThemeState Pages: 1 -->
<svg width="634pt" height="39pt"
 viewBox="0.00 0.00 634.00 39.00" xmlns="http://www.w3.org/2000/svg" xmlns:xlink="http://www.w3.org/1999/xlink">
<g id="graph0" class="graph" transform="scale(1 1) rotate(0) translate(4 35)">
<title>OmniboxResultView::GetThemeState</title>
<polygon fill="white" stroke="transparent" points="-4,4 -4,-35 630,-35 630,4 -4,4"/>
<!-- Node1 -->
<g id="node1" class="node">
<title>Node1</title>
<g id="a_node1"><a xlink:title=" ">
<polygon fill="#bfbfbf" stroke="black" points="0,-0.5 0,-30.5 112,-30.5 112,-0.5 0,-0.5"/>
<text text-anchor="start" x="8" y="-18.5" font-family="Helvetica,sans-Serif" font-size="10.00">OmniboxResultView::</text>
<text text-anchor="middle" x="56" y="-7.5" font-family="Helvetica,sans-Serif" font-size="10.00">GetThemeState</text>
</a>
</g>
</g>
<!-- Node2 -->
<g id="node2" class="node">
<title>Node2</title>
<g id="a_node2"><a xlink:href="../../d3/d4c/classOmniboxResultView.html#a17507b20abec0ee969168a494710c6df" target="_top" xlink:title=" ">
<polygon fill="white" stroke="black" points="148,-0.5 148,-30.5 260,-30.5 260,-0.5 148,-0.5"/>
<text text-anchor="start" x="156" y="-18.5" font-family="Helvetica,sans-Serif" font-size="10.00">OmniboxResultView::</text>
<text text-anchor="middle" x="204" y="-7.5" font-family="Helvetica,sans-Serif" font-size="10.00">GetMatchSelected</text>
</a>
</g>
</g>
<!-- Node1&#45;&gt;Node2 -->
<g id="edge1" class="edge">
<title>Node1&#45;&gt;Node2</title>
<path fill="none" stroke="midnightblue" d="M112.2,-15.5C120.46,-15.5 129.05,-15.5 137.51,-15.5"/>
<polygon fill="midnightblue" stroke="midnightblue" points="137.73,-19 147.73,-15.5 137.73,-12 137.73,-19"/>
</g>
<!-- Node3 -->
<g id="node3" class="node">
<title>Node3</title>
<g id="a_node3"><a xlink:href="../../d7/d88/classOmniboxPopupContentsView.html#aacb2b141d6ccaaaffec469aea02dbaef" target="_top" xlink:title=" ">
<polygon fill="white" stroke="black" points="296,-0.5 296,-30.5 441,-30.5 441,-0.5 296,-0.5"/>
<text text-anchor="start" x="304" y="-18.5" font-family="Helvetica,sans-Serif" font-size="10.00">OmniboxPopupContentsView</text>
<text text-anchor="middle" x="368.5" y="-7.5" font-family="Helvetica,sans-Serif" font-size="10.00">::GetSelection</text>
</a>
</g>
</g>
<!-- Node2&#45;&gt;Node3 -->
<g id="edge2" class="edge">
<title>Node2&#45;&gt;Node3</title>
<path fill="none" stroke="midnightblue" d="M260.02,-15.5C268.29,-15.5 276.97,-15.5 285.65,-15.5"/>
<polygon fill="midnightblue" stroke="midnightblue" points="285.83,-19 295.83,-15.5 285.83,-12 285.83,-19"/>
</g>
<!-- Node4 -->
<g id="node4" class="node">
<title>Node4</title>
<g id="a_node4"><a xlink:href="../../d0/d22/classOmniboxEditModel.html#afca096faf219ac7be1bf9251466648a7" target="_top" xlink:title=" ">
<polygon fill="white" stroke="black" points="477,-0.5 477,-30.5 626,-30.5 626,-0.5 477,-0.5"/>
<text text-anchor="start" x="485" y="-18.5" font-family="Helvetica,sans-Serif" font-size="10.00">OmniboxEditModel::GetPopup</text>
<text text-anchor="middle" x="551.5" y="-7.5" font-family="Helvetica,sans-Serif" font-size="10.00">Selection</text>
</a>
</g>
</g>
<!-- Node3&#45;&gt;Node4 -->
<g id="edge3" class="edge">
<title>Node3&#45;&gt;Node4</title>
<path fill="none" stroke="midnightblue" d="M441.04,-15.5C449.49,-15.5 458.17,-15.5 466.77,-15.5"/>
<polygon fill="midnightblue" stroke="midnightblue" points="466.81,-19 476.81,-15.5 466.81,-12 466.81,-19"/>
</g>
</g>
</svg>
