<?xml version="1.0" encoding="UTF-8" standalone="no"?>
<!DOCTYPE svg PUBLIC "-//W3C//DTD SVG 1.1//EN"
 "http://www.w3.org/Graphics/SVG/1.1/DTD/svg11.dtd">
<!-- Generated by graphviz version 2.43.0 (0)
 -->
<!-- Title: OmniboxPedalCreateGoogleSlide Pages: 1 -->
<svg width="388pt" height="298pt"
 viewBox="0.00 0.00 388.00 298.00" xmlns="http://www.w3.org/2000/svg" xmlns:xlink="http://www.w3.org/1999/xlink">
<g id="graph0" class="graph" transform="scale(1 1) rotate(0) translate(4 294)">
<title>OmniboxPedalCreateGoogleSlide</title>
<polygon fill="white" stroke="transparent" points="-4,4 -4,-294 384,-294 384,4 -4,4"/>
<!-- Node1 -->
<g id="node1" class="node">
<title>Node1</title>
<g id="a_node1"><a xlink:title=" ">
<polygon fill="#bfbfbf" stroke="black" points="151,-0.5 151,-30.5 291,-30.5 291,-0.5 151,-0.5"/>
<text text-anchor="start" x="159" y="-18.5" font-family="Helvetica,sans-Serif" font-size="10.00">OmniboxPedalCreateGoogle</text>
<text text-anchor="middle" x="221" y="-7.5" font-family="Helvetica,sans-Serif" font-size="10.00">Slide</text>
</a>
</g>
</g>
<!-- Node2 -->
<g id="node2" class="node">
<title>Node2</title>
<g id="a_node2"><a xlink:href="../../d8/d15/classOmniboxPedalAuthRequired.html" target="_top" xlink:title=" ">
<polygon fill="white" stroke="black" points="151,-68.5 151,-87.5 291,-87.5 291,-68.5 151,-68.5"/>
<text text-anchor="middle" x="221" y="-75.5" font-family="Helvetica,sans-Serif" font-size="10.00">OmniboxPedalAuthRequired</text>
</a>
</g>
</g>
<!-- Node2&#45;&gt;Node1 -->
<g id="edge1" class="edge">
<title>Node2&#45;&gt;Node1</title>
<path fill="none" stroke="midnightblue" d="M221,-58.22C221,-49.36 221,-38.96 221,-30.76"/>
<polygon fill="midnightblue" stroke="midnightblue" points="217.5,-58.33 221,-68.33 224.5,-58.33 217.5,-58.33"/>
</g>
<!-- Node3 -->
<g id="node3" class="node">
<title>Node3</title>
<g id="a_node3"><a xlink:href="../../d4/de9/classOmniboxPedal.html" target="_top" xlink:title=" ">
<polygon fill="white" stroke="black" points="181,-125.5 181,-144.5 261,-144.5 261,-125.5 181,-125.5"/>
<text text-anchor="middle" x="221" y="-132.5" font-family="Helvetica,sans-Serif" font-size="10.00">OmniboxPedal</text>
</a>
</g>
</g>
<!-- Node3&#45;&gt;Node2 -->
<g id="edge2" class="edge">
<title>Node3&#45;&gt;Node2</title>
<path fill="none" stroke="midnightblue" d="M221,-115.12C221,-105.82 221,-95.06 221,-87.71"/>
<polygon fill="midnightblue" stroke="midnightblue" points="217.5,-115.41 221,-125.41 224.5,-115.41 217.5,-115.41"/>
</g>
<!-- Node4 -->
<g id="node4" class="node">
<title>Node4</title>
<g id="a_node4"><a xlink:href="../../d9/d8f/classOmniboxAction.html" target="_top" xlink:title=" ">
<polygon fill="white" stroke="black" points="111.5,-192.5 111.5,-211.5 194.5,-211.5 194.5,-192.5 111.5,-192.5"/>
<text text-anchor="middle" x="153" y="-199.5" font-family="Helvetica,sans-Serif" font-size="10.00">OmniboxAction</text>
</a>
</g>
</g>
<!-- Node4&#45;&gt;Node3 -->
<g id="edge3" class="edge">
<title>Node4&#45;&gt;Node3</title>
<path fill="none" stroke="midnightblue" d="M169.74,-185C183.08,-172.25 201.23,-154.89 211.97,-144.63"/>
<polygon fill="midnightblue" stroke="midnightblue" points="166.98,-182.79 162.17,-192.23 171.82,-187.85 166.98,-182.79"/>
</g>
<!-- Node5 -->
<g id="node5" class="node">
<title>Node5</title>
<g id="a_node5"><a xlink:title=" ">
<polygon fill="white" stroke="#bfbfbf" points="0,-259.5 0,-289.5 144,-289.5 144,-259.5 0,-259.5"/>
<text text-anchor="start" x="8" y="-277.5" font-family="Helvetica,sans-Serif" font-size="10.00">base::RefCounted&lt; Omnibox</text>
<text text-anchor="middle" x="72" y="-266.5" font-family="Helvetica,sans-Serif" font-size="10.00">Action &gt;</text>
</a>
</g>
</g>
<!-- Node5&#45;&gt;Node4 -->
<g id="edge4" class="edge">
<title>Node5&#45;&gt;Node4</title>
<path fill="none" stroke="midnightblue" d="M96.12,-252.51C111.68,-238.96 131.13,-222.03 142.78,-211.89"/>
<polygon fill="midnightblue" stroke="midnightblue" points="93.64,-250.03 88.39,-259.23 98.23,-255.31 93.64,-250.03"/>
</g>
<!-- Node6 -->
<g id="node6" class="node">
<title>Node6</title>
<g id="a_node6"><a xlink:href="../../da/df2/structOmniboxAction_1_1LabelStrings.html" target="_top" xlink:title=" ">
<polygon fill="white" stroke="black" points="162.5,-265 162.5,-284 305.5,-284 305.5,-265 162.5,-265"/>
<text text-anchor="middle" x="234" y="-272" font-family="Helvetica,sans-Serif" font-size="10.00">OmniboxAction::LabelStrings</text>
</a>
</g>
</g>
<!-- Node6&#45;&gt;Node4 -->
<g id="edge5" class="edge">
<title>Node6&#45;&gt;Node4</title>
<path fill="none" stroke="#9a32cd" stroke-dasharray="5,2" d="M216.29,-258.08C199.96,-243.87 176.29,-223.27 163.01,-211.72"/>
<polygon fill="#9a32cd" stroke="#9a32cd" points="214.23,-260.93 224.07,-264.86 218.82,-255.65 214.23,-260.93"/>
<text text-anchor="middle" x="215" y="-233" font-family="Helvetica,sans-Serif" font-size="10.00"> strings_</text>
</g>
<!-- Node7 -->
<g id="node7" class="node">
<title>Node7</title>
<g id="a_node7"><a xlink:href="../../d6/d3c/classOmniboxPedal_1_1SynonymGroup.html" target="_top" xlink:title=" ">
<polygon fill="white" stroke="black" points="213,-192.5 213,-211.5 367,-211.5 367,-192.5 213,-192.5"/>
<text text-anchor="middle" x="290" y="-199.5" font-family="Helvetica,sans-Serif" font-size="10.00">OmniboxPedal::SynonymGroup</text>
</a>
</g>
</g>
<!-- Node7&#45;&gt;Node3 -->
<g id="edge6" class="edge">
<title>Node7&#45;&gt;Node3</title>
<path fill="none" stroke="#9a32cd" stroke-dasharray="5,2" d="M273.39,-185.36C259.83,-172.58 241.16,-154.99 230.16,-144.63"/>
<polygon fill="#9a32cd" stroke="#9a32cd" points="271.02,-187.92 280.69,-192.23 275.82,-182.83 271.02,-187.92"/>
<text text-anchor="middle" x="319.5" y="-166" font-family="Helvetica,sans-Serif" font-size="10.00"> verbatim_synonym_group_</text>
</g>
</g>
</svg>
