<?xml version="1.0" encoding="UTF-8" standalone="no"?>
<!DOCTYPE svg PUBLIC "-//W3C//DTD SVG 1.1//EN"
 "http://www.w3.org/Graphics/SVG/1.1/DTD/svg11.dtd">
<!-- Generated by graphviz version 2.43.0 (0)
 -->
<!-- Title: chrome/browser/ui/views/omnibox/omnibox_match_cell_view.h Pages: 1 -->
<svg width="620pt" height="128pt"
 viewBox="0.00 0.00 619.50 128.00" xmlns="http://www.w3.org/2000/svg" xmlns:xlink="http://www.w3.org/1999/xlink">
<g id="graph0" class="graph" transform="scale(1 1) rotate(0) translate(4 124)">
<title>chrome/browser/ui/views/omnibox/omnibox_match_cell_view.h</title>
<polygon fill="white" stroke="transparent" points="-4,4 -4,-124 615.5,-124 615.5,4 -4,4"/>
<!-- Node1 -->
<g id="node1" class="node">
<title>Node1</title>
<g id="a_node1"><a xlink:title=" ">
<polygon fill="#bfbfbf" stroke="black" points="224,-78.5 224,-119.5 352,-119.5 352,-78.5 224,-78.5"/>
<text text-anchor="start" x="232" y="-107.5" font-family="Helvetica,sans-Serif" font-size="10.00">chrome/browser/ui/views</text>
<text text-anchor="start" x="232" y="-96.5" font-family="Helvetica,sans-Serif" font-size="10.00">/omnibox/omnibox_match</text>
<text text-anchor="middle" x="288" y="-85.5" font-family="Helvetica,sans-Serif" font-size="10.00">_cell_view.h</text>
</a>
</g>
</g>
<!-- Node2 -->
<g id="node2" class="node">
<title>Node2</title>
<g id="a_node2"><a xlink:href="../../d8/df8/omnibox__match__cell__view_8cc.html" target="_top" xlink:title=" ">
<polygon fill="white" stroke="black" points="0,-0.5 0,-41.5 128,-41.5 128,-0.5 0,-0.5"/>
<text text-anchor="start" x="8" y="-29.5" font-family="Helvetica,sans-Serif" font-size="10.00">chrome/browser/ui/views</text>
<text text-anchor="start" x="8" y="-18.5" font-family="Helvetica,sans-Serif" font-size="10.00">/omnibox/omnibox_match</text>
<text text-anchor="middle" x="64" y="-7.5" font-family="Helvetica,sans-Serif" font-size="10.00">_cell_view.cc</text>
</a>
</g>
</g>
<!-- Node1&#45;&gt;Node2 -->
<g id="edge1" class="edge">
<title>Node1&#45;&gt;Node2</title>
<path fill="none" stroke="midnightblue" d="M220.7,-75.17C189.08,-64.44 151.77,-51.78 121.49,-41.51"/>
<polygon fill="midnightblue" stroke="midnightblue" points="219.72,-78.53 230.31,-78.43 221.97,-71.9 219.72,-78.53"/>
</g>
<!-- Node3 -->
<g id="node3" class="node">
<title>Node3</title>
<g id="a_node3"><a xlink:href="../../d3/d3f/omnibox__result__view_8cc.html" target="_top" xlink:title=" ">
<polygon fill="white" stroke="black" points="146.5,-0.5 146.5,-41.5 271.5,-41.5 271.5,-0.5 146.5,-0.5"/>
<text text-anchor="start" x="154.5" y="-29.5" font-family="Helvetica,sans-Serif" font-size="10.00">chrome/browser/ui/views</text>
<text text-anchor="start" x="154.5" y="-18.5" font-family="Helvetica,sans-Serif" font-size="10.00">/omnibox/omnibox_result</text>
<text text-anchor="middle" x="209" y="-7.5" font-family="Helvetica,sans-Serif" font-size="10.00">_view.cc</text>
</a>
</g>
</g>
<!-- Node1&#45;&gt;Node3 -->
<g id="edge2" class="edge">
<title>Node1&#45;&gt;Node3</title>
<path fill="none" stroke="midnightblue" d="M260.45,-71.49C250.19,-61.63 238.76,-50.63 229.28,-41.51"/>
<polygon fill="midnightblue" stroke="midnightblue" points="258.02,-74.02 267.66,-78.43 262.88,-68.97 258.02,-74.02"/>
</g>
<!-- Node4 -->
<g id="node4" class="node">
<title>Node4</title>
<g id="a_node4"><a xlink:href="../../dc/dce/omnibox__row__view_8cc.html" target="_top" xlink:title=" ">
<polygon fill="white" stroke="black" points="289.5,-6 289.5,-36 444.5,-36 444.5,-6 289.5,-6"/>
<text text-anchor="start" x="297.5" y="-24" font-family="Helvetica,sans-Serif" font-size="10.00">chrome/browser/ui/views</text>
<text text-anchor="middle" x="367" y="-13" font-family="Helvetica,sans-Serif" font-size="10.00">/omnibox/omnibox_row_view.cc</text>
</a>
</g>
</g>
<!-- Node1&#45;&gt;Node4 -->
<g id="edge3" class="edge">
<title>Node1&#45;&gt;Node4</title>
<path fill="none" stroke="midnightblue" d="M315.73,-71.32C328.01,-59.51 341.97,-46.08 352.21,-36.23"/>
<polygon fill="midnightblue" stroke="midnightblue" points="313.12,-68.97 308.34,-78.43 317.98,-74.02 313.12,-68.97"/>
</g>
<!-- Node5 -->
<g id="node5" class="node">
<title>Node5</title>
<g id="a_node5"><a xlink:href="../../de/d2f/omnibox__suggestion__button__row__view_8cc.html" target="_top" xlink:title=" ">
<polygon fill="white" stroke="black" points="462.5,-0.5 462.5,-41.5 611.5,-41.5 611.5,-0.5 462.5,-0.5"/>
<text text-anchor="start" x="470.5" y="-29.5" font-family="Helvetica,sans-Serif" font-size="10.00">chrome/browser/ui/views</text>
<text text-anchor="start" x="470.5" y="-18.5" font-family="Helvetica,sans-Serif" font-size="10.00">/omnibox/omnibox_suggestion</text>
<text text-anchor="middle" x="537" y="-7.5" font-family="Helvetica,sans-Serif" font-size="10.00">_button_row_view.cc</text>
</a>
</g>
</g>
<!-- Node1&#45;&gt;Node5 -->
<g id="edge4" class="edge">
<title>Node1&#45;&gt;Node5</title>
<path fill="none" stroke="midnightblue" d="M361.91,-75.44C397.25,-64.66 439.15,-51.87 473.09,-41.51"/>
<polygon fill="midnightblue" stroke="midnightblue" points="360.67,-72.16 352.12,-78.43 362.71,-78.86 360.67,-72.16"/>
</g>
</g>
</svg>
