<?xml version="1.0" encoding="UTF-8" standalone="no"?>
<!DOCTYPE svg PUBLIC "-//W3C//DTD SVG 1.1//EN"
 "http://www.w3.org/Graphics/SVG/1.1/DTD/svg11.dtd">
<!-- Generated by graphviz version 2.43.0 (0)
 -->
<!-- Title: OmniboxPedalProvider::OmniboxPedalProvider Pages: 1 -->
<!--zoomable 488 -->
<svg id="main" version="1.1" xmlns="http://www.w3.org/2000/svg" xmlns:xlink="http://www.w3.org/1999/xlink" xml:space="preserve" onload="init(evt)">
<style type="text/css"><![CDATA[
.edge:hover path { stroke: red; }
.edge:hover polygon { stroke: red; fill: red; }
]]></style>
<script type="text/javascript"><![CDATA[
var edges = document.getElementsByTagName('g');
if (edges && edges.length) {
  for (var i=0;i<edges.length;i++) {
    if (edges[i].id.substr(0,4)=='edge') {
      edges[i].setAttribute('class','edge');
    }
  }
}
]]></script>
        <defs>
                <circle id="rim" cx="0" cy="0" r="7"/>
                <circle id="rim2" cx="0" cy="0" r="3.5"/>
                <g id="zoomPlus">
                        <use xlink:href="#rim" fill="#404040">
                                <set attributeName="fill" to="#808080" begin="zoomplus.mouseover" end="zoomplus.mouseout"/>
                        </use>
                        <path d="M-4,0h8M0,-4v8" fill="none" stroke="white" stroke-width="1.5" pointer-events="none"/>
                </g>
                <g id="zoomMin">
                        <use xlink:href="#rim" fill="#404040">
                                <set attributeName="fill" to="#808080" begin="zoomminus.mouseover" end="zoomminus.mouseout"/>
                        </use>
                        <path d="M-4,0h8" fill="none" stroke="white" stroke-width="1.5" pointer-events="none"/>
                </g>
                <g id="dirArrow">
                        <path fill="none" stroke="white" stroke-width="1.5" d="M0,-3.0v7 M-2.5,-0.5L0,-3.0L2.5,-0.5"/>
                </g>
               <g id="resetDef">
                       <use xlink:href="#rim2" fill="#404040">
                               <set attributeName="fill" to="#808080" begin="reset.mouseover" end="reset.mouseout"/>
                       </use>
               </g>
        </defs>

<script type="text/javascript">
var viewWidth = 1088;
var viewHeight = 488;
var sectionId = 'dynsection-1';
</script>
<script xlink:href="../../svgpan.js"/>
<svg id="graph" class="graph">
<g id="viewport">
<title>OmniboxPedalProvider::OmniboxPedalProvider</title>
<polygon fill="white" stroke="transparent" points="-4,4 -4,-484 1084,-484 1084,4 -4,4"/>
<!-- Node1 -->
<g id="node1" class="node">
<title>Node1</title>
<g id="a_node1"><a xlink:title=" ">
<polygon fill="#bfbfbf" stroke="black" points="0,-224.5 0,-254.5 122,-254.5 122,-224.5 0,-224.5"/>
<text text-anchor="start" x="8" y="-242.5" font-family="Helvetica,sans-Serif" font-size="10.00">OmniboxPedalProvider</text>
<text text-anchor="middle" x="61" y="-231.5" font-family="Helvetica,sans-Serif" font-size="10.00">::OmniboxPedalProvider</text>
</a>
</g>
</g>
<!-- Node2 -->
<g id="node2" class="node">
<title>Node2</title>
<g id="a_node2"><a xlink:href="../../d6/dea/classOmniboxPedalProvider.html#a0bd5fe3f161da3546849e4faa484ab3c" target="_top" xlink:title=" ">
<polygon fill="white" stroke="black" points="158,-224.5 158,-254.5 274,-254.5 274,-224.5 158,-224.5"/>
<text text-anchor="start" x="166" y="-242.5" font-family="Helvetica,sans-Serif" font-size="10.00">OmniboxPedalProvider</text>
<text text-anchor="middle" x="216" y="-231.5" font-family="Helvetica,sans-Serif" font-size="10.00">::LoadPedalConcepts</text>
</a>
</g>
</g>
<!-- Node1&#45;&gt;Node2 -->
<g id="edge1" class="edge">
<title>Node1&#45;&gt;Node2</title>
<path fill="none" stroke="midnightblue" d="M122.03,-239.5C130.36,-239.5 138.97,-239.5 147.43,-239.5"/>
<polygon fill="midnightblue" stroke="midnightblue" points="147.64,-243 157.64,-239.5 147.64,-236 147.64,-243"/>
</g>
<!-- Node3 -->
<g id="node3" class="node">
<title>Node3</title>
<g id="a_node3"><a xlink:href="../../d4/de9/classOmniboxPedal.html#ab6fc3a1636148c538c4dd622ca83a561" target="_top" xlink:title=" ">
<polygon fill="white" stroke="black" points="323,-449.5 323,-479.5 468,-479.5 468,-449.5 323,-449.5"/>
<text text-anchor="start" x="331" y="-467.5" font-family="Helvetica,sans-Serif" font-size="10.00">OmniboxPedal::AddSynonym</text>
<text text-anchor="middle" x="395.5" y="-456.5" font-family="Helvetica,sans-Serif" font-size="10.00">Group</text>
</a>
</g>
</g>
<!-- Node2&#45;&gt;Node3 -->
<g id="edge2" class="edge">
<title>Node2&#45;&gt;Node3</title>
<path fill="none" stroke="midnightblue" d="M219.57,-254.7C226.72,-292.16 250.37,-389.54 310,-440.5 311.52,-441.8 313.11,-443.03 314.75,-444.19"/>
<polygon fill="midnightblue" stroke="midnightblue" points="313.02,-447.24 323.38,-449.48 316.68,-441.27 313.02,-447.24"/>
</g>
<!-- Node4 -->
<g id="node4" class="node">
<title>Node4</title>
<g id="a_node4"><a xlink:href="../../d6/d3c/classOmniboxPedal_1_1SynonymGroup.html#a3d1356c401a5c299cd68a0733f638764" target="_top" xlink:title=" ">
<polygon fill="white" stroke="black" points="318.5,-400.5 318.5,-430.5 472.5,-430.5 472.5,-400.5 318.5,-400.5"/>
<text text-anchor="start" x="326.5" y="-418.5" font-family="Helvetica,sans-Serif" font-size="10.00">OmniboxPedal::SynonymGroup</text>
<text text-anchor="middle" x="395.5" y="-407.5" font-family="Helvetica,sans-Serif" font-size="10.00">::EraseIgnoreGroup</text>
</a>
</g>
</g>
<!-- Node2&#45;&gt;Node4 -->
<g id="edge3" class="edge">
<title>Node2&#45;&gt;Node4</title>
<path fill="none" stroke="midnightblue" d="M222.2,-254.92C233.32,-285.5 262.32,-354.01 310,-390.5 312.47,-392.39 315.08,-394.14 317.8,-395.76"/>
<polygon fill="midnightblue" stroke="midnightblue" points="316.3,-398.92 326.77,-400.48 319.56,-392.73 316.3,-398.92"/>
</g>
<!-- Node9 -->
<g id="node9" class="node">
<title>Node9</title>
<g id="a_node9"><a xlink:href="../../d9/d8f/classOmniboxAction.html#a0bad894831021fdfb657c65559fcb1c1" target="_top" xlink:title=" ">
<polygon fill="white" stroke="black" points="316,-362 316,-381 475,-381 475,-362 316,-362"/>
<text text-anchor="middle" x="395.5" y="-369" font-family="Helvetica,sans-Serif" font-size="10.00">OmniboxAction::GetLabelStrings</text>
</a>
</g>
</g>
<!-- Node2&#45;&gt;Node9 -->
<g id="edge9" class="edge">
<title>Node2&#45;&gt;Node9</title>
<path fill="none" stroke="midnightblue" d="M225.03,-254.67C238.9,-279.3 269.75,-327.73 310,-352.5 313.43,-354.61 317.07,-356.49 320.84,-358.16"/>
<polygon fill="midnightblue" stroke="midnightblue" points="319.82,-361.52 330.41,-361.9 322.37,-355 319.82,-361.52"/>
</g>
<!-- Node10 -->
<g id="node10" class="node">
<title>Node10</title>
<g id="a_node10"><a xlink:href="../../d1/d73/namespaceOmniboxFieldTrial.html#a4c634f87d7a005c5456bb7f2f48d2425" target="_top" xlink:title=" ">
<polygon fill="white" stroke="black" points="310,-312.5 310,-342.5 481,-342.5 481,-312.5 310,-312.5"/>
<text text-anchor="start" x="318" y="-330.5" font-family="Helvetica,sans-Serif" font-size="10.00">OmniboxFieldTrial::</text>
<text text-anchor="middle" x="395.5" y="-319.5" font-family="Helvetica,sans-Serif" font-size="10.00">IsPedalsBatch2NonEnglishEnabled</text>
</a>
</g>
</g>
<!-- Node2&#45;&gt;Node10 -->
<g id="edge10" class="edge">
<title>Node2&#45;&gt;Node10</title>
<path fill="none" stroke="midnightblue" d="M238.41,-254.72C256.78,-267.32 284.29,-285.1 310,-297.5 318.53,-301.62 327.79,-305.47 336.93,-308.95"/>
<polygon fill="midnightblue" stroke="midnightblue" points="335.8,-312.27 346.39,-312.45 338.22,-305.7 335.8,-312.27"/>
</g>
<!-- Node11 -->
<g id="node11" class="node">
<title>Node11</title>
<g id="a_node11"><a xlink:href="../../d1/d73/namespaceOmniboxFieldTrial.html#a782dc0a11a51ec7d41dd2fd242af0df6" target="_top" xlink:title=" ">
<polygon fill="white" stroke="black" points="729,-252 729,-293 868,-293 868,-252 729,-252"/>
<text text-anchor="start" x="737" y="-281" font-family="Helvetica,sans-Serif" font-size="10.00">OmniboxFieldTrial::</text>
<text text-anchor="start" x="737" y="-270" font-family="Helvetica,sans-Serif" font-size="10.00">IsPedalsTranslationConsole</text>
<text text-anchor="middle" x="798.5" y="-259" font-family="Helvetica,sans-Serif" font-size="10.00">Enabled</text>
</a>
</g>
</g>
<!-- Node2&#45;&gt;Node11 -->
<g id="edge11" class="edge">
<title>Node2&#45;&gt;Node11</title>
<path fill="none" stroke="midnightblue" d="M263.85,-254.5C278.47,-258.53 294.77,-262.36 310,-264.5 453.1,-284.59 622.12,-281.45 718.87,-277.12"/>
<polygon fill="midnightblue" stroke="midnightblue" points="719.04,-280.62 728.86,-276.66 718.71,-273.62 719.04,-280.62"/>
</g>
<!-- Node12 -->
<g id="node12" class="node">
<title>Node12</title>
<g id="a_node12"><a xlink:href="../../d6/d3c/classOmniboxPedal_1_1SynonymGroup.html#acdb3c2de523e3c6c96225bbcba3b47b6" target="_top" xlink:title=" ">
<polygon fill="white" stroke="black" points="318.5,-224.5 318.5,-254.5 472.5,-254.5 472.5,-224.5 318.5,-224.5"/>
<text text-anchor="start" x="326.5" y="-242.5" font-family="Helvetica,sans-Serif" font-size="10.00">OmniboxPedal::SynonymGroup</text>
<text text-anchor="middle" x="395.5" y="-231.5" font-family="Helvetica,sans-Serif" font-size="10.00">::IsValid</text>
</a>
</g>
</g>
<!-- Node2&#45;&gt;Node12 -->
<g id="edge12" class="edge">
<title>Node2&#45;&gt;Node12</title>
<path fill="none" stroke="midnightblue" d="M274.14,-239.5C285.03,-239.5 296.66,-239.5 308.23,-239.5"/>
<polygon fill="midnightblue" stroke="midnightblue" points="308.37,-243 318.37,-239.5 308.36,-236 308.37,-243"/>
</g>
<!-- Node13 -->
<g id="node13" class="node">
<title>Node13</title>
<g id="a_node13"><a xlink:href="../../d6/dea/classOmniboxPedalProvider.html#a7be77a55ea5e7c489e501e616726a9fd" target="_top" xlink:title=" ">
<polygon fill="white" stroke="black" points="327,-175.5 327,-205.5 464,-205.5 464,-175.5 327,-175.5"/>
<text text-anchor="start" x="335" y="-193.5" font-family="Helvetica,sans-Serif" font-size="10.00">OmniboxPedalProvider</text>
<text text-anchor="middle" x="395.5" y="-182.5" font-family="Helvetica,sans-Serif" font-size="10.00">::LoadSynonymGroupString</text>
</a>
</g>
</g>
<!-- Node2&#45;&gt;Node13 -->
<g id="edge13" class="edge">
<title>Node2&#45;&gt;Node13</title>
<path fill="none" stroke="midnightblue" d="M271.7,-224.4C290.18,-219.3 310.98,-213.56 330.13,-208.27"/>
<polygon fill="midnightblue" stroke="midnightblue" points="331.27,-211.59 339.98,-205.55 329.41,-204.84 331.27,-211.59"/>
</g>
<!-- Node20 -->
<g id="node20" class="node">
<title>Node20</title>
<g id="a_node20"><a xlink:href="../../d6/dea/classOmniboxPedalProvider.html#a8eb768572bd7fcfb3af89d31ea6e423b" target="_top" xlink:title=" ">
<polygon fill="white" stroke="black" points="328,-126.5 328,-156.5 463,-156.5 463,-126.5 328,-126.5"/>
<text text-anchor="start" x="336" y="-144.5" font-family="Helvetica,sans-Serif" font-size="10.00">OmniboxPedalProvider</text>
<text text-anchor="middle" x="395.5" y="-133.5" font-family="Helvetica,sans-Serif" font-size="10.00">::LoadSynonymGroupValue</text>
</a>
</g>
</g>
<!-- Node2&#45;&gt;Node20 -->
<g id="edge23" class="edge">
<title>Node2&#45;&gt;Node20</title>
<path fill="none" stroke="midnightblue" d="M232.49,-224.27C249.97,-207.87 279.91,-182.04 310,-166.5 314.47,-164.19 319.19,-162.06 324.02,-160.11"/>
<polygon fill="midnightblue" stroke="midnightblue" points="325.29,-163.37 333.4,-156.55 322.81,-156.82 325.29,-163.37"/>
</g>
<!-- Node21 -->
<g id="node21" class="node">
<title>Node21</title>
<g id="a_node21"><a xlink:href="../../d4/de9/classOmniboxPedal.html#a28eb1d607a619712613b959173746e0a" target="_top" xlink:title=" ">
<polygon fill="white" stroke="black" points="318,-88 318,-107 473,-107 473,-88 318,-88"/>
<text text-anchor="middle" x="395.5" y="-95" font-family="Helvetica,sans-Serif" font-size="10.00">OmniboxPedal::SetLabelStrings</text>
</a>
</g>
</g>
<!-- Node2&#45;&gt;Node21 -->
<g id="edge26" class="edge">
<title>Node2&#45;&gt;Node21</title>
<path fill="none" stroke="midnightblue" d="M224.04,-224.27C237.04,-197.89 267.46,-143.9 310,-116.5 313.32,-114.36 316.84,-112.46 320.5,-110.78"/>
<polygon fill="midnightblue" stroke="midnightblue" points="321.86,-114 329.81,-107.01 319.23,-107.51 321.86,-114"/>
</g>
<!-- Node22 -->
<g id="node22" class="node">
<title>Node22</title>
<g id="a_node22"><a xlink:href="../../d4/de9/classOmniboxPedal.html#adcf8798c485bf39d08a951da0095ff22" target="_top" xlink:title=" ">
<polygon fill="white" stroke="black" points="315,-50 315,-69 476,-69 476,-50 315,-50"/>
<text text-anchor="middle" x="395.5" y="-57" font-family="Helvetica,sans-Serif" font-size="10.00">OmniboxPedal::SetNavigationUrl</text>
</a>
</g>
</g>
<!-- Node2&#45;&gt;Node22 -->
<g id="edge27" class="edge">
<title>Node2&#45;&gt;Node22</title>
<path fill="none" stroke="midnightblue" d="M221.23,-224.28C231.04,-191.97 258.51,-116.36 310,-78.5 312.52,-76.64 315.19,-74.97 317.97,-73.45"/>
<polygon fill="midnightblue" stroke="midnightblue" points="319.61,-76.54 327.17,-69.12 316.63,-70.21 319.61,-76.54"/>
</g>
<!-- Node23 -->
<g id="node23" class="node">
<title>Node23</title>
<g id="a_node23"><a xlink:href="../../d4/de9/classOmniboxPedal.html#abcb4b1e0d8de3c3ac99351b85a73a121" target="_top" xlink:title=" ">
<polygon fill="white" stroke="black" points="315,-0.5 315,-30.5 476,-30.5 476,-0.5 315,-0.5"/>
<text text-anchor="start" x="323" y="-18.5" font-family="Helvetica,sans-Serif" font-size="10.00">OmniboxPedal::SpecifySynonym</text>
<text text-anchor="middle" x="395.5" y="-7.5" font-family="Helvetica,sans-Serif" font-size="10.00">Groups</text>
</a>
</g>
</g>
<!-- Node2&#45;&gt;Node23 -->
<g id="edge28" class="edge">
<title>Node2&#45;&gt;Node23</title>
<path fill="none" stroke="midnightblue" d="M219.65,-224.48C226.99,-187.48 251.03,-91.25 310,-40.5 311.98,-38.8 314.07,-37.21 316.25,-35.73"/>
<polygon fill="midnightblue" stroke="midnightblue" points="318.2,-38.64 325.03,-30.55 314.64,-32.61 318.2,-38.64"/>
</g>
<!-- Node5 -->
<g id="node5" class="node">
<title>Node5</title>
<g id="a_node5"><a xlink:href="../../d6/d3c/classOmniboxPedal_1_1SynonymGroup.html#a3288d0cb6752b3dc2422a518f9eed1f1" target="_top" xlink:title=" ">
<polygon fill="white" stroke="black" points="518,-361.5 518,-391.5 672,-391.5 672,-361.5 518,-361.5"/>
<text text-anchor="start" x="526" y="-379.5" font-family="Helvetica,sans-Serif" font-size="10.00">OmniboxPedal::SynonymGroup</text>
<text text-anchor="middle" x="595" y="-368.5" font-family="Helvetica,sans-Serif" font-size="10.00">::EraseMatchesIn</text>
</a>
</g>
</g>
<!-- Node4&#45;&gt;Node5 -->
<g id="edge4" class="edge">
<title>Node4&#45;&gt;Node5</title>
<path fill="none" stroke="midnightblue" d="M472.58,-400.48C484.21,-398.18 496.28,-395.8 508.1,-393.46"/>
<polygon fill="midnightblue" stroke="midnightblue" points="508.83,-396.89 517.96,-391.51 507.47,-390.02 508.83,-396.89"/>
</g>
<!-- Node6 -->
<g id="node6" class="node">
<title>Node6</title>
<g id="a_node6"><a xlink:href="../../d5/de6/classOmniboxPedal_1_1TokenSequence.html#a2b9264448c7149e2b34a4b49c0ccbea9" target="_top" xlink:title=" ">
<polygon fill="white" stroke="black" points="720.5,-361.5 720.5,-391.5 876.5,-391.5 876.5,-361.5 720.5,-361.5"/>
<text text-anchor="start" x="728.5" y="-379.5" font-family="Helvetica,sans-Serif" font-size="10.00">OmniboxPedal::TokenSequence</text>
<text text-anchor="middle" x="798.5" y="-368.5" font-family="Helvetica,sans-Serif" font-size="10.00">::Consume</text>
</a>
</g>
</g>
<!-- Node5&#45;&gt;Node6 -->
<g id="edge5" class="edge">
<title>Node5&#45;&gt;Node6</title>
<path fill="none" stroke="midnightblue" d="M672.18,-376.5C684.58,-376.5 697.51,-376.5 710.15,-376.5"/>
<polygon fill="midnightblue" stroke="midnightblue" points="710.21,-380 720.21,-376.5 710.21,-373 710.21,-380"/>
</g>
<!-- Node8 -->
<g id="node8" class="node">
<title>Node8</title>
<g id="a_node8"><a xlink:href="../../d5/de6/classOmniboxPedal_1_1TokenSequence.html#a5cc31594ba99535bff124e34b99f6fab" target="_top" xlink:title=" ">
<polygon fill="white" stroke="black" points="720.5,-312.5 720.5,-342.5 876.5,-342.5 876.5,-312.5 720.5,-312.5"/>
<text text-anchor="start" x="728.5" y="-330.5" font-family="Helvetica,sans-Serif" font-size="10.00">OmniboxPedal::TokenSequence</text>
<text text-anchor="middle" x="798.5" y="-319.5" font-family="Helvetica,sans-Serif" font-size="10.00">::Erase</text>
</a>
</g>
</g>
<!-- Node5&#45;&gt;Node8 -->
<g id="edge7" class="edge">
<title>Node5&#45;&gt;Node8</title>
<path fill="none" stroke="midnightblue" d="M657.83,-361.47C679.39,-356.22 703.77,-350.29 726.05,-344.87"/>
<polygon fill="midnightblue" stroke="midnightblue" points="726.9,-348.27 735.79,-342.51 725.25,-341.47 726.9,-348.27"/>
</g>
<!-- Node7 -->
<g id="node7" class="node">
<title>Node7</title>
<g id="a_node7"><a xlink:href="../../d5/de6/classOmniboxPedal_1_1TokenSequence.html#ada3b08284991f9cc0cfd6c235691834b" target="_top" xlink:title=" ">
<polygon fill="white" stroke="black" points="924,-260.5 924,-290.5 1080,-290.5 1080,-260.5 924,-260.5"/>
<text text-anchor="start" x="932" y="-278.5" font-family="Helvetica,sans-Serif" font-size="10.00">OmniboxPedal::TokenSequence</text>
<text text-anchor="middle" x="1002" y="-267.5" font-family="Helvetica,sans-Serif" font-size="10.00">::Size</text>
</a>
</g>
</g>
<!-- Node6&#45;&gt;Node7 -->
<g id="edge6" class="edge">
<title>Node6&#45;&gt;Node7</title>
<path fill="none" stroke="midnightblue" d="M865.15,-361.36C872.99,-358.77 880.77,-355.83 888,-352.5 920.12,-337.71 953.12,-314.06 975.1,-296.87"/>
<polygon fill="midnightblue" stroke="midnightblue" points="977.31,-299.59 982.96,-290.63 972.96,-294.1 977.31,-299.59"/>
</g>
<!-- Node8&#45;&gt;Node7 -->
<g id="edge8" class="edge">
<title>Node8&#45;&gt;Node7</title>
<path fill="none" stroke="midnightblue" d="M857.78,-312.46C881.28,-306.4 908.55,-299.36 932.94,-293.06"/>
<polygon fill="midnightblue" stroke="midnightblue" points="934.04,-296.39 942.85,-290.51 932.29,-289.62 934.04,-296.39"/>
</g>
<!-- Node14 -->
<g id="node14" class="node">
<title>Node14</title>
<g id="a_node14"><a xlink:href="../../d6/d3c/classOmniboxPedal_1_1SynonymGroup.html#a7f5bcd99e4a873ae0bdff5593529aa57" target="_top" xlink:title=" ">
<polygon fill="white" stroke="black" points="518,-175.5 518,-205.5 672,-205.5 672,-175.5 518,-175.5"/>
<text text-anchor="start" x="526" y="-193.5" font-family="Helvetica,sans-Serif" font-size="10.00">OmniboxPedal::SynonymGroup</text>
<text text-anchor="middle" x="595" y="-182.5" font-family="Helvetica,sans-Serif" font-size="10.00">::AddSynonym</text>
</a>
</g>
</g>
<!-- Node13&#45;&gt;Node14 -->
<g id="edge14" class="edge">
<title>Node13&#45;&gt;Node14</title>
<path fill="none" stroke="midnightblue" d="M464.19,-190.5C478.25,-190.5 493.25,-190.5 507.88,-190.5"/>
<polygon fill="midnightblue" stroke="midnightblue" points="507.92,-194 517.92,-190.5 507.92,-187 507.92,-194"/>
</g>
<!-- Node15 -->
<g id="node15" class="node">
<title>Node15</title>
<g id="a_node15"><a xlink:href="../../d6/d3c/classOmniboxPedal_1_1SynonymGroup.html#a8f70edcc69e3f394575f5f4f994b159c" target="_top" xlink:title=" ">
<polygon fill="white" stroke="black" points="518,-224.5 518,-254.5 672,-254.5 672,-224.5 518,-224.5"/>
<text text-anchor="start" x="526" y="-242.5" font-family="Helvetica,sans-Serif" font-size="10.00">OmniboxPedal::SynonymGroup</text>
<text text-anchor="middle" x="595" y="-231.5" font-family="Helvetica,sans-Serif" font-size="10.00">::SortSynonyms</text>
</a>
</g>
</g>
<!-- Node13&#45;&gt;Node15 -->
<g id="edge17" class="edge">
<title>Node13&#45;&gt;Node15</title>
<path fill="none" stroke="midnightblue" d="M457.1,-205.53C478.14,-210.76 501.92,-216.65 523.68,-222.05"/>
<polygon fill="midnightblue" stroke="midnightblue" points="522.97,-225.48 533.52,-224.49 524.65,-218.69 522.97,-225.48"/>
</g>
<!-- Node16 -->
<g id="node16" class="node">
<title>Node16</title>
<g id="a_node16"><a xlink:href="../../d6/dea/classOmniboxPedalProvider.html#a5861d9f977203ab9939aac1fcc63b2f3" target="_top" xlink:title=" ">
<polygon fill="white" stroke="black" points="517,-126.5 517,-156.5 673,-156.5 673,-126.5 517,-126.5"/>
<text text-anchor="start" x="525" y="-144.5" font-family="Helvetica,sans-Serif" font-size="10.00">OmniboxPedalProvider</text>
<text text-anchor="middle" x="595" y="-133.5" font-family="Helvetica,sans-Serif" font-size="10.00">::TokenizeAndExpandDictionary</text>
</a>
</g>
</g>
<!-- Node13&#45;&gt;Node16 -->
<g id="edge18" class="edge">
<title>Node13&#45;&gt;Node16</title>
<path fill="none" stroke="midnightblue" d="M457.1,-175.47C478.14,-170.24 501.92,-164.35 523.68,-158.95"/>
<polygon fill="midnightblue" stroke="midnightblue" points="524.65,-162.31 533.52,-156.51 522.97,-155.52 524.65,-162.31"/>
</g>
<!-- Node14&#45;&gt;Node7 -->
<g id="edge16" class="edge">
<title>Node14&#45;&gt;Node7</title>
<path fill="none" stroke="midnightblue" d="M672.08,-201.74C731.28,-211.05 815.31,-225.47 888,-242.5 906.38,-246.81 926.22,-252.3 944.06,-257.57"/>
<polygon fill="midnightblue" stroke="midnightblue" points="943.16,-260.96 953.74,-260.46 945.16,-254.25 943.16,-260.96"/>
</g>
<!-- Node14&#45;&gt;Node11 -->
<g id="edge15" class="edge">
<title>Node14&#45;&gt;Node11</title>
<path fill="none" stroke="midnightblue" d="M648,-205.54C656.49,-208.51 665.08,-211.86 673,-215.5 690.03,-223.34 692.22,-229.13 709,-237.5 716.25,-241.12 723.98,-244.63 731.72,-247.95"/>
<polygon fill="midnightblue" stroke="midnightblue" points="730.58,-251.27 741.15,-251.9 733.28,-244.81 730.58,-251.27"/>
</g>
<!-- Node16&#45;&gt;Node7 -->
<g id="edge22" class="edge">
<title>Node16&#45;&gt;Node7</title>
<path fill="none" stroke="midnightblue" d="M663.5,-156.53C678.48,-159.84 694.27,-163.31 709,-166.5 788.48,-183.73 812.63,-173.95 888,-204.5 919.28,-217.18 951.55,-238.41 973.55,-254.37"/>
<polygon fill="midnightblue" stroke="midnightblue" points="971.62,-257.29 981.75,-260.41 975.77,-251.66 971.62,-257.29"/>
</g>
<!-- Node17 -->
<g id="node17" class="node">
<title>Node17</title>
<g id="a_node17"><a xlink:href="../../d5/de6/classOmniboxPedal_1_1TokenSequence.html#a16976cda1ce1c50d3ba007d20c428b92" target="_top" xlink:title=" ">
<polygon fill="white" stroke="black" points="709,-88 709,-107 888,-107 888,-88 709,-88"/>
<text text-anchor="middle" x="798.5" y="-95" font-family="Helvetica,sans-Serif" font-size="10.00">OmniboxPedal::TokenSequence::Add</text>
</a>
</g>
</g>
<!-- Node16&#45;&gt;Node17 -->
<g id="edge19" class="edge">
<title>Node16&#45;&gt;Node17</title>
<path fill="none" stroke="midnightblue" d="M663.51,-126.49C678.48,-123.18 694.28,-119.71 709,-116.5 719.93,-114.12 731.63,-111.59 742.82,-109.18"/>
<polygon fill="midnightblue" stroke="midnightblue" points="743.88,-112.54 752.92,-107.01 742.41,-105.69 743.88,-112.54"/>
</g>
<!-- Node19 -->
<g id="node19" class="node">
<title>Node19</title>
<g id="a_node19"><a xlink:href="../../d5/de6/classOmniboxPedal_1_1TokenSequence.html#a9a6a9dadda113a391bad480f87efa876" target="_top" xlink:title=" ">
<polygon fill="white" stroke="black" points="720.5,-126.5 720.5,-156.5 876.5,-156.5 876.5,-126.5 720.5,-126.5"/>
<text text-anchor="start" x="728.5" y="-144.5" font-family="Helvetica,sans-Serif" font-size="10.00">OmniboxPedal::TokenSequence</text>
<text text-anchor="middle" x="798.5" y="-133.5" font-family="Helvetica,sans-Serif" font-size="10.00">::Clear</text>
</a>
</g>
</g>
<!-- Node16&#45;&gt;Node19 -->
<g id="edge21" class="edge">
<title>Node16&#45;&gt;Node19</title>
<path fill="none" stroke="midnightblue" d="M673.04,-141.5C685.11,-141.5 697.65,-141.5 709.93,-141.5"/>
<polygon fill="midnightblue" stroke="midnightblue" points="710.17,-145 720.17,-141.5 710.17,-138 710.17,-145"/>
</g>
<!-- Node18 -->
<g id="node18" class="node">
<title>Node18</title>
<g id="a_node18"><a xlink:href="../../d4/de9/classOmniboxPedal.html#a1b77f79c0178f1630f90f3320b58bb8d" target="_top" xlink:title=" ">
<polygon fill="white" stroke="black" points="955,-88 955,-107 1049,-107 1049,-88 955,-88"/>
<text text-anchor="middle" x="1002" y="-95" font-family="Helvetica,sans-Serif" font-size="10.00">OmniboxPedal::id</text>
</a>
</g>
</g>
<!-- Node17&#45;&gt;Node18 -->
<g id="edge20" class="edge">
<title>Node17&#45;&gt;Node18</title>
<path fill="none" stroke="midnightblue" d="M888.17,-97.5C907.42,-97.5 927.25,-97.5 944.82,-97.5"/>
<polygon fill="midnightblue" stroke="midnightblue" points="944.89,-101 954.89,-97.5 944.89,-94 944.89,-101"/>
</g>
<!-- Node20&#45;&gt;Node14 -->
<g id="edge25" class="edge">
<title>Node20&#45;&gt;Node14</title>
<path fill="none" stroke="midnightblue" d="M457.1,-156.53C478.14,-161.76 501.92,-167.65 523.68,-173.05"/>
<polygon fill="midnightblue" stroke="midnightblue" points="522.97,-176.48 533.52,-175.49 524.65,-169.69 522.97,-176.48"/>
</g>
<!-- Node20&#45;&gt;Node17 -->
<g id="edge24" class="edge">
<title>Node20&#45;&gt;Node17</title>
<path fill="none" stroke="midnightblue" d="M460.63,-126.5C478.77,-122.72 498.58,-119.02 517,-116.5 576.97,-108.29 644.66,-103.57 698.52,-100.89"/>
<polygon fill="midnightblue" stroke="midnightblue" points="698.93,-104.38 708.75,-100.4 698.59,-97.39 698.93,-104.38"/>
</g>
</g>
</svg>
        <g id="navigator" transform="translate(0 0)" fill="#404254">
                <rect fill="#f2f5e9" fill-opacity="0.5" stroke="#606060" stroke-width=".5" x="0" y="0" width="60" height="60"/>
                <use id="zoomplus" xlink:href="#zoomPlus" x="17" y="9" onmousedown="handleZoom(evt,'in')"/>
                <use id="zoomminus" xlink:href="#zoomMin" x="42" y="9" onmousedown="handleZoom(evt,'out')"/>
                <use id="reset" xlink:href="#resetDef" x="30" y="36" onmousedown="handleReset()"/>
                <g id="arrowUp" xlink:href="#dirArrow" transform="translate(30 24)" onmousedown="handlePan(0,-1)">
                  <use xlink:href="#rim" fill="#404040">
                        <set attributeName="fill" to="#808080" begin="arrowUp.mouseover" end="arrowUp.mouseout"/>
                  </use>
                  <path fill="none" stroke="white" stroke-width="1.5" d="M0,-3.0v7 M-2.5,-0.5L0,-3.0L2.5,-0.5"/>
                </g>
                <g id="arrowRight" xlink:href="#dirArrow" transform="rotate(90) translate(36 -43)" onmousedown="handlePan(1,0)">
                  <use xlink:href="#rim" fill="#404040">
                        <set attributeName="fill" to="#808080" begin="arrowRight.mouseover" end="arrowRight.mouseout"/>
                  </use>
                  <path fill="none" stroke="white" stroke-width="1.5" d="M0,-3.0v7 M-2.5,-0.5L0,-3.0L2.5,-0.5"/>
                </g>
                <g id="arrowDown" xlink:href="#dirArrow" transform="rotate(180) translate(-30 -48)" onmousedown="handlePan(0,1)">
                  <use xlink:href="#rim" fill="#404040">
                        <set attributeName="fill" to="#808080" begin="arrowDown.mouseover" end="arrowDown.mouseout"/>
                  </use>
                  <path fill="none" stroke="white" stroke-width="1.5" d="M0,-3.0v7 M-2.5,-0.5L0,-3.0L2.5,-0.5"/>
                </g>
                <g id="arrowLeft" xlink:href="#dirArrow" transform="rotate(270) translate(-36 17)" onmousedown="handlePan(-1,0)">
                  <use xlink:href="#rim" fill="#404040">
                        <set attributeName="fill" to="#808080" begin="arrowLeft.mouseover" end="arrowLeft.mouseout"/>
                  </use>
                  <path fill="none" stroke="white" stroke-width="1.5" d="M0,-3.0v7 M-2.5,-0.5L0,-3.0L2.5,-0.5"/>
                </g>
        </g>
        <svg viewBox="0 0 15 15" width="100%" height="30px" preserveAspectRatio="xMaxYMin meet">
         <g id="arrow_out" transform="scale(0.3 0.3)">
          <a xlink:href="classOmniboxPedalProvider_aac587d07bb182c56eefe728e7654c1ec_cgraph_org.svg" target="_base">
           <rect id="button" ry="5" rx="5" y="6" x="6" height="38" width="38"
                fill="#f2f5e9" fill-opacity="0.5" stroke="#606060" stroke-width="1.0"/>
           <path id="arrow"
             d="M 11.500037,31.436501 C 11.940474,20.09759 22.043105,11.32322 32.158766,21.979434 L 37.068811,17.246167 C 37.068811,17.246167 37.088388,32 37.088388,32 L 22.160133,31.978069 C 22.160133,31.978069 26.997745,27.140456 26.997745,27.140456 C 18.528582,18.264221 13.291696,25.230495 11.500037,31.436501 z"
             style="fill:#404040;"/>
          </a>
         </g>
        </svg>
</svg>
