<?xml version="1.0" encoding="UTF-8" standalone="no"?>
<!DOCTYPE svg PUBLIC "-//W3C//DTD SVG 1.1//EN"
 "http://www.w3.org/Graphics/SVG/1.1/DTD/svg11.dtd">
<!-- Generated by graphviz version 2.43.0 (0)
 -->
<!-- Title: OmniboxPedalProvider::LoadPedalConcepts Pages: 1 -->
<svg width="930pt" height="663pt"
 viewBox="0.00 0.00 930.00 663.00" xmlns="http://www.w3.org/2000/svg" xmlns:xlink="http://www.w3.org/1999/xlink">
<g id="graph0" class="graph" transform="scale(1 1) rotate(0) translate(4 659)">
<title>OmniboxPedalProvider::LoadPedalConcepts</title>
<polygon fill="white" stroke="transparent" points="-4,4 -4,-659 926,-659 926,4 -4,4"/>
<!-- Node1 -->
<g id="node1" class="node">
<title>Node1</title>
<g id="a_node1"><a xlink:title=" ">
<polygon fill="#bfbfbf" stroke="black" points="0,-301.5 0,-331.5 116,-331.5 116,-301.5 0,-301.5"/>
<text text-anchor="start" x="8" y="-319.5" font-family="Helvetica,sans-Serif" font-size="10.00">OmniboxPedalProvider</text>
<text text-anchor="middle" x="58" y="-308.5" font-family="Helvetica,sans-Serif" font-size="10.00">::LoadPedalConcepts</text>
</a>
</g>
</g>
<!-- Node2 -->
<g id="node2" class="node">
<title>Node2</title>
<g id="a_node2"><a xlink:href="../../d4/de9/classOmniboxPedal.html#ab6fc3a1636148c538c4dd622ca83a561" target="_top" xlink:title=" ">
<polygon fill="white" stroke="black" points="165,-624.5 165,-654.5 310,-654.5 310,-624.5 165,-624.5"/>
<text text-anchor="start" x="173" y="-642.5" font-family="Helvetica,sans-Serif" font-size="10.00">OmniboxPedal::AddSynonym</text>
<text text-anchor="middle" x="237.5" y="-631.5" font-family="Helvetica,sans-Serif" font-size="10.00">Group</text>
</a>
</g>
</g>
<!-- Node1&#45;&gt;Node2 -->
<g id="edge1" class="edge">
<title>Node1&#45;&gt;Node2</title>
<path fill="none" stroke="midnightblue" d="M59.3,-331.61C61.08,-379.21 72.99,-527.77 152,-609.5 155.63,-613.25 159.75,-616.53 164.18,-619.41"/>
<polygon fill="midnightblue" stroke="midnightblue" points="162.61,-622.54 173.03,-624.44 166.07,-616.46 162.61,-622.54"/>
</g>
<!-- Node3 -->
<g id="node3" class="node">
<title>Node3</title>
<g id="a_node3"><a xlink:href="../../d4/de9/classOmniboxPedal.html#a48ac382e80ef8ac65683324f5e2ba874" target="_top" xlink:title=" ">
<polygon fill="white" stroke="black" points="166,-536.5 166,-566.5 309,-566.5 309,-536.5 166,-536.5"/>
<text text-anchor="start" x="174" y="-554.5" font-family="Helvetica,sans-Serif" font-size="10.00">OmniboxPedal::AddVerbatim</text>
<text text-anchor="middle" x="237.5" y="-543.5" font-family="Helvetica,sans-Serif" font-size="10.00">Sequence</text>
</a>
</g>
</g>
<!-- Node1&#45;&gt;Node3 -->
<g id="edge2" class="edge">
<title>Node1&#45;&gt;Node3</title>
<path fill="none" stroke="midnightblue" d="M61.18,-331.59C67.59,-370.23 89.95,-473.49 152,-527.5 153.55,-528.85 155.18,-530.13 156.86,-531.33"/>
<polygon fill="midnightblue" stroke="midnightblue" points="155.37,-534.52 165.72,-536.78 159.03,-528.56 155.37,-534.52"/>
</g>
<!-- Node5 -->
<g id="node5" class="node">
<title>Node5</title>
<g id="a_node5"><a xlink:href="../../d1/d73/namespaceOmniboxFieldTrial.html#a782dc0a11a51ec7d41dd2fd242af0df6" target="_top" xlink:title=" ">
<polygon fill="white" stroke="black" points="571,-535 571,-576 710,-576 710,-535 571,-535"/>
<text text-anchor="start" x="579" y="-564" font-family="Helvetica,sans-Serif" font-size="10.00">OmniboxFieldTrial::</text>
<text text-anchor="start" x="579" y="-553" font-family="Helvetica,sans-Serif" font-size="10.00">IsPedalsTranslationConsole</text>
<text text-anchor="middle" x="640.5" y="-542" font-family="Helvetica,sans-Serif" font-size="10.00">Enabled</text>
</a>
</g>
</g>
<!-- Node1&#45;&gt;Node5 -->
<g id="edge17" class="edge">
<title>Node1&#45;&gt;Node5</title>
<path fill="none" stroke="midnightblue" d="M58.93,-331.72C59.66,-378.08 68.91,-517.98 152,-576.5 215.74,-621.4 439.87,-590.87 560.77,-570.17"/>
<polygon fill="midnightblue" stroke="midnightblue" points="561.46,-573.61 570.72,-568.45 560.27,-566.71 561.46,-573.61"/>
</g>
<!-- Node8 -->
<g id="node8" class="node">
<title>Node8</title>
<g id="a_node8"><a xlink:href="../../d6/d3c/classOmniboxPedal_1_1SynonymGroup.html#a3d1356c401a5c299cd68a0733f638764" target="_top" xlink:title=" ">
<polygon fill="white" stroke="black" points="160.5,-126.5 160.5,-156.5 314.5,-156.5 314.5,-126.5 160.5,-126.5"/>
<text text-anchor="start" x="168.5" y="-144.5" font-family="Helvetica,sans-Serif" font-size="10.00">OmniboxPedal::SynonymGroup</text>
<text text-anchor="middle" x="237.5" y="-133.5" font-family="Helvetica,sans-Serif" font-size="10.00">::EraseIgnoreGroup</text>
</a>
</g>
</g>
<!-- Node1&#45;&gt;Node8 -->
<g id="edge7" class="edge">
<title>Node1&#45;&gt;Node8</title>
<path fill="none" stroke="midnightblue" d="M64.73,-301.45C76.58,-272.24 106.55,-207.57 152,-171.5 157.04,-167.5 162.66,-164.01 168.53,-160.97"/>
<polygon fill="midnightblue" stroke="midnightblue" points="170.37,-163.97 177.93,-156.55 167.39,-157.63 170.37,-163.97"/>
</g>
<!-- Node9 -->
<g id="node9" class="node">
<title>Node9</title>
<g id="a_node9"><a xlink:href="../../d6/d3c/classOmniboxPedal_1_1SynonymGroup.html#a3288d0cb6752b3dc2422a518f9eed1f1" target="_top" xlink:title=" ">
<polygon fill="white" stroke="black" points="360,-191.5 360,-221.5 514,-221.5 514,-191.5 360,-191.5"/>
<text text-anchor="start" x="368" y="-209.5" font-family="Helvetica,sans-Serif" font-size="10.00">OmniboxPedal::SynonymGroup</text>
<text text-anchor="middle" x="437" y="-198.5" font-family="Helvetica,sans-Serif" font-size="10.00">::EraseMatchesIn</text>
</a>
</g>
</g>
<!-- Node1&#45;&gt;Node9 -->
<g id="edge13" class="edge">
<title>Node1&#45;&gt;Node9</title>
<path fill="none" stroke="midnightblue" d="M67.84,-301.47C82.19,-278.71 112.93,-236.27 152,-218.5 213.76,-190.41 291.11,-189.03 349.48,-193.77"/>
<polygon fill="midnightblue" stroke="midnightblue" points="349.51,-197.29 359.78,-194.69 350.13,-190.32 349.51,-197.29"/>
</g>
<!-- Node12 -->
<g id="node12" class="node">
<title>Node12</title>
<g id="a_node12"><a xlink:href="../../d9/d8f/classOmniboxAction.html#a0bad894831021fdfb657c65559fcb1c1" target="_top" xlink:title=" ">
<polygon fill="white" stroke="black" points="158,-400 158,-419 317,-419 317,-400 158,-400"/>
<text text-anchor="middle" x="237.5" y="-407" font-family="Helvetica,sans-Serif" font-size="10.00">OmniboxAction::GetLabelStrings</text>
</a>
</g>
</g>
<!-- Node1&#45;&gt;Node12 -->
<g id="edge14" class="edge">
<title>Node1&#45;&gt;Node12</title>
<path fill="none" stroke="midnightblue" d="M74.02,-331.74C91.31,-348.41 121.3,-374.71 152,-389.5 158.02,-392.4 164.49,-394.9 171.08,-397.04"/>
<polygon fill="midnightblue" stroke="midnightblue" points="170.18,-400.43 180.77,-399.94 172.19,-393.72 170.18,-400.43"/>
</g>
<!-- Node13 -->
<g id="node13" class="node">
<title>Node13</title>
<g id="a_node13"><a xlink:href="../../d1/d73/namespaceOmniboxFieldTrial.html#a4c634f87d7a005c5456bb7f2f48d2425" target="_top" xlink:title=" ">
<polygon fill="white" stroke="black" points="152,-350.5 152,-380.5 323,-380.5 323,-350.5 152,-350.5"/>
<text text-anchor="start" x="160" y="-368.5" font-family="Helvetica,sans-Serif" font-size="10.00">OmniboxFieldTrial::</text>
<text text-anchor="middle" x="237.5" y="-357.5" font-family="Helvetica,sans-Serif" font-size="10.00">IsPedalsBatch2NonEnglishEnabled</text>
</a>
</g>
</g>
<!-- Node1&#45;&gt;Node13 -->
<g id="edge15" class="edge">
<title>Node1&#45;&gt;Node13</title>
<path fill="none" stroke="midnightblue" d="M113.7,-331.6C132.18,-336.7 152.98,-342.44 172.13,-347.73"/>
<polygon fill="midnightblue" stroke="midnightblue" points="171.41,-351.16 181.98,-350.45 173.27,-344.41 171.41,-351.16"/>
</g>
<!-- Node14 -->
<g id="node14" class="node">
<title>Node14</title>
<g id="a_node14"><a xlink:href="../../d1/d73/namespaceOmniboxFieldTrial.html#a547008e6461d91b93e02d397f9016723" target="_top" xlink:title=" ">
<polygon fill="white" stroke="black" points="152,-301.5 152,-331.5 323,-331.5 323,-301.5 152,-301.5"/>
<text text-anchor="start" x="160" y="-319.5" font-family="Helvetica,sans-Serif" font-size="10.00">OmniboxFieldTrial::</text>
<text text-anchor="middle" x="237.5" y="-308.5" font-family="Helvetica,sans-Serif" font-size="10.00">IsPedalsBatch3NonEnglishEnabled</text>
</a>
</g>
</g>
<!-- Node1&#45;&gt;Node14 -->
<g id="edge16" class="edge">
<title>Node1&#45;&gt;Node14</title>
<path fill="none" stroke="midnightblue" d="M116.14,-316.5C124.3,-316.5 132.87,-316.5 141.51,-316.5"/>
<polygon fill="midnightblue" stroke="midnightblue" points="141.68,-320 151.68,-316.5 141.68,-313 141.68,-320"/>
</g>
<!-- Node15 -->
<g id="node15" class="node">
<title>Node15</title>
<g id="a_node15"><a xlink:href="../../d6/d3c/classOmniboxPedal_1_1SynonymGroup.html#acdb3c2de523e3c6c96225bbcba3b47b6" target="_top" xlink:title=" ">
<polygon fill="white" stroke="black" points="160.5,-252.5 160.5,-282.5 314.5,-282.5 314.5,-252.5 160.5,-252.5"/>
<text text-anchor="start" x="168.5" y="-270.5" font-family="Helvetica,sans-Serif" font-size="10.00">OmniboxPedal::SynonymGroup</text>
<text text-anchor="middle" x="237.5" y="-259.5" font-family="Helvetica,sans-Serif" font-size="10.00">::IsValid</text>
</a>
</g>
</g>
<!-- Node1&#45;&gt;Node15 -->
<g id="edge18" class="edge">
<title>Node1&#45;&gt;Node15</title>
<path fill="none" stroke="midnightblue" d="M113.7,-301.4C132.18,-296.3 152.98,-290.56 172.13,-285.27"/>
<polygon fill="midnightblue" stroke="midnightblue" points="173.27,-288.59 181.98,-282.55 171.41,-281.84 173.27,-288.59"/>
</g>
<!-- Node16 -->
<g id="node16" class="node">
<title>Node16</title>
<g id="a_node16"><a xlink:href="../../d6/dea/classOmniboxPedalProvider.html#a7be77a55ea5e7c489e501e616726a9fd" target="_top" xlink:title=" ">
<polygon fill="white" stroke="black" points="169,-438.5 169,-468.5 306,-468.5 306,-438.5 169,-438.5"/>
<text text-anchor="start" x="177" y="-456.5" font-family="Helvetica,sans-Serif" font-size="10.00">OmniboxPedalProvider</text>
<text text-anchor="middle" x="237.5" y="-445.5" font-family="Helvetica,sans-Serif" font-size="10.00">::LoadSynonymGroupString</text>
</a>
</g>
</g>
<!-- Node1&#45;&gt;Node16 -->
<g id="edge19" class="edge">
<title>Node1&#45;&gt;Node16</title>
<path fill="none" stroke="midnightblue" d="M67.48,-331.63C81.78,-355.74 112.96,-402.77 152,-428.5 155.12,-430.56 158.42,-432.45 161.83,-434.19"/>
<polygon fill="midnightblue" stroke="midnightblue" points="160.52,-437.44 171.07,-438.45 163.45,-431.08 160.52,-437.44"/>
</g>
<!-- Node18 -->
<g id="node18" class="node">
<title>Node18</title>
<g id="a_node18"><a xlink:href="../../d6/dea/classOmniboxPedalProvider.html#a5861d9f977203ab9939aac1fcc63b2f3" target="_top" xlink:title=" ">
<polygon fill="white" stroke="black" points="359,-339.5 359,-369.5 515,-369.5 515,-339.5 359,-339.5"/>
<text text-anchor="start" x="367" y="-357.5" font-family="Helvetica,sans-Serif" font-size="10.00">OmniboxPedalProvider</text>
<text text-anchor="middle" x="437" y="-346.5" font-family="Helvetica,sans-Serif" font-size="10.00">::TokenizeAndExpandDictionary</text>
</a>
</g>
</g>
<!-- Node1&#45;&gt;Node18 -->
<g id="edge33" class="edge">
<title>Node1&#45;&gt;Node18</title>
<path fill="none" stroke="midnightblue" d="M71.93,-301.29C88.39,-283.24 118.69,-254.14 152,-242.5 223.75,-217.44 252.72,-213.57 323,-242.5 366.14,-260.26 401.55,-303.34 420.64,-330.6"/>
<polygon fill="midnightblue" stroke="midnightblue" points="417.96,-332.88 426.48,-339.17 423.75,-328.94 417.96,-332.88"/>
</g>
<!-- Node22 -->
<g id="node22" class="node">
<title>Node22</title>
<g id="a_node22"><a xlink:href="../../d6/dea/classOmniboxPedalProvider.html#a8eb768572bd7fcfb3af89d31ea6e423b" target="_top" xlink:title=" ">
<polygon fill="white" stroke="black" points="170,-487.5 170,-517.5 305,-517.5 305,-487.5 170,-487.5"/>
<text text-anchor="start" x="178" y="-505.5" font-family="Helvetica,sans-Serif" font-size="10.00">OmniboxPedalProvider</text>
<text text-anchor="middle" x="237.5" y="-494.5" font-family="Helvetica,sans-Serif" font-size="10.00">::LoadSynonymGroupValue</text>
</a>
</g>
</g>
<!-- Node1&#45;&gt;Node22 -->
<g id="edge27" class="edge">
<title>Node1&#45;&gt;Node22</title>
<path fill="none" stroke="midnightblue" d="M63.37,-331.59C73.44,-363.68 101.4,-438.97 152,-478.5 154.79,-480.68 157.77,-482.66 160.87,-484.46"/>
<polygon fill="midnightblue" stroke="midnightblue" points="159.44,-487.66 169.94,-489.07 162.61,-481.42 159.44,-487.66"/>
</g>
<!-- Node23 -->
<g id="node23" class="node">
<title>Node23</title>
<g id="a_node23"><a xlink:href="../../d4/de9/classOmniboxPedal.html#a28eb1d607a619712613b959173746e0a" target="_top" xlink:title=" ">
<polygon fill="white" stroke="black" points="160,-88 160,-107 315,-107 315,-88 160,-88"/>
<text text-anchor="middle" x="237.5" y="-95" font-family="Helvetica,sans-Serif" font-size="10.00">OmniboxPedal::SetLabelStrings</text>
</a>
</g>
</g>
<!-- Node1&#45;&gt;Node23 -->
<g id="edge30" class="edge">
<title>Node1&#45;&gt;Node23</title>
<path fill="none" stroke="midnightblue" d="M61.37,-301.44C68.12,-263.9 91.03,-165.64 152,-116.5 154.1,-114.81 156.32,-113.26 158.63,-111.84"/>
<polygon fill="midnightblue" stroke="midnightblue" points="160.7,-114.72 167.96,-107.01 157.48,-108.5 160.7,-114.72"/>
</g>
<!-- Node24 -->
<g id="node24" class="node">
<title>Node24</title>
<g id="a_node24"><a xlink:href="../../d4/de9/classOmniboxPedal.html#adcf8798c485bf39d08a951da0095ff22" target="_top" xlink:title=" ">
<polygon fill="white" stroke="black" points="157,-50 157,-69 318,-69 318,-50 157,-50"/>
<text text-anchor="middle" x="237.5" y="-57" font-family="Helvetica,sans-Serif" font-size="10.00">OmniboxPedal::SetNavigationUrl</text>
</a>
</g>
</g>
<!-- Node1&#45;&gt;Node24 -->
<g id="edge31" class="edge">
<title>Node1&#45;&gt;Node24</title>
<path fill="none" stroke="midnightblue" d="M60.14,-301.49C64.19,-259.32 81.67,-138.92 152,-78.5 153.81,-76.95 155.71,-75.51 157.7,-74.19"/>
<polygon fill="midnightblue" stroke="midnightblue" points="159.85,-77 166.87,-69.07 156.44,-70.89 159.85,-77"/>
</g>
<!-- Node25 -->
<g id="node25" class="node">
<title>Node25</title>
<g id="a_node25"><a xlink:href="../../d4/de9/classOmniboxPedal.html#abcb4b1e0d8de3c3ac99351b85a73a121" target="_top" xlink:title=" ">
<polygon fill="white" stroke="black" points="157,-0.5 157,-30.5 318,-30.5 318,-0.5 157,-0.5"/>
<text text-anchor="start" x="165" y="-18.5" font-family="Helvetica,sans-Serif" font-size="10.00">OmniboxPedal::SpecifySynonym</text>
<text text-anchor="middle" x="237.5" y="-7.5" font-family="Helvetica,sans-Serif" font-size="10.00">Groups</text>
</a>
</g>
</g>
<!-- Node1&#45;&gt;Node25 -->
<g id="edge32" class="edge">
<title>Node1&#45;&gt;Node25</title>
<path fill="none" stroke="midnightblue" d="M59.46,-301.43C61.68,-255.34 74.8,-114.87 152,-40.5 153.49,-39.07 155.05,-37.72 156.68,-36.44"/>
<polygon fill="midnightblue" stroke="midnightblue" points="158.94,-39.14 165.33,-30.69 155.07,-33.31 158.94,-39.14"/>
</g>
<!-- Node4 -->
<g id="node4" class="node">
<title>Node4</title>
<g id="a_node4"><a xlink:href="../../d6/d3c/classOmniboxPedal_1_1SynonymGroup.html#a7f5bcd99e4a873ae0bdff5593529aa57" target="_top" xlink:title=" ">
<polygon fill="white" stroke="black" points="360,-487.5 360,-517.5 514,-517.5 514,-487.5 360,-487.5"/>
<text text-anchor="start" x="368" y="-505.5" font-family="Helvetica,sans-Serif" font-size="10.00">OmniboxPedal::SynonymGroup</text>
<text text-anchor="middle" x="437" y="-494.5" font-family="Helvetica,sans-Serif" font-size="10.00">::AddSynonym</text>
</a>
</g>
</g>
<!-- Node3&#45;&gt;Node4 -->
<g id="edge3" class="edge">
<title>Node3&#45;&gt;Node4</title>
<path fill="none" stroke="midnightblue" d="M299.1,-536.47C320.14,-531.24 343.92,-525.35 365.68,-519.95"/>
<polygon fill="midnightblue" stroke="midnightblue" points="366.65,-523.31 375.52,-517.51 364.97,-516.52 366.65,-523.31"/>
</g>
<!-- Node7 -->
<g id="node7" class="node">
<title>Node7</title>
<g id="a_node7"><a xlink:href="../../d5/de6/classOmniboxPedal_1_1TokenSequence.html#a46d4db3a0e5eca5da1cfa65a6ec5d30d" target="_top" xlink:title=" ">
<polygon fill="white" stroke="black" points="359,-536.5 359,-566.5 515,-566.5 515,-536.5 359,-536.5"/>
<text text-anchor="start" x="367" y="-554.5" font-family="Helvetica,sans-Serif" font-size="10.00">OmniboxPedal::TokenSequence</text>
<text text-anchor="middle" x="437" y="-543.5" font-family="Helvetica,sans-Serif" font-size="10.00">::ResetLinks</text>
</a>
</g>
</g>
<!-- Node3&#45;&gt;Node7 -->
<g id="edge6" class="edge">
<title>Node3&#45;&gt;Node7</title>
<path fill="none" stroke="midnightblue" d="M309.24,-551.5C322.03,-551.5 335.51,-551.5 348.7,-551.5"/>
<polygon fill="midnightblue" stroke="midnightblue" points="348.72,-555 358.72,-551.5 348.72,-548 348.72,-555"/>
</g>
<!-- Node4&#45;&gt;Node5 -->
<g id="edge4" class="edge">
<title>Node4&#45;&gt;Node5</title>
<path fill="none" stroke="midnightblue" d="M495.2,-517.55C515.58,-522.91 538.91,-529.04 560.78,-534.79"/>
<polygon fill="midnightblue" stroke="midnightblue" points="560.15,-538.25 570.71,-537.41 561.93,-531.48 560.15,-538.25"/>
</g>
<!-- Node6 -->
<g id="node6" class="node">
<title>Node6</title>
<g id="a_node6"><a xlink:href="../../d5/de6/classOmniboxPedal_1_1TokenSequence.html#ada3b08284991f9cc0cfd6c235691834b" target="_top" xlink:title=" ">
<polygon fill="white" stroke="black" points="766,-271.5 766,-301.5 922,-301.5 922,-271.5 766,-271.5"/>
<text text-anchor="start" x="774" y="-289.5" font-family="Helvetica,sans-Serif" font-size="10.00">OmniboxPedal::TokenSequence</text>
<text text-anchor="middle" x="844" y="-278.5" font-family="Helvetica,sans-Serif" font-size="10.00">::Size</text>
</a>
</g>
</g>
<!-- Node4&#45;&gt;Node6 -->
<g id="edge5" class="edge">
<title>Node4&#45;&gt;Node6</title>
<path fill="none" stroke="midnightblue" d="M514.22,-503.54C576.78,-500.98 665.28,-489.21 730,-447.5 757.1,-430.04 805.68,-350.77 829.33,-310.35"/>
<polygon fill="midnightblue" stroke="midnightblue" points="832.38,-312.07 834.38,-301.66 826.33,-308.55 832.38,-312.07"/>
</g>
<!-- Node8&#45;&gt;Node9 -->
<g id="edge8" class="edge">
<title>Node8&#45;&gt;Node9</title>
<path fill="none" stroke="midnightblue" d="M284.31,-156.58C312.99,-166.02 350.15,-178.24 380.5,-188.23"/>
<polygon fill="midnightblue" stroke="midnightblue" points="379.51,-191.59 390.1,-191.39 381.7,-184.94 379.51,-191.59"/>
</g>
<!-- Node10 -->
<g id="node10" class="node">
<title>Node10</title>
<g id="a_node10"><a xlink:href="../../d5/de6/classOmniboxPedal_1_1TokenSequence.html#a2b9264448c7149e2b34a4b49c0ccbea9" target="_top" xlink:title=" ">
<polygon fill="white" stroke="black" points="562.5,-193.5 562.5,-223.5 718.5,-223.5 718.5,-193.5 562.5,-193.5"/>
<text text-anchor="start" x="570.5" y="-211.5" font-family="Helvetica,sans-Serif" font-size="10.00">OmniboxPedal::TokenSequence</text>
<text text-anchor="middle" x="640.5" y="-200.5" font-family="Helvetica,sans-Serif" font-size="10.00">::Consume</text>
</a>
</g>
</g>
<!-- Node9&#45;&gt;Node10 -->
<g id="edge9" class="edge">
<title>Node9&#45;&gt;Node10</title>
<path fill="none" stroke="midnightblue" d="M514.18,-207.26C526.58,-207.38 539.51,-207.51 552.15,-207.63"/>
<polygon fill="midnightblue" stroke="midnightblue" points="552.18,-211.13 562.21,-207.73 552.24,-204.13 552.18,-211.13"/>
</g>
<!-- Node11 -->
<g id="node11" class="node">
<title>Node11</title>
<g id="a_node11"><a xlink:href="../../d5/de6/classOmniboxPedal_1_1TokenSequence.html#a5cc31594ba99535bff124e34b99f6fab" target="_top" xlink:title=" ">
<polygon fill="white" stroke="black" points="562.5,-247.5 562.5,-277.5 718.5,-277.5 718.5,-247.5 562.5,-247.5"/>
<text text-anchor="start" x="570.5" y="-265.5" font-family="Helvetica,sans-Serif" font-size="10.00">OmniboxPedal::TokenSequence</text>
<text text-anchor="middle" x="640.5" y="-254.5" font-family="Helvetica,sans-Serif" font-size="10.00">::Erase</text>
</a>
</g>
</g>
<!-- Node9&#45;&gt;Node11 -->
<g id="edge11" class="edge">
<title>Node9&#45;&gt;Node11</title>
<path fill="none" stroke="midnightblue" d="M492,-221.51C517.75,-228.66 548.73,-237.27 575.64,-244.75"/>
<polygon fill="midnightblue" stroke="midnightblue" points="574.78,-248.15 585.35,-247.45 576.66,-241.4 574.78,-248.15"/>
</g>
<!-- Node10&#45;&gt;Node6 -->
<g id="edge10" class="edge">
<title>Node10&#45;&gt;Node6</title>
<path fill="none" stroke="midnightblue" d="M690.01,-223.5C703.08,-227.79 717.15,-232.62 730,-237.5 753.75,-246.52 779.79,-257.72 800.89,-267.13"/>
<polygon fill="midnightblue" stroke="midnightblue" points="799.65,-270.42 810.2,-271.32 802.52,-264.03 799.65,-270.42"/>
</g>
<!-- Node11&#45;&gt;Node6 -->
<g id="edge12" class="edge">
<title>Node11&#45;&gt;Node6</title>
<path fill="none" stroke="midnightblue" d="M718.54,-271.68C730.61,-273.11 743.15,-274.61 755.43,-276.07"/>
<polygon fill="midnightblue" stroke="midnightblue" points="755.32,-279.58 765.67,-277.29 756.15,-272.63 755.32,-279.58"/>
</g>
<!-- Node16&#45;&gt;Node4 -->
<g id="edge20" class="edge">
<title>Node16&#45;&gt;Node4</title>
<path fill="none" stroke="midnightblue" d="M299.1,-468.53C320.14,-473.76 343.92,-479.65 365.68,-485.05"/>
<polygon fill="midnightblue" stroke="midnightblue" points="364.97,-488.48 375.52,-487.49 366.65,-481.69 364.97,-488.48"/>
</g>
<!-- Node17 -->
<g id="node17" class="node">
<title>Node17</title>
<g id="a_node17"><a xlink:href="../../d6/d3c/classOmniboxPedal_1_1SynonymGroup.html#a8f70edcc69e3f394575f5f4f994b159c" target="_top" xlink:title=" ">
<polygon fill="white" stroke="black" points="360,-399.5 360,-429.5 514,-429.5 514,-399.5 360,-399.5"/>
<text text-anchor="start" x="368" y="-417.5" font-family="Helvetica,sans-Serif" font-size="10.00">OmniboxPedal::SynonymGroup</text>
<text text-anchor="middle" x="437" y="-406.5" font-family="Helvetica,sans-Serif" font-size="10.00">::SortSynonyms</text>
</a>
</g>
</g>
<!-- Node16&#45;&gt;Node17 -->
<g id="edge21" class="edge">
<title>Node16&#45;&gt;Node17</title>
<path fill="none" stroke="midnightblue" d="M306.19,-440.13C320.25,-437.36 335.25,-434.39 349.88,-431.51"/>
<polygon fill="midnightblue" stroke="midnightblue" points="350.79,-434.89 359.92,-429.52 349.43,-428.03 350.79,-434.89"/>
</g>
<!-- Node16&#45;&gt;Node18 -->
<g id="edge22" class="edge">
<title>Node16&#45;&gt;Node18</title>
<path fill="none" stroke="midnightblue" d="M302.8,-438.41C309.86,-435.62 316.74,-432.34 323,-428.5 342.83,-416.34 340.13,-404.11 359,-390.5 367.62,-384.29 377.48,-378.72 387.2,-373.93"/>
<polygon fill="midnightblue" stroke="midnightblue" points="388.88,-377 396.43,-369.58 385.89,-370.67 388.88,-377"/>
</g>
<!-- Node18&#45;&gt;Node6 -->
<g id="edge26" class="edge">
<title>Node18&#45;&gt;Node6</title>
<path fill="none" stroke="midnightblue" d="M502.08,-339.49C518.02,-335.99 535.09,-332.43 551,-329.5 619.46,-316.9 697.48,-305.57 755.65,-297.7"/>
<polygon fill="midnightblue" stroke="midnightblue" points="756.46,-301.12 765.9,-296.32 755.53,-294.19 756.46,-301.12"/>
</g>
<!-- Node19 -->
<g id="node19" class="node">
<title>Node19</title>
<g id="a_node19"><a xlink:href="../../d5/de6/classOmniboxPedal_1_1TokenSequence.html#a16976cda1ce1c50d3ba007d20c428b92" target="_top" xlink:title=" ">
<polygon fill="white" stroke="black" points="551,-419 551,-438 730,-438 730,-419 551,-419"/>
<text text-anchor="middle" x="640.5" y="-426" font-family="Helvetica,sans-Serif" font-size="10.00">OmniboxPedal::TokenSequence::Add</text>
</a>
</g>
</g>
<!-- Node18&#45;&gt;Node19 -->
<g id="edge23" class="edge">
<title>Node18&#45;&gt;Node19</title>
<path fill="none" stroke="midnightblue" d="M479.26,-369.65C515.94,-383.12 569.01,-402.61 603.87,-415.42"/>
<polygon fill="midnightblue" stroke="midnightblue" points="603.04,-418.84 613.63,-419 605.45,-412.27 603.04,-418.84"/>
</g>
<!-- Node21 -->
<g id="node21" class="node">
<title>Node21</title>
<g id="a_node21"><a xlink:href="../../d5/de6/classOmniboxPedal_1_1TokenSequence.html#a9a6a9dadda113a391bad480f87efa876" target="_top" xlink:title=" ">
<polygon fill="white" stroke="black" points="562.5,-339.5 562.5,-369.5 718.5,-369.5 718.5,-339.5 562.5,-339.5"/>
<text text-anchor="start" x="570.5" y="-357.5" font-family="Helvetica,sans-Serif" font-size="10.00">OmniboxPedal::TokenSequence</text>
<text text-anchor="middle" x="640.5" y="-346.5" font-family="Helvetica,sans-Serif" font-size="10.00">::Clear</text>
</a>
</g>
</g>
<!-- Node18&#45;&gt;Node21 -->
<g id="edge25" class="edge">
<title>Node18&#45;&gt;Node21</title>
<path fill="none" stroke="midnightblue" d="M515.04,-354.5C527.11,-354.5 539.65,-354.5 551.93,-354.5"/>
<polygon fill="midnightblue" stroke="midnightblue" points="552.17,-358 562.17,-354.5 552.17,-351 552.17,-358"/>
</g>
<!-- Node20 -->
<g id="node20" class="node">
<title>Node20</title>
<g id="a_node20"><a xlink:href="../../d4/de9/classOmniboxPedal.html#a1b77f79c0178f1630f90f3320b58bb8d" target="_top" xlink:title=" ">
<polygon fill="white" stroke="black" points="797,-419 797,-438 891,-438 891,-419 797,-419"/>
<text text-anchor="middle" x="844" y="-426" font-family="Helvetica,sans-Serif" font-size="10.00">OmniboxPedal::id</text>
</a>
</g>
</g>
<!-- Node19&#45;&gt;Node20 -->
<g id="edge24" class="edge">
<title>Node19&#45;&gt;Node20</title>
<path fill="none" stroke="midnightblue" d="M730.17,-428.5C749.42,-428.5 769.25,-428.5 786.82,-428.5"/>
<polygon fill="midnightblue" stroke="midnightblue" points="786.89,-432 796.89,-428.5 786.89,-425 786.89,-432"/>
</g>
<!-- Node22&#45;&gt;Node4 -->
<g id="edge29" class="edge">
<title>Node22&#45;&gt;Node4</title>
<path fill="none" stroke="midnightblue" d="M305.09,-502.5C319.37,-502.5 334.67,-502.5 349.58,-502.5"/>
<polygon fill="midnightblue" stroke="midnightblue" points="349.83,-506 359.83,-502.5 349.83,-499 349.83,-506"/>
</g>
<!-- Node22&#45;&gt;Node19 -->
<g id="edge28" class="edge">
<title>Node22&#45;&gt;Node19</title>
<path fill="none" stroke="midnightblue" d="M305.06,-488.99C322.59,-485.5 341.5,-481.8 359,-478.5 432.6,-464.61 517.26,-449.66 574.15,-439.76"/>
<polygon fill="midnightblue" stroke="midnightblue" points="574.84,-443.2 584.09,-438.04 573.64,-436.3 574.84,-443.2"/>
</g>
</g>
</svg>
