<?xml version="1.0" encoding="UTF-8" standalone="no"?>
<!DOCTYPE svg PUBLIC "-//W3C//DTD SVG 1.1//EN"
 "http://www.w3.org/Graphics/SVG/1.1/DTD/svg11.dtd">
<!-- Generated by graphviz version 2.43.0 (0)
 -->
<!-- Title: components/omnibox/browser/on_device_head_model.h Pages: 1 -->
<svg width="352pt" height="206pt"
 viewBox="0.00 0.00 352.00 206.00" xmlns="http://www.w3.org/2000/svg" xmlns:xlink="http://www.w3.org/1999/xlink">
<g id="graph0" class="graph" transform="scale(1 1) rotate(0) translate(4 202)">
<title>components/omnibox/browser/on_device_head_model.h</title>
<polygon fill="white" stroke="transparent" points="-4,4 -4,-202 348,-202 348,4 -4,4"/>
<!-- Node1 -->
<g id="node1" class="node">
<title>Node1</title>
<g id="a_node1"><a xlink:title=" ">
<polygon fill="#bfbfbf" stroke="black" points="73,-156.5 73,-197.5 201,-197.5 201,-156.5 73,-156.5"/>
<text text-anchor="start" x="81" y="-185.5" font-family="Helvetica,sans-Serif" font-size="10.00">components/omnibox</text>
<text text-anchor="start" x="81" y="-174.5" font-family="Helvetica,sans-Serif" font-size="10.00">/browser/on_device_head</text>
<text text-anchor="middle" x="137" y="-163.5" font-family="Helvetica,sans-Serif" font-size="10.00">_model.h</text>
</a>
</g>
</g>
<!-- Node2 -->
<g id="node2" class="node">
<title>Node2</title>
<g id="a_node2"><a xlink:href="../../d3/d9e/on__device__head__model_8cc.html" target="_top" xlink:title=" ">
<polygon fill="white" stroke="black" points="0,-78.5 0,-119.5 128,-119.5 128,-78.5 0,-78.5"/>
<text text-anchor="start" x="8" y="-107.5" font-family="Helvetica,sans-Serif" font-size="10.00">components/omnibox</text>
<text text-anchor="start" x="8" y="-96.5" font-family="Helvetica,sans-Serif" font-size="10.00">/browser/on_device_head</text>
<text text-anchor="middle" x="64" y="-85.5" font-family="Helvetica,sans-Serif" font-size="10.00">_model.cc</text>
</a>
</g>
</g>
<!-- Node1&#45;&gt;Node2 -->
<g id="edge1" class="edge">
<title>Node1&#45;&gt;Node2</title>
<path fill="none" stroke="midnightblue" d="M111.26,-149.2C101.86,-139.42 91.41,-128.54 82.74,-119.51"/>
<polygon fill="midnightblue" stroke="midnightblue" points="108.75,-151.64 118.2,-156.43 113.8,-146.79 108.75,-151.64"/>
</g>
<!-- Node3 -->
<g id="node3" class="node">
<title>Node3</title>
<g id="a_node3"><a xlink:href="../../dc/d70/on__device__head__provider_8h.html" target="_top" xlink:title=" ">
<polygon fill="white" stroke="black" points="146,-78.5 146,-119.5 274,-119.5 274,-78.5 146,-78.5"/>
<text text-anchor="start" x="154" y="-107.5" font-family="Helvetica,sans-Serif" font-size="10.00">components/omnibox</text>
<text text-anchor="start" x="154" y="-96.5" font-family="Helvetica,sans-Serif" font-size="10.00">/browser/on_device_head</text>
<text text-anchor="middle" x="210" y="-85.5" font-family="Helvetica,sans-Serif" font-size="10.00">_provider.h</text>
</a>
</g>
</g>
<!-- Node1&#45;&gt;Node3 -->
<g id="edge2" class="edge">
<title>Node1&#45;&gt;Node3</title>
<path fill="none" stroke="midnightblue" d="M162.74,-149.2C172.14,-139.42 182.59,-128.54 191.26,-119.51"/>
<polygon fill="midnightblue" stroke="midnightblue" points="160.2,-146.79 155.8,-156.43 165.25,-151.64 160.2,-146.79"/>
</g>
<!-- Node4 -->
<g id="node4" class="node">
<title>Node4</title>
<g id="a_node4"><a xlink:href="../../d8/d40/autocomplete__controller_8cc.html" target="_top" xlink:title=" ">
<polygon fill="white" stroke="black" points="82,-0.5 82,-41.5 198,-41.5 198,-0.5 82,-0.5"/>
<text text-anchor="start" x="90" y="-29.5" font-family="Helvetica,sans-Serif" font-size="10.00">components/omnibox</text>
<text text-anchor="start" x="90" y="-18.5" font-family="Helvetica,sans-Serif" font-size="10.00">/browser/autocomplete</text>
<text text-anchor="middle" x="140" y="-7.5" font-family="Helvetica,sans-Serif" font-size="10.00">_controller.cc</text>
</a>
</g>
</g>
<!-- Node3&#45;&gt;Node4 -->
<g id="edge3" class="edge">
<title>Node3&#45;&gt;Node4</title>
<path fill="none" stroke="midnightblue" d="M185.05,-70.92C176.11,-61.2 166.2,-50.45 157.97,-41.51"/>
<polygon fill="midnightblue" stroke="midnightblue" points="182.62,-73.44 191.97,-78.43 187.77,-68.7 182.62,-73.44"/>
</g>
<!-- Node5 -->
<g id="node5" class="node">
<title>Node5</title>
<g id="a_node5"><a xlink:href="../../d7/d2c/on__device__head__provider_8cc.html" target="_top" xlink:title=" ">
<polygon fill="white" stroke="black" points="216,-0.5 216,-41.5 344,-41.5 344,-0.5 216,-0.5"/>
<text text-anchor="start" x="224" y="-29.5" font-family="Helvetica,sans-Serif" font-size="10.00">components/omnibox</text>
<text text-anchor="start" x="224" y="-18.5" font-family="Helvetica,sans-Serif" font-size="10.00">/browser/on_device_head</text>
<text text-anchor="middle" x="280" y="-7.5" font-family="Helvetica,sans-Serif" font-size="10.00">_provider.cc</text>
</a>
</g>
</g>
<!-- Node3&#45;&gt;Node5 -->
<g id="edge4" class="edge">
<title>Node3&#45;&gt;Node5</title>
<path fill="none" stroke="midnightblue" d="M234.95,-70.92C243.89,-61.2 253.8,-50.45 262.03,-41.51"/>
<polygon fill="midnightblue" stroke="midnightblue" points="232.23,-68.7 228.03,-78.43 237.38,-73.44 232.23,-68.7"/>
</g>
</g>
</svg>
