<?xml version="1.0" encoding="UTF-8" standalone="no"?>
<!DOCTYPE svg PUBLIC "-//W3C//DTD SVG 1.1//EN"
 "http://www.w3.org/Graphics/SVG/1.1/DTD/svg11.dtd">
<!-- Generated by graphviz version 2.43.0 (0)
 -->
<!-- Title: LocalHistoryZeroSuggestProvider::Start Pages: 1 -->
<!--zoomable 435 -->
<svg id="main" version="1.1" xmlns="http://www.w3.org/2000/svg" xmlns:xlink="http://www.w3.org/1999/xlink" xml:space="preserve" onload="init(evt)">
<style type="text/css"><![CDATA[
.edge:hover path { stroke: red; }
.edge:hover polygon { stroke: red; fill: red; }
]]></style>
<script type="text/javascript"><![CDATA[
var edges = document.getElementsByTagName('g');
if (edges && edges.length) {
  for (var i=0;i<edges.length;i++) {
    if (edges[i].id.substr(0,4)=='edge') {
      edges[i].setAttribute('class','edge');
    }
  }
}
]]></script>
        <defs>
                <circle id="rim" cx="0" cy="0" r="7"/>
                <circle id="rim2" cx="0" cy="0" r="3.5"/>
                <g id="zoomPlus">
                        <use xlink:href="#rim" fill="#404040">
                                <set attributeName="fill" to="#808080" begin="zoomplus.mouseover" end="zoomplus.mouseout"/>
                        </use>
                        <path d="M-4,0h8M0,-4v8" fill="none" stroke="white" stroke-width="1.5" pointer-events="none"/>
                </g>
                <g id="zoomMin">
                        <use xlink:href="#rim" fill="#404040">
                                <set attributeName="fill" to="#808080" begin="zoomminus.mouseover" end="zoomminus.mouseout"/>
                        </use>
                        <path d="M-4,0h8" fill="none" stroke="white" stroke-width="1.5" pointer-events="none"/>
                </g>
                <g id="dirArrow">
                        <path fill="none" stroke="white" stroke-width="1.5" d="M0,-3.0v7 M-2.5,-0.5L0,-3.0L2.5,-0.5"/>
                </g>
               <g id="resetDef">
                       <use xlink:href="#rim2" fill="#404040">
                               <set attributeName="fill" to="#808080" begin="reset.mouseover" end="reset.mouseout"/>
                       </use>
               </g>
        </defs>

<script type="text/javascript">
var viewWidth = 878;
var viewHeight = 435;
var sectionId = 'dynsection-10';
</script>
<script xlink:href="../../svgpan.js"/>
<svg id="graph" class="graph">
<g id="viewport">
<title>LocalHistoryZeroSuggestProvider::Start</title>
<polygon fill="white" stroke="transparent" points="-4,4 -4,-431 874,-431 874,4 -4,4"/>
<!-- Node1 -->
<g id="node1" class="node">
<title>Node1</title>
<g id="a_node1"><a xlink:title=" ">
<polygon fill="#bfbfbf" stroke="black" points="0,-259.5 0,-289.5 163,-289.5 163,-259.5 0,-259.5"/>
<text text-anchor="start" x="8" y="-277.5" font-family="Helvetica,sans-Serif" font-size="10.00">LocalHistoryZeroSuggestProvider</text>
<text text-anchor="middle" x="81.5" y="-266.5" font-family="Helvetica,sans-Serif" font-size="10.00">::Start</text>
</a>
</g>
</g>
<!-- Node2 -->
<g id="node2" class="node">
<title>Node2</title>
<g id="a_node2"><a xlink:href="../../d9/df6/classAutocompleteInput.html#ade8235d079a10a9ed0afb2b40771cd4d" target="_top" xlink:title=" ">
<polygon fill="white" stroke="black" points="213,-396.5 213,-426.5 348,-426.5 348,-396.5 213,-396.5"/>
<text text-anchor="start" x="221" y="-414.5" font-family="Helvetica,sans-Serif" font-size="10.00">AutocompleteInput::</text>
<text text-anchor="middle" x="280.5" y="-403.5" font-family="Helvetica,sans-Serif" font-size="10.00">current_page_classification</text>
</a>
</g>
</g>
<!-- Node1&#45;&gt;Node2 -->
<g id="edge1" class="edge">
<title>Node1&#45;&gt;Node2</title>
<path fill="none" stroke="midnightblue" d="M94.03,-289.67C113.21,-313.87 154.02,-361.15 199,-387.5 201.98,-389.25 205.11,-390.88 208.32,-392.4"/>
<polygon fill="midnightblue" stroke="midnightblue" points="206.98,-395.63 217.55,-396.39 209.76,-389.21 206.98,-395.63"/>
</g>
<!-- Node3 -->
<g id="node3" class="node">
<title>Node3</title>
<g id="a_node3"><a xlink:href="../../d9/df6/classAutocompleteInput.html#aeb6496196b190a0e9602de746af5399b" target="_top" xlink:title=" ">
<polygon fill="white" stroke="black" points="228.5,-347.5 228.5,-377.5 332.5,-377.5 332.5,-347.5 228.5,-347.5"/>
<text text-anchor="start" x="236.5" y="-365.5" font-family="Helvetica,sans-Serif" font-size="10.00">AutocompleteInput::</text>
<text text-anchor="middle" x="280.5" y="-354.5" font-family="Helvetica,sans-Serif" font-size="10.00">focus_type</text>
</a>
</g>
</g>
<!-- Node1&#45;&gt;Node3 -->
<g id="edge2" class="edge">
<title>Node1&#45;&gt;Node3</title>
<path fill="none" stroke="midnightblue" d="M110.83,-289.65C134.18,-301.89 168.32,-319.19 199,-332.5 207.94,-336.38 217.55,-340.23 226.92,-343.81"/>
<polygon fill="midnightblue" stroke="midnightblue" points="225.96,-347.19 236.55,-347.45 228.43,-340.64 225.96,-347.19"/>
</g>
<!-- Node4 -->
<g id="node4" class="node">
<title>Node4</title>
<g id="a_node4"><a xlink:href="../../d5/dc7/classAutocompleteProviderClient.html#adba197163b53e433c2114b677ae4e412" target="_top" xlink:title=" ">
<polygon fill="white" stroke="black" points="404,-306.5 404,-336.5 542,-336.5 542,-306.5 404,-306.5"/>
<text text-anchor="start" x="412" y="-324.5" font-family="Helvetica,sans-Serif" font-size="10.00">AutocompleteProviderClient</text>
<text text-anchor="middle" x="473" y="-313.5" font-family="Helvetica,sans-Serif" font-size="10.00">::GetTemplateURLService</text>
</a>
</g>
</g>
<!-- Node1&#45;&gt;Node4 -->
<g id="edge3" class="edge">
<title>Node1&#45;&gt;Node4</title>
<path fill="none" stroke="midnightblue" d="M145.11,-289.51C162.48,-293.24 181.4,-296.91 199,-299.5 264.32,-309.1 339.1,-314.76 393.86,-317.93"/>
<polygon fill="midnightblue" stroke="midnightblue" points="393.66,-321.42 403.84,-318.49 394.06,-314.43 393.66,-321.42"/>
</g>
<!-- Node5 -->
<g id="node5" class="node">
<title>Node5</title>
<g id="a_node5"><a xlink:href="../../d0/ddc/classBaseSearchProvider.html#a147b63347c160b5349044b32045e10ba" target="_top" xlink:title=" ">
<polygon fill="white" stroke="black" points="227.5,-259.5 227.5,-289.5 333.5,-289.5 333.5,-259.5 227.5,-259.5"/>
<text text-anchor="start" x="235.5" y="-277.5" font-family="Helvetica,sans-Serif" font-size="10.00">BaseSearchProvider</text>
<text text-anchor="middle" x="280.5" y="-266.5" font-family="Helvetica,sans-Serif" font-size="10.00">::IsNTPPage</text>
</a>
</g>
</g>
<!-- Node1&#45;&gt;Node5 -->
<g id="edge4" class="edge">
<title>Node1&#45;&gt;Node5</title>
<path fill="none" stroke="midnightblue" d="M163.2,-274.5C181.15,-274.5 199.91,-274.5 217,-274.5"/>
<polygon fill="midnightblue" stroke="midnightblue" points="217.41,-278 227.41,-274.5 217.41,-271 217.41,-278"/>
</g>
<!-- Node6 -->
<g id="node6" class="node">
<title>Node6</title>
<g id="a_node6"><a xlink:href="../../d5/dc7/classAutocompleteProviderClient.html#ad6fddd2900d6b5df12d5e613d43f7550" target="_top" xlink:title=" ">
<polygon fill="white" stroke="black" points="211.5,-210.5 211.5,-240.5 349.5,-240.5 349.5,-210.5 211.5,-210.5"/>
<text text-anchor="start" x="219.5" y="-228.5" font-family="Helvetica,sans-Serif" font-size="10.00">AutocompleteProviderClient</text>
<text text-anchor="middle" x="280.5" y="-217.5" font-family="Helvetica,sans-Serif" font-size="10.00">::IsOffTheRecord</text>
</a>
</g>
</g>
<!-- Node1&#45;&gt;Node6 -->
<g id="edge5" class="edge">
<title>Node1&#45;&gt;Node6</title>
<path fill="none" stroke="midnightblue" d="M142.95,-259.47C163.93,-254.24 187.65,-248.35 209.35,-242.95"/>
<polygon fill="midnightblue" stroke="midnightblue" points="210.31,-246.32 219.17,-240.51 208.62,-239.52 210.31,-246.32"/>
</g>
<!-- Node7 -->
<g id="node7" class="node">
<title>Node7</title>
<g id="a_node7"><a xlink:href="../../d4/df1/classLocalHistoryZeroSuggestProvider.html#a3b259950747800f8e9a8d283cbf059a6" target="_top" xlink:title=" ">
<polygon fill="white" stroke="black" points="199,-161.5 199,-191.5 362,-191.5 362,-161.5 199,-161.5"/>
<text text-anchor="start" x="207" y="-179.5" font-family="Helvetica,sans-Serif" font-size="10.00">LocalHistoryZeroSuggestProvider</text>
<text text-anchor="middle" x="280.5" y="-168.5" font-family="Helvetica,sans-Serif" font-size="10.00">::QueryURLDatabase</text>
</a>
</g>
</g>
<!-- Node1&#45;&gt;Node7 -->
<g id="edge6" class="edge">
<title>Node1&#45;&gt;Node7</title>
<path fill="none" stroke="midnightblue" d="M103.04,-259.32C125.62,-243.2 163.43,-217.83 199,-201.5 203.99,-199.21 209.24,-197.05 214.58,-195.04"/>
<polygon fill="midnightblue" stroke="midnightblue" points="216,-198.25 224.23,-191.58 213.63,-191.66 216,-198.25"/>
</g>
<!-- Node17 -->
<g id="node17" class="node">
<title>Node17</title>
<g id="a_node17"><a xlink:href="../../d9/df6/classAutocompleteInput.html#a5d6111d5ac18400cdf809820dfab9ab0" target="_top" xlink:title=" ">
<polygon fill="white" stroke="black" points="219,-123 219,-142 342,-142 342,-123 219,-123"/>
<text text-anchor="middle" x="280.5" y="-130" font-family="Helvetica,sans-Serif" font-size="10.00">AutocompleteInput::type</text>
</a>
</g>
</g>
<!-- Node1&#45;&gt;Node17 -->
<g id="edge17" class="edge">
<title>Node1&#45;&gt;Node17</title>
<path fill="none" stroke="midnightblue" d="M92.71,-259.1C110.87,-232.98 151.38,-180.14 199,-152.5 203.67,-149.79 208.7,-147.44 213.88,-145.41"/>
<polygon fill="midnightblue" stroke="midnightblue" points="215.06,-148.71 223.33,-142.09 212.74,-142.11 215.06,-148.71"/>
</g>
<!-- Node7&#45;&gt;Node4 -->
<g id="edge14" class="edge">
<title>Node7&#45;&gt;Node4</title>
<path fill="none" stroke="midnightblue" d="M348.41,-191.71C353.34,-194.45 357.96,-197.68 362,-201.5 395.14,-232.78 365.06,-266.01 398,-297.5 399.13,-298.58 400.31,-299.61 401.53,-300.59"/>
<polygon fill="midnightblue" stroke="midnightblue" points="399.88,-303.71 410.12,-306.44 403.82,-297.92 399.88,-303.71"/>
</g>
<!-- Node8 -->
<g id="node8" class="node">
<title>Node8</title>
<g id="a_node8"><a xlink:href="../../d5/dc7/classAutocompleteProviderClient.html#a76b4704bc97156ebec76afca418eb186" target="_top" xlink:title=" ">
<polygon fill="white" stroke="black" points="398,-257.5 398,-287.5 548,-287.5 548,-257.5 398,-257.5"/>
<text text-anchor="start" x="406" y="-275.5" font-family="Helvetica,sans-Serif" font-size="10.00">AutocompleteProviderClient</text>
<text text-anchor="middle" x="473" y="-264.5" font-family="Helvetica,sans-Serif" font-size="10.00">::AllowDeletingBrowserHistory</text>
</a>
</g>
</g>
<!-- Node7&#45;&gt;Node8 -->
<g id="edge7" class="edge">
<title>Node7&#45;&gt;Node8</title>
<path fill="none" stroke="midnightblue" d="M343.99,-191.59C350.34,-194.37 356.48,-197.65 362,-201.5 383.58,-216.55 376.51,-233.31 398,-248.5 400.12,-250 402.35,-251.41 404.64,-252.74"/>
<polygon fill="midnightblue" stroke="midnightblue" points="403.3,-255.98 413.79,-257.44 406.5,-249.76 403.3,-255.98"/>
</g>
<!-- Node9 -->
<g id="node9" class="node">
<title>Node9</title>
<g id="a_node9"><a xlink:href="../../d0/ddc/classBaseSearchProvider.html#a0842abe2bc866f08d7962b934f066895" target="_top" xlink:title=" ">
<polygon fill="white" stroke="black" points="407.5,-208.5 407.5,-238.5 538.5,-238.5 538.5,-208.5 407.5,-208.5"/>
<text text-anchor="start" x="415.5" y="-226.5" font-family="Helvetica,sans-Serif" font-size="10.00">BaseSearchProvider</text>
<text text-anchor="middle" x="473" y="-215.5" font-family="Helvetica,sans-Serif" font-size="10.00">::CreateSearchSuggestion</text>
</a>
</g>
</g>
<!-- Node7&#45;&gt;Node9 -->
<g id="edge8" class="edge">
<title>Node7&#45;&gt;Node9</title>
<path fill="none" stroke="midnightblue" d="M342.3,-191.5C361.03,-196.12 381.81,-201.25 401.16,-206.02"/>
<polygon fill="midnightblue" stroke="midnightblue" points="400.58,-209.48 411.13,-208.48 402.25,-202.69 400.58,-209.48"/>
</g>
<!-- Node13 -->
<g id="node13" class="node">
<title>Node13</title>
<g id="a_node13"><a xlink:href="../../d5/dc7/classAutocompleteProviderClient.html#af502a4039b9ad1eee42d687a932c07c1" target="_top" xlink:title=" ">
<polygon fill="white" stroke="black" points="404,-159.5 404,-189.5 542,-189.5 542,-159.5 404,-159.5"/>
<text text-anchor="start" x="412" y="-177.5" font-family="Helvetica,sans-Serif" font-size="10.00">AutocompleteProviderClient</text>
<text text-anchor="middle" x="473" y="-166.5" font-family="Helvetica,sans-Serif" font-size="10.00">::GetHistoryService</text>
</a>
</g>
</g>
<!-- Node7&#45;&gt;Node13 -->
<g id="edge12" class="edge">
<title>Node7&#45;&gt;Node13</title>
<path fill="none" stroke="midnightblue" d="M362.01,-175.65C372.45,-175.55 383.12,-175.43 393.52,-175.32"/>
<polygon fill="midnightblue" stroke="midnightblue" points="393.85,-178.82 403.81,-175.22 393.78,-171.82 393.85,-178.82"/>
</g>
<!-- Node14 -->
<g id="node14" class="node">
<title>Node14</title>
<g id="a_node14"><a xlink:href="../../d1/d73/namespaceOmniboxFieldTrial.html#a78ded71a7eeccfaca84915e6467b82bf" target="_top" xlink:title=" ">
<polygon fill="white" stroke="black" points="401.5,-99 401.5,-140 544.5,-140 544.5,-99 401.5,-99"/>
<text text-anchor="start" x="409.5" y="-128" font-family="Helvetica,sans-Serif" font-size="10.00">OmniboxFieldTrial::</text>
<text text-anchor="start" x="409.5" y="-117" font-family="Helvetica,sans-Serif" font-size="10.00">GetLocalHistoryZeroSuggest</text>
<text text-anchor="middle" x="473" y="-106" font-family="Helvetica,sans-Serif" font-size="10.00">AgeThreshold</text>
</a>
</g>
</g>
<!-- Node7&#45;&gt;Node14 -->
<g id="edge13" class="edge">
<title>Node7&#45;&gt;Node14</title>
<path fill="none" stroke="midnightblue" d="M331.8,-161.45C350.74,-155.78 372.75,-149.2 393.64,-142.95"/>
<polygon fill="midnightblue" stroke="midnightblue" points="394.89,-146.22 403.47,-140.01 392.89,-139.52 394.89,-146.22"/>
</g>
<!-- Node15 -->
<g id="node15" class="node">
<title>Node15</title>
<g id="a_node15"><a xlink:href="../../d5/dc7/classAutocompleteProviderClient.html#ac7c39e953949be801b6d7a3b459be66e" target="_top" xlink:title=" ">
<polygon fill="white" stroke="black" points="404,-49.5 404,-79.5 542,-79.5 542,-49.5 404,-49.5"/>
<text text-anchor="start" x="412" y="-67.5" font-family="Helvetica,sans-Serif" font-size="10.00">AutocompleteProviderClient</text>
<text text-anchor="middle" x="473" y="-56.5" font-family="Helvetica,sans-Serif" font-size="10.00">::IsAuthenticated</text>
</a>
</g>
</g>
<!-- Node7&#45;&gt;Node15 -->
<g id="edge15" class="edge">
<title>Node7&#45;&gt;Node15</title>
<path fill="none" stroke="midnightblue" d="M346.13,-161.33C351.8,-158.58 357.19,-155.33 362,-151.5 386.92,-131.64 373.33,-109.67 398,-89.5 400.07,-87.81 402.25,-86.23 404.53,-84.76"/>
<polygon fill="midnightblue" stroke="midnightblue" points="406.7,-87.55 413.68,-79.58 403.26,-81.46 406.7,-87.55"/>
</g>
<!-- Node16 -->
<g id="node16" class="node">
<title>Node16</title>
<g id="a_node16"><a xlink:href="../../dc/dce/classAutocompleteProviderListener.html#a5a9a4ed9fe89fc1cce87b4f5ce216581" target="_top" xlink:title=" ">
<polygon fill="white" stroke="black" points="399.5,-0.5 399.5,-30.5 546.5,-30.5 546.5,-0.5 399.5,-0.5"/>
<text text-anchor="start" x="407.5" y="-18.5" font-family="Helvetica,sans-Serif" font-size="10.00">AutocompleteProviderListener</text>
<text text-anchor="middle" x="473" y="-7.5" font-family="Helvetica,sans-Serif" font-size="10.00">::OnProviderUpdate</text>
</a>
</g>
</g>
<!-- Node7&#45;&gt;Node16 -->
<g id="edge16" class="edge">
<title>Node7&#45;&gt;Node16</title>
<path fill="none" stroke="midnightblue" d="M348.6,-161.49C353.49,-158.71 358.04,-155.41 362,-151.5 398.9,-115.06 361.55,-77.4 398,-40.5 399.43,-39.05 400.95,-37.69 402.53,-36.41"/>
<polygon fill="midnightblue" stroke="midnightblue" points="404.72,-39.15 411,-30.62 400.77,-33.37 404.72,-39.15"/>
</g>
<!-- Node10 -->
<g id="node10" class="node">
<title>Node10</title>
<g id="a_node10"><a xlink:href="../../da/d24/classSearchSuggestionParser_1_1Result.html#a0ed89050a7d0dc76b293f67ddde47427" target="_top" xlink:title=" ">
<polygon fill="white" stroke="black" points="584,-230 584,-271 709,-271 709,-230 584,-230"/>
<text text-anchor="start" x="592" y="-259" font-family="Helvetica,sans-Serif" font-size="10.00">SearchSuggestionParser</text>
<text text-anchor="start" x="592" y="-248" font-family="Helvetica,sans-Serif" font-size="10.00">::Result::set_received</text>
<text text-anchor="middle" x="646.5" y="-237" font-family="Helvetica,sans-Serif" font-size="10.00">_after_last_keystroke</text>
</a>
</g>
</g>
<!-- Node9&#45;&gt;Node10 -->
<g id="edge9" class="edge">
<title>Node9&#45;&gt;Node10</title>
<path fill="none" stroke="midnightblue" d="M538.84,-233.71C550.28,-235.51 562.26,-237.39 573.87,-239.22"/>
<polygon fill="midnightblue" stroke="midnightblue" points="573.55,-242.72 583.97,-240.81 574.64,-235.8 573.55,-242.72"/>
</g>
<!-- Node12 -->
<g id="node12" class="node">
<title>Node12</title>
<g id="a_node12"><a xlink:href="../../dd/de9/classAutocompleteProvider.html#afee5fe39a16a2cc459b6baa0d8a1521e" target="_top" xlink:title=" ">
<polygon fill="white" stroke="black" points="590,-180.5 590,-210.5 703,-210.5 703,-180.5 590,-180.5"/>
<text text-anchor="start" x="598" y="-198.5" font-family="Helvetica,sans-Serif" font-size="10.00">AutocompleteProvider</text>
<text text-anchor="middle" x="646.5" y="-187.5" font-family="Helvetica,sans-Serif" font-size="10.00">::type</text>
</a>
</g>
</g>
<!-- Node9&#45;&gt;Node12 -->
<g id="edge11" class="edge">
<title>Node9&#45;&gt;Node12</title>
<path fill="none" stroke="midnightblue" d="M538.84,-212.91C552.22,-210.73 566.32,-208.43 579.73,-206.24"/>
<polygon fill="midnightblue" stroke="midnightblue" points="580.52,-209.65 589.83,-204.59 579.39,-202.75 580.52,-209.65"/>
</g>
<!-- Node11 -->
<g id="node11" class="node">
<title>Node11</title>
<g id="a_node11"><a xlink:href="../../da/d24/classSearchSuggestionParser_1_1Result.html#ad22dc49110314d33933218f2c70b60e5" target="_top" xlink:title=" ">
<polygon fill="white" stroke="black" points="745,-230 745,-271 870,-271 870,-230 745,-230"/>
<text text-anchor="start" x="753" y="-259" font-family="Helvetica,sans-Serif" font-size="10.00">SearchSuggestionParser</text>
<text text-anchor="start" x="753" y="-248" font-family="Helvetica,sans-Serif" font-size="10.00">::Result::received_after</text>
<text text-anchor="middle" x="807.5" y="-237" font-family="Helvetica,sans-Serif" font-size="10.00">_last_keystroke</text>
</a>
</g>
</g>
<!-- Node10&#45;&gt;Node11 -->
<g id="edge10" class="edge">
<title>Node10&#45;&gt;Node11</title>
<path fill="none" stroke="midnightblue" d="M709.43,-250.5C717.67,-250.5 726.18,-250.5 734.58,-250.5"/>
<polygon fill="midnightblue" stroke="midnightblue" points="734.74,-254 744.74,-250.5 734.74,-247 734.74,-254"/>
</g>
</g>
</svg>
        <g id="navigator" transform="translate(0 0)" fill="#404254">
                <rect fill="#f2f5e9" fill-opacity="0.5" stroke="#606060" stroke-width=".5" x="0" y="0" width="60" height="60"/>
                <use id="zoomplus" xlink:href="#zoomPlus" x="17" y="9" onmousedown="handleZoom(evt,'in')"/>
                <use id="zoomminus" xlink:href="#zoomMin" x="42" y="9" onmousedown="handleZoom(evt,'out')"/>
                <use id="reset" xlink:href="#resetDef" x="30" y="36" onmousedown="handleReset()"/>
                <g id="arrowUp" xlink:href="#dirArrow" transform="translate(30 24)" onmousedown="handlePan(0,-1)">
                  <use xlink:href="#rim" fill="#404040">
                        <set attributeName="fill" to="#808080" begin="arrowUp.mouseover" end="arrowUp.mouseout"/>
                  </use>
                  <path fill="none" stroke="white" stroke-width="1.5" d="M0,-3.0v7 M-2.5,-0.5L0,-3.0L2.5,-0.5"/>
                </g>
                <g id="arrowRight" xlink:href="#dirArrow" transform="rotate(90) translate(36 -43)" onmousedown="handlePan(1,0)">
                  <use xlink:href="#rim" fill="#404040">
                        <set attributeName="fill" to="#808080" begin="arrowRight.mouseover" end="arrowRight.mouseout"/>
                  </use>
                  <path fill="none" stroke="white" stroke-width="1.5" d="M0,-3.0v7 M-2.5,-0.5L0,-3.0L2.5,-0.5"/>
                </g>
                <g id="arrowDown" xlink:href="#dirArrow" transform="rotate(180) translate(-30 -48)" onmousedown="handlePan(0,1)">
                  <use xlink:href="#rim" fill="#404040">
                        <set attributeName="fill" to="#808080" begin="arrowDown.mouseover" end="arrowDown.mouseout"/>
                  </use>
                  <path fill="none" stroke="white" stroke-width="1.5" d="M0,-3.0v7 M-2.5,-0.5L0,-3.0L2.5,-0.5"/>
                </g>
                <g id="arrowLeft" xlink:href="#dirArrow" transform="rotate(270) translate(-36 17)" onmousedown="handlePan(-1,0)">
                  <use xlink:href="#rim" fill="#404040">
                        <set attributeName="fill" to="#808080" begin="arrowLeft.mouseover" end="arrowLeft.mouseout"/>
                  </use>
                  <path fill="none" stroke="white" stroke-width="1.5" d="M0,-3.0v7 M-2.5,-0.5L0,-3.0L2.5,-0.5"/>
                </g>
        </g>
        <svg viewBox="0 0 15 15" width="100%" height="30px" preserveAspectRatio="xMaxYMin meet">
         <g id="arrow_out" transform="scale(0.3 0.3)">
          <a xlink:href="classLocalHistoryZeroSuggestProvider_a5b6959a4e9d04cd0087fbef6f9610c70_cgraph_org.svg" target="_base">
           <rect id="button" ry="5" rx="5" y="6" x="6" height="38" width="38"
                fill="#f2f5e9" fill-opacity="0.5" stroke="#606060" stroke-width="1.0"/>
           <path id="arrow"
             d="M 11.500037,31.436501 C 11.940474,20.09759 22.043105,11.32322 32.158766,21.979434 L 37.068811,17.246167 C 37.068811,17.246167 37.088388,32 37.088388,32 L 22.160133,31.978069 C 22.160133,31.978069 26.997745,27.140456 26.997745,27.140456 C 18.528582,18.264221 13.291696,25.230495 11.500037,31.436501 z"
             style="fill:#404040;"/>
          </a>
         </g>
        </svg>
</svg>
