<?xml version="1.0" encoding="UTF-8" standalone="no"?>
<!DOCTYPE svg PUBLIC "-//W3C//DTD SVG 1.1//EN"
 "http://www.w3.org/Graphics/SVG/1.1/DTD/svg11.dtd">
<!-- Generated by graphviz version 2.43.0 (0)
 -->
<!-- Title: BaseSearchProvider::GetFillIntoEdit Pages: 1 -->
<!--zoomable 117 -->
<svg id="main" version="1.1" xmlns="http://www.w3.org/2000/svg" xmlns:xlink="http://www.w3.org/1999/xlink" xml:space="preserve" onload="init(evt)">
<style type="text/css"><![CDATA[
.edge:hover path { stroke: red; }
.edge:hover polygon { stroke: red; fill: red; }
]]></style>
<script type="text/javascript"><![CDATA[
var edges = document.getElementsByTagName('g');
if (edges && edges.length) {
  for (var i=0;i<edges.length;i++) {
    if (edges[i].id.substr(0,4)=='edge') {
      edges[i].setAttribute('class','edge');
    }
  }
}
]]></script>
        <defs>
                <circle id="rim" cx="0" cy="0" r="7"/>
                <circle id="rim2" cx="0" cy="0" r="3.5"/>
                <g id="zoomPlus">
                        <use xlink:href="#rim" fill="#404040">
                                <set attributeName="fill" to="#808080" begin="zoomplus.mouseover" end="zoomplus.mouseout"/>
                        </use>
                        <path d="M-4,0h8M0,-4v8" fill="none" stroke="white" stroke-width="1.5" pointer-events="none"/>
                </g>
                <g id="zoomMin">
                        <use xlink:href="#rim" fill="#404040">
                                <set attributeName="fill" to="#808080" begin="zoomminus.mouseover" end="zoomminus.mouseout"/>
                        </use>
                        <path d="M-4,0h8" fill="none" stroke="white" stroke-width="1.5" pointer-events="none"/>
                </g>
                <g id="dirArrow">
                        <path fill="none" stroke="white" stroke-width="1.5" d="M0,-3.0v7 M-2.5,-0.5L0,-3.0L2.5,-0.5"/>
                </g>
               <g id="resetDef">
                       <use xlink:href="#rim2" fill="#404040">
                               <set attributeName="fill" to="#808080" begin="reset.mouseover" end="reset.mouseout"/>
                       </use>
               </g>
        </defs>

<script type="text/javascript">
var viewWidth = 1316;
var viewHeight = 117;
var sectionId = 'dynsection-20';
</script>
<script xlink:href="../../svgpan.js"/>
<svg id="graph" class="graph">
<g id="viewport">
<title>BaseSearchProvider::GetFillIntoEdit</title>
<polygon fill="white" stroke="transparent" points="-4,4 -4,-112.5 1312,-112.5 1312,4 -4,4"/>
<!-- Node1 -->
<g id="node1" class="node">
<title>Node1</title>
<g id="a_node1"><a xlink:title=" ">
<polygon fill="#bfbfbf" stroke="black" points="1202,-53 1202,-83 1308,-83 1308,-53 1202,-53"/>
<text text-anchor="start" x="1210" y="-71" font-family="Helvetica,sans-Serif" font-size="10.00">BaseSearchProvider</text>
<text text-anchor="middle" x="1255" y="-60" font-family="Helvetica,sans-Serif" font-size="10.00">::GetFillIntoEdit</text>
</a>
</g>
</g>
<!-- Node2 -->
<g id="node2" class="node">
<title>Node2</title>
<g id="a_node2"><a xlink:href="../../d0/ddc/classBaseSearchProvider.html#a6e57e7d959bc4a9b8ebdfeb9249109da" target="_top" xlink:title=" ">
<polygon fill="white" stroke="black" points="1032.5,-78 1032.5,-108 1163.5,-108 1163.5,-78 1032.5,-78"/>
<text text-anchor="start" x="1040.5" y="-96" font-family="Helvetica,sans-Serif" font-size="10.00">BaseSearchProvider</text>
<text text-anchor="middle" x="1098" y="-85" font-family="Helvetica,sans-Serif" font-size="10.00">::CreateSearchSuggestion</text>
</a>
</g>
</g>
<!-- Node1&#45;&gt;Node2 -->
<g id="edge1" class="edge">
<title>Node1&#45;&gt;Node2</title>
<path fill="none" stroke="midnightblue" d="M1191.97,-78.01C1182.62,-79.51 1172.97,-81.07 1163.57,-82.58"/>
<polygon fill="midnightblue" stroke="midnightblue" points="1192.64,-81.44 1201.96,-76.39 1191.53,-74.53 1192.64,-81.44"/>
</g>
<!-- Node3 -->
<g id="node3" class="node">
<title>Node3</title>
<g id="a_node3"><a xlink:href="../../d4/dee/classSearchProvider.html#a5b30421b37eae04800b4d4f33d94e19c" target="_top" xlink:title=" ">
<polygon fill="white" stroke="black" points="1030,-29 1030,-59 1166,-59 1166,-29 1030,-29"/>
<text text-anchor="start" x="1038" y="-47" font-family="Helvetica,sans-Serif" font-size="10.00">SearchProvider::PersistTop</text>
<text text-anchor="middle" x="1098" y="-36" font-family="Helvetica,sans-Serif" font-size="10.00">Suggestions</text>
</a>
</g>
</g>
<!-- Node1&#45;&gt;Node3 -->
<g id="edge2" class="edge">
<title>Node1&#45;&gt;Node3</title>
<path fill="none" stroke="midnightblue" d="M1192.06,-58.41C1183.51,-57.08 1174.69,-55.72 1166.05,-54.38"/>
<polygon fill="midnightblue" stroke="midnightblue" points="1191.54,-61.87 1201.96,-59.94 1192.61,-54.95 1191.54,-61.87"/>
</g>
<!-- Node4 -->
<g id="node4" class="node">
<title>Node4</title>
<g id="a_node4"><a xlink:href="../../d4/dee/classSearchProvider.html#a2069cdad12e1ef540aead34c19af5128" target="_top" xlink:title=" ">
<polygon fill="white" stroke="black" points="836,-34.5 836,-53.5 994,-53.5 994,-34.5 836,-34.5"/>
<text text-anchor="middle" x="915" y="-41.5" font-family="Helvetica,sans-Serif" font-size="10.00">SearchProvider::UpdateMatches</text>
</a>
</g>
</g>
<!-- Node3&#45;&gt;Node4 -->
<g id="edge3" class="edge">
<title>Node3&#45;&gt;Node4</title>
<path fill="none" stroke="midnightblue" d="M1019.62,-44C1011.15,-44 1002.51,-44 994.03,-44"/>
<polygon fill="midnightblue" stroke="midnightblue" points="1019.86,-47.5 1029.86,-44 1019.86,-40.5 1019.86,-47.5"/>
</g>
<!-- Node5 -->
<g id="node5" class="node">
<title>Node5</title>
<g id="a_node5"><a xlink:href="../../d4/dee/classSearchProvider.html#ac19ab2526055b301d5a3dde7889895eb" target="_top" xlink:title=" ">
<polygon fill="white" stroke="black" points="657.5,-78 657.5,-108 799.5,-108 799.5,-78 657.5,-78"/>
<text text-anchor="start" x="665.5" y="-96" font-family="Helvetica,sans-Serif" font-size="10.00">SearchProvider::OnTemplate</text>
<text text-anchor="middle" x="728.5" y="-85" font-family="Helvetica,sans-Serif" font-size="10.00">URLServiceChanged</text>
</a>
</g>
</g>
<!-- Node4&#45;&gt;Node5 -->
<g id="edge4" class="edge">
<title>Node4&#45;&gt;Node5</title>
<path fill="none" stroke="midnightblue" d="M868.1,-56.19C843.28,-62.78 812.42,-70.98 786.12,-77.96"/>
<polygon fill="midnightblue" stroke="midnightblue" points="869.22,-59.51 877.99,-53.56 867.43,-52.75 869.22,-59.51"/>
</g>
<!-- Node6 -->
<g id="node6" class="node">
<title>Node6</title>
<g id="a_node6"><a xlink:href="../../d4/dee/classSearchProvider.html#a62390d46fb831c0919093798ab7bd52d" target="_top" xlink:title=" ">
<polygon fill="white" stroke="black" points="657,-29 657,-59 800,-59 800,-29 657,-29"/>
<text text-anchor="start" x="665" y="-47" font-family="Helvetica,sans-Serif" font-size="10.00">SearchProvider::OnURLLoad</text>
<text text-anchor="middle" x="728.5" y="-36" font-family="Helvetica,sans-Serif" font-size="10.00">Complete</text>
</a>
</g>
</g>
<!-- Node4&#45;&gt;Node6 -->
<g id="edge5" class="edge">
<title>Node4&#45;&gt;Node6</title>
<path fill="none" stroke="midnightblue" d="M825.75,-44C817.2,-44 808.6,-44 800.26,-44"/>
<polygon fill="midnightblue" stroke="midnightblue" points="825.76,-47.5 835.76,-44 825.76,-40.5 825.76,-47.5"/>
</g>
<!-- Node10 -->
<g id="node10" class="node">
<title>Node10</title>
<g id="a_node10"><a xlink:href="../../d4/dee/classSearchProvider.html#a9e8f7e367904d424ac875e501844e830" target="_top" xlink:title=" ">
<polygon fill="white" stroke="black" points="0,-12.5 0,-31.5 110,-31.5 110,-12.5 0,-12.5"/>
<text text-anchor="middle" x="55" y="-19.5" font-family="Helvetica,sans-Serif" font-size="10.00">SearchProvider::Start</text>
</a>
</g>
</g>
<!-- Node4&#45;&gt;Node10 -->
<g id="edge10" class="edge">
<title>Node4&#45;&gt;Node10</title>
<path fill="none" stroke="midnightblue" d="M867.29,-32.19C846.77,-27.41 822.31,-22.26 800,-19 687.33,-2.54 658.37,0 544.5,0 544.5,0 544.5,0 375.5,0 282.09,0 173.68,-9.47 110.19,-15.99"/>
<polygon fill="midnightblue" stroke="midnightblue" points="866.48,-35.6 877.02,-34.5 868.1,-28.79 866.48,-35.6"/>
</g>
<!-- Node7 -->
<g id="node7" class="node">
<title>Node7</title>
<g id="a_node7"><a xlink:href="../../d4/dee/classSearchProvider.html#ac6613acbe0b4e879590cdb0d562999c9" target="_top" xlink:title=" ">
<polygon fill="white" stroke="black" points="466,-29 466,-59 621,-59 621,-29 466,-29"/>
<text text-anchor="start" x="474" y="-47" font-family="Helvetica,sans-Serif" font-size="10.00">SearchProvider::CreateSuggest</text>
<text text-anchor="middle" x="543.5" y="-36" font-family="Helvetica,sans-Serif" font-size="10.00">Loader</text>
</a>
</g>
</g>
<!-- Node6&#45;&gt;Node7 -->
<g id="edge6" class="edge">
<title>Node6&#45;&gt;Node7</title>
<path fill="none" stroke="midnightblue" d="M646.53,-44C638.09,-44 629.53,-44 621.14,-44"/>
<polygon fill="midnightblue" stroke="midnightblue" points="646.75,-47.5 656.75,-44 646.75,-40.5 646.75,-47.5"/>
</g>
<!-- Node8 -->
<g id="node8" class="node">
<title>Node8</title>
<g id="a_node8"><a xlink:href="../../d4/dee/classSearchProvider.html#a02c8b00f5d4da0ce7e5de29658483914" target="_top" xlink:title=" ">
<polygon fill="white" stroke="black" points="323,-34.5 323,-53.5 430,-53.5 430,-34.5 323,-34.5"/>
<text text-anchor="middle" x="376.5" y="-41.5" font-family="Helvetica,sans-Serif" font-size="10.00">SearchProvider::Run</text>
</a>
</g>
</g>
<!-- Node7&#45;&gt;Node8 -->
<g id="edge7" class="edge">
<title>Node7&#45;&gt;Node8</title>
<path fill="none" stroke="midnightblue" d="M455.7,-44C447.1,-44 438.56,-44 430.47,-44"/>
<polygon fill="midnightblue" stroke="midnightblue" points="455.8,-47.5 465.8,-44 455.8,-40.5 455.8,-47.5"/>
</g>
<!-- Node9 -->
<g id="node9" class="node">
<title>Node9</title>
<g id="a_node9"><a xlink:href="../../d4/dee/classSearchProvider.html#af0c60cb234c815b05521a08434e7dcdc" target="_top" xlink:title=" ">
<polygon fill="white" stroke="black" points="146,-29 146,-59 287,-59 287,-29 146,-29"/>
<text text-anchor="start" x="154" y="-47" font-family="Helvetica,sans-Serif" font-size="10.00">SearchProvider::StartOrStop</text>
<text text-anchor="middle" x="216.5" y="-36" font-family="Helvetica,sans-Serif" font-size="10.00">SuggestQuery</text>
</a>
</g>
</g>
<!-- Node8&#45;&gt;Node9 -->
<g id="edge8" class="edge">
<title>Node8&#45;&gt;Node9</title>
<path fill="none" stroke="midnightblue" d="M312.74,-44C304.29,-44 295.59,-44 287.03,-44"/>
<polygon fill="midnightblue" stroke="midnightblue" points="312.89,-47.5 322.89,-44 312.89,-40.5 312.89,-47.5"/>
</g>
<!-- Node9&#45;&gt;Node10 -->
<g id="edge9" class="edge">
<title>Node9&#45;&gt;Node10</title>
<path fill="none" stroke="midnightblue" d="M135.47,-32.96C126.87,-31.77 118.27,-30.59 110.08,-29.46"/>
<polygon fill="midnightblue" stroke="midnightblue" points="135.16,-36.45 145.54,-34.35 136.11,-29.52 135.16,-36.45"/>
</g>
</g>
</svg>
        <g id="navigator" transform="translate(0 0)" fill="#404254">
                <rect fill="#f2f5e9" fill-opacity="0.5" stroke="#606060" stroke-width=".5" x="0" y="0" width="60" height="60"/>
                <use id="zoomplus" xlink:href="#zoomPlus" x="17" y="9" onmousedown="handleZoom(evt,'in')"/>
                <use id="zoomminus" xlink:href="#zoomMin" x="42" y="9" onmousedown="handleZoom(evt,'out')"/>
                <use id="reset" xlink:href="#resetDef" x="30" y="36" onmousedown="handleReset()"/>
                <g id="arrowUp" xlink:href="#dirArrow" transform="translate(30 24)" onmousedown="handlePan(0,-1)">
                  <use xlink:href="#rim" fill="#404040">
                        <set attributeName="fill" to="#808080" begin="arrowUp.mouseover" end="arrowUp.mouseout"/>
                  </use>
                  <path fill="none" stroke="white" stroke-width="1.5" d="M0,-3.0v7 M-2.5,-0.5L0,-3.0L2.5,-0.5"/>
                </g>
                <g id="arrowRight" xlink:href="#dirArrow" transform="rotate(90) translate(36 -43)" onmousedown="handlePan(1,0)">
                  <use xlink:href="#rim" fill="#404040">
                        <set attributeName="fill" to="#808080" begin="arrowRight.mouseover" end="arrowRight.mouseout"/>
                  </use>
                  <path fill="none" stroke="white" stroke-width="1.5" d="M0,-3.0v7 M-2.5,-0.5L0,-3.0L2.5,-0.5"/>
                </g>
                <g id="arrowDown" xlink:href="#dirArrow" transform="rotate(180) translate(-30 -48)" onmousedown="handlePan(0,1)">
                  <use xlink:href="#rim" fill="#404040">
                        <set attributeName="fill" to="#808080" begin="arrowDown.mouseover" end="arrowDown.mouseout"/>
                  </use>
                  <path fill="none" stroke="white" stroke-width="1.5" d="M0,-3.0v7 M-2.5,-0.5L0,-3.0L2.5,-0.5"/>
                </g>
                <g id="arrowLeft" xlink:href="#dirArrow" transform="rotate(270) translate(-36 17)" onmousedown="handlePan(-1,0)">
                  <use xlink:href="#rim" fill="#404040">
                        <set attributeName="fill" to="#808080" begin="arrowLeft.mouseover" end="arrowLeft.mouseout"/>
                  </use>
                  <path fill="none" stroke="white" stroke-width="1.5" d="M0,-3.0v7 M-2.5,-0.5L0,-3.0L2.5,-0.5"/>
                </g>
        </g>
        <svg viewBox="0 0 15 15" width="100%" height="30px" preserveAspectRatio="xMaxYMin meet">
         <g id="arrow_out" transform="scale(0.3 0.3)">
          <a xlink:href="classBaseSearchProvider_aad659d1a6d63c18aad70f07ac7ba3c27_icgraph_org.svg" target="_base">
           <rect id="button" ry="5" rx="5" y="6" x="6" height="38" width="38"
                fill="#f2f5e9" fill-opacity="0.5" stroke="#606060" stroke-width="1.0"/>
           <path id="arrow"
             d="M 11.500037,31.436501 C 11.940474,20.09759 22.043105,11.32322 32.158766,21.979434 L 37.068811,17.246167 C 37.068811,17.246167 37.088388,32 37.088388,32 L 22.160133,31.978069 C 22.160133,31.978069 26.997745,27.140456 26.997745,27.140456 C 18.528582,18.264221 13.291696,25.230495 11.500037,31.436501 z"
             style="fill:#404040;"/>
          </a>
         </g>
        </svg>
</svg>
