<?xml version="1.0" encoding="UTF-8" standalone="no"?>
<!DOCTYPE svg PUBLIC "-//W3C//DTD SVG 1.1//EN"
 "http://www.w3.org/Graphics/SVG/1.1/DTD/svg11.dtd">
<!-- Generated by graphviz version 2.43.0 (0)
 -->
<!-- Title: BaseSearchProvider::client Pages: 1 -->
<svg width="2003pt" height="1143pt"
 viewBox="0.00 0.00 2003.00 1143.13" xmlns="http://www.w3.org/2000/svg" xmlns:xlink="http://www.w3.org/1999/xlink">
<g id="graph0" class="graph" transform="scale(1 1) rotate(0) translate(4 1139.13)">
<title>BaseSearchProvider::client</title>
<polygon fill="white" stroke="transparent" points="-4,4 -4,-1139.13 1999,-1139.13 1999,4 -4,4"/>
<!-- Node1 -->
<g id="node1" class="node">
<title>Node1</title>
<g id="a_node1"><a xlink:title=" ">
<polygon fill="#bfbfbf" stroke="black" points="1889,-571 1889,-601 1995,-601 1995,-571 1889,-571"/>
<text text-anchor="start" x="1897" y="-589" font-family="Helvetica,sans-Serif" font-size="10.00">BaseSearchProvider</text>
<text text-anchor="middle" x="1942" y="-578" font-family="Helvetica,sans-Serif" font-size="10.00">::client</text>
</a>
</g>
</g>
<!-- Node2 -->
<g id="node2" class="node">
<title>Node2</title>
<g id="a_node2"><a xlink:href="../../d3/dbc/classZeroSuggestProvider.html#a0f87dbc810369c29a9f805464d47c299" target="_top" xlink:title=" ">
<polygon fill="white" stroke="black" points="1105.5,-747 1105.5,-777 1261.5,-777 1261.5,-747 1105.5,-747"/>
<text text-anchor="start" x="1113.5" y="-765" font-family="Helvetica,sans-Serif" font-size="10.00">ZeroSuggestProvider</text>
<text text-anchor="middle" x="1183.5" y="-754" font-family="Helvetica,sans-Serif" font-size="10.00">::AllowZeroSuggestSuggestions</text>
</a>
</g>
</g>
<!-- Node1&#45;&gt;Node2 -->
<g id="edge1" class="edge">
<title>Node1&#45;&gt;Node2</title>
<path fill="none" stroke="midnightblue" d="M1932.81,-610.65C1920.8,-642.53 1895.14,-697.06 1853,-723 1756.04,-782.69 1416.09,-773.87 1261.76,-766.43"/>
<polygon fill="midnightblue" stroke="midnightblue" points="1936.13,-611.75 1936.23,-601.16 1929.55,-609.38 1936.13,-611.75"/>
</g>
<!-- Node3 -->
<g id="node3" class="node">
<title>Node3</title>
<g id="a_node3"><a xlink:href="../../d3/dbc/classZeroSuggestProvider.html#ac0afcbd72684c1a1478301c21b3ff486" target="_top" xlink:title=" ">
<polygon fill="white" stroke="black" points="923,-769 923,-799 1031,-799 1031,-769 923,-769"/>
<text text-anchor="start" x="931" y="-787" font-family="Helvetica,sans-Serif" font-size="10.00">ZeroSuggestProvider</text>
<text text-anchor="middle" x="977" y="-776" font-family="Helvetica,sans-Serif" font-size="10.00">::Start</text>
</a>
</g>
</g>
<!-- Node1&#45;&gt;Node3 -->
<g id="edge58" class="edge">
<title>Node1&#45;&gt;Node3</title>
<path fill="none" stroke="midnightblue" d="M1878.6,-575.37C1807.07,-564.13 1686.18,-548 1581.5,-548 1581.5,-548 1581.5,-548 1384,-548 1255.27,-548 1204.59,-516.32 1097,-587 1028.71,-631.86 993.59,-730.76 982.22,-768.74"/>
<polygon fill="midnightblue" stroke="midnightblue" points="1878.36,-578.88 1888.79,-576.99 1879.46,-571.97 1878.36,-578.88"/>
</g>
<!-- Node4 -->
<g id="node4" class="node">
<title>Node4</title>
<g id="a_node4"><a xlink:href="../../d0/ddc/classBaseSearchProvider.html#a4513cee718647e9f5d01c53124059822" target="_top" xlink:title=" ">
<polygon fill="white" stroke="black" points="1722,-653 1722,-683 1828,-683 1828,-653 1722,-653"/>
<text text-anchor="start" x="1730" y="-671" font-family="Helvetica,sans-Serif" font-size="10.00">BaseSearchProvider</text>
<text text-anchor="middle" x="1775" y="-660" font-family="Helvetica,sans-Serif" font-size="10.00">::CanSendURL</text>
</a>
</g>
</g>
<!-- Node1&#45;&gt;Node4 -->
<g id="edge3" class="edge">
<title>Node1&#45;&gt;Node4</title>
<path fill="none" stroke="midnightblue" d="M1909.02,-606.6C1892.62,-616.72 1872.12,-628.7 1853,-638 1842.03,-643.33 1829.86,-648.43 1818.49,-652.86"/>
<polygon fill="midnightblue" stroke="midnightblue" points="1911.04,-609.46 1917.67,-601.2 1907.34,-603.52 1911.04,-609.46"/>
</g>
<!-- Node5 -->
<g id="node5" class="node">
<title>Node5</title>
<g id="a_node5"><a xlink:href="../../d4/dee/classSearchProvider.html#ac6613acbe0b4e879590cdb0d562999c9" target="_top" xlink:title=" ">
<polygon fill="white" stroke="black" points="523,-560 523,-590 678,-590 678,-560 523,-560"/>
<text text-anchor="start" x="531" y="-578" font-family="Helvetica,sans-Serif" font-size="10.00">SearchProvider::CreateSuggest</text>
<text text-anchor="middle" x="600.5" y="-567" font-family="Helvetica,sans-Serif" font-size="10.00">Loader</text>
</a>
</g>
</g>
<!-- Node1&#45;&gt;Node5 -->
<g id="edge20" class="edge">
<title>Node1&#45;&gt;Node5</title>
<path fill="none" stroke="midnightblue" d="M1900.98,-566.63C1886.2,-560.16 1869.11,-553.47 1853,-549 1735.52,-516.44 1703.41,-510 1581.5,-510 1581.5,-510 1581.5,-510 976,-510 859.86,-510 726.4,-540.72 654.33,-559.92"/>
<polygon fill="midnightblue" stroke="midnightblue" points="1899.77,-569.92 1910.33,-570.82 1902.64,-563.54 1899.77,-569.92"/>
</g>
<!-- Node6 -->
<g id="node6" class="node">
<title>Node6</title>
<g id="a_node6"><a xlink:href="../../d4/dee/classSearchProvider.html#a02c8b00f5d4da0ce7e5de29658483914" target="_top" xlink:title=" ">
<polygon fill="white" stroke="black" points="354,-694.5 354,-713.5 461,-713.5 461,-694.5 354,-694.5"/>
<text text-anchor="middle" x="407.5" y="-701.5" font-family="Helvetica,sans-Serif" font-size="10.00">SearchProvider::Run</text>
</a>
</g>
</g>
<!-- Node1&#45;&gt;Node6 -->
<g id="edge52" class="edge">
<title>Node1&#45;&gt;Node6</title>
<path fill="none" stroke="midnightblue" d="M1939.76,-611.3C1935.07,-695.84 1915.34,-966.27 1853,-1021 1762.1,-1100.81 1702.46,-1040 1581.5,-1040 1581.5,-1040 1581.5,-1040 784.5,-1040 734.16,-1040 470.77,-768.78 417.79,-713.69"/>
<polygon fill="midnightblue" stroke="midnightblue" points="1943.27,-611.25 1940.31,-601.08 1936.28,-610.88 1943.27,-611.25"/>
</g>
<!-- Node8 -->
<g id="node8" class="node">
<title>Node8</title>
<g id="a_node8"><a xlink:href="../../d4/dee/classSearchProvider.html#a9e8f7e367904d424ac875e501844e830" target="_top" xlink:title=" ">
<polygon fill="white" stroke="black" points="0,-203.5 0,-222.5 110,-222.5 110,-203.5 0,-203.5"/>
<text text-anchor="middle" x="55" y="-210.5" font-family="Helvetica,sans-Serif" font-size="10.00">SearchProvider::Start</text>
</a>
</g>
</g>
<!-- Node1&#45;&gt;Node8 -->
<g id="edge57" class="edge">
<title>Node1&#45;&gt;Node8</title>
<path fill="none" stroke="midnightblue" d="M1940.47,-611.19C1937.96,-703.9 1924.18,-1024.13 1853,-1090 1764.03,-1172.33 1702.72,-1116 1581.5,-1116 1581.5,-1116 1581.5,-1116 406.5,-1116 199.16,-1116 223.4,-921.35 146,-729 68.26,-535.81 57.59,-275.35 56.2,-222.56"/>
<polygon fill="midnightblue" stroke="midnightblue" points="1943.97,-611.13 1940.72,-601.05 1936.97,-610.96 1943.97,-611.13"/>
</g>
<!-- Node9 -->
<g id="node9" class="node">
<title>Node9</title>
<g id="a_node9"><a xlink:href="../../d3/dbc/classZeroSuggestProvider.html#a00de72a246322fcd70464d0c4b56a2d5" target="_top" xlink:title=" ">
<polygon fill="white" stroke="black" points="1525,-703 1525,-733 1636,-733 1636,-703 1525,-703"/>
<text text-anchor="start" x="1533" y="-721" font-family="Helvetica,sans-Serif" font-size="10.00">ZeroSuggestProvider</text>
<text text-anchor="middle" x="1580.5" y="-710" font-family="Helvetica,sans-Serif" font-size="10.00">::TypeOfResultToRun</text>
</a>
</g>
</g>
<!-- Node1&#45;&gt;Node9 -->
<g id="edge59" class="edge">
<title>Node1&#45;&gt;Node9</title>
<path fill="none" stroke="midnightblue" d="M1928.59,-610.35C1914.18,-635.79 1887.87,-674.53 1853,-693 1784.93,-729.06 1693.67,-729.38 1636.23,-724.82"/>
<polygon fill="midnightblue" stroke="midnightblue" points="1931.8,-611.77 1933.52,-601.32 1925.66,-608.42 1931.8,-611.77"/>
</g>
<!-- Node10 -->
<g id="node10" class="node">
<title>Node10</title>
<g id="a_node10"><a xlink:href="../../d3/dbc/classZeroSuggestProvider.html#aee611525cf7f09c7e6b019dacd79410c" target="_top" xlink:title=" ">
<polygon fill="white" stroke="black" points="1523.5,-615 1523.5,-645 1637.5,-645 1637.5,-615 1523.5,-615"/>
<text text-anchor="start" x="1531.5" y="-633" font-family="Helvetica,sans-Serif" font-size="10.00">ZeroSuggestProvider</text>
<text text-anchor="middle" x="1580.5" y="-622" font-family="Helvetica,sans-Serif" font-size="10.00">::ZeroSuggestProvider</text>
</a>
</g>
</g>
<!-- Node1&#45;&gt;Node10 -->
<g id="edge61" class="edge">
<title>Node1&#45;&gt;Node10</title>
<path fill="none" stroke="midnightblue" d="M1878.86,-596.27C1870.18,-597.59 1861.37,-598.87 1853,-600 1778.74,-610 1692.73,-619.09 1637.75,-624.57"/>
<polygon fill="midnightblue" stroke="midnightblue" points="1879.6,-599.69 1888.94,-594.7 1878.53,-592.77 1879.6,-599.69"/>
</g>
<!-- Node11 -->
<g id="node11" class="node">
<title>Node11</title>
<g id="a_node11"><a xlink:href="../../d3/dbc/classZeroSuggestProvider.html#a0dd2ed2b81d093bbb97a2e5f6049371f" target="_top" xlink:title=" ">
<polygon fill="white" stroke="black" points="1331,-596 1331,-626 1439,-626 1439,-596 1331,-596"/>
<text text-anchor="start" x="1339" y="-614" font-family="Helvetica,sans-Serif" font-size="10.00">ZeroSuggestProvider</text>
<text text-anchor="middle" x="1385" y="-603" font-family="Helvetica,sans-Serif" font-size="10.00">::Create</text>
</a>
</g>
</g>
<!-- Node1&#45;&gt;Node11 -->
<g id="edge19" class="edge">
<title>Node1&#45;&gt;Node11</title>
<path fill="none" stroke="midnightblue" d="M1878.52,-588.81C1768.56,-593.77 1542.37,-603.96 1439.29,-608.6"/>
<polygon fill="midnightblue" stroke="midnightblue" points="1878.95,-592.3 1888.79,-588.35 1878.64,-585.31 1878.95,-592.3"/>
</g>
<!-- Node13 -->
<g id="node13" class="node">
<title>Node13</title>
<g id="a_node13"><a xlink:href="../../d3/dbc/classZeroSuggestProvider.html#a5743967b3e18ccedb2479cc2212b3979" target="_top" xlink:title=" ">
<polygon fill="white" stroke="black" points="1500,-831.5 1500,-872.5 1661,-872.5 1661,-831.5 1500,-831.5"/>
<text text-anchor="start" x="1508" y="-860.5" font-family="Helvetica,sans-Serif" font-size="10.00">ZeroSuggestProvider</text>
<text text-anchor="start" x="1508" y="-849.5" font-family="Helvetica,sans-Serif" font-size="10.00">::ConvertResultsToAutocomplete</text>
<text text-anchor="middle" x="1580.5" y="-838.5" font-family="Helvetica,sans-Serif" font-size="10.00">Matches</text>
</a>
</g>
</g>
<!-- Node1&#45;&gt;Node13 -->
<g id="edge13" class="edge">
<title>Node1&#45;&gt;Node13</title>
<path fill="none" stroke="midnightblue" d="M1938.48,-611.14C1932.49,-656.8 1913.05,-753.14 1853,-802 1824.14,-825.48 1730.43,-838.87 1661.15,-845.77"/>
<polygon fill="midnightblue" stroke="midnightblue" points="1941.96,-611.53 1939.68,-601.18 1935.01,-610.7 1941.96,-611.53"/>
</g>
<!-- Node14 -->
<g id="node14" class="node">
<title>Node14</title>
<g id="a_node14"><a xlink:href="../../d3/dbc/classZeroSuggestProvider.html#a5a1c47322df6df8bfa3374fc08369314" target="_top" xlink:title=" ">
<polygon fill="white" stroke="black" points="1306,-791 1306,-821 1464,-821 1464,-791 1306,-791"/>
<text text-anchor="start" x="1314" y="-809" font-family="Helvetica,sans-Serif" font-size="10.00">ZeroSuggestProvider</text>
<text text-anchor="middle" x="1385" y="-798" font-family="Helvetica,sans-Serif" font-size="10.00">::MaybeUseCachedSuggestions</text>
</a>
</g>
</g>
<!-- Node1&#45;&gt;Node14 -->
<g id="edge37" class="edge">
<title>Node1&#45;&gt;Node14</title>
<path fill="none" stroke="midnightblue" d="M1936.59,-611.14C1928.15,-651.02 1905.62,-727.95 1853,-764 1791.72,-805.98 1580.48,-809.45 1464.23,-807.98"/>
<polygon fill="midnightblue" stroke="midnightblue" points="1940.06,-611.66 1938.57,-601.17 1933.19,-610.29 1940.06,-611.66"/>
</g>
<!-- Node15 -->
<g id="node15" class="node">
<title>Node15</title>
<g id="a_node15"><a xlink:href="../../d3/dbc/classZeroSuggestProvider.html#a23ed4e024f176a325953927fc87f131d" target="_top" xlink:title=" ">
<polygon fill="white" stroke="black" points="1331,-840 1331,-870 1439,-870 1439,-840 1331,-840"/>
<text text-anchor="start" x="1339" y="-858" font-family="Helvetica,sans-Serif" font-size="10.00">ZeroSuggestProvider</text>
<text text-anchor="middle" x="1385" y="-847" font-family="Helvetica,sans-Serif" font-size="10.00">::UpdateResults</text>
</a>
</g>
</g>
<!-- Node1&#45;&gt;Node15 -->
<g id="edge60" class="edge">
<title>Node1&#45;&gt;Node15</title>
<path fill="none" stroke="midnightblue" d="M1937.69,-611.36C1928.3,-678.86 1899.18,-860.14 1853,-895 1828.32,-913.63 1511.2,-883.68 1500,-882 1479.99,-878.99 1458.31,-874.24 1439.29,-869.56"/>
<polygon fill="midnightblue" stroke="midnightblue" points="1941.19,-611.57 1939.07,-601.19 1934.26,-610.63 1941.19,-611.57"/>
</g>
<!-- Node17 -->
<g id="node17" class="node">
<title>Node17</title>
<g id="a_node17"><a xlink:href="../../d0/ddc/classBaseSearchProvider.html#aa57edab8d744eb987101cdcdad47b243" target="_top" xlink:title=" ">
<polygon fill="white" stroke="black" points="1722,-451 1722,-481 1828,-481 1828,-451 1722,-451"/>
<text text-anchor="start" x="1730" y="-469" font-family="Helvetica,sans-Serif" font-size="10.00">BaseSearchProvider</text>
<text text-anchor="middle" x="1775" y="-458" font-family="Helvetica,sans-Serif" font-size="10.00">::DeleteMatch</text>
</a>
</g>
</g>
<!-- Node1&#45;&gt;Node17 -->
<g id="edge21" class="edge">
<title>Node1&#45;&gt;Node17</title>
<path fill="none" stroke="midnightblue" d="M1923.03,-562.68C1906.62,-542.7 1880.76,-514.35 1853,-496 1844.14,-490.15 1833.97,-485.17 1823.99,-481.05"/>
<polygon fill="midnightblue" stroke="midnightblue" points="1920.47,-565.07 1929.46,-570.67 1925.92,-560.68 1920.47,-565.07"/>
</g>
<!-- Node18 -->
<g id="node18" class="node">
<title>Node18</title>
<g id="a_node18"><a xlink:href="../../d3/dbc/classZeroSuggestProvider.html#a473e7ad1caeff347c1c3b21b6b424b6d" target="_top" xlink:title=" ">
<polygon fill="white" stroke="black" points="1526.5,-383 1526.5,-413 1634.5,-413 1634.5,-383 1526.5,-383"/>
<text text-anchor="start" x="1534.5" y="-401" font-family="Helvetica,sans-Serif" font-size="10.00">ZeroSuggestProvider</text>
<text text-anchor="middle" x="1580.5" y="-390" font-family="Helvetica,sans-Serif" font-size="10.00">::DeleteMatch</text>
</a>
</g>
</g>
<!-- Node1&#45;&gt;Node18 -->
<g id="edge23" class="edge">
<title>Node1&#45;&gt;Node18</title>
<path fill="none" stroke="midnightblue" d="M1940.6,-560.72C1938.24,-509.55 1924.81,-394.3 1853,-344 1774.86,-289.27 1654.67,-351.88 1604.61,-382.77"/>
<polygon fill="midnightblue" stroke="midnightblue" points="1937.1,-561.03 1940.95,-570.9 1944.1,-560.78 1937.1,-561.03"/>
</g>
<!-- Node19 -->
<g id="node19" class="node">
<title>Node19</title>
<g id="a_node19"><a xlink:href="../../d4/dee/classSearchProvider.html#a977f6c76178ac46bddb2a7c12b6ddf4d" target="_top" xlink:title=" ">
<polygon fill="white" stroke="black" points="533.5,-198 533.5,-228 667.5,-228 667.5,-198 533.5,-198"/>
<text text-anchor="start" x="541.5" y="-216" font-family="Helvetica,sans-Serif" font-size="10.00">SearchProvider::DoHistory</text>
<text text-anchor="middle" x="600.5" y="-205" font-family="Helvetica,sans-Serif" font-size="10.00">Query</text>
</a>
</g>
</g>
<!-- Node1&#45;&gt;Node19 -->
<g id="edge24" class="edge">
<title>Node1&#45;&gt;Node19</title>
<path fill="none" stroke="midnightblue" d="M1938.66,-560.62C1931.21,-485.77 1905.37,-268.53 1853,-225 1806.53,-186.38 1641.93,-210 1581.5,-210 1581.5,-210 1581.5,-210 976,-210 868.07,-210 742.64,-211.26 667.79,-212.15"/>
<polygon fill="midnightblue" stroke="midnightblue" points="1935.18,-560.97 1939.63,-570.59 1942.15,-560.29 1935.18,-560.97"/>
</g>
<!-- Node20 -->
<g id="node20" class="node">
<title>Node20</title>
<g id="a_node20"><a xlink:href="../../d3/dbc/classZeroSuggestProvider.html#a28ac4ab5ecab45643b9b8951ca0b50b0" target="_top" xlink:title=" ">
<polygon fill="white" stroke="black" points="1721,-981 1721,-1011 1829,-1011 1829,-981 1721,-981"/>
<text text-anchor="start" x="1729" y="-999" font-family="Helvetica,sans-Serif" font-size="10.00">ZeroSuggestProvider</text>
<text text-anchor="middle" x="1775" y="-988" font-family="Helvetica,sans-Serif" font-size="10.00">::GetInput</text>
</a>
</g>
</g>
<!-- Node1&#45;&gt;Node20 -->
<g id="edge26" class="edge">
<title>Node1&#45;&gt;Node20</title>
<path fill="none" stroke="midnightblue" d="M1938.21,-611.44C1929.38,-687.6 1899.89,-911.83 1853,-966 1846.62,-973.38 1838.19,-978.95 1829.26,-983.16"/>
<polygon fill="midnightblue" stroke="midnightblue" points="1941.71,-611.65 1939.36,-601.32 1934.75,-610.86 1941.71,-611.65"/>
</g>
<!-- Node21 -->
<g id="node21" class="node">
<title>Node21</title>
<g id="a_node21"><a xlink:href="../../d3/dbc/classZeroSuggestProvider.html#a6d02a927dbb2608e94c36d994512fb89" target="_top" xlink:title=" ">
<polygon fill="white" stroke="black" points="1523,-943 1523,-973 1638,-973 1638,-943 1523,-943"/>
<text text-anchor="start" x="1531" y="-961" font-family="Helvetica,sans-Serif" font-size="10.00">ZeroSuggestProvider</text>
<text text-anchor="middle" x="1580.5" y="-950" font-family="Helvetica,sans-Serif" font-size="10.00">::MatchForCurrentText</text>
</a>
</g>
</g>
<!-- Node1&#45;&gt;Node21 -->
<g id="edge36" class="edge">
<title>Node1&#45;&gt;Node21</title>
<path fill="none" stroke="midnightblue" d="M1938.18,-611.35C1929.62,-683.22 1901.57,-885.87 1853,-928 1821.92,-954.96 1708.26,-959.15 1638.23,-959.06"/>
<polygon fill="midnightblue" stroke="midnightblue" points="1941.66,-611.69 1939.34,-601.35 1934.71,-610.88 1941.66,-611.69"/>
</g>
<!-- Node22 -->
<g id="node22" class="node">
<title>Node22</title>
<g id="a_node22"><a xlink:href="../../de/d3f/classVoiceSuggestProvider.html#a2b41acde2ba23af39bd72f14619837f6" target="_top" xlink:title=" ">
<polygon fill="white" stroke="black" points="1718.5,-402 1718.5,-432 1831.5,-432 1831.5,-402 1718.5,-402"/>
<text text-anchor="start" x="1726.5" y="-420" font-family="Helvetica,sans-Serif" font-size="10.00">VoiceSuggestProvider</text>
<text text-anchor="middle" x="1775" y="-409" font-family="Helvetica,sans-Serif" font-size="10.00">::GetTemplateURL</text>
</a>
</g>
</g>
<!-- Node1&#45;&gt;Node22 -->
<g id="edge29" class="edge">
<title>Node1&#45;&gt;Node22</title>
<path fill="none" stroke="midnightblue" d="M1932.25,-561.44C1919.61,-529.43 1893.26,-473.77 1853,-442 1846.71,-437.04 1839.41,-433.04 1831.85,-429.84"/>
<polygon fill="midnightblue" stroke="midnightblue" points="1929.04,-562.85 1935.87,-570.95 1935.58,-560.36 1929.04,-562.85"/>
</g>
<!-- Node23 -->
<g id="node23" class="node">
<title>Node23</title>
<g id="a_node23"><a xlink:href="../../d3/dbc/classZeroSuggestProvider.html#a269db0e08ef454751751975b05982faf" target="_top" xlink:title=" ">
<polygon fill="white" stroke="black" points="1721,-353 1721,-383 1829,-383 1829,-353 1721,-353"/>
<text text-anchor="start" x="1729" y="-371" font-family="Helvetica,sans-Serif" font-size="10.00">ZeroSuggestProvider</text>
<text text-anchor="middle" x="1775" y="-360" font-family="Helvetica,sans-Serif" font-size="10.00">::GetTemplateURL</text>
</a>
</g>
</g>
<!-- Node1&#45;&gt;Node23 -->
<g id="edge30" class="edge">
<title>Node1&#45;&gt;Node23</title>
<path fill="none" stroke="midnightblue" d="M1936.31,-560.76C1927.38,-519.72 1904.08,-438.57 1853,-393 1846.18,-386.92 1837.86,-382.31 1829.24,-378.83"/>
<polygon fill="midnightblue" stroke="midnightblue" points="1932.92,-561.65 1938.37,-570.74 1939.78,-560.24 1932.92,-561.65"/>
</g>
<!-- Node24 -->
<g id="node24" class="node">
<title>Node24</title>
<g id="a_node24"><a xlink:href="../../d4/dee/classSearchProvider.html#a653124bafb14a2271662cc81d572a94d" target="_top" xlink:title=" ">
<polygon fill="white" stroke="black" points="328,-798 328,-828 487,-828 487,-798 328,-798"/>
<text text-anchor="start" x="336" y="-816" font-family="Helvetica,sans-Serif" font-size="10.00">SearchProvider::IsQuerySuitable</text>
<text text-anchor="middle" x="407.5" y="-805" font-family="Helvetica,sans-Serif" font-size="10.00">ForSuggest</text>
</a>
</g>
</g>
<!-- Node1&#45;&gt;Node24 -->
<g id="edge31" class="edge">
<title>Node1&#45;&gt;Node24</title>
<path fill="none" stroke="midnightblue" d="M1940.12,-611.47C1936.51,-700.38 1919.6,-994.8 1853,-1055 1763.16,-1136.2 1702.6,-1078 1581.5,-1078 1581.5,-1078 1581.5,-1078 784.5,-1078 609.6,-1078 458.78,-884.07 418.83,-828.01"/>
<polygon fill="midnightblue" stroke="midnightblue" points="1943.63,-611.35 1940.52,-601.23 1936.64,-611.08 1943.63,-611.35"/>
</g>
<!-- Node25 -->
<g id="node25" class="node">
<title>Node25</title>
<g id="a_node25"><a xlink:href="../../d4/dee/classSearchProvider.html#ae7195806b8b7c373d38bd779c5ba7f7d" target="_top" xlink:title=" ">
<polygon fill="white" stroke="black" points="893,-288.5 893,-307.5 1061,-307.5 1061,-288.5 893,-288.5"/>
<text text-anchor="middle" x="977" y="-295.5" font-family="Helvetica,sans-Serif" font-size="10.00">SearchProvider::LogLoadComplete</text>
</a>
</g>
</g>
<!-- Node1&#45;&gt;Node25 -->
<g id="edge33" class="edge">
<title>Node1&#45;&gt;Node25</title>
<path fill="none" stroke="midnightblue" d="M1941.01,-560.8C1939.55,-506.91 1927.86,-380.37 1853,-319 1759,-241.94 1703.05,-286 1581.5,-286 1581.5,-286 1581.5,-286 1384,-286 1272.23,-286 1143.23,-290.6 1061.18,-294.1"/>
<polygon fill="midnightblue" stroke="midnightblue" points="1937.51,-560.92 1941.19,-570.86 1944.51,-560.8 1937.51,-560.92"/>
</g>
<!-- Node27 -->
<g id="node27" class="node">
<title>Node27</title>
<g id="a_node27"><a xlink:href="../../d4/dee/classSearchProvider.html#a2413b664cb548628ea5eba7e9e8cdc7e" target="_top" xlink:title=" ">
<polygon fill="white" stroke="black" points="1707,-151 1707,-181 1843,-181 1843,-151 1707,-151"/>
<text text-anchor="start" x="1715" y="-169" font-family="Helvetica,sans-Serif" font-size="10.00">SearchProvider::Navigation</text>
<text text-anchor="middle" x="1775" y="-158" font-family="Helvetica,sans-Serif" font-size="10.00">ToMatch</text>
</a>
</g>
</g>
<!-- Node1&#45;&gt;Node27 -->
<g id="edge38" class="edge">
<title>Node1&#45;&gt;Node27</title>
<path fill="none" stroke="midnightblue" d="M1938.36,-560.42C1929.87,-482.78 1901.01,-251.79 1853,-196 1847.76,-189.91 1841.13,-185.05 1833.96,-181.17"/>
<polygon fill="midnightblue" stroke="midnightblue" points="1934.91,-561.15 1939.46,-570.72 1941.87,-560.4 1934.91,-561.15"/>
</g>
<!-- Node32 -->
<g id="node32" class="node">
<title>Node32</title>
<g id="a_node32"><a xlink:href="../../d4/dee/classSearchProvider.html#ac19ab2526055b301d5a3dde7889895eb" target="_top" xlink:title=" ">
<polygon fill="white" stroke="black" points="714.5,-100 714.5,-130 856.5,-130 856.5,-100 714.5,-100"/>
<text text-anchor="start" x="722.5" y="-118" font-family="Helvetica,sans-Serif" font-size="10.00">SearchProvider::OnTemplate</text>
<text text-anchor="middle" x="785.5" y="-107" font-family="Helvetica,sans-Serif" font-size="10.00">URLServiceChanged</text>
</a>
</g>
</g>
<!-- Node1&#45;&gt;Node32 -->
<g id="edge49" class="edge">
<title>Node1&#45;&gt;Node32</title>
<path fill="none" stroke="midnightblue" d="M1939.99,-560.85C1935.98,-475 1918.06,-195.8 1853,-141 1777.17,-77.13 1082.06,-101.92 856.68,-111.73"/>
<polygon fill="midnightblue" stroke="midnightblue" points="1936.5,-561.16 1940.44,-570.99 1943.5,-560.85 1936.5,-561.16"/>
</g>
<!-- Node33 -->
<g id="node33" class="node">
<title>Node33</title>
<g id="a_node33"><a xlink:href="../../d3/dbc/classZeroSuggestProvider.html#ae4952e7591d0a0a8638e59efc012057b" target="_top" xlink:title=" ">
<polygon fill="white" stroke="black" points="1721,-855 1721,-885 1829,-885 1829,-855 1721,-855"/>
<text text-anchor="start" x="1729" y="-873" font-family="Helvetica,sans-Serif" font-size="10.00">ZeroSuggestProvider</text>
<text text-anchor="middle" x="1775" y="-862" font-family="Helvetica,sans-Serif" font-size="10.00">::NavigationToMatch</text>
</a>
</g>
</g>
<!-- Node1&#45;&gt;Node33 -->
<g id="edge47" class="edge">
<title>Node1&#45;&gt;Node33</title>
<path fill="none" stroke="midnightblue" d="M1939.16,-611.09C1934.17,-661.17 1916.17,-774.38 1853,-840 1846.33,-846.92 1837.88,-852.28 1829.04,-856.41"/>
<polygon fill="midnightblue" stroke="midnightblue" points="1942.64,-611.4 1940.06,-601.12 1935.67,-610.77 1942.64,-611.4"/>
</g>
<!-- Node34 -->
<g id="node34" class="node">
<title>Node34</title>
<g id="a_node34"><a xlink:href="../../d4/dee/classSearchProvider.html#ab0cad08aeffe506594aa514c3b44051b" target="_top" xlink:title=" ">
<polygon fill="white" stroke="black" points="914,-239 914,-269 1040,-269 1040,-239 914,-239"/>
<text text-anchor="start" x="922" y="-257" font-family="Helvetica,sans-Serif" font-size="10.00">SearchProvider::Prefetch</text>
<text text-anchor="middle" x="977" y="-246" font-family="Helvetica,sans-Serif" font-size="10.00">Images</text>
</a>
</g>
</g>
<!-- Node1&#45;&gt;Node34 -->
<g id="edge50" class="edge">
<title>Node1&#45;&gt;Node34</title>
<path fill="none" stroke="midnightblue" d="M1937.69,-560.74C1928.2,-492.61 1898.66,-307.69 1853,-270 1759.63,-192.94 1702.56,-248 1581.5,-248 1581.5,-248 1581.5,-248 1384,-248 1262.22,-248 1119.92,-250.73 1040.25,-252.51"/>
<polygon fill="midnightblue" stroke="midnightblue" points="1934.26,-561.55 1939.08,-570.99 1941.2,-560.61 1934.26,-561.55"/>
</g>
<!-- Node35 -->
<g id="node35" class="node">
<title>Node35</title>
<g id="a_node35"><a xlink:href="../../d4/dee/classSearchProvider.html#a61661b1c8ea83d1911c9386b5e01d840" target="_top" xlink:title=" ">
<polygon fill="white" stroke="black" points="1702,-39 1702,-69 1848,-69 1848,-39 1702,-39"/>
<text text-anchor="start" x="1710" y="-57" font-family="Helvetica,sans-Serif" font-size="10.00">SearchProvider::ScoreHistory</text>
<text text-anchor="middle" x="1775" y="-46" font-family="Helvetica,sans-Serif" font-size="10.00">ResultsHelper</text>
</a>
</g>
</g>
<!-- Node1&#45;&gt;Node35 -->
<g id="edge53" class="edge">
<title>Node1&#45;&gt;Node35</title>
<path fill="none" stroke="midnightblue" d="M1939.78,-560.6C1934.89,-469.18 1914.03,-158.48 1853,-84 1848,-77.9 1841.59,-73.03 1834.62,-69.15"/>
<polygon fill="midnightblue" stroke="midnightblue" points="1936.28,-560.82 1940.29,-570.63 1943.27,-560.46 1936.28,-560.82"/>
</g>
<!-- Node37 -->
<g id="node37" class="node">
<title>Node37</title>
<g id="a_node37"><a xlink:href="../../d4/dee/classSearchProvider.html#a034f867ddea863901a26740450a89ad3" target="_top" xlink:title=" ">
<polygon fill="white" stroke="black" points="1697,-0.5 1697,-19.5 1853,-19.5 1853,-0.5 1697,-0.5"/>
<text text-anchor="middle" x="1775" y="-7.5" font-family="Helvetica,sans-Serif" font-size="10.00">SearchProvider::SearchProvider</text>
</a>
</g>
</g>
<!-- Node1&#45;&gt;Node37 -->
<g id="edge56" class="edge">
<title>Node1&#45;&gt;Node37</title>
<path fill="none" stroke="midnightblue" d="M1940.59,-560.79C1938.48,-462.73 1925.84,-108.33 1853,-29 1849.55,-25.25 1845.5,-22.18 1841.07,-19.69"/>
<polygon fill="midnightblue" stroke="midnightblue" points="1937.09,-561.02 1940.79,-570.95 1944.09,-560.88 1937.09,-561.02"/>
</g>
<!-- Node2&#45;&gt;Node3 -->
<g id="edge2" class="edge">
<title>Node2&#45;&gt;Node3</title>
<path fill="none" stroke="midnightblue" d="M1095.5,-771.36C1073.61,-773.71 1050.76,-776.17 1031.1,-778.29"/>
<polygon fill="midnightblue" stroke="midnightblue" points="1095.91,-774.84 1105.48,-770.29 1095.16,-767.88 1095.91,-774.84"/>
</g>
<!-- Node4&#45;&gt;Node5 -->
<g id="edge4" class="edge">
<title>Node4&#45;&gt;Node5</title>
<path fill="none" stroke="midnightblue" d="M1711.48,-669.56C1634.8,-671.34 1500.85,-674 1386,-674 1386,-674 1386,-674 976,-674 846.21,-674 699.26,-617.73 634.8,-590.04"/>
<polygon fill="midnightblue" stroke="midnightblue" points="1712,-673.05 1721.91,-669.32 1711.84,-666.05 1712,-673.05"/>
</g>
<!-- Node4&#45;&gt;Node9 -->
<g id="edge8" class="edge">
<title>Node4&#45;&gt;Node9</title>
<path fill="none" stroke="midnightblue" d="M1712.05,-684.09C1687.69,-690.42 1659.95,-697.62 1636.33,-703.76"/>
<polygon fill="midnightblue" stroke="midnightblue" points="1713.11,-687.43 1721.91,-681.53 1711.35,-680.66 1713.11,-687.43"/>
</g>
<!-- Node4&#45;&gt;Node10 -->
<g id="edge10" class="edge">
<title>Node4&#45;&gt;Node10</title>
<path fill="none" stroke="midnightblue" d="M1711.9,-655.74C1688.04,-651.03 1660.96,-645.69 1637.69,-641.09"/>
<polygon fill="midnightblue" stroke="midnightblue" points="1711.42,-659.21 1721.91,-657.72 1712.77,-652.35 1711.42,-659.21"/>
</g>
<!-- Node5&#45;&gt;Node6 -->
<g id="edge5" class="edge">
<title>Node5&#45;&gt;Node6</title>
<path fill="none" stroke="midnightblue" d="M568.81,-595.73C527.05,-623.93 454.01,-673.27 423.04,-694.18"/>
<polygon fill="midnightblue" stroke="midnightblue" points="570.89,-598.55 577.22,-590.05 566.97,-592.75 570.89,-598.55"/>
</g>
<!-- Node7 -->
<g id="node7" class="node">
<title>Node7</title>
<g id="a_node7"><a xlink:href="../../d4/dee/classSearchProvider.html#af0c60cb234c815b05521a08434e7dcdc" target="_top" xlink:title=" ">
<polygon fill="white" stroke="black" points="148.5,-689 148.5,-719 289.5,-719 289.5,-689 148.5,-689"/>
<text text-anchor="start" x="156.5" y="-707" font-family="Helvetica,sans-Serif" font-size="10.00">SearchProvider::StartOrStop</text>
<text text-anchor="middle" x="219" y="-696" font-family="Helvetica,sans-Serif" font-size="10.00">SuggestQuery</text>
</a>
</g>
</g>
<!-- Node6&#45;&gt;Node7 -->
<g id="edge6" class="edge">
<title>Node6&#45;&gt;Node7</title>
<path fill="none" stroke="midnightblue" d="M343.1,-704C325.95,-704 307.29,-704 289.81,-704"/>
<polygon fill="midnightblue" stroke="midnightblue" points="343.56,-707.5 353.56,-704 343.56,-700.5 343.56,-707.5"/>
</g>
<!-- Node7&#45;&gt;Node8 -->
<g id="edge7" class="edge">
<title>Node7&#45;&gt;Node8</title>
<path fill="none" stroke="midnightblue" d="M209.79,-679.11C180.04,-588.94 78.64,-281.61 59.23,-222.78"/>
<polygon fill="midnightblue" stroke="midnightblue" points="206.52,-680.37 212.97,-688.77 213.16,-678.17 206.52,-680.37"/>
</g>
<!-- Node9&#45;&gt;Node3 -->
<g id="edge9" class="edge">
<title>Node9&#45;&gt;Node3</title>
<path fill="none" stroke="midnightblue" d="M1514.74,-714.05C1421.36,-709.83 1243.96,-707.42 1097,-738 1065.99,-744.45 1032.49,-758.05 1008.96,-768.8"/>
<polygon fill="midnightblue" stroke="midnightblue" points="1514.73,-717.55 1524.88,-714.52 1515.06,-710.56 1514.73,-717.55"/>
</g>
<!-- Node10&#45;&gt;Node11 -->
<g id="edge11" class="edge">
<title>Node10&#45;&gt;Node11</title>
<path fill="none" stroke="midnightblue" d="M1513.1,-623.48C1488.92,-621.11 1461.92,-618.45 1439.05,-616.21"/>
<polygon fill="midnightblue" stroke="midnightblue" points="1512.98,-626.98 1523.27,-624.48 1513.66,-620.02 1512.98,-626.98"/>
</g>
<!-- Node12 -->
<g id="node12" class="node">
<title>Node12</title>
<g id="a_node12"><a xlink:href="../../df/d4d/classAutocompleteController.html#af85f887b2fe95261e148e7695272fc52" target="_top" xlink:title=" ">
<polygon fill="white" stroke="black" points="1121,-596 1121,-626 1246,-626 1246,-596 1121,-596"/>
<text text-anchor="start" x="1129" y="-614" font-family="Helvetica,sans-Serif" font-size="10.00">AutocompleteController</text>
<text text-anchor="middle" x="1183.5" y="-603" font-family="Helvetica,sans-Serif" font-size="10.00">::AutocompleteController</text>
</a>
</g>
</g>
<!-- Node11&#45;&gt;Node12 -->
<g id="edge12" class="edge">
<title>Node11&#45;&gt;Node12</title>
<path fill="none" stroke="midnightblue" d="M1320.78,-611C1296.89,-611 1269.76,-611 1246.03,-611"/>
<polygon fill="midnightblue" stroke="midnightblue" points="1320.8,-614.5 1330.8,-611 1320.8,-607.5 1320.8,-614.5"/>
</g>
<!-- Node13&#45;&gt;Node14 -->
<g id="edge14" class="edge">
<title>Node13&#45;&gt;Node14</title>
<path fill="none" stroke="midnightblue" d="M1490,-830.72C1476.25,-827.45 1462.3,-824.14 1449.28,-821.04"/>
<polygon fill="midnightblue" stroke="midnightblue" points="1489.42,-834.18 1499.96,-833.09 1491.04,-827.37 1489.42,-834.18"/>
</g>
<!-- Node13&#45;&gt;Node15 -->
<g id="edge16" class="edge">
<title>Node13&#45;&gt;Node15</title>
<path fill="none" stroke="midnightblue" d="M1489.78,-853.39C1472.41,-853.66 1454.73,-853.93 1439.01,-854.18"/>
<polygon fill="midnightblue" stroke="midnightblue" points="1490.01,-856.89 1499.96,-853.23 1489.91,-849.89 1490.01,-856.89"/>
</g>
<!-- Node14&#45;&gt;Node3 -->
<g id="edge15" class="edge">
<title>Node14&#45;&gt;Node3</title>
<path fill="none" stroke="midnightblue" d="M1295.57,-801.21C1214.89,-796.84 1098.31,-790.52 1031.14,-786.88"/>
<polygon fill="midnightblue" stroke="midnightblue" points="1295.54,-804.71 1305.72,-801.76 1295.92,-797.72 1295.54,-804.71"/>
</g>
<!-- Node16 -->
<g id="node16" class="node">
<title>Node16</title>
<g id="a_node16"><a xlink:href="../../d3/dbc/classZeroSuggestProvider.html#a4049ecf2307fddcdfae00f7632660d3a" target="_top" xlink:title=" ">
<polygon fill="white" stroke="black" points="1124,-838 1124,-868 1243,-868 1243,-838 1124,-838"/>
<text text-anchor="start" x="1132" y="-856" font-family="Helvetica,sans-Serif" font-size="10.00">ZeroSuggestProvider</text>
<text text-anchor="middle" x="1183.5" y="-845" font-family="Helvetica,sans-Serif" font-size="10.00">::OnURLLoadComplete</text>
</a>
</g>
</g>
<!-- Node15&#45;&gt;Node16 -->
<g id="edge17" class="edge">
<title>Node15&#45;&gt;Node16</title>
<path fill="none" stroke="midnightblue" d="M1320.75,-854.37C1295.9,-854.12 1267.55,-853.83 1243.17,-853.59"/>
<polygon fill="midnightblue" stroke="midnightblue" points="1320.77,-857.87 1330.8,-854.47 1320.84,-850.87 1320.77,-857.87"/>
</g>
<!-- Node16&#45;&gt;Node3 -->
<g id="edge18" class="edge">
<title>Node16&#45;&gt;Node3</title>
<path fill="none" stroke="midnightblue" d="M1128.37,-834.73C1095.34,-823.59 1053.64,-809.52 1022.53,-799.02"/>
<polygon fill="midnightblue" stroke="midnightblue" points="1127.28,-838.06 1137.87,-837.94 1129.52,-831.43 1127.28,-838.06"/>
</g>
<!-- Node17&#45;&gt;Node18 -->
<g id="edge22" class="edge">
<title>Node17&#45;&gt;Node18</title>
<path fill="none" stroke="midnightblue" d="M1714.31,-447.79C1708.44,-445.89 1702.6,-443.94 1697,-442 1670.84,-432.95 1641.72,-421.85 1619.26,-413.06"/>
<polygon fill="midnightblue" stroke="midnightblue" points="1713.56,-451.23 1724.15,-450.96 1715.7,-444.57 1713.56,-451.23"/>
</g>
<!-- Node19&#45;&gt;Node8 -->
<g id="edge25" class="edge">
<title>Node19&#45;&gt;Node8</title>
<path fill="none" stroke="midnightblue" d="M523.25,-213C411.9,-213 207.51,-213 110.23,-213"/>
<polygon fill="midnightblue" stroke="midnightblue" points="523.4,-216.5 533.4,-213 523.4,-209.5 523.4,-216.5"/>
</g>
<!-- Node20&#45;&gt;Node21 -->
<g id="edge27" class="edge">
<title>Node20&#45;&gt;Node21</title>
<path fill="none" stroke="midnightblue" d="M1711.03,-983.57C1687.53,-978.93 1661.03,-973.7 1638.14,-969.18"/>
<polygon fill="midnightblue" stroke="midnightblue" points="1710.4,-987.01 1720.89,-985.52 1711.76,-980.15 1710.4,-987.01"/>
</g>
<!-- Node21&#45;&gt;Node3 -->
<g id="edge28" class="edge">
<title>Node21&#45;&gt;Node3</title>
<path fill="none" stroke="midnightblue" d="M1512.5,-957.33C1416.47,-954.09 1235.98,-939.47 1097,-878 1053.9,-858.94 1012.89,-820.58 992.12,-799.22"/>
<polygon fill="midnightblue" stroke="midnightblue" points="1512.55,-960.83 1522.65,-957.64 1512.76,-953.83 1512.55,-960.83"/>
</g>
<!-- Node24&#45;&gt;Node7 -->
<g id="edge32" class="edge">
<title>Node24&#45;&gt;Node7</title>
<path fill="none" stroke="midnightblue" d="M371.73,-792.68C335.15,-771.3 278.45,-738.16 245.71,-719.03"/>
<polygon fill="midnightblue" stroke="midnightblue" points="370.17,-795.82 380.57,-797.84 373.7,-789.78 370.17,-795.82"/>
</g>
<!-- Node26 -->
<g id="node26" class="node">
<title>Node26</title>
<g id="a_node26"><a xlink:href="../../d4/dee/classSearchProvider.html#a62390d46fb831c0919093798ab7bd52d" target="_top" xlink:title=" ">
<polygon fill="white" stroke="black" points="714,-261 714,-291 857,-291 857,-261 714,-261"/>
<text text-anchor="start" x="722" y="-279" font-family="Helvetica,sans-Serif" font-size="10.00">SearchProvider::OnURLLoad</text>
<text text-anchor="middle" x="785.5" y="-268" font-family="Helvetica,sans-Serif" font-size="10.00">Complete</text>
</a>
</g>
</g>
<!-- Node25&#45;&gt;Node26 -->
<g id="edge34" class="edge">
<title>Node25&#45;&gt;Node26</title>
<path fill="none" stroke="midnightblue" d="M883.84,-287.3C874.83,-286.26 865.79,-285.21 857.05,-284.19"/>
<polygon fill="midnightblue" stroke="midnightblue" points="883.65,-290.8 893.98,-288.48 884.46,-283.85 883.65,-290.8"/>
</g>
<!-- Node26&#45;&gt;Node5 -->
<g id="edge35" class="edge">
<title>Node26&#45;&gt;Node5</title>
<path fill="none" stroke="midnightblue" d="M769.87,-299.91C733.64,-359.09 640.58,-511.15 610.81,-559.79"/>
<polygon fill="midnightblue" stroke="midnightblue" points="772.94,-301.59 775.17,-291.24 766.97,-297.94 772.94,-301.59"/>
</g>
<!-- Node28 -->
<g id="node28" class="node">
<title>Node28</title>
<g id="a_node28"><a xlink:href="../../d4/dee/classSearchProvider.html#a72255ff8ee607869c072a7680f14aff4" target="_top" xlink:title=" ">
<polygon fill="white" stroke="black" points="1504,-151 1504,-181 1657,-181 1657,-151 1504,-151"/>
<text text-anchor="start" x="1512" y="-169" font-family="Helvetica,sans-Serif" font-size="10.00">SearchProvider::AddNavigation</text>
<text text-anchor="middle" x="1580.5" y="-158" font-family="Helvetica,sans-Serif" font-size="10.00">ResultsToMatches</text>
</a>
</g>
</g>
<!-- Node27&#45;&gt;Node28 -->
<g id="edge39" class="edge">
<title>Node27&#45;&gt;Node28</title>
<path fill="none" stroke="midnightblue" d="M1696.64,-166C1683.64,-166 1670.16,-166 1657.21,-166"/>
<polygon fill="midnightblue" stroke="midnightblue" points="1696.94,-169.5 1706.94,-166 1696.94,-162.5 1696.94,-169.5"/>
</g>
<!-- Node29 -->
<g id="node29" class="node">
<title>Node29</title>
<g id="a_node29"><a xlink:href="../../d4/dee/classSearchProvider.html#a0399169b208c94d4599111517f9abf7f" target="_top" xlink:title=" ">
<polygon fill="white" stroke="black" points="1306,-151 1306,-181 1464,-181 1464,-151 1306,-151"/>
<text text-anchor="start" x="1314" y="-169" font-family="Helvetica,sans-Serif" font-size="10.00">SearchProvider::ConvertResults</text>
<text text-anchor="middle" x="1385" y="-158" font-family="Helvetica,sans-Serif" font-size="10.00">ToAutocompleteMatches</text>
</a>
</g>
</g>
<!-- Node28&#45;&gt;Node29 -->
<g id="edge40" class="edge">
<title>Node28&#45;&gt;Node29</title>
<path fill="none" stroke="midnightblue" d="M1493.68,-166C1483.85,-166 1473.87,-166 1464.14,-166"/>
<polygon fill="midnightblue" stroke="midnightblue" points="1493.86,-169.5 1503.86,-166 1493.86,-162.5 1493.86,-169.5"/>
</g>
<!-- Node30 -->
<g id="node30" class="node">
<title>Node30</title>
<g id="a_node30"><a xlink:href="../../d4/dee/classSearchProvider.html#a9616ba802ad8e814267f9e3eb5096006" target="_top" xlink:title=" ">
<polygon fill="white" stroke="black" points="1097,-162.5 1097,-181.5 1270,-181.5 1270,-162.5 1097,-162.5"/>
<text text-anchor="middle" x="1183.5" y="-169.5" font-family="Helvetica,sans-Serif" font-size="10.00">SearchProvider::EnforceConstraints</text>
</a>
</g>
</g>
<!-- Node29&#45;&gt;Node30 -->
<g id="edge41" class="edge">
<title>Node29&#45;&gt;Node30</title>
<path fill="none" stroke="midnightblue" d="M1295.51,-168.66C1287.08,-168.92 1278.53,-169.17 1270.13,-169.42"/>
<polygon fill="midnightblue" stroke="midnightblue" points="1295.83,-172.15 1305.72,-168.35 1295.62,-165.16 1295.83,-172.15"/>
</g>
<!-- Node31 -->
<g id="node31" class="node">
<title>Node31</title>
<g id="a_node31"><a xlink:href="../../d4/dee/classSearchProvider.html#a2069cdad12e1ef540aead34c19af5128" target="_top" xlink:title=" ">
<polygon fill="white" stroke="black" points="898,-159.5 898,-178.5 1056,-178.5 1056,-159.5 898,-159.5"/>
<text text-anchor="middle" x="977" y="-166.5" font-family="Helvetica,sans-Serif" font-size="10.00">SearchProvider::UpdateMatches</text>
</a>
</g>
</g>
<!-- Node29&#45;&gt;Node31 -->
<g id="edge46" class="edge">
<title>Node29&#45;&gt;Node31</title>
<path fill="none" stroke="midnightblue" d="M1295.74,-154.93C1287.05,-154.15 1278.36,-153.48 1270,-153 1193.23,-148.64 1173.72,-147.87 1097,-153 1077.45,-154.31 1056.21,-156.81 1037.16,-159.46"/>
<polygon fill="midnightblue" stroke="midnightblue" points="1295.62,-158.44 1305.91,-155.91 1296.29,-151.47 1295.62,-158.44"/>
</g>
<!-- Node30&#45;&gt;Node31 -->
<g id="edge42" class="edge">
<title>Node30&#45;&gt;Node31</title>
<path fill="none" stroke="midnightblue" d="M1086.72,-170.59C1076.44,-170.44 1066.06,-170.29 1056.02,-170.14"/>
<polygon fill="midnightblue" stroke="midnightblue" points="1086.91,-174.1 1096.96,-170.75 1087.01,-167.1 1086.91,-174.1"/>
</g>
<!-- Node31&#45;&gt;Node8 -->
<g id="edge45" class="edge">
<title>Node31&#45;&gt;Node8</title>
<path fill="none" stroke="midnightblue" d="M887.36,-169C811.47,-169 699.3,-169 601.5,-169 601.5,-169 601.5,-169 406.5,-169 296.72,-169 169.1,-190.51 102.26,-203.45"/>
<polygon fill="midnightblue" stroke="midnightblue" points="887.82,-172.5 897.82,-169 887.82,-165.5 887.82,-172.5"/>
</g>
<!-- Node31&#45;&gt;Node26 -->
<g id="edge44" class="edge">
<title>Node31&#45;&gt;Node26</title>
<path fill="none" stroke="midnightblue" d="M949.95,-183.71C914.06,-203.98 849.72,-240.3 813.39,-260.82"/>
<polygon fill="midnightblue" stroke="midnightblue" points="951.86,-186.65 958.85,-178.68 948.42,-180.55 951.86,-186.65"/>
</g>
<!-- Node31&#45;&gt;Node32 -->
<g id="edge43" class="edge">
<title>Node31&#45;&gt;Node32</title>
<path fill="none" stroke="midnightblue" d="M932.74,-156.67C904.97,-148.76 868.73,-138.43 839.28,-130.04"/>
<polygon fill="midnightblue" stroke="midnightblue" points="931.98,-160.1 942.56,-159.47 933.9,-153.36 931.98,-160.1"/>
</g>
<!-- Node33&#45;&gt;Node13 -->
<g id="edge48" class="edge">
<title>Node33&#45;&gt;Node13</title>
<path fill="none" stroke="midnightblue" d="M1710.69,-864.08C1694.85,-862.6 1677.65,-860.99 1661.12,-859.45"/>
<polygon fill="midnightblue" stroke="midnightblue" points="1710.61,-867.59 1720.89,-865.03 1711.26,-860.62 1710.61,-867.59"/>
</g>
<!-- Node34&#45;&gt;Node26 -->
<g id="edge51" class="edge">
<title>Node34&#45;&gt;Node26</title>
<path fill="none" stroke="midnightblue" d="M904.02,-262.36C888.69,-264.14 872.51,-266.01 857.23,-267.79"/>
<polygon fill="midnightblue" stroke="midnightblue" points="904.42,-265.83 913.95,-261.2 903.61,-258.88 904.42,-265.83"/>
</g>
<!-- Node36 -->
<g id="node36" class="node">
<title>Node36</title>
<g id="a_node36"><a xlink:href="../../d4/dee/classSearchProvider.html#a1af46674063789654b813cfec97eb8d6" target="_top" xlink:title=" ">
<polygon fill="white" stroke="black" points="146,-78 146,-108 292,-108 292,-78 146,-78"/>
<text text-anchor="start" x="154" y="-96" font-family="Helvetica,sans-Serif" font-size="10.00">SearchProvider::ScoreHistory</text>
<text text-anchor="middle" x="219" y="-85" font-family="Helvetica,sans-Serif" font-size="10.00">Results</text>
</a>
</g>
</g>
<!-- Node35&#45;&gt;Node36 -->
<g id="edge54" class="edge">
<title>Node35&#45;&gt;Node36</title>
<path fill="none" stroke="midnightblue" d="M1691.46,-54.34C1612.91,-54.63 1491.4,-55 1386,-55 1386,-55 1386,-55 599.5,-55 492.07,-55 368.37,-70.26 292.18,-81.44"/>
<polygon fill="midnightblue" stroke="midnightblue" points="1691.79,-57.83 1701.78,-54.3 1691.76,-50.83 1691.79,-57.83"/>
</g>
<!-- Node36&#45;&gt;Node8 -->
<g id="edge55" class="edge">
<title>Node36&#45;&gt;Node8</title>
<path fill="none" stroke="midnightblue" d="M189.42,-114.17C153.91,-140.47 94.82,-184.24 68.88,-203.46"/>
<polygon fill="midnightblue" stroke="midnightblue" points="191.53,-116.96 197.48,-108.2 187.36,-111.34 191.53,-116.96"/>
</g>
</g>
</svg>
