<?xml version="1.0" encoding="UTF-8" standalone="no"?>
<!DOCTYPE svg PUBLIC "-//W3C//DTD SVG 1.1//EN"
 "http://www.w3.org/Graphics/SVG/1.1/DTD/svg11.dtd">
<!-- Generated by graphviz version 2.43.0 (0)
 -->
<!-- Title: BaseSearchProvider::ParseSuggestResults Pages: 1 -->
<svg width="864pt" height="170pt"
 viewBox="0.00 0.00 864.00 170.00" xmlns="http://www.w3.org/2000/svg" xmlns:xlink="http://www.w3.org/1999/xlink">
<g id="graph0" class="graph" transform="scale(1 1) rotate(0) translate(4 166)">
<title>BaseSearchProvider::ParseSuggestResults</title>
<polygon fill="white" stroke="transparent" points="-4,4 -4,-166 860,-166 860,4 -4,4"/>
<!-- Node1 -->
<g id="node1" class="node">
<title>Node1</title>
<g id="a_node1"><a xlink:title=" ">
<polygon fill="#bfbfbf" stroke="black" points="0,-82.5 0,-112.5 118,-112.5 118,-82.5 0,-82.5"/>
<text text-anchor="start" x="8" y="-100.5" font-family="Helvetica,sans-Serif" font-size="10.00">BaseSearchProvider</text>
<text text-anchor="middle" x="59" y="-89.5" font-family="Helvetica,sans-Serif" font-size="10.00">::ParseSuggestResults</text>
</a>
</g>
</g>
<!-- Node2 -->
<g id="node2" class="node">
<title>Node2</title>
<g id="a_node2"><a xlink:href="../../d0/ddc/classBaseSearchProvider.html#aea9e780b36b7244a785c9e2e7d9a8b1f" target="_top" xlink:title=" ">
<polygon fill="white" stroke="black" points="170,-131.5 170,-161.5 276,-161.5 276,-131.5 170,-131.5"/>
<text text-anchor="start" x="178" y="-149.5" font-family="Helvetica,sans-Serif" font-size="10.00">BaseSearchProvider</text>
<text text-anchor="middle" x="223" y="-138.5" font-family="Helvetica,sans-Serif" font-size="10.00">::GetInput</text>
</a>
</g>
</g>
<!-- Node1&#45;&gt;Node2 -->
<g id="edge1" class="edge">
<title>Node1&#45;&gt;Node2</title>
<path fill="none" stroke="midnightblue" d="M109.93,-112.6C126.48,-117.61 145.07,-123.23 162.29,-128.44"/>
<polygon fill="midnightblue" stroke="midnightblue" points="161.65,-131.9 172.24,-131.45 163.68,-125.2 161.65,-131.9"/>
</g>
<!-- Node3 -->
<g id="node3" class="node">
<title>Node3</title>
<g id="a_node3"><a xlink:href="../../d5/dc7/classAutocompleteProviderClient.html#aeb7ca420d3164ab0a85826fe7eb8007a" target="_top" xlink:title=" ">
<polygon fill="white" stroke="black" points="154,-82.5 154,-112.5 292,-112.5 292,-82.5 154,-82.5"/>
<text text-anchor="start" x="162" y="-100.5" font-family="Helvetica,sans-Serif" font-size="10.00">AutocompleteProviderClient</text>
<text text-anchor="middle" x="223" y="-89.5" font-family="Helvetica,sans-Serif" font-size="10.00">::GetSchemeClassifier</text>
</a>
</g>
</g>
<!-- Node1&#45;&gt;Node3 -->
<g id="edge2" class="edge">
<title>Node1&#45;&gt;Node3</title>
<path fill="none" stroke="midnightblue" d="M118.03,-97.5C126.38,-97.5 135.09,-97.5 143.75,-97.5"/>
<polygon fill="midnightblue" stroke="midnightblue" points="143.88,-101 153.88,-97.5 143.88,-94 143.88,-101"/>
</g>
<!-- Node4 -->
<g id="node4" class="node">
<title>Node4</title>
<g id="a_node4"><a xlink:href="../../dc/d3c/classSearchSuggestionParser.html#aa49132ed8edc8c7b9c58a77e5e758255" target="_top" xlink:title=" ">
<polygon fill="white" stroke="black" points="160.5,-33.5 160.5,-63.5 285.5,-63.5 285.5,-33.5 160.5,-33.5"/>
<text text-anchor="start" x="168.5" y="-51.5" font-family="Helvetica,sans-Serif" font-size="10.00">SearchSuggestionParser</text>
<text text-anchor="middle" x="223" y="-40.5" font-family="Helvetica,sans-Serif" font-size="10.00">::ParseSuggestResults</text>
</a>
</g>
</g>
<!-- Node1&#45;&gt;Node4 -->
<g id="edge3" class="edge">
<title>Node1&#45;&gt;Node4</title>
<path fill="none" stroke="midnightblue" d="M109.93,-82.4C126.48,-77.39 145.07,-71.77 162.29,-66.56"/>
<polygon fill="midnightblue" stroke="midnightblue" points="163.68,-69.8 172.24,-63.55 161.65,-63.1 163.68,-69.8"/>
</g>
<!-- Node5 -->
<g id="node5" class="node">
<title>Node5</title>
<g id="a_node5"><a xlink:href="../../d2/dcd/classSuggestionAnswer.html#a8b8871371d2f167f4a91d2d195648a7b" target="_top" xlink:title=" ">
<polygon fill="white" stroke="black" points="328,-77 328,-96 491,-96 491,-77 328,-77"/>
<text text-anchor="middle" x="409.5" y="-84" font-family="Helvetica,sans-Serif" font-size="10.00">SuggestionAnswer::ParseAnswer</text>
</a>
</g>
</g>
<!-- Node4&#45;&gt;Node5 -->
<g id="edge4" class="edge">
<title>Node4&#45;&gt;Node5</title>
<path fill="none" stroke="midnightblue" d="M285.69,-61.21C307.21,-65.64 331.22,-70.58 352.27,-74.92"/>
<polygon fill="midnightblue" stroke="midnightblue" points="351.84,-78.4 362.34,-76.99 353.25,-71.55 351.84,-78.4"/>
</g>
<!-- Node11 -->
<g id="node11" class="node">
<title>Node11</title>
<g id="a_node11"><a xlink:href="../../d9/df6/classAutocompleteInput.html#ac055dacf90a052c92e2bfe5c01328a95" target="_top" xlink:title=" ">
<polygon fill="white" stroke="black" points="349,-39 349,-58 470,-58 470,-39 349,-39"/>
<text text-anchor="middle" x="409.5" y="-46" font-family="Helvetica,sans-Serif" font-size="10.00">AutocompleteInput::text</text>
</a>
</g>
</g>
<!-- Node4&#45;&gt;Node11 -->
<g id="edge10" class="edge">
<title>Node4&#45;&gt;Node11</title>
<path fill="none" stroke="midnightblue" d="M285.69,-48.5C302.68,-48.5 321.23,-48.5 338.64,-48.5"/>
<polygon fill="midnightblue" stroke="midnightblue" points="338.74,-52 348.74,-48.5 338.74,-45 338.74,-52"/>
</g>
<!-- Node12 -->
<g id="node12" class="node">
<title>Node12</title>
<g id="a_node12"><a xlink:href="../../d2/dcd/classSuggestionAnswer.html#a07db83ff9155a726b0173233176122bf" target="_top" xlink:title=" ">
<polygon fill="white" stroke="black" points="348,-1 348,-20 471,-20 471,-1 348,-1"/>
<text text-anchor="middle" x="409.5" y="-8" font-family="Helvetica,sans-Serif" font-size="10.00">SuggestionAnswer::type</text>
</a>
</g>
</g>
<!-- Node4&#45;&gt;Node12 -->
<g id="edge11" class="edge">
<title>Node4&#45;&gt;Node12</title>
<path fill="none" stroke="midnightblue" d="M285.69,-35.79C307.21,-31.36 331.22,-26.42 352.27,-22.08"/>
<polygon fill="midnightblue" stroke="midnightblue" points="353.25,-25.45 362.34,-20.01 351.84,-18.6 353.25,-25.45"/>
</g>
<!-- Node6 -->
<g id="node6" class="node">
<title>Node6</title>
<g id="a_node6"><a xlink:href="../../d2/dcd/classSuggestionAnswer.html#a917429bc5c69e6b67315cc8f9b8cdf3b" target="_top" xlink:title=" ">
<polygon fill="white" stroke="black" points="528.5,-99 528.5,-118 674.5,-118 674.5,-99 528.5,-99"/>
<text text-anchor="middle" x="601.5" y="-106" font-family="Helvetica,sans-Serif" font-size="10.00">SuggestionAnswer::image_url</text>
</a>
</g>
</g>
<!-- Node5&#45;&gt;Node6 -->
<g id="edge5" class="edge">
<title>Node5&#45;&gt;Node6</title>
<path fill="none" stroke="midnightblue" d="M491.08,-95.83C500.04,-96.87 509.18,-97.93 518.17,-98.97"/>
<polygon fill="midnightblue" stroke="midnightblue" points="517.9,-102.46 528.23,-100.13 518.7,-95.51 517.9,-102.46"/>
</g>
<!-- Node7 -->
<g id="node7" class="node">
<title>Node7</title>
<g id="a_node7"><a xlink:href="../../de/d56/classSuggestionAnswer_1_1ImageLine.html#a97df73419930471d7ce8a68e44638234" target="_top" xlink:title=" ">
<polygon fill="white" stroke="black" points="527,-49.5 527,-79.5 676,-79.5 676,-49.5 527,-49.5"/>
<text text-anchor="start" x="535" y="-67.5" font-family="Helvetica,sans-Serif" font-size="10.00">SuggestionAnswer::ImageLine</text>
<text text-anchor="middle" x="601.5" y="-56.5" font-family="Helvetica,sans-Serif" font-size="10.00">::ParseImageLine</text>
</a>
</g>
</g>
<!-- Node5&#45;&gt;Node7 -->
<g id="edge6" class="edge">
<title>Node5&#45;&gt;Node7</title>
<path fill="none" stroke="midnightblue" d="M491.08,-77.17C499.58,-76.19 508.25,-75.18 516.79,-74.19"/>
<polygon fill="midnightblue" stroke="midnightblue" points="517.21,-77.67 526.74,-73.04 516.4,-70.71 517.21,-77.67"/>
</g>
<!-- Node8 -->
<g id="node8" class="node">
<title>Node8</title>
<g id="a_node8"><a xlink:href="../../d1/d9d/classSuggestionAnswer_1_1TextField.html#a325fc47fa31501b6f4752285041f513f" target="_top" xlink:title=" ">
<polygon fill="white" stroke="black" points="712,-98.5 712,-128.5 856,-128.5 856,-98.5 712,-98.5"/>
<text text-anchor="start" x="720" y="-116.5" font-family="Helvetica,sans-Serif" font-size="10.00">SuggestionAnswer::TextField</text>
<text text-anchor="middle" x="784" y="-105.5" font-family="Helvetica,sans-Serif" font-size="10.00">::has_num_lines</text>
</a>
</g>
</g>
<!-- Node7&#45;&gt;Node8 -->
<g id="edge7" class="edge">
<title>Node7&#45;&gt;Node8</title>
<path fill="none" stroke="midnightblue" d="M658.13,-79.6C677,-84.73 698.26,-90.5 717.81,-95.8"/>
<polygon fill="midnightblue" stroke="midnightblue" points="716.99,-99.21 727.55,-98.45 718.82,-92.45 716.99,-99.21"/>
</g>
<!-- Node9 -->
<g id="node9" class="node">
<title>Node9</title>
<g id="a_node9"><a xlink:href="../../d1/d9d/classSuggestionAnswer_1_1TextField.html#a04f007f7d2ca55b540bfb1c3c5251b00" target="_top" xlink:title=" ">
<polygon fill="white" stroke="black" points="712,-49.5 712,-79.5 856,-79.5 856,-49.5 712,-49.5"/>
<text text-anchor="start" x="720" y="-67.5" font-family="Helvetica,sans-Serif" font-size="10.00">SuggestionAnswer::TextField</text>
<text text-anchor="middle" x="784" y="-56.5" font-family="Helvetica,sans-Serif" font-size="10.00">::num_lines</text>
</a>
</g>
</g>
<!-- Node7&#45;&gt;Node9 -->
<g id="edge8" class="edge">
<title>Node7&#45;&gt;Node9</title>
<path fill="none" stroke="midnightblue" d="M676.18,-64.5C684.56,-64.5 693.15,-64.5 701.62,-64.5"/>
<polygon fill="midnightblue" stroke="midnightblue" points="701.89,-68 711.89,-64.5 701.89,-61 701.89,-68"/>
</g>
<!-- Node10 -->
<g id="node10" class="node">
<title>Node10</title>
<g id="a_node10"><a xlink:href="../../d1/d9d/classSuggestionAnswer_1_1TextField.html#a079cf6b679abcae2606e45a08b10443d" target="_top" xlink:title=" ">
<polygon fill="white" stroke="black" points="712,-0.5 712,-30.5 856,-30.5 856,-0.5 712,-0.5"/>
<text text-anchor="start" x="720" y="-18.5" font-family="Helvetica,sans-Serif" font-size="10.00">SuggestionAnswer::TextField</text>
<text text-anchor="middle" x="784" y="-7.5" font-family="Helvetica,sans-Serif" font-size="10.00">::ParseTextField</text>
</a>
</g>
</g>
<!-- Node7&#45;&gt;Node10 -->
<g id="edge9" class="edge">
<title>Node7&#45;&gt;Node10</title>
<path fill="none" stroke="midnightblue" d="M658.13,-49.4C677,-44.27 698.26,-38.5 717.81,-33.2"/>
<polygon fill="midnightblue" stroke="midnightblue" points="718.82,-36.55 727.55,-30.55 716.99,-29.79 718.82,-36.55"/>
</g>
</g>
</svg>
