<?xml version="1.0" encoding="UTF-8" standalone="no"?>
<!DOCTYPE svg PUBLIC "-//W3C//DTD SVG 1.1//EN"
 "http://www.w3.org/Graphics/SVG/1.1/DTD/svg11.dtd">
<!-- Generated by graphviz version 2.43.0 (0)
 -->
<!-- Title: OmniboxMatchCellView::Layout Pages: 1 -->
<svg width="484pt" height="214pt"
 viewBox="0.00 0.00 484.00 214.00" xmlns="http://www.w3.org/2000/svg" xmlns:xlink="http://www.w3.org/1999/xlink">
<g id="graph0" class="graph" transform="scale(1 1) rotate(0) translate(4 210)">
<title>OmniboxMatchCellView::Layout</title>
<polygon fill="white" stroke="transparent" points="-4,4 -4,-210 480,-210 480,4 -4,4"/>
<!-- Node1 -->
<g id="node1" class="node">
<title>Node1</title>
<g id="a_node1"><a xlink:title=" ">
<polygon fill="#bfbfbf" stroke="black" points="0,-82.5 0,-112.5 122,-112.5 122,-82.5 0,-82.5"/>
<text text-anchor="start" x="8" y="-100.5" font-family="Helvetica,sans-Serif" font-size="10.00">OmniboxMatchCellView</text>
<text text-anchor="middle" x="61" y="-89.5" font-family="Helvetica,sans-Serif" font-size="10.00">::Layout</text>
</a>
</g>
</g>
<!-- Node2 -->
<g id="node2" class="node">
<title>Node2</title>
<g id="a_node2"><a xlink:href="../../d2/d0b/classOmniboxMatchCellView.html#a80852658944fd965a4ac0859cb7823c9" target="_top" xlink:title=" ">
<polygon fill="white" stroke="black" points="161.5,-175.5 161.5,-205.5 300.5,-205.5 300.5,-175.5 161.5,-175.5"/>
<text text-anchor="start" x="169.5" y="-193.5" font-family="Helvetica,sans-Serif" font-size="10.00">OmniboxMatchCellView</text>
<text text-anchor="middle" x="231" y="-182.5" font-family="Helvetica,sans-Serif" font-size="10.00">::ComputeMatchMaxWidths</text>
</a>
</g>
</g>
<!-- Node1&#45;&gt;Node2 -->
<g id="edge1" class="edge">
<title>Node1&#45;&gt;Node2</title>
<path fill="none" stroke="midnightblue" d="M79.69,-112.74C98.19,-128.05 128.57,-151.46 158,-166.5 161.53,-168.3 165.22,-170.01 168.99,-171.63"/>
<polygon fill="midnightblue" stroke="midnightblue" points="167.89,-174.96 178.48,-175.45 170.51,-168.47 167.89,-174.96"/>
</g>
<!-- Node3 -->
<g id="node3" class="node">
<title>Node3</title>
<g id="a_node3"><a xlink:href="../../df/d61/classOmniboxTextView.html#a589691359edbed311fad61191b03d958" target="_top" xlink:title=" ">
<polygon fill="white" stroke="black" points="158,-126.5 158,-156.5 304,-156.5 304,-126.5 158,-126.5"/>
<text text-anchor="start" x="166" y="-144.5" font-family="Helvetica,sans-Serif" font-size="10.00">OmniboxTextView::GetHeight</text>
<text text-anchor="middle" x="231" y="-133.5" font-family="Helvetica,sans-Serif" font-size="10.00">ForWidth</text>
</a>
</g>
</g>
<!-- Node1&#45;&gt;Node3 -->
<g id="edge2" class="edge">
<title>Node1&#45;&gt;Node3</title>
<path fill="none" stroke="midnightblue" d="M119.35,-112.52C133.33,-116.18 148.4,-120.13 162.8,-123.9"/>
<polygon fill="midnightblue" stroke="midnightblue" points="162.07,-127.33 172.63,-126.47 163.84,-120.55 162.07,-127.33"/>
</g>
<!-- Node4 -->
<g id="node4" class="node">
<title>Node4</title>
<g id="a_node4"><a xlink:href="../../df/d61/classOmniboxTextView.html#a1d3cf2f99cb54ac15b06d31657d732ff" target="_top" xlink:title=" ">
<polygon fill="white" stroke="black" points="340,-104.5 340,-134.5 476,-134.5 476,-104.5 340,-104.5"/>
<text text-anchor="start" x="348" y="-122.5" font-family="Helvetica,sans-Serif" font-size="10.00">OmniboxTextView::GetLine</text>
<text text-anchor="middle" x="408" y="-111.5" font-family="Helvetica,sans-Serif" font-size="10.00">Height</text>
</a>
</g>
</g>
<!-- Node1&#45;&gt;Node4 -->
<g id="edge4" class="edge">
<title>Node1&#45;&gt;Node4</title>
<path fill="none" stroke="midnightblue" d="M122.09,-101.33C179.7,-105.01 266.93,-110.57 329.69,-114.57"/>
<polygon fill="midnightblue" stroke="midnightblue" points="329.73,-118.08 339.93,-115.22 330.17,-111.09 329.73,-118.08"/>
</g>
<!-- Node5 -->
<g id="node5" class="node">
<title>Node5</title>
<g id="a_node5"><a xlink:href="../../df/d61/classOmniboxTextView.html#a4298c267872d7618353c03a0f31560e2" target="_top" xlink:title=" ">
<polygon fill="white" stroke="black" points="162.5,-50 162.5,-69 299.5,-69 299.5,-50 162.5,-50"/>
<text text-anchor="middle" x="231" y="-57" font-family="Helvetica,sans-Serif" font-size="10.00">OmniboxTextView::GetText</text>
</a>
</g>
</g>
<!-- Node1&#45;&gt;Node5 -->
<g id="edge5" class="edge">
<title>Node1&#45;&gt;Node5</title>
<path fill="none" stroke="midnightblue" d="M122.18,-83.89C140.36,-79.78 160.16,-75.3 177.78,-71.31"/>
<polygon fill="midnightblue" stroke="midnightblue" points="178.89,-74.65 187.87,-69.03 177.34,-67.82 178.89,-74.65"/>
</g>
<!-- Node6 -->
<g id="node6" class="node">
<title>Node6</title>
<g id="a_node6"><a xlink:href="../../d2/d0b/classOmniboxMatchCellView.html#af211cd1487c9100f5bc1832375c8d976" target="_top" xlink:title=" ">
<polygon fill="white" stroke="black" points="170,-0.5 170,-30.5 292,-30.5 292,-0.5 170,-0.5"/>
<text text-anchor="start" x="178" y="-18.5" font-family="Helvetica,sans-Serif" font-size="10.00">OmniboxMatchCellView</text>
<text text-anchor="middle" x="231" y="-7.5" font-family="Helvetica,sans-Serif" font-size="10.00">::GetTextIndent</text>
</a>
</g>
</g>
<!-- Node1&#45;&gt;Node6 -->
<g id="edge6" class="edge">
<title>Node1&#45;&gt;Node6</title>
<path fill="none" stroke="midnightblue" d="M84.57,-82.33C103.58,-69.98 131.81,-52.67 158,-40.5 162.68,-38.33 167.6,-36.23 172.59,-34.25"/>
<polygon fill="midnightblue" stroke="midnightblue" points="174.12,-37.41 182.21,-30.57 171.62,-30.87 174.12,-37.41"/>
</g>
<!-- Node3&#45;&gt;Node4 -->
<g id="edge3" class="edge">
<title>Node3&#45;&gt;Node4</title>
<path fill="none" stroke="midnightblue" d="M304.19,-132.42C312.65,-131.36 321.3,-130.27 329.83,-129.2"/>
<polygon fill="midnightblue" stroke="midnightblue" points="330.27,-132.67 339.75,-127.95 329.39,-125.73 330.27,-132.67"/>
</g>
</g>
</svg>
