<?xml version="1.0" encoding="UTF-8" standalone="no"?>
<!DOCTYPE svg PUBLIC "-//W3C//DTD SVG 1.1//EN"
 "http://www.w3.org/Graphics/SVG/1.1/DTD/svg11.dtd">
<!-- Generated by graphviz version 2.43.0 (0)
 -->
<!-- Title: OmniboxMatchCellView::OmniboxMatchCellView Pages: 1 -->
<svg width="710pt" height="127pt"
 viewBox="0.00 0.00 710.00 127.00" xmlns="http://www.w3.org/2000/svg" xmlns:xlink="http://www.w3.org/1999/xlink">
<g id="graph0" class="graph" transform="scale(1 1) rotate(0) translate(4 123)">
<title>OmniboxMatchCellView::OmniboxMatchCellView</title>
<polygon fill="white" stroke="transparent" points="-4,4 -4,-123 706,-123 706,4 -4,4"/>
<!-- Node1 -->
<g id="node1" class="node">
<title>Node1</title>
<g id="a_node1"><a xlink:title=" ">
<polygon fill="#bfbfbf" stroke="black" points="0,-66.5 0,-96.5 128,-96.5 128,-66.5 0,-66.5"/>
<text text-anchor="start" x="8" y="-84.5" font-family="Helvetica,sans-Serif" font-size="10.00">OmniboxMatchCellView</text>
<text text-anchor="middle" x="64" y="-73.5" font-family="Helvetica,sans-Serif" font-size="10.00">::OmniboxMatchCellView</text>
</a>
</g>
</g>
<!-- Node2 -->
<g id="node2" class="node">
<title>Node2</title>
<g id="a_node2"><a xlink:href="../../df/d61/classOmniboxTextView.html#a2789bb43998a2725273ed31911836be6" target="_top" xlink:title=" ">
<polygon fill="white" stroke="black" points="164,-88.5 164,-118.5 305,-118.5 305,-88.5 164,-88.5"/>
<text text-anchor="start" x="172" y="-106.5" font-family="Helvetica,sans-Serif" font-size="10.00">OmniboxTextView::Omnibox</text>
<text text-anchor="middle" x="234.5" y="-95.5" font-family="Helvetica,sans-Serif" font-size="10.00">TextView</text>
</a>
</g>
</g>
<!-- Node1&#45;&gt;Node2 -->
<g id="edge1" class="edge">
<title>Node1&#45;&gt;Node2</title>
<path fill="none" stroke="midnightblue" d="M128.22,-89.75C136.61,-90.85 145.3,-91.98 153.92,-93.11"/>
<polygon fill="midnightblue" stroke="midnightblue" points="153.62,-96.6 163.99,-94.42 154.53,-89.66 153.62,-96.6"/>
</g>
<!-- Node3 -->
<g id="node3" class="node">
<title>Node3</title>
<g id="a_node3"><a xlink:href="../../df/d61/classOmniboxTextView.html#a93d96652dc27ccb626cc00109c76db6e" target="_top" xlink:title=" ">
<polygon fill="white" stroke="black" points="166.5,-50 166.5,-69 302.5,-69 302.5,-50 166.5,-50"/>
<text text-anchor="middle" x="234.5" y="-57" font-family="Helvetica,sans-Serif" font-size="10.00">OmniboxTextView::SetText</text>
</a>
</g>
</g>
<!-- Node1&#45;&gt;Node3 -->
<g id="edge2" class="edge">
<title>Node1&#45;&gt;Node3</title>
<path fill="none" stroke="midnightblue" d="M128.22,-73.25C137.34,-72.05 146.82,-70.82 156.17,-69.6"/>
<polygon fill="midnightblue" stroke="midnightblue" points="156.8,-73.04 166.26,-68.28 155.89,-66.1 156.8,-73.04"/>
</g>
<!-- Node4 -->
<g id="node4" class="node">
<title>Node4</title>
<g id="a_node4"><a xlink:href="../../df/d61/classOmniboxTextView.html#a469f95836f0eaaa5aabdf2cca2cc528d" target="_top" xlink:title=" ">
<polygon fill="white" stroke="black" points="341,-88 341,-107 523,-107 523,-88 341,-88"/>
<text text-anchor="middle" x="432" y="-95" font-family="Helvetica,sans-Serif" font-size="10.00">OmniboxTextView::CreateRenderText</text>
</a>
</g>
</g>
<!-- Node3&#45;&gt;Node4 -->
<g id="edge3" class="edge">
<title>Node3&#45;&gt;Node4</title>
<path fill="none" stroke="midnightblue" d="M284.58,-69.04C311.07,-74.19 343.97,-80.58 371.87,-86.01"/>
<polygon fill="midnightblue" stroke="midnightblue" points="371.42,-89.48 381.9,-87.96 372.75,-82.61 371.42,-89.48"/>
</g>
<!-- Node5 -->
<g id="node5" class="node">
<title>Node5</title>
<g id="a_node5"><a xlink:href="../../df/d61/classOmniboxTextView.html#a4298c267872d7618353c03a0f31560e2" target="_top" xlink:title=" ">
<polygon fill="white" stroke="black" points="363.5,-50 363.5,-69 500.5,-69 500.5,-50 363.5,-50"/>
<text text-anchor="middle" x="432" y="-57" font-family="Helvetica,sans-Serif" font-size="10.00">OmniboxTextView::GetText</text>
</a>
</g>
</g>
<!-- Node3&#45;&gt;Node5 -->
<g id="edge4" class="edge">
<title>Node3&#45;&gt;Node5</title>
<path fill="none" stroke="midnightblue" d="M302.51,-59.5C318.8,-59.5 336.36,-59.5 353.11,-59.5"/>
<polygon fill="midnightblue" stroke="midnightblue" points="353.42,-63 363.42,-59.5 353.42,-56 353.42,-63"/>
</g>
<!-- Node6 -->
<g id="node6" class="node">
<title>Node6</title>
<g id="a_node6"><a xlink:href="../../df/d61/classOmniboxTextView.html#a939db6ecd27fb2eea964237161eaf0b6" target="_top" xlink:title=" ">
<polygon fill="white" stroke="black" points="363.5,-0.5 363.5,-30.5 500.5,-30.5 500.5,-0.5 363.5,-0.5"/>
<text text-anchor="start" x="371.5" y="-18.5" font-family="Helvetica,sans-Serif" font-size="10.00">OmniboxTextView::OnStyle</text>
<text text-anchor="middle" x="432" y="-7.5" font-family="Helvetica,sans-Serif" font-size="10.00">Changed</text>
</a>
</g>
</g>
<!-- Node3&#45;&gt;Node6 -->
<g id="edge5" class="edge">
<title>Node3&#45;&gt;Node6</title>
<path fill="none" stroke="midnightblue" d="M277.92,-49.95C300.23,-44.93 328.26,-38.62 354.23,-32.78"/>
<polygon fill="midnightblue" stroke="midnightblue" points="355.07,-36.18 364.06,-30.57 353.54,-29.35 355.07,-36.18"/>
</g>
<!-- Node7 -->
<g id="node7" class="node">
<title>Node7</title>
<g id="a_node7"><a xlink:href="../../df/d61/classOmniboxTextView.html#a4b0c456fd56f27414ac6a643ea0cffcd" target="_top" xlink:title=" ">
<polygon fill="white" stroke="black" points="559,-0.5 559,-30.5 702,-30.5 702,-0.5 559,-0.5"/>
<text text-anchor="start" x="567" y="-18.5" font-family="Helvetica,sans-Serif" font-size="10.00">OmniboxTextView::Calculate</text>
<text text-anchor="middle" x="630.5" y="-7.5" font-family="Helvetica,sans-Serif" font-size="10.00">PreferredSize</text>
</a>
</g>
</g>
<!-- Node6&#45;&gt;Node7 -->
<g id="edge6" class="edge">
<title>Node6&#45;&gt;Node7</title>
<path fill="none" stroke="midnightblue" d="M500.62,-15.5C516.01,-15.5 532.52,-15.5 548.41,-15.5"/>
<polygon fill="midnightblue" stroke="midnightblue" points="548.74,-19 558.74,-15.5 548.74,-12 548.74,-19"/>
</g>
</g>
</svg>
