<?xml version="1.0" encoding="UTF-8" standalone="no"?>
<!DOCTYPE svg PUBLIC "-//W3C//DTD SVG 1.1//EN"
 "http://www.w3.org/Graphics/SVG/1.1/DTD/svg11.dtd">
<!-- Generated by graphviz version 2.43.0 (0)
 -->
<!-- Title: OmniboxMatchCellView::description Pages: 1 -->
<svg width="855pt" height="333pt"
 viewBox="0.00 0.00 855.00 333.00" xmlns="http://www.w3.org/2000/svg" xmlns:xlink="http://www.w3.org/1999/xlink">
<g id="graph0" class="graph" transform="scale(1 1) rotate(0) translate(4 329)">
<title>OmniboxMatchCellView::description</title>
<polygon fill="white" stroke="transparent" points="-4,4 -4,-329 851,-329 851,4 -4,4"/>
<!-- Node1 -->
<g id="node1" class="node">
<title>Node1</title>
<g id="a_node1"><a xlink:title=" ">
<polygon fill="#bfbfbf" stroke="black" points="725,-49.5 725,-79.5 847,-79.5 847,-49.5 725,-49.5"/>
<text text-anchor="start" x="733" y="-67.5" font-family="Helvetica,sans-Serif" font-size="10.00">OmniboxMatchCellView</text>
<text text-anchor="middle" x="786" y="-56.5" font-family="Helvetica,sans-Serif" font-size="10.00">::description</text>
</a>
</g>
</g>
<!-- Node2 -->
<g id="node2" class="node">
<title>Node2</title>
<g id="a_node2"><a xlink:href="../../d3/d4c/classOmniboxResultView.html#a8de71e6a812c40cd5857e33c36b465ed" target="_top" xlink:title=" ">
<polygon fill="white" stroke="black" points="542,-73.5 542,-103.5 689,-103.5 689,-73.5 542,-73.5"/>
<text text-anchor="start" x="550" y="-91.5" font-family="Helvetica,sans-Serif" font-size="10.00">OmniboxResultView::</text>
<text text-anchor="middle" x="615.5" y="-80.5" font-family="Helvetica,sans-Serif" font-size="10.00">ApplyThemeAndRefreshIcons</text>
</a>
</g>
</g>
<!-- Node1&#45;&gt;Node2 -->
<g id="edge1" class="edge">
<title>Node1&#45;&gt;Node2</title>
<path fill="none" stroke="midnightblue" d="M714.51,-74.54C706.11,-75.74 697.52,-76.96 689.1,-78.16"/>
<polygon fill="midnightblue" stroke="midnightblue" points="715.24,-77.97 724.64,-73.1 714.25,-71.04 715.24,-77.97"/>
</g>
<!-- Node8 -->
<g id="node8" class="node">
<title>Node8</title>
<g id="a_node8"><a xlink:href="../../d3/d4c/classOmniboxResultView.html#ad0185705673042dc89733278acc080e5" target="_top" xlink:title=" ">
<polygon fill="white" stroke="black" points="384,-0.5 384,-30.5 496,-30.5 496,-0.5 384,-0.5"/>
<text text-anchor="start" x="392" y="-18.5" font-family="Helvetica,sans-Serif" font-size="10.00">OmniboxResultView::</text>
<text text-anchor="middle" x="440" y="-7.5" font-family="Helvetica,sans-Serif" font-size="10.00">SetMatch</text>
</a>
</g>
</g>
<!-- Node1&#45;&gt;Node8 -->
<g id="edge14" class="edge">
<title>Node1&#45;&gt;Node8</title>
<path fill="none" stroke="midnightblue" d="M714.58,-54.47C649.92,-45.26 555.43,-31.8 496.13,-23.35"/>
<polygon fill="midnightblue" stroke="midnightblue" points="714.29,-57.96 724.69,-55.91 715.28,-51.03 714.29,-57.96"/>
</g>
<!-- Node3 -->
<g id="node3" class="node">
<title>Node3</title>
<g id="a_node3"><a xlink:href="../../d3/d4c/classOmniboxResultView.html#a291a79fc8a0132ef655f60a5a57e3fc1" target="_top" xlink:title=" ">
<polygon fill="white" stroke="black" points="384,-147.5 384,-177.5 496,-177.5 496,-147.5 384,-147.5"/>
<text text-anchor="start" x="392" y="-165.5" font-family="Helvetica,sans-Serif" font-size="10.00">OmniboxResultView::</text>
<text text-anchor="middle" x="440" y="-154.5" font-family="Helvetica,sans-Serif" font-size="10.00">OnMatchIconUpdated</text>
</a>
</g>
</g>
<!-- Node2&#45;&gt;Node3 -->
<g id="edge2" class="edge">
<title>Node2&#45;&gt;Node3</title>
<path fill="none" stroke="midnightblue" d="M573.22,-107.81C553.07,-117.07 528.39,-128.15 506,-137.5 498.08,-140.81 489.55,-144.21 481.36,-147.39"/>
<polygon fill="midnightblue" stroke="midnightblue" points="574.81,-110.93 582.43,-103.56 571.88,-104.57 574.81,-110.93"/>
</g>
<!-- Node5 -->
<g id="node5" class="node">
<title>Node5</title>
<g id="a_node5"><a xlink:href="../../d3/d4c/classOmniboxResultView.html#a516affe0ed43559711704018b03c20b7" target="_top" xlink:title=" ">
<polygon fill="white" stroke="black" points="374,-98.5 374,-128.5 506,-128.5 506,-98.5 374,-98.5"/>
<text text-anchor="start" x="382" y="-116.5" font-family="Helvetica,sans-Serif" font-size="10.00">OmniboxResultView::</text>
<text text-anchor="middle" x="440" y="-105.5" font-family="Helvetica,sans-Serif" font-size="10.00">OnSelectionStateChanged</text>
</a>
</g>
</g>
<!-- Node2&#45;&gt;Node5 -->
<g id="edge4" class="edge">
<title>Node2&#45;&gt;Node5</title>
<path fill="none" stroke="midnightblue" d="M531.83,-100.41C523.19,-101.66 514.5,-102.91 506.1,-104.12"/>
<polygon fill="midnightblue" stroke="midnightblue" points="532.53,-103.85 541.93,-98.96 531.53,-96.92 532.53,-103.85"/>
</g>
<!-- Node7 -->
<g id="node7" class="node">
<title>Node7</title>
<g id="a_node7"><a xlink:href="../../d3/d4c/classOmniboxResultView.html#aee5f5954efee89626ba0fa2044538467" target="_top" xlink:title=" ">
<polygon fill="white" stroke="black" points="384,-49.5 384,-79.5 496,-79.5 496,-49.5 384,-49.5"/>
<text text-anchor="start" x="392" y="-67.5" font-family="Helvetica,sans-Serif" font-size="10.00">OmniboxResultView::</text>
<text text-anchor="middle" x="440" y="-56.5" font-family="Helvetica,sans-Serif" font-size="10.00">OnThemeChanged</text>
</a>
</g>
</g>
<!-- Node2&#45;&gt;Node7 -->
<g id="edge6" class="edge">
<title>Node2&#45;&gt;Node7</title>
<path fill="none" stroke="midnightblue" d="M531.8,-77.06C519.7,-75.39 507.49,-73.7 496.12,-72.13"/>
<polygon fill="midnightblue" stroke="midnightblue" points="531.54,-80.56 541.93,-78.46 532.5,-73.62 531.54,-80.56"/>
</g>
<!-- Node2&#45;&gt;Node8 -->
<g id="edge7" class="edge">
<title>Node2&#45;&gt;Node8</title>
<path fill="none" stroke="midnightblue" d="M570.52,-69.3C561.09,-65.13 551.2,-60.7 542,-56.5 525.9,-49.15 522.32,-46.35 506,-39.5 498.79,-36.47 491.05,-33.44 483.52,-30.59"/>
<polygon fill="midnightblue" stroke="midnightblue" points="569.19,-72.54 579.75,-73.38 572.02,-66.14 569.19,-72.54"/>
</g>
<!-- Node11 -->
<g id="node11" class="node">
<title>Node11</title>
<g id="a_node11"><a xlink:href="../../d3/d4c/classOmniboxResultView.html#a15ea8940c53d801afdd7e1fe6d94c2e0" target="_top" xlink:title=" ">
<polygon fill="white" stroke="black" points="384,-221.5 384,-251.5 496,-251.5 496,-221.5 384,-221.5"/>
<text text-anchor="start" x="392" y="-239.5" font-family="Helvetica,sans-Serif" font-size="10.00">OmniboxResultView::</text>
<text text-anchor="middle" x="440" y="-228.5" font-family="Helvetica,sans-Serif" font-size="10.00">UpdateHoverState</text>
</a>
</g>
</g>
<!-- Node2&#45;&gt;Node11 -->
<g id="edge10" class="edge">
<title>Node2&#45;&gt;Node11</title>
<path fill="none" stroke="midnightblue" d="M591.26,-110.47C569.6,-130.7 536.21,-161.31 506,-186.5 491.46,-198.63 474.48,-211.65 461.53,-221.36"/>
<polygon fill="midnightblue" stroke="midnightblue" points="593.77,-112.91 598.68,-103.52 588.99,-107.8 593.77,-112.91"/>
</g>
<!-- Node4 -->
<g id="node4" class="node">
<title>Node4</title>
<g id="a_node4"><a xlink:href="../../d7/d88/classOmniboxPopupContentsView.html#a3f3538f29fd10e593d39a3a456d116b6" target="_top" xlink:title=" ">
<polygon fill="white" stroke="black" points="187,-147.5 187,-177.5 332,-177.5 332,-147.5 187,-147.5"/>
<text text-anchor="start" x="195" y="-165.5" font-family="Helvetica,sans-Serif" font-size="10.00">OmniboxPopupContentsView</text>
<text text-anchor="middle" x="259.5" y="-154.5" font-family="Helvetica,sans-Serif" font-size="10.00">::OnMatchIconUpdated</text>
</a>
</g>
</g>
<!-- Node3&#45;&gt;Node4 -->
<g id="edge3" class="edge">
<title>Node3&#45;&gt;Node4</title>
<path fill="none" stroke="midnightblue" d="M373.8,-162.5C360.24,-162.5 345.88,-162.5 332.11,-162.5"/>
<polygon fill="midnightblue" stroke="midnightblue" points="373.99,-166 383.99,-162.5 373.99,-159 373.99,-166"/>
</g>
<!-- Node6 -->
<g id="node6" class="node">
<title>Node6</title>
<g id="a_node6"><a xlink:href="../../da/da2/classOmniboxRowView.html#a2b9d0b0fce1926c058199484af89949d" target="_top" xlink:title=" ">
<polygon fill="white" stroke="black" points="181,-98.5 181,-128.5 338,-128.5 338,-98.5 181,-98.5"/>
<text text-anchor="start" x="189" y="-116.5" font-family="Helvetica,sans-Serif" font-size="10.00">OmniboxRowView::OnSelection</text>
<text text-anchor="middle" x="259.5" y="-105.5" font-family="Helvetica,sans-Serif" font-size="10.00">StateChanged</text>
</a>
</g>
</g>
<!-- Node5&#45;&gt;Node6 -->
<g id="edge5" class="edge">
<title>Node5&#45;&gt;Node6</title>
<path fill="none" stroke="midnightblue" d="M363.66,-113.5C355.26,-113.5 346.69,-113.5 338.26,-113.5"/>
<polygon fill="midnightblue" stroke="midnightblue" points="363.8,-117 373.8,-113.5 363.8,-110 363.8,-117"/>
</g>
<!-- Node9 -->
<g id="node9" class="node">
<title>Node9</title>
<g id="a_node9"><a xlink:href="../../d7/d88/classOmniboxPopupContentsView.html#aa8f47263f229af6a469c3bf964b81162" target="_top" xlink:title=" ">
<polygon fill="white" stroke="black" points="187,-0.5 187,-30.5 332,-30.5 332,-0.5 187,-0.5"/>
<text text-anchor="start" x="195" y="-18.5" font-family="Helvetica,sans-Serif" font-size="10.00">OmniboxPopupContentsView</text>
<text text-anchor="middle" x="259.5" y="-7.5" font-family="Helvetica,sans-Serif" font-size="10.00">::UpdatePopupAppearance</text>
</a>
</g>
</g>
<!-- Node8&#45;&gt;Node9 -->
<g id="edge8" class="edge">
<title>Node8&#45;&gt;Node9</title>
<path fill="none" stroke="midnightblue" d="M373.8,-15.5C360.24,-15.5 345.88,-15.5 332.11,-15.5"/>
<polygon fill="midnightblue" stroke="midnightblue" points="373.99,-19 383.99,-15.5 373.99,-12 373.99,-19"/>
</g>
<!-- Node10 -->
<g id="node10" class="node">
<title>Node10</title>
<g id="a_node10"><a xlink:href="../../d7/d88/classOmniboxPopupContentsView.html#a0e658101bc19acb66f6e0915fd6c2fe3" target="_top" xlink:title=" ">
<polygon fill="white" stroke="black" points="0,-0.5 0,-30.5 145,-30.5 145,-0.5 0,-0.5"/>
<text text-anchor="start" x="8" y="-18.5" font-family="Helvetica,sans-Serif" font-size="10.00">OmniboxPopupContentsView</text>
<text text-anchor="middle" x="72.5" y="-7.5" font-family="Helvetica,sans-Serif" font-size="10.00">::OnWidgetBoundsChanged</text>
</a>
</g>
</g>
<!-- Node9&#45;&gt;Node10 -->
<g id="edge9" class="edge">
<title>Node9&#45;&gt;Node10</title>
<path fill="none" stroke="midnightblue" d="M176.9,-15.5C166.32,-15.5 155.55,-15.5 145.14,-15.5"/>
<polygon fill="midnightblue" stroke="midnightblue" points="176.97,-19 186.97,-15.5 176.97,-12 176.97,-19"/>
</g>
<!-- Node12 -->
<g id="node12" class="node">
<title>Node12</title>
<g id="a_node12"><a xlink:href="../../d3/d4c/classOmniboxResultView.html#adfc2b5da2f71c87fa3d391a32bc5ebf9" target="_top" xlink:title=" ">
<polygon fill="white" stroke="black" points="203.5,-294.5 203.5,-324.5 315.5,-324.5 315.5,-294.5 203.5,-294.5"/>
<text text-anchor="start" x="211.5" y="-312.5" font-family="Helvetica,sans-Serif" font-size="10.00">OmniboxResultView::</text>
<text text-anchor="middle" x="259.5" y="-301.5" font-family="Helvetica,sans-Serif" font-size="10.00">OnMouseDragged</text>
</a>
</g>
</g>
<!-- Node11&#45;&gt;Node12 -->
<g id="edge11" class="edge">
<title>Node11&#45;&gt;Node12</title>
<path fill="none" stroke="midnightblue" d="M401.67,-256.28C382.88,-265.81 359.56,-276.99 338,-285.5 330.01,-288.66 321.42,-291.67 312.99,-294.43"/>
<polygon fill="midnightblue" stroke="midnightblue" points="403.48,-259.29 410.78,-251.62 400.29,-253.06 403.48,-259.29"/>
</g>
<!-- Node13 -->
<g id="node13" class="node">
<title>Node13</title>
<g id="a_node13"><a xlink:href="../../d3/d4c/classOmniboxResultView.html#a201378b2282d4d6cf4492f6df7636490" target="_top" xlink:title=" ">
<polygon fill="white" stroke="black" points="203.5,-245.5 203.5,-275.5 315.5,-275.5 315.5,-245.5 203.5,-245.5"/>
<text text-anchor="start" x="211.5" y="-263.5" font-family="Helvetica,sans-Serif" font-size="10.00">OmniboxResultView::</text>
<text text-anchor="middle" x="259.5" y="-252.5" font-family="Helvetica,sans-Serif" font-size="10.00">OnMouseEntered</text>
</a>
</g>
</g>
<!-- Node11&#45;&gt;Node13 -->
<g id="edge12" class="edge">
<title>Node11&#45;&gt;Node13</title>
<path fill="none" stroke="midnightblue" d="M373.86,-245.26C354.76,-247.83 334.06,-250.61 315.64,-253.09"/>
<polygon fill="midnightblue" stroke="midnightblue" points="374.54,-248.7 383.99,-243.9 373.61,-241.76 374.54,-248.7"/>
</g>
<!-- Node14 -->
<g id="node14" class="node">
<title>Node14</title>
<g id="a_node14"><a xlink:href="../../d3/d4c/classOmniboxResultView.html#a70322ccbbe5e2f0bbc94d35b17c70553" target="_top" xlink:title=" ">
<polygon fill="white" stroke="black" points="203.5,-196.5 203.5,-226.5 315.5,-226.5 315.5,-196.5 203.5,-196.5"/>
<text text-anchor="start" x="211.5" y="-214.5" font-family="Helvetica,sans-Serif" font-size="10.00">OmniboxResultView::</text>
<text text-anchor="middle" x="259.5" y="-203.5" font-family="Helvetica,sans-Serif" font-size="10.00">OnMouseExited</text>
</a>
</g>
</g>
<!-- Node11&#45;&gt;Node14 -->
<g id="edge13" class="edge">
<title>Node11&#45;&gt;Node14</title>
<path fill="none" stroke="midnightblue" d="M373.86,-227.38C354.76,-224.7 334.06,-221.8 315.64,-219.22"/>
<polygon fill="midnightblue" stroke="midnightblue" points="373.6,-230.87 383.99,-228.8 374.57,-223.94 373.6,-230.87"/>
</g>
</g>
</svg>
