<?xml version="1.0" encoding="UTF-8" standalone="no"?>
<!DOCTYPE svg PUBLIC "-//W3C//DTD SVG 1.1//EN"
 "http://www.w3.org/Graphics/SVG/1.1/DTD/svg11.dtd">
<!-- Generated by graphviz version 2.43.0 (0)
 -->
<!-- Title: OmniboxEditModel Pages: 1 -->
<svg width="735pt" height="223pt"
 viewBox="0.00 0.00 735.00 223.00" xmlns="http://www.w3.org/2000/svg" xmlns:xlink="http://www.w3.org/1999/xlink">
<g id="graph0" class="graph" transform="scale(1 1) rotate(0) translate(4 219)">
<title>OmniboxEditModel</title>
<polygon fill="white" stroke="transparent" points="-4,4 -4,-219 731,-219 731,4 -4,4"/>
<!-- Node1 -->
<g id="node1" class="node">
<title>Node1</title>
<g id="a_node1"><a xlink:title=" ">
<polygon fill="#bfbfbf" stroke="black" points="628,-95.5 628,-114.5 727,-114.5 727,-95.5 628,-95.5"/>
<text text-anchor="middle" x="677.5" y="-102.5" font-family="Helvetica,sans-Serif" font-size="10.00">OmniboxEditModel</text>
</a>
</g>
</g>
<!-- Node2 -->
<g id="node2" class="node">
<title>Node2</title>
<g id="a_node2"><a xlink:href="../../dc/d81/classOmniboxEditController.html" target="_top" xlink:title=" ">
<polygon fill="white" stroke="black" points="170,-175.5 170,-194.5 285,-194.5 285,-175.5 170,-175.5"/>
<text text-anchor="middle" x="227.5" y="-182.5" font-family="Helvetica,sans-Serif" font-size="10.00">OmniboxEditController</text>
</a>
</g>
</g>
<!-- Node2&#45;&gt;Node1 -->
<g id="edge1" class="edge">
<title>Node2&#45;&gt;Node1</title>
<path fill="none" stroke="#9a32cd" stroke-dasharray="5,2" d="M290.02,-196.04C368.36,-207.11 506,-216.33 610,-168 636.25,-155.8 658.79,-129.11 669.62,-114.69"/>
<polygon fill="#9a32cd" stroke="#9a32cd" points="290.24,-192.54 279.84,-194.55 289.23,-199.46 290.24,-192.54"/>
<text text-anchor="middle" x="432" y="-207" font-family="Helvetica,sans-Serif" font-size="10.00"> controller_</text>
</g>
<!-- Node6 -->
<g id="node6" class="node">
<title>Node6</title>
<g id="a_node6"><a xlink:href="../../d9/d1e/classOmniboxView.html" target="_top" xlink:title=" ">
<polygon fill="white" stroke="black" points="393.5,-152.5 393.5,-171.5 470.5,-171.5 470.5,-152.5 393.5,-152.5"/>
<text text-anchor="middle" x="432" y="-159.5" font-family="Helvetica,sans-Serif" font-size="10.00">OmniboxView</text>
</a>
</g>
</g>
<!-- Node2&#45;&gt;Node6 -->
<g id="edge6" class="edge">
<title>Node2&#45;&gt;Node6</title>
<path fill="none" stroke="#9a32cd" stroke-dasharray="5,2" d="M295.52,-177.39C328,-173.7 365.81,-169.4 393.22,-166.29"/>
<polygon fill="#9a32cd" stroke="#9a32cd" points="294.72,-173.96 285.18,-178.56 295.51,-180.91 294.72,-173.96"/>
<text text-anchor="middle" x="327.5" y="-179" font-family="Helvetica,sans-Serif" font-size="10.00"> controller_</text>
</g>
<!-- Node3 -->
<g id="node3" class="node">
<title>Node3</title>
<g id="a_node3"><a xlink:title=" ">
<polygon fill="white" stroke="#bfbfbf" points="0,-170 0,-200 133,-200 133,-170 0,-170"/>
<text text-anchor="start" x="8" y="-188" font-family="Helvetica,sans-Serif" font-size="10.00">base::SupportsWeakPtr</text>
<text text-anchor="middle" x="66.5" y="-177" font-family="Helvetica,sans-Serif" font-size="10.00">&lt; OmniboxEditController &gt;</text>
</a>
</g>
</g>
<!-- Node3&#45;&gt;Node2 -->
<g id="edge2" class="edge">
<title>Node3&#45;&gt;Node2</title>
<path fill="none" stroke="midnightblue" d="M143.2,-185C152.2,-185 161.27,-185 169.94,-185"/>
<polygon fill="midnightblue" stroke="midnightblue" points="143.09,-181.5 133.09,-185 143.09,-188.5 143.09,-181.5"/>
</g>
<!-- Node4 -->
<g id="node4" class="node">
<title>Node4</title>
<g id="a_node4"><a xlink:href="../../d5/d39/structSplitAutocompletion.html" target="_top" xlink:title=" ">
<polygon fill="white" stroke="black" points="380,-114.5 380,-133.5 484,-133.5 484,-114.5 380,-114.5"/>
<text text-anchor="middle" x="432" y="-121.5" font-family="Helvetica,sans-Serif" font-size="10.00">SplitAutocompletion</text>
</a>
</g>
</g>
<!-- Node4&#45;&gt;Node1 -->
<g id="edge3" class="edge">
<title>Node4&#45;&gt;Node1</title>
<path fill="none" stroke="#9a32cd" stroke-dasharray="5,2" d="M494.25,-119.22C535.51,-116 589.2,-111.81 627.6,-108.82"/>
<polygon fill="#9a32cd" stroke="#9a32cd" points="493.74,-115.75 484.05,-120.02 494.29,-122.73 493.74,-115.75"/>
<text text-anchor="middle" x="561" y="-121" font-family="Helvetica,sans-Serif" font-size="10.00"> split_autocompletion_</text>
</g>
<!-- Node5 -->
<g id="node5" class="node">
<title>Node5</title>
<g id="a_node5"><a xlink:href="../../db/de1/classOmniboxPopupView.html" target="_top" xlink:title=" ">
<polygon fill="white" stroke="black" points="379.5,-76.5 379.5,-95.5 484.5,-95.5 484.5,-76.5 379.5,-76.5"/>
<text text-anchor="middle" x="432" y="-83.5" font-family="Helvetica,sans-Serif" font-size="10.00">OmniboxPopupView</text>
</a>
</g>
</g>
<!-- Node5&#45;&gt;Node1 -->
<g id="edge4" class="edge">
<title>Node5&#45;&gt;Node1</title>
<path fill="none" stroke="#9a32cd" stroke-dasharray="5,2" d="M494.85,-88.31C528.87,-89.88 571.82,-92.34 610,-96 615.8,-96.56 621.87,-97.24 627.88,-97.97"/>
<polygon fill="#9a32cd" stroke="#9a32cd" points="494.73,-84.8 484.59,-87.85 494.42,-91.79 494.73,-84.8"/>
<text text-anchor="middle" x="561" y="-99" font-family="Helvetica,sans-Serif" font-size="10.00"> popup_view_</text>
</g>
<!-- Node6&#45;&gt;Node1 -->
<g id="edge5" class="edge">
<title>Node6&#45;&gt;Node1</title>
<path fill="none" stroke="#9a32cd" stroke-dasharray="5,2" d="M480.74,-157.27C516.75,-152.97 567.11,-145.36 610,-133 626.37,-128.28 644.12,-120.68 657.15,-114.58"/>
<polygon fill="#9a32cd" stroke="#9a32cd" points="480.05,-153.83 470.52,-158.45 480.85,-160.78 480.05,-153.83"/>
<text text-anchor="middle" x="561" y="-156" font-family="Helvetica,sans-Serif" font-size="10.00"> view_</text>
</g>
<!-- Node7 -->
<g id="node7" class="node">
<title>Node7</title>
<g id="a_node7"><a xlink:href="../../d9/df6/classAutocompleteInput.html" target="_top" xlink:title=" ">
<polygon fill="white" stroke="black" points="383,-38.5 383,-57.5 481,-57.5 481,-38.5 383,-38.5"/>
<text text-anchor="middle" x="432" y="-45.5" font-family="Helvetica,sans-Serif" font-size="10.00">AutocompleteInput</text>
</a>
</g>
</g>
<!-- Node7&#45;&gt;Node1 -->
<g id="edge7" class="edge">
<title>Node7&#45;&gt;Node1</title>
<path fill="none" stroke="#9a32cd" stroke-dasharray="5,2" d="M491.14,-52.84C526.11,-56.74 571.2,-63.52 610,-75 627.25,-80.1 645.82,-88.77 658.94,-95.49"/>
<polygon fill="#9a32cd" stroke="#9a32cd" points="491.41,-49.35 481.1,-51.77 490.67,-56.31 491.41,-49.35"/>
<text text-anchor="middle" x="561" y="-78" font-family="Helvetica,sans-Serif" font-size="10.00"> input_</text>
</g>
<!-- Node8 -->
<g id="node8" class="node">
<title>Node8</title>
<g id="a_node8"><a xlink:href="../../de/dfc/structOmniboxPopupSelection.html" target="_top" xlink:title=" ">
<polygon fill="white" stroke="black" points="370,-0.5 370,-19.5 494,-19.5 494,-0.5 370,-0.5"/>
<text text-anchor="middle" x="432" y="-7.5" font-family="Helvetica,sans-Serif" font-size="10.00">OmniboxPopupSelection</text>
</a>
</g>
</g>
<!-- Node8&#45;&gt;Node1 -->
<g id="edge8" class="edge">
<title>Node8&#45;&gt;Node1</title>
<path fill="none" stroke="#9a32cd" stroke-dasharray="5,2" d="M504.57,-12.93C538.06,-16.65 577.61,-24.55 610,-41 636,-54.2 658.64,-80.98 669.56,-95.36"/>
<polygon fill="#9a32cd" stroke="#9a32cd" points="504.68,-9.42 494.38,-11.9 503.98,-16.39 504.68,-9.42"/>
<text text-anchor="middle" x="561" y="-44" font-family="Helvetica,sans-Serif" font-size="10.00"> popup_selection_</text>
</g>
</g>
</svg>
