<?xml version="1.0" encoding="UTF-8" standalone="no"?>
<!DOCTYPE svg PUBLIC "-//W3C//DTD SVG 1.1//EN"
 "http://www.w3.org/Graphics/SVG/1.1/DTD/svg11.dtd">
<!-- Generated by graphviz version 2.43.0 (0)
 -->
<!-- Title: AutocompleteProvider::IsExplicitlyInKeywordMode Pages: 1 -->
<svg width="332pt" height="127pt"
 viewBox="0.00 0.00 332.00 126.50" xmlns="http://www.w3.org/2000/svg" xmlns:xlink="http://www.w3.org/1999/xlink">
<g id="graph0" class="graph" transform="scale(1 1) rotate(0) translate(4 122.5)">
<title>AutocompleteProvider::IsExplicitlyInKeywordMode</title>
<polygon fill="white" stroke="transparent" points="-4,4 -4,-122.5 328,-122.5 328,4 -4,4"/>
<!-- Node1 -->
<g id="node1" class="node">
<title>Node1</title>
<g id="a_node1"><a xlink:title=" ">
<polygon fill="#bfbfbf" stroke="black" points="0,-39 0,-69 141,-69 141,-39 0,-39"/>
<text text-anchor="start" x="8" y="-57" font-family="Helvetica,sans-Serif" font-size="10.00">AutocompleteProvider</text>
<text text-anchor="middle" x="70.5" y="-46" font-family="Helvetica,sans-Serif" font-size="10.00">::IsExplicitlyInKeywordMode</text>
</a>
</g>
</g>
<!-- Node2 -->
<g id="node2" class="node">
<title>Node2</title>
<g id="a_node2"><a xlink:href="../../d9/df6/classAutocompleteInput.html#aec8a9b88c31d449311633fa11daf7865" target="_top" xlink:title=" ">
<polygon fill="white" stroke="black" points="177,-88 177,-118 324,-118 324,-88 177,-88"/>
<text text-anchor="start" x="185" y="-106" font-family="Helvetica,sans-Serif" font-size="10.00">AutocompleteInput::</text>
<text text-anchor="middle" x="250.5" y="-95" font-family="Helvetica,sans-Serif" font-size="10.00">keyword_mode_entry_method</text>
</a>
</g>
</g>
<!-- Node1&#45;&gt;Node2 -->
<g id="edge1" class="edge">
<title>Node1&#45;&gt;Node2</title>
<path fill="none" stroke="midnightblue" d="M126.36,-69.1C144.89,-74.2 165.74,-79.94 184.95,-85.23"/>
<polygon fill="midnightblue" stroke="midnightblue" points="184.25,-88.67 194.82,-87.95 186.11,-81.92 184.25,-88.67"/>
</g>
<!-- Node3 -->
<g id="node3" class="node">
<title>Node3</title>
<g id="a_node3"><a xlink:href="../../d9/df6/classAutocompleteInput.html#ac81e31d82e4da3a4b8ea3c37bb575dcc" target="_top" xlink:title=" ">
<polygon fill="white" stroke="black" points="180.5,-39 180.5,-69 320.5,-69 320.5,-39 180.5,-39"/>
<text text-anchor="start" x="188.5" y="-57" font-family="Helvetica,sans-Serif" font-size="10.00">AutocompleteInput::</text>
<text text-anchor="middle" x="250.5" y="-46" font-family="Helvetica,sans-Serif" font-size="10.00">prevent_inline_autocomplete</text>
</a>
</g>
</g>
<!-- Node1&#45;&gt;Node3 -->
<g id="edge2" class="edge">
<title>Node1&#45;&gt;Node3</title>
<path fill="none" stroke="midnightblue" d="M141.08,-54C150.64,-54 160.5,-54 170.21,-54"/>
<polygon fill="midnightblue" stroke="midnightblue" points="170.26,-57.5 180.26,-54 170.26,-50.5 170.26,-57.5"/>
</g>
<!-- Node4 -->
<g id="node4" class="node">
<title>Node4</title>
<g id="a_node4"><a xlink:href="../../d9/df6/classAutocompleteInput.html#ac055dacf90a052c92e2bfe5c01328a95" target="_top" xlink:title=" ">
<polygon fill="white" stroke="black" points="190,-0.5 190,-19.5 311,-19.5 311,-0.5 190,-0.5"/>
<text text-anchor="middle" x="250.5" y="-7.5" font-family="Helvetica,sans-Serif" font-size="10.00">AutocompleteInput::text</text>
</a>
</g>
</g>
<!-- Node1&#45;&gt;Node4 -->
<g id="edge3" class="edge">
<title>Node1&#45;&gt;Node4</title>
<path fill="none" stroke="midnightblue" d="M132.26,-38.98C154.78,-33.41 179.99,-27.18 201.24,-21.93"/>
<polygon fill="midnightblue" stroke="midnightblue" points="202.15,-25.31 211.02,-19.51 200.47,-18.51 202.15,-25.31"/>
</g>
</g>
</svg>
