<?xml version="1.0" encoding="UTF-8" standalone="no"?>
<!DOCTYPE svg PUBLIC "-//W3C//DTD SVG 1.1//EN"
 "http://www.w3.org/Graphics/SVG/1.1/DTD/svg11.dtd">
<!-- Generated by graphviz version 2.43.0 (0)
 -->
<!-- Title: AutocompleteProvider::ClassifyAllMatchesInString Pages: 1 -->
<!--zoomable 317 -->
<svg id="main" version="1.1" xmlns="http://www.w3.org/2000/svg" xmlns:xlink="http://www.w3.org/1999/xlink" xml:space="preserve" onload="init(evt)">
<style type="text/css"><![CDATA[
.edge:hover path { stroke: red; }
.edge:hover polygon { stroke: red; fill: red; }
]]></style>
<script type="text/javascript"><![CDATA[
var edges = document.getElementsByTagName('g');
if (edges && edges.length) {
  for (var i=0;i<edges.length;i++) {
    if (edges[i].id.substr(0,4)=='edge') {
      edges[i].setAttribute('class','edge');
    }
  }
}
]]></script>
        <defs>
                <circle id="rim" cx="0" cy="0" r="7"/>
                <circle id="rim2" cx="0" cy="0" r="3.5"/>
                <g id="zoomPlus">
                        <use xlink:href="#rim" fill="#404040">
                                <set attributeName="fill" to="#808080" begin="zoomplus.mouseover" end="zoomplus.mouseout"/>
                        </use>
                        <path d="M-4,0h8M0,-4v8" fill="none" stroke="white" stroke-width="1.5" pointer-events="none"/>
                </g>
                <g id="zoomMin">
                        <use xlink:href="#rim" fill="#404040">
                                <set attributeName="fill" to="#808080" begin="zoomminus.mouseover" end="zoomminus.mouseout"/>
                        </use>
                        <path d="M-4,0h8" fill="none" stroke="white" stroke-width="1.5" pointer-events="none"/>
                </g>
                <g id="dirArrow">
                        <path fill="none" stroke="white" stroke-width="1.5" d="M0,-3.0v7 M-2.5,-0.5L0,-3.0L2.5,-0.5"/>
                </g>
               <g id="resetDef">
                       <use xlink:href="#rim2" fill="#404040">
                               <set attributeName="fill" to="#808080" begin="reset.mouseover" end="reset.mouseout"/>
                       </use>
               </g>
        </defs>

<script type="text/javascript">
var viewWidth = 1006;
var viewHeight = 317;
var sectionId = 'dynsection-4';
</script>
<script xlink:href="../../svgpan.js"/>
<svg id="graph" class="graph">
<g id="viewport">
<title>AutocompleteProvider::ClassifyAllMatchesInString</title>
<polygon fill="white" stroke="transparent" points="-4,4 -4,-312.5 1002,-312.5 1002,4 -4,4"/>
<!-- Node1 -->
<g id="node1" class="node">
<title>Node1</title>
<g id="a_node1"><a xlink:title=" ">
<polygon fill="#bfbfbf" stroke="black" points="0,-176.5 0,-206.5 141,-206.5 141,-176.5 0,-176.5"/>
<text text-anchor="start" x="8" y="-194.5" font-family="Helvetica,sans-Serif" font-size="10.00">AutocompleteProvider</text>
<text text-anchor="middle" x="70.5" y="-183.5" font-family="Helvetica,sans-Serif" font-size="10.00">::ClassifyAllMatchesInString</text>
</a>
</g>
</g>
<!-- Node2 -->
<g id="node2" class="node">
<title>Node2</title>
<g id="a_node2"><a xlink:href="../../dc/db8/autocomplete__match__classification_8cc.html#a24f64d2639070ff605d2c295d6c4b328" target="_top" xlink:title=" ">
<polygon fill="white" stroke="black" points="177,-220 177,-239 289,-239 289,-220 177,-220"/>
<text text-anchor="middle" x="233" y="-227" font-family="Helvetica,sans-Serif" font-size="10.00">ClassifyTermMatches</text>
</a>
</g>
</g>
<!-- Node1&#45;&gt;Node2 -->
<g id="edge1" class="edge">
<title>Node1&#45;&gt;Node2</title>
<path fill="none" stroke="midnightblue" d="M134.93,-206.52C150.45,-210.19 166.85,-214.08 181.66,-217.58"/>
<polygon fill="midnightblue" stroke="midnightblue" points="181.1,-221.05 191.64,-219.94 182.71,-214.23 181.1,-221.05"/>
</g>
<!-- Node3 -->
<g id="node3" class="node">
<title>Node3</title>
<g id="a_node3"><a xlink:href="../../dc/db8/autocomplete__match__classification_8cc.html#a854bdbfcba7705ea05f3f6b08c904eb8" target="_top" xlink:title=" ">
<polygon fill="white" stroke="black" points="185.5,-182 185.5,-201 280.5,-201 280.5,-182 185.5,-182"/>
<text text-anchor="middle" x="233" y="-189" font-family="Helvetica,sans-Serif" font-size="10.00">FindTermMatches</text>
</a>
</g>
</g>
<!-- Node1&#45;&gt;Node3 -->
<g id="edge2" class="edge">
<title>Node1&#45;&gt;Node3</title>
<path fill="none" stroke="midnightblue" d="M141.43,-191.5C152.7,-191.5 164.24,-191.5 175.15,-191.5"/>
<polygon fill="midnightblue" stroke="midnightblue" points="175.39,-195 185.39,-191.5 175.39,-188 175.39,-195"/>
</g>
<!-- Node18 -->
<g id="node18" class="node">
<title>Node18</title>
<g id="a_node18"><a xlink:href="../../dc/d8f/structAutocompleteMatch.html#a207ef53d6590febe5445e12b45906669" target="_top" xlink:title=" ">
<polygon fill="white" stroke="black" points="178,-113.5 178,-143.5 288,-143.5 288,-113.5 178,-113.5"/>
<text text-anchor="start" x="186" y="-131.5" font-family="Helvetica,sans-Serif" font-size="10.00">AutocompleteMatch::</text>
<text text-anchor="middle" x="233" y="-120.5" font-family="Helvetica,sans-Serif" font-size="10.00">MergeClassifications</text>
</a>
</g>
</g>
<!-- Node1&#45;&gt;Node18 -->
<g id="edge20" class="edge">
<title>Node1&#45;&gt;Node18</title>
<path fill="none" stroke="midnightblue" d="M109.94,-176.41C132.2,-167.68 160.4,-156.61 184.09,-147.31"/>
<polygon fill="midnightblue" stroke="midnightblue" points="185.56,-150.49 193.59,-143.58 183,-143.97 185.56,-150.49"/>
</g>
<!-- Node4 -->
<g id="node4" class="node">
<title>Node4</title>
<g id="a_node4"><a xlink:href="../../d7/daf/in__memory__url__index__types_8cc.html#ad3af38f30311d2ed9ba53010f3883b1f" target="_top" xlink:title=" ">
<polygon fill="white" stroke="black" points="358.5,-289 358.5,-308 456.5,-308 456.5,-289 358.5,-289"/>
<text text-anchor="middle" x="407.5" y="-296" font-family="Helvetica,sans-Serif" font-size="10.00">DeoverlapMatches</text>
</a>
</g>
</g>
<!-- Node3&#45;&gt;Node4 -->
<g id="edge3" class="edge">
<title>Node3&#45;&gt;Node4</title>
<path fill="none" stroke="midnightblue" d="M273.56,-201.03C279.13,-203.5 284.48,-206.61 289,-210.5 315.2,-233.08 297.66,-258.31 325,-279.5 331.92,-284.87 340.11,-288.76 348.58,-291.58"/>
<polygon fill="midnightblue" stroke="midnightblue" points="347.63,-294.95 358.2,-294.32 349.54,-288.21 347.63,-294.95"/>
</g>
<!-- Node5 -->
<g id="node5" class="node">
<title>Node5</title>
<g id="a_node5"><a xlink:href="../../d3/d1d/structScoredHistoryMatch.html#a10728307ce3b27ae70244571e20ca541" target="_top" xlink:title=" ">
<polygon fill="white" stroke="black" points="325.5,-239.5 325.5,-269.5 489.5,-269.5 489.5,-239.5 325.5,-239.5"/>
<text text-anchor="start" x="333.5" y="-257.5" font-family="Helvetica,sans-Serif" font-size="10.00">ScoredHistoryMatch</text>
<text text-anchor="middle" x="407.5" y="-246.5" font-family="Helvetica,sans-Serif" font-size="10.00">::FilterTermMatchesByWordStarts</text>
</a>
</g>
</g>
<!-- Node3&#45;&gt;Node5 -->
<g id="edge4" class="edge">
<title>Node3&#45;&gt;Node5</title>
<path fill="none" stroke="midnightblue" d="M264.29,-201.03C272.41,-203.84 281.12,-207.08 289,-210.5 305.6,-217.7 308.28,-222.59 325,-229.5 330.52,-231.78 336.33,-233.96 342.19,-236.02"/>
<polygon fill="midnightblue" stroke="midnightblue" points="341.48,-239.48 352.07,-239.37 343.72,-232.84 341.48,-239.48"/>
</g>
<!-- Node6 -->
<g id="node6" class="node">
<title>Node6</title>
<g id="a_node6"><a xlink:href="../../d7/daf/in__memory__url__index__types_8cc.html#a6d76a8dafe24063b50b78d3a0a77a62b" target="_top" xlink:title=" ">
<polygon fill="white" stroke="black" points="355.5,-201 355.5,-220 459.5,-220 459.5,-201 355.5,-201"/>
<text text-anchor="middle" x="407.5" y="-208" font-family="Helvetica,sans-Serif" font-size="10.00">MatchTermsInString</text>
</a>
</g>
</g>
<!-- Node3&#45;&gt;Node6 -->
<g id="edge5" class="edge">
<title>Node3&#45;&gt;Node6</title>
<path fill="none" stroke="midnightblue" d="M280.68,-196.64C300.49,-198.82 323.85,-201.4 345.03,-203.73"/>
<polygon fill="midnightblue" stroke="midnightblue" points="344.91,-207.24 355.23,-204.85 345.68,-200.28 344.91,-207.24"/>
</g>
<!-- Node8 -->
<g id="node8" class="node">
<title>Node8</title>
<g id="a_node8"><a xlink:href="../../d7/daf/in__memory__url__index__types_8cc.html#af8b5ad29b184b31f6b9a4e0c7f7106c0" target="_top" xlink:title=" ">
<polygon fill="white" stroke="black" points="371.5,-163 371.5,-182 443.5,-182 443.5,-163 371.5,-163"/>
<text text-anchor="middle" x="407.5" y="-170" font-family="Helvetica,sans-Serif" font-size="10.00">SortMatches</text>
</a>
</g>
</g>
<!-- Node3&#45;&gt;Node8 -->
<g id="edge7" class="edge">
<title>Node3&#45;&gt;Node8</title>
<path fill="none" stroke="midnightblue" d="M280.68,-186.36C305.65,-183.61 336.27,-180.24 361.05,-177.51"/>
<polygon fill="midnightblue" stroke="midnightblue" points="361.72,-180.95 371.28,-176.38 360.96,-174 361.72,-180.95"/>
</g>
<!-- Node10 -->
<g id="node10" class="node">
<title>Node10</title>
<g id="a_node10"><a xlink:href="../../d7/daf/in__memory__url__index__types_8cc.html#ac7945538f83c74cad6ec3b7b5183b0b2" target="_top" xlink:title=" ">
<polygon fill="white" stroke="black" points="337.5,-100 337.5,-119 477.5,-119 477.5,-100 337.5,-100"/>
<text text-anchor="middle" x="407.5" y="-107" font-family="Helvetica,sans-Serif" font-size="10.00">String16VectorFromString16</text>
</a>
</g>
</g>
<!-- Node3&#45;&gt;Node10 -->
<g id="edge9" class="edge">
<title>Node3&#45;&gt;Node10</title>
<path fill="none" stroke="midnightblue" d="M254.13,-181.93C284.51,-167.49 342.25,-140.04 377.27,-123.4"/>
<polygon fill="midnightblue" stroke="midnightblue" points="378.97,-126.46 386.5,-119.01 375.97,-120.14 378.97,-126.46"/>
</g>
<!-- Node7 -->
<g id="node7" class="node">
<title>Node7</title>
<g id="a_node7"><a xlink:href="../../d7/daf/in__memory__url__index__types_8cc.html#aecafd72a53e5d7b1b34d5b955b24a163" target="_top" xlink:title=" ">
<polygon fill="white" stroke="black" points="541,-214 541,-233 640,-233 640,-214 541,-214"/>
<text text-anchor="middle" x="590.5" y="-221" font-family="Helvetica,sans-Serif" font-size="10.00">MatchTermInString</text>
</a>
</g>
</g>
<!-- Node6&#45;&gt;Node7 -->
<g id="edge6" class="edge">
<title>Node6&#45;&gt;Node7</title>
<path fill="none" stroke="midnightblue" d="M459.88,-214.19C481.91,-215.77 507.76,-217.63 530.56,-219.27"/>
<polygon fill="midnightblue" stroke="midnightblue" points="530.57,-222.78 540.79,-220 531.07,-215.79 530.57,-222.78"/>
</g>
<!-- Node9 -->
<g id="node9" class="node">
<title>Node9</title>
<g id="a_node9"><a xlink:href="../../d7/daf/in__memory__url__index__types_8cc.html#addea1e98ffd9ae0c40cd8add5cc914d2" target="_top" xlink:title=" ">
<polygon fill="white" stroke="black" points="534,-176 534,-195 647,-195 647,-176 534,-176"/>
<text text-anchor="middle" x="590.5" y="-183" font-family="Helvetica,sans-Serif" font-size="10.00">SortMatchComparator</text>
</a>
</g>
</g>
<!-- Node8&#45;&gt;Node9 -->
<g id="edge8" class="edge">
<title>Node8&#45;&gt;Node9</title>
<path fill="none" stroke="midnightblue" d="M443.83,-175.04C466.54,-176.67 496.76,-178.84 523.78,-180.78"/>
<polygon fill="midnightblue" stroke="midnightblue" points="523.73,-184.29 533.96,-181.51 524.23,-177.3 523.73,-184.29"/>
</g>
<!-- Node11 -->
<g id="node11" class="node">
<title>Node11</title>
<g id="a_node11"><a xlink:href="../../d6/dcd/classTailoredWordBreakIterator.html#a2821ad0b98d4c6dacdf2b007ae042cde" target="_top" xlink:title=" ">
<polygon fill="white" stroke="black" points="526,-126.5 526,-156.5 655,-156.5 655,-126.5 526,-126.5"/>
<text text-anchor="start" x="534" y="-144.5" font-family="Helvetica,sans-Serif" font-size="10.00">TailoredWordBreakIterator</text>
<text text-anchor="middle" x="590.5" y="-133.5" font-family="Helvetica,sans-Serif" font-size="10.00">::Advance</text>
</a>
</g>
</g>
<!-- Node10&#45;&gt;Node11 -->
<g id="edge10" class="edge">
<title>Node10&#45;&gt;Node11</title>
<path fill="none" stroke="midnightblue" d="M462.32,-119.01C478.95,-121.96 497.58,-125.25 515.34,-128.39"/>
<polygon fill="midnightblue" stroke="midnightblue" points="515.22,-131.92 525.68,-130.22 516.44,-125.03 515.22,-131.92"/>
</g>
<!-- Node14 -->
<g id="node14" class="node">
<title>Node14</title>
<g id="a_node14"><a xlink:href="../../d6/dcd/classTailoredWordBreakIterator.html#a198bd2927e6b6e17cd0e6b4fba8756fa" target="_top" xlink:title=" ">
<polygon fill="white" stroke="black" points="697.5,-82.5 697.5,-112.5 826.5,-112.5 826.5,-82.5 697.5,-82.5"/>
<text text-anchor="start" x="705.5" y="-100.5" font-family="Helvetica,sans-Serif" font-size="10.00">TailoredWordBreakIterator</text>
<text text-anchor="middle" x="762" y="-89.5" font-family="Helvetica,sans-Serif" font-size="10.00">::IsWord</text>
</a>
</g>
</g>
<!-- Node10&#45;&gt;Node14 -->
<g id="edge18" class="edge">
<title>Node10&#45;&gt;Node14</title>
<path fill="none" stroke="midnightblue" d="M477.72,-107.14C538.12,-105.09 625.5,-102.11 687.21,-100.01"/>
<polygon fill="midnightblue" stroke="midnightblue" points="687.4,-103.51 697.27,-99.67 687.16,-96.51 687.4,-103.51"/>
</g>
<!-- Node16 -->
<g id="node16" class="node">
<title>Node16</title>
<g id="a_node16"><a xlink:href="../../d6/dcd/classTailoredWordBreakIterator.html#a3ac822a0237ada88c32c0ca5fe6cc18d" target="_top" xlink:title=" ">
<polygon fill="white" stroke="black" points="697.5,-33.5 697.5,-63.5 826.5,-63.5 826.5,-33.5 697.5,-33.5"/>
<text text-anchor="start" x="705.5" y="-51.5" font-family="Helvetica,sans-Serif" font-size="10.00">TailoredWordBreakIterator</text>
<text text-anchor="middle" x="762" y="-40.5" font-family="Helvetica,sans-Serif" font-size="10.00">::GetString</text>
</a>
</g>
</g>
<!-- Node10&#45;&gt;Node16 -->
<g id="edge16" class="edge">
<title>Node10&#45;&gt;Node16</title>
<path fill="none" stroke="midnightblue" d="M463.58,-99.97C523.8,-89.55 620.62,-72.79 687.34,-61.25"/>
<polygon fill="midnightblue" stroke="midnightblue" points="688.11,-64.67 697.37,-59.51 686.92,-57.77 688.11,-64.67"/>
</g>
<!-- Node17 -->
<g id="node17" class="node">
<title>Node17</title>
<g id="a_node17"><a xlink:href="../../d6/dcd/classTailoredWordBreakIterator.html#ad2c08e1c2124a921ac2976e30c39d478" target="_top" xlink:title=" ">
<polygon fill="white" stroke="black" points="526,-0.5 526,-30.5 655,-30.5 655,-0.5 526,-0.5"/>
<text text-anchor="start" x="534" y="-18.5" font-family="Helvetica,sans-Serif" font-size="10.00">TailoredWordBreakIterator</text>
<text text-anchor="middle" x="590.5" y="-7.5" font-family="Helvetica,sans-Serif" font-size="10.00">::prev</text>
</a>
</g>
</g>
<!-- Node10&#45;&gt;Node17 -->
<g id="edge19" class="edge">
<title>Node10&#45;&gt;Node17</title>
<path fill="none" stroke="midnightblue" d="M467.37,-99.92C475.32,-97.26 483.1,-93.85 490,-89.5 511.37,-76.02 506.09,-61.06 526,-45.5 530.74,-41.8 536.01,-38.41 541.43,-35.35"/>
<polygon fill="midnightblue" stroke="midnightblue" points="543.41,-38.26 550.63,-30.51 540.15,-32.07 543.41,-38.26"/>
</g>
<!-- Node12 -->
<g id="node12" class="node">
<title>Node12</title>
<g id="a_node12"><a xlink:href="../../d6/dcd/classTailoredWordBreakIterator.html#a1b478919417288a574d74b521b52fc08" target="_top" xlink:title=" ">
<polygon fill="white" stroke="black" points="691,-170.5 691,-200.5 833,-200.5 833,-170.5 691,-170.5"/>
<text text-anchor="start" x="699" y="-188.5" font-family="Helvetica,sans-Serif" font-size="10.00">TailoredWordBreakIterator</text>
<text text-anchor="middle" x="762" y="-177.5" font-family="Helvetica,sans-Serif" font-size="10.00">::AdvanceInUnderscoreWord</text>
</a>
</g>
</g>
<!-- Node11&#45;&gt;Node12 -->
<g id="edge11" class="edge">
<title>Node11&#45;&gt;Node12</title>
<path fill="none" stroke="midnightblue" d="M649.36,-156.52C663.46,-160.18 678.67,-164.13 693.19,-167.9"/>
<polygon fill="midnightblue" stroke="midnightblue" points="692.56,-171.35 703.11,-170.47 694.32,-164.57 692.56,-171.35"/>
</g>
<!-- Node13 -->
<g id="node13" class="node">
<title>Node13</title>
<g id="a_node13"><a xlink:href="../../d6/dcd/classTailoredWordBreakIterator.html#aae84d81bdce60da2914d52d30b6c74b4" target="_top" xlink:title=" ">
<polygon fill="white" stroke="black" points="869,-115.5 869,-145.5 998,-145.5 998,-115.5 869,-115.5"/>
<text text-anchor="start" x="877" y="-133.5" font-family="Helvetica,sans-Serif" font-size="10.00">TailoredWordBreakIterator</text>
<text text-anchor="middle" x="933.5" y="-122.5" font-family="Helvetica,sans-Serif" font-size="10.00">::HasUnderscoreWord</text>
</a>
</g>
</g>
<!-- Node11&#45;&gt;Node13 -->
<g id="edge12" class="edge">
<title>Node11&#45;&gt;Node13</title>
<path fill="none" stroke="midnightblue" d="M655.24,-139.44C712.91,-137.58 797.86,-134.84 858.51,-132.89"/>
<polygon fill="midnightblue" stroke="midnightblue" points="858.9,-136.38 868.78,-132.56 858.68,-129.38 858.9,-136.38"/>
</g>
<!-- Node11&#45;&gt;Node14 -->
<g id="edge13" class="edge">
<title>Node11&#45;&gt;Node14</title>
<path fill="none" stroke="midnightblue" d="M649.36,-126.48C663.46,-122.82 678.67,-118.87 693.19,-115.1"/>
<polygon fill="midnightblue" stroke="midnightblue" points="694.32,-118.43 703.11,-112.53 692.56,-111.65 694.32,-118.43"/>
</g>
<!-- Node14&#45;&gt;Node13 -->
<g id="edge15" class="edge">
<title>Node14&#45;&gt;Node13</title>
<path fill="none" stroke="midnightblue" d="M826.6,-109.88C837.17,-111.94 848.21,-114.09 859.01,-116.19"/>
<polygon fill="midnightblue" stroke="midnightblue" points="858.34,-119.63 868.83,-118.1 859.68,-112.76 858.34,-119.63"/>
</g>
<!-- Node15 -->
<g id="node15" class="node">
<title>Node15</title>
<g id="a_node15"><a xlink:href="../../d6/dcd/classTailoredWordBreakIterator.html#a08b402a57411161426e21a435a9a047f" target="_top" xlink:title=" ">
<polygon fill="white" stroke="black" points="869,-55.5 869,-85.5 998,-85.5 998,-55.5 869,-55.5"/>
<text text-anchor="start" x="877" y="-73.5" font-family="Helvetica,sans-Serif" font-size="10.00">TailoredWordBreakIterator</text>
<text text-anchor="middle" x="933.5" y="-62.5" font-family="Helvetica,sans-Serif" font-size="10.00">::GetStringPiece</text>
</a>
</g>
</g>
<!-- Node14&#45;&gt;Node15 -->
<g id="edge14" class="edge">
<title>Node14&#45;&gt;Node15</title>
<path fill="none" stroke="midnightblue" d="M826.6,-87.37C837.06,-85.7 847.99,-83.96 858.67,-82.26"/>
<polygon fill="midnightblue" stroke="midnightblue" points="859.5,-85.67 868.83,-80.64 858.4,-78.76 859.5,-85.67"/>
</g>
<!-- Node16&#45;&gt;Node15 -->
<g id="edge17" class="edge">
<title>Node16&#45;&gt;Node15</title>
<path fill="none" stroke="midnightblue" d="M826.6,-56.75C837.06,-58.11 847.99,-59.53 858.67,-60.92"/>
<polygon fill="midnightblue" stroke="midnightblue" points="858.46,-64.42 868.83,-62.24 859.36,-57.48 858.46,-64.42"/>
</g>
<!-- Node19 -->
<g id="node19" class="node">
<title>Node19</title>
<g id="a_node19"><a xlink:href="../../dc/d8f/structAutocompleteMatch.html#a11b0d88ff1f5085acbc3cc39b5109360" target="_top" xlink:title=" ">
<polygon fill="white" stroke="black" points="325,-50.5 325,-80.5 490,-80.5 490,-50.5 325,-50.5"/>
<text text-anchor="start" x="333" y="-68.5" font-family="Helvetica,sans-Serif" font-size="10.00">AutocompleteMatch::</text>
<text text-anchor="middle" x="407.5" y="-57.5" font-family="Helvetica,sans-Serif" font-size="10.00">AddLastClassificationIfNecessary</text>
</a>
</g>
</g>
<!-- Node18&#45;&gt;Node19 -->
<g id="edge21" class="edge">
<title>Node18&#45;&gt;Node19</title>
<path fill="none" stroke="midnightblue" d="M267.83,-113.45C284.83,-106.12 305.84,-97.42 325,-90.5 331.36,-88.2 338.05,-85.93 344.74,-83.74"/>
<polygon fill="midnightblue" stroke="midnightblue" points="346.06,-87 354.51,-80.61 343.92,-80.33 346.06,-87"/>
</g>
</g>
</svg>
        <g id="navigator" transform="translate(0 0)" fill="#404254">
                <rect fill="#f2f5e9" fill-opacity="0.5" stroke="#606060" stroke-width=".5" x="0" y="0" width="60" height="60"/>
                <use id="zoomplus" xlink:href="#zoomPlus" x="17" y="9" onmousedown="handleZoom(evt,'in')"/>
                <use id="zoomminus" xlink:href="#zoomMin" x="42" y="9" onmousedown="handleZoom(evt,'out')"/>
                <use id="reset" xlink:href="#resetDef" x="30" y="36" onmousedown="handleReset()"/>
                <g id="arrowUp" xlink:href="#dirArrow" transform="translate(30 24)" onmousedown="handlePan(0,-1)">
                  <use xlink:href="#rim" fill="#404040">
                        <set attributeName="fill" to="#808080" begin="arrowUp.mouseover" end="arrowUp.mouseout"/>
                  </use>
                  <path fill="none" stroke="white" stroke-width="1.5" d="M0,-3.0v7 M-2.5,-0.5L0,-3.0L2.5,-0.5"/>
                </g>
                <g id="arrowRight" xlink:href="#dirArrow" transform="rotate(90) translate(36 -43)" onmousedown="handlePan(1,0)">
                  <use xlink:href="#rim" fill="#404040">
                        <set attributeName="fill" to="#808080" begin="arrowRight.mouseover" end="arrowRight.mouseout"/>
                  </use>
                  <path fill="none" stroke="white" stroke-width="1.5" d="M0,-3.0v7 M-2.5,-0.5L0,-3.0L2.5,-0.5"/>
                </g>
                <g id="arrowDown" xlink:href="#dirArrow" transform="rotate(180) translate(-30 -48)" onmousedown="handlePan(0,1)">
                  <use xlink:href="#rim" fill="#404040">
                        <set attributeName="fill" to="#808080" begin="arrowDown.mouseover" end="arrowDown.mouseout"/>
                  </use>
                  <path fill="none" stroke="white" stroke-width="1.5" d="M0,-3.0v7 M-2.5,-0.5L0,-3.0L2.5,-0.5"/>
                </g>
                <g id="arrowLeft" xlink:href="#dirArrow" transform="rotate(270) translate(-36 17)" onmousedown="handlePan(-1,0)">
                  <use xlink:href="#rim" fill="#404040">
                        <set attributeName="fill" to="#808080" begin="arrowLeft.mouseover" end="arrowLeft.mouseout"/>
                  </use>
                  <path fill="none" stroke="white" stroke-width="1.5" d="M0,-3.0v7 M-2.5,-0.5L0,-3.0L2.5,-0.5"/>
                </g>
        </g>
        <svg viewBox="0 0 15 15" width="100%" height="30px" preserveAspectRatio="xMaxYMin meet">
         <g id="arrow_out" transform="scale(0.3 0.3)">
          <a xlink:href="classAutocompleteProvider_ad8da4f96e7eb8bfc070e107bd576321d_cgraph_org.svg" target="_base">
           <rect id="button" ry="5" rx="5" y="6" x="6" height="38" width="38"
                fill="#f2f5e9" fill-opacity="0.5" stroke="#606060" stroke-width="1.0"/>
           <path id="arrow"
             d="M 11.500037,31.436501 C 11.940474,20.09759 22.043105,11.32322 32.158766,21.979434 L 37.068811,17.246167 C 37.068811,17.246167 37.088388,32 37.088388,32 L 22.160133,31.978069 C 22.160133,31.978069 26.997745,27.140456 26.997745,27.140456 C 18.528582,18.264221 13.291696,25.230495 11.500037,31.436501 z"
             style="fill:#404040;"/>
          </a>
         </g>
        </svg>
</svg>
