<?xml version="1.0" encoding="UTF-8" standalone="no"?>
<!DOCTYPE svg PUBLIC "-//W3C//DTD SVG 1.1//EN"
 "http://www.w3.org/Graphics/SVG/1.1/DTD/svg11.dtd">
<!-- Generated by graphviz version 2.43.0 (0)
 -->
<!-- Title: AutocompleteProvider::Stop Pages: 1 -->
<svg width="282pt" height="78pt"
 viewBox="0.00 0.00 282.00 77.50" xmlns="http://www.w3.org/2000/svg" xmlns:xlink="http://www.w3.org/1999/xlink">
<g id="graph0" class="graph" transform="scale(1 1) rotate(0) translate(4 73.5)">
<title>AutocompleteProvider::Stop</title>
<polygon fill="white" stroke="transparent" points="-4,4 -4,-73.5 278,-73.5 278,4 -4,4"/>
<!-- Node1 -->
<g id="node1" class="node">
<title>Node1</title>
<g id="a_node1"><a xlink:title=" ">
<polygon fill="#bfbfbf" stroke="black" points="161,-22.5 161,-52.5 274,-52.5 274,-22.5 161,-22.5"/>
<text text-anchor="start" x="169" y="-40.5" font-family="Helvetica,sans-Serif" font-size="10.00">AutocompleteProvider</text>
<text text-anchor="middle" x="217.5" y="-29.5" font-family="Helvetica,sans-Serif" font-size="10.00">::Stop</text>
</a>
</g>
</g>
<!-- Node2 -->
<g id="node2" class="node">
<title>Node2</title>
<g id="a_node2"><a xlink:href="../../dd/dfc/classClipboardProvider.html#a2b2f7a944df53d0ac8c337743286054d" target="_top" xlink:title=" ">
<polygon fill="white" stroke="black" points="2.5,-50 2.5,-69 122.5,-69 122.5,-50 2.5,-50"/>
<text text-anchor="middle" x="62.5" y="-57" font-family="Helvetica,sans-Serif" font-size="10.00">ClipboardProvider::Stop</text>
</a>
</g>
</g>
<!-- Node1&#45;&gt;Node2 -->
<g id="edge1" class="edge">
<title>Node1&#45;&gt;Node2</title>
<path fill="none" stroke="midnightblue" d="M150.82,-46.94C141.49,-48.29 131.94,-49.66 122.74,-50.98"/>
<polygon fill="midnightblue" stroke="midnightblue" points="151.43,-50.39 160.83,-45.5 150.43,-43.46 151.43,-50.39"/>
</g>
<!-- Node3 -->
<g id="node3" class="node">
<title>Node3</title>
<g id="a_node3"><a xlink:href="../../dd/de9/classAutocompleteProvider.html#a55a3088b7d9887d2ace3313fb8a023ce" target="_top" xlink:title=" ">
<polygon fill="white" stroke="black" points="0,-0.5 0,-30.5 125,-30.5 125,-0.5 0,-0.5"/>
<text text-anchor="start" x="8" y="-18.5" font-family="Helvetica,sans-Serif" font-size="10.00">AutocompleteProvider</text>
<text text-anchor="middle" x="62.5" y="-7.5" font-family="Helvetica,sans-Serif" font-size="10.00">::~AutocompleteProvider</text>
</a>
</g>
</g>
<!-- Node1&#45;&gt;Node3 -->
<g id="edge2" class="edge">
<title>Node1&#45;&gt;Node3</title>
<path fill="none" stroke="midnightblue" d="M150.89,-28.07C142.32,-26.83 133.57,-25.58 125.08,-24.35"/>
<polygon fill="midnightblue" stroke="midnightblue" points="150.43,-31.54 160.83,-29.5 151.43,-24.61 150.43,-31.54"/>
</g>
</g>
</svg>
