<?xml version="1.0" encoding="UTF-8" standalone="no"?>
<!DOCTYPE svg PUBLIC "-//W3C//DTD SVG 1.1//EN"
 "http://www.w3.org/Graphics/SVG/1.1/DTD/svg11.dtd">
<!-- Generated by graphviz version 2.43.0 (0)
 -->
<!-- Title: OmniboxResultView Pages: 1 -->
<!--zoomable 568 -->
<svg id="main" version="1.1" xmlns="http://www.w3.org/2000/svg" xmlns:xlink="http://www.w3.org/1999/xlink" xml:space="preserve" onload="init(evt)">
<style type="text/css"><![CDATA[
.edge:hover path { stroke: red; }
.edge:hover polygon { stroke: red; fill: red; }
]]></style>
<script type="text/javascript"><![CDATA[
var edges = document.getElementsByTagName('g');
if (edges && edges.length) {
  for (var i=0;i<edges.length;i++) {
    if (edges[i].id.substr(0,4)=='edge') {
      edges[i].setAttribute('class','edge');
    }
  }
}
]]></script>
        <defs>
                <circle id="rim" cx="0" cy="0" r="7"/>
                <circle id="rim2" cx="0" cy="0" r="3.5"/>
                <g id="zoomPlus">
                        <use xlink:href="#rim" fill="#404040">
                                <set attributeName="fill" to="#808080" begin="zoomplus.mouseover" end="zoomplus.mouseout"/>
                        </use>
                        <path d="M-4,0h8M0,-4v8" fill="none" stroke="white" stroke-width="1.5" pointer-events="none"/>
                </g>
                <g id="zoomMin">
                        <use xlink:href="#rim" fill="#404040">
                                <set attributeName="fill" to="#808080" begin="zoomminus.mouseover" end="zoomminus.mouseout"/>
                        </use>
                        <path d="M-4,0h8" fill="none" stroke="white" stroke-width="1.5" pointer-events="none"/>
                </g>
                <g id="dirArrow">
                        <path fill="none" stroke="white" stroke-width="1.5" d="M0,-3.0v7 M-2.5,-0.5L0,-3.0L2.5,-0.5"/>
                </g>
               <g id="resetDef">
                       <use xlink:href="#rim2" fill="#404040">
                               <set attributeName="fill" to="#808080" begin="reset.mouseover" end="reset.mouseout"/>
                       </use>
               </g>
        </defs>

<script type="text/javascript">
var viewWidth = 2469;
var viewHeight = 568;
var sectionId = 'dynsection-1';
</script>
<script xlink:href="../../svgpan.js"/>
<svg id="graph" class="graph">
<g id="viewport">
<title>OmniboxResultView</title>
<polygon fill="white" stroke="transparent" points="-4,4 -4,-563.5 2465,-563.5 2465,4 -4,4"/>
<!-- Node1 -->
<g id="node1" class="node">
<title>Node1</title>
<g id="a_node1"><a xlink:title=" ">
<polygon fill="#bfbfbf" stroke="black" points="1836,-360 1836,-379 1942,-379 1942,-360 1836,-360"/>
<text text-anchor="middle" x="1889" y="-367" font-family="Helvetica,sans-Serif" font-size="10.00">OmniboxResultView</text>
</a>
</g>
</g>
<!-- Node5 -->
<g id="node5" class="node">
<title>Node5</title>
<g id="a_node5"><a xlink:href="../../df/d61/classOmniboxTextView.html" target="_top" xlink:title=" ">
<polygon fill="white" stroke="black" points="2101,-414 2101,-433 2197,-433 2197,-414 2101,-414"/>
<text text-anchor="middle" x="2149" y="-421" font-family="Helvetica,sans-Serif" font-size="10.00">OmniboxTextView</text>
</a>
</g>
</g>
<!-- Node1&#45;&gt;Node5 -->
<g id="edge7" class="edge">
<title>Node1&#45;&gt;Node5</title>
<path fill="none" stroke="#9a32cd" stroke-dasharray="5,2" d="M1945.52,-381.12C1992.4,-390.93 2058.7,-404.81 2102.49,-413.97"/>
<polygon fill="#9a32cd" stroke="#9a32cd" points="1946.04,-377.65 1935.53,-379.03 1944.6,-384.5 1946.04,-377.65"/>
<text text-anchor="middle" x="2005" y="-405.5" font-family="Helvetica,sans-Serif" font-size="10.00"> result_view_</text>
</g>
<!-- Node26 -->
<g id="node26" class="node">
<title>Node26</title>
<g id="a_node26"><a xlink:href="../../dd/dc5/classOmniboxResultSelectionIndicator.html" target="_top" xlink:title=" ">
<polygon fill="white" stroke="black" points="2068,-486 2068,-505 2230,-505 2230,-486 2068,-486"/>
<text text-anchor="middle" x="2149" y="-493" font-family="Helvetica,sans-Serif" font-size="10.00">OmniboxResultSelectionIndicator</text>
</a>
</g>
</g>
<!-- Node1&#45;&gt;Node26 -->
<g id="edge38" class="edge">
<title>Node1&#45;&gt;Node26</title>
<path fill="none" stroke="#9a32cd" stroke-dasharray="5,2" d="M1910.56,-385.28C1924.13,-395.27 1942.58,-408.05 1960,-417.5 2014.51,-447.08 2082.64,-472.76 2120.09,-485.99"/>
<polygon fill="#9a32cd" stroke="#9a32cd" points="1912.5,-382.36 1902.39,-379.18 1908.31,-387.97 1912.5,-382.36"/>
<text text-anchor="middle" x="2005" y="-460.5" font-family="Helvetica,sans-Serif" font-size="10.00"> result_view_</text>
</g>
<!-- Node2 -->
<g id="node2" class="node">
<title>Node2</title>
<g id="a_node2"><a xlink:title=" ">
<polygon fill="white" stroke="#bfbfbf" points="716.5,-458 716.5,-477 786.5,-477 786.5,-458 716.5,-458"/>
<text text-anchor="middle" x="751.5" y="-465" font-family="Helvetica,sans-Serif" font-size="10.00">views::View</text>
</a>
</g>
</g>
<!-- Node2&#45;&gt;Node1 -->
<g id="edge1" class="edge">
<title>Node2&#45;&gt;Node1</title>
<path fill="none" stroke="midnightblue" d="M796.67,-463.35C868.49,-456.98 1015.07,-445.5 1139.5,-445.5 1139.5,-445.5 1139.5,-445.5 1590.5,-445.5 1696.58,-445.5 1817.51,-399.58 1866.1,-379.13"/>
<polygon fill="midnightblue" stroke="midnightblue" points="796.28,-459.87 786.63,-464.25 796.9,-466.85 796.28,-459.87"/>
</g>
<!-- Node4 -->
<g id="node4" class="node">
<title>Node4</title>
<g id="a_node4"><a xlink:href="../../d2/d0b/classOmniboxMatchCellView.html" target="_top" xlink:title=" ">
<polygon fill="white" stroke="black" points="2339,-414 2339,-433 2461,-433 2461,-414 2339,-414"/>
<text text-anchor="middle" x="2400" y="-421" font-family="Helvetica,sans-Serif" font-size="10.00">OmniboxMatchCellView</text>
</a>
</g>
</g>
<!-- Node2&#45;&gt;Node4 -->
<g id="edge4" class="edge">
<title>Node2&#45;&gt;Node4</title>
<path fill="none" stroke="midnightblue" d="M773.64,-483.06C790.16,-494.58 814.09,-509.87 837,-519.5 904.77,-547.99 923.98,-559.5 997.5,-559.5 997.5,-559.5 997.5,-559.5 2150,-559.5 2255.41,-559.5 2358.59,-464.46 2389.6,-433.28"/>
<polygon fill="midnightblue" stroke="midnightblue" points="775.46,-480.06 765.28,-477.12 771.4,-485.76 775.46,-480.06"/>
</g>
<!-- Node2&#45;&gt;Node5 -->
<g id="edge6" class="edge">
<title>Node2&#45;&gt;Node5</title>
<path fill="none" stroke="midnightblue" d="M796.79,-472.14C845.82,-476.86 927.21,-483.5 997.5,-483.5 997.5,-483.5 997.5,-483.5 1433.5,-483.5 1499.94,-483.5 1952.52,-441.77 2100.95,-427.91"/>
<polygon fill="midnightblue" stroke="midnightblue" points="796.83,-468.62 786.54,-471.13 796.15,-475.59 796.83,-468.62"/>
</g>
<!-- Node6 -->
<g id="node6" class="node">
<title>Node6</title>
<g id="a_node6"><a xlink:href="../../d3/d0a/classOmniboxSuggestionButtonRowView.html" target="_top" xlink:title=" ">
<polygon fill="white" stroke="black" points="1502,-300 1502,-319 1677,-319 1677,-300 1502,-300"/>
<text text-anchor="middle" x="1589.5" y="-307" font-family="Helvetica,sans-Serif" font-size="10.00">OmniboxSuggestionButtonRowView</text>
</a>
</g>
</g>
<!-- Node2&#45;&gt;Node6 -->
<g id="edge9" class="edge">
<title>Node2&#45;&gt;Node6</title>
<path fill="none" stroke="midnightblue" d="M790.08,-454.84C804.62,-450.23 821.48,-445.24 837,-441.5 969.57,-409.59 1374.94,-343.64 1528.6,-319.03"/>
<polygon fill="midnightblue" stroke="midnightblue" points="788.87,-451.55 780.42,-457.95 791.02,-458.21 788.87,-451.55"/>
</g>
<!-- Node17 -->
<g id="node17" class="node">
<title>Node17</title>
<g id="a_node17"><a xlink:href="../../d7/d88/classOmniboxPopupContentsView.html" target="_top" xlink:title=" ">
<polygon fill="white" stroke="black" points="926,-308 926,-327 1071,-327 1071,-308 926,-308"/>
<text text-anchor="middle" x="998.5" y="-315" font-family="Helvetica,sans-Serif" font-size="10.00">OmniboxPopupContentsView</text>
</a>
</g>
</g>
<!-- Node2&#45;&gt;Node17 -->
<g id="edge22" class="edge">
<title>Node2&#45;&gt;Node17</title>
<path fill="none" stroke="midnightblue" d="M775.26,-452.33C791.94,-441.58 815.36,-427.2 837,-416.5 867.4,-401.46 878.62,-405.45 908,-388.5 939.44,-370.37 971.67,-341.88 987.49,-327.1"/>
<polygon fill="midnightblue" stroke="midnightblue" points="773.2,-449.5 766.74,-457.89 777.03,-455.36 773.2,-449.5"/>
</g>
<!-- Node2&#45;&gt;Node26 -->
<g id="edge37" class="edge">
<title>Node2&#45;&gt;Node26</title>
<path fill="none" stroke="midnightblue" d="M785.09,-480.73C800.6,-486.59 819.53,-493.14 837,-497.5 906.98,-514.98 925.37,-521.5 997.5,-521.5 997.5,-521.5 997.5,-521.5 1890,-521.5 1957.98,-521.5 2035.53,-512.45 2087.7,-505.03"/>
<polygon fill="midnightblue" stroke="midnightblue" points="786.03,-477.34 775.44,-477 783.51,-483.87 786.03,-477.34"/>
</g>
<!-- Node3 -->
<g id="node3" class="node">
<title>Node3</title>
<g id="a_node3"><a xlink:title=" ">
<polygon fill="white" stroke="#bfbfbf" points="1524,-58.5 1524,-88.5 1655,-88.5 1655,-58.5 1524,-58.5"/>
<text text-anchor="start" x="1532" y="-76.5" font-family="Helvetica,sans-Serif" font-size="10.00">views::AnimationDelegate</text>
<text text-anchor="middle" x="1589.5" y="-65.5" font-family="Helvetica,sans-Serif" font-size="10.00">Views</text>
</a>
</g>
</g>
<!-- Node3&#45;&gt;Node1 -->
<g id="edge2" class="edge">
<title>Node3&#45;&gt;Node1</title>
<path fill="none" stroke="midnightblue" d="M1665.26,-60.43C1714.25,-56.3 1776.65,-60.06 1818,-95.5 1859.85,-131.36 1882.13,-315.04 1886.98,-359.7"/>
<polygon fill="midnightblue" stroke="midnightblue" points="1664.64,-56.98 1655.02,-61.43 1665.31,-63.94 1664.64,-56.98"/>
</g>
<!-- Node4&#45;&gt;Node1 -->
<g id="edge3" class="edge">
<title>Node4&#45;&gt;Node1</title>
<path fill="none" stroke="#9a32cd" stroke-dasharray="5,2" d="M2357.89,-411.08C2323.94,-401.42 2274.31,-388.66 2230,-382.5 2128.78,-368.43 2009.09,-367.44 1942.13,-368.28"/>
<polygon fill="#9a32cd" stroke="#9a32cd" points="2357.32,-414.56 2367.9,-413.97 2359.26,-407.84 2357.32,-414.56"/>
<text text-anchor="middle" x="2149" y="-396.5" font-family="Helvetica,sans-Serif" font-size="10.00"> keyword_view_</text>
<text text-anchor="middle" x="2149" y="-385.5" font-family="Helvetica,sans-Serif" font-size="10.00">suggestion_view_</text>
</g>
<!-- Node5&#45;&gt;Node4 -->
<g id="edge5" class="edge">
<title>Node5&#45;&gt;Node4</title>
<path fill="none" stroke="#9a32cd" stroke-dasharray="5,2" d="M2207.36,-423.5C2246.73,-423.5 2298.88,-423.5 2338.84,-423.5"/>
<polygon fill="#9a32cd" stroke="#9a32cd" points="2207.13,-420 2197.13,-423.5 2207.13,-427 2207.13,-420"/>
<text text-anchor="middle" x="2284.5" y="-459.5" font-family="Helvetica,sans-Serif" font-size="10.00"> content_view_</text>
<text text-anchor="start" x="2248" y="-448.5" font-family="Helvetica,sans-Serif" font-size="10.00">description_view</text>
<text text-anchor="middle" x="2284.5" y="-437.5" font-family="Helvetica,sans-Serif" font-size="10.00">_</text>
<text text-anchor="middle" x="2284.5" y="-426.5" font-family="Helvetica,sans-Serif" font-size="10.00">separator_view_</text>
</g>
<!-- Node6&#45;&gt;Node1 -->
<g id="edge8" class="edge">
<title>Node6&#45;&gt;Node1</title>
<path fill="none" stroke="#9a32cd" stroke-dasharray="5,2" d="M1647.76,-321.05C1703.81,-332.35 1788.19,-349.37 1840.59,-359.94"/>
<polygon fill="#9a32cd" stroke="#9a32cd" points="1648.13,-317.55 1637.64,-319.01 1646.75,-324.42 1648.13,-317.55"/>
<text text-anchor="middle" x="1756.5" y="-357.5" font-family="Helvetica,sans-Serif" font-size="10.00"> button_row_</text>
</g>
<!-- Node7 -->
<g id="node7" class="node">
<title>Node7</title>
<g id="a_node7"><a xlink:href="../../d0/d22/classOmniboxEditModel.html" target="_top" xlink:title=" ">
<polygon fill="white" stroke="black" points="702,-192 702,-211 801,-211 801,-192 702,-192"/>
<text text-anchor="middle" x="751.5" y="-199" font-family="Helvetica,sans-Serif" font-size="10.00">OmniboxEditModel</text>
</a>
</g>
</g>
<!-- Node7&#45;&gt;Node1 -->
<g id="edge43" class="edge">
<title>Node7&#45;&gt;Node1</title>
<path fill="none" stroke="#9a32cd" stroke-dasharray="5,2" d="M811.39,-190.59C936.92,-169.39 1239.31,-129.36 1484,-184.5 1646.18,-221.05 1821.6,-327.16 1873.04,-359.82"/>
<polygon fill="#9a32cd" stroke="#9a32cd" points="810.5,-187.19 801.23,-192.33 811.68,-194.09 810.5,-187.19"/>
<text text-anchor="middle" x="1286.5" y="-167.5" font-family="Helvetica,sans-Serif" font-size="10.00"> model_</text>
</g>
<!-- Node7&#45;&gt;Node6 -->
<g id="edge10" class="edge">
<title>Node7&#45;&gt;Node6</title>
<path fill="none" stroke="#9a32cd" stroke-dasharray="5,2" d="M811.38,-212.82C844.87,-218.88 887.65,-226.01 926,-230.5 1043.69,-244.28 1074.22,-235.48 1192,-248.5 1315.91,-262.2 1460.39,-286.56 1536.1,-299.98"/>
<polygon fill="#9a32cd" stroke="#9a32cd" points="811.77,-209.33 801.3,-210.97 810.51,-216.21 811.77,-209.33"/>
<text text-anchor="middle" x="1140.5" y="-251.5" font-family="Helvetica,sans-Serif" font-size="10.00"> model_</text>
</g>
<!-- Node7&#45;&gt;Node17 -->
<g id="edge33" class="edge">
<title>Node7&#45;&gt;Node17</title>
<path fill="none" stroke="#9a32cd" stroke-dasharray="5,2" d="M783.54,-215.05C799.41,-221.8 819.11,-229.91 837,-236.5 868.12,-247.97 878.05,-245.25 908,-259.5 937.26,-273.42 968.34,-295.41 985.08,-307.94"/>
<polygon fill="#9a32cd" stroke="#9a32cd" points="784.77,-211.77 774.2,-211.04 782.01,-218.2 784.77,-211.77"/>
<text text-anchor="middle" x="872.5" y="-262.5" font-family="Helvetica,sans-Serif" font-size="10.00"> edit_model_</text>
</g>
<!-- Node8 -->
<g id="node8" class="node">
<title>Node8</title>
<g id="a_node8"><a xlink:href="../../dc/d81/classOmniboxEditController.html" target="_top" xlink:title=" ">
<polygon fill="white" stroke="black" points="185.5,-175 185.5,-194 300.5,-194 300.5,-175 185.5,-175"/>
<text text-anchor="middle" x="243" y="-182" font-family="Helvetica,sans-Serif" font-size="10.00">OmniboxEditController</text>
</a>
</g>
</g>
<!-- Node8&#45;&gt;Node7 -->
<g id="edge11" class="edge">
<title>Node8&#45;&gt;Node7</title>
<path fill="none" stroke="#9a32cd" stroke-dasharray="5,2" d="M310.7,-180.87C338.6,-179.52 371.36,-178.16 401,-177.5 467.21,-176.02 483.9,-173.56 550,-177.5 601.97,-180.6 661.11,-188.18 701.62,-194"/>
<polygon fill="#9a32cd" stroke="#9a32cd" points="310.48,-177.38 300.66,-181.36 310.82,-184.37 310.48,-177.38"/>
<text text-anchor="middle" x="475.5" y="-180.5" font-family="Helvetica,sans-Serif" font-size="10.00"> controller_</text>
</g>
<!-- Node12 -->
<g id="node12" class="node">
<title>Node12</title>
<g id="a_node12"><a xlink:href="../../d9/d1e/classOmniboxView.html" target="_top" xlink:title=" ">
<polygon fill="white" stroke="black" points="437,-318 437,-337 514,-337 514,-318 437,-318"/>
<text text-anchor="middle" x="475.5" y="-325" font-family="Helvetica,sans-Serif" font-size="10.00">OmniboxView</text>
</a>
</g>
</g>
<!-- Node8&#45;&gt;Node12 -->
<g id="edge16" class="edge">
<title>Node8&#45;&gt;Node12</title>
<path fill="none" stroke="#9a32cd" stroke-dasharray="5,2" d="M260.35,-201.33C287.23,-228.03 343.52,-279.97 401,-308.5 412.1,-314.01 424.95,-318.03 436.78,-320.92"/>
<polygon fill="#9a32cd" stroke="#9a32cd" points="262.81,-198.84 253.28,-194.21 257.84,-203.77 262.81,-198.84"/>
<text text-anchor="middle" x="358.5" y="-300.5" font-family="Helvetica,sans-Serif" font-size="10.00"> controller_</text>
</g>
<!-- Node9 -->
<g id="node9" class="node">
<title>Node9</title>
<g id="a_node9"><a xlink:title=" ">
<polygon fill="white" stroke="#bfbfbf" points="0,-169.5 0,-199.5 133,-199.5 133,-169.5 0,-169.5"/>
<text text-anchor="start" x="8" y="-187.5" font-family="Helvetica,sans-Serif" font-size="10.00">base::SupportsWeakPtr</text>
<text text-anchor="middle" x="66.5" y="-176.5" font-family="Helvetica,sans-Serif" font-size="10.00">&lt; OmniboxEditController &gt;</text>
</a>
</g>
</g>
<!-- Node9&#45;&gt;Node8 -->
<g id="edge12" class="edge">
<title>Node9&#45;&gt;Node8</title>
<path fill="none" stroke="midnightblue" d="M143.59,-184.5C157.62,-184.5 172.03,-184.5 185.35,-184.5"/>
<polygon fill="midnightblue" stroke="midnightblue" points="143.47,-181 133.47,-184.5 143.47,-188 143.47,-181"/>
</g>
<!-- Node10 -->
<g id="node10" class="node">
<title>Node10</title>
<g id="a_node10"><a xlink:href="../../d5/d39/structSplitAutocompletion.html" target="_top" xlink:title=" ">
<polygon fill="white" stroke="black" points="423.5,-59 423.5,-78 527.5,-78 527.5,-59 423.5,-59"/>
<text text-anchor="middle" x="475.5" y="-66" font-family="Helvetica,sans-Serif" font-size="10.00">SplitAutocompletion</text>
</a>
</g>
</g>
<!-- Node10&#45;&gt;Node7 -->
<g id="edge13" class="edge">
<title>Node10&#45;&gt;Node7</title>
<path fill="none" stroke="#9a32cd" stroke-dasharray="5,2" d="M537.94,-71.82C576.81,-76.18 626.91,-86.08 666,-108.5 702.9,-129.66 732.61,-172.54 744.68,-191.78"/>
<polygon fill="#9a32cd" stroke="#9a32cd" points="538.11,-68.32 527.81,-70.78 537.4,-75.28 538.11,-68.32"/>
<text text-anchor="middle" x="617" y="-111.5" font-family="Helvetica,sans-Serif" font-size="10.00"> split_autocompletion_</text>
</g>
<!-- Node27 -->
<g id="node27" class="node">
<title>Node27</title>
<g id="a_node27"><a xlink:href="../../dc/d8f/structAutocompleteMatch.html" target="_top" xlink:title=" ">
<polygon fill="white" stroke="black" points="699.5,-20 699.5,-39 803.5,-39 803.5,-20 699.5,-20"/>
<text text-anchor="middle" x="751.5" y="-27" font-family="Helvetica,sans-Serif" font-size="10.00">AutocompleteMatch</text>
</a>
</g>
</g>
<!-- Node10&#45;&gt;Node27 -->
<g id="edge40" class="edge">
<title>Node10&#45;&gt;Node27</title>
<path fill="none" stroke="#9a32cd" stroke-dasharray="5,2" d="M531.05,-57.03C543.18,-54.69 556,-52.37 568,-50.5 612.12,-43.63 662.56,-38 699.22,-34.3"/>
<polygon fill="#9a32cd" stroke="#9a32cd" points="530.19,-53.63 521.05,-59 531.54,-60.5 530.19,-53.63"/>
<text text-anchor="middle" x="617" y="-53.5" font-family="Helvetica,sans-Serif" font-size="10.00"> split_autocompletion</text>
</g>
<!-- Node11 -->
<g id="node11" class="node">
<title>Node11</title>
<g id="a_node11"><a xlink:href="../../db/de1/classOmniboxPopupView.html" target="_top" xlink:title=" ">
<polygon fill="white" stroke="black" points="423,-239 423,-258 528,-258 528,-239 423,-239"/>
<text text-anchor="middle" x="475.5" y="-246" font-family="Helvetica,sans-Serif" font-size="10.00">OmniboxPopupView</text>
</a>
</g>
</g>
<!-- Node11&#45;&gt;Node7 -->
<g id="edge14" class="edge">
<title>Node11&#45;&gt;Node7</title>
<path fill="none" stroke="#9a32cd" stroke-dasharray="5,2" d="M537.99,-237.95C587.53,-229.45 656.22,-217.67 701.95,-209.83"/>
<polygon fill="#9a32cd" stroke="#9a32cd" points="537.3,-234.52 528.04,-239.66 538.49,-241.42 537.3,-234.52"/>
<text text-anchor="middle" x="617" y="-234.5" font-family="Helvetica,sans-Serif" font-size="10.00"> popup_view_</text>
</g>
<!-- Node11&#45;&gt;Node17 -->
<g id="edge23" class="edge">
<title>Node11&#45;&gt;Node17</title>
<path fill="none" stroke="midnightblue" d="M525.11,-261.11C533.55,-263.85 542.13,-266.99 550,-270.5 558.56,-274.32 559.09,-278.59 568,-281.5 576.39,-284.24 805.89,-302.51 925.89,-311.92"/>
<polygon fill="midnightblue" stroke="midnightblue" points="525.91,-257.7 515.33,-258.09 523.85,-264.39 525.91,-257.7"/>
</g>
<!-- Node12&#45;&gt;Node7 -->
<g id="edge15" class="edge">
<title>Node12&#45;&gt;Node7</title>
<path fill="none" stroke="#9a32cd" stroke-dasharray="5,2" d="M523.85,-317.03C532.66,-314.58 541.7,-311.73 550,-308.5 622.79,-280.13 702.92,-231.64 735.5,-211.12"/>
<polygon fill="#9a32cd" stroke="#9a32cd" points="522.83,-313.68 514.06,-319.61 524.62,-320.45 522.83,-313.68"/>
<text text-anchor="middle" x="617" y="-301.5" font-family="Helvetica,sans-Serif" font-size="10.00"> view_</text>
</g>
<!-- Node21 -->
<g id="node21" class="node">
<title>Node21</title>
<g id="a_node21"><a xlink:href="../../d0/d94/classOmniboxViewViews.html" target="_top" xlink:title=" ">
<polygon fill="white" stroke="black" points="699.5,-391 699.5,-410 803.5,-410 803.5,-391 699.5,-391"/>
<text text-anchor="middle" x="751.5" y="-398" font-family="Helvetica,sans-Serif" font-size="10.00">OmniboxViewViews</text>
</a>
</g>
</g>
<!-- Node12&#45;&gt;Node21 -->
<g id="edge28" class="edge">
<title>Node12&#45;&gt;Node21</title>
<path fill="none" stroke="midnightblue" d="M524.03,-337.88C562.54,-346.56 618.06,-359.72 666,-373.5 674.1,-375.83 675.98,-376.9 684,-379.5 695.75,-383.31 708.69,-387.42 720.01,-390.98"/>
<polygon fill="midnightblue" stroke="midnightblue" points="524.66,-334.43 514.14,-335.66 523.13,-341.26 524.66,-334.43"/>
</g>
<!-- Node13 -->
<g id="node13" class="node">
<title>Node13</title>
<g id="a_node13"><a xlink:href="../../d9/df6/classAutocompleteInput.html" target="_top" xlink:title=" ">
<polygon fill="white" stroke="black" points="426.5,-198 426.5,-217 524.5,-217 524.5,-198 426.5,-198"/>
<text text-anchor="middle" x="475.5" y="-205" font-family="Helvetica,sans-Serif" font-size="10.00">AutocompleteInput</text>
</a>
</g>
</g>
<!-- Node13&#45;&gt;Node7 -->
<g id="edge17" class="edge">
<title>Node13&#45;&gt;Node7</title>
<path fill="none" stroke="#9a32cd" stroke-dasharray="5,2" d="M535.21,-203.86C546.11,-203.31 557.4,-202.82 568,-202.5 613.29,-201.14 664.93,-200.99 701.69,-201.12"/>
<polygon fill="#9a32cd" stroke="#9a32cd" points="534.72,-200.38 524.92,-204.41 535.09,-207.38 534.72,-200.38"/>
<text text-anchor="middle" x="617" y="-205.5" font-family="Helvetica,sans-Serif" font-size="10.00"> input_</text>
</g>
<!-- Node14 -->
<g id="node14" class="node">
<title>Node14</title>
<g id="a_node14"><a xlink:href="../../de/dfc/structOmniboxPopupSelection.html" target="_top" xlink:title=" ">
<polygon fill="white" stroke="black" points="413.5,-113 413.5,-132 537.5,-132 537.5,-113 413.5,-113"/>
<text text-anchor="middle" x="475.5" y="-120" font-family="Helvetica,sans-Serif" font-size="10.00">OmniboxPopupSelection</text>
</a>
</g>
</g>
<!-- Node14&#45;&gt;Node7 -->
<g id="edge18" class="edge">
<title>Node14&#45;&gt;Node7</title>
<path fill="none" stroke="#9a32cd" stroke-dasharray="5,2" d="M547.59,-122.21C583.99,-124.08 628.42,-129.53 666,-143.5 695.85,-154.6 725.27,-178.53 740.27,-191.93"/>
<polygon fill="#9a32cd" stroke="#9a32cd" points="547.7,-118.71 537.55,-121.78 547.39,-125.71 547.7,-118.71"/>
<text text-anchor="middle" x="617" y="-146.5" font-family="Helvetica,sans-Serif" font-size="10.00"> popup_selection_</text>
</g>
<!-- Node15 -->
<g id="node15" class="node">
<title>Node15</title>
<g id="a_node15"><a xlink:href="../../d0/da8/classOmniboxSuggestionRowButton.html" target="_top" xlink:title=" ">
<polygon fill="white" stroke="black" points="1210,-200 1210,-219 1363,-219 1363,-200 1210,-200"/>
<text text-anchor="middle" x="1286.5" y="-207" font-family="Helvetica,sans-Serif" font-size="10.00">OmniboxSuggestionRowButton</text>
</a>
</g>
</g>
<!-- Node14&#45;&gt;Node15 -->
<g id="edge34" class="edge">
<title>Node14&#45;&gt;Node15</title>
<path fill="none" stroke="#9a32cd" stroke-dasharray="5,2" d="M547.88,-120.64C583.42,-120.29 627.02,-120.7 666,-123.5 878.01,-138.71 1128.01,-180.94 1233.94,-199.98"/>
<polygon fill="#9a32cd" stroke="#9a32cd" points="547.55,-117.15 537.6,-120.77 547.64,-124.15 547.55,-117.15"/>
<text text-anchor="middle" x="872.5" y="-150.5" font-family="Helvetica,sans-Serif" font-size="10.00"> selection_</text>
</g>
<!-- Node15&#45;&gt;Node6 -->
<g id="edge19" class="edge">
<title>Node15&#45;&gt;Node6</title>
<path fill="none" stroke="#9a32cd" stroke-dasharray="5,2" d="M1331.36,-197.71C1372.48,-188.98 1434.84,-181.8 1484,-202.5 1532.34,-222.86 1569.46,-277.71 1582.97,-299.94"/>
<polygon fill="#9a32cd" stroke="#9a32cd" points="1330.37,-194.35 1321.38,-199.95 1331.9,-201.18 1330.37,-194.35"/>
<text text-anchor="middle" x="1432.5" y="-227.5" font-family="Helvetica,sans-Serif" font-size="10.00"> keyword_button_</text>
<text text-anchor="middle" x="1432.5" y="-216.5" font-family="Helvetica,sans-Serif" font-size="10.00">pedal_button_</text>
<text text-anchor="middle" x="1432.5" y="-205.5" font-family="Helvetica,sans-Serif" font-size="10.00">tab_switch_button_</text>
</g>
<!-- Node16 -->
<g id="node16" class="node">
<title>Node16</title>
<g id="a_node16"><a xlink:title=" ">
<polygon fill="white" stroke="#bfbfbf" points="944,-202 944,-221 1053,-221 1053,-202 944,-202"/>
<text text-anchor="middle" x="998.5" y="-209" font-family="Helvetica,sans-Serif" font-size="10.00">views::MdTextButton</text>
</a>
</g>
</g>
<!-- Node16&#45;&gt;Node15 -->
<g id="edge20" class="edge">
<title>Node16&#45;&gt;Node15</title>
<path fill="none" stroke="midnightblue" d="M1063.43,-211.05C1106.76,-210.75 1164.21,-210.35 1209.82,-210.03"/>
<polygon fill="midnightblue" stroke="midnightblue" points="1063.27,-207.55 1053.29,-211.12 1063.32,-214.55 1063.27,-207.55"/>
</g>
<!-- Node17&#45;&gt;Node1 -->
<g id="edge46" class="edge">
<title>Node17&#45;&gt;Node1</title>
<path fill="none" stroke="#9a32cd" stroke-dasharray="5,2" d="M1077,-328.22C1081.06,-328.68 1085.08,-329.11 1089,-329.5 1357.58,-356.34 1425.23,-360.61 1695,-369.5 1742.72,-371.07 1797.12,-370.9 1835.97,-370.43"/>
<polygon fill="#9a32cd" stroke="#9a32cd" points="1077.22,-324.72 1066.88,-327.03 1076.41,-331.67 1077.22,-324.72"/>
<text text-anchor="middle" x="1432.5" y="-363.5" font-family="Helvetica,sans-Serif" font-size="10.00"> popup_contents_view_</text>
</g>
<!-- Node17&#45;&gt;Node6 -->
<g id="edge35" class="edge">
<title>Node17&#45;&gt;Node6</title>
<path fill="none" stroke="#9a32cd" stroke-dasharray="5,2" d="M1081.24,-316.39C1191.86,-314.89 1388.39,-312.22 1501.61,-310.68"/>
<polygon fill="#9a32cd" stroke="#9a32cd" points="1081.09,-312.89 1071.13,-316.53 1081.18,-319.89 1081.09,-312.89"/>
<text text-anchor="middle" x="1286.5" y="-317.5" font-family="Helvetica,sans-Serif" font-size="10.00"> popup_contents_view_</text>
</g>
<!-- Node17&#45;&gt;Node15 -->
<g id="edge21" class="edge">
<title>Node17&#45;&gt;Node15</title>
<path fill="none" stroke="#9a32cd" stroke-dasharray="5,2" d="M1032.14,-304.27C1048.95,-297.76 1069.88,-290.13 1089,-284.5 1133.99,-271.25 1148.16,-278.18 1192,-261.5 1221.69,-250.2 1253.43,-230.8 1271.24,-219.16"/>
<polygon fill="#9a32cd" stroke="#9a32cd" points="1030.8,-301.04 1022.77,-307.95 1033.36,-307.55 1030.8,-301.04"/>
<text text-anchor="middle" x="1140.5" y="-287.5" font-family="Helvetica,sans-Serif" font-size="10.00"> popup_contents_view_</text>
</g>
<!-- Node18 -->
<g id="node18" class="node">
<title>Node18</title>
<g id="a_node18"><a xlink:title=" ">
<polygon fill="white" stroke="#bfbfbf" points="692,-351 692,-370 811,-370 811,-351 692,-351"/>
<text text-anchor="middle" x="751.5" y="-358" font-family="Helvetica,sans-Serif" font-size="10.00">views::WidgetObserver</text>
</a>
</g>
</g>
<!-- Node18&#45;&gt;Node17 -->
<g id="edge24" class="edge">
<title>Node18&#45;&gt;Node17</title>
<path fill="none" stroke="midnightblue" d="M816.89,-349.2C856.23,-342.29 905.96,-333.57 943.28,-327.02"/>
<polygon fill="midnightblue" stroke="midnightblue" points="816.12,-345.78 806.87,-350.96 817.33,-352.68 816.12,-345.78"/>
</g>
<!-- Node19 -->
<g id="node19" class="node">
<title>Node19</title>
<g id="a_node19"><a xlink:href="../../d0/d53/classWebUIOmniboxPopupView.html" target="_top" xlink:title=" ">
<polygon fill="white" stroke="black" points="684,-313 684,-332 819,-332 819,-313 684,-313"/>
<text text-anchor="middle" x="751.5" y="-320" font-family="Helvetica,sans-Serif" font-size="10.00">WebUIOmniboxPopupView</text>
</a>
</g>
</g>
<!-- Node19&#45;&gt;Node17 -->
<g id="edge25" class="edge">
<title>Node19&#45;&gt;Node17</title>
<path fill="none" stroke="#9a32cd" stroke-dasharray="5,2" d="M829.38,-318.73C831.95,-318.64 834.5,-318.57 837,-318.5 866.11,-317.72 898.2,-317.41 925.98,-317.32"/>
<polygon fill="#9a32cd" stroke="#9a32cd" points="829.24,-315.23 819.37,-319.08 829.49,-322.22 829.24,-315.23"/>
<text text-anchor="middle" x="872.5" y="-321.5" font-family="Helvetica,sans-Serif" font-size="10.00"> webui_view_</text>
</g>
<!-- Node20 -->
<g id="node20" class="node">
<title>Node20</title>
<g id="a_node20"><a xlink:title=" ">
<polygon fill="white" stroke="#bfbfbf" points="431,-280 431,-299 520,-299 520,-280 431,-280"/>
<text text-anchor="middle" x="475.5" y="-287" font-family="Helvetica,sans-Serif" font-size="10.00">views::WebView</text>
</a>
</g>
</g>
<!-- Node20&#45;&gt;Node19 -->
<g id="edge26" class="edge">
<title>Node20&#45;&gt;Node19</title>
<path fill="none" stroke="midnightblue" d="M530.28,-300.38C542.63,-302.64 555.74,-304.83 568,-306.5 606.13,-311.7 648.99,-315.56 683.58,-318.18"/>
<polygon fill="midnightblue" stroke="midnightblue" points="530.58,-296.88 520.11,-298.49 529.3,-303.76 530.58,-296.88"/>
</g>
<!-- Node21&#45;&gt;Node17 -->
<g id="edge27" class="edge">
<title>Node21&#45;&gt;Node17</title>
<path fill="none" stroke="#9a32cd" stroke-dasharray="5,2" d="M797.1,-388.16C828.37,-379.23 871.03,-366.49 908,-353.5 931.23,-345.34 957.29,-334.68 975.27,-327.08"/>
<polygon fill="#9a32cd" stroke="#9a32cd" points="796.04,-384.82 787.37,-390.92 797.95,-391.56 796.04,-384.82"/>
<text text-anchor="middle" x="872.5" y="-377.5" font-family="Helvetica,sans-Serif" font-size="10.00"> omnibox_view_</text>
</g>
<!-- Node22 -->
<g id="node22" class="node">
<title>Node22</title>
<g id="a_node22"><a xlink:title=" ">
<polygon fill="white" stroke="#bfbfbf" points="433,-470 433,-489 518,-489 518,-470 433,-470"/>
<text text-anchor="middle" x="475.5" y="-477" font-family="Helvetica,sans-Serif" font-size="10.00">views::Textfield</text>
</a>
</g>
</g>
<!-- Node22&#45;&gt;Node21 -->
<g id="edge29" class="edge">
<title>Node22&#45;&gt;Node21</title>
<path fill="none" stroke="midnightblue" d="M528,-469.93C566.46,-462.21 620.09,-450.23 666,-435.5 688.38,-428.32 713.12,-417.75 730.02,-410.1"/>
<polygon fill="midnightblue" stroke="midnightblue" points="527.19,-466.52 518.06,-471.9 528.55,-473.39 527.19,-466.52"/>
</g>
<!-- Node23 -->
<g id="node23" class="node">
<title>Node23</title>
<g id="a_node23"><a xlink:title=" ">
<polygon fill="white" stroke="#bfbfbf" points="412,-432 412,-451 539,-451 539,-432 412,-432"/>
<text text-anchor="middle" x="475.5" y="-439" font-family="Helvetica,sans-Serif" font-size="10.00">views::TextfieldController</text>
</a>
</g>
</g>
<!-- Node23&#45;&gt;Node21 -->
<g id="edge30" class="edge">
<title>Node23&#45;&gt;Node21</title>
<path fill="none" stroke="midnightblue" d="M549.53,-432.16C584.77,-427.48 627.63,-421.53 666,-415.5 676.74,-413.81 688.23,-411.86 699.17,-409.95"/>
<polygon fill="midnightblue" stroke="midnightblue" points="548.78,-428.73 539.33,-433.51 549.7,-435.67 548.78,-428.73"/>
</g>
<!-- Node24 -->
<g id="node24" class="node">
<title>Node24</title>
<g id="a_node24"><a xlink:title=" ">
<polygon fill="white" stroke="#bfbfbf" points="415.5,-394 415.5,-413 535.5,-413 535.5,-394 415.5,-394"/>
<text text-anchor="middle" x="475.5" y="-401" font-family="Helvetica,sans-Serif" font-size="10.00">ui::CompositorObserver</text>
</a>
</g>
</g>
<!-- Node24&#45;&gt;Node21 -->
<g id="edge31" class="edge">
<title>Node24&#45;&gt;Node21</title>
<path fill="none" stroke="midnightblue" d="M545.88,-402.74C593.65,-402.22 656.05,-401.53 699.32,-401.06"/>
<polygon fill="midnightblue" stroke="midnightblue" points="545.58,-399.24 535.62,-402.85 545.65,-406.24 545.58,-399.24"/>
</g>
<!-- Node25 -->
<g id="node25" class="node">
<title>Node25</title>
<g id="a_node25"><a xlink:title=" ">
<polygon fill="white" stroke="#bfbfbf" points="401,-356 401,-375 550,-375 550,-356 401,-356"/>
<text text-anchor="middle" x="475.5" y="-363" font-family="Helvetica,sans-Serif" font-size="10.00">TemplateURLServiceObserver</text>
</a>
</g>
</g>
<!-- Node25&#45;&gt;Node21 -->
<g id="edge32" class="edge">
<title>Node25&#45;&gt;Node21</title>
<path fill="none" stroke="midnightblue" d="M560.4,-376.22C605.69,-382 660.14,-388.96 699.14,-393.94"/>
<polygon fill="midnightblue" stroke="midnightblue" points="560.65,-372.72 550.29,-374.93 559.76,-379.66 560.65,-372.72"/>
</g>
<!-- Node26&#45;&gt;Node1 -->
<g id="edge36" class="edge">
<title>Node26&#45;&gt;Node1</title>
<path fill="none" stroke="#9a32cd" stroke-dasharray="5,2" d="M2057.9,-492.05C2018.11,-489.1 1976.62,-483.63 1960,-473.5 1923.02,-450.96 1901.23,-400.62 1893.37,-379.32"/>
<polygon fill="#9a32cd" stroke="#9a32cd" points="2057.75,-495.54 2067.97,-492.74 2058.23,-488.56 2057.75,-495.54"/>
<text text-anchor="middle" x="2005" y="-493.5" font-family="Helvetica,sans-Serif" font-size="10.00"> selection_indicator_</text>
</g>
<!-- Node27&#45;&gt;Node1 -->
<g id="edge39" class="edge">
<title>Node27&#45;&gt;Node1</title>
<path fill="none" stroke="#9a32cd" stroke-dasharray="5,2" d="M813.88,-29.5C863.43,-29.5 934.96,-29.5 997.5,-29.5 997.5,-29.5 997.5,-29.5 1590.5,-29.5 1692.27,-29.5 1742.34,12.57 1818,-55.5 1865.13,-97.9 1883.72,-311.99 1887.32,-359.96"/>
<polygon fill="#9a32cd" stroke="#9a32cd" points="813.65,-26 803.65,-29.5 813.65,-33 813.65,-26"/>
<text text-anchor="middle" x="1286.5" y="-32.5" font-family="Helvetica,sans-Serif" font-size="10.00"> match_</text>
</g>
<!-- Node28 -->
<g id="node28" class="node">
<title>Node28</title>
<g id="a_node28"><a xlink:href="../../dd/de9/classAutocompleteProvider.html" target="_top" xlink:title=" ">
<polygon fill="white" stroke="black" points="419,-6 419,-25 532,-25 532,-6 419,-6"/>
<text text-anchor="middle" x="475.5" y="-13" font-family="Helvetica,sans-Serif" font-size="10.00">AutocompleteProvider</text>
</a>
</g>
</g>
<!-- Node28&#45;&gt;Node27 -->
<g id="edge41" class="edge">
<title>Node28&#45;&gt;Node27</title>
<path fill="none" stroke="#9a32cd" stroke-dasharray="5,2" d="M542.18,-13.47C578.69,-12.94 624.93,-13.25 666,-16.5 676.8,-17.35 688.31,-18.78 699.25,-20.38"/>
<polygon fill="#9a32cd" stroke="#9a32cd" points="542.09,-9.97 532.15,-13.64 542.2,-16.97 542.09,-9.97"/>
<text text-anchor="middle" x="617" y="-19.5" font-family="Helvetica,sans-Serif" font-size="10.00"> provider</text>
</g>
<!-- Node29 -->
<g id="node29" class="node">
<title>Node29</title>
<g id="a_node29"><a xlink:title=" ">
<polygon fill="white" stroke="#bfbfbf" points="170,-0.5 170,-30.5 316,-30.5 316,-0.5 170,-0.5"/>
<text text-anchor="start" x="178" y="-18.5" font-family="Helvetica,sans-Serif" font-size="10.00">base::RefCountedThreadSafe</text>
<text text-anchor="middle" x="243" y="-7.5" font-family="Helvetica,sans-Serif" font-size="10.00">&lt; AutocompleteProvider &gt;</text>
</a>
</g>
</g>
<!-- Node29&#45;&gt;Node28 -->
<g id="edge42" class="edge">
<title>Node29&#45;&gt;Node28</title>
<path fill="none" stroke="midnightblue" d="M326.55,-15.5C357.21,-15.5 391.23,-15.5 418.92,-15.5"/>
<polygon fill="midnightblue" stroke="midnightblue" points="326.3,-12 316.3,-15.5 326.3,-19 326.3,-12"/>
</g>
<!-- Node30 -->
<g id="node30" class="node">
<title>Node30</title>
<g id="a_node30"><a xlink:href="../../da/de3/classOmniboxMouseEnterExitHandler.html" target="_top" xlink:title=" ">
<polygon fill="white" stroke="black" points="1510,-108 1510,-127 1669,-127 1669,-108 1510,-108"/>
<text text-anchor="middle" x="1589.5" y="-115" font-family="Helvetica,sans-Serif" font-size="10.00">OmniboxMouseEnterExitHandler</text>
</a>
</g>
</g>
<!-- Node30&#45;&gt;Node1 -->
<g id="edge44" class="edge">
<title>Node30&#45;&gt;Node1</title>
<path fill="none" stroke="#9a32cd" stroke-dasharray="5,2" d="M1636.82,-105.89C1687.04,-96.24 1766.86,-89.86 1818,-130.5 1855.66,-160.43 1880.73,-318.87 1886.65,-359.83"/>
<polygon fill="#9a32cd" stroke="#9a32cd" points="1635.98,-102.49 1626.88,-107.91 1637.37,-109.35 1635.98,-102.49"/>
<text text-anchor="middle" x="1756.5" y="-133.5" font-family="Helvetica,sans-Serif" font-size="10.00"> mouse_enter_exit_handler_</text>
</g>
<!-- Node31 -->
<g id="node31" class="node">
<title>Node31</title>
<g id="a_node31"><a xlink:title=" ">
<polygon fill="white" stroke="#bfbfbf" points="1242,-100 1242,-119 1331,-119 1331,-100 1242,-100"/>
<text text-anchor="middle" x="1286.5" y="-107" font-family="Helvetica,sans-Serif" font-size="10.00">ui::EventHandler</text>
</a>
</g>
</g>
<!-- Node31&#45;&gt;Node30 -->
<g id="edge45" class="edge">
<title>Node31&#45;&gt;Node30</title>
<path fill="none" stroke="midnightblue" d="M1341.52,-110.94C1388.44,-112.18 1456.97,-114 1509.94,-115.41"/>
<polygon fill="midnightblue" stroke="midnightblue" points="1341.36,-107.43 1331.27,-110.66 1341.17,-114.43 1341.36,-107.43"/>
</g>
</g>
</svg>
        <g id="navigator" transform="translate(0 0)" fill="#404254">
                <rect fill="#f2f5e9" fill-opacity="0.5" stroke="#606060" stroke-width=".5" x="0" y="0" width="60" height="60"/>
                <use id="zoomplus" xlink:href="#zoomPlus" x="17" y="9" onmousedown="handleZoom(evt,'in')"/>
                <use id="zoomminus" xlink:href="#zoomMin" x="42" y="9" onmousedown="handleZoom(evt,'out')"/>
                <use id="reset" xlink:href="#resetDef" x="30" y="36" onmousedown="handleReset()"/>
                <g id="arrowUp" xlink:href="#dirArrow" transform="translate(30 24)" onmousedown="handlePan(0,-1)">
                  <use xlink:href="#rim" fill="#404040">
                        <set attributeName="fill" to="#808080" begin="arrowUp.mouseover" end="arrowUp.mouseout"/>
                  </use>
                  <path fill="none" stroke="white" stroke-width="1.5" d="M0,-3.0v7 M-2.5,-0.5L0,-3.0L2.5,-0.5"/>
                </g>
                <g id="arrowRight" xlink:href="#dirArrow" transform="rotate(90) translate(36 -43)" onmousedown="handlePan(1,0)">
                  <use xlink:href="#rim" fill="#404040">
                        <set attributeName="fill" to="#808080" begin="arrowRight.mouseover" end="arrowRight.mouseout"/>
                  </use>
                  <path fill="none" stroke="white" stroke-width="1.5" d="M0,-3.0v7 M-2.5,-0.5L0,-3.0L2.5,-0.5"/>
                </g>
                <g id="arrowDown" xlink:href="#dirArrow" transform="rotate(180) translate(-30 -48)" onmousedown="handlePan(0,1)">
                  <use xlink:href="#rim" fill="#404040">
                        <set attributeName="fill" to="#808080" begin="arrowDown.mouseover" end="arrowDown.mouseout"/>
                  </use>
                  <path fill="none" stroke="white" stroke-width="1.5" d="M0,-3.0v7 M-2.5,-0.5L0,-3.0L2.5,-0.5"/>
                </g>
                <g id="arrowLeft" xlink:href="#dirArrow" transform="rotate(270) translate(-36 17)" onmousedown="handlePan(-1,0)">
                  <use xlink:href="#rim" fill="#404040">
                        <set attributeName="fill" to="#808080" begin="arrowLeft.mouseover" end="arrowLeft.mouseout"/>
                  </use>
                  <path fill="none" stroke="white" stroke-width="1.5" d="M0,-3.0v7 M-2.5,-0.5L0,-3.0L2.5,-0.5"/>
                </g>
        </g>
        <svg viewBox="0 0 15 15" width="100%" height="30px" preserveAspectRatio="xMaxYMin meet">
         <g id="arrow_out" transform="scale(0.3 0.3)">
          <a xlink:href="classOmniboxResultView__coll__graph_org.svg" target="_base">
           <rect id="button" ry="5" rx="5" y="6" x="6" height="38" width="38"
                fill="#f2f5e9" fill-opacity="0.5" stroke="#606060" stroke-width="1.0"/>
           <path id="arrow"
             d="M 11.500037,31.436501 C 11.940474,20.09759 22.043105,11.32322 32.158766,21.979434 L 37.068811,17.246167 C 37.068811,17.246167 37.088388,32 37.088388,32 L 22.160133,31.978069 C 22.160133,31.978069 26.997745,27.140456 26.997745,27.140456 C 18.528582,18.264221 13.291696,25.230495 11.500037,31.436501 z"
             style="fill:#404040;"/>
          </a>
         </g>
        </svg>
</svg>
