<?xml version="1.0" encoding="UTF-8" standalone="no"?>
<!DOCTYPE svg PUBLIC "-//W3C//DTD SVG 1.1//EN"
 "http://www.w3.org/Graphics/SVG/1.1/DTD/svg11.dtd">
<!-- Generated by graphviz version 2.43.0 (0)
 -->
<!-- Title: AlternateNavInfoBarDelegate::CreateInfoBar Pages: 1 -->
<svg width="949pt" height="39pt"
 viewBox="0.00 0.00 949.00 39.00" xmlns="http://www.w3.org/2000/svg" xmlns:xlink="http://www.w3.org/1999/xlink">
<g id="graph0" class="graph" transform="scale(1 1) rotate(0) translate(4 35)">
<title>AlternateNavInfoBarDelegate::CreateInfoBar</title>
<polygon fill="white" stroke="transparent" points="-4,4 -4,-35 945,-35 945,4 -4,4"/>
<!-- Node1 -->
<g id="node1" class="node">
<title>Node1</title>
<g id="a_node1"><a xlink:title=" ">
<polygon fill="#bfbfbf" stroke="black" points="797,-0.5 797,-30.5 941,-30.5 941,-0.5 797,-0.5"/>
<text text-anchor="start" x="805" y="-18.5" font-family="Helvetica,sans-Serif" font-size="10.00">AlternateNavInfoBarDelegate</text>
<text text-anchor="middle" x="869" y="-7.5" font-family="Helvetica,sans-Serif" font-size="10.00">::CreateInfoBar</text>
</a>
</g>
</g>
<!-- Node2 -->
<g id="node2" class="node">
<title>Node2</title>
<g id="a_node2"><a xlink:href="../../d9/db7/classAlternateNavInfoBarDelegate.html#a1c2d4722da316d144fc08d95d0dc1176" target="_top" xlink:title=" ">
<polygon fill="white" stroke="black" points="609,-0.5 609,-30.5 761,-30.5 761,-0.5 609,-0.5"/>
<text text-anchor="start" x="617" y="-18.5" font-family="Helvetica,sans-Serif" font-size="10.00">AlternateNavInfoBarDelegate</text>
<text text-anchor="middle" x="685" y="-7.5" font-family="Helvetica,sans-Serif" font-size="10.00">::CreateForOmniboxNavigation</text>
</a>
</g>
</g>
<!-- Node1&#45;&gt;Node2 -->
<g id="edge1" class="edge">
<title>Node1&#45;&gt;Node2</title>
<path fill="none" stroke="midnightblue" d="M786.83,-15.5C778.24,-15.5 769.52,-15.5 761,-15.5"/>
<polygon fill="midnightblue" stroke="midnightblue" points="786.85,-19 796.85,-15.5 786.85,-12 786.85,-19"/>
</g>
<!-- Node3 -->
<g id="node3" class="node">
<title>Node3</title>
<g id="a_node3"><a xlink:href="../../d3/da9/classChromeOmniboxNavigationObserver.html#add3c57c9404fca2275a0996106803a1d" target="_top" xlink:title=" ">
<polygon fill="white" stroke="black" points="397,-0.5 397,-30.5 573,-30.5 573,-0.5 397,-0.5"/>
<text text-anchor="start" x="405" y="-18.5" font-family="Helvetica,sans-Serif" font-size="10.00">ChromeOmniboxNavigationObserver</text>
<text text-anchor="middle" x="485" y="-7.5" font-family="Helvetica,sans-Serif" font-size="10.00">::ShowAlternativeNavInfoBar</text>
</a>
</g>
</g>
<!-- Node2&#45;&gt;Node3 -->
<g id="edge2" class="edge">
<title>Node2&#45;&gt;Node3</title>
<path fill="none" stroke="midnightblue" d="M598.61,-15.5C590.14,-15.5 581.53,-15.5 573.03,-15.5"/>
<polygon fill="midnightblue" stroke="midnightblue" points="598.86,-19 608.86,-15.5 598.86,-12 598.86,-19"/>
</g>
<!-- Node4 -->
<g id="node4" class="node">
<title>Node4</title>
<g id="a_node4"><a xlink:href="../../d3/da9/classChromeOmniboxNavigationObserver.html#a1936f36234acf72d36ec5cdd9f95ad9b" target="_top" xlink:title=" ">
<polygon fill="white" stroke="black" points="185,-0.5 185,-30.5 361,-30.5 361,-0.5 185,-0.5"/>
<text text-anchor="start" x="193" y="-18.5" font-family="Helvetica,sans-Serif" font-size="10.00">ChromeOmniboxNavigationObserver</text>
<text text-anchor="middle" x="273" y="-7.5" font-family="Helvetica,sans-Serif" font-size="10.00">::Create</text>
</a>
</g>
</g>
<!-- Node3&#45;&gt;Node4 -->
<g id="edge3" class="edge">
<title>Node3&#45;&gt;Node4</title>
<path fill="none" stroke="midnightblue" d="M386.54,-15.5C378.12,-15.5 369.63,-15.5 361.3,-15.5"/>
<polygon fill="midnightblue" stroke="midnightblue" points="386.77,-19 396.77,-15.5 386.77,-12 386.77,-19"/>
</g>
<!-- Node5 -->
<g id="node5" class="node">
<title>Node5</title>
<g id="a_node5"><a xlink:href="../../d4/d38/classChromeOmniboxEditController.html#a9f91e23a342c8c8215208eacc7e8bc1d" target="_top" xlink:title=" ">
<polygon fill="white" stroke="black" points="0,-0.5 0,-30.5 149,-30.5 149,-0.5 0,-0.5"/>
<text text-anchor="start" x="8" y="-18.5" font-family="Helvetica,sans-Serif" font-size="10.00">ChromeOmniboxEditController</text>
<text text-anchor="middle" x="74.5" y="-7.5" font-family="Helvetica,sans-Serif" font-size="10.00">::OnAutocompleteAccept</text>
</a>
</g>
</g>
<!-- Node4&#45;&gt;Node5 -->
<g id="edge4" class="edge">
<title>Node4&#45;&gt;Node5</title>
<path fill="none" stroke="midnightblue" d="M174.87,-15.5C166.26,-15.5 157.64,-15.5 149.27,-15.5"/>
<polygon fill="midnightblue" stroke="midnightblue" points="174.95,-19 184.95,-15.5 174.95,-12 174.95,-19"/>
</g>
</g>
</svg>
