<?xml version="1.0" encoding="UTF-8" standalone="no"?>
<!DOCTYPE svg PUBLIC "-//W3C//DTD SVG 1.1//EN"
 "http://www.w3.org/Graphics/SVG/1.1/DTD/svg11.dtd">
<!-- Generated by graphviz version 2.43.0 (0)
 -->
<!-- Title: components/omnibox/browser/autocomplete_scheme_classifier.h Pages: 1 -->
<!--zoomable 284 -->
<svg id="main" version="1.1" xmlns="http://www.w3.org/2000/svg" xmlns:xlink="http://www.w3.org/1999/xlink" xml:space="preserve" onload="init(evt)">
<style type="text/css"><![CDATA[
.edge:hover path { stroke: red; }
.edge:hover polygon { stroke: red; fill: red; }
]]></style>
<script type="text/javascript"><![CDATA[
var edges = document.getElementsByTagName('g');
if (edges && edges.length) {
  for (var i=0;i<edges.length;i++) {
    if (edges[i].id.substr(0,4)=='edge') {
      edges[i].setAttribute('class','edge');
    }
  }
}
]]></script>
        <defs>
                <circle id="rim" cx="0" cy="0" r="7"/>
                <circle id="rim2" cx="0" cy="0" r="3.5"/>
                <g id="zoomPlus">
                        <use xlink:href="#rim" fill="#404040">
                                <set attributeName="fill" to="#808080" begin="zoomplus.mouseover" end="zoomplus.mouseout"/>
                        </use>
                        <path d="M-4,0h8M0,-4v8" fill="none" stroke="white" stroke-width="1.5" pointer-events="none"/>
                </g>
                <g id="zoomMin">
                        <use xlink:href="#rim" fill="#404040">
                                <set attributeName="fill" to="#808080" begin="zoomminus.mouseover" end="zoomminus.mouseout"/>
                        </use>
                        <path d="M-4,0h8" fill="none" stroke="white" stroke-width="1.5" pointer-events="none"/>
                </g>
                <g id="dirArrow">
                        <path fill="none" stroke="white" stroke-width="1.5" d="M0,-3.0v7 M-2.5,-0.5L0,-3.0L2.5,-0.5"/>
                </g>
               <g id="resetDef">
                       <use xlink:href="#rim2" fill="#404040">
                               <set attributeName="fill" to="#808080" begin="reset.mouseover" end="reset.mouseout"/>
                       </use>
               </g>
        </defs>

<script type="text/javascript">
var viewWidth = 1049;
var viewHeight = 284;
var sectionId = 'dynsection-1';
</script>
<script xlink:href="../../svgpan.js"/>
<svg id="graph" class="graph">
<g id="viewport">
<title>components/omnibox/browser/autocomplete_scheme_classifier.h</title>
<polygon fill="white" stroke="transparent" points="-4,4 -4,-280 1044.5,-280 1044.5,4 -4,4"/>
<!-- Node1 -->
<g id="node1" class="node">
<title>Node1</title>
<g id="a_node1"><a xlink:title=" ">
<polygon fill="#bfbfbf" stroke="black" points="590,-234.5 590,-275.5 706,-275.5 706,-234.5 590,-234.5"/>
<text text-anchor="start" x="598" y="-263.5" font-family="Helvetica,sans-Serif" font-size="10.00">components/omnibox</text>
<text text-anchor="start" x="598" y="-252.5" font-family="Helvetica,sans-Serif" font-size="10.00">/browser/autocomplete</text>
<text text-anchor="middle" x="648" y="-241.5" font-family="Helvetica,sans-Serif" font-size="10.00">_scheme_classifier.h</text>
</a>
</g>
</g>
<!-- Node2 -->
<g id="node2" class="node">
<title>Node2</title>
<g id="a_node2"><a xlink:href="../../de/d8f/autocomplete__classifier_8h.html" target="_top" xlink:title=" ">
<polygon fill="white" stroke="black" points="304,-156.5 304,-197.5 420,-197.5 420,-156.5 304,-156.5"/>
<text text-anchor="start" x="312" y="-185.5" font-family="Helvetica,sans-Serif" font-size="10.00">components/omnibox</text>
<text text-anchor="start" x="312" y="-174.5" font-family="Helvetica,sans-Serif" font-size="10.00">/browser/autocomplete</text>
<text text-anchor="middle" x="362" y="-163.5" font-family="Helvetica,sans-Serif" font-size="10.00">_classifier.h</text>
</a>
</g>
</g>
<!-- Node1&#45;&gt;Node2 -->
<g id="edge1" class="edge">
<title>Node1&#45;&gt;Node2</title>
<path fill="none" stroke="midnightblue" d="M579.88,-237.32C536.56,-226.53 479.35,-211.95 429,-198 426.08,-197.19 423.08,-196.35 420.06,-195.49"/>
<polygon fill="midnightblue" stroke="midnightblue" points="579.19,-240.76 589.74,-239.77 580.87,-233.96 579.19,-240.76"/>
</g>
<!-- Node8 -->
<g id="node8" class="node">
<title>Node8</title>
<g id="a_node8"><a xlink:href="../../d5/d87/autocomplete__input_8cc.html" target="_top" xlink:title=" ">
<polygon fill="white" stroke="black" points="438,-156.5 438,-197.5 554,-197.5 554,-156.5 438,-156.5"/>
<text text-anchor="start" x="446" y="-185.5" font-family="Helvetica,sans-Serif" font-size="10.00">components/omnibox</text>
<text text-anchor="start" x="446" y="-174.5" font-family="Helvetica,sans-Serif" font-size="10.00">/browser/autocomplete</text>
<text text-anchor="middle" x="496" y="-163.5" font-family="Helvetica,sans-Serif" font-size="10.00">_input.cc</text>
</a>
</g>
</g>
<!-- Node1&#45;&gt;Node8 -->
<g id="edge7" class="edge">
<title>Node1&#45;&gt;Node8</title>
<path fill="none" stroke="midnightblue" d="M599.82,-229.91C578.92,-219.46 554.76,-207.38 535.01,-197.51"/>
<polygon fill="midnightblue" stroke="midnightblue" points="598.35,-233.09 608.86,-234.43 601.48,-226.83 598.35,-233.09"/>
</g>
<!-- Node9 -->
<g id="node9" class="node">
<title>Node9</title>
<g id="a_node9"><a xlink:href="../../d0/da2/autocomplete__scheme__classifier__android_8cc.html" target="_top" xlink:title=" ">
<polygon fill="white" stroke="black" points="572.5,-156.5 572.5,-197.5 723.5,-197.5 723.5,-156.5 572.5,-156.5"/>
<text text-anchor="start" x="580.5" y="-185.5" font-family="Helvetica,sans-Serif" font-size="10.00">components/omnibox</text>
<text text-anchor="start" x="580.5" y="-174.5" font-family="Helvetica,sans-Serif" font-size="10.00">/browser/autocomplete</text>
<text text-anchor="middle" x="648" y="-163.5" font-family="Helvetica,sans-Serif" font-size="10.00">_scheme_classifier_android.cc</text>
</a>
</g>
</g>
<!-- Node1&#45;&gt;Node9 -->
<g id="edge8" class="edge">
<title>Node1&#45;&gt;Node9</title>
<path fill="none" stroke="midnightblue" d="M648,-224.3C648,-215.3 648,-205.65 648,-197.51"/>
<polygon fill="midnightblue" stroke="midnightblue" points="644.5,-224.43 648,-234.43 651.5,-224.43 644.5,-224.43"/>
</g>
<!-- Node10 -->
<g id="node10" class="node">
<title>Node10</title>
<g id="a_node10"><a xlink:href="../../d6/d85/mock__autocomplete__provider__client_8h.html" target="_top" xlink:title=" ">
<polygon fill="white" stroke="black" points="741.5,-156.5 741.5,-197.5 886.5,-197.5 886.5,-156.5 741.5,-156.5"/>
<text text-anchor="start" x="749.5" y="-185.5" font-family="Helvetica,sans-Serif" font-size="10.00">components/omnibox</text>
<text text-anchor="start" x="749.5" y="-174.5" font-family="Helvetica,sans-Serif" font-size="10.00">/browser/mock_autocomplete</text>
<text text-anchor="middle" x="814" y="-163.5" font-family="Helvetica,sans-Serif" font-size="10.00">_provider_client.h</text>
</a>
</g>
</g>
<!-- Node1&#45;&gt;Node10 -->
<g id="edge9" class="edge">
<title>Node1&#45;&gt;Node10</title>
<path fill="none" stroke="midnightblue" d="M700.01,-230.19C722.97,-219.67 749.63,-207.47 771.4,-197.51"/>
<polygon fill="midnightblue" stroke="midnightblue" points="698.38,-227.08 690.75,-234.43 701.3,-233.45 698.38,-227.08"/>
</g>
<!-- Node14 -->
<g id="node14" class="node">
<title>Node14</title>
<g id="a_node14"><a xlink:href="../../de/dc1/omnibox__url__emphasizer_8cc.html" target="_top" xlink:title=" ">
<polygon fill="white" stroke="black" points="905,-156.5 905,-197.5 1015,-197.5 1015,-156.5 905,-156.5"/>
<text text-anchor="start" x="913" y="-185.5" font-family="Helvetica,sans-Serif" font-size="10.00">components/omnibox</text>
<text text-anchor="start" x="913" y="-174.5" font-family="Helvetica,sans-Serif" font-size="10.00">/browser/omnibox_url</text>
<text text-anchor="middle" x="960" y="-163.5" font-family="Helvetica,sans-Serif" font-size="10.00">_emphasizer.cc</text>
</a>
</g>
</g>
<!-- Node1&#45;&gt;Node14 -->
<g id="edge13" class="edge">
<title>Node1&#45;&gt;Node14</title>
<path fill="none" stroke="midnightblue" d="M716.25,-240.14C766.27,-229.61 835.68,-214.21 896,-198 898.92,-197.21 901.91,-196.38 904.92,-195.52"/>
<polygon fill="midnightblue" stroke="midnightblue" points="715.27,-236.77 706.2,-242.25 716.71,-243.62 715.27,-236.77"/>
</g>
<!-- Node3 -->
<g id="node3" class="node">
<title>Node3</title>
<g id="a_node3"><a xlink:href="../../d6/de8/autocomplete__classifier_8cc.html" target="_top" xlink:title=" ">
<polygon fill="white" stroke="black" points="0,-78.5 0,-119.5 116,-119.5 116,-78.5 0,-78.5"/>
<text text-anchor="start" x="8" y="-107.5" font-family="Helvetica,sans-Serif" font-size="10.00">components/omnibox</text>
<text text-anchor="start" x="8" y="-96.5" font-family="Helvetica,sans-Serif" font-size="10.00">/browser/autocomplete</text>
<text text-anchor="middle" x="58" y="-85.5" font-family="Helvetica,sans-Serif" font-size="10.00">_classifier.cc</text>
</a>
</g>
</g>
<!-- Node2&#45;&gt;Node3 -->
<g id="edge2" class="edge">
<title>Node2&#45;&gt;Node3</title>
<path fill="none" stroke="midnightblue" d="M293.94,-161.02C246.43,-150.3 181.63,-135.13 125,-120 122.07,-119.22 119.07,-118.4 116.05,-117.55"/>
<polygon fill="midnightblue" stroke="midnightblue" points="293.29,-164.46 303.81,-163.24 294.82,-157.63 293.29,-164.46"/>
</g>
<!-- Node4 -->
<g id="node4" class="node">
<title>Node4</title>
<g id="a_node4"><a xlink:href="../../dd/d1e/omnibox__controller_8cc.html" target="_top" xlink:title=" ">
<polygon fill="white" stroke="black" points="134,-84 134,-114 286,-114 286,-84 134,-84"/>
<text text-anchor="start" x="142" y="-102" font-family="Helvetica,sans-Serif" font-size="10.00">components/omnibox</text>
<text text-anchor="middle" x="210" y="-91" font-family="Helvetica,sans-Serif" font-size="10.00">/browser/omnibox_controller.cc</text>
</a>
</g>
</g>
<!-- Node2&#45;&gt;Node4 -->
<g id="edge3" class="edge">
<title>Node2&#45;&gt;Node4</title>
<path fill="none" stroke="midnightblue" d="M313.61,-151.81C288.85,-139.43 259.56,-124.78 238.45,-114.23"/>
<polygon fill="midnightblue" stroke="midnightblue" points="312.35,-155.09 322.86,-156.43 315.48,-148.83 312.35,-155.09"/>
</g>
<!-- Node5 -->
<g id="node5" class="node">
<title>Node5</title>
<g id="a_node5"><a xlink:href="../../d7/df6/omnibox__edit__model_8cc.html" target="_top" xlink:title=" ">
<polygon fill="white" stroke="black" points="304.5,-78.5 304.5,-119.5 419.5,-119.5 419.5,-78.5 304.5,-78.5"/>
<text text-anchor="start" x="312.5" y="-107.5" font-family="Helvetica,sans-Serif" font-size="10.00">components/omnibox</text>
<text text-anchor="start" x="312.5" y="-96.5" font-family="Helvetica,sans-Serif" font-size="10.00">/browser/omnibox_edit</text>
<text text-anchor="middle" x="362" y="-85.5" font-family="Helvetica,sans-Serif" font-size="10.00">_model.cc</text>
</a>
</g>
</g>
<!-- Node2&#45;&gt;Node5 -->
<g id="edge4" class="edge">
<title>Node2&#45;&gt;Node5</title>
<path fill="none" stroke="midnightblue" d="M362,-146.3C362,-137.3 362,-127.65 362,-119.51"/>
<polygon fill="midnightblue" stroke="midnightblue" points="358.5,-146.43 362,-156.43 365.5,-146.43 358.5,-146.43"/>
</g>
<!-- Node6 -->
<g id="node6" class="node">
<title>Node6</title>
<g id="a_node6"><a xlink:href="../../d5/d36/verbatim__match_8cc.html" target="_top" xlink:title=" ">
<polygon fill="white" stroke="black" points="438,-84 438,-114 578,-114 578,-84 438,-84"/>
<text text-anchor="start" x="446" y="-102" font-family="Helvetica,sans-Serif" font-size="10.00">components/omnibox</text>
<text text-anchor="middle" x="508" y="-91" font-family="Helvetica,sans-Serif" font-size="10.00">/browser/verbatim_match.cc</text>
</a>
</g>
</g>
<!-- Node2&#45;&gt;Node6 -->
<g id="edge5" class="edge">
<title>Node2&#45;&gt;Node6</title>
<path fill="none" stroke="midnightblue" d="M408.48,-151.81C432.26,-139.43 460.4,-124.78 480.67,-114.23"/>
<polygon fill="midnightblue" stroke="midnightblue" points="406.85,-148.71 399.6,-156.43 410.08,-154.92 406.85,-148.71"/>
</g>
<!-- Node7 -->
<g id="node7" class="node">
<title>Node7</title>
<g id="a_node7"><a xlink:href="../../dd/dfb/zero__suggest__provider_8cc.html" target="_top" xlink:title=" ">
<polygon fill="white" stroke="black" points="596,-78.5 596,-119.5 712,-119.5 712,-78.5 596,-78.5"/>
<text text-anchor="start" x="604" y="-107.5" font-family="Helvetica,sans-Serif" font-size="10.00">components/omnibox</text>
<text text-anchor="start" x="604" y="-96.5" font-family="Helvetica,sans-Serif" font-size="10.00">/browser/zero_suggest</text>
<text text-anchor="middle" x="654" y="-85.5" font-family="Helvetica,sans-Serif" font-size="10.00">_provider.cc</text>
</a>
</g>
</g>
<!-- Node2&#45;&gt;Node7 -->
<g id="edge6" class="edge">
<title>Node2&#45;&gt;Node7</title>
<path fill="none" stroke="midnightblue" d="M429.85,-155.86C500.36,-137.71 520.34,-137.52 587,-120 589.94,-119.23 592.94,-118.42 595.96,-117.58"/>
<polygon fill="midnightblue" stroke="midnightblue" points="428.83,-152.51 420.04,-158.42 430.6,-159.28 428.83,-152.51"/>
</g>
<!-- Node11 -->
<g id="node11" class="node">
<title>Node11</title>
<g id="a_node11"><a xlink:href="../../da/d44/fake__autocomplete__provider__client_8h.html" target="_top" xlink:title=" ">
<polygon fill="white" stroke="black" points="737,-78.5 737,-119.5 877,-119.5 877,-78.5 737,-78.5"/>
<text text-anchor="start" x="745" y="-107.5" font-family="Helvetica,sans-Serif" font-size="10.00">components/omnibox</text>
<text text-anchor="start" x="745" y="-96.5" font-family="Helvetica,sans-Serif" font-size="10.00">/browser/fake_autocomplete</text>
<text text-anchor="middle" x="807" y="-85.5" font-family="Helvetica,sans-Serif" font-size="10.00">_provider_client.h</text>
</a>
</g>
</g>
<!-- Node10&#45;&gt;Node11 -->
<g id="edge10" class="edge">
<title>Node10&#45;&gt;Node11</title>
<path fill="none" stroke="midnightblue" d="M811.26,-146.3C810.44,-137.3 809.55,-127.65 808.8,-119.51"/>
<polygon fill="midnightblue" stroke="midnightblue" points="807.79,-146.79 812.2,-156.43 814.77,-146.15 807.79,-146.79"/>
</g>
<!-- Node13 -->
<g id="node13" class="node">
<title>Node13</title>
<g id="a_node13"><a xlink:href="../../d7/d57/mock__autocomplete__provider__client_8cc.html" target="_top" xlink:title=" ">
<polygon fill="white" stroke="black" points="895.5,-78.5 895.5,-119.5 1040.5,-119.5 1040.5,-78.5 895.5,-78.5"/>
<text text-anchor="start" x="903.5" y="-107.5" font-family="Helvetica,sans-Serif" font-size="10.00">components/omnibox</text>
<text text-anchor="start" x="903.5" y="-96.5" font-family="Helvetica,sans-Serif" font-size="10.00">/browser/mock_autocomplete</text>
<text text-anchor="middle" x="968" y="-85.5" font-family="Helvetica,sans-Serif" font-size="10.00">_provider_client.cc</text>
</a>
</g>
</g>
<!-- Node10&#45;&gt;Node13 -->
<g id="edge12" class="edge">
<title>Node10&#45;&gt;Node13</title>
<path fill="none" stroke="midnightblue" d="M862.82,-151.91C883.99,-141.46 908.47,-129.38 928.48,-119.51"/>
<polygon fill="midnightblue" stroke="midnightblue" points="861.08,-148.86 853.66,-156.43 864.18,-155.14 861.08,-148.86"/>
</g>
<!-- Node12 -->
<g id="node12" class="node">
<title>Node12</title>
<g id="a_node12"><a xlink:href="../../d9/da9/fake__autocomplete__provider__client_8cc.html" target="_top" xlink:title=" ">
<polygon fill="white" stroke="black" points="737,-0.5 737,-41.5 877,-41.5 877,-0.5 737,-0.5"/>
<text text-anchor="start" x="745" y="-29.5" font-family="Helvetica,sans-Serif" font-size="10.00">components/omnibox</text>
<text text-anchor="start" x="745" y="-18.5" font-family="Helvetica,sans-Serif" font-size="10.00">/browser/fake_autocomplete</text>
<text text-anchor="middle" x="807" y="-7.5" font-family="Helvetica,sans-Serif" font-size="10.00">_provider_client.cc</text>
</a>
</g>
</g>
<!-- Node11&#45;&gt;Node12 -->
<g id="edge11" class="edge">
<title>Node11&#45;&gt;Node12</title>
<path fill="none" stroke="midnightblue" d="M807,-68.3C807,-59.3 807,-49.65 807,-41.51"/>
<polygon fill="midnightblue" stroke="midnightblue" points="803.5,-68.43 807,-78.43 810.5,-68.43 803.5,-68.43"/>
</g>
</g>
</svg>
        <g id="navigator" transform="translate(0 0)" fill="#404254">
                <rect fill="#f2f5e9" fill-opacity="0.5" stroke="#606060" stroke-width=".5" x="0" y="0" width="60" height="60"/>
                <use id="zoomplus" xlink:href="#zoomPlus" x="17" y="9" onmousedown="handleZoom(evt,'in')"/>
                <use id="zoomminus" xlink:href="#zoomMin" x="42" y="9" onmousedown="handleZoom(evt,'out')"/>
                <use id="reset" xlink:href="#resetDef" x="30" y="36" onmousedown="handleReset()"/>
                <g id="arrowUp" xlink:href="#dirArrow" transform="translate(30 24)" onmousedown="handlePan(0,-1)">
                  <use xlink:href="#rim" fill="#404040">
                        <set attributeName="fill" to="#808080" begin="arrowUp.mouseover" end="arrowUp.mouseout"/>
                  </use>
                  <path fill="none" stroke="white" stroke-width="1.5" d="M0,-3.0v7 M-2.5,-0.5L0,-3.0L2.5,-0.5"/>
                </g>
                <g id="arrowRight" xlink:href="#dirArrow" transform="rotate(90) translate(36 -43)" onmousedown="handlePan(1,0)">
                  <use xlink:href="#rim" fill="#404040">
                        <set attributeName="fill" to="#808080" begin="arrowRight.mouseover" end="arrowRight.mouseout"/>
                  </use>
                  <path fill="none" stroke="white" stroke-width="1.5" d="M0,-3.0v7 M-2.5,-0.5L0,-3.0L2.5,-0.5"/>
                </g>
                <g id="arrowDown" xlink:href="#dirArrow" transform="rotate(180) translate(-30 -48)" onmousedown="handlePan(0,1)">
                  <use xlink:href="#rim" fill="#404040">
                        <set attributeName="fill" to="#808080" begin="arrowDown.mouseover" end="arrowDown.mouseout"/>
                  </use>
                  <path fill="none" stroke="white" stroke-width="1.5" d="M0,-3.0v7 M-2.5,-0.5L0,-3.0L2.5,-0.5"/>
                </g>
                <g id="arrowLeft" xlink:href="#dirArrow" transform="rotate(270) translate(-36 17)" onmousedown="handlePan(-1,0)">
                  <use xlink:href="#rim" fill="#404040">
                        <set attributeName="fill" to="#808080" begin="arrowLeft.mouseover" end="arrowLeft.mouseout"/>
                  </use>
                  <path fill="none" stroke="white" stroke-width="1.5" d="M0,-3.0v7 M-2.5,-0.5L0,-3.0L2.5,-0.5"/>
                </g>
        </g>
        <svg viewBox="0 0 15 15" width="100%" height="30px" preserveAspectRatio="xMaxYMin meet">
         <g id="arrow_out" transform="scale(0.3 0.3)">
          <a xlink:href="autocomplete__scheme__classifier_8h__dep__incl_org.svg" target="_base">
           <rect id="button" ry="5" rx="5" y="6" x="6" height="38" width="38"
                fill="#f2f5e9" fill-opacity="0.5" stroke="#606060" stroke-width="1.0"/>
           <path id="arrow"
             d="M 11.500037,31.436501 C 11.940474,20.09759 22.043105,11.32322 32.158766,21.979434 L 37.068811,17.246167 C 37.068811,17.246167 37.088388,32 37.088388,32 L 22.160133,31.978069 C 22.160133,31.978069 26.997745,27.140456 26.997745,27.140456 C 18.528582,18.264221 13.291696,25.230495 11.500037,31.436501 z"
             style="fill:#404040;"/>
          </a>
         </g>
        </svg>
</svg>
