<?xml version="1.0" encoding="UTF-8" standalone="no"?>
<!DOCTYPE svg PUBLIC "-//W3C//DTD SVG 1.1//EN"
 "http://www.w3.org/Graphics/SVG/1.1/DTD/svg11.dtd">
<!-- Generated by graphviz version 2.43.0 (0)
 -->
<!-- Title: OmniboxPopupContentsView::GetMatchIcon Pages: 1 -->
<svg width="1066pt" height="613pt"
 viewBox="0.00 0.00 1066.00 613.00" xmlns="http://www.w3.org/2000/svg" xmlns:xlink="http://www.w3.org/1999/xlink">
<g id="graph0" class="graph" transform="scale(1 1) rotate(0) translate(4 609)">
<title>OmniboxPopupContentsView::GetMatchIcon</title>
<polygon fill="white" stroke="transparent" points="-4,4 -4,-609 1062,-609 1062,4 -4,4"/>
<!-- Node1 -->
<g id="node1" class="node">
<title>Node1</title>
<g id="a_node1"><a xlink:title=" ">
<polygon fill="#bfbfbf" stroke="black" points="0,-139.5 0,-169.5 145,-169.5 145,-139.5 0,-139.5"/>
<text text-anchor="start" x="8" y="-157.5" font-family="Helvetica,sans-Serif" font-size="10.00">OmniboxPopupContentsView</text>
<text text-anchor="middle" x="72.5" y="-146.5" font-family="Helvetica,sans-Serif" font-size="10.00">::GetMatchIcon</text>
</a>
</g>
</g>
<!-- Node2 -->
<g id="node2" class="node">
<title>Node2</title>
<g id="a_node2"><a xlink:href="../../d1/db1/classOmniboxPopupModel.html#aadc84d8c613db89d80bbffae685ffff0" target="_top" xlink:title=" ">
<polygon fill="white" stroke="black" points="195.5,-229.5 195.5,-259.5 311.5,-259.5 311.5,-229.5 195.5,-229.5"/>
<text text-anchor="start" x="203.5" y="-247.5" font-family="Helvetica,sans-Serif" font-size="10.00">OmniboxPopupModel::</text>
<text text-anchor="middle" x="253.5" y="-236.5" font-family="Helvetica,sans-Serif" font-size="10.00">GetMatchIcon</text>
</a>
</g>
</g>
<!-- Node1&#45;&gt;Node2 -->
<g id="edge1" class="edge">
<title>Node1&#45;&gt;Node2</title>
<path fill="none" stroke="midnightblue" d="M103.46,-169.56C133.66,-184.75 180.42,-208.26 213.5,-224.89"/>
<polygon fill="midnightblue" stroke="midnightblue" points="211.94,-228.02 222.44,-229.39 215.08,-221.77 211.94,-228.02"/>
</g>
<!-- Node24 -->
<g id="node24" class="node">
<title>Node24</title>
<g id="a_node24"><a xlink:href="../../d7/d88/classOmniboxPopupContentsView.html#a718a0b1b4223a2cbabb6008f005ffd2e" target="_top" xlink:title=" ">
<polygon fill="white" stroke="black" points="181,-115.5 181,-145.5 326,-145.5 326,-115.5 181,-115.5"/>
<text text-anchor="start" x="189" y="-133.5" font-family="Helvetica,sans-Serif" font-size="10.00">OmniboxPopupContentsView</text>
<text text-anchor="middle" x="253.5" y="-122.5" font-family="Helvetica,sans-Serif" font-size="10.00">::model</text>
</a>
</g>
</g>
<!-- Node1&#45;&gt;Node24 -->
<g id="edge25" class="edge">
<title>Node1&#45;&gt;Node24</title>
<path fill="none" stroke="midnightblue" d="M145.02,-144.91C153.49,-143.78 162.18,-142.61 170.78,-141.46"/>
<polygon fill="midnightblue" stroke="midnightblue" points="171.36,-144.91 180.8,-140.11 170.43,-137.97 171.36,-144.91"/>
</g>
<!-- Node3 -->
<g id="node3" class="node">
<title>Node3</title>
<g id="a_node3"><a xlink:href="../../d0/d22/classOmniboxEditModel.html#a17aabec567d6753f1d0a1ae590046ae7" target="_top" xlink:title=" ">
<polygon fill="white" stroke="black" points="555.5,-197 555.5,-216 683.5,-216 683.5,-197 555.5,-197"/>
<text text-anchor="middle" x="619.5" y="-204" font-family="Helvetica,sans-Serif" font-size="10.00">OmniboxEditModel::client</text>
</a>
</g>
</g>
<!-- Node2&#45;&gt;Node3 -->
<g id="edge2" class="edge">
<title>Node2&#45;&gt;Node3</title>
<path fill="none" stroke="midnightblue" d="M311.52,-233.32C327.78,-230.43 345.54,-227.56 362,-225.5 423.58,-217.8 493.9,-212.86 545.32,-209.95"/>
<polygon fill="midnightblue" stroke="midnightblue" points="545.55,-213.44 555.34,-209.4 545.16,-206.46 545.55,-213.44"/>
</g>
<!-- Node4 -->
<g id="node4" class="node">
<title>Node4</title>
<g id="a_node4"><a xlink:href="../../d5/dbd/classOmniboxClient.html#abdbe3e8c01d6006ee368a8b01ca2e038" target="_top" xlink:title=" ">
<polygon fill="white" stroke="black" points="366.5,-322.5 366.5,-352.5 503.5,-352.5 503.5,-322.5 366.5,-322.5"/>
<text text-anchor="start" x="374.5" y="-340.5" font-family="Helvetica,sans-Serif" font-size="10.00">OmniboxClient::GetFavicon</text>
<text text-anchor="middle" x="435" y="-329.5" font-family="Helvetica,sans-Serif" font-size="10.00">ForPageUrl</text>
</a>
</g>
</g>
<!-- Node2&#45;&gt;Node4 -->
<g id="edge3" class="edge">
<title>Node2&#45;&gt;Node4</title>
<path fill="none" stroke="midnightblue" d="M275.09,-259.54C296.14,-274.43 330.17,-297.16 362,-312.5 366.58,-314.71 371.4,-316.81 376.29,-318.8"/>
<polygon fill="midnightblue" stroke="midnightblue" points="375.15,-322.11 385.74,-322.47 377.69,-315.59 375.15,-322.11"/>
</g>
<!-- Node5 -->
<g id="node5" class="node">
<title>Node5</title>
<g id="a_node5"><a xlink:href="../../d5/dbd/classOmniboxClient.html#a1a84b69a83c02e414f2ff074047a0d37" target="_top" xlink:title=" ">
<polygon fill="white" stroke="black" points="371,-273.5 371,-303.5 499,-303.5 499,-273.5 371,-273.5"/>
<text text-anchor="start" x="379" y="-291.5" font-family="Helvetica,sans-Serif" font-size="10.00">OmniboxClient::GetIconIf</text>
<text text-anchor="middle" x="435" y="-280.5" font-family="Helvetica,sans-Serif" font-size="10.00">ExtensionMatch</text>
</a>
</g>
</g>
<!-- Node2&#45;&gt;Node5 -->
<g id="edge4" class="edge">
<title>Node2&#45;&gt;Node5</title>
<path fill="none" stroke="midnightblue" d="M311.79,-258.54C328,-262.52 345.84,-266.89 362.77,-271.04"/>
<polygon fill="midnightblue" stroke="midnightblue" points="362.06,-274.47 372.61,-273.45 363.73,-267.67 362.06,-274.47"/>
</g>
<!-- Node6 -->
<g id="node6" class="node">
<title>Node6</title>
<g id="a_node6"><a xlink:href="../../d5/dbd/classOmniboxClient.html#a16e670e4b9ee703a7ebced7df4c398fe" target="_top" xlink:title=" ">
<polygon fill="white" stroke="black" points="362,-235 362,-254 508,-254 508,-235 362,-235"/>
<text text-anchor="middle" x="435" y="-242" font-family="Helvetica,sans-Serif" font-size="10.00">OmniboxClient::GetSizedIcon</text>
</a>
</g>
</g>
<!-- Node2&#45;&gt;Node6 -->
<g id="edge5" class="edge">
<title>Node2&#45;&gt;Node6</title>
<path fill="none" stroke="midnightblue" d="M311.79,-244.5C324.46,-244.5 338.13,-244.5 351.58,-244.5"/>
<polygon fill="midnightblue" stroke="midnightblue" points="351.8,-248 361.8,-244.5 351.8,-241 351.8,-248"/>
</g>
<!-- Node7 -->
<g id="node7" class="node">
<title>Node7</title>
<g id="a_node7"><a xlink:href="../../dc/d8f/structAutocompleteMatch.html#a26de97442eb3495bedf2349f6fa4c6e4" target="_top" xlink:title=" ">
<polygon fill="white" stroke="black" points="380,-98.5 380,-128.5 490,-128.5 490,-98.5 380,-98.5"/>
<text text-anchor="start" x="388" y="-116.5" font-family="Helvetica,sans-Serif" font-size="10.00">AutocompleteMatch::</text>
<text text-anchor="middle" x="435" y="-105.5" font-family="Helvetica,sans-Serif" font-size="10.00">GetVectorIcon</text>
</a>
</g>
</g>
<!-- Node2&#45;&gt;Node7 -->
<g id="edge6" class="edge">
<title>Node2&#45;&gt;Node7</title>
<path fill="none" stroke="midnightblue" d="M266.03,-229.15C284.08,-206.12 321.2,-162.65 362,-137.5 364.75,-135.81 367.63,-134.22 370.59,-132.73"/>
<polygon fill="midnightblue" stroke="midnightblue" points="372.06,-135.91 379.68,-128.55 369.14,-129.55 372.06,-135.91"/>
</g>
<!-- Node11 -->
<g id="node11" class="node">
<title>Node11</title>
<g id="a_node11"><a xlink:href="../../dc/d8f/structAutocompleteMatch.html#a2995f802114ff701b5d6e037fb3019b3" target="_top" xlink:title=" ">
<polygon fill="white" stroke="black" points="564.5,-339.5 564.5,-369.5 674.5,-369.5 674.5,-339.5 564.5,-339.5"/>
<text text-anchor="start" x="572.5" y="-357.5" font-family="Helvetica,sans-Serif" font-size="10.00">AutocompleteMatch::</text>
<text text-anchor="middle" x="619.5" y="-346.5" font-family="Helvetica,sans-Serif" font-size="10.00">IsSearchType</text>
</a>
</g>
</g>
<!-- Node2&#45;&gt;Node11 -->
<g id="edge10" class="edge">
<title>Node2&#45;&gt;Node11</title>
<path fill="none" stroke="midnightblue" d="M262.68,-259.62C278.04,-286.18 314.01,-340.42 362,-361.5 423.12,-388.34 500.57,-381.36 554.29,-370.96"/>
<polygon fill="midnightblue" stroke="midnightblue" points="555.26,-374.33 564.37,-368.91 553.87,-367.47 555.26,-374.33"/>
</g>
<!-- Node13 -->
<g id="node13" class="node">
<title>Node13</title>
<g id="a_node13"><a xlink:href="../../d1/db1/classOmniboxPopupModel.html#a7a912aea1cf6426be55f55aa141264db" target="_top" xlink:title=" ">
<polygon fill="white" stroke="black" points="377,-147.5 377,-177.5 493,-177.5 493,-147.5 377,-147.5"/>
<text text-anchor="start" x="385" y="-165.5" font-family="Helvetica,sans-Serif" font-size="10.00">OmniboxPopupModel::</text>
<text text-anchor="middle" x="435" y="-154.5" font-family="Helvetica,sans-Serif" font-size="10.00">IsStarredMatch</text>
</a>
</g>
</g>
<!-- Node2&#45;&gt;Node13 -->
<g id="edge12" class="edge">
<title>Node2&#45;&gt;Node13</title>
<path fill="none" stroke="midnightblue" d="M284.41,-229.48C305.86,-218.84 335.53,-204.41 362,-192.5 370.17,-188.83 378.92,-185.05 387.4,-181.47"/>
<polygon fill="midnightblue" stroke="midnightblue" points="388.96,-184.61 396.83,-177.52 386.26,-178.16 388.96,-184.61"/>
</g>
<!-- Node15 -->
<g id="node15" class="node">
<title>Node15</title>
<g id="a_node15"><a xlink:href="../../d1/db1/classOmniboxPopupModel.html#a428b39ea93613c635e9446595c8424c9" target="_top" xlink:title=" ">
<polygon fill="white" stroke="black" points="377,-437.5 377,-467.5 493,-467.5 493,-437.5 377,-437.5"/>
<text text-anchor="start" x="385" y="-455.5" font-family="Helvetica,sans-Serif" font-size="10.00">OmniboxPopupModel::</text>
<text text-anchor="middle" x="435" y="-444.5" font-family="Helvetica,sans-Serif" font-size="10.00">OnFaviconFetched</text>
</a>
</g>
</g>
<!-- Node2&#45;&gt;Node15 -->
<g id="edge15" class="edge">
<title>Node2&#45;&gt;Node15</title>
<path fill="none" stroke="midnightblue" d="M263.32,-259.7C280.25,-288.17 319.44,-350.71 362,-395.5 374.55,-408.71 390.24,-421.48 403.77,-431.58"/>
<polygon fill="midnightblue" stroke="midnightblue" points="401.73,-434.42 411.87,-437.5 405.86,-428.77 401.73,-434.42"/>
</g>
<!-- Node8 -->
<g id="node8" class="node">
<title>Node8</title>
<g id="a_node8"><a xlink:href="../../dc/d8f/structAutocompleteMatch.html#a5b86825646ad62bb299c8ec23949b4d1" target="_top" xlink:title=" ">
<polygon fill="white" stroke="black" points="553,-0.5 553,-30.5 686,-30.5 686,-0.5 553,-0.5"/>
<text text-anchor="start" x="561" y="-18.5" font-family="Helvetica,sans-Serif" font-size="10.00">AutocompleteMatch::</text>
<text text-anchor="middle" x="619.5" y="-7.5" font-family="Helvetica,sans-Serif" font-size="10.00">AnswerTypeToAnswerIcon</text>
</a>
</g>
</g>
<!-- Node7&#45;&gt;Node8 -->
<g id="edge7" class="edge">
<title>Node7&#45;&gt;Node8</title>
<path fill="none" stroke="midnightblue" d="M490.12,-98.79C496.45,-95.91 502.57,-92.51 508,-88.5 529.74,-72.46 522.08,-55.3 544,-39.5 546.07,-38.01 548.25,-36.6 550.49,-35.28"/>
<polygon fill="midnightblue" stroke="midnightblue" points="552.2,-38.33 559.44,-30.6 548.96,-32.13 552.2,-38.33"/>
</g>
<!-- Node9 -->
<g id="node9" class="node">
<title>Node9</title>
<g id="a_node9"><a xlink:href="../../dc/d8f/structAutocompleteMatch.html#acdfc9aa026649ff4d1c83c3d0ff630cc" target="_top" xlink:title=" ">
<polygon fill="white" stroke="black" points="564.5,-98.5 564.5,-128.5 674.5,-128.5 674.5,-98.5 564.5,-98.5"/>
<text text-anchor="start" x="572.5" y="-116.5" font-family="Helvetica,sans-Serif" font-size="10.00">AutocompleteMatch::</text>
<text text-anchor="middle" x="619.5" y="-105.5" font-family="Helvetica,sans-Serif" font-size="10.00">IsSearchHistoryType</text>
</a>
</g>
</g>
<!-- Node7&#45;&gt;Node9 -->
<g id="edge8" class="edge">
<title>Node7&#45;&gt;Node9</title>
<path fill="none" stroke="midnightblue" d="M490.26,-113.5C510.4,-113.5 533.43,-113.5 554.36,-113.5"/>
<polygon fill="midnightblue" stroke="midnightblue" points="554.45,-117 564.45,-113.5 554.45,-110 554.45,-117"/>
</g>
<!-- Node10 -->
<g id="node10" class="node">
<title>Node10</title>
<g id="a_node10"><a xlink:href="../../dd/de9/classAutocompleteProvider.html#afee5fe39a16a2cc459b6baa0d8a1521e" target="_top" xlink:title=" ">
<polygon fill="white" stroke="black" points="563,-49.5 563,-79.5 676,-79.5 676,-49.5 563,-49.5"/>
<text text-anchor="start" x="571" y="-67.5" font-family="Helvetica,sans-Serif" font-size="10.00">AutocompleteProvider</text>
<text text-anchor="middle" x="619.5" y="-56.5" font-family="Helvetica,sans-Serif" font-size="10.00">::type</text>
</a>
</g>
</g>
<!-- Node7&#45;&gt;Node10 -->
<g id="edge9" class="edge">
<title>Node7&#45;&gt;Node10</title>
<path fill="none" stroke="midnightblue" d="M490.26,-98.93C509.95,-93.65 532.39,-87.62 552.95,-82.1"/>
<polygon fill="midnightblue" stroke="midnightblue" points="554.12,-85.41 562.87,-79.44 552.3,-78.65 554.12,-85.41"/>
</g>
<!-- Node12 -->
<g id="node12" class="node">
<title>Node12</title>
<g id="a_node12"><a xlink:href="../../dc/d8f/structAutocompleteMatch.html#aaca5dac30caf1899132db064a3213d9e" target="_top" xlink:title=" ">
<polygon fill="white" stroke="black" points="731,-339.5 731,-369.5 858,-369.5 858,-339.5 731,-339.5"/>
<text text-anchor="start" x="739" y="-357.5" font-family="Helvetica,sans-Serif" font-size="10.00">AutocompleteMatch::</text>
<text text-anchor="middle" x="794.5" y="-346.5" font-family="Helvetica,sans-Serif" font-size="10.00">IsSpecializedSearchType</text>
</a>
</g>
</g>
<!-- Node11&#45;&gt;Node12 -->
<g id="edge11" class="edge">
<title>Node11&#45;&gt;Node12</title>
<path fill="none" stroke="midnightblue" d="M674.76,-354.5C689.4,-354.5 705.46,-354.5 720.92,-354.5"/>
<polygon fill="midnightblue" stroke="midnightblue" points="720.97,-358 730.97,-354.5 720.97,-351 720.97,-358"/>
</g>
<!-- Node13&#45;&gt;Node3 -->
<g id="edge13" class="edge">
<title>Node13&#45;&gt;Node3</title>
<path fill="none" stroke="midnightblue" d="M493.24,-176.3C517.67,-182.19 545.88,-188.99 569.34,-194.65"/>
<polygon fill="midnightblue" stroke="midnightblue" points="568.54,-198.05 579.08,-197 570.18,-191.25 568.54,-198.05"/>
</g>
<!-- Node14 -->
<g id="node14" class="node">
<title>Node14</title>
<g id="a_node14"><a xlink:href="../../d5/dbd/classOmniboxClient.html#ae6adaeb263ab15d771acb3de1c15e8cb" target="_top" xlink:title=" ">
<polygon fill="white" stroke="black" points="546,-147.5 546,-177.5 693,-177.5 693,-147.5 546,-147.5"/>
<text text-anchor="start" x="554" y="-165.5" font-family="Helvetica,sans-Serif" font-size="10.00">OmniboxClient::GetBookmark</text>
<text text-anchor="middle" x="619.5" y="-154.5" font-family="Helvetica,sans-Serif" font-size="10.00">Model</text>
</a>
</g>
</g>
<!-- Node13&#45;&gt;Node14 -->
<g id="edge14" class="edge">
<title>Node13&#45;&gt;Node14</title>
<path fill="none" stroke="midnightblue" d="M493.24,-162.5C506.62,-162.5 521.13,-162.5 535.38,-162.5"/>
<polygon fill="midnightblue" stroke="midnightblue" points="535.68,-166 545.68,-162.5 535.68,-159 535.68,-166"/>
</g>
<!-- Node15&#45;&gt;Node11 -->
<g id="edge17" class="edge">
<title>Node15&#45;&gt;Node11</title>
<path fill="none" stroke="midnightblue" d="M454.93,-437.36C475.76,-421.28 510.73,-395.95 544,-379.5 548.36,-377.35 552.94,-375.31 557.61,-373.39"/>
<polygon fill="midnightblue" stroke="midnightblue" points="559.21,-376.53 567.26,-369.65 556.67,-370 559.21,-376.53"/>
</g>
<!-- Node16 -->
<g id="node16" class="node">
<title>Node16</title>
<g id="a_node16"><a xlink:href="../../db/de1/classOmniboxPopupView.html#ab590e106e3a2f53bfa45712f529cf106" target="_top" xlink:title=" ">
<polygon fill="white" stroke="black" points="548,-536 548,-555 691,-555 691,-536 548,-536"/>
<text text-anchor="middle" x="619.5" y="-543" font-family="Helvetica,sans-Serif" font-size="10.00">OmniboxPopupView::IsOpen</text>
</a>
</g>
</g>
<!-- Node15&#45;&gt;Node16 -->
<g id="edge16" class="edge">
<title>Node15&#45;&gt;Node16</title>
<path fill="none" stroke="midnightblue" d="M453.92,-467.74C474.42,-484.44 509.63,-510.94 544,-526.5 549.37,-528.93 555.11,-531.09 560.93,-533"/>
<polygon fill="midnightblue" stroke="midnightblue" points="560.16,-536.43 570.75,-535.98 562.2,-529.73 560.16,-536.43"/>
</g>
<!-- Node17 -->
<g id="node17" class="node">
<title>Node17</title>
<g id="a_node17"><a xlink:href="../../d3/d03/classAutocompleteResult.html#a1532251921e2112a24e3a52ec7ee4535" target="_top" xlink:title=" ">
<polygon fill="white" stroke="black" points="567,-486.5 567,-516.5 672,-516.5 672,-486.5 567,-486.5"/>
<text text-anchor="start" x="575" y="-504.5" font-family="Helvetica,sans-Serif" font-size="10.00">AutocompleteResult</text>
<text text-anchor="middle" x="619.5" y="-493.5" font-family="Helvetica,sans-Serif" font-size="10.00">::match_at</text>
</a>
</g>
</g>
<!-- Node15&#45;&gt;Node17 -->
<g id="edge18" class="edge">
<title>Node15&#45;&gt;Node17</title>
<path fill="none" stroke="midnightblue" d="M492.25,-467.6C512.77,-473.11 536.08,-479.37 557.03,-485"/>
<polygon fill="midnightblue" stroke="midnightblue" points="556.23,-488.4 566.79,-487.62 558.04,-481.64 556.23,-488.4"/>
</g>
<!-- Node18 -->
<g id="node18" class="node">
<title>Node18</title>
<g id="a_node18"><a xlink:href="../../db/de1/classOmniboxPopupView.html#aa4256405269109649c32737d09f0736d" target="_top" xlink:title=" ">
<polygon fill="white" stroke="black" points="544,-437.5 544,-467.5 695,-467.5 695,-437.5 544,-437.5"/>
<text text-anchor="start" x="552" y="-455.5" font-family="Helvetica,sans-Serif" font-size="10.00">OmniboxPopupView::OnMatch</text>
<text text-anchor="middle" x="619.5" y="-444.5" font-family="Helvetica,sans-Serif" font-size="10.00">IconUpdated</text>
</a>
</g>
</g>
<!-- Node15&#45;&gt;Node18 -->
<g id="edge19" class="edge">
<title>Node15&#45;&gt;Node18</title>
<path fill="none" stroke="midnightblue" d="M493.24,-452.5C505.99,-452.5 519.77,-452.5 533.36,-452.5"/>
<polygon fill="midnightblue" stroke="midnightblue" points="533.7,-456 543.7,-452.5 533.7,-449 533.7,-456"/>
</g>
<!-- Node19 -->
<g id="node19" class="node">
<title>Node19</title>
<g id="a_node19"><a xlink:href="../../d1/db1/classOmniboxPopupModel.html#a819a99147bf9bc6ad4f7096218a388b0" target="_top" xlink:title=" ">
<polygon fill="white" stroke="black" points="561.5,-388.5 561.5,-418.5 677.5,-418.5 677.5,-388.5 561.5,-388.5"/>
<text text-anchor="start" x="569.5" y="-406.5" font-family="Helvetica,sans-Serif" font-size="10.00">OmniboxPopupModel::</text>
<text text-anchor="middle" x="619.5" y="-395.5" font-family="Helvetica,sans-Serif" font-size="10.00">result</text>
</a>
</g>
</g>
<!-- Node15&#45;&gt;Node19 -->
<g id="edge20" class="edge">
<title>Node15&#45;&gt;Node19</title>
<path fill="none" stroke="midnightblue" d="M492.25,-437.4C511.33,-432.27 532.82,-426.5 552.59,-421.2"/>
<polygon fill="midnightblue" stroke="midnightblue" points="553.69,-424.53 562.44,-418.55 551.88,-417.76 553.69,-424.53"/>
</g>
<!-- Node23 -->
<g id="node23" class="node">
<title>Node23</title>
<g id="a_node23"><a xlink:href="../../d3/d03/classAutocompleteResult.html#a64a7947a81e007d5aa56ac9b25e84bb6" target="_top" xlink:title=" ">
<polygon fill="white" stroke="black" points="567,-574.5 567,-604.5 672,-604.5 672,-574.5 567,-574.5"/>
<text text-anchor="start" x="575" y="-592.5" font-family="Helvetica,sans-Serif" font-size="10.00">AutocompleteResult</text>
<text text-anchor="middle" x="619.5" y="-581.5" font-family="Helvetica,sans-Serif" font-size="10.00">::size</text>
</a>
</g>
</g>
<!-- Node15&#45;&gt;Node23 -->
<g id="edge24" class="edge">
<title>Node15&#45;&gt;Node23</title>
<path fill="none" stroke="midnightblue" d="M446.85,-467.79C464.57,-491.7 501.99,-537.94 544,-564.5 548.29,-567.21 552.9,-569.66 557.65,-571.87"/>
<polygon fill="midnightblue" stroke="midnightblue" points="556.35,-575.12 566.92,-575.82 559.09,-568.68 556.35,-575.12"/>
</g>
<!-- Node20 -->
<g id="node20" class="node">
<title>Node20</title>
<g id="a_node20"><a xlink:href="../../d1/db1/classOmniboxPopupModel.html#a15465ac89016d4717442d3be4e43f3ae" target="_top" xlink:title=" ">
<polygon fill="white" stroke="black" points="734.5,-388.5 734.5,-418.5 854.5,-418.5 854.5,-388.5 734.5,-388.5"/>
<text text-anchor="start" x="742.5" y="-406.5" font-family="Helvetica,sans-Serif" font-size="10.00">OmniboxPopupModel::</text>
<text text-anchor="middle" x="794.5" y="-395.5" font-family="Helvetica,sans-Serif" font-size="10.00">autocomplete_controller</text>
</a>
</g>
</g>
<!-- Node19&#45;&gt;Node20 -->
<g id="edge21" class="edge">
<title>Node19&#45;&gt;Node20</title>
<path fill="none" stroke="midnightblue" d="M677.63,-403.5C692.56,-403.5 708.82,-403.5 724.31,-403.5"/>
<polygon fill="midnightblue" stroke="midnightblue" points="724.36,-407 734.36,-403.5 724.36,-400 724.36,-407"/>
</g>
<!-- Node22 -->
<g id="node22" class="node">
<title>Node22</title>
<g id="a_node22"><a xlink:href="../../df/d4d/classAutocompleteController.html#a4aad481d8777819a1acec95affee80b2" target="_top" xlink:title=" ">
<polygon fill="white" stroke="black" points="735,-437.5 735,-467.5 854,-467.5 854,-437.5 735,-437.5"/>
<text text-anchor="start" x="743" y="-455.5" font-family="Helvetica,sans-Serif" font-size="10.00">AutocompleteController</text>
<text text-anchor="middle" x="794.5" y="-444.5" font-family="Helvetica,sans-Serif" font-size="10.00">::result</text>
</a>
</g>
</g>
<!-- Node19&#45;&gt;Node22 -->
<g id="edge23" class="edge">
<title>Node19&#45;&gt;Node22</title>
<path fill="none" stroke="midnightblue" d="M673.82,-418.6C691.74,-423.68 711.91,-429.39 730.51,-434.66"/>
<polygon fill="midnightblue" stroke="midnightblue" points="729.78,-438.09 740.36,-437.45 731.69,-431.36 729.78,-438.09"/>
</g>
<!-- Node21 -->
<g id="node21" class="node">
<title>Node21</title>
<g id="a_node21"><a xlink:href="../../d0/d22/classOmniboxEditModel.html#a8c8a925ee670cdc9bd5c0ad8b07fa1a0" target="_top" xlink:title=" ">
<polygon fill="white" stroke="black" points="894,-388.5 894,-418.5 1058,-418.5 1058,-388.5 894,-388.5"/>
<text text-anchor="start" x="902" y="-406.5" font-family="Helvetica,sans-Serif" font-size="10.00">OmniboxEditModel::autocomplete</text>
<text text-anchor="middle" x="976" y="-395.5" font-family="Helvetica,sans-Serif" font-size="10.00">_controller</text>
</a>
</g>
</g>
<!-- Node20&#45;&gt;Node21 -->
<g id="edge22" class="edge">
<title>Node20&#45;&gt;Node21</title>
<path fill="none" stroke="midnightblue" d="M854.77,-403.5C864.02,-403.5 873.76,-403.5 883.52,-403.5"/>
<polygon fill="midnightblue" stroke="midnightblue" points="883.68,-407 893.68,-403.5 883.68,-400 883.68,-407"/>
</g>
<!-- Node25 -->
<g id="node25" class="node">
<title>Node25</title>
<g id="a_node25"><a xlink:href="../../d0/d22/classOmniboxEditModel.html#a254f9536adb46b9e885d10b3d5bfe4c9" target="_top" xlink:title=" ">
<polygon fill="white" stroke="black" points="369.5,-49.5 369.5,-79.5 500.5,-79.5 500.5,-49.5 369.5,-49.5"/>
<text text-anchor="start" x="377.5" y="-67.5" font-family="Helvetica,sans-Serif" font-size="10.00">OmniboxEditModel::popup</text>
<text text-anchor="middle" x="435" y="-56.5" font-family="Helvetica,sans-Serif" font-size="10.00">_model</text>
</a>
</g>
</g>
<!-- Node24&#45;&gt;Node25 -->
<g id="edge26" class="edge">
<title>Node24&#45;&gt;Node25</title>
<path fill="none" stroke="midnightblue" d="M291.64,-115.46C312.27,-107.23 338.45,-97.02 362,-88.5 367.19,-86.62 372.61,-84.72 378.04,-82.84"/>
<polygon fill="midnightblue" stroke="midnightblue" points="379.45,-86.06 387.79,-79.52 377.19,-79.43 379.45,-86.06"/>
</g>
</g>
</svg>
