<?xml version="1.0" encoding="UTF-8" standalone="no"?>
<!DOCTYPE svg PUBLIC "-//W3C//DTD SVG 1.1//EN"
 "http://www.w3.org/Graphics/SVG/1.1/DTD/svg11.dtd">
<!-- Generated by graphviz version 2.43.0 (0)
 -->
<!-- Title: OmniboxPopupContentsView::OnSuggestionGroupVisibilityUpdate Pages: 1 -->
<!--zoomable 362 -->
<svg id="main" version="1.1" xmlns="http://www.w3.org/2000/svg" xmlns:xlink="http://www.w3.org/1999/xlink" xml:space="preserve" onload="init(evt)">
<style type="text/css"><![CDATA[
.edge:hover path { stroke: red; }
.edge:hover polygon { stroke: red; fill: red; }
]]></style>
<script type="text/javascript"><![CDATA[
var edges = document.getElementsByTagName('g');
if (edges && edges.length) {
  for (var i=0;i<edges.length;i++) {
    if (edges[i].id.substr(0,4)=='edge') {
      edges[i].setAttribute('class','edge');
    }
  }
}
]]></script>
        <defs>
                <circle id="rim" cx="0" cy="0" r="7"/>
                <circle id="rim2" cx="0" cy="0" r="3.5"/>
                <g id="zoomPlus">
                        <use xlink:href="#rim" fill="#404040">
                                <set attributeName="fill" to="#808080" begin="zoomplus.mouseover" end="zoomplus.mouseout"/>
                        </use>
                        <path d="M-4,0h8M0,-4v8" fill="none" stroke="white" stroke-width="1.5" pointer-events="none"/>
                </g>
                <g id="zoomMin">
                        <use xlink:href="#rim" fill="#404040">
                                <set attributeName="fill" to="#808080" begin="zoomminus.mouseover" end="zoomminus.mouseout"/>
                        </use>
                        <path d="M-4,0h8" fill="none" stroke="white" stroke-width="1.5" pointer-events="none"/>
                </g>
                <g id="dirArrow">
                        <path fill="none" stroke="white" stroke-width="1.5" d="M0,-3.0v7 M-2.5,-0.5L0,-3.0L2.5,-0.5"/>
                </g>
               <g id="resetDef">
                       <use xlink:href="#rim2" fill="#404040">
                               <set attributeName="fill" to="#808080" begin="reset.mouseover" end="reset.mouseout"/>
                       </use>
               </g>
        </defs>

<script type="text/javascript">
var viewWidth = 757;
var viewHeight = 362;
var sectionId = 'dynsection-31';
</script>
<script xlink:href="../../svgpan.js"/>
<svg id="graph" class="graph">
<g id="viewport">
<title>OmniboxPopupContentsView::OnSuggestionGroupVisibilityUpdate</title>
<polygon fill="white" stroke="transparent" points="-4,4 -4,-358.48 753,-358.48 753,4 -4,4"/>
<!-- Node1 -->
<g id="node1" class="node">
<title>Node1</title>
<g id="a_node1"><a xlink:title=" ">
<polygon fill="#bfbfbf" stroke="black" points="0,-120.5 0,-150.5 179,-150.5 179,-120.5 0,-120.5"/>
<text text-anchor="start" x="8" y="-138.5" font-family="Helvetica,sans-Serif" font-size="10.00">OmniboxPopupContentsView</text>
<text text-anchor="middle" x="89.5" y="-127.5" font-family="Helvetica,sans-Serif" font-size="10.00">::OnSuggestionGroupVisibilityUpdate</text>
</a>
</g>
</g>
<!-- Node2 -->
<g id="node2" class="node">
<title>Node2</title>
<g id="a_node2"><a xlink:href="../../d7/d88/classOmniboxPopupContentsView.html#a9529ce2c5e647c45cd6a7f1f9ec26d49" target="_top" xlink:title=" ">
<polygon fill="white" stroke="black" points="215,-235.5 215,-265.5 360,-265.5 360,-235.5 215,-235.5"/>
<text text-anchor="start" x="223" y="-253.5" font-family="Helvetica,sans-Serif" font-size="10.00">OmniboxPopupContentsView</text>
<text text-anchor="middle" x="287.5" y="-242.5" font-family="Helvetica,sans-Serif" font-size="10.00">::GetPrefService</text>
</a>
</g>
</g>
<!-- Node1&#45;&gt;Node2 -->
<g id="edge1" class="edge">
<title>Node1&#45;&gt;Node2</title>
<path fill="none" stroke="midnightblue" d="M107.51,-150.6C130.49,-170.35 173.39,-204.97 215,-226.5 218.5,-228.31 222.16,-230.03 225.9,-231.64"/>
<polygon fill="midnightblue" stroke="midnightblue" points="224.73,-234.95 235.31,-235.47 227.36,-228.46 224.73,-234.95"/>
</g>
<!-- Node3 -->
<g id="node3" class="node">
<title>Node3</title>
<g id="a_node3"><a xlink:href="../../d7/d88/classOmniboxPopupContentsView.html#a4fdc278926dd00f85076b050b8705b45" target="_top" xlink:title=" ">
<polygon fill="white" stroke="black" points="215,-186.5 215,-216.5 360,-216.5 360,-186.5 215,-186.5"/>
<text text-anchor="start" x="223" y="-204.5" font-family="Helvetica,sans-Serif" font-size="10.00">OmniboxPopupContentsView</text>
<text text-anchor="middle" x="287.5" y="-193.5" font-family="Helvetica,sans-Serif" font-size="10.00">::GetTargetBounds</text>
</a>
</g>
</g>
<!-- Node1&#45;&gt;Node3 -->
<g id="edge2" class="edge">
<title>Node1&#45;&gt;Node3</title>
<path fill="none" stroke="midnightblue" d="M135.47,-150.64C164.23,-160.33 201.7,-172.95 232.13,-183.19"/>
<polygon fill="midnightblue" stroke="midnightblue" points="231.15,-186.55 241.74,-186.43 233.38,-179.92 231.15,-186.55"/>
</g>
<!-- Node7 -->
<g id="node7" class="node">
<title>Node7</title>
<g id="a_node7"><a xlink:href="../../d0/d22/classOmniboxEditModel.html#ad945a332660c6122dc25b93c1eee76d8" target="_top" xlink:title=" ">
<polygon fill="white" stroke="black" points="409.5,-148 409.5,-167 538.5,-167 538.5,-148 409.5,-148"/>
<text text-anchor="middle" x="474" y="-155" font-family="Helvetica,sans-Serif" font-size="10.00">OmniboxEditModel::result</text>
</a>
</g>
</g>
<!-- Node1&#45;&gt;Node7 -->
<g id="edge12" class="edge">
<title>Node1&#45;&gt;Node7</title>
<path fill="none" stroke="midnightblue" d="M179.21,-140.6C245.9,-144.44 336.21,-149.63 399.02,-153.24"/>
<polygon fill="midnightblue" stroke="midnightblue" points="399.06,-156.75 409.25,-153.83 399.46,-149.76 399.06,-156.75"/>
</g>
<!-- Node9 -->
<g id="node9" class="node">
<title>Node9</title>
<g id="a_node9"><a xlink:href="../../d3/d03/classAutocompleteResult.html#a1353d4a449288df34f1d6dd3eff73298" target="_top" xlink:title=" ">
<polygon fill="white" stroke="black" points="215,-98.5 215,-128.5 360,-128.5 360,-98.5 215,-98.5"/>
<text text-anchor="start" x="223" y="-116.5" font-family="Helvetica,sans-Serif" font-size="10.00">AutocompleteResult</text>
<text text-anchor="middle" x="287.5" y="-105.5" font-family="Helvetica,sans-Serif" font-size="10.00">::IsSuggestionGroupIdHidden</text>
</a>
</g>
</g>
<!-- Node1&#45;&gt;Node9 -->
<g id="edge9" class="edge">
<title>Node1&#45;&gt;Node9</title>
<path fill="none" stroke="midnightblue" d="M179.04,-125.56C187.55,-124.61 196.16,-123.64 204.6,-122.69"/>
<polygon fill="midnightblue" stroke="midnightblue" points="205.25,-126.14 214.8,-121.55 204.47,-119.19 205.25,-126.14"/>
</g>
<!-- Node11 -->
<g id="node11" class="node">
<title>Node11</title>
<g id="a_node11"><a xlink:href="../../d3/d03/classAutocompleteResult.html#a1532251921e2112a24e3a52ec7ee4535" target="_top" xlink:title=" ">
<polygon fill="white" stroke="black" points="235,-49.5 235,-79.5 340,-79.5 340,-49.5 235,-49.5"/>
<text text-anchor="start" x="243" y="-67.5" font-family="Helvetica,sans-Serif" font-size="10.00">AutocompleteResult</text>
<text text-anchor="middle" x="287.5" y="-56.5" font-family="Helvetica,sans-Serif" font-size="10.00">::match_at</text>
</a>
</g>
</g>
<!-- Node1&#45;&gt;Node11 -->
<g id="edge11" class="edge">
<title>Node1&#45;&gt;Node11</title>
<path fill="none" stroke="midnightblue" d="M129.34,-120.41C153.83,-111.01 186.16,-98.78 215,-88.5 220.16,-86.66 225.55,-84.78 230.95,-82.92"/>
<polygon fill="midnightblue" stroke="midnightblue" points="232.31,-86.16 240.64,-79.61 230.05,-79.53 232.31,-86.16"/>
</g>
<!-- Node12 -->
<g id="node12" class="node">
<title>Node12</title>
<g id="a_node12"><a xlink:href="../../d7/d88/classOmniboxPopupContentsView.html#a0ef8fca14c180b001e746998febd94ac" target="_top" xlink:title=" ">
<polygon fill="white" stroke="black" points="215,-0.5 215,-30.5 360,-30.5 360,-0.5 215,-0.5"/>
<text text-anchor="start" x="223" y="-18.5" font-family="Helvetica,sans-Serif" font-size="10.00">OmniboxPopupContentsView</text>
<text text-anchor="middle" x="287.5" y="-7.5" font-family="Helvetica,sans-Serif" font-size="10.00">::result_view_at</text>
</a>
</g>
</g>
<!-- Node1&#45;&gt;Node12 -->
<g id="edge13" class="edge">
<title>Node1&#45;&gt;Node12</title>
<path fill="none" stroke="midnightblue" d="M106.58,-120.22C129.18,-99.43 172.38,-62.25 215,-39.5 218.31,-37.73 221.78,-36.06 225.33,-34.48"/>
<polygon fill="midnightblue" stroke="midnightblue" points="226.96,-37.59 234.85,-30.53 224.27,-31.13 226.96,-37.59"/>
</g>
<!-- Node4 -->
<g id="node4" class="node">
<title>Node4</title>
<g id="a_node4"><a xlink:href="../../d5/d4e/classRoundedOmniboxResultsFrame.html#a15026b194f90b8674506d2f6343e3b8a" target="_top" xlink:title=" ">
<polygon fill="white" stroke="black" points="588,-306.5 588,-336.5 749,-336.5 749,-306.5 588,-306.5"/>
<text text-anchor="start" x="596" y="-324.5" font-family="Helvetica,sans-Serif" font-size="10.00">RoundedOmniboxResultsFrame</text>
<text text-anchor="middle" x="668.5" y="-313.5" font-family="Helvetica,sans-Serif" font-size="10.00">::GetLocationBarAlignmentInsets</text>
</a>
</g>
</g>
<!-- Node3&#45;&gt;Node4 -->
<g id="edge3" class="edge">
<title>Node3&#45;&gt;Node4</title>
<path fill="none" stroke="midnightblue" d="M346.61,-216.58C351.5,-219.35 356.06,-222.63 360,-226.5 393.07,-259.05 357.95,-297.94 396,-324.5 459.76,-369.01 554.08,-354.91 613.1,-339.26"/>
<polygon fill="midnightblue" stroke="midnightblue" points="614.27,-342.56 622.98,-336.53 612.41,-335.82 614.27,-342.56"/>
</g>
<!-- Node5 -->
<g id="node5" class="node">
<title>Node5</title>
<g id="a_node5"><a xlink:href="../../d5/d4e/classRoundedOmniboxResultsFrame.html#a43cdc442bc33962744e0c39bd233c5f1" target="_top" xlink:title=" ">
<polygon fill="white" stroke="black" points="396,-284.5 396,-314.5 552,-314.5 552,-284.5 396,-284.5"/>
<text text-anchor="start" x="404" y="-302.5" font-family="Helvetica,sans-Serif" font-size="10.00">RoundedOmniboxResultsFrame</text>
<text text-anchor="middle" x="474" y="-291.5" font-family="Helvetica,sans-Serif" font-size="10.00">::GetNonResultSectionHeight</text>
</a>
</g>
</g>
<!-- Node3&#45;&gt;Node5 -->
<g id="edge4" class="edge">
<title>Node3&#45;&gt;Node5</title>
<path fill="none" stroke="midnightblue" d="M342.98,-216.59C349,-219.39 354.82,-222.67 360,-226.5 381.73,-242.57 374,-259.81 396,-275.5 398.09,-276.99 400.29,-278.4 402.55,-279.72"/>
<polygon fill="midnightblue" stroke="midnightblue" points="401.08,-282.9 411.57,-284.39 404.3,-276.68 401.08,-282.9"/>
</g>
<!-- Node6 -->
<g id="node6" class="node">
<title>Node6</title>
<g id="a_node6"><a xlink:href="../../d5/d4e/classRoundedOmniboxResultsFrame.html#aa0e95351bd443a382728294776645cae" target="_top" xlink:title=" ">
<polygon fill="white" stroke="black" points="396,-235.5 396,-265.5 552,-265.5 552,-235.5 396,-235.5"/>
<text text-anchor="start" x="404" y="-253.5" font-family="Helvetica,sans-Serif" font-size="10.00">RoundedOmniboxResultsFrame</text>
<text text-anchor="middle" x="474" y="-242.5" font-family="Helvetica,sans-Serif" font-size="10.00">::GetShadowInsets</text>
</a>
</g>
</g>
<!-- Node3&#45;&gt;Node6 -->
<g id="edge6" class="edge">
<title>Node3&#45;&gt;Node6</title>
<path fill="none" stroke="midnightblue" d="M345.11,-216.53C364.59,-221.71 386.58,-227.55 406.76,-232.91"/>
<polygon fill="midnightblue" stroke="midnightblue" points="405.93,-236.31 416.5,-235.49 407.73,-229.54 405.93,-236.31"/>
</g>
<!-- Node3&#45;&gt;Node7 -->
<g id="edge7" class="edge">
<title>Node3&#45;&gt;Node7</title>
<path fill="none" stroke="midnightblue" d="M351.48,-186.48C374.92,-180.89 401.19,-174.63 423.28,-169.36"/>
<polygon fill="midnightblue" stroke="midnightblue" points="424.2,-172.74 433.11,-167.01 422.57,-165.93 424.2,-172.74"/>
</g>
<!-- Node8 -->
<g id="node8" class="node">
<title>Node8</title>
<g id="a_node8"><a xlink:href="../../d3/d03/classAutocompleteResult.html#a64a7947a81e007d5aa56ac9b25e84bb6" target="_top" xlink:title=" ">
<polygon fill="white" stroke="black" points="421.5,-186.5 421.5,-216.5 526.5,-216.5 526.5,-186.5 421.5,-186.5"/>
<text text-anchor="start" x="429.5" y="-204.5" font-family="Helvetica,sans-Serif" font-size="10.00">AutocompleteResult</text>
<text text-anchor="middle" x="474" y="-193.5" font-family="Helvetica,sans-Serif" font-size="10.00">::size</text>
</a>
</g>
</g>
<!-- Node3&#45;&gt;Node8 -->
<g id="edge8" class="edge">
<title>Node3&#45;&gt;Node8</title>
<path fill="none" stroke="midnightblue" d="M360.1,-201.5C377.04,-201.5 394.97,-201.5 411.42,-201.5"/>
<polygon fill="midnightblue" stroke="midnightblue" points="411.45,-205 421.45,-201.5 411.45,-198 411.45,-205"/>
</g>
<!-- Node5&#45;&gt;Node4 -->
<g id="edge5" class="edge">
<title>Node5&#45;&gt;Node4</title>
<path fill="none" stroke="midnightblue" d="M552.19,-308.32C560.61,-309.28 569.23,-310.27 577.79,-311.25"/>
<polygon fill="midnightblue" stroke="midnightblue" points="577.45,-314.73 587.78,-312.39 578.24,-307.78 577.45,-314.73"/>
</g>
<!-- Node10 -->
<g id="node10" class="node">
<title>Node10</title>
<g id="a_node10"><a xlink:href="../../d4/d19/namespaceomnibox.html#a416efcfe9398c882ad7a7c97b42578e1" target="_top" xlink:title=" ">
<polygon fill="white" stroke="black" points="402.5,-98.5 402.5,-128.5 545.5,-128.5 545.5,-98.5 402.5,-98.5"/>
<text text-anchor="start" x="410.5" y="-116.5" font-family="Helvetica,sans-Serif" font-size="10.00">omnibox::GetUserPreference</text>
<text text-anchor="middle" x="474" y="-105.5" font-family="Helvetica,sans-Serif" font-size="10.00">ForSuggestionGroupVisibility</text>
</a>
</g>
</g>
<!-- Node9&#45;&gt;Node10 -->
<g id="edge10" class="edge">
<title>Node9&#45;&gt;Node10</title>
<path fill="none" stroke="midnightblue" d="M360.1,-113.5C370.61,-113.5 381.51,-113.5 392.19,-113.5"/>
<polygon fill="midnightblue" stroke="midnightblue" points="392.35,-117 402.35,-113.5 392.35,-110 392.35,-117"/>
</g>
</g>
</svg>
        <g id="navigator" transform="translate(0 0)" fill="#404254">
                <rect fill="#f2f5e9" fill-opacity="0.5" stroke="#606060" stroke-width=".5" x="0" y="0" width="60" height="60"/>
                <use id="zoomplus" xlink:href="#zoomPlus" x="17" y="9" onmousedown="handleZoom(evt,'in')"/>
                <use id="zoomminus" xlink:href="#zoomMin" x="42" y="9" onmousedown="handleZoom(evt,'out')"/>
                <use id="reset" xlink:href="#resetDef" x="30" y="36" onmousedown="handleReset()"/>
                <g id="arrowUp" xlink:href="#dirArrow" transform="translate(30 24)" onmousedown="handlePan(0,-1)">
                  <use xlink:href="#rim" fill="#404040">
                        <set attributeName="fill" to="#808080" begin="arrowUp.mouseover" end="arrowUp.mouseout"/>
                  </use>
                  <path fill="none" stroke="white" stroke-width="1.5" d="M0,-3.0v7 M-2.5,-0.5L0,-3.0L2.5,-0.5"/>
                </g>
                <g id="arrowRight" xlink:href="#dirArrow" transform="rotate(90) translate(36 -43)" onmousedown="handlePan(1,0)">
                  <use xlink:href="#rim" fill="#404040">
                        <set attributeName="fill" to="#808080" begin="arrowRight.mouseover" end="arrowRight.mouseout"/>
                  </use>
                  <path fill="none" stroke="white" stroke-width="1.5" d="M0,-3.0v7 M-2.5,-0.5L0,-3.0L2.5,-0.5"/>
                </g>
                <g id="arrowDown" xlink:href="#dirArrow" transform="rotate(180) translate(-30 -48)" onmousedown="handlePan(0,1)">
                  <use xlink:href="#rim" fill="#404040">
                        <set attributeName="fill" to="#808080" begin="arrowDown.mouseover" end="arrowDown.mouseout"/>
                  </use>
                  <path fill="none" stroke="white" stroke-width="1.5" d="M0,-3.0v7 M-2.5,-0.5L0,-3.0L2.5,-0.5"/>
                </g>
                <g id="arrowLeft" xlink:href="#dirArrow" transform="rotate(270) translate(-36 17)" onmousedown="handlePan(-1,0)">
                  <use xlink:href="#rim" fill="#404040">
                        <set attributeName="fill" to="#808080" begin="arrowLeft.mouseover" end="arrowLeft.mouseout"/>
                  </use>
                  <path fill="none" stroke="white" stroke-width="1.5" d="M0,-3.0v7 M-2.5,-0.5L0,-3.0L2.5,-0.5"/>
                </g>
        </g>
        <svg viewBox="0 0 15 15" width="100%" height="30px" preserveAspectRatio="xMaxYMin meet">
         <g id="arrow_out" transform="scale(0.3 0.3)">
          <a xlink:href="classOmniboxPopupContentsView_ae06ab100e4339eee69cbb3cdfc2143b8_cgraph_org.svg" target="_base">
           <rect id="button" ry="5" rx="5" y="6" x="6" height="38" width="38"
                fill="#f2f5e9" fill-opacity="0.5" stroke="#606060" stroke-width="1.0"/>
           <path id="arrow"
             d="M 11.500037,31.436501 C 11.940474,20.09759 22.043105,11.32322 32.158766,21.979434 L 37.068811,17.246167 C 37.068811,17.246167 37.088388,32 37.088388,32 L 22.160133,31.978069 C 22.160133,31.978069 26.997745,27.140456 26.997745,27.140456 C 18.528582,18.264221 13.291696,25.230495 11.500037,31.436501 z"
             style="fill:#404040;"/>
          </a>
         </g>
        </svg>
</svg>
