<?xml version="1.0" encoding="UTF-8" standalone="no"?>
<!DOCTYPE svg PUBLIC "-//W3C//DTD SVG 1.1//EN"
 "http://www.w3.org/Graphics/SVG/1.1/DTD/svg11.dtd">
<!-- Generated by graphviz version 2.43.0 (0)
 -->
<!-- Title: SortMatchComparator Pages: 1 -->
<!--zoomable 422 -->
<svg id="main" version="1.1" xmlns="http://www.w3.org/2000/svg" xmlns:xlink="http://www.w3.org/1999/xlink" xml:space="preserve" onload="init(evt)">
<style type="text/css"><![CDATA[
.edge:hover path { stroke: red; }
.edge:hover polygon { stroke: red; fill: red; }
]]></style>
<script type="text/javascript"><![CDATA[
var edges = document.getElementsByTagName('g');
if (edges && edges.length) {
  for (var i=0;i<edges.length;i++) {
    if (edges[i].id.substr(0,4)=='edge') {
      edges[i].setAttribute('class','edge');
    }
  }
}
]]></script>
        <defs>
                <circle id="rim" cx="0" cy="0" r="7"/>
                <circle id="rim2" cx="0" cy="0" r="3.5"/>
                <g id="zoomPlus">
                        <use xlink:href="#rim" fill="#404040">
                                <set attributeName="fill" to="#808080" begin="zoomplus.mouseover" end="zoomplus.mouseout"/>
                        </use>
                        <path d="M-4,0h8M0,-4v8" fill="none" stroke="white" stroke-width="1.5" pointer-events="none"/>
                </g>
                <g id="zoomMin">
                        <use xlink:href="#rim" fill="#404040">
                                <set attributeName="fill" to="#808080" begin="zoomminus.mouseover" end="zoomminus.mouseout"/>
                        </use>
                        <path d="M-4,0h8" fill="none" stroke="white" stroke-width="1.5" pointer-events="none"/>
                </g>
                <g id="dirArrow">
                        <path fill="none" stroke="white" stroke-width="1.5" d="M0,-3.0v7 M-2.5,-0.5L0,-3.0L2.5,-0.5"/>
                </g>
               <g id="resetDef">
                       <use xlink:href="#rim2" fill="#404040">
                               <set attributeName="fill" to="#808080" begin="reset.mouseover" end="reset.mouseout"/>
                       </use>
               </g>
        </defs>

<script type="text/javascript">
var viewWidth = 1477;
var viewHeight = 422;
var sectionId = 'dynsection-8';
</script>
<script xlink:href="../../svgpan.js"/>
<svg id="graph" class="graph">
<g id="viewport">
<title>SortMatchComparator</title>
<polygon fill="white" stroke="transparent" points="-4,4 -4,-418 1473,-418 1473,4 -4,4"/>
<!-- Node1 -->
<g id="node1" class="node">
<title>Node1</title>
<g id="a_node1"><a xlink:title=" ">
<polygon fill="#bfbfbf" stroke="black" points="1356,-171.5 1356,-190.5 1469,-190.5 1469,-171.5 1356,-171.5"/>
<text text-anchor="middle" x="1412.5" y="-178.5" font-family="Helvetica,sans-Serif" font-size="10.00">SortMatchComparator</text>
</a>
</g>
</g>
<!-- Node2 -->
<g id="node2" class="node">
<title>Node2</title>
<g id="a_node2"><a xlink:href="../../d7/daf/in__memory__url__index__types_8cc.html#af8b5ad29b184b31f6b9a4e0c7f7106c0" target="_top" xlink:title=" ">
<polygon fill="white" stroke="black" points="1248,-171.5 1248,-190.5 1320,-190.5 1320,-171.5 1248,-171.5"/>
<text text-anchor="middle" x="1284" y="-178.5" font-family="Helvetica,sans-Serif" font-size="10.00">SortMatches</text>
</a>
</g>
</g>
<!-- Node1&#45;&gt;Node2 -->
<g id="edge1" class="edge">
<title>Node1&#45;&gt;Node2</title>
<path fill="none" stroke="midnightblue" d="M1345.44,-181C1336.73,-181 1328.1,-181 1320.2,-181"/>
<polygon fill="midnightblue" stroke="midnightblue" points="1345.65,-184.5 1355.65,-181 1345.65,-177.5 1345.65,-184.5"/>
</g>
<!-- Node3 -->
<g id="node3" class="node">
<title>Node3</title>
<g id="a_node3"><a xlink:href="../../dc/db8/autocomplete__match__classification_8cc.html#a854bdbfcba7705ea05f3f6b08c904eb8" target="_top" xlink:title=" ">
<polygon fill="white" stroke="black" points="1108.5,-193.5 1108.5,-212.5 1203.5,-212.5 1203.5,-193.5 1108.5,-193.5"/>
<text text-anchor="middle" x="1156" y="-200.5" font-family="Helvetica,sans-Serif" font-size="10.00">FindTermMatches</text>
</a>
</g>
</g>
<!-- Node2&#45;&gt;Node3 -->
<g id="edge2" class="edge">
<title>Node2&#45;&gt;Node3</title>
<path fill="none" stroke="midnightblue" d="M1237.96,-188.86C1226.83,-190.81 1214.89,-192.89 1203.69,-194.85"/>
<polygon fill="midnightblue" stroke="midnightblue" points="1238.65,-192.3 1247.9,-187.13 1237.45,-185.4 1238.65,-192.3"/>
</g>
<!-- Node33 -->
<g id="node33" class="node">
<title>Node33</title>
<g id="a_node33"><a xlink:href="../../d3/d1d/structScoredHistoryMatch.html#a5f68849bd57e980dbe2caa1a6e488cad" target="_top" xlink:title=" ">
<polygon fill="white" stroke="black" points="1100,-144 1100,-174 1212,-174 1212,-144 1100,-144"/>
<text text-anchor="start" x="1108" y="-162" font-family="Helvetica,sans-Serif" font-size="10.00">ScoredHistoryMatch</text>
<text text-anchor="middle" x="1156" y="-151" font-family="Helvetica,sans-Serif" font-size="10.00">::ScoredHistoryMatch</text>
</a>
</g>
</g>
<!-- Node2&#45;&gt;Node33 -->
<g id="edge38" class="edge">
<title>Node2&#45;&gt;Node33</title>
<path fill="none" stroke="midnightblue" d="M1237.99,-173.14C1229.64,-171.68 1220.82,-170.14 1212.21,-168.64"/>
<polygon fill="midnightblue" stroke="midnightblue" points="1237.45,-176.6 1247.9,-174.87 1238.65,-169.7 1237.45,-176.6"/>
</g>
<!-- Node4 -->
<g id="node4" class="node">
<title>Node4</title>
<g id="a_node4"><a xlink:href="../../dd/d0f/classSearchSuggestionParser_1_1NavigationResult.html#a99b53d89e9883b51f6801975df0b8b16" target="_top" xlink:title=" ">
<polygon fill="white" stroke="black" points="919,-370.5 919,-411.5 1064,-411.5 1064,-370.5 919,-370.5"/>
<text text-anchor="start" x="927" y="-399.5" font-family="Helvetica,sans-Serif" font-size="10.00">SearchSuggestionParser</text>
<text text-anchor="start" x="927" y="-388.5" font-family="Helvetica,sans-Serif" font-size="10.00">::NavigationResult::Calculate</text>
<text text-anchor="middle" x="991.5" y="-377.5" font-family="Helvetica,sans-Serif" font-size="10.00">AndClassifyMatchContents</text>
</a>
</g>
</g>
<!-- Node3&#45;&gt;Node4 -->
<g id="edge3" class="edge">
<title>Node3&#45;&gt;Node4</title>
<path fill="none" stroke="midnightblue" d="M1148.47,-222.13C1136.51,-254.57 1108.19,-320.67 1064,-360 1059.65,-363.87 1054.75,-367.31 1049.6,-370.36"/>
<polygon fill="midnightblue" stroke="midnightblue" points="1151.84,-223.1 1151.9,-212.51 1145.25,-220.75 1151.84,-223.1"/>
</g>
<!-- Node6 -->
<g id="node6" class="node">
<title>Node6</title>
<g id="a_node6"><a xlink:href="../../dc/dfa/classDocumentProvider.html#aefbd2c580326d23a50e1219a186d7921" target="_top" xlink:title=" ">
<polygon fill="white" stroke="black" points="921.5,-268.5 921.5,-287.5 1061.5,-287.5 1061.5,-268.5 921.5,-268.5"/>
<text text-anchor="middle" x="991.5" y="-275.5" font-family="Helvetica,sans-Serif" font-size="10.00">DocumentProvider::Classify</text>
</a>
</g>
</g>
<!-- Node3&#45;&gt;Node6 -->
<g id="edge5" class="edge">
<title>Node3&#45;&gt;Node6</title>
<path fill="none" stroke="midnightblue" d="M1130.6,-217.86C1112.59,-228.46 1087.27,-242.62 1064,-253 1051.03,-258.78 1036.28,-264.14 1023.55,-268.39"/>
<polygon fill="midnightblue" stroke="midnightblue" points="1132.5,-220.8 1139.3,-212.68 1128.92,-214.79 1132.5,-220.8"/>
</g>
<!-- Node12 -->
<g id="node12" class="node">
<title>Node12</title>
<g id="a_node12"><a xlink:href="../../dd/de9/classAutocompleteProvider.html#ad8da4f96e7eb8bfc070e107bd576321d" target="_top" xlink:title=" ">
<polygon fill="white" stroke="black" points="921,-213 921,-243 1062,-243 1062,-213 921,-213"/>
<text text-anchor="start" x="929" y="-231" font-family="Helvetica,sans-Serif" font-size="10.00">AutocompleteProvider</text>
<text text-anchor="middle" x="991.5" y="-220" font-family="Helvetica,sans-Serif" font-size="10.00">::ClassifyAllMatchesInString</text>
</a>
</g>
</g>
<!-- Node3&#45;&gt;Node12 -->
<g id="edge11" class="edge">
<title>Node3&#45;&gt;Node12</title>
<path fill="none" stroke="midnightblue" d="M1098.37,-211.71C1086.66,-213.51 1074.2,-215.43 1062.09,-217.29"/>
<polygon fill="midnightblue" stroke="midnightblue" points="1099.08,-215.14 1108.43,-210.16 1098.02,-208.23 1099.08,-215.14"/>
</g>
<!-- Node18 -->
<g id="node18" class="node">
<title>Node18</title>
<g id="a_node18"><a xlink:href="../../dd/d0f/classSearchSuggestionParser_1_1NavigationResult.html#a1f94c19a37bd00a4479638a31279d5f8" target="_top" xlink:title=" ">
<polygon fill="white" stroke="black" points="921.5,-309.5 921.5,-350.5 1061.5,-350.5 1061.5,-309.5 921.5,-309.5"/>
<text text-anchor="start" x="929.5" y="-338.5" font-family="Helvetica,sans-Serif" font-size="10.00">SearchSuggestionParser</text>
<text text-anchor="start" x="929.5" y="-327.5" font-family="Helvetica,sans-Serif" font-size="10.00">::NavigationResult::Classify</text>
<text text-anchor="middle" x="991.5" y="-316.5" font-family="Helvetica,sans-Serif" font-size="10.00">Description</text>
</a>
</g>
</g>
<!-- Node3&#45;&gt;Node18 -->
<g id="edge17" class="edge">
<title>Node3&#45;&gt;Node18</title>
<path fill="none" stroke="midnightblue" d="M1141.42,-220.54C1124.89,-240.99 1095.29,-274.81 1064,-297 1057.64,-301.51 1050.57,-305.65 1043.42,-309.35"/>
<polygon fill="midnightblue" stroke="midnightblue" points="1144.2,-222.68 1147.68,-212.67 1138.72,-218.32 1144.2,-222.68"/>
</g>
<!-- Node19 -->
<g id="node19" class="node">
<title>Node19</title>
<g id="a_node19"><a xlink:href="../../da/dad/classHistoryURLProvider.html#a165834594bca45663c12cc77f5763556" target="_top" xlink:title=" ">
<polygon fill="white" stroke="black" points="937.5,-164 937.5,-194 1045.5,-194 1045.5,-164 937.5,-164"/>
<text text-anchor="start" x="945.5" y="-182" font-family="Helvetica,sans-Serif" font-size="10.00">HistoryURLProvider</text>
<text text-anchor="middle" x="991.5" y="-171" font-family="Helvetica,sans-Serif" font-size="10.00">::ClassifyDescription</text>
</a>
</g>
</g>
<!-- Node3&#45;&gt;Node19 -->
<g id="edge19" class="edge">
<title>Node3&#45;&gt;Node19</title>
<path fill="none" stroke="midnightblue" d="M1098.06,-194.59C1081.03,-192.08 1062.43,-189.33 1045.66,-186.85"/>
<polygon fill="midnightblue" stroke="midnightblue" points="1098.03,-198.12 1108.43,-196.12 1099.05,-191.2 1098.03,-198.12"/>
</g>
<!-- Node24 -->
<g id="node24" class="node">
<title>Node24</title>
<g id="a_node24"><a xlink:href="../../da/dad/classHistoryURLProvider.html#a7916812392de472afbe860622a910f8c" target="_top" xlink:title=" ">
<polygon fill="white" stroke="black" points="728.5,-115 728.5,-145 861.5,-145 861.5,-115 728.5,-115"/>
<text text-anchor="start" x="736.5" y="-133" font-family="Helvetica,sans-Serif" font-size="10.00">HistoryURLProvider</text>
<text text-anchor="middle" x="795" y="-122" font-family="Helvetica,sans-Serif" font-size="10.00">::HistoryMatchToACMatch</text>
</a>
</g>
</g>
<!-- Node3&#45;&gt;Node24 -->
<g id="edge31" class="edge">
<title>Node3&#45;&gt;Node24</title>
<path fill="none" stroke="midnightblue" d="M1111.79,-189.7C1107.72,-187.96 1103.73,-186.06 1100,-184 1082.02,-174.05 1083.04,-162.73 1064,-155 998.73,-128.51 917.39,-124.55 861.55,-125.77"/>
<polygon fill="midnightblue" stroke="midnightblue" points="1110.75,-193.05 1121.34,-193.44 1113.31,-186.53 1110.75,-193.05"/>
</g>
<!-- Node27 -->
<g id="node27" class="node">
<title>Node27</title>
<g id="a_node27"><a xlink:href="../../d4/dfb/classHistoryQuickProvider.html#a7b399ca42a8512a7187e26daa68c91b7" target="_top" xlink:title=" ">
<polygon fill="white" stroke="black" points="928,-73 928,-103 1055,-103 1055,-73 928,-73"/>
<text text-anchor="start" x="936" y="-91" font-family="Helvetica,sans-Serif" font-size="10.00">HistoryQuickProvider</text>
<text text-anchor="middle" x="991.5" y="-80" font-family="Helvetica,sans-Serif" font-size="10.00">::QuickMatchToACMatch</text>
</a>
</g>
</g>
<!-- Node3&#45;&gt;Node27 -->
<g id="edge32" class="edge">
<title>Node3&#45;&gt;Node27</title>
<path fill="none" stroke="midnightblue" d="M1106.39,-188.63C1104.14,-187.22 1101.99,-185.68 1100,-184 1074.49,-162.42 1088.8,-140.39 1064,-118 1057.31,-111.96 1049.22,-107.02 1040.92,-103.03"/>
<polygon fill="midnightblue" stroke="midnightblue" points="1105.02,-191.86 1115.5,-193.4 1108.27,-185.66 1105.02,-191.86"/>
</g>
<!-- Node30 -->
<g id="node30" class="node">
<title>Node30</title>
<g id="a_node30"><a xlink:href="../../d9/d3f/namespacebookmarks.html#ae1033bf99cb69672ce0233663385e6c5" target="_top" xlink:title=" ">
<polygon fill="white" stroke="black" points="924.5,-24 924.5,-54 1058.5,-54 1058.5,-24 924.5,-24"/>
<text text-anchor="start" x="932.5" y="-42" font-family="Helvetica,sans-Serif" font-size="10.00">bookmarks::TitledUrlMatch</text>
<text text-anchor="middle" x="991.5" y="-31" font-family="Helvetica,sans-Serif" font-size="10.00">ToAutocompleteMatch</text>
</a>
</g>
</g>
<!-- Node3&#45;&gt;Node30 -->
<g id="edge35" class="edge">
<title>Node3&#45;&gt;Node30</title>
<path fill="none" stroke="midnightblue" d="M1104.49,-188.02C1102.9,-186.79 1101.39,-185.45 1100,-184 1061.45,-143.83 1102.48,-104.25 1064,-64 1060.27,-60.1 1055.91,-56.81 1051.2,-54.04"/>
<polygon fill="midnightblue" stroke="midnightblue" points="1102.75,-191.06 1113.09,-193.39 1106.46,-185.13 1102.75,-191.06"/>
</g>
<!-- Node5 -->
<g id="node5" class="node">
<title>Node5</title>
<g id="a_node5"><a xlink:href="../../dd/d0f/classSearchSuggestionParser_1_1NavigationResult.html#adedfeeaa9c4a7997e222aa6824b6f5f4" target="_top" xlink:title=" ">
<polygon fill="white" stroke="black" points="720,-372.5 720,-413.5 870,-413.5 870,-372.5 720,-372.5"/>
<text text-anchor="start" x="728" y="-401.5" font-family="Helvetica,sans-Serif" font-size="10.00">SearchSuggestionParser</text>
<text text-anchor="start" x="728" y="-390.5" font-family="Helvetica,sans-Serif" font-size="10.00">::NavigationResult::Navigation</text>
<text text-anchor="middle" x="795" y="-379.5" font-family="Helvetica,sans-Serif" font-size="10.00">Result</text>
</a>
</g>
</g>
<!-- Node4&#45;&gt;Node5 -->
<g id="edge4" class="edge">
<title>Node4&#45;&gt;Node5</title>
<path fill="none" stroke="midnightblue" d="M908.71,-391.84C895.89,-391.97 882.69,-392.11 870.05,-392.24"/>
<polygon fill="midnightblue" stroke="midnightblue" points="908.94,-395.34 918.9,-391.74 908.87,-388.34 908.94,-395.34"/>
</g>
<!-- Node7 -->
<g id="node7" class="node">
<title>Node7</title>
<g id="a_node7"><a xlink:href="../../dc/dfa/classDocumentProvider.html#af3f28f0db7d2555450a770571288099d" target="_top" xlink:title=" ">
<polygon fill="white" stroke="black" points="708,-323 708,-353 882,-353 882,-323 708,-323"/>
<text text-anchor="start" x="716" y="-341" font-family="Helvetica,sans-Serif" font-size="10.00">DocumentProvider::ParseDocument</text>
<text text-anchor="middle" x="795" y="-330" font-family="Helvetica,sans-Serif" font-size="10.00">SearchResults</text>
</a>
</g>
</g>
<!-- Node6&#45;&gt;Node7 -->
<g id="edge6" class="edge">
<title>Node6&#45;&gt;Node7</title>
<path fill="none" stroke="midnightblue" d="M948.5,-290.56C938.78,-293.56 928.51,-296.82 919,-300 902.87,-305.39 899.18,-307.76 883,-313 872.53,-316.39 861.29,-319.79 850.47,-322.95"/>
<polygon fill="midnightblue" stroke="midnightblue" points="949.83,-293.81 958.36,-287.53 947.78,-287.12 949.83,-293.81"/>
</g>
<!-- Node8 -->
<g id="node8" class="node">
<title>Node8</title>
<g id="a_node8"><a xlink:href="../../dc/dfa/classDocumentProvider.html#a01f932ec42e54a121bf93abe3d75c1d7" target="_top" xlink:title=" ">
<polygon fill="white" stroke="black" points="524.5,-323 524.5,-353 659.5,-353 659.5,-323 524.5,-323"/>
<text text-anchor="start" x="532.5" y="-341" font-family="Helvetica,sans-Serif" font-size="10.00">DocumentProvider::Update</text>
<text text-anchor="middle" x="592" y="-330" font-family="Helvetica,sans-Serif" font-size="10.00">Results</text>
</a>
</g>
</g>
<!-- Node7&#45;&gt;Node8 -->
<g id="edge7" class="edge">
<title>Node7&#45;&gt;Node8</title>
<path fill="none" stroke="midnightblue" d="M697.65,-338C684.85,-338 671.95,-338 659.8,-338"/>
<polygon fill="midnightblue" stroke="midnightblue" points="697.88,-341.5 707.88,-338 697.88,-334.5 697.88,-341.5"/>
</g>
<!-- Node9 -->
<g id="node9" class="node">
<title>Node9</title>
<g id="a_node9"><a xlink:href="../../dc/dfa/classDocumentProvider.html#a2bfea6fa03acad2d185a55cc86847624" target="_top" xlink:title=" ">
<polygon fill="white" stroke="black" points="319,-323 319,-353 477,-353 477,-323 319,-323"/>
<text text-anchor="start" x="327" y="-341" font-family="Helvetica,sans-Serif" font-size="10.00">DocumentProvider::OnURLLoad</text>
<text text-anchor="middle" x="398" y="-330" font-family="Helvetica,sans-Serif" font-size="10.00">Complete</text>
</a>
</g>
</g>
<!-- Node8&#45;&gt;Node9 -->
<g id="edge8" class="edge">
<title>Node8&#45;&gt;Node9</title>
<path fill="none" stroke="midnightblue" d="M514.23,-338C501.99,-338 489.31,-338 477.04,-338"/>
<polygon fill="midnightblue" stroke="midnightblue" points="514.39,-341.5 524.39,-338 514.39,-334.5 514.39,-341.5"/>
</g>
<!-- Node10 -->
<g id="node10" class="node">
<title>Node10</title>
<g id="a_node10"><a xlink:href="../../dc/dfa/classDocumentProvider.html#ab41060dd5676c221e9904cd0fc156149" target="_top" xlink:title=" ">
<polygon fill="white" stroke="black" points="161,-328.5 161,-347.5 283,-347.5 283,-328.5 161,-328.5"/>
<text text-anchor="middle" x="222" y="-335.5" font-family="Helvetica,sans-Serif" font-size="10.00">DocumentProvider::Run</text>
</a>
</g>
</g>
<!-- Node9&#45;&gt;Node10 -->
<g id="edge9" class="edge">
<title>Node9&#45;&gt;Node10</title>
<path fill="none" stroke="midnightblue" d="M308.73,-338C300.06,-338 291.4,-338 283.1,-338"/>
<polygon fill="midnightblue" stroke="midnightblue" points="308.91,-341.5 318.91,-338 308.91,-334.5 308.91,-341.5"/>
</g>
<!-- Node11 -->
<g id="node11" class="node">
<title>Node11</title>
<g id="a_node11"><a xlink:href="../../dc/dfa/classDocumentProvider.html#a8b72b3391cd4d228b531f63938023a08" target="_top" xlink:title=" ">
<polygon fill="white" stroke="black" points="0,-328.5 0,-347.5 125,-347.5 125,-328.5 0,-328.5"/>
<text text-anchor="middle" x="62.5" y="-335.5" font-family="Helvetica,sans-Serif" font-size="10.00">DocumentProvider::Start</text>
</a>
</g>
</g>
<!-- Node10&#45;&gt;Node11 -->
<g id="edge10" class="edge">
<title>Node10&#45;&gt;Node11</title>
<path fill="none" stroke="midnightblue" d="M150.36,-338C141.93,-338 133.37,-338 125.08,-338"/>
<polygon fill="midnightblue" stroke="midnightblue" points="150.56,-341.5 160.56,-338 150.56,-334.5 150.56,-341.5"/>
</g>
<!-- Node13 -->
<g id="node13" class="node">
<title>Node13</title>
<g id="a_node13"><a xlink:href="../../d4/d3d/classSearchSuggestionParser_1_1SuggestResult.html#a5ef2e2679c7799ceb7a97abe3ba7e8de" target="_top" xlink:title=" ">
<polygon fill="white" stroke="black" points="717,-262.5 717,-303.5 873,-303.5 873,-262.5 717,-262.5"/>
<text text-anchor="start" x="725" y="-291.5" font-family="Helvetica,sans-Serif" font-size="10.00">SearchSuggestionParser</text>
<text text-anchor="start" x="725" y="-280.5" font-family="Helvetica,sans-Serif" font-size="10.00">::SuggestResult::ClassifyMatch</text>
<text text-anchor="middle" x="795" y="-269.5" font-family="Helvetica,sans-Serif" font-size="10.00">Contents</text>
</a>
</g>
</g>
<!-- Node12&#45;&gt;Node13 -->
<g id="edge12" class="edge">
<title>Node12&#45;&gt;Node13</title>
<path fill="none" stroke="midnightblue" d="M927.72,-245.75C908.92,-251.07 888.15,-256.94 868.77,-262.42"/>
<polygon fill="midnightblue" stroke="midnightblue" points="928.68,-249.12 937.35,-243.03 926.78,-242.38 928.68,-249.12"/>
</g>
<!-- Node15 -->
<g id="node15" class="node">
<title>Node15</title>
<g id="a_node15"><a xlink:href="../../d7/d54/classShortcutsProvider.html#af3f9f49d6b067473aad145aa91e463a5" target="_top" xlink:title=" ">
<polygon fill="white" stroke="black" points="742.5,-213 742.5,-243 847.5,-243 847.5,-213 742.5,-213"/>
<text text-anchor="start" x="750.5" y="-231" font-family="Helvetica,sans-Serif" font-size="10.00">ShortcutsProvider::</text>
<text text-anchor="middle" x="795" y="-220" font-family="Helvetica,sans-Serif" font-size="10.00">ShortcutToACMatch</text>
</a>
</g>
</g>
<!-- Node12&#45;&gt;Node15 -->
<g id="edge14" class="edge">
<title>Node12&#45;&gt;Node15</title>
<path fill="none" stroke="midnightblue" d="M910.83,-228C889.56,-228 867.13,-228 847.79,-228"/>
<polygon fill="midnightblue" stroke="midnightblue" points="910.83,-231.5 920.83,-228 910.83,-224.5 910.83,-231.5"/>
</g>
<!-- Node14 -->
<g id="node14" class="node">
<title>Node14</title>
<g id="a_node14"><a xlink:href="../../d4/d3d/classSearchSuggestionParser_1_1SuggestResult.html#a5afae3b5bbe90ccd52b96b811a7cf6e0" target="_top" xlink:title=" ">
<polygon fill="white" stroke="black" points="513,-268 513,-298 671,-298 671,-268 513,-268"/>
<text text-anchor="start" x="521" y="-286" font-family="Helvetica,sans-Serif" font-size="10.00">SearchSuggestionParser</text>
<text text-anchor="middle" x="592" y="-275" font-family="Helvetica,sans-Serif" font-size="10.00">::SuggestResult::SuggestResult</text>
</a>
</g>
</g>
<!-- Node13&#45;&gt;Node14 -->
<g id="edge13" class="edge">
<title>Node13&#45;&gt;Node14</title>
<path fill="none" stroke="midnightblue" d="M706.61,-283C694.85,-283 682.85,-283 671.26,-283"/>
<polygon fill="midnightblue" stroke="midnightblue" points="706.86,-286.5 716.86,-283 706.86,-279.5 706.86,-286.5"/>
</g>
<!-- Node16 -->
<g id="node16" class="node">
<title>Node16</title>
<g id="a_node16"><a xlink:href="../../d7/d54/classShortcutsProvider.html#a41688b93a4f3250b9d703a7393f7a6d2" target="_top" xlink:title=" ">
<polygon fill="white" stroke="black" points="541.5,-216 541.5,-246 642.5,-246 642.5,-216 541.5,-216"/>
<text text-anchor="start" x="549.5" y="-234" font-family="Helvetica,sans-Serif" font-size="10.00">ShortcutsProvider::</text>
<text text-anchor="middle" x="592" y="-223" font-family="Helvetica,sans-Serif" font-size="10.00">GetMatches</text>
</a>
</g>
</g>
<!-- Node15&#45;&gt;Node16 -->
<g id="edge15" class="edge">
<title>Node15&#45;&gt;Node16</title>
<path fill="none" stroke="midnightblue" d="M732.15,-228.92C703.41,-229.35 669.68,-229.86 642.63,-230.26"/>
<polygon fill="midnightblue" stroke="midnightblue" points="732.55,-232.42 742.5,-228.77 732.45,-225.42 732.55,-232.42"/>
</g>
<!-- Node17 -->
<g id="node17" class="node">
<title>Node17</title>
<g id="a_node17"><a xlink:href="../../d7/d54/classShortcutsProvider.html#a35f84843c54123f37cfed2c878c90427" target="_top" xlink:title=" ">
<polygon fill="white" stroke="black" points="347.5,-219 347.5,-249 448.5,-249 448.5,-219 347.5,-219"/>
<text text-anchor="start" x="355.5" y="-237" font-family="Helvetica,sans-Serif" font-size="10.00">ShortcutsProvider::</text>
<text text-anchor="middle" x="398" y="-226" font-family="Helvetica,sans-Serif" font-size="10.00">Start</text>
</a>
</g>
</g>
<!-- Node16&#45;&gt;Node17 -->
<g id="edge16" class="edge">
<title>Node16&#45;&gt;Node17</title>
<path fill="none" stroke="midnightblue" d="M530.79,-231.94C504.39,-232.35 473.77,-232.83 448.69,-233.22"/>
<polygon fill="midnightblue" stroke="midnightblue" points="531.11,-235.44 541.06,-231.78 531,-228.44 531.11,-235.44"/>
</g>
<!-- Node18&#45;&gt;Node5 -->
<g id="edge18" class="edge">
<title>Node18&#45;&gt;Node5</title>
<path fill="none" stroke="midnightblue" d="M917.52,-353.64C898.38,-359.84 877.91,-366.47 859.33,-372.49"/>
<polygon fill="midnightblue" stroke="midnightblue" points="918.65,-356.95 927.08,-350.54 916.49,-350.29 918.65,-356.95"/>
</g>
<!-- Node20 -->
<g id="node20" class="node">
<title>Node20</title>
<g id="a_node20"><a xlink:href="../../da/dad/classHistoryURLProvider.html#a822b419eb238e4369fa3012bb04513f8" target="_top" xlink:title=" ">
<polygon fill="white" stroke="black" points="734.5,-164 734.5,-194 855.5,-194 855.5,-164 734.5,-164"/>
<text text-anchor="start" x="742.5" y="-182" font-family="Helvetica,sans-Serif" font-size="10.00">HistoryURLProvider</text>
<text text-anchor="middle" x="795" y="-171" font-family="Helvetica,sans-Serif" font-size="10.00">::FixupExactSuggestion</text>
</a>
</g>
</g>
<!-- Node19&#45;&gt;Node20 -->
<g id="edge20" class="edge">
<title>Node19&#45;&gt;Node20</title>
<path fill="none" stroke="midnightblue" d="M927.33,-179C904.29,-179 878.32,-179 855.6,-179"/>
<polygon fill="midnightblue" stroke="midnightblue" points="927.35,-182.5 937.35,-179 927.35,-175.5 927.35,-182.5"/>
</g>
<!-- Node19&#45;&gt;Node24 -->
<g id="edge25" class="edge">
<title>Node19&#45;&gt;Node24</title>
<path fill="none" stroke="midnightblue" d="M927.64,-163.16C904.52,-157.34 878.42,-150.76 855.6,-145.01"/>
<polygon fill="midnightblue" stroke="midnightblue" points="926.8,-166.56 937.35,-165.61 928.51,-159.77 926.8,-166.56"/>
</g>
<!-- Node21 -->
<g id="node21" class="node">
<title>Node21</title>
<g id="a_node21"><a xlink:href="../../da/dad/classHistoryURLProvider.html#a5fc3efbb45bc4e93df981144b60d753f" target="_top" xlink:title=" ">
<polygon fill="white" stroke="black" points="346,-170 346,-200 450,-200 450,-170 346,-170"/>
<text text-anchor="start" x="354" y="-188" font-family="Helvetica,sans-Serif" font-size="10.00">HistoryURLProvider</text>
<text text-anchor="middle" x="398" y="-177" font-family="Helvetica,sans-Serif" font-size="10.00">::DoAutocomplete</text>
</a>
</g>
</g>
<!-- Node20&#45;&gt;Node21 -->
<g id="edge21" class="edge">
<title>Node20&#45;&gt;Node21</title>
<path fill="none" stroke="midnightblue" d="M724.16,-180.06C645.68,-181.25 520.14,-183.16 450.23,-184.22"/>
<polygon fill="midnightblue" stroke="midnightblue" points="724.49,-183.56 734.44,-179.9 724.38,-176.56 724.49,-183.56"/>
</g>
<!-- Node22 -->
<g id="node22" class="node">
<title>Node22</title>
<g id="a_node22"><a xlink:href="../../da/dad/classHistoryURLProvider.html#afb38c4ac596ac8c3de848f4c35f53656" target="_top" xlink:title=" ">
<polygon fill="white" stroke="black" points="170,-123 170,-153 274,-153 274,-123 170,-123"/>
<text text-anchor="start" x="178" y="-141" font-family="Helvetica,sans-Serif" font-size="10.00">HistoryURLProvider</text>
<text text-anchor="middle" x="222" y="-130" font-family="Helvetica,sans-Serif" font-size="10.00">::ExecuteWithDB</text>
</a>
</g>
</g>
<!-- Node21&#45;&gt;Node22 -->
<g id="edge22" class="edge">
<title>Node21&#45;&gt;Node22</title>
<path fill="none" stroke="midnightblue" d="M336.01,-168.53C315.82,-163.07 293.58,-157.06 274.2,-151.83"/>
<polygon fill="midnightblue" stroke="midnightblue" points="335.17,-171.92 345.74,-171.15 336.99,-165.17 335.17,-171.92"/>
</g>
<!-- Node23 -->
<g id="node23" class="node">
<title>Node23</title>
<g id="a_node23"><a xlink:href="../../da/dad/classHistoryURLProvider.html#ad8668da3c2254ca7ac51f0d7b0fc4104" target="_top" xlink:title=" ">
<polygon fill="white" stroke="black" points="10.5,-123 10.5,-153 114.5,-153 114.5,-123 10.5,-123"/>
<text text-anchor="start" x="18.5" y="-141" font-family="Helvetica,sans-Serif" font-size="10.00">HistoryURLProvider</text>
<text text-anchor="middle" x="62.5" y="-130" font-family="Helvetica,sans-Serif" font-size="10.00">::Start</text>
</a>
</g>
</g>
<!-- Node21&#45;&gt;Node23 -->
<g id="edge24" class="edge">
<title>Node21&#45;&gt;Node23</title>
<path fill="none" stroke="midnightblue" d="M335.4,-181.93C287.57,-178.9 219.73,-173.2 161,-163 145.76,-160.35 129.41,-156.55 114.53,-152.7"/>
<polygon fill="midnightblue" stroke="midnightblue" points="335.4,-185.44 345.59,-182.55 335.82,-178.45 335.4,-185.44"/>
</g>
<!-- Node22&#45;&gt;Node23 -->
<g id="edge23" class="edge">
<title>Node22&#45;&gt;Node23</title>
<path fill="none" stroke="midnightblue" d="M159.71,-138C144.81,-138 129.03,-138 114.65,-138"/>
<polygon fill="midnightblue" stroke="midnightblue" points="159.86,-141.5 169.86,-138 159.86,-134.5 159.86,-141.5"/>
</g>
<!-- Node25 -->
<g id="node25" class="node">
<title>Node25</title>
<g id="a_node25"><a xlink:href="../../da/dad/classHistoryURLProvider.html#ac09d95504d0957ea4c3608fc6a0d82c6" target="_top" xlink:title=" ">
<polygon fill="white" stroke="black" points="517,-88 517,-118 667,-118 667,-88 517,-88"/>
<text text-anchor="start" x="525" y="-106" font-family="Helvetica,sans-Serif" font-size="10.00">HistoryURLProvider</text>
<text text-anchor="middle" x="592" y="-95" font-family="Helvetica,sans-Serif" font-size="10.00">::PromoteMatchesIfNecessary</text>
</a>
</g>
</g>
<!-- Node24&#45;&gt;Node25 -->
<g id="edge26" class="edge">
<title>Node24&#45;&gt;Node25</title>
<path fill="none" stroke="midnightblue" d="M718.2,-119.82C701.49,-117.57 683.8,-115.2 667.16,-112.96"/>
<polygon fill="midnightblue" stroke="midnightblue" points="718.09,-123.33 728.46,-121.2 719.02,-116.4 718.09,-123.33"/>
</g>
<!-- Node26 -->
<g id="node26" class="node">
<title>Node26</title>
<g id="a_node26"><a xlink:href="../../da/dad/classHistoryURLProvider.html#ab297ab23ac3520f3f0be38417325e609" target="_top" xlink:title=" ">
<polygon fill="white" stroke="black" points="346,-121 346,-151 450,-151 450,-121 346,-121"/>
<text text-anchor="start" x="354" y="-139" font-family="Helvetica,sans-Serif" font-size="10.00">HistoryURLProvider</text>
<text text-anchor="middle" x="398" y="-128" font-family="Helvetica,sans-Serif" font-size="10.00">::QueryComplete</text>
</a>
</g>
</g>
<!-- Node24&#45;&gt;Node26 -->
<g id="edge30" class="edge">
<title>Node24&#45;&gt;Node26</title>
<path fill="none" stroke="midnightblue" d="M717.98,-131.15C639.15,-132.35 518.1,-134.19 450.04,-135.22"/>
<polygon fill="midnightblue" stroke="midnightblue" points="718.38,-134.65 728.33,-131 718.28,-127.65 718.38,-134.65"/>
</g>
<!-- Node25&#45;&gt;Node23 -->
<g id="edge29" class="edge">
<title>Node25&#45;&gt;Node23</title>
<path fill="none" stroke="midnightblue" d="M506.73,-99.82C419.72,-97.77 280.25,-97.99 161,-114 145.8,-116.04 129.52,-119.52 114.71,-123.2"/>
<polygon fill="midnightblue" stroke="midnightblue" points="506.73,-103.32 516.81,-100.07 506.9,-96.32 506.73,-103.32"/>
</g>
<!-- Node25&#45;&gt;Node26 -->
<g id="edge27" class="edge">
<title>Node25&#45;&gt;Node26</title>
<path fill="none" stroke="midnightblue" d="M506.76,-117.48C487.48,-120.79 467.56,-124.22 450.16,-127.21"/>
<polygon fill="midnightblue" stroke="midnightblue" points="507.51,-120.9 516.77,-115.76 506.32,-114 507.51,-120.9"/>
</g>
<!-- Node26&#45;&gt;Node22 -->
<g id="edge28" class="edge">
<title>Node26&#45;&gt;Node22</title>
<path fill="none" stroke="midnightblue" d="M335.74,-136.7C315.62,-136.94 293.49,-137.19 274.2,-137.41"/>
<polygon fill="midnightblue" stroke="midnightblue" points="335.78,-140.2 345.74,-136.59 335.7,-133.2 335.78,-140.2"/>
</g>
<!-- Node28 -->
<g id="node28" class="node">
<title>Node28</title>
<g id="a_node28"><a xlink:href="../../d4/dfb/classHistoryQuickProvider.html#a9c0b9a122cf1a2a0f952e1b70c0c4c0a" target="_top" xlink:title=" ">
<polygon fill="white" stroke="black" points="740,-61 740,-91 850,-91 850,-61 740,-61"/>
<text text-anchor="start" x="748" y="-79" font-family="Helvetica,sans-Serif" font-size="10.00">HistoryQuickProvider</text>
<text text-anchor="middle" x="795" y="-68" font-family="Helvetica,sans-Serif" font-size="10.00">::DoAutocomplete</text>
</a>
</g>
</g>
<!-- Node27&#45;&gt;Node28 -->
<g id="edge33" class="edge">
<title>Node27&#45;&gt;Node28</title>
<path fill="none" stroke="midnightblue" d="M917.77,-83.51C895.41,-82.13 871.21,-80.64 850.31,-79.35"/>
<polygon fill="midnightblue" stroke="midnightblue" points="917.69,-87.01 927.89,-84.14 918.12,-80.03 917.69,-87.01"/>
</g>
<!-- Node29 -->
<g id="node29" class="node">
<title>Node29</title>
<g id="a_node29"><a xlink:href="../../d4/dfb/classHistoryQuickProvider.html#aecd0ae2b2605021d4f74bb43d07d9b83" target="_top" xlink:title=" ">
<polygon fill="white" stroke="black" points="537,-39 537,-69 647,-69 647,-39 537,-39"/>
<text text-anchor="start" x="545" y="-57" font-family="Helvetica,sans-Serif" font-size="10.00">HistoryQuickProvider</text>
<text text-anchor="middle" x="592" y="-46" font-family="Helvetica,sans-Serif" font-size="10.00">::Start</text>
</a>
</g>
</g>
<!-- Node28&#45;&gt;Node29 -->
<g id="edge34" class="edge">
<title>Node28&#45;&gt;Node29</title>
<path fill="none" stroke="midnightblue" d="M729.88,-68.98C703.26,-66.07 672.7,-62.72 647.23,-59.94"/>
<polygon fill="midnightblue" stroke="midnightblue" points="729.55,-72.47 739.87,-70.08 730.31,-65.51 729.55,-72.47"/>
</g>
<!-- Node31 -->
<g id="node31" class="node">
<title>Node31</title>
<g id="a_node31"><a xlink:href="../../d9/d85/classBookmarkProvider.html#afadaef69eb46311e736113fcfb9fb940" target="_top" xlink:title=" ">
<polygon fill="white" stroke="black" points="707,-11.5 707,-30.5 883,-30.5 883,-11.5 707,-11.5"/>
<text text-anchor="middle" x="795" y="-18.5" font-family="Helvetica,sans-Serif" font-size="10.00">BookmarkProvider::DoAutocomplete</text>
</a>
</g>
</g>
<!-- Node30&#45;&gt;Node31 -->
<g id="edge36" class="edge">
<title>Node30&#45;&gt;Node31</title>
<path fill="none" stroke="midnightblue" d="M914.33,-31.95C904.14,-31.01 893.64,-30.04 883.29,-29.08"/>
<polygon fill="midnightblue" stroke="midnightblue" points="914.1,-35.44 924.38,-32.88 914.74,-28.47 914.1,-35.44"/>
</g>
<!-- Node32 -->
<g id="node32" class="node">
<title>Node32</title>
<g id="a_node32"><a xlink:href="../../d9/d85/classBookmarkProvider.html#a6b6511006b139be9855d11d197ef3b60" target="_top" xlink:title=" ">
<polygon fill="white" stroke="black" points="530,-0.5 530,-19.5 654,-19.5 654,-0.5 530,-0.5"/>
<text text-anchor="middle" x="592" y="-7.5" font-family="Helvetica,sans-Serif" font-size="10.00">BookmarkProvider::Start</text>
</a>
</g>
</g>
<!-- Node31&#45;&gt;Node32 -->
<g id="edge37" class="edge">
<title>Node31&#45;&gt;Node32</title>
<path fill="none" stroke="midnightblue" d="M696.72,-15.68C682.24,-14.88 667.67,-14.09 654.21,-13.35"/>
<polygon fill="midnightblue" stroke="midnightblue" points="696.54,-19.17 706.72,-16.22 696.92,-12.18 696.54,-19.17"/>
</g>
</g>
</svg>
        <g id="navigator" transform="translate(0 0)" fill="#404254">
                <rect fill="#f2f5e9" fill-opacity="0.5" stroke="#606060" stroke-width=".5" x="0" y="0" width="60" height="60"/>
                <use id="zoomplus" xlink:href="#zoomPlus" x="17" y="9" onmousedown="handleZoom(evt,'in')"/>
                <use id="zoomminus" xlink:href="#zoomMin" x="42" y="9" onmousedown="handleZoom(evt,'out')"/>
                <use id="reset" xlink:href="#resetDef" x="30" y="36" onmousedown="handleReset()"/>
                <g id="arrowUp" xlink:href="#dirArrow" transform="translate(30 24)" onmousedown="handlePan(0,-1)">
                  <use xlink:href="#rim" fill="#404040">
                        <set attributeName="fill" to="#808080" begin="arrowUp.mouseover" end="arrowUp.mouseout"/>
                  </use>
                  <path fill="none" stroke="white" stroke-width="1.5" d="M0,-3.0v7 M-2.5,-0.5L0,-3.0L2.5,-0.5"/>
                </g>
                <g id="arrowRight" xlink:href="#dirArrow" transform="rotate(90) translate(36 -43)" onmousedown="handlePan(1,0)">
                  <use xlink:href="#rim" fill="#404040">
                        <set attributeName="fill" to="#808080" begin="arrowRight.mouseover" end="arrowRight.mouseout"/>
                  </use>
                  <path fill="none" stroke="white" stroke-width="1.5" d="M0,-3.0v7 M-2.5,-0.5L0,-3.0L2.5,-0.5"/>
                </g>
                <g id="arrowDown" xlink:href="#dirArrow" transform="rotate(180) translate(-30 -48)" onmousedown="handlePan(0,1)">
                  <use xlink:href="#rim" fill="#404040">
                        <set attributeName="fill" to="#808080" begin="arrowDown.mouseover" end="arrowDown.mouseout"/>
                  </use>
                  <path fill="none" stroke="white" stroke-width="1.5" d="M0,-3.0v7 M-2.5,-0.5L0,-3.0L2.5,-0.5"/>
                </g>
                <g id="arrowLeft" xlink:href="#dirArrow" transform="rotate(270) translate(-36 17)" onmousedown="handlePan(-1,0)">
                  <use xlink:href="#rim" fill="#404040">
                        <set attributeName="fill" to="#808080" begin="arrowLeft.mouseover" end="arrowLeft.mouseout"/>
                  </use>
                  <path fill="none" stroke="white" stroke-width="1.5" d="M0,-3.0v7 M-2.5,-0.5L0,-3.0L2.5,-0.5"/>
                </g>
        </g>
        <svg viewBox="0 0 15 15" width="100%" height="30px" preserveAspectRatio="xMaxYMin meet">
         <g id="arrow_out" transform="scale(0.3 0.3)">
          <a xlink:href="in__memory__url__index__types_8cc_addea1e98ffd9ae0c40cd8add5cc914d2_icgraph_org.svg" target="_base">
           <rect id="button" ry="5" rx="5" y="6" x="6" height="38" width="38"
                fill="#f2f5e9" fill-opacity="0.5" stroke="#606060" stroke-width="1.0"/>
           <path id="arrow"
             d="M 11.500037,31.436501 C 11.940474,20.09759 22.043105,11.32322 32.158766,21.979434 L 37.068811,17.246167 C 37.068811,17.246167 37.088388,32 37.088388,32 L 22.160133,31.978069 C 22.160133,31.978069 26.997745,27.140456 26.997745,27.140456 C 18.528582,18.264221 13.291696,25.230495 11.500037,31.436501 z"
             style="fill:#404040;"/>
          </a>
         </g>
        </svg>
</svg>
