<?xml version="1.0" encoding="UTF-8" standalone="no"?>
<!DOCTYPE svg PUBLIC "-//W3C//DTD SVG 1.1//EN"
 "http://www.w3.org/Graphics/SVG/1.1/DTD/svg11.dtd">
<!-- Generated by graphviz version 2.43.0 (0)
 -->
<!-- Title: components/omnibox/browser/in_memory_url_index_types.cc Pages: 1 -->
<!--zoomable 206 -->
<svg id="main" version="1.1" xmlns="http://www.w3.org/2000/svg" xmlns:xlink="http://www.w3.org/1999/xlink" xml:space="preserve" onload="init(evt)">
<style type="text/css"><![CDATA[
.edge:hover path { stroke: red; }
.edge:hover polygon { stroke: red; fill: red; }
]]></style>
<script type="text/javascript"><![CDATA[
var edges = document.getElementsByTagName('g');
if (edges && edges.length) {
  for (var i=0;i<edges.length;i++) {
    if (edges[i].id.substr(0,4)=='edge') {
      edges[i].setAttribute('class','edge');
    }
  }
}
]]></script>
        <defs>
                <circle id="rim" cx="0" cy="0" r="7"/>
                <circle id="rim2" cx="0" cy="0" r="3.5"/>
                <g id="zoomPlus">
                        <use xlink:href="#rim" fill="#404040">
                                <set attributeName="fill" to="#808080" begin="zoomplus.mouseover" end="zoomplus.mouseout"/>
                        </use>
                        <path d="M-4,0h8M0,-4v8" fill="none" stroke="white" stroke-width="1.5" pointer-events="none"/>
                </g>
                <g id="zoomMin">
                        <use xlink:href="#rim" fill="#404040">
                                <set attributeName="fill" to="#808080" begin="zoomminus.mouseover" end="zoomminus.mouseout"/>
                        </use>
                        <path d="M-4,0h8" fill="none" stroke="white" stroke-width="1.5" pointer-events="none"/>
                </g>
                <g id="dirArrow">
                        <path fill="none" stroke="white" stroke-width="1.5" d="M0,-3.0v7 M-2.5,-0.5L0,-3.0L2.5,-0.5"/>
                </g>
               <g id="resetDef">
                       <use xlink:href="#rim2" fill="#404040">
                               <set attributeName="fill" to="#808080" begin="reset.mouseover" end="reset.mouseout"/>
                       </use>
               </g>
        </defs>

<script type="text/javascript">
var viewWidth = 1380;
var viewHeight = 206;
var sectionId = 'dynsection-0';
</script>
<script xlink:href="../../svgpan.js"/>
<svg id="graph" class="graph">
<g id="viewport">
<title>components/omnibox/browser/in_memory_url_index_types.cc</title>
<polygon fill="white" stroke="transparent" points="-4,4 -4,-202 1375.5,-202 1375.5,4 -4,4"/>
<!-- Node1 -->
<g id="node1" class="node">
<title>Node1</title>
<g id="a_node1"><a xlink:title=" ">
<polygon fill="#bfbfbf" stroke="black" points="605.5,-156.5 605.5,-197.5 726.5,-197.5 726.5,-156.5 605.5,-156.5"/>
<text text-anchor="start" x="613.5" y="-185.5" font-family="Helvetica,sans-Serif" font-size="10.00">components/omnibox</text>
<text text-anchor="start" x="613.5" y="-174.5" font-family="Helvetica,sans-Serif" font-size="10.00">/browser/in_memory_url</text>
<text text-anchor="middle" x="666" y="-163.5" font-family="Helvetica,sans-Serif" font-size="10.00">_index_types.cc</text>
</a>
</g>
</g>
<!-- Node2 -->
<g id="node2" class="node">
<title>Node2</title>
<g id="a_node2"><a xlink:href="../../d5/d60/in__memory__url__index__types_8h.html" target="_top" xlink:title=" ">
<polygon fill="white" stroke="black" points="204.5,-78.5 204.5,-119.5 325.5,-119.5 325.5,-78.5 204.5,-78.5"/>
<text text-anchor="start" x="212.5" y="-107.5" font-family="Helvetica,sans-Serif" font-size="10.00">components/omnibox</text>
<text text-anchor="start" x="212.5" y="-96.5" font-family="Helvetica,sans-Serif" font-size="10.00">/browser/in_memory_url</text>
<text text-anchor="middle" x="265" y="-85.5" font-family="Helvetica,sans-Serif" font-size="10.00">_index_types.h</text>
</a>
</g>
</g>
<!-- Node1&#45;&gt;Node2 -->
<g id="edge1" class="edge">
<title>Node1&#45;&gt;Node2</title>
<path fill="none" stroke="midnightblue" d="M605.21,-167.78C540.66,-158.58 435.55,-142.29 335.57,-120"/>
<polygon fill="midnightblue" stroke="midnightblue" points="336.13,-116.54 325.6,-117.76 334.59,-123.37 336.13,-116.54"/>
</g>
<!-- Node11 -->
<g id="node11" class="node">
<title>Node11</title>
<g id="a_node11"><a xlink:title=" ">
<polygon fill="white" stroke="#bfbfbf" points="344,-89.5 344,-108.5 400,-108.5 400,-89.5 344,-89.5"/>
<text text-anchor="middle" x="372" y="-96.5" font-family="Helvetica,sans-Serif" font-size="10.00">algorithm</text>
</a>
</g>
</g>
<!-- Node1&#45;&gt;Node11 -->
<g id="edge10" class="edge">
<title>Node1&#45;&gt;Node11</title>
<path fill="none" stroke="midnightblue" d="M605.44,-167.73C552.48,-159.35 474.08,-144.13 409,-120 404.2,-118.22 399.26,-115.92 394.61,-113.51"/>
<polygon fill="midnightblue" stroke="midnightblue" points="396.07,-110.32 385.62,-108.56 392.69,-116.45 396.07,-110.32"/>
</g>
<!-- Node12 -->
<g id="node12" class="node">
<title>Node12</title>
<g id="a_node12"><a xlink:title=" ">
<polygon fill="white" stroke="#bfbfbf" points="418.5,-89.5 418.5,-108.5 477.5,-108.5 477.5,-89.5 418.5,-89.5"/>
<text text-anchor="middle" x="448" y="-96.5" font-family="Helvetica,sans-Serif" font-size="10.00">functional</text>
</a>
</g>
</g>
<!-- Node1&#45;&gt;Node12 -->
<g id="edge11" class="edge">
<title>Node1&#45;&gt;Node12</title>
<path fill="none" stroke="midnightblue" d="M605.44,-160.15C570.05,-150.15 524.85,-136.11 486,-120 481.34,-118.07 476.49,-115.76 471.87,-113.41"/>
<polygon fill="midnightblue" stroke="midnightblue" points="473.33,-110.22 462.86,-108.63 470.05,-116.41 473.33,-110.22"/>
</g>
<!-- Node13 -->
<g id="node13" class="node">
<title>Node13</title>
<g id="a_node13"><a xlink:title=" ">
<polygon fill="white" stroke="#bfbfbf" points="495.5,-89.5 495.5,-108.5 542.5,-108.5 542.5,-89.5 495.5,-89.5"/>
<text text-anchor="middle" x="519" y="-96.5" font-family="Helvetica,sans-Serif" font-size="10.00">iterator</text>
</a>
</g>
</g>
<!-- Node1&#45;&gt;Node13 -->
<g id="edge12" class="edge">
<title>Node1&#45;&gt;Node13</title>
<path fill="none" stroke="midnightblue" d="M623.13,-156.44C601.26,-146.13 574.41,-132.97 551,-120 547.65,-118.14 544.16,-116.09 540.78,-114.03"/>
<polygon fill="midnightblue" stroke="midnightblue" points="542.54,-111.01 532.2,-108.69 538.83,-116.95 542.54,-111.01"/>
</g>
<!-- Node14 -->
<g id="node14" class="node">
<title>Node14</title>
<g id="a_node14"><a xlink:title=" ">
<polygon fill="white" stroke="#bfbfbf" points="560.5,-89.5 560.5,-108.5 611.5,-108.5 611.5,-89.5 560.5,-89.5"/>
<text text-anchor="middle" x="586" y="-96.5" font-family="Helvetica,sans-Serif" font-size="10.00">numeric</text>
</a>
</g>
</g>
<!-- Node1&#45;&gt;Node14 -->
<g id="edge13" class="edge">
<title>Node1&#45;&gt;Node14</title>
<path fill="none" stroke="midnightblue" d="M645.4,-156.43C632.03,-143.73 614.85,-127.41 602.41,-115.59"/>
<polygon fill="midnightblue" stroke="midnightblue" points="604.66,-112.9 595,-108.55 599.84,-117.98 604.66,-112.9"/>
</g>
<!-- Node15 -->
<g id="node15" class="node">
<title>Node15</title>
<g id="a_node15"><a xlink:title=" ">
<polygon fill="white" stroke="#bfbfbf" points="630,-89.5 630,-108.5 660,-108.5 660,-89.5 630,-89.5"/>
<text text-anchor="middle" x="645" y="-96.5" font-family="Helvetica,sans-Serif" font-size="10.00">set</text>
</a>
</g>
</g>
<!-- Node1&#45;&gt;Node15 -->
<g id="edge14" class="edge">
<title>Node1&#45;&gt;Node15</title>
<path fill="none" stroke="midnightblue" d="M660.59,-156.43C657.35,-144.7 653.25,-129.87 650.07,-118.36"/>
<polygon fill="midnightblue" stroke="midnightblue" points="653.4,-117.26 647.36,-108.55 646.65,-119.12 653.4,-117.26"/>
</g>
<!-- Node16 -->
<g id="node16" class="node">
<title>Node16</title>
<g id="a_node16"><a xlink:title=" ">
<polygon fill="white" stroke="#bfbfbf" points="879,-11.5 879,-30.5 1007,-30.5 1007,-11.5 879,-11.5"/>
<text text-anchor="middle" x="943" y="-18.5" font-family="Helvetica,sans-Serif" font-size="10.00">base/i18n/break_iterator.h</text>
</a>
</g>
</g>
<!-- Node1&#45;&gt;Node16 -->
<g id="edge15" class="edge">
<title>Node1&#45;&gt;Node16</title>
<path fill="none" stroke="midnightblue" d="M669.04,-156.32C673.56,-133.98 684.21,-98.03 708,-78 732.34,-57.5 810.37,-41.63 869.9,-32.1"/>
<polygon fill="midnightblue" stroke="midnightblue" points="870.7,-35.52 880.04,-30.51 869.62,-28.61 870.7,-35.52"/>
</g>
<!-- Node17 -->
<g id="node17" class="node">
<title>Node17</title>
<g id="a_node17"><a xlink:title=" ">
<polygon fill="white" stroke="#bfbfbf" points="716.5,-89.5 716.5,-108.5 859.5,-108.5 859.5,-89.5 716.5,-89.5"/>
<text text-anchor="middle" x="788" y="-96.5" font-family="Helvetica,sans-Serif" font-size="10.00">base/i18n/case_conversion.h</text>
</a>
</g>
</g>
<!-- Node1&#45;&gt;Node17 -->
<g id="edge16" class="edge">
<title>Node1&#45;&gt;Node17</title>
<path fill="none" stroke="midnightblue" d="M697.42,-156.43C718.77,-143.12 746.51,-125.84 765.64,-113.93"/>
<polygon fill="midnightblue" stroke="midnightblue" points="767.63,-116.81 774.27,-108.55 763.93,-110.87 767.63,-116.81"/>
</g>
<!-- Node18 -->
<g id="node18" class="node">
<title>Node18</title>
<g id="a_node18"><a xlink:title=" ">
<polygon fill="white" stroke="#bfbfbf" points="877.5,-84 877.5,-114 974.5,-114 974.5,-84 877.5,-84"/>
<text text-anchor="start" x="885.5" y="-102" font-family="Helvetica,sans-Serif" font-size="10.00">base/strings/string</text>
<text text-anchor="middle" x="926" y="-91" font-family="Helvetica,sans-Serif" font-size="10.00">_util.h</text>
</a>
</g>
</g>
<!-- Node1&#45;&gt;Node18 -->
<g id="edge17" class="edge">
<title>Node1&#45;&gt;Node18</title>
<path fill="none" stroke="midnightblue" d="M726.72,-160.41C767.22,-149.73 821.55,-134.85 869,-120 871.77,-119.13 874.6,-118.22 877.46,-117.28"/>
<polygon fill="midnightblue" stroke="midnightblue" points="878.81,-120.52 887.18,-114.02 876.58,-113.88 878.81,-120.52"/>
</g>
<!-- Node19 -->
<g id="node19" class="node">
<title>Node19</title>
<g id="a_node19"><a xlink:title=" ">
<polygon fill="white" stroke="#bfbfbf" points="993,-84 993,-114 1123,-114 1123,-84 993,-84"/>
<text text-anchor="start" x="1001" y="-102" font-family="Helvetica,sans-Serif" font-size="10.00">base/trace_event/memory</text>
<text text-anchor="middle" x="1058" y="-91" font-family="Helvetica,sans-Serif" font-size="10.00">_usage_estimator.h</text>
</a>
</g>
</g>
<!-- Node1&#45;&gt;Node19 -->
<g id="edge18" class="edge">
<title>Node1&#45;&gt;Node19</title>
<path fill="none" stroke="midnightblue" d="M726.69,-166.97C790.92,-157.03 895.08,-139.8 984,-120 988.7,-118.95 993.56,-117.8 998.43,-116.6"/>
<polygon fill="midnightblue" stroke="midnightblue" points="999.56,-119.92 1008.4,-114.06 997.84,-113.13 999.56,-119.92"/>
</g>
<!-- Node20 -->
<g id="node20" class="node">
<title>Node20</title>
<g id="a_node20"><a xlink:href="../../de/dba/tailored__word__break__iterator_8h.html" target="_top" xlink:title=" ">
<polygon fill="white" stroke="black" points="1141.5,-78.5 1141.5,-119.5 1256.5,-119.5 1256.5,-78.5 1141.5,-78.5"/>
<text text-anchor="start" x="1149.5" y="-107.5" font-family="Helvetica,sans-Serif" font-size="10.00">components/omnibox</text>
<text text-anchor="start" x="1149.5" y="-96.5" font-family="Helvetica,sans-Serif" font-size="10.00">/browser/tailored_word</text>
<text text-anchor="middle" x="1199" y="-85.5" font-family="Helvetica,sans-Serif" font-size="10.00">_break_iterator.h</text>
</a>
</g>
</g>
<!-- Node1&#45;&gt;Node20 -->
<g id="edge19" class="edge">
<title>Node1&#45;&gt;Node20</title>
<path fill="none" stroke="midnightblue" d="M726.86,-172.01C814.43,-165.54 981.04,-150.5 1131.53,-119.91"/>
<polygon fill="midnightblue" stroke="midnightblue" points="1132.33,-123.31 1141.42,-117.87 1130.92,-116.46 1132.33,-123.31"/>
</g>
<!-- Node21 -->
<g id="node21" class="node">
<title>Node21</title>
<g id="a_node21"><a xlink:title=" ">
<polygon fill="white" stroke="#bfbfbf" points="1274.5,-89.5 1274.5,-108.5 1371.5,-108.5 1371.5,-89.5 1274.5,-89.5"/>
<text text-anchor="middle" x="1323" y="-96.5" font-family="Helvetica,sans-Serif" font-size="10.00">net/base/escape.h</text>
</a>
</g>
</g>
<!-- Node1&#45;&gt;Node21 -->
<g id="edge21" class="edge">
<title>Node1&#45;&gt;Node21</title>
<path fill="none" stroke="midnightblue" d="M726.79,-175.21C835.99,-172.71 1072.07,-162.4 1266,-120 1274.91,-118.05 1284.34,-115.12 1292.92,-112.1"/>
<polygon fill="midnightblue" stroke="midnightblue" points="1294.34,-115.3 1302.51,-108.56 1291.91,-108.74 1294.34,-115.3"/>
</g>
<!-- Node3 -->
<g id="node3" class="node">
<title>Node3</title>
<g id="a_node3"><a xlink:title=" ">
<polygon fill="white" stroke="#bfbfbf" points="0,-11.5 0,-30.5 52,-30.5 52,-11.5 0,-11.5"/>
<text text-anchor="middle" x="26" y="-18.5" font-family="Helvetica,sans-Serif" font-size="10.00">stddef.h</text>
</a>
</g>
</g>
<!-- Node2&#45;&gt;Node3 -->
<g id="edge2" class="edge">
<title>Node2&#45;&gt;Node3</title>
<path fill="none" stroke="midnightblue" d="M204.31,-85.56C163.03,-76.08 107.64,-61.36 61,-42 56.67,-40.2 52.2,-37.97 47.97,-35.66"/>
<polygon fill="midnightblue" stroke="midnightblue" points="49.64,-32.58 39.23,-30.61 46.13,-38.64 49.64,-32.58"/>
</g>
<!-- Node4 -->
<g id="node4" class="node">
<title>Node4</title>
<g id="a_node4"><a xlink:title=" ">
<polygon fill="white" stroke="#bfbfbf" points="70.5,-11.5 70.5,-30.5 105.5,-30.5 105.5,-11.5 70.5,-11.5"/>
<text text-anchor="middle" x="88" y="-18.5" font-family="Helvetica,sans-Serif" font-size="10.00">map</text>
</a>
</g>
</g>
<!-- Node2&#45;&gt;Node4 -->
<g id="edge3" class="edge">
<title>Node2&#45;&gt;Node4</title>
<path fill="none" stroke="midnightblue" d="M204.38,-80.16C176.04,-70.67 142.38,-57.7 114,-42 111.2,-40.45 108.38,-38.62 105.68,-36.7"/>
<polygon fill="midnightblue" stroke="midnightblue" points="107.7,-33.84 97.64,-30.53 103.44,-39.4 107.7,-33.84"/>
</g>
<!-- Node5 -->
<g id="node5" class="node">
<title>Node5</title>
<g id="a_node5"><a xlink:title=" ">
<polygon fill="white" stroke="#bfbfbf" points="123.5,-11.5 123.5,-30.5 164.5,-30.5 164.5,-11.5 123.5,-11.5"/>
<text text-anchor="middle" x="144" y="-18.5" font-family="Helvetica,sans-Serif" font-size="10.00">string</text>
</a>
</g>
</g>
<!-- Node2&#45;&gt;Node5 -->
<g id="edge4" class="edge">
<title>Node2&#45;&gt;Node5</title>
<path fill="none" stroke="midnightblue" d="M231.93,-78.49C214.29,-67.93 192.3,-54.51 173,-42 170.18,-40.17 167.23,-38.2 164.34,-36.24"/>
<polygon fill="midnightblue" stroke="midnightblue" points="166.25,-33.31 156.03,-30.52 162.28,-39.08 166.25,-33.31"/>
</g>
<!-- Node6 -->
<g id="node6" class="node">
<title>Node6</title>
<g id="a_node6"><a xlink:title=" ">
<polygon fill="white" stroke="#bfbfbf" points="182.5,-11.5 182.5,-30.5 265.5,-30.5 265.5,-11.5 182.5,-11.5"/>
<text text-anchor="middle" x="224" y="-18.5" font-family="Helvetica,sans-Serif" font-size="10.00">unordered_map</text>
</a>
</g>
</g>
<!-- Node2&#45;&gt;Node6 -->
<g id="edge5" class="edge">
<title>Node2&#45;&gt;Node6</title>
<path fill="none" stroke="midnightblue" d="M254.44,-78.43C247.98,-66.45 239.78,-51.26 233.52,-39.65"/>
<polygon fill="midnightblue" stroke="midnightblue" points="236.44,-37.69 228.61,-30.55 230.28,-41.01 236.44,-37.69"/>
</g>
<!-- Node7 -->
<g id="node7" class="node">
<title>Node7</title>
<g id="a_node7"><a xlink:title=" ">
<polygon fill="white" stroke="#bfbfbf" points="284,-11.5 284,-30.5 328,-30.5 328,-11.5 284,-11.5"/>
<text text-anchor="middle" x="306" y="-18.5" font-family="Helvetica,sans-Serif" font-size="10.00">vector</text>
</a>
</g>
</g>
<!-- Node2&#45;&gt;Node7 -->
<g id="edge6" class="edge">
<title>Node2&#45;&gt;Node7</title>
<path fill="none" stroke="midnightblue" d="M275.56,-78.43C282.02,-66.45 290.22,-51.26 296.48,-39.65"/>
<polygon fill="midnightblue" stroke="midnightblue" points="299.72,-41.01 301.39,-30.55 293.56,-37.69 299.72,-41.01"/>
</g>
<!-- Node8 -->
<g id="node8" class="node">
<title>Node8</title>
<g id="a_node8"><a xlink:title=" ">
<polygon fill="white" stroke="#bfbfbf" points="346,-6 346,-36 448,-36 448,-6 346,-6"/>
<text text-anchor="start" x="354" y="-24" font-family="Helvetica,sans-Serif" font-size="10.00">base/containers/flat</text>
<text text-anchor="middle" x="397" y="-13" font-family="Helvetica,sans-Serif" font-size="10.00">_set.h</text>
</a>
</g>
</g>
<!-- Node2&#45;&gt;Node8 -->
<g id="edge7" class="edge">
<title>Node2&#45;&gt;Node8</title>
<path fill="none" stroke="midnightblue" d="M298.99,-78.43C318.87,-66.99 343.85,-52.6 363.61,-41.22"/>
<polygon fill="midnightblue" stroke="midnightblue" points="365.37,-44.25 372.29,-36.23 361.88,-38.18 365.37,-44.25"/>
</g>
<!-- Node9 -->
<g id="node9" class="node">
<title>Node9</title>
<g id="a_node9"><a xlink:title=" ">
<polygon fill="white" stroke="#bfbfbf" points="466,-0.5 466,-41.5 574,-41.5 574,-0.5 466,-0.5"/>
<text text-anchor="start" x="474" y="-29.5" font-family="Helvetica,sans-Serif" font-size="10.00">components/history</text>
<text text-anchor="start" x="474" y="-18.5" font-family="Helvetica,sans-Serif" font-size="10.00">/core/browser/history</text>
<text text-anchor="middle" x="520" y="-7.5" font-family="Helvetica,sans-Serif" font-size="10.00">_types.h</text>
</a>
</g>
</g>
<!-- Node2&#45;&gt;Node9 -->
<g id="edge8" class="edge">
<title>Node2&#45;&gt;Node9</title>
<path fill="none" stroke="midnightblue" d="M325.56,-80.51C367.91,-68.24 421.69,-52.61 456.13,-42.23"/>
<polygon fill="midnightblue" stroke="midnightblue" points="457.17,-45.57 465.73,-39.32 455.14,-38.87 457.17,-45.57"/>
</g>
<!-- Node10 -->
<g id="node10" class="node">
<title>Node10</title>
<g id="a_node10"><a xlink:title=" ">
<polygon fill="white" stroke="#bfbfbf" points="592,-11.5 592,-30.5 646,-30.5 646,-11.5 592,-11.5"/>
<text text-anchor="middle" x="619" y="-18.5" font-family="Helvetica,sans-Serif" font-size="10.00">url/gurl.h</text>
</a>
</g>
</g>
<!-- Node2&#45;&gt;Node10 -->
<g id="edge9" class="edge">
<title>Node2&#45;&gt;Node10</title>
<path fill="none" stroke="midnightblue" d="M325.58,-80.15C328.76,-79.39 331.91,-78.66 335,-78 443.9,-54.65 477.48,-77.63 583,-42 587.83,-40.37 592.76,-38.1 597.35,-35.67"/>
<polygon fill="midnightblue" stroke="midnightblue" points="599.25,-38.61 606.2,-30.61 595.78,-32.54 599.25,-38.61"/>
</g>
<!-- Node20&#45;&gt;Node16 -->
<g id="edge20" class="edge">
<title>Node20&#45;&gt;Node16</title>
<path fill="none" stroke="midnightblue" d="M1141.26,-80.76C1138.13,-79.82 1135.03,-78.9 1132,-78 1079.91,-62.51 1019.71,-44.69 981.51,-33.39"/>
<polygon fill="midnightblue" stroke="midnightblue" points="982.41,-30 971.82,-30.52 980.42,-36.71 982.41,-30"/>
</g>
</g>
</svg>
        <g id="navigator" transform="translate(0 0)" fill="#404254">
                <rect fill="#f2f5e9" fill-opacity="0.5" stroke="#606060" stroke-width=".5" x="0" y="0" width="60" height="60"/>
                <use id="zoomplus" xlink:href="#zoomPlus" x="17" y="9" onmousedown="handleZoom(evt,'in')"/>
                <use id="zoomminus" xlink:href="#zoomMin" x="42" y="9" onmousedown="handleZoom(evt,'out')"/>
                <use id="reset" xlink:href="#resetDef" x="30" y="36" onmousedown="handleReset()"/>
                <g id="arrowUp" xlink:href="#dirArrow" transform="translate(30 24)" onmousedown="handlePan(0,-1)">
                  <use xlink:href="#rim" fill="#404040">
                        <set attributeName="fill" to="#808080" begin="arrowUp.mouseover" end="arrowUp.mouseout"/>
                  </use>
                  <path fill="none" stroke="white" stroke-width="1.5" d="M0,-3.0v7 M-2.5,-0.5L0,-3.0L2.5,-0.5"/>
                </g>
                <g id="arrowRight" xlink:href="#dirArrow" transform="rotate(90) translate(36 -43)" onmousedown="handlePan(1,0)">
                  <use xlink:href="#rim" fill="#404040">
                        <set attributeName="fill" to="#808080" begin="arrowRight.mouseover" end="arrowRight.mouseout"/>
                  </use>
                  <path fill="none" stroke="white" stroke-width="1.5" d="M0,-3.0v7 M-2.5,-0.5L0,-3.0L2.5,-0.5"/>
                </g>
                <g id="arrowDown" xlink:href="#dirArrow" transform="rotate(180) translate(-30 -48)" onmousedown="handlePan(0,1)">
                  <use xlink:href="#rim" fill="#404040">
                        <set attributeName="fill" to="#808080" begin="arrowDown.mouseover" end="arrowDown.mouseout"/>
                  </use>
                  <path fill="none" stroke="white" stroke-width="1.5" d="M0,-3.0v7 M-2.5,-0.5L0,-3.0L2.5,-0.5"/>
                </g>
                <g id="arrowLeft" xlink:href="#dirArrow" transform="rotate(270) translate(-36 17)" onmousedown="handlePan(-1,0)">
                  <use xlink:href="#rim" fill="#404040">
                        <set attributeName="fill" to="#808080" begin="arrowLeft.mouseover" end="arrowLeft.mouseout"/>
                  </use>
                  <path fill="none" stroke="white" stroke-width="1.5" d="M0,-3.0v7 M-2.5,-0.5L0,-3.0L2.5,-0.5"/>
                </g>
        </g>
        <svg viewBox="0 0 15 15" width="100%" height="30px" preserveAspectRatio="xMaxYMin meet">
         <g id="arrow_out" transform="scale(0.3 0.3)">
          <a xlink:href="in__memory__url__index__types_8cc__incl_org.svg" target="_base">
           <rect id="button" ry="5" rx="5" y="6" x="6" height="38" width="38"
                fill="#f2f5e9" fill-opacity="0.5" stroke="#606060" stroke-width="1.0"/>
           <path id="arrow"
             d="M 11.500037,31.436501 C 11.940474,20.09759 22.043105,11.32322 32.158766,21.979434 L 37.068811,17.246167 C 37.068811,17.246167 37.088388,32 37.088388,32 L 22.160133,31.978069 C 22.160133,31.978069 26.997745,27.140456 26.997745,27.140456 C 18.528582,18.264221 13.291696,25.230495 11.500037,31.436501 z"
             style="fill:#404040;"/>
          </a>
         </g>
        </svg>
</svg>
