<?xml version="1.0" encoding="UTF-8" standalone="no"?>
<!DOCTYPE svg PUBLIC "-//W3C//DTD SVG 1.1//EN"
 "http://www.w3.org/Graphics/SVG/1.1/DTD/svg11.dtd">
<!-- Generated by graphviz version 2.43.0 (0)
 -->
<!-- Title: OmniboxPopupContentsView Pages: 1 -->
<!--zoomable 397 -->
<svg id="main" version="1.1" xmlns="http://www.w3.org/2000/svg" xmlns:xlink="http://www.w3.org/1999/xlink" xml:space="preserve" onload="init(evt)">
<style type="text/css"><![CDATA[
.edge:hover path { stroke: red; }
.edge:hover polygon { stroke: red; fill: red; }
]]></style>
<script type="text/javascript"><![CDATA[
var edges = document.getElementsByTagName('g');
if (edges && edges.length) {
  for (var i=0;i<edges.length;i++) {
    if (edges[i].id.substr(0,4)=='edge') {
      edges[i].setAttribute('class','edge');
    }
  }
}
]]></script>
        <defs>
                <circle id="rim" cx="0" cy="0" r="7"/>
                <circle id="rim2" cx="0" cy="0" r="3.5"/>
                <g id="zoomPlus">
                        <use xlink:href="#rim" fill="#404040">
                                <set attributeName="fill" to="#808080" begin="zoomplus.mouseover" end="zoomplus.mouseout"/>
                        </use>
                        <path d="M-4,0h8M0,-4v8" fill="none" stroke="white" stroke-width="1.5" pointer-events="none"/>
                </g>
                <g id="zoomMin">
                        <use xlink:href="#rim" fill="#404040">
                                <set attributeName="fill" to="#808080" begin="zoomminus.mouseover" end="zoomminus.mouseout"/>
                        </use>
                        <path d="M-4,0h8" fill="none" stroke="white" stroke-width="1.5" pointer-events="none"/>
                </g>
                <g id="dirArrow">
                        <path fill="none" stroke="white" stroke-width="1.5" d="M0,-3.0v7 M-2.5,-0.5L0,-3.0L2.5,-0.5"/>
                </g>
               <g id="resetDef">
                       <use xlink:href="#rim2" fill="#404040">
                               <set attributeName="fill" to="#808080" begin="reset.mouseover" end="reset.mouseout"/>
                       </use>
               </g>
        </defs>

<script type="text/javascript">
var viewWidth = 878;
var viewHeight = 397;
var sectionId = 'dynsection-1';
</script>
<script xlink:href="../../svgpan.js"/>
<svg id="graph" class="graph">
<g id="viewport">
<title>OmniboxPopupContentsView</title>
<polygon fill="white" stroke="transparent" points="-4,4 -4,-393 874,-393 874,4 -4,4"/>
<!-- Node1 -->
<g id="node1" class="node">
<title>Node1</title>
<g id="a_node1"><a xlink:title=" ">
<polygon fill="#bfbfbf" stroke="black" points="725,-276.5 725,-295.5 870,-295.5 870,-276.5 725,-276.5"/>
<text text-anchor="middle" x="797.5" y="-283.5" font-family="Helvetica,sans-Serif" font-size="10.00">OmniboxPopupContentsView</text>
</a>
</g>
</g>
<!-- Node2 -->
<g id="node2" class="node">
<title>Node2</title>
<g id="a_node2"><a xlink:title=" ">
<polygon fill="white" stroke="#bfbfbf" points="515.5,-369.5 515.5,-388.5 585.5,-388.5 585.5,-369.5 515.5,-369.5"/>
<text text-anchor="middle" x="550.5" y="-376.5" font-family="Helvetica,sans-Serif" font-size="10.00">views::View</text>
</a>
</g>
</g>
<!-- Node2&#45;&gt;Node1 -->
<g id="edge1" class="edge">
<title>Node2&#45;&gt;Node1</title>
<path fill="none" stroke="midnightblue" d="M595.51,-366.81C603.03,-364.61 610.76,-362.29 618,-360 657.93,-347.35 668.28,-344.98 707,-329 732.18,-318.61 760.37,-304.66 778.26,-295.51"/>
<polygon fill="midnightblue" stroke="midnightblue" points="594.43,-363.48 585.78,-369.61 596.36,-370.2 594.43,-363.48"/>
</g>
<!-- Node3 -->
<g id="node3" class="node">
<title>Node3</title>
<g id="a_node3"><a xlink:href="../../db/de1/classOmniboxPopupView.html" target="_top" xlink:title=" ">
<polygon fill="white" stroke="black" points="498,-331.5 498,-350.5 603,-350.5 603,-331.5 498,-331.5"/>
<text text-anchor="middle" x="550.5" y="-338.5" font-family="Helvetica,sans-Serif" font-size="10.00">OmniboxPopupView</text>
</a>
</g>
</g>
<!-- Node3&#45;&gt;Node1 -->
<g id="edge2" class="edge">
<title>Node3&#45;&gt;Node1</title>
<path fill="none" stroke="midnightblue" d="M608.31,-329.4C637.8,-323.26 674.39,-315.47 707,-308 724,-304.11 742.75,-299.54 758.68,-295.58"/>
<polygon fill="midnightblue" stroke="midnightblue" points="607.28,-326.04 598.2,-331.5 608.7,-332.89 607.28,-326.04"/>
</g>
<!-- Node4 -->
<g id="node4" class="node">
<title>Node4</title>
<g id="a_node4"><a xlink:title=" ">
<polygon fill="white" stroke="#bfbfbf" points="491,-293.5 491,-312.5 610,-312.5 610,-293.5 491,-293.5"/>
<text text-anchor="middle" x="550.5" y="-300.5" font-family="Helvetica,sans-Serif" font-size="10.00">views::WidgetObserver</text>
</a>
</g>
</g>
<!-- Node4&#45;&gt;Node1 -->
<g id="edge3" class="edge">
<title>Node4&#45;&gt;Node1</title>
<path fill="none" stroke="midnightblue" d="M620.51,-298.21C653.05,-295.95 691.86,-293.26 724.74,-290.98"/>
<polygon fill="midnightblue" stroke="midnightblue" points="619.92,-294.74 610.18,-298.93 620.4,-301.73 619.92,-294.74"/>
</g>
<!-- Node5 -->
<g id="node5" class="node">
<title>Node5</title>
<g id="a_node5"><a xlink:href="../../d0/d53/classWebUIOmniboxPopupView.html" target="_top" xlink:title=" ">
<polygon fill="white" stroke="black" points="483,-255.5 483,-274.5 618,-274.5 618,-255.5 483,-255.5"/>
<text text-anchor="middle" x="550.5" y="-262.5" font-family="Helvetica,sans-Serif" font-size="10.00">WebUIOmniboxPopupView</text>
</a>
</g>
</g>
<!-- Node5&#45;&gt;Node1 -->
<g id="edge4" class="edge">
<title>Node5&#45;&gt;Node1</title>
<path fill="none" stroke="#9a32cd" stroke-dasharray="5,2" d="M628.31,-270.57C653.4,-272.49 681.4,-274.73 707,-277 712.76,-277.51 718.72,-278.06 724.7,-278.63"/>
<polygon fill="#9a32cd" stroke="#9a32cd" points="628.35,-267.07 618.12,-269.8 627.82,-274.05 628.35,-267.07"/>
<text text-anchor="middle" x="671.5" y="-280" font-family="Helvetica,sans-Serif" font-size="10.00"> webui_view_</text>
</g>
<!-- Node6 -->
<g id="node6" class="node">
<title>Node6</title>
<g id="a_node6"><a xlink:title=" ">
<polygon fill="white" stroke="#bfbfbf" points="230,-313.5 230,-332.5 319,-332.5 319,-313.5 230,-313.5"/>
<text text-anchor="middle" x="274.5" y="-320.5" font-family="Helvetica,sans-Serif" font-size="10.00">views::WebView</text>
</a>
</g>
</g>
<!-- Node6&#45;&gt;Node5 -->
<g id="edge5" class="edge">
<title>Node6&#45;&gt;Node5</title>
<path fill="none" stroke="midnightblue" d="M329.39,-324.89C368.62,-324.3 422.15,-319.32 465,-300 474.76,-295.6 473.62,-289.15 483,-284 489.95,-280.18 497.73,-277.07 505.46,-274.56"/>
<polygon fill="midnightblue" stroke="midnightblue" points="329.21,-321.39 319.23,-324.95 329.26,-328.39 329.21,-321.39"/>
</g>
<!-- Node7 -->
<g id="node7" class="node">
<title>Node7</title>
<g id="a_node7"><a xlink:href="../../d0/d94/classOmniboxViewViews.html" target="_top" xlink:title=" ">
<polygon fill="white" stroke="black" points="498.5,-95.5 498.5,-114.5 602.5,-114.5 602.5,-95.5 498.5,-95.5"/>
<text text-anchor="middle" x="550.5" y="-102.5" font-family="Helvetica,sans-Serif" font-size="10.00">OmniboxViewViews</text>
</a>
</g>
</g>
<!-- Node7&#45;&gt;Node1 -->
<g id="edge6" class="edge">
<title>Node7&#45;&gt;Node1</title>
<path fill="none" stroke="#9a32cd" stroke-dasharray="5,2" d="M572.76,-120.71C622.19,-157.22 743.65,-246.96 783.56,-276.44"/>
<polygon fill="#9a32cd" stroke="#9a32cd" points="574.8,-117.86 564.67,-114.73 570.64,-123.49 574.8,-117.86"/>
<text text-anchor="middle" x="671.5" y="-220" font-family="Helvetica,sans-Serif" font-size="10.00"> omnibox_view_</text>
</g>
<!-- Node8 -->
<g id="node8" class="node">
<title>Node8</title>
<g id="a_node8"><a xlink:href="../../d9/d1e/classOmniboxView.html" target="_top" xlink:title=" ">
<polygon fill="white" stroke="black" points="236,-152.5 236,-171.5 313,-171.5 313,-152.5 236,-152.5"/>
<text text-anchor="middle" x="274.5" y="-159.5" font-family="Helvetica,sans-Serif" font-size="10.00">OmniboxView</text>
</a>
</g>
</g>
<!-- Node8&#45;&gt;Node7 -->
<g id="edge7" class="edge">
<title>Node8&#45;&gt;Node7</title>
<path fill="none" stroke="midnightblue" d="M323.02,-155.13C361.51,-149.23 417.03,-139.96 465,-129 482.99,-124.89 502.85,-119.3 518.8,-114.56"/>
<polygon fill="midnightblue" stroke="midnightblue" points="322.49,-151.67 313.12,-156.63 323.54,-158.59 322.49,-151.67"/>
</g>
<!-- Node14 -->
<g id="node14" class="node">
<title>Node14</title>
<g id="a_node14"><a xlink:href="../../d0/d22/classOmniboxEditModel.html" target="_top" xlink:title=" ">
<polygon fill="white" stroke="black" points="501,-217.5 501,-236.5 600,-236.5 600,-217.5 501,-217.5"/>
<text text-anchor="middle" x="550.5" y="-224.5" font-family="Helvetica,sans-Serif" font-size="10.00">OmniboxEditModel</text>
</a>
</g>
</g>
<!-- Node8&#45;&gt;Node14 -->
<g id="edge16" class="edge">
<title>Node8&#45;&gt;Node14</title>
<path fill="none" stroke="#9a32cd" stroke-dasharray="5,2" d="M323.36,-162.45C362.27,-163.97 418.2,-168.77 465,-183 491.27,-190.99 519,-207.12 535.25,-217.47"/>
<polygon fill="#9a32cd" stroke="#9a32cd" points="323.47,-158.96 313.36,-162.12 323.23,-165.95 323.47,-158.96"/>
<text text-anchor="middle" x="416" y="-186" font-family="Helvetica,sans-Serif" font-size="10.00"> view_</text>
</g>
<!-- Node9 -->
<g id="node9" class="node">
<title>Node9</title>
<g id="a_node9"><a xlink:href="../../dc/d81/classOmniboxEditController.html" target="_top" xlink:title=" ">
<polygon fill="white" stroke="black" points="0,-175.5 0,-194.5 115,-194.5 115,-175.5 0,-175.5"/>
<text text-anchor="middle" x="57.5" y="-182.5" font-family="Helvetica,sans-Serif" font-size="10.00">OmniboxEditController</text>
</a>
</g>
</g>
<!-- Node9&#45;&gt;Node8 -->
<g id="edge8" class="edge">
<title>Node9&#45;&gt;Node8</title>
<path fill="none" stroke="#9a32cd" stroke-dasharray="5,2" d="M125.31,-177.85C161.66,-173.96 205.29,-169.3 235.76,-166.04"/>
<polygon fill="#9a32cd" stroke="#9a32cd" points="124.84,-174.38 115.27,-178.93 125.59,-181.34 124.84,-174.38"/>
<text text-anchor="middle" x="157.5" y="-180" font-family="Helvetica,sans-Serif" font-size="10.00"> controller_</text>
</g>
<!-- Node9&#45;&gt;Node14 -->
<g id="edge14" class="edge">
<title>Node9&#45;&gt;Node14</title>
<path fill="none" stroke="#9a32cd" stroke-dasharray="5,2" d="M125.23,-191.3C127.86,-191.54 130.45,-191.77 133,-192 265.99,-203.84 422.97,-216.74 500.75,-223.06"/>
<polygon fill="#9a32cd" stroke="#9a32cd" points="125.31,-187.8 115.04,-190.37 124.68,-194.77 125.31,-187.8"/>
<text text-anchor="middle" x="274.5" y="-213" font-family="Helvetica,sans-Serif" font-size="10.00"> controller_</text>
</g>
<!-- Node10 -->
<g id="node10" class="node">
<title>Node10</title>
<g id="a_node10"><a xlink:title=" ">
<polygon fill="white" stroke="#bfbfbf" points="232,-76.5 232,-95.5 317,-95.5 317,-76.5 232,-76.5"/>
<text text-anchor="middle" x="274.5" y="-83.5" font-family="Helvetica,sans-Serif" font-size="10.00">views::Textfield</text>
</a>
</g>
</g>
<!-- Node10&#45;&gt;Node7 -->
<g id="edge9" class="edge">
<title>Node10&#45;&gt;Node7</title>
<path fill="none" stroke="midnightblue" d="M327.18,-89.58C376.15,-92.98 449.27,-98.05 498.13,-101.44"/>
<polygon fill="midnightblue" stroke="midnightblue" points="327.33,-86.09 317.11,-88.89 326.85,-93.07 327.33,-86.09"/>
</g>
<!-- Node11 -->
<g id="node11" class="node">
<title>Node11</title>
<g id="a_node11"><a xlink:title=" ">
<polygon fill="white" stroke="#bfbfbf" points="211,-38.5 211,-57.5 338,-57.5 338,-38.5 211,-38.5"/>
<text text-anchor="middle" x="274.5" y="-45.5" font-family="Helvetica,sans-Serif" font-size="10.00">views::TextfieldController</text>
</a>
</g>
</g>
<!-- Node11&#45;&gt;Node7 -->
<g id="edge10" class="edge">
<title>Node11&#45;&gt;Node7</title>
<path fill="none" stroke="midnightblue" d="M331.19,-59.58C381.94,-70.14 456.02,-85.55 503.49,-95.43"/>
<polygon fill="midnightblue" stroke="midnightblue" points="331.86,-56.15 321.36,-57.54 330.44,-63 331.86,-56.15"/>
</g>
<!-- Node12 -->
<g id="node12" class="node">
<title>Node12</title>
<g id="a_node12"><a xlink:title=" ">
<polygon fill="white" stroke="#bfbfbf" points="214.5,-0.5 214.5,-19.5 334.5,-19.5 334.5,-0.5 214.5,-0.5"/>
<text text-anchor="middle" x="274.5" y="-7.5" font-family="Helvetica,sans-Serif" font-size="10.00">ui::CompositorObserver</text>
</a>
</g>
</g>
<!-- Node12&#45;&gt;Node7 -->
<g id="edge11" class="edge">
<title>Node12&#45;&gt;Node7</title>
<path fill="none" stroke="midnightblue" d="M323.55,-22.07C332.05,-24.3 340.8,-26.67 349,-29 400.92,-43.76 414.7,-45.4 465,-65 488.44,-74.13 514.47,-86.87 531.37,-95.5"/>
<polygon fill="midnightblue" stroke="midnightblue" points="324.3,-18.65 313.74,-19.52 322.54,-25.42 324.3,-18.65"/>
</g>
<!-- Node13 -->
<g id="node13" class="node">
<title>Node13</title>
<g id="a_node13"><a xlink:title=" ">
<polygon fill="white" stroke="#bfbfbf" points="200,-114.5 200,-133.5 349,-133.5 349,-114.5 200,-114.5"/>
<text text-anchor="middle" x="274.5" y="-121.5" font-family="Helvetica,sans-Serif" font-size="10.00">TemplateURLServiceObserver</text>
</a>
</g>
</g>
<!-- Node13&#45;&gt;Node7 -->
<g id="edge12" class="edge">
<title>Node13&#45;&gt;Node7</title>
<path fill="none" stroke="midnightblue" d="M359.4,-118.18C404.69,-115.04 459.14,-111.27 498.14,-108.56"/>
<polygon fill="midnightblue" stroke="midnightblue" points="359.02,-114.7 349.29,-118.88 359.51,-121.68 359.02,-114.7"/>
</g>
<!-- Node14&#45;&gt;Node1 -->
<g id="edge13" class="edge">
<title>Node14&#45;&gt;Node1</title>
<path fill="none" stroke="#9a32cd" stroke-dasharray="5,2" d="M610.28,-235.98C639.56,-240.95 675.38,-247.79 707,-256 728.89,-261.68 753.19,-269.95 770.94,-276.37"/>
<polygon fill="#9a32cd" stroke="#9a32cd" points="610.65,-232.49 600.21,-234.3 609.5,-239.4 610.65,-232.49"/>
<text text-anchor="middle" x="671.5" y="-259" font-family="Helvetica,sans-Serif" font-size="10.00"> edit_model_</text>
</g>
<!-- Node15 -->
<g id="node15" class="node">
<title>Node15</title>
<g id="a_node15"><a xlink:href="../../d5/d39/structSplitAutocompletion.html" target="_top" xlink:title=" ">
<polygon fill="white" stroke="black" points="222.5,-275.5 222.5,-294.5 326.5,-294.5 326.5,-275.5 222.5,-275.5"/>
<text text-anchor="middle" x="274.5" y="-282.5" font-family="Helvetica,sans-Serif" font-size="10.00">SplitAutocompletion</text>
</a>
</g>
</g>
<!-- Node15&#45;&gt;Node14 -->
<g id="edge15" class="edge">
<title>Node15&#45;&gt;Node14</title>
<path fill="none" stroke="#9a32cd" stroke-dasharray="5,2" d="M336.85,-279C374.39,-274.34 423.1,-266.51 465,-254 473.39,-251.5 474.77,-248.99 483,-246 492.48,-242.56 502.9,-239.33 512.62,-236.54"/>
<polygon fill="#9a32cd" stroke="#9a32cd" points="336.08,-275.57 326.57,-280.23 336.91,-282.52 336.08,-275.57"/>
<text text-anchor="middle" x="416" y="-277" font-family="Helvetica,sans-Serif" font-size="10.00"> split_autocompletion_</text>
</g>
<!-- Node16 -->
<g id="node16" class="node">
<title>Node16</title>
<g id="a_node16"><a xlink:href="../../d9/df6/classAutocompleteInput.html" target="_top" xlink:title=" ">
<polygon fill="white" stroke="black" points="225.5,-237.5 225.5,-256.5 323.5,-256.5 323.5,-237.5 225.5,-237.5"/>
<text text-anchor="middle" x="274.5" y="-244.5" font-family="Helvetica,sans-Serif" font-size="10.00">AutocompleteInput</text>
</a>
</g>
</g>
<!-- Node16&#45;&gt;Node14 -->
<g id="edge17" class="edge">
<title>Node16&#45;&gt;Node14</title>
<path fill="none" stroke="#9a32cd" stroke-dasharray="5,2" d="M333.8,-242.74C383.41,-239.12 453.87,-233.98 500.59,-230.57"/>
<polygon fill="#9a32cd" stroke="#9a32cd" points="333.26,-239.27 323.54,-243.49 333.77,-246.26 333.26,-239.27"/>
<text text-anchor="middle" x="416" y="-242" font-family="Helvetica,sans-Serif" font-size="10.00"> input_</text>
</g>
</g>
</svg>
        <g id="navigator" transform="translate(0 0)" fill="#404254">
                <rect fill="#f2f5e9" fill-opacity="0.5" stroke="#606060" stroke-width=".5" x="0" y="0" width="60" height="60"/>
                <use id="zoomplus" xlink:href="#zoomPlus" x="17" y="9" onmousedown="handleZoom(evt,'in')"/>
                <use id="zoomminus" xlink:href="#zoomMin" x="42" y="9" onmousedown="handleZoom(evt,'out')"/>
                <use id="reset" xlink:href="#resetDef" x="30" y="36" onmousedown="handleReset()"/>
                <g id="arrowUp" xlink:href="#dirArrow" transform="translate(30 24)" onmousedown="handlePan(0,-1)">
                  <use xlink:href="#rim" fill="#404040">
                        <set attributeName="fill" to="#808080" begin="arrowUp.mouseover" end="arrowUp.mouseout"/>
                  </use>
                  <path fill="none" stroke="white" stroke-width="1.5" d="M0,-3.0v7 M-2.5,-0.5L0,-3.0L2.5,-0.5"/>
                </g>
                <g id="arrowRight" xlink:href="#dirArrow" transform="rotate(90) translate(36 -43)" onmousedown="handlePan(1,0)">
                  <use xlink:href="#rim" fill="#404040">
                        <set attributeName="fill" to="#808080" begin="arrowRight.mouseover" end="arrowRight.mouseout"/>
                  </use>
                  <path fill="none" stroke="white" stroke-width="1.5" d="M0,-3.0v7 M-2.5,-0.5L0,-3.0L2.5,-0.5"/>
                </g>
                <g id="arrowDown" xlink:href="#dirArrow" transform="rotate(180) translate(-30 -48)" onmousedown="handlePan(0,1)">
                  <use xlink:href="#rim" fill="#404040">
                        <set attributeName="fill" to="#808080" begin="arrowDown.mouseover" end="arrowDown.mouseout"/>
                  </use>
                  <path fill="none" stroke="white" stroke-width="1.5" d="M0,-3.0v7 M-2.5,-0.5L0,-3.0L2.5,-0.5"/>
                </g>
                <g id="arrowLeft" xlink:href="#dirArrow" transform="rotate(270) translate(-36 17)" onmousedown="handlePan(-1,0)">
                  <use xlink:href="#rim" fill="#404040">
                        <set attributeName="fill" to="#808080" begin="arrowLeft.mouseover" end="arrowLeft.mouseout"/>
                  </use>
                  <path fill="none" stroke="white" stroke-width="1.5" d="M0,-3.0v7 M-2.5,-0.5L0,-3.0L2.5,-0.5"/>
                </g>
        </g>
        <svg viewBox="0 0 15 15" width="100%" height="30px" preserveAspectRatio="xMaxYMin meet">
         <g id="arrow_out" transform="scale(0.3 0.3)">
          <a xlink:href="classOmniboxPopupContentsView__coll__graph_org.svg" target="_base">
           <rect id="button" ry="5" rx="5" y="6" x="6" height="38" width="38"
                fill="#f2f5e9" fill-opacity="0.5" stroke="#606060" stroke-width="1.0"/>
           <path id="arrow"
             d="M 11.500037,31.436501 C 11.940474,20.09759 22.043105,11.32322 32.158766,21.979434 L 37.068811,17.246167 C 37.068811,17.246167 37.088388,32 37.088388,32 L 22.160133,31.978069 C 22.160133,31.978069 26.997745,27.140456 26.997745,27.140456 C 18.528582,18.264221 13.291696,25.230495 11.500037,31.436501 z"
             style="fill:#404040;"/>
          </a>
         </g>
        </svg>
</svg>
