<?xml version="1.0" encoding="UTF-8" standalone="no"?>
<!DOCTYPE svg PUBLIC "-//W3C//DTD SVG 1.1//EN"
 "http://www.w3.org/Graphics/SVG/1.1/DTD/svg11.dtd">
<!-- Generated by graphviz version 2.43.0 (0)
 -->
<!-- Title: AutocompleteController::OnMemoryDump Pages: 1 -->
<svg width="443pt" height="88pt"
 viewBox="0.00 0.00 443.00 88.00" xmlns="http://www.w3.org/2000/svg" xmlns:xlink="http://www.w3.org/1999/xlink">
<g id="graph0" class="graph" transform="scale(1 1) rotate(0) translate(4 84)">
<title>AutocompleteController::OnMemoryDump</title>
<polygon fill="white" stroke="transparent" points="-4,4 -4,-84 439,-84 439,4 -4,4"/>
<!-- Node1 -->
<g id="node1" class="node">
<title>Node1</title>
<g id="a_node1"><a xlink:title=" ">
<polygon fill="#bfbfbf" stroke="black" points="0,-24.5 0,-54.5 119,-54.5 119,-24.5 0,-24.5"/>
<text text-anchor="start" x="8" y="-42.5" font-family="Helvetica,sans-Serif" font-size="10.00">AutocompleteController</text>
<text text-anchor="middle" x="59.5" y="-31.5" font-family="Helvetica,sans-Serif" font-size="10.00">::OnMemoryDump</text>
</a>
</g>
</g>
<!-- Node2 -->
<g id="node2" class="node">
<title>Node2</title>
<g id="a_node2"><a xlink:href="../../d9/df6/classAutocompleteInput.html#ac6de92061c5a8c9b90de8c5d4924899c" target="_top" xlink:title=" ">
<polygon fill="white" stroke="black" points="158,-49.5 158,-79.5 277,-79.5 277,-49.5 158,-49.5"/>
<text text-anchor="start" x="166" y="-67.5" font-family="Helvetica,sans-Serif" font-size="10.00">AutocompleteInput::</text>
<text text-anchor="middle" x="217.5" y="-56.5" font-family="Helvetica,sans-Serif" font-size="10.00">EstimateMemoryUsage</text>
</a>
</g>
</g>
<!-- Node1&#45;&gt;Node2 -->
<g id="edge1" class="edge">
<title>Node1&#45;&gt;Node2</title>
<path fill="none" stroke="midnightblue" d="M119.03,-48.88C128.46,-50.39 138.3,-51.97 147.95,-53.51"/>
<polygon fill="midnightblue" stroke="midnightblue" points="147.47,-56.98 157.9,-55.11 148.58,-50.07 147.47,-56.98"/>
</g>
<!-- Node4 -->
<g id="node4" class="node">
<title>Node4</title>
<g id="a_node4"><a xlink:href="../../d3/d03/classAutocompleteResult.html#a679518d523d77048ee2d614735cd08ca" target="_top" xlink:title=" ">
<polygon fill="white" stroke="black" points="155,-0.5 155,-30.5 280,-30.5 280,-0.5 155,-0.5"/>
<text text-anchor="start" x="163" y="-18.5" font-family="Helvetica,sans-Serif" font-size="10.00">AutocompleteResult</text>
<text text-anchor="middle" x="217.5" y="-7.5" font-family="Helvetica,sans-Serif" font-size="10.00">::EstimateMemoryUsage</text>
</a>
</g>
</g>
<!-- Node1&#45;&gt;Node4 -->
<g id="edge3" class="edge">
<title>Node1&#45;&gt;Node4</title>
<path fill="none" stroke="midnightblue" d="M119.03,-30.5C127.42,-29.2 136.13,-27.86 144.74,-26.54"/>
<polygon fill="midnightblue" stroke="midnightblue" points="145.42,-29.98 154.77,-25 144.36,-23.06 145.42,-29.98"/>
</g>
<!-- Node3 -->
<g id="node3" class="node">
<title>Node3</title>
<g id="a_node3"><a xlink:href="../../df/dd9/namespacebase_1_1trace__event.html#a6ce8ababd9f2b98ee425139f6bd388c5" target="_top" xlink:title=" ">
<polygon fill="white" stroke="black" points="316,-24.5 316,-54.5 435,-54.5 435,-24.5 316,-24.5"/>
<text text-anchor="start" x="324" y="-42.5" font-family="Helvetica,sans-Serif" font-size="10.00">base::trace_event::</text>
<text text-anchor="middle" x="375.5" y="-31.5" font-family="Helvetica,sans-Serif" font-size="10.00">EstimateMemoryUsage</text>
</a>
</g>
</g>
<!-- Node2&#45;&gt;Node3 -->
<g id="edge2" class="edge">
<title>Node2&#45;&gt;Node3</title>
<path fill="none" stroke="midnightblue" d="M277.03,-55.12C286.46,-53.61 296.3,-52.03 305.95,-50.49"/>
<polygon fill="midnightblue" stroke="midnightblue" points="306.58,-53.93 315.9,-48.89 305.47,-47.02 306.58,-53.93"/>
</g>
<!-- Node4&#45;&gt;Node3 -->
<g id="edge4" class="edge">
<title>Node4&#45;&gt;Node3</title>
<path fill="none" stroke="midnightblue" d="M280.16,-24.99C288.6,-26.29 297.32,-27.63 305.88,-28.94"/>
<polygon fill="midnightblue" stroke="midnightblue" points="305.42,-32.41 315.84,-30.47 306.48,-25.49 305.42,-32.41"/>
</g>
</g>
</svg>
