<?xml version="1.0" encoding="UTF-8" standalone="no"?>
<!DOCTYPE svg PUBLIC "-//W3C//DTD SVG 1.1//EN"
 "http://www.w3.org/Graphics/SVG/1.1/DTD/svg11.dtd">
<!-- Generated by graphviz version 2.43.0 (0)
 -->
<!-- Title: SearchSuggestionParser::NavigationResult::CalculateAndClassifyMatchContents Pages: 1 -->
<svg width="1012pt" height="330pt"
 viewBox="0.00 0.00 1012.00 329.50" xmlns="http://www.w3.org/2000/svg" xmlns:xlink="http://www.w3.org/1999/xlink">
<g id="graph0" class="graph" transform="scale(1 1) rotate(0) translate(4 325.5)">
<title>SearchSuggestionParser::NavigationResult::CalculateAndClassifyMatchContents</title>
<polygon fill="white" stroke="transparent" points="-4,4 -4,-325.5 1008,-325.5 1008,4 -4,4"/>
<!-- Node1 -->
<g id="node1" class="node">
<title>Node1</title>
<g id="a_node1"><a xlink:title=" ">
<polygon fill="#bfbfbf" stroke="black" points="0,-181 0,-222 145,-222 145,-181 0,-181"/>
<text text-anchor="start" x="8" y="-210" font-family="Helvetica,sans-Serif" font-size="10.00">SearchSuggestionParser</text>
<text text-anchor="start" x="8" y="-199" font-family="Helvetica,sans-Serif" font-size="10.00">::NavigationResult::Calculate</text>
<text text-anchor="middle" x="72.5" y="-188" font-family="Helvetica,sans-Serif" font-size="10.00">AndClassifyMatchContents</text>
</a>
</g>
</g>
<!-- Node2 -->
<g id="node2" class="node">
<title>Node2</title>
<g id="a_node2"><a xlink:href="../../dc/db8/autocomplete__match__classification_8cc.html#a24f64d2639070ff605d2c295d6c4b328" target="_top" xlink:title=" ">
<polygon fill="white" stroke="black" points="182.5,-252 182.5,-271 294.5,-271 294.5,-252 182.5,-252"/>
<text text-anchor="middle" x="238.5" y="-259" font-family="Helvetica,sans-Serif" font-size="10.00">ClassifyTermMatches</text>
</a>
</g>
</g>
<!-- Node1&#45;&gt;Node2 -->
<g id="edge1" class="edge">
<title>Node1&#45;&gt;Node2</title>
<path fill="none" stroke="midnightblue" d="M126.11,-222.05C143.53,-228.72 163.04,-236.06 181,-242.5 186.68,-244.54 192.7,-246.63 198.62,-248.65"/>
<polygon fill="midnightblue" stroke="midnightblue" points="197.8,-252.07 208.39,-251.96 200.04,-245.44 197.8,-252.07"/>
</g>
<!-- Node3 -->
<g id="node3" class="node">
<title>Node3</title>
<g id="a_node3"><a xlink:href="../../dc/db8/autocomplete__match__classification_8cc.html#a854bdbfcba7705ea05f3f6b08c904eb8" target="_top" xlink:title=" ">
<polygon fill="white" stroke="black" points="191,-214 191,-233 286,-233 286,-214 191,-214"/>
<text text-anchor="middle" x="238.5" y="-221" font-family="Helvetica,sans-Serif" font-size="10.00">FindTermMatches</text>
</a>
</g>
</g>
<!-- Node1&#45;&gt;Node3 -->
<g id="edge2" class="edge">
<title>Node1&#45;&gt;Node3</title>
<path fill="none" stroke="midnightblue" d="M145.43,-211.15C157.16,-212.72 169.17,-214.33 180.48,-215.85"/>
<polygon fill="midnightblue" stroke="midnightblue" points="180.26,-219.35 190.64,-217.21 181.19,-212.41 180.26,-219.35"/>
</g>
<!-- Node18 -->
<g id="node18" class="node">
<title>Node18</title>
<g id="a_node18"><a xlink:href="../../dc/d8f/structAutocompleteMatch.html#a5de0e3d76399ddeb5758b97a0c9d815f" target="_top" xlink:title=" ">
<polygon fill="white" stroke="black" points="183.5,-164.5 183.5,-194.5 293.5,-194.5 293.5,-164.5 183.5,-164.5"/>
<text text-anchor="start" x="191.5" y="-182.5" font-family="Helvetica,sans-Serif" font-size="10.00">AutocompleteMatch::</text>
<text text-anchor="middle" x="238.5" y="-171.5" font-family="Helvetica,sans-Serif" font-size="10.00">GetFormatTypes</text>
</a>
</g>
</g>
<!-- Node1&#45;&gt;Node18 -->
<g id="edge20" class="edge">
<title>Node1&#45;&gt;Node18</title>
<path fill="none" stroke="midnightblue" d="M145.43,-191.85C154.69,-190.61 164.12,-189.34 173.24,-188.12"/>
<polygon fill="midnightblue" stroke="midnightblue" points="173.93,-191.56 183.38,-186.76 173,-184.62 173.93,-191.56"/>
</g>
<!-- Node19 -->
<g id="node19" class="node">
<title>Node19</title>
<g id="a_node19"><a xlink:href="../../dc/d8f/structAutocompleteMatch.html#a24afa9353c54089e0848ecb2c41d67cd" target="_top" xlink:title=" ">
<polygon fill="white" stroke="black" points="181,-115.5 181,-145.5 296,-145.5 296,-115.5 181,-115.5"/>
<text text-anchor="start" x="189" y="-133.5" font-family="Helvetica,sans-Serif" font-size="10.00">AutocompleteMatch::</text>
<text text-anchor="middle" x="238.5" y="-122.5" font-family="Helvetica,sans-Serif" font-size="10.00">GetMatchComponents</text>
</a>
</g>
</g>
<!-- Node1&#45;&gt;Node19 -->
<g id="edge21" class="edge">
<title>Node1&#45;&gt;Node19</title>
<path fill="none" stroke="midnightblue" d="M120.94,-180.96C143.78,-171.07 171.01,-159.29 193.4,-149.59"/>
<polygon fill="midnightblue" stroke="midnightblue" points="194.89,-152.76 202.68,-145.58 192.11,-146.34 194.89,-152.76"/>
</g>
<!-- Node4 -->
<g id="node4" class="node">
<title>Node4</title>
<g id="a_node4"><a xlink:href="../../d7/daf/in__memory__url__index__types_8cc.html#ad3af38f30311d2ed9ba53010f3883b1f" target="_top" xlink:title=" ">
<polygon fill="white" stroke="black" points="365,-302 365,-321 463,-321 463,-302 365,-302"/>
<text text-anchor="middle" x="414" y="-309" font-family="Helvetica,sans-Serif" font-size="10.00">DeoverlapMatches</text>
</a>
</g>
</g>
<!-- Node3&#45;&gt;Node4 -->
<g id="edge3" class="edge">
<title>Node3&#45;&gt;Node4</title>
<path fill="none" stroke="midnightblue" d="M278.47,-233.01C284.67,-235.51 290.75,-238.63 296,-242.5 318.04,-258.76 309.22,-277.3 332,-292.5 338.99,-297.17 347,-300.7 355.19,-303.36"/>
<polygon fill="midnightblue" stroke="midnightblue" points="354.26,-306.74 364.84,-306.11 356.18,-300 354.26,-306.74"/>
</g>
<!-- Node5 -->
<g id="node5" class="node">
<title>Node5</title>
<g id="a_node5"><a xlink:href="../../d3/d1d/structScoredHistoryMatch.html#a10728307ce3b27ae70244571e20ca541" target="_top" xlink:title=" ">
<polygon fill="white" stroke="black" points="332,-252.5 332,-282.5 496,-282.5 496,-252.5 332,-252.5"/>
<text text-anchor="start" x="340" y="-270.5" font-family="Helvetica,sans-Serif" font-size="10.00">ScoredHistoryMatch</text>
<text text-anchor="middle" x="414" y="-259.5" font-family="Helvetica,sans-Serif" font-size="10.00">::FilterTermMatchesByWordStarts</text>
</a>
</g>
</g>
<!-- Node3&#45;&gt;Node5 -->
<g id="edge4" class="edge">
<title>Node3&#45;&gt;Node5</title>
<path fill="none" stroke="midnightblue" d="M277.15,-233.05C296.59,-237.98 320.95,-244.16 343.65,-249.91"/>
<polygon fill="midnightblue" stroke="midnightblue" points="343.04,-253.37 353.59,-252.43 344.76,-246.58 343.04,-253.37"/>
</g>
<!-- Node6 -->
<g id="node6" class="node">
<title>Node6</title>
<g id="a_node6"><a xlink:href="../../d7/daf/in__memory__url__index__types_8cc.html#a6d76a8dafe24063b50b78d3a0a77a62b" target="_top" xlink:title=" ">
<polygon fill="white" stroke="black" points="362,-214 362,-233 466,-233 466,-214 362,-214"/>
<text text-anchor="middle" x="414" y="-221" font-family="Helvetica,sans-Serif" font-size="10.00">MatchTermsInString</text>
</a>
</g>
</g>
<!-- Node3&#45;&gt;Node6 -->
<g id="edge5" class="edge">
<title>Node3&#45;&gt;Node6</title>
<path fill="none" stroke="midnightblue" d="M286.45,-223.5C306.46,-223.5 330.08,-223.5 351.45,-223.5"/>
<polygon fill="midnightblue" stroke="midnightblue" points="351.74,-227 361.74,-223.5 351.74,-220 351.74,-227"/>
</g>
<!-- Node8 -->
<g id="node8" class="node">
<title>Node8</title>
<g id="a_node8"><a xlink:href="../../d7/daf/in__memory__url__index__types_8cc.html#af8b5ad29b184b31f6b9a4e0c7f7106c0" target="_top" xlink:title=" ">
<polygon fill="white" stroke="black" points="378,-176 378,-195 450,-195 450,-176 378,-176"/>
<text text-anchor="middle" x="414" y="-183" font-family="Helvetica,sans-Serif" font-size="10.00">SortMatches</text>
</a>
</g>
</g>
<!-- Node3&#45;&gt;Node8 -->
<g id="edge7" class="edge">
<title>Node3&#45;&gt;Node8</title>
<path fill="none" stroke="midnightblue" d="M283.28,-213.91C309.16,-208.24 341.86,-201.08 367.96,-195.37"/>
<polygon fill="midnightblue" stroke="midnightblue" points="368.95,-198.73 377.97,-193.17 367.45,-191.89 368.95,-198.73"/>
</g>
<!-- Node10 -->
<g id="node10" class="node">
<title>Node10</title>
<g id="a_node10"><a xlink:href="../../d7/daf/in__memory__url__index__types_8cc.html#ac7945538f83c74cad6ec3b7b5183b0b2" target="_top" xlink:title=" ">
<polygon fill="white" stroke="black" points="344,-88 344,-107 484,-107 484,-88 344,-88"/>
<text text-anchor="middle" x="414" y="-95" font-family="Helvetica,sans-Serif" font-size="10.00">String16VectorFromString16</text>
</a>
</g>
</g>
<!-- Node3&#45;&gt;Node10 -->
<g id="edge9" class="edge">
<title>Node3&#45;&gt;Node10</title>
<path fill="none" stroke="midnightblue" d="M276.56,-213.94C283.3,-211.4 290.07,-208.29 296,-204.5 315.61,-191.98 315.12,-182.51 332,-166.5 351.97,-147.55 376.14,-127.28 392.85,-113.65"/>
<polygon fill="midnightblue" stroke="midnightblue" points="395.28,-116.19 400.85,-107.17 390.88,-110.75 395.28,-116.19"/>
</g>
<!-- Node7 -->
<g id="node7" class="node">
<title>Node7</title>
<g id="a_node7"><a xlink:href="../../d7/daf/in__memory__url__index__types_8cc.html#aecafd72a53e5d7b1b34d5b955b24a163" target="_top" xlink:title=" ">
<polygon fill="white" stroke="black" points="547,-214 547,-233 646,-233 646,-214 547,-214"/>
<text text-anchor="middle" x="596.5" y="-221" font-family="Helvetica,sans-Serif" font-size="10.00">MatchTermInString</text>
</a>
</g>
</g>
<!-- Node6&#45;&gt;Node7 -->
<g id="edge6" class="edge">
<title>Node6&#45;&gt;Node7</title>
<path fill="none" stroke="midnightblue" d="M466.24,-223.5C488.2,-223.5 513.98,-223.5 536.72,-223.5"/>
<polygon fill="midnightblue" stroke="midnightblue" points="536.93,-227 546.93,-223.5 536.93,-220 536.93,-227"/>
</g>
<!-- Node9 -->
<g id="node9" class="node">
<title>Node9</title>
<g id="a_node9"><a xlink:href="../../d7/daf/in__memory__url__index__types_8cc.html#addea1e98ffd9ae0c40cd8add5cc914d2" target="_top" xlink:title=" ">
<polygon fill="white" stroke="black" points="540,-176 540,-195 653,-195 653,-176 540,-176"/>
<text text-anchor="middle" x="596.5" y="-183" font-family="Helvetica,sans-Serif" font-size="10.00">SortMatchComparator</text>
</a>
</g>
</g>
<!-- Node8&#45;&gt;Node9 -->
<g id="edge8" class="edge">
<title>Node8&#45;&gt;Node9</title>
<path fill="none" stroke="midnightblue" d="M450.23,-185.5C472.79,-185.5 502.77,-185.5 529.63,-185.5"/>
<polygon fill="midnightblue" stroke="midnightblue" points="529.76,-189 539.76,-185.5 529.76,-182 529.76,-189"/>
</g>
<!-- Node11 -->
<g id="node11" class="node">
<title>Node11</title>
<g id="a_node11"><a xlink:href="../../d6/dcd/classTailoredWordBreakIterator.html#a2821ad0b98d4c6dacdf2b007ae042cde" target="_top" xlink:title=" ">
<polygon fill="white" stroke="black" points="532,-126.5 532,-156.5 661,-156.5 661,-126.5 532,-126.5"/>
<text text-anchor="start" x="540" y="-144.5" font-family="Helvetica,sans-Serif" font-size="10.00">TailoredWordBreakIterator</text>
<text text-anchor="middle" x="596.5" y="-133.5" font-family="Helvetica,sans-Serif" font-size="10.00">::Advance</text>
</a>
</g>
</g>
<!-- Node10&#45;&gt;Node11 -->
<g id="edge10" class="edge">
<title>Node10&#45;&gt;Node11</title>
<path fill="none" stroke="midnightblue" d="M454.17,-107.05C474.49,-112 499.96,-118.21 523.67,-123.99"/>
<polygon fill="midnightblue" stroke="midnightblue" points="523.15,-127.47 533.7,-126.43 524.81,-120.67 523.15,-127.47"/>
</g>
<!-- Node14 -->
<g id="node14" class="node">
<title>Node14</title>
<g id="a_node14"><a xlink:href="../../d6/dcd/classTailoredWordBreakIterator.html#a198bd2927e6b6e17cd0e6b4fba8756fa" target="_top" xlink:title=" ">
<polygon fill="white" stroke="black" points="703.5,-82.5 703.5,-112.5 832.5,-112.5 832.5,-82.5 703.5,-82.5"/>
<text text-anchor="start" x="711.5" y="-100.5" font-family="Helvetica,sans-Serif" font-size="10.00">TailoredWordBreakIterator</text>
<text text-anchor="middle" x="768" y="-89.5" font-family="Helvetica,sans-Serif" font-size="10.00">::IsWord</text>
</a>
</g>
</g>
<!-- Node10&#45;&gt;Node14 -->
<g id="edge18" class="edge">
<title>Node10&#45;&gt;Node14</title>
<path fill="none" stroke="midnightblue" d="M484.12,-97.5C544.44,-97.5 631.7,-97.5 693.32,-97.5"/>
<polygon fill="midnightblue" stroke="midnightblue" points="693.36,-101 703.36,-97.5 693.36,-94 693.36,-101"/>
</g>
<!-- Node16 -->
<g id="node16" class="node">
<title>Node16</title>
<g id="a_node16"><a xlink:href="../../d6/dcd/classTailoredWordBreakIterator.html#a3ac822a0237ada88c32c0ca5fe6cc18d" target="_top" xlink:title=" ">
<polygon fill="white" stroke="black" points="703.5,-33.5 703.5,-63.5 832.5,-63.5 832.5,-33.5 703.5,-33.5"/>
<text text-anchor="start" x="711.5" y="-51.5" font-family="Helvetica,sans-Serif" font-size="10.00">TailoredWordBreakIterator</text>
<text text-anchor="middle" x="768" y="-40.5" font-family="Helvetica,sans-Serif" font-size="10.00">::GetString</text>
</a>
</g>
</g>
<!-- Node10&#45;&gt;Node16 -->
<g id="edge16" class="edge">
<title>Node10&#45;&gt;Node16</title>
<path fill="none" stroke="midnightblue" d="M483.29,-87.99C543.61,-79.6 631.35,-67.38 693.26,-58.77"/>
<polygon fill="midnightblue" stroke="midnightblue" points="693.92,-62.21 703.35,-57.36 692.96,-55.27 693.92,-62.21"/>
</g>
<!-- Node17 -->
<g id="node17" class="node">
<title>Node17</title>
<g id="a_node17"><a xlink:href="../../d6/dcd/classTailoredWordBreakIterator.html#ad2c08e1c2124a921ac2976e30c39d478" target="_top" xlink:title=" ">
<polygon fill="white" stroke="black" points="532,-0.5 532,-30.5 661,-30.5 661,-0.5 532,-0.5"/>
<text text-anchor="start" x="540" y="-18.5" font-family="Helvetica,sans-Serif" font-size="10.00">TailoredWordBreakIterator</text>
<text text-anchor="middle" x="596.5" y="-7.5" font-family="Helvetica,sans-Serif" font-size="10.00">::prev</text>
</a>
</g>
</g>
<!-- Node10&#45;&gt;Node17 -->
<g id="edge19" class="edge">
<title>Node10&#45;&gt;Node17</title>
<path fill="none" stroke="midnightblue" d="M436.06,-87.93C464.57,-74.98 516.11,-51.57 552.87,-34.86"/>
<polygon fill="midnightblue" stroke="midnightblue" points="554.69,-37.88 562.35,-30.56 551.8,-31.51 554.69,-37.88"/>
</g>
<!-- Node12 -->
<g id="node12" class="node">
<title>Node12</title>
<g id="a_node12"><a xlink:href="../../d6/dcd/classTailoredWordBreakIterator.html#a1b478919417288a574d74b521b52fc08" target="_top" xlink:title=" ">
<polygon fill="white" stroke="black" points="697,-170.5 697,-200.5 839,-200.5 839,-170.5 697,-170.5"/>
<text text-anchor="start" x="705" y="-188.5" font-family="Helvetica,sans-Serif" font-size="10.00">TailoredWordBreakIterator</text>
<text text-anchor="middle" x="768" y="-177.5" font-family="Helvetica,sans-Serif" font-size="10.00">::AdvanceInUnderscoreWord</text>
</a>
</g>
</g>
<!-- Node11&#45;&gt;Node12 -->
<g id="edge11" class="edge">
<title>Node11&#45;&gt;Node12</title>
<path fill="none" stroke="midnightblue" d="M655.36,-156.52C669.46,-160.18 684.67,-164.13 699.19,-167.9"/>
<polygon fill="midnightblue" stroke="midnightblue" points="698.56,-171.35 709.11,-170.47 700.32,-164.57 698.56,-171.35"/>
</g>
<!-- Node13 -->
<g id="node13" class="node">
<title>Node13</title>
<g id="a_node13"><a xlink:href="../../d6/dcd/classTailoredWordBreakIterator.html#aae84d81bdce60da2914d52d30b6c74b4" target="_top" xlink:title=" ">
<polygon fill="white" stroke="black" points="875,-115.5 875,-145.5 1004,-145.5 1004,-115.5 875,-115.5"/>
<text text-anchor="start" x="883" y="-133.5" font-family="Helvetica,sans-Serif" font-size="10.00">TailoredWordBreakIterator</text>
<text text-anchor="middle" x="939.5" y="-122.5" font-family="Helvetica,sans-Serif" font-size="10.00">::HasUnderscoreWord</text>
</a>
</g>
</g>
<!-- Node11&#45;&gt;Node13 -->
<g id="edge12" class="edge">
<title>Node11&#45;&gt;Node13</title>
<path fill="none" stroke="midnightblue" d="M661.24,-139.44C718.91,-137.58 803.86,-134.84 864.51,-132.89"/>
<polygon fill="midnightblue" stroke="midnightblue" points="864.9,-136.38 874.78,-132.56 864.68,-129.38 864.9,-136.38"/>
</g>
<!-- Node11&#45;&gt;Node14 -->
<g id="edge13" class="edge">
<title>Node11&#45;&gt;Node14</title>
<path fill="none" stroke="midnightblue" d="M655.36,-126.48C669.46,-122.82 684.67,-118.87 699.19,-115.1"/>
<polygon fill="midnightblue" stroke="midnightblue" points="700.32,-118.43 709.11,-112.53 698.56,-111.65 700.32,-118.43"/>
</g>
<!-- Node14&#45;&gt;Node13 -->
<g id="edge15" class="edge">
<title>Node14&#45;&gt;Node13</title>
<path fill="none" stroke="midnightblue" d="M832.6,-109.88C843.17,-111.94 854.21,-114.09 865.01,-116.19"/>
<polygon fill="midnightblue" stroke="midnightblue" points="864.34,-119.63 874.83,-118.1 865.68,-112.76 864.34,-119.63"/>
</g>
<!-- Node15 -->
<g id="node15" class="node">
<title>Node15</title>
<g id="a_node15"><a xlink:href="../../d6/dcd/classTailoredWordBreakIterator.html#a08b402a57411161426e21a435a9a047f" target="_top" xlink:title=" ">
<polygon fill="white" stroke="black" points="875,-55.5 875,-85.5 1004,-85.5 1004,-55.5 875,-55.5"/>
<text text-anchor="start" x="883" y="-73.5" font-family="Helvetica,sans-Serif" font-size="10.00">TailoredWordBreakIterator</text>
<text text-anchor="middle" x="939.5" y="-62.5" font-family="Helvetica,sans-Serif" font-size="10.00">::GetStringPiece</text>
</a>
</g>
</g>
<!-- Node14&#45;&gt;Node15 -->
<g id="edge14" class="edge">
<title>Node14&#45;&gt;Node15</title>
<path fill="none" stroke="midnightblue" d="M832.6,-87.37C843.06,-85.7 853.99,-83.96 864.67,-82.26"/>
<polygon fill="midnightblue" stroke="midnightblue" points="865.5,-85.67 874.83,-80.64 864.4,-78.76 865.5,-85.67"/>
</g>
<!-- Node16&#45;&gt;Node15 -->
<g id="edge17" class="edge">
<title>Node16&#45;&gt;Node15</title>
<path fill="none" stroke="midnightblue" d="M832.6,-56.75C843.06,-58.11 853.99,-59.53 864.67,-60.92"/>
<polygon fill="midnightblue" stroke="midnightblue" points="864.46,-64.42 874.83,-62.24 865.36,-57.48 864.46,-64.42"/>
</g>
</g>
</svg>
