<?xml version="1.0" encoding="UTF-8" standalone="no"?>
<!DOCTYPE svg PUBLIC "-//W3C//DTD SVG 1.1//EN"
 "http://www.w3.org/Graphics/SVG/1.1/DTD/svg11.dtd">
<!-- Generated by graphviz version 2.43.0 (0)
 -->
<!-- Title: chrome/browser/ui/views/omnibox/omnibox_mouse_enter_exit_handler.h Pages: 1 -->
<!--zoomable 284 -->
<svg id="main" version="1.1" xmlns="http://www.w3.org/2000/svg" xmlns:xlink="http://www.w3.org/1999/xlink" xml:space="preserve" onload="init(evt)">
<style type="text/css"><![CDATA[
.edge:hover path { stroke: red; }
.edge:hover polygon { stroke: red; fill: red; }
]]></style>
<script type="text/javascript"><![CDATA[
var edges = document.getElementsByTagName('g');
if (edges && edges.length) {
  for (var i=0;i<edges.length;i++) {
    if (edges[i].id.substr(0,4)=='edge') {
      edges[i].setAttribute('class','edge');
    }
  }
}
]]></script>
        <defs>
                <circle id="rim" cx="0" cy="0" r="7"/>
                <circle id="rim2" cx="0" cy="0" r="3.5"/>
                <g id="zoomPlus">
                        <use xlink:href="#rim" fill="#404040">
                                <set attributeName="fill" to="#808080" begin="zoomplus.mouseover" end="zoomplus.mouseout"/>
                        </use>
                        <path d="M-4,0h8M0,-4v8" fill="none" stroke="white" stroke-width="1.5" pointer-events="none"/>
                </g>
                <g id="zoomMin">
                        <use xlink:href="#rim" fill="#404040">
                                <set attributeName="fill" to="#808080" begin="zoomminus.mouseover" end="zoomminus.mouseout"/>
                        </use>
                        <path d="M-4,0h8" fill="none" stroke="white" stroke-width="1.5" pointer-events="none"/>
                </g>
                <g id="dirArrow">
                        <path fill="none" stroke="white" stroke-width="1.5" d="M0,-3.0v7 M-2.5,-0.5L0,-3.0L2.5,-0.5"/>
                </g>
               <g id="resetDef">
                       <use xlink:href="#rim2" fill="#404040">
                               <set attributeName="fill" to="#808080" begin="reset.mouseover" end="reset.mouseout"/>
                       </use>
               </g>
        </defs>

<script type="text/javascript">
var viewWidth = 634;
var viewHeight = 284;
var sectionId = 'dynsection-1';
</script>
<script xlink:href="../../svgpan.js"/>
<svg id="graph" class="graph">
<g id="viewport">
<title>chrome/browser/ui/views/omnibox/omnibox_mouse_enter_exit_handler.h</title>
<polygon fill="white" stroke="transparent" points="-4,4 -4,-280 629.5,-280 629.5,4 -4,4"/>
<!-- Node1 -->
<g id="node1" class="node">
<title>Node1</title>
<g id="a_node1"><a xlink:title=" ">
<polygon fill="#bfbfbf" stroke="black" points="233.5,-234.5 233.5,-275.5 364.5,-275.5 364.5,-234.5 233.5,-234.5"/>
<text text-anchor="start" x="241.5" y="-263.5" font-family="Helvetica,sans-Serif" font-size="10.00">chrome/browser/ui/views</text>
<text text-anchor="start" x="241.5" y="-252.5" font-family="Helvetica,sans-Serif" font-size="10.00">/omnibox/omnibox_mouse</text>
<text text-anchor="middle" x="299" y="-241.5" font-family="Helvetica,sans-Serif" font-size="10.00">_enter_exit_handler.h</text>
</a>
</g>
</g>
<!-- Node2 -->
<g id="node2" class="node">
<title>Node2</title>
<g id="a_node2"><a xlink:href="../../d1/dbe/omnibox__mouse__enter__exit__handler_8cc.html" target="_top" xlink:title=" ">
<polygon fill="white" stroke="black" points="87.5,-156.5 87.5,-197.5 218.5,-197.5 218.5,-156.5 87.5,-156.5"/>
<text text-anchor="start" x="95.5" y="-185.5" font-family="Helvetica,sans-Serif" font-size="10.00">chrome/browser/ui/views</text>
<text text-anchor="start" x="95.5" y="-174.5" font-family="Helvetica,sans-Serif" font-size="10.00">/omnibox/omnibox_mouse</text>
<text text-anchor="middle" x="153" y="-163.5" font-family="Helvetica,sans-Serif" font-size="10.00">_enter_exit_handler.cc</text>
</a>
</g>
</g>
<!-- Node1&#45;&gt;Node2 -->
<g id="edge1" class="edge">
<title>Node1&#45;&gt;Node2</title>
<path fill="none" stroke="midnightblue" d="M252.45,-229.77C232.44,-219.35 209.36,-207.34 190.47,-197.51"/>
<polygon fill="midnightblue" stroke="midnightblue" points="250.92,-232.92 261.4,-234.43 254.15,-226.71 250.92,-232.92"/>
</g>
<!-- Node3 -->
<g id="node3" class="node">
<title>Node3</title>
<g id="a_node3"><a xlink:href="../../dd/d82/omnibox__result__view_8h.html" target="_top" xlink:title=" ">
<polygon fill="white" stroke="black" points="236.5,-156.5 236.5,-197.5 361.5,-197.5 361.5,-156.5 236.5,-156.5"/>
<text text-anchor="start" x="244.5" y="-185.5" font-family="Helvetica,sans-Serif" font-size="10.00">chrome/browser/ui/views</text>
<text text-anchor="start" x="244.5" y="-174.5" font-family="Helvetica,sans-Serif" font-size="10.00">/omnibox/omnibox_result</text>
<text text-anchor="middle" x="299" y="-163.5" font-family="Helvetica,sans-Serif" font-size="10.00">_view.h</text>
</a>
</g>
</g>
<!-- Node1&#45;&gt;Node3 -->
<g id="edge2" class="edge">
<title>Node1&#45;&gt;Node3</title>
<path fill="none" stroke="midnightblue" d="M299,-224.3C299,-215.3 299,-205.65 299,-197.51"/>
<polygon fill="midnightblue" stroke="midnightblue" points="295.5,-224.43 299,-234.43 302.5,-224.43 295.5,-224.43"/>
</g>
<!-- Node6 -->
<g id="node6" class="node">
<title>Node6</title>
<g id="a_node6"><a xlink:href="../../dc/dce/omnibox__row__view_8cc.html" target="_top" xlink:title=" ">
<polygon fill="white" stroke="black" points="470.5,-84 470.5,-114 625.5,-114 625.5,-84 470.5,-84"/>
<text text-anchor="start" x="478.5" y="-102" font-family="Helvetica,sans-Serif" font-size="10.00">chrome/browser/ui/views</text>
<text text-anchor="middle" x="548" y="-91" font-family="Helvetica,sans-Serif" font-size="10.00">/omnibox/omnibox_row_view.cc</text>
</a>
</g>
</g>
<!-- Node1&#45;&gt;Node6 -->
<g id="edge11" class="edge">
<title>Node1&#45;&gt;Node6</title>
<path fill="none" stroke="midnightblue" d="M339.3,-229.07C392.12,-196.41 482.97,-140.22 525.19,-114.11"/>
<polygon fill="midnightblue" stroke="midnightblue" points="337.2,-226.26 330.54,-234.5 340.88,-232.21 337.2,-226.26"/>
</g>
<!-- Node4 -->
<g id="node4" class="node">
<title>Node4</title>
<g id="a_node4"><a xlink:href="../../d8/d69/omnibox__popup__contents__view_8cc.html" target="_top" xlink:title=" ">
<polygon fill="white" stroke="black" points="0,-78.5 0,-119.5 128,-119.5 128,-78.5 0,-78.5"/>
<text text-anchor="start" x="8" y="-107.5" font-family="Helvetica,sans-Serif" font-size="10.00">chrome/browser/ui/views</text>
<text text-anchor="start" x="8" y="-96.5" font-family="Helvetica,sans-Serif" font-size="10.00">/omnibox/omnibox_popup</text>
<text text-anchor="middle" x="64" y="-85.5" font-family="Helvetica,sans-Serif" font-size="10.00">_contents_view.cc</text>
</a>
</g>
</g>
<!-- Node3&#45;&gt;Node4 -->
<g id="edge3" class="edge">
<title>Node3&#45;&gt;Node4</title>
<path fill="none" stroke="midnightblue" d="M228.82,-153.3C195.56,-142.55 156.22,-129.82 124.31,-119.51"/>
<polygon fill="midnightblue" stroke="midnightblue" points="227.89,-156.68 238.48,-156.43 230.04,-150.02 227.89,-156.68"/>
</g>
<!-- Node5 -->
<g id="node5" class="node">
<title>Node5</title>
<g id="a_node5"><a xlink:href="../../d3/d3f/omnibox__result__view_8cc.html" target="_top" xlink:title=" ">
<polygon fill="white" stroke="black" points="66.5,-0.5 66.5,-41.5 191.5,-41.5 191.5,-0.5 66.5,-0.5"/>
<text text-anchor="start" x="74.5" y="-29.5" font-family="Helvetica,sans-Serif" font-size="10.00">chrome/browser/ui/views</text>
<text text-anchor="start" x="74.5" y="-18.5" font-family="Helvetica,sans-Serif" font-size="10.00">/omnibox/omnibox_result</text>
<text text-anchor="middle" x="129" y="-7.5" font-family="Helvetica,sans-Serif" font-size="10.00">_view.cc</text>
</a>
</g>
</g>
<!-- Node3&#45;&gt;Node5 -->
<g id="edge4" class="edge">
<title>Node3&#45;&gt;Node5</title>
<path fill="none" stroke="midnightblue" d="M226.98,-153.69C208.39,-145.36 189.54,-134.33 175,-120 152.78,-98.1 140.03,-63.4 133.82,-41.7"/>
<polygon fill="midnightblue" stroke="midnightblue" points="225.79,-156.99 236.36,-157.69 228.53,-150.55 225.79,-156.99"/>
</g>
<!-- Node3&#45;&gt;Node6 -->
<g id="edge5" class="edge">
<title>Node3&#45;&gt;Node6</title>
<path fill="none" stroke="midnightblue" d="M371.18,-153.97C413.35,-141.1 465.32,-125.24 501.97,-114.05"/>
<polygon fill="midnightblue" stroke="midnightblue" points="370.05,-150.65 361.51,-156.92 372.1,-157.35 370.05,-150.65"/>
</g>
<!-- Node7 -->
<g id="node7" class="node">
<title>Node7</title>
<g id="a_node7"><a xlink:href="../../db/d83/omnibox__text__view_8h.html" target="_top" xlink:title=" ">
<polygon fill="white" stroke="black" points="184.5,-78.5 184.5,-119.5 309.5,-119.5 309.5,-78.5 184.5,-78.5"/>
<text text-anchor="start" x="192.5" y="-107.5" font-family="Helvetica,sans-Serif" font-size="10.00">chrome/browser/ui/views</text>
<text text-anchor="start" x="192.5" y="-96.5" font-family="Helvetica,sans-Serif" font-size="10.00">/omnibox/omnibox_text</text>
<text text-anchor="middle" x="247" y="-85.5" font-family="Helvetica,sans-Serif" font-size="10.00">_view.h</text>
</a>
</g>
</g>
<!-- Node3&#45;&gt;Node7 -->
<g id="edge6" class="edge">
<title>Node3&#45;&gt;Node7</title>
<path fill="none" stroke="midnightblue" d="M279.87,-148.05C273.39,-138.57 266.28,-128.18 260.35,-119.51"/>
<polygon fill="midnightblue" stroke="midnightblue" points="277.07,-150.15 285.61,-156.43 282.85,-146.2 277.07,-150.15"/>
</g>
<!-- Node10 -->
<g id="node10" class="node">
<title>Node10</title>
<g id="a_node10"><a xlink:href="../../d8/d7a/omnibox__view__views_8cc.html" target="_top" xlink:title=" ">
<polygon fill="white" stroke="black" points="327.5,-78.5 327.5,-119.5 452.5,-119.5 452.5,-78.5 327.5,-78.5"/>
<text text-anchor="start" x="335.5" y="-107.5" font-family="Helvetica,sans-Serif" font-size="10.00">chrome/browser/ui/views</text>
<text text-anchor="start" x="335.5" y="-96.5" font-family="Helvetica,sans-Serif" font-size="10.00">/omnibox/omnibox_view</text>
<text text-anchor="middle" x="390" y="-85.5" font-family="Helvetica,sans-Serif" font-size="10.00">_views.cc</text>
</a>
</g>
</g>
<!-- Node3&#45;&gt;Node10 -->
<g id="edge10" class="edge">
<title>Node3&#45;&gt;Node10</title>
<path fill="none" stroke="midnightblue" d="M330.4,-149.78C342.29,-139.84 355.62,-128.72 366.64,-119.51"/>
<polygon fill="midnightblue" stroke="midnightblue" points="327.87,-147.33 322.43,-156.43 332.35,-152.7 327.87,-147.33"/>
</g>
<!-- Node7&#45;&gt;Node5 -->
<g id="edge8" class="edge">
<title>Node7&#45;&gt;Node5</title>
<path fill="none" stroke="midnightblue" d="M208.06,-72.92C192.2,-62.7 174.14,-51.07 159.28,-41.51"/>
<polygon fill="midnightblue" stroke="midnightblue" points="206.31,-75.96 216.61,-78.43 210.1,-70.07 206.31,-75.96"/>
</g>
<!-- Node8 -->
<g id="node8" class="node">
<title>Node8</title>
<g id="a_node8"><a xlink:href="../../d8/df8/omnibox__match__cell__view_8cc.html" target="_top" xlink:title=" ">
<polygon fill="white" stroke="black" points="210,-0.5 210,-41.5 338,-41.5 338,-0.5 210,-0.5"/>
<text text-anchor="start" x="218" y="-29.5" font-family="Helvetica,sans-Serif" font-size="10.00">chrome/browser/ui/views</text>
<text text-anchor="start" x="218" y="-18.5" font-family="Helvetica,sans-Serif" font-size="10.00">/omnibox/omnibox_match</text>
<text text-anchor="middle" x="274" y="-7.5" font-family="Helvetica,sans-Serif" font-size="10.00">_cell_view.cc</text>
</a>
</g>
</g>
<!-- Node7&#45;&gt;Node8 -->
<g id="edge7" class="edge">
<title>Node7&#45;&gt;Node8</title>
<path fill="none" stroke="midnightblue" d="M257.34,-68.88C260.6,-59.72 264.11,-49.83 267.07,-41.51"/>
<polygon fill="midnightblue" stroke="midnightblue" points="254,-67.83 253.95,-78.43 260.6,-70.18 254,-67.83"/>
</g>
<!-- Node9 -->
<g id="node9" class="node">
<title>Node9</title>
<g id="a_node9"><a xlink:href="../../d7/d7d/omnibox__text__view_8cc.html" target="_top" xlink:title=" ">
<polygon fill="white" stroke="black" points="356.5,-0.5 356.5,-41.5 481.5,-41.5 481.5,-0.5 356.5,-0.5"/>
<text text-anchor="start" x="364.5" y="-29.5" font-family="Helvetica,sans-Serif" font-size="10.00">chrome/browser/ui/views</text>
<text text-anchor="start" x="364.5" y="-18.5" font-family="Helvetica,sans-Serif" font-size="10.00">/omnibox/omnibox_text</text>
<text text-anchor="middle" x="419" y="-7.5" font-family="Helvetica,sans-Serif" font-size="10.00">_view.cc</text>
</a>
</g>
</g>
<!-- Node7&#45;&gt;Node9 -->
<g id="edge9" class="edge">
<title>Node7&#45;&gt;Node9</title>
<path fill="none" stroke="midnightblue" d="M300.57,-74.33C324.44,-63.78 352.21,-51.51 374.86,-41.51"/>
<polygon fill="midnightblue" stroke="midnightblue" points="299.03,-71.19 291.29,-78.43 301.86,-77.59 299.03,-71.19"/>
</g>
</g>
</svg>
        <g id="navigator" transform="translate(0 0)" fill="#404254">
                <rect fill="#f2f5e9" fill-opacity="0.5" stroke="#606060" stroke-width=".5" x="0" y="0" width="60" height="60"/>
                <use id="zoomplus" xlink:href="#zoomPlus" x="17" y="9" onmousedown="handleZoom(evt,'in')"/>
                <use id="zoomminus" xlink:href="#zoomMin" x="42" y="9" onmousedown="handleZoom(evt,'out')"/>
                <use id="reset" xlink:href="#resetDef" x="30" y="36" onmousedown="handleReset()"/>
                <g id="arrowUp" xlink:href="#dirArrow" transform="translate(30 24)" onmousedown="handlePan(0,-1)">
                  <use xlink:href="#rim" fill="#404040">
                        <set attributeName="fill" to="#808080" begin="arrowUp.mouseover" end="arrowUp.mouseout"/>
                  </use>
                  <path fill="none" stroke="white" stroke-width="1.5" d="M0,-3.0v7 M-2.5,-0.5L0,-3.0L2.5,-0.5"/>
                </g>
                <g id="arrowRight" xlink:href="#dirArrow" transform="rotate(90) translate(36 -43)" onmousedown="handlePan(1,0)">
                  <use xlink:href="#rim" fill="#404040">
                        <set attributeName="fill" to="#808080" begin="arrowRight.mouseover" end="arrowRight.mouseout"/>
                  </use>
                  <path fill="none" stroke="white" stroke-width="1.5" d="M0,-3.0v7 M-2.5,-0.5L0,-3.0L2.5,-0.5"/>
                </g>
                <g id="arrowDown" xlink:href="#dirArrow" transform="rotate(180) translate(-30 -48)" onmousedown="handlePan(0,1)">
                  <use xlink:href="#rim" fill="#404040">
                        <set attributeName="fill" to="#808080" begin="arrowDown.mouseover" end="arrowDown.mouseout"/>
                  </use>
                  <path fill="none" stroke="white" stroke-width="1.5" d="M0,-3.0v7 M-2.5,-0.5L0,-3.0L2.5,-0.5"/>
                </g>
                <g id="arrowLeft" xlink:href="#dirArrow" transform="rotate(270) translate(-36 17)" onmousedown="handlePan(-1,0)">
                  <use xlink:href="#rim" fill="#404040">
                        <set attributeName="fill" to="#808080" begin="arrowLeft.mouseover" end="arrowLeft.mouseout"/>
                  </use>
                  <path fill="none" stroke="white" stroke-width="1.5" d="M0,-3.0v7 M-2.5,-0.5L0,-3.0L2.5,-0.5"/>
                </g>
        </g>
        <svg viewBox="0 0 15 15" width="100%" height="30px" preserveAspectRatio="xMaxYMin meet">
         <g id="arrow_out" transform="scale(0.3 0.3)">
          <a xlink:href="omnibox__mouse__enter__exit__handler_8h__dep__incl_org.svg" target="_base">
           <rect id="button" ry="5" rx="5" y="6" x="6" height="38" width="38"
                fill="#f2f5e9" fill-opacity="0.5" stroke="#606060" stroke-width="1.0"/>
           <path id="arrow"
             d="M 11.500037,31.436501 C 11.940474,20.09759 22.043105,11.32322 32.158766,21.979434 L 37.068811,17.246167 C 37.068811,17.246167 37.088388,32 37.088388,32 L 22.160133,31.978069 C 22.160133,31.978069 26.997745,27.140456 26.997745,27.140456 C 18.528582,18.264221 13.291696,25.230495 11.500037,31.436501 z"
             style="fill:#404040;"/>
          </a>
         </g>
        </svg>
</svg>
