<?xml version="1.0" encoding="UTF-8" standalone="no"?>
<!DOCTYPE svg PUBLIC "-//W3C//DTD SVG 1.1//EN"
 "http://www.w3.org/Graphics/SVG/1.1/DTD/svg11.dtd">
<!-- Generated by graphviz version 2.43.0 (0)
 -->
<!-- Title: OmniboxFieldTrial::IsExperimentalKeywordModeEnabled Pages: 1 -->
<svg width="2797pt" height="579pt"
 viewBox="0.00 0.00 2797.00 579.00" xmlns="http://www.w3.org/2000/svg" xmlns:xlink="http://www.w3.org/1999/xlink">
<g id="graph0" class="graph" transform="scale(1 1) rotate(0) translate(4 575)">
<title>OmniboxFieldTrial::IsExperimentalKeywordModeEnabled</title>
<polygon fill="white" stroke="transparent" points="-4,4 -4,-575 2793,-575 2793,4 -4,4"/>
<!-- Node1 -->
<g id="node1" class="node">
<title>Node1</title>
<g id="a_node1"><a xlink:title=" ">
<polygon fill="#bfbfbf" stroke="black" points="2610,-403.5 2610,-433.5 2789,-433.5 2789,-403.5 2610,-403.5"/>
<text text-anchor="start" x="2618" y="-421.5" font-family="Helvetica,sans-Serif" font-size="10.00">OmniboxFieldTrial::</text>
<text text-anchor="middle" x="2699.5" y="-410.5" font-family="Helvetica,sans-Serif" font-size="10.00">IsExperimentalKeywordModeEnabled</text>
</a>
</g>
</g>
<!-- Node2 -->
<g id="node2" class="node">
<title>Node2</title>
<g id="a_node2"><a xlink:href="../../dd/de9/classAutocompleteProvider.html#aec3f19a221308074139e0db83ee59aa4" target="_top" xlink:title=" ">
<polygon fill="white" stroke="black" points="2392,-439.5 2392,-469.5 2574,-469.5 2574,-439.5 2392,-439.5"/>
<text text-anchor="start" x="2400" y="-457.5" font-family="Helvetica,sans-Serif" font-size="10.00">AutocompleteProvider</text>
<text text-anchor="middle" x="2483" y="-446.5" font-family="Helvetica,sans-Serif" font-size="10.00">::InExplicitExperimentalKeywordMode</text>
</a>
</g>
</g>
<!-- Node1&#45;&gt;Node2 -->
<g id="edge1" class="edge">
<title>Node1&#45;&gt;Node2</title>
<path fill="none" stroke="midnightblue" d="M2599.82,-435.06C2591.01,-436.54 2582.14,-438.03 2573.42,-439.49"/>
<polygon fill="midnightblue" stroke="midnightblue" points="2600.42,-438.51 2609.71,-433.4 2599.26,-431.61 2600.42,-438.51"/>
</g>
<!-- Node45 -->
<g id="node45" class="node">
<title>Node45</title>
<g id="a_node45"><a xlink:href="../../dc/dfa/classDocumentProvider.html#a2458b915aab1139d744176825c02fc4f" target="_top" xlink:title=" ">
<polygon fill="white" stroke="black" points="2404.5,-379.5 2404.5,-409.5 2561.5,-409.5 2561.5,-379.5 2404.5,-379.5"/>
<text text-anchor="start" x="2412.5" y="-397.5" font-family="Helvetica,sans-Serif" font-size="10.00">DocumentProvider::IsDocument</text>
<text text-anchor="middle" x="2483" y="-386.5" font-family="Helvetica,sans-Serif" font-size="10.00">ProviderAllowed</text>
</a>
</g>
</g>
<!-- Node1&#45;&gt;Node45 -->
<g id="edge52" class="edge">
<title>Node1&#45;&gt;Node45</title>
<path fill="none" stroke="midnightblue" d="M2599.58,-407.43C2586.9,-406.01 2574.05,-404.58 2561.77,-403.2"/>
<polygon fill="midnightblue" stroke="midnightblue" points="2599.38,-410.93 2609.71,-408.57 2600.16,-403.97 2599.38,-410.93"/>
</g>
<!-- Node3 -->
<g id="node3" class="node">
<title>Node3</title>
<g id="a_node3"><a xlink:href="../../d0/d22/classOmniboxEditModel.html#acdacebbb892e382e743868acf04eca88" target="_top" xlink:title=" ">
<polygon fill="white" stroke="black" points="2199.5,-499.5 2199.5,-529.5 2345.5,-529.5 2345.5,-499.5 2199.5,-499.5"/>
<text text-anchor="start" x="2207.5" y="-517.5" font-family="Helvetica,sans-Serif" font-size="10.00">OmniboxEditModel::InExplicit</text>
<text text-anchor="middle" x="2272.5" y="-506.5" font-family="Helvetica,sans-Serif" font-size="10.00">ExperimentalKeywordMode</text>
</a>
</g>
</g>
<!-- Node2&#45;&gt;Node3 -->
<g id="edge2" class="edge">
<title>Node2&#45;&gt;Node3</title>
<path fill="none" stroke="midnightblue" d="M2419.74,-472.42C2389.83,-481.02 2354.37,-491.23 2325.87,-499.43"/>
<polygon fill="midnightblue" stroke="midnightblue" points="2421.01,-475.69 2429.66,-469.56 2419.08,-468.97 2421.01,-475.69"/>
</g>
<!-- Node8 -->
<g id="node8" class="node">
<title>Node8</title>
<g id="a_node8"><a xlink:href="../../d4/dee/classSearchProvider.html#a660ea741f820183309dff7b205a4f19c" target="_top" xlink:title=" ">
<polygon fill="white" stroke="black" points="2202.5,-450.5 2202.5,-480.5 2342.5,-480.5 2342.5,-450.5 2202.5,-450.5"/>
<text text-anchor="start" x="2210.5" y="-468.5" font-family="Helvetica,sans-Serif" font-size="10.00">SearchProvider::ShouldCurb</text>
<text text-anchor="middle" x="2272.5" y="-457.5" font-family="Helvetica,sans-Serif" font-size="10.00">DefaultSuggestions</text>
</a>
</g>
</g>
<!-- Node2&#45;&gt;Node8 -->
<g id="edge7" class="edge">
<title>Node2&#45;&gt;Node8</title>
<path fill="none" stroke="midnightblue" d="M2381.72,-459.79C2368.56,-460.48 2355.31,-461.18 2342.82,-461.84"/>
<polygon fill="midnightblue" stroke="midnightblue" points="2381.96,-463.28 2391.76,-459.26 2381.59,-456.29 2381.96,-463.28"/>
</g>
<!-- Node18 -->
<g id="node18" class="node">
<title>Node18</title>
<g id="a_node18"><a xlink:href="../../df/d4d/classAutocompleteController.html#aa03939933610babc4b8aad794ce61615" target="_top" xlink:title=" ">
<polygon fill="white" stroke="black" points="2189,-401.5 2189,-431.5 2356,-431.5 2356,-401.5 2189,-401.5"/>
<text text-anchor="start" x="2197" y="-419.5" font-family="Helvetica,sans-Serif" font-size="10.00">AutocompleteController</text>
<text text-anchor="middle" x="2272.5" y="-408.5" font-family="Helvetica,sans-Serif" font-size="10.00">::ShouldCurbKeywordDescriptions</text>
</a>
</g>
</g>
<!-- Node2&#45;&gt;Node18 -->
<g id="edge19" class="edge">
<title>Node2&#45;&gt;Node18</title>
<path fill="none" stroke="midnightblue" d="M2389.43,-437.63C2378.29,-435.6 2366.97,-433.54 2355.99,-431.53"/>
<polygon fill="midnightblue" stroke="midnightblue" points="2389.13,-441.13 2399.6,-439.48 2390.38,-434.25 2389.13,-441.13"/>
</g>
<!-- Node4 -->
<g id="node4" class="node">
<title>Node4</title>
<g id="a_node4"><a xlink:href="../../d7/d88/classOmniboxPopupContentsView.html#a621d83531c2c3c7a71ed5534d31b1d56" target="_top" xlink:title=" ">
<polygon fill="white" stroke="black" points="1971,-519.5 1971,-549.5 2153,-549.5 2153,-519.5 1971,-519.5"/>
<text text-anchor="start" x="1979" y="-537.5" font-family="Helvetica,sans-Serif" font-size="10.00">OmniboxPopupContentsView</text>
<text text-anchor="middle" x="2062" y="-526.5" font-family="Helvetica,sans-Serif" font-size="10.00">::InExplicitExperimentalKeywordMode</text>
</a>
</g>
</g>
<!-- Node3&#45;&gt;Node4 -->
<g id="edge3" class="edge">
<title>Node3&#45;&gt;Node4</title>
<path fill="none" stroke="midnightblue" d="M2189.16,-522.4C2177.31,-523.54 2165.06,-524.71 2153.07,-525.86"/>
<polygon fill="midnightblue" stroke="midnightblue" points="2189.83,-525.85 2199.45,-521.41 2189.17,-518.88 2189.83,-525.85"/>
</g>
<!-- Node5 -->
<g id="node5" class="node">
<title>Node5</title>
<g id="a_node5"><a xlink:href="../../d3/d4c/classOmniboxResultView.html#ad0185705673042dc89733278acc080e5" target="_top" xlink:title=" ">
<polygon fill="white" stroke="black" points="1792.5,-540.5 1792.5,-570.5 1904.5,-570.5 1904.5,-540.5 1792.5,-540.5"/>
<text text-anchor="start" x="1800.5" y="-558.5" font-family="Helvetica,sans-Serif" font-size="10.00">OmniboxResultView::</text>
<text text-anchor="middle" x="1848.5" y="-547.5" font-family="Helvetica,sans-Serif" font-size="10.00">SetMatch</text>
</a>
</g>
</g>
<!-- Node4&#45;&gt;Node5 -->
<g id="edge4" class="edge">
<title>Node4&#45;&gt;Node5</title>
<path fill="none" stroke="midnightblue" d="M1960.88,-544.44C1941.47,-546.37 1921.8,-548.32 1904.51,-550.04"/>
<polygon fill="midnightblue" stroke="midnightblue" points="1961.39,-547.91 1971,-543.44 1960.7,-540.94 1961.39,-547.91"/>
</g>
<!-- Node6 -->
<g id="node6" class="node">
<title>Node6</title>
<g id="a_node6"><a xlink:href="../../d7/d88/classOmniboxPopupContentsView.html#aa8f47263f229af6a469c3bf964b81162" target="_top" xlink:title=" ">
<polygon fill="white" stroke="black" points="193,-308.5 193,-338.5 338,-338.5 338,-308.5 193,-308.5"/>
<text text-anchor="start" x="201" y="-326.5" font-family="Helvetica,sans-Serif" font-size="10.00">OmniboxPopupContentsView</text>
<text text-anchor="middle" x="265.5" y="-315.5" font-family="Helvetica,sans-Serif" font-size="10.00">::UpdatePopupAppearance</text>
</a>
</g>
</g>
<!-- Node5&#45;&gt;Node6 -->
<g id="edge5" class="edge">
<title>Node5&#45;&gt;Node6</title>
<path fill="none" stroke="midnightblue" d="M1782.23,-559.04C1705.49,-562.89 1574.28,-568.5 1461.5,-568.5 1461.5,-568.5 1461.5,-568.5 683.5,-568.5 501.29,-568.5 328.36,-392.46 279.9,-338.83"/>
<polygon fill="midnightblue" stroke="midnightblue" points="1782.42,-562.53 1792.23,-558.53 1782.06,-555.54 1782.42,-562.53"/>
</g>
<!-- Node7 -->
<g id="node7" class="node">
<title>Node7</title>
<g id="a_node7"><a xlink:href="../../d7/d88/classOmniboxPopupContentsView.html#a0e658101bc19acb66f6e0915fd6c2fe3" target="_top" xlink:title=" ">
<polygon fill="white" stroke="black" points="0,-308.5 0,-338.5 145,-338.5 145,-308.5 0,-308.5"/>
<text text-anchor="start" x="8" y="-326.5" font-family="Helvetica,sans-Serif" font-size="10.00">OmniboxPopupContentsView</text>
<text text-anchor="middle" x="72.5" y="-315.5" font-family="Helvetica,sans-Serif" font-size="10.00">::OnWidgetBoundsChanged</text>
</a>
</g>
</g>
<!-- Node6&#45;&gt;Node7 -->
<g id="edge6" class="edge">
<title>Node6&#45;&gt;Node7</title>
<path fill="none" stroke="midnightblue" d="M182.51,-323.5C170.12,-323.5 157.41,-323.5 145.25,-323.5"/>
<polygon fill="midnightblue" stroke="midnightblue" points="182.84,-327 192.84,-323.5 182.84,-320 182.84,-327"/>
</g>
<!-- Node9 -->
<g id="node9" class="node">
<title>Node9</title>
<g id="a_node9"><a xlink:href="../../d4/dee/classSearchProvider.html#a0399169b208c94d4599111517f9abf7f" target="_top" xlink:title=" ">
<polygon fill="white" stroke="black" points="1983,-450.5 1983,-480.5 2141,-480.5 2141,-450.5 1983,-450.5"/>
<text text-anchor="start" x="1991" y="-468.5" font-family="Helvetica,sans-Serif" font-size="10.00">SearchProvider::ConvertResults</text>
<text text-anchor="middle" x="2062" y="-457.5" font-family="Helvetica,sans-Serif" font-size="10.00">ToAutocompleteMatches</text>
</a>
</g>
</g>
<!-- Node8&#45;&gt;Node9 -->
<g id="edge8" class="edge">
<title>Node8&#45;&gt;Node9</title>
<path fill="none" stroke="midnightblue" d="M2192.13,-465.5C2175.48,-465.5 2157.93,-465.5 2141.32,-465.5"/>
<polygon fill="midnightblue" stroke="midnightblue" points="2192.36,-469 2202.36,-465.5 2192.36,-462 2192.36,-469"/>
</g>
<!-- Node10 -->
<g id="node10" class="node">
<title>Node10</title>
<g id="a_node10"><a xlink:href="../../d4/dee/classSearchProvider.html#a9616ba802ad8e814267f9e3eb5096006" target="_top" xlink:title=" ">
<polygon fill="white" stroke="black" points="1762,-478 1762,-497 1935,-497 1935,-478 1762,-478"/>
<text text-anchor="middle" x="1848.5" y="-485" font-family="Helvetica,sans-Serif" font-size="10.00">SearchProvider::EnforceConstraints</text>
</a>
</g>
</g>
<!-- Node9&#45;&gt;Node10 -->
<g id="edge9" class="edge">
<title>Node9&#45;&gt;Node10</title>
<path fill="none" stroke="midnightblue" d="M1972.55,-474.7C1960.17,-475.99 1947.48,-477.31 1935.16,-478.59"/>
<polygon fill="midnightblue" stroke="midnightblue" points="1973.26,-478.15 1982.85,-473.63 1972.54,-471.18 1973.26,-478.15"/>
</g>
<!-- Node11 -->
<g id="node11" class="node">
<title>Node11</title>
<g id="a_node11"><a xlink:href="../../d4/dee/classSearchProvider.html#a2069cdad12e1ef540aead34c19af5128" target="_top" xlink:title=" ">
<polygon fill="white" stroke="black" points="1568,-466 1568,-485 1726,-485 1726,-466 1568,-466"/>
<text text-anchor="middle" x="1647" y="-473" font-family="Helvetica,sans-Serif" font-size="10.00">SearchProvider::UpdateMatches</text>
</a>
</g>
</g>
<!-- Node9&#45;&gt;Node11 -->
<g id="edge18" class="edge">
<title>Node9&#45;&gt;Node11</title>
<path fill="none" stroke="midnightblue" d="M1972.79,-465.2C1913.23,-465.29 1832.87,-465.97 1762,-468.5 1750.41,-468.91 1738.16,-469.5 1726.16,-470.17"/>
<polygon fill="midnightblue" stroke="midnightblue" points="1972.91,-468.7 1982.91,-465.19 1972.91,-461.7 1972.91,-468.7"/>
</g>
<!-- Node10&#45;&gt;Node11 -->
<g id="edge10" class="edge">
<title>Node10&#45;&gt;Node11</title>
<path fill="none" stroke="midnightblue" d="M1751.71,-481.74C1743.14,-481.22 1734.53,-480.7 1726.13,-480.2"/>
<polygon fill="midnightblue" stroke="midnightblue" points="1751.54,-485.23 1761.74,-482.34 1751.96,-478.25 1751.54,-485.23"/>
</g>
<!-- Node12 -->
<g id="node12" class="node">
<title>Node12</title>
<g id="a_node12"><a xlink:href="../../d4/dee/classSearchProvider.html#ac19ab2526055b301d5a3dde7889895eb" target="_top" xlink:title=" ">
<polygon fill="white" stroke="black" points="1389.5,-509.5 1389.5,-539.5 1531.5,-539.5 1531.5,-509.5 1389.5,-509.5"/>
<text text-anchor="start" x="1397.5" y="-527.5" font-family="Helvetica,sans-Serif" font-size="10.00">SearchProvider::OnTemplate</text>
<text text-anchor="middle" x="1460.5" y="-516.5" font-family="Helvetica,sans-Serif" font-size="10.00">URLServiceChanged</text>
</a>
</g>
</g>
<!-- Node11&#45;&gt;Node12 -->
<g id="edge11" class="edge">
<title>Node11&#45;&gt;Node12</title>
<path fill="none" stroke="midnightblue" d="M1600.1,-487.69C1575.28,-494.28 1544.42,-502.48 1518.12,-509.46"/>
<polygon fill="midnightblue" stroke="midnightblue" points="1601.22,-491.01 1609.99,-485.06 1599.43,-484.25 1601.22,-491.01"/>
</g>
<!-- Node13 -->
<g id="node13" class="node">
<title>Node13</title>
<g id="a_node13"><a xlink:href="../../d4/dee/classSearchProvider.html#a62390d46fb831c0919093798ab7bd52d" target="_top" xlink:title=" ">
<polygon fill="white" stroke="black" points="1389,-460.5 1389,-490.5 1532,-490.5 1532,-460.5 1389,-460.5"/>
<text text-anchor="start" x="1397" y="-478.5" font-family="Helvetica,sans-Serif" font-size="10.00">SearchProvider::OnURLLoad</text>
<text text-anchor="middle" x="1460.5" y="-467.5" font-family="Helvetica,sans-Serif" font-size="10.00">Complete</text>
</a>
</g>
</g>
<!-- Node11&#45;&gt;Node13 -->
<g id="edge12" class="edge">
<title>Node11&#45;&gt;Node13</title>
<path fill="none" stroke="midnightblue" d="M1557.75,-475.5C1549.2,-475.5 1540.6,-475.5 1532.26,-475.5"/>
<polygon fill="midnightblue" stroke="midnightblue" points="1557.76,-479 1567.76,-475.5 1557.76,-472 1557.76,-479"/>
</g>
<!-- Node17 -->
<g id="node17" class="node">
<title>Node17</title>
<g id="a_node17"><a xlink:href="../../d4/dee/classSearchProvider.html#a9e8f7e367904d424ac875e501844e830" target="_top" xlink:title=" ">
<polygon fill="white" stroke="black" points="629.5,-444 629.5,-463 739.5,-463 739.5,-444 629.5,-444"/>
<text text-anchor="middle" x="684.5" y="-451" font-family="Helvetica,sans-Serif" font-size="10.00">SearchProvider::Start</text>
</a>
</g>
</g>
<!-- Node11&#45;&gt;Node17 -->
<g id="edge17" class="edge">
<title>Node11&#45;&gt;Node17</title>
<path fill="none" stroke="midnightblue" d="M1597.07,-463.75C1577.01,-459.31 1553.49,-454.59 1532,-451.5 1419.26,-435.29 1390.4,-431.5 1276.5,-431.5 1276.5,-431.5 1276.5,-431.5 1088,-431.5 963.26,-431.5 817.09,-442.17 739.81,-448.64"/>
<polygon fill="midnightblue" stroke="midnightblue" points="1596.39,-467.18 1606.92,-465.96 1597.93,-460.35 1596.39,-467.18"/>
</g>
<!-- Node14 -->
<g id="node14" class="node">
<title>Node14</title>
<g id="a_node14"><a xlink:href="../../d4/dee/classSearchProvider.html#ac6613acbe0b4e879590cdb0d562999c9" target="_top" xlink:title=" ">
<polygon fill="white" stroke="black" points="1198,-460.5 1198,-490.5 1353,-490.5 1353,-460.5 1198,-460.5"/>
<text text-anchor="start" x="1206" y="-478.5" font-family="Helvetica,sans-Serif" font-size="10.00">SearchProvider::CreateSuggest</text>
<text text-anchor="middle" x="1275.5" y="-467.5" font-family="Helvetica,sans-Serif" font-size="10.00">Loader</text>
</a>
</g>
</g>
<!-- Node13&#45;&gt;Node14 -->
<g id="edge13" class="edge">
<title>Node13&#45;&gt;Node14</title>
<path fill="none" stroke="midnightblue" d="M1378.53,-475.5C1370.09,-475.5 1361.53,-475.5 1353.14,-475.5"/>
<polygon fill="midnightblue" stroke="midnightblue" points="1378.75,-479 1388.75,-475.5 1378.75,-472 1378.75,-479"/>
</g>
<!-- Node15 -->
<g id="node15" class="node">
<title>Node15</title>
<g id="a_node15"><a xlink:href="../../d4/dee/classSearchProvider.html#a02c8b00f5d4da0ce7e5de29658483914" target="_top" xlink:title=" ">
<polygon fill="white" stroke="black" points="1035.5,-466 1035.5,-485 1142.5,-485 1142.5,-466 1035.5,-466"/>
<text text-anchor="middle" x="1089" y="-473" font-family="Helvetica,sans-Serif" font-size="10.00">SearchProvider::Run</text>
</a>
</g>
</g>
<!-- Node14&#45;&gt;Node15 -->
<g id="edge14" class="edge">
<title>Node14&#45;&gt;Node15</title>
<path fill="none" stroke="midnightblue" d="M1187.76,-475.5C1172.32,-475.5 1156.67,-475.5 1142.55,-475.5"/>
<polygon fill="midnightblue" stroke="midnightblue" points="1187.86,-479 1197.86,-475.5 1187.86,-472 1187.86,-479"/>
</g>
<!-- Node16 -->
<g id="node16" class="node">
<title>Node16</title>
<g id="a_node16"><a xlink:href="../../d4/dee/classSearchProvider.html#af0c60cb234c815b05521a08434e7dcdc" target="_top" xlink:title=" ">
<polygon fill="white" stroke="black" points="830.5,-460.5 830.5,-490.5 971.5,-490.5 971.5,-460.5 830.5,-460.5"/>
<text text-anchor="start" x="838.5" y="-478.5" font-family="Helvetica,sans-Serif" font-size="10.00">SearchProvider::StartOrStop</text>
<text text-anchor="middle" x="901" y="-467.5" font-family="Helvetica,sans-Serif" font-size="10.00">SuggestQuery</text>
</a>
</g>
</g>
<!-- Node15&#45;&gt;Node16 -->
<g id="edge15" class="edge">
<title>Node15&#45;&gt;Node16</title>
<path fill="none" stroke="midnightblue" d="M1024.77,-475.5C1007.66,-475.5 989.06,-475.5 971.62,-475.5"/>
<polygon fill="midnightblue" stroke="midnightblue" points="1025.2,-479 1035.2,-475.5 1025.2,-472 1025.2,-479"/>
</g>
<!-- Node16&#45;&gt;Node17 -->
<g id="edge16" class="edge">
<title>Node16&#45;&gt;Node17</title>
<path fill="none" stroke="midnightblue" d="M820.19,-467.31C793.29,-464.56 763.93,-461.54 739.51,-459.04"/>
<polygon fill="midnightblue" stroke="midnightblue" points="820.05,-470.82 830.36,-468.36 820.77,-463.86 820.05,-470.82"/>
</g>
<!-- Node19 -->
<g id="node19" class="node">
<title>Node19</title>
<g id="a_node19"><a xlink:href="../../df/d4d/classAutocompleteController.html#a585b99a34c974117b5445d3ba148be0e" target="_top" xlink:title=" ">
<polygon fill="white" stroke="black" points="1988.5,-381.5 1988.5,-411.5 2135.5,-411.5 2135.5,-381.5 1988.5,-381.5"/>
<text text-anchor="start" x="1996.5" y="-399.5" font-family="Helvetica,sans-Serif" font-size="10.00">AutocompleteController</text>
<text text-anchor="middle" x="2062" y="-388.5" font-family="Helvetica,sans-Serif" font-size="10.00">::UpdateKeywordDescriptions</text>
</a>
</g>
</g>
<!-- Node18&#45;&gt;Node19 -->
<g id="edge20" class="edge">
<title>Node18&#45;&gt;Node19</title>
<path fill="none" stroke="midnightblue" d="M2178.46,-407.57C2164.16,-406.2 2149.59,-404.81 2135.82,-403.49"/>
<polygon fill="midnightblue" stroke="midnightblue" points="2178.51,-411.1 2188.8,-408.57 2179.18,-404.13 2178.51,-411.1"/>
</g>
<!-- Node20 -->
<g id="node20" class="node">
<title>Node20</title>
<g id="a_node20"><a xlink:href="../../df/d4d/classAutocompleteController.html#a4bd8523f1764eb72920409795b1fb1df" target="_top" xlink:title=" ">
<polygon fill="white" stroke="black" points="1789,-310.5 1789,-340.5 1908,-340.5 1908,-310.5 1789,-310.5"/>
<text text-anchor="start" x="1797" y="-328.5" font-family="Helvetica,sans-Serif" font-size="10.00">AutocompleteController</text>
<text text-anchor="middle" x="1848.5" y="-317.5" font-family="Helvetica,sans-Serif" font-size="10.00">::UpdateResult</text>
</a>
</g>
</g>
<!-- Node19&#45;&gt;Node20 -->
<g id="edge21" class="edge">
<title>Node19&#45;&gt;Node20</title>
<path fill="none" stroke="midnightblue" d="M2006.6,-378.24C1971.75,-366.54 1927.08,-351.54 1894.29,-340.54"/>
<polygon fill="midnightblue" stroke="midnightblue" points="2005.55,-381.58 2016.15,-381.44 2007.78,-374.94 2005.55,-381.58"/>
</g>
<!-- Node21 -->
<g id="node21" class="node">
<title>Node21</title>
<g id="a_node21"><a xlink:href="../../df/d4d/classAutocompleteController.html#ae1f4a40a8daa8c804b265590ff4415be" target="_top" xlink:title=" ">
<polygon fill="white" stroke="black" points="1587.5,-285.5 1587.5,-315.5 1706.5,-315.5 1706.5,-285.5 1587.5,-285.5"/>
<text text-anchor="start" x="1595.5" y="-303.5" font-family="Helvetica,sans-Serif" font-size="10.00">AutocompleteController</text>
<text text-anchor="middle" x="1647" y="-292.5" font-family="Helvetica,sans-Serif" font-size="10.00">::ExpireCopiedEntries</text>
</a>
</g>
</g>
<!-- Node20&#45;&gt;Node21 -->
<g id="edge22" class="edge">
<title>Node20&#45;&gt;Node21</title>
<path fill="none" stroke="midnightblue" d="M1779.05,-316.92C1755.45,-313.96 1729.24,-310.68 1706.51,-307.83"/>
<polygon fill="midnightblue" stroke="midnightblue" points="1778.63,-320.4 1788.99,-318.17 1779.5,-313.45 1778.63,-320.4"/>
</g>
<!-- Node35 -->
<g id="node35" class="node">
<title>Node35</title>
<g id="a_node35"><a xlink:href="../../df/d4d/classAutocompleteController.html#a6be8d5d8847f9862da417998c4785989" target="_top" xlink:title=" ">
<polygon fill="white" stroke="black" points="1216,-241.5 1216,-271.5 1335,-271.5 1335,-241.5 1216,-241.5"/>
<text text-anchor="start" x="1224" y="-259.5" font-family="Helvetica,sans-Serif" font-size="10.00">AutocompleteController</text>
<text text-anchor="middle" x="1275.5" y="-248.5" font-family="Helvetica,sans-Serif" font-size="10.00">::Start</text>
</a>
</g>
</g>
<!-- Node20&#45;&gt;Node35 -->
<g id="edge51" class="edge">
<title>Node20&#45;&gt;Node35</title>
<path fill="none" stroke="midnightblue" d="M1809.74,-305.96C1786.3,-294.85 1755.18,-281.91 1726,-275.5 1588.49,-245.28 1421.78,-248.2 1335.16,-252.57"/>
<polygon fill="midnightblue" stroke="midnightblue" points="1808.44,-309.21 1818.96,-310.42 1811.49,-302.91 1808.44,-309.21"/>
</g>
<!-- Node44 -->
<g id="node44" class="node">
<title>Node44</title>
<g id="a_node44"><a xlink:href="../../df/d4d/classAutocompleteController.html#a0d07fa1825d1adba7b2491bc682f57c5" target="_top" xlink:title=" ">
<polygon fill="white" stroke="black" points="1587.5,-334.5 1587.5,-364.5 1706.5,-364.5 1706.5,-334.5 1587.5,-334.5"/>
<text text-anchor="start" x="1595.5" y="-352.5" font-family="Helvetica,sans-Serif" font-size="10.00">AutocompleteController</text>
<text text-anchor="middle" x="1647" y="-341.5" font-family="Helvetica,sans-Serif" font-size="10.00">::OnProviderUpdate</text>
</a>
</g>
</g>
<!-- Node20&#45;&gt;Node44 -->
<g id="edge49" class="edge">
<title>Node20&#45;&gt;Node44</title>
<path fill="none" stroke="midnightblue" d="M1779.05,-333.73C1755.45,-336.57 1729.24,-339.73 1706.51,-342.46"/>
<polygon fill="midnightblue" stroke="midnightblue" points="1779.48,-337.21 1788.99,-332.54 1778.64,-330.26 1779.48,-337.21"/>
</g>
<!-- Node22 -->
<g id="node22" class="node">
<title>Node22</title>
<g id="a_node22"><a xlink:href="../../df/d4d/classAutocompleteController.html#a94fe99a16d5617d48084d6bc68b77099" target="_top" xlink:title=" ">
<polygon fill="white" stroke="black" points="1401,-334.5 1401,-364.5 1520,-364.5 1520,-334.5 1401,-334.5"/>
<text text-anchor="start" x="1409" y="-352.5" font-family="Helvetica,sans-Serif" font-size="10.00">AutocompleteController</text>
<text text-anchor="middle" x="1460.5" y="-341.5" font-family="Helvetica,sans-Serif" font-size="10.00">::DeleteMatch</text>
</a>
</g>
</g>
<!-- Node21&#45;&gt;Node22 -->
<g id="edge23" class="edge">
<title>Node21&#45;&gt;Node22</title>
<path fill="none" stroke="midnightblue" d="M1579.64,-318.12C1559.46,-323.48 1537.47,-329.32 1518,-334.49"/>
<polygon fill="midnightblue" stroke="midnightblue" points="1580.62,-321.48 1589.39,-315.53 1578.83,-314.72 1580.62,-321.48"/>
</g>
<!-- Node34 -->
<g id="node34" class="node">
<title>Node34</title>
<g id="a_node34"><a xlink:href="../../df/d4d/classAutocompleteController.html#aeab74bbaa0a7179385e15263d2193cc4" target="_top" xlink:title=" ">
<polygon fill="white" stroke="black" points="1401,-285.5 1401,-315.5 1520,-315.5 1520,-285.5 1401,-285.5"/>
<text text-anchor="start" x="1409" y="-303.5" font-family="Helvetica,sans-Serif" font-size="10.00">AutocompleteController</text>
<text text-anchor="middle" x="1460.5" y="-292.5" font-family="Helvetica,sans-Serif" font-size="10.00">::StartExpireTimer</text>
</a>
</g>
</g>
<!-- Node21&#45;&gt;Node34 -->
<g id="edge39" class="edge">
<title>Node21&#45;&gt;Node34</title>
<path fill="none" stroke="midnightblue" d="M1577.15,-300.5C1558.45,-300.5 1538.38,-300.5 1520.29,-300.5"/>
<polygon fill="midnightblue" stroke="midnightblue" points="1577.37,-304 1587.37,-300.5 1577.37,-297 1577.37,-304"/>
</g>
<!-- Node23 -->
<g id="node23" class="node">
<title>Node23</title>
<g id="a_node23"><a xlink:href="../../d1/db1/classOmniboxPopupModel.html#aa11680c969b457fc53da3446feabf8a8" target="_top" xlink:title=" ">
<polygon fill="white" stroke="black" points="1217.5,-334.5 1217.5,-364.5 1333.5,-364.5 1333.5,-334.5 1217.5,-334.5"/>
<text text-anchor="start" x="1225.5" y="-352.5" font-family="Helvetica,sans-Serif" font-size="10.00">OmniboxPopupModel::</text>
<text text-anchor="middle" x="1275.5" y="-341.5" font-family="Helvetica,sans-Serif" font-size="10.00">TryDeletingLine</text>
</a>
</g>
</g>
<!-- Node22&#45;&gt;Node23 -->
<g id="edge24" class="edge">
<title>Node22&#45;&gt;Node23</title>
<path fill="none" stroke="midnightblue" d="M1390.83,-349.5C1371.96,-349.5 1351.71,-349.5 1333.58,-349.5"/>
<polygon fill="midnightblue" stroke="midnightblue" points="1390.84,-353 1400.84,-349.5 1390.84,-346 1390.84,-353"/>
</g>
<!-- Node24 -->
<g id="node24" class="node">
<title>Node24</title>
<g id="a_node24"><a xlink:href="../../d0/d94/classOmniboxViewViews.html#a5a64c1e16631c3301fb57307402784dc" target="_top" xlink:title=" ">
<polygon fill="white" stroke="black" points="830.5,-372.5 830.5,-402.5 971.5,-402.5 971.5,-372.5 830.5,-372.5"/>
<text text-anchor="start" x="838.5" y="-390.5" font-family="Helvetica,sans-Serif" font-size="10.00">OmniboxViewViews::Handle</text>
<text text-anchor="middle" x="901" y="-379.5" font-family="Helvetica,sans-Serif" font-size="10.00">KeyEvent</text>
</a>
</g>
</g>
<!-- Node23&#45;&gt;Node24 -->
<g id="edge25" class="edge">
<title>Node23&#45;&gt;Node24</title>
<path fill="none" stroke="midnightblue" d="M1207.13,-356.37C1140.47,-363.17 1038.91,-373.53 971.51,-380.41"/>
<polygon fill="midnightblue" stroke="midnightblue" points="1207.52,-359.85 1217.11,-355.35 1206.81,-352.89 1207.52,-359.85"/>
</g>
<!-- Node25 -->
<g id="node25" class="node">
<title>Node25</title>
<g id="a_node25"><a xlink:href="../../d1/db1/classOmniboxPopupModel.html#acf1ecd019bf8b90655bb4a6c3dd7f8b1" target="_top" xlink:title=" ">
<polygon fill="white" stroke="black" points="1031,-306.5 1031,-336.5 1147,-336.5 1147,-306.5 1031,-306.5"/>
<text text-anchor="start" x="1039" y="-324.5" font-family="Helvetica,sans-Serif" font-size="10.00">OmniboxPopupModel::</text>
<text text-anchor="middle" x="1089" y="-313.5" font-family="Helvetica,sans-Serif" font-size="10.00">TriggerSelectionAction</text>
</a>
</g>
</g>
<!-- Node23&#45;&gt;Node25 -->
<g id="edge26" class="edge">
<title>Node23&#45;&gt;Node25</title>
<path fill="none" stroke="midnightblue" d="M1207.25,-339.29C1187.54,-336.3 1166.18,-333.06 1147.16,-330.17"/>
<polygon fill="midnightblue" stroke="midnightblue" points="1206.97,-342.79 1217.39,-340.83 1208.02,-335.87 1206.97,-342.79"/>
</g>
<!-- Node25&#45;&gt;Node24 -->
<g id="edge33" class="edge">
<title>Node25&#45;&gt;Node24</title>
<path fill="none" stroke="midnightblue" d="M1035.82,-340.02C1006.98,-350.25 971.61,-362.8 944.47,-372.43"/>
<polygon fill="midnightblue" stroke="midnightblue" points="1037.07,-343.28 1045.33,-336.64 1034.73,-336.69 1037.07,-343.28"/>
</g>
<!-- Node26 -->
<g id="node26" class="node">
<title>Node26</title>
<g id="a_node26"><a xlink:href="../../d3/d4c/classOmniboxResultView.html#a7bd0ac4077f48f8cc13698e19ed36eb6" target="_top" xlink:title=" ">
<polygon fill="white" stroke="black" points="628.5,-333.5 628.5,-363.5 740.5,-363.5 740.5,-333.5 628.5,-333.5"/>
<text text-anchor="start" x="636.5" y="-351.5" font-family="Helvetica,sans-Serif" font-size="10.00">OmniboxResultView::</text>
<text text-anchor="middle" x="684.5" y="-340.5" font-family="Helvetica,sans-Serif" font-size="10.00">ButtonPressed</text>
</a>
</g>
</g>
<!-- Node25&#45;&gt;Node26 -->
<g id="edge27" class="edge">
<title>Node25&#45;&gt;Node26</title>
<path fill="none" stroke="midnightblue" d="M1020.48,-326.03C941.85,-331.3 813.48,-339.91 740.61,-344.8"/>
<polygon fill="midnightblue" stroke="midnightblue" points="1021.02,-329.5 1030.76,-325.34 1020.55,-322.52 1021.02,-329.5"/>
</g>
<!-- Node28 -->
<g id="node28" class="node">
<title>Node28</title>
<g id="a_node28"><a xlink:href="../../d3/d0a/classOmniboxSuggestionButtonRowView.html#a35216a3671475e4ee13507b0465d5eb8" target="_top" xlink:title=" ">
<polygon fill="white" stroke="black" points="824.5,-284.5 824.5,-314.5 977.5,-314.5 977.5,-284.5 824.5,-284.5"/>
<text text-anchor="start" x="832.5" y="-302.5" font-family="Helvetica,sans-Serif" font-size="10.00">OmniboxSuggestionButtonRow</text>
<text text-anchor="middle" x="901" y="-291.5" font-family="Helvetica,sans-Serif" font-size="10.00">View::ButtonPressed</text>
</a>
</g>
</g>
<!-- Node25&#45;&gt;Node28 -->
<g id="edge30" class="edge">
<title>Node25&#45;&gt;Node28</title>
<path fill="none" stroke="midnightblue" d="M1020.92,-313.57C1006.93,-311.91 992.09,-310.16 977.82,-308.47"/>
<polygon fill="midnightblue" stroke="midnightblue" points="1020.59,-317.05 1030.93,-314.75 1021.41,-310.1 1020.59,-317.05"/>
</g>
<!-- Node30 -->
<g id="node30" class="node">
<title>Node30</title>
<g id="a_node30"><a xlink:href="../../d2/dcb/classOmniboxRowView_1_1HeaderView.html#a441ded0bc83346ff1773063183d470f2" target="_top" xlink:title=" ">
<polygon fill="white" stroke="black" points="822.5,-235.5 822.5,-265.5 979.5,-265.5 979.5,-235.5 822.5,-235.5"/>
<text text-anchor="start" x="830.5" y="-253.5" font-family="Helvetica,sans-Serif" font-size="10.00">OmniboxRowView::HeaderView</text>
<text text-anchor="middle" x="901" y="-242.5" font-family="Helvetica,sans-Serif" font-size="10.00">::HeaderToggleButtonPressed</text>
</a>
</g>
</g>
<!-- Node25&#45;&gt;Node30 -->
<g id="edge34" class="edge">
<title>Node25&#45;&gt;Node30</title>
<path fill="none" stroke="midnightblue" d="M1046.67,-302.22C1026.73,-293.25 1002.35,-282.77 980,-274.5 971.63,-271.4 962.65,-268.37 953.88,-265.57"/>
<polygon fill="midnightblue" stroke="midnightblue" points="1045.22,-305.41 1055.78,-306.35 1048.11,-299.03 1045.22,-305.41"/>
</g>
<!-- Node33 -->
<g id="node33" class="node">
<title>Node33</title>
<g id="a_node33"><a xlink:href="../../d2/dcb/classOmniboxRowView_1_1HeaderView.html#af9e1207af3e2688cdccfd7b8c1267a3c" target="_top" xlink:title=" ">
<polygon fill="white" stroke="black" points="822.5,-186.5 822.5,-216.5 979.5,-216.5 979.5,-186.5 822.5,-186.5"/>
<text text-anchor="start" x="830.5" y="-204.5" font-family="Helvetica,sans-Serif" font-size="10.00">OmniboxRowView::HeaderView</text>
<text text-anchor="middle" x="901" y="-193.5" font-family="Helvetica,sans-Serif" font-size="10.00">::OnMouseReleased</text>
</a>
</g>
</g>
<!-- Node25&#45;&gt;Node33 -->
<g id="edge38" class="edge">
<title>Node25&#45;&gt;Node33</title>
<path fill="none" stroke="midnightblue" d="M1068.03,-298.83C1047.81,-277.17 1014.66,-245 980,-225.5 973.95,-222.1 967.36,-219.11 960.65,-216.52"/>
<polygon fill="midnightblue" stroke="midnightblue" points="1065.53,-301.29 1074.87,-306.29 1070.69,-296.56 1065.53,-301.29"/>
</g>
<!-- Node27 -->
<g id="node27" class="node">
<title>Node27</title>
<g id="a_node27"><a xlink:href="../../d3/d4c/classOmniboxResultView.html#a632535684d6941455e8979815a978a44" target="_top" xlink:title=" ">
<polygon fill="white" stroke="black" points="410.5,-308.5 410.5,-338.5 522.5,-338.5 522.5,-308.5 410.5,-308.5"/>
<text text-anchor="start" x="418.5" y="-326.5" font-family="Helvetica,sans-Serif" font-size="10.00">OmniboxResultView::</text>
<text text-anchor="middle" x="466.5" y="-315.5" font-family="Helvetica,sans-Serif" font-size="10.00">OmniboxResultView</text>
</a>
</g>
</g>
<!-- Node26&#45;&gt;Node27 -->
<g id="edge28" class="edge">
<title>Node26&#45;&gt;Node27</title>
<path fill="none" stroke="midnightblue" d="M618.33,-340.96C587.86,-337.43 551.97,-333.28 522.84,-329.91"/>
<polygon fill="midnightblue" stroke="midnightblue" points="618.1,-344.45 628.44,-342.13 618.9,-337.5 618.1,-344.45"/>
</g>
<!-- Node27&#45;&gt;Node6 -->
<g id="edge29" class="edge">
<title>Node27&#45;&gt;Node6</title>
<path fill="none" stroke="midnightblue" d="M400.17,-323.5C380.33,-323.5 358.44,-323.5 338.21,-323.5"/>
<polygon fill="midnightblue" stroke="midnightblue" points="400.33,-327 410.33,-323.5 400.33,-320 400.33,-327"/>
</g>
<!-- Node29 -->
<g id="node29" class="node">
<title>Node29</title>
<g id="a_node29"><a xlink:href="../../d3/d0a/classOmniboxSuggestionButtonRowView.html#a7272410c3b801796d1c9cbeb37f9b3e7" target="_top" xlink:title=" ">
<polygon fill="white" stroke="black" points="583,-284.5 583,-314.5 786,-314.5 786,-284.5 583,-284.5"/>
<text text-anchor="start" x="591" y="-302.5" font-family="Helvetica,sans-Serif" font-size="10.00">OmniboxSuggestionButtonRow</text>
<text text-anchor="middle" x="684.5" y="-291.5" font-family="Helvetica,sans-Serif" font-size="10.00">View::OmniboxSuggestionButtonRowView</text>
</a>
</g>
</g>
<!-- Node28&#45;&gt;Node29 -->
<g id="edge31" class="edge">
<title>Node28&#45;&gt;Node29</title>
<path fill="none" stroke="midnightblue" d="M814.16,-299.5C805.02,-299.5 795.66,-299.5 786.37,-299.5"/>
<polygon fill="midnightblue" stroke="midnightblue" points="814.38,-303 824.38,-299.5 814.38,-296 814.38,-303"/>
</g>
<!-- Node29&#45;&gt;Node27 -->
<g id="edge32" class="edge">
<title>Node29&#45;&gt;Node27</title>
<path fill="none" stroke="midnightblue" d="M572.58,-311.82C555.27,-313.75 538.05,-315.66 522.72,-317.36"/>
<polygon fill="midnightblue" stroke="midnightblue" points="573.22,-315.27 582.77,-310.69 572.45,-308.32 573.22,-315.27"/>
</g>
<!-- Node31 -->
<g id="node31" class="node">
<title>Node31</title>
<g id="a_node31"><a xlink:href="../../d2/dcb/classOmniboxRowView_1_1HeaderView.html#ad1abf8339bf99de0b39a9bb43111ba93" target="_top" xlink:title=" ">
<polygon fill="white" stroke="black" points="606,-235.5 606,-265.5 763,-265.5 763,-235.5 606,-235.5"/>
<text text-anchor="start" x="614" y="-253.5" font-family="Helvetica,sans-Serif" font-size="10.00">OmniboxRowView::HeaderView</text>
<text text-anchor="middle" x="684.5" y="-242.5" font-family="Helvetica,sans-Serif" font-size="10.00">::HeaderView</text>
</a>
</g>
</g>
<!-- Node30&#45;&gt;Node31 -->
<g id="edge35" class="edge">
<title>Node30&#45;&gt;Node31</title>
<path fill="none" stroke="midnightblue" d="M811.8,-250.5C795.73,-250.5 779.08,-250.5 763.34,-250.5"/>
<polygon fill="midnightblue" stroke="midnightblue" points="812.26,-254 822.26,-250.5 812.26,-247 812.26,-254"/>
</g>
<!-- Node32 -->
<g id="node32" class="node">
<title>Node32</title>
<g id="a_node32"><a xlink:href="../../da/da2/classOmniboxRowView.html#a6add650851301372ee9b8a6671cfa28c" target="_top" xlink:title=" ">
<polygon fill="white" stroke="black" points="386.5,-255 386.5,-274 546.5,-274 546.5,-255 386.5,-255"/>
<text text-anchor="middle" x="466.5" y="-262" font-family="Helvetica,sans-Serif" font-size="10.00">OmniboxRowView::ShowHeader</text>
</a>
</g>
</g>
<!-- Node31&#45;&gt;Node32 -->
<g id="edge36" class="edge">
<title>Node31&#45;&gt;Node32</title>
<path fill="none" stroke="midnightblue" d="M595.8,-256.18C579.54,-257.24 562.65,-258.33 546.67,-259.37"/>
<polygon fill="midnightblue" stroke="midnightblue" points="596.07,-259.67 605.82,-255.53 595.62,-252.69 596.07,-259.67"/>
</g>
<!-- Node32&#45;&gt;Node6 -->
<g id="edge37" class="edge">
<title>Node32&#45;&gt;Node6</title>
<path fill="none" stroke="midnightblue" d="M423.44,-276.97C392.42,-286.17 350.08,-298.72 317.19,-308.47"/>
<polygon fill="midnightblue" stroke="midnightblue" points="424.49,-280.31 433.08,-274.11 422.5,-273.6 424.49,-280.31"/>
</g>
<!-- Node34&#45;&gt;Node35 -->
<g id="edge40" class="edge">
<title>Node34&#45;&gt;Node35</title>
<path fill="none" stroke="midnightblue" d="M1391.07,-284.05C1372.68,-279.62 1352.95,-274.88 1335.14,-270.6"/>
<polygon fill="midnightblue" stroke="midnightblue" points="1390.3,-287.46 1400.84,-286.4 1391.94,-280.66 1390.3,-287.46"/>
</g>
<!-- Node36 -->
<g id="node36" class="node">
<title>Node36</title>
<g id="a_node36"><a xlink:href="../../d0/d22/classOmniboxEditModel.html#a47216ae17e9b4c06e3a827008d04a744" target="_top" xlink:title=" ">
<polygon fill="white" stroke="black" points="1016,-88.5 1016,-118.5 1162,-118.5 1162,-88.5 1016,-88.5"/>
<text text-anchor="start" x="1024" y="-106.5" font-family="Helvetica,sans-Serif" font-size="10.00">OmniboxEditModel::StartZero</text>
<text text-anchor="middle" x="1089" y="-95.5" font-family="Helvetica,sans-Serif" font-size="10.00">SuggestRequest</text>
</a>
</g>
</g>
<!-- Node35&#45;&gt;Node36 -->
<g id="edge41" class="edge">
<title>Node35&#45;&gt;Node36</title>
<path fill="none" stroke="midnightblue" d="M1248.08,-234.59C1210.12,-203.12 1141.11,-145.89 1108.29,-118.67"/>
<polygon fill="midnightblue" stroke="midnightblue" points="1246.2,-237.58 1256.13,-241.27 1250.67,-232.19 1246.2,-237.58"/>
</g>
<!-- Node37 -->
<g id="node37" class="node">
<title>Node37</title>
<g id="a_node37"><a xlink:href="../../d0/d94/classOmniboxViewViews.html#a16e7321918d0a4985e618a5249a32881" target="_top" xlink:title=" ">
<polygon fill="white" stroke="black" points="822,-137.5 822,-167.5 980,-167.5 980,-137.5 822,-137.5"/>
<text text-anchor="start" x="830" y="-155.5" font-family="Helvetica,sans-Serif" font-size="10.00">OmniboxViewViews::OnGesture</text>
<text text-anchor="middle" x="901" y="-144.5" font-family="Helvetica,sans-Serif" font-size="10.00">Event</text>
</a>
</g>
</g>
<!-- Node36&#45;&gt;Node37 -->
<g id="edge42" class="edge">
<title>Node36&#45;&gt;Node37</title>
<path fill="none" stroke="midnightblue" d="M1021.1,-121.12C1000.76,-126.48 978.59,-132.32 958.96,-137.49"/>
<polygon fill="midnightblue" stroke="midnightblue" points="1022.15,-124.47 1030.93,-118.53 1020.37,-117.7 1022.15,-124.47"/>
</g>
<!-- Node38 -->
<g id="node38" class="node">
<title>Node38</title>
<g id="a_node38"><a xlink:href="../../d0/d94/classOmniboxViewViews.html#a9fc21bac19f3a666e10eabc84b72c745" target="_top" xlink:title=" ">
<polygon fill="white" stroke="black" points="825,-88.5 825,-118.5 977,-118.5 977,-88.5 825,-88.5"/>
<text text-anchor="start" x="833" y="-106.5" font-family="Helvetica,sans-Serif" font-size="10.00">OmniboxViewViews::OnMouse</text>
<text text-anchor="middle" x="901" y="-95.5" font-family="Helvetica,sans-Serif" font-size="10.00">Pressed</text>
</a>
</g>
</g>
<!-- Node36&#45;&gt;Node38 -->
<g id="edge43" class="edge">
<title>Node36&#45;&gt;Node38</title>
<path fill="none" stroke="midnightblue" d="M1005.63,-103.5C996.18,-103.5 986.57,-103.5 977.21,-103.5"/>
<polygon fill="midnightblue" stroke="midnightblue" points="1005.82,-107 1015.82,-103.5 1005.82,-100 1005.82,-107"/>
</g>
<!-- Node39 -->
<g id="node39" class="node">
<title>Node39</title>
<g id="a_node39"><a xlink:href="../../d0/d94/classOmniboxViewViews.html#ae9d72f709ba57cd59d22d6fbef32dd1c" target="_top" xlink:title=" ">
<polygon fill="white" stroke="black" points="825,-50 825,-69 977,-69 977,-50 825,-50"/>
<text text-anchor="middle" x="901" y="-57" font-family="Helvetica,sans-Serif" font-size="10.00">OmniboxViewViews::SetFocus</text>
</a>
</g>
</g>
<!-- Node36&#45;&gt;Node39 -->
<g id="edge44" class="edge">
<title>Node36&#45;&gt;Node39</title>
<path fill="none" stroke="midnightblue" d="M1014.46,-86.1C989.84,-80.28 963.31,-74 942.21,-69.01"/>
<polygon fill="midnightblue" stroke="midnightblue" points="1013.97,-89.58 1024.51,-88.48 1015.58,-82.77 1013.97,-89.58"/>
</g>
<!-- Node40 -->
<g id="node40" class="node">
<title>Node40</title>
<g id="a_node40"><a xlink:href="../../d0/d22/classOmniboxEditModel.html#a8fd45b4cc033ef4a4c36d313a279ee33" target="_top" xlink:title=" ">
<polygon fill="white" stroke="black" points="832.5,-0.5 832.5,-30.5 969.5,-30.5 969.5,-0.5 832.5,-0.5"/>
<text text-anchor="start" x="840.5" y="-18.5" font-family="Helvetica,sans-Serif" font-size="10.00">OmniboxEditModel::Update</text>
<text text-anchor="middle" x="901" y="-7.5" font-family="Helvetica,sans-Serif" font-size="10.00">Input</text>
</a>
</g>
</g>
<!-- Node36&#45;&gt;Node40 -->
<g id="edge45" class="edge">
<title>Node36&#45;&gt;Node40</title>
<path fill="none" stroke="midnightblue" d="M1057.06,-83.02C1035.97,-69.67 1007.07,-52.56 980,-40.5 971.95,-36.91 963.22,-33.6 954.62,-30.63"/>
<polygon fill="midnightblue" stroke="midnightblue" points="1055.29,-86.03 1065.6,-88.48 1059.06,-80.14 1055.29,-86.03"/>
</g>
<!-- Node41 -->
<g id="node41" class="node">
<title>Node41</title>
<g id="a_node41"><a xlink:href="../../d0/d94/classOmniboxViewViews.html#aa74a64e459c128dff566e7392751a67f" target="_top" xlink:title=" ">
<polygon fill="white" stroke="black" points="613.5,-0.5 613.5,-30.5 755.5,-30.5 755.5,-0.5 613.5,-0.5"/>
<text text-anchor="start" x="621.5" y="-18.5" font-family="Helvetica,sans-Serif" font-size="10.00">OmniboxViewViews::Update</text>
<text text-anchor="middle" x="684.5" y="-7.5" font-family="Helvetica,sans-Serif" font-size="10.00">Popup</text>
</a>
</g>
</g>
<!-- Node40&#45;&gt;Node41 -->
<g id="edge46" class="edge">
<title>Node40&#45;&gt;Node41</title>
<path fill="none" stroke="midnightblue" d="M822.24,-15.5C800.49,-15.5 776.98,-15.5 755.69,-15.5"/>
<polygon fill="midnightblue" stroke="midnightblue" points="822.43,-19 832.43,-15.5 822.43,-12 822.43,-19"/>
</g>
<!-- Node42 -->
<g id="node42" class="node">
<title>Node42</title>
<g id="a_node42"><a xlink:href="../../d0/d94/classOmniboxViewViews.html#a2b71803c688c8d3db0ddfe1a6c561208" target="_top" xlink:title=" ">
<polygon fill="white" stroke="black" points="386,-0.5 386,-30.5 547,-30.5 547,-0.5 386,-0.5"/>
<text text-anchor="start" x="394" y="-18.5" font-family="Helvetica,sans-Serif" font-size="10.00">OmniboxViewViews::SetWindow</text>
<text text-anchor="middle" x="466.5" y="-7.5" font-family="Helvetica,sans-Serif" font-size="10.00">TextAndCaretPos</text>
</a>
</g>
</g>
<!-- Node41&#45;&gt;Node42 -->
<g id="edge47" class="edge">
<title>Node41&#45;&gt;Node42</title>
<path fill="none" stroke="midnightblue" d="M603.29,-15.5C584.91,-15.5 565.37,-15.5 547.02,-15.5"/>
<polygon fill="midnightblue" stroke="midnightblue" points="603.37,-19 613.37,-15.5 603.37,-12 603.37,-19"/>
</g>
<!-- Node43 -->
<g id="node43" class="node">
<title>Node43</title>
<g id="a_node43"><a xlink:href="../../d0/d94/classOmniboxViewViews.html#acce156344df7256bce712db64896eaf6" target="_top" xlink:title=" ">
<polygon fill="white" stroke="black" points="181,-0.5 181,-30.5 350,-30.5 350,-0.5 181,-0.5"/>
<text text-anchor="start" x="189" y="-18.5" font-family="Helvetica,sans-Serif" font-size="10.00">OmniboxViewViews::OnTemporary</text>
<text text-anchor="middle" x="265.5" y="-7.5" font-family="Helvetica,sans-Serif" font-size="10.00">TextMaybeChanged</text>
</a>
</g>
</g>
<!-- Node42&#45;&gt;Node43 -->
<g id="edge48" class="edge">
<title>Node42&#45;&gt;Node43</title>
<path fill="none" stroke="midnightblue" d="M375.96,-15.5C367.36,-15.5 358.66,-15.5 350.12,-15.5"/>
<polygon fill="midnightblue" stroke="midnightblue" points="375.99,-19 385.99,-15.5 375.99,-12 375.99,-19"/>
</g>
<!-- Node44&#45;&gt;Node22 -->
<g id="edge50" class="edge">
<title>Node44&#45;&gt;Node22</title>
<path fill="none" stroke="midnightblue" d="M1577.15,-349.5C1558.45,-349.5 1538.38,-349.5 1520.29,-349.5"/>
<polygon fill="midnightblue" stroke="midnightblue" points="1577.37,-353 1587.37,-349.5 1577.37,-346 1577.37,-353"/>
</g>
<!-- Node46 -->
<g id="node46" class="node">
<title>Node46</title>
<g id="a_node46"><a xlink:href="../../dc/dfa/classDocumentProvider.html#a8b72b3391cd4d228b531f63938023a08" target="_top" xlink:title=" ">
<polygon fill="white" stroke="black" points="2210,-363 2210,-382 2335,-382 2335,-363 2210,-363"/>
<text text-anchor="middle" x="2272.5" y="-370" font-family="Helvetica,sans-Serif" font-size="10.00">DocumentProvider::Start</text>
</a>
</g>
</g>
<!-- Node45&#45;&gt;Node46 -->
<g id="edge53" class="edge">
<title>Node45&#45;&gt;Node46</title>
<path fill="none" stroke="midnightblue" d="M2394.37,-385.25C2374.5,-383.16 2353.79,-380.97 2335.25,-379.02"/>
<polygon fill="midnightblue" stroke="midnightblue" points="2394.05,-388.74 2404.36,-386.31 2394.78,-381.78 2394.05,-388.74"/>
</g>
</g>
</svg>
