<?xml version="1.0" encoding="UTF-8" standalone="no"?>
<!DOCTYPE svg PUBLIC "-//W3C//DTD SVG 1.1//EN"
 "http://www.w3.org/Graphics/SVG/1.1/DTD/svg11.dtd">
<!-- Generated by graphviz version 2.43.0 (0)
 -->
<!-- Title: OmniboxFieldTrial::IsRichAutocompletionEnabled Pages: 1 -->
<svg width="1318pt" height="323pt"
 viewBox="0.00 0.00 1318.00 323.00" xmlns="http://www.w3.org/2000/svg" xmlns:xlink="http://www.w3.org/1999/xlink">
<g id="graph0" class="graph" transform="scale(1 1) rotate(0) translate(4 319)">
<title>OmniboxFieldTrial::IsRichAutocompletionEnabled</title>
<polygon fill="white" stroke="transparent" points="-4,4 -4,-319 1314,-319 1314,4 -4,4"/>
<!-- Node1 -->
<g id="node1" class="node">
<title>Node1</title>
<g id="a_node1"><a xlink:title=" ">
<polygon fill="#bfbfbf" stroke="black" points="1162,-192.5 1162,-222.5 1310,-222.5 1310,-192.5 1162,-192.5"/>
<text text-anchor="start" x="1170" y="-210.5" font-family="Helvetica,sans-Serif" font-size="10.00">OmniboxFieldTrial::</text>
<text text-anchor="middle" x="1236" y="-199.5" font-family="Helvetica,sans-Serif" font-size="10.00">IsRichAutocompletionEnabled</text>
</a>
</g>
</g>
<!-- Node2 -->
<g id="node2" class="node">
<title>Node2</title>
<g id="a_node2"><a xlink:href="../../d1/d73/namespaceOmniboxFieldTrial.html#a42cf75375416d270ce99cb59b7900e80" target="_top" xlink:title=" ">
<polygon fill="white" stroke="black" points="957.5,-270 957.5,-311 1103.5,-311 1103.5,-270 957.5,-270"/>
<text text-anchor="start" x="965.5" y="-299" font-family="Helvetica,sans-Serif" font-size="10.00">OmniboxFieldTrial::</text>
<text text-anchor="start" x="965.5" y="-288" font-family="Helvetica,sans-Serif" font-size="10.00">IsShortBookmarkSuggestions</text>
<text text-anchor="middle" x="1030.5" y="-277" font-family="Helvetica,sans-Serif" font-size="10.00">ByTotalInputLengthEnabled</text>
</a>
</g>
</g>
<!-- Node1&#45;&gt;Node2 -->
<g id="edge1" class="edge">
<title>Node1&#45;&gt;Node2</title>
<path fill="none" stroke="midnightblue" d="M1197.71,-227.3C1176.93,-237.91 1150.4,-250.75 1126,-260.5 1117.77,-263.79 1109.02,-266.97 1100.31,-269.95"/>
<polygon fill="midnightblue" stroke="midnightblue" points="1199.54,-230.3 1206.82,-222.6 1196.33,-224.07 1199.54,-230.3"/>
</g>
<!-- Node7 -->
<g id="node7" class="node">
<title>Node7</title>
<g id="a_node7"><a xlink:href="../../d1/d73/namespaceOmniboxFieldTrial.html#ac6c09d9e3bdfaf1da7fcb306f95b770c" target="_top" xlink:title=" ">
<polygon fill="white" stroke="black" points="935,-220.5 935,-250.5 1126,-250.5 1126,-220.5 935,-220.5"/>
<text text-anchor="start" x="943" y="-238.5" font-family="Helvetica,sans-Serif" font-size="10.00">OmniboxFieldTrial::</text>
<text text-anchor="middle" x="1030.5" y="-227.5" font-family="Helvetica,sans-Serif" font-size="10.00">RichAutocompletionShowAdditionalText</text>
</a>
</g>
</g>
<!-- Node1&#45;&gt;Node7 -->
<g id="edge6" class="edge">
<title>Node1&#45;&gt;Node7</title>
<path fill="none" stroke="midnightblue" d="M1151.9,-218.93C1143.37,-220.11 1134.65,-221.31 1126,-222.5"/>
<polygon fill="midnightblue" stroke="midnightblue" points="1152.39,-222.4 1161.82,-217.57 1151.44,-215.46 1152.39,-222.4"/>
</g>
<!-- Node8 -->
<g id="node8" class="node">
<title>Node8</title>
<g id="a_node8"><a xlink:href="../../d1/d73/namespaceOmniboxFieldTrial.html#a357ca058987196f903c91b7b45b03121" target="_top" xlink:title=" ">
<polygon fill="white" stroke="black" points="955.5,-160 955.5,-201 1105.5,-201 1105.5,-160 955.5,-160"/>
<text text-anchor="start" x="963.5" y="-189" font-family="Helvetica,sans-Serif" font-size="10.00">OmniboxFieldTrial::</text>
<text text-anchor="start" x="963.5" y="-178" font-family="Helvetica,sans-Serif" font-size="10.00">ShortBookmarkSuggestionsBy</text>
<text text-anchor="middle" x="1030.5" y="-167" font-family="Helvetica,sans-Serif" font-size="10.00">TotalInputLengthThreshold</text>
</a>
</g>
</g>
<!-- Node1&#45;&gt;Node8 -->
<g id="edge7" class="edge">
<title>Node1&#45;&gt;Node8</title>
<path fill="none" stroke="midnightblue" d="M1151.88,-196.47C1136.6,-194.44 1120.74,-192.34 1105.74,-190.35"/>
<polygon fill="midnightblue" stroke="midnightblue" points="1151.45,-199.94 1161.82,-197.79 1152.37,-193.01 1151.45,-199.94"/>
</g>
<!-- Node9 -->
<g id="node9" class="node">
<title>Node9</title>
<g id="a_node9"><a xlink:href="../../dc/d8f/structAutocompleteMatch.html#a7d32cb29accb8f2e566b696401fdd3dc" target="_top" xlink:title=" ">
<polygon fill="white" stroke="black" points="971,-106.5 971,-136.5 1090,-136.5 1090,-106.5 971,-106.5"/>
<text text-anchor="start" x="979" y="-124.5" font-family="Helvetica,sans-Serif" font-size="10.00">AutocompleteMatch::</text>
<text text-anchor="middle" x="1030.5" y="-113.5" font-family="Helvetica,sans-Serif" font-size="10.00">TryRichAutocompletion</text>
</a>
</g>
</g>
<!-- Node1&#45;&gt;Node9 -->
<g id="edge9" class="edge">
<title>Node1&#45;&gt;Node9</title>
<path fill="none" stroke="midnightblue" d="M1200.34,-187.28C1179.3,-175.54 1151.64,-161.03 1126,-150.5 1113.46,-145.35 1099.66,-140.61 1086.57,-136.53"/>
<polygon fill="midnightblue" stroke="midnightblue" points="1198.79,-190.42 1209.22,-192.29 1202.23,-184.33 1198.79,-190.42"/>
</g>
<!-- Node3 -->
<g id="node3" class="node">
<title>Node3</title>
<g id="a_node3"><a xlink:href="../../d9/d85/classBookmarkProvider.html#a0ac359be3525ad541f79d2ffab7fc3c2" target="_top" xlink:title=" ">
<polygon fill="white" stroke="black" points="733,-275.5 733,-305.5 891,-305.5 891,-275.5 733,-275.5"/>
<text text-anchor="start" x="741" y="-293.5" font-family="Helvetica,sans-Serif" font-size="10.00">BookmarkProvider::GetMatching</text>
<text text-anchor="middle" x="812" y="-282.5" font-family="Helvetica,sans-Serif" font-size="10.00">Algorithm</text>
</a>
</g>
</g>
<!-- Node2&#45;&gt;Node3 -->
<g id="edge2" class="edge">
<title>Node2&#45;&gt;Node3</title>
<path fill="none" stroke="midnightblue" d="M947.29,-290.5C928.86,-290.5 909.36,-290.5 891.1,-290.5"/>
<polygon fill="midnightblue" stroke="midnightblue" points="947.41,-294 957.41,-290.5 947.41,-287 947.41,-294"/>
</g>
<!-- Node4 -->
<g id="node4" class="node">
<title>Node4</title>
<g id="a_node4"><a xlink:href="../../d9/d85/classBookmarkProvider.html#a440fbdb417d7f68f940828253938df30" target="_top" xlink:title=" ">
<polygon fill="white" stroke="black" points="533,-284.5 533,-314.5 689,-314.5 689,-284.5 533,-284.5"/>
<text text-anchor="start" x="541" y="-302.5" font-family="Helvetica,sans-Serif" font-size="10.00">BookmarkProvider::GetMatches</text>
<text text-anchor="middle" x="611" y="-291.5" font-family="Helvetica,sans-Serif" font-size="10.00">WithBookmarkPaths</text>
</a>
</g>
</g>
<!-- Node3&#45;&gt;Node4 -->
<g id="edge3" class="edge">
<title>Node3&#45;&gt;Node4</title>
<path fill="none" stroke="midnightblue" d="M722.73,-294.49C711.55,-295 700.19,-295.51 689.2,-296.01"/>
<polygon fill="midnightblue" stroke="midnightblue" points="723.09,-297.98 732.92,-294.03 722.77,-290.99 723.09,-297.98"/>
</g>
<!-- Node5 -->
<g id="node5" class="node">
<title>Node5</title>
<g id="a_node5"><a xlink:href="../../d9/d85/classBookmarkProvider.html#afadaef69eb46311e736113fcfb9fb940" target="_top" xlink:title=" ">
<polygon fill="white" stroke="black" points="321,-265 321,-284 497,-284 497,-265 321,-265"/>
<text text-anchor="middle" x="409" y="-272" font-family="Helvetica,sans-Serif" font-size="10.00">BookmarkProvider::DoAutocomplete</text>
</a>
</g>
</g>
<!-- Node4&#45;&gt;Node5 -->
<g id="edge4" class="edge">
<title>Node4&#45;&gt;Node5</title>
<path fill="none" stroke="midnightblue" d="M522.76,-288.59C510.52,-287.06 498.02,-285.5 486.01,-284"/>
<polygon fill="midnightblue" stroke="midnightblue" points="522.6,-292.1 532.96,-289.87 523.47,-285.16 522.6,-292.1"/>
</g>
<!-- Node6 -->
<g id="node6" class="node">
<title>Node6</title>
<g id="a_node6"><a xlink:href="../../d9/d85/classBookmarkProvider.html#a6b6511006b139be9855d11d197ef3b60" target="_top" xlink:title=" ">
<polygon fill="white" stroke="black" points="161,-265 161,-284 285,-284 285,-265 161,-265"/>
<text text-anchor="middle" x="223" y="-272" font-family="Helvetica,sans-Serif" font-size="10.00">BookmarkProvider::Start</text>
</a>
</g>
</g>
<!-- Node5&#45;&gt;Node6 -->
<g id="edge5" class="edge">
<title>Node5&#45;&gt;Node6</title>
<path fill="none" stroke="midnightblue" d="M310.65,-274.5C301.98,-274.5 293.36,-274.5 285.12,-274.5"/>
<polygon fill="midnightblue" stroke="midnightblue" points="310.85,-278 320.85,-274.5 310.85,-271 310.85,-278"/>
</g>
<!-- Node8&#45;&gt;Node3 -->
<g id="edge8" class="edge">
<title>Node8&#45;&gt;Node3</title>
<path fill="none" stroke="midnightblue" d="M948.21,-205C943.67,-207.03 939.23,-209.2 935,-211.5 916.95,-221.31 915.93,-228.86 899,-240.5 880.5,-253.22 858.61,-265.92 841.55,-275.33"/>
<polygon fill="midnightblue" stroke="midnightblue" points="949.8,-208.12 957.65,-201 947.07,-201.68 949.8,-208.12"/>
</g>
<!-- Node10 -->
<g id="node10" class="node">
<title>Node10</title>
<g id="a_node10"><a xlink:href="../../da/dad/classHistoryURLProvider.html#a7916812392de472afbe860622a910f8c" target="_top" xlink:title=" ">
<polygon fill="white" stroke="black" points="745.5,-147.5 745.5,-177.5 878.5,-177.5 878.5,-147.5 745.5,-147.5"/>
<text text-anchor="start" x="753.5" y="-165.5" font-family="Helvetica,sans-Serif" font-size="10.00">HistoryURLProvider</text>
<text text-anchor="middle" x="812" y="-154.5" font-family="Helvetica,sans-Serif" font-size="10.00">::HistoryMatchToACMatch</text>
</a>
</g>
</g>
<!-- Node9&#45;&gt;Node10 -->
<g id="edge10" class="edge">
<title>Node9&#45;&gt;Node10</title>
<path fill="none" stroke="midnightblue" d="M961,-134.47C934.62,-139.47 904.59,-145.16 878.5,-150.1"/>
<polygon fill="midnightblue" stroke="midnightblue" points="961.74,-137.89 970.91,-132.6 960.44,-131.02 961.74,-137.89"/>
</g>
<!-- Node15 -->
<g id="node15" class="node">
<title>Node15</title>
<g id="a_node15"><a xlink:href="../../dc/dfa/classDocumentProvider.html#af3f28f0db7d2555450a770571288099d" target="_top" xlink:title=" ">
<polygon fill="white" stroke="black" points="725,-98.5 725,-128.5 899,-128.5 899,-98.5 725,-98.5"/>
<text text-anchor="start" x="733" y="-116.5" font-family="Helvetica,sans-Serif" font-size="10.00">DocumentProvider::ParseDocument</text>
<text text-anchor="middle" x="812" y="-105.5" font-family="Helvetica,sans-Serif" font-size="10.00">SearchResults</text>
</a>
</g>
</g>
<!-- Node9&#45;&gt;Node15 -->
<g id="edge17" class="edge">
<title>Node9&#45;&gt;Node15</title>
<path fill="none" stroke="midnightblue" d="M960.88,-118.96C941.32,-118.24 919.76,-117.44 899.29,-116.69"/>
<polygon fill="midnightblue" stroke="midnightblue" points="960.79,-122.46 970.91,-119.34 961.05,-115.47 960.79,-122.46"/>
</g>
<!-- Node20 -->
<g id="node20" class="node">
<title>Node20</title>
<g id="a_node20"><a xlink:href="../../d4/dfb/classHistoryQuickProvider.html#a7b399ca42a8512a7187e26daa68c91b7" target="_top" xlink:title=" ">
<polygon fill="white" stroke="black" points="748.5,-49.5 748.5,-79.5 875.5,-79.5 875.5,-49.5 748.5,-49.5"/>
<text text-anchor="start" x="756.5" y="-67.5" font-family="Helvetica,sans-Serif" font-size="10.00">HistoryQuickProvider</text>
<text text-anchor="middle" x="812" y="-56.5" font-family="Helvetica,sans-Serif" font-size="10.00">::QuickMatchToACMatch</text>
</a>
</g>
</g>
<!-- Node9&#45;&gt;Node20 -->
<g id="edge22" class="edge">
<title>Node9&#45;&gt;Node20</title>
<path fill="none" stroke="midnightblue" d="M962.5,-103.86C932.9,-96.07 898.47,-87 870.11,-79.54"/>
<polygon fill="midnightblue" stroke="midnightblue" points="961.77,-107.29 972.33,-106.45 963.55,-100.52 961.77,-107.29"/>
</g>
<!-- Node23 -->
<g id="node23" class="node">
<title>Node23</title>
<g id="a_node23"><a xlink:href="../../d7/d54/classShortcutsProvider.html#af3f9f49d6b067473aad145aa91e463a5" target="_top" xlink:title=" ">
<polygon fill="white" stroke="black" points="759.5,-0.5 759.5,-30.5 864.5,-30.5 864.5,-0.5 759.5,-0.5"/>
<text text-anchor="start" x="767.5" y="-18.5" font-family="Helvetica,sans-Serif" font-size="10.00">ShortcutsProvider::</text>
<text text-anchor="middle" x="812" y="-7.5" font-family="Helvetica,sans-Serif" font-size="10.00">ShortcutToACMatch</text>
</a>
</g>
</g>
<!-- Node9&#45;&gt;Node23 -->
<g id="edge25" class="edge">
<title>Node9&#45;&gt;Node23</title>
<path fill="none" stroke="midnightblue" d="M1001.17,-100.31C975.6,-82.03 936.37,-56.04 899,-39.5 888.23,-34.73 876.27,-30.68 864.78,-27.34"/>
<polygon fill="midnightblue" stroke="midnightblue" points="999.14,-103.16 1009.3,-106.19 1003.25,-97.49 999.14,-103.16"/>
</g>
<!-- Node26 -->
<g id="node26" class="node">
<title>Node26</title>
<g id="a_node26"><a xlink:href="../../d9/d3f/namespacebookmarks.html#ae1033bf99cb69672ce0233663385e6c5" target="_top" xlink:title=" ">
<polygon fill="white" stroke="black" points="544,-235.5 544,-265.5 678,-265.5 678,-235.5 544,-235.5"/>
<text text-anchor="start" x="552" y="-253.5" font-family="Helvetica,sans-Serif" font-size="10.00">bookmarks::TitledUrlMatch</text>
<text text-anchor="middle" x="611" y="-242.5" font-family="Helvetica,sans-Serif" font-size="10.00">ToAutocompleteMatch</text>
</a>
</g>
</g>
<!-- Node9&#45;&gt;Node26 -->
<g id="edge28" class="edge">
<title>Node9&#45;&gt;Node26</title>
<path fill="none" stroke="midnightblue" d="M961.07,-137.97C951.98,-141.45 943.04,-145.59 935,-150.5 915.42,-162.46 919.05,-176.35 899,-187.5 829.79,-226 738.97,-240.97 678.21,-246.79"/>
<polygon fill="midnightblue" stroke="midnightblue" points="962.31,-141.25 970.56,-134.59 959.96,-134.65 962.31,-141.25"/>
</g>
<!-- Node11 -->
<g id="node11" class="node">
<title>Node11</title>
<g id="a_node11"><a xlink:href="../../da/dad/classHistoryURLProvider.html#ac09d95504d0957ea4c3608fc6a0d82c6" target="_top" xlink:title=" ">
<polygon fill="white" stroke="black" points="536,-147.5 536,-177.5 686,-177.5 686,-147.5 536,-147.5"/>
<text text-anchor="start" x="544" y="-165.5" font-family="Helvetica,sans-Serif" font-size="10.00">HistoryURLProvider</text>
<text text-anchor="middle" x="611" y="-154.5" font-family="Helvetica,sans-Serif" font-size="10.00">::PromoteMatchesIfNecessary</text>
</a>
</g>
</g>
<!-- Node10&#45;&gt;Node11 -->
<g id="edge11" class="edge">
<title>Node10&#45;&gt;Node11</title>
<path fill="none" stroke="midnightblue" d="M734.94,-162.5C718.97,-162.5 702.15,-162.5 686.25,-162.5"/>
<polygon fill="midnightblue" stroke="midnightblue" points="735.29,-166 745.29,-162.5 735.29,-159 735.29,-166"/>
</g>
<!-- Node12 -->
<g id="node12" class="node">
<title>Node12</title>
<g id="a_node12"><a xlink:href="../../da/dad/classHistoryURLProvider.html#ab297ab23ac3520f3f0be38417325e609" target="_top" xlink:title=" ">
<polygon fill="white" stroke="black" points="357,-191.5 357,-221.5 461,-221.5 461,-191.5 357,-191.5"/>
<text text-anchor="start" x="365" y="-209.5" font-family="Helvetica,sans-Serif" font-size="10.00">HistoryURLProvider</text>
<text text-anchor="middle" x="409" y="-198.5" font-family="Helvetica,sans-Serif" font-size="10.00">::QueryComplete</text>
</a>
</g>
</g>
<!-- Node10&#45;&gt;Node12 -->
<g id="edge16" class="edge">
<title>Node10&#45;&gt;Node12</title>
<path fill="none" stroke="midnightblue" d="M735.75,-179.56C720.35,-182.59 704.2,-185.43 689,-187.5 609.86,-198.25 517.23,-203.03 461.12,-205.07"/>
<polygon fill="midnightblue" stroke="midnightblue" points="736.63,-182.96 745.75,-177.55 735.25,-176.1 736.63,-182.96"/>
</g>
<!-- Node11&#45;&gt;Node12 -->
<g id="edge12" class="edge">
<title>Node11&#45;&gt;Node12</title>
<path fill="none" stroke="midnightblue" d="M531.71,-179.72C508.03,-184.93 482.65,-190.52 461.23,-195.23"/>
<polygon fill="midnightblue" stroke="midnightblue" points="532.72,-183.09 541.73,-177.52 531.21,-176.25 532.72,-183.09"/>
</g>
<!-- Node14 -->
<g id="node14" class="node">
<title>Node14</title>
<g id="a_node14"><a xlink:href="../../da/dad/classHistoryURLProvider.html#ad8668da3c2254ca7ac51f0d7b0fc4104" target="_top" xlink:title=" ">
<polygon fill="white" stroke="black" points="10.5,-169.5 10.5,-199.5 114.5,-199.5 114.5,-169.5 10.5,-169.5"/>
<text text-anchor="start" x="18.5" y="-187.5" font-family="Helvetica,sans-Serif" font-size="10.00">HistoryURLProvider</text>
<text text-anchor="middle" x="62.5" y="-176.5" font-family="Helvetica,sans-Serif" font-size="10.00">::Start</text>
</a>
</g>
</g>
<!-- Node11&#45;&gt;Node14 -->
<g id="edge15" class="edge">
<title>Node11&#45;&gt;Node14</title>
<path fill="none" stroke="midnightblue" d="M525.58,-165.9C410.8,-170.52 209.03,-178.64 114.75,-182.44"/>
<polygon fill="midnightblue" stroke="midnightblue" points="525.88,-169.39 535.73,-165.49 525.6,-162.4 525.88,-169.39"/>
</g>
<!-- Node13 -->
<g id="node13" class="node">
<title>Node13</title>
<g id="a_node13"><a xlink:href="../../da/dad/classHistoryURLProvider.html#afb38c4ac596ac8c3de848f4c35f53656" target="_top" xlink:title=" ">
<polygon fill="white" stroke="black" points="171,-191.5 171,-221.5 275,-221.5 275,-191.5 171,-191.5"/>
<text text-anchor="start" x="179" y="-209.5" font-family="Helvetica,sans-Serif" font-size="10.00">HistoryURLProvider</text>
<text text-anchor="middle" x="223" y="-198.5" font-family="Helvetica,sans-Serif" font-size="10.00">::ExecuteWithDB</text>
</a>
</g>
</g>
<!-- Node12&#45;&gt;Node13 -->
<g id="edge13" class="edge">
<title>Node12&#45;&gt;Node13</title>
<path fill="none" stroke="midnightblue" d="M346.68,-206.5C323.53,-206.5 297.44,-206.5 275.3,-206.5"/>
<polygon fill="midnightblue" stroke="midnightblue" points="346.75,-210 356.75,-206.5 346.75,-203 346.75,-210"/>
</g>
<!-- Node13&#45;&gt;Node14 -->
<g id="edge14" class="edge">
<title>Node13&#45;&gt;Node14</title>
<path fill="none" stroke="midnightblue" d="M160.64,-197.98C145.45,-195.88 129.34,-193.64 114.7,-191.61"/>
<polygon fill="midnightblue" stroke="midnightblue" points="160.59,-201.51 170.98,-199.42 161.55,-194.58 160.59,-201.51"/>
</g>
<!-- Node16 -->
<g id="node16" class="node">
<title>Node16</title>
<g id="a_node16"><a xlink:href="../../dc/dfa/classDocumentProvider.html#a01f932ec42e54a121bf93abe3d75c1d7" target="_top" xlink:title=" ">
<polygon fill="white" stroke="black" points="543.5,-98.5 543.5,-128.5 678.5,-128.5 678.5,-98.5 543.5,-98.5"/>
<text text-anchor="start" x="551.5" y="-116.5" font-family="Helvetica,sans-Serif" font-size="10.00">DocumentProvider::Update</text>
<text text-anchor="middle" x="611" y="-105.5" font-family="Helvetica,sans-Serif" font-size="10.00">Results</text>
</a>
</g>
</g>
<!-- Node15&#45;&gt;Node16 -->
<g id="edge18" class="edge">
<title>Node15&#45;&gt;Node16</title>
<path fill="none" stroke="midnightblue" d="M714.69,-113.5C702.54,-113.5 690.32,-113.5 678.76,-113.5"/>
<polygon fill="midnightblue" stroke="midnightblue" points="714.87,-117 724.87,-113.5 714.87,-110 714.87,-117"/>
</g>
<!-- Node17 -->
<g id="node17" class="node">
<title>Node17</title>
<g id="a_node17"><a xlink:href="../../dc/dfa/classDocumentProvider.html#a2bfea6fa03acad2d185a55cc86847624" target="_top" xlink:title=" ">
<polygon fill="white" stroke="black" points="330,-98.5 330,-128.5 488,-128.5 488,-98.5 330,-98.5"/>
<text text-anchor="start" x="338" y="-116.5" font-family="Helvetica,sans-Serif" font-size="10.00">DocumentProvider::OnURLLoad</text>
<text text-anchor="middle" x="409" y="-105.5" font-family="Helvetica,sans-Serif" font-size="10.00">Complete</text>
</a>
</g>
</g>
<!-- Node16&#45;&gt;Node17 -->
<g id="edge19" class="edge">
<title>Node16&#45;&gt;Node17</title>
<path fill="none" stroke="midnightblue" d="M533.28,-113.5C518.47,-113.5 502.94,-113.5 488.09,-113.5"/>
<polygon fill="midnightblue" stroke="midnightblue" points="533.4,-117 543.4,-113.5 533.4,-110 533.4,-117"/>
</g>
<!-- Node18 -->
<g id="node18" class="node">
<title>Node18</title>
<g id="a_node18"><a xlink:href="../../dc/dfa/classDocumentProvider.html#ab41060dd5676c221e9904cd0fc156149" target="_top" xlink:title=" ">
<polygon fill="white" stroke="black" points="162,-104 162,-123 284,-123 284,-104 162,-104"/>
<text text-anchor="middle" x="223" y="-111" font-family="Helvetica,sans-Serif" font-size="10.00">DocumentProvider::Run</text>
</a>
</g>
</g>
<!-- Node17&#45;&gt;Node18 -->
<g id="edge20" class="edge">
<title>Node17&#45;&gt;Node18</title>
<path fill="none" stroke="midnightblue" d="M319.82,-113.5C307.69,-113.5 295.47,-113.5 284.01,-113.5"/>
<polygon fill="midnightblue" stroke="midnightblue" points="319.97,-117 329.97,-113.5 319.97,-110 319.97,-117"/>
</g>
<!-- Node19 -->
<g id="node19" class="node">
<title>Node19</title>
<g id="a_node19"><a xlink:href="../../dc/dfa/classDocumentProvider.html#a8b72b3391cd4d228b531f63938023a08" target="_top" xlink:title=" ">
<polygon fill="white" stroke="black" points="0,-104 0,-123 125,-123 125,-104 0,-104"/>
<text text-anchor="middle" x="62.5" y="-111" font-family="Helvetica,sans-Serif" font-size="10.00">DocumentProvider::Start</text>
</a>
</g>
</g>
<!-- Node18&#45;&gt;Node19 -->
<g id="edge21" class="edge">
<title>Node18&#45;&gt;Node19</title>
<path fill="none" stroke="midnightblue" d="M151.39,-113.5C142.6,-113.5 133.66,-113.5 125.02,-113.5"/>
<polygon fill="midnightblue" stroke="midnightblue" points="151.63,-117 161.63,-113.5 151.63,-110 151.63,-117"/>
</g>
<!-- Node21 -->
<g id="node21" class="node">
<title>Node21</title>
<g id="a_node21"><a xlink:href="../../d4/dfb/classHistoryQuickProvider.html#a9c0b9a122cf1a2a0f952e1b70c0c4c0a" target="_top" xlink:title=" ">
<polygon fill="white" stroke="black" points="556,-49.5 556,-79.5 666,-79.5 666,-49.5 556,-49.5"/>
<text text-anchor="start" x="564" y="-67.5" font-family="Helvetica,sans-Serif" font-size="10.00">HistoryQuickProvider</text>
<text text-anchor="middle" x="611" y="-56.5" font-family="Helvetica,sans-Serif" font-size="10.00">::DoAutocomplete</text>
</a>
</g>
</g>
<!-- Node20&#45;&gt;Node21 -->
<g id="edge23" class="edge">
<title>Node20&#45;&gt;Node21</title>
<path fill="none" stroke="midnightblue" d="M738.27,-64.5C714.49,-64.5 688.51,-64.5 666.32,-64.5"/>
<polygon fill="midnightblue" stroke="midnightblue" points="738.31,-68 748.31,-64.5 738.31,-61 738.31,-68"/>
</g>
<!-- Node22 -->
<g id="node22" class="node">
<title>Node22</title>
<g id="a_node22"><a xlink:href="../../d4/dfb/classHistoryQuickProvider.html#aecd0ae2b2605021d4f74bb43d07d9b83" target="_top" xlink:title=" ">
<polygon fill="white" stroke="black" points="354,-49.5 354,-79.5 464,-79.5 464,-49.5 354,-49.5"/>
<text text-anchor="start" x="362" y="-67.5" font-family="Helvetica,sans-Serif" font-size="10.00">HistoryQuickProvider</text>
<text text-anchor="middle" x="409" y="-56.5" font-family="Helvetica,sans-Serif" font-size="10.00">::Start</text>
</a>
</g>
</g>
<!-- Node21&#45;&gt;Node22 -->
<g id="edge24" class="edge">
<title>Node21&#45;&gt;Node22</title>
<path fill="none" stroke="midnightblue" d="M545.63,-64.5C519.35,-64.5 489.3,-64.5 464.17,-64.5"/>
<polygon fill="midnightblue" stroke="midnightblue" points="545.88,-68 555.88,-64.5 545.88,-61 545.88,-68"/>
</g>
<!-- Node24 -->
<g id="node24" class="node">
<title>Node24</title>
<g id="a_node24"><a xlink:href="../../d7/d54/classShortcutsProvider.html#a41688b93a4f3250b9d703a7393f7a6d2" target="_top" xlink:title=" ">
<polygon fill="white" stroke="black" points="560.5,-0.5 560.5,-30.5 661.5,-30.5 661.5,-0.5 560.5,-0.5"/>
<text text-anchor="start" x="568.5" y="-18.5" font-family="Helvetica,sans-Serif" font-size="10.00">ShortcutsProvider::</text>
<text text-anchor="middle" x="611" y="-7.5" font-family="Helvetica,sans-Serif" font-size="10.00">GetMatches</text>
</a>
</g>
</g>
<!-- Node23&#45;&gt;Node24 -->
<g id="edge26" class="edge">
<title>Node23&#45;&gt;Node24</title>
<path fill="none" stroke="midnightblue" d="M749.34,-15.5C721.12,-15.5 688.14,-15.5 661.57,-15.5"/>
<polygon fill="midnightblue" stroke="midnightblue" points="749.49,-19 759.49,-15.5 749.49,-12 749.49,-19"/>
</g>
<!-- Node25 -->
<g id="node25" class="node">
<title>Node25</title>
<g id="a_node25"><a xlink:href="../../d7/d54/classShortcutsProvider.html#a35f84843c54123f37cfed2c878c90427" target="_top" xlink:title=" ">
<polygon fill="white" stroke="black" points="358.5,-0.5 358.5,-30.5 459.5,-30.5 459.5,-0.5 358.5,-0.5"/>
<text text-anchor="start" x="366.5" y="-18.5" font-family="Helvetica,sans-Serif" font-size="10.00">ShortcutsProvider::</text>
<text text-anchor="middle" x="409" y="-7.5" font-family="Helvetica,sans-Serif" font-size="10.00">Start</text>
</a>
</g>
</g>
<!-- Node24&#45;&gt;Node25 -->
<g id="edge27" class="edge">
<title>Node24&#45;&gt;Node25</title>
<path fill="none" stroke="midnightblue" d="M549.96,-15.5C521.18,-15.5 487.11,-15.5 459.79,-15.5"/>
<polygon fill="midnightblue" stroke="midnightblue" points="550.3,-19 560.3,-15.5 550.3,-12 550.3,-19"/>
</g>
<!-- Node26&#45;&gt;Node5 -->
<g id="edge29" class="edge">
<title>Node26&#45;&gt;Node5</title>
<path fill="none" stroke="midnightblue" d="M533.95,-259.63C519.31,-261.38 503.93,-263.23 489.19,-265"/>
<polygon fill="midnightblue" stroke="midnightblue" points="534.45,-263.09 543.96,-258.43 533.61,-256.14 534.45,-263.09"/>
</g>
</g>
</svg>
