<?xml version="1.0" encoding="UTF-8" standalone="no"?>
<!DOCTYPE svg PUBLIC "-//W3C//DTD SVG 1.1//EN"
 "http://www.w3.org/Graphics/SVG/1.1/DTD/svg11.dtd">
<!-- Generated by graphviz version 2.43.0 (0)
 -->
<!-- Title: ClipboardProvider::OnReceiveURLForMatchWithContent Pages: 1 -->
<svg width="1028pt" height="351pt"
 viewBox="0.00 0.00 1028.00 350.50" xmlns="http://www.w3.org/2000/svg" xmlns:xlink="http://www.w3.org/1999/xlink">
<g id="graph0" class="graph" transform="scale(1 1) rotate(0) translate(4 346.5)">
<title>ClipboardProvider::OnReceiveURLForMatchWithContent</title>
<polygon fill="white" stroke="transparent" points="-4,4 -4,-346.5 1024,-346.5 1024,4 -4,4"/>
<!-- Node1 -->
<g id="node1" class="node">
<title>Node1</title>
<g id="a_node1"><a xlink:title=" ">
<polygon fill="#bfbfbf" stroke="black" points="0,-88 0,-118 182,-118 182,-88 0,-88"/>
<text text-anchor="start" x="8" y="-106" font-family="Helvetica,sans-Serif" font-size="10.00">ClipboardProvider::</text>
<text text-anchor="middle" x="91" y="-95" font-family="Helvetica,sans-Serif" font-size="10.00">OnReceiveURLForMatchWithContent</text>
</a>
</g>
</g>
<!-- Node2 -->
<g id="node2" class="node">
<title>Node2</title>
<g id="a_node2"><a xlink:href="../../dd/dfc/classClipboardProvider.html#a1cf0e41e7e2a855b5c4b62ed2f2ab550" target="_top" xlink:title=" ">
<polygon fill="white" stroke="black" points="218,-88 218,-118 362,-118 362,-88 218,-88"/>
<text text-anchor="start" x="226" y="-106" font-family="Helvetica,sans-Serif" font-size="10.00">ClipboardProvider::</text>
<text text-anchor="middle" x="290" y="-95" font-family="Helvetica,sans-Serif" font-size="10.00">UpdateClipboardURLContent</text>
</a>
</g>
</g>
<!-- Node1&#45;&gt;Node2 -->
<g id="edge1" class="edge">
<title>Node1&#45;&gt;Node2</title>
<path fill="none" stroke="midnightblue" d="M182.14,-103C190.64,-103 199.22,-103 207.63,-103"/>
<polygon fill="midnightblue" stroke="midnightblue" points="207.79,-106.5 217.79,-103 207.79,-99.5 207.79,-106.5"/>
</g>
<!-- Node3 -->
<g id="node3" class="node">
<title>Node3</title>
<g id="a_node3"><a xlink:href="../../d9/df6/classAutocompleteInput.html#a71cbe5d008493b29bf38ab67d34268a6" target="_top" xlink:title=" ">
<polygon fill="white" stroke="black" points="398,-137.5 398,-178.5 550,-178.5 550,-137.5 398,-137.5"/>
<text text-anchor="start" x="406" y="-166.5" font-family="Helvetica,sans-Serif" font-size="10.00">AutocompleteInput::</text>
<text text-anchor="start" x="406" y="-155.5" font-family="Helvetica,sans-Serif" font-size="10.00">FormattedStringWithEquivalent</text>
<text text-anchor="middle" x="474" y="-144.5" font-family="Helvetica,sans-Serif" font-size="10.00">Meaning</text>
</a>
</g>
</g>
<!-- Node2&#45;&gt;Node3 -->
<g id="edge2" class="edge">
<title>Node2&#45;&gt;Node3</title>
<path fill="none" stroke="midnightblue" d="M340.73,-118.03C357.58,-123.12 376.83,-128.94 395.32,-134.53"/>
<polygon fill="midnightblue" stroke="midnightblue" points="394.32,-137.88 404.91,-137.42 396.35,-131.18 394.32,-137.88"/>
</g>
<!-- Node13 -->
<g id="node13" class="node">
<title>Node13</title>
<g id="a_node13"><a xlink:href="../../dc/d8f/structAutocompleteMatch.html#a5de0e3d76399ddeb5758b97a0c9d815f" target="_top" xlink:title=" ">
<polygon fill="white" stroke="black" points="419,-88 419,-118 529,-118 529,-88 419,-88"/>
<text text-anchor="start" x="427" y="-106" font-family="Helvetica,sans-Serif" font-size="10.00">AutocompleteMatch::</text>
<text text-anchor="middle" x="474" y="-95" font-family="Helvetica,sans-Serif" font-size="10.00">GetFormatTypes</text>
</a>
</g>
</g>
<!-- Node2&#45;&gt;Node13 -->
<g id="edge13" class="edge">
<title>Node2&#45;&gt;Node13</title>
<path fill="none" stroke="midnightblue" d="M362.15,-103C377.46,-103 393.56,-103 408.59,-103"/>
<polygon fill="midnightblue" stroke="midnightblue" points="408.81,-106.5 418.81,-103 408.81,-99.5 408.81,-106.5"/>
</g>
<!-- Node14 -->
<g id="node14" class="node">
<title>Node14</title>
<g id="a_node14"><a xlink:href="../../d5/dc7/classAutocompleteProviderClient.html#aeb7ca420d3164ab0a85826fe7eb8007a" target="_top" xlink:title=" ">
<polygon fill="white" stroke="black" points="405,-39 405,-69 543,-69 543,-39 405,-39"/>
<text text-anchor="start" x="413" y="-57" font-family="Helvetica,sans-Serif" font-size="10.00">AutocompleteProviderClient</text>
<text text-anchor="middle" x="474" y="-46" font-family="Helvetica,sans-Serif" font-size="10.00">::GetSchemeClassifier</text>
</a>
</g>
</g>
<!-- Node2&#45;&gt;Node14 -->
<g id="edge14" class="edge">
<title>Node2&#45;&gt;Node14</title>
<path fill="none" stroke="midnightblue" d="M347.09,-87.9C366.12,-82.77 387.56,-77 407.27,-71.7"/>
<polygon fill="midnightblue" stroke="midnightblue" points="408.35,-75.03 417.09,-69.05 406.53,-68.27 408.35,-75.03"/>
</g>
<!-- Node4 -->
<g id="node4" class="node">
<title>Node4</title>
<g id="a_node4"><a xlink:href="../../d9/df6/classAutocompleteInput.html#a5e4baa54984f463b174191f60f0038aa" target="_top" xlink:title=" ">
<polygon fill="white" stroke="black" points="586,-143 586,-173 690,-173 690,-143 586,-143"/>
<text text-anchor="start" x="594" y="-161" font-family="Helvetica,sans-Serif" font-size="10.00">AutocompleteInput::</text>
<text text-anchor="middle" x="638" y="-150" font-family="Helvetica,sans-Serif" font-size="10.00">Parse</text>
</a>
</g>
</g>
<!-- Node3&#45;&gt;Node4 -->
<g id="edge3" class="edge">
<title>Node3&#45;&gt;Node4</title>
<path fill="none" stroke="midnightblue" d="M550.31,-158C558.89,-158 567.55,-158 575.91,-158"/>
<polygon fill="midnightblue" stroke="midnightblue" points="575.93,-161.5 585.93,-158 575.93,-154.5 575.93,-161.5"/>
</g>
<!-- Node5 -->
<g id="node5" class="node">
<title>Node5</title>
<g id="a_node5"><a xlink:href="../../d9/df6/classAutocompleteInput.html#a419d05e14c86f18c137fbb4057fedb04" target="_top" xlink:title=" ">
<polygon fill="white" stroke="black" points="751,-312 751,-342 855,-342 855,-312 751,-312"/>
<text text-anchor="start" x="759" y="-330" font-family="Helvetica,sans-Serif" font-size="10.00">AutocompleteInput::</text>
<text text-anchor="middle" x="803" y="-319" font-family="Helvetica,sans-Serif" font-size="10.00">canonicalized_url</text>
</a>
</g>
</g>
<!-- Node4&#45;&gt;Node5 -->
<g id="edge4" class="edge">
<title>Node4&#45;&gt;Node5</title>
<path fill="none" stroke="midnightblue" d="M643.97,-173.19C654.38,-202.64 681.29,-267.72 726,-303 730.66,-306.68 735.9,-309.8 741.38,-312.44"/>
<polygon fill="midnightblue" stroke="midnightblue" points="740.22,-315.75 750.79,-316.46 742.97,-309.32 740.22,-315.75"/>
</g>
<!-- Node6 -->
<g id="node6" class="node">
<title>Node6</title>
<g id="a_node6"><a xlink:href="../../d9/df6/classAutocompleteInput.html#a4390207a7b741fc348525b430c3c3e27" target="_top" xlink:title=" ">
<polygon fill="white" stroke="black" points="751,-263 751,-293 855,-293 855,-263 751,-263"/>
<text text-anchor="start" x="759" y="-281" font-family="Helvetica,sans-Serif" font-size="10.00">AutocompleteInput::</text>
<text text-anchor="middle" x="803" y="-270" font-family="Helvetica,sans-Serif" font-size="10.00">desired_tld</text>
</a>
</g>
</g>
<!-- Node4&#45;&gt;Node6 -->
<g id="edge5" class="edge">
<title>Node4&#45;&gt;Node6</title>
<path fill="none" stroke="midnightblue" d="M648.92,-173.29C663.4,-194.42 692.3,-232.39 726,-254 730.73,-257.03 735.88,-259.71 741.18,-262.06"/>
<polygon fill="midnightblue" stroke="midnightblue" points="740.27,-265.47 750.85,-265.96 742.89,-258.98 740.27,-265.47"/>
</g>
<!-- Node7 -->
<g id="node7" class="node">
<title>Node7</title>
<g id="a_node7"><a xlink:href="../../db/df5/classAutocompleteSchemeClassifier.html#af5c27290677874e2772b285dda84fbf5" target="_top" xlink:title=" ">
<polygon fill="white" stroke="black" points="726,-214 726,-244 880,-244 880,-214 726,-214"/>
<text text-anchor="start" x="734" y="-232" font-family="Helvetica,sans-Serif" font-size="10.00">AutocompleteSchemeClassifier</text>
<text text-anchor="middle" x="803" y="-221" font-family="Helvetica,sans-Serif" font-size="10.00">::GetInputTypeForScheme</text>
</a>
</g>
</g>
<!-- Node4&#45;&gt;Node7 -->
<g id="edge6" class="edge">
<title>Node4&#45;&gt;Node7</title>
<path fill="none" stroke="midnightblue" d="M663.88,-173.08C680.95,-183.01 704.34,-195.83 726,-205 730.46,-206.89 735.13,-208.71 739.86,-210.45"/>
<polygon fill="midnightblue" stroke="midnightblue" points="739.01,-213.86 749.6,-213.89 741.34,-207.26 739.01,-213.86"/>
</g>
<!-- Node8 -->
<g id="node8" class="node">
<title>Node8</title>
<g id="a_node8"><a xlink:href="../../d9/df6/classAutocompleteInput.html#aafe7f25c093a4b15b084ee4ab7f49f1f" target="_top" xlink:title=" ">
<polygon fill="white" stroke="black" points="737,-165 737,-195 869,-195 869,-165 737,-165"/>
<text text-anchor="start" x="745" y="-183" font-family="Helvetica,sans-Serif" font-size="10.00">AutocompleteInput::</text>
<text text-anchor="middle" x="803" y="-172" font-family="Helvetica,sans-Serif" font-size="10.00">NumNonHostComponents</text>
</a>
</g>
</g>
<!-- Node4&#45;&gt;Node8 -->
<g id="edge7" class="edge">
<title>Node4&#45;&gt;Node8</title>
<path fill="none" stroke="midnightblue" d="M690.13,-164.9C701.84,-166.48 714.53,-168.19 727.02,-169.88"/>
<polygon fill="midnightblue" stroke="midnightblue" points="726.58,-173.35 736.96,-171.22 727.52,-166.42 726.58,-173.35"/>
</g>
<!-- Node9 -->
<g id="node9" class="node">
<title>Node9</title>
<g id="a_node9"><a xlink:href="../../d9/df6/classAutocompleteInput.html#a3ac662d726d6c8788dbcc199397e8ba5" target="_top" xlink:title=" ">
<polygon fill="white" stroke="black" points="916,-143 916,-173 1020,-173 1020,-143 916,-143"/>
<text text-anchor="start" x="924" y="-161" font-family="Helvetica,sans-Serif" font-size="10.00">AutocompleteInput::</text>
<text text-anchor="middle" x="968" y="-150" font-family="Helvetica,sans-Serif" font-size="10.00">parts</text>
</a>
</g>
</g>
<!-- Node4&#45;&gt;Node9 -->
<g id="edge9" class="edge">
<title>Node4&#45;&gt;Node9</title>
<path fill="none" stroke="midnightblue" d="M690.06,-156.63C701.86,-156.37 714.37,-156.13 726,-156 794.44,-155.21 811.56,-155.21 880,-156 888.36,-156.1 897.17,-156.24 905.85,-156.42"/>
<polygon fill="midnightblue" stroke="midnightblue" points="905.87,-159.92 915.94,-156.63 906.02,-152.92 905.87,-159.92"/>
</g>
<!-- Node10 -->
<g id="node10" class="node">
<title>Node10</title>
<g id="a_node10"><a xlink:href="../../d9/df6/classAutocompleteInput.html#a9f88d669e8aa433c507320111a7b38a8" target="_top" xlink:title=" ">
<polygon fill="white" stroke="black" points="751,-77 751,-107 855,-107 855,-77 751,-77"/>
<text text-anchor="start" x="759" y="-95" font-family="Helvetica,sans-Serif" font-size="10.00">AutocompleteInput::</text>
<text text-anchor="middle" x="803" y="-84" font-family="Helvetica,sans-Serif" font-size="10.00">scheme</text>
</a>
</g>
</g>
<!-- Node4&#45;&gt;Node10 -->
<g id="edge10" class="edge">
<title>Node4&#45;&gt;Node10</title>
<path fill="none" stroke="midnightblue" d="M674.92,-142.98C690.59,-136.47 709.18,-128.8 726,-122 734.98,-118.37 744.58,-114.54 753.82,-110.88"/>
<polygon fill="midnightblue" stroke="midnightblue" points="755.27,-114.07 763.29,-107.14 752.7,-107.56 755.27,-114.07"/>
</g>
<!-- Node11 -->
<g id="node11" class="node">
<title>Node11</title>
<g id="a_node11"><a xlink:href="../../d9/df6/classAutocompleteInput.html#ac055dacf90a052c92e2bfe5c01328a95" target="_top" xlink:title=" ">
<polygon fill="white" stroke="black" points="742.5,-38.5 742.5,-57.5 863.5,-57.5 863.5,-38.5 742.5,-38.5"/>
<text text-anchor="middle" x="803" y="-45.5" font-family="Helvetica,sans-Serif" font-size="10.00">AutocompleteInput::text</text>
</a>
</g>
</g>
<!-- Node4&#45;&gt;Node11 -->
<g id="edge11" class="edge">
<title>Node4&#45;&gt;Node11</title>
<path fill="none" stroke="midnightblue" d="M649.51,-142.79C664.25,-122.62 693,-87.33 726,-68 730.52,-65.35 735.39,-63.05 740.41,-61.05"/>
<polygon fill="midnightblue" stroke="midnightblue" points="741.95,-64.21 750.19,-57.56 739.6,-57.62 741.95,-64.21"/>
</g>
<!-- Node12 -->
<g id="node12" class="node">
<title>Node12</title>
<g id="a_node12"><a xlink:href="../../d9/df6/classAutocompleteInput.html#a5d6111d5ac18400cdf809820dfab9ab0" target="_top" xlink:title=" ">
<polygon fill="white" stroke="black" points="741.5,-0.5 741.5,-19.5 864.5,-19.5 864.5,-0.5 741.5,-0.5"/>
<text text-anchor="middle" x="803" y="-7.5" font-family="Helvetica,sans-Serif" font-size="10.00">AutocompleteInput::type</text>
</a>
</g>
</g>
<!-- Node4&#45;&gt;Node12 -->
<g id="edge12" class="edge">
<title>Node4&#45;&gt;Node12</title>
<path fill="none" stroke="midnightblue" d="M644.98,-142.57C656.4,-115.25 683.97,-58.45 726,-29 728.87,-26.99 731.94,-25.19 735.12,-23.58"/>
<polygon fill="midnightblue" stroke="midnightblue" points="736.62,-26.74 744.38,-19.53 733.82,-20.33 736.62,-26.74"/>
</g>
<!-- Node8&#45;&gt;Node9 -->
<g id="edge8" class="edge">
<title>Node8&#45;&gt;Node9</title>
<path fill="none" stroke="midnightblue" d="M869.36,-171.18C881.35,-169.56 893.82,-167.88 905.69,-166.28"/>
<polygon fill="midnightblue" stroke="midnightblue" points="906.49,-169.7 915.93,-164.89 905.55,-162.76 906.49,-169.7"/>
</g>
</g>
</svg>
