<?xml version="1.0" encoding="UTF-8" standalone="no"?>
<!DOCTYPE svg PUBLIC "-//W3C//DTD SVG 1.1//EN"
 "http://www.w3.org/Graphics/SVG/1.1/DTD/svg11.dtd">
<!-- Generated by graphviz version 2.43.0 (0)
 -->
<!-- Title: ClipboardProvider::NewClipboardTextMatch Pages: 1 -->
<svg width="485pt" height="112pt"
 viewBox="0.00 0.00 485.00 112.00" xmlns="http://www.w3.org/2000/svg" xmlns:xlink="http://www.w3.org/1999/xlink">
<g id="graph0" class="graph" transform="scale(1 1) rotate(0) translate(4 108)">
<title>ClipboardProvider::NewClipboardTextMatch</title>
<polygon fill="white" stroke="transparent" points="-4,4 -4,-108 481,-108 481,4 -4,4"/>
<!-- Node1 -->
<g id="node1" class="node">
<title>Node1</title>
<g id="a_node1"><a xlink:title=" ">
<polygon fill="#bfbfbf" stroke="black" points="0,-48.5 0,-78.5 124,-78.5 124,-48.5 0,-48.5"/>
<text text-anchor="start" x="8" y="-66.5" font-family="Helvetica,sans-Serif" font-size="10.00">ClipboardProvider::</text>
<text text-anchor="middle" x="62" y="-55.5" font-family="Helvetica,sans-Serif" font-size="10.00">NewClipboardTextMatch</text>
</a>
</g>
</g>
<!-- Node2 -->
<g id="node2" class="node">
<title>Node2</title>
<g id="a_node2"><a xlink:href="../../dd/dfc/classClipboardProvider.html#a420092ff9b3fb5c7fe82a4f8938f3593" target="_top" xlink:title=" ">
<polygon fill="white" stroke="black" points="178,-73.5 178,-103.5 285,-103.5 285,-73.5 178,-73.5"/>
<text text-anchor="start" x="186" y="-91.5" font-family="Helvetica,sans-Serif" font-size="10.00">ClipboardProvider::</text>
<text text-anchor="middle" x="231.5" y="-80.5" font-family="Helvetica,sans-Serif" font-size="10.00">NewBlankTextMatch</text>
</a>
</g>
</g>
<!-- Node1&#45;&gt;Node2 -->
<g id="edge1" class="edge">
<title>Node1&#45;&gt;Node2</title>
<path fill="none" stroke="midnightblue" d="M124.42,-72.67C138.54,-74.78 153.58,-77.02 167.76,-79.14"/>
<polygon fill="midnightblue" stroke="midnightblue" points="167.5,-82.64 177.91,-80.65 168.54,-75.71 167.5,-82.64"/>
</g>
<!-- Node3 -->
<g id="node3" class="node">
<title>Node3</title>
<g id="a_node3"><a xlink:href="../../dd/dfc/classClipboardProvider.html#aa28c548f121590c796e31c5d1ae43f33" target="_top" xlink:title=" ">
<polygon fill="white" stroke="black" points="160,-24.5 160,-54.5 303,-54.5 303,-24.5 160,-24.5"/>
<text text-anchor="start" x="168" y="-42.5" font-family="Helvetica,sans-Serif" font-size="10.00">ClipboardProvider::</text>
<text text-anchor="middle" x="231.5" y="-31.5" font-family="Helvetica,sans-Serif" font-size="10.00">UpdateClipboardTextContent</text>
</a>
</g>
</g>
<!-- Node1&#45;&gt;Node3 -->
<g id="edge2" class="edge">
<title>Node1&#45;&gt;Node3</title>
<path fill="none" stroke="midnightblue" d="M124.42,-54.7C132.67,-53.52 141.24,-52.29 149.77,-51.07"/>
<polygon fill="midnightblue" stroke="midnightblue" points="150.33,-54.52 159.73,-49.64 149.34,-47.59 150.33,-54.52"/>
</g>
<!-- Node4 -->
<g id="node4" class="node">
<title>Node4</title>
<g id="a_node4"><a xlink:href="../../d5/dc7/classAutocompleteProviderClient.html#adba197163b53e433c2114b677ae4e412" target="_top" xlink:title=" ">
<polygon fill="white" stroke="black" points="339,-49.5 339,-79.5 477,-79.5 477,-49.5 339,-49.5"/>
<text text-anchor="start" x="347" y="-67.5" font-family="Helvetica,sans-Serif" font-size="10.00">AutocompleteProviderClient</text>
<text text-anchor="middle" x="408" y="-56.5" font-family="Helvetica,sans-Serif" font-size="10.00">::GetTemplateURLService</text>
</a>
</g>
</g>
<!-- Node3&#45;&gt;Node4 -->
<g id="edge3" class="edge">
<title>Node3&#45;&gt;Node4</title>
<path fill="none" stroke="midnightblue" d="M303.22,-49.63C311.64,-50.84 320.28,-52.08 328.79,-53.3"/>
<polygon fill="midnightblue" stroke="midnightblue" points="328.32,-56.76 338.72,-54.72 329.32,-49.83 328.32,-56.76"/>
</g>
<!-- Node5 -->
<g id="node5" class="node">
<title>Node5</title>
<g id="a_node5"><a xlink:href="../../dc/d8f/structAutocompleteMatch.html#a7bef9b1d672f052605fa29afbc69da12" target="_top" xlink:title=" ">
<polygon fill="white" stroke="black" points="353,-0.5 353,-30.5 463,-30.5 463,-0.5 353,-0.5"/>
<text text-anchor="start" x="361" y="-18.5" font-family="Helvetica,sans-Serif" font-size="10.00">AutocompleteMatch::</text>
<text text-anchor="middle" x="408" y="-7.5" font-family="Helvetica,sans-Serif" font-size="10.00">SanitizeString</text>
</a>
</g>
</g>
<!-- Node3&#45;&gt;Node5 -->
<g id="edge4" class="edge">
<title>Node3&#45;&gt;Node5</title>
<path fill="none" stroke="midnightblue" d="M303.22,-29.77C316.27,-27.98 329.83,-26.11 342.67,-24.35"/>
<polygon fill="midnightblue" stroke="midnightblue" points="343.37,-27.79 352.8,-22.96 342.41,-20.85 343.37,-27.79"/>
</g>
</g>
</svg>
