<?xml version="1.0" encoding="UTF-8" standalone="no"?>
<!DOCTYPE svg PUBLIC "-//W3C//DTD SVG 1.1//EN"
 "http://www.w3.org/Graphics/SVG/1.1/DTD/svg11.dtd">
<!-- Generated by graphviz version 2.43.0 (0)
 -->
<!-- Title: ClipboardProvider::CreateURLMatch Pages: 1 -->
<svg width="1107pt" height="351pt"
 viewBox="0.00 0.00 1107.00 350.50" xmlns="http://www.w3.org/2000/svg" xmlns:xlink="http://www.w3.org/1999/xlink">
<g id="graph0" class="graph" transform="scale(1 1) rotate(0) translate(4 346.5)">
<title>ClipboardProvider::CreateURLMatch</title>
<polygon fill="white" stroke="transparent" points="-4,4 -4,-346.5 1103,-346.5 1103,4 -4,4"/>
<!-- Node1 -->
<g id="node1" class="node">
<title>Node1</title>
<g id="a_node1"><a xlink:title=" ">
<polygon fill="#bfbfbf" stroke="black" points="0,-136 0,-166 100,-166 100,-136 0,-136"/>
<text text-anchor="start" x="8" y="-154" font-family="Helvetica,sans-Serif" font-size="10.00">ClipboardProvider::</text>
<text text-anchor="middle" x="50" y="-143" font-family="Helvetica,sans-Serif" font-size="10.00">CreateURLMatch</text>
</a>
</g>
</g>
<!-- Node2 -->
<g id="node2" class="node">
<title>Node2</title>
<g id="a_node2"><a xlink:href="../../d9/df6/classAutocompleteInput.html#a2a4e4b5e31c7e0faffbc67f8b916e081" target="_top" xlink:title=" ">
<polygon fill="white" stroke="black" points="146.5,-161 146.5,-191 250.5,-191 250.5,-161 146.5,-161"/>
<text text-anchor="start" x="154.5" y="-179" font-family="Helvetica,sans-Serif" font-size="10.00">AutocompleteInput::</text>
<text text-anchor="middle" x="198.5" y="-168" font-family="Helvetica,sans-Serif" font-size="10.00">current_url</text>
</a>
</g>
</g>
<!-- Node1&#45;&gt;Node2 -->
<g id="edge1" class="edge">
<title>Node1&#45;&gt;Node2</title>
<path fill="none" stroke="midnightblue" d="M100.19,-159.39C111.81,-161.38 124.35,-163.52 136.43,-165.58"/>
<polygon fill="midnightblue" stroke="midnightblue" points="135.99,-169.05 146.44,-167.29 137.17,-162.15 135.99,-169.05"/>
</g>
<!-- Node3 -->
<g id="node3" class="node">
<title>Node3</title>
<g id="a_node3"><a xlink:href="../../dd/dfc/classClipboardProvider.html#a30dc08f11f9a68136751f19a3471fab7" target="_top" xlink:title=" ">
<polygon fill="white" stroke="black" points="136,-112 136,-142 261,-142 261,-112 136,-112"/>
<text text-anchor="start" x="144" y="-130" font-family="Helvetica,sans-Serif" font-size="10.00">ClipboardProvider::</text>
<text text-anchor="middle" x="198.5" y="-119" font-family="Helvetica,sans-Serif" font-size="10.00">NewClipboardURLMatch</text>
</a>
</g>
</g>
<!-- Node1&#45;&gt;Node3 -->
<g id="edge2" class="edge">
<title>Node1&#45;&gt;Node3</title>
<path fill="none" stroke="midnightblue" d="M100.19,-142.94C108.43,-141.59 117.14,-140.17 125.81,-138.74"/>
<polygon fill="midnightblue" stroke="midnightblue" points="126.65,-142.15 135.95,-137.08 125.52,-135.25 126.65,-142.15"/>
</g>
<!-- Node4 -->
<g id="node4" class="node">
<title>Node4</title>
<g id="a_node4"><a xlink:href="../../dd/dfc/classClipboardProvider.html#a38bc7027e196cf5d63f979556f0df6b0" target="_top" xlink:title=" ">
<polygon fill="white" stroke="black" points="314.5,-137 314.5,-167 423.5,-167 423.5,-137 314.5,-137"/>
<text text-anchor="start" x="322.5" y="-155" font-family="Helvetica,sans-Serif" font-size="10.00">ClipboardProvider::</text>
<text text-anchor="middle" x="369" y="-144" font-family="Helvetica,sans-Serif" font-size="10.00">NewBlankURLMatch</text>
</a>
</g>
</g>
<!-- Node3&#45;&gt;Node4 -->
<g id="edge3" class="edge">
<title>Node3&#45;&gt;Node4</title>
<path fill="none" stroke="midnightblue" d="M261.29,-136.17C275.27,-138.24 290.14,-140.45 304.21,-142.53"/>
<polygon fill="midnightblue" stroke="midnightblue" points="303.87,-146.02 314.28,-144.03 304.9,-139.1 303.87,-146.02"/>
</g>
<!-- Node5 -->
<g id="node5" class="node">
<title>Node5</title>
<g id="a_node5"><a xlink:href="../../dd/dfc/classClipboardProvider.html#a1cf0e41e7e2a855b5c4b62ed2f2ab550" target="_top" xlink:title=" ">
<polygon fill="white" stroke="black" points="297,-88 297,-118 441,-118 441,-88 297,-88"/>
<text text-anchor="start" x="305" y="-106" font-family="Helvetica,sans-Serif" font-size="10.00">ClipboardProvider::</text>
<text text-anchor="middle" x="369" y="-95" font-family="Helvetica,sans-Serif" font-size="10.00">UpdateClipboardURLContent</text>
</a>
</g>
</g>
<!-- Node3&#45;&gt;Node5 -->
<g id="edge4" class="edge">
<title>Node3&#45;&gt;Node5</title>
<path fill="none" stroke="midnightblue" d="M261.29,-118.2C269.59,-117.02 278.21,-115.79 286.78,-114.57"/>
<polygon fill="midnightblue" stroke="midnightblue" points="287.4,-118.02 296.81,-113.14 286.42,-111.08 287.4,-118.02"/>
</g>
<!-- Node6 -->
<g id="node6" class="node">
<title>Node6</title>
<g id="a_node6"><a xlink:href="../../d9/df6/classAutocompleteInput.html#a71cbe5d008493b29bf38ab67d34268a6" target="_top" xlink:title=" ">
<polygon fill="white" stroke="black" points="477,-137.5 477,-178.5 629,-178.5 629,-137.5 477,-137.5"/>
<text text-anchor="start" x="485" y="-166.5" font-family="Helvetica,sans-Serif" font-size="10.00">AutocompleteInput::</text>
<text text-anchor="start" x="485" y="-155.5" font-family="Helvetica,sans-Serif" font-size="10.00">FormattedStringWithEquivalent</text>
<text text-anchor="middle" x="553" y="-144.5" font-family="Helvetica,sans-Serif" font-size="10.00">Meaning</text>
</a>
</g>
</g>
<!-- Node5&#45;&gt;Node6 -->
<g id="edge5" class="edge">
<title>Node5&#45;&gt;Node6</title>
<path fill="none" stroke="midnightblue" d="M419.73,-118.03C436.58,-123.12 455.83,-128.94 474.32,-134.53"/>
<polygon fill="midnightblue" stroke="midnightblue" points="473.32,-137.88 483.91,-137.42 475.35,-131.18 473.32,-137.88"/>
</g>
<!-- Node16 -->
<g id="node16" class="node">
<title>Node16</title>
<g id="a_node16"><a xlink:href="../../dc/d8f/structAutocompleteMatch.html#a5de0e3d76399ddeb5758b97a0c9d815f" target="_top" xlink:title=" ">
<polygon fill="white" stroke="black" points="498,-88 498,-118 608,-118 608,-88 498,-88"/>
<text text-anchor="start" x="506" y="-106" font-family="Helvetica,sans-Serif" font-size="10.00">AutocompleteMatch::</text>
<text text-anchor="middle" x="553" y="-95" font-family="Helvetica,sans-Serif" font-size="10.00">GetFormatTypes</text>
</a>
</g>
</g>
<!-- Node5&#45;&gt;Node16 -->
<g id="edge16" class="edge">
<title>Node5&#45;&gt;Node16</title>
<path fill="none" stroke="midnightblue" d="M441.15,-103C456.46,-103 472.56,-103 487.59,-103"/>
<polygon fill="midnightblue" stroke="midnightblue" points="487.81,-106.5 497.81,-103 487.81,-99.5 487.81,-106.5"/>
</g>
<!-- Node17 -->
<g id="node17" class="node">
<title>Node17</title>
<g id="a_node17"><a xlink:href="../../d5/dc7/classAutocompleteProviderClient.html#aeb7ca420d3164ab0a85826fe7eb8007a" target="_top" xlink:title=" ">
<polygon fill="white" stroke="black" points="484,-39 484,-69 622,-69 622,-39 484,-39"/>
<text text-anchor="start" x="492" y="-57" font-family="Helvetica,sans-Serif" font-size="10.00">AutocompleteProviderClient</text>
<text text-anchor="middle" x="553" y="-46" font-family="Helvetica,sans-Serif" font-size="10.00">::GetSchemeClassifier</text>
</a>
</g>
</g>
<!-- Node5&#45;&gt;Node17 -->
<g id="edge17" class="edge">
<title>Node5&#45;&gt;Node17</title>
<path fill="none" stroke="midnightblue" d="M426.09,-87.9C445.12,-82.77 466.56,-77 486.27,-71.7"/>
<polygon fill="midnightblue" stroke="midnightblue" points="487.35,-75.03 496.09,-69.05 485.53,-68.27 487.35,-75.03"/>
</g>
<!-- Node7 -->
<g id="node7" class="node">
<title>Node7</title>
<g id="a_node7"><a xlink:href="../../d9/df6/classAutocompleteInput.html#a5e4baa54984f463b174191f60f0038aa" target="_top" xlink:title=" ">
<polygon fill="white" stroke="black" points="665,-143 665,-173 769,-173 769,-143 665,-143"/>
<text text-anchor="start" x="673" y="-161" font-family="Helvetica,sans-Serif" font-size="10.00">AutocompleteInput::</text>
<text text-anchor="middle" x="717" y="-150" font-family="Helvetica,sans-Serif" font-size="10.00">Parse</text>
</a>
</g>
</g>
<!-- Node6&#45;&gt;Node7 -->
<g id="edge6" class="edge">
<title>Node6&#45;&gt;Node7</title>
<path fill="none" stroke="midnightblue" d="M629.31,-158C637.89,-158 646.55,-158 654.91,-158"/>
<polygon fill="midnightblue" stroke="midnightblue" points="654.93,-161.5 664.93,-158 654.93,-154.5 654.93,-161.5"/>
</g>
<!-- Node8 -->
<g id="node8" class="node">
<title>Node8</title>
<g id="a_node8"><a xlink:href="../../d9/df6/classAutocompleteInput.html#a419d05e14c86f18c137fbb4057fedb04" target="_top" xlink:title=" ">
<polygon fill="white" stroke="black" points="830,-312 830,-342 934,-342 934,-312 830,-312"/>
<text text-anchor="start" x="838" y="-330" font-family="Helvetica,sans-Serif" font-size="10.00">AutocompleteInput::</text>
<text text-anchor="middle" x="882" y="-319" font-family="Helvetica,sans-Serif" font-size="10.00">canonicalized_url</text>
</a>
</g>
</g>
<!-- Node7&#45;&gt;Node8 -->
<g id="edge7" class="edge">
<title>Node7&#45;&gt;Node8</title>
<path fill="none" stroke="midnightblue" d="M722.97,-173.19C733.38,-202.64 760.29,-267.72 805,-303 809.66,-306.68 814.9,-309.8 820.38,-312.44"/>
<polygon fill="midnightblue" stroke="midnightblue" points="819.22,-315.75 829.79,-316.46 821.97,-309.32 819.22,-315.75"/>
</g>
<!-- Node9 -->
<g id="node9" class="node">
<title>Node9</title>
<g id="a_node9"><a xlink:href="../../d9/df6/classAutocompleteInput.html#a4390207a7b741fc348525b430c3c3e27" target="_top" xlink:title=" ">
<polygon fill="white" stroke="black" points="830,-263 830,-293 934,-293 934,-263 830,-263"/>
<text text-anchor="start" x="838" y="-281" font-family="Helvetica,sans-Serif" font-size="10.00">AutocompleteInput::</text>
<text text-anchor="middle" x="882" y="-270" font-family="Helvetica,sans-Serif" font-size="10.00">desired_tld</text>
</a>
</g>
</g>
<!-- Node7&#45;&gt;Node9 -->
<g id="edge8" class="edge">
<title>Node7&#45;&gt;Node9</title>
<path fill="none" stroke="midnightblue" d="M727.92,-173.29C742.4,-194.42 771.3,-232.39 805,-254 809.73,-257.03 814.88,-259.71 820.18,-262.06"/>
<polygon fill="midnightblue" stroke="midnightblue" points="819.27,-265.47 829.85,-265.96 821.89,-258.98 819.27,-265.47"/>
</g>
<!-- Node10 -->
<g id="node10" class="node">
<title>Node10</title>
<g id="a_node10"><a xlink:href="../../db/df5/classAutocompleteSchemeClassifier.html#af5c27290677874e2772b285dda84fbf5" target="_top" xlink:title=" ">
<polygon fill="white" stroke="black" points="805,-214 805,-244 959,-244 959,-214 805,-214"/>
<text text-anchor="start" x="813" y="-232" font-family="Helvetica,sans-Serif" font-size="10.00">AutocompleteSchemeClassifier</text>
<text text-anchor="middle" x="882" y="-221" font-family="Helvetica,sans-Serif" font-size="10.00">::GetInputTypeForScheme</text>
</a>
</g>
</g>
<!-- Node7&#45;&gt;Node10 -->
<g id="edge9" class="edge">
<title>Node7&#45;&gt;Node10</title>
<path fill="none" stroke="midnightblue" d="M742.88,-173.08C759.95,-183.01 783.34,-195.83 805,-205 809.46,-206.89 814.13,-208.71 818.86,-210.45"/>
<polygon fill="midnightblue" stroke="midnightblue" points="818.01,-213.86 828.6,-213.89 820.34,-207.26 818.01,-213.86"/>
</g>
<!-- Node11 -->
<g id="node11" class="node">
<title>Node11</title>
<g id="a_node11"><a xlink:href="../../d9/df6/classAutocompleteInput.html#aafe7f25c093a4b15b084ee4ab7f49f1f" target="_top" xlink:title=" ">
<polygon fill="white" stroke="black" points="816,-165 816,-195 948,-195 948,-165 816,-165"/>
<text text-anchor="start" x="824" y="-183" font-family="Helvetica,sans-Serif" font-size="10.00">AutocompleteInput::</text>
<text text-anchor="middle" x="882" y="-172" font-family="Helvetica,sans-Serif" font-size="10.00">NumNonHostComponents</text>
</a>
</g>
</g>
<!-- Node7&#45;&gt;Node11 -->
<g id="edge10" class="edge">
<title>Node7&#45;&gt;Node11</title>
<path fill="none" stroke="midnightblue" d="M769.13,-164.9C780.84,-166.48 793.53,-168.19 806.02,-169.88"/>
<polygon fill="midnightblue" stroke="midnightblue" points="805.58,-173.35 815.96,-171.22 806.52,-166.42 805.58,-173.35"/>
</g>
<!-- Node12 -->
<g id="node12" class="node">
<title>Node12</title>
<g id="a_node12"><a xlink:href="../../d9/df6/classAutocompleteInput.html#a3ac662d726d6c8788dbcc199397e8ba5" target="_top" xlink:title=" ">
<polygon fill="white" stroke="black" points="995,-143 995,-173 1099,-173 1099,-143 995,-143"/>
<text text-anchor="start" x="1003" y="-161" font-family="Helvetica,sans-Serif" font-size="10.00">AutocompleteInput::</text>
<text text-anchor="middle" x="1047" y="-150" font-family="Helvetica,sans-Serif" font-size="10.00">parts</text>
</a>
</g>
</g>
<!-- Node7&#45;&gt;Node12 -->
<g id="edge12" class="edge">
<title>Node7&#45;&gt;Node12</title>
<path fill="none" stroke="midnightblue" d="M769.06,-156.63C780.86,-156.37 793.37,-156.13 805,-156 873.44,-155.21 890.56,-155.21 959,-156 967.36,-156.1 976.17,-156.24 984.85,-156.42"/>
<polygon fill="midnightblue" stroke="midnightblue" points="984.87,-159.92 994.94,-156.63 985.02,-152.92 984.87,-159.92"/>
</g>
<!-- Node13 -->
<g id="node13" class="node">
<title>Node13</title>
<g id="a_node13"><a xlink:href="../../d9/df6/classAutocompleteInput.html#a9f88d669e8aa433c507320111a7b38a8" target="_top" xlink:title=" ">
<polygon fill="white" stroke="black" points="830,-77 830,-107 934,-107 934,-77 830,-77"/>
<text text-anchor="start" x="838" y="-95" font-family="Helvetica,sans-Serif" font-size="10.00">AutocompleteInput::</text>
<text text-anchor="middle" x="882" y="-84" font-family="Helvetica,sans-Serif" font-size="10.00">scheme</text>
</a>
</g>
</g>
<!-- Node7&#45;&gt;Node13 -->
<g id="edge13" class="edge">
<title>Node7&#45;&gt;Node13</title>
<path fill="none" stroke="midnightblue" d="M753.92,-142.98C769.59,-136.47 788.18,-128.8 805,-122 813.98,-118.37 823.58,-114.54 832.82,-110.88"/>
<polygon fill="midnightblue" stroke="midnightblue" points="834.27,-114.07 842.29,-107.14 831.7,-107.56 834.27,-114.07"/>
</g>
<!-- Node14 -->
<g id="node14" class="node">
<title>Node14</title>
<g id="a_node14"><a xlink:href="../../d9/df6/classAutocompleteInput.html#ac055dacf90a052c92e2bfe5c01328a95" target="_top" xlink:title=" ">
<polygon fill="white" stroke="black" points="821.5,-38.5 821.5,-57.5 942.5,-57.5 942.5,-38.5 821.5,-38.5"/>
<text text-anchor="middle" x="882" y="-45.5" font-family="Helvetica,sans-Serif" font-size="10.00">AutocompleteInput::text</text>
</a>
</g>
</g>
<!-- Node7&#45;&gt;Node14 -->
<g id="edge14" class="edge">
<title>Node7&#45;&gt;Node14</title>
<path fill="none" stroke="midnightblue" d="M728.51,-142.79C743.25,-122.62 772,-87.33 805,-68 809.52,-65.35 814.39,-63.05 819.41,-61.05"/>
<polygon fill="midnightblue" stroke="midnightblue" points="820.95,-64.21 829.19,-57.56 818.6,-57.62 820.95,-64.21"/>
</g>
<!-- Node15 -->
<g id="node15" class="node">
<title>Node15</title>
<g id="a_node15"><a xlink:href="../../d9/df6/classAutocompleteInput.html#a5d6111d5ac18400cdf809820dfab9ab0" target="_top" xlink:title=" ">
<polygon fill="white" stroke="black" points="820.5,-0.5 820.5,-19.5 943.5,-19.5 943.5,-0.5 820.5,-0.5"/>
<text text-anchor="middle" x="882" y="-7.5" font-family="Helvetica,sans-Serif" font-size="10.00">AutocompleteInput::type</text>
</a>
</g>
</g>
<!-- Node7&#45;&gt;Node15 -->
<g id="edge15" class="edge">
<title>Node7&#45;&gt;Node15</title>
<path fill="none" stroke="midnightblue" d="M723.98,-142.57C735.4,-115.25 762.97,-58.45 805,-29 807.87,-26.99 810.94,-25.19 814.12,-23.58"/>
<polygon fill="midnightblue" stroke="midnightblue" points="815.62,-26.74 823.38,-19.53 812.82,-20.33 815.62,-26.74"/>
</g>
<!-- Node11&#45;&gt;Node12 -->
<g id="edge11" class="edge">
<title>Node11&#45;&gt;Node12</title>
<path fill="none" stroke="midnightblue" d="M948.36,-171.18C960.35,-169.56 972.82,-167.88 984.69,-166.28"/>
<polygon fill="midnightblue" stroke="midnightblue" points="985.49,-169.7 994.93,-164.89 984.55,-162.76 985.49,-169.7"/>
</g>
</g>
</svg>
