<?xml version="1.0" encoding="UTF-8" standalone="no"?>
<!DOCTYPE svg PUBLIC "-//W3C//DTD SVG 1.1//EN"
 "http://www.w3.org/Graphics/SVG/1.1/DTD/svg11.dtd">
<!-- Generated by graphviz version 2.43.0 (0)
 -->
<!-- Title: ClipboardProvider::CheckClipboardContent Pages: 1 -->
<!--zoomable 653 -->
<svg id="main" version="1.1" xmlns="http://www.w3.org/2000/svg" xmlns:xlink="http://www.w3.org/1999/xlink" xml:space="preserve" onload="init(evt)">
<style type="text/css"><![CDATA[
.edge:hover path { stroke: red; }
.edge:hover polygon { stroke: red; fill: red; }
]]></style>
<script type="text/javascript"><![CDATA[
var edges = document.getElementsByTagName('g');
if (edges && edges.length) {
  for (var i=0;i<edges.length;i++) {
    if (edges[i].id.substr(0,4)=='edge') {
      edges[i].setAttribute('class','edge');
    }
  }
}
]]></script>
        <defs>
                <circle id="rim" cx="0" cy="0" r="7"/>
                <circle id="rim2" cx="0" cy="0" r="3.5"/>
                <g id="zoomPlus">
                        <use xlink:href="#rim" fill="#404040">
                                <set attributeName="fill" to="#808080" begin="zoomplus.mouseover" end="zoomplus.mouseout"/>
                        </use>
                        <path d="M-4,0h8M0,-4v8" fill="none" stroke="white" stroke-width="1.5" pointer-events="none"/>
                </g>
                <g id="zoomMin">
                        <use xlink:href="#rim" fill="#404040">
                                <set attributeName="fill" to="#808080" begin="zoomminus.mouseover" end="zoomminus.mouseout"/>
                        </use>
                        <path d="M-4,0h8" fill="none" stroke="white" stroke-width="1.5" pointer-events="none"/>
                </g>
                <g id="dirArrow">
                        <path fill="none" stroke="white" stroke-width="1.5" d="M0,-3.0v7 M-2.5,-0.5L0,-3.0L2.5,-0.5"/>
                </g>
               <g id="resetDef">
                       <use xlink:href="#rim2" fill="#404040">
                               <set attributeName="fill" to="#808080" begin="reset.mouseover" end="reset.mouseout"/>
                       </use>
               </g>
        </defs>

<script type="text/javascript">
var viewWidth = 1512;
var viewHeight = 653;
var sectionId = 'dynsection-7';
</script>
<script xlink:href="../../svgpan.js"/>
<svg id="graph" class="graph">
<g id="viewport">
<title>ClipboardProvider::CheckClipboardContent</title>
<polygon fill="white" stroke="transparent" points="-4,4 -4,-649.17 1508,-649.17 1508,4 -4,4"/>
<!-- Node1 -->
<g id="node1" class="node">
<title>Node1</title>
<g id="a_node1"><a xlink:title=" ">
<polygon fill="#bfbfbf" stroke="black" points="0,-149.17 0,-179.17 121,-179.17 121,-149.17 0,-149.17"/>
<text text-anchor="start" x="8" y="-167.17" font-family="Helvetica,sans-Serif" font-size="10.00">ClipboardProvider::</text>
<text text-anchor="middle" x="60.5" y="-156.17" font-family="Helvetica,sans-Serif" font-size="10.00">CheckClipboardContent</text>
</a>
</g>
</g>
<!-- Node2 -->
<g id="node2" class="node">
<title>Node2</title>
<g id="a_node2"><a xlink:href="../../dd/dfc/classClipboardProvider.html#ac5b6bd4f67341d6a9b46a06ebf85161b" target="_top" xlink:title=" ">
<polygon fill="white" stroke="black" points="173,-435.17 173,-465.17 314,-465.17 314,-435.17 173,-435.17"/>
<text text-anchor="start" x="181" y="-453.17" font-family="Helvetica,sans-Serif" font-size="10.00">ClipboardProvider::</text>
<text text-anchor="middle" x="243.5" y="-442.17" font-family="Helvetica,sans-Serif" font-size="10.00">OnReceiveClipboardContent</text>
</a>
</g>
</g>
<!-- Node1&#45;&gt;Node2 -->
<g id="edge1" class="edge">
<title>Node1&#45;&gt;Node2</title>
<path fill="none" stroke="midnightblue" d="M71.23,-179.54C101.07,-226.69 191.44,-369.48 227.45,-426.39"/>
<polygon fill="midnightblue" stroke="midnightblue" points="224.63,-428.48 232.94,-435.06 230.55,-424.74 224.63,-428.48"/>
</g>
<!-- Node31 -->
<g id="node31" class="node">
<title>Node31</title>
<g id="a_node31"><a xlink:href="../../dd/dfc/classClipboardProvider.html#a18a8c09a5a5d8d342bbd529e39a6b8db" target="_top" xlink:title=" ">
<polygon fill="white" stroke="black" points="157,-149.17 157,-179.17 330,-179.17 330,-149.17 157,-149.17"/>
<text text-anchor="start" x="165" y="-167.17" font-family="Helvetica,sans-Serif" font-size="10.00">ClipboardProvider::</text>
<text text-anchor="middle" x="243.5" y="-156.17" font-family="Helvetica,sans-Serif" font-size="10.00">TemplateURLSupportsImageSearch</text>
</a>
</g>
</g>
<!-- Node1&#45;&gt;Node31 -->
<g id="edge38" class="edge">
<title>Node1&#45;&gt;Node31</title>
<path fill="none" stroke="midnightblue" d="M121.02,-164.17C129.24,-164.17 137.85,-164.17 146.52,-164.17"/>
<polygon fill="midnightblue" stroke="midnightblue" points="146.72,-167.67 156.72,-164.17 146.72,-160.67 146.72,-167.67"/>
</g>
<!-- Node32 -->
<g id="node32" class="node">
<title>Node32</title>
<g id="a_node32"><a xlink:href="../../dd/dfc/classClipboardProvider.html#aca5fde10c5188d082365a5ababedbdb0" target="_top" xlink:title=" ">
<polygon fill="white" stroke="black" points="161,-100.17 161,-130.17 326,-130.17 326,-100.17 161,-100.17"/>
<text text-anchor="start" x="169" y="-118.17" font-family="Helvetica,sans-Serif" font-size="10.00">ClipboardProvider::</text>
<text text-anchor="middle" x="243.5" y="-107.17" font-family="Helvetica,sans-Serif" font-size="10.00">TemplateURLSupportsTextSearch</text>
</a>
</g>
</g>
<!-- Node1&#45;&gt;Node32 -->
<g id="edge40" class="edge">
<title>Node1&#45;&gt;Node32</title>
<path fill="none" stroke="midnightblue" d="M117.28,-149.07C136.21,-143.94 157.52,-138.17 177.13,-132.86"/>
<polygon fill="midnightblue" stroke="midnightblue" points="178.16,-136.21 186.9,-130.22 176.33,-129.45 178.16,-136.21"/>
</g>
<!-- Node3 -->
<g id="node3" class="node">
<title>Node3</title>
<g id="a_node3"><a xlink:href="../../dd/dfc/classClipboardProvider.html#a76c1922f8337d1e5a1f5eaf6fa20fd2c" target="_top" xlink:title=" ">
<polygon fill="white" stroke="black" points="366,-460.17 366,-490.17 519,-490.17 519,-460.17 366,-460.17"/>
<text text-anchor="start" x="374" y="-478.17" font-family="Helvetica,sans-Serif" font-size="10.00">ClipboardProvider::</text>
<text text-anchor="middle" x="442.5" y="-467.17" font-family="Helvetica,sans-Serif" font-size="10.00">AddCreatedMatchWithTracking</text>
</a>
</g>
</g>
<!-- Node2&#45;&gt;Node3 -->
<g id="edge2" class="edge">
<title>Node2&#45;&gt;Node3</title>
<path fill="none" stroke="midnightblue" d="M314.23,-459.02C327.68,-460.72 341.91,-462.53 355.8,-464.29"/>
<polygon fill="midnightblue" stroke="midnightblue" points="355.48,-467.78 365.84,-465.57 356.36,-460.83 355.48,-467.78"/>
</g>
<!-- Node27 -->
<g id="node27" class="node">
<title>Node27</title>
<g id="a_node27"><a xlink:href="../../dd/dfc/classClipboardProvider.html#a00658de808c1e39442580fd9492862fd" target="_top" xlink:title=" ">
<polygon fill="white" stroke="black" points="384.5,-411.17 384.5,-441.17 500.5,-441.17 500.5,-411.17 384.5,-411.17"/>
<text text-anchor="start" x="392.5" y="-429.17" font-family="Helvetica,sans-Serif" font-size="10.00">ClipboardProvider::</text>
<text text-anchor="middle" x="442.5" y="-418.17" font-family="Helvetica,sans-Serif" font-size="10.00">NewBlankImageMatch</text>
</a>
</g>
</g>
<!-- Node2&#45;&gt;Node27 -->
<g id="edge34" class="edge">
<title>Node2&#45;&gt;Node27</title>
<path fill="none" stroke="midnightblue" d="M314.23,-441.67C333.74,-439.3 354.9,-436.72 374.27,-434.36"/>
<polygon fill="midnightblue" stroke="midnightblue" points="374.71,-437.83 384.21,-433.15 373.86,-430.88 374.71,-437.83"/>
</g>
<!-- Node28 -->
<g id="node28" class="node">
<title>Node28</title>
<g id="a_node28"><a xlink:href="../../dd/dfc/classClipboardProvider.html#a420092ff9b3fb5c7fe82a4f8938f3593" target="_top" xlink:title=" ">
<polygon fill="white" stroke="black" points="389,-362.17 389,-392.17 496,-392.17 496,-362.17 389,-362.17"/>
<text text-anchor="start" x="397" y="-380.17" font-family="Helvetica,sans-Serif" font-size="10.00">ClipboardProvider::</text>
<text text-anchor="middle" x="442.5" y="-369.17" font-family="Helvetica,sans-Serif" font-size="10.00">NewBlankTextMatch</text>
</a>
</g>
</g>
<!-- Node2&#45;&gt;Node28 -->
<g id="edge35" class="edge">
<title>Node2&#45;&gt;Node28</title>
<path fill="none" stroke="midnightblue" d="M279.85,-435.09C303.95,-425.01 336.68,-411.72 366,-401.17 371.39,-399.23 377.02,-397.28 382.68,-395.39"/>
<polygon fill="midnightblue" stroke="midnightblue" points="383.78,-398.71 392.18,-392.25 381.58,-392.06 383.78,-398.71"/>
</g>
<!-- Node29 -->
<g id="node29" class="node">
<title>Node29</title>
<g id="a_node29"><a xlink:href="../../dd/dfc/classClipboardProvider.html#a38bc7027e196cf5d63f979556f0df6b0" target="_top" xlink:title=" ">
<polygon fill="white" stroke="black" points="388,-558.17 388,-588.17 497,-588.17 497,-558.17 388,-558.17"/>
<text text-anchor="start" x="396" y="-576.17" font-family="Helvetica,sans-Serif" font-size="10.00">ClipboardProvider::</text>
<text text-anchor="middle" x="442.5" y="-565.17" font-family="Helvetica,sans-Serif" font-size="10.00">NewBlankURLMatch</text>
</a>
</g>
</g>
<!-- Node2&#45;&gt;Node29 -->
<g id="edge36" class="edge">
<title>Node2&#45;&gt;Node29</title>
<path fill="none" stroke="midnightblue" d="M259.24,-465.36C280.83,-486.83 323.16,-526 366,-549.17 369.92,-551.29 374.05,-553.25 378.28,-555.07"/>
<polygon fill="midnightblue" stroke="midnightblue" points="377.08,-558.36 387.66,-558.82 379.68,-551.86 377.08,-558.36"/>
</g>
<!-- Node30 -->
<g id="node30" class="node">
<title>Node30</title>
<g id="a_node30"><a xlink:href="../../dc/dce/classAutocompleteProviderListener.html#a5a9a4ed9fe89fc1cce87b4f5ce216581" target="_top" xlink:title=" ">
<polygon fill="white" stroke="black" points="369,-509.17 369,-539.17 516,-539.17 516,-509.17 369,-509.17"/>
<text text-anchor="start" x="377" y="-527.17" font-family="Helvetica,sans-Serif" font-size="10.00">AutocompleteProviderListener</text>
<text text-anchor="middle" x="442.5" y="-516.17" font-family="Helvetica,sans-Serif" font-size="10.00">::OnProviderUpdate</text>
</a>
</g>
</g>
<!-- Node2&#45;&gt;Node30 -->
<g id="edge37" class="edge">
<title>Node2&#45;&gt;Node30</title>
<path fill="none" stroke="midnightblue" d="M279.03,-465.27C303.19,-475.61 336.31,-489.36 366,-500.17 371.38,-502.13 377.01,-504.08 382.66,-505.99"/>
<polygon fill="midnightblue" stroke="midnightblue" points="381.57,-509.31 392.16,-509.13 383.77,-502.66 381.57,-509.31"/>
</g>
<!-- Node4 -->
<g id="node4" class="node">
<title>Node4</title>
<g id="a_node4"><a xlink:href="../../d9/df6/classAutocompleteInput.html#a7472629d9340a2e0362e0b11c23ffff9" target="_top" xlink:title=" ">
<polygon fill="white" stroke="black" points="561.5,-460.17 561.5,-490.17 665.5,-490.17 665.5,-460.17 561.5,-460.17"/>
<text text-anchor="start" x="569.5" y="-478.17" font-family="Helvetica,sans-Serif" font-size="10.00">AutocompleteInput::</text>
<text text-anchor="middle" x="613.5" y="-467.17" font-family="Helvetica,sans-Serif" font-size="10.00">current_title</text>
</a>
</g>
</g>
<!-- Node3&#45;&gt;Node4 -->
<g id="edge3" class="edge">
<title>Node3&#45;&gt;Node4</title>
<path fill="none" stroke="midnightblue" d="M519.1,-475.17C529.78,-475.17 540.65,-475.17 551.02,-475.17"/>
<polygon fill="midnightblue" stroke="midnightblue" points="551.2,-478.67 561.2,-475.17 551.2,-471.67 551.2,-478.67"/>
</g>
<!-- Node5 -->
<g id="node5" class="node">
<title>Node5</title>
<g id="a_node5"><a xlink:href="../../d9/df6/classAutocompleteInput.html#a2a4e4b5e31c7e0faffbc67f8b916e081" target="_top" xlink:title=" ">
<polygon fill="white" stroke="black" points="561.5,-411.17 561.5,-441.17 665.5,-441.17 665.5,-411.17 561.5,-411.17"/>
<text text-anchor="start" x="569.5" y="-429.17" font-family="Helvetica,sans-Serif" font-size="10.00">AutocompleteInput::</text>
<text text-anchor="middle" x="613.5" y="-418.17" font-family="Helvetica,sans-Serif" font-size="10.00">current_url</text>
</a>
</g>
</g>
<!-- Node3&#45;&gt;Node5 -->
<g id="edge4" class="edge">
<title>Node3&#45;&gt;Node5</title>
<path fill="none" stroke="midnightblue" d="M495.58,-460.07C513.34,-454.92 533.35,-449.12 551.73,-443.79"/>
<polygon fill="midnightblue" stroke="midnightblue" points="552.83,-447.11 561.46,-440.97 550.88,-440.39 552.83,-447.11"/>
</g>
<!-- Node6 -->
<g id="node6" class="node">
<title>Node6</title>
<g id="a_node6"><a xlink:href="../../d9/df6/classAutocompleteInput.html#ac055dacf90a052c92e2bfe5c01328a95" target="_top" xlink:title=" ">
<polygon fill="white" stroke="black" points="1226.5,-471.67 1226.5,-490.67 1347.5,-490.67 1347.5,-471.67 1226.5,-471.67"/>
<text text-anchor="middle" x="1287" y="-478.67" font-family="Helvetica,sans-Serif" font-size="10.00">AutocompleteInput::text</text>
</a>
</g>
</g>
<!-- Node3&#45;&gt;Node6 -->
<g id="edge5" class="edge">
<title>Node3&#45;&gt;Node6</title>
<path fill="none" stroke="midnightblue" d="M499.77,-490.32C506.48,-493.13 513.06,-496.39 519,-500.17 538.64,-512.65 536.22,-524.43 555,-538.17 643.07,-602.61 666.87,-645.17 776,-645.17 776,-645.17 776,-645.17 959,-645.17 1089.91,-645.17 1222,-538.85 1268.51,-497.42"/>
<polygon fill="midnightblue" stroke="midnightblue" points="1270.87,-500 1275.94,-490.69 1266.18,-494.81 1270.87,-500"/>
</g>
<!-- Node7 -->
<g id="node7" class="node">
<title>Node7</title>
<g id="a_node7"><a xlink:href="../../d5/d36/verbatim__match_8cc.html#abe0d653bed223eab6bf348ed99e3466c" target="_top" xlink:title=" ">
<polygon fill="white" stroke="black" points="555,-509.67 555,-528.67 672,-528.67 672,-509.67 555,-509.67"/>
<text text-anchor="middle" x="613.5" y="-516.67" font-family="Helvetica,sans-Serif" font-size="10.00">VerbatimMatchForURL</text>
</a>
</g>
</g>
<!-- Node3&#45;&gt;Node7 -->
<g id="edge6" class="edge">
<title>Node3&#45;&gt;Node7</title>
<path fill="none" stroke="midnightblue" d="M501.19,-490.19C522.37,-495.7 546.07,-501.87 566.13,-507.1"/>
<polygon fill="midnightblue" stroke="midnightblue" points="565.4,-510.52 575.96,-509.66 567.17,-503.75 565.4,-510.52"/>
</g>
<!-- Node7&#45;&gt;Node6 -->
<g id="edge10" class="edge">
<title>Node7&#45;&gt;Node6</title>
<path fill="none" stroke="midnightblue" d="M623.16,-528.68C638.44,-544.66 671.97,-576.31 708,-588.17 766.26,-607.34 784.74,-591.09 846,-588.17 929.84,-584.16 952.04,-588.28 1034,-570.17 1116.27,-551.99 1208.62,-514.82 1255.35,-494.75"/>
<polygon fill="midnightblue" stroke="midnightblue" points="1256.83,-497.92 1264.61,-490.74 1254.05,-491.5 1256.83,-497.92"/>
</g>
<!-- Node8 -->
<g id="node8" class="node">
<title>Node8</title>
<g id="a_node8"><a xlink:href="../../d5/dc7/classAutocompleteProviderClient.html#a8888c1d0f46749ebb53fc8b2c1ddf3ee" target="_top" xlink:title=" ">
<polygon fill="white" stroke="black" points="708,-315.17 708,-345.17 846,-345.17 846,-315.17 708,-315.17"/>
<text text-anchor="start" x="716" y="-333.17" font-family="Helvetica,sans-Serif" font-size="10.00">AutocompleteProviderClient</text>
<text text-anchor="middle" x="777" y="-322.17" font-family="Helvetica,sans-Serif" font-size="10.00">::Classify</text>
</a>
</g>
</g>
<!-- Node7&#45;&gt;Node8 -->
<g id="edge7" class="edge">
<title>Node7&#45;&gt;Node8</title>
<path fill="none" stroke="midnightblue" d="M659.33,-509.55C664.06,-507.1 668.43,-504.02 672,-500.17 717.14,-451.47 663.67,-404.61 708,-355.17 709.18,-353.85 710.44,-352.6 711.77,-351.41"/>
<polygon fill="midnightblue" stroke="midnightblue" points="714.02,-354.1 719.96,-345.32 709.84,-348.48 714.02,-354.1"/>
</g>
<!-- Node9 -->
<g id="node9" class="node">
<title>Node9</title>
<g id="a_node9"><a xlink:href="../../d9/df6/classAutocompleteInput.html#ade8235d079a10a9ed0afb2b40771cd4d" target="_top" xlink:title=" ">
<polygon fill="white" stroke="black" points="709.5,-548.17 709.5,-578.17 844.5,-578.17 844.5,-548.17 709.5,-548.17"/>
<text text-anchor="start" x="717.5" y="-566.17" font-family="Helvetica,sans-Serif" font-size="10.00">AutocompleteInput::</text>
<text text-anchor="middle" x="777" y="-555.17" font-family="Helvetica,sans-Serif" font-size="10.00">current_page_classification</text>
</a>
</g>
</g>
<!-- Node7&#45;&gt;Node9 -->
<g id="edge8" class="edge">
<title>Node7&#45;&gt;Node9</title>
<path fill="none" stroke="midnightblue" d="M649.54,-528.71C667.48,-533.6 689.91,-539.71 710.88,-545.42"/>
<polygon fill="midnightblue" stroke="midnightblue" points="710.13,-548.85 720.7,-548.1 711.97,-542.1 710.13,-548.85"/>
</g>
<!-- Node10 -->
<g id="node10" class="node">
<title>Node10</title>
<g id="a_node10"><a xlink:href="../../d9/df6/classAutocompleteInput.html#a62c7e3f246976745ef4ac1c7cd72faaa" target="_top" xlink:title=" ">
<polygon fill="white" stroke="black" points="1070,-466.17 1070,-496.17 1174,-496.17 1174,-466.17 1070,-466.17"/>
<text text-anchor="start" x="1078" y="-484.17" font-family="Helvetica,sans-Serif" font-size="10.00">AutocompleteInput::</text>
<text text-anchor="middle" x="1122" y="-473.17" font-family="Helvetica,sans-Serif" font-size="10.00">HasHTTPScheme</text>
</a>
</g>
</g>
<!-- Node7&#45;&gt;Node10 -->
<g id="edge9" class="edge">
<title>Node7&#45;&gt;Node10</title>
<path fill="none" stroke="midnightblue" d="M672.05,-520.78C719.17,-522.9 787.39,-527.81 846,-539.17 862.42,-542.35 865.45,-547.7 882,-550.17 948.81,-560.15 970.21,-572.39 1034,-550.17 1060.28,-541.01 1084.59,-520.24 1100.79,-503.86"/>
<polygon fill="midnightblue" stroke="midnightblue" points="1103.69,-505.89 1108.07,-496.24 1098.63,-501.06 1103.69,-505.89"/>
</g>
<!-- Node11 -->
<g id="node11" class="node">
<title>Node11</title>
<g id="a_node11"><a xlink:href="../../d5/d36/verbatim__match_8cc.html#ac196726f5b4ce701f803ee7c44a7fa13" target="_top" xlink:title=" ">
<polygon fill="white" stroke="black" points="717.5,-364.67 717.5,-383.67 836.5,-383.67 836.5,-364.67 717.5,-364.67"/>
<text text-anchor="middle" x="777" y="-371.67" font-family="Helvetica,sans-Serif" font-size="10.00">VerbatimMatchForInput</text>
</a>
</g>
</g>
<!-- Node7&#45;&gt;Node11 -->
<g id="edge11" class="edge">
<title>Node7&#45;&gt;Node11</title>
<path fill="none" stroke="midnightblue" d="M653.34,-509.66C659.88,-507.15 666.36,-504.03 672,-500.17 714.33,-471.21 748.74,-420.31 765.31,-392.9"/>
<polygon fill="midnightblue" stroke="midnightblue" points="768.52,-394.34 770.58,-383.95 762.49,-390.79 768.52,-394.34"/>
</g>
<!-- Node11&#45;&gt;Node6 -->
<g id="edge29" class="edge">
<title>Node11&#45;&gt;Node6</title>
<path fill="none" stroke="midnightblue" d="M836.68,-365.5C916.08,-356.22 1060.8,-348.11 1174,-391.17 1214.34,-406.51 1251.32,-442.23 1271.05,-463.77"/>
<polygon fill="midnightblue" stroke="midnightblue" points="1268.69,-466.39 1277.96,-471.52 1273.91,-461.73 1268.69,-466.39"/>
</g>
<!-- Node11&#45;&gt;Node10 -->
<g id="edge27" class="edge">
<title>Node11&#45;&gt;Node10</title>
<path fill="none" stroke="midnightblue" d="M785.91,-383.95C801.82,-402.79 839.76,-443.8 882,-461.17 938.99,-484.6 1009.95,-487.62 1059.69,-486"/>
<polygon fill="midnightblue" stroke="midnightblue" points="1060.11,-489.49 1069.97,-485.59 1059.83,-482.5 1060.11,-489.49"/>
</g>
<!-- Node12 -->
<g id="node12" class="node">
<title>Node12</title>
<g id="a_node12"><a xlink:href="../../d9/df6/classAutocompleteInput.html#a698290b314c49fcc2c4490b9e32e728a" target="_top" xlink:title=" ">
<polygon fill="white" stroke="black" points="899.5,-285.67 899.5,-326.67 1016.5,-326.67 1016.5,-285.67 899.5,-285.67"/>
<text text-anchor="start" x="907.5" y="-314.67" font-family="Helvetica,sans-Serif" font-size="10.00">AutocompleteInput::</text>
<text text-anchor="start" x="907.5" y="-303.67" font-family="Helvetica,sans-Serif" font-size="10.00">added_default_scheme</text>
<text text-anchor="middle" x="958" y="-292.67" font-family="Helvetica,sans-Serif" font-size="10.00">_to_typed_url</text>
</a>
</g>
</g>
<!-- Node11&#45;&gt;Node12 -->
<g id="edge12" class="edge">
<title>Node11&#45;&gt;Node12</title>
<path fill="none" stroke="midnightblue" d="M813.56,-364.6C824.09,-361.53 835.59,-357.93 846,-354.17 865.08,-347.26 885.58,-338.73 903.7,-330.78"/>
<polygon fill="midnightblue" stroke="midnightblue" points="905.21,-333.94 912.94,-326.69 902.38,-327.54 905.21,-333.94"/>
</g>
<!-- Node13 -->
<g id="node13" class="node">
<title>Node13</title>
<g id="a_node13"><a xlink:href="../../dc/db8/autocomplete__match__classification_8cc.html#a24f64d2639070ff605d2c295d6c4b328" target="_top" xlink:title=" ">
<polygon fill="white" stroke="black" points="902,-247.67 902,-266.67 1014,-266.67 1014,-247.67 902,-247.67"/>
<text text-anchor="middle" x="958" y="-254.67" font-family="Helvetica,sans-Serif" font-size="10.00">ClassifyTermMatches</text>
</a>
</g>
</g>
<!-- Node11&#45;&gt;Node13 -->
<g id="edge13" class="edge">
<title>Node11&#45;&gt;Node13</title>
<path fill="none" stroke="midnightblue" d="M828.8,-364.57C835.04,-361.91 840.97,-358.51 846,-354.17 874.9,-329.22 852.63,-300.57 882,-276.17 885.25,-273.46 888.84,-271.14 892.64,-269.14"/>
<polygon fill="midnightblue" stroke="midnightblue" points="894.1,-272.32 901.79,-265.04 891.23,-265.93 894.1,-272.32"/>
</g>
<!-- Node14 -->
<g id="node14" class="node">
<title>Node14</title>
<g id="a_node14"><a xlink:href="../../d9/df6/classAutocompleteInput.html#a71cbe5d008493b29bf38ab67d34268a6" target="_top" xlink:title=" ">
<polygon fill="white" stroke="black" points="882,-149.67 882,-190.67 1034,-190.67 1034,-149.67 882,-149.67"/>
<text text-anchor="start" x="890" y="-178.67" font-family="Helvetica,sans-Serif" font-size="10.00">AutocompleteInput::</text>
<text text-anchor="start" x="890" y="-167.67" font-family="Helvetica,sans-Serif" font-size="10.00">FormattedStringWithEquivalent</text>
<text text-anchor="middle" x="958" y="-156.67" font-family="Helvetica,sans-Serif" font-size="10.00">Meaning</text>
</a>
</g>
</g>
<!-- Node11&#45;&gt;Node14 -->
<g id="edge14" class="edge">
<title>Node11&#45;&gt;Node14</title>
<path fill="none" stroke="midnightblue" d="M831.32,-364.65C836.78,-361.96 841.84,-358.53 846,-354.17 892.98,-304.83 838.86,-257.9 882,-205.17 884.42,-202.21 887.14,-199.5 890.08,-197"/>
<polygon fill="midnightblue" stroke="midnightblue" points="892.37,-199.66 898.3,-190.88 888.19,-194.04 892.37,-199.66"/>
</g>
<!-- Node22 -->
<g id="node22" class="node">
<title>Node22</title>
<g id="a_node22"><a xlink:href="../../d9/df6/classAutocompleteInput.html#a5d6111d5ac18400cdf809820dfab9ab0" target="_top" xlink:title=" ">
<polygon fill="white" stroke="black" points="1225.5,-278.67 1225.5,-297.67 1348.5,-297.67 1348.5,-278.67 1225.5,-278.67"/>
<text text-anchor="middle" x="1287" y="-285.67" font-family="Helvetica,sans-Serif" font-size="10.00">AutocompleteInput::type</text>
</a>
</g>
</g>
<!-- Node11&#45;&gt;Node22 -->
<g id="edge33" class="edge">
<title>Node11&#45;&gt;Node22</title>
<path fill="none" stroke="midnightblue" d="M830.72,-364.55C836.35,-361.88 841.62,-358.49 846,-354.17 884.45,-316.28 838.54,-270.19 882,-238.17 936.39,-198.1 966.77,-231.56 1034,-238.17 1106.67,-245.31 1189.46,-263.77 1239.7,-276.14"/>
<polygon fill="midnightblue" stroke="midnightblue" points="1239.06,-279.59 1249.61,-278.61 1240.75,-272.8 1239.06,-279.59"/>
</g>
<!-- Node23 -->
<g id="node23" class="node">
<title>Node23</title>
<g id="a_node23"><a xlink:href="../../d5/dc7/classAutocompleteProviderClient.html#aeb7ca420d3164ab0a85826fe7eb8007a" target="_top" xlink:title=" ">
<polygon fill="white" stroke="black" points="889,-510.17 889,-540.17 1027,-540.17 1027,-510.17 889,-510.17"/>
<text text-anchor="start" x="897" y="-528.17" font-family="Helvetica,sans-Serif" font-size="10.00">AutocompleteProviderClient</text>
<text text-anchor="middle" x="958" y="-517.17" font-family="Helvetica,sans-Serif" font-size="10.00">::GetSchemeClassifier</text>
</a>
</g>
</g>
<!-- Node11&#45;&gt;Node23 -->
<g id="edge25" class="edge">
<title>Node11&#45;&gt;Node23</title>
<path fill="none" stroke="midnightblue" d="M783.85,-383.7C798.04,-406.1 836.48,-462.63 882,-495.17 887.52,-499.11 893.63,-502.64 899.91,-505.76"/>
<polygon fill="midnightblue" stroke="midnightblue" points="898.65,-509.03 909.19,-510.05 901.58,-502.68 898.65,-509.03"/>
</g>
<!-- Node24 -->
<g id="node24" class="node">
<title>Node24</title>
<g id="a_node24"><a xlink:href="../../d5/dc7/classAutocompleteProviderClient.html#adba197163b53e433c2114b677ae4e412" target="_top" xlink:title=" ">
<polygon fill="white" stroke="black" points="889,-100.17 889,-130.17 1027,-130.17 1027,-100.17 889,-100.17"/>
<text text-anchor="start" x="897" y="-118.17" font-family="Helvetica,sans-Serif" font-size="10.00">AutocompleteProviderClient</text>
<text text-anchor="middle" x="958" y="-107.17" font-family="Helvetica,sans-Serif" font-size="10.00">::GetTemplateURLService</text>
</a>
</g>
</g>
<!-- Node11&#45;&gt;Node24 -->
<g id="edge26" class="edge">
<title>Node11&#45;&gt;Node24</title>
<path fill="none" stroke="midnightblue" d="M832.29,-364.59C837.44,-361.91 842.16,-358.49 846,-354.17 910.01,-282.02 819.29,-213.44 882,-140.17 883.03,-138.96 884.12,-137.81 885.27,-136.72"/>
<polygon fill="midnightblue" stroke="midnightblue" points="887.78,-139.2 893.5,-130.28 883.46,-133.69 887.78,-139.2"/>
</g>
<!-- Node25 -->
<g id="node25" class="node">
<title>Node25</title>
<g id="a_node25"><a xlink:href="../../d9/df6/classAutocompleteInput.html#ab8ce6e631e733fd45c605a2a49dac8ba" target="_top" xlink:title=" ">
<polygon fill="white" stroke="black" points="1070,-401.17 1070,-431.17 1174,-431.17 1174,-401.17 1070,-401.17"/>
<text text-anchor="start" x="1078" y="-419.17" font-family="Helvetica,sans-Serif" font-size="10.00">AutocompleteInput::</text>
<text text-anchor="middle" x="1122" y="-408.17" font-family="Helvetica,sans-Serif" font-size="10.00">HasHTTPSScheme</text>
</a>
</g>
</g>
<!-- Node11&#45;&gt;Node25 -->
<g id="edge28" class="edge">
<title>Node11&#45;&gt;Node25</title>
<path fill="none" stroke="midnightblue" d="M836.57,-381.34C898.74,-388.95 996.55,-400.93 1059.73,-408.66"/>
<polygon fill="midnightblue" stroke="midnightblue" points="1059.59,-412.17 1069.94,-409.92 1060.44,-405.23 1059.59,-412.17"/>
</g>
<!-- Node26 -->
<g id="node26" class="node">
<title>Node26</title>
<g id="a_node26"><a xlink:href="../../dd/de9/classAutocompleteProvider.html#af9ab1cdf51a24eb678de051dec12ab3c" target="_top" xlink:title=" ">
<polygon fill="white" stroke="black" points="901.5,-422.17 901.5,-452.17 1014.5,-452.17 1014.5,-422.17 901.5,-422.17"/>
<text text-anchor="start" x="909.5" y="-440.17" font-family="Helvetica,sans-Serif" font-size="10.00">AutocompleteProvider</text>
<text text-anchor="middle" x="958" y="-429.17" font-family="Helvetica,sans-Serif" font-size="10.00">::TrimSchemePrefix</text>
</a>
</g>
</g>
<!-- Node11&#45;&gt;Node26 -->
<g id="edge30" class="edge">
<title>Node11&#45;&gt;Node26</title>
<path fill="none" stroke="midnightblue" d="M805.19,-383.74C831.42,-392.97 871.84,-407.19 904.38,-418.65"/>
<polygon fill="midnightblue" stroke="midnightblue" points="903.6,-422.08 914.2,-422.1 905.93,-415.48 903.6,-422.08"/>
</g>
<!-- Node15 -->
<g id="node15" class="node">
<title>Node15</title>
<g id="a_node15"><a xlink:href="../../d9/df6/classAutocompleteInput.html#a5e4baa54984f463b174191f60f0038aa" target="_top" xlink:title=" ">
<polygon fill="white" stroke="black" points="1070,-155.17 1070,-185.17 1174,-185.17 1174,-155.17 1070,-155.17"/>
<text text-anchor="start" x="1078" y="-173.17" font-family="Helvetica,sans-Serif" font-size="10.00">AutocompleteInput::</text>
<text text-anchor="middle" x="1122" y="-162.17" font-family="Helvetica,sans-Serif" font-size="10.00">Parse</text>
</a>
</g>
</g>
<!-- Node14&#45;&gt;Node15 -->
<g id="edge15" class="edge">
<title>Node14&#45;&gt;Node15</title>
<path fill="none" stroke="midnightblue" d="M1034.31,-170.17C1042.89,-170.17 1051.55,-170.17 1059.91,-170.17"/>
<polygon fill="midnightblue" stroke="midnightblue" points="1059.93,-173.67 1069.93,-170.17 1059.93,-166.67 1059.93,-173.67"/>
</g>
<!-- Node15&#45;&gt;Node6 -->
<g id="edge23" class="edge">
<title>Node15&#45;&gt;Node6</title>
<path fill="none" stroke="midnightblue" d="M1130.86,-185.17C1157.86,-236.68 1246.74,-406.25 1276.32,-462.7"/>
<polygon fill="midnightblue" stroke="midnightblue" points="1273.24,-464.37 1280.99,-471.6 1279.44,-461.12 1273.24,-464.37"/>
</g>
<!-- Node16 -->
<g id="node16" class="node">
<title>Node16</title>
<g id="a_node16"><a xlink:href="../../d9/df6/classAutocompleteInput.html#a419d05e14c86f18c137fbb4057fedb04" target="_top" xlink:title=" ">
<polygon fill="white" stroke="black" points="1235,-180.17 1235,-210.17 1339,-210.17 1339,-180.17 1235,-180.17"/>
<text text-anchor="start" x="1243" y="-198.17" font-family="Helvetica,sans-Serif" font-size="10.00">AutocompleteInput::</text>
<text text-anchor="middle" x="1287" y="-187.17" font-family="Helvetica,sans-Serif" font-size="10.00">canonicalized_url</text>
</a>
</g>
</g>
<!-- Node15&#45;&gt;Node16 -->
<g id="edge16" class="edge">
<title>Node15&#45;&gt;Node16</title>
<path fill="none" stroke="midnightblue" d="M1174.13,-178.01C1190.13,-180.46 1207.96,-183.2 1224.6,-185.75"/>
<polygon fill="midnightblue" stroke="midnightblue" points="1224.36,-189.25 1234.77,-187.31 1225.42,-182.34 1224.36,-189.25"/>
</g>
<!-- Node17 -->
<g id="node17" class="node">
<title>Node17</title>
<g id="a_node17"><a xlink:href="../../d9/df6/classAutocompleteInput.html#a4390207a7b741fc348525b430c3c3e27" target="_top" xlink:title=" ">
<polygon fill="white" stroke="black" points="1235,-131.17 1235,-161.17 1339,-161.17 1339,-131.17 1235,-131.17"/>
<text text-anchor="start" x="1243" y="-149.17" font-family="Helvetica,sans-Serif" font-size="10.00">AutocompleteInput::</text>
<text text-anchor="middle" x="1287" y="-138.17" font-family="Helvetica,sans-Serif" font-size="10.00">desired_tld</text>
</a>
</g>
</g>
<!-- Node15&#45;&gt;Node17 -->
<g id="edge17" class="edge">
<title>Node15&#45;&gt;Node17</title>
<path fill="none" stroke="midnightblue" d="M1174.13,-162.64C1190.13,-160.28 1207.96,-157.66 1224.6,-155.21"/>
<polygon fill="midnightblue" stroke="midnightblue" points="1225.39,-158.63 1234.77,-153.71 1224.37,-151.7 1225.39,-158.63"/>
</g>
<!-- Node18 -->
<g id="node18" class="node">
<title>Node18</title>
<g id="a_node18"><a xlink:href="../../db/df5/classAutocompleteSchemeClassifier.html#af5c27290677874e2772b285dda84fbf5" target="_top" xlink:title=" ">
<polygon fill="white" stroke="black" points="1210,-82.17 1210,-112.17 1364,-112.17 1364,-82.17 1210,-82.17"/>
<text text-anchor="start" x="1218" y="-100.17" font-family="Helvetica,sans-Serif" font-size="10.00">AutocompleteSchemeClassifier</text>
<text text-anchor="middle" x="1287" y="-89.17" font-family="Helvetica,sans-Serif" font-size="10.00">::GetInputTypeForScheme</text>
</a>
</g>
</g>
<!-- Node15&#45;&gt;Node18 -->
<g id="edge18" class="edge">
<title>Node15&#45;&gt;Node18</title>
<path fill="none" stroke="midnightblue" d="M1146.69,-155.05C1163.8,-144.58 1187.74,-130.83 1210,-121.17 1214.37,-119.27 1218.94,-117.45 1223.58,-115.72"/>
<polygon fill="midnightblue" stroke="midnightblue" points="1224.91,-118.96 1233.15,-112.3 1222.55,-112.37 1224.91,-118.96"/>
</g>
<!-- Node19 -->
<g id="node19" class="node">
<title>Node19</title>
<g id="a_node19"><a xlink:href="../../d9/df6/classAutocompleteInput.html#aafe7f25c093a4b15b084ee4ab7f49f1f" target="_top" xlink:title=" ">
<polygon fill="white" stroke="black" points="1221,-33.17 1221,-63.17 1353,-63.17 1353,-33.17 1221,-33.17"/>
<text text-anchor="start" x="1229" y="-51.17" font-family="Helvetica,sans-Serif" font-size="10.00">AutocompleteInput::</text>
<text text-anchor="middle" x="1287" y="-40.17" font-family="Helvetica,sans-Serif" font-size="10.00">NumNonHostComponents</text>
</a>
</g>
</g>
<!-- Node15&#45;&gt;Node19 -->
<g id="edge19" class="edge">
<title>Node15&#45;&gt;Node19</title>
<path fill="none" stroke="midnightblue" d="M1132.6,-154.92C1146.91,-133.41 1175.83,-94.33 1210,-72.17 1212.45,-70.58 1215.01,-69.09 1217.65,-67.69"/>
<polygon fill="midnightblue" stroke="midnightblue" points="1219.35,-70.76 1226.87,-63.3 1216.33,-64.44 1219.35,-70.76"/>
</g>
<!-- Node20 -->
<g id="node20" class="node">
<title>Node20</title>
<g id="a_node20"><a xlink:href="../../d9/df6/classAutocompleteInput.html#a3ac662d726d6c8788dbcc199397e8ba5" target="_top" xlink:title=" ">
<polygon fill="white" stroke="black" points="1400,-11.17 1400,-41.17 1504,-41.17 1504,-11.17 1400,-11.17"/>
<text text-anchor="start" x="1408" y="-29.17" font-family="Helvetica,sans-Serif" font-size="10.00">AutocompleteInput::</text>
<text text-anchor="middle" x="1452" y="-18.17" font-family="Helvetica,sans-Serif" font-size="10.00">parts</text>
</a>
</g>
</g>
<!-- Node15&#45;&gt;Node20 -->
<g id="edge21" class="edge">
<title>Node15&#45;&gt;Node20</title>
<path fill="none" stroke="midnightblue" d="M1126.65,-154.95C1135.09,-123.56 1159.25,-52.1 1210,-23.17 1264.7,8.02 1338.35,1.51 1389.79,-9.16"/>
<polygon fill="midnightblue" stroke="midnightblue" points="1389.25,-12.62 1399.76,-11.34 1390.74,-5.79 1389.25,-12.62"/>
</g>
<!-- Node21 -->
<g id="node21" class="node">
<title>Node21</title>
<g id="a_node21"><a xlink:href="../../d9/df6/classAutocompleteInput.html#a9f88d669e8aa433c507320111a7b38a8" target="_top" xlink:title=" ">
<polygon fill="white" stroke="black" points="1235,-229.17 1235,-259.17 1339,-259.17 1339,-229.17 1235,-229.17"/>
<text text-anchor="start" x="1243" y="-247.17" font-family="Helvetica,sans-Serif" font-size="10.00">AutocompleteInput::</text>
<text text-anchor="middle" x="1287" y="-236.17" font-family="Helvetica,sans-Serif" font-size="10.00">scheme</text>
</a>
</g>
</g>
<!-- Node15&#45;&gt;Node21 -->
<g id="edge22" class="edge">
<title>Node15&#45;&gt;Node21</title>
<path fill="none" stroke="midnightblue" d="M1146.72,-185.2C1163.86,-195.64 1187.79,-209.37 1210,-219.17 1215.08,-221.41 1220.43,-223.56 1225.84,-225.6"/>
<polygon fill="midnightblue" stroke="midnightblue" points="1225.01,-229.02 1235.6,-229.13 1227.39,-222.43 1225.01,-229.02"/>
</g>
<!-- Node15&#45;&gt;Node22 -->
<g id="edge24" class="edge">
<title>Node15&#45;&gt;Node22</title>
<path fill="none" stroke="midnightblue" d="M1149.68,-185.21C1158.1,-190.77 1167.02,-197.58 1174,-205.17 1195.85,-228.89 1184.41,-248.54 1210,-268.17 1212.99,-270.46 1216.22,-272.49 1219.6,-274.29"/>
<polygon fill="midnightblue" stroke="midnightblue" points="1218.31,-277.55 1228.86,-278.54 1221.22,-271.19 1218.31,-277.55"/>
</g>
<!-- Node19&#45;&gt;Node20 -->
<g id="edge20" class="edge">
<title>Node19&#45;&gt;Node20</title>
<path fill="none" stroke="midnightblue" d="M1353.36,-39.35C1365.35,-37.73 1377.82,-36.04 1389.69,-34.44"/>
<polygon fill="midnightblue" stroke="midnightblue" points="1390.49,-37.87 1399.93,-33.06 1389.55,-30.93 1390.49,-37.87"/>
</g>
<!-- Node26&#45;&gt;Node10 -->
<g id="edge31" class="edge">
<title>Node26&#45;&gt;Node10</title>
<path fill="none" stroke="midnightblue" d="M1014.3,-452.19C1029.04,-456.19 1045.04,-460.54 1060.06,-464.62"/>
<polygon fill="midnightblue" stroke="midnightblue" points="1059.2,-468.01 1069.77,-467.25 1061.03,-461.25 1059.2,-468.01"/>
</g>
<!-- Node26&#45;&gt;Node25 -->
<g id="edge32" class="edge">
<title>Node26&#45;&gt;Node25</title>
<path fill="none" stroke="midnightblue" d="M1014.75,-429.94C1029.25,-428.06 1044.95,-426.03 1059.72,-424.11"/>
<polygon fill="midnightblue" stroke="midnightblue" points="1060.3,-427.56 1069.77,-422.81 1059.4,-420.62 1060.3,-427.56"/>
</g>
<!-- Node31&#45;&gt;Node24 -->
<g id="edge39" class="edge">
<title>Node31&#45;&gt;Node24</title>
<path fill="none" stroke="midnightblue" d="M330.3,-160.99C447.12,-156.26 662.67,-146.04 846,-129.17 856.66,-128.19 867.88,-126.98 878.92,-125.69"/>
<polygon fill="midnightblue" stroke="midnightblue" points="879.47,-129.15 888.98,-124.48 878.64,-122.2 879.47,-129.15"/>
</g>
<!-- Node32&#45;&gt;Node24 -->
<g id="edge41" class="edge">
<title>Node32&#45;&gt;Node24</title>
<path fill="none" stroke="midnightblue" d="M326.23,-115.17C464.46,-115.17 742.58,-115.17 878.55,-115.17"/>
<polygon fill="midnightblue" stroke="midnightblue" points="878.88,-118.67 888.88,-115.17 878.88,-111.67 878.88,-118.67"/>
</g>
</g>
</svg>
        <g id="navigator" transform="translate(0 0)" fill="#404254">
                <rect fill="#f2f5e9" fill-opacity="0.5" stroke="#606060" stroke-width=".5" x="0" y="0" width="60" height="60"/>
                <use id="zoomplus" xlink:href="#zoomPlus" x="17" y="9" onmousedown="handleZoom(evt,'in')"/>
                <use id="zoomminus" xlink:href="#zoomMin" x="42" y="9" onmousedown="handleZoom(evt,'out')"/>
                <use id="reset" xlink:href="#resetDef" x="30" y="36" onmousedown="handleReset()"/>
                <g id="arrowUp" xlink:href="#dirArrow" transform="translate(30 24)" onmousedown="handlePan(0,-1)">
                  <use xlink:href="#rim" fill="#404040">
                        <set attributeName="fill" to="#808080" begin="arrowUp.mouseover" end="arrowUp.mouseout"/>
                  </use>
                  <path fill="none" stroke="white" stroke-width="1.5" d="M0,-3.0v7 M-2.5,-0.5L0,-3.0L2.5,-0.5"/>
                </g>
                <g id="arrowRight" xlink:href="#dirArrow" transform="rotate(90) translate(36 -43)" onmousedown="handlePan(1,0)">
                  <use xlink:href="#rim" fill="#404040">
                        <set attributeName="fill" to="#808080" begin="arrowRight.mouseover" end="arrowRight.mouseout"/>
                  </use>
                  <path fill="none" stroke="white" stroke-width="1.5" d="M0,-3.0v7 M-2.5,-0.5L0,-3.0L2.5,-0.5"/>
                </g>
                <g id="arrowDown" xlink:href="#dirArrow" transform="rotate(180) translate(-30 -48)" onmousedown="handlePan(0,1)">
                  <use xlink:href="#rim" fill="#404040">
                        <set attributeName="fill" to="#808080" begin="arrowDown.mouseover" end="arrowDown.mouseout"/>
                  </use>
                  <path fill="none" stroke="white" stroke-width="1.5" d="M0,-3.0v7 M-2.5,-0.5L0,-3.0L2.5,-0.5"/>
                </g>
                <g id="arrowLeft" xlink:href="#dirArrow" transform="rotate(270) translate(-36 17)" onmousedown="handlePan(-1,0)">
                  <use xlink:href="#rim" fill="#404040">
                        <set attributeName="fill" to="#808080" begin="arrowLeft.mouseover" end="arrowLeft.mouseout"/>
                  </use>
                  <path fill="none" stroke="white" stroke-width="1.5" d="M0,-3.0v7 M-2.5,-0.5L0,-3.0L2.5,-0.5"/>
                </g>
        </g>
        <svg viewBox="0 0 15 15" width="100%" height="30px" preserveAspectRatio="xMaxYMin meet">
         <g id="arrow_out" transform="scale(0.3 0.3)">
          <a xlink:href="classClipboardProvider_a633e0a14e471f56fbbf92cb78ebd8051_cgraph_org.svg" target="_base">
           <rect id="button" ry="5" rx="5" y="6" x="6" height="38" width="38"
                fill="#f2f5e9" fill-opacity="0.5" stroke="#606060" stroke-width="1.0"/>
           <path id="arrow"
             d="M 11.500037,31.436501 C 11.940474,20.09759 22.043105,11.32322 32.158766,21.979434 L 37.068811,17.246167 C 37.068811,17.246167 37.088388,32 37.088388,32 L 22.160133,31.978069 C 22.160133,31.978069 26.997745,27.140456 26.997745,27.140456 C 18.528582,18.264221 13.291696,25.230495 11.500037,31.436501 z"
             style="fill:#404040;"/>
          </a>
         </g>
        </svg>
</svg>
