<?xml version="1.0" encoding="UTF-8" standalone="no"?>
<!DOCTYPE svg PUBLIC "-//W3C//DTD SVG 1.1//EN"
 "http://www.w3.org/Graphics/SVG/1.1/DTD/svg11.dtd">
<!-- Generated by graphviz version 2.43.0 (0)
 -->
<!-- Title: ClipboardProvider::UpdateClipboardTextContent Pages: 1 -->
<svg width="710pt" height="88pt"
 viewBox="0.00 0.00 710.00 88.00" xmlns="http://www.w3.org/2000/svg" xmlns:xlink="http://www.w3.org/1999/xlink">
<g id="graph0" class="graph" transform="scale(1 1) rotate(0) translate(4 84)">
<title>ClipboardProvider::UpdateClipboardTextContent</title>
<polygon fill="white" stroke="transparent" points="-4,4 -4,-84 706,-84 706,4 -4,4"/>
<!-- Node1 -->
<g id="node1" class="node">
<title>Node1</title>
<g id="a_node1"><a xlink:title=" ">
<polygon fill="#bfbfbf" stroke="black" points="559,-24.5 559,-54.5 702,-54.5 702,-24.5 559,-24.5"/>
<text text-anchor="start" x="567" y="-42.5" font-family="Helvetica,sans-Serif" font-size="10.00">ClipboardProvider::</text>
<text text-anchor="middle" x="630.5" y="-31.5" font-family="Helvetica,sans-Serif" font-size="10.00">UpdateClipboardTextContent</text>
</a>
</g>
</g>
<!-- Node2 -->
<g id="node2" class="node">
<title>Node2</title>
<g id="a_node2"><a xlink:href="../../dd/dfc/classClipboardProvider.html#af1b01ebf07aca5e9cbea6b7a0e7d6d46" target="_top" xlink:title=" ">
<polygon fill="white" stroke="black" points="371,-49.5 371,-79.5 495,-79.5 495,-49.5 371,-49.5"/>
<text text-anchor="start" x="379" y="-67.5" font-family="Helvetica,sans-Serif" font-size="10.00">ClipboardProvider::</text>
<text text-anchor="middle" x="433" y="-56.5" font-family="Helvetica,sans-Serif" font-size="10.00">NewClipboardTextMatch</text>
</a>
</g>
</g>
<!-- Node1&#45;&gt;Node2 -->
<g id="edge1" class="edge">
<title>Node1&#45;&gt;Node2</title>
<path fill="none" stroke="midnightblue" d="M548.76,-49.82C530.83,-52.12 512.1,-54.51 495.1,-56.69"/>
<polygon fill="midnightblue" stroke="midnightblue" points="549.44,-53.27 558.92,-48.53 548.56,-46.32 549.44,-53.27"/>
</g>
<!-- Node5 -->
<g id="node5" class="node">
<title>Node5</title>
<g id="a_node5"><a xlink:href="../../dd/dfc/classClipboardProvider.html#a299860b7ef694b2779913b4f068986af" target="_top" xlink:title=" ">
<polygon fill="white" stroke="black" points="343,-0.5 343,-30.5 523,-30.5 523,-0.5 343,-0.5"/>
<text text-anchor="start" x="351" y="-18.5" font-family="Helvetica,sans-Serif" font-size="10.00">ClipboardProvider::</text>
<text text-anchor="middle" x="433" y="-7.5" font-family="Helvetica,sans-Serif" font-size="10.00">OnReceiveTextForMatchWithContent</text>
</a>
</g>
</g>
<!-- Node1&#45;&gt;Node5 -->
<g id="edge4" class="edge">
<title>Node1&#45;&gt;Node5</title>
<path fill="none" stroke="midnightblue" d="M548.75,-29.59C540.32,-28.55 531.72,-27.5 523.2,-26.45"/>
<polygon fill="midnightblue" stroke="midnightblue" points="548.57,-33.09 558.92,-30.84 549.42,-26.14 548.57,-33.09"/>
</g>
<!-- Node3 -->
<g id="node3" class="node">
<title>Node3</title>
<g id="a_node3"><a xlink:href="../../dd/dfc/classClipboardProvider.html#a9d52511ff11ea7899067b053eb568b03" target="_top" xlink:title=" ">
<polygon fill="white" stroke="black" points="171.5,-49.5 171.5,-79.5 271.5,-79.5 271.5,-49.5 171.5,-49.5"/>
<text text-anchor="start" x="179.5" y="-67.5" font-family="Helvetica,sans-Serif" font-size="10.00">ClipboardProvider::</text>
<text text-anchor="middle" x="221.5" y="-56.5" font-family="Helvetica,sans-Serif" font-size="10.00">CreateTextMatch</text>
</a>
</g>
</g>
<!-- Node2&#45;&gt;Node3 -->
<g id="edge2" class="edge">
<title>Node2&#45;&gt;Node3</title>
<path fill="none" stroke="midnightblue" d="M360.67,-64.5C331.41,-64.5 298.26,-64.5 271.77,-64.5"/>
<polygon fill="midnightblue" stroke="midnightblue" points="360.84,-68 370.84,-64.5 360.84,-61 360.84,-68"/>
</g>
<!-- Node4 -->
<g id="node4" class="node">
<title>Node4</title>
<g id="a_node4"><a xlink:href="../../dd/dfc/classClipboardProvider.html#a6333eac4718cb8f1617e6771261d4d86" target="_top" xlink:title=" ">
<polygon fill="white" stroke="black" points="0,-49.5 0,-79.5 100,-79.5 100,-49.5 0,-49.5"/>
<text text-anchor="start" x="8" y="-67.5" font-family="Helvetica,sans-Serif" font-size="10.00">ClipboardProvider::</text>
<text text-anchor="middle" x="50" y="-56.5" font-family="Helvetica,sans-Serif" font-size="10.00">Start</text>
</a>
</g>
</g>
<!-- Node3&#45;&gt;Node4 -->
<g id="edge3" class="edge">
<title>Node3&#45;&gt;Node4</title>
<path fill="none" stroke="midnightblue" d="M161.26,-64.5C141.32,-64.5 119.29,-64.5 100.21,-64.5"/>
<polygon fill="midnightblue" stroke="midnightblue" points="161.47,-68 171.47,-64.5 161.47,-61 161.47,-68"/>
</g>
<!-- Node6 -->
<g id="node6" class="node">
<title>Node6</title>
<g id="a_node6"><a xlink:href="../../dd/dfc/classClipboardProvider.html#a3e1eee50a8861e52bf52bac9442fd649" target="_top" xlink:title=" ">
<polygon fill="white" stroke="black" points="136,-0.5 136,-30.5 307,-30.5 307,-0.5 136,-0.5"/>
<text text-anchor="start" x="144" y="-18.5" font-family="Helvetica,sans-Serif" font-size="10.00">ClipboardProvider::</text>
<text text-anchor="middle" x="221.5" y="-7.5" font-family="Helvetica,sans-Serif" font-size="10.00">UpdateClipboardMatchWithContent</text>
</a>
</g>
</g>
<!-- Node5&#45;&gt;Node6 -->
<g id="edge5" class="edge">
<title>Node5&#45;&gt;Node6</title>
<path fill="none" stroke="midnightblue" d="M332.84,-15.5C324.28,-15.5 315.67,-15.5 307.24,-15.5"/>
<polygon fill="midnightblue" stroke="midnightblue" points="332.85,-19 342.85,-15.5 332.85,-12 332.85,-19"/>
</g>
</g>
</svg>
