<?xml version="1.0" encoding="UTF-8" standalone="no"?>
<!DOCTYPE svg PUBLIC "-//W3C//DTD SVG 1.1//EN"
 "http://www.w3.org/Graphics/SVG/1.1/DTD/svg11.dtd">
<!-- Generated by graphviz version 2.43.0 (0)
 -->
<!-- Title: ClipboardProvider::CreateImageMatch Pages: 1 -->
<svg width="1659pt" height="585pt"
 viewBox="0.00 0.00 1659.00 584.50" xmlns="http://www.w3.org/2000/svg" xmlns:xlink="http://www.w3.org/1999/xlink">
<g id="graph0" class="graph" transform="scale(1 1) rotate(0) translate(4 580.5)">
<title>ClipboardProvider::CreateImageMatch</title>
<polygon fill="white" stroke="transparent" points="-4,4 -4,-580.5 1655,-580.5 1655,4 -4,4"/>
<!-- Node1 -->
<g id="node1" class="node">
<title>Node1</title>
<g id="a_node1"><a xlink:title=" ">
<polygon fill="#bfbfbf" stroke="black" points="0,-45.5 0,-75.5 100,-75.5 100,-45.5 0,-45.5"/>
<text text-anchor="start" x="8" y="-63.5" font-family="Helvetica,sans-Serif" font-size="10.00">ClipboardProvider::</text>
<text text-anchor="middle" x="50" y="-52.5" font-family="Helvetica,sans-Serif" font-size="10.00">CreateImageMatch</text>
</a>
</g>
</g>
<!-- Node2 -->
<g id="node2" class="node">
<title>Node2</title>
<g id="a_node2"><a xlink:href="../../dd/dfc/classClipboardProvider.html#a1b23861507584be5cefe7e3b0bfbe46a" target="_top" xlink:title=" ">
<polygon fill="white" stroke="black" points="153.5,-92.5 153.5,-122.5 291.5,-122.5 291.5,-92.5 153.5,-92.5"/>
<text text-anchor="start" x="161.5" y="-110.5" font-family="Helvetica,sans-Serif" font-size="10.00">ClipboardProvider::</text>
<text text-anchor="middle" x="222.5" y="-99.5" font-family="Helvetica,sans-Serif" font-size="10.00">CreateImageMatchCallback</text>
</a>
</g>
</g>
<!-- Node1&#45;&gt;Node2 -->
<g id="edge1" class="edge">
<title>Node1&#45;&gt;Node2</title>
<path fill="none" stroke="midnightblue" d="M100.32,-74.09C118.07,-78.99 138.37,-84.58 157.22,-89.78"/>
<polygon fill="midnightblue" stroke="midnightblue" points="156.34,-93.17 166.92,-92.45 158.2,-86.42 156.34,-93.17"/>
</g>
<!-- Node33 -->
<g id="node33" class="node">
<title>Node33</title>
<g id="a_node33"><a xlink:href="../../dd/dfc/classClipboardProvider.html#a18a8c09a5a5d8d342bbd529e39a6b8db" target="_top" xlink:title=" ">
<polygon fill="white" stroke="black" points="136,-21.5 136,-51.5 309,-51.5 309,-21.5 136,-21.5"/>
<text text-anchor="start" x="144" y="-39.5" font-family="Helvetica,sans-Serif" font-size="10.00">ClipboardProvider::</text>
<text text-anchor="middle" x="222.5" y="-28.5" font-family="Helvetica,sans-Serif" font-size="10.00">TemplateURLSupportsImageSearch</text>
</a>
</g>
</g>
<!-- Node1&#45;&gt;Node33 -->
<g id="edge41" class="edge">
<title>Node1&#45;&gt;Node33</title>
<path fill="none" stroke="midnightblue" d="M100.32,-53.56C108.46,-52.41 117.14,-51.19 125.97,-49.95"/>
<polygon fill="midnightblue" stroke="midnightblue" points="126.57,-53.4 135.99,-48.54 125.6,-46.46 126.57,-53.4"/>
</g>
<!-- Node3 -->
<g id="node3" class="node">
<title>Node3</title>
<g id="a_node3"><a xlink:href="../../dd/dfc/classClipboardProvider.html#a1f698fcf1a5dcf8674127be7bc1826cd" target="_top" xlink:title=" ">
<polygon fill="white" stroke="black" points="348,-161.5 348,-191.5 474,-191.5 474,-161.5 348,-161.5"/>
<text text-anchor="start" x="356" y="-179.5" font-family="Helvetica,sans-Serif" font-size="10.00">ClipboardProvider::</text>
<text text-anchor="middle" x="411" y="-168.5" font-family="Helvetica,sans-Serif" font-size="10.00">AddImageMatchCallback</text>
</a>
</g>
</g>
<!-- Node2&#45;&gt;Node3 -->
<g id="edge2" class="edge">
<title>Node2&#45;&gt;Node3</title>
<path fill="none" stroke="midnightblue" d="M264.43,-122.64C292.49,-133.02 329.89,-146.86 359.76,-157.91"/>
<polygon fill="midnightblue" stroke="midnightblue" points="358.57,-161.21 369.17,-161.39 361,-154.64 358.57,-161.21"/>
</g>
<!-- Node29 -->
<g id="node29" class="node">
<title>Node29</title>
<g id="a_node29"><a xlink:href="../../dd/dfc/classClipboardProvider.html#a909de8fc0842ef4693baba4f6da1ff4d" target="_top" xlink:title=" ">
<polygon fill="white" stroke="black" points="345,-92.5 345,-122.5 477,-122.5 477,-92.5 345,-92.5"/>
<text text-anchor="start" x="353" y="-110.5" font-family="Helvetica,sans-Serif" font-size="10.00">ClipboardProvider::</text>
<text text-anchor="middle" x="411" y="-99.5" font-family="Helvetica,sans-Serif" font-size="10.00">NewClipboardImageMatch</text>
</a>
</g>
</g>
<!-- Node2&#45;&gt;Node29 -->
<g id="edge36" class="edge">
<title>Node2&#45;&gt;Node29</title>
<path fill="none" stroke="midnightblue" d="M291.62,-107.5C305.61,-107.5 320.4,-107.5 334.63,-107.5"/>
<polygon fill="midnightblue" stroke="midnightblue" points="334.86,-111 344.86,-107.5 334.86,-104 334.86,-111"/>
</g>
<!-- Node4 -->
<g id="node4" class="node">
<title>Node4</title>
<g id="a_node4"><a xlink:href="../../dd/dfc/classClipboardProvider.html#a76c1922f8337d1e5a1f5eaf6fa20fd2c" target="_top" xlink:title=" ">
<polygon fill="white" stroke="black" points="513,-372.5 513,-402.5 666,-402.5 666,-372.5 513,-372.5"/>
<text text-anchor="start" x="521" y="-390.5" font-family="Helvetica,sans-Serif" font-size="10.00">ClipboardProvider::</text>
<text text-anchor="middle" x="589.5" y="-379.5" font-family="Helvetica,sans-Serif" font-size="10.00">AddCreatedMatchWithTracking</text>
</a>
</g>
</g>
<!-- Node3&#45;&gt;Node4 -->
<g id="edge3" class="edge">
<title>Node3&#45;&gt;Node4</title>
<path fill="none" stroke="midnightblue" d="M424.69,-191.67C455.29,-228.25 533.24,-321.44 569.46,-364.74"/>
<polygon fill="midnightblue" stroke="midnightblue" points="566.82,-367.04 575.92,-372.46 572.19,-362.55 566.82,-367.04"/>
</g>
<!-- Node28 -->
<g id="node28" class="node">
<title>Node28</title>
<g id="a_node28"><a xlink:href="../../dc/dce/classAutocompleteProviderListener.html#a5a9a4ed9fe89fc1cce87b4f5ce216581" target="_top" xlink:title=" ">
<polygon fill="white" stroke="black" points="516,-161.5 516,-191.5 663,-191.5 663,-161.5 516,-161.5"/>
<text text-anchor="start" x="524" y="-179.5" font-family="Helvetica,sans-Serif" font-size="10.00">AutocompleteProviderListener</text>
<text text-anchor="middle" x="589.5" y="-168.5" font-family="Helvetica,sans-Serif" font-size="10.00">::OnProviderUpdate</text>
</a>
</g>
</g>
<!-- Node3&#45;&gt;Node28 -->
<g id="edge35" class="edge">
<title>Node3&#45;&gt;Node28</title>
<path fill="none" stroke="midnightblue" d="M474.23,-176.5C484.46,-176.5 495.2,-176.5 505.83,-176.5"/>
<polygon fill="midnightblue" stroke="midnightblue" points="505.97,-180 515.97,-176.5 505.97,-173 505.97,-180"/>
</g>
<!-- Node5 -->
<g id="node5" class="node">
<title>Node5</title>
<g id="a_node5"><a xlink:href="../../d9/df6/classAutocompleteInput.html#a7472629d9340a2e0362e0b11c23ffff9" target="_top" xlink:title=" ">
<polygon fill="white" stroke="black" points="708.5,-372.5 708.5,-402.5 812.5,-402.5 812.5,-372.5 708.5,-372.5"/>
<text text-anchor="start" x="716.5" y="-390.5" font-family="Helvetica,sans-Serif" font-size="10.00">AutocompleteInput::</text>
<text text-anchor="middle" x="760.5" y="-379.5" font-family="Helvetica,sans-Serif" font-size="10.00">current_title</text>
</a>
</g>
</g>
<!-- Node4&#45;&gt;Node5 -->
<g id="edge4" class="edge">
<title>Node4&#45;&gt;Node5</title>
<path fill="none" stroke="midnightblue" d="M666.1,-387.5C676.78,-387.5 687.65,-387.5 698.02,-387.5"/>
<polygon fill="midnightblue" stroke="midnightblue" points="698.2,-391 708.2,-387.5 698.2,-384 698.2,-391"/>
</g>
<!-- Node6 -->
<g id="node6" class="node">
<title>Node6</title>
<g id="a_node6"><a xlink:href="../../d9/df6/classAutocompleteInput.html#a2a4e4b5e31c7e0faffbc67f8b916e081" target="_top" xlink:title=" ">
<polygon fill="white" stroke="black" points="708.5,-323.5 708.5,-353.5 812.5,-353.5 812.5,-323.5 708.5,-323.5"/>
<text text-anchor="start" x="716.5" y="-341.5" font-family="Helvetica,sans-Serif" font-size="10.00">AutocompleteInput::</text>
<text text-anchor="middle" x="760.5" y="-330.5" font-family="Helvetica,sans-Serif" font-size="10.00">current_url</text>
</a>
</g>
</g>
<!-- Node4&#45;&gt;Node6 -->
<g id="edge5" class="edge">
<title>Node4&#45;&gt;Node6</title>
<path fill="none" stroke="midnightblue" d="M642.58,-372.4C660.34,-367.25 680.35,-361.45 698.73,-356.12"/>
<polygon fill="midnightblue" stroke="midnightblue" points="699.83,-359.45 708.46,-353.3 697.88,-352.72 699.83,-359.45"/>
</g>
<!-- Node7 -->
<g id="node7" class="node">
<title>Node7</title>
<g id="a_node7"><a xlink:href="../../d9/df6/classAutocompleteInput.html#ac055dacf90a052c92e2bfe5c01328a95" target="_top" xlink:title=" ">
<polygon fill="white" stroke="black" points="1373.5,-479 1373.5,-498 1494.5,-498 1494.5,-479 1373.5,-479"/>
<text text-anchor="middle" x="1434" y="-486" font-family="Helvetica,sans-Serif" font-size="10.00">AutocompleteInput::text</text>
</a>
</g>
</g>
<!-- Node4&#45;&gt;Node7 -->
<g id="edge6" class="edge">
<title>Node4&#45;&gt;Node7</title>
<path fill="none" stroke="midnightblue" d="M604.42,-402.65C647.23,-447.5 782.56,-576.5 923,-576.5 923,-576.5 923,-576.5 1106,-576.5 1218.86,-576.5 1346.34,-527.01 1403.05,-502.26"/>
<polygon fill="midnightblue" stroke="midnightblue" points="1404.75,-505.33 1412.48,-498.09 1401.92,-498.93 1404.75,-505.33"/>
</g>
<!-- Node8 -->
<g id="node8" class="node">
<title>Node8</title>
<g id="a_node8"><a xlink:href="../../d5/d36/verbatim__match_8cc.html#abe0d653bed223eab6bf348ed99e3466c" target="_top" xlink:title=" ">
<polygon fill="white" stroke="black" points="702,-422 702,-441 819,-441 819,-422 702,-422"/>
<text text-anchor="middle" x="760.5" y="-429" font-family="Helvetica,sans-Serif" font-size="10.00">VerbatimMatchForURL</text>
</a>
</g>
</g>
<!-- Node4&#45;&gt;Node8 -->
<g id="edge7" class="edge">
<title>Node4&#45;&gt;Node8</title>
<path fill="none" stroke="midnightblue" d="M648.19,-402.52C669.37,-408.04 693.07,-414.2 713.13,-419.43"/>
<polygon fill="midnightblue" stroke="midnightblue" points="712.4,-422.86 722.96,-421.99 714.17,-416.08 712.4,-422.86"/>
</g>
<!-- Node8&#45;&gt;Node7 -->
<g id="edge11" class="edge">
<title>Node8&#45;&gt;Node7</title>
<path fill="none" stroke="midnightblue" d="M788.15,-441.01C806.67,-447.24 832.05,-455.03 855,-459.5 1058.83,-499.19 1113.39,-498.13 1321,-493.5 1334.7,-493.19 1349.34,-492.68 1363.36,-492.09"/>
<polygon fill="midnightblue" stroke="midnightblue" points="1363.6,-495.58 1373.44,-491.65 1363.3,-488.59 1363.6,-495.58"/>
</g>
<!-- Node9 -->
<g id="node9" class="node">
<title>Node9</title>
<g id="a_node9"><a xlink:href="../../d5/dc7/classAutocompleteProviderClient.html#a8888c1d0f46749ebb53fc8b2c1ddf3ee" target="_top" xlink:title=" ">
<polygon fill="white" stroke="black" points="855,-372.5 855,-402.5 993,-402.5 993,-372.5 855,-372.5"/>
<text text-anchor="start" x="863" y="-390.5" font-family="Helvetica,sans-Serif" font-size="10.00">AutocompleteProviderClient</text>
<text text-anchor="middle" x="924" y="-379.5" font-family="Helvetica,sans-Serif" font-size="10.00">::Classify</text>
</a>
</g>
</g>
<!-- Node8&#45;&gt;Node9 -->
<g id="edge8" class="edge">
<title>Node8&#45;&gt;Node9</title>
<path fill="none" stroke="midnightblue" d="M796.54,-421.95C814.48,-417.07 836.91,-410.95 857.88,-405.24"/>
<polygon fill="midnightblue" stroke="midnightblue" points="858.97,-408.57 867.7,-402.57 857.13,-401.82 858.97,-408.57"/>
</g>
<!-- Node10 -->
<g id="node10" class="node">
<title>Node10</title>
<g id="a_node10"><a xlink:href="../../d9/df6/classAutocompleteInput.html#ade8235d079a10a9ed0afb2b40771cd4d" target="_top" xlink:title=" ">
<polygon fill="white" stroke="black" points="856.5,-517.5 856.5,-547.5 991.5,-547.5 991.5,-517.5 856.5,-517.5"/>
<text text-anchor="start" x="864.5" y="-535.5" font-family="Helvetica,sans-Serif" font-size="10.00">AutocompleteInput::</text>
<text text-anchor="middle" x="924" y="-524.5" font-family="Helvetica,sans-Serif" font-size="10.00">current_page_classification</text>
</a>
</g>
</g>
<!-- Node8&#45;&gt;Node10 -->
<g id="edge9" class="edge">
<title>Node8&#45;&gt;Node10</title>
<path fill="none" stroke="midnightblue" d="M772.41,-441.15C789.27,-455.73 823.04,-483.67 855,-502.5 861.34,-506.24 868.24,-509.8 875.12,-513.08"/>
<polygon fill="midnightblue" stroke="midnightblue" points="873.9,-516.37 884.45,-517.36 876.82,-510.01 873.9,-516.37"/>
</g>
<!-- Node11 -->
<g id="node11" class="node">
<title>Node11</title>
<g id="a_node11"><a xlink:href="../../d9/df6/classAutocompleteInput.html#a62c7e3f246976745ef4ac1c7cd72faaa" target="_top" xlink:title=" ">
<polygon fill="white" stroke="black" points="1217,-328.5 1217,-358.5 1321,-358.5 1321,-328.5 1217,-328.5"/>
<text text-anchor="start" x="1225" y="-346.5" font-family="Helvetica,sans-Serif" font-size="10.00">AutocompleteInput::</text>
<text text-anchor="middle" x="1269" y="-335.5" font-family="Helvetica,sans-Serif" font-size="10.00">HasHTTPScheme</text>
</a>
</g>
</g>
<!-- Node8&#45;&gt;Node11 -->
<g id="edge10" class="edge">
<title>Node8&#45;&gt;Node11</title>
<path fill="none" stroke="midnightblue" d="M819,-439.74C901.94,-449.26 1058.6,-458.28 1181,-412.5 1206.91,-402.81 1231.12,-382.3 1247.38,-366.14"/>
<polygon fill="midnightblue" stroke="midnightblue" points="1250.23,-368.24 1254.7,-358.63 1245.21,-363.35 1250.23,-368.24"/>
</g>
<!-- Node12 -->
<g id="node12" class="node">
<title>Node12</title>
<g id="a_node12"><a xlink:href="../../d5/d36/verbatim__match_8cc.html#ac196726f5b4ce701f803ee7c44a7fa13" target="_top" xlink:title=" ">
<polygon fill="white" stroke="black" points="864.5,-246 864.5,-265 983.5,-265 983.5,-246 864.5,-246"/>
<text text-anchor="middle" x="924" y="-253" font-family="Helvetica,sans-Serif" font-size="10.00">VerbatimMatchForInput</text>
</a>
</g>
</g>
<!-- Node8&#45;&gt;Node12 -->
<g id="edge12" class="edge">
<title>Node8&#45;&gt;Node12</title>
<path fill="none" stroke="midnightblue" d="M801.89,-422C807.97,-419.51 813.9,-416.39 819,-412.5 825.49,-407.54 885.3,-314.53 911.17,-274.06"/>
<polygon fill="midnightblue" stroke="midnightblue" points="914.26,-275.72 916.69,-265.41 908.36,-271.95 914.26,-275.72"/>
</g>
<!-- Node12&#45;&gt;Node7 -->
<g id="edge30" class="edge">
<title>Node12&#45;&gt;Node7</title>
<path fill="none" stroke="midnightblue" d="M931.28,-265.44C952.66,-299.2 1021.64,-407.62 1029,-412.5 1130.86,-480.09 1277.28,-491.26 1363.02,-491.25"/>
<polygon fill="midnightblue" stroke="midnightblue" points="1363.19,-494.74 1373.17,-491.19 1363.15,-487.74 1363.19,-494.74"/>
</g>
<!-- Node12&#45;&gt;Node11 -->
<g id="edge28" class="edge">
<title>Node12&#45;&gt;Node11</title>
<path fill="none" stroke="midnightblue" d="M935.56,-265.04C953.35,-280.47 991.06,-310.45 1029,-323.5 1086.9,-343.41 1157.13,-347.05 1206.43,-346.54"/>
<polygon fill="midnightblue" stroke="midnightblue" points="1206.68,-350.03 1216.62,-346.37 1206.57,-343.03 1206.68,-350.03"/>
</g>
<!-- Node13 -->
<g id="node13" class="node">
<title>Node13</title>
<g id="a_node13"><a xlink:href="../../d9/df6/classAutocompleteInput.html#a698290b314c49fcc2c4490b9e32e728a" target="_top" xlink:title=" ">
<polygon fill="white" stroke="black" points="1046.5,-186 1046.5,-227 1163.5,-227 1163.5,-186 1046.5,-186"/>
<text text-anchor="start" x="1054.5" y="-215" font-family="Helvetica,sans-Serif" font-size="10.00">AutocompleteInput::</text>
<text text-anchor="start" x="1054.5" y="-204" font-family="Helvetica,sans-Serif" font-size="10.00">added_default_scheme</text>
<text text-anchor="middle" x="1105" y="-193" font-family="Helvetica,sans-Serif" font-size="10.00">_to_typed_url</text>
</a>
</g>
</g>
<!-- Node12&#45;&gt;Node13 -->
<g id="edge13" class="edge">
<title>Node12&#45;&gt;Node13</title>
<path fill="none" stroke="midnightblue" d="M959.94,-245.94C981.68,-239.98 1010.37,-232.13 1036.42,-225"/>
<polygon fill="midnightblue" stroke="midnightblue" points="1037.53,-228.32 1046.25,-222.31 1035.68,-221.57 1037.53,-228.32"/>
</g>
<!-- Node14 -->
<g id="node14" class="node">
<title>Node14</title>
<g id="a_node14"><a xlink:href="../../dc/db8/autocomplete__match__classification_8cc.html#a24f64d2639070ff605d2c295d6c4b328" target="_top" xlink:title=" ">
<polygon fill="white" stroke="black" points="1049,-148 1049,-167 1161,-167 1161,-148 1049,-148"/>
<text text-anchor="middle" x="1105" y="-155" font-family="Helvetica,sans-Serif" font-size="10.00">ClassifyTermMatches</text>
</a>
</g>
</g>
<!-- Node12&#45;&gt;Node14 -->
<g id="edge14" class="edge">
<title>Node12&#45;&gt;Node14</title>
<path fill="none" stroke="midnightblue" d="M934.71,-245.92C952.1,-229.29 990.39,-195.1 1029,-176.5 1033.99,-174.1 1039.32,-171.97 1044.75,-170.1"/>
<polygon fill="midnightblue" stroke="midnightblue" points="1046.1,-173.35 1054.58,-167.01 1043.99,-166.67 1046.1,-173.35"/>
</g>
<!-- Node15 -->
<g id="node15" class="node">
<title>Node15</title>
<g id="a_node15"><a xlink:href="../../d9/df6/classAutocompleteInput.html#a71cbe5d008493b29bf38ab67d34268a6" target="_top" xlink:title=" ">
<polygon fill="white" stroke="black" points="1029,-88 1029,-129 1181,-129 1181,-88 1029,-88"/>
<text text-anchor="start" x="1037" y="-117" font-family="Helvetica,sans-Serif" font-size="10.00">AutocompleteInput::</text>
<text text-anchor="start" x="1037" y="-106" font-family="Helvetica,sans-Serif" font-size="10.00">FormattedStringWithEquivalent</text>
<text text-anchor="middle" x="1105" y="-95" font-family="Helvetica,sans-Serif" font-size="10.00">Meaning</text>
</a>
</g>
</g>
<!-- Node12&#45;&gt;Node15 -->
<g id="edge15" class="edge">
<title>Node12&#45;&gt;Node15</title>
<path fill="none" stroke="midnightblue" d="M931.15,-245.97C945.68,-224.12 984.3,-169.9 1029,-138.5 1031.16,-136.98 1033.41,-135.53 1035.72,-134.13"/>
<polygon fill="midnightblue" stroke="midnightblue" points="1037.84,-136.96 1044.89,-129.05 1034.44,-130.84 1037.84,-136.96"/>
</g>
<!-- Node23 -->
<g id="node23" class="node">
<title>Node23</title>
<g id="a_node23"><a xlink:href="../../d9/df6/classAutocompleteInput.html#a5d6111d5ac18400cdf809820dfab9ab0" target="_top" xlink:title=" ">
<polygon fill="white" stroke="black" points="1372.5,-50 1372.5,-69 1495.5,-69 1495.5,-50 1372.5,-50"/>
<text text-anchor="middle" x="1434" y="-57" font-family="Helvetica,sans-Serif" font-size="10.00">AutocompleteInput::type</text>
</a>
</g>
</g>
<!-- Node12&#45;&gt;Node23 -->
<g id="edge34" class="edge">
<title>Node12&#45;&gt;Node23</title>
<path fill="none" stroke="midnightblue" d="M927.21,-245.95C934.9,-215.12 963.71,-117.93 1029,-78.5 1083.19,-45.78 1261.46,-49.72 1362.14,-54.92"/>
<polygon fill="midnightblue" stroke="midnightblue" points="1362.06,-58.42 1372.23,-55.46 1362.43,-51.43 1362.06,-58.42"/>
</g>
<!-- Node24 -->
<g id="node24" class="node">
<title>Node24</title>
<g id="a_node24"><a xlink:href="../../d5/dc7/classAutocompleteProviderClient.html#aeb7ca420d3164ab0a85826fe7eb8007a" target="_top" xlink:title=" ">
<polygon fill="white" stroke="black" points="1036,-372.5 1036,-402.5 1174,-402.5 1174,-372.5 1036,-372.5"/>
<text text-anchor="start" x="1044" y="-390.5" font-family="Helvetica,sans-Serif" font-size="10.00">AutocompleteProviderClient</text>
<text text-anchor="middle" x="1105" y="-379.5" font-family="Helvetica,sans-Serif" font-size="10.00">::GetSchemeClassifier</text>
</a>
</g>
</g>
<!-- Node12&#45;&gt;Node24 -->
<g id="edge26" class="edge">
<title>Node12&#45;&gt;Node24</title>
<path fill="none" stroke="midnightblue" d="M932.62,-265.22C948.58,-285.01 987.49,-330.41 1029,-357.5 1035.06,-361.45 1041.72,-365.03 1048.49,-368.22"/>
<polygon fill="midnightblue" stroke="midnightblue" points="1047.19,-371.47 1057.75,-372.34 1050.03,-365.08 1047.19,-371.47"/>
</g>
<!-- Node25 -->
<g id="node25" class="node">
<title>Node25</title>
<g id="a_node25"><a xlink:href="../../d5/dc7/classAutocompleteProviderClient.html#adba197163b53e433c2114b677ae4e412" target="_top" xlink:title=" ">
<polygon fill="white" stroke="black" points="1036,-0.5 1036,-30.5 1174,-30.5 1174,-0.5 1036,-0.5"/>
<text text-anchor="start" x="1044" y="-18.5" font-family="Helvetica,sans-Serif" font-size="10.00">AutocompleteProviderClient</text>
<text text-anchor="middle" x="1105" y="-7.5" font-family="Helvetica,sans-Serif" font-size="10.00">::GetTemplateURLService</text>
</a>
</g>
</g>
<!-- Node12&#45;&gt;Node25 -->
<g id="edge27" class="edge">
<title>Node12&#45;&gt;Node25</title>
<path fill="none" stroke="midnightblue" d="M927.2,-245.63C935.06,-212.63 964.74,-104.85 1029,-45.5 1033.12,-41.69 1037.78,-38.34 1042.72,-35.4"/>
<polygon fill="midnightblue" stroke="midnightblue" points="1044.67,-38.33 1051.84,-30.54 1041.37,-32.15 1044.67,-38.33"/>
</g>
<!-- Node26 -->
<g id="node26" class="node">
<title>Node26</title>
<g id="a_node26"><a xlink:href="../../d9/df6/classAutocompleteInput.html#ab8ce6e631e733fd45c605a2a49dac8ba" target="_top" xlink:title=" ">
<polygon fill="white" stroke="black" points="1217,-259.5 1217,-289.5 1321,-289.5 1321,-259.5 1217,-259.5"/>
<text text-anchor="start" x="1225" y="-277.5" font-family="Helvetica,sans-Serif" font-size="10.00">AutocompleteInput::</text>
<text text-anchor="middle" x="1269" y="-266.5" font-family="Helvetica,sans-Serif" font-size="10.00">HasHTTPSScheme</text>
</a>
</g>
</g>
<!-- Node12&#45;&gt;Node26 -->
<g id="edge29" class="edge">
<title>Node12&#45;&gt;Node26</title>
<path fill="none" stroke="midnightblue" d="M983.57,-258.74C1045.74,-262.19 1143.55,-267.61 1206.73,-271.11"/>
<polygon fill="midnightblue" stroke="midnightblue" points="1206.76,-274.61 1216.94,-271.67 1207.15,-267.62 1206.76,-274.61"/>
</g>
<!-- Node27 -->
<g id="node27" class="node">
<title>Node27</title>
<g id="a_node27"><a xlink:href="../../dd/de9/classAutocompleteProvider.html#af9ab1cdf51a24eb678de051dec12ab3c" target="_top" xlink:title=" ">
<polygon fill="white" stroke="black" points="1048.5,-284.5 1048.5,-314.5 1161.5,-314.5 1161.5,-284.5 1048.5,-284.5"/>
<text text-anchor="start" x="1056.5" y="-302.5" font-family="Helvetica,sans-Serif" font-size="10.00">AutocompleteProvider</text>
<text text-anchor="middle" x="1105" y="-291.5" font-family="Helvetica,sans-Serif" font-size="10.00">::TrimSchemePrefix</text>
</a>
</g>
</g>
<!-- Node12&#45;&gt;Node27 -->
<g id="edge31" class="edge">
<title>Node12&#45;&gt;Node27</title>
<path fill="none" stroke="midnightblue" d="M963.84,-265.05C985.63,-270.4 1013.38,-277.23 1038.44,-283.38"/>
<polygon fill="midnightblue" stroke="midnightblue" points="1037.71,-286.81 1048.25,-285.8 1039.38,-280.01 1037.71,-286.81"/>
</g>
<!-- Node16 -->
<g id="node16" class="node">
<title>Node16</title>
<g id="a_node16"><a xlink:href="../../d9/df6/classAutocompleteInput.html#a5e4baa54984f463b174191f60f0038aa" target="_top" xlink:title=" ">
<polygon fill="white" stroke="black" points="1217,-175.5 1217,-205.5 1321,-205.5 1321,-175.5 1217,-175.5"/>
<text text-anchor="start" x="1225" y="-193.5" font-family="Helvetica,sans-Serif" font-size="10.00">AutocompleteInput::</text>
<text text-anchor="middle" x="1269" y="-182.5" font-family="Helvetica,sans-Serif" font-size="10.00">Parse</text>
</a>
</g>
</g>
<!-- Node15&#45;&gt;Node16 -->
<g id="edge16" class="edge">
<title>Node15&#45;&gt;Node16</title>
<path fill="none" stroke="midnightblue" d="M1160.52,-129.13C1167.49,-132.11 1174.46,-135.27 1181,-138.5 1199.89,-147.85 1220.16,-159.84 1236.37,-169.95"/>
<polygon fill="midnightblue" stroke="midnightblue" points="1234.6,-172.97 1244.93,-175.34 1238.34,-167.05 1234.6,-172.97"/>
</g>
<!-- Node16&#45;&gt;Node7 -->
<g id="edge24" class="edge">
<title>Node16&#45;&gt;Node7</title>
<path fill="none" stroke="midnightblue" d="M1286.22,-205.68C1297.35,-216.87 1311.74,-232.96 1321,-249.5 1346.76,-295.49 1335.24,-314.49 1357,-362.5 1375.34,-402.97 1403.84,-446.6 1420.23,-470.43"/>
<polygon fill="midnightblue" stroke="midnightblue" points="1417.48,-472.6 1426.06,-478.81 1423.22,-468.6 1417.48,-472.6"/>
</g>
<!-- Node17 -->
<g id="node17" class="node">
<title>Node17</title>
<g id="a_node17"><a xlink:href="../../d9/df6/classAutocompleteInput.html#a419d05e14c86f18c137fbb4057fedb04" target="_top" xlink:title=" ">
<polygon fill="white" stroke="black" points="1382,-224.5 1382,-254.5 1486,-254.5 1486,-224.5 1382,-224.5"/>
<text text-anchor="start" x="1390" y="-242.5" font-family="Helvetica,sans-Serif" font-size="10.00">AutocompleteInput::</text>
<text text-anchor="middle" x="1434" y="-231.5" font-family="Helvetica,sans-Serif" font-size="10.00">canonicalized_url</text>
</a>
</g>
</g>
<!-- Node16&#45;&gt;Node17 -->
<g id="edge17" class="edge">
<title>Node16&#45;&gt;Node17</title>
<path fill="none" stroke="midnightblue" d="M1320.24,-205.6C1336.89,-210.61 1355.6,-216.23 1372.92,-221.44"/>
<polygon fill="midnightblue" stroke="midnightblue" points="1372.35,-224.92 1382.93,-224.45 1374.36,-218.22 1372.35,-224.92"/>
</g>
<!-- Node18 -->
<g id="node18" class="node">
<title>Node18</title>
<g id="a_node18"><a xlink:href="../../d9/df6/classAutocompleteInput.html#a4390207a7b741fc348525b430c3c3e27" target="_top" xlink:title=" ">
<polygon fill="white" stroke="black" points="1382,-175.5 1382,-205.5 1486,-205.5 1486,-175.5 1382,-175.5"/>
<text text-anchor="start" x="1390" y="-193.5" font-family="Helvetica,sans-Serif" font-size="10.00">AutocompleteInput::</text>
<text text-anchor="middle" x="1434" y="-182.5" font-family="Helvetica,sans-Serif" font-size="10.00">desired_tld</text>
</a>
</g>
</g>
<!-- Node16&#45;&gt;Node18 -->
<g id="edge18" class="edge">
<title>Node16&#45;&gt;Node18</title>
<path fill="none" stroke="midnightblue" d="M1321.13,-190.5C1337.13,-190.5 1354.96,-190.5 1371.6,-190.5"/>
<polygon fill="midnightblue" stroke="midnightblue" points="1371.77,-194 1381.77,-190.5 1371.77,-187 1371.77,-194"/>
</g>
<!-- Node19 -->
<g id="node19" class="node">
<title>Node19</title>
<g id="a_node19"><a xlink:href="../../db/df5/classAutocompleteSchemeClassifier.html#af5c27290677874e2772b285dda84fbf5" target="_top" xlink:title=" ">
<polygon fill="white" stroke="black" points="1357,-126.5 1357,-156.5 1511,-156.5 1511,-126.5 1357,-126.5"/>
<text text-anchor="start" x="1365" y="-144.5" font-family="Helvetica,sans-Serif" font-size="10.00">AutocompleteSchemeClassifier</text>
<text text-anchor="middle" x="1434" y="-133.5" font-family="Helvetica,sans-Serif" font-size="10.00">::GetInputTypeForScheme</text>
</a>
</g>
</g>
<!-- Node16&#45;&gt;Node19 -->
<g id="edge19" class="edge">
<title>Node16&#45;&gt;Node19</title>
<path fill="none" stroke="midnightblue" d="M1320.24,-175.4C1336.89,-170.39 1355.6,-164.77 1372.92,-159.56"/>
<polygon fill="midnightblue" stroke="midnightblue" points="1374.36,-162.78 1382.93,-156.55 1372.35,-156.08 1374.36,-162.78"/>
</g>
<!-- Node20 -->
<g id="node20" class="node">
<title>Node20</title>
<g id="a_node20"><a xlink:href="../../d9/df6/classAutocompleteInput.html#aafe7f25c093a4b15b084ee4ab7f49f1f" target="_top" xlink:title=" ">
<polygon fill="white" stroke="black" points="1368,-322.5 1368,-352.5 1500,-352.5 1500,-322.5 1368,-322.5"/>
<text text-anchor="start" x="1376" y="-340.5" font-family="Helvetica,sans-Serif" font-size="10.00">AutocompleteInput::</text>
<text text-anchor="middle" x="1434" y="-329.5" font-family="Helvetica,sans-Serif" font-size="10.00">NumNonHostComponents</text>
</a>
</g>
</g>
<!-- Node16&#45;&gt;Node20 -->
<g id="edge20" class="edge">
<title>Node16&#45;&gt;Node20</title>
<path fill="none" stroke="midnightblue" d="M1284.72,-205.84C1295.42,-217.37 1309.89,-233.81 1321,-249.5 1339.63,-275.82 1332.02,-292.1 1357,-312.5 1359.07,-314.19 1361.26,-315.77 1363.54,-317.24"/>
<polygon fill="midnightblue" stroke="midnightblue" points="1362.27,-320.55 1372.7,-322.41 1365.71,-314.45 1362.27,-320.55"/>
</g>
<!-- Node21 -->
<g id="node21" class="node">
<title>Node21</title>
<g id="a_node21"><a xlink:href="../../d9/df6/classAutocompleteInput.html#a3ac662d726d6c8788dbcc199397e8ba5" target="_top" xlink:title=" ">
<polygon fill="white" stroke="black" points="1547,-202.5 1547,-232.5 1651,-232.5 1651,-202.5 1547,-202.5"/>
<text text-anchor="start" x="1555" y="-220.5" font-family="Helvetica,sans-Serif" font-size="10.00">AutocompleteInput::</text>
<text text-anchor="middle" x="1599" y="-209.5" font-family="Helvetica,sans-Serif" font-size="10.00">parts</text>
</a>
</g>
</g>
<!-- Node16&#45;&gt;Node21 -->
<g id="edge22" class="edge">
<title>Node16&#45;&gt;Node21</title>
<path fill="none" stroke="midnightblue" d="M1281.88,-175.31C1297.05,-157.29 1325.18,-128.2 1357,-116.5 1421.24,-92.88 1448.78,-87.98 1511,-116.5 1545.32,-132.24 1571.24,-168.94 1585.51,-193.49"/>
<polygon fill="midnightblue" stroke="midnightblue" points="1582.47,-195.22 1590.41,-202.24 1588.58,-191.8 1582.47,-195.22"/>
</g>
<!-- Node22 -->
<g id="node22" class="node">
<title>Node22</title>
<g id="a_node22"><a xlink:href="../../d9/df6/classAutocompleteInput.html#a9f88d669e8aa433c507320111a7b38a8" target="_top" xlink:title=" ">
<polygon fill="white" stroke="black" points="1382,-273.5 1382,-303.5 1486,-303.5 1486,-273.5 1382,-273.5"/>
<text text-anchor="start" x="1390" y="-291.5" font-family="Helvetica,sans-Serif" font-size="10.00">AutocompleteInput::</text>
<text text-anchor="middle" x="1434" y="-280.5" font-family="Helvetica,sans-Serif" font-size="10.00">scheme</text>
</a>
</g>
</g>
<!-- Node16&#45;&gt;Node22 -->
<g id="edge23" class="edge">
<title>Node16&#45;&gt;Node22</title>
<path fill="none" stroke="midnightblue" d="M1284.39,-205.62C1300.65,-221.92 1328.57,-247.68 1357,-263.5 1361.85,-266.2 1367.05,-268.67 1372.35,-270.91"/>
<polygon fill="midnightblue" stroke="midnightblue" points="1371.4,-274.3 1381.98,-274.7 1373.96,-267.78 1371.4,-274.3"/>
</g>
<!-- Node16&#45;&gt;Node23 -->
<g id="edge25" class="edge">
<title>Node16&#45;&gt;Node23</title>
<path fill="none" stroke="midnightblue" d="M1278.35,-175.37C1291.88,-152.22 1320.76,-108.13 1357,-83.5 1363.44,-79.12 1370.71,-75.51 1378.15,-72.54"/>
<polygon fill="midnightblue" stroke="midnightblue" points="1379.4,-75.81 1387.61,-69.11 1377.01,-69.23 1379.4,-75.81"/>
</g>
<!-- Node20&#45;&gt;Node21 -->
<g id="edge21" class="edge">
<title>Node20&#45;&gt;Node21</title>
<path fill="none" stroke="midnightblue" d="M1491.71,-322.48C1498.45,-319.65 1505.05,-316.34 1511,-312.5 1540.39,-293.51 1566.35,-262.25 1582.1,-240.81"/>
<polygon fill="midnightblue" stroke="midnightblue" points="1585.02,-242.73 1588,-232.57 1579.33,-238.66 1585.02,-242.73"/>
</g>
<!-- Node27&#45;&gt;Node11 -->
<g id="edge32" class="edge">
<title>Node27&#45;&gt;Node11</title>
<path fill="none" stroke="midnightblue" d="M1161.3,-314.52C1176.04,-318.52 1192.04,-322.87 1207.06,-326.95"/>
<polygon fill="midnightblue" stroke="midnightblue" points="1206.2,-330.34 1216.77,-329.58 1208.03,-323.59 1206.2,-330.34"/>
</g>
<!-- Node27&#45;&gt;Node26 -->
<g id="edge33" class="edge">
<title>Node27&#45;&gt;Node26</title>
<path fill="none" stroke="midnightblue" d="M1161.75,-290.9C1176.25,-288.66 1191.95,-286.24 1206.72,-283.96"/>
<polygon fill="midnightblue" stroke="midnightblue" points="1207.42,-287.39 1216.77,-282.41 1206.35,-280.47 1207.42,-287.39"/>
</g>
<!-- Node30 -->
<g id="node30" class="node">
<title>Node30</title>
<g id="a_node30"><a xlink:href="../../dd/dfc/classClipboardProvider.html#a827571be04b5f6e77209bacc207b8a4e" target="_top" xlink:title=" ">
<polygon fill="white" stroke="black" points="513.5,-63.5 513.5,-93.5 665.5,-93.5 665.5,-63.5 513.5,-63.5"/>
<text text-anchor="start" x="521.5" y="-81.5" font-family="Helvetica,sans-Serif" font-size="10.00">ClipboardProvider::</text>
<text text-anchor="middle" x="589.5" y="-70.5" font-family="Helvetica,sans-Serif" font-size="10.00">ConstructImageMatchCallback</text>
</a>
</g>
</g>
<!-- Node29&#45;&gt;Node30 -->
<g id="edge37" class="edge">
<title>Node29&#45;&gt;Node30</title>
<path fill="none" stroke="midnightblue" d="M477.22,-96.78C485.78,-95.38 494.66,-93.92 503.48,-92.47"/>
<polygon fill="midnightblue" stroke="midnightblue" points="504.12,-95.91 513.42,-90.84 502.98,-89 504.12,-95.91"/>
</g>
<!-- Node32 -->
<g id="node32" class="node">
<title>Node32</title>
<g id="a_node32"><a xlink:href="../../dd/dfc/classClipboardProvider.html#ad9abd990dac208b7ffb3719c41e2003e" target="_top" xlink:title=" ">
<polygon fill="white" stroke="black" points="530.5,-112.5 530.5,-142.5 648.5,-142.5 648.5,-112.5 530.5,-112.5"/>
<text text-anchor="start" x="538.5" y="-130.5" font-family="Helvetica,sans-Serif" font-size="10.00">ClipboardProvider::</text>
<text text-anchor="middle" x="589.5" y="-119.5" font-family="Helvetica,sans-Serif" font-size="10.00">EncodeClipboardImage</text>
</a>
</g>
</g>
<!-- Node29&#45;&gt;Node32 -->
<g id="edge40" class="edge">
<title>Node29&#45;&gt;Node32</title>
<path fill="none" stroke="midnightblue" d="M477.22,-114.89C491.21,-116.48 506.02,-118.15 520.13,-119.75"/>
<polygon fill="midnightblue" stroke="midnightblue" points="519.92,-123.25 530.25,-120.9 520.7,-116.3 519.92,-123.25"/>
</g>
<!-- Node30&#45;&gt;Node25 -->
<g id="edge38" class="edge">
<title>Node30&#45;&gt;Node25</title>
<path fill="none" stroke="midnightblue" d="M665.81,-69.43C746.68,-59.67 878.95,-43.63 993,-29.5 1003.63,-28.18 1014.82,-26.78 1025.85,-25.4"/>
<polygon fill="midnightblue" stroke="midnightblue" points="1026.43,-28.86 1035.91,-24.13 1025.55,-21.91 1026.43,-28.86"/>
</g>
<!-- Node31 -->
<g id="node31" class="node">
<title>Node31</title>
<g id="a_node31"><a xlink:href="../../dd/dfc/classClipboardProvider.html#a00658de808c1e39442580fd9492862fd" target="_top" xlink:title=" ">
<polygon fill="white" stroke="black" points="702.5,-82.5 702.5,-112.5 818.5,-112.5 818.5,-82.5 702.5,-82.5"/>
<text text-anchor="start" x="710.5" y="-100.5" font-family="Helvetica,sans-Serif" font-size="10.00">ClipboardProvider::</text>
<text text-anchor="middle" x="760.5" y="-89.5" font-family="Helvetica,sans-Serif" font-size="10.00">NewBlankImageMatch</text>
</a>
</g>
</g>
<!-- Node30&#45;&gt;Node31 -->
<g id="edge39" class="edge">
<title>Node30&#45;&gt;Node31</title>
<path fill="none" stroke="midnightblue" d="M665.61,-86.94C674.48,-87.94 683.49,-88.95 692.24,-89.94"/>
<polygon fill="midnightblue" stroke="midnightblue" points="692.05,-93.44 702.38,-91.08 692.83,-86.48 692.05,-93.44"/>
</g>
<!-- Node33&#45;&gt;Node25 -->
<g id="edge42" class="edge">
<title>Node33&#45;&gt;Node25</title>
<path fill="none" stroke="midnightblue" d="M309.34,-28.77C383.25,-22.78 492.81,-15.5 588.5,-15.5 588.5,-15.5 588.5,-15.5 761.5,-15.5 851.99,-15.5 955.94,-15.5 1025.36,-15.5"/>
<polygon fill="midnightblue" stroke="midnightblue" points="1025.77,-19 1035.77,-15.5 1025.77,-12 1025.77,-19"/>
</g>
</g>
</svg>
