<?xml version="1.0" encoding="UTF-8" standalone="no"?>
<!DOCTYPE svg PUBLIC "-//W3C//DTD SVG 1.1//EN"
 "http://www.w3.org/Graphics/SVG/1.1/DTD/svg11.dtd">
<!-- Generated by graphviz version 2.43.0 (0)
 -->
<!-- Title: OnDeviceHeadProvider::GetOnDeviceHeadModelFilename Pages: 1 -->
<svg width="489pt" height="61pt"
 viewBox="0.00 0.00 489.00 61.00" xmlns="http://www.w3.org/2000/svg" xmlns:xlink="http://www.w3.org/1999/xlink">
<g id="graph0" class="graph" transform="scale(1 1) rotate(0) translate(4 57)">
<title>OnDeviceHeadProvider::GetOnDeviceHeadModelFilename</title>
<polygon fill="white" stroke="transparent" points="-4,4 -4,-57 485,-57 485,4 -4,4"/>
<!-- Node1 -->
<g id="node1" class="node">
<title>Node1</title>
<g id="a_node1"><a xlink:title=" ">
<polygon fill="#bfbfbf" stroke="black" points="310,-0.5 310,-30.5 481,-30.5 481,-0.5 310,-0.5"/>
<text text-anchor="start" x="318" y="-18.5" font-family="Helvetica,sans-Serif" font-size="10.00">OnDeviceHeadProvider</text>
<text text-anchor="middle" x="395.5" y="-7.5" font-family="Helvetica,sans-Serif" font-size="10.00">::GetOnDeviceHeadModelFilename</text>
</a>
</g>
</g>
<!-- Node2 -->
<g id="node2" class="node">
<title>Node2</title>
<g id="a_node2"><a xlink:href="../../d3/d42/classOnDeviceHeadProvider.html#addacd3b624c2713c9396f57cdf7c8a69" target="_top" xlink:title=" ">
<polygon fill="white" stroke="black" points="155,-22.5 155,-52.5 274,-52.5 274,-22.5 155,-22.5"/>
<text text-anchor="start" x="163" y="-40.5" font-family="Helvetica,sans-Serif" font-size="10.00">OnDeviceHeadProvider</text>
<text text-anchor="middle" x="214.5" y="-29.5" font-family="Helvetica,sans-Serif" font-size="10.00">::DoSearch</text>
</a>
</g>
</g>
<!-- Node1&#45;&gt;Node2 -->
<g id="edge1" class="edge">
<title>Node1&#45;&gt;Node2</title>
<path fill="none" stroke="midnightblue" d="M300.02,-27.11C291.21,-28.2 282.46,-29.27 274.12,-30.3"/>
<polygon fill="midnightblue" stroke="midnightblue" points="300.48,-30.58 309.98,-25.89 299.63,-23.63 300.48,-30.58"/>
</g>
<!-- Node3 -->
<g id="node3" class="node">
<title>Node3</title>
<g id="a_node3"><a xlink:href="../../d3/d42/classOnDeviceHeadProvider.html#aab546f9633ac45126c569c8a947dcd14" target="_top" xlink:title=" ">
<polygon fill="white" stroke="black" points="0,-0.5 0,-30.5 119,-30.5 119,-0.5 0,-0.5"/>
<text text-anchor="start" x="8" y="-18.5" font-family="Helvetica,sans-Serif" font-size="10.00">OnDeviceHeadProvider</text>
<text text-anchor="middle" x="59.5" y="-7.5" font-family="Helvetica,sans-Serif" font-size="10.00">::Start</text>
</a>
</g>
</g>
<!-- Node1&#45;&gt;Node3 -->
<g id="edge3" class="edge">
<title>Node1&#45;&gt;Node3</title>
<path fill="none" stroke="midnightblue" d="M299.71,-13.78C291.02,-13.67 282.35,-13.57 274,-13.5 221.11,-13.06 207.89,-12.94 155,-13.5 143.43,-13.62 131.07,-13.83 119.22,-14.06"/>
<polygon fill="midnightblue" stroke="midnightblue" points="299.86,-17.28 309.9,-13.92 299.95,-10.28 299.86,-17.28"/>
</g>
<!-- Node2&#45;&gt;Node3 -->
<g id="edge2" class="edge">
<title>Node2&#45;&gt;Node3</title>
<path fill="none" stroke="midnightblue" d="M144.79,-27.62C136.2,-26.38 127.47,-25.13 119.06,-23.92"/>
<polygon fill="midnightblue" stroke="midnightblue" points="144.39,-31.1 154.78,-29.06 145.38,-24.17 144.39,-31.1"/>
</g>
</g>
</svg>
