<?xml version="1.0" encoding="UTF-8" standalone="no"?>
<!DOCTYPE svg PUBLIC "-//W3C//DTD SVG 1.1//EN"
 "http://www.w3.org/Graphics/SVG/1.1/DTD/svg11.dtd">
<!-- Generated by graphviz version 2.43.0 (0)
 -->
<!-- Title: ChromeOmniboxNavigationObserver::CreateAlternateNavInfoBar Pages: 1 -->
<svg width="558pt" height="137pt"
 viewBox="0.00 0.00 558.00 137.00" xmlns="http://www.w3.org/2000/svg" xmlns:xlink="http://www.w3.org/1999/xlink">
<g id="graph0" class="graph" transform="scale(1 1) rotate(0) translate(4 133)">
<title>ChromeOmniboxNavigationObserver::CreateAlternateNavInfoBar</title>
<polygon fill="white" stroke="transparent" points="-4,4 -4,-133 554,-133 554,4 -4,4"/>
<!-- Node1 -->
<g id="node1" class="node">
<title>Node1</title>
<g id="a_node1"><a xlink:title=" ">
<polygon fill="#bfbfbf" stroke="black" points="0,-49.5 0,-79.5 176,-79.5 176,-49.5 0,-49.5"/>
<text text-anchor="start" x="8" y="-67.5" font-family="Helvetica,sans-Serif" font-size="10.00">ChromeOmniboxNavigationObserver</text>
<text text-anchor="middle" x="88" y="-56.5" font-family="Helvetica,sans-Serif" font-size="10.00">::CreateAlternateNavInfoBar</text>
</a>
</g>
</g>
<!-- Node2 -->
<g id="node2" class="node">
<title>Node2</title>
<g id="a_node2"><a xlink:href="../../d9/db7/classAlternateNavInfoBarDelegate.html#a1c2d4722da316d144fc08d95d0dc1176" target="_top" xlink:title=" ">
<polygon fill="white" stroke="black" points="212,-49.5 212,-79.5 364,-79.5 364,-49.5 212,-49.5"/>
<text text-anchor="start" x="220" y="-67.5" font-family="Helvetica,sans-Serif" font-size="10.00">AlternateNavInfoBarDelegate</text>
<text text-anchor="middle" x="288" y="-56.5" font-family="Helvetica,sans-Serif" font-size="10.00">::CreateForOmniboxNavigation</text>
</a>
</g>
</g>
<!-- Node1&#45;&gt;Node2 -->
<g id="edge1" class="edge">
<title>Node1&#45;&gt;Node2</title>
<path fill="none" stroke="midnightblue" d="M176.13,-64.5C184.62,-64.5 193.22,-64.5 201.68,-64.5"/>
<polygon fill="midnightblue" stroke="midnightblue" points="201.92,-68 211.92,-64.5 201.92,-61 201.92,-68"/>
</g>
<!-- Node3 -->
<g id="node3" class="node">
<title>Node3</title>
<g id="a_node3"><a xlink:href="../../d9/db7/classAlternateNavInfoBarDelegate.html#af56f75cc56ff6b9edc28bc52292930d2" target="_top" xlink:title=" ">
<polygon fill="white" stroke="black" points="400,-98.5 400,-128.5 550,-128.5 550,-98.5 400,-98.5"/>
<text text-anchor="start" x="408" y="-116.5" font-family="Helvetica,sans-Serif" font-size="10.00">AlternateNavInfoBarDelegate</text>
<text text-anchor="middle" x="475" y="-105.5" font-family="Helvetica,sans-Serif" font-size="10.00">::AlternateNavInfoBarDelegate</text>
</a>
</g>
</g>
<!-- Node2&#45;&gt;Node3 -->
<g id="edge2" class="edge">
<title>Node2&#45;&gt;Node3</title>
<path fill="none" stroke="midnightblue" d="M345.76,-79.53C365.3,-84.71 387.34,-90.55 407.58,-95.91"/>
<polygon fill="midnightblue" stroke="midnightblue" points="406.78,-99.32 417.34,-98.49 408.57,-92.55 406.78,-99.32"/>
</g>
<!-- Node4 -->
<g id="node4" class="node">
<title>Node4</title>
<g id="a_node4"><a xlink:href="../../dc/d8f/structAutocompleteMatch.html#aea11d015e20133af269bc66672dde3cd" target="_top" xlink:title=" ">
<polygon fill="white" stroke="black" points="420,-49.5 420,-79.5 530,-79.5 530,-49.5 420,-49.5"/>
<text text-anchor="start" x="428" y="-67.5" font-family="Helvetica,sans-Serif" font-size="10.00">AutocompleteMatch::</text>
<text text-anchor="middle" x="475" y="-56.5" font-family="Helvetica,sans-Serif" font-size="10.00">AutocompleteMatch</text>
</a>
</g>
</g>
<!-- Node2&#45;&gt;Node4 -->
<g id="edge3" class="edge">
<title>Node2&#45;&gt;Node4</title>
<path fill="none" stroke="midnightblue" d="M364.25,-64.5C379.22,-64.5 394.82,-64.5 409.39,-64.5"/>
<polygon fill="midnightblue" stroke="midnightblue" points="409.81,-68 419.81,-64.5 409.81,-61 409.81,-68"/>
</g>
<!-- Node5 -->
<g id="node5" class="node">
<title>Node5</title>
<g id="a_node5"><a xlink:href="../../d9/db7/classAlternateNavInfoBarDelegate.html#abb79557331610fd06a3966270a630b94" target="_top" xlink:title=" ">
<polygon fill="white" stroke="black" points="403,-0.5 403,-30.5 547,-30.5 547,-0.5 403,-0.5"/>
<text text-anchor="start" x="411" y="-18.5" font-family="Helvetica,sans-Serif" font-size="10.00">AlternateNavInfoBarDelegate</text>
<text text-anchor="middle" x="475" y="-7.5" font-family="Helvetica,sans-Serif" font-size="10.00">::CreateInfoBar</text>
</a>
</g>
</g>
<!-- Node2&#45;&gt;Node5 -->
<g id="edge4" class="edge">
<title>Node2&#45;&gt;Node5</title>
<path fill="none" stroke="midnightblue" d="M345.76,-49.47C365.3,-44.29 387.34,-38.45 407.58,-33.09"/>
<polygon fill="midnightblue" stroke="midnightblue" points="408.57,-36.45 417.34,-30.51 406.78,-29.68 408.57,-36.45"/>
</g>
</g>
</svg>
