<?xml version="1.0" encoding="UTF-8" standalone="no"?>
<!DOCTYPE svg PUBLIC "-//W3C//DTD SVG 1.1//EN"
 "http://www.w3.org/Graphics/SVG/1.1/DTD/svg11.dtd">
<!-- Generated by graphviz version 2.43.0 (0)
 -->
<!-- Title: ChromeOmniboxNavigationObserver::CreateAlternateNavInfoBar Pages: 1 -->
<svg width="1463pt" height="112pt"
 viewBox="0.00 0.00 1463.00 112.00" xmlns="http://www.w3.org/2000/svg" xmlns:xlink="http://www.w3.org/1999/xlink">
<g id="graph0" class="graph" transform="scale(1 1) rotate(0) translate(4 108)">
<title>ChromeOmniboxNavigationObserver::CreateAlternateNavInfoBar</title>
<polygon fill="white" stroke="transparent" points="-4,4 -4,-108 1459,-108 1459,4 -4,4"/>
<!-- Node1 -->
<g id="node1" class="node">
<title>Node1</title>
<g id="a_node1"><a xlink:title=" ">
<polygon fill="#bfbfbf" stroke="black" points="1279,-48.5 1279,-78.5 1455,-78.5 1455,-48.5 1279,-48.5"/>
<text text-anchor="start" x="1287" y="-66.5" font-family="Helvetica,sans-Serif" font-size="10.00">ChromeOmniboxNavigationObserver</text>
<text text-anchor="middle" x="1367" y="-55.5" font-family="Helvetica,sans-Serif" font-size="10.00">::CreateAlternateNavInfoBar</text>
</a>
</g>
</g>
<!-- Node2 -->
<g id="node2" class="node">
<title>Node2</title>
<g id="a_node2"><a xlink:href="../../d3/da9/classChromeOmniboxNavigationObserver.html#afa082e23fde3c10f41c737fe808c191b" target="_top" xlink:title=" ">
<polygon fill="white" stroke="black" points="1067,-48.5 1067,-78.5 1243,-78.5 1243,-48.5 1067,-48.5"/>
<text text-anchor="start" x="1075" y="-66.5" font-family="Helvetica,sans-Serif" font-size="10.00">ChromeOmniboxNavigationObserver</text>
<text text-anchor="middle" x="1155" y="-55.5" font-family="Helvetica,sans-Serif" font-size="10.00">::OnAllLoadingFinished</text>
</a>
</g>
</g>
<!-- Node1&#45;&gt;Node2 -->
<g id="edge1" class="edge">
<title>Node1&#45;&gt;Node2</title>
<path fill="none" stroke="midnightblue" d="M1268.54,-63.5C1260.12,-63.5 1251.63,-63.5 1243.3,-63.5"/>
<polygon fill="midnightblue" stroke="midnightblue" points="1268.77,-67 1278.77,-63.5 1268.77,-60 1268.77,-67"/>
</g>
<!-- Node3 -->
<g id="node3" class="node">
<title>Node3</title>
<g id="a_node3"><a xlink:href="../../d3/da9/classChromeOmniboxNavigationObserver.html#aa1ab2e3c3956a02df7ad16a12dd21950" target="_top" xlink:title=" ">
<polygon fill="white" stroke="black" points="855,-73.5 855,-103.5 1031,-103.5 1031,-73.5 855,-73.5"/>
<text text-anchor="start" x="863" y="-91.5" font-family="Helvetica,sans-Serif" font-size="10.00">ChromeOmniboxNavigationObserver</text>
<text text-anchor="middle" x="943" y="-80.5" font-family="Helvetica,sans-Serif" font-size="10.00">::NavigationEntryCommitted</text>
</a>
</g>
</g>
<!-- Node2&#45;&gt;Node3 -->
<g id="edge2" class="edge">
<title>Node2&#45;&gt;Node3</title>
<path fill="none" stroke="midnightblue" d="M1056.82,-75.07C1048.31,-76.08 1039.73,-77.1 1031.3,-78.11"/>
<polygon fill="midnightblue" stroke="midnightblue" points="1057.25,-78.54 1066.77,-73.89 1056.42,-71.59 1057.25,-78.54"/>
</g>
<!-- Node4 -->
<g id="node4" class="node">
<title>Node4</title>
<g id="a_node4"><a xlink:href="../../d3/da9/classChromeOmniboxNavigationObserver.html#a21c5aa1f1511e7535f037f91967f589b" target="_top" xlink:title=" ">
<polygon fill="white" stroke="black" points="855,-24.5 855,-54.5 1031,-54.5 1031,-24.5 855,-24.5"/>
<text text-anchor="start" x="863" y="-42.5" font-family="Helvetica,sans-Serif" font-size="10.00">ChromeOmniboxNavigationObserver</text>
<text text-anchor="middle" x="943" y="-31.5" font-family="Helvetica,sans-Serif" font-size="10.00">::OnDoneWithURL</text>
</a>
</g>
</g>
<!-- Node2&#45;&gt;Node4 -->
<g id="edge3" class="edge">
<title>Node2&#45;&gt;Node4</title>
<path fill="none" stroke="midnightblue" d="M1056.82,-52.39C1048.31,-51.42 1039.73,-50.44 1031.3,-49.48"/>
<polygon fill="midnightblue" stroke="midnightblue" points="1056.43,-55.87 1066.77,-53.53 1057.23,-48.92 1056.43,-55.87"/>
</g>
<!-- Node5 -->
<g id="node5" class="node">
<title>Node5</title>
<g id="a_node5"><a xlink:href="../../d3/da9/classChromeOmniboxNavigationObserver.html#a06f150e61e99ec0df27a33689ba51263" target="_top" xlink:title=" ">
<polygon fill="white" stroke="black" points="643,-49.5 643,-79.5 819,-79.5 819,-49.5 643,-49.5"/>
<text text-anchor="start" x="651" y="-67.5" font-family="Helvetica,sans-Serif" font-size="10.00">ChromeOmniboxNavigationObserver</text>
<text text-anchor="middle" x="731" y="-56.5" font-family="Helvetica,sans-Serif" font-size="10.00">::OnURLLoadComplete</text>
</a>
</g>
</g>
<!-- Node4&#45;&gt;Node5 -->
<g id="edge4" class="edge">
<title>Node4&#45;&gt;Node5</title>
<path fill="none" stroke="midnightblue" d="M844.82,-51.07C836.31,-52.08 827.73,-53.1 819.3,-54.11"/>
<polygon fill="midnightblue" stroke="midnightblue" points="845.25,-54.54 854.77,-49.89 844.42,-47.59 845.25,-54.54"/>
</g>
<!-- Node7 -->
<g id="node7" class="node">
<title>Node7</title>
<g id="a_node7"><a xlink:href="../../d3/da9/classChromeOmniboxNavigationObserver.html#a30722443915aa1fb690a0aefec2633d2" target="_top" xlink:title=" ">
<polygon fill="white" stroke="black" points="643,-0.5 643,-30.5 819,-30.5 819,-0.5 643,-0.5"/>
<text text-anchor="start" x="651" y="-18.5" font-family="Helvetica,sans-Serif" font-size="10.00">ChromeOmniboxNavigationObserver</text>
<text text-anchor="middle" x="731" y="-7.5" font-family="Helvetica,sans-Serif" font-size="10.00">::OnURLRedirect</text>
</a>
</g>
</g>
<!-- Node4&#45;&gt;Node7 -->
<g id="edge6" class="edge">
<title>Node4&#45;&gt;Node7</title>
<path fill="none" stroke="midnightblue" d="M844.82,-28.39C836.31,-27.42 827.73,-26.44 819.3,-25.48"/>
<polygon fill="midnightblue" stroke="midnightblue" points="844.43,-31.87 854.77,-29.53 845.23,-24.92 844.43,-31.87"/>
</g>
<!-- Node6 -->
<g id="node6" class="node">
<title>Node6</title>
<g id="a_node6"><a xlink:href="../../d3/da9/classChromeOmniboxNavigationObserver.html#a2b555988d84e26010e11f96f39aa72f7" target="_top" xlink:title=" ">
<polygon fill="white" stroke="black" points="431,-49.5 431,-79.5 607,-79.5 607,-49.5 431,-49.5"/>
<text text-anchor="start" x="439" y="-67.5" font-family="Helvetica,sans-Serif" font-size="10.00">ChromeOmniboxNavigationObserver</text>
<text text-anchor="middle" x="519" y="-56.5" font-family="Helvetica,sans-Serif" font-size="10.00">::Observe</text>
</a>
</g>
</g>
<!-- Node5&#45;&gt;Node6 -->
<g id="edge5" class="edge">
<title>Node5&#45;&gt;Node6</title>
<path fill="none" stroke="midnightblue" d="M632.54,-64.5C624.12,-64.5 615.63,-64.5 607.3,-64.5"/>
<polygon fill="midnightblue" stroke="midnightblue" points="632.77,-68 642.77,-64.5 632.77,-61 632.77,-68"/>
</g>
<!-- Node8 -->
<g id="node8" class="node">
<title>Node8</title>
<g id="a_node8"><a xlink:href="../../d3/da9/classChromeOmniboxNavigationObserver.html#aac709e9d6a2771fa69552288776e842e" target="_top" xlink:title=" ">
<polygon fill="white" stroke="black" points="431,-0.5 431,-30.5 607,-30.5 607,-0.5 431,-0.5"/>
<text text-anchor="start" x="439" y="-18.5" font-family="Helvetica,sans-Serif" font-size="10.00">ChromeOmniboxNavigationObserver</text>
<text text-anchor="middle" x="519" y="-7.5" font-family="Helvetica,sans-Serif" font-size="10.00">::CreateLoader</text>
</a>
</g>
</g>
<!-- Node7&#45;&gt;Node8 -->
<g id="edge7" class="edge">
<title>Node7&#45;&gt;Node8</title>
<path fill="none" stroke="midnightblue" d="M632.54,-15.5C624.12,-15.5 615.63,-15.5 607.3,-15.5"/>
<polygon fill="midnightblue" stroke="midnightblue" points="632.77,-19 642.77,-15.5 632.77,-12 632.77,-19"/>
</g>
<!-- Node9 -->
<g id="node9" class="node">
<title>Node9</title>
<g id="a_node9"><a xlink:href="../../d3/da9/classChromeOmniboxNavigationObserver.html#a24e5466f5cb272d541370a862aeeb938" target="_top" xlink:title=" ">
<polygon fill="white" stroke="black" points="213,-0.5 213,-30.5 395,-30.5 395,-0.5 213,-0.5"/>
<text text-anchor="start" x="221" y="-18.5" font-family="Helvetica,sans-Serif" font-size="10.00">ChromeOmniboxNavigationObserver</text>
<text text-anchor="middle" x="304" y="-7.5" font-family="Helvetica,sans-Serif" font-size="10.00">::ChromeOmniboxNavigationObserver</text>
</a>
</g>
</g>
<!-- Node8&#45;&gt;Node9 -->
<g id="edge8" class="edge">
<title>Node8&#45;&gt;Node9</title>
<path fill="none" stroke="midnightblue" d="M420.52,-15.5C412.09,-15.5 403.59,-15.5 395.22,-15.5"/>
<polygon fill="midnightblue" stroke="midnightblue" points="420.75,-19 430.75,-15.5 420.75,-12 420.75,-19"/>
</g>
<!-- Node10 -->
<g id="node10" class="node">
<title>Node10</title>
<g id="a_node10"><a xlink:href="../../d5/d3e/classChromeOmniboxClient.html#a2560cdaa8a5b1ee28248893fe7ac16f6" target="_top" xlink:title=" ">
<polygon fill="white" stroke="black" points="0,-0.5 0,-30.5 177,-30.5 177,-0.5 0,-0.5"/>
<text text-anchor="start" x="8" y="-18.5" font-family="Helvetica,sans-Serif" font-size="10.00">ChromeOmniboxClient</text>
<text text-anchor="middle" x="88.5" y="-7.5" font-family="Helvetica,sans-Serif" font-size="10.00">::CreateOmniboxNavigationObserver</text>
</a>
</g>
</g>
<!-- Node9&#45;&gt;Node10 -->
<g id="edge9" class="edge">
<title>Node9&#45;&gt;Node10</title>
<path fill="none" stroke="midnightblue" d="M202.73,-15.5C194.14,-15.5 185.5,-15.5 177.03,-15.5"/>
<polygon fill="midnightblue" stroke="midnightblue" points="202.77,-19 212.77,-15.5 202.77,-12 202.77,-19"/>
</g>
</g>
</svg>
