<?xml version="1.0" encoding="UTF-8" standalone="no"?>
<!DOCTYPE svg PUBLIC "-//W3C//DTD SVG 1.1//EN"
 "http://www.w3.org/Graphics/SVG/1.1/DTD/svg11.dtd">
<!-- Generated by graphviz version 2.43.0 (0)
 -->
<!-- Title: SearchSuggestionParser::SuggestResult::CalculateRelevance Pages: 1 -->
<svg width="1625pt" height="117pt"
 viewBox="0.00 0.00 1625.00 116.50" xmlns="http://www.w3.org/2000/svg" xmlns:xlink="http://www.w3.org/1999/xlink">
<g id="graph0" class="graph" transform="scale(1 1) rotate(0) translate(4 112.5)">
<title>SearchSuggestionParser::SuggestResult::CalculateRelevance</title>
<polygon fill="white" stroke="transparent" points="-4,4 -4,-112.5 1621,-112.5 1621,4 -4,4"/>
<!-- Node1 -->
<g id="node1" class="node">
<title>Node1</title>
<g id="a_node1"><a xlink:title=" ">
<polygon fill="#bfbfbf" stroke="black" points="1436,-24.5 1436,-54.5 1617,-54.5 1617,-24.5 1436,-24.5"/>
<text text-anchor="start" x="1444" y="-42.5" font-family="Helvetica,sans-Serif" font-size="10.00">SearchSuggestionParser</text>
<text text-anchor="middle" x="1526.5" y="-31.5" font-family="Helvetica,sans-Serif" font-size="10.00">::SuggestResult::CalculateRelevance</text>
</a>
</g>
</g>
<!-- Node2 -->
<g id="node2" class="node">
<title>Node2</title>
<g id="a_node2"><a xlink:href="../../d4/dee/classSearchProvider.html#a0a3c4e3960289c22cae836ccc88136df" target="_top" xlink:title=" ">
<polygon fill="white" stroke="black" points="1239,-24.5 1239,-54.5 1400,-54.5 1400,-24.5 1239,-24.5"/>
<text text-anchor="start" x="1247" y="-42.5" font-family="Helvetica,sans-Serif" font-size="10.00">SearchProvider::ApplyCalculated</text>
<text text-anchor="middle" x="1319.5" y="-31.5" font-family="Helvetica,sans-Serif" font-size="10.00">SuggestRelevance</text>
</a>
</g>
</g>
<!-- Node1&#45;&gt;Node2 -->
<g id="edge1" class="edge">
<title>Node1&#45;&gt;Node2</title>
<path fill="none" stroke="midnightblue" d="M1425.84,-39.5C1417.27,-39.5 1408.66,-39.5 1400.28,-39.5"/>
<polygon fill="midnightblue" stroke="midnightblue" points="1425.88,-43 1435.88,-39.5 1425.88,-36 1425.88,-43"/>
</g>
<!-- Node3 -->
<g id="node3" class="node">
<title>Node3</title>
<g id="a_node3"><a xlink:href="../../d4/dee/classSearchProvider.html#a9616ba802ad8e814267f9e3eb5096006" target="_top" xlink:title=" ">
<polygon fill="white" stroke="black" points="1030,-49 1030,-68 1203,-68 1203,-49 1030,-49"/>
<text text-anchor="middle" x="1116.5" y="-56" font-family="Helvetica,sans-Serif" font-size="10.00">SearchProvider::EnforceConstraints</text>
</a>
</g>
</g>
<!-- Node2&#45;&gt;Node3 -->
<g id="edge2" class="edge">
<title>Node2&#45;&gt;Node3</title>
<path fill="none" stroke="midnightblue" d="M1228.8,-47.98C1220.25,-48.79 1211.59,-49.61 1203.08,-50.41"/>
<polygon fill="midnightblue" stroke="midnightblue" points="1229.14,-51.46 1238.77,-47.04 1228.49,-44.49 1229.14,-51.46"/>
</g>
<!-- Node11 -->
<g id="node11" class="node">
<title>Node11</title>
<g id="a_node11"><a xlink:href="../../d4/dee/classSearchProvider.html#a9e1f1b81ddfa85db39cb68fcd3c8f472" target="_top" xlink:title=" ">
<polygon fill="white" stroke="black" points="844.5,-11 844.5,-30 985.5,-30 985.5,-11 844.5,-11"/>
<text text-anchor="middle" x="915" y="-18" font-family="Helvetica,sans-Serif" font-size="10.00">SearchProvider::SortResults</text>
</a>
</g>
</g>
<!-- Node2&#45;&gt;Node11 -->
<g id="edge11" class="edge">
<title>Node2&#45;&gt;Node11</title>
<path fill="none" stroke="midnightblue" d="M1228.82,-35.27C1155.38,-31.8 1052.98,-26.97 985.62,-23.79"/>
<polygon fill="midnightblue" stroke="midnightblue" points="1228.83,-38.77 1238.98,-35.75 1229.16,-31.78 1228.83,-38.77"/>
</g>
<!-- Node4 -->
<g id="node4" class="node">
<title>Node4</title>
<g id="a_node4"><a xlink:href="../../d4/dee/classSearchProvider.html#a2069cdad12e1ef540aead34c19af5128" target="_top" xlink:title=" ">
<polygon fill="white" stroke="black" points="836,-52 836,-71 994,-71 994,-52 836,-52"/>
<text text-anchor="middle" x="915" y="-59" font-family="Helvetica,sans-Serif" font-size="10.00">SearchProvider::UpdateMatches</text>
</a>
</g>
</g>
<!-- Node3&#45;&gt;Node4 -->
<g id="edge3" class="edge">
<title>Node3&#45;&gt;Node4</title>
<path fill="none" stroke="midnightblue" d="M1019.71,-59.94C1011.14,-60.07 1002.53,-60.2 994.13,-60.33"/>
<polygon fill="midnightblue" stroke="midnightblue" points="1019.79,-63.44 1029.74,-59.79 1019.68,-56.44 1019.79,-63.44"/>
</g>
<!-- Node5 -->
<g id="node5" class="node">
<title>Node5</title>
<g id="a_node5"><a xlink:href="../../d4/dee/classSearchProvider.html#ac19ab2526055b301d5a3dde7889895eb" target="_top" xlink:title=" ">
<polygon fill="white" stroke="black" points="657.5,-49.5 657.5,-79.5 799.5,-79.5 799.5,-49.5 657.5,-49.5"/>
<text text-anchor="start" x="665.5" y="-67.5" font-family="Helvetica,sans-Serif" font-size="10.00">SearchProvider::OnTemplate</text>
<text text-anchor="middle" x="728.5" y="-56.5" font-family="Helvetica,sans-Serif" font-size="10.00">URLServiceChanged</text>
</a>
</g>
</g>
<!-- Node4&#45;&gt;Node5 -->
<g id="edge4" class="edge">
<title>Node4&#45;&gt;Node5</title>
<path fill="none" stroke="midnightblue" d="M825.59,-62.94C816.89,-63.08 808.15,-63.22 799.68,-63.36"/>
<polygon fill="midnightblue" stroke="midnightblue" points="825.81,-66.43 835.76,-62.77 825.7,-59.44 825.81,-66.43"/>
</g>
<!-- Node6 -->
<g id="node6" class="node">
<title>Node6</title>
<g id="a_node6"><a xlink:href="../../d4/dee/classSearchProvider.html#a62390d46fb831c0919093798ab7bd52d" target="_top" xlink:title=" ">
<polygon fill="white" stroke="black" points="657,-0.5 657,-30.5 800,-30.5 800,-0.5 657,-0.5"/>
<text text-anchor="start" x="665" y="-18.5" font-family="Helvetica,sans-Serif" font-size="10.00">SearchProvider::OnURLLoad</text>
<text text-anchor="middle" x="728.5" y="-7.5" font-family="Helvetica,sans-Serif" font-size="10.00">Complete</text>
</a>
</g>
</g>
<!-- Node4&#45;&gt;Node6 -->
<g id="edge5" class="edge">
<title>Node4&#45;&gt;Node6</title>
<path fill="none" stroke="midnightblue" d="M865.81,-49.48C842.57,-43.69 814.47,-36.69 789.83,-30.54"/>
<polygon fill="midnightblue" stroke="midnightblue" points="865.22,-52.95 875.77,-51.97 866.92,-46.15 865.22,-52.95"/>
</g>
<!-- Node10 -->
<g id="node10" class="node">
<title>Node10</title>
<g id="a_node10"><a xlink:href="../../d4/dee/classSearchProvider.html#a9e8f7e367904d424ac875e501844e830" target="_top" xlink:title=" ">
<polygon fill="white" stroke="black" points="0,-77 0,-96 110,-96 110,-77 0,-77"/>
<text text-anchor="middle" x="55" y="-84" font-family="Helvetica,sans-Serif" font-size="10.00">SearchProvider::Start</text>
</a>
</g>
</g>
<!-- Node4&#45;&gt;Node10 -->
<g id="edge10" class="edge">
<title>Node4&#45;&gt;Node10</title>
<path fill="none" stroke="midnightblue" d="M871.65,-73.69C850.33,-79.36 823.98,-85.69 800,-89.5 687.54,-107.36 658.37,-108.5 544.5,-108.5 544.5,-108.5 544.5,-108.5 375.5,-108.5 282.09,-108.5 173.68,-99.03 110.19,-92.51"/>
<polygon fill="midnightblue" stroke="midnightblue" points="872.63,-77.05 881.37,-71.05 870.8,-70.29 872.63,-77.05"/>
</g>
<!-- Node7 -->
<g id="node7" class="node">
<title>Node7</title>
<g id="a_node7"><a xlink:href="../../d4/dee/classSearchProvider.html#ac6613acbe0b4e879590cdb0d562999c9" target="_top" xlink:title=" ">
<polygon fill="white" stroke="black" points="466,-25.5 466,-55.5 621,-55.5 621,-25.5 466,-25.5"/>
<text text-anchor="start" x="474" y="-43.5" font-family="Helvetica,sans-Serif" font-size="10.00">SearchProvider::CreateSuggest</text>
<text text-anchor="middle" x="543.5" y="-32.5" font-family="Helvetica,sans-Serif" font-size="10.00">Loader</text>
</a>
</g>
</g>
<!-- Node6&#45;&gt;Node7 -->
<g id="edge6" class="edge">
<title>Node6&#45;&gt;Node7</title>
<path fill="none" stroke="midnightblue" d="M646.81,-26.52C638.28,-27.69 629.62,-28.87 621.14,-30.03"/>
<polygon fill="midnightblue" stroke="midnightblue" points="647.31,-29.99 656.75,-25.17 646.37,-23.05 647.31,-29.99"/>
</g>
<!-- Node8 -->
<g id="node8" class="node">
<title>Node8</title>
<g id="a_node8"><a xlink:href="../../d4/dee/classSearchProvider.html#a02c8b00f5d4da0ce7e5de29658483914" target="_top" xlink:title=" ">
<polygon fill="white" stroke="black" points="323,-55 323,-74 430,-74 430,-55 323,-55"/>
<text text-anchor="middle" x="376.5" y="-62" font-family="Helvetica,sans-Serif" font-size="10.00">SearchProvider::Run</text>
</a>
</g>
</g>
<!-- Node7&#45;&gt;Node8 -->
<g id="edge7" class="edge">
<title>Node7&#45;&gt;Node8</title>
<path fill="none" stroke="midnightblue" d="M455.7,-53.13C447.1,-54.38 438.56,-55.62 430.47,-56.8"/>
<polygon fill="midnightblue" stroke="midnightblue" points="456.4,-56.56 465.8,-51.66 455.4,-49.63 456.4,-56.56"/>
</g>
<!-- Node9 -->
<g id="node9" class="node">
<title>Node9</title>
<g id="a_node9"><a xlink:href="../../d4/dee/classSearchProvider.html#af0c60cb234c815b05521a08434e7dcdc" target="_top" xlink:title=" ">
<polygon fill="white" stroke="black" points="146,-49.5 146,-79.5 287,-79.5 287,-49.5 146,-49.5"/>
<text text-anchor="start" x="154" y="-67.5" font-family="Helvetica,sans-Serif" font-size="10.00">SearchProvider::StartOrStop</text>
<text text-anchor="middle" x="216.5" y="-56.5" font-family="Helvetica,sans-Serif" font-size="10.00">SuggestQuery</text>
</a>
</g>
</g>
<!-- Node8&#45;&gt;Node9 -->
<g id="edge8" class="edge">
<title>Node8&#45;&gt;Node9</title>
<path fill="none" stroke="midnightblue" d="M312.74,-64.5C304.29,-64.5 295.59,-64.5 287.03,-64.5"/>
<polygon fill="midnightblue" stroke="midnightblue" points="312.89,-68 322.89,-64.5 312.89,-61 312.89,-68"/>
</g>
<!-- Node9&#45;&gt;Node10 -->
<g id="edge9" class="edge">
<title>Node9&#45;&gt;Node10</title>
<path fill="none" stroke="midnightblue" d="M135.47,-75.54C126.87,-76.73 118.27,-77.91 110.08,-79.04"/>
<polygon fill="midnightblue" stroke="midnightblue" points="136.11,-78.98 145.54,-74.15 135.16,-72.05 136.11,-78.98"/>
</g>
<!-- Node11&#45;&gt;Node6 -->
<g id="edge12" class="edge">
<title>Node11&#45;&gt;Node6</title>
<path fill="none" stroke="midnightblue" d="M834.02,-18.33C822.79,-18.03 811.31,-17.72 800.27,-17.42"/>
<polygon fill="midnightblue" stroke="midnightblue" points="834.16,-21.84 844.25,-18.61 834.35,-14.84 834.16,-21.84"/>
</g>
</g>
</svg>
