<?xml version="1.0" encoding="UTF-8" standalone="no"?>
<!DOCTYPE svg PUBLIC "-//W3C//DTD SVG 1.1//EN"
 "http://www.w3.org/Graphics/SVG/1.1/DTD/svg11.dtd">
<!-- Generated by graphviz version 2.43.0 (0)
 -->
<!-- Title: OmniboxPedal::TokenSequence::Add Pages: 1 -->
<!--zoomable 411 -->
<svg id="main" version="1.1" xmlns="http://www.w3.org/2000/svg" xmlns:xlink="http://www.w3.org/1999/xlink" xml:space="preserve" onload="init(evt)">
<style type="text/css"><![CDATA[
.edge:hover path { stroke: red; }
.edge:hover polygon { stroke: red; fill: red; }
]]></style>
<script type="text/javascript"><![CDATA[
var edges = document.getElementsByTagName('g');
if (edges && edges.length) {
  for (var i=0;i<edges.length;i++) {
    if (edges[i].id.substr(0,4)=='edge') {
      edges[i].setAttribute('class','edge');
    }
  }
}
]]></script>
        <defs>
                <circle id="rim" cx="0" cy="0" r="7"/>
                <circle id="rim2" cx="0" cy="0" r="3.5"/>
                <g id="zoomPlus">
                        <use xlink:href="#rim" fill="#404040">
                                <set attributeName="fill" to="#808080" begin="zoomplus.mouseover" end="zoomplus.mouseout"/>
                        </use>
                        <path d="M-4,0h8M0,-4v8" fill="none" stroke="white" stroke-width="1.5" pointer-events="none"/>
                </g>
                <g id="zoomMin">
                        <use xlink:href="#rim" fill="#404040">
                                <set attributeName="fill" to="#808080" begin="zoomminus.mouseover" end="zoomminus.mouseout"/>
                        </use>
                        <path d="M-4,0h8" fill="none" stroke="white" stroke-width="1.5" pointer-events="none"/>
                </g>
                <g id="dirArrow">
                        <path fill="none" stroke="white" stroke-width="1.5" d="M0,-3.0v7 M-2.5,-0.5L0,-3.0L2.5,-0.5"/>
                </g>
               <g id="resetDef">
                       <use xlink:href="#rim2" fill="#404040">
                               <set attributeName="fill" to="#808080" begin="reset.mouseover" end="reset.mouseout"/>
                       </use>
               </g>
        </defs>

<script type="text/javascript">
var viewWidth = 2742;
var viewHeight = 411;
var sectionId = 'dynsection-1';
</script>
<script xlink:href="../../svgpan.js"/>
<svg id="graph" class="graph">
<g id="viewport">
<title>OmniboxPedal::TokenSequence::Add</title>
<polygon fill="white" stroke="transparent" points="-4,4 -4,-406.5 2738,-406.5 2738,4 -4,4"/>
<!-- Node1 -->
<g id="node1" class="node">
<title>Node1</title>
<g id="a_node1"><a xlink:title=" ">
<polygon fill="#bfbfbf" stroke="black" points="2555,-189.5 2555,-208.5 2734,-208.5 2734,-189.5 2555,-189.5"/>
<text text-anchor="middle" x="2644.5" y="-196.5" font-family="Helvetica,sans-Serif" font-size="10.00">OmniboxPedal::TokenSequence::Add</text>
</a>
</g>
</g>
<!-- Node2 -->
<g id="node2" class="node">
<title>Node2</title>
<g id="a_node2"><a xlink:href="../../d6/dea/classOmniboxPedalProvider.html#a8eb768572bd7fcfb3af89d31ea6e423b" target="_top" xlink:title=" ">
<polygon fill="white" stroke="black" points="2191,-184 2191,-214 2326,-214 2326,-184 2191,-184"/>
<text text-anchor="start" x="2199" y="-202" font-family="Helvetica,sans-Serif" font-size="10.00">OmniboxPedalProvider</text>
<text text-anchor="middle" x="2258.5" y="-191" font-family="Helvetica,sans-Serif" font-size="10.00">::LoadSynonymGroupValue</text>
</a>
</g>
</g>
<!-- Node1&#45;&gt;Node2 -->
<g id="edge1" class="edge">
<title>Node1&#45;&gt;Node2</title>
<path fill="none" stroke="midnightblue" d="M2544.52,-199C2475.88,-199 2386.32,-199 2326.06,-199"/>
<polygon fill="midnightblue" stroke="midnightblue" points="2544.92,-202.5 2554.92,-199 2544.92,-195.5 2544.92,-202.5"/>
</g>
<!-- Node6 -->
<g id="node6" class="node">
<title>Node6</title>
<g id="a_node6"><a xlink:href="../../d6/dea/classOmniboxPedalProvider.html#aadf4c378aa04749abe0178d33d6f356b" target="_top" xlink:title=" ">
<polygon fill="white" stroke="black" points="2383,-138 2383,-168 2499,-168 2499,-138 2383,-138"/>
<text text-anchor="start" x="2391" y="-156" font-family="Helvetica,sans-Serif" font-size="10.00">OmniboxPedalProvider</text>
<text text-anchor="middle" x="2441" y="-145" font-family="Helvetica,sans-Serif" font-size="10.00">::Tokenize</text>
</a>
</g>
</g>
<!-- Node1&#45;&gt;Node6 -->
<g id="edge5" class="edge">
<title>Node1&#45;&gt;Node6</title>
<path fill="none" stroke="midnightblue" d="M2591.67,-187.17C2563.43,-180.72 2528.42,-172.73 2499.36,-166.09"/>
<polygon fill="midnightblue" stroke="midnightblue" points="2591.22,-190.66 2601.75,-189.47 2592.78,-183.83 2591.22,-190.66"/>
</g>
<!-- Node37 -->
<g id="node37" class="node">
<title>Node37</title>
<g id="a_node37"><a xlink:href="../../d6/dea/classOmniboxPedalProvider.html#a5861d9f977203ab9939aac1fcc63b2f3" target="_top" xlink:title=" ">
<polygon fill="white" stroke="black" points="2363,-230 2363,-260 2519,-260 2519,-230 2363,-230"/>
<text text-anchor="start" x="2371" y="-248" font-family="Helvetica,sans-Serif" font-size="10.00">OmniboxPedalProvider</text>
<text text-anchor="middle" x="2441" y="-237" font-family="Helvetica,sans-Serif" font-size="10.00">::TokenizeAndExpandDictionary</text>
</a>
</g>
</g>
<!-- Node1&#45;&gt;Node37 -->
<g id="edge41" class="edge">
<title>Node1&#45;&gt;Node37</title>
<path fill="none" stroke="midnightblue" d="M2591.89,-210.78C2566.32,-216.62 2535.16,-223.73 2507.89,-229.96"/>
<polygon fill="midnightblue" stroke="midnightblue" points="2592.78,-214.17 2601.75,-208.53 2591.22,-207.34 2592.78,-214.17"/>
</g>
<!-- Node3 -->
<g id="node3" class="node">
<title>Node3</title>
<g id="a_node3"><a xlink:href="../../d6/dea/classOmniboxPedalProvider.html#a0bd5fe3f161da3546849e4faa484ab3c" target="_top" xlink:title=" ">
<polygon fill="white" stroke="black" points="2035,-211 2035,-241 2151,-241 2151,-211 2035,-211"/>
<text text-anchor="start" x="2043" y="-229" font-family="Helvetica,sans-Serif" font-size="10.00">OmniboxPedalProvider</text>
<text text-anchor="middle" x="2093" y="-218" font-family="Helvetica,sans-Serif" font-size="10.00">::LoadPedalConcepts</text>
</a>
</g>
</g>
<!-- Node2&#45;&gt;Node3 -->
<g id="edge2" class="edge">
<title>Node2&#45;&gt;Node3</title>
<path fill="none" stroke="midnightblue" d="M2180.97,-211.64C2170.89,-213.3 2160.69,-214.99 2151.01,-216.59"/>
<polygon fill="midnightblue" stroke="midnightblue" points="2181.7,-215.06 2191,-209.98 2180.56,-208.16 2181.7,-215.06"/>
</g>
<!-- Node4 -->
<g id="node4" class="node">
<title>Node4</title>
<g id="a_node4"><a xlink:href="../../d6/dea/classOmniboxPedalProvider.html#aac587d07bb182c56eefe728e7654c1ec" target="_top" xlink:title=" ">
<polygon fill="white" stroke="black" points="1870.5,-211 1870.5,-241 1992.5,-241 1992.5,-211 1870.5,-211"/>
<text text-anchor="start" x="1878.5" y="-229" font-family="Helvetica,sans-Serif" font-size="10.00">OmniboxPedalProvider</text>
<text text-anchor="middle" x="1931.5" y="-218" font-family="Helvetica,sans-Serif" font-size="10.00">::OmniboxPedalProvider</text>
</a>
</g>
</g>
<!-- Node3&#45;&gt;Node4 -->
<g id="edge3" class="edge">
<title>Node3&#45;&gt;Node4</title>
<path fill="none" stroke="midnightblue" d="M2024.79,-226C2014.15,-226 2003.2,-226 1992.74,-226"/>
<polygon fill="midnightblue" stroke="midnightblue" points="2024.87,-229.5 2034.87,-226 2024.87,-222.5 2024.87,-229.5"/>
</g>
<!-- Node5 -->
<g id="node5" class="node">
<title>Node5</title>
<g id="a_node5"><a xlink:href="../../d5/dfc/classMockAutocompleteProviderClient.html#adbd27317c195d16980fdfd8722952006" target="_top" xlink:title=" ">
<polygon fill="white" stroke="black" points="1663,-205.5 1663,-246.5 1831,-246.5 1831,-205.5 1663,-205.5"/>
<text text-anchor="start" x="1671" y="-234.5" font-family="Helvetica,sans-Serif" font-size="10.00">MockAutocompleteProvider</text>
<text text-anchor="start" x="1671" y="-223.5" font-family="Helvetica,sans-Serif" font-size="10.00">Client::MockAutocompleteProvider</text>
<text text-anchor="middle" x="1747" y="-212.5" font-family="Helvetica,sans-Serif" font-size="10.00">Client</text>
</a>
</g>
</g>
<!-- Node4&#45;&gt;Node5 -->
<g id="edge4" class="edge">
<title>Node4&#45;&gt;Node5</title>
<path fill="none" stroke="midnightblue" d="M1860.3,-226C1850.78,-226 1840.93,-226 1831.21,-226"/>
<polygon fill="midnightblue" stroke="midnightblue" points="1860.49,-229.5 1870.49,-226 1860.49,-222.5 1860.49,-229.5"/>
</g>
<!-- Node7 -->
<g id="node7" class="node">
<title>Node7</title>
<g id="a_node7"><a xlink:href="../../d6/dea/classOmniboxPedalProvider.html#a733ee803093783d0394e50aff09819e8" target="_top" xlink:title=" ">
<polygon fill="white" stroke="black" points="2200.5,-135 2200.5,-165 2316.5,-165 2316.5,-135 2200.5,-135"/>
<text text-anchor="start" x="2208.5" y="-153" font-family="Helvetica,sans-Serif" font-size="10.00">OmniboxPedalProvider</text>
<text text-anchor="middle" x="2258.5" y="-142" font-family="Helvetica,sans-Serif" font-size="10.00">::FindPedalMatch</text>
</a>
</g>
</g>
<!-- Node6&#45;&gt;Node7 -->
<g id="edge6" class="edge">
<title>Node6&#45;&gt;Node7</title>
<path fill="none" stroke="midnightblue" d="M2372.78,-151.88C2354.29,-151.58 2334.41,-151.25 2316.55,-150.95"/>
<polygon fill="midnightblue" stroke="midnightblue" points="2372.83,-155.38 2382.89,-152.05 2372.95,-148.38 2372.83,-155.38"/>
</g>
<!-- Node8 -->
<g id="node8" class="node">
<title>Node8</title>
<g id="a_node8"><a xlink:href="../../d6/dea/classOmniboxPedalProvider.html#a39a4fa25c20669c7ca3f0b91a7f9029e" target="_top" xlink:title=" ">
<polygon fill="white" stroke="black" points="2032,-135 2032,-165 2154,-165 2154,-135 2032,-135"/>
<text text-anchor="start" x="2040" y="-153" font-family="Helvetica,sans-Serif" font-size="10.00">OmniboxPedalProvider</text>
<text text-anchor="middle" x="2093" y="-142" font-family="Helvetica,sans-Serif" font-size="10.00">::FindReadyPedalMatch</text>
</a>
</g>
</g>
<!-- Node7&#45;&gt;Node8 -->
<g id="edge7" class="edge">
<title>Node7&#45;&gt;Node8</title>
<path fill="none" stroke="midnightblue" d="M2190.02,-150C2178.15,-150 2165.86,-150 2154.21,-150"/>
<polygon fill="midnightblue" stroke="midnightblue" points="2190.32,-153.5 2200.32,-150 2190.32,-146.5 2190.32,-153.5"/>
</g>
<!-- Node9 -->
<g id="node9" class="node">
<title>Node9</title>
<g id="a_node9"><a xlink:href="../../d3/d03/classAutocompleteResult.html#a859e254b656aae5c4f55dfd923e3e75a" target="_top" xlink:title=" ">
<polygon fill="white" stroke="black" points="1867,-135 1867,-165 1996,-165 1996,-135 1867,-135"/>
<text text-anchor="start" x="1875" y="-153" font-family="Helvetica,sans-Serif" font-size="10.00">AutocompleteResult</text>
<text text-anchor="middle" x="1931.5" y="-142" font-family="Helvetica,sans-Serif" font-size="10.00">::AttachPedalsToMatches</text>
</a>
</g>
</g>
<!-- Node8&#45;&gt;Node9 -->
<g id="edge8" class="edge">
<title>Node8&#45;&gt;Node9</title>
<path fill="none" stroke="midnightblue" d="M2021.48,-150C2013.02,-150 2004.43,-150 1996.08,-150"/>
<polygon fill="midnightblue" stroke="midnightblue" points="2021.7,-153.5 2031.7,-150 2021.7,-146.5 2021.7,-153.5"/>
</g>
<!-- Node10 -->
<g id="node10" class="node">
<title>Node10</title>
<g id="a_node10"><a xlink:href="../../df/d4d/classAutocompleteController.html#a4bd8523f1764eb72920409795b1fb1df" target="_top" xlink:title=" ">
<polygon fill="white" stroke="black" points="1687.5,-135 1687.5,-165 1806.5,-165 1806.5,-135 1687.5,-135"/>
<text text-anchor="start" x="1695.5" y="-153" font-family="Helvetica,sans-Serif" font-size="10.00">AutocompleteController</text>
<text text-anchor="middle" x="1747" y="-142" font-family="Helvetica,sans-Serif" font-size="10.00">::UpdateResult</text>
</a>
</g>
</g>
<!-- Node9&#45;&gt;Node10 -->
<g id="edge9" class="edge">
<title>Node9&#45;&gt;Node10</title>
<path fill="none" stroke="midnightblue" d="M1856.7,-150C1840.08,-150 1822.66,-150 1806.76,-150"/>
<polygon fill="midnightblue" stroke="midnightblue" points="1856.93,-153.5 1866.93,-150 1856.93,-146.5 1856.93,-153.5"/>
</g>
<!-- Node11 -->
<g id="node11" class="node">
<title>Node11</title>
<g id="a_node11"><a xlink:href="../../df/d4d/classAutocompleteController.html#ae1f4a40a8daa8c804b265590ff4415be" target="_top" xlink:title=" ">
<polygon fill="white" stroke="black" points="1508,-135 1508,-165 1627,-165 1627,-135 1508,-135"/>
<text text-anchor="start" x="1516" y="-153" font-family="Helvetica,sans-Serif" font-size="10.00">AutocompleteController</text>
<text text-anchor="middle" x="1567.5" y="-142" font-family="Helvetica,sans-Serif" font-size="10.00">::ExpireCopiedEntries</text>
</a>
</g>
</g>
<!-- Node10&#45;&gt;Node11 -->
<g id="edge10" class="edge">
<title>Node10&#45;&gt;Node11</title>
<path fill="none" stroke="midnightblue" d="M1677.22,-150C1660.65,-150 1643.1,-150 1627.05,-150"/>
<polygon fill="midnightblue" stroke="midnightblue" points="1677.39,-153.5 1687.39,-150 1677.39,-146.5 1677.39,-153.5"/>
</g>
<!-- Node27 -->
<g id="node27" class="node">
<title>Node27</title>
<g id="a_node27"><a xlink:href="../../df/d4d/classAutocompleteController.html#a6be8d5d8847f9862da417998c4785989" target="_top" xlink:title=" ">
<polygon fill="white" stroke="black" points="1198,-91 1198,-121 1317,-121 1317,-91 1198,-91"/>
<text text-anchor="start" x="1206" y="-109" font-family="Helvetica,sans-Serif" font-size="10.00">AutocompleteController</text>
<text text-anchor="middle" x="1257.5" y="-98" font-family="Helvetica,sans-Serif" font-size="10.00">::Start</text>
</a>
</g>
</g>
<!-- Node10&#45;&gt;Node27 -->
<g id="edge40" class="edge">
<title>Node10&#45;&gt;Node27</title>
<path fill="none" stroke="midnightblue" d="M1677.26,-133.66C1660.87,-130.29 1643.38,-127.13 1627,-125 1518.21,-110.86 1390.07,-107.13 1317.15,-106.22"/>
<polygon fill="midnightblue" stroke="midnightblue" points="1676.79,-137.14 1687.29,-135.78 1678.23,-130.29 1676.79,-137.14"/>
</g>
<!-- Node36 -->
<g id="node36" class="node">
<title>Node36</title>
<g id="a_node36"><a xlink:href="../../df/d4d/classAutocompleteController.html#a0d07fa1825d1adba7b2491bc682f57c5" target="_top" xlink:title=" ">
<polygon fill="white" stroke="black" points="1508,-184 1508,-214 1627,-214 1627,-184 1508,-184"/>
<text text-anchor="start" x="1516" y="-202" font-family="Helvetica,sans-Serif" font-size="10.00">AutocompleteController</text>
<text text-anchor="middle" x="1567.5" y="-191" font-family="Helvetica,sans-Serif" font-size="10.00">::OnProviderUpdate</text>
</a>
</g>
</g>
<!-- Node10&#45;&gt;Node36 -->
<g id="edge38" class="edge">
<title>Node10&#45;&gt;Node36</title>
<path fill="none" stroke="midnightblue" d="M1681.44,-167.82C1662.28,-173.11 1641.48,-178.85 1623.02,-183.95"/>
<polygon fill="midnightblue" stroke="midnightblue" points="1682.59,-171.14 1691.3,-165.1 1680.72,-164.39 1682.59,-171.14"/>
</g>
<!-- Node12 -->
<g id="node12" class="node">
<title>Node12</title>
<g id="a_node12"><a xlink:href="../../df/d4d/classAutocompleteController.html#a94fe99a16d5617d48084d6bc68b77099" target="_top" xlink:title=" ">
<polygon fill="white" stroke="black" points="1353,-184 1353,-214 1472,-214 1472,-184 1353,-184"/>
<text text-anchor="start" x="1361" y="-202" font-family="Helvetica,sans-Serif" font-size="10.00">AutocompleteController</text>
<text text-anchor="middle" x="1412.5" y="-191" font-family="Helvetica,sans-Serif" font-size="10.00">::DeleteMatch</text>
</a>
</g>
</g>
<!-- Node11&#45;&gt;Node12 -->
<g id="edge11" class="edge">
<title>Node11&#45;&gt;Node12</title>
<path fill="none" stroke="midnightblue" d="M1509.49,-168.26C1493.35,-173.43 1475.97,-178.99 1460.5,-183.95"/>
<polygon fill="midnightblue" stroke="midnightblue" points="1510.89,-171.48 1519.35,-165.1 1508.76,-164.82 1510.89,-171.48"/>
</g>
<!-- Node26 -->
<g id="node26" class="node">
<title>Node26</title>
<g id="a_node26"><a xlink:href="../../df/d4d/classAutocompleteController.html#aeab74bbaa0a7179385e15263d2193cc4" target="_top" xlink:title=" ">
<polygon fill="white" stroke="black" points="1353,-135 1353,-165 1472,-165 1472,-135 1353,-135"/>
<text text-anchor="start" x="1361" y="-153" font-family="Helvetica,sans-Serif" font-size="10.00">AutocompleteController</text>
<text text-anchor="middle" x="1412.5" y="-142" font-family="Helvetica,sans-Serif" font-size="10.00">::StartExpireTimer</text>
</a>
</g>
</g>
<!-- Node11&#45;&gt;Node26 -->
<g id="edge28" class="edge">
<title>Node11&#45;&gt;Node26</title>
<path fill="none" stroke="midnightblue" d="M1497.51,-150C1489.01,-150 1480.38,-150 1472.06,-150"/>
<polygon fill="midnightblue" stroke="midnightblue" points="1497.78,-153.5 1507.78,-150 1497.78,-146.5 1497.78,-153.5"/>
</g>
<!-- Node13 -->
<g id="node13" class="node">
<title>Node13</title>
<g id="a_node13"><a xlink:href="../../d1/db1/classOmniboxPopupModel.html#aa11680c969b457fc53da3446feabf8a8" target="_top" xlink:title=" ">
<polygon fill="white" stroke="black" points="1199.5,-186 1199.5,-216 1315.5,-216 1315.5,-186 1199.5,-186"/>
<text text-anchor="start" x="1207.5" y="-204" font-family="Helvetica,sans-Serif" font-size="10.00">OmniboxPopupModel::</text>
<text text-anchor="middle" x="1257.5" y="-193" font-family="Helvetica,sans-Serif" font-size="10.00">TryDeletingLine</text>
</a>
</g>
</g>
<!-- Node12&#45;&gt;Node13 -->
<g id="edge12" class="edge">
<title>Node12&#45;&gt;Node13</title>
<path fill="none" stroke="midnightblue" d="M1342.64,-199.9C1333.58,-200.02 1324.38,-200.14 1315.55,-200.25"/>
<polygon fill="midnightblue" stroke="midnightblue" points="1342.83,-203.4 1352.78,-199.77 1342.74,-196.4 1342.83,-203.4"/>
</g>
<!-- Node14 -->
<g id="node14" class="node">
<title>Node14</title>
<g id="a_node14"><a xlink:href="../../d0/d94/classOmniboxViewViews.html#a5a64c1e16631c3301fb57307402784dc" target="_top" xlink:title=" ">
<polygon fill="white" stroke="black" points="830.5,-186 830.5,-216 971.5,-216 971.5,-186 830.5,-186"/>
<text text-anchor="start" x="838.5" y="-204" font-family="Helvetica,sans-Serif" font-size="10.00">OmniboxViewViews::Handle</text>
<text text-anchor="middle" x="901" y="-193" font-family="Helvetica,sans-Serif" font-size="10.00">KeyEvent</text>
</a>
</g>
</g>
<!-- Node13&#45;&gt;Node14 -->
<g id="edge13" class="edge">
<title>Node13&#45;&gt;Node14</title>
<path fill="none" stroke="midnightblue" d="M1189.04,-201C1126.79,-201 1034.73,-201 971.76,-201"/>
<polygon fill="midnightblue" stroke="midnightblue" points="1189.15,-204.5 1199.15,-201 1189.15,-197.5 1189.15,-204.5"/>
</g>
<!-- Node15 -->
<g id="node15" class="node">
<title>Node15</title>
<g id="a_node15"><a xlink:href="../../d1/db1/classOmniboxPopupModel.html#acf1ecd019bf8b90655bb4a6c3dd7f8b1" target="_top" xlink:title=" ">
<polygon fill="white" stroke="black" points="1031,-252 1031,-282 1147,-282 1147,-252 1031,-252"/>
<text text-anchor="start" x="1039" y="-270" font-family="Helvetica,sans-Serif" font-size="10.00">OmniboxPopupModel::</text>
<text text-anchor="middle" x="1089" y="-259" font-family="Helvetica,sans-Serif" font-size="10.00">TriggerSelectionAction</text>
</a>
</g>
</g>
<!-- Node13&#45;&gt;Node15 -->
<g id="edge14" class="edge">
<title>Node13&#45;&gt;Node15</title>
<path fill="none" stroke="midnightblue" d="M1208.78,-219.92C1183.15,-230.08 1151.99,-242.43 1128.02,-251.93"/>
<polygon fill="midnightblue" stroke="midnightblue" points="1210.3,-223.08 1218.3,-216.14 1207.72,-216.57 1210.3,-223.08"/>
</g>
<!-- Node15&#45;&gt;Node14 -->
<g id="edge22" class="edge">
<title>Node15&#45;&gt;Node14</title>
<path fill="none" stroke="midnightblue" d="M1035.82,-248.48C1006.98,-238.25 971.61,-225.7 944.47,-216.07"/>
<polygon fill="midnightblue" stroke="midnightblue" points="1034.73,-251.81 1045.33,-251.86 1037.07,-245.22 1034.73,-251.81"/>
</g>
<!-- Node16 -->
<g id="node16" class="node">
<title>Node16</title>
<g id="a_node16"><a xlink:href="../../d3/d4c/classOmniboxResultView.html#a7bd0ac4077f48f8cc13698e19ed36eb6" target="_top" xlink:title=" ">
<polygon fill="white" stroke="black" points="628.5,-225 628.5,-255 740.5,-255 740.5,-225 628.5,-225"/>
<text text-anchor="start" x="636.5" y="-243" font-family="Helvetica,sans-Serif" font-size="10.00">OmniboxResultView::</text>
<text text-anchor="middle" x="684.5" y="-232" font-family="Helvetica,sans-Serif" font-size="10.00">ButtonPressed</text>
</a>
</g>
</g>
<!-- Node15&#45;&gt;Node16 -->
<g id="edge15" class="edge">
<title>Node15&#45;&gt;Node16</title>
<path fill="none" stroke="midnightblue" d="M1020.48,-262.47C941.85,-257.2 813.48,-248.59 740.61,-243.7"/>
<polygon fill="midnightblue" stroke="midnightblue" points="1020.55,-265.98 1030.76,-263.16 1021.02,-259 1020.55,-265.98"/>
</g>
<!-- Node20 -->
<g id="node20" class="node">
<title>Node20</title>
<g id="a_node20"><a xlink:href="../../d3/d0a/classOmniboxSuggestionButtonRowView.html#a35216a3671475e4ee13507b0465d5eb8" target="_top" xlink:title=" ">
<polygon fill="white" stroke="black" points="824.5,-274 824.5,-304 977.5,-304 977.5,-274 824.5,-274"/>
<text text-anchor="start" x="832.5" y="-292" font-family="Helvetica,sans-Serif" font-size="10.00">OmniboxSuggestionButtonRow</text>
<text text-anchor="middle" x="901" y="-281" font-family="Helvetica,sans-Serif" font-size="10.00">View::ButtonPressed</text>
</a>
</g>
</g>
<!-- Node15&#45;&gt;Node20 -->
<g id="edge19" class="edge">
<title>Node15&#45;&gt;Node20</title>
<path fill="none" stroke="midnightblue" d="M1020.92,-274.93C1006.93,-276.59 992.09,-278.34 977.82,-280.03"/>
<polygon fill="midnightblue" stroke="midnightblue" points="1021.41,-278.4 1030.93,-273.75 1020.59,-271.45 1021.41,-278.4"/>
</g>
<!-- Node22 -->
<g id="node22" class="node">
<title>Node22</title>
<g id="a_node22"><a xlink:href="../../d2/dcb/classOmniboxRowView_1_1HeaderView.html#a441ded0bc83346ff1773063183d470f2" target="_top" xlink:title=" ">
<polygon fill="white" stroke="black" points="822.5,-323 822.5,-353 979.5,-353 979.5,-323 822.5,-323"/>
<text text-anchor="start" x="830.5" y="-341" font-family="Helvetica,sans-Serif" font-size="10.00">OmniboxRowView::HeaderView</text>
<text text-anchor="middle" x="901" y="-330" font-family="Helvetica,sans-Serif" font-size="10.00">::HeaderToggleButtonPressed</text>
</a>
</g>
</g>
<!-- Node15&#45;&gt;Node22 -->
<g id="edge23" class="edge">
<title>Node15&#45;&gt;Node22</title>
<path fill="none" stroke="midnightblue" d="M1046.67,-286.28C1026.73,-295.25 1002.35,-305.73 980,-314 971.63,-317.1 962.65,-320.13 953.88,-322.93"/>
<polygon fill="midnightblue" stroke="midnightblue" points="1048.11,-289.47 1055.78,-282.15 1045.22,-283.09 1048.11,-289.47"/>
</g>
<!-- Node25 -->
<g id="node25" class="node">
<title>Node25</title>
<g id="a_node25"><a xlink:href="../../d2/dcb/classOmniboxRowView_1_1HeaderView.html#af9e1207af3e2688cdccfd7b8c1267a3c" target="_top" xlink:title=" ">
<polygon fill="white" stroke="black" points="822.5,-372 822.5,-402 979.5,-402 979.5,-372 822.5,-372"/>
<text text-anchor="start" x="830.5" y="-390" font-family="Helvetica,sans-Serif" font-size="10.00">OmniboxRowView::HeaderView</text>
<text text-anchor="middle" x="901" y="-379" font-family="Helvetica,sans-Serif" font-size="10.00">::OnMouseReleased</text>
</a>
</g>
</g>
<!-- Node15&#45;&gt;Node25 -->
<g id="edge27" class="edge">
<title>Node15&#45;&gt;Node25</title>
<path fill="none" stroke="midnightblue" d="M1068.03,-289.67C1047.81,-311.33 1014.66,-343.5 980,-363 973.95,-366.4 967.36,-369.39 960.65,-371.98"/>
<polygon fill="midnightblue" stroke="midnightblue" points="1070.69,-291.94 1074.87,-282.21 1065.53,-287.21 1070.69,-291.94"/>
</g>
<!-- Node17 -->
<g id="node17" class="node">
<title>Node17</title>
<g id="a_node17"><a xlink:href="../../d3/d4c/classOmniboxResultView.html#a632535684d6941455e8979815a978a44" target="_top" xlink:title=" ">
<polygon fill="white" stroke="black" points="410.5,-274 410.5,-304 522.5,-304 522.5,-274 410.5,-274"/>
<text text-anchor="start" x="418.5" y="-292" font-family="Helvetica,sans-Serif" font-size="10.00">OmniboxResultView::</text>
<text text-anchor="middle" x="466.5" y="-281" font-family="Helvetica,sans-Serif" font-size="10.00">OmniboxResultView</text>
</a>
</g>
</g>
<!-- Node16&#45;&gt;Node17 -->
<g id="edge16" class="edge">
<title>Node16&#45;&gt;Node17</title>
<path fill="none" stroke="midnightblue" d="M618.33,-254.78C587.86,-261.7 551.97,-269.84 522.84,-276.45"/>
<polygon fill="midnightblue" stroke="midnightblue" points="619.46,-258.12 628.44,-252.49 617.91,-251.29 619.46,-258.12"/>
</g>
<!-- Node18 -->
<g id="node18" class="node">
<title>Node18</title>
<g id="a_node18"><a xlink:href="../../d7/d88/classOmniboxPopupContentsView.html#aa8f47263f229af6a469c3bf964b81162" target="_top" xlink:title=" ">
<polygon fill="white" stroke="black" points="193,-296 193,-326 338,-326 338,-296 193,-296"/>
<text text-anchor="start" x="201" y="-314" font-family="Helvetica,sans-Serif" font-size="10.00">OmniboxPopupContentsView</text>
<text text-anchor="middle" x="265.5" y="-303" font-family="Helvetica,sans-Serif" font-size="10.00">::UpdatePopupAppearance</text>
</a>
</g>
</g>
<!-- Node17&#45;&gt;Node18 -->
<g id="edge17" class="edge">
<title>Node17&#45;&gt;Node18</title>
<path fill="none" stroke="midnightblue" d="M400.17,-296.22C380.33,-298.42 358.44,-300.84 338.21,-303.07"/>
<polygon fill="midnightblue" stroke="midnightblue" points="400.78,-299.68 410.33,-295.1 400.01,-292.72 400.78,-299.68"/>
</g>
<!-- Node19 -->
<g id="node19" class="node">
<title>Node19</title>
<g id="a_node19"><a xlink:href="../../d7/d88/classOmniboxPopupContentsView.html#a0e658101bc19acb66f6e0915fd6c2fe3" target="_top" xlink:title=" ">
<polygon fill="white" stroke="black" points="0,-296 0,-326 145,-326 145,-296 0,-296"/>
<text text-anchor="start" x="8" y="-314" font-family="Helvetica,sans-Serif" font-size="10.00">OmniboxPopupContentsView</text>
<text text-anchor="middle" x="72.5" y="-303" font-family="Helvetica,sans-Serif" font-size="10.00">::OnWidgetBoundsChanged</text>
</a>
</g>
</g>
<!-- Node18&#45;&gt;Node19 -->
<g id="edge18" class="edge">
<title>Node18&#45;&gt;Node19</title>
<path fill="none" stroke="midnightblue" d="M182.51,-311C170.12,-311 157.41,-311 145.25,-311"/>
<polygon fill="midnightblue" stroke="midnightblue" points="182.84,-314.5 192.84,-311 182.84,-307.5 182.84,-314.5"/>
</g>
<!-- Node21 -->
<g id="node21" class="node">
<title>Node21</title>
<g id="a_node21"><a xlink:href="../../d3/d0a/classOmniboxSuggestionButtonRowView.html#a7272410c3b801796d1c9cbeb37f9b3e7" target="_top" xlink:title=" ">
<polygon fill="white" stroke="black" points="583,-274 583,-304 786,-304 786,-274 583,-274"/>
<text text-anchor="start" x="591" y="-292" font-family="Helvetica,sans-Serif" font-size="10.00">OmniboxSuggestionButtonRow</text>
<text text-anchor="middle" x="684.5" y="-281" font-family="Helvetica,sans-Serif" font-size="10.00">View::OmniboxSuggestionButtonRowView</text>
</a>
</g>
</g>
<!-- Node20&#45;&gt;Node21 -->
<g id="edge20" class="edge">
<title>Node20&#45;&gt;Node21</title>
<path fill="none" stroke="midnightblue" d="M814.16,-289C805.02,-289 795.66,-289 786.37,-289"/>
<polygon fill="midnightblue" stroke="midnightblue" points="814.38,-292.5 824.38,-289 814.38,-285.5 814.38,-292.5"/>
</g>
<!-- Node21&#45;&gt;Node17 -->
<g id="edge21" class="edge">
<title>Node21&#45;&gt;Node17</title>
<path fill="none" stroke="midnightblue" d="M572.58,-289C555.27,-289 538.05,-289 522.72,-289"/>
<polygon fill="midnightblue" stroke="midnightblue" points="572.77,-292.5 582.77,-289 572.77,-285.5 572.77,-292.5"/>
</g>
<!-- Node23 -->
<g id="node23" class="node">
<title>Node23</title>
<g id="a_node23"><a xlink:href="../../d2/dcb/classOmniboxRowView_1_1HeaderView.html#ad1abf8339bf99de0b39a9bb43111ba93" target="_top" xlink:title=" ">
<polygon fill="white" stroke="black" points="606,-323 606,-353 763,-353 763,-323 606,-323"/>
<text text-anchor="start" x="614" y="-341" font-family="Helvetica,sans-Serif" font-size="10.00">OmniboxRowView::HeaderView</text>
<text text-anchor="middle" x="684.5" y="-330" font-family="Helvetica,sans-Serif" font-size="10.00">::HeaderView</text>
</a>
</g>
</g>
<!-- Node22&#45;&gt;Node23 -->
<g id="edge24" class="edge">
<title>Node22&#45;&gt;Node23</title>
<path fill="none" stroke="midnightblue" d="M811.8,-338C795.73,-338 779.08,-338 763.34,-338"/>
<polygon fill="midnightblue" stroke="midnightblue" points="812.26,-341.5 822.26,-338 812.26,-334.5 812.26,-341.5"/>
</g>
<!-- Node24 -->
<g id="node24" class="node">
<title>Node24</title>
<g id="a_node24"><a xlink:href="../../da/da2/classOmniboxRowView.html#a6add650851301372ee9b8a6671cfa28c" target="_top" xlink:title=" ">
<polygon fill="white" stroke="black" points="386.5,-325.5 386.5,-344.5 546.5,-344.5 546.5,-325.5 386.5,-325.5"/>
<text text-anchor="middle" x="466.5" y="-332.5" font-family="Helvetica,sans-Serif" font-size="10.00">OmniboxRowView::ShowHeader</text>
</a>
</g>
</g>
<!-- Node23&#45;&gt;Node24 -->
<g id="edge25" class="edge">
<title>Node23&#45;&gt;Node24</title>
<path fill="none" stroke="midnightblue" d="M595.8,-336.78C579.54,-336.56 562.65,-336.32 546.67,-336.1"/>
<polygon fill="midnightblue" stroke="midnightblue" points="595.78,-340.28 605.82,-336.92 595.87,-333.28 595.78,-340.28"/>
</g>
<!-- Node24&#45;&gt;Node18 -->
<g id="edge26" class="edge">
<title>Node24&#45;&gt;Node18</title>
<path fill="none" stroke="midnightblue" d="M376.39,-324.25C363.62,-322.71 350.61,-321.14 338.24,-319.65"/>
<polygon fill="midnightblue" stroke="midnightblue" points="376.22,-327.76 386.56,-325.48 377.06,-320.81 376.22,-327.76"/>
</g>
<!-- Node26&#45;&gt;Node27 -->
<g id="edge29" class="edge">
<title>Node26&#45;&gt;Node27</title>
<path fill="none" stroke="midnightblue" d="M1349.56,-132.19C1336.69,-128.48 1323.24,-124.62 1310.75,-121.03"/>
<polygon fill="midnightblue" stroke="midnightblue" points="1348.7,-135.58 1359.27,-134.98 1350.63,-128.85 1348.7,-135.58"/>
</g>
<!-- Node28 -->
<g id="node28" class="node">
<title>Node28</title>
<g id="a_node28"><a xlink:href="../../d0/d22/classOmniboxEditModel.html#a47216ae17e9b4c06e3a827008d04a744" target="_top" xlink:title=" ">
<polygon fill="white" stroke="black" points="1016,-88 1016,-118 1162,-118 1162,-88 1016,-88"/>
<text text-anchor="start" x="1024" y="-106" font-family="Helvetica,sans-Serif" font-size="10.00">OmniboxEditModel::StartZero</text>
<text text-anchor="middle" x="1089" y="-95" font-family="Helvetica,sans-Serif" font-size="10.00">SuggestRequest</text>
</a>
</g>
</g>
<!-- Node27&#45;&gt;Node28 -->
<g id="edge30" class="edge">
<title>Node27&#45;&gt;Node28</title>
<path fill="none" stroke="midnightblue" d="M1187.66,-104.76C1179.25,-104.61 1170.64,-104.45 1162.18,-104.3"/>
<polygon fill="midnightblue" stroke="midnightblue" points="1187.74,-108.26 1197.8,-104.94 1187.86,-101.26 1187.74,-108.26"/>
</g>
<!-- Node29 -->
<g id="node29" class="node">
<title>Node29</title>
<g id="a_node29"><a xlink:href="../../d0/d94/classOmniboxViewViews.html#a16e7321918d0a4985e618a5249a32881" target="_top" xlink:title=" ">
<polygon fill="white" stroke="black" points="822,-88 822,-118 980,-118 980,-88 822,-88"/>
<text text-anchor="start" x="830" y="-106" font-family="Helvetica,sans-Serif" font-size="10.00">OmniboxViewViews::OnGesture</text>
<text text-anchor="middle" x="901" y="-95" font-family="Helvetica,sans-Serif" font-size="10.00">Event</text>
</a>
</g>
</g>
<!-- Node28&#45;&gt;Node29 -->
<g id="edge31" class="edge">
<title>Node28&#45;&gt;Node29</title>
<path fill="none" stroke="midnightblue" d="M1005.63,-103C997.21,-103 988.68,-103 980.3,-103"/>
<polygon fill="midnightblue" stroke="midnightblue" points="1005.82,-106.5 1015.82,-103 1005.82,-99.5 1005.82,-106.5"/>
</g>
<!-- Node30 -->
<g id="node30" class="node">
<title>Node30</title>
<g id="a_node30"><a xlink:href="../../d0/d94/classOmniboxViewViews.html#a9fc21bac19f3a666e10eabc84b72c745" target="_top" xlink:title=" ">
<polygon fill="white" stroke="black" points="825,-39 825,-69 977,-69 977,-39 825,-39"/>
<text text-anchor="start" x="833" y="-57" font-family="Helvetica,sans-Serif" font-size="10.00">OmniboxViewViews::OnMouse</text>
<text text-anchor="middle" x="901" y="-46" font-family="Helvetica,sans-Serif" font-size="10.00">Pressed</text>
</a>
</g>
</g>
<!-- Node28&#45;&gt;Node30 -->
<g id="edge32" class="edge">
<title>Node28&#45;&gt;Node30</title>
<path fill="none" stroke="midnightblue" d="M1021.1,-85.38C1000.76,-80.02 978.59,-74.18 958.96,-69.01"/>
<polygon fill="midnightblue" stroke="midnightblue" points="1020.37,-88.8 1030.93,-87.97 1022.15,-82.03 1020.37,-88.8"/>
</g>
<!-- Node31 -->
<g id="node31" class="node">
<title>Node31</title>
<g id="a_node31"><a xlink:href="../../d0/d94/classOmniboxViewViews.html#ae9d72f709ba57cd59d22d6fbef32dd1c" target="_top" xlink:title=" ">
<polygon fill="white" stroke="black" points="825,-0.5 825,-19.5 977,-19.5 977,-0.5 825,-0.5"/>
<text text-anchor="middle" x="901" y="-7.5" font-family="Helvetica,sans-Serif" font-size="10.00">OmniboxViewViews::SetFocus</text>
</a>
</g>
</g>
<!-- Node28&#45;&gt;Node31 -->
<g id="edge33" class="edge">
<title>Node28&#45;&gt;Node31</title>
<path fill="none" stroke="midnightblue" d="M1062.43,-81.51C1041.5,-64.93 1010.46,-42.6 980,-29 971.47,-25.19 962.07,-22.08 952.82,-19.55"/>
<polygon fill="midnightblue" stroke="midnightblue" points="1060.5,-84.45 1070.48,-88 1064.89,-79 1060.5,-84.45"/>
</g>
<!-- Node32 -->
<g id="node32" class="node">
<title>Node32</title>
<g id="a_node32"><a xlink:href="../../d0/d22/classOmniboxEditModel.html#a8fd45b4cc033ef4a4c36d313a279ee33" target="_top" xlink:title=" ">
<polygon fill="white" stroke="black" points="832.5,-137 832.5,-167 969.5,-167 969.5,-137 832.5,-137"/>
<text text-anchor="start" x="840.5" y="-155" font-family="Helvetica,sans-Serif" font-size="10.00">OmniboxEditModel::Update</text>
<text text-anchor="middle" x="901" y="-144" font-family="Helvetica,sans-Serif" font-size="10.00">Input</text>
</a>
</g>
</g>
<!-- Node28&#45;&gt;Node32 -->
<g id="edge34" class="edge">
<title>Node28&#45;&gt;Node32</title>
<path fill="none" stroke="midnightblue" d="M1021.1,-120.62C1000.76,-125.98 978.59,-131.82 958.96,-136.99"/>
<polygon fill="midnightblue" stroke="midnightblue" points="1022.15,-123.97 1030.93,-118.03 1020.37,-117.2 1022.15,-123.97"/>
</g>
<!-- Node33 -->
<g id="node33" class="node">
<title>Node33</title>
<g id="a_node33"><a xlink:href="../../d0/d94/classOmniboxViewViews.html#aa74a64e459c128dff566e7392751a67f" target="_top" xlink:title=" ">
<polygon fill="white" stroke="black" points="613.5,-137 613.5,-167 755.5,-167 755.5,-137 613.5,-137"/>
<text text-anchor="start" x="621.5" y="-155" font-family="Helvetica,sans-Serif" font-size="10.00">OmniboxViewViews::Update</text>
<text text-anchor="middle" x="684.5" y="-144" font-family="Helvetica,sans-Serif" font-size="10.00">Popup</text>
</a>
</g>
</g>
<!-- Node32&#45;&gt;Node33 -->
<g id="edge35" class="edge">
<title>Node32&#45;&gt;Node33</title>
<path fill="none" stroke="midnightblue" d="M822.24,-152C800.49,-152 776.98,-152 755.69,-152"/>
<polygon fill="midnightblue" stroke="midnightblue" points="822.43,-155.5 832.43,-152 822.43,-148.5 822.43,-155.5"/>
</g>
<!-- Node34 -->
<g id="node34" class="node">
<title>Node34</title>
<g id="a_node34"><a xlink:href="../../d0/d94/classOmniboxViewViews.html#a2b71803c688c8d3db0ddfe1a6c561208" target="_top" xlink:title=" ">
<polygon fill="white" stroke="black" points="386,-137 386,-167 547,-167 547,-137 386,-137"/>
<text text-anchor="start" x="394" y="-155" font-family="Helvetica,sans-Serif" font-size="10.00">OmniboxViewViews::SetWindow</text>
<text text-anchor="middle" x="466.5" y="-144" font-family="Helvetica,sans-Serif" font-size="10.00">TextAndCaretPos</text>
</a>
</g>
</g>
<!-- Node33&#45;&gt;Node34 -->
<g id="edge36" class="edge">
<title>Node33&#45;&gt;Node34</title>
<path fill="none" stroke="midnightblue" d="M603.29,-152C584.91,-152 565.37,-152 547.02,-152"/>
<polygon fill="midnightblue" stroke="midnightblue" points="603.37,-155.5 613.37,-152 603.37,-148.5 603.37,-155.5"/>
</g>
<!-- Node35 -->
<g id="node35" class="node">
<title>Node35</title>
<g id="a_node35"><a xlink:href="../../d0/d94/classOmniboxViewViews.html#acce156344df7256bce712db64896eaf6" target="_top" xlink:title=" ">
<polygon fill="white" stroke="black" points="181,-137 181,-167 350,-167 350,-137 181,-137"/>
<text text-anchor="start" x="189" y="-155" font-family="Helvetica,sans-Serif" font-size="10.00">OmniboxViewViews::OnTemporary</text>
<text text-anchor="middle" x="265.5" y="-144" font-family="Helvetica,sans-Serif" font-size="10.00">TextMaybeChanged</text>
</a>
</g>
</g>
<!-- Node34&#45;&gt;Node35 -->
<g id="edge37" class="edge">
<title>Node34&#45;&gt;Node35</title>
<path fill="none" stroke="midnightblue" d="M375.96,-152C367.36,-152 358.66,-152 350.12,-152"/>
<polygon fill="midnightblue" stroke="midnightblue" points="375.99,-155.5 385.99,-152 375.99,-148.5 375.99,-155.5"/>
</g>
<!-- Node36&#45;&gt;Node12 -->
<g id="edge39" class="edge">
<title>Node36&#45;&gt;Node12</title>
<path fill="none" stroke="midnightblue" d="M1497.51,-199C1489.01,-199 1480.38,-199 1472.06,-199"/>
<polygon fill="midnightblue" stroke="midnightblue" points="1497.78,-202.5 1507.78,-199 1497.78,-195.5 1497.78,-202.5"/>
</g>
<!-- Node38 -->
<g id="node38" class="node">
<title>Node38</title>
<g id="a_node38"><a xlink:href="../../d6/dea/classOmniboxPedalProvider.html#a7be77a55ea5e7c489e501e616726a9fd" target="_top" xlink:title=" ">
<polygon fill="white" stroke="black" points="2190,-233 2190,-263 2327,-263 2327,-233 2190,-233"/>
<text text-anchor="start" x="2198" y="-251" font-family="Helvetica,sans-Serif" font-size="10.00">OmniboxPedalProvider</text>
<text text-anchor="middle" x="2258.5" y="-240" font-family="Helvetica,sans-Serif" font-size="10.00">::LoadSynonymGroupString</text>
</a>
</g>
</g>
<!-- Node37&#45;&gt;Node38 -->
<g id="edge42" class="edge">
<title>Node37&#45;&gt;Node38</title>
<path fill="none" stroke="midnightblue" d="M2352.85,-246.45C2344.23,-246.59 2335.58,-246.74 2327.2,-246.87"/>
<polygon fill="midnightblue" stroke="midnightblue" points="2352.99,-249.95 2362.93,-246.28 2352.87,-242.95 2352.99,-249.95"/>
</g>
<!-- Node38&#45;&gt;Node3 -->
<g id="edge43" class="edge">
<title>Node38&#45;&gt;Node3</title>
<path fill="none" stroke="midnightblue" d="M2179.6,-237.52C2169.98,-236.22 2160.29,-234.92 2151.06,-233.68"/>
<polygon fill="midnightblue" stroke="midnightblue" points="2179.2,-241 2189.58,-238.86 2180.14,-234.06 2179.2,-241"/>
</g>
</g>
</svg>
        <g id="navigator" transform="translate(0 0)" fill="#404254">
                <rect fill="#f2f5e9" fill-opacity="0.5" stroke="#606060" stroke-width=".5" x="0" y="0" width="60" height="60"/>
                <use id="zoomplus" xlink:href="#zoomPlus" x="17" y="9" onmousedown="handleZoom(evt,'in')"/>
                <use id="zoomminus" xlink:href="#zoomMin" x="42" y="9" onmousedown="handleZoom(evt,'out')"/>
                <use id="reset" xlink:href="#resetDef" x="30" y="36" onmousedown="handleReset()"/>
                <g id="arrowUp" xlink:href="#dirArrow" transform="translate(30 24)" onmousedown="handlePan(0,-1)">
                  <use xlink:href="#rim" fill="#404040">
                        <set attributeName="fill" to="#808080" begin="arrowUp.mouseover" end="arrowUp.mouseout"/>
                  </use>
                  <path fill="none" stroke="white" stroke-width="1.5" d="M0,-3.0v7 M-2.5,-0.5L0,-3.0L2.5,-0.5"/>
                </g>
                <g id="arrowRight" xlink:href="#dirArrow" transform="rotate(90) translate(36 -43)" onmousedown="handlePan(1,0)">
                  <use xlink:href="#rim" fill="#404040">
                        <set attributeName="fill" to="#808080" begin="arrowRight.mouseover" end="arrowRight.mouseout"/>
                  </use>
                  <path fill="none" stroke="white" stroke-width="1.5" d="M0,-3.0v7 M-2.5,-0.5L0,-3.0L2.5,-0.5"/>
                </g>
                <g id="arrowDown" xlink:href="#dirArrow" transform="rotate(180) translate(-30 -48)" onmousedown="handlePan(0,1)">
                  <use xlink:href="#rim" fill="#404040">
                        <set attributeName="fill" to="#808080" begin="arrowDown.mouseover" end="arrowDown.mouseout"/>
                  </use>
                  <path fill="none" stroke="white" stroke-width="1.5" d="M0,-3.0v7 M-2.5,-0.5L0,-3.0L2.5,-0.5"/>
                </g>
                <g id="arrowLeft" xlink:href="#dirArrow" transform="rotate(270) translate(-36 17)" onmousedown="handlePan(-1,0)">
                  <use xlink:href="#rim" fill="#404040">
                        <set attributeName="fill" to="#808080" begin="arrowLeft.mouseover" end="arrowLeft.mouseout"/>
                  </use>
                  <path fill="none" stroke="white" stroke-width="1.5" d="M0,-3.0v7 M-2.5,-0.5L0,-3.0L2.5,-0.5"/>
                </g>
        </g>
        <svg viewBox="0 0 15 15" width="100%" height="30px" preserveAspectRatio="xMaxYMin meet">
         <g id="arrow_out" transform="scale(0.3 0.3)">
          <a xlink:href="classOmniboxPedal_1_1TokenSequence_a16976cda1ce1c50d3ba007d20c428b92_icgraph_org.svg" target="_base">
           <rect id="button" ry="5" rx="5" y="6" x="6" height="38" width="38"
                fill="#f2f5e9" fill-opacity="0.5" stroke="#606060" stroke-width="1.0"/>
           <path id="arrow"
             d="M 11.500037,31.436501 C 11.940474,20.09759 22.043105,11.32322 32.158766,21.979434 L 37.068811,17.246167 C 37.068811,17.246167 37.088388,32 37.088388,32 L 22.160133,31.978069 C 22.160133,31.978069 26.997745,27.140456 26.997745,27.140456 C 18.528582,18.264221 13.291696,25.230495 11.500037,31.436501 z"
             style="fill:#404040;"/>
          </a>
         </g>
        </svg>
</svg>
