<?xml version="1.0" encoding="UTF-8" standalone="no"?>
<!DOCTYPE svg PUBLIC "-//W3C//DTD SVG 1.1//EN"
 "http://www.w3.org/Graphics/SVG/1.1/DTD/svg11.dtd">
<!-- Generated by graphviz version 2.43.0 (0)
 -->
<!-- Title: OmniboxPedal::TokenSequence::Clear Pages: 1 -->
<!--zoomable 411 -->
<svg id="main" version="1.1" xmlns="http://www.w3.org/2000/svg" xmlns:xlink="http://www.w3.org/1999/xlink" xml:space="preserve" onload="init(evt)">
<style type="text/css"><![CDATA[
.edge:hover path { stroke: red; }
.edge:hover polygon { stroke: red; fill: red; }
]]></style>
<script type="text/javascript"><![CDATA[
var edges = document.getElementsByTagName('g');
if (edges && edges.length) {
  for (var i=0;i<edges.length;i++) {
    if (edges[i].id.substr(0,4)=='edge') {
      edges[i].setAttribute('class','edge');
    }
  }
}
]]></script>
        <defs>
                <circle id="rim" cx="0" cy="0" r="7"/>
                <circle id="rim2" cx="0" cy="0" r="3.5"/>
                <g id="zoomPlus">
                        <use xlink:href="#rim" fill="#404040">
                                <set attributeName="fill" to="#808080" begin="zoomplus.mouseover" end="zoomplus.mouseout"/>
                        </use>
                        <path d="M-4,0h8M0,-4v8" fill="none" stroke="white" stroke-width="1.5" pointer-events="none"/>
                </g>
                <g id="zoomMin">
                        <use xlink:href="#rim" fill="#404040">
                                <set attributeName="fill" to="#808080" begin="zoomminus.mouseover" end="zoomminus.mouseout"/>
                        </use>
                        <path d="M-4,0h8" fill="none" stroke="white" stroke-width="1.5" pointer-events="none"/>
                </g>
                <g id="dirArrow">
                        <path fill="none" stroke="white" stroke-width="1.5" d="M0,-3.0v7 M-2.5,-0.5L0,-3.0L2.5,-0.5"/>
                </g>
               <g id="resetDef">
                       <use xlink:href="#rim2" fill="#404040">
                               <set attributeName="fill" to="#808080" begin="reset.mouseover" end="reset.mouseout"/>
                       </use>
               </g>
        </defs>

<script type="text/javascript">
var viewWidth = 2719;
var viewHeight = 411;
var sectionId = 'dynsection-2';
</script>
<script xlink:href="../../svgpan.js"/>
<svg id="graph" class="graph">
<g id="viewport">
<title>OmniboxPedal::TokenSequence::Clear</title>
<polygon fill="white" stroke="transparent" points="-4,4 -4,-407 2715,-407 2715,4 -4,4"/>
<!-- Node1 -->
<g id="node1" class="node">
<title>Node1</title>
<g id="a_node1"><a xlink:title=" ">
<polygon fill="#bfbfbf" stroke="black" points="2555,-156.5 2555,-186.5 2711,-186.5 2711,-156.5 2555,-156.5"/>
<text text-anchor="start" x="2563" y="-174.5" font-family="Helvetica,sans-Serif" font-size="10.00">OmniboxPedal::TokenSequence</text>
<text text-anchor="middle" x="2633" y="-163.5" font-family="Helvetica,sans-Serif" font-size="10.00">::Clear</text>
</a>
</g>
</g>
<!-- Node2 -->
<g id="node2" class="node">
<title>Node2</title>
<g id="a_node2"><a xlink:href="../../d6/dea/classOmniboxPedalProvider.html#aadf4c378aa04749abe0178d33d6f356b" target="_top" xlink:title=" ">
<polygon fill="white" stroke="black" points="2383,-181.5 2383,-211.5 2499,-211.5 2499,-181.5 2383,-181.5"/>
<text text-anchor="start" x="2391" y="-199.5" font-family="Helvetica,sans-Serif" font-size="10.00">OmniboxPedalProvider</text>
<text text-anchor="middle" x="2441" y="-188.5" font-family="Helvetica,sans-Serif" font-size="10.00">::Tokenize</text>
</a>
</g>
</g>
<!-- Node1&#45;&gt;Node2 -->
<g id="edge1" class="edge">
<title>Node1&#45;&gt;Node2</title>
<path fill="none" stroke="midnightblue" d="M2544.88,-182.96C2529.41,-185 2513.65,-187.07 2499.27,-188.96"/>
<polygon fill="midnightblue" stroke="midnightblue" points="2545.54,-186.41 2554.99,-181.63 2544.62,-179.47 2545.54,-186.41"/>
</g>
<!-- Node33 -->
<g id="node33" class="node">
<title>Node33</title>
<g id="a_node33"><a xlink:href="../../d6/dea/classOmniboxPedalProvider.html#a5861d9f977203ab9939aac1fcc63b2f3" target="_top" xlink:title=" ">
<polygon fill="white" stroke="black" points="2363,-132.5 2363,-162.5 2519,-162.5 2519,-132.5 2363,-132.5"/>
<text text-anchor="start" x="2371" y="-150.5" font-family="Helvetica,sans-Serif" font-size="10.00">OmniboxPedalProvider</text>
<text text-anchor="middle" x="2441" y="-139.5" font-family="Helvetica,sans-Serif" font-size="10.00">::TokenizeAndExpandDictionary</text>
</a>
</g>
</g>
<!-- Node1&#45;&gt;Node33 -->
<g id="edge37" class="edge">
<title>Node1&#45;&gt;Node33</title>
<path fill="none" stroke="midnightblue" d="M2544.94,-160.5C2536.32,-159.41 2527.62,-158.32 2519.12,-157.24"/>
<polygon fill="midnightblue" stroke="midnightblue" points="2544.63,-163.99 2554.99,-161.77 2545.51,-157.05 2544.63,-163.99"/>
</g>
<!-- Node3 -->
<g id="node3" class="node">
<title>Node3</title>
<g id="a_node3"><a xlink:href="../../d6/dea/classOmniboxPedalProvider.html#a733ee803093783d0394e50aff09819e8" target="_top" xlink:title=" ">
<polygon fill="white" stroke="black" points="2200.5,-181.5 2200.5,-211.5 2316.5,-211.5 2316.5,-181.5 2200.5,-181.5"/>
<text text-anchor="start" x="2208.5" y="-199.5" font-family="Helvetica,sans-Serif" font-size="10.00">OmniboxPedalProvider</text>
<text text-anchor="middle" x="2258.5" y="-188.5" font-family="Helvetica,sans-Serif" font-size="10.00">::FindPedalMatch</text>
</a>
</g>
</g>
<!-- Node2&#45;&gt;Node3 -->
<g id="edge2" class="edge">
<title>Node2&#45;&gt;Node3</title>
<path fill="none" stroke="midnightblue" d="M2372.78,-196.5C2354.29,-196.5 2334.41,-196.5 2316.55,-196.5"/>
<polygon fill="midnightblue" stroke="midnightblue" points="2372.89,-200 2382.89,-196.5 2372.89,-193 2372.89,-200"/>
</g>
<!-- Node4 -->
<g id="node4" class="node">
<title>Node4</title>
<g id="a_node4"><a xlink:href="../../d6/dea/classOmniboxPedalProvider.html#a39a4fa25c20669c7ca3f0b91a7f9029e" target="_top" xlink:title=" ">
<polygon fill="white" stroke="black" points="2032,-181.5 2032,-211.5 2154,-211.5 2154,-181.5 2032,-181.5"/>
<text text-anchor="start" x="2040" y="-199.5" font-family="Helvetica,sans-Serif" font-size="10.00">OmniboxPedalProvider</text>
<text text-anchor="middle" x="2093" y="-188.5" font-family="Helvetica,sans-Serif" font-size="10.00">::FindReadyPedalMatch</text>
</a>
</g>
</g>
<!-- Node3&#45;&gt;Node4 -->
<g id="edge3" class="edge">
<title>Node3&#45;&gt;Node4</title>
<path fill="none" stroke="midnightblue" d="M2190.02,-196.5C2178.15,-196.5 2165.86,-196.5 2154.21,-196.5"/>
<polygon fill="midnightblue" stroke="midnightblue" points="2190.32,-200 2200.32,-196.5 2190.32,-193 2190.32,-200"/>
</g>
<!-- Node5 -->
<g id="node5" class="node">
<title>Node5</title>
<g id="a_node5"><a xlink:href="../../d3/d03/classAutocompleteResult.html#a859e254b656aae5c4f55dfd923e3e75a" target="_top" xlink:title=" ">
<polygon fill="white" stroke="black" points="1867,-182.5 1867,-212.5 1996,-212.5 1996,-182.5 1867,-182.5"/>
<text text-anchor="start" x="1875" y="-200.5" font-family="Helvetica,sans-Serif" font-size="10.00">AutocompleteResult</text>
<text text-anchor="middle" x="1931.5" y="-189.5" font-family="Helvetica,sans-Serif" font-size="10.00">::AttachPedalsToMatches</text>
</a>
</g>
</g>
<!-- Node4&#45;&gt;Node5 -->
<g id="edge4" class="edge">
<title>Node4&#45;&gt;Node5</title>
<path fill="none" stroke="midnightblue" d="M2021.48,-196.94C2013.02,-197 2004.43,-197.05 1996.08,-197.1"/>
<polygon fill="midnightblue" stroke="midnightblue" points="2021.72,-200.44 2031.7,-196.88 2021.68,-193.44 2021.72,-200.44"/>
</g>
<!-- Node6 -->
<g id="node6" class="node">
<title>Node6</title>
<g id="a_node6"><a xlink:href="../../df/d4d/classAutocompleteController.html#a4bd8523f1764eb72920409795b1fb1df" target="_top" xlink:title=" ">
<polygon fill="white" stroke="black" points="1687.5,-184.5 1687.5,-214.5 1806.5,-214.5 1806.5,-184.5 1687.5,-184.5"/>
<text text-anchor="start" x="1695.5" y="-202.5" font-family="Helvetica,sans-Serif" font-size="10.00">AutocompleteController</text>
<text text-anchor="middle" x="1747" y="-191.5" font-family="Helvetica,sans-Serif" font-size="10.00">::UpdateResult</text>
</a>
</g>
</g>
<!-- Node5&#45;&gt;Node6 -->
<g id="edge5" class="edge">
<title>Node5&#45;&gt;Node6</title>
<path fill="none" stroke="midnightblue" d="M1856.7,-198.31C1840.08,-198.49 1822.66,-198.68 1806.76,-198.86"/>
<polygon fill="midnightblue" stroke="midnightblue" points="1856.97,-201.81 1866.93,-198.2 1856.89,-194.81 1856.97,-201.81"/>
</g>
<!-- Node7 -->
<g id="node7" class="node">
<title>Node7</title>
<g id="a_node7"><a xlink:href="../../df/d4d/classAutocompleteController.html#ae1f4a40a8daa8c804b265590ff4415be" target="_top" xlink:title=" ">
<polygon fill="white" stroke="black" points="1508,-184.5 1508,-214.5 1627,-214.5 1627,-184.5 1508,-184.5"/>
<text text-anchor="start" x="1516" y="-202.5" font-family="Helvetica,sans-Serif" font-size="10.00">AutocompleteController</text>
<text text-anchor="middle" x="1567.5" y="-191.5" font-family="Helvetica,sans-Serif" font-size="10.00">::ExpireCopiedEntries</text>
</a>
</g>
</g>
<!-- Node6&#45;&gt;Node7 -->
<g id="edge6" class="edge">
<title>Node6&#45;&gt;Node7</title>
<path fill="none" stroke="midnightblue" d="M1677.22,-199.5C1660.65,-199.5 1643.1,-199.5 1627.05,-199.5"/>
<polygon fill="midnightblue" stroke="midnightblue" points="1677.39,-203 1687.39,-199.5 1677.39,-196 1677.39,-203"/>
</g>
<!-- Node23 -->
<g id="node23" class="node">
<title>Node23</title>
<g id="a_node23"><a xlink:href="../../df/d4d/classAutocompleteController.html#a6be8d5d8847f9862da417998c4785989" target="_top" xlink:title=" ">
<polygon fill="white" stroke="black" points="1198,-140.5 1198,-170.5 1317,-170.5 1317,-140.5 1198,-140.5"/>
<text text-anchor="start" x="1206" y="-158.5" font-family="Helvetica,sans-Serif" font-size="10.00">AutocompleteController</text>
<text text-anchor="middle" x="1257.5" y="-147.5" font-family="Helvetica,sans-Serif" font-size="10.00">::Start</text>
</a>
</g>
</g>
<!-- Node6&#45;&gt;Node23 -->
<g id="edge36" class="edge">
<title>Node6&#45;&gt;Node23</title>
<path fill="none" stroke="midnightblue" d="M1677.22,-183.87C1660.84,-180.63 1643.36,-177.58 1627,-175.5 1518.16,-161.64 1390.04,-157.38 1317.13,-156.07"/>
<polygon fill="midnightblue" stroke="midnightblue" points="1676.77,-187.35 1687.26,-185.9 1678.16,-180.49 1676.77,-187.35"/>
</g>
<!-- Node32 -->
<g id="node32" class="node">
<title>Node32</title>
<g id="a_node32"><a xlink:href="../../df/d4d/classAutocompleteController.html#a0d07fa1825d1adba7b2491bc682f57c5" target="_top" xlink:title=" ">
<polygon fill="white" stroke="black" points="1508,-233.5 1508,-263.5 1627,-263.5 1627,-233.5 1508,-233.5"/>
<text text-anchor="start" x="1516" y="-251.5" font-family="Helvetica,sans-Serif" font-size="10.00">AutocompleteController</text>
<text text-anchor="middle" x="1567.5" y="-240.5" font-family="Helvetica,sans-Serif" font-size="10.00">::OnProviderUpdate</text>
</a>
</g>
</g>
<!-- Node6&#45;&gt;Node32 -->
<g id="edge34" class="edge">
<title>Node6&#45;&gt;Node32</title>
<path fill="none" stroke="midnightblue" d="M1681.44,-217.32C1662.28,-222.61 1641.48,-228.35 1623.02,-233.45"/>
<polygon fill="midnightblue" stroke="midnightblue" points="1682.59,-220.64 1691.3,-214.6 1680.72,-213.89 1682.59,-220.64"/>
</g>
<!-- Node8 -->
<g id="node8" class="node">
<title>Node8</title>
<g id="a_node8"><a xlink:href="../../df/d4d/classAutocompleteController.html#a94fe99a16d5617d48084d6bc68b77099" target="_top" xlink:title=" ">
<polygon fill="white" stroke="black" points="1353,-233.5 1353,-263.5 1472,-263.5 1472,-233.5 1353,-233.5"/>
<text text-anchor="start" x="1361" y="-251.5" font-family="Helvetica,sans-Serif" font-size="10.00">AutocompleteController</text>
<text text-anchor="middle" x="1412.5" y="-240.5" font-family="Helvetica,sans-Serif" font-size="10.00">::DeleteMatch</text>
</a>
</g>
</g>
<!-- Node7&#45;&gt;Node8 -->
<g id="edge7" class="edge">
<title>Node7&#45;&gt;Node8</title>
<path fill="none" stroke="midnightblue" d="M1509.49,-217.76C1493.35,-222.93 1475.97,-228.49 1460.5,-233.45"/>
<polygon fill="midnightblue" stroke="midnightblue" points="1510.89,-220.98 1519.35,-214.6 1508.76,-214.32 1510.89,-220.98"/>
</g>
<!-- Node22 -->
<g id="node22" class="node">
<title>Node22</title>
<g id="a_node22"><a xlink:href="../../df/d4d/classAutocompleteController.html#aeab74bbaa0a7179385e15263d2193cc4" target="_top" xlink:title=" ">
<polygon fill="white" stroke="black" points="1353,-184.5 1353,-214.5 1472,-214.5 1472,-184.5 1353,-184.5"/>
<text text-anchor="start" x="1361" y="-202.5" font-family="Helvetica,sans-Serif" font-size="10.00">AutocompleteController</text>
<text text-anchor="middle" x="1412.5" y="-191.5" font-family="Helvetica,sans-Serif" font-size="10.00">::StartExpireTimer</text>
</a>
</g>
</g>
<!-- Node7&#45;&gt;Node22 -->
<g id="edge24" class="edge">
<title>Node7&#45;&gt;Node22</title>
<path fill="none" stroke="midnightblue" d="M1497.51,-199.5C1489.01,-199.5 1480.38,-199.5 1472.06,-199.5"/>
<polygon fill="midnightblue" stroke="midnightblue" points="1497.78,-203 1507.78,-199.5 1497.78,-196 1497.78,-203"/>
</g>
<!-- Node9 -->
<g id="node9" class="node">
<title>Node9</title>
<g id="a_node9"><a xlink:href="../../d1/db1/classOmniboxPopupModel.html#aa11680c969b457fc53da3446feabf8a8" target="_top" xlink:title=" ">
<polygon fill="white" stroke="black" points="1199.5,-284.5 1199.5,-314.5 1315.5,-314.5 1315.5,-284.5 1199.5,-284.5"/>
<text text-anchor="start" x="1207.5" y="-302.5" font-family="Helvetica,sans-Serif" font-size="10.00">OmniboxPopupModel::</text>
<text text-anchor="middle" x="1257.5" y="-291.5" font-family="Helvetica,sans-Serif" font-size="10.00">TryDeletingLine</text>
</a>
</g>
</g>
<!-- Node8&#45;&gt;Node9 -->
<g id="edge8" class="edge">
<title>Node8&#45;&gt;Node9</title>
<path fill="none" stroke="midnightblue" d="M1356.9,-266.7C1339.41,-272.53 1320.25,-278.92 1303.52,-284.49"/>
<polygon fill="midnightblue" stroke="midnightblue" points="1358.04,-270.01 1366.42,-263.53 1355.83,-263.37 1358.04,-270.01"/>
</g>
<!-- Node10 -->
<g id="node10" class="node">
<title>Node10</title>
<g id="a_node10"><a xlink:href="../../d0/d94/classOmniboxViewViews.html#a5a64c1e16631c3301fb57307402784dc" target="_top" xlink:title=" ">
<polygon fill="white" stroke="black" points="830.5,-372.5 830.5,-402.5 971.5,-402.5 971.5,-372.5 830.5,-372.5"/>
<text text-anchor="start" x="838.5" y="-390.5" font-family="Helvetica,sans-Serif" font-size="10.00">OmniboxViewViews::Handle</text>
<text text-anchor="middle" x="901" y="-379.5" font-family="Helvetica,sans-Serif" font-size="10.00">KeyEvent</text>
</a>
</g>
</g>
<!-- Node9&#45;&gt;Node10 -->
<g id="edge9" class="edge">
<title>Node9&#45;&gt;Node10</title>
<path fill="none" stroke="midnightblue" d="M1190.47,-317.16C1180.93,-319.65 1171.22,-322.16 1162,-324.5 1095.14,-341.44 1018.36,-359.93 965.67,-372.46"/>
<polygon fill="midnightblue" stroke="midnightblue" points="1191.55,-320.49 1200.33,-314.57 1189.77,-313.72 1191.55,-320.49"/>
</g>
<!-- Node11 -->
<g id="node11" class="node">
<title>Node11</title>
<g id="a_node11"><a xlink:href="../../d1/db1/classOmniboxPopupModel.html#acf1ecd019bf8b90655bb4a6c3dd7f8b1" target="_top" xlink:title=" ">
<polygon fill="white" stroke="black" points="1031,-284.5 1031,-314.5 1147,-314.5 1147,-284.5 1031,-284.5"/>
<text text-anchor="start" x="1039" y="-302.5" font-family="Helvetica,sans-Serif" font-size="10.00">OmniboxPopupModel::</text>
<text text-anchor="middle" x="1089" y="-291.5" font-family="Helvetica,sans-Serif" font-size="10.00">TriggerSelectionAction</text>
</a>
</g>
</g>
<!-- Node9&#45;&gt;Node11 -->
<g id="edge10" class="edge">
<title>Node9&#45;&gt;Node11</title>
<path fill="none" stroke="midnightblue" d="M1189.18,-299.5C1175.23,-299.5 1160.66,-299.5 1147.12,-299.5"/>
<polygon fill="midnightblue" stroke="midnightblue" points="1189.2,-303 1199.2,-299.5 1189.2,-296 1189.2,-303"/>
</g>
<!-- Node11&#45;&gt;Node10 -->
<g id="edge18" class="edge">
<title>Node11&#45;&gt;Node10</title>
<path fill="none" stroke="midnightblue" d="M1053.02,-319.73C1032.15,-331.43 1004.94,-346.06 980,-357.5 968.53,-362.76 955.84,-367.91 944.1,-372.42"/>
<polygon fill="midnightblue" stroke="midnightblue" points="1054.86,-322.71 1061.84,-314.75 1051.41,-316.62 1054.86,-322.71"/>
</g>
<!-- Node12 -->
<g id="node12" class="node">
<title>Node12</title>
<g id="a_node12"><a xlink:href="../../d3/d4c/classOmniboxResultView.html#a7bd0ac4077f48f8cc13698e19ed36eb6" target="_top" xlink:title=" ">
<polygon fill="white" stroke="black" points="628.5,-333.5 628.5,-363.5 740.5,-363.5 740.5,-333.5 628.5,-333.5"/>
<text text-anchor="start" x="636.5" y="-351.5" font-family="Helvetica,sans-Serif" font-size="10.00">OmniboxResultView::</text>
<text text-anchor="middle" x="684.5" y="-340.5" font-family="Helvetica,sans-Serif" font-size="10.00">ButtonPressed</text>
</a>
</g>
</g>
<!-- Node11&#45;&gt;Node12 -->
<g id="edge11" class="edge">
<title>Node11&#45;&gt;Node12</title>
<path fill="none" stroke="midnightblue" d="M1020.73,-316.67C1007.31,-319.64 993.26,-322.44 980,-324.5 897.13,-337.4 799.98,-343.61 740.6,-346.42"/>
<polygon fill="midnightblue" stroke="midnightblue" points="1021.88,-320 1030.85,-314.37 1020.33,-313.17 1021.88,-320"/>
</g>
<!-- Node16 -->
<g id="node16" class="node">
<title>Node16</title>
<g id="a_node16"><a xlink:href="../../d3/d0a/classOmniboxSuggestionButtonRowView.html#a35216a3671475e4ee13507b0465d5eb8" target="_top" xlink:title=" ">
<polygon fill="white" stroke="black" points="824.5,-284.5 824.5,-314.5 977.5,-314.5 977.5,-284.5 824.5,-284.5"/>
<text text-anchor="start" x="832.5" y="-302.5" font-family="Helvetica,sans-Serif" font-size="10.00">OmniboxSuggestionButtonRow</text>
<text text-anchor="middle" x="901" y="-291.5" font-family="Helvetica,sans-Serif" font-size="10.00">View::ButtonPressed</text>
</a>
</g>
</g>
<!-- Node11&#45;&gt;Node16 -->
<g id="edge15" class="edge">
<title>Node11&#45;&gt;Node16</title>
<path fill="none" stroke="midnightblue" d="M1020.92,-299.5C1006.93,-299.5 992.09,-299.5 977.82,-299.5"/>
<polygon fill="midnightblue" stroke="midnightblue" points="1020.93,-303 1030.93,-299.5 1020.93,-296 1020.93,-303"/>
</g>
<!-- Node18 -->
<g id="node18" class="node">
<title>Node18</title>
<g id="a_node18"><a xlink:href="../../d2/dcb/classOmniboxRowView_1_1HeaderView.html#a441ded0bc83346ff1773063183d470f2" target="_top" xlink:title=" ">
<polygon fill="white" stroke="black" points="822.5,-235.5 822.5,-265.5 979.5,-265.5 979.5,-235.5 822.5,-235.5"/>
<text text-anchor="start" x="830.5" y="-253.5" font-family="Helvetica,sans-Serif" font-size="10.00">OmniboxRowView::HeaderView</text>
<text text-anchor="middle" x="901" y="-242.5" font-family="Helvetica,sans-Serif" font-size="10.00">::HeaderToggleButtonPressed</text>
</a>
</g>
</g>
<!-- Node11&#45;&gt;Node18 -->
<g id="edge19" class="edge">
<title>Node11&#45;&gt;Node18</title>
<path fill="none" stroke="midnightblue" d="M1021.1,-281.88C1000.76,-276.52 978.59,-270.68 958.96,-265.51"/>
<polygon fill="midnightblue" stroke="midnightblue" points="1020.37,-285.3 1030.93,-284.47 1022.15,-278.53 1020.37,-285.3"/>
</g>
<!-- Node21 -->
<g id="node21" class="node">
<title>Node21</title>
<g id="a_node21"><a xlink:href="../../d2/dcb/classOmniboxRowView_1_1HeaderView.html#af9e1207af3e2688cdccfd7b8c1267a3c" target="_top" xlink:title=" ">
<polygon fill="white" stroke="black" points="822.5,-186.5 822.5,-216.5 979.5,-216.5 979.5,-186.5 822.5,-186.5"/>
<text text-anchor="start" x="830.5" y="-204.5" font-family="Helvetica,sans-Serif" font-size="10.00">OmniboxRowView::HeaderView</text>
<text text-anchor="middle" x="901" y="-193.5" font-family="Helvetica,sans-Serif" font-size="10.00">::OnMouseReleased</text>
</a>
</g>
</g>
<!-- Node11&#45;&gt;Node21 -->
<g id="edge23" class="edge">
<title>Node11&#45;&gt;Node21</title>
<path fill="none" stroke="midnightblue" d="M1060.97,-278.03C1039.88,-262.1 1009.34,-240.76 980,-226.5 972.45,-222.83 964.24,-219.53 956.07,-216.61"/>
<polygon fill="midnightblue" stroke="midnightblue" points="1059.05,-280.97 1069.12,-284.28 1063.31,-275.42 1059.05,-280.97"/>
</g>
<!-- Node13 -->
<g id="node13" class="node">
<title>Node13</title>
<g id="a_node13"><a xlink:href="../../d3/d4c/classOmniboxResultView.html#a632535684d6941455e8979815a978a44" target="_top" xlink:title=" ">
<polygon fill="white" stroke="black" points="410.5,-284.5 410.5,-314.5 522.5,-314.5 522.5,-284.5 410.5,-284.5"/>
<text text-anchor="start" x="418.5" y="-302.5" font-family="Helvetica,sans-Serif" font-size="10.00">OmniboxResultView::</text>
<text text-anchor="middle" x="466.5" y="-291.5" font-family="Helvetica,sans-Serif" font-size="10.00">OmniboxResultView</text>
</a>
</g>
</g>
<!-- Node12&#45;&gt;Node13 -->
<g id="edge12" class="edge">
<title>Node12&#45;&gt;Node13</title>
<path fill="none" stroke="midnightblue" d="M618.33,-333.72C587.86,-326.8 551.97,-318.66 522.84,-312.05"/>
<polygon fill="midnightblue" stroke="midnightblue" points="617.91,-337.21 628.44,-336.01 619.46,-330.38 617.91,-337.21"/>
</g>
<!-- Node14 -->
<g id="node14" class="node">
<title>Node14</title>
<g id="a_node14"><a xlink:href="../../d7/d88/classOmniboxPopupContentsView.html#aa8f47263f229af6a469c3bf964b81162" target="_top" xlink:title=" ">
<polygon fill="white" stroke="black" points="193,-261.5 193,-291.5 338,-291.5 338,-261.5 193,-261.5"/>
<text text-anchor="start" x="201" y="-279.5" font-family="Helvetica,sans-Serif" font-size="10.00">OmniboxPopupContentsView</text>
<text text-anchor="middle" x="265.5" y="-268.5" font-family="Helvetica,sans-Serif" font-size="10.00">::UpdatePopupAppearance</text>
</a>
</g>
</g>
<!-- Node13&#45;&gt;Node14 -->
<g id="edge13" class="edge">
<title>Node13&#45;&gt;Node14</title>
<path fill="none" stroke="midnightblue" d="M400.17,-291.95C380.33,-289.66 358.44,-287.13 338.21,-284.79"/>
<polygon fill="midnightblue" stroke="midnightblue" points="400,-295.45 410.33,-293.12 400.8,-288.5 400,-295.45"/>
</g>
<!-- Node15 -->
<g id="node15" class="node">
<title>Node15</title>
<g id="a_node15"><a xlink:href="../../d7/d88/classOmniboxPopupContentsView.html#a0e658101bc19acb66f6e0915fd6c2fe3" target="_top" xlink:title=" ">
<polygon fill="white" stroke="black" points="0,-261.5 0,-291.5 145,-291.5 145,-261.5 0,-261.5"/>
<text text-anchor="start" x="8" y="-279.5" font-family="Helvetica,sans-Serif" font-size="10.00">OmniboxPopupContentsView</text>
<text text-anchor="middle" x="72.5" y="-268.5" font-family="Helvetica,sans-Serif" font-size="10.00">::OnWidgetBoundsChanged</text>
</a>
</g>
</g>
<!-- Node14&#45;&gt;Node15 -->
<g id="edge14" class="edge">
<title>Node14&#45;&gt;Node15</title>
<path fill="none" stroke="midnightblue" d="M182.51,-276.5C170.12,-276.5 157.41,-276.5 145.25,-276.5"/>
<polygon fill="midnightblue" stroke="midnightblue" points="182.84,-280 192.84,-276.5 182.84,-273 182.84,-280"/>
</g>
<!-- Node17 -->
<g id="node17" class="node">
<title>Node17</title>
<g id="a_node17"><a xlink:href="../../d3/d0a/classOmniboxSuggestionButtonRowView.html#a7272410c3b801796d1c9cbeb37f9b3e7" target="_top" xlink:title=" ">
<polygon fill="white" stroke="black" points="583,-284.5 583,-314.5 786,-314.5 786,-284.5 583,-284.5"/>
<text text-anchor="start" x="591" y="-302.5" font-family="Helvetica,sans-Serif" font-size="10.00">OmniboxSuggestionButtonRow</text>
<text text-anchor="middle" x="684.5" y="-291.5" font-family="Helvetica,sans-Serif" font-size="10.00">View::OmniboxSuggestionButtonRowView</text>
</a>
</g>
</g>
<!-- Node16&#45;&gt;Node17 -->
<g id="edge16" class="edge">
<title>Node16&#45;&gt;Node17</title>
<path fill="none" stroke="midnightblue" d="M814.16,-299.5C805.02,-299.5 795.66,-299.5 786.37,-299.5"/>
<polygon fill="midnightblue" stroke="midnightblue" points="814.38,-303 824.38,-299.5 814.38,-296 814.38,-303"/>
</g>
<!-- Node17&#45;&gt;Node13 -->
<g id="edge17" class="edge">
<title>Node17&#45;&gt;Node13</title>
<path fill="none" stroke="midnightblue" d="M572.58,-299.5C555.27,-299.5 538.05,-299.5 522.72,-299.5"/>
<polygon fill="midnightblue" stroke="midnightblue" points="572.77,-303 582.77,-299.5 572.77,-296 572.77,-303"/>
</g>
<!-- Node19 -->
<g id="node19" class="node">
<title>Node19</title>
<g id="a_node19"><a xlink:href="../../d2/dcb/classOmniboxRowView_1_1HeaderView.html#ad1abf8339bf99de0b39a9bb43111ba93" target="_top" xlink:title=" ">
<polygon fill="white" stroke="black" points="606,-235.5 606,-265.5 763,-265.5 763,-235.5 606,-235.5"/>
<text text-anchor="start" x="614" y="-253.5" font-family="Helvetica,sans-Serif" font-size="10.00">OmniboxRowView::HeaderView</text>
<text text-anchor="middle" x="684.5" y="-242.5" font-family="Helvetica,sans-Serif" font-size="10.00">::HeaderView</text>
</a>
</g>
</g>
<!-- Node18&#45;&gt;Node19 -->
<g id="edge20" class="edge">
<title>Node18&#45;&gt;Node19</title>
<path fill="none" stroke="midnightblue" d="M811.8,-250.5C795.73,-250.5 779.08,-250.5 763.34,-250.5"/>
<polygon fill="midnightblue" stroke="midnightblue" points="812.26,-254 822.26,-250.5 812.26,-247 812.26,-254"/>
</g>
<!-- Node20 -->
<g id="node20" class="node">
<title>Node20</title>
<g id="a_node20"><a xlink:href="../../da/da2/classOmniboxRowView.html#a6add650851301372ee9b8a6671cfa28c" target="_top" xlink:title=" ">
<polygon fill="white" stroke="black" points="386.5,-243 386.5,-262 546.5,-262 546.5,-243 386.5,-243"/>
<text text-anchor="middle" x="466.5" y="-250" font-family="Helvetica,sans-Serif" font-size="10.00">OmniboxRowView::ShowHeader</text>
</a>
</g>
</g>
<!-- Node19&#45;&gt;Node20 -->
<g id="edge21" class="edge">
<title>Node19&#45;&gt;Node20</title>
<path fill="none" stroke="midnightblue" d="M595.8,-251.31C579.54,-251.46 562.65,-251.62 546.67,-251.77"/>
<polygon fill="midnightblue" stroke="midnightblue" points="595.86,-254.81 605.82,-251.22 595.79,-247.81 595.86,-254.81"/>
</g>
<!-- Node20&#45;&gt;Node14 -->
<g id="edge22" class="edge">
<title>Node20&#45;&gt;Node14</title>
<path fill="none" stroke="midnightblue" d="M376.39,-263.25C363.62,-264.79 350.61,-266.36 338.24,-267.85"/>
<polygon fill="midnightblue" stroke="midnightblue" points="377.06,-266.69 386.56,-262.02 376.22,-259.74 377.06,-266.69"/>
</g>
<!-- Node22&#45;&gt;Node23 -->
<g id="edge25" class="edge">
<title>Node22&#45;&gt;Node23</title>
<path fill="none" stroke="midnightblue" d="M1349.56,-181.69C1336.69,-177.98 1323.24,-174.12 1310.75,-170.53"/>
<polygon fill="midnightblue" stroke="midnightblue" points="1348.7,-185.08 1359.27,-184.48 1350.63,-178.35 1348.7,-185.08"/>
</g>
<!-- Node24 -->
<g id="node24" class="node">
<title>Node24</title>
<g id="a_node24"><a xlink:href="../../d0/d22/classOmniboxEditModel.html#a47216ae17e9b4c06e3a827008d04a744" target="_top" xlink:title=" ">
<polygon fill="white" stroke="black" points="1016,-88.5 1016,-118.5 1162,-118.5 1162,-88.5 1016,-88.5"/>
<text text-anchor="start" x="1024" y="-106.5" font-family="Helvetica,sans-Serif" font-size="10.00">OmniboxEditModel::StartZero</text>
<text text-anchor="middle" x="1089" y="-95.5" font-family="Helvetica,sans-Serif" font-size="10.00">SuggestRequest</text>
</a>
</g>
</g>
<!-- Node23&#45;&gt;Node24 -->
<g id="edge26" class="edge">
<title>Node23&#45;&gt;Node24</title>
<path fill="none" stroke="midnightblue" d="M1198.53,-137.4C1178.78,-131.23 1156.94,-124.41 1138.05,-118.51"/>
<polygon fill="midnightblue" stroke="midnightblue" points="1197.75,-140.82 1208.34,-140.46 1199.84,-134.14 1197.75,-140.82"/>
</g>
<!-- Node25 -->
<g id="node25" class="node">
<title>Node25</title>
<g id="a_node25"><a xlink:href="../../d0/d94/classOmniboxViewViews.html#a16e7321918d0a4985e618a5249a32881" target="_top" xlink:title=" ">
<polygon fill="white" stroke="black" points="822,-137.5 822,-167.5 980,-167.5 980,-137.5 822,-137.5"/>
<text text-anchor="start" x="830" y="-155.5" font-family="Helvetica,sans-Serif" font-size="10.00">OmniboxViewViews::OnGesture</text>
<text text-anchor="middle" x="901" y="-144.5" font-family="Helvetica,sans-Serif" font-size="10.00">Event</text>
</a>
</g>
</g>
<!-- Node24&#45;&gt;Node25 -->
<g id="edge27" class="edge">
<title>Node24&#45;&gt;Node25</title>
<path fill="none" stroke="midnightblue" d="M1021.1,-121.12C1000.76,-126.48 978.59,-132.32 958.96,-137.49"/>
<polygon fill="midnightblue" stroke="midnightblue" points="1022.15,-124.47 1030.93,-118.53 1020.37,-117.7 1022.15,-124.47"/>
</g>
<!-- Node26 -->
<g id="node26" class="node">
<title>Node26</title>
<g id="a_node26"><a xlink:href="../../d0/d94/classOmniboxViewViews.html#a9fc21bac19f3a666e10eabc84b72c745" target="_top" xlink:title=" ">
<polygon fill="white" stroke="black" points="825,-88.5 825,-118.5 977,-118.5 977,-88.5 825,-88.5"/>
<text text-anchor="start" x="833" y="-106.5" font-family="Helvetica,sans-Serif" font-size="10.00">OmniboxViewViews::OnMouse</text>
<text text-anchor="middle" x="901" y="-95.5" font-family="Helvetica,sans-Serif" font-size="10.00">Pressed</text>
</a>
</g>
</g>
<!-- Node24&#45;&gt;Node26 -->
<g id="edge28" class="edge">
<title>Node24&#45;&gt;Node26</title>
<path fill="none" stroke="midnightblue" d="M1005.63,-103.5C996.18,-103.5 986.57,-103.5 977.21,-103.5"/>
<polygon fill="midnightblue" stroke="midnightblue" points="1005.82,-107 1015.82,-103.5 1005.82,-100 1005.82,-107"/>
</g>
<!-- Node27 -->
<g id="node27" class="node">
<title>Node27</title>
<g id="a_node27"><a xlink:href="../../d0/d94/classOmniboxViewViews.html#ae9d72f709ba57cd59d22d6fbef32dd1c" target="_top" xlink:title=" ">
<polygon fill="white" stroke="black" points="825,-50 825,-69 977,-69 977,-50 825,-50"/>
<text text-anchor="middle" x="901" y="-57" font-family="Helvetica,sans-Serif" font-size="10.00">OmniboxViewViews::SetFocus</text>
</a>
</g>
</g>
<!-- Node24&#45;&gt;Node27 -->
<g id="edge29" class="edge">
<title>Node24&#45;&gt;Node27</title>
<path fill="none" stroke="midnightblue" d="M1014.46,-86.1C989.84,-80.28 963.31,-74 942.21,-69.01"/>
<polygon fill="midnightblue" stroke="midnightblue" points="1013.97,-89.58 1024.51,-88.48 1015.58,-82.77 1013.97,-89.58"/>
</g>
<!-- Node28 -->
<g id="node28" class="node">
<title>Node28</title>
<g id="a_node28"><a xlink:href="../../d0/d22/classOmniboxEditModel.html#a8fd45b4cc033ef4a4c36d313a279ee33" target="_top" xlink:title=" ">
<polygon fill="white" stroke="black" points="832.5,-0.5 832.5,-30.5 969.5,-30.5 969.5,-0.5 832.5,-0.5"/>
<text text-anchor="start" x="840.5" y="-18.5" font-family="Helvetica,sans-Serif" font-size="10.00">OmniboxEditModel::Update</text>
<text text-anchor="middle" x="901" y="-7.5" font-family="Helvetica,sans-Serif" font-size="10.00">Input</text>
</a>
</g>
</g>
<!-- Node24&#45;&gt;Node28 -->
<g id="edge30" class="edge">
<title>Node24&#45;&gt;Node28</title>
<path fill="none" stroke="midnightblue" d="M1057.06,-83.02C1035.97,-69.67 1007.07,-52.56 980,-40.5 971.95,-36.91 963.22,-33.6 954.62,-30.63"/>
<polygon fill="midnightblue" stroke="midnightblue" points="1055.29,-86.03 1065.6,-88.48 1059.06,-80.14 1055.29,-86.03"/>
</g>
<!-- Node29 -->
<g id="node29" class="node">
<title>Node29</title>
<g id="a_node29"><a xlink:href="../../d0/d94/classOmniboxViewViews.html#aa74a64e459c128dff566e7392751a67f" target="_top" xlink:title=" ">
<polygon fill="white" stroke="black" points="613.5,-0.5 613.5,-30.5 755.5,-30.5 755.5,-0.5 613.5,-0.5"/>
<text text-anchor="start" x="621.5" y="-18.5" font-family="Helvetica,sans-Serif" font-size="10.00">OmniboxViewViews::Update</text>
<text text-anchor="middle" x="684.5" y="-7.5" font-family="Helvetica,sans-Serif" font-size="10.00">Popup</text>
</a>
</g>
</g>
<!-- Node28&#45;&gt;Node29 -->
<g id="edge31" class="edge">
<title>Node28&#45;&gt;Node29</title>
<path fill="none" stroke="midnightblue" d="M822.24,-15.5C800.49,-15.5 776.98,-15.5 755.69,-15.5"/>
<polygon fill="midnightblue" stroke="midnightblue" points="822.43,-19 832.43,-15.5 822.43,-12 822.43,-19"/>
</g>
<!-- Node30 -->
<g id="node30" class="node">
<title>Node30</title>
<g id="a_node30"><a xlink:href="../../d0/d94/classOmniboxViewViews.html#a2b71803c688c8d3db0ddfe1a6c561208" target="_top" xlink:title=" ">
<polygon fill="white" stroke="black" points="386,-0.5 386,-30.5 547,-30.5 547,-0.5 386,-0.5"/>
<text text-anchor="start" x="394" y="-18.5" font-family="Helvetica,sans-Serif" font-size="10.00">OmniboxViewViews::SetWindow</text>
<text text-anchor="middle" x="466.5" y="-7.5" font-family="Helvetica,sans-Serif" font-size="10.00">TextAndCaretPos</text>
</a>
</g>
</g>
<!-- Node29&#45;&gt;Node30 -->
<g id="edge32" class="edge">
<title>Node29&#45;&gt;Node30</title>
<path fill="none" stroke="midnightblue" d="M603.29,-15.5C584.91,-15.5 565.37,-15.5 547.02,-15.5"/>
<polygon fill="midnightblue" stroke="midnightblue" points="603.37,-19 613.37,-15.5 603.37,-12 603.37,-19"/>
</g>
<!-- Node31 -->
<g id="node31" class="node">
<title>Node31</title>
<g id="a_node31"><a xlink:href="../../d0/d94/classOmniboxViewViews.html#acce156344df7256bce712db64896eaf6" target="_top" xlink:title=" ">
<polygon fill="white" stroke="black" points="181,-0.5 181,-30.5 350,-30.5 350,-0.5 181,-0.5"/>
<text text-anchor="start" x="189" y="-18.5" font-family="Helvetica,sans-Serif" font-size="10.00">OmniboxViewViews::OnTemporary</text>
<text text-anchor="middle" x="265.5" y="-7.5" font-family="Helvetica,sans-Serif" font-size="10.00">TextMaybeChanged</text>
</a>
</g>
</g>
<!-- Node30&#45;&gt;Node31 -->
<g id="edge33" class="edge">
<title>Node30&#45;&gt;Node31</title>
<path fill="none" stroke="midnightblue" d="M375.96,-15.5C367.36,-15.5 358.66,-15.5 350.12,-15.5"/>
<polygon fill="midnightblue" stroke="midnightblue" points="375.99,-19 385.99,-15.5 375.99,-12 375.99,-19"/>
</g>
<!-- Node32&#45;&gt;Node8 -->
<g id="edge35" class="edge">
<title>Node32&#45;&gt;Node8</title>
<path fill="none" stroke="midnightblue" d="M1497.51,-248.5C1489.01,-248.5 1480.38,-248.5 1472.06,-248.5"/>
<polygon fill="midnightblue" stroke="midnightblue" points="1497.78,-252 1507.78,-248.5 1497.78,-245 1497.78,-252"/>
</g>
<!-- Node34 -->
<g id="node34" class="node">
<title>Node34</title>
<g id="a_node34"><a xlink:href="../../d6/dea/classOmniboxPedalProvider.html#a7be77a55ea5e7c489e501e616726a9fd" target="_top" xlink:title=" ">
<polygon fill="white" stroke="black" points="2190,-132.5 2190,-162.5 2327,-162.5 2327,-132.5 2190,-132.5"/>
<text text-anchor="start" x="2198" y="-150.5" font-family="Helvetica,sans-Serif" font-size="10.00">OmniboxPedalProvider</text>
<text text-anchor="middle" x="2258.5" y="-139.5" font-family="Helvetica,sans-Serif" font-size="10.00">::LoadSynonymGroupString</text>
</a>
</g>
</g>
<!-- Node33&#45;&gt;Node34 -->
<g id="edge38" class="edge">
<title>Node33&#45;&gt;Node34</title>
<path fill="none" stroke="midnightblue" d="M2352.85,-147.5C2344.23,-147.5 2335.58,-147.5 2327.2,-147.5"/>
<polygon fill="midnightblue" stroke="midnightblue" points="2352.93,-151 2362.93,-147.5 2352.93,-144 2352.93,-151"/>
</g>
<!-- Node35 -->
<g id="node35" class="node">
<title>Node35</title>
<g id="a_node35"><a xlink:href="../../d6/dea/classOmniboxPedalProvider.html#a0bd5fe3f161da3546849e4faa484ab3c" target="_top" xlink:title=" ">
<polygon fill="white" stroke="black" points="2035,-132.5 2035,-162.5 2151,-162.5 2151,-132.5 2035,-132.5"/>
<text text-anchor="start" x="2043" y="-150.5" font-family="Helvetica,sans-Serif" font-size="10.00">OmniboxPedalProvider</text>
<text text-anchor="middle" x="2093" y="-139.5" font-family="Helvetica,sans-Serif" font-size="10.00">::LoadPedalConcepts</text>
</a>
</g>
</g>
<!-- Node34&#45;&gt;Node35 -->
<g id="edge39" class="edge">
<title>Node34&#45;&gt;Node35</title>
<path fill="none" stroke="midnightblue" d="M2179.3,-147.5C2169.78,-147.5 2160.19,-147.5 2151.06,-147.5"/>
<polygon fill="midnightblue" stroke="midnightblue" points="2179.58,-151 2189.58,-147.5 2179.58,-144 2179.58,-151"/>
</g>
<!-- Node36 -->
<g id="node36" class="node">
<title>Node36</title>
<g id="a_node36"><a xlink:href="../../d6/dea/classOmniboxPedalProvider.html#aac587d07bb182c56eefe728e7654c1ec" target="_top" xlink:title=" ">
<polygon fill="white" stroke="black" points="1870.5,-132.5 1870.5,-162.5 1992.5,-162.5 1992.5,-132.5 1870.5,-132.5"/>
<text text-anchor="start" x="1878.5" y="-150.5" font-family="Helvetica,sans-Serif" font-size="10.00">OmniboxPedalProvider</text>
<text text-anchor="middle" x="1931.5" y="-139.5" font-family="Helvetica,sans-Serif" font-size="10.00">::OmniboxPedalProvider</text>
</a>
</g>
</g>
<!-- Node35&#45;&gt;Node36 -->
<g id="edge40" class="edge">
<title>Node35&#45;&gt;Node36</title>
<path fill="none" stroke="midnightblue" d="M2024.79,-147.5C2014.15,-147.5 2003.2,-147.5 1992.74,-147.5"/>
<polygon fill="midnightblue" stroke="midnightblue" points="2024.87,-151 2034.87,-147.5 2024.87,-144 2024.87,-151"/>
</g>
<!-- Node37 -->
<g id="node37" class="node">
<title>Node37</title>
<g id="a_node37"><a xlink:href="../../d5/dfc/classMockAutocompleteProviderClient.html#adbd27317c195d16980fdfd8722952006" target="_top" xlink:title=" ">
<polygon fill="white" stroke="black" points="1663,-124 1663,-165 1831,-165 1831,-124 1663,-124"/>
<text text-anchor="start" x="1671" y="-153" font-family="Helvetica,sans-Serif" font-size="10.00">MockAutocompleteProvider</text>
<text text-anchor="start" x="1671" y="-142" font-family="Helvetica,sans-Serif" font-size="10.00">Client::MockAutocompleteProvider</text>
<text text-anchor="middle" x="1747" y="-131" font-family="Helvetica,sans-Serif" font-size="10.00">Client</text>
</a>
</g>
</g>
<!-- Node36&#45;&gt;Node37 -->
<g id="edge41" class="edge">
<title>Node36&#45;&gt;Node37</title>
<path fill="none" stroke="midnightblue" d="M1860.3,-146.35C1850.78,-146.19 1840.93,-146.03 1831.21,-145.87"/>
<polygon fill="midnightblue" stroke="midnightblue" points="1860.43,-149.85 1870.49,-146.51 1860.55,-142.85 1860.43,-149.85"/>
</g>
</g>
</svg>
        <g id="navigator" transform="translate(0 0)" fill="#404254">
                <rect fill="#f2f5e9" fill-opacity="0.5" stroke="#606060" stroke-width=".5" x="0" y="0" width="60" height="60"/>
                <use id="zoomplus" xlink:href="#zoomPlus" x="17" y="9" onmousedown="handleZoom(evt,'in')"/>
                <use id="zoomminus" xlink:href="#zoomMin" x="42" y="9" onmousedown="handleZoom(evt,'out')"/>
                <use id="reset" xlink:href="#resetDef" x="30" y="36" onmousedown="handleReset()"/>
                <g id="arrowUp" xlink:href="#dirArrow" transform="translate(30 24)" onmousedown="handlePan(0,-1)">
                  <use xlink:href="#rim" fill="#404040">
                        <set attributeName="fill" to="#808080" begin="arrowUp.mouseover" end="arrowUp.mouseout"/>
                  </use>
                  <path fill="none" stroke="white" stroke-width="1.5" d="M0,-3.0v7 M-2.5,-0.5L0,-3.0L2.5,-0.5"/>
                </g>
                <g id="arrowRight" xlink:href="#dirArrow" transform="rotate(90) translate(36 -43)" onmousedown="handlePan(1,0)">
                  <use xlink:href="#rim" fill="#404040">
                        <set attributeName="fill" to="#808080" begin="arrowRight.mouseover" end="arrowRight.mouseout"/>
                  </use>
                  <path fill="none" stroke="white" stroke-width="1.5" d="M0,-3.0v7 M-2.5,-0.5L0,-3.0L2.5,-0.5"/>
                </g>
                <g id="arrowDown" xlink:href="#dirArrow" transform="rotate(180) translate(-30 -48)" onmousedown="handlePan(0,1)">
                  <use xlink:href="#rim" fill="#404040">
                        <set attributeName="fill" to="#808080" begin="arrowDown.mouseover" end="arrowDown.mouseout"/>
                  </use>
                  <path fill="none" stroke="white" stroke-width="1.5" d="M0,-3.0v7 M-2.5,-0.5L0,-3.0L2.5,-0.5"/>
                </g>
                <g id="arrowLeft" xlink:href="#dirArrow" transform="rotate(270) translate(-36 17)" onmousedown="handlePan(-1,0)">
                  <use xlink:href="#rim" fill="#404040">
                        <set attributeName="fill" to="#808080" begin="arrowLeft.mouseover" end="arrowLeft.mouseout"/>
                  </use>
                  <path fill="none" stroke="white" stroke-width="1.5" d="M0,-3.0v7 M-2.5,-0.5L0,-3.0L2.5,-0.5"/>
                </g>
        </g>
        <svg viewBox="0 0 15 15" width="100%" height="30px" preserveAspectRatio="xMaxYMin meet">
         <g id="arrow_out" transform="scale(0.3 0.3)">
          <a xlink:href="classOmniboxPedal_1_1TokenSequence_a9a6a9dadda113a391bad480f87efa876_icgraph_org.svg" target="_base">
           <rect id="button" ry="5" rx="5" y="6" x="6" height="38" width="38"
                fill="#f2f5e9" fill-opacity="0.5" stroke="#606060" stroke-width="1.0"/>
           <path id="arrow"
             d="M 11.500037,31.436501 C 11.940474,20.09759 22.043105,11.32322 32.158766,21.979434 L 37.068811,17.246167 C 37.068811,17.246167 37.088388,32 37.088388,32 L 22.160133,31.978069 C 22.160133,31.978069 26.997745,27.140456 26.997745,27.140456 C 18.528582,18.264221 13.291696,25.230495 11.500037,31.436501 z"
             style="fill:#404040;"/>
          </a>
         </g>
        </svg>
</svg>
