<?xml version="1.0" encoding="UTF-8" standalone="no"?>
<!DOCTYPE svg PUBLIC "-//W3C//DTD SVG 1.1//EN"
 "http://www.w3.org/Graphics/SVG/1.1/DTD/svg11.dtd">
<!-- Generated by graphviz version 2.43.0 (0)
 -->
<!-- Title: OmniboxPedal::TokenSequence::Size Pages: 1 -->
<!--zoomable 414 -->
<svg id="main" version="1.1" xmlns="http://www.w3.org/2000/svg" xmlns:xlink="http://www.w3.org/1999/xlink" xml:space="preserve" onload="init(evt)">
<style type="text/css"><![CDATA[
.edge:hover path { stroke: red; }
.edge:hover polygon { stroke: red; fill: red; }
]]></style>
<script type="text/javascript"><![CDATA[
var edges = document.getElementsByTagName('g');
if (edges && edges.length) {
  for (var i=0;i<edges.length;i++) {
    if (edges[i].id.substr(0,4)=='edge') {
      edges[i].setAttribute('class','edge');
    }
  }
}
]]></script>
        <defs>
                <circle id="rim" cx="0" cy="0" r="7"/>
                <circle id="rim2" cx="0" cy="0" r="3.5"/>
                <g id="zoomPlus">
                        <use xlink:href="#rim" fill="#404040">
                                <set attributeName="fill" to="#808080" begin="zoomplus.mouseover" end="zoomplus.mouseout"/>
                        </use>
                        <path d="M-4,0h8M0,-4v8" fill="none" stroke="white" stroke-width="1.5" pointer-events="none"/>
                </g>
                <g id="zoomMin">
                        <use xlink:href="#rim" fill="#404040">
                                <set attributeName="fill" to="#808080" begin="zoomminus.mouseover" end="zoomminus.mouseout"/>
                        </use>
                        <path d="M-4,0h8" fill="none" stroke="white" stroke-width="1.5" pointer-events="none"/>
                </g>
                <g id="dirArrow">
                        <path fill="none" stroke="white" stroke-width="1.5" d="M0,-3.0v7 M-2.5,-0.5L0,-3.0L2.5,-0.5"/>
                </g>
               <g id="resetDef">
                       <use xlink:href="#rim2" fill="#404040">
                               <set attributeName="fill" to="#808080" begin="reset.mouseover" end="reset.mouseout"/>
                       </use>
               </g>
        </defs>

<script type="text/javascript">
var viewWidth = 2926;
var viewHeight = 414;
var sectionId = 'dynsection-10';
</script>
<script xlink:href="../../svgpan.js"/>
<svg id="graph" class="graph">
<g id="viewport">
<title>OmniboxPedal::TokenSequence::Size</title>
<polygon fill="white" stroke="transparent" points="-4,4 -4,-410 2922,-410 2922,4 -4,4"/>
<!-- Node1 -->
<g id="node1" class="node">
<title>Node1</title>
<g id="a_node1"><a xlink:title=" ">
<polygon fill="#bfbfbf" stroke="black" points="2762,-252.5 2762,-282.5 2918,-282.5 2918,-252.5 2762,-252.5"/>
<text text-anchor="start" x="2770" y="-270.5" font-family="Helvetica,sans-Serif" font-size="10.00">OmniboxPedal::TokenSequence</text>
<text text-anchor="middle" x="2840" y="-259.5" font-family="Helvetica,sans-Serif" font-size="10.00">::Size</text>
</a>
</g>
</g>
<!-- Node2 -->
<g id="node2" class="node">
<title>Node2</title>
<g id="a_node2"><a xlink:href="../../d6/d3c/classOmniboxPedal_1_1SynonymGroup.html#a7f5bcd99e4a873ae0bdff5593529aa57" target="_top" xlink:title=" ">
<polygon fill="white" stroke="black" points="2571,-326.5 2571,-356.5 2725,-356.5 2725,-326.5 2571,-326.5"/>
<text text-anchor="start" x="2579" y="-344.5" font-family="Helvetica,sans-Serif" font-size="10.00">OmniboxPedal::SynonymGroup</text>
<text text-anchor="middle" x="2648" y="-333.5" font-family="Helvetica,sans-Serif" font-size="10.00">::AddSynonym</text>
</a>
</g>
</g>
<!-- Node1&#45;&gt;Node2 -->
<g id="edge1" class="edge">
<title>Node1&#45;&gt;Node2</title>
<path fill="none" stroke="midnightblue" d="M2797.9,-287.04C2776.67,-296.79 2750.21,-308.41 2726,-317.5 2717.74,-320.6 2708.89,-323.63 2700.22,-326.43"/>
<polygon fill="midnightblue" stroke="midnightblue" points="2799.65,-290.09 2807.26,-282.71 2796.71,-283.74 2799.65,-290.09"/>
</g>
<!-- Node8 -->
<g id="node8" class="node">
<title>Node8</title>
<g id="a_node8"><a xlink:href="../../d5/de6/classOmniboxPedal_1_1TokenSequence.html#a2b9264448c7149e2b34a4b49c0ccbea9" target="_top" xlink:title=" ">
<polygon fill="white" stroke="black" points="2570,-277.5 2570,-307.5 2726,-307.5 2726,-277.5 2570,-277.5"/>
<text text-anchor="start" x="2578" y="-295.5" font-family="Helvetica,sans-Serif" font-size="10.00">OmniboxPedal::TokenSequence</text>
<text text-anchor="middle" x="2648" y="-284.5" font-family="Helvetica,sans-Serif" font-size="10.00">::Consume</text>
</a>
</g>
</g>
<!-- Node1&#45;&gt;Node8 -->
<g id="edge8" class="edge">
<title>Node1&#45;&gt;Node8</title>
<path fill="none" stroke="midnightblue" d="M2751.94,-278.96C2743.32,-280.09 2734.62,-281.23 2726.12,-282.35"/>
<polygon fill="midnightblue" stroke="midnightblue" points="2752.54,-282.41 2761.99,-277.63 2751.62,-275.47 2752.54,-282.41"/>
</g>
<!-- Node11 -->
<g id="node11" class="node">
<title>Node11</title>
<g id="a_node11"><a xlink:href="../../d6/dea/classOmniboxPedalProvider.html#a733ee803093783d0394e50aff09819e8" target="_top" xlink:title=" ">
<polygon fill="white" stroke="black" points="2209,-184.5 2209,-214.5 2325,-214.5 2325,-184.5 2209,-184.5"/>
<text text-anchor="start" x="2217" y="-202.5" font-family="Helvetica,sans-Serif" font-size="10.00">OmniboxPedalProvider</text>
<text text-anchor="middle" x="2267" y="-191.5" font-family="Helvetica,sans-Serif" font-size="10.00">::FindPedalMatch</text>
</a>
</g>
</g>
<!-- Node1&#45;&gt;Node11 -->
<g id="edge49" class="edge">
<title>Node1&#45;&gt;Node11</title>
<path fill="none" stroke="midnightblue" d="M2802.97,-247.82C2781.34,-237.04 2752.87,-224.66 2726,-218.5 2584.82,-186.14 2412.89,-190.19 2325.29,-195.23"/>
<polygon fill="midnightblue" stroke="midnightblue" points="2801.61,-251.05 2812.1,-252.47 2804.78,-244.81 2801.61,-251.05"/>
</g>
<!-- Node41 -->
<g id="node41" class="node">
<title>Node41</title>
<g id="a_node41"><a xlink:href="../../d5/de6/classOmniboxPedal_1_1TokenSequence.html#a5cc31594ba99535bff124e34b99f6fab" target="_top" xlink:title=" ">
<polygon fill="white" stroke="black" points="2570,-228.5 2570,-258.5 2726,-258.5 2726,-228.5 2570,-228.5"/>
<text text-anchor="start" x="2578" y="-246.5" font-family="Helvetica,sans-Serif" font-size="10.00">OmniboxPedal::TokenSequence</text>
<text text-anchor="middle" x="2648" y="-235.5" font-family="Helvetica,sans-Serif" font-size="10.00">::Erase</text>
</a>
</g>
</g>
<!-- Node1&#45;&gt;Node41 -->
<g id="edge47" class="edge">
<title>Node1&#45;&gt;Node41</title>
<path fill="none" stroke="midnightblue" d="M2751.94,-256.5C2743.32,-255.41 2734.62,-254.32 2726.12,-253.24"/>
<polygon fill="midnightblue" stroke="midnightblue" points="2751.63,-259.99 2761.99,-257.77 2752.51,-253.05 2751.63,-259.99"/>
</g>
<!-- Node42 -->
<g id="node42" class="node">
<title>Node42</title>
<g id="a_node42"><a xlink:href="../../d6/dea/classOmniboxPedalProvider.html#aadf4c378aa04749abe0178d33d6f356b" target="_top" xlink:title=" ">
<polygon fill="white" stroke="black" points="2399,-140.5 2399,-170.5 2515,-170.5 2515,-140.5 2399,-140.5"/>
<text text-anchor="start" x="2407" y="-158.5" font-family="Helvetica,sans-Serif" font-size="10.00">OmniboxPedalProvider</text>
<text text-anchor="middle" x="2457" y="-147.5" font-family="Helvetica,sans-Serif" font-size="10.00">::Tokenize</text>
</a>
</g>
</g>
<!-- Node1&#45;&gt;Node42 -->
<g id="edge50" class="edge">
<title>Node1&#45;&gt;Node42</title>
<path fill="none" stroke="midnightblue" d="M2816.18,-245.35C2794.76,-226.02 2760.87,-199.01 2726,-185.5 2656.91,-158.73 2570.83,-153.6 2515.16,-153.57"/>
<polygon fill="midnightblue" stroke="midnightblue" points="2814.03,-248.13 2823.75,-252.34 2818.77,-242.99 2814.03,-248.13"/>
</g>
<!-- Node43 -->
<g id="node43" class="node">
<title>Node43</title>
<g id="a_node43"><a xlink:href="../../d6/dea/classOmniboxPedalProvider.html#a5861d9f977203ab9939aac1fcc63b2f3" target="_top" xlink:title=" ">
<polygon fill="white" stroke="black" points="2570,-375.5 2570,-405.5 2726,-405.5 2726,-375.5 2570,-375.5"/>
<text text-anchor="start" x="2578" y="-393.5" font-family="Helvetica,sans-Serif" font-size="10.00">OmniboxPedalProvider</text>
<text text-anchor="middle" x="2648" y="-382.5" font-family="Helvetica,sans-Serif" font-size="10.00">::TokenizeAndExpandDictionary</text>
</a>
</g>
</g>
<!-- Node1&#45;&gt;Node43 -->
<g id="edge52" class="edge">
<title>Node1&#45;&gt;Node43</title>
<path fill="none" stroke="midnightblue" d="M2818.65,-290.17C2797.5,-312.48 2762.43,-346.08 2726,-366.5 2720.01,-369.85 2713.5,-372.8 2706.88,-375.38"/>
<polygon fill="midnightblue" stroke="midnightblue" points="2821.27,-292.49 2825.53,-282.79 2816.15,-287.71 2821.27,-292.49"/>
</g>
<!-- Node3 -->
<g id="node3" class="node">
<title>Node3</title>
<g id="a_node3"><a xlink:href="../../d6/dea/classOmniboxPedalProvider.html#a7be77a55ea5e7c489e501e616726a9fd" target="_top" xlink:title=" ">
<polygon fill="white" stroke="black" points="2388.5,-348.5 2388.5,-378.5 2525.5,-378.5 2525.5,-348.5 2388.5,-348.5"/>
<text text-anchor="start" x="2396.5" y="-366.5" font-family="Helvetica,sans-Serif" font-size="10.00">OmniboxPedalProvider</text>
<text text-anchor="middle" x="2457" y="-355.5" font-family="Helvetica,sans-Serif" font-size="10.00">::LoadSynonymGroupString</text>
</a>
</g>
</g>
<!-- Node2&#45;&gt;Node3 -->
<g id="edge2" class="edge">
<title>Node2&#45;&gt;Node3</title>
<path fill="none" stroke="midnightblue" d="M2560.68,-351.55C2548.94,-352.91 2537.02,-354.3 2525.67,-355.62"/>
<polygon fill="midnightblue" stroke="midnightblue" points="2561.42,-354.99 2570.94,-350.35 2560.61,-348.03 2561.42,-354.99"/>
</g>
<!-- Node7 -->
<g id="node7" class="node">
<title>Node7</title>
<g id="a_node7"><a xlink:href="../../d6/dea/classOmniboxPedalProvider.html#a8eb768572bd7fcfb3af89d31ea6e423b" target="_top" xlink:title=" ">
<polygon fill="white" stroke="black" points="2199.5,-304.5 2199.5,-334.5 2334.5,-334.5 2334.5,-304.5 2199.5,-304.5"/>
<text text-anchor="start" x="2207.5" y="-322.5" font-family="Helvetica,sans-Serif" font-size="10.00">OmniboxPedalProvider</text>
<text text-anchor="middle" x="2267" y="-311.5" font-family="Helvetica,sans-Serif" font-size="10.00">::LoadSynonymGroupValue</text>
</a>
</g>
</g>
<!-- Node2&#45;&gt;Node7 -->
<g id="edge6" class="edge">
<title>Node2&#45;&gt;Node7</title>
<path fill="none" stroke="midnightblue" d="M2560.41,-336.47C2491.81,-332.49 2397.39,-327.01 2334.61,-323.37"/>
<polygon fill="midnightblue" stroke="midnightblue" points="2560.57,-339.99 2570.76,-337.07 2560.98,-333 2560.57,-339.99"/>
</g>
<!-- Node4 -->
<g id="node4" class="node">
<title>Node4</title>
<g id="a_node4"><a xlink:href="../../d6/dea/classOmniboxPedalProvider.html#a0bd5fe3f161da3546849e4faa484ab3c" target="_top" xlink:title=" ">
<polygon fill="white" stroke="black" points="2035,-304.5 2035,-334.5 2151,-334.5 2151,-304.5 2035,-304.5"/>
<text text-anchor="start" x="2043" y="-322.5" font-family="Helvetica,sans-Serif" font-size="10.00">OmniboxPedalProvider</text>
<text text-anchor="middle" x="2093" y="-311.5" font-family="Helvetica,sans-Serif" font-size="10.00">::LoadPedalConcepts</text>
</a>
</g>
</g>
<!-- Node3&#45;&gt;Node4 -->
<g id="edge3" class="edge">
<title>Node3&#45;&gt;Node4</title>
<path fill="none" stroke="midnightblue" d="M2378.31,-361.7C2325.03,-359.56 2252.88,-354.84 2190,-344.5 2175.22,-342.07 2159.39,-338.4 2144.94,-334.62"/>
<polygon fill="midnightblue" stroke="midnightblue" points="2378.24,-365.2 2388.37,-362.09 2378.51,-358.21 2378.24,-365.2"/>
</g>
<!-- Node5 -->
<g id="node5" class="node">
<title>Node5</title>
<g id="a_node5"><a xlink:href="../../d6/dea/classOmniboxPedalProvider.html#aac587d07bb182c56eefe728e7654c1ec" target="_top" xlink:title=" ">
<polygon fill="white" stroke="black" points="1870.5,-304.5 1870.5,-334.5 1992.5,-334.5 1992.5,-304.5 1870.5,-304.5"/>
<text text-anchor="start" x="1878.5" y="-322.5" font-family="Helvetica,sans-Serif" font-size="10.00">OmniboxPedalProvider</text>
<text text-anchor="middle" x="1931.5" y="-311.5" font-family="Helvetica,sans-Serif" font-size="10.00">::OmniboxPedalProvider</text>
</a>
</g>
</g>
<!-- Node4&#45;&gt;Node5 -->
<g id="edge4" class="edge">
<title>Node4&#45;&gt;Node5</title>
<path fill="none" stroke="midnightblue" d="M2024.79,-319.5C2014.15,-319.5 2003.2,-319.5 1992.74,-319.5"/>
<polygon fill="midnightblue" stroke="midnightblue" points="2024.87,-323 2034.87,-319.5 2024.87,-316 2024.87,-323"/>
</g>
<!-- Node6 -->
<g id="node6" class="node">
<title>Node6</title>
<g id="a_node6"><a xlink:href="../../d5/dfc/classMockAutocompleteProviderClient.html#adbd27317c195d16980fdfd8722952006" target="_top" xlink:title=" ">
<polygon fill="white" stroke="black" points="1663,-299 1663,-340 1831,-340 1831,-299 1663,-299"/>
<text text-anchor="start" x="1671" y="-328" font-family="Helvetica,sans-Serif" font-size="10.00">MockAutocompleteProvider</text>
<text text-anchor="start" x="1671" y="-317" font-family="Helvetica,sans-Serif" font-size="10.00">Client::MockAutocompleteProvider</text>
<text text-anchor="middle" x="1747" y="-306" font-family="Helvetica,sans-Serif" font-size="10.00">Client</text>
</a>
</g>
</g>
<!-- Node5&#45;&gt;Node6 -->
<g id="edge5" class="edge">
<title>Node5&#45;&gt;Node6</title>
<path fill="none" stroke="midnightblue" d="M1860.3,-319.5C1850.78,-319.5 1840.93,-319.5 1831.21,-319.5"/>
<polygon fill="midnightblue" stroke="midnightblue" points="1860.49,-323 1870.49,-319.5 1860.49,-316 1860.49,-323"/>
</g>
<!-- Node7&#45;&gt;Node4 -->
<g id="edge7" class="edge">
<title>Node7&#45;&gt;Node4</title>
<path fill="none" stroke="midnightblue" d="M2188.88,-319.5C2176.16,-319.5 2163.17,-319.5 2151.05,-319.5"/>
<polygon fill="midnightblue" stroke="midnightblue" points="2189.01,-323 2199.01,-319.5 2189.01,-316 2189.01,-323"/>
</g>
<!-- Node9 -->
<g id="node9" class="node">
<title>Node9</title>
<g id="a_node9"><a xlink:href="../../d6/d3c/classOmniboxPedal_1_1SynonymGroup.html#a3288d0cb6752b3dc2422a518f9eed1f1" target="_top" xlink:title=" ">
<polygon fill="white" stroke="black" points="2380,-242.5 2380,-272.5 2534,-272.5 2534,-242.5 2380,-242.5"/>
<text text-anchor="start" x="2388" y="-260.5" font-family="Helvetica,sans-Serif" font-size="10.00">OmniboxPedal::SynonymGroup</text>
<text text-anchor="middle" x="2457" y="-249.5" font-family="Helvetica,sans-Serif" font-size="10.00">::EraseMatchesIn</text>
</a>
</g>
</g>
<!-- Node8&#45;&gt;Node9 -->
<g id="edge9" class="edge">
<title>Node8&#45;&gt;Node9</title>
<path fill="none" stroke="midnightblue" d="M2559.88,-276.37C2551.34,-274.78 2542.71,-273.19 2534.29,-271.63"/>
<polygon fill="midnightblue" stroke="midnightblue" points="2559.38,-279.83 2569.85,-278.21 2560.66,-272.95 2559.38,-279.83"/>
</g>
<!-- Node10 -->
<g id="node10" class="node">
<title>Node10</title>
<g id="a_node10"><a xlink:href="../../d6/d3c/classOmniboxPedal_1_1SynonymGroup.html#a3d1356c401a5c299cd68a0733f638764" target="_top" xlink:title=" ">
<polygon fill="white" stroke="black" points="2190,-255.5 2190,-285.5 2344,-285.5 2344,-255.5 2190,-255.5"/>
<text text-anchor="start" x="2198" y="-273.5" font-family="Helvetica,sans-Serif" font-size="10.00">OmniboxPedal::SynonymGroup</text>
<text text-anchor="middle" x="2267" y="-262.5" font-family="Helvetica,sans-Serif" font-size="10.00">::EraseIgnoreGroup</text>
</a>
</g>
</g>
<!-- Node9&#45;&gt;Node10 -->
<g id="edge10" class="edge">
<title>Node9&#45;&gt;Node10</title>
<path fill="none" stroke="midnightblue" d="M2369.58,-263.48C2361.14,-264.06 2352.63,-264.65 2344.3,-265.22"/>
<polygon fill="midnightblue" stroke="midnightblue" points="2370.07,-266.95 2379.8,-262.77 2369.59,-259.97 2370.07,-266.95"/>
</g>
<!-- Node9&#45;&gt;Node11 -->
<g id="edge12" class="edge">
<title>Node9&#45;&gt;Node11</title>
<path fill="none" stroke="midnightblue" d="M2397.38,-239.42C2371.46,-231.42 2341.32,-222.12 2316.66,-214.51"/>
<polygon fill="midnightblue" stroke="midnightblue" points="2396.51,-242.81 2407.1,-242.41 2398.57,-236.12 2396.51,-242.81"/>
</g>
<!-- Node10&#45;&gt;Node4 -->
<g id="edge11" class="edge">
<title>Node10&#45;&gt;Node4</title>
<path fill="none" stroke="midnightblue" d="M2203.19,-288.39C2184.69,-293.66 2164.64,-299.38 2146.83,-304.45"/>
<polygon fill="midnightblue" stroke="midnightblue" points="2204.33,-291.71 2212.99,-285.6 2202.41,-284.98 2204.33,-291.71"/>
</g>
<!-- Node12 -->
<g id="node12" class="node">
<title>Node12</title>
<g id="a_node12"><a xlink:href="../../d6/dea/classOmniboxPedalProvider.html#a39a4fa25c20669c7ca3f0b91a7f9029e" target="_top" xlink:title=" ">
<polygon fill="white" stroke="black" points="2032,-184.5 2032,-214.5 2154,-214.5 2154,-184.5 2032,-184.5"/>
<text text-anchor="start" x="2040" y="-202.5" font-family="Helvetica,sans-Serif" font-size="10.00">OmniboxPedalProvider</text>
<text text-anchor="middle" x="2093" y="-191.5" font-family="Helvetica,sans-Serif" font-size="10.00">::FindReadyPedalMatch</text>
</a>
</g>
</g>
<!-- Node11&#45;&gt;Node12 -->
<g id="edge13" class="edge">
<title>Node11&#45;&gt;Node12</title>
<path fill="none" stroke="midnightblue" d="M2198.72,-199.5C2184.06,-199.5 2168.63,-199.5 2154.26,-199.5"/>
<polygon fill="midnightblue" stroke="midnightblue" points="2198.73,-203 2208.73,-199.5 2198.73,-196 2198.73,-203"/>
</g>
<!-- Node13 -->
<g id="node13" class="node">
<title>Node13</title>
<g id="a_node13"><a xlink:href="../../d3/d03/classAutocompleteResult.html#a859e254b656aae5c4f55dfd923e3e75a" target="_top" xlink:title=" ">
<polygon fill="white" stroke="black" points="1867,-184.5 1867,-214.5 1996,-214.5 1996,-184.5 1867,-184.5"/>
<text text-anchor="start" x="1875" y="-202.5" font-family="Helvetica,sans-Serif" font-size="10.00">AutocompleteResult</text>
<text text-anchor="middle" x="1931.5" y="-191.5" font-family="Helvetica,sans-Serif" font-size="10.00">::AttachPedalsToMatches</text>
</a>
</g>
</g>
<!-- Node12&#45;&gt;Node13 -->
<g id="edge14" class="edge">
<title>Node12&#45;&gt;Node13</title>
<path fill="none" stroke="midnightblue" d="M2021.48,-199.5C2013.02,-199.5 2004.43,-199.5 1996.08,-199.5"/>
<polygon fill="midnightblue" stroke="midnightblue" points="2021.7,-203 2031.7,-199.5 2021.7,-196 2021.7,-203"/>
</g>
<!-- Node14 -->
<g id="node14" class="node">
<title>Node14</title>
<g id="a_node14"><a xlink:href="../../df/d4d/classAutocompleteController.html#a4bd8523f1764eb72920409795b1fb1df" target="_top" xlink:title=" ">
<polygon fill="white" stroke="black" points="1687.5,-184.5 1687.5,-214.5 1806.5,-214.5 1806.5,-184.5 1687.5,-184.5"/>
<text text-anchor="start" x="1695.5" y="-202.5" font-family="Helvetica,sans-Serif" font-size="10.00">AutocompleteController</text>
<text text-anchor="middle" x="1747" y="-191.5" font-family="Helvetica,sans-Serif" font-size="10.00">::UpdateResult</text>
</a>
</g>
</g>
<!-- Node13&#45;&gt;Node14 -->
<g id="edge15" class="edge">
<title>Node13&#45;&gt;Node14</title>
<path fill="none" stroke="midnightblue" d="M1856.7,-199.5C1840.08,-199.5 1822.66,-199.5 1806.76,-199.5"/>
<polygon fill="midnightblue" stroke="midnightblue" points="1856.93,-203 1866.93,-199.5 1856.93,-196 1856.93,-203"/>
</g>
<!-- Node15 -->
<g id="node15" class="node">
<title>Node15</title>
<g id="a_node15"><a xlink:href="../../df/d4d/classAutocompleteController.html#ae1f4a40a8daa8c804b265590ff4415be" target="_top" xlink:title=" ">
<polygon fill="white" stroke="black" points="1508,-184.5 1508,-214.5 1627,-214.5 1627,-184.5 1508,-184.5"/>
<text text-anchor="start" x="1516" y="-202.5" font-family="Helvetica,sans-Serif" font-size="10.00">AutocompleteController</text>
<text text-anchor="middle" x="1567.5" y="-191.5" font-family="Helvetica,sans-Serif" font-size="10.00">::ExpireCopiedEntries</text>
</a>
</g>
</g>
<!-- Node14&#45;&gt;Node15 -->
<g id="edge16" class="edge">
<title>Node14&#45;&gt;Node15</title>
<path fill="none" stroke="midnightblue" d="M1677.22,-199.5C1660.65,-199.5 1643.1,-199.5 1627.05,-199.5"/>
<polygon fill="midnightblue" stroke="midnightblue" points="1677.39,-203 1687.39,-199.5 1677.39,-196 1677.39,-203"/>
</g>
<!-- Node31 -->
<g id="node31" class="node">
<title>Node31</title>
<g id="a_node31"><a xlink:href="../../df/d4d/classAutocompleteController.html#a6be8d5d8847f9862da417998c4785989" target="_top" xlink:title=" ">
<polygon fill="white" stroke="black" points="1198,-140.5 1198,-170.5 1317,-170.5 1317,-140.5 1198,-140.5"/>
<text text-anchor="start" x="1206" y="-158.5" font-family="Helvetica,sans-Serif" font-size="10.00">AutocompleteController</text>
<text text-anchor="middle" x="1257.5" y="-147.5" font-family="Helvetica,sans-Serif" font-size="10.00">::Start</text>
</a>
</g>
</g>
<!-- Node14&#45;&gt;Node31 -->
<g id="edge46" class="edge">
<title>Node14&#45;&gt;Node31</title>
<path fill="none" stroke="midnightblue" d="M1677.26,-183.16C1660.87,-179.79 1643.38,-176.63 1627,-174.5 1518.21,-160.36 1390.07,-156.63 1317.15,-155.72"/>
<polygon fill="midnightblue" stroke="midnightblue" points="1676.79,-186.64 1687.29,-185.28 1678.23,-179.79 1676.79,-186.64"/>
</g>
<!-- Node40 -->
<g id="node40" class="node">
<title>Node40</title>
<g id="a_node40"><a xlink:href="../../df/d4d/classAutocompleteController.html#a0d07fa1825d1adba7b2491bc682f57c5" target="_top" xlink:title=" ">
<polygon fill="white" stroke="black" points="1508,-233.5 1508,-263.5 1627,-263.5 1627,-233.5 1508,-233.5"/>
<text text-anchor="start" x="1516" y="-251.5" font-family="Helvetica,sans-Serif" font-size="10.00">AutocompleteController</text>
<text text-anchor="middle" x="1567.5" y="-240.5" font-family="Helvetica,sans-Serif" font-size="10.00">::OnProviderUpdate</text>
</a>
</g>
</g>
<!-- Node14&#45;&gt;Node40 -->
<g id="edge44" class="edge">
<title>Node14&#45;&gt;Node40</title>
<path fill="none" stroke="midnightblue" d="M1681.44,-217.32C1662.28,-222.61 1641.48,-228.35 1623.02,-233.45"/>
<polygon fill="midnightblue" stroke="midnightblue" points="1682.59,-220.64 1691.3,-214.6 1680.72,-213.89 1682.59,-220.64"/>
</g>
<!-- Node16 -->
<g id="node16" class="node">
<title>Node16</title>
<g id="a_node16"><a xlink:href="../../df/d4d/classAutocompleteController.html#a94fe99a16d5617d48084d6bc68b77099" target="_top" xlink:title=" ">
<polygon fill="white" stroke="black" points="1353,-233.5 1353,-263.5 1472,-263.5 1472,-233.5 1353,-233.5"/>
<text text-anchor="start" x="1361" y="-251.5" font-family="Helvetica,sans-Serif" font-size="10.00">AutocompleteController</text>
<text text-anchor="middle" x="1412.5" y="-240.5" font-family="Helvetica,sans-Serif" font-size="10.00">::DeleteMatch</text>
</a>
</g>
</g>
<!-- Node15&#45;&gt;Node16 -->
<g id="edge17" class="edge">
<title>Node15&#45;&gt;Node16</title>
<path fill="none" stroke="midnightblue" d="M1509.49,-217.76C1493.35,-222.93 1475.97,-228.49 1460.5,-233.45"/>
<polygon fill="midnightblue" stroke="midnightblue" points="1510.89,-220.98 1519.35,-214.6 1508.76,-214.32 1510.89,-220.98"/>
</g>
<!-- Node30 -->
<g id="node30" class="node">
<title>Node30</title>
<g id="a_node30"><a xlink:href="../../df/d4d/classAutocompleteController.html#aeab74bbaa0a7179385e15263d2193cc4" target="_top" xlink:title=" ">
<polygon fill="white" stroke="black" points="1353,-184.5 1353,-214.5 1472,-214.5 1472,-184.5 1353,-184.5"/>
<text text-anchor="start" x="1361" y="-202.5" font-family="Helvetica,sans-Serif" font-size="10.00">AutocompleteController</text>
<text text-anchor="middle" x="1412.5" y="-191.5" font-family="Helvetica,sans-Serif" font-size="10.00">::StartExpireTimer</text>
</a>
</g>
</g>
<!-- Node15&#45;&gt;Node30 -->
<g id="edge34" class="edge">
<title>Node15&#45;&gt;Node30</title>
<path fill="none" stroke="midnightblue" d="M1497.51,-199.5C1489.01,-199.5 1480.38,-199.5 1472.06,-199.5"/>
<polygon fill="midnightblue" stroke="midnightblue" points="1497.78,-203 1507.78,-199.5 1497.78,-196 1497.78,-203"/>
</g>
<!-- Node17 -->
<g id="node17" class="node">
<title>Node17</title>
<g id="a_node17"><a xlink:href="../../d1/db1/classOmniboxPopupModel.html#aa11680c969b457fc53da3446feabf8a8" target="_top" xlink:title=" ">
<polygon fill="white" stroke="black" points="1199.5,-284.5 1199.5,-314.5 1315.5,-314.5 1315.5,-284.5 1199.5,-284.5"/>
<text text-anchor="start" x="1207.5" y="-302.5" font-family="Helvetica,sans-Serif" font-size="10.00">OmniboxPopupModel::</text>
<text text-anchor="middle" x="1257.5" y="-291.5" font-family="Helvetica,sans-Serif" font-size="10.00">TryDeletingLine</text>
</a>
</g>
</g>
<!-- Node16&#45;&gt;Node17 -->
<g id="edge18" class="edge">
<title>Node16&#45;&gt;Node17</title>
<path fill="none" stroke="midnightblue" d="M1356.9,-266.7C1339.41,-272.53 1320.25,-278.92 1303.52,-284.49"/>
<polygon fill="midnightblue" stroke="midnightblue" points="1358.04,-270.01 1366.42,-263.53 1355.83,-263.37 1358.04,-270.01"/>
</g>
<!-- Node18 -->
<g id="node18" class="node">
<title>Node18</title>
<g id="a_node18"><a xlink:href="../../d0/d94/classOmniboxViewViews.html#a5a64c1e16631c3301fb57307402784dc" target="_top" xlink:title=" ">
<polygon fill="white" stroke="black" points="830.5,-372.5 830.5,-402.5 971.5,-402.5 971.5,-372.5 830.5,-372.5"/>
<text text-anchor="start" x="838.5" y="-390.5" font-family="Helvetica,sans-Serif" font-size="10.00">OmniboxViewViews::Handle</text>
<text text-anchor="middle" x="901" y="-379.5" font-family="Helvetica,sans-Serif" font-size="10.00">KeyEvent</text>
</a>
</g>
</g>
<!-- Node17&#45;&gt;Node18 -->
<g id="edge19" class="edge">
<title>Node17&#45;&gt;Node18</title>
<path fill="none" stroke="midnightblue" d="M1190.47,-317.16C1180.93,-319.65 1171.22,-322.16 1162,-324.5 1095.14,-341.44 1018.36,-359.93 965.67,-372.46"/>
<polygon fill="midnightblue" stroke="midnightblue" points="1191.55,-320.49 1200.33,-314.57 1189.77,-313.72 1191.55,-320.49"/>
</g>
<!-- Node19 -->
<g id="node19" class="node">
<title>Node19</title>
<g id="a_node19"><a xlink:href="../../d1/db1/classOmniboxPopupModel.html#acf1ecd019bf8b90655bb4a6c3dd7f8b1" target="_top" xlink:title=" ">
<polygon fill="white" stroke="black" points="1031,-284.5 1031,-314.5 1147,-314.5 1147,-284.5 1031,-284.5"/>
<text text-anchor="start" x="1039" y="-302.5" font-family="Helvetica,sans-Serif" font-size="10.00">OmniboxPopupModel::</text>
<text text-anchor="middle" x="1089" y="-291.5" font-family="Helvetica,sans-Serif" font-size="10.00">TriggerSelectionAction</text>
</a>
</g>
</g>
<!-- Node17&#45;&gt;Node19 -->
<g id="edge20" class="edge">
<title>Node17&#45;&gt;Node19</title>
<path fill="none" stroke="midnightblue" d="M1189.18,-299.5C1175.23,-299.5 1160.66,-299.5 1147.12,-299.5"/>
<polygon fill="midnightblue" stroke="midnightblue" points="1189.2,-303 1199.2,-299.5 1189.2,-296 1189.2,-303"/>
</g>
<!-- Node19&#45;&gt;Node18 -->
<g id="edge28" class="edge">
<title>Node19&#45;&gt;Node18</title>
<path fill="none" stroke="midnightblue" d="M1053.02,-319.73C1032.15,-331.43 1004.94,-346.06 980,-357.5 968.53,-362.76 955.84,-367.91 944.1,-372.42"/>
<polygon fill="midnightblue" stroke="midnightblue" points="1054.86,-322.71 1061.84,-314.75 1051.41,-316.62 1054.86,-322.71"/>
</g>
<!-- Node20 -->
<g id="node20" class="node">
<title>Node20</title>
<g id="a_node20"><a xlink:href="../../d3/d4c/classOmniboxResultView.html#a7bd0ac4077f48f8cc13698e19ed36eb6" target="_top" xlink:title=" ">
<polygon fill="white" stroke="black" points="628.5,-333.5 628.5,-363.5 740.5,-363.5 740.5,-333.5 628.5,-333.5"/>
<text text-anchor="start" x="636.5" y="-351.5" font-family="Helvetica,sans-Serif" font-size="10.00">OmniboxResultView::</text>
<text text-anchor="middle" x="684.5" y="-340.5" font-family="Helvetica,sans-Serif" font-size="10.00">ButtonPressed</text>
</a>
</g>
</g>
<!-- Node19&#45;&gt;Node20 -->
<g id="edge21" class="edge">
<title>Node19&#45;&gt;Node20</title>
<path fill="none" stroke="midnightblue" d="M1020.73,-316.67C1007.31,-319.64 993.26,-322.44 980,-324.5 897.13,-337.4 799.98,-343.61 740.6,-346.42"/>
<polygon fill="midnightblue" stroke="midnightblue" points="1021.88,-320 1030.85,-314.37 1020.33,-313.17 1021.88,-320"/>
</g>
<!-- Node24 -->
<g id="node24" class="node">
<title>Node24</title>
<g id="a_node24"><a xlink:href="../../d3/d0a/classOmniboxSuggestionButtonRowView.html#a35216a3671475e4ee13507b0465d5eb8" target="_top" xlink:title=" ">
<polygon fill="white" stroke="black" points="824.5,-284.5 824.5,-314.5 977.5,-314.5 977.5,-284.5 824.5,-284.5"/>
<text text-anchor="start" x="832.5" y="-302.5" font-family="Helvetica,sans-Serif" font-size="10.00">OmniboxSuggestionButtonRow</text>
<text text-anchor="middle" x="901" y="-291.5" font-family="Helvetica,sans-Serif" font-size="10.00">View::ButtonPressed</text>
</a>
</g>
</g>
<!-- Node19&#45;&gt;Node24 -->
<g id="edge25" class="edge">
<title>Node19&#45;&gt;Node24</title>
<path fill="none" stroke="midnightblue" d="M1020.92,-299.5C1006.93,-299.5 992.09,-299.5 977.82,-299.5"/>
<polygon fill="midnightblue" stroke="midnightblue" points="1020.93,-303 1030.93,-299.5 1020.93,-296 1020.93,-303"/>
</g>
<!-- Node26 -->
<g id="node26" class="node">
<title>Node26</title>
<g id="a_node26"><a xlink:href="../../d2/dcb/classOmniboxRowView_1_1HeaderView.html#a441ded0bc83346ff1773063183d470f2" target="_top" xlink:title=" ">
<polygon fill="white" stroke="black" points="822.5,-235.5 822.5,-265.5 979.5,-265.5 979.5,-235.5 822.5,-235.5"/>
<text text-anchor="start" x="830.5" y="-253.5" font-family="Helvetica,sans-Serif" font-size="10.00">OmniboxRowView::HeaderView</text>
<text text-anchor="middle" x="901" y="-242.5" font-family="Helvetica,sans-Serif" font-size="10.00">::HeaderToggleButtonPressed</text>
</a>
</g>
</g>
<!-- Node19&#45;&gt;Node26 -->
<g id="edge29" class="edge">
<title>Node19&#45;&gt;Node26</title>
<path fill="none" stroke="midnightblue" d="M1021.1,-281.88C1000.76,-276.52 978.59,-270.68 958.96,-265.51"/>
<polygon fill="midnightblue" stroke="midnightblue" points="1020.37,-285.3 1030.93,-284.47 1022.15,-278.53 1020.37,-285.3"/>
</g>
<!-- Node29 -->
<g id="node29" class="node">
<title>Node29</title>
<g id="a_node29"><a xlink:href="../../d2/dcb/classOmniboxRowView_1_1HeaderView.html#af9e1207af3e2688cdccfd7b8c1267a3c" target="_top" xlink:title=" ">
<polygon fill="white" stroke="black" points="822.5,-186.5 822.5,-216.5 979.5,-216.5 979.5,-186.5 822.5,-186.5"/>
<text text-anchor="start" x="830.5" y="-204.5" font-family="Helvetica,sans-Serif" font-size="10.00">OmniboxRowView::HeaderView</text>
<text text-anchor="middle" x="901" y="-193.5" font-family="Helvetica,sans-Serif" font-size="10.00">::OnMouseReleased</text>
</a>
</g>
</g>
<!-- Node19&#45;&gt;Node29 -->
<g id="edge33" class="edge">
<title>Node19&#45;&gt;Node29</title>
<path fill="none" stroke="midnightblue" d="M1061.44,-277.91C1040.4,-261.67 1009.69,-239.83 980,-225.5 973.11,-222.17 965.66,-219.18 958.18,-216.54"/>
<polygon fill="midnightblue" stroke="midnightblue" points="1059.53,-280.86 1069.57,-284.27 1063.85,-275.35 1059.53,-280.86"/>
</g>
<!-- Node21 -->
<g id="node21" class="node">
<title>Node21</title>
<g id="a_node21"><a xlink:href="../../d3/d4c/classOmniboxResultView.html#a632535684d6941455e8979815a978a44" target="_top" xlink:title=" ">
<polygon fill="white" stroke="black" points="410.5,-284.5 410.5,-314.5 522.5,-314.5 522.5,-284.5 410.5,-284.5"/>
<text text-anchor="start" x="418.5" y="-302.5" font-family="Helvetica,sans-Serif" font-size="10.00">OmniboxResultView::</text>
<text text-anchor="middle" x="466.5" y="-291.5" font-family="Helvetica,sans-Serif" font-size="10.00">OmniboxResultView</text>
</a>
</g>
</g>
<!-- Node20&#45;&gt;Node21 -->
<g id="edge22" class="edge">
<title>Node20&#45;&gt;Node21</title>
<path fill="none" stroke="midnightblue" d="M618.33,-333.72C587.86,-326.8 551.97,-318.66 522.84,-312.05"/>
<polygon fill="midnightblue" stroke="midnightblue" points="617.91,-337.21 628.44,-336.01 619.46,-330.38 617.91,-337.21"/>
</g>
<!-- Node22 -->
<g id="node22" class="node">
<title>Node22</title>
<g id="a_node22"><a xlink:href="../../d7/d88/classOmniboxPopupContentsView.html#aa8f47263f229af6a469c3bf964b81162" target="_top" xlink:title=" ">
<polygon fill="white" stroke="black" points="193,-261.5 193,-291.5 338,-291.5 338,-261.5 193,-261.5"/>
<text text-anchor="start" x="201" y="-279.5" font-family="Helvetica,sans-Serif" font-size="10.00">OmniboxPopupContentsView</text>
<text text-anchor="middle" x="265.5" y="-268.5" font-family="Helvetica,sans-Serif" font-size="10.00">::UpdatePopupAppearance</text>
</a>
</g>
</g>
<!-- Node21&#45;&gt;Node22 -->
<g id="edge23" class="edge">
<title>Node21&#45;&gt;Node22</title>
<path fill="none" stroke="midnightblue" d="M400.17,-291.95C380.33,-289.66 358.44,-287.13 338.21,-284.79"/>
<polygon fill="midnightblue" stroke="midnightblue" points="400,-295.45 410.33,-293.12 400.8,-288.5 400,-295.45"/>
</g>
<!-- Node23 -->
<g id="node23" class="node">
<title>Node23</title>
<g id="a_node23"><a xlink:href="../../d7/d88/classOmniboxPopupContentsView.html#a0e658101bc19acb66f6e0915fd6c2fe3" target="_top" xlink:title=" ">
<polygon fill="white" stroke="black" points="0,-261.5 0,-291.5 145,-291.5 145,-261.5 0,-261.5"/>
<text text-anchor="start" x="8" y="-279.5" font-family="Helvetica,sans-Serif" font-size="10.00">OmniboxPopupContentsView</text>
<text text-anchor="middle" x="72.5" y="-268.5" font-family="Helvetica,sans-Serif" font-size="10.00">::OnWidgetBoundsChanged</text>
</a>
</g>
</g>
<!-- Node22&#45;&gt;Node23 -->
<g id="edge24" class="edge">
<title>Node22&#45;&gt;Node23</title>
<path fill="none" stroke="midnightblue" d="M182.51,-276.5C170.12,-276.5 157.41,-276.5 145.25,-276.5"/>
<polygon fill="midnightblue" stroke="midnightblue" points="182.84,-280 192.84,-276.5 182.84,-273 182.84,-280"/>
</g>
<!-- Node25 -->
<g id="node25" class="node">
<title>Node25</title>
<g id="a_node25"><a xlink:href="../../d3/d0a/classOmniboxSuggestionButtonRowView.html#a7272410c3b801796d1c9cbeb37f9b3e7" target="_top" xlink:title=" ">
<polygon fill="white" stroke="black" points="583,-284.5 583,-314.5 786,-314.5 786,-284.5 583,-284.5"/>
<text text-anchor="start" x="591" y="-302.5" font-family="Helvetica,sans-Serif" font-size="10.00">OmniboxSuggestionButtonRow</text>
<text text-anchor="middle" x="684.5" y="-291.5" font-family="Helvetica,sans-Serif" font-size="10.00">View::OmniboxSuggestionButtonRowView</text>
</a>
</g>
</g>
<!-- Node24&#45;&gt;Node25 -->
<g id="edge26" class="edge">
<title>Node24&#45;&gt;Node25</title>
<path fill="none" stroke="midnightblue" d="M814.16,-299.5C805.02,-299.5 795.66,-299.5 786.37,-299.5"/>
<polygon fill="midnightblue" stroke="midnightblue" points="814.38,-303 824.38,-299.5 814.38,-296 814.38,-303"/>
</g>
<!-- Node25&#45;&gt;Node21 -->
<g id="edge27" class="edge">
<title>Node25&#45;&gt;Node21</title>
<path fill="none" stroke="midnightblue" d="M572.58,-299.5C555.27,-299.5 538.05,-299.5 522.72,-299.5"/>
<polygon fill="midnightblue" stroke="midnightblue" points="572.77,-303 582.77,-299.5 572.77,-296 572.77,-303"/>
</g>
<!-- Node27 -->
<g id="node27" class="node">
<title>Node27</title>
<g id="a_node27"><a xlink:href="../../d2/dcb/classOmniboxRowView_1_1HeaderView.html#ad1abf8339bf99de0b39a9bb43111ba93" target="_top" xlink:title=" ">
<polygon fill="white" stroke="black" points="606,-235.5 606,-265.5 763,-265.5 763,-235.5 606,-235.5"/>
<text text-anchor="start" x="614" y="-253.5" font-family="Helvetica,sans-Serif" font-size="10.00">OmniboxRowView::HeaderView</text>
<text text-anchor="middle" x="684.5" y="-242.5" font-family="Helvetica,sans-Serif" font-size="10.00">::HeaderView</text>
</a>
</g>
</g>
<!-- Node26&#45;&gt;Node27 -->
<g id="edge30" class="edge">
<title>Node26&#45;&gt;Node27</title>
<path fill="none" stroke="midnightblue" d="M811.8,-250.5C795.73,-250.5 779.08,-250.5 763.34,-250.5"/>
<polygon fill="midnightblue" stroke="midnightblue" points="812.26,-254 822.26,-250.5 812.26,-247 812.26,-254"/>
</g>
<!-- Node28 -->
<g id="node28" class="node">
<title>Node28</title>
<g id="a_node28"><a xlink:href="../../da/da2/classOmniboxRowView.html#a6add650851301372ee9b8a6671cfa28c" target="_top" xlink:title=" ">
<polygon fill="white" stroke="black" points="386.5,-243 386.5,-262 546.5,-262 546.5,-243 386.5,-243"/>
<text text-anchor="middle" x="466.5" y="-250" font-family="Helvetica,sans-Serif" font-size="10.00">OmniboxRowView::ShowHeader</text>
</a>
</g>
</g>
<!-- Node27&#45;&gt;Node28 -->
<g id="edge31" class="edge">
<title>Node27&#45;&gt;Node28</title>
<path fill="none" stroke="midnightblue" d="M595.8,-251.31C579.54,-251.46 562.65,-251.62 546.67,-251.77"/>
<polygon fill="midnightblue" stroke="midnightblue" points="595.86,-254.81 605.82,-251.22 595.79,-247.81 595.86,-254.81"/>
</g>
<!-- Node28&#45;&gt;Node22 -->
<g id="edge32" class="edge">
<title>Node28&#45;&gt;Node22</title>
<path fill="none" stroke="midnightblue" d="M376.39,-263.25C363.62,-264.79 350.61,-266.36 338.24,-267.85"/>
<polygon fill="midnightblue" stroke="midnightblue" points="377.06,-266.69 386.56,-262.02 376.22,-259.74 377.06,-266.69"/>
</g>
<!-- Node30&#45;&gt;Node31 -->
<g id="edge35" class="edge">
<title>Node30&#45;&gt;Node31</title>
<path fill="none" stroke="midnightblue" d="M1349.56,-181.69C1336.69,-177.98 1323.24,-174.12 1310.75,-170.53"/>
<polygon fill="midnightblue" stroke="midnightblue" points="1348.7,-185.08 1359.27,-184.48 1350.63,-178.35 1348.7,-185.08"/>
</g>
<!-- Node32 -->
<g id="node32" class="node">
<title>Node32</title>
<g id="a_node32"><a xlink:href="../../d0/d22/classOmniboxEditModel.html#a47216ae17e9b4c06e3a827008d04a744" target="_top" xlink:title=" ">
<polygon fill="white" stroke="black" points="1016,-88.5 1016,-118.5 1162,-118.5 1162,-88.5 1016,-88.5"/>
<text text-anchor="start" x="1024" y="-106.5" font-family="Helvetica,sans-Serif" font-size="10.00">OmniboxEditModel::StartZero</text>
<text text-anchor="middle" x="1089" y="-95.5" font-family="Helvetica,sans-Serif" font-size="10.00">SuggestRequest</text>
</a>
</g>
</g>
<!-- Node31&#45;&gt;Node32 -->
<g id="edge36" class="edge">
<title>Node31&#45;&gt;Node32</title>
<path fill="none" stroke="midnightblue" d="M1198.53,-137.4C1178.78,-131.23 1156.94,-124.41 1138.05,-118.51"/>
<polygon fill="midnightblue" stroke="midnightblue" points="1197.75,-140.82 1208.34,-140.46 1199.84,-134.14 1197.75,-140.82"/>
</g>
<!-- Node33 -->
<g id="node33" class="node">
<title>Node33</title>
<g id="a_node33"><a xlink:href="../../d0/d94/classOmniboxViewViews.html#a16e7321918d0a4985e618a5249a32881" target="_top" xlink:title=" ">
<polygon fill="white" stroke="black" points="822,-137.5 822,-167.5 980,-167.5 980,-137.5 822,-137.5"/>
<text text-anchor="start" x="830" y="-155.5" font-family="Helvetica,sans-Serif" font-size="10.00">OmniboxViewViews::OnGesture</text>
<text text-anchor="middle" x="901" y="-144.5" font-family="Helvetica,sans-Serif" font-size="10.00">Event</text>
</a>
</g>
</g>
<!-- Node32&#45;&gt;Node33 -->
<g id="edge37" class="edge">
<title>Node32&#45;&gt;Node33</title>
<path fill="none" stroke="midnightblue" d="M1021.1,-121.12C1000.76,-126.48 978.59,-132.32 958.96,-137.49"/>
<polygon fill="midnightblue" stroke="midnightblue" points="1022.15,-124.47 1030.93,-118.53 1020.37,-117.7 1022.15,-124.47"/>
</g>
<!-- Node34 -->
<g id="node34" class="node">
<title>Node34</title>
<g id="a_node34"><a xlink:href="../../d0/d94/classOmniboxViewViews.html#a9fc21bac19f3a666e10eabc84b72c745" target="_top" xlink:title=" ">
<polygon fill="white" stroke="black" points="825,-88.5 825,-118.5 977,-118.5 977,-88.5 825,-88.5"/>
<text text-anchor="start" x="833" y="-106.5" font-family="Helvetica,sans-Serif" font-size="10.00">OmniboxViewViews::OnMouse</text>
<text text-anchor="middle" x="901" y="-95.5" font-family="Helvetica,sans-Serif" font-size="10.00">Pressed</text>
</a>
</g>
</g>
<!-- Node32&#45;&gt;Node34 -->
<g id="edge38" class="edge">
<title>Node32&#45;&gt;Node34</title>
<path fill="none" stroke="midnightblue" d="M1005.63,-103.5C996.18,-103.5 986.57,-103.5 977.21,-103.5"/>
<polygon fill="midnightblue" stroke="midnightblue" points="1005.82,-107 1015.82,-103.5 1005.82,-100 1005.82,-107"/>
</g>
<!-- Node35 -->
<g id="node35" class="node">
<title>Node35</title>
<g id="a_node35"><a xlink:href="../../d0/d94/classOmniboxViewViews.html#ae9d72f709ba57cd59d22d6fbef32dd1c" target="_top" xlink:title=" ">
<polygon fill="white" stroke="black" points="825,-50 825,-69 977,-69 977,-50 825,-50"/>
<text text-anchor="middle" x="901" y="-57" font-family="Helvetica,sans-Serif" font-size="10.00">OmniboxViewViews::SetFocus</text>
</a>
</g>
</g>
<!-- Node32&#45;&gt;Node35 -->
<g id="edge39" class="edge">
<title>Node32&#45;&gt;Node35</title>
<path fill="none" stroke="midnightblue" d="M1014.46,-86.1C989.84,-80.28 963.31,-74 942.21,-69.01"/>
<polygon fill="midnightblue" stroke="midnightblue" points="1013.97,-89.58 1024.51,-88.48 1015.58,-82.77 1013.97,-89.58"/>
</g>
<!-- Node36 -->
<g id="node36" class="node">
<title>Node36</title>
<g id="a_node36"><a xlink:href="../../d0/d22/classOmniboxEditModel.html#a8fd45b4cc033ef4a4c36d313a279ee33" target="_top" xlink:title=" ">
<polygon fill="white" stroke="black" points="832.5,-0.5 832.5,-30.5 969.5,-30.5 969.5,-0.5 832.5,-0.5"/>
<text text-anchor="start" x="840.5" y="-18.5" font-family="Helvetica,sans-Serif" font-size="10.00">OmniboxEditModel::Update</text>
<text text-anchor="middle" x="901" y="-7.5" font-family="Helvetica,sans-Serif" font-size="10.00">Input</text>
</a>
</g>
</g>
<!-- Node32&#45;&gt;Node36 -->
<g id="edge40" class="edge">
<title>Node32&#45;&gt;Node36</title>
<path fill="none" stroke="midnightblue" d="M1057.06,-83.02C1035.97,-69.67 1007.07,-52.56 980,-40.5 971.95,-36.91 963.22,-33.6 954.62,-30.63"/>
<polygon fill="midnightblue" stroke="midnightblue" points="1055.29,-86.03 1065.6,-88.48 1059.06,-80.14 1055.29,-86.03"/>
</g>
<!-- Node37 -->
<g id="node37" class="node">
<title>Node37</title>
<g id="a_node37"><a xlink:href="../../d0/d94/classOmniboxViewViews.html#aa74a64e459c128dff566e7392751a67f" target="_top" xlink:title=" ">
<polygon fill="white" stroke="black" points="613.5,-0.5 613.5,-30.5 755.5,-30.5 755.5,-0.5 613.5,-0.5"/>
<text text-anchor="start" x="621.5" y="-18.5" font-family="Helvetica,sans-Serif" font-size="10.00">OmniboxViewViews::Update</text>
<text text-anchor="middle" x="684.5" y="-7.5" font-family="Helvetica,sans-Serif" font-size="10.00">Popup</text>
</a>
</g>
</g>
<!-- Node36&#45;&gt;Node37 -->
<g id="edge41" class="edge">
<title>Node36&#45;&gt;Node37</title>
<path fill="none" stroke="midnightblue" d="M822.24,-15.5C800.49,-15.5 776.98,-15.5 755.69,-15.5"/>
<polygon fill="midnightblue" stroke="midnightblue" points="822.43,-19 832.43,-15.5 822.43,-12 822.43,-19"/>
</g>
<!-- Node38 -->
<g id="node38" class="node">
<title>Node38</title>
<g id="a_node38"><a xlink:href="../../d0/d94/classOmniboxViewViews.html#a2b71803c688c8d3db0ddfe1a6c561208" target="_top" xlink:title=" ">
<polygon fill="white" stroke="black" points="386,-0.5 386,-30.5 547,-30.5 547,-0.5 386,-0.5"/>
<text text-anchor="start" x="394" y="-18.5" font-family="Helvetica,sans-Serif" font-size="10.00">OmniboxViewViews::SetWindow</text>
<text text-anchor="middle" x="466.5" y="-7.5" font-family="Helvetica,sans-Serif" font-size="10.00">TextAndCaretPos</text>
</a>
</g>
</g>
<!-- Node37&#45;&gt;Node38 -->
<g id="edge42" class="edge">
<title>Node37&#45;&gt;Node38</title>
<path fill="none" stroke="midnightblue" d="M603.29,-15.5C584.91,-15.5 565.37,-15.5 547.02,-15.5"/>
<polygon fill="midnightblue" stroke="midnightblue" points="603.37,-19 613.37,-15.5 603.37,-12 603.37,-19"/>
</g>
<!-- Node39 -->
<g id="node39" class="node">
<title>Node39</title>
<g id="a_node39"><a xlink:href="../../d0/d94/classOmniboxViewViews.html#acce156344df7256bce712db64896eaf6" target="_top" xlink:title=" ">
<polygon fill="white" stroke="black" points="181,-0.5 181,-30.5 350,-30.5 350,-0.5 181,-0.5"/>
<text text-anchor="start" x="189" y="-18.5" font-family="Helvetica,sans-Serif" font-size="10.00">OmniboxViewViews::OnTemporary</text>
<text text-anchor="middle" x="265.5" y="-7.5" font-family="Helvetica,sans-Serif" font-size="10.00">TextMaybeChanged</text>
</a>
</g>
</g>
<!-- Node38&#45;&gt;Node39 -->
<g id="edge43" class="edge">
<title>Node38&#45;&gt;Node39</title>
<path fill="none" stroke="midnightblue" d="M375.96,-15.5C367.36,-15.5 358.66,-15.5 350.12,-15.5"/>
<polygon fill="midnightblue" stroke="midnightblue" points="375.99,-19 385.99,-15.5 375.99,-12 375.99,-19"/>
</g>
<!-- Node40&#45;&gt;Node16 -->
<g id="edge45" class="edge">
<title>Node40&#45;&gt;Node16</title>
<path fill="none" stroke="midnightblue" d="M1497.51,-248.5C1489.01,-248.5 1480.38,-248.5 1472.06,-248.5"/>
<polygon fill="midnightblue" stroke="midnightblue" points="1497.78,-252 1507.78,-248.5 1497.78,-245 1497.78,-252"/>
</g>
<!-- Node41&#45;&gt;Node9 -->
<g id="edge48" class="edge">
<title>Node41&#45;&gt;Node9</title>
<path fill="none" stroke="midnightblue" d="M2559.88,-249.95C2551.34,-250.59 2542.71,-251.23 2534.29,-251.85"/>
<polygon fill="midnightblue" stroke="midnightblue" points="2560.14,-253.44 2569.85,-249.21 2559.62,-246.46 2560.14,-253.44"/>
</g>
<!-- Node42&#45;&gt;Node11 -->
<g id="edge51" class="edge">
<title>Node42&#45;&gt;Node11</title>
<path fill="none" stroke="midnightblue" d="M2389.07,-171.16C2368.2,-176.05 2345.37,-181.39 2325.22,-186.11"/>
<polygon fill="midnightblue" stroke="midnightblue" points="2389.89,-174.57 2398.83,-168.88 2388.29,-167.75 2389.89,-174.57"/>
</g>
<!-- Node43&#45;&gt;Node3 -->
<g id="edge53" class="edge">
<title>Node43&#45;&gt;Node3</title>
<path fill="none" stroke="midnightblue" d="M2559.79,-378.04C2548.28,-376.4 2536.62,-374.73 2525.51,-373.14"/>
<polygon fill="midnightblue" stroke="midnightblue" points="2559.46,-381.53 2569.85,-379.48 2560.45,-374.6 2559.46,-381.53"/>
</g>
</g>
</svg>
        <g id="navigator" transform="translate(0 0)" fill="#404254">
                <rect fill="#f2f5e9" fill-opacity="0.5" stroke="#606060" stroke-width=".5" x="0" y="0" width="60" height="60"/>
                <use id="zoomplus" xlink:href="#zoomPlus" x="17" y="9" onmousedown="handleZoom(evt,'in')"/>
                <use id="zoomminus" xlink:href="#zoomMin" x="42" y="9" onmousedown="handleZoom(evt,'out')"/>
                <use id="reset" xlink:href="#resetDef" x="30" y="36" onmousedown="handleReset()"/>
                <g id="arrowUp" xlink:href="#dirArrow" transform="translate(30 24)" onmousedown="handlePan(0,-1)">
                  <use xlink:href="#rim" fill="#404040">
                        <set attributeName="fill" to="#808080" begin="arrowUp.mouseover" end="arrowUp.mouseout"/>
                  </use>
                  <path fill="none" stroke="white" stroke-width="1.5" d="M0,-3.0v7 M-2.5,-0.5L0,-3.0L2.5,-0.5"/>
                </g>
                <g id="arrowRight" xlink:href="#dirArrow" transform="rotate(90) translate(36 -43)" onmousedown="handlePan(1,0)">
                  <use xlink:href="#rim" fill="#404040">
                        <set attributeName="fill" to="#808080" begin="arrowRight.mouseover" end="arrowRight.mouseout"/>
                  </use>
                  <path fill="none" stroke="white" stroke-width="1.5" d="M0,-3.0v7 M-2.5,-0.5L0,-3.0L2.5,-0.5"/>
                </g>
                <g id="arrowDown" xlink:href="#dirArrow" transform="rotate(180) translate(-30 -48)" onmousedown="handlePan(0,1)">
                  <use xlink:href="#rim" fill="#404040">
                        <set attributeName="fill" to="#808080" begin="arrowDown.mouseover" end="arrowDown.mouseout"/>
                  </use>
                  <path fill="none" stroke="white" stroke-width="1.5" d="M0,-3.0v7 M-2.5,-0.5L0,-3.0L2.5,-0.5"/>
                </g>
                <g id="arrowLeft" xlink:href="#dirArrow" transform="rotate(270) translate(-36 17)" onmousedown="handlePan(-1,0)">
                  <use xlink:href="#rim" fill="#404040">
                        <set attributeName="fill" to="#808080" begin="arrowLeft.mouseover" end="arrowLeft.mouseout"/>
                  </use>
                  <path fill="none" stroke="white" stroke-width="1.5" d="M0,-3.0v7 M-2.5,-0.5L0,-3.0L2.5,-0.5"/>
                </g>
        </g>
        <svg viewBox="0 0 15 15" width="100%" height="30px" preserveAspectRatio="xMaxYMin meet">
         <g id="arrow_out" transform="scale(0.3 0.3)">
          <a xlink:href="classOmniboxPedal_1_1TokenSequence_ada3b08284991f9cc0cfd6c235691834b_icgraph_org.svg" target="_base">
           <rect id="button" ry="5" rx="5" y="6" x="6" height="38" width="38"
                fill="#f2f5e9" fill-opacity="0.5" stroke="#606060" stroke-width="1.0"/>
           <path id="arrow"
             d="M 11.500037,31.436501 C 11.940474,20.09759 22.043105,11.32322 32.158766,21.979434 L 37.068811,17.246167 C 37.068811,17.246167 37.088388,32 37.088388,32 L 22.160133,31.978069 C 22.160133,31.978069 26.997745,27.140456 26.997745,27.140456 C 18.528582,18.264221 13.291696,25.230495 11.500037,31.436501 z"
             style="fill:#404040;"/>
          </a>
         </g>
        </svg>
</svg>
