<?xml version="1.0" encoding="UTF-8" standalone="no"?>
<!DOCTYPE svg PUBLIC "-//W3C//DTD SVG 1.1//EN"
 "http://www.w3.org/Graphics/SVG/1.1/DTD/svg11.dtd">
<!-- Generated by graphviz version 2.43.0 (0)
 -->
<!-- Title: OmniboxPedalTranslate::IsReadyToTrigger Pages: 1 -->
<svg width="350pt" height="100pt"
 viewBox="0.00 0.00 350.00 99.50" xmlns="http://www.w3.org/2000/svg" xmlns:xlink="http://www.w3.org/1999/xlink">
<g id="graph0" class="graph" transform="scale(1 1) rotate(0) translate(4 95.5)">
<title>OmniboxPedalTranslate::IsReadyToTrigger</title>
<polygon fill="white" stroke="transparent" points="-4,4 -4,-95.5 346,-95.5 346,4 -4,4"/>
<!-- Node1 -->
<g id="node1" class="node">
<title>Node1</title>
<g id="a_node1"><a xlink:title=" ">
<polygon fill="#bfbfbf" stroke="black" points="0,-33 0,-63 121,-63 121,-33 0,-33"/>
<text text-anchor="start" x="8" y="-51" font-family="Helvetica,sans-Serif" font-size="10.00">OmniboxPedalTranslate</text>
<text text-anchor="middle" x="60.5" y="-40" font-family="Helvetica,sans-Serif" font-size="10.00">::IsReadyToTrigger</text>
</a>
</g>
</g>
<!-- Node2 -->
<g id="node2" class="node">
<title>Node2</title>
<g id="a_node2"><a xlink:href="../../d9/df6/classAutocompleteInput.html#a2a4e4b5e31c7e0faffbc67f8b916e081" target="_top" xlink:title=" ">
<polygon fill="white" stroke="black" points="197.5,-61 197.5,-91 301.5,-91 301.5,-61 197.5,-61"/>
<text text-anchor="start" x="205.5" y="-79" font-family="Helvetica,sans-Serif" font-size="10.00">AutocompleteInput::</text>
<text text-anchor="middle" x="249.5" y="-68" font-family="Helvetica,sans-Serif" font-size="10.00">current_url</text>
</a>
</g>
</g>
<!-- Node1&#45;&gt;Node2 -->
<g id="edge1" class="edge">
<title>Node1&#45;&gt;Node2</title>
<path fill="none" stroke="midnightblue" d="M121.18,-56.94C142.22,-60.09 165.89,-63.63 187.07,-66.8"/>
<polygon fill="midnightblue" stroke="midnightblue" points="186.83,-70.31 197.24,-68.33 187.87,-63.38 186.83,-70.31"/>
</g>
<!-- Node3 -->
<g id="node3" class="node">
<title>Node3</title>
<g id="a_node3"><a xlink:href="../../d5/dc7/classAutocompleteProviderClient.html#a6395e3944b3ef32a09f2db1c57441b22" target="_top" xlink:title=" ">
<polygon fill="white" stroke="black" points="157,-0.5 157,-41.5 342,-41.5 342,-0.5 157,-0.5"/>
<text text-anchor="start" x="165" y="-29.5" font-family="Helvetica,sans-Serif" font-size="10.00">AutocompleteProviderClient</text>
<text text-anchor="start" x="165" y="-18.5" font-family="Helvetica,sans-Serif" font-size="10.00">::GetEmbedderRepresentationOfAbout</text>
<text text-anchor="middle" x="249.5" y="-7.5" font-family="Helvetica,sans-Serif" font-size="10.00">Scheme</text>
</a>
</g>
</g>
<!-- Node1&#45;&gt;Node3 -->
<g id="edge2" class="edge">
<title>Node1&#45;&gt;Node3</title>
<path fill="none" stroke="midnightblue" d="M121.18,-39.38C129.33,-38.21 137.86,-36.97 146.5,-35.73"/>
<polygon fill="midnightblue" stroke="midnightblue" points="147.27,-39.15 156.67,-34.26 146.27,-32.22 147.27,-39.15"/>
</g>
</g>
</svg>
