<?xml version="1.0" encoding="UTF-8" standalone="no"?>
<!DOCTYPE svg PUBLIC "-//W3C//DTD SVG 1.1//EN"
 "http://www.w3.org/Graphics/SVG/1.1/DTD/svg11.dtd">
<!-- Generated by graphviz version 2.43.0 (0)
 -->
<!-- Title: OmniboxPopupSelection::IsControlPresentOnMatch Pages: 1 -->
<svg width="517pt" height="186pt"
 viewBox="0.00 0.00 517.00 186.00" xmlns="http://www.w3.org/2000/svg" xmlns:xlink="http://www.w3.org/1999/xlink">
<g id="graph0" class="graph" transform="scale(1 1) rotate(0) translate(4 182)">
<title>OmniboxPopupSelection::IsControlPresentOnMatch</title>
<polygon fill="white" stroke="transparent" points="-4,4 -4,-182 513,-182 513,4 -4,4"/>
<!-- Node1 -->
<g id="node1" class="node">
<title>Node1</title>
<g id="a_node1"><a xlink:title=" ">
<polygon fill="#bfbfbf" stroke="black" points="0,-73.5 0,-103.5 136,-103.5 136,-73.5 0,-73.5"/>
<text text-anchor="start" x="8" y="-91.5" font-family="Helvetica,sans-Serif" font-size="10.00">OmniboxPopupSelection</text>
<text text-anchor="middle" x="68" y="-80.5" font-family="Helvetica,sans-Serif" font-size="10.00">::IsControlPresentOnMatch</text>
</a>
</g>
</g>
<!-- Node2 -->
<g id="node2" class="node">
<title>Node2</title>
<g id="a_node2"><a xlink:href="../../d1/d73/namespaceOmniboxFieldTrial.html#a5946bfcba47abaa751ad85c5fa022f86" target="_top" xlink:title=" ">
<polygon fill="white" stroke="black" points="172,-147.5 172,-177.5 330,-177.5 330,-147.5 172,-147.5"/>
<text text-anchor="start" x="180" y="-165.5" font-family="Helvetica,sans-Serif" font-size="10.00">OmniboxFieldTrial::</text>
<text text-anchor="middle" x="251" y="-154.5" font-family="Helvetica,sans-Serif" font-size="10.00">IsKeywordSearchButtonEnabled</text>
</a>
</g>
</g>
<!-- Node1&#45;&gt;Node2 -->
<g id="edge1" class="edge">
<title>Node1&#45;&gt;Node2</title>
<path fill="none" stroke="midnightblue" d="M97.33,-103.71C117.73,-114.3 146.11,-128.3 172,-138.5 177.03,-140.48 182.28,-142.4 187.6,-144.24"/>
<polygon fill="midnightblue" stroke="midnightblue" points="186.58,-147.59 197.17,-147.45 188.8,-140.95 186.58,-147.59"/>
</g>
<!-- Node3 -->
<g id="node3" class="node">
<title>Node3</title>
<g id="a_node3"><a xlink:href="../../d3/d03/classAutocompleteResult.html#a1353d4a449288df34f1d6dd3eff73298" target="_top" xlink:title=" ">
<polygon fill="white" stroke="black" points="178.5,-98.5 178.5,-128.5 323.5,-128.5 323.5,-98.5 178.5,-98.5"/>
<text text-anchor="start" x="186.5" y="-116.5" font-family="Helvetica,sans-Serif" font-size="10.00">AutocompleteResult</text>
<text text-anchor="middle" x="251" y="-105.5" font-family="Helvetica,sans-Serif" font-size="10.00">::IsSuggestionGroupIdHidden</text>
</a>
</g>
</g>
<!-- Node1&#45;&gt;Node3 -->
<g id="edge2" class="edge">
<title>Node1&#45;&gt;Node3</title>
<path fill="none" stroke="midnightblue" d="M136.14,-97.77C146.59,-99.22 157.48,-100.72 168.2,-102.2"/>
<polygon fill="midnightblue" stroke="midnightblue" points="168.03,-105.71 178.42,-103.61 168.99,-98.78 168.03,-105.71"/>
</g>
<!-- Node5 -->
<g id="node5" class="node">
<title>Node5</title>
<g id="a_node5"><a xlink:href="../../d3/d03/classAutocompleteResult.html#a1532251921e2112a24e3a52ec7ee4535" target="_top" xlink:title=" ">
<polygon fill="white" stroke="black" points="198.5,-49.5 198.5,-79.5 303.5,-79.5 303.5,-49.5 198.5,-49.5"/>
<text text-anchor="start" x="206.5" y="-67.5" font-family="Helvetica,sans-Serif" font-size="10.00">AutocompleteResult</text>
<text text-anchor="middle" x="251" y="-56.5" font-family="Helvetica,sans-Serif" font-size="10.00">::match_at</text>
</a>
</g>
</g>
<!-- Node1&#45;&gt;Node5 -->
<g id="edge4" class="edge">
<title>Node1&#45;&gt;Node5</title>
<path fill="none" stroke="midnightblue" d="M136.14,-79.6C153.14,-77.34 171.31,-74.93 188.04,-72.72"/>
<polygon fill="midnightblue" stroke="midnightblue" points="188.79,-76.15 198.24,-71.36 187.87,-69.21 188.79,-76.15"/>
</g>
<!-- Node6 -->
<g id="node6" class="node">
<title>Node6</title>
<g id="a_node6"><a xlink:href="../../d3/d03/classAutocompleteResult.html#a64a7947a81e007d5aa56ac9b25e84bb6" target="_top" xlink:title=" ">
<polygon fill="white" stroke="black" points="198.5,-0.5 198.5,-30.5 303.5,-30.5 303.5,-0.5 198.5,-0.5"/>
<text text-anchor="start" x="206.5" y="-18.5" font-family="Helvetica,sans-Serif" font-size="10.00">AutocompleteResult</text>
<text text-anchor="middle" x="251" y="-7.5" font-family="Helvetica,sans-Serif" font-size="10.00">::size</text>
</a>
</g>
</g>
<!-- Node1&#45;&gt;Node6 -->
<g id="edge5" class="edge">
<title>Node1&#45;&gt;Node6</title>
<path fill="none" stroke="midnightblue" d="M98.76,-73.41C119.1,-63.41 146.83,-50.35 172,-40.5 177.82,-38.22 183.95,-35.99 190.09,-33.85"/>
<polygon fill="midnightblue" stroke="midnightblue" points="191.39,-37.11 199.74,-30.58 189.14,-30.48 191.39,-37.11"/>
</g>
<!-- Node4 -->
<g id="node4" class="node">
<title>Node4</title>
<g id="a_node4"><a xlink:href="../../d4/d19/namespaceomnibox.html#a416efcfe9398c882ad7a7c97b42578e1" target="_top" xlink:title=" ">
<polygon fill="white" stroke="black" points="366,-98.5 366,-128.5 509,-128.5 509,-98.5 366,-98.5"/>
<text text-anchor="start" x="374" y="-116.5" font-family="Helvetica,sans-Serif" font-size="10.00">omnibox::GetUserPreference</text>
<text text-anchor="middle" x="437.5" y="-105.5" font-family="Helvetica,sans-Serif" font-size="10.00">ForSuggestionGroupVisibility</text>
</a>
</g>
</g>
<!-- Node3&#45;&gt;Node4 -->
<g id="edge3" class="edge">
<title>Node3&#45;&gt;Node4</title>
<path fill="none" stroke="midnightblue" d="M323.6,-113.5C334.11,-113.5 345.01,-113.5 355.69,-113.5"/>
<polygon fill="midnightblue" stroke="midnightblue" points="355.85,-117 365.85,-113.5 355.85,-110 355.85,-117"/>
</g>
</g>
</svg>
