<?xml version="1.0" encoding="UTF-8" standalone="no"?>
<!DOCTYPE svg PUBLIC "-//W3C//DTD SVG 1.1//EN"
 "http://www.w3.org/Graphics/SVG/1.1/DTD/svg11.dtd">
<!-- Generated by graphviz version 2.43.0 (0)
 -->
<!-- Title: OmniboxPopupSelection::IsControlPresentOnMatch Pages: 1 -->
<!--zoomable 186 -->
<svg id="main" version="1.1" xmlns="http://www.w3.org/2000/svg" xmlns:xlink="http://www.w3.org/1999/xlink" xml:space="preserve" onload="init(evt)">
<style type="text/css"><![CDATA[
.edge:hover path { stroke: red; }
.edge:hover polygon { stroke: red; fill: red; }
]]></style>
<script type="text/javascript"><![CDATA[
var edges = document.getElementsByTagName('g');
if (edges && edges.length) {
  for (var i=0;i<edges.length;i++) {
    if (edges[i].id.substr(0,4)=='edge') {
      edges[i].setAttribute('class','edge');
    }
  }
}
]]></script>
        <defs>
                <circle id="rim" cx="0" cy="0" r="7"/>
                <circle id="rim2" cx="0" cy="0" r="3.5"/>
                <g id="zoomPlus">
                        <use xlink:href="#rim" fill="#404040">
                                <set attributeName="fill" to="#808080" begin="zoomplus.mouseover" end="zoomplus.mouseout"/>
                        </use>
                        <path d="M-4,0h8M0,-4v8" fill="none" stroke="white" stroke-width="1.5" pointer-events="none"/>
                </g>
                <g id="zoomMin">
                        <use xlink:href="#rim" fill="#404040">
                                <set attributeName="fill" to="#808080" begin="zoomminus.mouseover" end="zoomminus.mouseout"/>
                        </use>
                        <path d="M-4,0h8" fill="none" stroke="white" stroke-width="1.5" pointer-events="none"/>
                </g>
                <g id="dirArrow">
                        <path fill="none" stroke="white" stroke-width="1.5" d="M0,-3.0v7 M-2.5,-0.5L0,-3.0L2.5,-0.5"/>
                </g>
               <g id="resetDef">
                       <use xlink:href="#rim2" fill="#404040">
                               <set attributeName="fill" to="#808080" begin="reset.mouseover" end="reset.mouseout"/>
                       </use>
               </g>
        </defs>

<script type="text/javascript">
var viewWidth = 517;
var viewHeight = 186;
var sectionId = 'dynsection-5';
</script>
<script xlink:href="../../svgpan.js"/>
<svg id="graph" class="graph">
<g id="viewport">
<title>OmniboxPopupSelection::IsControlPresentOnMatch</title>
<polygon fill="white" stroke="transparent" points="-4,4 -4,-182 513,-182 513,4 -4,4"/>
<!-- Node1 -->
<g id="node1" class="node">
<title>Node1</title>
<g id="a_node1"><a xlink:title=" ">
<polygon fill="#bfbfbf" stroke="black" points="0,-73.5 0,-103.5 136,-103.5 136,-73.5 0,-73.5"/>
<text text-anchor="start" x="8" y="-91.5" font-family="Helvetica,sans-Serif" font-size="10.00">OmniboxPopupSelection</text>
<text text-anchor="middle" x="68" y="-80.5" font-family="Helvetica,sans-Serif" font-size="10.00">::IsControlPresentOnMatch</text>
</a>
</g>
</g>
<!-- Node2 -->
<g id="node2" class="node">
<title>Node2</title>
<g id="a_node2"><a xlink:href="../../d1/d73/namespaceOmniboxFieldTrial.html#a5946bfcba47abaa751ad85c5fa022f86" target="_top" xlink:title=" ">
<polygon fill="white" stroke="black" points="172,-147.5 172,-177.5 330,-177.5 330,-147.5 172,-147.5"/>
<text text-anchor="start" x="180" y="-165.5" font-family="Helvetica,sans-Serif" font-size="10.00">OmniboxFieldTrial::</text>
<text text-anchor="middle" x="251" y="-154.5" font-family="Helvetica,sans-Serif" font-size="10.00">IsKeywordSearchButtonEnabled</text>
</a>
</g>
</g>
<!-- Node1&#45;&gt;Node2 -->
<g id="edge1" class="edge">
<title>Node1&#45;&gt;Node2</title>
<path fill="none" stroke="midnightblue" d="M97.33,-103.71C117.73,-114.3 146.11,-128.3 172,-138.5 177.03,-140.48 182.28,-142.4 187.6,-144.24"/>
<polygon fill="midnightblue" stroke="midnightblue" points="186.58,-147.59 197.17,-147.45 188.8,-140.95 186.58,-147.59"/>
</g>
<!-- Node3 -->
<g id="node3" class="node">
<title>Node3</title>
<g id="a_node3"><a xlink:href="../../d3/d03/classAutocompleteResult.html#a1353d4a449288df34f1d6dd3eff73298" target="_top" xlink:title=" ">
<polygon fill="white" stroke="black" points="178.5,-98.5 178.5,-128.5 323.5,-128.5 323.5,-98.5 178.5,-98.5"/>
<text text-anchor="start" x="186.5" y="-116.5" font-family="Helvetica,sans-Serif" font-size="10.00">AutocompleteResult</text>
<text text-anchor="middle" x="251" y="-105.5" font-family="Helvetica,sans-Serif" font-size="10.00">::IsSuggestionGroupIdHidden</text>
</a>
</g>
</g>
<!-- Node1&#45;&gt;Node3 -->
<g id="edge2" class="edge">
<title>Node1&#45;&gt;Node3</title>
<path fill="none" stroke="midnightblue" d="M136.14,-97.77C146.59,-99.22 157.48,-100.72 168.2,-102.2"/>
<polygon fill="midnightblue" stroke="midnightblue" points="168.03,-105.71 178.42,-103.61 168.99,-98.78 168.03,-105.71"/>
</g>
<!-- Node5 -->
<g id="node5" class="node">
<title>Node5</title>
<g id="a_node5"><a xlink:href="../../d3/d03/classAutocompleteResult.html#a1532251921e2112a24e3a52ec7ee4535" target="_top" xlink:title=" ">
<polygon fill="white" stroke="black" points="198.5,-49.5 198.5,-79.5 303.5,-79.5 303.5,-49.5 198.5,-49.5"/>
<text text-anchor="start" x="206.5" y="-67.5" font-family="Helvetica,sans-Serif" font-size="10.00">AutocompleteResult</text>
<text text-anchor="middle" x="251" y="-56.5" font-family="Helvetica,sans-Serif" font-size="10.00">::match_at</text>
</a>
</g>
</g>
<!-- Node1&#45;&gt;Node5 -->
<g id="edge4" class="edge">
<title>Node1&#45;&gt;Node5</title>
<path fill="none" stroke="midnightblue" d="M136.14,-79.6C153.14,-77.34 171.31,-74.93 188.04,-72.72"/>
<polygon fill="midnightblue" stroke="midnightblue" points="188.79,-76.15 198.24,-71.36 187.87,-69.21 188.79,-76.15"/>
</g>
<!-- Node6 -->
<g id="node6" class="node">
<title>Node6</title>
<g id="a_node6"><a xlink:href="../../d3/d03/classAutocompleteResult.html#a64a7947a81e007d5aa56ac9b25e84bb6" target="_top" xlink:title=" ">
<polygon fill="white" stroke="black" points="198.5,-0.5 198.5,-30.5 303.5,-30.5 303.5,-0.5 198.5,-0.5"/>
<text text-anchor="start" x="206.5" y="-18.5" font-family="Helvetica,sans-Serif" font-size="10.00">AutocompleteResult</text>
<text text-anchor="middle" x="251" y="-7.5" font-family="Helvetica,sans-Serif" font-size="10.00">::size</text>
</a>
</g>
</g>
<!-- Node1&#45;&gt;Node6 -->
<g id="edge5" class="edge">
<title>Node1&#45;&gt;Node6</title>
<path fill="none" stroke="midnightblue" d="M98.76,-73.41C119.1,-63.41 146.83,-50.35 172,-40.5 177.82,-38.22 183.95,-35.99 190.09,-33.85"/>
<polygon fill="midnightblue" stroke="midnightblue" points="191.39,-37.11 199.74,-30.58 189.14,-30.48 191.39,-37.11"/>
</g>
<!-- Node4 -->
<g id="node4" class="node">
<title>Node4</title>
<g id="a_node4"><a xlink:href="../../d4/d19/namespaceomnibox.html#a416efcfe9398c882ad7a7c97b42578e1" target="_top" xlink:title=" ">
<polygon fill="white" stroke="black" points="366,-98.5 366,-128.5 509,-128.5 509,-98.5 366,-98.5"/>
<text text-anchor="start" x="374" y="-116.5" font-family="Helvetica,sans-Serif" font-size="10.00">omnibox::GetUserPreference</text>
<text text-anchor="middle" x="437.5" y="-105.5" font-family="Helvetica,sans-Serif" font-size="10.00">ForSuggestionGroupVisibility</text>
</a>
</g>
</g>
<!-- Node3&#45;&gt;Node4 -->
<g id="edge3" class="edge">
<title>Node3&#45;&gt;Node4</title>
<path fill="none" stroke="midnightblue" d="M323.6,-113.5C334.11,-113.5 345.01,-113.5 355.69,-113.5"/>
<polygon fill="midnightblue" stroke="midnightblue" points="355.85,-117 365.85,-113.5 355.85,-110 355.85,-117"/>
</g>
</g>
</svg>
        <g id="navigator" transform="translate(0 0)" fill="#404254">
                <rect fill="#f2f5e9" fill-opacity="0.5" stroke="#606060" stroke-width=".5" x="0" y="0" width="60" height="60"/>
                <use id="zoomplus" xlink:href="#zoomPlus" x="17" y="9" onmousedown="handleZoom(evt,'in')"/>
                <use id="zoomminus" xlink:href="#zoomMin" x="42" y="9" onmousedown="handleZoom(evt,'out')"/>
                <use id="reset" xlink:href="#resetDef" x="30" y="36" onmousedown="handleReset()"/>
                <g id="arrowUp" xlink:href="#dirArrow" transform="translate(30 24)" onmousedown="handlePan(0,-1)">
                  <use xlink:href="#rim" fill="#404040">
                        <set attributeName="fill" to="#808080" begin="arrowUp.mouseover" end="arrowUp.mouseout"/>
                  </use>
                  <path fill="none" stroke="white" stroke-width="1.5" d="M0,-3.0v7 M-2.5,-0.5L0,-3.0L2.5,-0.5"/>
                </g>
                <g id="arrowRight" xlink:href="#dirArrow" transform="rotate(90) translate(36 -43)" onmousedown="handlePan(1,0)">
                  <use xlink:href="#rim" fill="#404040">
                        <set attributeName="fill" to="#808080" begin="arrowRight.mouseover" end="arrowRight.mouseout"/>
                  </use>
                  <path fill="none" stroke="white" stroke-width="1.5" d="M0,-3.0v7 M-2.5,-0.5L0,-3.0L2.5,-0.5"/>
                </g>
                <g id="arrowDown" xlink:href="#dirArrow" transform="rotate(180) translate(-30 -48)" onmousedown="handlePan(0,1)">
                  <use xlink:href="#rim" fill="#404040">
                        <set attributeName="fill" to="#808080" begin="arrowDown.mouseover" end="arrowDown.mouseout"/>
                  </use>
                  <path fill="none" stroke="white" stroke-width="1.5" d="M0,-3.0v7 M-2.5,-0.5L0,-3.0L2.5,-0.5"/>
                </g>
                <g id="arrowLeft" xlink:href="#dirArrow" transform="rotate(270) translate(-36 17)" onmousedown="handlePan(-1,0)">
                  <use xlink:href="#rim" fill="#404040">
                        <set attributeName="fill" to="#808080" begin="arrowLeft.mouseover" end="arrowLeft.mouseout"/>
                  </use>
                  <path fill="none" stroke="white" stroke-width="1.5" d="M0,-3.0v7 M-2.5,-0.5L0,-3.0L2.5,-0.5"/>
                </g>
        </g>
        <svg viewBox="0 0 15 15" width="100%" height="30px" preserveAspectRatio="xMaxYMin meet">
         <g id="arrow_out" transform="scale(0.3 0.3)">
          <a xlink:href="structOmniboxPopupSelection_aaf32c9ad4992fec10b4295679052b55a_cgraph_org.svg" target="_base">
           <rect id="button" ry="5" rx="5" y="6" x="6" height="38" width="38"
                fill="#f2f5e9" fill-opacity="0.5" stroke="#606060" stroke-width="1.0"/>
           <path id="arrow"
             d="M 11.500037,31.436501 C 11.940474,20.09759 22.043105,11.32322 32.158766,21.979434 L 37.068811,17.246167 C 37.068811,17.246167 37.088388,32 37.088388,32 L 22.160133,31.978069 C 22.160133,31.978069 26.997745,27.140456 26.997745,27.140456 C 18.528582,18.264221 13.291696,25.230495 11.500037,31.436501 z"
             style="fill:#404040;"/>
          </a>
         </g>
        </svg>
</svg>
