<?xml version="1.0" encoding="UTF-8" standalone="no"?>
<!DOCTYPE svg PUBLIC "-//W3C//DTD SVG 1.1//EN"
 "http://www.w3.org/Graphics/SVG/1.1/DTD/svg11.dtd">
<!-- Generated by graphviz version 2.43.0 (0)
 -->
<!-- Title: OmniboxPopupSelection::IsControlPresentOnMatch Pages: 1 -->
<!--zoomable 353 -->
<svg id="main" version="1.1" xmlns="http://www.w3.org/2000/svg" xmlns:xlink="http://www.w3.org/1999/xlink" xml:space="preserve" onload="init(evt)">
<style type="text/css"><![CDATA[
.edge:hover path { stroke: red; }
.edge:hover polygon { stroke: red; fill: red; }
]]></style>
<script type="text/javascript"><![CDATA[
var edges = document.getElementsByTagName('g');
if (edges && edges.length) {
  for (var i=0;i<edges.length;i++) {
    if (edges[i].id.substr(0,4)=='edge') {
      edges[i].setAttribute('class','edge');
    }
  }
}
]]></script>
        <defs>
                <circle id="rim" cx="0" cy="0" r="7"/>
                <circle id="rim2" cx="0" cy="0" r="3.5"/>
                <g id="zoomPlus">
                        <use xlink:href="#rim" fill="#404040">
                                <set attributeName="fill" to="#808080" begin="zoomplus.mouseover" end="zoomplus.mouseout"/>
                        </use>
                        <path d="M-4,0h8M0,-4v8" fill="none" stroke="white" stroke-width="1.5" pointer-events="none"/>
                </g>
                <g id="zoomMin">
                        <use xlink:href="#rim" fill="#404040">
                                <set attributeName="fill" to="#808080" begin="zoomminus.mouseover" end="zoomminus.mouseout"/>
                        </use>
                        <path d="M-4,0h8" fill="none" stroke="white" stroke-width="1.5" pointer-events="none"/>
                </g>
                <g id="dirArrow">
                        <path fill="none" stroke="white" stroke-width="1.5" d="M0,-3.0v7 M-2.5,-0.5L0,-3.0L2.5,-0.5"/>
                </g>
               <g id="resetDef">
                       <use xlink:href="#rim2" fill="#404040">
                               <set attributeName="fill" to="#808080" begin="reset.mouseover" end="reset.mouseout"/>
                       </use>
               </g>
        </defs>

<script type="text/javascript">
var viewWidth = 1272;
var viewHeight = 353;
var sectionId = 'dynsection-6';
</script>
<script xlink:href="../../svgpan.js"/>
<svg id="graph" class="graph">
<g id="viewport">
<title>OmniboxPopupSelection::IsControlPresentOnMatch</title>
<polygon fill="white" stroke="transparent" points="-4,4 -4,-349 1268,-349 1268,4 -4,4"/>
<!-- Node1 -->
<g id="node1" class="node">
<title>Node1</title>
<g id="a_node1"><a xlink:title=" ">
<polygon fill="#bfbfbf" stroke="black" points="1128,-248.5 1128,-278.5 1264,-278.5 1264,-248.5 1128,-248.5"/>
<text text-anchor="start" x="1136" y="-266.5" font-family="Helvetica,sans-Serif" font-size="10.00">OmniboxPopupSelection</text>
<text text-anchor="middle" x="1196" y="-255.5" font-family="Helvetica,sans-Serif" font-size="10.00">::IsControlPresentOnMatch</text>
</a>
</g>
</g>
<!-- Node2 -->
<g id="node2" class="node">
<title>Node2</title>
<g id="a_node2"><a xlink:href="../../de/dfc/structOmniboxPopupSelection.html#adf73f9d2c1e679a75a79c64db0e4b318" target="_top" xlink:title=" ">
<polygon fill="white" stroke="black" points="954,-271 954,-312 1089,-312 1089,-271 954,-271"/>
<text text-anchor="start" x="962" y="-300" font-family="Helvetica,sans-Serif" font-size="10.00">OmniboxPopupSelection</text>
<text text-anchor="start" x="962" y="-289" font-family="Helvetica,sans-Serif" font-size="10.00">::GetAllAvailableSelections</text>
<text text-anchor="middle" x="1021.5" y="-278" font-family="Helvetica,sans-Serif" font-size="10.00">Sorted</text>
</a>
</g>
</g>
<!-- Node1&#45;&gt;Node2 -->
<g id="edge1" class="edge">
<title>Node1&#45;&gt;Node2</title>
<path fill="none" stroke="midnightblue" d="M1117.91,-276.01C1108.34,-277.57 1098.62,-279.14 1089.22,-280.67"/>
<polygon fill="midnightblue" stroke="midnightblue" points="1118.5,-279.46 1127.81,-274.41 1117.38,-272.55 1118.5,-279.46"/>
</g>
<!-- Node8 -->
<g id="node8" class="node">
<title>Node8</title>
<g id="a_node8"><a xlink:href="../../d0/d22/classOmniboxEditModel.html#ac3f52192d6d6fedeb9fcfcfc7e430c96" target="_top" xlink:title=" ">
<polygon fill="white" stroke="black" points="951,-221.5 951,-251.5 1092,-251.5 1092,-221.5 951,-221.5"/>
<text text-anchor="start" x="959" y="-239.5" font-family="Helvetica,sans-Serif" font-size="10.00">OmniboxEditModel::IsPopup</text>
<text text-anchor="middle" x="1021.5" y="-228.5" font-family="Helvetica,sans-Serif" font-size="10.00">ControlPresentOnMatch</text>
</a>
</g>
</g>
<!-- Node1&#45;&gt;Node8 -->
<g id="edge7" class="edge">
<title>Node1&#45;&gt;Node8</title>
<path fill="none" stroke="midnightblue" d="M1117.82,-251.42C1109.24,-250.08 1100.54,-248.72 1092.06,-247.39"/>
<polygon fill="midnightblue" stroke="midnightblue" points="1117.39,-254.9 1127.81,-252.98 1118.47,-247.98 1117.39,-254.9"/>
</g>
<!-- Node3 -->
<g id="node3" class="node">
<title>Node3</title>
<g id="a_node3"><a xlink:href="../../de/dfc/structOmniboxPopupSelection.html#a4af6117b15a6d7ad8af85b5d8ccf5d9a" target="_top" xlink:title=" ">
<polygon fill="white" stroke="black" points="768,-276.5 768,-306.5 892,-306.5 892,-276.5 768,-276.5"/>
<text text-anchor="start" x="776" y="-294.5" font-family="Helvetica,sans-Serif" font-size="10.00">OmniboxPopupSelection</text>
<text text-anchor="middle" x="830" y="-283.5" font-family="Helvetica,sans-Serif" font-size="10.00">::GetNextSelection</text>
</a>
</g>
</g>
<!-- Node2&#45;&gt;Node3 -->
<g id="edge2" class="edge">
<title>Node2&#45;&gt;Node3</title>
<path fill="none" stroke="midnightblue" d="M943.47,-291.5C926.44,-291.5 908.62,-291.5 892.31,-291.5"/>
<polygon fill="midnightblue" stroke="midnightblue" points="943.96,-295 953.96,-291.5 943.96,-288 943.96,-295"/>
</g>
<!-- Node4 -->
<g id="node4" class="node">
<title>Node4</title>
<g id="a_node4"><a xlink:href="../../d0/d22/classOmniboxEditModel.html#a981623c1db1ef3409627b8cc237fe6a6" target="_top" xlink:title=" ">
<polygon fill="white" stroke="black" points="562,-276.5 562,-306.5 703,-306.5 703,-276.5 562,-276.5"/>
<text text-anchor="start" x="570" y="-294.5" font-family="Helvetica,sans-Serif" font-size="10.00">OmniboxEditModel::OnUpOr</text>
<text text-anchor="middle" x="632.5" y="-283.5" font-family="Helvetica,sans-Serif" font-size="10.00">DownKeyPressed</text>
</a>
</g>
</g>
<!-- Node3&#45;&gt;Node4 -->
<g id="edge3" class="edge">
<title>Node3&#45;&gt;Node4</title>
<path fill="none" stroke="midnightblue" d="M757.67,-291.5C739.94,-291.5 720.96,-291.5 703.3,-291.5"/>
<polygon fill="midnightblue" stroke="midnightblue" points="757.95,-295 767.95,-291.5 757.95,-288 757.95,-295"/>
</g>
<!-- Node5 -->
<g id="node5" class="node">
<title>Node5</title>
<g id="a_node5"><a xlink:href="../../d0/d94/classOmniboxViewViews.html#ae3ebda306ffa960bb7a3a1ebe7f7fc76" target="_top" xlink:title=" ">
<polygon fill="white" stroke="black" points="368.5,-276.5 368.5,-306.5 514.5,-306.5 514.5,-276.5 368.5,-276.5"/>
<text text-anchor="start" x="376.5" y="-294.5" font-family="Helvetica,sans-Serif" font-size="10.00">OmniboxViewViews::Execute</text>
<text text-anchor="middle" x="441.5" y="-283.5" font-family="Helvetica,sans-Serif" font-size="10.00">TextEditCommand</text>
</a>
</g>
</g>
<!-- Node4&#45;&gt;Node5 -->
<g id="edge4" class="edge">
<title>Node4&#45;&gt;Node5</title>
<path fill="none" stroke="midnightblue" d="M551.73,-291.5C539.46,-291.5 526.86,-291.5 514.78,-291.5"/>
<polygon fill="midnightblue" stroke="midnightblue" points="551.93,-295 561.93,-291.5 551.93,-288 551.93,-295"/>
</g>
<!-- Node6 -->
<g id="node6" class="node">
<title>Node6</title>
<g id="a_node6"><a xlink:href="../../d0/d94/classOmniboxViewViews.html#a487a0ced2870997b0f88d8dcab9a4f0e" target="_top" xlink:title=" ">
<polygon fill="white" stroke="black" points="181,-314.5 181,-344.5 327,-344.5 327,-314.5 181,-314.5"/>
<text text-anchor="start" x="189" y="-332.5" font-family="Helvetica,sans-Serif" font-size="10.00">OmniboxViewViews::Execute</text>
<text text-anchor="middle" x="254" y="-321.5" font-family="Helvetica,sans-Serif" font-size="10.00">Command</text>
</a>
</g>
</g>
<!-- Node5&#45;&gt;Node6 -->
<g id="edge5" class="edge">
<title>Node5&#45;&gt;Node6</title>
<path fill="none" stroke="midnightblue" d="M358.33,-308.33C347.91,-310.47 337.3,-312.64 327.05,-314.74"/>
<polygon fill="midnightblue" stroke="midnightblue" points="359.16,-311.74 368.25,-306.3 357.75,-304.88 359.16,-311.74"/>
</g>
<!-- Node7 -->
<g id="node7" class="node">
<title>Node7</title>
<g id="a_node7"><a xlink:href="../../d0/d94/classOmniboxViewViews.html#a5a64c1e16631c3301fb57307402784dc" target="_top" xlink:title=" ">
<polygon fill="white" stroke="black" points="183.5,-265.5 183.5,-295.5 324.5,-295.5 324.5,-265.5 183.5,-265.5"/>
<text text-anchor="start" x="191.5" y="-283.5" font-family="Helvetica,sans-Serif" font-size="10.00">OmniboxViewViews::Handle</text>
<text text-anchor="middle" x="254" y="-272.5" font-family="Helvetica,sans-Serif" font-size="10.00">KeyEvent</text>
</a>
</g>
</g>
<!-- Node5&#45;&gt;Node7 -->
<g id="edge6" class="edge">
<title>Node5&#45;&gt;Node7</title>
<path fill="none" stroke="midnightblue" d="M358.07,-286.61C346.9,-285.95 335.53,-285.28 324.62,-284.63"/>
<polygon fill="midnightblue" stroke="midnightblue" points="358.06,-290.12 368.25,-287.22 358.47,-283.13 358.06,-290.12"/>
</g>
<!-- Node9 -->
<g id="node9" class="node">
<title>Node9</title>
<g id="a_node9"><a xlink:href="../../d3/d0a/classOmniboxSuggestionButtonRowView.html#a42771914af6c819204b2dd61ec5b0731" target="_top" xlink:title=" ">
<polygon fill="white" stroke="black" points="753.5,-224.5 753.5,-254.5 906.5,-254.5 906.5,-224.5 753.5,-224.5"/>
<text text-anchor="start" x="761.5" y="-242.5" font-family="Helvetica,sans-Serif" font-size="10.00">OmniboxSuggestionButtonRow</text>
<text text-anchor="middle" x="830" y="-231.5" font-family="Helvetica,sans-Serif" font-size="10.00">View::SetPillButtonVisibility</text>
</a>
</g>
</g>
<!-- Node8&#45;&gt;Node9 -->
<g id="edge8" class="edge">
<title>Node8&#45;&gt;Node9</title>
<path fill="none" stroke="midnightblue" d="M940.54,-237.77C929.31,-237.94 917.81,-238.13 906.67,-238.3"/>
<polygon fill="midnightblue" stroke="midnightblue" points="940.8,-241.26 950.74,-237.6 940.69,-234.26 940.8,-241.26"/>
</g>
<!-- Node14 -->
<g id="node14" class="node">
<title>Node14</title>
<g id="a_node14"><a xlink:href="../../d3/d4c/classOmniboxResultView.html#ab1796346854dce2ece062cb44b67d30b" target="_top" xlink:title=" ">
<polygon fill="white" stroke="black" points="745,-156.5 745,-186.5 915,-186.5 915,-156.5 745,-156.5"/>
<text text-anchor="start" x="753" y="-174.5" font-family="Helvetica,sans-Serif" font-size="10.00">OmniboxResultView::</text>
<text text-anchor="middle" x="830" y="-163.5" font-family="Helvetica,sans-Serif" font-size="10.00">UpdateRemoveSuggestionVisibility</text>
</a>
</g>
</g>
<!-- Node8&#45;&gt;Node14 -->
<g id="edge13" class="edge">
<title>Node8&#45;&gt;Node14</title>
<path fill="none" stroke="midnightblue" d="M966.97,-218.14C937.92,-208.18 902.47,-196.01 875.04,-186.61"/>
<polygon fill="midnightblue" stroke="midnightblue" points="965.95,-221.49 976.55,-221.42 968.23,-214.87 965.95,-221.49"/>
</g>
<!-- Node10 -->
<g id="node10" class="node">
<title>Node10</title>
<g id="a_node10"><a xlink:href="../../d3/d0a/classOmniboxSuggestionButtonRowView.html#acf68e6dc59accade5d0abeffa0a55257" target="_top" xlink:title=" ">
<polygon fill="white" stroke="black" points="556,-225.5 556,-255.5 709,-255.5 709,-225.5 556,-225.5"/>
<text text-anchor="start" x="564" y="-243.5" font-family="Helvetica,sans-Serif" font-size="10.00">OmniboxSuggestionButtonRow</text>
<text text-anchor="middle" x="632.5" y="-232.5" font-family="Helvetica,sans-Serif" font-size="10.00">View::UpdateFromModel</text>
</a>
</g>
</g>
<!-- Node9&#45;&gt;Node10 -->
<g id="edge9" class="edge">
<title>Node9&#45;&gt;Node10</title>
<path fill="none" stroke="midnightblue" d="M743.12,-239.94C731.82,-240 720.32,-240.06 709.21,-240.11"/>
<polygon fill="midnightblue" stroke="midnightblue" points="743.43,-243.44 753.41,-239.89 743.4,-236.44 743.43,-243.44"/>
</g>
<!-- Node11 -->
<g id="node11" class="node">
<title>Node11</title>
<g id="a_node11"><a xlink:href="../../d3/d4c/classOmniboxResultView.html#ad0185705673042dc89733278acc080e5" target="_top" xlink:title=" ">
<polygon fill="white" stroke="black" points="385.5,-215.5 385.5,-245.5 497.5,-245.5 497.5,-215.5 385.5,-215.5"/>
<text text-anchor="start" x="393.5" y="-233.5" font-family="Helvetica,sans-Serif" font-size="10.00">OmniboxResultView::</text>
<text text-anchor="middle" x="441.5" y="-222.5" font-family="Helvetica,sans-Serif" font-size="10.00">SetMatch</text>
</a>
</g>
</g>
<!-- Node10&#45;&gt;Node11 -->
<g id="edge10" class="edge">
<title>Node10&#45;&gt;Node11</title>
<path fill="none" stroke="midnightblue" d="M545.83,-235.97C529.42,-235.1 512.65,-234.21 497.52,-233.41"/>
<polygon fill="midnightblue" stroke="midnightblue" points="545.82,-239.47 555.99,-236.5 546.19,-232.48 545.82,-239.47"/>
</g>
<!-- Node12 -->
<g id="node12" class="node">
<title>Node12</title>
<g id="a_node12"><a xlink:href="../../d7/d88/classOmniboxPopupContentsView.html#aa8f47263f229af6a469c3bf964b81162" target="_top" xlink:title=" ">
<polygon fill="white" stroke="black" points="181.5,-215.5 181.5,-245.5 326.5,-245.5 326.5,-215.5 181.5,-215.5"/>
<text text-anchor="start" x="189.5" y="-233.5" font-family="Helvetica,sans-Serif" font-size="10.00">OmniboxPopupContentsView</text>
<text text-anchor="middle" x="254" y="-222.5" font-family="Helvetica,sans-Serif" font-size="10.00">::UpdatePopupAppearance</text>
</a>
</g>
</g>
<!-- Node11&#45;&gt;Node12 -->
<g id="edge11" class="edge">
<title>Node11&#45;&gt;Node12</title>
<path fill="none" stroke="midnightblue" d="M375.24,-230.5C359.57,-230.5 342.75,-230.5 326.8,-230.5"/>
<polygon fill="midnightblue" stroke="midnightblue" points="375.35,-234 385.35,-230.5 375.35,-227 375.35,-234"/>
</g>
<!-- Node13 -->
<g id="node13" class="node">
<title>Node13</title>
<g id="a_node13"><a xlink:href="../../d7/d88/classOmniboxPopupContentsView.html#a0e658101bc19acb66f6e0915fd6c2fe3" target="_top" xlink:title=" ">
<polygon fill="white" stroke="black" points="0,-215.5 0,-245.5 145,-245.5 145,-215.5 0,-215.5"/>
<text text-anchor="start" x="8" y="-233.5" font-family="Helvetica,sans-Serif" font-size="10.00">OmniboxPopupContentsView</text>
<text text-anchor="middle" x="72.5" y="-222.5" font-family="Helvetica,sans-Serif" font-size="10.00">::OnWidgetBoundsChanged</text>
</a>
</g>
</g>
<!-- Node12&#45;&gt;Node13 -->
<g id="edge12" class="edge">
<title>Node12&#45;&gt;Node13</title>
<path fill="none" stroke="midnightblue" d="M171.15,-230.5C162.45,-230.5 153.66,-230.5 145.1,-230.5"/>
<polygon fill="midnightblue" stroke="midnightblue" points="171.28,-234 181.28,-230.5 171.28,-227 171.28,-234"/>
</g>
<!-- Node14&#45;&gt;Node11 -->
<g id="edge16" class="edge">
<title>Node14&#45;&gt;Node11</title>
<path fill="none" stroke="midnightblue" d="M734.37,-185.95C660.13,-197.28 559.37,-212.66 497.75,-222.07"/>
<polygon fill="midnightblue" stroke="midnightblue" points="735.3,-189.34 744.66,-184.37 734.24,-182.42 735.3,-189.34"/>
</g>
<!-- Node15 -->
<g id="node15" class="node">
<title>Node15</title>
<g id="a_node15"><a xlink:href="../../d3/d4c/classOmniboxResultView.html#a516affe0ed43559711704018b03c20b7" target="_top" xlink:title=" ">
<polygon fill="white" stroke="black" points="566.5,-137.5 566.5,-167.5 698.5,-167.5 698.5,-137.5 566.5,-137.5"/>
<text text-anchor="start" x="574.5" y="-155.5" font-family="Helvetica,sans-Serif" font-size="10.00">OmniboxResultView::</text>
<text text-anchor="middle" x="632.5" y="-144.5" font-family="Helvetica,sans-Serif" font-size="10.00">OnSelectionStateChanged</text>
</a>
</g>
</g>
<!-- Node14&#45;&gt;Node15 -->
<g id="edge14" class="edge">
<title>Node14&#45;&gt;Node15</title>
<path fill="none" stroke="midnightblue" d="M734.72,-162.34C722.49,-161.15 710.19,-159.95 698.58,-158.83"/>
<polygon fill="midnightblue" stroke="midnightblue" points="734.66,-165.85 744.96,-163.33 735.34,-158.88 734.66,-165.85"/>
</g>
<!-- Node17 -->
<g id="node17" class="node">
<title>Node17</title>
<g id="a_node17"><a xlink:href="../../d3/d4c/classOmniboxResultView.html#a15ea8940c53d801afdd7e1fe6d94c2e0" target="_top" xlink:title=" ">
<polygon fill="white" stroke="black" points="576.5,-83.5 576.5,-113.5 688.5,-113.5 688.5,-83.5 576.5,-83.5"/>
<text text-anchor="start" x="584.5" y="-101.5" font-family="Helvetica,sans-Serif" font-size="10.00">OmniboxResultView::</text>
<text text-anchor="middle" x="632.5" y="-90.5" font-family="Helvetica,sans-Serif" font-size="10.00">UpdateHoverState</text>
</a>
</g>
</g>
<!-- Node14&#45;&gt;Node17 -->
<g id="edge17" class="edge">
<title>Node14&#45;&gt;Node17</title>
<path fill="none" stroke="midnightblue" d="M778.71,-152.72C746.17,-140.57 704.35,-124.96 673.96,-113.61"/>
<polygon fill="midnightblue" stroke="midnightblue" points="777.9,-156.16 788.49,-156.37 780.35,-149.6 777.9,-156.16"/>
</g>
<!-- Node16 -->
<g id="node16" class="node">
<title>Node16</title>
<g id="a_node16"><a xlink:href="../../da/da2/classOmniboxRowView.html#a2b9d0b0fce1926c058199484af89949d" target="_top" xlink:title=" ">
<polygon fill="white" stroke="black" points="363,-147.5 363,-177.5 520,-177.5 520,-147.5 363,-147.5"/>
<text text-anchor="start" x="371" y="-165.5" font-family="Helvetica,sans-Serif" font-size="10.00">OmniboxRowView::OnSelection</text>
<text text-anchor="middle" x="441.5" y="-154.5" font-family="Helvetica,sans-Serif" font-size="10.00">StateChanged</text>
</a>
</g>
</g>
<!-- Node15&#45;&gt;Node16 -->
<g id="edge15" class="edge">
<title>Node15&#45;&gt;Node16</title>
<path fill="none" stroke="midnightblue" d="M556.15,-156.49C544.27,-157.12 531.97,-157.77 520.05,-158.4"/>
<polygon fill="midnightblue" stroke="midnightblue" points="556.66,-159.96 566.46,-155.94 556.29,-152.97 556.66,-159.96"/>
</g>
<!-- Node18 -->
<g id="node18" class="node">
<title>Node18</title>
<g id="a_node18"><a xlink:href="../../d3/d4c/classOmniboxResultView.html#adfc2b5da2f71c87fa3d391a32bc5ebf9" target="_top" xlink:title=" ">
<polygon fill="white" stroke="black" points="385.5,-98.5 385.5,-128.5 497.5,-128.5 497.5,-98.5 385.5,-98.5"/>
<text text-anchor="start" x="393.5" y="-116.5" font-family="Helvetica,sans-Serif" font-size="10.00">OmniboxResultView::</text>
<text text-anchor="middle" x="441.5" y="-105.5" font-family="Helvetica,sans-Serif" font-size="10.00">OnMouseDragged</text>
</a>
</g>
</g>
<!-- Node17&#45;&gt;Node18 -->
<g id="edge18" class="edge">
<title>Node17&#45;&gt;Node18</title>
<path fill="none" stroke="midnightblue" d="M566.26,-103.68C543.94,-105.45 519.2,-107.41 497.74,-109.12"/>
<polygon fill="midnightblue" stroke="midnightblue" points="566.63,-107.16 576.33,-102.88 566.08,-100.18 566.63,-107.16"/>
</g>
<!-- Node19 -->
<g id="node19" class="node">
<title>Node19</title>
<g id="a_node19"><a xlink:href="../../d3/d4c/classOmniboxResultView.html#a201378b2282d4d6cf4492f6df7636490" target="_top" xlink:title=" ">
<polygon fill="white" stroke="black" points="385.5,-49.5 385.5,-79.5 497.5,-79.5 497.5,-49.5 385.5,-49.5"/>
<text text-anchor="start" x="393.5" y="-67.5" font-family="Helvetica,sans-Serif" font-size="10.00">OmniboxResultView::</text>
<text text-anchor="middle" x="441.5" y="-56.5" font-family="Helvetica,sans-Serif" font-size="10.00">OnMouseEntered</text>
</a>
</g>
</g>
<!-- Node17&#45;&gt;Node19 -->
<g id="edge19" class="edge">
<title>Node17&#45;&gt;Node19</title>
<path fill="none" stroke="midnightblue" d="M566.26,-86.76C543.94,-82.75 519.2,-78.3 497.74,-74.44"/>
<polygon fill="midnightblue" stroke="midnightblue" points="565.86,-90.25 576.33,-88.57 567.1,-83.36 565.86,-90.25"/>
</g>
<!-- Node20 -->
<g id="node20" class="node">
<title>Node20</title>
<g id="a_node20"><a xlink:href="../../d3/d4c/classOmniboxResultView.html#a70322ccbbe5e2f0bbc94d35b17c70553" target="_top" xlink:title=" ">
<polygon fill="white" stroke="black" points="385.5,-0.5 385.5,-30.5 497.5,-30.5 497.5,-0.5 385.5,-0.5"/>
<text text-anchor="start" x="393.5" y="-18.5" font-family="Helvetica,sans-Serif" font-size="10.00">OmniboxResultView::</text>
<text text-anchor="middle" x="441.5" y="-7.5" font-family="Helvetica,sans-Serif" font-size="10.00">OnMouseExited</text>
</a>
</g>
</g>
<!-- Node17&#45;&gt;Node20 -->
<g id="edge20" class="edge">
<title>Node17&#45;&gt;Node20</title>
<path fill="none" stroke="midnightblue" d="M597.22,-78.22C575.56,-65.95 546.72,-50.59 520,-39.5 512.32,-36.31 504.07,-33.32 495.91,-30.6"/>
<polygon fill="midnightblue" stroke="midnightblue" points="595.61,-81.33 606.03,-83.26 599.09,-75.26 595.61,-81.33"/>
</g>
</g>
</svg>
        <g id="navigator" transform="translate(0 0)" fill="#404254">
                <rect fill="#f2f5e9" fill-opacity="0.5" stroke="#606060" stroke-width=".5" x="0" y="0" width="60" height="60"/>
                <use id="zoomplus" xlink:href="#zoomPlus" x="17" y="9" onmousedown="handleZoom(evt,'in')"/>
                <use id="zoomminus" xlink:href="#zoomMin" x="42" y="9" onmousedown="handleZoom(evt,'out')"/>
                <use id="reset" xlink:href="#resetDef" x="30" y="36" onmousedown="handleReset()"/>
                <g id="arrowUp" xlink:href="#dirArrow" transform="translate(30 24)" onmousedown="handlePan(0,-1)">
                  <use xlink:href="#rim" fill="#404040">
                        <set attributeName="fill" to="#808080" begin="arrowUp.mouseover" end="arrowUp.mouseout"/>
                  </use>
                  <path fill="none" stroke="white" stroke-width="1.5" d="M0,-3.0v7 M-2.5,-0.5L0,-3.0L2.5,-0.5"/>
                </g>
                <g id="arrowRight" xlink:href="#dirArrow" transform="rotate(90) translate(36 -43)" onmousedown="handlePan(1,0)">
                  <use xlink:href="#rim" fill="#404040">
                        <set attributeName="fill" to="#808080" begin="arrowRight.mouseover" end="arrowRight.mouseout"/>
                  </use>
                  <path fill="none" stroke="white" stroke-width="1.5" d="M0,-3.0v7 M-2.5,-0.5L0,-3.0L2.5,-0.5"/>
                </g>
                <g id="arrowDown" xlink:href="#dirArrow" transform="rotate(180) translate(-30 -48)" onmousedown="handlePan(0,1)">
                  <use xlink:href="#rim" fill="#404040">
                        <set attributeName="fill" to="#808080" begin="arrowDown.mouseover" end="arrowDown.mouseout"/>
                  </use>
                  <path fill="none" stroke="white" stroke-width="1.5" d="M0,-3.0v7 M-2.5,-0.5L0,-3.0L2.5,-0.5"/>
                </g>
                <g id="arrowLeft" xlink:href="#dirArrow" transform="rotate(270) translate(-36 17)" onmousedown="handlePan(-1,0)">
                  <use xlink:href="#rim" fill="#404040">
                        <set attributeName="fill" to="#808080" begin="arrowLeft.mouseover" end="arrowLeft.mouseout"/>
                  </use>
                  <path fill="none" stroke="white" stroke-width="1.5" d="M0,-3.0v7 M-2.5,-0.5L0,-3.0L2.5,-0.5"/>
                </g>
        </g>
        <svg viewBox="0 0 15 15" width="100%" height="30px" preserveAspectRatio="xMaxYMin meet">
         <g id="arrow_out" transform="scale(0.3 0.3)">
          <a xlink:href="structOmniboxPopupSelection_aaf32c9ad4992fec10b4295679052b55a_icgraph_org.svg" target="_base">
           <rect id="button" ry="5" rx="5" y="6" x="6" height="38" width="38"
                fill="#f2f5e9" fill-opacity="0.5" stroke="#606060" stroke-width="1.0"/>
           <path id="arrow"
             d="M 11.500037,31.436501 C 11.940474,20.09759 22.043105,11.32322 32.158766,21.979434 L 37.068811,17.246167 C 37.068811,17.246167 37.088388,32 37.088388,32 L 22.160133,31.978069 C 22.160133,31.978069 26.997745,27.140456 26.997745,27.140456 C 18.528582,18.264221 13.291696,25.230495 11.500037,31.436501 z"
             style="fill:#404040;"/>
          </a>
         </g>
        </svg>
</svg>
