<?xml version="1.0" encoding="UTF-8" standalone="no"?>
<!DOCTYPE svg PUBLIC "-//W3C//DTD SVG 1.1//EN"
 "http://www.w3.org/Graphics/SVG/1.1/DTD/svg11.dtd">
<!-- Generated by graphviz version 2.43.0 (0)
 -->
<!-- Title: OmniboxPopupSelection::GetAllAvailableSelectionsSorted Pages: 1 -->
<svg width="688pt" height="186pt"
 viewBox="0.00 0.00 688.00 186.00" xmlns="http://www.w3.org/2000/svg" xmlns:xlink="http://www.w3.org/1999/xlink">
<g id="graph0" class="graph" transform="scale(1 1) rotate(0) translate(4 182)">
<title>OmniboxPopupSelection::GetAllAvailableSelectionsSorted</title>
<polygon fill="white" stroke="transparent" points="-4,4 -4,-182 684,-182 684,4 -4,4"/>
<!-- Node1 -->
<g id="node1" class="node">
<title>Node1</title>
<g id="a_node1"><a xlink:title=" ">
<polygon fill="#bfbfbf" stroke="black" points="0,-57 0,-98 135,-98 135,-57 0,-57"/>
<text text-anchor="start" x="8" y="-86" font-family="Helvetica,sans-Serif" font-size="10.00">OmniboxPopupSelection</text>
<text text-anchor="start" x="8" y="-75" font-family="Helvetica,sans-Serif" font-size="10.00">::GetAllAvailableSelections</text>
<text text-anchor="middle" x="67.5" y="-64" font-family="Helvetica,sans-Serif" font-size="10.00">Sorted</text>
</a>
</g>
</g>
<!-- Node2 -->
<g id="node2" class="node">
<title>Node2</title>
<g id="a_node2"><a xlink:href="../../de/dfc/structOmniboxPopupSelection.html#aaf32c9ad4992fec10b4295679052b55a" target="_top" xlink:title=" ">
<polygon fill="white" stroke="black" points="171,-62.5 171,-92.5 307,-92.5 307,-62.5 171,-62.5"/>
<text text-anchor="start" x="179" y="-80.5" font-family="Helvetica,sans-Serif" font-size="10.00">OmniboxPopupSelection</text>
<text text-anchor="middle" x="239" y="-69.5" font-family="Helvetica,sans-Serif" font-size="10.00">::IsControlPresentOnMatch</text>
</a>
</g>
</g>
<!-- Node1&#45;&gt;Node2 -->
<g id="edge1" class="edge">
<title>Node1&#45;&gt;Node2</title>
<path fill="none" stroke="midnightblue" d="M135,-77.5C143.47,-77.5 152.19,-77.5 160.81,-77.5"/>
<polygon fill="midnightblue" stroke="midnightblue" points="160.85,-81 170.85,-77.5 160.85,-74 160.85,-81"/>
</g>
<!-- Node3 -->
<g id="node3" class="node">
<title>Node3</title>
<g id="a_node3"><a xlink:href="../../d1/d73/namespaceOmniboxFieldTrial.html#a5946bfcba47abaa751ad85c5fa022f86" target="_top" xlink:title=" ">
<polygon fill="white" stroke="black" points="343,-147.5 343,-177.5 501,-177.5 501,-147.5 343,-147.5"/>
<text text-anchor="start" x="351" y="-165.5" font-family="Helvetica,sans-Serif" font-size="10.00">OmniboxFieldTrial::</text>
<text text-anchor="middle" x="422" y="-154.5" font-family="Helvetica,sans-Serif" font-size="10.00">IsKeywordSearchButtonEnabled</text>
</a>
</g>
</g>
<!-- Node1&#45;&gt;Node3 -->
<g id="edge7" class="edge">
<title>Node1&#45;&gt;Node3</title>
<path fill="none" stroke="midnightblue" d="M135.22,-93.59C196.22,-108.3 286.24,-130 348.88,-145.11"/>
<polygon fill="midnightblue" stroke="midnightblue" points="348.15,-148.53 358.7,-147.48 349.79,-141.73 348.15,-148.53"/>
</g>
<!-- Node7 -->
<g id="node7" class="node">
<title>Node7</title>
<g id="a_node7"><a xlink:href="../../d3/d03/classAutocompleteResult.html#a64a7947a81e007d5aa56ac9b25e84bb6" target="_top" xlink:title=" ">
<polygon fill="white" stroke="black" points="369.5,-0.5 369.5,-30.5 474.5,-30.5 474.5,-0.5 369.5,-0.5"/>
<text text-anchor="start" x="377.5" y="-18.5" font-family="Helvetica,sans-Serif" font-size="10.00">AutocompleteResult</text>
<text text-anchor="middle" x="422" y="-7.5" font-family="Helvetica,sans-Serif" font-size="10.00">::size</text>
</a>
</g>
</g>
<!-- Node1&#45;&gt;Node7 -->
<g id="edge8" class="edge">
<title>Node1&#45;&gt;Node7</title>
<path fill="none" stroke="midnightblue" d="M135.02,-60.33C146.96,-57.52 159.32,-54.78 171,-52.5 234.65,-40.06 308.15,-29.65 358.9,-23.07"/>
<polygon fill="midnightblue" stroke="midnightblue" points="359.58,-26.51 369.05,-21.77 358.69,-19.57 359.58,-26.51"/>
</g>
<!-- Node2&#45;&gt;Node3 -->
<g id="edge2" class="edge">
<title>Node2&#45;&gt;Node3</title>
<path fill="none" stroke="midnightblue" d="M262.09,-92.67C282.4,-106.11 313.73,-125.55 343,-138.5 347.38,-140.44 351.97,-142.29 356.64,-144.03"/>
<polygon fill="midnightblue" stroke="midnightblue" points="355.67,-147.4 366.27,-147.46 358.02,-140.81 355.67,-147.4"/>
</g>
<!-- Node4 -->
<g id="node4" class="node">
<title>Node4</title>
<g id="a_node4"><a xlink:href="../../d3/d03/classAutocompleteResult.html#a1353d4a449288df34f1d6dd3eff73298" target="_top" xlink:title=" ">
<polygon fill="white" stroke="black" points="349.5,-98.5 349.5,-128.5 494.5,-128.5 494.5,-98.5 349.5,-98.5"/>
<text text-anchor="start" x="357.5" y="-116.5" font-family="Helvetica,sans-Serif" font-size="10.00">AutocompleteResult</text>
<text text-anchor="middle" x="422" y="-105.5" font-family="Helvetica,sans-Serif" font-size="10.00">::IsSuggestionGroupIdHidden</text>
</a>
</g>
</g>
<!-- Node2&#45;&gt;Node4 -->
<g id="edge3" class="edge">
<title>Node2&#45;&gt;Node4</title>
<path fill="none" stroke="midnightblue" d="M307.14,-90.85C317.69,-92.95 328.7,-95.14 339.53,-97.3"/>
<polygon fill="midnightblue" stroke="midnightblue" points="338.93,-100.74 349.42,-99.26 340.29,-93.88 338.93,-100.74"/>
</g>
<!-- Node6 -->
<g id="node6" class="node">
<title>Node6</title>
<g id="a_node6"><a xlink:href="../../d3/d03/classAutocompleteResult.html#a1532251921e2112a24e3a52ec7ee4535" target="_top" xlink:title=" ">
<polygon fill="white" stroke="black" points="369.5,-49.5 369.5,-79.5 474.5,-79.5 474.5,-49.5 369.5,-49.5"/>
<text text-anchor="start" x="377.5" y="-67.5" font-family="Helvetica,sans-Serif" font-size="10.00">AutocompleteResult</text>
<text text-anchor="middle" x="422" y="-56.5" font-family="Helvetica,sans-Serif" font-size="10.00">::match_at</text>
</a>
</g>
</g>
<!-- Node2&#45;&gt;Node6 -->
<g id="edge5" class="edge">
<title>Node2&#45;&gt;Node6</title>
<path fill="none" stroke="midnightblue" d="M307.14,-72.68C324.14,-71.46 342.31,-70.15 359.04,-68.95"/>
<polygon fill="midnightblue" stroke="midnightblue" points="359.52,-72.42 369.24,-68.22 359.02,-65.44 359.52,-72.42"/>
</g>
<!-- Node2&#45;&gt;Node7 -->
<g id="edge6" class="edge">
<title>Node2&#45;&gt;Node7</title>
<path fill="none" stroke="midnightblue" d="M279.44,-62.37C298.54,-55.19 321.87,-46.64 343,-39.5 348.81,-37.53 354.89,-35.55 360.98,-33.6"/>
<polygon fill="midnightblue" stroke="midnightblue" points="362.04,-36.94 370.52,-30.59 359.93,-30.26 362.04,-36.94"/>
</g>
<!-- Node5 -->
<g id="node5" class="node">
<title>Node5</title>
<g id="a_node5"><a xlink:href="../../d4/d19/namespaceomnibox.html#a416efcfe9398c882ad7a7c97b42578e1" target="_top" xlink:title=" ">
<polygon fill="white" stroke="black" points="537,-98.5 537,-128.5 680,-128.5 680,-98.5 537,-98.5"/>
<text text-anchor="start" x="545" y="-116.5" font-family="Helvetica,sans-Serif" font-size="10.00">omnibox::GetUserPreference</text>
<text text-anchor="middle" x="608.5" y="-105.5" font-family="Helvetica,sans-Serif" font-size="10.00">ForSuggestionGroupVisibility</text>
</a>
</g>
</g>
<!-- Node4&#45;&gt;Node5 -->
<g id="edge4" class="edge">
<title>Node4&#45;&gt;Node5</title>
<path fill="none" stroke="midnightblue" d="M494.6,-113.5C505.11,-113.5 516.01,-113.5 526.69,-113.5"/>
<polygon fill="midnightblue" stroke="midnightblue" points="526.85,-117 536.85,-113.5 526.85,-110 526.85,-117"/>
</g>
</g>
</svg>
