<?xml version="1.0" encoding="UTF-8" standalone="no"?>
<!DOCTYPE svg PUBLIC "-//W3C//DTD SVG 1.1//EN"
 "http://www.w3.org/Graphics/SVG/1.1/DTD/svg11.dtd">
<!-- Generated by graphviz version 2.43.0 (0)
 -->
<!-- Title: DocumentProvider::AddProviderInfo Pages: 1 -->
<svg width="353pt" height="50pt"
 viewBox="0.00 0.00 353.00 50.00" xmlns="http://www.w3.org/2000/svg" xmlns:xlink="http://www.w3.org/1999/xlink">
<g id="graph0" class="graph" transform="scale(1 1) rotate(0) translate(4 46)">
<title>DocumentProvider::AddProviderInfo</title>
<polygon fill="white" stroke="transparent" points="-4,4 -4,-46 349,-46 349,4 -4,4"/>
<!-- Node1 -->
<g id="node1" class="node">
<title>Node1</title>
<g id="a_node1"><a xlink:title=" ">
<polygon fill="#bfbfbf" stroke="black" points="0,-11.5 0,-30.5 173,-30.5 173,-11.5 0,-11.5"/>
<text text-anchor="middle" x="86.5" y="-18.5" font-family="Helvetica,sans-Serif" font-size="10.00">DocumentProvider::AddProviderInfo</text>
</a>
</g>
</g>
<!-- Node2 -->
<g id="node2" class="node">
<title>Node2</title>
<g id="a_node2"><a xlink:href="../../d1/d73/namespaceOmniboxFieldTrial.html#adff87ba3ad19cb78e4c9a23da2173fc2" target="_top" xlink:title=" ">
<polygon fill="white" stroke="black" points="209,-0.5 209,-41.5 345,-41.5 345,-0.5 209,-0.5"/>
<text text-anchor="start" x="217" y="-29.5" font-family="Helvetica,sans-Serif" font-size="10.00">OmniboxFieldTrial::</text>
<text text-anchor="start" x="217" y="-18.5" font-family="Helvetica,sans-Serif" font-size="10.00">GetActiveSuggestFieldTrial</text>
<text text-anchor="middle" x="277" y="-7.5" font-family="Helvetica,sans-Serif" font-size="10.00">Hashes</text>
</a>
</g>
</g>
<!-- Node1&#45;&gt;Node2 -->
<g id="edge1" class="edge">
<title>Node1&#45;&gt;Node2</title>
<path fill="none" stroke="midnightblue" d="M173.2,-21C181.71,-21 190.3,-21 198.72,-21"/>
<polygon fill="midnightblue" stroke="midnightblue" points="198.86,-24.5 208.86,-21 198.86,-17.5 198.86,-24.5"/>
</g>
</g>
</svg>
