<?xml version="1.0" encoding="UTF-8" standalone="no"?>
<!DOCTYPE svg PUBLIC "-//W3C//DTD SVG 1.1//EN"
 "http://www.w3.org/Graphics/SVG/1.1/DTD/svg11.dtd">
<!-- Generated by graphviz version 2.43.0 (0)
 -->
<!-- Title: components/omnibox/browser/omnibox_popup_model.h Pages: 1 -->
<svg width="1520pt" height="284pt"
 viewBox="0.00 0.00 1519.93 284.00" xmlns="http://www.w3.org/2000/svg" xmlns:xlink="http://www.w3.org/1999/xlink">
<g id="graph0" class="graph" transform="scale(1 1) rotate(0) translate(4 280)">
<title>components/omnibox/browser/omnibox_popup_model.h</title>
<polygon fill="white" stroke="transparent" points="-4,4 -4,-280 1515.93,-280 1515.93,4 -4,4"/>
<!-- Node1 -->
<g id="node1" class="node">
<title>Node1</title>
<g id="a_node1"><a xlink:title=" ">
<polygon fill="#bfbfbf" stroke="black" points="574.5,-234.5 574.5,-275.5 699.5,-275.5 699.5,-234.5 574.5,-234.5"/>
<text text-anchor="start" x="582.5" y="-263.5" font-family="Helvetica,sans-Serif" font-size="10.00">components/omnibox</text>
<text text-anchor="start" x="582.5" y="-252.5" font-family="Helvetica,sans-Serif" font-size="10.00">/browser/omnibox_popup</text>
<text text-anchor="middle" x="637" y="-241.5" font-family="Helvetica,sans-Serif" font-size="10.00">_model.h</text>
</a>
</g>
</g>
<!-- Node2 -->
<g id="node2" class="node">
<title>Node2</title>
<g id="a_node2"><a xlink:href="../../df/d95/autocomplete__match__type_8cc.html" target="_top" xlink:title=" ">
<polygon fill="white" stroke="black" points="0,-156.5 0,-197.5 116,-197.5 116,-156.5 0,-156.5"/>
<text text-anchor="start" x="8" y="-185.5" font-family="Helvetica,sans-Serif" font-size="10.00">components/omnibox</text>
<text text-anchor="start" x="8" y="-174.5" font-family="Helvetica,sans-Serif" font-size="10.00">/browser/autocomplete</text>
<text text-anchor="middle" x="58" y="-163.5" font-family="Helvetica,sans-Serif" font-size="10.00">_match_type.cc</text>
</a>
</g>
</g>
<!-- Node1&#45;&gt;Node2 -->
<g id="edge1" class="edge">
<title>Node1&#45;&gt;Node2</title>
<path fill="none" stroke="midnightblue" d="M564.19,-250.2C464.33,-244.04 279.64,-229.27 125,-198 122.14,-197.42 119.24,-196.78 116.31,-196.08"/>
<polygon fill="midnightblue" stroke="midnightblue" points="563.98,-253.69 574.18,-250.8 564.41,-246.7 563.98,-253.69"/>
</g>
<!-- Node3 -->
<g id="node3" class="node">
<title>Node3</title>
<g id="a_node3"><a xlink:href="../../dd/d1e/omnibox__controller_8cc.html" target="_top" xlink:title=" ">
<polygon fill="white" stroke="black" points="134,-162 134,-192 286,-192 286,-162 134,-162"/>
<text text-anchor="start" x="142" y="-180" font-family="Helvetica,sans-Serif" font-size="10.00">components/omnibox</text>
<text text-anchor="middle" x="210" y="-169" font-family="Helvetica,sans-Serif" font-size="10.00">/browser/omnibox_controller.cc</text>
</a>
</g>
</g>
<!-- Node1&#45;&gt;Node3 -->
<g id="edge2" class="edge">
<title>Node1&#45;&gt;Node3</title>
<path fill="none" stroke="midnightblue" d="M564.4,-243.59C494.99,-233.29 387.51,-216.44 295,-198 286.08,-196.22 276.67,-194.18 267.49,-192.09"/>
<polygon fill="midnightblue" stroke="midnightblue" points="563.96,-247.07 574.36,-245.06 564.98,-240.14 563.96,-247.07"/>
</g>
<!-- Node4 -->
<g id="node4" class="node">
<title>Node4</title>
<g id="a_node4"><a xlink:href="../../d7/df6/omnibox__edit__model_8cc.html" target="_top" xlink:title=" ">
<polygon fill="white" stroke="black" points="304.5,-156.5 304.5,-197.5 419.5,-197.5 419.5,-156.5 304.5,-156.5"/>
<text text-anchor="start" x="312.5" y="-185.5" font-family="Helvetica,sans-Serif" font-size="10.00">components/omnibox</text>
<text text-anchor="start" x="312.5" y="-174.5" font-family="Helvetica,sans-Serif" font-size="10.00">/browser/omnibox_edit</text>
<text text-anchor="middle" x="362" y="-163.5" font-family="Helvetica,sans-Serif" font-size="10.00">_model.cc</text>
</a>
</g>
</g>
<!-- Node1&#45;&gt;Node4 -->
<g id="edge3" class="edge">
<title>Node1&#45;&gt;Node4</title>
<path fill="none" stroke="midnightblue" d="M564.47,-235.18C524.19,-224.58 473.22,-210.91 428,-198 425.24,-197.21 422.41,-196.39 419.56,-195.56"/>
<polygon fill="midnightblue" stroke="midnightblue" points="563.65,-238.59 574.21,-237.74 565.43,-231.82 563.65,-238.59"/>
</g>
<!-- Node5 -->
<g id="node5" class="node">
<title>Node5</title>
<g id="a_node5"><a xlink:href="../../d3/de0/omnibox__popup__model_8cc.html" target="_top" xlink:title=" ">
<polygon fill="white" stroke="black" points="437.5,-156.5 437.5,-197.5 562.5,-197.5 562.5,-156.5 437.5,-156.5"/>
<text text-anchor="start" x="445.5" y="-185.5" font-family="Helvetica,sans-Serif" font-size="10.00">components/omnibox</text>
<text text-anchor="start" x="445.5" y="-174.5" font-family="Helvetica,sans-Serif" font-size="10.00">/browser/omnibox_popup</text>
<text text-anchor="middle" x="500" y="-163.5" font-family="Helvetica,sans-Serif" font-size="10.00">_model.cc</text>
</a>
</g>
</g>
<!-- Node1&#45;&gt;Node5 -->
<g id="edge4" class="edge">
<title>Node1&#45;&gt;Node5</title>
<path fill="none" stroke="midnightblue" d="M592.81,-229.49C574.15,-219.13 552.72,-207.25 535.16,-197.51"/>
<polygon fill="midnightblue" stroke="midnightblue" points="591.28,-232.64 601.72,-234.43 594.67,-226.52 591.28,-232.64"/>
</g>
<!-- Node6 -->
<g id="node6" class="node">
<title>Node6</title>
<g id="a_node6"><a xlink:href="../../d4/d25/omnibox__popup__contents__view_8h.html" target="_top" xlink:title=" ">
<polygon fill="white" stroke="black" points="619,-156.5 619,-197.5 747,-197.5 747,-156.5 619,-156.5"/>
<text text-anchor="start" x="627" y="-185.5" font-family="Helvetica,sans-Serif" font-size="10.00">chrome/browser/ui/views</text>
<text text-anchor="start" x="627" y="-174.5" font-family="Helvetica,sans-Serif" font-size="10.00">/omnibox/omnibox_popup</text>
<text text-anchor="middle" x="683" y="-163.5" font-family="Helvetica,sans-Serif" font-size="10.00">_contents_view.h</text>
</a>
</g>
</g>
<!-- Node1&#45;&gt;Node6 -->
<g id="edge5" class="edge">
<title>Node1&#45;&gt;Node6</title>
<path fill="none" stroke="midnightblue" d="M654.09,-225.76C659.79,-216.35 665.99,-206.1 671.19,-197.51"/>
<polygon fill="midnightblue" stroke="midnightblue" points="651.03,-224.06 648.85,-234.43 657.02,-227.69 651.03,-224.06"/>
</g>
<!-- Node9 -->
<g id="node9" class="node">
<title>Node9</title>
<g id="a_node9"><a xlink:href="../../d3/d3f/omnibox__result__view_8cc.html" target="_top" xlink:title=" ">
<polygon fill="white" stroke="black" points="1056.5,-0.5 1056.5,-41.5 1181.5,-41.5 1181.5,-0.5 1056.5,-0.5"/>
<text text-anchor="start" x="1064.5" y="-29.5" font-family="Helvetica,sans-Serif" font-size="10.00">chrome/browser/ui/views</text>
<text text-anchor="start" x="1064.5" y="-18.5" font-family="Helvetica,sans-Serif" font-size="10.00">/omnibox/omnibox_result</text>
<text text-anchor="middle" x="1119" y="-7.5" font-family="Helvetica,sans-Serif" font-size="10.00">_view.cc</text>
</a>
</g>
</g>
<!-- Node1&#45;&gt;Node9 -->
<g id="edge11" class="edge">
<title>Node1&#45;&gt;Node9</title>
<path fill="none" stroke="midnightblue" d="M620.1,-225.24C615.96,-216.75 612.11,-207.25 610,-198 605.84,-179.8 604.13,-173.72 610,-156 623.58,-114.99 630.36,-99.2 668,-78 741.71,-36.47 963.81,-57.38 1047,-42 1050.06,-41.43 1053.18,-40.8 1056.32,-40.11"/>
<polygon fill="midnightblue" stroke="midnightblue" points="617.1,-227.07 624.82,-234.33 623.32,-223.84 617.1,-227.07"/>
</g>
<!-- Node11 -->
<g id="node11" class="node">
<title>Node11</title>
<g id="a_node11"><a xlink:href="../../d8/d7a/omnibox__view__views_8cc.html" target="_top" xlink:title=" ">
<polygon fill="white" stroke="black" points="695.5,-78.5 695.5,-119.5 820.5,-119.5 820.5,-78.5 695.5,-78.5"/>
<text text-anchor="start" x="703.5" y="-107.5" font-family="Helvetica,sans-Serif" font-size="10.00">chrome/browser/ui/views</text>
<text text-anchor="start" x="703.5" y="-96.5" font-family="Helvetica,sans-Serif" font-size="10.00">/omnibox/omnibox_view</text>
<text text-anchor="middle" x="758" y="-85.5" font-family="Helvetica,sans-Serif" font-size="10.00">_views.cc</text>
</a>
</g>
</g>
<!-- Node1&#45;&gt;Node11 -->
<g id="edge25" class="edge">
<title>Node1&#45;&gt;Node11</title>
<path fill="none" stroke="midnightblue" d="M709.01,-235.23C727.37,-226.88 744.99,-214.96 756,-198 771.19,-174.59 767.74,-140.95 763.3,-119.8"/>
<polygon fill="midnightblue" stroke="midnightblue" points="707.54,-232.06 699.68,-239.16 710.25,-238.51 707.54,-232.06"/>
</g>
<!-- Node12 -->
<g id="node12" class="node">
<title>Node12</title>
<g id="a_node12"><a xlink:href="../../dd/d82/omnibox__result__view_8h.html" target="_top" xlink:title=" ">
<polygon fill="white" stroke="black" points="867.5,-156.5 867.5,-197.5 992.5,-197.5 992.5,-156.5 867.5,-156.5"/>
<text text-anchor="start" x="875.5" y="-185.5" font-family="Helvetica,sans-Serif" font-size="10.00">chrome/browser/ui/views</text>
<text text-anchor="start" x="875.5" y="-174.5" font-family="Helvetica,sans-Serif" font-size="10.00">/omnibox/omnibox_result</text>
<text text-anchor="middle" x="930" y="-163.5" font-family="Helvetica,sans-Serif" font-size="10.00">_view.h</text>
</a>
</g>
</g>
<!-- Node1&#45;&gt;Node12 -->
<g id="edge12" class="edge">
<title>Node1&#45;&gt;Node12</title>
<path fill="none" stroke="midnightblue" d="M709.64,-235.16C758.05,-222.6 821.02,-206.27 867.25,-194.28"/>
<polygon fill="midnightblue" stroke="midnightblue" points="708.66,-231.8 699.86,-237.7 710.41,-238.57 708.66,-231.8"/>
</g>
<!-- Node13 -->
<g id="node13" class="node">
<title>Node13</title>
<g id="a_node13"><a xlink:href="../../dc/dce/omnibox__row__view_8cc.html" target="_top" xlink:title=" ">
<polygon fill="white" stroke="black" points="1333.5,-84 1333.5,-114 1488.5,-114 1488.5,-84 1333.5,-84"/>
<text text-anchor="start" x="1341.5" y="-102" font-family="Helvetica,sans-Serif" font-size="10.00">chrome/browser/ui/views</text>
<text text-anchor="middle" x="1411" y="-91" font-family="Helvetica,sans-Serif" font-size="10.00">/omnibox/omnibox_row_view.cc</text>
</a>
</g>
</g>
<!-- Node1&#45;&gt;Node13 -->
<g id="edge21" class="edge">
<title>Node1&#45;&gt;Node13</title>
<path fill="none" stroke="midnightblue" d="M709.68,-246.86C783.73,-238.65 901.5,-222.98 1001,-198 1055.4,-184.34 1065.87,-170.67 1120,-156 1130.49,-153.16 1253.95,-129.66 1336.65,-114.02"/>
<polygon fill="midnightblue" stroke="midnightblue" points="709.09,-243.4 699.53,-247.97 709.85,-250.36 709.09,-243.4"/>
</g>
<!-- Node16 -->
<g id="node16" class="node">
<title>Node16</title>
<g id="a_node16"><a xlink:href="../../d6/de9/omnibox__suggestion__button__row__view_8h.html" target="_top" xlink:title=" ">
<polygon fill="white" stroke="black" points="1128.5,-156.5 1128.5,-197.5 1277.5,-197.5 1277.5,-156.5 1128.5,-156.5"/>
<text text-anchor="start" x="1136.5" y="-185.5" font-family="Helvetica,sans-Serif" font-size="10.00">chrome/browser/ui/views</text>
<text text-anchor="start" x="1136.5" y="-174.5" font-family="Helvetica,sans-Serif" font-size="10.00">/omnibox/omnibox_suggestion</text>
<text text-anchor="middle" x="1203" y="-163.5" font-family="Helvetica,sans-Serif" font-size="10.00">_button_row_view.h</text>
</a>
</g>
</g>
<!-- Node1&#45;&gt;Node16 -->
<g id="edge22" class="edge">
<title>Node1&#45;&gt;Node16</title>
<path fill="none" stroke="midnightblue" d="M709.52,-246.1C798.75,-236.12 954.81,-217.84 1088,-198 1101.03,-196.06 1114.85,-193.81 1128.23,-191.55"/>
<polygon fill="midnightblue" stroke="midnightblue" points="709.06,-242.63 699.51,-247.21 709.83,-249.58 709.06,-242.63"/>
</g>
<!-- Node7 -->
<g id="node7" class="node">
<title>Node7</title>
<g id="a_node7"><a xlink:href="../../d8/df8/omnibox__match__cell__view_8cc.html" target="_top" xlink:title=" ">
<polygon fill="white" stroke="black" points="702,-0.5 702,-41.5 830,-41.5 830,-0.5 702,-0.5"/>
<text text-anchor="start" x="710" y="-29.5" font-family="Helvetica,sans-Serif" font-size="10.00">chrome/browser/ui/views</text>
<text text-anchor="start" x="710" y="-18.5" font-family="Helvetica,sans-Serif" font-size="10.00">/omnibox/omnibox_match</text>
<text text-anchor="middle" x="766" y="-7.5" font-family="Helvetica,sans-Serif" font-size="10.00">_cell_view.cc</text>
</a>
</g>
</g>
<!-- Node6&#45;&gt;Node7 -->
<g id="edge6" class="edge">
<title>Node6&#45;&gt;Node7</title>
<path fill="none" stroke="midnightblue" d="M662.52,-147.77C650.36,-127.27 639.68,-99.47 653,-78 664.08,-60.14 682.74,-47.8 701.74,-39.35"/>
<polygon fill="midnightblue" stroke="midnightblue" points="659.64,-149.77 667.94,-156.35 665.56,-146.03 659.64,-149.77"/>
</g>
<!-- Node8 -->
<g id="node8" class="node">
<title>Node8</title>
<g id="a_node8"><a xlink:href="../../d8/d69/omnibox__popup__contents__view_8cc.html" target="_top" xlink:title=" ">
<polygon fill="white" stroke="black" points="839,-78.5 839,-119.5 967,-119.5 967,-78.5 839,-78.5"/>
<text text-anchor="start" x="847" y="-107.5" font-family="Helvetica,sans-Serif" font-size="10.00">chrome/browser/ui/views</text>
<text text-anchor="start" x="847" y="-96.5" font-family="Helvetica,sans-Serif" font-size="10.00">/omnibox/omnibox_popup</text>
<text text-anchor="middle" x="903" y="-85.5" font-family="Helvetica,sans-Serif" font-size="10.00">_contents_view.cc</text>
</a>
</g>
</g>
<!-- Node6&#45;&gt;Node8 -->
<g id="edge7" class="edge">
<title>Node6&#45;&gt;Node8</title>
<path fill="none" stroke="midnightblue" d="M749.5,-153.03C780.47,-142.33 816.93,-129.73 846.54,-119.51"/>
<polygon fill="midnightblue" stroke="midnightblue" points="747.96,-149.85 739.66,-156.43 750.25,-156.47 747.96,-149.85"/>
</g>
<!-- Node6&#45;&gt;Node9 -->
<g id="edge8" class="edge">
<title>Node6&#45;&gt;Node9</title>
<path fill="none" stroke="midnightblue" d="M674.57,-146.21C670.41,-124.49 669.33,-95.86 686,-78 741.01,-19.07 967.76,-56.84 1047,-42 1050.06,-41.43 1053.18,-40.79 1056.32,-40.09"/>
<polygon fill="midnightblue" stroke="midnightblue" points="671.22,-147.23 676.8,-156.24 678.05,-145.72 671.22,-147.23"/>
</g>
<!-- Node10 -->
<g id="node10" class="node">
<title>Node10</title>
<g id="a_node10"><a xlink:href="../../de/d2f/omnibox__suggestion__button__row__view_8cc.html" target="_top" xlink:title=" ">
<polygon fill="white" stroke="black" points="1128.5,-78.5 1128.5,-119.5 1277.5,-119.5 1277.5,-78.5 1128.5,-78.5"/>
<text text-anchor="start" x="1136.5" y="-107.5" font-family="Helvetica,sans-Serif" font-size="10.00">chrome/browser/ui/views</text>
<text text-anchor="start" x="1136.5" y="-96.5" font-family="Helvetica,sans-Serif" font-size="10.00">/omnibox/omnibox_suggestion</text>
<text text-anchor="middle" x="1203" y="-85.5" font-family="Helvetica,sans-Serif" font-size="10.00">_button_row_view.cc</text>
</a>
</g>
</g>
<!-- Node6&#45;&gt;Node10 -->
<g id="edge9" class="edge">
<title>Node6&#45;&gt;Node10</title>
<path fill="none" stroke="midnightblue" d="M757.27,-167.43C862.94,-155.06 1051.36,-132.36 1119,-120 1122.1,-119.43 1125.25,-118.83 1128.43,-118.19"/>
<polygon fill="midnightblue" stroke="midnightblue" points="756.84,-163.95 747.31,-168.59 757.65,-170.91 756.84,-163.95"/>
</g>
<!-- Node6&#45;&gt;Node11 -->
<g id="edge10" class="edge">
<title>Node6&#45;&gt;Node11</title>
<path fill="none" stroke="midnightblue" d="M709.44,-149.2C719.1,-139.42 729.84,-128.54 738.75,-119.51"/>
<polygon fill="midnightblue" stroke="midnightblue" points="706.85,-146.85 702.31,-156.43 711.83,-151.77 706.85,-146.85"/>
</g>
<!-- Node12&#45;&gt;Node8 -->
<g id="edge13" class="edge">
<title>Node12&#45;&gt;Node8</title>
<path fill="none" stroke="midnightblue" d="M919.66,-146.88C916.4,-137.72 912.89,-127.83 909.93,-119.51"/>
<polygon fill="midnightblue" stroke="midnightblue" points="916.4,-148.18 923.05,-156.43 923,-145.83 916.4,-148.18"/>
</g>
<!-- Node12&#45;&gt;Node9 -->
<g id="edge14" class="edge">
<title>Node12&#45;&gt;Node9</title>
<path fill="none" stroke="midnightblue" d="M1002.83,-164.69C1106.8,-148.53 1285.42,-120.67 1286,-120 1298.13,-105.81 1296.9,-93.15 1286,-78 1262.34,-45.11 1218.43,-31.26 1181.58,-25.56"/>
<polygon fill="midnightblue" stroke="midnightblue" points="1002.04,-161.27 992.7,-166.27 1003.12,-168.19 1002.04,-161.27"/>
</g>
<!-- Node12&#45;&gt;Node11 -->
<g id="edge20" class="edge">
<title>Node12&#45;&gt;Node11</title>
<path fill="none" stroke="midnightblue" d="M876.43,-152.33C852.56,-141.78 824.79,-129.51 802.14,-119.51"/>
<polygon fill="midnightblue" stroke="midnightblue" points="875.14,-155.59 885.71,-156.43 877.97,-149.19 875.14,-155.59"/>
</g>
<!-- Node12&#45;&gt;Node13 -->
<g id="edge15" class="edge">
<title>Node12&#45;&gt;Node13</title>
<path fill="none" stroke="midnightblue" d="M1002.7,-164.62C1021.37,-161.76 1041.42,-158.72 1060,-156 1174.99,-139.16 1204.58,-140.36 1319,-120 1328.82,-118.25 1339.18,-116.2 1349.27,-114.09"/>
<polygon fill="midnightblue" stroke="midnightblue" points="1002.14,-161.17 992.79,-166.15 1003.2,-168.09 1002.14,-161.17"/>
</g>
<!-- Node14 -->
<g id="node14" class="node">
<title>Node14</title>
<g id="a_node14"><a xlink:href="../../db/d83/omnibox__text__view_8h.html" target="_top" xlink:title=" ">
<polygon fill="white" stroke="black" points="985.5,-78.5 985.5,-119.5 1110.5,-119.5 1110.5,-78.5 985.5,-78.5"/>
<text text-anchor="start" x="993.5" y="-107.5" font-family="Helvetica,sans-Serif" font-size="10.00">chrome/browser/ui/views</text>
<text text-anchor="start" x="993.5" y="-96.5" font-family="Helvetica,sans-Serif" font-size="10.00">/omnibox/omnibox_text</text>
<text text-anchor="middle" x="1048" y="-85.5" font-family="Helvetica,sans-Serif" font-size="10.00">_view.h</text>
</a>
</g>
</g>
<!-- Node12&#45;&gt;Node14 -->
<g id="edge16" class="edge">
<title>Node12&#45;&gt;Node14</title>
<path fill="none" stroke="midnightblue" d="M968.94,-150.92C984.8,-140.7 1002.86,-129.07 1017.72,-119.51"/>
<polygon fill="midnightblue" stroke="midnightblue" points="966.9,-148.07 960.39,-156.43 970.69,-153.96 966.9,-148.07"/>
</g>
<!-- Node14&#45;&gt;Node7 -->
<g id="edge17" class="edge">
<title>Node14&#45;&gt;Node7</title>
<path fill="none" stroke="midnightblue" d="M975.36,-77.84C921,-63.06 869.61,-49.38 830.38,-38.98"/>
<polygon fill="midnightblue" stroke="midnightblue" points="974.61,-81.26 985.18,-80.51 976.45,-74.51 974.61,-81.26"/>
</g>
<!-- Node14&#45;&gt;Node9 -->
<g id="edge18" class="edge">
<title>Node14&#45;&gt;Node9</title>
<path fill="none" stroke="midnightblue" d="M1073.3,-70.92C1082.38,-61.2 1092.42,-50.45 1100.78,-41.51"/>
<polygon fill="midnightblue" stroke="midnightblue" points="1070.55,-68.73 1066.28,-78.43 1075.67,-73.51 1070.55,-68.73"/>
</g>
<!-- Node15 -->
<g id="node15" class="node">
<title>Node15</title>
<g id="a_node15"><a xlink:href="../../d7/d7d/omnibox__text__view_8cc.html" target="_top" xlink:title=" ">
<polygon fill="white" stroke="black" points="913.5,-0.5 913.5,-41.5 1038.5,-41.5 1038.5,-0.5 913.5,-0.5"/>
<text text-anchor="start" x="921.5" y="-29.5" font-family="Helvetica,sans-Serif" font-size="10.00">chrome/browser/ui/views</text>
<text text-anchor="start" x="921.5" y="-18.5" font-family="Helvetica,sans-Serif" font-size="10.00">/omnibox/omnibox_text</text>
<text text-anchor="middle" x="976" y="-7.5" font-family="Helvetica,sans-Serif" font-size="10.00">_view.cc</text>
</a>
</g>
</g>
<!-- Node14&#45;&gt;Node15 -->
<g id="edge19" class="edge">
<title>Node14&#45;&gt;Node15</title>
<path fill="none" stroke="midnightblue" d="M1022.34,-70.92C1013.14,-61.2 1002.95,-50.45 994.48,-41.51"/>
<polygon fill="midnightblue" stroke="midnightblue" points="1020.04,-73.58 1029.46,-78.43 1025.12,-68.76 1020.04,-73.58"/>
</g>
<!-- Node16&#45;&gt;Node9 -->
<g id="edge23" class="edge">
<title>Node16&#45;&gt;Node9</title>
<path fill="none" stroke="midnightblue" d="M1288.14,-174.4C1395.88,-169.43 1560.34,-150.23 1498,-78 1457.91,-31.55 1278.75,-22.97 1181.8,-21.79"/>
<polygon fill="midnightblue" stroke="midnightblue" points="1287.74,-170.92 1277.9,-174.84 1288.04,-177.91 1287.74,-170.92"/>
</g>
<!-- Node16&#45;&gt;Node10 -->
<g id="edge24" class="edge">
<title>Node16&#45;&gt;Node10</title>
<path fill="none" stroke="midnightblue" d="M1203,-146.3C1203,-137.3 1203,-127.65 1203,-119.51"/>
<polygon fill="midnightblue" stroke="midnightblue" points="1199.5,-146.43 1203,-156.43 1206.5,-146.43 1199.5,-146.43"/>
</g>
</g>
</svg>
