<?xml version="1.0" encoding="UTF-8" standalone="no"?>
<!DOCTYPE svg PUBLIC "-//W3C//DTD SVG 1.1//EN"
 "http://www.w3.org/Graphics/SVG/1.1/DTD/svg11.dtd">
<!-- Generated by graphviz version 2.43.0 (0)
 -->
<!-- Title: components/omnibox/browser/search_provider.h Pages: 1 -->
<svg width="1057pt" height="195pt"
 viewBox="0.00 0.00 1057.00 195.00" xmlns="http://www.w3.org/2000/svg" xmlns:xlink="http://www.w3.org/1999/xlink">
<g id="graph0" class="graph" transform="scale(1 1) rotate(0) translate(4 191)">
<title>components/omnibox/browser/search_provider.h</title>
<polygon fill="white" stroke="transparent" points="-4,4 -4,-191 1053,-191 1053,4 -4,4"/>
<!-- Node1 -->
<g id="node1" class="node">
<title>Node1</title>
<g id="a_node1"><a xlink:title=" ">
<polygon fill="#bfbfbf" stroke="black" points="441,-156.5 441,-186.5 575,-186.5 575,-156.5 441,-156.5"/>
<text text-anchor="start" x="449" y="-174.5" font-family="Helvetica,sans-Serif" font-size="10.00">components/omnibox</text>
<text text-anchor="middle" x="508" y="-163.5" font-family="Helvetica,sans-Serif" font-size="10.00">/browser/search_provider.h</text>
</a>
</g>
</g>
<!-- Node2 -->
<g id="node2" class="node">
<title>Node2</title>
<g id="a_node2"><a xlink:href="../../d0/d58/chrome__omnibox__client_8cc.html" target="_top" xlink:title=" ">
<polygon fill="white" stroke="black" points="37.5,-84 37.5,-114 174.5,-114 174.5,-84 37.5,-84"/>
<text text-anchor="start" x="45.5" y="-102" font-family="Helvetica,sans-Serif" font-size="10.00">chrome/browser/ui/omnibox</text>
<text text-anchor="middle" x="106" y="-91" font-family="Helvetica,sans-Serif" font-size="10.00">/chrome_omnibox_client.cc</text>
</a>
</g>
</g>
<!-- Node1&#45;&gt;Node2 -->
<g id="edge1" class="edge">
<title>Node1&#45;&gt;Node2</title>
<path fill="none" stroke="midnightblue" d="M430.69,-160.02C365.89,-150.81 271.08,-136.36 189,-120 180.13,-118.23 170.78,-116.17 161.67,-114.06"/>
<polygon fill="midnightblue" stroke="midnightblue" points="430.43,-163.51 440.82,-161.45 431.41,-156.58 430.43,-163.51"/>
</g>
<!-- Node3 -->
<g id="node3" class="node">
<title>Node3</title>
<g id="a_node3"><a xlink:href="../../d8/d40/autocomplete__controller_8cc.html" target="_top" xlink:title=" ">
<polygon fill="white" stroke="black" points="614,-0.5 614,-41.5 730,-41.5 730,-0.5 614,-0.5"/>
<text text-anchor="start" x="622" y="-29.5" font-family="Helvetica,sans-Serif" font-size="10.00">components/omnibox</text>
<text text-anchor="start" x="622" y="-18.5" font-family="Helvetica,sans-Serif" font-size="10.00">/browser/autocomplete</text>
<text text-anchor="middle" x="672" y="-7.5" font-family="Helvetica,sans-Serif" font-size="10.00">_controller.cc</text>
</a>
</g>
</g>
<!-- Node1&#45;&gt;Node3 -->
<g id="edge2" class="edge">
<title>Node1&#45;&gt;Node3</title>
<path fill="none" stroke="midnightblue" d="M460.05,-151.79C446.62,-144.07 433.62,-133.65 426,-120 416.9,-103.7 414.17,-92.44 426,-78 477.41,-15.22 526.26,-61.63 605,-42 607.94,-41.27 610.95,-40.48 613.98,-39.67"/>
<polygon fill="midnightblue" stroke="midnightblue" points="458.41,-154.88 468.88,-156.48 461.69,-148.7 458.41,-154.88"/>
</g>
<!-- Node4 -->
<g id="node4" class="node">
<title>Node4</title>
<g id="a_node4"><a xlink:href="../../d8/dd1/document__provider_8cc.html" target="_top" xlink:title=" ">
<polygon fill="white" stroke="black" points="0,-6 0,-36 152,-36 152,-6 0,-6"/>
<text text-anchor="start" x="8" y="-24" font-family="Helvetica,sans-Serif" font-size="10.00">components/omnibox</text>
<text text-anchor="middle" x="76" y="-13" font-family="Helvetica,sans-Serif" font-size="10.00">/browser/document_provider.cc</text>
</a>
</g>
</g>
<!-- Node1&#45;&gt;Node4 -->
<g id="edge3" class="edge">
<title>Node1&#45;&gt;Node4</title>
<path fill="none" stroke="midnightblue" d="M430.55,-170.03C370.37,-166.65 286.57,-155.16 222,-120 199.63,-107.82 203.24,-93.46 183,-78 160.51,-60.82 131.98,-46.19 110.04,-36.19"/>
<polygon fill="midnightblue" stroke="midnightblue" points="430.58,-173.53 440.74,-170.53 430.93,-166.54 430.58,-173.53"/>
</g>
<!-- Node5 -->
<g id="node5" class="node">
<title>Node5</title>
<g id="a_node5"><a xlink:href="../../de/d67/document__provider_8h.html" target="_top" xlink:title=" ">
<polygon fill="white" stroke="black" points="231.5,-84 231.5,-114 378.5,-114 378.5,-84 231.5,-84"/>
<text text-anchor="start" x="239.5" y="-102" font-family="Helvetica,sans-Serif" font-size="10.00">components/omnibox</text>
<text text-anchor="middle" x="305" y="-91" font-family="Helvetica,sans-Serif" font-size="10.00">/browser/document_provider.h</text>
</a>
</g>
</g>
<!-- Node1&#45;&gt;Node5 -->
<g id="edge4" class="edge">
<title>Node1&#45;&gt;Node5</title>
<path fill="none" stroke="midnightblue" d="M457.95,-153.12C423.34,-141.1 377.87,-125.31 345.52,-114.07"/>
<polygon fill="midnightblue" stroke="midnightblue" points="456.81,-156.43 467.41,-156.4 459.11,-149.82 456.81,-156.43"/>
</g>
<!-- Node9 -->
<g id="node9" class="node">
<title>Node9</title>
<g id="a_node9"><a xlink:href="../../d6/dbb/keyword__provider_8cc.html" target="_top" xlink:title=" ">
<polygon fill="white" stroke="black" points="435,-84 435,-114 581,-114 581,-84 435,-84"/>
<text text-anchor="start" x="443" y="-102" font-family="Helvetica,sans-Serif" font-size="10.00">components/omnibox</text>
<text text-anchor="middle" x="508" y="-91" font-family="Helvetica,sans-Serif" font-size="10.00">/browser/keyword_provider.cc</text>
</a>
</g>
</g>
<!-- Node1&#45;&gt;Node9 -->
<g id="edge10" class="edge">
<title>Node1&#45;&gt;Node9</title>
<path fill="none" stroke="midnightblue" d="M508,-146.23C508,-135.57 508,-123.41 508,-114.25"/>
<polygon fill="midnightblue" stroke="midnightblue" points="504.5,-146.23 508,-156.23 511.5,-146.23 504.5,-146.23"/>
</g>
<!-- Node10 -->
<g id="node10" class="node">
<title>Node10</title>
<g id="a_node10"><a xlink:href="../../d7/df6/omnibox__edit__model_8cc.html" target="_top" xlink:title=" ">
<polygon fill="white" stroke="black" points="599.5,-78.5 599.5,-119.5 714.5,-119.5 714.5,-78.5 599.5,-78.5"/>
<text text-anchor="start" x="607.5" y="-107.5" font-family="Helvetica,sans-Serif" font-size="10.00">components/omnibox</text>
<text text-anchor="start" x="607.5" y="-96.5" font-family="Helvetica,sans-Serif" font-size="10.00">/browser/omnibox_edit</text>
<text text-anchor="middle" x="657" y="-85.5" font-family="Helvetica,sans-Serif" font-size="10.00">_model.cc</text>
</a>
</g>
</g>
<!-- Node1&#45;&gt;Node10 -->
<g id="edge11" class="edge">
<title>Node1&#45;&gt;Node10</title>
<path fill="none" stroke="midnightblue" d="M547.11,-152C568.21,-142.01 594.26,-129.69 615.69,-119.55"/>
<polygon fill="midnightblue" stroke="midnightblue" points="545.34,-148.96 537.79,-156.4 548.33,-155.29 545.34,-148.96"/>
</g>
<!-- Node11 -->
<g id="node11" class="node">
<title>Node11</title>
<g id="a_node11"><a xlink:href="../../da/d9f/search__provider_8cc.html" target="_top" xlink:title=" ">
<polygon fill="white" stroke="black" points="732.5,-84 732.5,-114 871.5,-114 871.5,-84 732.5,-84"/>
<text text-anchor="start" x="740.5" y="-102" font-family="Helvetica,sans-Serif" font-size="10.00">components/omnibox</text>
<text text-anchor="middle" x="802" y="-91" font-family="Helvetica,sans-Serif" font-size="10.00">/browser/search_provider.cc</text>
</a>
</g>
</g>
<!-- Node1&#45;&gt;Node11 -->
<g id="edge12" class="edge">
<title>Node1&#45;&gt;Node11</title>
<path fill="none" stroke="midnightblue" d="M579.07,-154.13C621,-144.39 675.07,-131.7 723,-120 730.83,-118.09 739.1,-116.04 747.21,-114"/>
<polygon fill="midnightblue" stroke="midnightblue" points="578.18,-150.74 569.23,-156.41 579.76,-157.56 578.18,-150.74"/>
</g>
<!-- Node12 -->
<g id="node12" class="node">
<title>Node12</title>
<g id="a_node12"><a xlink:href="../../dd/dfb/zero__suggest__provider_8cc.html" target="_top" xlink:title=" ">
<polygon fill="white" stroke="black" points="933,-0.5 933,-41.5 1049,-41.5 1049,-0.5 933,-0.5"/>
<text text-anchor="start" x="941" y="-29.5" font-family="Helvetica,sans-Serif" font-size="10.00">components/omnibox</text>
<text text-anchor="start" x="941" y="-18.5" font-family="Helvetica,sans-Serif" font-size="10.00">/browser/zero_suggest</text>
<text text-anchor="middle" x="991" y="-7.5" font-family="Helvetica,sans-Serif" font-size="10.00">_provider.cc</text>
</a>
</g>
</g>
<!-- Node1&#45;&gt;Node12 -->
<g id="edge13" class="edge">
<title>Node1&#45;&gt;Node12</title>
<path fill="none" stroke="midnightblue" d="M585.47,-168.39C720.36,-163.92 986.76,-151.2 1015,-120 1034.52,-98.44 1018.63,-63.64 1005.05,-41.83"/>
<polygon fill="midnightblue" stroke="midnightblue" points="585.09,-164.9 575.21,-168.73 585.31,-171.9 585.09,-164.9"/>
</g>
<!-- Node13 -->
<g id="node13" class="node">
<title>Node13</title>
<g id="a_node13"><a xlink:href="../../d8/d8d/zero__suggest__provider_8h.html" target="_top" xlink:title=" ">
<polygon fill="white" stroke="black" points="890,-78.5 890,-119.5 1006,-119.5 1006,-78.5 890,-78.5"/>
<text text-anchor="start" x="898" y="-107.5" font-family="Helvetica,sans-Serif" font-size="10.00">components/omnibox</text>
<text text-anchor="start" x="898" y="-96.5" font-family="Helvetica,sans-Serif" font-size="10.00">/browser/zero_suggest</text>
<text text-anchor="middle" x="948" y="-85.5" font-family="Helvetica,sans-Serif" font-size="10.00">_provider.h</text>
</a>
</g>
</g>
<!-- Node1&#45;&gt;Node13 -->
<g id="edge14" class="edge">
<title>Node1&#45;&gt;Node13</title>
<path fill="none" stroke="midnightblue" d="M585.44,-163.43C661.1,-155.72 779.25,-141.52 880,-120 883.25,-119.31 886.57,-118.54 889.91,-117.71"/>
<polygon fill="midnightblue" stroke="midnightblue" points="584.65,-159.99 575.05,-164.48 585.35,-166.96 584.65,-159.99"/>
</g>
<!-- Node5&#45;&gt;Node3 -->
<g id="edge6" class="edge">
<title>Node5&#45;&gt;Node3</title>
<path fill="none" stroke="midnightblue" d="M374.4,-81.85C380.68,-80.5 386.95,-79.2 393,-78 486.74,-59.4 511.93,-63.71 605,-42 607.84,-41.34 610.73,-40.62 613.65,-39.88"/>
<polygon fill="midnightblue" stroke="midnightblue" points="373.57,-78.45 364.55,-84 375.06,-85.29 373.57,-78.45"/>
</g>
<!-- Node5&#45;&gt;Node4 -->
<g id="edge8" class="edge">
<title>Node5&#45;&gt;Node4</title>
<path fill="none" stroke="midnightblue" d="M252.99,-80.74C212.3,-67.23 156.42,-48.69 118.41,-36.07"/>
<polygon fill="midnightblue" stroke="midnightblue" points="252.14,-84.14 262.73,-83.97 254.34,-77.5 252.14,-84.14"/>
</g>
<!-- Node6 -->
<g id="node6" class="node">
<title>Node6</title>
<g id="a_node6"><a xlink:href="../../d6/de8/autocomplete__classifier_8cc.html" target="_top" xlink:title=" ">
<polygon fill="white" stroke="black" points="480,-0.5 480,-41.5 596,-41.5 596,-0.5 480,-0.5"/>
<text text-anchor="start" x="488" y="-29.5" font-family="Helvetica,sans-Serif" font-size="10.00">components/omnibox</text>
<text text-anchor="start" x="488" y="-18.5" font-family="Helvetica,sans-Serif" font-size="10.00">/browser/autocomplete</text>
<text text-anchor="middle" x="538" y="-7.5" font-family="Helvetica,sans-Serif" font-size="10.00">_classifier.cc</text>
</a>
</g>
</g>
<!-- Node5&#45;&gt;Node6 -->
<g id="edge5" class="edge">
<title>Node5&#45;&gt;Node6</title>
<path fill="none" stroke="midnightblue" d="M357.92,-80.74C394.25,-68.89 442.47,-53.16 479.87,-40.96"/>
<polygon fill="midnightblue" stroke="midnightblue" points="356.43,-77.54 348.01,-83.97 358.6,-84.2 356.43,-77.54"/>
</g>
<!-- Node7 -->
<g id="node7" class="node">
<title>Node7</title>
<g id="a_node7"><a xlink:href="../../d7/d2f/autocomplete__match_8cc.html" target="_top" xlink:title=" ">
<polygon fill="white" stroke="black" points="170,-0.5 170,-41.5 286,-41.5 286,-0.5 170,-0.5"/>
<text text-anchor="start" x="178" y="-29.5" font-family="Helvetica,sans-Serif" font-size="10.00">components/omnibox</text>
<text text-anchor="start" x="178" y="-18.5" font-family="Helvetica,sans-Serif" font-size="10.00">/browser/autocomplete</text>
<text text-anchor="middle" x="228" y="-7.5" font-family="Helvetica,sans-Serif" font-size="10.00">_match.cc</text>
</a>
</g>
</g>
<!-- Node5&#45;&gt;Node7 -->
<g id="edge7" class="edge">
<title>Node5&#45;&gt;Node7</title>
<path fill="none" stroke="midnightblue" d="M283.26,-76.55C272.17,-65.6 258.77,-52.37 247.94,-41.68"/>
<polygon fill="midnightblue" stroke="midnightblue" points="280.94,-79.17 290.52,-83.7 285.86,-74.19 280.94,-79.17"/>
</g>
<!-- Node8 -->
<g id="node8" class="node">
<title>Node8</title>
<g id="a_node8"><a xlink:href="../../df/d23/document__suggestions__service_8cc.html" target="_top" xlink:title=" ">
<polygon fill="white" stroke="black" points="304,-0.5 304,-41.5 462,-41.5 462,-0.5 304,-0.5"/>
<text text-anchor="start" x="312" y="-29.5" font-family="Helvetica,sans-Serif" font-size="10.00">components/omnibox</text>
<text text-anchor="start" x="312" y="-18.5" font-family="Helvetica,sans-Serif" font-size="10.00">/browser/document_suggestions</text>
<text text-anchor="middle" x="383" y="-7.5" font-family="Helvetica,sans-Serif" font-size="10.00">_service.cc</text>
</a>
</g>
</g>
<!-- Node5&#45;&gt;Node8 -->
<g id="edge9" class="edge">
<title>Node5&#45;&gt;Node8</title>
<path fill="none" stroke="midnightblue" d="M327.02,-76.55C338.26,-65.6 351.83,-52.37 362.8,-41.68"/>
<polygon fill="midnightblue" stroke="midnightblue" points="324.39,-74.22 319.67,-83.7 329.28,-79.23 324.39,-74.22"/>
</g>
<!-- Node13&#45;&gt;Node3 -->
<g id="edge15" class="edge">
<title>Node13&#45;&gt;Node3</title>
<path fill="none" stroke="midnightblue" d="M880.3,-78.08C880.2,-78.06 880.1,-78.03 880,-78 829.6,-63.81 772.12,-48.39 730.38,-37.33"/>
<polygon fill="midnightblue" stroke="midnightblue" points="879.21,-81.41 889.79,-80.78 881.13,-74.68 879.21,-81.41"/>
</g>
<!-- Node13&#45;&gt;Node12 -->
<g id="edge16" class="edge">
<title>Node13&#45;&gt;Node12</title>
<path fill="none" stroke="midnightblue" d="M964.14,-69.47C969.42,-60.14 975.15,-50.01 979.96,-41.51"/>
<polygon fill="midnightblue" stroke="midnightblue" points="960.95,-68 959.07,-78.43 967.04,-71.45 960.95,-68"/>
</g>
</g>
</svg>
