<?xml version="1.0" encoding="UTF-8" standalone="no"?>
<!DOCTYPE svg PUBLIC "-//W3C//DTD SVG 1.1//EN"
 "http://www.w3.org/Graphics/SVG/1.1/DTD/svg11.dtd">
<!-- Generated by graphviz version 2.43.0 (0)
 -->
<!-- Title: components/omnibox/browser/actions/omnibox_pedal_concepts.h Pages: 1 -->
<svg width="1069pt" height="518pt"
 viewBox="0.00 0.00 1068.50 518.00" xmlns="http://www.w3.org/2000/svg" xmlns:xlink="http://www.w3.org/1999/xlink">
<g id="graph0" class="graph" transform="scale(1 1) rotate(0) translate(4 514)">
<title>components/omnibox/browser/actions/omnibox_pedal_concepts.h</title>
<polygon fill="white" stroke="transparent" points="-4,4 -4,-514 1064.5,-514 1064.5,4 -4,4"/>
<!-- Node1 -->
<g id="node1" class="node">
<title>Node1</title>
<g id="a_node1"><a xlink:title=" ">
<polygon fill="#bfbfbf" stroke="black" points="329,-468.5 329,-509.5 457,-509.5 457,-468.5 329,-468.5"/>
<text text-anchor="start" x="337" y="-497.5" font-family="Helvetica,sans-Serif" font-size="10.00">components/omnibox</text>
<text text-anchor="start" x="337" y="-486.5" font-family="Helvetica,sans-Serif" font-size="10.00">/browser/actions/omnibox</text>
<text text-anchor="middle" x="393" y="-475.5" font-family="Helvetica,sans-Serif" font-size="10.00">_pedal_concepts.h</text>
</a>
</g>
</g>
<!-- Node2 -->
<g id="node2" class="node">
<title>Node2</title>
<g id="a_node2"><a xlink:href="../../d1/d68/omnibox__pedal_8h.html" target="_top" xlink:title=" ">
<polygon fill="white" stroke="black" points="411,-390.5 411,-431.5 539,-431.5 539,-390.5 411,-390.5"/>
<text text-anchor="start" x="419" y="-419.5" font-family="Helvetica,sans-Serif" font-size="10.00">components/omnibox</text>
<text text-anchor="start" x="419" y="-408.5" font-family="Helvetica,sans-Serif" font-size="10.00">/browser/actions/omnibox</text>
<text text-anchor="middle" x="475" y="-397.5" font-family="Helvetica,sans-Serif" font-size="10.00">_pedal.h</text>
</a>
</g>
</g>
<!-- Node1&#45;&gt;Node2 -->
<g id="edge1" class="edge">
<title>Node1&#45;&gt;Node2</title>
<path fill="none" stroke="midnightblue" d="M421.6,-461.49C432.24,-451.63 444.11,-440.63 453.95,-431.51"/>
<polygon fill="midnightblue" stroke="midnightblue" points="419.07,-459.06 414.12,-468.43 423.83,-464.2 419.07,-459.06"/>
</g>
<!-- Node5 -->
<g id="node5" class="node">
<title>Node5</title>
<g id="a_node5"><a xlink:href="../../d0/d70/omnibox__pedal__implementations_8h.html" target="_top" xlink:title=" ">
<polygon fill="white" stroke="black" points="83,-312.5 83,-353.5 213,-353.5 213,-312.5 83,-312.5"/>
<text text-anchor="start" x="91" y="-341.5" font-family="Helvetica,sans-Serif" font-size="10.00">components/omnibox</text>
<text text-anchor="start" x="91" y="-330.5" font-family="Helvetica,sans-Serif" font-size="10.00">/browser/actions/omnibox</text>
<text text-anchor="middle" x="148" y="-319.5" font-family="Helvetica,sans-Serif" font-size="10.00">_pedal_implementations.h</text>
</a>
</g>
</g>
<!-- Node1&#45;&gt;Node5 -->
<g id="edge22" class="edge">
<title>Node1&#45;&gt;Node5</title>
<path fill="none" stroke="midnightblue" d="M353.3,-463.04C304.72,-432.51 223.48,-381.45 179.16,-353.59"/>
<polygon fill="midnightblue" stroke="midnightblue" points="351.64,-466.14 361.97,-468.5 355.37,-460.21 351.64,-466.14"/>
</g>
<!-- Node6 -->
<g id="node6" class="node">
<title>Node6</title>
<g id="a_node6"><a xlink:href="../../d5/d8d/omnibox__pedal__provider_8cc.html" target="_top" xlink:title=" ">
<polygon fill="white" stroke="black" points="0,-156.5 0,-197.5 128,-197.5 128,-156.5 0,-156.5"/>
<text text-anchor="start" x="8" y="-185.5" font-family="Helvetica,sans-Serif" font-size="10.00">components/omnibox</text>
<text text-anchor="start" x="8" y="-174.5" font-family="Helvetica,sans-Serif" font-size="10.00">/browser/actions/omnibox</text>
<text text-anchor="middle" x="64" y="-163.5" font-family="Helvetica,sans-Serif" font-size="10.00">_pedal_provider.cc</text>
</a>
</g>
</g>
<!-- Node1&#45;&gt;Node6 -->
<g id="edge23" class="edge">
<title>Node1&#45;&gt;Node6</title>
<path fill="none" stroke="midnightblue" d="M318.53,-482.06C237.43,-471.21 111.02,-440.56 49,-354 15.06,-306.64 39.76,-232.63 54.76,-197.62"/>
<polygon fill="midnightblue" stroke="midnightblue" points="318.32,-485.56 328.68,-483.34 319.2,-478.61 318.32,-485.56"/>
</g>
<!-- Node14 -->
<g id="node14" class="node">
<title>Node14</title>
<g id="a_node14"><a xlink:href="../../d7/df6/omnibox__edit__model_8cc.html" target="_top" xlink:title=" ">
<polygon fill="white" stroke="black" points="945.5,-312.5 945.5,-353.5 1060.5,-353.5 1060.5,-312.5 945.5,-312.5"/>
<text text-anchor="start" x="953.5" y="-341.5" font-family="Helvetica,sans-Serif" font-size="10.00">components/omnibox</text>
<text text-anchor="start" x="953.5" y="-330.5" font-family="Helvetica,sans-Serif" font-size="10.00">/browser/omnibox_edit</text>
<text text-anchor="middle" x="1003" y="-319.5" font-family="Helvetica,sans-Serif" font-size="10.00">_model.cc</text>
</a>
</g>
</g>
<!-- Node1&#45;&gt;Node14 -->
<g id="edge24" class="edge">
<title>Node1&#45;&gt;Node14</title>
<path fill="none" stroke="midnightblue" d="M467.09,-470.21C570.98,-445.12 765.76,-397.52 931,-354 935.64,-352.78 940.45,-351.49 945.27,-350.18"/>
<polygon fill="midnightblue" stroke="midnightblue" points="466.22,-466.82 457.32,-472.57 467.87,-473.63 466.22,-466.82"/>
</g>
<!-- Node3 -->
<g id="node3" class="node">
<title>Node3</title>
<g id="a_node3"><a xlink:href="../../d9/d99/omnibox__pedal_8cc.html" target="_top" xlink:title=" ">
<polygon fill="white" stroke="black" points="723,-312.5 723,-353.5 851,-353.5 851,-312.5 723,-312.5"/>
<text text-anchor="start" x="731" y="-341.5" font-family="Helvetica,sans-Serif" font-size="10.00">components/omnibox</text>
<text text-anchor="start" x="731" y="-330.5" font-family="Helvetica,sans-Serif" font-size="10.00">/browser/actions/omnibox</text>
<text text-anchor="middle" x="787" y="-319.5" font-family="Helvetica,sans-Serif" font-size="10.00">_pedal.cc</text>
</a>
</g>
</g>
<!-- Node2&#45;&gt;Node3 -->
<g id="edge2" class="edge">
<title>Node2&#45;&gt;Node3</title>
<path fill="none" stroke="midnightblue" d="M548.84,-393.29C595.91,-382.47 658.15,-367.86 713,-354 716.23,-353.18 719.53,-352.34 722.86,-351.47"/>
<polygon fill="midnightblue" stroke="midnightblue" points="547.99,-389.89 539.03,-395.53 549.56,-396.71 547.99,-389.89"/>
</g>
<!-- Node4 -->
<g id="node4" class="node">
<title>Node4</title>
<g id="a_node4"><a xlink:href="../../d9/d94/omnibox__pedal__implementations_8cc.html" target="_top" xlink:title=" ">
<polygon fill="white" stroke="black" points="532.5,-234.5 532.5,-275.5 667.5,-275.5 667.5,-234.5 532.5,-234.5"/>
<text text-anchor="start" x="540.5" y="-263.5" font-family="Helvetica,sans-Serif" font-size="10.00">components/omnibox</text>
<text text-anchor="start" x="540.5" y="-252.5" font-family="Helvetica,sans-Serif" font-size="10.00">/browser/actions/omnibox</text>
<text text-anchor="middle" x="600" y="-241.5" font-family="Helvetica,sans-Serif" font-size="10.00">_pedal_implementations.cc</text>
</a>
</g>
</g>
<!-- Node2&#45;&gt;Node4 -->
<g id="edge3" class="edge">
<title>Node2&#45;&gt;Node4</title>
<path fill="none" stroke="midnightblue" d="M549.35,-404.37C655.51,-395.57 839.99,-377.13 860,-354 917.28,-287.78 762.65,-266.2 667.8,-259.24"/>
<polygon fill="midnightblue" stroke="midnightblue" points="549.01,-400.89 539.33,-405.19 549.58,-407.86 549.01,-400.89"/>
</g>
<!-- Node2&#45;&gt;Node5 -->
<g id="edge4" class="edge">
<title>Node2&#45;&gt;Node5</title>
<path fill="none" stroke="midnightblue" d="M400.97,-393.81C351.61,-382.89 285.33,-367.97 227,-354 222.46,-352.91 217.78,-351.77 213.06,-350.61"/>
<polygon fill="midnightblue" stroke="midnightblue" points="400.4,-397.27 410.92,-396.01 401.91,-390.43 400.4,-397.27"/>
</g>
<!-- Node2&#45;&gt;Node6 -->
<g id="edge15" class="edge">
<title>Node2&#45;&gt;Node6</title>
<path fill="none" stroke="midnightblue" d="M400.88,-410.42C297.22,-409.29 116.81,-400.47 74,-354 34.29,-310.89 48.39,-233.79 58.02,-197.68"/>
<polygon fill="midnightblue" stroke="midnightblue" points="400.95,-413.92 410.98,-410.51 401.01,-406.92 400.95,-413.92"/>
</g>
<!-- Node7 -->
<g id="node7" class="node">
<title>Node7</title>
<g id="a_node7"><a xlink:href="../../df/da9/omnibox__pedal__provider_8h.html" target="_top" xlink:title=" ">
<polygon fill="white" stroke="black" points="165,-234.5 165,-275.5 293,-275.5 293,-234.5 165,-234.5"/>
<text text-anchor="start" x="173" y="-263.5" font-family="Helvetica,sans-Serif" font-size="10.00">components/omnibox</text>
<text text-anchor="start" x="173" y="-252.5" font-family="Helvetica,sans-Serif" font-size="10.00">/browser/actions/omnibox</text>
<text text-anchor="middle" x="229" y="-241.5" font-family="Helvetica,sans-Serif" font-size="10.00">_pedal_provider.h</text>
</a>
</g>
</g>
<!-- Node2&#45;&gt;Node7 -->
<g id="edge16" class="edge">
<title>Node2&#45;&gt;Node7</title>
<path fill="none" stroke="midnightblue" d="M400.46,-408.2C354.52,-403.24 297.44,-389.56 260,-354 238.39,-333.48 231.78,-298.03 229.8,-275.86"/>
<polygon fill="midnightblue" stroke="midnightblue" points="400.39,-411.71 410.68,-409.19 401.06,-404.75 400.39,-411.71"/>
</g>
<!-- Node9 -->
<g id="node9" class="node">
<title>Node9</title>
<g id="a_node9"><a xlink:href="../../d6/d09/autocomplete__result_8cc.html" target="_top" xlink:title=" ">
<polygon fill="white" stroke="black" points="656,-156.5 656,-197.5 772,-197.5 772,-156.5 656,-156.5"/>
<text text-anchor="start" x="664" y="-185.5" font-family="Helvetica,sans-Serif" font-size="10.00">components/omnibox</text>
<text text-anchor="start" x="664" y="-174.5" font-family="Helvetica,sans-Serif" font-size="10.00">/browser/autocomplete</text>
<text text-anchor="middle" x="714" y="-163.5" font-family="Helvetica,sans-Serif" font-size="10.00">_result.cc</text>
</a>
</g>
</g>
<!-- Node2&#45;&gt;Node9 -->
<g id="edge17" class="edge">
<title>Node2&#45;&gt;Node9</title>
<path fill="none" stroke="midnightblue" d="M548.99,-399.92C665.66,-384.01 879.32,-354.78 880,-354 931.04,-295.41 821.62,-229.59 757,-197.58"/>
<polygon fill="midnightblue" stroke="midnightblue" points="548.48,-396.46 539.04,-401.28 549.42,-403.4 548.48,-396.46"/>
</g>
<!-- Node2&#45;&gt;Node14 -->
<g id="edge18" class="edge">
<title>Node2&#45;&gt;Node14</title>
<path fill="none" stroke="midnightblue" d="M549.48,-404.28C640.21,-396.52 797.87,-380.51 931,-354 935.71,-353.06 940.56,-351.98 945.41,-350.81"/>
<polygon fill="midnightblue" stroke="midnightblue" points="548.96,-400.81 539.29,-405.14 549.55,-407.79 548.96,-400.81"/>
</g>
<!-- Node15 -->
<g id="node15" class="node">
<title>Node15</title>
<g id="a_node15"><a xlink:href="../../d3/de0/omnibox__popup__model_8cc.html" target="_top" xlink:title=" ">
<polygon fill="white" stroke="black" points="269.5,-312.5 269.5,-353.5 394.5,-353.5 394.5,-312.5 269.5,-312.5"/>
<text text-anchor="start" x="277.5" y="-341.5" font-family="Helvetica,sans-Serif" font-size="10.00">components/omnibox</text>
<text text-anchor="start" x="277.5" y="-330.5" font-family="Helvetica,sans-Serif" font-size="10.00">/browser/omnibox_popup</text>
<text text-anchor="middle" x="332" y="-319.5" font-family="Helvetica,sans-Serif" font-size="10.00">_model.cc</text>
</a>
</g>
</g>
<!-- Node2&#45;&gt;Node15 -->
<g id="edge19" class="edge">
<title>Node2&#45;&gt;Node15</title>
<path fill="none" stroke="midnightblue" d="M429.14,-385.63C409.6,-375.24 387.11,-363.29 368.7,-353.51"/>
<polygon fill="midnightblue" stroke="midnightblue" points="427.7,-388.83 438.17,-390.43 430.99,-382.64 427.7,-388.83"/>
</g>
<!-- Node16 -->
<g id="node16" class="node">
<title>Node16</title>
<g id="a_node16"><a xlink:href="../../d3/d3f/omnibox__result__view_8cc.html" target="_top" xlink:title=" ">
<polygon fill="white" stroke="black" points="412.5,-312.5 412.5,-353.5 537.5,-353.5 537.5,-312.5 412.5,-312.5"/>
<text text-anchor="start" x="420.5" y="-341.5" font-family="Helvetica,sans-Serif" font-size="10.00">chrome/browser/ui/views</text>
<text text-anchor="start" x="420.5" y="-330.5" font-family="Helvetica,sans-Serif" font-size="10.00">/omnibox/omnibox_result</text>
<text text-anchor="middle" x="475" y="-319.5" font-family="Helvetica,sans-Serif" font-size="10.00">_view.cc</text>
</a>
</g>
</g>
<!-- Node2&#45;&gt;Node16 -->
<g id="edge20" class="edge">
<title>Node2&#45;&gt;Node16</title>
<path fill="none" stroke="midnightblue" d="M475,-380.3C475,-371.3 475,-361.65 475,-353.51"/>
<polygon fill="midnightblue" stroke="midnightblue" points="471.5,-380.43 475,-390.43 478.5,-380.43 471.5,-380.43"/>
</g>
<!-- Node17 -->
<g id="node17" class="node">
<title>Node17</title>
<g id="a_node17"><a xlink:href="../../de/d2f/omnibox__suggestion__button__row__view_8cc.html" target="_top" xlink:title=" ">
<polygon fill="white" stroke="black" points="555.5,-312.5 555.5,-353.5 704.5,-353.5 704.5,-312.5 555.5,-312.5"/>
<text text-anchor="start" x="563.5" y="-341.5" font-family="Helvetica,sans-Serif" font-size="10.00">chrome/browser/ui/views</text>
<text text-anchor="start" x="563.5" y="-330.5" font-family="Helvetica,sans-Serif" font-size="10.00">/omnibox/omnibox_suggestion</text>
<text text-anchor="middle" x="630" y="-319.5" font-family="Helvetica,sans-Serif" font-size="10.00">_button_row_view.cc</text>
</a>
</g>
</g>
<!-- Node2&#45;&gt;Node17 -->
<g id="edge21" class="edge">
<title>Node2&#45;&gt;Node17</title>
<path fill="none" stroke="midnightblue" d="M524.13,-385.91C545.45,-375.46 570.08,-363.38 590.22,-353.51"/>
<polygon fill="midnightblue" stroke="midnightblue" points="522.35,-382.88 514.92,-390.43 525.44,-389.17 522.35,-382.88"/>
</g>
<!-- Node5&#45;&gt;Node4 -->
<g id="edge5" class="edge">
<title>Node5&#45;&gt;Node4</title>
<path fill="none" stroke="midnightblue" d="M223.32,-318.41C235.58,-316.24 248.14,-314.04 260,-312 354.34,-295.81 463.57,-277.98 532.22,-266.89"/>
<polygon fill="midnightblue" stroke="midnightblue" points="222.35,-315.02 213.12,-320.22 223.58,-321.92 222.35,-315.02"/>
</g>
<!-- Node5&#45;&gt;Node6 -->
<g id="edge6" class="edge">
<title>Node5&#45;&gt;Node6</title>
<path fill="none" stroke="midnightblue" d="M132.49,-303.56C115.73,-272.85 89.48,-224.71 74.82,-197.83"/>
<polygon fill="midnightblue" stroke="midnightblue" points="129.5,-305.39 137.36,-312.5 135.65,-302.04 129.5,-305.39"/>
</g>
<!-- Node5&#45;&gt;Node7 -->
<g id="edge7" class="edge">
<title>Node5&#45;&gt;Node7</title>
<path fill="none" stroke="midnightblue" d="M176.25,-305.49C186.76,-295.63 198.49,-284.63 208.21,-275.51"/>
<polygon fill="midnightblue" stroke="midnightblue" points="173.76,-303.03 168.86,-312.43 178.55,-308.14 173.76,-303.03"/>
</g>
<!-- Node7&#45;&gt;Node6 -->
<g id="edge8" class="edge">
<title>Node7&#45;&gt;Node6</title>
<path fill="none" stroke="midnightblue" d="M177.31,-230.19C154.48,-219.67 127.98,-207.47 106.35,-197.51"/>
<polygon fill="midnightblue" stroke="midnightblue" points="175.96,-233.42 186.51,-234.43 178.89,-227.07 175.96,-233.42"/>
</g>
<!-- Node8 -->
<g id="node8" class="node">
<title>Node8</title>
<g id="a_node8"><a xlink:href="../../d8/d40/autocomplete__controller_8cc.html" target="_top" xlink:title=" ">
<polygon fill="white" stroke="black" points="154,-156.5 154,-197.5 270,-197.5 270,-156.5 154,-156.5"/>
<text text-anchor="start" x="162" y="-185.5" font-family="Helvetica,sans-Serif" font-size="10.00">components/omnibox</text>
<text text-anchor="start" x="162" y="-174.5" font-family="Helvetica,sans-Serif" font-size="10.00">/browser/autocomplete</text>
<text text-anchor="middle" x="212" y="-163.5" font-family="Helvetica,sans-Serif" font-size="10.00">_controller.cc</text>
</a>
</g>
</g>
<!-- Node7&#45;&gt;Node8 -->
<g id="edge9" class="edge">
<title>Node7&#45;&gt;Node8</title>
<path fill="none" stroke="midnightblue" d="M222.42,-224.59C220.39,-215.51 218.21,-205.74 216.36,-197.51"/>
<polygon fill="midnightblue" stroke="midnightblue" points="219.02,-225.43 224.62,-234.43 225.85,-223.91 219.02,-225.43"/>
</g>
<!-- Node7&#45;&gt;Node9 -->
<g id="edge10" class="edge">
<title>Node7&#45;&gt;Node9</title>
<path fill="none" stroke="midnightblue" d="M303.16,-242.38C399.98,-227.21 567.46,-200.96 655.71,-187.13"/>
<polygon fill="midnightblue" stroke="midnightblue" points="302.49,-238.94 293.15,-243.95 303.58,-245.86 302.49,-238.94"/>
</g>
<!-- Node10 -->
<g id="node10" class="node">
<title>Node10</title>
<g id="a_node10"><a xlink:href="../../d6/d85/mock__autocomplete__provider__client_8h.html" target="_top" xlink:title=" ">
<polygon fill="white" stroke="black" points="288.5,-156.5 288.5,-197.5 433.5,-197.5 433.5,-156.5 288.5,-156.5"/>
<text text-anchor="start" x="296.5" y="-185.5" font-family="Helvetica,sans-Serif" font-size="10.00">components/omnibox</text>
<text text-anchor="start" x="296.5" y="-174.5" font-family="Helvetica,sans-Serif" font-size="10.00">/browser/mock_autocomplete</text>
<text text-anchor="middle" x="361" y="-163.5" font-family="Helvetica,sans-Serif" font-size="10.00">_provider_client.h</text>
</a>
</g>
</g>
<!-- Node7&#45;&gt;Node10 -->
<g id="edge11" class="edge">
<title>Node7&#45;&gt;Node10</title>
<path fill="none" stroke="midnightblue" d="M272.07,-229.2C289.93,-218.92 310.36,-207.16 327.12,-197.51"/>
<polygon fill="midnightblue" stroke="midnightblue" points="269.91,-226.41 262.99,-234.43 273.41,-232.47 269.91,-226.41"/>
</g>
<!-- Node11 -->
<g id="node11" class="node">
<title>Node11</title>
<g id="a_node11"><a xlink:href="../../da/d44/fake__autocomplete__provider__client_8h.html" target="_top" xlink:title=" ">
<polygon fill="white" stroke="black" points="211,-78.5 211,-119.5 351,-119.5 351,-78.5 211,-78.5"/>
<text text-anchor="start" x="219" y="-107.5" font-family="Helvetica,sans-Serif" font-size="10.00">components/omnibox</text>
<text text-anchor="start" x="219" y="-96.5" font-family="Helvetica,sans-Serif" font-size="10.00">/browser/fake_autocomplete</text>
<text text-anchor="middle" x="281" y="-85.5" font-family="Helvetica,sans-Serif" font-size="10.00">_provider_client.h</text>
</a>
</g>
</g>
<!-- Node10&#45;&gt;Node11 -->
<g id="edge12" class="edge">
<title>Node10&#45;&gt;Node11</title>
<path fill="none" stroke="midnightblue" d="M333.1,-149.49C322.72,-139.63 311.13,-128.63 301.53,-119.51"/>
<polygon fill="midnightblue" stroke="midnightblue" points="330.74,-152.08 340.4,-156.43 335.56,-147 330.74,-152.08"/>
</g>
<!-- Node13 -->
<g id="node13" class="node">
<title>Node13</title>
<g id="a_node13"><a xlink:href="../../d7/d57/mock__autocomplete__provider__client_8cc.html" target="_top" xlink:title=" ">
<polygon fill="white" stroke="black" points="369.5,-78.5 369.5,-119.5 514.5,-119.5 514.5,-78.5 369.5,-78.5"/>
<text text-anchor="start" x="377.5" y="-107.5" font-family="Helvetica,sans-Serif" font-size="10.00">components/omnibox</text>
<text text-anchor="start" x="377.5" y="-96.5" font-family="Helvetica,sans-Serif" font-size="10.00">/browser/mock_autocomplete</text>
<text text-anchor="middle" x="442" y="-85.5" font-family="Helvetica,sans-Serif" font-size="10.00">_provider_client.cc</text>
</a>
</g>
</g>
<!-- Node10&#45;&gt;Node13 -->
<g id="edge14" class="edge">
<title>Node10&#45;&gt;Node13</title>
<path fill="none" stroke="midnightblue" d="M389.25,-149.49C399.76,-139.63 411.49,-128.63 421.21,-119.51"/>
<polygon fill="midnightblue" stroke="midnightblue" points="386.76,-147.03 381.86,-156.43 391.55,-152.14 386.76,-147.03"/>
</g>
<!-- Node12 -->
<g id="node12" class="node">
<title>Node12</title>
<g id="a_node12"><a xlink:href="../../d9/da9/fake__autocomplete__provider__client_8cc.html" target="_top" xlink:title=" ">
<polygon fill="white" stroke="black" points="211,-0.5 211,-41.5 351,-41.5 351,-0.5 211,-0.5"/>
<text text-anchor="start" x="219" y="-29.5" font-family="Helvetica,sans-Serif" font-size="10.00">components/omnibox</text>
<text text-anchor="start" x="219" y="-18.5" font-family="Helvetica,sans-Serif" font-size="10.00">/browser/fake_autocomplete</text>
<text text-anchor="middle" x="281" y="-7.5" font-family="Helvetica,sans-Serif" font-size="10.00">_provider_client.cc</text>
</a>
</g>
</g>
<!-- Node11&#45;&gt;Node12 -->
<g id="edge13" class="edge">
<title>Node11&#45;&gt;Node12</title>
<path fill="none" stroke="midnightblue" d="M281,-68.3C281,-59.3 281,-49.65 281,-41.51"/>
<polygon fill="midnightblue" stroke="midnightblue" points="277.5,-68.43 281,-78.43 284.5,-68.43 277.5,-68.43"/>
</g>
</g>
</svg>
