<?xml version="1.0" encoding="UTF-8" standalone="no"?>
<!DOCTYPE svg PUBLIC "-//W3C//DTD SVG 1.1//EN"
 "http://www.w3.org/Graphics/SVG/1.1/DTD/svg11.dtd">
<!-- Generated by graphviz version 2.43.0 (0)
 -->
<!-- Title: components/omnibox/browser/omnibox_popup_view.h Pages: 1 -->
<svg width="749pt" height="206pt"
 viewBox="0.00 0.00 748.50 206.00" xmlns="http://www.w3.org/2000/svg" xmlns:xlink="http://www.w3.org/1999/xlink">
<g id="graph0" class="graph" transform="scale(1 1) rotate(0) translate(4 202)">
<title>components/omnibox/browser/omnibox_popup_view.h</title>
<polygon fill="white" stroke="transparent" points="-4,4 -4,-202 744.5,-202 744.5,4 -4,4"/>
<!-- Node1 -->
<g id="node1" class="node">
<title>Node1</title>
<g id="a_node1"><a xlink:title=" ">
<polygon fill="#bfbfbf" stroke="black" points="165.5,-156.5 165.5,-197.5 290.5,-197.5 290.5,-156.5 165.5,-156.5"/>
<text text-anchor="start" x="173.5" y="-185.5" font-family="Helvetica,sans-Serif" font-size="10.00">components/omnibox</text>
<text text-anchor="start" x="173.5" y="-174.5" font-family="Helvetica,sans-Serif" font-size="10.00">/browser/omnibox_popup</text>
<text text-anchor="middle" x="228" y="-163.5" font-family="Helvetica,sans-Serif" font-size="10.00">_view.h</text>
</a>
</g>
</g>
<!-- Node2 -->
<g id="node2" class="node">
<title>Node2</title>
<g id="a_node2"><a xlink:href="../../dd/d1e/omnibox__controller_8cc.html" target="_top" xlink:title=" ">
<polygon fill="white" stroke="black" points="0,-84 0,-114 152,-114 152,-84 0,-84"/>
<text text-anchor="start" x="8" y="-102" font-family="Helvetica,sans-Serif" font-size="10.00">components/omnibox</text>
<text text-anchor="middle" x="76" y="-91" font-family="Helvetica,sans-Serif" font-size="10.00">/browser/omnibox_controller.cc</text>
</a>
</g>
</g>
<!-- Node1&#45;&gt;Node2 -->
<g id="edge1" class="edge">
<title>Node1&#45;&gt;Node2</title>
<path fill="none" stroke="midnightblue" d="M179.61,-151.81C154.85,-139.43 125.56,-124.78 104.45,-114.23"/>
<polygon fill="midnightblue" stroke="midnightblue" points="178.35,-155.09 188.86,-156.43 181.48,-148.83 178.35,-155.09"/>
</g>
<!-- Node3 -->
<g id="node3" class="node">
<title>Node3</title>
<g id="a_node3"><a xlink:href="../../d7/df6/omnibox__edit__model_8cc.html" target="_top" xlink:title=" ">
<polygon fill="white" stroke="black" points="170.5,-78.5 170.5,-119.5 285.5,-119.5 285.5,-78.5 170.5,-78.5"/>
<text text-anchor="start" x="178.5" y="-107.5" font-family="Helvetica,sans-Serif" font-size="10.00">components/omnibox</text>
<text text-anchor="start" x="178.5" y="-96.5" font-family="Helvetica,sans-Serif" font-size="10.00">/browser/omnibox_edit</text>
<text text-anchor="middle" x="228" y="-85.5" font-family="Helvetica,sans-Serif" font-size="10.00">_model.cc</text>
</a>
</g>
</g>
<!-- Node1&#45;&gt;Node3 -->
<g id="edge2" class="edge">
<title>Node1&#45;&gt;Node3</title>
<path fill="none" stroke="midnightblue" d="M228,-146.3C228,-137.3 228,-127.65 228,-119.51"/>
<polygon fill="midnightblue" stroke="midnightblue" points="224.5,-146.43 228,-156.43 231.5,-146.43 224.5,-146.43"/>
</g>
<!-- Node4 -->
<g id="node4" class="node">
<title>Node4</title>
<g id="a_node4"><a xlink:href="../../d4/d25/omnibox__popup__contents__view_8h.html" target="_top" xlink:title=" ">
<polygon fill="white" stroke="black" points="304,-78.5 304,-119.5 432,-119.5 432,-78.5 304,-78.5"/>
<text text-anchor="start" x="312" y="-107.5" font-family="Helvetica,sans-Serif" font-size="10.00">chrome/browser/ui/views</text>
<text text-anchor="start" x="312" y="-96.5" font-family="Helvetica,sans-Serif" font-size="10.00">/omnibox/omnibox_popup</text>
<text text-anchor="middle" x="368" y="-85.5" font-family="Helvetica,sans-Serif" font-size="10.00">_contents_view.h</text>
</a>
</g>
</g>
<!-- Node1&#45;&gt;Node4 -->
<g id="edge3" class="edge">
<title>Node1&#45;&gt;Node4</title>
<path fill="none" stroke="midnightblue" d="M272.9,-151.63C292.03,-141.24 314.04,-129.29 332.07,-119.51"/>
<polygon fill="midnightblue" stroke="midnightblue" points="271.17,-148.58 264.05,-156.43 274.51,-154.73 271.17,-148.58"/>
</g>
<!-- Node5 -->
<g id="node5" class="node">
<title>Node5</title>
<g id="a_node5"><a xlink:href="../../d8/df8/omnibox__match__cell__view_8cc.html" target="_top" xlink:title=" ">
<polygon fill="white" stroke="black" points="13,-0.5 13,-41.5 141,-41.5 141,-0.5 13,-0.5"/>
<text text-anchor="start" x="21" y="-29.5" font-family="Helvetica,sans-Serif" font-size="10.00">chrome/browser/ui/views</text>
<text text-anchor="start" x="21" y="-18.5" font-family="Helvetica,sans-Serif" font-size="10.00">/omnibox/omnibox_match</text>
<text text-anchor="middle" x="77" y="-7.5" font-family="Helvetica,sans-Serif" font-size="10.00">_cell_view.cc</text>
</a>
</g>
</g>
<!-- Node4&#45;&gt;Node5 -->
<g id="edge4" class="edge">
<title>Node4&#45;&gt;Node5</title>
<path fill="none" stroke="midnightblue" d="M294.3,-78.08C294.2,-78.05 294.1,-78.03 294,-78 230.15,-61.39 213.82,-58.72 150,-42 147.08,-41.23 144.09,-40.44 141.07,-39.64"/>
<polygon fill="midnightblue" stroke="midnightblue" points="293.28,-81.43 303.84,-80.58 295.06,-74.66 293.28,-81.43"/>
</g>
<!-- Node6 -->
<g id="node6" class="node">
<title>Node6</title>
<g id="a_node6"><a xlink:href="../../d8/d69/omnibox__popup__contents__view_8cc.html" target="_top" xlink:title=" ">
<polygon fill="white" stroke="black" points="159,-0.5 159,-41.5 287,-41.5 287,-0.5 159,-0.5"/>
<text text-anchor="start" x="167" y="-29.5" font-family="Helvetica,sans-Serif" font-size="10.00">chrome/browser/ui/views</text>
<text text-anchor="start" x="167" y="-18.5" font-family="Helvetica,sans-Serif" font-size="10.00">/omnibox/omnibox_popup</text>
<text text-anchor="middle" x="223" y="-7.5" font-family="Helvetica,sans-Serif" font-size="10.00">_contents_view.cc</text>
</a>
</g>
</g>
<!-- Node4&#45;&gt;Node6 -->
<g id="edge5" class="edge">
<title>Node4&#45;&gt;Node6</title>
<path fill="none" stroke="midnightblue" d="M321.77,-73.77C301.89,-63.35 278.97,-51.34 260.21,-41.51"/>
<polygon fill="midnightblue" stroke="midnightblue" points="320.18,-76.89 330.66,-78.43 323.43,-70.69 320.18,-76.89"/>
</g>
<!-- Node7 -->
<g id="node7" class="node">
<title>Node7</title>
<g id="a_node7"><a xlink:href="../../d3/d3f/omnibox__result__view_8cc.html" target="_top" xlink:title=" ">
<polygon fill="white" stroke="black" points="305.5,-0.5 305.5,-41.5 430.5,-41.5 430.5,-0.5 305.5,-0.5"/>
<text text-anchor="start" x="313.5" y="-29.5" font-family="Helvetica,sans-Serif" font-size="10.00">chrome/browser/ui/views</text>
<text text-anchor="start" x="313.5" y="-18.5" font-family="Helvetica,sans-Serif" font-size="10.00">/omnibox/omnibox_result</text>
<text text-anchor="middle" x="368" y="-7.5" font-family="Helvetica,sans-Serif" font-size="10.00">_view.cc</text>
</a>
</g>
</g>
<!-- Node4&#45;&gt;Node7 -->
<g id="edge6" class="edge">
<title>Node4&#45;&gt;Node7</title>
<path fill="none" stroke="midnightblue" d="M368,-68.3C368,-59.3 368,-49.65 368,-41.51"/>
<polygon fill="midnightblue" stroke="midnightblue" points="364.5,-68.43 368,-78.43 371.5,-68.43 364.5,-68.43"/>
</g>
<!-- Node8 -->
<g id="node8" class="node">
<title>Node8</title>
<g id="a_node8"><a xlink:href="../../de/d2f/omnibox__suggestion__button__row__view_8cc.html" target="_top" xlink:title=" ">
<polygon fill="white" stroke="black" points="448.5,-0.5 448.5,-41.5 597.5,-41.5 597.5,-0.5 448.5,-0.5"/>
<text text-anchor="start" x="456.5" y="-29.5" font-family="Helvetica,sans-Serif" font-size="10.00">chrome/browser/ui/views</text>
<text text-anchor="start" x="456.5" y="-18.5" font-family="Helvetica,sans-Serif" font-size="10.00">/omnibox/omnibox_suggestion</text>
<text text-anchor="middle" x="523" y="-7.5" font-family="Helvetica,sans-Serif" font-size="10.00">_button_row_view.cc</text>
</a>
</g>
</g>
<!-- Node4&#45;&gt;Node8 -->
<g id="edge7" class="edge">
<title>Node4&#45;&gt;Node8</title>
<path fill="none" stroke="midnightblue" d="M417.13,-73.91C438.45,-63.46 463.08,-51.38 483.22,-41.51"/>
<polygon fill="midnightblue" stroke="midnightblue" points="415.35,-70.88 407.92,-78.43 418.44,-77.17 415.35,-70.88"/>
</g>
<!-- Node9 -->
<g id="node9" class="node">
<title>Node9</title>
<g id="a_node9"><a xlink:href="../../d8/d7a/omnibox__view__views_8cc.html" target="_top" xlink:title=" ">
<polygon fill="white" stroke="black" points="615.5,-0.5 615.5,-41.5 740.5,-41.5 740.5,-0.5 615.5,-0.5"/>
<text text-anchor="start" x="623.5" y="-29.5" font-family="Helvetica,sans-Serif" font-size="10.00">chrome/browser/ui/views</text>
<text text-anchor="start" x="623.5" y="-18.5" font-family="Helvetica,sans-Serif" font-size="10.00">/omnibox/omnibox_view</text>
<text text-anchor="middle" x="678" y="-7.5" font-family="Helvetica,sans-Serif" font-size="10.00">_views.cc</text>
</a>
</g>
</g>
<!-- Node4&#45;&gt;Node9 -->
<g id="edge8" class="edge">
<title>Node4&#45;&gt;Node9</title>
<path fill="none" stroke="midnightblue" d="M441.95,-81.56C489.28,-70.83 551.91,-56.21 607,-42 609.73,-41.3 612.51,-40.57 615.32,-39.82"/>
<polygon fill="midnightblue" stroke="midnightblue" points="441.08,-78.17 432.1,-83.79 442.62,-85 441.08,-78.17"/>
</g>
</g>
</svg>
