<?xml version="1.0" encoding="UTF-8" standalone="no"?>
<!DOCTYPE svg PUBLIC "-//W3C//DTD SVG 1.1//EN"
 "http://www.w3.org/Graphics/SVG/1.1/DTD/svg11.dtd">
<!-- Generated by graphviz version 2.43.0 (0)
 -->
<!-- Title: OmniboxPopupModel Pages: 1 -->
<!--zoomable 240 -->
<svg id="main" version="1.1" xmlns="http://www.w3.org/2000/svg" xmlns:xlink="http://www.w3.org/1999/xlink" xml:space="preserve" onload="init(evt)">
<style type="text/css"><![CDATA[
.edge:hover path { stroke: red; }
.edge:hover polygon { stroke: red; fill: red; }
]]></style>
<script type="text/javascript"><![CDATA[
var edges = document.getElementsByTagName('g');
if (edges && edges.length) {
  for (var i=0;i<edges.length;i++) {
    if (edges[i].id.substr(0,4)=='edge') {
      edges[i].setAttribute('class','edge');
    }
  }
}
]]></script>
        <defs>
                <circle id="rim" cx="0" cy="0" r="7"/>
                <circle id="rim2" cx="0" cy="0" r="3.5"/>
                <g id="zoomPlus">
                        <use xlink:href="#rim" fill="#404040">
                                <set attributeName="fill" to="#808080" begin="zoomplus.mouseover" end="zoomplus.mouseout"/>
                        </use>
                        <path d="M-4,0h8M0,-4v8" fill="none" stroke="white" stroke-width="1.5" pointer-events="none"/>
                </g>
                <g id="zoomMin">
                        <use xlink:href="#rim" fill="#404040">
                                <set attributeName="fill" to="#808080" begin="zoomminus.mouseover" end="zoomminus.mouseout"/>
                        </use>
                        <path d="M-4,0h8" fill="none" stroke="white" stroke-width="1.5" pointer-events="none"/>
                </g>
                <g id="dirArrow">
                        <path fill="none" stroke="white" stroke-width="1.5" d="M0,-3.0v7 M-2.5,-0.5L0,-3.0L2.5,-0.5"/>
                </g>
               <g id="resetDef">
                       <use xlink:href="#rim2" fill="#404040">
                               <set attributeName="fill" to="#808080" begin="reset.mouseover" end="reset.mouseout"/>
                       </use>
               </g>
        </defs>

<script type="text/javascript">
var viewWidth = 512;
var viewHeight = 240;
var sectionId = 'dynsection-0';
</script>
<script xlink:href="../../svgpan.js"/>
<svg id="graph" class="graph">
<g id="viewport">
<title>OmniboxPopupModel</title>
<polygon fill="white" stroke="transparent" points="-4,4 -4,-236 508,-236 508,4 -4,4"/>
<!-- Node1 -->
<g id="node1" class="node">
<title>Node1</title>
<g id="a_node1"><a xlink:title=" ">
<polygon fill="#bfbfbf" stroke="black" points="132,-0.5 132,-19.5 242,-19.5 242,-0.5 132,-0.5"/>
<text text-anchor="middle" x="187" y="-7.5" font-family="Helvetica,sans-Serif" font-size="10.00">OmniboxPopupModel</text>
</a>
</g>
</g>
<!-- Node2 -->
<g id="node2" class="node">
<title>Node2</title>
<g id="a_node2"><a xlink:href="../../d4/d41/structOmniboxPopupModel_1_1Selection.html" target="_top" xlink:title=" ">
<polygon fill="white" stroke="black" points="0,-67.5 0,-97.5 116,-97.5 116,-67.5 0,-67.5"/>
<text text-anchor="start" x="8" y="-85.5" font-family="Helvetica,sans-Serif" font-size="10.00">OmniboxPopupModel::</text>
<text text-anchor="middle" x="58" y="-74.5" font-family="Helvetica,sans-Serif" font-size="10.00">Selection</text>
</a>
</g>
</g>
<!-- Node2&#45;&gt;Node1 -->
<g id="edge1" class="edge">
<title>Node2&#45;&gt;Node1</title>
<path fill="none" stroke="#9a32cd" stroke-dasharray="5,2" d="M91.42,-62.28C104.9,-54.62 120.63,-45.79 135,-38 146.63,-31.7 159.85,-24.84 170.06,-19.61"/>
<polygon fill="#9a32cd" stroke="#9a32cd" points="89.45,-59.37 82.5,-67.37 92.92,-65.45 89.45,-59.37"/>
<text text-anchor="middle" x="159" y="-41" font-family="Helvetica,sans-Serif" font-size="10.00"> selection_</text>
</g>
<!-- Node3 -->
<g id="node3" class="node">
<title>Node3</title>
<g id="a_node3"><a xlink:href="../../db/de1/classOmniboxPopupView.html" target="_top" xlink:title=" ">
<polygon fill="white" stroke="black" points="134.5,-73 134.5,-92 239.5,-92 239.5,-73 134.5,-73"/>
<text text-anchor="middle" x="187" y="-80" font-family="Helvetica,sans-Serif" font-size="10.00">OmniboxPopupView</text>
</a>
</g>
</g>
<!-- Node3&#45;&gt;Node1 -->
<g id="edge2" class="edge">
<title>Node3&#45;&gt;Node1</title>
<path fill="none" stroke="#9a32cd" stroke-dasharray="5,2" d="M187,-62.44C187,-48.53 187,-30.32 187,-19.72"/>
<polygon fill="#9a32cd" stroke="#9a32cd" points="183.5,-62.86 187,-72.86 190.5,-62.86 183.5,-62.86"/>
<text text-anchor="middle" x="201.5" y="-41" font-family="Helvetica,sans-Serif" font-size="10.00"> view_</text>
</g>
<!-- Node4 -->
<g id="node4" class="node">
<title>Node4</title>
<g id="a_node4"><a xlink:href="../../d0/d22/classOmniboxEditModel.html" target="_top" xlink:title=" ">
<polygon fill="white" stroke="black" points="257.5,-73 257.5,-92 356.5,-92 356.5,-73 257.5,-73"/>
<text text-anchor="middle" x="307" y="-80" font-family="Helvetica,sans-Serif" font-size="10.00">OmniboxEditModel</text>
</a>
</g>
</g>
<!-- Node4&#45;&gt;Node1 -->
<g id="edge3" class="edge">
<title>Node4&#45;&gt;Node1</title>
<path fill="none" stroke="#9a32cd" stroke-dasharray="5,2" d="M283.38,-67.62C259.16,-53.39 222.23,-31.7 201.83,-19.72"/>
<polygon fill="#9a32cd" stroke="#9a32cd" points="281.89,-70.81 292.29,-72.86 285.44,-64.77 281.89,-70.81"/>
<text text-anchor="middle" x="278" y="-41" font-family="Helvetica,sans-Serif" font-size="10.00"> edit_model_</text>
</g>
<!-- Node5 -->
<g id="node5" class="node">
<title>Node5</title>
<g id="a_node5"><a xlink:href="../../dc/d81/classOmniboxEditController.html" target="_top" xlink:title=" ">
<polygon fill="white" stroke="black" points="78.5,-212.5 78.5,-231.5 193.5,-231.5 193.5,-212.5 78.5,-212.5"/>
<text text-anchor="middle" x="136" y="-219.5" font-family="Helvetica,sans-Serif" font-size="10.00">OmniboxEditController</text>
</a>
</g>
</g>
<!-- Node5&#45;&gt;Node4 -->
<g id="edge4" class="edge">
<title>Node5&#45;&gt;Node4</title>
<path fill="none" stroke="#9a32cd" stroke-dasharray="5,2" d="M127.94,-202.4C122.11,-185.81 117.14,-161.64 129,-145 137.82,-132.62 227.79,-105.76 276.33,-92"/>
<polygon fill="#9a32cd" stroke="#9a32cd" points="124.81,-204.02 131.72,-212.06 131.33,-201.47 124.81,-204.02"/>
<text text-anchor="middle" x="153.5" y="-152.5" font-family="Helvetica,sans-Serif" font-size="10.00"> controller_</text>
</g>
<!-- Node7 -->
<g id="node7" class="node">
<title>Node7</title>
<g id="a_node7"><a xlink:href="../../d9/d1e/classOmniboxView.html" target="_top" xlink:title=" ">
<polygon fill="white" stroke="black" points="187.5,-145.5 187.5,-164.5 264.5,-164.5 264.5,-145.5 187.5,-145.5"/>
<text text-anchor="middle" x="226" y="-152.5" font-family="Helvetica,sans-Serif" font-size="10.00">OmniboxView</text>
</a>
</g>
</g>
<!-- Node5&#45;&gt;Node7 -->
<g id="edge7" class="edge">
<title>Node5&#45;&gt;Node7</title>
<path fill="none" stroke="#9a32cd" stroke-dasharray="5,2" d="M156.68,-206.07C174.44,-193.24 199.44,-175.19 214.05,-164.63"/>
<polygon fill="#9a32cd" stroke="#9a32cd" points="154.2,-203.54 148.14,-212.23 158.29,-209.22 154.2,-203.54"/>
<text text-anchor="middle" x="211.5" y="-186" font-family="Helvetica,sans-Serif" font-size="10.00"> controller_</text>
</g>
<!-- Node6 -->
<g id="node6" class="node">
<title>Node6</title>
<g id="a_node6"><a xlink:href="../../d5/d39/structSplitAutocompletion.html" target="_top" xlink:title=" ">
<polygon fill="white" stroke="black" points="283,-145.5 283,-164.5 387,-164.5 387,-145.5 283,-145.5"/>
<text text-anchor="middle" x="335" y="-152.5" font-family="Helvetica,sans-Serif" font-size="10.00">SplitAutocompletion</text>
</a>
</g>
</g>
<!-- Node6&#45;&gt;Node4 -->
<g id="edge5" class="edge">
<title>Node6&#45;&gt;Node4</title>
<path fill="none" stroke="#9a32cd" stroke-dasharray="5,2" d="M327.76,-135.77C322.2,-121.76 314.76,-103.03 310.46,-92.22"/>
<polygon fill="#9a32cd" stroke="#9a32cd" points="324.62,-137.35 331.57,-145.36 331.13,-134.77 324.62,-137.35"/>
<text text-anchor="middle" x="372" y="-119" font-family="Helvetica,sans-Serif" font-size="10.00"> split_autocompletion_</text>
</g>
<!-- Node7&#45;&gt;Node4 -->
<g id="edge6" class="edge">
<title>Node7&#45;&gt;Node4</title>
<path fill="none" stroke="#9a32cd" stroke-dasharray="5,2" d="M243.71,-138.58C260.04,-124.37 283.71,-103.77 296.99,-92.22"/>
<polygon fill="#9a32cd" stroke="#9a32cd" points="241.18,-136.15 235.93,-145.36 245.77,-141.43 241.18,-136.15"/>
<text text-anchor="middle" x="282.5" y="-119" font-family="Helvetica,sans-Serif" font-size="10.00"> view_</text>
</g>
<!-- Node8 -->
<g id="node8" class="node">
<title>Node8</title>
<g id="a_node8"><a xlink:href="../../d9/df6/classAutocompleteInput.html" target="_top" xlink:title=" ">
<polygon fill="white" stroke="black" points="406,-145.5 406,-164.5 504,-164.5 504,-145.5 406,-145.5"/>
<text text-anchor="middle" x="455" y="-152.5" font-family="Helvetica,sans-Serif" font-size="10.00">AutocompleteInput</text>
</a>
</g>
</g>
<!-- Node8&#45;&gt;Node4 -->
<g id="edge8" class="edge">
<title>Node8&#45;&gt;Node4</title>
<path fill="none" stroke="#9a32cd" stroke-dasharray="5,2" d="M444.91,-136.77C439.8,-129.4 432.98,-121.29 425,-116 404.72,-102.55 378.98,-94.63 356.72,-89.99"/>
<polygon fill="#9a32cd" stroke="#9a32cd" points="442.1,-138.88 450.43,-145.44 448.01,-135.12 442.1,-138.88"/>
<text text-anchor="middle" x="451" y="-119" font-family="Helvetica,sans-Serif" font-size="10.00"> input_</text>
</g>
</g>
</svg>
        <g id="navigator" transform="translate(0 0)" fill="#404254">
                <rect fill="#f2f5e9" fill-opacity="0.5" stroke="#606060" stroke-width=".5" x="0" y="0" width="60" height="60"/>
                <use id="zoomplus" xlink:href="#zoomPlus" x="17" y="9" onmousedown="handleZoom(evt,'in')"/>
                <use id="zoomminus" xlink:href="#zoomMin" x="42" y="9" onmousedown="handleZoom(evt,'out')"/>
                <use id="reset" xlink:href="#resetDef" x="30" y="36" onmousedown="handleReset()"/>
                <g id="arrowUp" xlink:href="#dirArrow" transform="translate(30 24)" onmousedown="handlePan(0,-1)">
                  <use xlink:href="#rim" fill="#404040">
                        <set attributeName="fill" to="#808080" begin="arrowUp.mouseover" end="arrowUp.mouseout"/>
                  </use>
                  <path fill="none" stroke="white" stroke-width="1.5" d="M0,-3.0v7 M-2.5,-0.5L0,-3.0L2.5,-0.5"/>
                </g>
                <g id="arrowRight" xlink:href="#dirArrow" transform="rotate(90) translate(36 -43)" onmousedown="handlePan(1,0)">
                  <use xlink:href="#rim" fill="#404040">
                        <set attributeName="fill" to="#808080" begin="arrowRight.mouseover" end="arrowRight.mouseout"/>
                  </use>
                  <path fill="none" stroke="white" stroke-width="1.5" d="M0,-3.0v7 M-2.5,-0.5L0,-3.0L2.5,-0.5"/>
                </g>
                <g id="arrowDown" xlink:href="#dirArrow" transform="rotate(180) translate(-30 -48)" onmousedown="handlePan(0,1)">
                  <use xlink:href="#rim" fill="#404040">
                        <set attributeName="fill" to="#808080" begin="arrowDown.mouseover" end="arrowDown.mouseout"/>
                  </use>
                  <path fill="none" stroke="white" stroke-width="1.5" d="M0,-3.0v7 M-2.5,-0.5L0,-3.0L2.5,-0.5"/>
                </g>
                <g id="arrowLeft" xlink:href="#dirArrow" transform="rotate(270) translate(-36 17)" onmousedown="handlePan(-1,0)">
                  <use xlink:href="#rim" fill="#404040">
                        <set attributeName="fill" to="#808080" begin="arrowLeft.mouseover" end="arrowLeft.mouseout"/>
                  </use>
                  <path fill="none" stroke="white" stroke-width="1.5" d="M0,-3.0v7 M-2.5,-0.5L0,-3.0L2.5,-0.5"/>
                </g>
        </g>
        <svg viewBox="0 0 15 15" width="100%" height="30px" preserveAspectRatio="xMaxYMin meet">
         <g id="arrow_out" transform="scale(0.3 0.3)">
          <a xlink:href="classOmniboxPopupModel__coll__graph_org.svg" target="_base">
           <rect id="button" ry="5" rx="5" y="6" x="6" height="38" width="38"
                fill="#f2f5e9" fill-opacity="0.5" stroke="#606060" stroke-width="1.0"/>
           <path id="arrow"
             d="M 11.500037,31.436501 C 11.940474,20.09759 22.043105,11.32322 32.158766,21.979434 L 37.068811,17.246167 C 37.068811,17.246167 37.088388,32 37.088388,32 L 22.160133,31.978069 C 22.160133,31.978069 26.997745,27.140456 26.997745,27.140456 C 18.528582,18.264221 13.291696,25.230495 11.500037,31.436501 z"
             style="fill:#404040;"/>
          </a>
         </g>
        </svg>
</svg>
