<?xml version="1.0" encoding="UTF-8" standalone="no"?>
<!DOCTYPE svg PUBLIC "-//W3C//DTD SVG 1.1//EN"
 "http://www.w3.org/Graphics/SVG/1.1/DTD/svg11.dtd">
<!-- Generated by graphviz version 2.43.0 (0)
 -->
<!-- Title: components/omnibox/browser/history_url_provider.h Pages: 1 -->
<!--zoomable 206 -->
<svg id="main" version="1.1" xmlns="http://www.w3.org/2000/svg" xmlns:xlink="http://www.w3.org/1999/xlink" xml:space="preserve" onload="init(evt)">
<style type="text/css"><![CDATA[
.edge:hover path { stroke: red; }
.edge:hover polygon { stroke: red; fill: red; }
]]></style>
<script type="text/javascript"><![CDATA[
var edges = document.getElementsByTagName('g');
if (edges && edges.length) {
  for (var i=0;i<edges.length;i++) {
    if (edges[i].id.substr(0,4)=='edge') {
      edges[i].setAttribute('class','edge');
    }
  }
}
]]></script>
        <defs>
                <circle id="rim" cx="0" cy="0" r="7"/>
                <circle id="rim2" cx="0" cy="0" r="3.5"/>
                <g id="zoomPlus">
                        <use xlink:href="#rim" fill="#404040">
                                <set attributeName="fill" to="#808080" begin="zoomplus.mouseover" end="zoomplus.mouseout"/>
                        </use>
                        <path d="M-4,0h8M0,-4v8" fill="none" stroke="white" stroke-width="1.5" pointer-events="none"/>
                </g>
                <g id="zoomMin">
                        <use xlink:href="#rim" fill="#404040">
                                <set attributeName="fill" to="#808080" begin="zoomminus.mouseover" end="zoomminus.mouseout"/>
                        </use>
                        <path d="M-4,0h8" fill="none" stroke="white" stroke-width="1.5" pointer-events="none"/>
                </g>
                <g id="dirArrow">
                        <path fill="none" stroke="white" stroke-width="1.5" d="M0,-3.0v7 M-2.5,-0.5L0,-3.0L2.5,-0.5"/>
                </g>
               <g id="resetDef">
                       <use xlink:href="#rim2" fill="#404040">
                               <set attributeName="fill" to="#808080" begin="reset.mouseover" end="reset.mouseout"/>
                       </use>
               </g>
        </defs>

<script type="text/javascript">
var viewWidth = 1021;
var viewHeight = 206;
var sectionId = 'dynsection-1';
</script>
<script xlink:href="../../svgpan.js"/>
<svg id="graph" class="graph">
<g id="viewport">
<title>components/omnibox/browser/history_url_provider.h</title>
<polygon fill="white" stroke="transparent" points="-4,4 -4,-202 1017,-202 1017,4 -4,4"/>
<!-- Node1 -->
<g id="node1" class="node">
<title>Node1</title>
<g id="a_node1"><a xlink:title=" ">
<polygon fill="#bfbfbf" stroke="black" points="471,-156.5 471,-197.5 581,-197.5 581,-156.5 471,-156.5"/>
<text text-anchor="start" x="479" y="-185.5" font-family="Helvetica,sans-Serif" font-size="10.00">components/omnibox</text>
<text text-anchor="start" x="479" y="-174.5" font-family="Helvetica,sans-Serif" font-size="10.00">/browser/history_url</text>
<text text-anchor="middle" x="526" y="-163.5" font-family="Helvetica,sans-Serif" font-size="10.00">_provider.h</text>
</a>
</g>
</g>
<!-- Node2 -->
<g id="node2" class="node">
<title>Node2</title>
<g id="a_node2"><a xlink:href="../../d8/d40/autocomplete__controller_8cc.html" target="_top" xlink:title=" ">
<polygon fill="white" stroke="black" points="301,-0.5 301,-41.5 417,-41.5 417,-0.5 301,-0.5"/>
<text text-anchor="start" x="309" y="-29.5" font-family="Helvetica,sans-Serif" font-size="10.00">components/omnibox</text>
<text text-anchor="start" x="309" y="-18.5" font-family="Helvetica,sans-Serif" font-size="10.00">/browser/autocomplete</text>
<text text-anchor="middle" x="359" y="-7.5" font-family="Helvetica,sans-Serif" font-size="10.00">_controller.cc</text>
</a>
</g>
</g>
<!-- Node1&#45;&gt;Node2 -->
<g id="edge1" class="edge">
<title>Node1&#45;&gt;Node2</title>
<path fill="none" stroke="midnightblue" d="M460.59,-166.14C409.36,-156.92 344.16,-141.37 328,-120 310.35,-96.66 328.03,-63 343.03,-41.83"/>
<polygon fill="midnightblue" stroke="midnightblue" points="460.17,-169.62 470.62,-167.9 461.38,-162.72 460.17,-169.62"/>
</g>
<!-- Node3 -->
<g id="node3" class="node">
<title>Node3</title>
<g id="a_node3"><a xlink:href="../../d7/d59/clipboard__provider_8h.html" target="_top" xlink:title=" ">
<polygon fill="white" stroke="black" points="137.5,-84 137.5,-114 280.5,-114 280.5,-84 137.5,-84"/>
<text text-anchor="start" x="145.5" y="-102" font-family="Helvetica,sans-Serif" font-size="10.00">components/omnibox</text>
<text text-anchor="middle" x="209" y="-91" font-family="Helvetica,sans-Serif" font-size="10.00">/browser/clipboard_provider.h</text>
</a>
</g>
</g>
<!-- Node1&#45;&gt;Node3 -->
<g id="edge2" class="edge">
<title>Node1&#45;&gt;Node3</title>
<path fill="none" stroke="midnightblue" d="M460.83,-160.38C404.03,-146.76 322.39,-127.18 267.61,-114.05"/>
<polygon fill="midnightblue" stroke="midnightblue" points="460.24,-163.83 470.78,-162.76 461.87,-157.03 460.24,-163.83"/>
</g>
<!-- Node6 -->
<g id="node6" class="node">
<title>Node6</title>
<g id="a_node6"><a xlink:href="../../dc/d09/history__quick__provider_8cc.html" target="_top" xlink:title=" ">
<polygon fill="white" stroke="black" points="337.5,-78.5 337.5,-119.5 452.5,-119.5 452.5,-78.5 337.5,-78.5"/>
<text text-anchor="start" x="345.5" y="-107.5" font-family="Helvetica,sans-Serif" font-size="10.00">components/omnibox</text>
<text text-anchor="start" x="345.5" y="-96.5" font-family="Helvetica,sans-Serif" font-size="10.00">/browser/history_quick</text>
<text text-anchor="middle" x="395" y="-85.5" font-family="Helvetica,sans-Serif" font-size="10.00">_provider.cc</text>
</a>
</g>
</g>
<!-- Node1&#45;&gt;Node6 -->
<g id="edge6" class="edge">
<title>Node1&#45;&gt;Node6</title>
<path fill="none" stroke="midnightblue" d="M483.26,-151.2C465.53,-140.92 445.26,-129.16 428.62,-119.51"/>
<polygon fill="midnightblue" stroke="midnightblue" points="481.86,-154.44 492.26,-156.43 485.37,-148.38 481.86,-154.44"/>
</g>
<!-- Node7 -->
<g id="node7" class="node">
<title>Node7</title>
<g id="a_node7"><a xlink:href="../../d0/df9/history__url__provider_8cc.html" target="_top" xlink:title=" ">
<polygon fill="white" stroke="black" points="471,-78.5 471,-119.5 581,-119.5 581,-78.5 471,-78.5"/>
<text text-anchor="start" x="479" y="-107.5" font-family="Helvetica,sans-Serif" font-size="10.00">components/omnibox</text>
<text text-anchor="start" x="479" y="-96.5" font-family="Helvetica,sans-Serif" font-size="10.00">/browser/history_url</text>
<text text-anchor="middle" x="526" y="-85.5" font-family="Helvetica,sans-Serif" font-size="10.00">_provider.cc</text>
</a>
</g>
</g>
<!-- Node1&#45;&gt;Node7 -->
<g id="edge7" class="edge">
<title>Node1&#45;&gt;Node7</title>
<path fill="none" stroke="midnightblue" d="M526,-146.3C526,-137.3 526,-127.65 526,-119.51"/>
<polygon fill="midnightblue" stroke="midnightblue" points="522.5,-146.43 526,-156.43 529.5,-146.43 522.5,-146.43"/>
</g>
<!-- Node8 -->
<g id="node8" class="node">
<title>Node8</title>
<g id="a_node8"><a xlink:href="../../d7/df6/omnibox__edit__model_8cc.html" target="_top" xlink:title=" ">
<polygon fill="white" stroke="black" points="599.5,-78.5 599.5,-119.5 714.5,-119.5 714.5,-78.5 599.5,-78.5"/>
<text text-anchor="start" x="607.5" y="-107.5" font-family="Helvetica,sans-Serif" font-size="10.00">components/omnibox</text>
<text text-anchor="start" x="607.5" y="-96.5" font-family="Helvetica,sans-Serif" font-size="10.00">/browser/omnibox_edit</text>
<text text-anchor="middle" x="657" y="-85.5" font-family="Helvetica,sans-Serif" font-size="10.00">_model.cc</text>
</a>
</g>
</g>
<!-- Node1&#45;&gt;Node8 -->
<g id="edge8" class="edge">
<title>Node1&#45;&gt;Node8</title>
<path fill="none" stroke="midnightblue" d="M568.74,-151.2C586.47,-140.92 606.74,-129.16 623.38,-119.51"/>
<polygon fill="midnightblue" stroke="midnightblue" points="566.63,-148.38 559.74,-156.43 570.14,-154.44 566.63,-148.38"/>
</g>
<!-- Node9 -->
<g id="node9" class="node">
<title>Node9</title>
<g id="a_node9"><a xlink:href="../../d2/d90/scored__history__match_8cc.html" target="_top" xlink:title=" ">
<polygon fill="white" stroke="black" points="732.5,-78.5 732.5,-119.5 853.5,-119.5 853.5,-78.5 732.5,-78.5"/>
<text text-anchor="start" x="740.5" y="-107.5" font-family="Helvetica,sans-Serif" font-size="10.00">components/omnibox</text>
<text text-anchor="start" x="740.5" y="-96.5" font-family="Helvetica,sans-Serif" font-size="10.00">/browser/scored_history</text>
<text text-anchor="middle" x="793" y="-85.5" font-family="Helvetica,sans-Serif" font-size="10.00">_match.cc</text>
</a>
</g>
</g>
<!-- Node1&#45;&gt;Node9 -->
<g id="edge9" class="edge">
<title>Node1&#45;&gt;Node9</title>
<path fill="none" stroke="midnightblue" d="M591.21,-157.49C629.58,-146.59 679.05,-132.52 723,-120 726.04,-119.13 729.15,-118.25 732.3,-117.35"/>
<polygon fill="midnightblue" stroke="midnightblue" points="589.86,-154.23 581.2,-160.33 591.78,-160.96 589.86,-154.23"/>
</g>
<!-- Node10 -->
<g id="node10" class="node">
<title>Node10</title>
<g id="a_node10"><a xlink:href="../../d4/d6a/zero__suggest__verbatim__match__provider_8h.html" target="_top" xlink:title=" ">
<polygon fill="white" stroke="black" points="871.5,-78.5 871.5,-119.5 1010.5,-119.5 1010.5,-78.5 871.5,-78.5"/>
<text text-anchor="start" x="879.5" y="-107.5" font-family="Helvetica,sans-Serif" font-size="10.00">components/omnibox</text>
<text text-anchor="start" x="879.5" y="-96.5" font-family="Helvetica,sans-Serif" font-size="10.00">/browser/zero_suggest</text>
<text text-anchor="middle" x="941" y="-85.5" font-family="Helvetica,sans-Serif" font-size="10.00">_verbatim_match_provider.h</text>
</a>
</g>
</g>
<!-- Node1&#45;&gt;Node10 -->
<g id="edge10" class="edge">
<title>Node1&#45;&gt;Node10</title>
<path fill="none" stroke="midnightblue" d="M591.3,-166.86C659.42,-156.92 769.16,-139.79 863,-120 865.74,-119.42 868.52,-118.81 871.33,-118.18"/>
<polygon fill="midnightblue" stroke="midnightblue" points="590.54,-163.43 581.14,-168.33 591.54,-170.36 590.54,-163.43"/>
</g>
<!-- Node3&#45;&gt;Node2 -->
<g id="edge3" class="edge">
<title>Node3&#45;&gt;Node2</title>
<path fill="none" stroke="midnightblue" d="M245.81,-79.35C268.41,-67.9 297.32,-53.25 320.26,-41.63"/>
<polygon fill="midnightblue" stroke="midnightblue" points="244.2,-76.24 236.86,-83.88 247.36,-82.49 244.2,-76.24"/>
</g>
<!-- Node4 -->
<g id="node4" class="node">
<title>Node4</title>
<g id="a_node4"><a xlink:href="../../d0/dcb/autocomplete__match__android_8cc.html" target="_top" xlink:title=" ">
<polygon fill="white" stroke="black" points="0,-0.5 0,-41.5 116,-41.5 116,-0.5 0,-0.5"/>
<text text-anchor="start" x="8" y="-29.5" font-family="Helvetica,sans-Serif" font-size="10.00">components/omnibox</text>
<text text-anchor="start" x="8" y="-18.5" font-family="Helvetica,sans-Serif" font-size="10.00">/browser/autocomplete</text>
<text text-anchor="middle" x="58" y="-7.5" font-family="Helvetica,sans-Serif" font-size="10.00">_match_android.cc</text>
</a>
</g>
</g>
<!-- Node3&#45;&gt;Node4 -->
<g id="edge4" class="edge">
<title>Node3&#45;&gt;Node4</title>
<path fill="none" stroke="midnightblue" d="M171.94,-79.35C149.19,-67.9 120.09,-53.25 97,-41.63"/>
<polygon fill="midnightblue" stroke="midnightblue" points="170.45,-82.51 180.95,-83.88 173.59,-76.26 170.45,-82.51"/>
</g>
<!-- Node5 -->
<g id="node5" class="node">
<title>Node5</title>
<g id="a_node5"><a xlink:href="../../d3/d52/clipboard__provider_8cc.html" target="_top" xlink:title=" ">
<polygon fill="white" stroke="black" points="134.5,-6 134.5,-36 283.5,-36 283.5,-6 134.5,-6"/>
<text text-anchor="start" x="142.5" y="-24" font-family="Helvetica,sans-Serif" font-size="10.00">components/omnibox</text>
<text text-anchor="middle" x="209" y="-13" font-family="Helvetica,sans-Serif" font-size="10.00">/browser/clipboard_provider.cc</text>
</a>
</g>
</g>
<!-- Node3&#45;&gt;Node5 -->
<g id="edge5" class="edge">
<title>Node3&#45;&gt;Node5</title>
<path fill="none" stroke="midnightblue" d="M209,-73.59C209,-61.26 209,-46.72 209,-36.23"/>
<polygon fill="midnightblue" stroke="midnightblue" points="205.5,-73.7 209,-83.7 212.5,-73.71 205.5,-73.7"/>
</g>
<!-- Node10&#45;&gt;Node2 -->
<g id="edge11" class="edge">
<title>Node10&#45;&gt;Node2</title>
<path fill="none" stroke="midnightblue" d="M861.48,-77.84C695.56,-48.12 509.6,-32.42 417.21,-25.8"/>
<polygon fill="midnightblue" stroke="midnightblue" points="860.9,-81.29 871.37,-79.63 862.15,-74.4 860.9,-81.29"/>
</g>
<!-- Node11 -->
<g id="node11" class="node">
<title>Node11</title>
<g id="a_node11"><a xlink:href="../../d0/dcc/zero__suggest__verbatim__match__provider_8cc.html" target="_top" xlink:title=" ">
<polygon fill="white" stroke="black" points="869,-0.5 869,-41.5 1013,-41.5 1013,-0.5 869,-0.5"/>
<text text-anchor="start" x="877" y="-29.5" font-family="Helvetica,sans-Serif" font-size="10.00">components/omnibox</text>
<text text-anchor="start" x="877" y="-18.5" font-family="Helvetica,sans-Serif" font-size="10.00">/browser/zero_suggest</text>
<text text-anchor="middle" x="941" y="-7.5" font-family="Helvetica,sans-Serif" font-size="10.00">_verbatim_match_provider.cc</text>
</a>
</g>
</g>
<!-- Node10&#45;&gt;Node11 -->
<g id="edge12" class="edge">
<title>Node10&#45;&gt;Node11</title>
<path fill="none" stroke="midnightblue" d="M941,-68.3C941,-59.3 941,-49.65 941,-41.51"/>
<polygon fill="midnightblue" stroke="midnightblue" points="937.5,-68.43 941,-78.43 944.5,-68.43 937.5,-68.43"/>
</g>
</g>
</svg>
        <g id="navigator" transform="translate(0 0)" fill="#404254">
                <rect fill="#f2f5e9" fill-opacity="0.5" stroke="#606060" stroke-width=".5" x="0" y="0" width="60" height="60"/>
                <use id="zoomplus" xlink:href="#zoomPlus" x="17" y="9" onmousedown="handleZoom(evt,'in')"/>
                <use id="zoomminus" xlink:href="#zoomMin" x="42" y="9" onmousedown="handleZoom(evt,'out')"/>
                <use id="reset" xlink:href="#resetDef" x="30" y="36" onmousedown="handleReset()"/>
                <g id="arrowUp" xlink:href="#dirArrow" transform="translate(30 24)" onmousedown="handlePan(0,-1)">
                  <use xlink:href="#rim" fill="#404040">
                        <set attributeName="fill" to="#808080" begin="arrowUp.mouseover" end="arrowUp.mouseout"/>
                  </use>
                  <path fill="none" stroke="white" stroke-width="1.5" d="M0,-3.0v7 M-2.5,-0.5L0,-3.0L2.5,-0.5"/>
                </g>
                <g id="arrowRight" xlink:href="#dirArrow" transform="rotate(90) translate(36 -43)" onmousedown="handlePan(1,0)">
                  <use xlink:href="#rim" fill="#404040">
                        <set attributeName="fill" to="#808080" begin="arrowRight.mouseover" end="arrowRight.mouseout"/>
                  </use>
                  <path fill="none" stroke="white" stroke-width="1.5" d="M0,-3.0v7 M-2.5,-0.5L0,-3.0L2.5,-0.5"/>
                </g>
                <g id="arrowDown" xlink:href="#dirArrow" transform="rotate(180) translate(-30 -48)" onmousedown="handlePan(0,1)">
                  <use xlink:href="#rim" fill="#404040">
                        <set attributeName="fill" to="#808080" begin="arrowDown.mouseover" end="arrowDown.mouseout"/>
                  </use>
                  <path fill="none" stroke="white" stroke-width="1.5" d="M0,-3.0v7 M-2.5,-0.5L0,-3.0L2.5,-0.5"/>
                </g>
                <g id="arrowLeft" xlink:href="#dirArrow" transform="rotate(270) translate(-36 17)" onmousedown="handlePan(-1,0)">
                  <use xlink:href="#rim" fill="#404040">
                        <set attributeName="fill" to="#808080" begin="arrowLeft.mouseover" end="arrowLeft.mouseout"/>
                  </use>
                  <path fill="none" stroke="white" stroke-width="1.5" d="M0,-3.0v7 M-2.5,-0.5L0,-3.0L2.5,-0.5"/>
                </g>
        </g>
        <svg viewBox="0 0 15 15" width="100%" height="30px" preserveAspectRatio="xMaxYMin meet">
         <g id="arrow_out" transform="scale(0.3 0.3)">
          <a xlink:href="history__url__provider_8h__dep__incl_org.svg" target="_base">
           <rect id="button" ry="5" rx="5" y="6" x="6" height="38" width="38"
                fill="#f2f5e9" fill-opacity="0.5" stroke="#606060" stroke-width="1.0"/>
           <path id="arrow"
             d="M 11.500037,31.436501 C 11.940474,20.09759 22.043105,11.32322 32.158766,21.979434 L 37.068811,17.246167 C 37.068811,17.246167 37.088388,32 37.088388,32 L 22.160133,31.978069 C 22.160133,31.978069 26.997745,27.140456 26.997745,27.140456 C 18.528582,18.264221 13.291696,25.230495 11.500037,31.436501 z"
             style="fill:#404040;"/>
          </a>
         </g>
        </svg>
</svg>
