<?xml version="1.0" encoding="UTF-8" standalone="no"?>
<!DOCTYPE svg PUBLIC "-//W3C//DTD SVG 1.1//EN"
 "http://www.w3.org/Graphics/SVG/1.1/DTD/svg11.dtd">
<!-- Generated by graphviz version 2.43.0 (0)
 -->
<!-- Title: DocumentProvider Pages: 1 -->
<svg width="512pt" height="148pt"
 viewBox="0.00 0.00 512.00 147.50" xmlns="http://www.w3.org/2000/svg" xmlns:xlink="http://www.w3.org/1999/xlink">
<g id="graph0" class="graph" transform="scale(1 1) rotate(0) translate(4 143.5)">
<title>DocumentProvider</title>
<polygon fill="white" stroke="transparent" points="-4,4 -4,-143.5 508,-143.5 508,4 -4,4"/>
<!-- Node1 -->
<g id="node1" class="node">
<title>Node1</title>
<g id="a_node1"><a xlink:title=" ">
<polygon fill="#bfbfbf" stroke="black" points="406,-57.5 406,-76.5 504,-76.5 504,-57.5 406,-57.5"/>
<text text-anchor="middle" x="455" y="-64.5" font-family="Helvetica,sans-Serif" font-size="10.00">DocumentProvider</text>
</a>
</g>
</g>
<!-- Node2 -->
<g id="node2" class="node">
<title>Node2</title>
<g id="a_node2"><a xlink:href="../../dd/de9/classAutocompleteProvider.html" target="_top" xlink:title=" ">
<polygon fill="white" stroke="black" points="200,-114.5 200,-133.5 313,-133.5 313,-114.5 200,-114.5"/>
<text text-anchor="middle" x="256.5" y="-121.5" font-family="Helvetica,sans-Serif" font-size="10.00">AutocompleteProvider</text>
</a>
</g>
</g>
<!-- Node2&#45;&gt;Node1 -->
<g id="edge1" class="edge">
<title>Node2&#45;&gt;Node1</title>
<path fill="none" stroke="midnightblue" d="M314.69,-112.26C337.67,-107.07 364.29,-100.44 388,-93 402.92,-88.31 419.28,-81.88 431.98,-76.58"/>
<polygon fill="midnightblue" stroke="midnightblue" points="313.75,-108.89 304.75,-114.47 315.27,-115.72 313.75,-108.89"/>
</g>
<!-- Node3 -->
<g id="node3" class="node">
<title>Node3</title>
<g id="a_node3"><a xlink:title=" ">
<polygon fill="white" stroke="#bfbfbf" points="0,-109 0,-139 146,-139 146,-109 0,-109"/>
<text text-anchor="start" x="8" y="-127" font-family="Helvetica,sans-Serif" font-size="10.00">base::RefCountedThreadSafe</text>
<text text-anchor="middle" x="73" y="-116" font-family="Helvetica,sans-Serif" font-size="10.00">&lt; AutocompleteProvider &gt;</text>
</a>
</g>
</g>
<!-- Node3&#45;&gt;Node2 -->
<g id="edge2" class="edge">
<title>Node3&#45;&gt;Node2</title>
<path fill="none" stroke="midnightblue" d="M156.41,-124C171.17,-124 186.22,-124 200,-124"/>
<polygon fill="midnightblue" stroke="midnightblue" points="156.26,-120.5 146.26,-124 156.26,-127.5 156.26,-120.5"/>
</g>
<!-- Node4 -->
<g id="node4" class="node">
<title>Node4</title>
<g id="a_node4"><a xlink:href="../../dc/dce/classAutocompleteProviderListener.html" target="_top" xlink:title=" ">
<polygon fill="white" stroke="black" points="183,-76.5 183,-95.5 330,-95.5 330,-76.5 183,-76.5"/>
<text text-anchor="middle" x="256.5" y="-83.5" font-family="Helvetica,sans-Serif" font-size="10.00">AutocompleteProviderListener</text>
</a>
</g>
</g>
<!-- Node4&#45;&gt;Node1 -->
<g id="edge3" class="edge">
<title>Node4&#45;&gt;Node1</title>
<path fill="none" stroke="#9a32cd" stroke-dasharray="5,2" d="M340.28,-78C362.63,-75.83 386.08,-73.57 405.83,-71.66"/>
<polygon fill="#9a32cd" stroke="#9a32cd" points="339.73,-74.53 330.11,-78.98 340.4,-81.5 339.73,-74.53"/>
<text text-anchor="middle" x="368" y="-81" font-family="Helvetica,sans-Serif" font-size="10.00"> listener_</text>
</g>
<!-- Node5 -->
<g id="node5" class="node">
<title>Node5</title>
<g id="a_node5"><a xlink:href="../../d9/df6/classAutocompleteInput.html" target="_top" xlink:title=" ">
<polygon fill="white" stroke="black" points="207.5,-38.5 207.5,-57.5 305.5,-57.5 305.5,-38.5 207.5,-38.5"/>
<text text-anchor="middle" x="256.5" y="-45.5" font-family="Helvetica,sans-Serif" font-size="10.00">AutocompleteInput</text>
</a>
</g>
</g>
<!-- Node5&#45;&gt;Node1 -->
<g id="edge4" class="edge">
<title>Node5&#45;&gt;Node1</title>
<path fill="none" stroke="#9a32cd" stroke-dasharray="5,2" d="M315.69,-52.45C338.28,-54.29 364.37,-56.57 388,-59 393.74,-59.59 399.76,-60.25 405.72,-60.94"/>
<polygon fill="#9a32cd" stroke="#9a32cd" points="315.82,-48.95 305.57,-51.63 315.26,-55.92 315.82,-48.95"/>
<text text-anchor="middle" x="368" y="-62" font-family="Helvetica,sans-Serif" font-size="10.00"> input_</text>
</g>
<!-- Node6 -->
<g id="node6" class="node">
<title>Node6</title>
<g id="a_node6"><a xlink:href="../../d5/dc7/classAutocompleteProviderClient.html" target="_top" xlink:title=" ">
<polygon fill="white" stroke="black" points="187.5,-0.5 187.5,-19.5 325.5,-19.5 325.5,-0.5 187.5,-0.5"/>
<text text-anchor="middle" x="256.5" y="-7.5" font-family="Helvetica,sans-Serif" font-size="10.00">AutocompleteProviderClient</text>
</a>
</g>
</g>
<!-- Node6&#45;&gt;Node1 -->
<g id="edge5" class="edge">
<title>Node6&#45;&gt;Node1</title>
<path fill="none" stroke="#9a32cd" stroke-dasharray="5,2" d="M314.69,-21.74C337.67,-26.93 364.29,-33.56 388,-41 402.92,-45.69 419.28,-52.12 431.98,-57.42"/>
<polygon fill="#9a32cd" stroke="#9a32cd" points="315.27,-18.28 304.75,-19.53 313.75,-25.11 315.27,-18.28"/>
<text text-anchor="middle" x="368" y="-44" font-family="Helvetica,sans-Serif" font-size="10.00"> client_</text>
</g>
</g>
</svg>
